<svg xmlns="http://www.w3.org/2000/svg" xmlns:xlink="http://www.w3.org/1999/xlink" version="1.1" x="0" y="0" width="1056px" height="816px">
    <g id="rootLayer" transform="translate(0.000000, 0.000000)">
        <path fill="none" stroke="#00fafa" stroke-width="3" d="M 326 425 L 327 424 L 336 424 L 337 425 L 338 425 L 341 428 L 341 429 L 342 430 L 342 431 L 343 432 L 343 438 L 342 439 L 342 440 L 338 444 L 336 444 L 335 445 L 326 445 L 325 444 L 324 444 L 321 441 L 321 440 L 320 439 L 320 437 L 319 436 L 319 432 L 320 431 L 320 430 L 321 429 L 321 428 L 323 426 L 324 426 L 325 425 L 326 425 L 327 424 "></path>
        <path fill="none" stroke="#fa00fa" stroke-width="3" d="M 701 162 L 706 162 L 708 164 L 708 165 L 709 166 L 709 168 L 708 169 L 708 170 L 705 173 L 704 173 L 703 174 L 701 174 L 700 173 L 699 173 L 697 171 L 697 166 L 701 162 L 706 162 "></path>
    </g>
</svg>
