<svg xmlns="http://www.w3.org/2000/svg" xmlns:xlink="http://www.w3.org/1999/xlink" version="1.1" x="0" y="0" width="1056px" height="816px">
    <g id="rootLayer" transform="translate(0.000000, 0.000000)">
        <path fill="none" stroke="#00fafa" stroke-width="3" d="M 552 105 L 551 106 L 549 106 L 547 108 L 546 108 L 544 110 L 544 111 L 543 112 L 543 113 L 542 114 L 542 115 L 541 116 L 541 126 L 540 127 L 540 128 L 531 137 L 530 137 L 529 138 L 519 138 L 518 139 L 516 139 L 515 140 L 514 140 L 512 142 L 511 142 L 506 147 L 505 147 L 504 148 L 497 148 L 496 147 L 495 147 L 494 146 L 493 146 L 489 142 L 488 142 L 487 141 L 486 141 L 485 140 L 476 140 L 475 141 L 473 141 L 472 142 L 471 142 L 469 144 L 468 144 L 467 145 L 462 145 L 461 144 L 459 144 L 458 143 L 456 143 L 455 142 L 453 142 L 449 138 L 449 137 L 448 136 L 448 135 L 447 134 L 447 133 L 446 132 L 446 131 L 444 129 L 444 128 L 439 123 L 438 123 L 437 122 L 436 122 L 434 120 L 432 120 L 431 119 L 429 119 L 428 118 L 412 118 L 411 119 L 409 119 L 408 120 L 406 120 L 405 121 L 400 121 L 399 120 L 398 120 L 396 118 L 395 118 L 393 116 L 392 116 L 391 115 L 389 115 L 388 114 L 387 114 L 386 113 L 384 113 L 383 112 L 380 112 L 379 111 L 376 111 L 375 110 L 370 110 L 369 109 L 362 109 L 361 108 L 352 108 L 351 109 L 347 109 L 346 110 L 344 110 L 343 111 L 342 111 L 341 112 L 340 112 L 335 117 L 334 117 L 331 120 L 331 121 L 330 122 L 330 125 L 332 127 L 335 127 L 338 124 L 338 123 L 344 117 L 345 117 L 346 116 L 348 116 L 349 115 L 354 115 L 355 114 L 357 114 L 358 115 L 366 115 L 367 116 L 372 116 L 373 117 L 377 117 L 378 118 L 380 118 L 381 119 L 383 119 L 384 120 L 386 120 L 387 121 L 388 121 L 389 122 L 390 122 L 391 123 L 392 123 L 394 125 L 395 125 L 396 126 L 396 127 L 397 128 L 397 134 L 396 135 L 396 139 L 395 140 L 395 145 L 394 146 L 394 151 L 393 152 L 393 161 L 394 162 L 394 166 L 395 167 L 395 168 L 394 169 L 394 170 L 393 171 L 393 172 L 392 173 L 391 173 L 388 176 L 387 176 L 386 177 L 383 177 L 377 171 L 377 170 L 376 169 L 376 168 L 375 167 L 375 165 L 374 164 L 374 153 L 375 152 L 375 149 L 376 148 L 376 146 L 377 145 L 377 143 L 378 142 L 378 141 L 379 140 L 379 139 L 380 138 L 380 137 L 381 136 L 381 133 L 380 132 L 380 131 L 375 131 L 374 132 L 374 133 L 373 134 L 373 136 L 372 137 L 372 139 L 371 140 L 371 142 L 370 143 L 370 145 L 369 146 L 369 148 L 368 149 L 368 153 L 367 154 L 367 164 L 368 165 L 368 168 L 369 169 L 369 171 L 370 172 L 370 173 L 371 174 L 371 175 L 379 183 L 379 184 L 380 185 L 380 190 L 379 191 L 379 192 L 378 193 L 378 194 L 377 195 L 377 196 L 374 199 L 373 199 L 372 200 L 370 200 L 369 199 L 368 199 L 367 198 L 366 198 L 355 187 L 355 186 L 352 183 L 352 182 L 350 180 L 350 179 L 349 178 L 349 177 L 347 175 L 347 174 L 346 173 L 346 172 L 345 171 L 345 170 L 343 168 L 343 162 L 345 160 L 345 159 L 349 155 L 349 154 L 350 153 L 350 152 L 351 151 L 351 150 L 350 149 L 350 148 L 349 147 L 345 147 L 343 149 L 343 150 L 342 151 L 342 152 L 341 153 L 341 154 L 340 155 L 340 156 L 335 161 L 321 161 L 320 162 L 317 162 L 316 163 L 308 163 L 307 162 L 306 162 L 305 161 L 303 161 L 302 160 L 286 160 L 285 161 L 280 161 L 279 162 L 276 162 L 275 163 L 272 163 L 271 164 L 268 164 L 267 165 L 266 165 L 265 166 L 265 170 L 266 171 L 271 171 L 272 170 L 274 170 L 275 169 L 277 169 L 278 168 L 281 168 L 282 167 L 287 167 L 288 166 L 300 166 L 301 167 L 303 167 L 304 168 L 305 168 L 306 169 L 306 170 L 307 171 L 307 173 L 304 176 L 303 176 L 302 177 L 301 177 L 300 178 L 298 178 L 297 179 L 296 179 L 294 181 L 293 181 L 284 190 L 284 191 L 281 194 L 281 195 L 280 196 L 280 197 L 278 199 L 278 200 L 277 201 L 277 203 L 276 204 L 276 207 L 275 208 L 275 213 L 276 214 L 276 216 L 275 217 L 275 219 L 273 221 L 273 222 L 270 225 L 270 226 L 269 227 L 269 228 L 268 229 L 268 232 L 267 233 L 267 245 L 266 246 L 266 247 L 261 252 L 261 253 L 260 254 L 260 255 L 259 256 L 259 260 L 258 261 L 258 262 L 259 263 L 259 267 L 260 268 L 260 270 L 261 271 L 261 278 L 260 279 L 260 280 L 259 281 L 259 285 L 258 286 L 258 287 L 259 288 L 259 293 L 260 294 L 260 299 L 259 300 L 259 301 L 258 302 L 258 303 L 256 305 L 256 307 L 255 308 L 255 310 L 254 311 L 254 316 L 253 317 L 253 322 L 254 323 L 254 328 L 255 329 L 255 331 L 256 332 L 256 333 L 258 335 L 258 336 L 263 341 L 263 342 L 265 344 L 265 354 L 266 355 L 266 358 L 267 359 L 267 360 L 270 363 L 270 364 L 273 367 L 274 367 L 276 369 L 277 369 L 279 371 L 280 371 L 282 373 L 283 373 L 285 375 L 286 375 L 291 380 L 291 384 L 288 387 L 279 387 L 278 386 L 275 386 L 274 385 L 272 385 L 271 386 L 270 386 L 268 388 L 268 391 L 271 394 L 284 394 L 285 395 L 288 395 L 292 399 L 292 400 L 293 401 L 293 402 L 294 403 L 294 404 L 296 406 L 296 407 L 297 408 L 297 409 L 301 413 L 301 414 L 305 418 L 305 419 L 306 420 L 306 424 L 304 426 L 294 426 L 293 425 L 283 425 L 282 424 L 275 424 L 274 423 L 271 423 L 270 424 L 269 424 L 267 426 L 267 429 L 268 430 L 268 431 L 269 431 L 270 432 L 287 432 L 288 433 L 296 433 L 297 434 L 303 434 L 304 435 L 305 435 L 307 437 L 307 443 L 306 444 L 306 445 L 304 447 L 304 448 L 303 449 L 303 454 L 304 455 L 304 456 L 306 458 L 307 458 L 309 460 L 310 460 L 312 462 L 313 462 L 314 463 L 314 464 L 316 466 L 316 467 L 317 468 L 317 470 L 318 471 L 318 479 L 319 480 L 319 483 L 320 484 L 320 485 L 321 486 L 321 487 L 324 490 L 324 491 L 328 495 L 328 496 L 332 500 L 332 501 L 334 503 L 335 503 L 337 505 L 339 505 L 340 506 L 372 506 L 373 505 L 376 505 L 377 504 L 379 504 L 380 503 L 383 503 L 384 502 L 385 502 L 386 503 L 387 503 L 389 505 L 389 508 L 387 510 L 386 510 L 385 511 L 383 511 L 382 512 L 379 512 L 378 513 L 375 513 L 374 514 L 370 514 L 369 515 L 364 515 L 363 516 L 358 516 L 357 515 L 347 515 L 346 516 L 345 516 L 344 517 L 343 517 L 342 518 L 342 519 L 337 524 L 335 524 L 334 525 L 333 525 L 332 524 L 331 524 L 330 523 L 329 523 L 328 522 L 328 521 L 322 515 L 321 515 L 320 514 L 318 514 L 317 513 L 308 513 L 307 514 L 305 514 L 303 516 L 302 516 L 298 520 L 298 521 L 297 522 L 297 524 L 296 525 L 296 533 L 297 534 L 297 536 L 298 537 L 298 538 L 304 544 L 305 544 L 306 545 L 308 545 L 309 546 L 317 546 L 318 545 L 320 545 L 321 544 L 322 544 L 328 538 L 328 537 L 332 533 L 333 533 L 334 532 L 339 532 L 340 533 L 341 533 L 349 541 L 350 541 L 351 542 L 353 542 L 354 543 L 357 543 L 358 544 L 361 544 L 362 545 L 363 545 L 364 546 L 366 546 L 367 547 L 368 547 L 369 548 L 370 548 L 371 549 L 372 549 L 373 550 L 375 550 L 376 551 L 381 551 L 382 552 L 388 552 L 389 551 L 393 551 L 394 552 L 403 552 L 404 553 L 410 553 L 411 554 L 417 554 L 418 555 L 425 555 L 426 556 L 434 556 L 435 557 L 447 557 L 448 558 L 461 558 L 462 559 L 475 559 L 476 560 L 545 560 L 546 559 L 556 559 L 557 558 L 564 558 L 565 557 L 570 557 L 571 556 L 575 556 L 576 555 L 580 555 L 581 554 L 585 554 L 586 553 L 590 553 L 591 552 L 595 552 L 596 551 L 601 551 L 602 550 L 607 550 L 608 549 L 614 549 L 615 548 L 621 548 L 622 547 L 628 547 L 629 546 L 635 546 L 636 545 L 644 545 L 645 544 L 659 544 L 660 543 L 670 543 L 671 542 L 676 542 L 677 541 L 697 541 L 698 540 L 701 540 L 702 539 L 703 539 L 705 537 L 706 537 L 715 528 L 716 528 L 717 527 L 720 527 L 721 526 L 724 526 L 725 527 L 728 527 L 729 528 L 730 528 L 731 529 L 732 529 L 733 530 L 734 530 L 735 531 L 736 531 L 737 532 L 742 532 L 743 531 L 743 530 L 744 529 L 744 525 L 743 524 L 743 523 L 741 521 L 741 520 L 740 519 L 740 518 L 734 512 L 733 512 L 732 511 L 731 511 L 730 510 L 728 510 L 727 509 L 725 509 L 724 508 L 723 508 L 722 507 L 721 507 L 720 506 L 719 506 L 712 499 L 712 498 L 699 485 L 698 485 L 696 483 L 694 483 L 693 482 L 690 482 L 689 481 L 687 481 L 685 479 L 685 476 L 687 474 L 695 474 L 696 473 L 697 473 L 697 472 L 698 471 L 698 468 L 697 467 L 697 466 L 696 465 L 696 463 L 695 462 L 695 461 L 694 460 L 694 457 L 693 456 L 693 450 L 692 449 L 692 424 L 693 423 L 693 418 L 694 417 L 694 412 L 695 411 L 695 405 L 696 404 L 696 394 L 697 393 L 697 389 L 696 388 L 696 385 L 694 383 L 694 382 L 692 380 L 691 380 L 688 377 L 687 377 L 683 373 L 683 372 L 681 370 L 681 369 L 680 368 L 680 367 L 679 366 L 679 364 L 678 363 L 678 362 L 677 361 L 677 358 L 676 357 L 676 352 L 675 351 L 675 338 L 676 337 L 676 332 L 677 331 L 677 326 L 678 325 L 678 321 L 679 320 L 679 319 L 682 316 L 685 316 L 687 318 L 687 319 L 688 320 L 688 321 L 687 322 L 687 324 L 686 325 L 686 327 L 685 328 L 685 330 L 684 331 L 684 333 L 683 334 L 683 342 L 682 343 L 682 349 L 683 350 L 683 356 L 684 357 L 684 359 L 685 360 L 685 362 L 686 363 L 686 364 L 687 365 L 687 366 L 689 368 L 689 369 L 695 375 L 701 375 L 703 373 L 704 373 L 705 372 L 705 371 L 714 362 L 715 362 L 717 360 L 718 360 L 719 359 L 720 359 L 721 358 L 722 358 L 723 357 L 724 357 L 726 355 L 727 355 L 728 354 L 729 354 L 730 353 L 731 353 L 732 352 L 733 352 L 734 351 L 740 351 L 741 352 L 743 352 L 744 353 L 745 353 L 748 356 L 748 357 L 749 358 L 749 360 L 748 361 L 748 362 L 743 367 L 741 367 L 740 368 L 739 367 L 736 367 L 735 366 L 732 366 L 731 365 L 727 365 L 726 366 L 724 366 L 723 367 L 722 367 L 719 370 L 718 370 L 714 374 L 713 374 L 710 377 L 709 377 L 705 381 L 705 382 L 704 383 L 704 385 L 703 386 L 703 390 L 704 391 L 704 402 L 703 403 L 703 409 L 702 410 L 702 414 L 701 415 L 701 420 L 700 421 L 700 428 L 699 429 L 699 442 L 700 443 L 700 450 L 701 451 L 701 455 L 702 456 L 702 460 L 703 461 L 703 466 L 704 467 L 704 468 L 706 470 L 707 470 L 708 471 L 711 471 L 712 470 L 713 470 L 715 468 L 715 467 L 716 466 L 716 465 L 717 464 L 717 463 L 718 462 L 718 461 L 719 460 L 719 458 L 720 457 L 720 456 L 721 455 L 721 454 L 722 453 L 722 452 L 724 450 L 724 449 L 734 439 L 734 438 L 735 437 L 735 436 L 736 435 L 736 433 L 737 432 L 737 425 L 736 424 L 736 416 L 737 415 L 737 414 L 738 413 L 738 412 L 745 405 L 745 404 L 746 403 L 746 402 L 747 401 L 747 393 L 748 392 L 748 391 L 751 388 L 752 388 L 753 387 L 761 387 L 762 388 L 771 388 L 772 389 L 778 389 L 779 390 L 783 390 L 784 391 L 786 391 L 787 392 L 791 392 L 792 391 L 793 391 L 794 390 L 794 386 L 792 384 L 791 384 L 790 383 L 781 383 L 780 382 L 776 382 L 775 381 L 769 381 L 768 380 L 753 380 L 752 379 L 751 379 L 748 376 L 748 374 L 749 373 L 749 372 L 752 369 L 753 369 L 754 368 L 755 368 L 756 367 L 759 367 L 760 368 L 776 368 L 777 369 L 779 369 L 780 368 L 789 368 L 790 367 L 792 367 L 793 366 L 794 366 L 795 365 L 796 365 L 801 360 L 801 359 L 802 358 L 802 357 L 803 356 L 803 349 L 802 348 L 802 347 L 801 346 L 801 345 L 799 343 L 799 342 L 798 341 L 798 339 L 797 338 L 797 328 L 796 327 L 796 325 L 795 324 L 795 320 L 796 319 L 796 317 L 797 316 L 797 307 L 796 306 L 796 305 L 795 304 L 795 303 L 793 301 L 793 300 L 792 300 L 789 297 L 788 297 L 787 296 L 785 296 L 784 295 L 773 295 L 772 296 L 770 296 L 769 297 L 764 297 L 763 296 L 762 296 L 759 293 L 759 292 L 758 291 L 758 290 L 757 289 L 757 288 L 756 287 L 756 285 L 755 284 L 755 281 L 754 280 L 754 277 L 753 276 L 753 275 L 752 274 L 752 273 L 751 272 L 751 269 L 750 268 L 751 267 L 751 264 L 752 263 L 752 262 L 753 261 L 753 258 L 754 257 L 754 247 L 753 246 L 753 243 L 752 242 L 752 240 L 751 239 L 751 238 L 749 236 L 749 235 L 742 228 L 741 228 L 740 227 L 740 226 L 739 225 L 739 223 L 738 222 L 738 216 L 739 215 L 739 214 L 750 203 L 750 202 L 751 201 L 751 200 L 752 199 L 752 198 L 753 197 L 753 195 L 754 194 L 754 184 L 753 183 L 753 180 L 752 179 L 752 178 L 751 177 L 751 176 L 749 174 L 749 173 L 743 167 L 742 167 L 739 164 L 738 164 L 737 163 L 736 163 L 735 162 L 734 162 L 733 161 L 731 161 L 730 160 L 728 160 L 727 159 L 724 159 L 723 158 L 705 158 L 704 159 L 702 159 L 701 160 L 699 160 L 698 161 L 697 161 L 695 163 L 694 163 L 693 164 L 692 164 L 691 165 L 687 165 L 686 164 L 685 164 L 684 163 L 682 163 L 681 162 L 678 162 L 677 161 L 668 161 L 667 160 L 666 160 L 661 155 L 661 154 L 657 150 L 656 150 L 654 148 L 653 148 L 652 147 L 650 147 L 649 146 L 646 146 L 645 145 L 641 145 L 640 146 L 637 146 L 636 147 L 635 147 L 634 148 L 632 148 L 631 149 L 627 149 L 626 148 L 625 148 L 624 147 L 623 147 L 622 146 L 620 146 L 619 145 L 618 145 L 617 144 L 615 144 L 614 143 L 612 143 L 611 142 L 610 142 L 608 140 L 608 139 L 607 138 L 607 137 L 606 136 L 606 135 L 605 134 L 605 133 L 599 127 L 598 127 L 597 126 L 596 126 L 595 125 L 594 125 L 593 124 L 591 124 L 590 123 L 587 123 L 586 122 L 582 122 L 581 121 L 577 121 L 576 120 L 573 120 L 569 116 L 569 115 L 568 114 L 568 113 L 567 112 L 567 111 L 563 107 L 562 107 L 561 106 L 559 106 L 558 105 L 552 105 L 551 106 "></path>
        <path fill="none" stroke="#00fafa" stroke-width="3" d="M 674 551 L 673 552 L 651 552 L 650 553 L 636 553 L 635 554 L 627 554 L 626 555 L 619 555 L 618 556 L 611 556 L 610 557 L 604 557 L 603 558 L 598 558 L 597 559 L 592 559 L 591 560 L 587 560 L 586 561 L 582 561 L 581 562 L 577 562 L 576 563 L 571 563 L 570 564 L 565 564 L 564 565 L 557 565 L 556 566 L 545 566 L 544 567 L 471 567 L 470 566 L 454 566 L 453 565 L 435 565 L 434 564 L 422 564 L 421 563 L 413 563 L 412 562 L 404 562 L 403 561 L 389 561 L 388 562 L 385 562 L 384 563 L 378 563 L 377 562 L 374 562 L 373 561 L 371 561 L 370 560 L 368 560 L 367 559 L 364 559 L 363 558 L 360 558 L 359 557 L 355 557 L 354 556 L 350 556 L 349 555 L 345 555 L 344 554 L 341 554 L 340 553 L 338 553 L 337 552 L 332 552 L 331 553 L 330 553 L 330 554 L 329 555 L 329 557 L 330 558 L 330 559 L 331 560 L 332 560 L 333 561 L 340 561 L 341 562 L 345 562 L 346 563 L 350 563 L 351 564 L 354 564 L 355 565 L 359 565 L 360 566 L 362 566 L 363 567 L 366 567 L 367 568 L 369 568 L 370 569 L 372 569 L 373 570 L 375 570 L 377 572 L 378 572 L 380 574 L 380 575 L 385 580 L 386 580 L 387 581 L 392 581 L 393 582 L 400 582 L 401 583 L 404 583 L 405 584 L 407 584 L 408 585 L 409 585 L 410 586 L 411 586 L 412 587 L 414 587 L 415 588 L 416 588 L 417 589 L 418 589 L 419 590 L 420 590 L 421 591 L 423 591 L 424 592 L 427 592 L 428 593 L 438 593 L 439 594 L 441 594 L 442 593 L 469 593 L 470 594 L 477 594 L 478 595 L 483 595 L 484 596 L 488 596 L 489 597 L 494 597 L 495 598 L 506 598 L 507 597 L 511 597 L 512 596 L 516 596 L 517 595 L 532 595 L 533 596 L 536 596 L 537 597 L 539 597 L 540 598 L 542 598 L 543 599 L 547 599 L 548 598 L 550 598 L 551 597 L 553 597 L 554 596 L 556 596 L 557 595 L 569 595 L 570 594 L 571 594 L 572 593 L 573 593 L 574 592 L 576 592 L 577 591 L 578 591 L 579 590 L 581 590 L 582 589 L 586 589 L 587 588 L 592 588 L 593 589 L 598 589 L 599 590 L 601 590 L 602 591 L 606 591 L 607 592 L 612 592 L 613 591 L 615 591 L 616 590 L 617 590 L 618 589 L 619 589 L 620 588 L 621 588 L 623 586 L 624 586 L 626 584 L 627 584 L 628 583 L 630 583 L 631 582 L 651 582 L 652 581 L 654 581 L 655 580 L 656 580 L 657 579 L 658 579 L 661 576 L 662 576 L 666 572 L 667 572 L 668 571 L 669 571 L 670 570 L 672 570 L 673 569 L 683 569 L 684 568 L 685 568 L 686 567 L 687 567 L 690 564 L 691 564 L 692 563 L 693 563 L 694 562 L 697 562 L 698 563 L 702 563 L 703 564 L 706 564 L 707 565 L 712 565 L 713 566 L 735 566 L 736 565 L 742 565 L 743 566 L 751 566 L 752 567 L 755 567 L 756 568 L 758 568 L 759 569 L 761 569 L 762 570 L 764 570 L 765 571 L 766 571 L 767 572 L 768 572 L 769 573 L 770 573 L 771 574 L 772 574 L 773 575 L 774 575 L 776 577 L 777 577 L 778 578 L 782 578 L 784 576 L 784 574 L 783 573 L 783 572 L 782 571 L 781 571 L 780 570 L 779 570 L 778 569 L 777 569 L 776 568 L 774 568 L 773 567 L 772 567 L 771 566 L 770 566 L 769 565 L 768 565 L 767 564 L 766 564 L 765 563 L 764 563 L 763 562 L 761 562 L 760 561 L 757 561 L 756 560 L 753 560 L 752 559 L 746 559 L 745 558 L 712 558 L 711 557 L 707 557 L 706 556 L 703 556 L 702 555 L 698 555 L 697 554 L 693 554 L 692 553 L 690 553 L 689 552 L 687 552 L 686 551 L 674 551 L 673 552 "></path>
        <path fill="none" stroke="#00fafa" stroke-width="3" d="M 373 600 L 372 601 L 368 601 L 367 602 L 365 602 L 364 603 L 363 603 L 362 604 L 361 604 L 360 605 L 359 605 L 356 608 L 355 608 L 346 617 L 346 618 L 339 625 L 339 630 L 340 631 L 345 631 L 347 629 L 347 628 L 349 626 L 349 625 L 353 621 L 353 620 L 358 615 L 359 615 L 362 612 L 363 612 L 364 611 L 365 611 L 366 610 L 367 610 L 368 609 L 370 609 L 371 608 L 384 608 L 385 609 L 389 609 L 390 610 L 403 610 L 404 609 L 417 609 L 418 610 L 420 610 L 421 611 L 426 611 L 427 612 L 434 612 L 435 611 L 439 611 L 440 612 L 443 612 L 446 615 L 446 616 L 447 617 L 447 620 L 448 621 L 448 623 L 451 626 L 456 626 L 457 625 L 458 625 L 459 624 L 460 624 L 461 623 L 462 623 L 463 622 L 466 622 L 467 621 L 473 621 L 474 622 L 477 622 L 478 623 L 481 623 L 482 624 L 485 624 L 486 625 L 489 625 L 490 626 L 493 626 L 494 627 L 498 627 L 499 628 L 512 628 L 513 627 L 516 627 L 517 626 L 526 626 L 527 627 L 528 627 L 529 628 L 530 628 L 534 632 L 534 633 L 535 634 L 535 637 L 536 638 L 536 641 L 539 644 L 542 644 L 545 641 L 545 631 L 546 630 L 546 628 L 547 627 L 547 625 L 548 624 L 548 614 L 547 613 L 547 612 L 546 611 L 546 610 L 544 608 L 543 608 L 542 607 L 541 607 L 540 606 L 538 606 L 537 605 L 534 605 L 533 604 L 528 604 L 527 603 L 522 603 L 521 604 L 517 604 L 516 605 L 513 605 L 512 606 L 508 606 L 507 607 L 494 607 L 493 606 L 488 606 L 487 605 L 482 605 L 481 604 L 475 604 L 474 603 L 466 603 L 465 602 L 459 602 L 458 603 L 453 603 L 452 604 L 427 604 L 426 603 L 422 603 L 421 602 L 418 602 L 417 601 L 404 601 L 403 602 L 389 602 L 388 601 L 383 601 L 382 600 L 373 600 L 372 601 "></path>
        <path fill="none" stroke="#00fafa" stroke-width="3" d="M 358 636 L 357 637 L 356 637 L 356 638 L 355 639 L 355 641 L 356 642 L 356 643 L 357 643 L 358 644 L 381 644 L 382 645 L 388 645 L 389 646 L 394 646 L 395 647 L 400 647 L 401 648 L 411 648 L 412 649 L 446 649 L 447 650 L 458 650 L 459 651 L 468 651 L 469 652 L 477 652 L 478 653 L 483 653 L 484 654 L 487 654 L 488 655 L 490 655 L 491 656 L 494 656 L 495 657 L 497 657 L 498 658 L 500 658 L 501 659 L 504 659 L 505 660 L 509 660 L 510 661 L 515 661 L 516 662 L 522 662 L 523 663 L 528 663 L 529 664 L 533 664 L 534 665 L 537 665 L 538 666 L 541 666 L 542 667 L 545 667 L 546 668 L 551 668 L 552 669 L 562 669 L 563 668 L 568 668 L 569 667 L 575 667 L 576 666 L 587 666 L 588 665 L 595 665 L 596 666 L 605 666 L 606 667 L 617 667 L 618 668 L 626 668 L 627 667 L 628 667 L 630 665 L 630 663 L 629 662 L 629 661 L 628 660 L 607 660 L 606 659 L 598 659 L 597 658 L 584 658 L 583 659 L 574 659 L 573 660 L 567 660 L 566 661 L 561 661 L 560 662 L 553 662 L 552 661 L 548 661 L 547 660 L 544 660 L 543 659 L 541 659 L 540 658 L 537 658 L 536 657 L 532 657 L 531 656 L 526 656 L 525 655 L 520 655 L 519 654 L 513 654 L 512 653 L 508 653 L 507 652 L 504 652 L 503 651 L 501 651 L 500 650 L 497 650 L 496 649 L 494 649 L 493 648 L 491 648 L 490 647 L 487 647 L 486 646 L 482 646 L 481 645 L 475 645 L 474 644 L 464 644 L 463 643 L 453 643 L 452 642 L 417 642 L 416 641 L 403 641 L 402 640 L 396 640 L 395 639 L 390 639 L 389 638 L 383 638 L 382 637 L 366 637 L 365 636 L 358 636 L 357 637 "></path>
        <path fill="none" stroke="#00fafa" stroke-width="3" d="M 721 669 L 720 670 L 713 670 L 712 671 L 708 671 L 707 672 L 705 672 L 704 673 L 702 673 L 701 674 L 699 674 L 698 675 L 696 675 L 695 676 L 694 676 L 693 677 L 692 677 L 691 678 L 689 678 L 688 679 L 687 679 L 686 680 L 684 680 L 683 681 L 682 681 L 681 682 L 679 682 L 678 683 L 676 683 L 675 684 L 672 684 L 671 685 L 667 685 L 666 686 L 661 686 L 660 687 L 652 687 L 651 688 L 630 688 L 629 689 L 616 689 L 615 690 L 611 690 L 610 691 L 607 691 L 606 692 L 604 692 L 603 693 L 600 693 L 599 694 L 597 694 L 596 695 L 594 695 L 593 696 L 591 696 L 590 697 L 587 697 L 586 698 L 583 698 L 582 699 L 578 699 L 577 700 L 572 700 L 571 701 L 563 701 L 562 702 L 553 702 L 552 703 L 545 703 L 544 704 L 538 704 L 537 705 L 532 705 L 531 706 L 527 706 L 526 707 L 522 707 L 521 708 L 519 708 L 518 709 L 515 709 L 514 710 L 512 710 L 511 711 L 508 711 L 507 712 L 505 712 L 504 713 L 501 713 L 500 714 L 497 714 L 496 715 L 493 715 L 492 716 L 488 716 L 487 717 L 478 717 L 477 718 L 476 718 L 474 720 L 474 722 L 475 723 L 475 724 L 476 724 L 477 725 L 480 725 L 481 724 L 484 724 L 485 723 L 490 723 L 491 722 L 495 722 L 496 721 L 499 721 L 500 720 L 503 720 L 504 719 L 507 719 L 508 718 L 510 718 L 511 717 L 514 717 L 515 716 L 517 716 L 518 715 L 521 715 L 522 714 L 525 714 L 526 713 L 530 713 L 531 712 L 535 712 L 536 711 L 542 711 L 543 710 L 550 710 L 551 709 L 560 709 L 561 708 L 569 708 L 570 707 L 576 707 L 577 706 L 582 706 L 583 705 L 586 705 L 587 704 L 590 704 L 591 703 L 593 703 L 594 702 L 597 702 L 598 701 L 600 701 L 601 700 L 603 700 L 604 699 L 606 699 L 607 698 L 610 698 L 611 697 L 614 697 L 615 696 L 623 696 L 624 695 L 646 695 L 647 694 L 657 694 L 658 693 L 664 693 L 665 692 L 670 692 L 671 691 L 674 691 L 675 690 L 677 690 L 678 689 L 681 689 L 682 688 L 683 688 L 684 687 L 686 687 L 687 686 L 689 686 L 690 685 L 691 685 L 692 684 L 693 684 L 694 683 L 696 683 L 697 682 L 698 682 L 699 681 L 701 681 L 702 680 L 703 680 L 704 679 L 706 679 L 707 678 L 710 678 L 711 677 L 715 677 L 716 676 L 728 676 L 729 675 L 745 675 L 746 676 L 762 676 L 763 677 L 771 677 L 772 676 L 772 672 L 771 671 L 770 671 L 769 670 L 753 670 L 752 669 L 721 669 L 720 670 "></path>
        <path fill="none" stroke="#00fafa" stroke-width="3" d="M 908 537 L 907 538 L 901 538 L 900 539 L 897 539 L 896 540 L 893 540 L 892 541 L 890 541 L 889 542 L 887 542 L 886 543 L 884 543 L 883 544 L 881 544 L 880 545 L 878 545 L 877 546 L 875 546 L 874 547 L 870 547 L 869 548 L 864 548 L 863 549 L 856 549 L 855 550 L 847 550 L 846 551 L 825 551 L 824 552 L 819 552 L 818 553 L 816 553 L 815 554 L 814 554 L 810 558 L 810 559 L 809 560 L 809 567 L 810 568 L 810 569 L 814 573 L 815 573 L 816 574 L 817 574 L 818 575 L 822 575 L 823 576 L 839 576 L 840 575 L 848 575 L 849 574 L 855 574 L 856 573 L 861 573 L 862 572 L 869 572 L 870 571 L 882 571 L 883 572 L 889 572 L 890 573 L 894 573 L 895 574 L 898 574 L 899 575 L 902 575 L 903 576 L 906 576 L 907 577 L 910 577 L 911 578 L 915 578 L 916 579 L 920 579 L 921 580 L 926 580 L 927 581 L 931 581 L 932 582 L 936 582 L 938 580 L 938 577 L 937 577 L 936 576 L 931 576 L 930 575 L 924 575 L 923 574 L 919 574 L 918 573 L 914 573 L 913 572 L 910 572 L 909 571 L 906 571 L 905 570 L 902 570 L 901 569 L 899 569 L 898 568 L 894 568 L 893 567 L 889 567 L 888 566 L 881 566 L 880 565 L 871 565 L 870 566 L 862 566 L 861 567 L 855 567 L 854 568 L 848 568 L 847 569 L 837 569 L 836 570 L 825 570 L 824 569 L 820 569 L 816 565 L 816 562 L 819 559 L 820 559 L 821 558 L 835 558 L 836 557 L 848 557 L 849 556 L 856 556 L 857 555 L 864 555 L 865 554 L 870 554 L 871 553 L 874 553 L 875 552 L 878 552 L 879 551 L 881 551 L 882 550 L 884 550 L 885 549 L 887 549 L 888 548 L 890 548 L 891 547 L 893 547 L 894 546 L 896 546 L 897 545 L 900 545 L 901 544 L 905 544 L 906 543 L 948 543 L 949 544 L 954 544 L 955 543 L 956 543 L 956 540 L 954 538 L 942 538 L 941 537 L 908 537 L 907 538 "></path>
        <path fill="none" stroke="#00fafa" stroke-width="3" d="M 726 614 L 725 615 L 723 615 L 719 619 L 719 620 L 718 621 L 718 622 L 717 623 L 717 628 L 718 629 L 718 631 L 720 633 L 720 634 L 723 637 L 724 637 L 726 639 L 727 639 L 728 640 L 730 640 L 731 641 L 733 641 L 734 642 L 737 642 L 738 643 L 743 643 L 744 644 L 779 644 L 780 643 L 816 643 L 817 642 L 817 638 L 816 637 L 774 637 L 773 638 L 750 638 L 749 637 L 742 637 L 741 636 L 737 636 L 736 635 L 734 635 L 733 634 L 731 634 L 729 632 L 728 632 L 725 629 L 725 627 L 724 626 L 725 625 L 725 623 L 726 622 L 727 622 L 728 621 L 730 621 L 731 620 L 732 620 L 733 621 L 737 621 L 738 622 L 740 622 L 741 623 L 744 623 L 745 624 L 750 624 L 751 625 L 795 625 L 796 626 L 818 626 L 819 627 L 828 627 L 829 628 L 834 628 L 835 629 L 841 629 L 842 628 L 842 627 L 843 626 L 842 625 L 842 624 L 841 623 L 839 623 L 838 622 L 828 622 L 827 621 L 820 621 L 819 620 L 801 620 L 800 619 L 757 619 L 756 618 L 749 618 L 748 617 L 745 617 L 744 616 L 741 616 L 740 615 L 738 615 L 737 614 L 726 614 L 725 615 "></path>
        <path fill="none" stroke="#00fafa" stroke-width="3" d="M 394 670 L 393 671 L 335 671 L 334 672 L 311 672 L 309 674 L 309 677 L 311 679 L 319 679 L 320 678 L 344 678 L 345 677 L 423 677 L 424 678 L 436 678 L 437 679 L 443 679 L 444 680 L 450 680 L 451 681 L 456 681 L 457 682 L 462 682 L 463 683 L 468 683 L 469 684 L 476 684 L 477 685 L 489 685 L 490 684 L 495 684 L 496 683 L 502 683 L 503 682 L 506 682 L 508 680 L 508 676 L 506 674 L 502 674 L 501 675 L 499 675 L 498 676 L 495 676 L 494 677 L 489 677 L 488 678 L 477 678 L 476 677 L 469 677 L 468 676 L 463 676 L 462 675 L 457 675 L 456 674 L 451 674 L 450 673 L 445 673 L 444 672 L 437 672 L 436 671 L 421 671 L 420 670 L 394 670 L 393 671 "></path>
        <path fill="none" stroke="#00fafa" stroke-width="3" d="M 598 675 L 597 676 L 593 676 L 592 677 L 586 677 L 585 678 L 578 678 L 577 679 L 569 679 L 568 680 L 554 680 L 553 681 L 540 681 L 539 682 L 533 682 L 532 683 L 529 683 L 528 684 L 525 684 L 524 685 L 522 685 L 521 686 L 519 686 L 518 687 L 517 687 L 516 688 L 514 688 L 513 689 L 512 689 L 511 690 L 510 690 L 509 691 L 508 691 L 507 692 L 505 692 L 504 693 L 502 693 L 501 694 L 499 694 L 498 695 L 496 695 L 495 696 L 493 696 L 492 697 L 489 697 L 488 698 L 484 698 L 483 699 L 480 699 L 479 700 L 475 700 L 474 701 L 469 701 L 468 702 L 460 702 L 459 703 L 449 703 L 448 702 L 437 702 L 436 701 L 432 701 L 431 700 L 429 700 L 428 699 L 425 699 L 424 700 L 423 700 L 422 701 L 422 705 L 423 706 L 424 706 L 425 707 L 432 707 L 433 708 L 439 708 L 440 709 L 467 709 L 468 708 L 473 708 L 474 707 L 478 707 L 479 706 L 483 706 L 484 705 L 487 705 L 488 704 L 491 704 L 492 703 L 495 703 L 496 702 L 499 702 L 500 701 L 502 701 L 503 700 L 505 700 L 506 699 L 508 699 L 509 698 L 510 698 L 511 697 L 512 697 L 513 696 L 515 696 L 516 695 L 517 695 L 518 694 L 519 694 L 520 693 L 522 693 L 523 692 L 525 692 L 526 691 L 528 691 L 529 690 L 533 690 L 534 689 L 540 689 L 541 688 L 553 688 L 554 687 L 567 687 L 568 686 L 577 686 L 578 685 L 585 685 L 586 684 L 596 684 L 597 683 L 600 683 L 602 681 L 602 677 L 601 676 L 599 676 L 598 675 L 597 676 "></path>
        <path fill="none" stroke="#00fafa" stroke-width="3" d="M 636 591 L 635 592 L 633 592 L 632 593 L 631 593 L 630 594 L 629 594 L 625 598 L 624 598 L 623 599 L 621 599 L 620 600 L 617 600 L 616 601 L 610 601 L 609 602 L 604 602 L 603 601 L 601 601 L 600 600 L 599 600 L 598 599 L 596 599 L 595 598 L 592 598 L 591 597 L 587 597 L 586 598 L 581 598 L 580 599 L 578 599 L 577 600 L 576 600 L 574 602 L 574 603 L 573 604 L 573 610 L 574 611 L 574 612 L 575 613 L 575 614 L 577 616 L 577 617 L 578 617 L 580 619 L 582 619 L 583 620 L 588 620 L 589 619 L 592 619 L 593 618 L 595 618 L 597 616 L 598 616 L 602 612 L 603 612 L 604 611 L 605 611 L 606 610 L 609 610 L 610 609 L 615 609 L 616 608 L 625 608 L 626 609 L 627 609 L 629 611 L 629 612 L 632 615 L 632 616 L 633 616 L 634 617 L 639 617 L 640 616 L 641 616 L 642 615 L 642 614 L 644 612 L 644 611 L 645 610 L 645 609 L 646 608 L 646 607 L 647 606 L 647 605 L 648 604 L 648 602 L 649 601 L 649 597 L 648 596 L 648 595 L 645 592 L 644 592 L 643 591 L 636 591 L 635 592 "></path>
        <path fill="none" stroke="#00fafa" stroke-width="3" d="M 732 711 L 731 712 L 722 712 L 721 713 L 716 713 L 715 714 L 710 714 L 709 715 L 705 715 L 704 716 L 701 716 L 700 717 L 698 717 L 697 718 L 695 718 L 694 719 L 691 719 L 690 720 L 687 720 L 684 723 L 684 725 L 686 727 L 690 727 L 691 726 L 693 726 L 694 725 L 695 725 L 696 724 L 698 724 L 699 723 L 702 723 L 703 722 L 706 722 L 707 721 L 710 721 L 711 720 L 716 720 L 717 719 L 722 719 L 723 718 L 731 718 L 732 717 L 771 717 L 772 718 L 784 718 L 785 719 L 798 719 L 799 720 L 809 720 L 810 721 L 818 721 L 819 722 L 826 722 L 827 723 L 833 723 L 834 724 L 839 724 L 840 725 L 845 725 L 846 726 L 850 726 L 851 727 L 856 727 L 857 728 L 861 728 L 862 729 L 867 729 L 868 730 L 875 730 L 876 731 L 885 731 L 886 732 L 891 732 L 893 730 L 893 729 L 892 728 L 892 727 L 891 727 L 890 726 L 877 726 L 876 725 L 870 725 L 869 724 L 864 724 L 863 723 L 859 723 L 858 722 L 853 722 L 852 721 L 848 721 L 847 720 L 843 720 L 842 719 L 837 719 L 836 718 L 830 718 L 829 717 L 823 717 L 822 716 L 815 716 L 814 715 L 807 715 L 806 714 L 795 714 L 794 713 L 782 713 L 781 712 L 769 712 L 768 711 L 732 711 L 731 712 "></path>
        <path fill="none" stroke="#00fafa" stroke-width="3" d="M 785 479 L 784 480 L 778 480 L 777 481 L 775 481 L 774 482 L 772 482 L 771 483 L 769 483 L 768 484 L 767 484 L 765 486 L 764 486 L 761 489 L 760 489 L 758 491 L 758 492 L 755 495 L 755 496 L 753 498 L 753 499 L 752 500 L 752 501 L 751 502 L 751 503 L 750 504 L 750 505 L 749 506 L 749 507 L 748 508 L 748 509 L 747 510 L 747 513 L 750 516 L 753 516 L 754 515 L 755 515 L 755 514 L 756 513 L 756 511 L 757 510 L 757 508 L 758 507 L 758 505 L 759 504 L 759 503 L 761 501 L 761 500 L 763 498 L 763 497 L 766 494 L 767 494 L 770 491 L 771 491 L 772 490 L 773 490 L 774 489 L 776 489 L 777 488 L 780 488 L 781 487 L 786 487 L 787 486 L 799 486 L 800 487 L 806 487 L 807 488 L 810 488 L 811 489 L 814 489 L 815 490 L 817 490 L 818 491 L 820 491 L 821 492 L 823 492 L 824 493 L 826 493 L 827 494 L 829 494 L 830 495 L 832 495 L 833 496 L 836 496 L 837 497 L 840 497 L 841 498 L 845 498 L 846 499 L 852 499 L 853 500 L 863 500 L 864 499 L 871 499 L 872 498 L 876 498 L 877 497 L 880 497 L 881 496 L 885 496 L 886 495 L 890 495 L 891 494 L 900 494 L 901 493 L 902 493 L 902 492 L 903 491 L 903 490 L 902 489 L 902 488 L 901 488 L 900 487 L 897 487 L 896 488 L 892 488 L 891 489 L 885 489 L 884 490 L 880 490 L 879 491 L 876 491 L 875 492 L 870 492 L 869 493 L 848 493 L 847 492 L 844 492 L 843 491 L 840 491 L 839 490 L 836 490 L 835 489 L 833 489 L 832 488 L 830 488 L 829 487 L 827 487 L 826 486 L 824 486 L 823 485 L 821 485 L 820 484 L 818 484 L 817 483 L 815 483 L 814 482 L 811 482 L 810 481 L 807 481 L 806 480 L 800 480 L 799 479 L 785 479 L 784 480 "></path>
        <path fill="none" stroke="#00fafa" stroke-width="3" d="M 795 586 L 794 587 L 792 587 L 791 588 L 790 588 L 786 592 L 786 593 L 785 594 L 785 601 L 786 602 L 786 603 L 789 606 L 790 606 L 791 607 L 792 607 L 793 608 L 795 608 L 796 609 L 810 609 L 811 610 L 832 610 L 833 611 L 859 611 L 860 610 L 867 610 L 868 609 L 872 609 L 873 608 L 876 608 L 877 607 L 880 607 L 881 606 L 884 606 L 885 605 L 890 605 L 891 604 L 897 604 L 898 603 L 907 603 L 908 602 L 915 602 L 917 600 L 917 598 L 915 596 L 911 596 L 910 597 L 902 597 L 901 598 L 893 598 L 892 599 L 886 599 L 885 600 L 882 600 L 881 601 L 877 601 L 876 602 L 873 602 L 872 603 L 868 603 L 867 604 L 862 604 L 861 605 L 833 605 L 832 604 L 815 604 L 814 603 L 798 603 L 797 602 L 795 602 L 792 599 L 792 596 L 795 593 L 796 593 L 797 592 L 811 592 L 812 593 L 830 593 L 831 594 L 837 594 L 838 593 L 839 593 L 839 592 L 840 591 L 839 590 L 839 589 L 837 587 L 815 587 L 814 586 L 795 586 L 794 587 "></path>
        <path fill="none" stroke="#00fafa" stroke-width="3" d="M 191 551 L 190 552 L 189 552 L 189 556 L 190 557 L 191 557 L 192 558 L 195 558 L 196 559 L 197 559 L 198 560 L 199 560 L 200 561 L 201 561 L 204 564 L 205 564 L 207 566 L 209 566 L 210 567 L 227 567 L 228 568 L 240 568 L 241 569 L 300 569 L 301 570 L 306 570 L 307 571 L 310 571 L 311 572 L 312 572 L 313 573 L 314 573 L 315 574 L 316 574 L 318 576 L 319 576 L 325 582 L 325 583 L 328 586 L 328 587 L 330 589 L 330 590 L 331 591 L 331 592 L 332 593 L 332 594 L 333 595 L 333 596 L 335 598 L 340 598 L 341 597 L 341 592 L 340 591 L 340 590 L 336 586 L 336 585 L 334 583 L 334 582 L 332 580 L 332 579 L 322 569 L 321 569 L 319 567 L 318 567 L 317 566 L 315 566 L 314 565 L 313 565 L 312 564 L 309 564 L 308 563 L 301 563 L 300 562 L 276 562 L 275 563 L 251 563 L 250 562 L 233 562 L 232 561 L 212 561 L 211 560 L 210 560 L 209 559 L 208 559 L 206 557 L 205 557 L 203 555 L 202 555 L 201 554 L 200 554 L 199 553 L 198 553 L 197 552 L 196 552 L 195 551 L 191 551 L 190 552 "></path>
        <path fill="none" stroke="#00fafa" stroke-width="3" d="M 277 713 L 275 715 L 275 717 L 277 719 L 279 719 L 280 720 L 288 720 L 289 721 L 293 721 L 294 722 L 299 722 L 300 723 L 305 723 L 306 724 L 311 724 L 312 725 L 318 725 L 319 726 L 324 726 L 325 727 L 332 727 L 333 728 L 340 728 L 341 729 L 348 729 L 349 730 L 356 730 L 357 731 L 365 731 L 366 732 L 376 732 L 377 733 L 413 733 L 414 732 L 423 732 L 424 731 L 436 731 L 439 728 L 439 726 L 437 724 L 436 724 L 435 723 L 434 724 L 430 724 L 429 725 L 421 725 L 420 726 L 410 726 L 409 727 L 379 727 L 378 726 L 367 726 L 366 725 L 358 725 L 357 724 L 350 724 L 349 723 L 341 723 L 340 722 L 333 722 L 332 721 L 326 721 L 325 720 L 319 720 L 318 719 L 312 719 L 311 718 L 306 718 L 305 717 L 300 717 L 299 716 L 294 716 L 293 715 L 288 715 L 287 714 L 283 714 L 282 713 L 277 713 L 275 715 "></path>
        <path fill="none" stroke="#00fafa" stroke-width="3" d="M 831 752 L 830 753 L 819 753 L 818 754 L 807 754 L 806 755 L 735 755 L 734 754 L 689 754 L 688 753 L 685 753 L 684 754 L 683 754 L 682 755 L 682 759 L 683 759 L 684 760 L 744 760 L 745 761 L 764 761 L 765 760 L 811 760 L 812 759 L 821 759 L 822 758 L 834 758 L 835 757 L 853 757 L 854 758 L 860 758 L 861 757 L 862 757 L 862 754 L 860 752 L 831 752 L 830 753 "></path>
        <path fill="none" stroke="#00fafa" stroke-width="3" d="M 473 735 L 471 737 L 471 740 L 473 742 L 483 742 L 484 743 L 495 743 L 496 744 L 508 744 L 509 745 L 520 745 L 521 746 L 530 746 L 531 747 L 538 747 L 539 748 L 547 748 L 548 749 L 557 749 L 558 750 L 578 750 L 579 749 L 585 749 L 586 748 L 590 748 L 591 747 L 593 747 L 594 746 L 596 746 L 597 745 L 599 745 L 600 744 L 601 744 L 602 743 L 605 743 L 606 742 L 607 742 L 609 740 L 609 737 L 607 735 L 603 735 L 602 736 L 601 736 L 599 738 L 598 738 L 597 739 L 595 739 L 594 740 L 592 740 L 591 741 L 589 741 L 588 742 L 584 742 L 583 743 L 576 743 L 575 744 L 562 744 L 561 743 L 551 743 L 550 742 L 542 742 L 541 741 L 534 741 L 533 740 L 525 740 L 524 739 L 514 739 L 513 738 L 501 738 L 500 737 L 488 737 L 487 736 L 479 736 L 478 735 L 473 735 L 471 737 "></path>
        <path fill="none" stroke="#00fafa" stroke-width="3" d="M 205 744 L 204 745 L 199 745 L 198 746 L 194 746 L 193 747 L 191 747 L 190 748 L 188 748 L 187 749 L 185 749 L 184 750 L 182 750 L 181 751 L 179 751 L 178 752 L 174 752 L 173 753 L 167 753 L 166 754 L 166 755 L 165 756 L 167 758 L 173 758 L 174 757 L 178 757 L 179 756 L 182 756 L 183 755 L 185 755 L 186 754 L 188 754 L 189 753 L 191 753 L 192 752 L 195 752 L 196 751 L 199 751 L 200 750 L 206 750 L 207 749 L 224 749 L 225 750 L 236 750 L 237 751 L 253 751 L 254 752 L 275 752 L 276 753 L 306 753 L 308 751 L 308 750 L 307 749 L 307 748 L 306 747 L 263 747 L 262 746 L 242 746 L 241 745 L 229 745 L 228 744 L 205 744 L 204 745 "></path>
        <path fill="none" stroke="#00fafa" stroke-width="3" d="M 216 600 L 214 602 L 214 605 L 216 607 L 225 607 L 226 608 L 233 608 L 234 609 L 242 609 L 243 610 L 250 610 L 251 611 L 256 611 L 257 612 L 262 612 L 263 613 L 268 613 L 269 614 L 274 614 L 275 615 L 279 615 L 280 616 L 285 616 L 286 617 L 293 617 L 294 618 L 305 618 L 306 619 L 326 619 L 327 618 L 328 618 L 328 613 L 327 612 L 325 612 L 324 611 L 323 611 L 322 612 L 300 612 L 299 611 L 291 611 L 290 610 L 284 610 L 283 609 L 278 609 L 277 608 L 272 608 L 271 607 L 266 607 L 265 606 L 260 606 L 259 605 L 253 605 L 252 604 L 245 604 L 244 603 L 235 603 L 234 602 L 226 602 L 225 601 L 221 601 L 220 600 L 216 600 L 214 602 "></path>
        <path fill="none" stroke="#00fafa" stroke-width="3" d="M 231 644 L 230 645 L 220 645 L 218 647 L 218 650 L 219 651 L 220 651 L 221 652 L 222 652 L 223 651 L 228 651 L 229 650 L 251 650 L 252 651 L 260 651 L 261 652 L 267 652 L 268 653 L 273 653 L 274 654 L 280 654 L 281 655 L 287 655 L 288 656 L 297 656 L 298 657 L 334 657 L 335 656 L 336 656 L 336 652 L 334 650 L 325 650 L 324 651 L 304 651 L 303 650 L 291 650 L 290 649 L 283 649 L 282 648 L 276 648 L 275 647 L 270 647 L 269 646 L 262 646 L 261 645 L 252 645 L 251 644 L 231 644 L 230 645 "></path>
        <path fill="none" stroke="#00fafa" stroke-width="3" d="M 841 675 L 840 676 L 834 676 L 833 677 L 829 677 L 828 678 L 825 678 L 824 679 L 822 679 L 821 680 L 819 680 L 818 681 L 815 681 L 814 682 L 811 682 L 808 685 L 808 687 L 810 689 L 813 689 L 814 688 L 816 688 L 817 687 L 818 687 L 819 686 L 821 686 L 822 685 L 824 685 L 825 684 L 827 684 L 828 683 L 832 683 L 833 682 L 837 682 L 838 681 L 847 681 L 848 680 L 870 680 L 871 681 L 882 681 L 883 682 L 892 682 L 893 683 L 902 683 L 903 684 L 927 684 L 928 683 L 929 683 L 930 682 L 930 680 L 928 678 L 924 678 L 923 679 L 906 679 L 905 678 L 896 678 L 895 677 L 887 677 L 886 676 L 877 676 L 876 675 L 841 675 L 840 676 "></path>
        <path fill="none" stroke="#00fafa" stroke-width="3" d="M 239 664 L 238 665 L 211 665 L 210 666 L 201 666 L 200 667 L 193 667 L 192 668 L 187 668 L 186 669 L 182 669 L 181 670 L 178 670 L 177 671 L 174 671 L 173 672 L 171 672 L 170 673 L 167 673 L 166 674 L 162 674 L 161 675 L 155 675 L 154 676 L 137 676 L 136 677 L 135 677 L 135 678 L 134 679 L 134 680 L 136 682 L 143 682 L 144 681 L 157 681 L 158 680 L 163 680 L 164 679 L 168 679 L 169 678 L 172 678 L 173 677 L 175 677 L 176 676 L 179 676 L 180 675 L 184 675 L 185 674 L 189 674 L 190 673 L 196 673 L 197 672 L 206 672 L 207 671 L 241 671 L 242 670 L 243 670 L 243 666 L 242 665 L 240 665 L 239 664 L 238 665 "></path>
        <path fill="none" stroke="#00fafa" stroke-width="3" d="M 182 527 L 181 528 L 165 528 L 164 529 L 152 529 L 151 530 L 131 530 L 130 531 L 115 531 L 113 533 L 113 535 L 114 536 L 115 536 L 116 537 L 120 537 L 121 536 L 147 536 L 148 535 L 162 535 L 163 534 L 182 534 L 183 533 L 204 533 L 205 534 L 212 534 L 215 531 L 215 530 L 214 529 L 214 528 L 213 527 L 182 527 L 181 528 "></path>
        <path fill="none" stroke="#00fafa" stroke-width="3" d="M 749 580 L 748 581 L 746 581 L 745 582 L 742 582 L 741 583 L 737 583 L 736 584 L 732 584 L 731 585 L 728 585 L 727 586 L 725 586 L 724 587 L 721 587 L 720 588 L 718 588 L 717 589 L 715 589 L 714 590 L 713 590 L 712 591 L 710 591 L 709 592 L 707 592 L 706 593 L 705 593 L 704 594 L 703 594 L 702 595 L 700 595 L 699 596 L 698 596 L 697 597 L 696 597 L 695 598 L 694 598 L 692 600 L 691 600 L 689 602 L 688 602 L 686 604 L 685 604 L 681 608 L 681 612 L 683 614 L 687 614 L 694 607 L 695 607 L 697 605 L 698 605 L 699 604 L 700 604 L 701 603 L 702 603 L 703 602 L 704 602 L 705 601 L 706 601 L 707 600 L 709 600 L 710 599 L 711 599 L 712 598 L 714 598 L 715 597 L 716 597 L 717 596 L 719 596 L 720 595 L 722 595 L 723 594 L 726 594 L 727 593 L 729 593 L 730 592 L 733 592 L 734 591 L 737 591 L 738 590 L 741 590 L 742 589 L 749 589 L 750 588 L 753 588 L 754 587 L 754 586 L 755 585 L 755 583 L 754 582 L 754 581 L 753 581 L 752 580 L 749 580 L 748 581 "></path>
        <path fill="none" stroke="#00fafa" stroke-width="3" d="M 112 623 L 111 624 L 96 624 L 95 625 L 93 625 L 91 627 L 91 629 L 92 630 L 99 630 L 100 629 L 118 629 L 119 628 L 120 629 L 138 629 L 139 630 L 146 630 L 147 631 L 152 631 L 153 632 L 158 632 L 159 633 L 165 633 L 166 634 L 175 634 L 176 635 L 183 635 L 184 636 L 186 636 L 187 635 L 188 635 L 189 634 L 189 631 L 187 629 L 171 629 L 170 628 L 163 628 L 162 627 L 157 627 L 156 626 L 150 626 L 149 625 L 142 625 L 141 624 L 130 624 L 129 623 L 112 623 L 111 624 "></path>
        <path fill="none" stroke="#00fafa" stroke-width="3" d="M 618 617 L 617 618 L 616 618 L 607 627 L 606 627 L 604 629 L 602 629 L 601 630 L 584 630 L 583 631 L 581 631 L 580 632 L 579 632 L 577 634 L 576 634 L 570 640 L 570 645 L 572 647 L 575 647 L 576 646 L 577 646 L 578 645 L 578 644 L 583 639 L 584 639 L 585 638 L 587 638 L 588 637 L 592 637 L 593 638 L 601 638 L 602 637 L 605 637 L 606 636 L 607 636 L 608 635 L 609 635 L 611 633 L 612 633 L 616 629 L 617 629 L 619 627 L 620 627 L 622 625 L 623 625 L 623 624 L 624 623 L 624 622 L 625 621 L 624 620 L 624 618 L 623 618 L 622 617 L 618 617 L 617 618 "></path>
        <path fill="none" stroke="#00fafa" stroke-width="3" d="M 678 577 L 677 578 L 676 578 L 671 583 L 671 584 L 668 587 L 668 588 L 667 589 L 667 590 L 666 591 L 666 593 L 665 594 L 665 596 L 664 597 L 664 612 L 665 613 L 665 615 L 666 616 L 666 617 L 667 618 L 667 620 L 669 622 L 669 623 L 670 624 L 670 625 L 671 626 L 671 627 L 673 629 L 678 629 L 679 628 L 679 627 L 680 626 L 679 625 L 679 623 L 677 621 L 677 620 L 674 617 L 674 616 L 673 615 L 673 614 L 672 613 L 672 609 L 671 608 L 671 602 L 672 601 L 672 597 L 673 596 L 673 595 L 674 594 L 674 593 L 675 592 L 675 591 L 679 587 L 680 587 L 684 583 L 684 579 L 682 577 L 678 577 L 677 578 "></path>
        <path fill="none" stroke="#00fafa" stroke-width="3" d="M 222 687 L 220 689 L 220 692 L 221 693 L 223 693 L 224 694 L 226 694 L 227 693 L 230 693 L 231 694 L 259 694 L 260 695 L 296 695 L 297 694 L 297 693 L 298 692 L 298 691 L 296 689 L 249 689 L 248 688 L 227 688 L 226 687 L 222 687 L 220 689 "></path>
        <path fill="none" stroke="#00fafa" stroke-width="3" d="M 231 528 L 229 530 L 229 534 L 230 535 L 259 535 L 260 536 L 264 536 L 265 537 L 267 537 L 268 538 L 270 538 L 271 539 L 273 539 L 274 540 L 275 540 L 276 541 L 277 541 L 278 542 L 279 542 L 281 544 L 282 544 L 283 545 L 287 545 L 289 543 L 289 540 L 288 539 L 288 538 L 287 538 L 286 537 L 285 537 L 284 536 L 282 536 L 281 535 L 280 535 L 279 534 L 277 534 L 276 533 L 275 533 L 274 532 L 272 532 L 271 531 L 269 531 L 268 530 L 265 530 L 264 529 L 259 529 L 258 528 L 231 528 L 229 530 "></path>
        <path fill="none" stroke="#00fafa" stroke-width="3" d="M 556 602 L 554 604 L 554 609 L 556 611 L 556 612 L 557 613 L 557 614 L 558 615 L 558 616 L 559 617 L 559 626 L 558 627 L 558 630 L 557 631 L 557 633 L 556 634 L 556 636 L 555 637 L 555 640 L 554 641 L 554 643 L 553 644 L 553 645 L 552 646 L 552 652 L 554 654 L 557 654 L 558 653 L 559 653 L 559 652 L 560 651 L 560 650 L 561 649 L 561 643 L 562 642 L 562 640 L 563 639 L 563 636 L 564 635 L 564 634 L 565 633 L 565 631 L 566 630 L 566 628 L 567 627 L 567 616 L 566 615 L 566 613 L 565 612 L 565 609 L 564 608 L 564 606 L 563 605 L 563 604 L 562 603 L 561 603 L 560 602 L 556 602 L 554 604 "></path>
        <path fill="none" stroke="#00fafa" stroke-width="3" d="M 886 642 L 885 643 L 879 643 L 878 644 L 874 644 L 873 645 L 871 645 L 870 646 L 868 646 L 867 647 L 865 647 L 864 648 L 862 648 L 861 649 L 860 649 L 859 650 L 857 650 L 856 651 L 854 651 L 853 652 L 852 652 L 851 653 L 849 653 L 848 654 L 845 654 L 844 655 L 841 655 L 840 656 L 838 656 L 838 657 L 837 658 L 837 661 L 838 661 L 839 662 L 842 662 L 843 661 L 845 661 L 846 660 L 848 660 L 849 659 L 851 659 L 852 658 L 854 658 L 855 657 L 856 657 L 857 656 L 859 656 L 860 655 L 861 655 L 862 654 L 864 654 L 865 653 L 867 653 L 868 652 L 870 652 L 871 651 L 873 651 L 874 650 L 877 650 L 878 649 L 882 649 L 883 648 L 894 648 L 895 647 L 901 647 L 902 648 L 908 648 L 910 646 L 910 643 L 909 643 L 908 642 L 886 642 L 885 643 "></path>
        <path fill="none" stroke="#00fafa" stroke-width="3" d="M 688 656 L 687 657 L 685 657 L 684 658 L 682 658 L 681 659 L 678 659 L 677 660 L 674 660 L 673 661 L 670 661 L 669 662 L 666 662 L 665 663 L 660 663 L 659 664 L 651 664 L 650 665 L 639 665 L 638 666 L 637 666 L 637 667 L 636 668 L 636 670 L 637 671 L 637 672 L 638 672 L 639 673 L 643 673 L 644 672 L 649 672 L 650 671 L 659 671 L 660 670 L 665 670 L 666 669 L 669 669 L 670 668 L 674 668 L 675 667 L 677 667 L 678 666 L 681 666 L 682 665 L 686 665 L 687 664 L 691 664 L 694 661 L 694 658 L 693 657 L 692 657 L 691 656 L 688 656 L 687 657 "></path>
        <path fill="none" stroke="#00fafa" stroke-width="3" d="M 653 626 L 652 627 L 650 627 L 649 628 L 648 628 L 647 629 L 646 629 L 645 630 L 643 630 L 642 631 L 640 631 L 639 632 L 637 632 L 636 633 L 634 633 L 633 634 L 631 634 L 630 635 L 629 635 L 628 636 L 627 636 L 626 637 L 625 637 L 624 638 L 622 638 L 621 639 L 620 639 L 619 640 L 618 640 L 617 641 L 616 641 L 616 642 L 615 643 L 615 646 L 617 648 L 618 648 L 619 649 L 620 648 L 622 648 L 623 647 L 624 647 L 626 645 L 627 645 L 629 643 L 631 643 L 632 642 L 633 642 L 634 641 L 635 641 L 636 640 L 638 640 L 639 639 L 641 639 L 642 638 L 644 638 L 645 637 L 647 637 L 648 636 L 652 636 L 653 635 L 655 635 L 657 633 L 657 632 L 658 631 L 658 630 L 657 629 L 657 628 L 656 627 L 655 627 L 654 626 L 653 626 L 652 627 "></path>
        <path fill="none" stroke="#00fafa" stroke-width="3" d="M 211 307 L 210 308 L 209 308 L 203 314 L 202 314 L 200 316 L 199 316 L 196 319 L 195 319 L 192 322 L 191 322 L 185 328 L 184 328 L 180 332 L 179 332 L 177 334 L 177 338 L 178 339 L 179 339 L 180 340 L 181 340 L 182 339 L 183 339 L 185 337 L 185 336 L 188 333 L 189 333 L 194 328 L 195 328 L 199 324 L 200 324 L 203 321 L 204 321 L 206 319 L 207 319 L 208 318 L 209 318 L 210 317 L 211 317 L 212 316 L 214 316 L 216 314 L 216 310 L 214 308 L 213 308 L 212 307 L 211 307 L 210 308 "></path>
        <path fill="none" stroke="#fa00fa" stroke-width="3" d="M 785 521 L 784 522 L 783 522 L 775 530 L 774 530 L 771 533 L 770 533 L 767 536 L 766 536 L 764 538 L 763 538 L 762 539 L 761 539 L 760 540 L 759 540 L 758 541 L 758 542 L 757 543 L 757 546 L 759 548 L 763 548 L 764 547 L 765 547 L 770 542 L 771 542 L 774 539 L 775 539 L 778 536 L 779 536 L 783 532 L 784 532 L 786 530 L 787 530 L 790 527 L 790 526 L 791 525 L 791 524 L 790 523 L 790 522 L 789 521 L 785 521 L 784 522 "></path>
        <path fill="none" stroke="#fa00fa" stroke-width="3" d="M 112 708 L 111 709 L 110 709 L 110 713 L 111 713 L 112 714 L 123 714 L 124 715 L 129 715 L 130 716 L 134 716 L 135 717 L 139 717 L 140 718 L 143 718 L 144 719 L 146 719 L 147 720 L 150 720 L 151 721 L 153 721 L 154 722 L 156 722 L 157 723 L 161 723 L 162 722 L 162 719 L 161 718 L 160 718 L 159 717 L 155 717 L 154 716 L 152 716 L 151 715 L 148 715 L 147 714 L 144 714 L 143 713 L 140 713 L 139 712 L 135 712 L 134 711 L 130 711 L 129 710 L 123 710 L 122 709 L 116 709 L 115 708 L 112 708 L 111 709 "></path>
        <path fill="none" stroke="#fa00fa" stroke-width="3" d="M 640 721 L 639 722 L 638 722 L 636 724 L 636 726 L 637 727 L 637 728 L 638 728 L 639 729 L 643 729 L 644 728 L 663 728 L 664 727 L 664 726 L 665 725 L 665 724 L 664 723 L 664 722 L 663 722 L 662 721 L 656 721 L 655 722 L 643 722 L 642 721 L 640 721 L 639 722 "></path>
        <path fill="none" stroke="#fa00fa" stroke-width="3" d="M 374 747 L 373 748 L 372 748 L 371 749 L 371 752 L 373 754 L 396 754 L 397 753 L 398 753 L 398 752 L 399 751 L 398 750 L 398 749 L 396 747 L 392 747 L 391 748 L 378 748 L 377 747 L 374 747 L 373 748 "></path>
        <path fill="none" stroke="#fa00fa" stroke-width="3" d="M 869 522 L 868 523 L 862 523 L 861 524 L 860 524 L 860 525 L 859 526 L 859 528 L 860 529 L 860 530 L 866 530 L 867 529 L 873 529 L 874 528 L 875 528 L 877 526 L 877 523 L 876 522 L 869 522 L 868 523 "></path>
        <path fill="none" stroke="#fa00fa" stroke-width="3" d="M 342 747 L 341 748 L 337 748 L 336 749 L 335 749 L 334 748 L 333 748 L 332 749 L 330 749 L 330 750 L 329 751 L 329 753 L 331 755 L 335 755 L 336 754 L 343 754 L 344 753 L 345 753 L 345 752 L 346 751 L 346 750 L 344 748 L 343 748 L 342 747 L 341 748 "></path>
        <path fill="none" stroke="#fa00fa" stroke-width="3" d="M 666 636 L 663 639 L 663 642 L 664 643 L 664 644 L 665 645 L 666 645 L 667 646 L 670 646 L 671 645 L 672 645 L 673 644 L 673 643 L 674 642 L 674 640 L 673 639 L 673 638 L 672 637 L 671 637 L 670 636 L 666 636 L 663 639 "></path>
        <path fill="none" stroke="#fa00fa" stroke-width="3" d="M 700 636 L 697 639 L 697 643 L 698 644 L 698 645 L 699 645 L 700 646 L 704 646 L 706 644 L 706 643 L 707 642 L 707 640 L 706 639 L 706 638 L 705 637 L 704 637 L 703 636 L 700 636 L 697 639 "></path>
        <path fill="none" stroke="#fa00fa" stroke-width="3" d="M 463 121 L 461 123 L 461 124 L 460 125 L 460 127 L 461 128 L 461 129 L 462 130 L 463 130 L 464 131 L 467 131 L 470 128 L 470 124 L 467 121 L 463 121 L 461 123 "></path>
        <path fill="none" stroke="#fa00fa" stroke-width="3" d="M 803 527 L 802 528 L 801 528 L 799 530 L 799 534 L 800 535 L 800 536 L 801 536 L 802 537 L 805 537 L 808 534 L 808 530 L 806 528 L 805 528 L 804 527 L 803 527 L 802 528 "></path>
        <path fill="none" stroke="#fa00fa" stroke-width="3" d="M 490 87 L 487 90 L 487 94 L 489 96 L 494 96 L 495 95 L 495 94 L 496 93 L 496 90 L 494 88 L 493 88 L 492 87 L 490 87 L 487 90 "></path>
        <path fill="none" stroke="#fa00fa" stroke-width="3" d="M 826 527 L 825 528 L 825 529 L 824 530 L 824 533 L 826 535 L 827 535 L 828 536 L 829 536 L 830 535 L 831 535 L 833 533 L 833 530 L 832 529 L 832 528 L 831 527 L 826 527 L 825 528 "></path>
        <path fill="none" stroke="#fa00fa" stroke-width="3" d="M 454 721 L 453 722 L 453 723 L 452 724 L 452 726 L 453 727 L 453 728 L 454 729 L 459 729 L 460 728 L 460 727 L 461 726 L 461 724 L 460 723 L 460 722 L 459 721 L 454 721 L 453 722 "></path>
        <path fill="none" stroke="#fa00fa" stroke-width="3" d="M 406 698 L 405 699 L 405 700 L 404 701 L 404 703 L 405 704 L 405 705 L 406 706 L 411 706 L 412 705 L 412 704 L 413 703 L 413 701 L 412 700 L 412 699 L 411 698 L 406 698 L 405 699 "></path>
        <path fill="none" stroke="#fa00fa" stroke-width="3" d="M 372 698 L 371 699 L 371 700 L 370 701 L 370 704 L 372 706 L 377 706 L 378 705 L 378 703 L 379 702 L 378 701 L 378 700 L 376 698 L 372 698 L 371 699 "></path>
        <path fill="none" stroke="#fa00fa" stroke-width="3" d="M 390 698 L 388 700 L 388 701 L 387 702 L 388 703 L 388 705 L 389 706 L 394 706 L 396 704 L 396 701 L 395 700 L 395 699 L 394 698 L 390 698 L 388 700 "></path>
        <path fill="none" stroke="#fa00fa" stroke-width="3" d="M 535 52 L 533 54 L 533 58 L 535 60 L 539 60 L 541 58 L 541 54 L 539 52 L 535 52 L 533 54 "></path>
        <path fill="none" stroke="#fa00fa" stroke-width="3" d="M 867 347 L 866 348 L 865 348 L 863 350 L 863 354 L 864 355 L 865 355 L 866 356 L 868 356 L 869 355 L 870 355 L 871 354 L 871 350 L 870 349 L 870 348 L 868 348 L 867 347 L 866 348 "></path>
        <path fill="none" stroke="#fa00fa" stroke-width="3" d="M 849 250 L 846 253 L 846 255 L 847 256 L 847 257 L 848 258 L 852 258 L 854 256 L 854 252 L 852 250 L 849 250 L 846 253 "></path>
        <path fill="none" stroke="#fa00fa" stroke-width="3" d="M 275 670 L 274 671 L 274 676 L 275 677 L 276 677 L 277 678 L 278 678 L 279 677 L 280 677 L 281 676 L 281 675 L 282 674 L 282 673 L 281 672 L 281 671 L 280 670 L 275 670 L 274 671 "></path>
        <path fill="none" stroke="#fa00fa" stroke-width="3" d="M 163 314 L 162 315 L 161 315 L 160 316 L 160 321 L 161 322 L 166 322 L 167 321 L 167 316 L 166 315 L 165 315 L 164 314 L 163 314 L 162 315 "></path>
        <path fill="none" stroke="#fa00fa" stroke-width="3" d="M 138 362 L 137 363 L 136 363 L 136 364 L 135 365 L 135 368 L 137 370 L 140 370 L 141 369 L 142 369 L 142 368 L 143 367 L 143 365 L 141 363 L 140 363 L 139 362 L 138 362 L 137 363 "></path>
        <path fill="none" stroke="#fa00fa" stroke-width="3" d="M 212 628 L 210 630 L 210 633 L 211 634 L 211 635 L 213 635 L 214 636 L 215 635 L 216 635 L 217 634 L 217 633 L 218 632 L 218 631 L 217 630 L 217 629 L 216 628 L 212 628 L 210 630 "></path>
        <path fill="none" stroke="#fa00fa" stroke-width="3" d="M 914 339 L 913 340 L 913 341 L 912 342 L 912 343 L 913 344 L 913 345 L 914 346 L 918 346 L 920 344 L 920 341 L 918 339 L 914 339 L 913 340 "></path>
        <path fill="none" stroke="#fa00fa" stroke-width="3" d="M 136 330 L 134 332 L 134 336 L 135 337 L 140 337 L 141 336 L 141 332 L 139 330 L 136 330 L 134 332 "></path>
        <path fill="none" stroke="#fa00fa" stroke-width="3" d="M 120 342 L 119 343 L 118 343 L 118 344 L 117 345 L 117 348 L 118 349 L 119 349 L 120 350 L 121 350 L 122 349 L 123 349 L 124 348 L 124 344 L 123 343 L 122 343 L 121 342 L 120 342 L 119 343 "></path>
        <path fill="none" stroke="#fa00fa" stroke-width="3" d="M 354 747 L 352 749 L 352 752 L 354 754 L 358 754 L 359 753 L 359 749 L 357 747 L 354 747 L 352 749 "></path>
        <path fill="none" stroke="#fa00fa" stroke-width="3" d="M 930 309 L 928 311 L 928 314 L 930 316 L 934 316 L 935 315 L 935 311 L 933 309 L 930 309 L 928 311 "></path>
        <path fill="none" stroke="#fa00fa" stroke-width="3" d="M 896 202 L 895 203 L 894 203 L 892 205 L 892 207 L 895 210 L 897 210 L 899 208 L 899 207 L 900 206 L 899 205 L 899 204 L 898 203 L 897 203 L 896 202 L 895 203 "></path>
        <path fill="none" stroke="#fa00fa" stroke-width="3" d="M 948 333 L 946 335 L 946 338 L 948 340 L 951 340 L 953 338 L 953 335 L 951 333 L 948 333 L 946 335 "></path>
        <path fill="none" stroke="#fa00fa" stroke-width="3" d="M 103 389 L 102 390 L 101 390 L 100 391 L 100 395 L 101 396 L 106 396 L 106 395 L 107 394 L 107 391 L 106 390 L 105 390 L 104 389 L 103 389 L 102 390 "></path>
        <path fill="none" stroke="#fa00fa" stroke-width="3" d="M 175 650 L 173 652 L 173 655 L 175 657 L 178 657 L 180 655 L 180 652 L 178 650 L 175 650 L 173 652 "></path>
        <path fill="none" stroke="#fa00fa" stroke-width="3" d="M 937 286 L 935 288 L 935 292 L 936 293 L 940 293 L 942 291 L 942 289 L 941 288 L 941 287 L 940 287 L 939 286 L 937 286 L 935 288 "></path>
        <path fill="none" stroke="#fa00fa" stroke-width="3" d="M 133 557 L 132 558 L 131 558 L 131 559 L 130 560 L 130 561 L 131 562 L 131 563 L 132 564 L 136 564 L 137 563 L 137 558 L 136 558 L 135 557 L 133 557 L 132 558 "></path>
        <path fill="none" stroke="#fa00fa" stroke-width="3" d="M 318 748 L 316 750 L 316 753 L 317 754 L 317 755 L 321 755 L 323 753 L 323 751 L 322 750 L 322 749 L 321 749 L 320 748 L 318 748 L 316 750 "></path>
        <path fill="none" stroke="#fa00fa" stroke-width="3" d="M 922 181 L 920 183 L 920 186 L 921 187 L 922 187 L 923 188 L 924 188 L 925 187 L 926 187 L 927 186 L 927 183 L 925 181 L 922 181 L 920 183 "></path>
        <path fill="none" stroke="#fa00fa" stroke-width="3" d="M 962 294 L 961 295 L 961 299 L 962 300 L 963 300 L 964 301 L 965 300 L 966 300 L 968 298 L 968 296 L 966 294 L 962 294 L 961 295 "></path>
        <path fill="none" stroke="#fa00fa" stroke-width="3" d="M 943 261 L 942 262 L 941 262 L 940 263 L 940 267 L 941 268 L 945 268 L 947 266 L 947 264 L 945 262 L 944 262 L 943 261 L 942 262 "></path>
        <path fill="none" stroke="#fa00fa" stroke-width="3" d="M 178 709 L 176 711 L 176 714 L 178 716 L 181 716 L 182 715 L 182 714 L 183 713 L 183 712 L 182 711 L 182 710 L 181 710 L 180 709 L 178 709 L 176 711 "></path>
        <path fill="none" stroke="#fa00fa" stroke-width="3" d="M 184 686 L 183 687 L 182 687 L 182 692 L 183 692 L 184 693 L 186 693 L 188 691 L 188 688 L 186 686 L 184 686 L 183 687 "></path>
        <path fill="none" stroke="#fa00fa" stroke-width="3" d="M 89 603 L 88 604 L 87 604 L 87 608 L 88 609 L 92 609 L 93 608 L 93 604 L 92 604 L 91 603 L 89 603 L 88 604 "></path>
        <path fill="none" stroke="#fa00fa" stroke-width="3" d="M 46 712 L 45 713 L 44 713 L 44 717 L 45 717 L 46 718 L 47 718 L 48 717 L 49 717 L 49 713 L 48 713 L 47 712 L 46 712 L 45 713 "></path>
    </g>
</svg>
