<svg xmlns="http://www.w3.org/2000/svg" xmlns:xlink="http://www.w3.org/1999/xlink" version="1.1" x="0" y="0" width="1056px" height="816px">
    <g id="rootLayer" transform="translate(0.000000, 0.000000)">
        <path fill="none" stroke="#00fafa" stroke-width="3" d="M 616 220 L 615 221 L 610 221 L 609 222 L 607 222 L 606 223 L 605 223 L 604 224 L 602 224 L 601 225 L 600 225 L 598 227 L 597 227 L 595 229 L 594 229 L 592 231 L 592 232 L 591 233 L 591 235 L 590 236 L 590 238 L 591 239 L 591 241 L 592 242 L 592 243 L 594 245 L 594 246 L 600 252 L 600 253 L 601 254 L 601 257 L 599 259 L 596 259 L 595 258 L 594 258 L 592 256 L 592 255 L 590 253 L 590 252 L 588 250 L 588 249 L 587 248 L 587 247 L 585 245 L 585 244 L 583 242 L 583 241 L 582 240 L 581 240 L 579 238 L 578 238 L 577 237 L 576 237 L 575 236 L 572 236 L 571 235 L 568 235 L 567 234 L 562 234 L 561 233 L 535 233 L 534 234 L 530 234 L 529 235 L 526 235 L 525 236 L 524 236 L 523 237 L 522 237 L 521 238 L 520 238 L 519 239 L 518 239 L 517 240 L 516 240 L 515 241 L 513 241 L 512 242 L 505 242 L 504 241 L 500 241 L 499 240 L 486 240 L 485 241 L 482 241 L 481 242 L 479 242 L 478 243 L 476 243 L 475 244 L 473 244 L 472 245 L 470 245 L 469 246 L 468 246 L 467 247 L 466 247 L 465 248 L 464 248 L 463 249 L 462 249 L 461 250 L 460 250 L 459 251 L 458 251 L 456 253 L 455 253 L 451 257 L 450 257 L 442 265 L 442 266 L 438 270 L 438 271 L 436 273 L 436 274 L 434 276 L 434 277 L 433 278 L 433 279 L 432 280 L 432 281 L 431 282 L 431 283 L 430 284 L 430 285 L 429 286 L 429 287 L 428 288 L 428 290 L 427 291 L 427 294 L 426 295 L 426 301 L 423 304 L 420 304 L 419 303 L 418 303 L 417 302 L 416 302 L 415 301 L 414 301 L 413 300 L 408 300 L 407 299 L 406 299 L 405 300 L 396 300 L 395 301 L 391 301 L 390 302 L 388 302 L 387 303 L 385 303 L 384 304 L 383 304 L 378 309 L 378 310 L 377 311 L 377 312 L 376 313 L 376 316 L 375 317 L 375 320 L 374 321 L 374 323 L 373 324 L 373 325 L 372 326 L 372 328 L 371 329 L 371 330 L 369 332 L 369 333 L 368 334 L 368 335 L 361 342 L 360 342 L 359 343 L 358 343 L 357 344 L 356 344 L 354 346 L 353 346 L 347 352 L 347 353 L 339 361 L 338 361 L 336 363 L 335 363 L 332 366 L 332 367 L 331 368 L 331 370 L 332 371 L 332 372 L 333 373 L 333 374 L 334 374 L 336 376 L 337 376 L 338 377 L 339 377 L 340 378 L 341 378 L 343 380 L 344 380 L 349 385 L 350 385 L 354 389 L 355 389 L 356 390 L 358 390 L 359 391 L 368 391 L 369 390 L 370 390 L 371 389 L 372 389 L 376 385 L 377 385 L 378 384 L 379 384 L 380 383 L 383 386 L 382 387 L 382 389 L 379 392 L 379 393 L 377 395 L 377 396 L 376 397 L 376 399 L 375 400 L 375 401 L 374 402 L 374 404 L 373 405 L 373 406 L 372 407 L 372 409 L 371 410 L 371 412 L 370 413 L 370 430 L 369 431 L 369 436 L 368 437 L 368 440 L 367 441 L 367 443 L 366 444 L 366 446 L 365 447 L 365 448 L 364 449 L 364 450 L 363 451 L 363 452 L 362 453 L 362 454 L 360 456 L 360 457 L 358 459 L 358 460 L 356 462 L 356 464 L 355 465 L 355 467 L 354 468 L 354 472 L 353 473 L 353 478 L 352 479 L 352 482 L 351 483 L 351 486 L 350 487 L 350 492 L 349 493 L 349 495 L 350 496 L 350 499 L 351 500 L 351 501 L 353 503 L 353 504 L 357 508 L 357 509 L 358 510 L 358 513 L 357 514 L 357 515 L 356 516 L 354 516 L 353 517 L 352 517 L 351 516 L 347 516 L 346 515 L 338 515 L 337 516 L 335 516 L 334 517 L 333 517 L 331 519 L 330 519 L 327 522 L 326 522 L 324 524 L 323 524 L 321 526 L 321 530 L 323 532 L 327 532 L 329 530 L 330 530 L 335 525 L 336 525 L 337 524 L 339 524 L 340 523 L 345 523 L 346 524 L 350 524 L 351 525 L 362 525 L 363 526 L 367 526 L 368 527 L 369 527 L 370 528 L 371 528 L 372 529 L 372 530 L 373 531 L 373 535 L 370 538 L 362 538 L 361 537 L 359 537 L 358 536 L 354 536 L 353 535 L 344 535 L 343 536 L 339 536 L 338 537 L 336 537 L 335 538 L 332 538 L 331 539 L 329 539 L 328 540 L 324 540 L 323 541 L 318 541 L 317 542 L 314 542 L 311 545 L 311 547 L 312 548 L 312 549 L 313 550 L 318 550 L 319 549 L 321 549 L 322 548 L 325 548 L 326 547 L 330 547 L 331 546 L 334 546 L 335 545 L 338 545 L 339 544 L 342 544 L 343 543 L 353 543 L 354 544 L 357 544 L 358 545 L 360 545 L 361 546 L 364 546 L 365 547 L 370 547 L 371 546 L 372 546 L 373 545 L 374 545 L 376 543 L 377 543 L 380 540 L 381 540 L 382 539 L 388 539 L 389 540 L 390 540 L 396 546 L 396 547 L 401 552 L 402 552 L 403 553 L 408 553 L 409 552 L 412 552 L 413 551 L 418 551 L 419 550 L 425 550 L 426 551 L 434 551 L 435 552 L 438 552 L 439 553 L 441 553 L 442 554 L 443 554 L 444 555 L 445 555 L 447 557 L 448 557 L 450 559 L 451 559 L 452 560 L 455 560 L 456 561 L 458 561 L 459 560 L 463 560 L 464 559 L 469 559 L 470 558 L 475 558 L 476 559 L 482 559 L 483 560 L 486 560 L 487 561 L 488 561 L 489 562 L 490 562 L 492 564 L 493 564 L 496 567 L 497 567 L 498 568 L 499 568 L 500 569 L 509 569 L 510 568 L 527 568 L 528 569 L 534 569 L 535 570 L 541 570 L 542 571 L 559 571 L 560 572 L 562 572 L 563 573 L 564 573 L 565 574 L 566 574 L 568 576 L 568 577 L 571 580 L 571 581 L 575 585 L 576 585 L 577 586 L 578 586 L 579 587 L 581 587 L 582 588 L 584 588 L 585 589 L 587 589 L 588 590 L 591 590 L 592 591 L 602 591 L 603 590 L 605 590 L 606 589 L 607 589 L 608 588 L 609 588 L 610 587 L 611 587 L 612 586 L 613 586 L 614 585 L 618 585 L 619 584 L 622 584 L 623 585 L 629 585 L 630 584 L 635 584 L 636 583 L 640 583 L 641 582 L 645 582 L 646 581 L 649 581 L 650 580 L 652 580 L 654 578 L 654 577 L 655 576 L 655 570 L 654 569 L 654 567 L 653 566 L 653 556 L 654 555 L 654 553 L 655 552 L 655 550 L 656 549 L 656 546 L 657 545 L 657 531 L 656 530 L 656 526 L 657 525 L 657 519 L 658 518 L 658 516 L 659 515 L 659 513 L 660 512 L 660 511 L 661 510 L 661 509 L 662 508 L 662 507 L 664 505 L 664 504 L 665 503 L 665 502 L 668 499 L 668 498 L 682 484 L 683 484 L 685 482 L 686 482 L 687 481 L 688 481 L 689 480 L 690 480 L 691 479 L 694 479 L 695 478 L 697 478 L 698 477 L 699 477 L 702 474 L 702 472 L 703 471 L 703 470 L 702 469 L 702 467 L 700 465 L 700 464 L 699 463 L 698 463 L 692 457 L 692 456 L 691 455 L 691 454 L 690 453 L 690 443 L 691 442 L 691 432 L 690 431 L 690 426 L 689 425 L 689 421 L 688 420 L 688 416 L 687 415 L 687 411 L 686 410 L 686 407 L 685 406 L 685 403 L 684 402 L 684 399 L 683 398 L 683 396 L 682 395 L 682 393 L 681 392 L 681 390 L 680 389 L 680 387 L 679 386 L 679 384 L 678 383 L 678 382 L 676 380 L 676 379 L 675 378 L 675 377 L 674 376 L 674 375 L 673 374 L 673 373 L 672 372 L 672 370 L 671 369 L 671 366 L 672 365 L 672 363 L 673 362 L 673 361 L 674 360 L 674 359 L 675 358 L 675 357 L 676 356 L 676 355 L 677 354 L 677 352 L 678 351 L 678 348 L 679 347 L 679 339 L 680 338 L 680 328 L 679 327 L 679 319 L 678 318 L 678 314 L 677 313 L 677 310 L 676 309 L 676 306 L 675 305 L 675 302 L 674 301 L 674 299 L 673 298 L 673 295 L 672 294 L 672 292 L 671 291 L 671 289 L 670 288 L 670 286 L 669 285 L 669 284 L 668 283 L 668 282 L 667 281 L 667 279 L 666 278 L 666 277 L 665 276 L 665 275 L 664 274 L 664 273 L 663 272 L 663 271 L 662 270 L 662 269 L 661 268 L 661 266 L 660 265 L 660 264 L 659 263 L 659 262 L 658 261 L 658 260 L 657 259 L 657 258 L 655 256 L 655 255 L 652 252 L 652 251 L 649 248 L 649 247 L 647 245 L 647 244 L 646 243 L 646 242 L 645 241 L 645 240 L 644 239 L 644 237 L 643 236 L 643 235 L 642 234 L 642 233 L 641 232 L 641 231 L 639 229 L 639 228 L 636 225 L 635 225 L 633 223 L 632 223 L 631 222 L 629 222 L 628 221 L 624 221 L 623 220 L 616 220 L 615 221 "></path>
        <path fill="none" stroke="#00fafa" stroke-width="3" d="M 698 484 L 697 485 L 695 485 L 693 487 L 692 487 L 691 488 L 690 488 L 688 490 L 687 490 L 684 493 L 683 493 L 675 501 L 675 502 L 672 505 L 672 506 L 670 508 L 670 509 L 669 510 L 669 511 L 668 512 L 668 513 L 667 514 L 667 515 L 666 516 L 666 518 L 665 519 L 665 523 L 664 524 L 664 530 L 665 531 L 665 536 L 666 537 L 666 545 L 665 546 L 665 548 L 664 549 L 664 551 L 663 552 L 663 554 L 662 555 L 662 567 L 663 568 L 663 569 L 664 570 L 664 571 L 669 576 L 670 576 L 672 578 L 673 578 L 674 579 L 675 579 L 677 581 L 679 581 L 680 582 L 682 582 L 683 581 L 684 581 L 685 580 L 685 576 L 684 575 L 684 574 L 683 574 L 682 573 L 680 573 L 679 572 L 677 572 L 675 570 L 674 570 L 671 567 L 671 566 L 670 565 L 670 563 L 669 562 L 669 560 L 670 559 L 670 556 L 671 555 L 671 553 L 672 552 L 672 551 L 676 547 L 677 547 L 678 546 L 682 546 L 683 545 L 692 545 L 693 544 L 694 544 L 695 543 L 696 543 L 698 541 L 698 540 L 700 538 L 700 537 L 701 536 L 701 535 L 703 533 L 703 532 L 705 530 L 705 527 L 706 526 L 705 525 L 705 523 L 700 518 L 700 517 L 699 516 L 699 512 L 700 511 L 700 510 L 701 509 L 702 509 L 703 508 L 708 508 L 709 509 L 716 509 L 717 510 L 722 510 L 723 511 L 725 511 L 726 512 L 728 512 L 729 513 L 730 513 L 731 514 L 732 514 L 733 515 L 737 515 L 739 513 L 739 509 L 737 507 L 736 507 L 735 506 L 734 506 L 733 505 L 731 505 L 730 504 L 728 504 L 727 503 L 725 503 L 724 502 L 720 502 L 719 501 L 711 501 L 710 500 L 709 500 L 705 496 L 705 489 L 704 488 L 704 487 L 702 485 L 701 485 L 700 484 L 698 484 L 697 485 "></path>
        <path fill="none" stroke="#00fafa" stroke-width="3" d="M 318 376 L 315 379 L 315 380 L 314 381 L 314 386 L 313 387 L 313 389 L 312 390 L 312 391 L 309 394 L 308 394 L 306 396 L 305 396 L 299 402 L 299 403 L 298 404 L 298 406 L 297 407 L 297 409 L 296 410 L 296 412 L 295 413 L 295 415 L 294 416 L 294 419 L 293 420 L 293 437 L 294 438 L 294 451 L 295 452 L 295 458 L 296 459 L 296 463 L 297 464 L 297 466 L 298 467 L 298 468 L 299 469 L 299 470 L 300 471 L 300 472 L 302 474 L 302 475 L 307 480 L 308 480 L 310 482 L 311 482 L 312 483 L 313 483 L 314 484 L 315 484 L 317 486 L 318 486 L 319 487 L 320 487 L 322 489 L 322 490 L 323 491 L 323 492 L 324 493 L 324 496 L 323 497 L 323 499 L 321 501 L 321 502 L 318 505 L 318 506 L 313 511 L 313 512 L 311 514 L 311 515 L 309 517 L 309 518 L 308 519 L 308 520 L 307 521 L 307 522 L 306 523 L 306 524 L 304 526 L 304 527 L 303 528 L 303 529 L 302 530 L 302 531 L 301 532 L 301 533 L 299 535 L 299 536 L 298 537 L 298 538 L 296 540 L 296 541 L 295 542 L 295 547 L 296 548 L 297 548 L 298 549 L 299 549 L 300 548 L 301 548 L 303 546 L 303 544 L 304 543 L 304 541 L 305 540 L 305 539 L 307 537 L 307 536 L 308 535 L 308 534 L 310 532 L 310 531 L 311 530 L 311 529 L 312 528 L 312 527 L 313 526 L 313 525 L 314 524 L 314 523 L 316 521 L 316 520 L 318 518 L 318 517 L 325 510 L 325 509 L 328 506 L 328 505 L 330 503 L 330 501 L 331 500 L 331 499 L 332 498 L 332 489 L 331 488 L 331 487 L 330 486 L 330 485 L 328 483 L 327 483 L 325 481 L 324 481 L 323 480 L 322 480 L 321 479 L 320 479 L 318 477 L 317 477 L 316 476 L 315 476 L 313 474 L 312 474 L 309 471 L 309 470 L 306 467 L 306 466 L 305 465 L 305 463 L 304 462 L 304 460 L 303 459 L 303 454 L 302 453 L 302 442 L 301 441 L 301 429 L 300 428 L 300 427 L 301 426 L 301 420 L 302 419 L 302 416 L 303 415 L 303 413 L 304 412 L 304 410 L 305 409 L 305 408 L 307 406 L 307 405 L 309 403 L 310 403 L 311 402 L 312 402 L 313 401 L 317 401 L 318 402 L 319 402 L 321 404 L 322 404 L 323 405 L 324 405 L 325 406 L 326 406 L 327 407 L 336 407 L 337 406 L 340 406 L 341 405 L 343 405 L 345 403 L 346 403 L 347 402 L 347 401 L 348 400 L 348 394 L 343 389 L 342 389 L 340 387 L 339 387 L 338 386 L 337 386 L 336 385 L 335 385 L 333 383 L 332 383 L 327 378 L 326 378 L 325 377 L 324 377 L 323 376 L 318 376 L 315 379 "></path>
        <path fill="none" stroke="#00fafa" stroke-width="3" d="M 349 410 L 348 411 L 347 411 L 346 412 L 345 412 L 344 413 L 343 413 L 342 414 L 340 414 L 339 415 L 335 415 L 334 416 L 324 416 L 323 417 L 321 417 L 320 418 L 319 418 L 314 423 L 314 424 L 313 425 L 313 426 L 312 427 L 312 430 L 311 431 L 311 438 L 312 439 L 312 441 L 313 442 L 313 444 L 315 446 L 315 447 L 316 448 L 316 449 L 317 450 L 317 452 L 318 453 L 318 463 L 319 464 L 319 465 L 320 466 L 320 467 L 321 468 L 321 469 L 323 471 L 323 472 L 324 472 L 326 474 L 330 474 L 332 472 L 332 467 L 327 462 L 327 461 L 326 460 L 326 457 L 327 456 L 327 455 L 328 454 L 329 454 L 330 453 L 335 453 L 336 454 L 338 454 L 339 455 L 340 455 L 341 456 L 342 456 L 343 457 L 349 457 L 350 456 L 351 456 L 354 453 L 354 452 L 356 450 L 356 449 L 357 448 L 357 447 L 358 446 L 358 444 L 359 443 L 359 442 L 360 441 L 360 439 L 361 438 L 361 435 L 362 434 L 362 429 L 363 428 L 363 417 L 362 416 L 362 414 L 359 411 L 358 411 L 357 410 L 349 410 L 348 411 "></path>
        <path fill="none" stroke="#00fafa" stroke-width="3" d="M 770 425 L 769 426 L 761 426 L 760 427 L 757 427 L 756 428 L 754 428 L 753 429 L 752 429 L 746 435 L 746 436 L 744 438 L 744 439 L 743 440 L 743 441 L 742 442 L 742 443 L 741 444 L 741 446 L 740 447 L 740 450 L 739 451 L 739 456 L 738 457 L 738 461 L 737 462 L 737 464 L 736 465 L 736 468 L 735 469 L 735 471 L 734 472 L 734 476 L 733 477 L 733 485 L 734 486 L 734 488 L 735 489 L 735 491 L 737 493 L 737 494 L 742 499 L 742 500 L 746 504 L 746 505 L 747 506 L 747 508 L 748 509 L 748 511 L 749 512 L 749 516 L 748 517 L 748 518 L 746 520 L 745 520 L 744 521 L 743 521 L 742 522 L 739 522 L 738 523 L 731 523 L 730 524 L 725 524 L 724 525 L 722 525 L 721 526 L 720 526 L 712 534 L 712 535 L 708 539 L 708 540 L 707 541 L 707 543 L 710 546 L 712 546 L 713 545 L 714 545 L 717 542 L 717 541 L 719 539 L 719 538 L 724 533 L 725 533 L 726 532 L 727 532 L 728 531 L 734 531 L 735 530 L 741 530 L 742 529 L 744 529 L 745 528 L 746 528 L 747 527 L 748 527 L 749 526 L 750 526 L 751 525 L 757 525 L 758 526 L 760 526 L 761 527 L 763 527 L 764 528 L 766 528 L 767 529 L 770 529 L 771 530 L 774 530 L 775 531 L 778 531 L 779 532 L 784 532 L 785 533 L 805 533 L 806 532 L 811 532 L 812 531 L 815 531 L 816 530 L 819 530 L 820 529 L 823 529 L 824 528 L 827 528 L 828 527 L 831 527 L 832 526 L 837 526 L 838 525 L 843 525 L 845 523 L 845 519 L 844 518 L 838 518 L 837 519 L 835 519 L 834 520 L 830 520 L 829 521 L 825 521 L 824 522 L 821 522 L 820 523 L 817 523 L 816 524 L 813 524 L 812 525 L 808 525 L 807 526 L 786 526 L 785 525 L 780 525 L 779 524 L 776 524 L 775 523 L 772 523 L 771 522 L 769 522 L 768 521 L 765 521 L 764 520 L 762 520 L 761 519 L 760 519 L 756 515 L 756 511 L 755 510 L 755 506 L 754 505 L 754 503 L 753 502 L 753 501 L 751 499 L 751 498 L 748 495 L 748 494 L 744 490 L 744 489 L 743 488 L 743 487 L 742 486 L 742 484 L 741 483 L 741 479 L 742 478 L 742 474 L 743 473 L 743 470 L 744 469 L 744 467 L 745 466 L 745 463 L 746 462 L 746 458 L 747 457 L 747 452 L 748 451 L 748 448 L 749 447 L 749 446 L 750 445 L 750 444 L 751 443 L 751 442 L 753 440 L 753 439 L 755 437 L 756 437 L 758 435 L 760 435 L 761 434 L 774 434 L 776 432 L 776 428 L 774 426 L 772 426 L 771 425 L 770 425 L 769 426 "></path>
        <path fill="none" stroke="#00fafa" stroke-width="3" d="M 509 575 L 508 576 L 505 576 L 504 577 L 503 577 L 502 578 L 501 578 L 496 583 L 496 584 L 492 588 L 492 589 L 491 590 L 490 590 L 488 592 L 484 592 L 483 593 L 469 593 L 468 592 L 464 592 L 463 591 L 460 591 L 459 590 L 455 590 L 454 589 L 445 589 L 444 590 L 411 590 L 410 589 L 405 589 L 404 590 L 403 590 L 401 592 L 401 596 L 403 598 L 412 598 L 413 597 L 419 597 L 420 598 L 445 598 L 446 597 L 453 597 L 454 598 L 459 598 L 460 599 L 463 599 L 464 600 L 468 600 L 469 601 L 477 601 L 478 600 L 484 600 L 485 601 L 487 601 L 491 605 L 491 606 L 492 607 L 492 608 L 495 611 L 495 612 L 496 613 L 497 613 L 500 616 L 501 616 L 503 618 L 504 618 L 505 619 L 506 619 L 507 620 L 508 620 L 509 621 L 510 621 L 511 622 L 513 622 L 514 623 L 520 623 L 521 622 L 521 617 L 519 615 L 517 615 L 516 614 L 514 614 L 513 613 L 511 613 L 510 612 L 509 612 L 508 611 L 507 611 L 506 610 L 505 610 L 499 604 L 499 603 L 498 602 L 498 601 L 497 600 L 497 596 L 498 595 L 498 594 L 500 592 L 500 591 L 505 586 L 506 586 L 507 585 L 508 585 L 509 584 L 511 584 L 512 583 L 522 583 L 523 584 L 528 584 L 529 585 L 534 585 L 535 586 L 551 586 L 552 587 L 563 587 L 564 586 L 564 585 L 565 584 L 565 582 L 562 579 L 558 579 L 557 578 L 538 578 L 537 577 L 532 577 L 531 576 L 526 576 L 525 575 L 509 575 L 508 576 "></path>
        <path fill="none" stroke="#00fafa" stroke-width="3" d="M 664 583 L 663 584 L 662 584 L 661 585 L 660 585 L 659 586 L 658 586 L 657 587 L 656 587 L 655 588 L 654 588 L 653 589 L 652 589 L 651 590 L 649 590 L 648 591 L 647 591 L 646 592 L 643 592 L 642 593 L 634 593 L 633 594 L 620 594 L 619 595 L 616 595 L 615 596 L 612 596 L 611 597 L 610 597 L 609 598 L 607 598 L 606 599 L 603 599 L 602 600 L 592 600 L 591 599 L 588 599 L 587 598 L 585 598 L 584 597 L 583 597 L 582 596 L 580 596 L 579 595 L 578 595 L 577 594 L 576 594 L 575 593 L 571 593 L 570 592 L 566 592 L 565 593 L 560 593 L 559 594 L 531 594 L 530 593 L 527 593 L 526 592 L 522 592 L 521 591 L 515 591 L 514 592 L 510 592 L 508 594 L 507 594 L 507 595 L 506 596 L 506 600 L 509 603 L 511 603 L 512 604 L 517 604 L 518 605 L 520 605 L 521 606 L 522 606 L 525 609 L 525 610 L 526 611 L 526 612 L 527 613 L 527 616 L 528 617 L 528 620 L 531 623 L 535 623 L 536 622 L 536 621 L 537 620 L 537 617 L 536 616 L 536 615 L 535 614 L 535 613 L 534 612 L 534 605 L 536 603 L 537 603 L 538 602 L 559 602 L 560 601 L 564 601 L 565 600 L 569 600 L 570 601 L 573 601 L 574 602 L 575 602 L 576 603 L 578 603 L 579 604 L 580 604 L 581 605 L 583 605 L 584 606 L 586 606 L 587 607 L 591 607 L 592 608 L 602 608 L 603 607 L 606 607 L 607 606 L 610 606 L 611 605 L 613 605 L 614 604 L 616 604 L 617 603 L 620 603 L 621 602 L 629 602 L 630 601 L 642 601 L 643 600 L 646 600 L 647 599 L 649 599 L 650 598 L 652 598 L 653 597 L 654 597 L 655 596 L 656 596 L 657 595 L 658 595 L 659 594 L 660 594 L 661 593 L 663 593 L 664 592 L 666 592 L 667 591 L 669 591 L 670 590 L 670 589 L 671 588 L 671 585 L 669 583 L 664 583 L 663 584 "></path>
        <path fill="none" stroke="#00fafa" stroke-width="3" d="M 318 581 L 317 582 L 314 582 L 313 583 L 311 583 L 310 584 L 309 584 L 308 585 L 307 585 L 306 586 L 305 586 L 304 587 L 303 587 L 302 588 L 301 588 L 299 590 L 298 590 L 296 592 L 295 592 L 294 593 L 293 593 L 292 594 L 291 594 L 290 595 L 286 595 L 285 594 L 284 594 L 283 593 L 281 593 L 280 592 L 276 592 L 275 591 L 261 591 L 260 592 L 233 592 L 232 591 L 222 591 L 221 592 L 221 593 L 220 594 L 221 595 L 221 596 L 222 597 L 223 597 L 224 598 L 278 598 L 279 599 L 281 599 L 284 602 L 284 606 L 279 611 L 277 611 L 276 612 L 242 612 L 241 611 L 225 611 L 224 610 L 214 610 L 213 609 L 206 609 L 205 610 L 205 611 L 204 612 L 205 613 L 205 614 L 206 615 L 207 615 L 208 616 L 224 616 L 225 617 L 239 617 L 240 618 L 257 618 L 258 619 L 273 619 L 274 618 L 278 618 L 279 617 L 281 617 L 282 616 L 283 616 L 284 615 L 285 615 L 289 611 L 289 610 L 290 609 L 290 607 L 291 606 L 291 604 L 296 599 L 297 599 L 298 598 L 299 598 L 301 596 L 302 596 L 303 595 L 304 595 L 305 594 L 306 594 L 308 592 L 309 592 L 310 591 L 311 591 L 312 590 L 314 590 L 315 589 L 318 589 L 319 588 L 326 588 L 327 589 L 331 589 L 332 590 L 334 590 L 335 591 L 336 591 L 337 592 L 339 592 L 340 593 L 343 593 L 345 591 L 345 590 L 346 589 L 345 588 L 345 587 L 343 585 L 341 585 L 340 584 L 336 584 L 335 583 L 333 583 L 332 582 L 329 582 L 328 581 L 318 581 L 317 582 "></path>
        <path fill="none" stroke="#00fafa" stroke-width="3" d="M 478 607 L 477 608 L 476 608 L 474 610 L 474 611 L 465 620 L 464 620 L 463 621 L 462 621 L 461 622 L 459 622 L 458 623 L 451 623 L 450 624 L 437 624 L 436 625 L 423 625 L 422 626 L 403 626 L 402 627 L 397 627 L 396 628 L 392 628 L 391 629 L 385 629 L 384 630 L 382 630 L 381 629 L 370 629 L 369 628 L 360 628 L 359 627 L 354 627 L 353 626 L 349 626 L 348 625 L 344 625 L 343 624 L 335 624 L 334 623 L 315 623 L 314 622 L 309 622 L 307 624 L 307 625 L 306 626 L 307 627 L 307 628 L 308 629 L 309 629 L 310 630 L 316 630 L 317 629 L 318 629 L 319 630 L 336 630 L 337 631 L 343 631 L 344 632 L 348 632 L 349 633 L 353 633 L 354 634 L 360 634 L 361 635 L 369 635 L 370 636 L 382 636 L 383 637 L 384 637 L 385 636 L 393 636 L 394 635 L 398 635 L 399 634 L 406 634 L 407 633 L 427 633 L 428 632 L 443 632 L 444 631 L 455 631 L 456 630 L 461 630 L 462 629 L 464 629 L 465 628 L 466 628 L 467 627 L 468 627 L 470 625 L 471 625 L 478 618 L 479 618 L 483 614 L 483 613 L 484 612 L 484 610 L 483 609 L 483 608 L 482 608 L 481 607 L 478 607 L 477 608 "></path>
        <path fill="none" stroke="#00fafa" stroke-width="3" d="M 451 669 L 450 670 L 449 670 L 449 671 L 448 672 L 448 673 L 449 674 L 449 675 L 451 677 L 453 677 L 454 678 L 456 678 L 457 679 L 459 679 L 460 680 L 461 680 L 462 681 L 463 681 L 464 682 L 466 682 L 467 683 L 468 683 L 469 684 L 471 684 L 472 685 L 474 685 L 475 686 L 477 686 L 478 687 L 481 687 L 482 688 L 486 688 L 487 689 L 492 689 L 493 690 L 500 690 L 501 691 L 534 691 L 535 690 L 553 690 L 554 691 L 572 691 L 573 692 L 613 692 L 614 693 L 618 693 L 619 692 L 620 692 L 621 691 L 621 690 L 622 689 L 622 688 L 621 687 L 621 686 L 620 686 L 619 685 L 610 685 L 609 686 L 606 686 L 605 685 L 570 685 L 569 684 L 552 684 L 551 683 L 538 683 L 537 684 L 501 684 L 500 683 L 493 683 L 492 682 L 487 682 L 486 681 L 483 681 L 482 680 L 479 680 L 478 679 L 476 679 L 475 678 L 473 678 L 472 677 L 470 677 L 469 676 L 468 676 L 467 675 L 466 675 L 465 674 L 463 674 L 462 673 L 461 673 L 460 672 L 459 672 L 458 671 L 457 671 L 456 670 L 455 670 L 454 669 L 451 669 L 450 670 "></path>
        <path fill="none" stroke="#00fafa" stroke-width="3" d="M 764 621 L 763 622 L 756 622 L 755 623 L 737 623 L 736 624 L 723 624 L 722 625 L 713 625 L 712 626 L 705 626 L 704 627 L 699 627 L 698 628 L 694 628 L 693 629 L 688 629 L 687 630 L 679 630 L 678 631 L 677 631 L 676 630 L 669 630 L 668 629 L 664 629 L 663 628 L 638 628 L 637 629 L 628 629 L 627 630 L 621 630 L 620 629 L 615 629 L 612 632 L 612 635 L 614 637 L 630 637 L 631 636 L 640 636 L 641 635 L 662 635 L 663 636 L 667 636 L 668 637 L 688 637 L 689 636 L 693 636 L 694 635 L 698 635 L 699 634 L 704 634 L 705 633 L 711 633 L 712 632 L 720 632 L 721 631 L 732 631 L 733 630 L 749 630 L 750 629 L 761 629 L 762 628 L 769 628 L 770 627 L 771 627 L 771 622 L 770 622 L 769 621 L 764 621 L 763 622 "></path>
        <path fill="none" stroke="#00fafa" stroke-width="3" d="M 306 489 L 305 490 L 304 490 L 302 492 L 302 493 L 301 494 L 301 495 L 300 496 L 300 498 L 298 500 L 298 501 L 297 502 L 297 503 L 296 504 L 296 505 L 294 507 L 294 508 L 293 509 L 293 510 L 292 511 L 292 512 L 290 514 L 290 515 L 289 516 L 289 517 L 280 526 L 279 526 L 278 527 L 276 527 L 275 528 L 270 528 L 269 529 L 253 529 L 252 528 L 233 528 L 232 527 L 229 527 L 228 526 L 226 526 L 225 525 L 223 525 L 222 524 L 220 524 L 219 523 L 218 523 L 217 522 L 216 522 L 215 521 L 213 521 L 212 520 L 210 520 L 209 519 L 207 519 L 206 518 L 202 518 L 201 517 L 186 517 L 185 518 L 184 518 L 184 522 L 186 524 L 191 524 L 192 523 L 199 523 L 200 524 L 204 524 L 205 525 L 207 525 L 208 526 L 210 526 L 211 527 L 212 527 L 213 528 L 215 528 L 216 529 L 217 529 L 218 530 L 219 530 L 220 531 L 222 531 L 223 532 L 225 532 L 226 533 L 229 533 L 230 534 L 235 534 L 236 535 L 261 535 L 262 536 L 268 536 L 269 535 L 276 535 L 277 534 L 279 534 L 280 533 L 282 533 L 283 532 L 284 532 L 286 530 L 287 530 L 293 524 L 293 523 L 295 521 L 295 520 L 297 518 L 297 517 L 298 516 L 298 515 L 300 513 L 300 512 L 301 511 L 301 510 L 302 509 L 302 508 L 304 506 L 304 505 L 306 503 L 306 502 L 309 499 L 309 498 L 311 496 L 311 492 L 309 490 L 308 490 L 307 489 L 306 489 L 305 490 "></path>
        <path fill="none" stroke="#00fafa" stroke-width="3" d="M 731 539 L 730 540 L 729 540 L 728 541 L 728 542 L 727 543 L 727 544 L 728 545 L 728 546 L 729 547 L 731 547 L 732 548 L 733 548 L 734 547 L 759 547 L 760 548 L 763 548 L 764 549 L 766 549 L 767 550 L 768 550 L 769 551 L 771 551 L 773 553 L 774 553 L 775 554 L 776 554 L 779 557 L 779 563 L 778 564 L 778 567 L 779 568 L 779 569 L 780 569 L 781 570 L 782 570 L 783 569 L 784 569 L 785 568 L 785 567 L 786 566 L 786 561 L 787 560 L 787 559 L 788 558 L 789 558 L 790 557 L 792 557 L 793 556 L 797 556 L 798 555 L 808 555 L 809 554 L 827 554 L 828 553 L 843 553 L 844 552 L 855 552 L 857 550 L 857 548 L 855 546 L 854 546 L 853 545 L 851 545 L 850 546 L 839 546 L 838 547 L 820 547 L 819 548 L 801 548 L 800 549 L 794 549 L 793 550 L 790 550 L 789 551 L 783 551 L 782 550 L 781 550 L 779 548 L 778 548 L 776 546 L 775 546 L 774 545 L 773 545 L 772 544 L 771 544 L 770 543 L 768 543 L 767 542 L 765 542 L 764 541 L 761 541 L 760 540 L 735 540 L 734 539 L 731 539 L 730 540 "></path>
        <path fill="none" stroke="#00fafa" stroke-width="3" d="M 784 254 L 783 255 L 777 255 L 776 256 L 772 256 L 771 257 L 767 257 L 766 258 L 763 258 L 762 259 L 759 259 L 758 260 L 756 260 L 755 261 L 752 261 L 751 262 L 748 262 L 747 263 L 745 263 L 744 264 L 741 264 L 740 265 L 736 265 L 735 266 L 731 266 L 730 267 L 725 267 L 724 268 L 719 268 L 718 269 L 714 269 L 713 270 L 700 270 L 699 271 L 698 271 L 696 273 L 696 275 L 695 276 L 696 277 L 696 278 L 697 279 L 697 280 L 698 280 L 699 281 L 704 281 L 705 280 L 706 280 L 707 279 L 709 279 L 710 278 L 713 278 L 714 277 L 718 277 L 719 276 L 723 276 L 724 275 L 728 275 L 729 274 L 733 274 L 734 273 L 738 273 L 739 272 L 742 272 L 743 271 L 746 271 L 747 270 L 749 270 L 750 269 L 753 269 L 754 268 L 756 268 L 757 267 L 760 267 L 761 266 L 763 266 L 764 265 L 767 265 L 768 264 L 771 264 L 772 263 L 776 263 L 777 262 L 782 262 L 783 261 L 791 261 L 792 260 L 803 260 L 804 261 L 811 261 L 812 262 L 815 262 L 816 263 L 822 263 L 824 261 L 824 259 L 821 256 L 815 256 L 814 255 L 809 255 L 808 254 L 784 254 L 783 255 "></path>
        <path fill="none" stroke="#00fafa" stroke-width="3" d="M 357 301 L 356 302 L 354 302 L 353 303 L 352 303 L 345 310 L 344 310 L 343 311 L 342 311 L 341 312 L 332 312 L 331 311 L 325 311 L 324 310 L 320 310 L 319 309 L 318 310 L 316 310 L 315 311 L 315 312 L 314 313 L 314 315 L 315 316 L 315 317 L 316 318 L 318 318 L 319 319 L 332 319 L 333 320 L 338 320 L 339 321 L 340 321 L 345 326 L 345 327 L 346 328 L 346 330 L 347 331 L 347 332 L 348 333 L 348 334 L 350 336 L 351 336 L 352 337 L 355 337 L 356 336 L 357 336 L 359 334 L 359 333 L 361 331 L 361 330 L 363 328 L 363 327 L 364 326 L 364 325 L 365 324 L 365 322 L 366 321 L 366 320 L 367 319 L 367 318 L 368 317 L 368 315 L 369 314 L 369 306 L 365 302 L 364 302 L 363 301 L 357 301 L 356 302 "></path>
        <path fill="none" stroke="#00fafa" stroke-width="3" d="M 599 632 L 598 633 L 597 633 L 597 634 L 596 635 L 596 637 L 597 638 L 597 639 L 598 640 L 598 641 L 601 644 L 601 645 L 608 652 L 609 652 L 610 653 L 611 653 L 612 654 L 615 654 L 616 655 L 634 655 L 635 654 L 669 654 L 670 655 L 683 655 L 684 656 L 692 656 L 693 657 L 697 657 L 698 658 L 702 658 L 703 659 L 706 659 L 707 660 L 709 660 L 710 661 L 712 661 L 713 662 L 715 662 L 716 661 L 717 661 L 717 660 L 718 659 L 718 657 L 717 656 L 717 655 L 716 655 L 715 654 L 712 654 L 711 653 L 706 653 L 705 652 L 702 652 L 701 651 L 697 651 L 696 650 L 692 650 L 691 649 L 681 649 L 680 648 L 669 648 L 668 647 L 633 647 L 632 648 L 618 648 L 617 647 L 615 647 L 614 646 L 613 646 L 612 645 L 611 645 L 607 641 L 607 640 L 606 639 L 606 638 L 605 637 L 605 636 L 604 635 L 604 634 L 603 633 L 602 633 L 601 632 L 599 632 L 598 633 "></path>
        <path fill="none" stroke="#00fafa" stroke-width="3" d="M 411 559 L 410 560 L 408 560 L 405 563 L 405 573 L 406 574 L 406 576 L 408 578 L 408 579 L 409 579 L 410 580 L 411 580 L 412 581 L 418 581 L 419 580 L 429 580 L 430 581 L 435 581 L 436 582 L 443 582 L 444 581 L 445 581 L 448 578 L 448 576 L 449 575 L 449 569 L 448 568 L 448 566 L 445 563 L 444 563 L 443 562 L 442 562 L 441 561 L 439 561 L 438 560 L 435 560 L 434 559 L 411 559 L 410 560 "></path>
        <path fill="none" stroke="#00fafa" stroke-width="3" d="M 653 706 L 652 707 L 647 707 L 646 708 L 588 708 L 587 709 L 581 709 L 580 710 L 576 710 L 575 711 L 573 711 L 572 712 L 570 712 L 569 713 L 568 713 L 567 714 L 565 714 L 563 716 L 562 716 L 561 717 L 560 717 L 559 718 L 558 718 L 556 720 L 554 720 L 553 721 L 546 721 L 545 720 L 544 720 L 543 719 L 542 719 L 541 718 L 540 718 L 539 717 L 538 717 L 537 718 L 536 718 L 535 719 L 535 723 L 537 725 L 539 725 L 540 726 L 542 726 L 543 727 L 546 727 L 547 728 L 553 728 L 554 727 L 556 727 L 557 726 L 559 726 L 561 724 L 562 724 L 563 723 L 564 723 L 565 722 L 566 722 L 568 720 L 570 720 L 571 719 L 572 719 L 573 718 L 575 718 L 576 717 L 579 717 L 580 716 L 584 716 L 585 715 L 599 715 L 600 714 L 603 714 L 604 715 L 637 715 L 638 714 L 655 714 L 656 713 L 657 713 L 658 712 L 658 711 L 659 710 L 658 709 L 658 708 L 657 707 L 656 707 L 655 706 L 653 706 L 652 707 "></path>
        <path fill="none" stroke="#00fafa" stroke-width="3" d="M 479 629 L 478 630 L 477 630 L 476 631 L 475 631 L 471 635 L 471 636 L 468 639 L 468 640 L 467 641 L 467 642 L 466 643 L 466 645 L 465 646 L 465 655 L 466 656 L 466 658 L 467 659 L 467 660 L 473 666 L 474 666 L 475 667 L 476 667 L 477 668 L 479 668 L 480 669 L 482 669 L 483 670 L 488 670 L 489 671 L 495 671 L 496 672 L 534 672 L 535 673 L 543 673 L 545 671 L 545 667 L 544 666 L 543 666 L 542 665 L 498 665 L 497 664 L 490 664 L 489 663 L 485 663 L 484 662 L 482 662 L 481 661 L 479 661 L 477 659 L 476 659 L 474 657 L 474 656 L 473 655 L 473 654 L 472 653 L 472 648 L 473 647 L 473 645 L 475 643 L 475 642 L 477 640 L 478 640 L 480 638 L 481 638 L 483 636 L 483 635 L 484 634 L 484 632 L 482 630 L 481 630 L 480 629 L 479 629 L 478 630 "></path>
        <path fill="none" stroke="#00fafa" stroke-width="3" d="M 341 554 L 340 555 L 337 555 L 336 556 L 334 556 L 333 557 L 331 557 L 330 558 L 328 558 L 327 559 L 322 559 L 321 560 L 315 560 L 314 559 L 308 559 L 307 558 L 304 558 L 303 557 L 299 557 L 298 558 L 297 558 L 297 559 L 296 560 L 296 562 L 297 563 L 297 564 L 298 564 L 299 565 L 305 565 L 306 566 L 312 566 L 313 567 L 324 567 L 325 566 L 329 566 L 330 565 L 332 565 L 333 564 L 335 564 L 336 563 L 338 563 L 339 562 L 342 562 L 343 561 L 352 561 L 353 562 L 357 562 L 358 563 L 361 563 L 362 564 L 364 564 L 366 566 L 367 566 L 370 569 L 370 570 L 371 571 L 371 572 L 372 573 L 372 574 L 373 575 L 373 579 L 374 580 L 374 583 L 376 585 L 380 585 L 382 583 L 382 578 L 381 577 L 381 575 L 380 574 L 380 572 L 379 571 L 379 569 L 378 568 L 378 567 L 377 566 L 377 565 L 370 558 L 369 558 L 368 557 L 366 557 L 365 556 L 362 556 L 361 555 L 357 555 L 356 554 L 341 554 L 340 555 "></path>
        <path fill="none" stroke="#00fafa" stroke-width="3" d="M 713 569 L 712 570 L 706 570 L 705 571 L 703 571 L 702 572 L 700 572 L 693 579 L 693 580 L 691 582 L 691 583 L 682 592 L 681 592 L 679 594 L 678 594 L 677 595 L 676 595 L 674 597 L 673 597 L 672 598 L 671 598 L 669 600 L 668 600 L 667 601 L 666 601 L 665 602 L 664 602 L 663 603 L 662 603 L 660 605 L 659 605 L 658 606 L 657 606 L 656 607 L 655 607 L 654 608 L 653 608 L 652 609 L 651 609 L 650 610 L 649 610 L 646 613 L 646 617 L 648 619 L 651 619 L 652 618 L 653 618 L 654 617 L 655 617 L 657 615 L 658 615 L 660 613 L 661 613 L 662 612 L 663 612 L 665 610 L 666 610 L 667 609 L 668 609 L 670 607 L 671 607 L 672 606 L 673 606 L 674 605 L 675 605 L 676 604 L 677 604 L 679 602 L 680 602 L 682 600 L 683 600 L 684 599 L 685 599 L 688 596 L 689 596 L 695 590 L 695 589 L 698 586 L 698 585 L 704 579 L 705 579 L 706 578 L 707 578 L 708 577 L 725 577 L 726 578 L 727 578 L 728 577 L 729 577 L 731 575 L 731 572 L 729 570 L 717 570 L 716 569 L 713 569 L 712 570 "></path>
        <path fill="none" stroke="#00fafa" stroke-width="3" d="M 579 153 L 578 154 L 578 156 L 577 157 L 577 158 L 578 159 L 578 163 L 579 164 L 579 168 L 580 169 L 580 173 L 581 174 L 581 176 L 582 177 L 582 179 L 583 180 L 583 182 L 584 183 L 584 184 L 585 185 L 585 186 L 587 188 L 587 189 L 591 193 L 592 193 L 593 194 L 594 194 L 595 195 L 596 195 L 597 196 L 605 196 L 606 195 L 607 195 L 608 194 L 609 194 L 614 189 L 614 187 L 615 186 L 615 177 L 614 176 L 614 174 L 613 173 L 613 172 L 611 170 L 611 169 L 608 166 L 608 165 L 606 163 L 606 162 L 604 160 L 604 159 L 601 156 L 597 156 L 596 157 L 596 158 L 595 159 L 595 161 L 596 162 L 596 163 L 598 165 L 598 166 L 604 172 L 604 173 L 606 175 L 606 176 L 607 177 L 607 179 L 608 180 L 608 182 L 607 183 L 607 184 L 606 185 L 606 186 L 605 187 L 604 187 L 603 188 L 599 188 L 598 187 L 597 187 L 592 182 L 592 181 L 591 180 L 591 179 L 590 178 L 590 177 L 589 176 L 589 174 L 588 173 L 588 171 L 587 170 L 587 166 L 586 165 L 586 155 L 584 153 L 579 153 L 578 154 "></path>
        <path fill="none" stroke="#00fafa" stroke-width="3" d="M 749 405 L 748 406 L 742 406 L 741 407 L 739 407 L 738 408 L 737 408 L 736 409 L 735 409 L 734 410 L 732 410 L 731 411 L 730 411 L 729 412 L 728 412 L 724 416 L 724 417 L 723 418 L 723 420 L 722 421 L 722 424 L 723 425 L 723 428 L 724 429 L 724 430 L 725 431 L 725 432 L 728 435 L 729 435 L 730 436 L 734 436 L 735 435 L 736 435 L 738 433 L 738 432 L 739 431 L 739 419 L 743 415 L 744 415 L 745 414 L 749 414 L 750 413 L 752 413 L 753 414 L 763 414 L 764 415 L 769 415 L 770 416 L 772 416 L 773 417 L 775 417 L 776 418 L 779 418 L 780 417 L 781 417 L 781 416 L 782 415 L 782 412 L 779 409 L 776 409 L 775 408 L 768 408 L 767 407 L 762 407 L 761 406 L 752 406 L 751 405 L 749 405 L 748 406 "></path>
        <path fill="none" stroke="#00fafa" stroke-width="3" d="M 221 630 L 219 632 L 219 634 L 220 635 L 220 636 L 222 636 L 223 637 L 248 637 L 249 638 L 253 638 L 254 639 L 255 639 L 258 642 L 258 643 L 259 644 L 259 645 L 258 646 L 258 647 L 255 650 L 253 650 L 252 651 L 248 651 L 247 652 L 226 652 L 225 651 L 210 651 L 209 650 L 201 650 L 200 649 L 199 650 L 197 650 L 196 651 L 196 654 L 197 655 L 198 655 L 199 656 L 213 656 L 214 657 L 229 657 L 230 658 L 247 658 L 248 657 L 253 657 L 254 656 L 256 656 L 257 655 L 258 655 L 259 654 L 260 654 L 264 650 L 264 649 L 265 648 L 265 641 L 264 640 L 264 639 L 263 638 L 263 637 L 262 636 L 261 636 L 259 634 L 258 634 L 257 633 L 255 633 L 254 632 L 250 632 L 249 631 L 229 631 L 228 630 L 221 630 L 219 632 "></path>
        <path fill="none" stroke="#00fafa" stroke-width="3" d="M 698 553 L 697 554 L 694 554 L 693 555 L 690 555 L 689 556 L 680 556 L 677 559 L 677 562 L 679 564 L 680 564 L 681 565 L 685 565 L 686 564 L 689 564 L 690 563 L 694 563 L 695 562 L 697 562 L 698 561 L 702 561 L 703 560 L 722 560 L 723 561 L 727 561 L 728 562 L 730 562 L 731 563 L 733 563 L 734 564 L 736 564 L 737 565 L 740 565 L 741 566 L 745 566 L 746 567 L 752 567 L 753 568 L 758 568 L 759 569 L 762 569 L 763 570 L 768 570 L 769 569 L 769 568 L 770 567 L 770 565 L 768 563 L 767 563 L 766 562 L 760 562 L 759 561 L 754 561 L 753 560 L 747 560 L 746 559 L 742 559 L 741 558 L 739 558 L 738 557 L 735 557 L 734 556 L 732 556 L 731 555 L 729 555 L 728 554 L 725 554 L 724 553 L 698 553 L 697 554 "></path>
        <path fill="none" stroke="#00fafa" stroke-width="3" d="M 666 685 L 665 686 L 650 686 L 649 687 L 636 687 L 635 688 L 632 688 L 630 690 L 630 693 L 632 695 L 638 695 L 639 694 L 645 694 L 646 693 L 657 693 L 658 692 L 676 692 L 677 691 L 691 691 L 692 692 L 703 692 L 704 693 L 710 693 L 711 694 L 716 694 L 717 695 L 722 695 L 723 696 L 725 696 L 726 697 L 730 697 L 731 696 L 732 696 L 732 692 L 730 690 L 725 690 L 724 689 L 719 689 L 718 688 L 714 688 L 713 687 L 707 687 L 706 686 L 698 686 L 697 685 L 666 685 L 665 686 "></path>
        <path fill="none" stroke="#00fafa" stroke-width="3" d="M 696 604 L 695 605 L 693 605 L 691 607 L 690 607 L 689 608 L 688 608 L 686 610 L 685 610 L 684 611 L 683 611 L 682 612 L 681 612 L 680 613 L 678 613 L 677 614 L 674 614 L 673 615 L 672 615 L 670 617 L 670 621 L 671 622 L 677 622 L 678 621 L 680 621 L 681 620 L 682 620 L 683 619 L 684 619 L 685 618 L 686 618 L 687 617 L 688 617 L 689 616 L 690 616 L 692 614 L 693 614 L 694 613 L 695 613 L 696 612 L 697 612 L 698 611 L 704 611 L 705 612 L 709 612 L 710 613 L 721 613 L 722 612 L 727 612 L 728 611 L 736 611 L 737 610 L 747 610 L 748 611 L 757 611 L 758 612 L 759 611 L 761 611 L 762 610 L 762 609 L 763 608 L 762 607 L 762 606 L 760 604 L 728 604 L 727 605 L 722 605 L 721 606 L 710 606 L 709 605 L 706 605 L 705 604 L 696 604 L 695 605 "></path>
        <path fill="none" stroke="#00fafa" stroke-width="3" d="M 713 139 L 711 141 L 711 143 L 710 144 L 710 147 L 709 148 L 709 150 L 708 151 L 708 152 L 706 154 L 705 154 L 704 155 L 702 155 L 701 156 L 698 156 L 697 157 L 696 157 L 691 162 L 691 163 L 690 164 L 690 173 L 691 174 L 691 175 L 695 179 L 696 179 L 697 180 L 699 180 L 700 181 L 704 181 L 705 180 L 707 180 L 708 179 L 709 179 L 711 177 L 712 177 L 712 176 L 714 174 L 714 173 L 715 172 L 715 164 L 714 163 L 714 161 L 713 160 L 713 155 L 714 154 L 714 153 L 715 152 L 715 151 L 716 150 L 716 149 L 717 148 L 717 146 L 718 145 L 718 140 L 717 139 L 713 139 L 711 141 "></path>
        <path fill="none" stroke="#00fafa" stroke-width="3" d="M 330 685 L 329 686 L 329 687 L 328 688 L 329 689 L 329 690 L 330 691 L 331 691 L 332 692 L 335 692 L 336 691 L 377 691 L 378 692 L 401 692 L 402 693 L 409 693 L 410 694 L 415 694 L 416 695 L 418 695 L 419 696 L 425 696 L 427 694 L 427 691 L 425 689 L 422 689 L 421 688 L 414 688 L 413 687 L 408 687 L 407 686 L 398 686 L 397 685 L 330 685 L 329 686 "></path>
        <path fill="none" stroke="#00fafa" stroke-width="3" d="M 735 584 L 734 585 L 730 585 L 729 586 L 724 586 L 723 587 L 715 587 L 714 588 L 707 588 L 706 589 L 705 589 L 704 590 L 704 594 L 706 596 L 711 596 L 712 595 L 716 595 L 717 594 L 723 594 L 724 593 L 729 593 L 730 592 L 735 592 L 736 591 L 752 591 L 753 592 L 757 592 L 758 593 L 762 593 L 763 594 L 765 594 L 766 595 L 769 595 L 770 596 L 773 596 L 774 597 L 778 597 L 779 598 L 783 598 L 784 599 L 787 599 L 788 600 L 792 600 L 793 599 L 794 599 L 794 594 L 793 594 L 792 593 L 790 593 L 789 592 L 782 592 L 781 591 L 778 591 L 777 590 L 774 590 L 773 589 L 770 589 L 769 588 L 766 588 L 765 587 L 762 587 L 761 586 L 758 586 L 757 585 L 753 585 L 752 584 L 735 584 L 734 585 "></path>
        <path fill="none" stroke="#00fafa" stroke-width="3" d="M 562 607 L 560 609 L 560 613 L 562 615 L 563 615 L 564 616 L 565 616 L 566 617 L 568 617 L 569 618 L 570 618 L 571 619 L 572 619 L 573 620 L 574 620 L 575 621 L 577 621 L 578 622 L 582 622 L 583 623 L 587 623 L 588 624 L 594 624 L 595 625 L 600 625 L 601 624 L 606 624 L 607 623 L 610 623 L 611 622 L 614 622 L 615 621 L 618 621 L 619 620 L 624 620 L 625 619 L 635 619 L 636 618 L 638 618 L 640 616 L 640 613 L 639 612 L 639 611 L 638 611 L 637 610 L 632 610 L 631 611 L 628 611 L 627 612 L 621 612 L 620 613 L 616 613 L 615 614 L 612 614 L 611 615 L 608 615 L 607 616 L 604 616 L 603 617 L 592 617 L 591 616 L 587 616 L 586 615 L 582 615 L 581 614 L 579 614 L 578 613 L 576 613 L 575 612 L 574 612 L 573 611 L 572 611 L 570 609 L 569 609 L 568 608 L 567 608 L 566 607 L 562 607 L 560 609 "></path>
        <path fill="none" stroke="#00fafa" stroke-width="3" d="M 813 290 L 812 291 L 804 291 L 803 292 L 797 292 L 796 293 L 791 293 L 790 294 L 785 294 L 784 295 L 780 295 L 779 296 L 775 296 L 774 297 L 770 297 L 769 298 L 765 298 L 764 299 L 757 299 L 756 300 L 755 300 L 754 301 L 754 303 L 753 304 L 754 305 L 754 306 L 756 308 L 760 308 L 761 307 L 763 307 L 764 306 L 766 306 L 767 305 L 771 305 L 772 304 L 775 304 L 776 303 L 780 303 L 781 302 L 785 302 L 786 301 L 790 301 L 791 300 L 796 300 L 797 299 L 802 299 L 803 298 L 809 298 L 810 297 L 822 297 L 823 296 L 827 296 L 828 297 L 836 297 L 837 298 L 838 298 L 839 297 L 840 297 L 842 295 L 842 293 L 841 292 L 841 291 L 840 291 L 839 290 L 813 290 L 812 291 "></path>
        <path fill="none" stroke="#00fafa" stroke-width="3" d="M 344 664 L 343 665 L 312 665 L 311 666 L 293 666 L 292 667 L 291 667 L 291 668 L 290 669 L 290 670 L 291 671 L 291 672 L 292 673 L 299 673 L 300 672 L 320 672 L 321 671 L 366 671 L 367 672 L 376 672 L 377 673 L 381 673 L 382 672 L 383 672 L 383 671 L 384 670 L 384 668 L 382 666 L 381 666 L 380 665 L 355 665 L 354 664 L 344 664 L 343 665 "></path>
        <path fill="none" stroke="#00fafa" stroke-width="3" d="M 463 566 L 462 567 L 460 567 L 456 571 L 456 572 L 455 573 L 455 579 L 459 583 L 461 583 L 462 584 L 470 584 L 471 585 L 481 585 L 482 584 L 484 584 L 485 583 L 486 583 L 487 582 L 488 582 L 492 578 L 492 577 L 493 576 L 493 573 L 492 572 L 492 571 L 491 570 L 490 570 L 489 569 L 488 569 L 487 568 L 486 568 L 485 567 L 482 567 L 481 566 L 463 566 L 462 567 "></path>
        <path fill="none" stroke="#00fafa" stroke-width="3" d="M 860 404 L 859 405 L 857 405 L 856 406 L 855 406 L 854 407 L 853 407 L 845 415 L 845 416 L 843 418 L 843 419 L 842 420 L 842 421 L 841 422 L 841 423 L 840 424 L 840 425 L 839 426 L 839 427 L 837 429 L 837 430 L 836 431 L 836 432 L 834 434 L 834 436 L 833 437 L 834 438 L 834 439 L 835 440 L 836 440 L 837 441 L 838 440 L 839 440 L 841 438 L 841 437 L 842 436 L 842 435 L 843 434 L 843 432 L 844 431 L 844 430 L 845 429 L 845 428 L 847 426 L 847 425 L 848 424 L 848 423 L 849 422 L 849 421 L 851 419 L 851 418 L 856 413 L 857 413 L 859 411 L 866 411 L 871 416 L 871 418 L 872 419 L 872 432 L 871 433 L 871 436 L 870 437 L 870 439 L 869 440 L 869 442 L 868 443 L 868 445 L 869 446 L 869 447 L 870 447 L 871 448 L 872 448 L 873 447 L 874 447 L 875 446 L 875 444 L 876 443 L 876 439 L 877 438 L 877 434 L 878 433 L 878 426 L 879 425 L 879 424 L 878 423 L 878 417 L 877 416 L 877 414 L 876 413 L 876 412 L 875 411 L 875 410 L 872 407 L 871 407 L 869 405 L 867 405 L 866 404 L 860 404 L 859 405 "></path>
        <path fill="none" stroke="#00fafa" stroke-width="3" d="M 484 645 L 483 646 L 482 646 L 482 647 L 481 648 L 481 650 L 482 651 L 482 652 L 483 652 L 484 653 L 497 653 L 498 654 L 504 654 L 505 655 L 538 655 L 539 656 L 544 656 L 545 657 L 550 657 L 551 658 L 559 658 L 561 656 L 561 652 L 560 651 L 559 651 L 558 650 L 546 650 L 545 649 L 541 649 L 540 648 L 535 648 L 534 647 L 521 647 L 520 648 L 509 648 L 508 647 L 501 647 L 500 646 L 494 646 L 493 645 L 484 645 L 483 646 "></path>
        <path fill="none" stroke="#00fafa" stroke-width="3" d="M 255 382 L 253 384 L 253 388 L 254 389 L 254 390 L 255 391 L 255 392 L 256 393 L 256 396 L 254 398 L 253 398 L 252 399 L 248 399 L 247 398 L 242 398 L 241 397 L 233 397 L 232 398 L 228 398 L 226 400 L 226 404 L 227 405 L 229 405 L 230 406 L 231 405 L 235 405 L 236 404 L 241 404 L 242 405 L 247 405 L 248 406 L 253 406 L 254 405 L 256 405 L 257 404 L 258 404 L 259 403 L 260 403 L 261 402 L 262 402 L 263 401 L 266 401 L 267 402 L 269 402 L 270 403 L 272 403 L 273 404 L 274 404 L 276 406 L 277 406 L 282 411 L 283 411 L 284 412 L 285 412 L 286 411 L 287 411 L 289 409 L 289 406 L 288 405 L 288 404 L 286 402 L 285 402 L 284 401 L 283 401 L 282 400 L 281 400 L 279 398 L 278 398 L 277 397 L 275 397 L 274 396 L 272 396 L 271 395 L 268 395 L 267 394 L 266 394 L 262 390 L 262 388 L 261 387 L 261 385 L 258 382 L 255 382 L 253 384 "></path>
        <path fill="none" stroke="#00fafa" stroke-width="3" d="M 487 618 L 486 619 L 486 620 L 485 621 L 485 623 L 486 624 L 486 625 L 494 633 L 495 633 L 497 635 L 498 635 L 499 636 L 500 636 L 501 637 L 504 637 L 505 638 L 531 638 L 532 637 L 534 637 L 535 638 L 541 638 L 542 639 L 544 639 L 546 641 L 547 641 L 548 642 L 550 642 L 551 643 L 553 643 L 555 641 L 555 640 L 556 639 L 555 638 L 555 637 L 552 634 L 550 634 L 549 633 L 548 633 L 547 632 L 545 632 L 544 631 L 541 631 L 540 630 L 523 630 L 522 631 L 509 631 L 508 630 L 505 630 L 504 629 L 503 629 L 502 628 L 501 628 L 500 627 L 499 627 L 496 624 L 496 623 L 491 618 L 487 618 L 486 619 "></path>
        <path fill="none" stroke="#00fafa" stroke-width="3" d="M 314 705 L 313 706 L 313 710 L 314 711 L 315 711 L 316 712 L 319 712 L 320 711 L 338 711 L 339 712 L 393 712 L 394 713 L 401 713 L 403 711 L 403 708 L 401 706 L 358 706 L 357 705 L 314 705 L 313 706 "></path>
        <path fill="none" stroke="#00fafa" stroke-width="3" d="M 452 638 L 450 640 L 450 641 L 449 642 L 449 644 L 448 645 L 448 647 L 447 648 L 447 649 L 446 650 L 446 651 L 443 654 L 443 655 L 438 660 L 437 660 L 433 664 L 432 664 L 431 665 L 428 665 L 427 666 L 420 666 L 419 665 L 404 665 L 403 664 L 395 664 L 394 665 L 394 666 L 393 667 L 393 668 L 394 669 L 394 670 L 395 671 L 398 671 L 399 672 L 420 672 L 421 673 L 428 673 L 429 672 L 432 672 L 433 671 L 435 671 L 436 670 L 437 670 L 440 667 L 441 667 L 450 658 L 450 657 L 452 655 L 452 654 L 453 653 L 453 652 L 454 651 L 454 650 L 455 649 L 455 648 L 457 646 L 457 644 L 458 643 L 458 641 L 457 640 L 457 639 L 456 638 L 452 638 L 450 640 "></path>
        <path fill="none" stroke="#00fafa" stroke-width="3" d="M 472 722 L 471 723 L 467 723 L 466 724 L 459 724 L 458 725 L 450 725 L 449 726 L 438 726 L 437 727 L 415 727 L 414 728 L 394 728 L 393 729 L 392 729 L 392 733 L 394 735 L 399 735 L 400 734 L 422 734 L 423 733 L 442 733 L 443 732 L 453 732 L 454 731 L 461 731 L 462 730 L 469 730 L 470 729 L 477 729 L 479 727 L 479 724 L 477 722 L 472 722 L 471 723 "></path>
        <path fill="none" stroke="#00fafa" stroke-width="3" d="M 322 329 L 321 330 L 319 330 L 317 332 L 317 333 L 316 334 L 316 335 L 317 336 L 317 337 L 318 338 L 319 338 L 320 339 L 322 339 L 323 338 L 330 338 L 333 341 L 333 344 L 329 348 L 328 348 L 326 350 L 325 350 L 323 352 L 322 352 L 319 355 L 318 355 L 312 361 L 312 366 L 315 369 L 318 369 L 319 368 L 320 368 L 322 366 L 322 365 L 324 363 L 324 362 L 329 357 L 330 357 L 332 355 L 333 355 L 336 352 L 337 352 L 341 348 L 341 347 L 342 346 L 342 345 L 343 344 L 343 340 L 342 339 L 342 338 L 341 337 L 341 336 L 337 332 L 336 332 L 335 331 L 334 331 L 333 330 L 330 330 L 329 329 L 322 329 L 321 330 "></path>
        <path fill="none" stroke="#00fafa" stroke-width="3" d="M 289 276 L 288 277 L 287 277 L 284 280 L 284 281 L 282 283 L 282 284 L 277 289 L 277 290 L 271 296 L 271 297 L 268 300 L 268 301 L 267 302 L 267 303 L 266 304 L 266 305 L 265 306 L 265 308 L 264 309 L 264 314 L 265 315 L 265 318 L 266 319 L 266 320 L 272 326 L 273 326 L 274 327 L 275 327 L 278 330 L 279 330 L 280 331 L 281 331 L 282 332 L 284 332 L 285 331 L 286 331 L 287 330 L 287 326 L 284 323 L 283 323 L 282 322 L 280 322 L 279 321 L 278 321 L 276 319 L 275 319 L 273 317 L 273 316 L 272 315 L 272 313 L 271 312 L 271 311 L 272 310 L 272 307 L 274 305 L 274 304 L 278 300 L 278 299 L 284 293 L 284 292 L 292 284 L 292 283 L 293 282 L 293 278 L 292 277 L 291 277 L 290 276 L 289 276 L 288 277 "></path>
        <path fill="none" stroke="#00fafa" stroke-width="3" d="M 225 572 L 223 574 L 223 576 L 224 577 L 224 578 L 225 578 L 226 579 L 261 579 L 262 578 L 282 578 L 283 579 L 291 579 L 292 580 L 298 580 L 300 578 L 300 575 L 298 573 L 297 573 L 296 572 L 225 572 L 223 574 "></path>
        <path fill="none" stroke="#00fafa" stroke-width="3" d="M 452 606 L 451 607 L 425 607 L 424 608 L 406 608 L 405 607 L 400 607 L 399 608 L 398 608 L 397 609 L 397 610 L 396 611 L 397 612 L 397 614 L 398 615 L 400 615 L 401 616 L 404 616 L 405 615 L 446 615 L 447 614 L 461 614 L 462 613 L 463 613 L 464 612 L 464 611 L 465 610 L 465 609 L 464 608 L 464 607 L 463 606 L 452 606 L 451 607 "></path>
        <path fill="none" stroke="#00fafa" stroke-width="3" d="M 382 547 L 381 548 L 380 548 L 379 549 L 379 554 L 387 562 L 387 563 L 388 564 L 388 566 L 389 567 L 389 571 L 390 572 L 390 581 L 389 582 L 389 585 L 388 586 L 388 588 L 387 589 L 387 591 L 386 592 L 386 595 L 385 596 L 385 604 L 386 605 L 387 605 L 388 606 L 389 606 L 390 605 L 391 605 L 392 604 L 392 603 L 393 602 L 393 595 L 394 594 L 394 591 L 395 590 L 395 588 L 396 587 L 396 585 L 397 584 L 397 581 L 398 580 L 398 574 L 397 573 L 397 566 L 396 565 L 396 562 L 395 561 L 395 559 L 393 557 L 393 556 L 391 554 L 391 553 L 386 548 L 385 548 L 384 547 L 382 547 L 381 548 "></path>
        <path fill="none" stroke="#00fafa" stroke-width="3" d="M 319 644 L 318 645 L 317 645 L 316 646 L 316 650 L 317 651 L 318 651 L 319 652 L 323 652 L 324 651 L 347 651 L 348 652 L 363 652 L 364 653 L 373 653 L 374 654 L 378 654 L 379 655 L 381 655 L 382 656 L 386 656 L 388 654 L 388 650 L 387 649 L 386 649 L 385 648 L 380 648 L 379 647 L 372 647 L 371 646 L 361 646 L 360 645 L 325 645 L 324 644 L 319 644 L 318 645 "></path>
        <path fill="none" stroke="#00fafa" stroke-width="3" d="M 544 609 L 542 611 L 542 614 L 543 615 L 543 616 L 544 617 L 544 618 L 551 625 L 552 625 L 554 627 L 555 627 L 563 635 L 563 637 L 564 638 L 564 639 L 565 640 L 565 642 L 566 643 L 566 645 L 567 646 L 567 648 L 568 649 L 568 651 L 569 652 L 569 654 L 570 655 L 570 656 L 571 657 L 571 658 L 572 658 L 573 659 L 575 659 L 576 658 L 577 658 L 577 657 L 578 656 L 578 653 L 577 652 L 577 651 L 576 650 L 576 649 L 575 648 L 575 647 L 574 646 L 574 644 L 573 643 L 573 641 L 572 640 L 572 638 L 571 637 L 571 635 L 570 634 L 570 632 L 569 631 L 569 630 L 561 622 L 560 622 L 552 614 L 552 613 L 550 611 L 550 610 L 549 609 L 544 609 L 542 611 "></path>
        <path fill="none" stroke="#00fafa" stroke-width="3" d="M 486 701 L 485 702 L 476 702 L 475 703 L 470 703 L 469 704 L 464 704 L 463 705 L 457 705 L 456 706 L 443 706 L 442 707 L 429 707 L 428 708 L 427 708 L 427 709 L 426 710 L 426 711 L 427 712 L 427 713 L 428 714 L 435 714 L 436 713 L 451 713 L 452 712 L 461 712 L 462 711 L 467 711 L 468 710 L 473 710 L 474 709 L 482 709 L 483 708 L 494 708 L 495 707 L 495 706 L 496 705 L 496 703 L 494 701 L 486 701 L 485 702 "></path>
        <path fill="none" stroke="#00fafa" stroke-width="3" d="M 210 420 L 209 421 L 208 421 L 207 422 L 207 426 L 208 427 L 208 428 L 209 429 L 209 430 L 210 431 L 210 432 L 211 433 L 211 434 L 212 435 L 212 436 L 213 437 L 213 438 L 214 439 L 214 440 L 215 441 L 215 442 L 216 443 L 216 444 L 218 446 L 218 447 L 219 448 L 219 449 L 221 451 L 221 452 L 223 454 L 223 455 L 227 459 L 227 460 L 234 467 L 234 468 L 239 473 L 243 473 L 244 472 L 244 471 L 245 470 L 245 469 L 244 468 L 244 467 L 231 454 L 231 453 L 228 450 L 228 449 L 226 447 L 226 446 L 224 444 L 224 443 L 223 442 L 223 441 L 221 439 L 221 438 L 220 437 L 220 436 L 219 435 L 219 434 L 218 433 L 218 432 L 217 431 L 217 430 L 216 429 L 216 427 L 215 426 L 215 424 L 214 423 L 214 422 L 213 421 L 212 421 L 211 420 L 210 420 L 209 421 "></path>
        <path fill="none" stroke="#00fafa" stroke-width="3" d="M 801 272 L 800 273 L 792 273 L 791 274 L 784 274 L 783 275 L 778 275 L 777 276 L 773 276 L 772 277 L 769 277 L 768 278 L 764 278 L 763 279 L 760 279 L 759 280 L 753 280 L 752 281 L 751 281 L 749 283 L 749 286 L 750 287 L 750 288 L 751 288 L 752 289 L 756 289 L 757 288 L 758 288 L 759 287 L 761 287 L 762 286 L 765 286 L 766 285 L 769 285 L 770 284 L 773 284 L 774 283 L 778 283 L 779 282 L 783 282 L 784 281 L 789 281 L 790 280 L 798 280 L 799 279 L 808 279 L 809 278 L 809 277 L 810 276 L 810 275 L 809 274 L 809 273 L 808 273 L 807 272 L 801 272 L 800 273 "></path>
        <path fill="none" stroke="#00fafa" stroke-width="3" d="M 367 205 L 366 206 L 365 206 L 364 207 L 364 209 L 363 210 L 364 211 L 364 214 L 365 215 L 365 216 L 366 217 L 366 218 L 367 219 L 367 220 L 368 221 L 368 222 L 369 223 L 369 224 L 370 225 L 370 226 L 373 229 L 374 229 L 376 231 L 377 231 L 378 232 L 380 232 L 381 233 L 383 233 L 384 234 L 387 234 L 388 235 L 390 235 L 391 236 L 393 236 L 394 237 L 397 237 L 398 236 L 399 236 L 401 234 L 401 229 L 399 227 L 398 227 L 397 226 L 385 226 L 384 225 L 382 225 L 381 224 L 380 224 L 375 219 L 375 218 L 374 217 L 374 216 L 373 215 L 373 212 L 372 211 L 372 208 L 370 206 L 369 206 L 368 205 L 367 205 L 366 206 "></path>
        <path fill="none" stroke="#00fafa" stroke-width="3" d="M 609 666 L 608 667 L 601 667 L 600 668 L 598 668 L 597 669 L 597 670 L 596 671 L 596 672 L 597 673 L 597 674 L 598 675 L 604 675 L 605 674 L 608 674 L 609 673 L 625 673 L 626 674 L 637 674 L 638 673 L 653 673 L 654 672 L 654 671 L 655 670 L 655 669 L 654 668 L 654 667 L 653 666 L 642 666 L 641 667 L 625 667 L 624 666 L 609 666 L 608 667 "></path>
        <path fill="none" stroke="#00fafa" stroke-width="3" d="M 283 549 L 282 550 L 277 550 L 276 551 L 263 551 L 262 552 L 234 552 L 233 553 L 233 557 L 235 559 L 243 559 L 244 558 L 273 558 L 274 557 L 287 557 L 289 555 L 289 554 L 290 553 L 289 552 L 289 551 L 288 550 L 287 550 L 286 549 L 283 549 L 282 550 "></path>
        <path fill="none" stroke="#00fafa" stroke-width="3" d="M 342 569 L 339 572 L 339 574 L 340 575 L 340 576 L 341 577 L 343 577 L 344 578 L 347 578 L 348 579 L 350 579 L 352 581 L 353 581 L 362 590 L 362 591 L 365 594 L 365 595 L 367 597 L 367 598 L 369 600 L 369 601 L 371 603 L 376 603 L 377 602 L 377 597 L 374 594 L 374 593 L 369 588 L 369 587 L 365 583 L 365 582 L 358 575 L 357 575 L 356 574 L 355 574 L 354 573 L 353 573 L 352 572 L 351 572 L 350 571 L 349 571 L 348 570 L 346 570 L 345 569 L 342 569 L 339 572 "></path>
        <path fill="none" stroke="#00fafa" stroke-width="3" d="M 352 596 L 351 597 L 350 597 L 348 599 L 347 599 L 346 600 L 345 600 L 344 601 L 342 601 L 341 602 L 310 602 L 308 604 L 308 608 L 309 609 L 310 609 L 311 610 L 314 610 L 315 609 L 342 609 L 343 608 L 345 608 L 346 607 L 348 607 L 349 606 L 350 606 L 351 605 L 353 605 L 354 604 L 355 604 L 356 603 L 357 603 L 358 602 L 358 597 L 357 596 L 352 596 L 351 597 "></path>
        <path fill="none" stroke="#00fafa" stroke-width="3" d="M 434 640 L 433 641 L 432 641 L 431 642 L 430 642 L 429 643 L 428 643 L 427 644 L 425 644 L 424 645 L 418 645 L 417 646 L 411 646 L 410 645 L 404 645 L 403 644 L 397 644 L 396 645 L 396 646 L 395 647 L 395 649 L 398 652 L 409 652 L 410 653 L 419 653 L 420 652 L 425 652 L 426 651 L 429 651 L 430 650 L 432 650 L 433 649 L 435 649 L 436 648 L 437 648 L 438 647 L 439 647 L 439 646 L 440 645 L 440 642 L 439 641 L 438 641 L 437 640 L 434 640 L 433 641 "></path>
        <path fill="none" stroke="#00fafa" stroke-width="3" d="M 783 463 L 778 468 L 778 469 L 766 481 L 765 481 L 763 483 L 762 483 L 760 485 L 760 486 L 759 487 L 759 490 L 761 492 L 762 492 L 763 493 L 764 493 L 765 492 L 766 492 L 789 469 L 789 466 L 788 465 L 788 464 L 787 463 L 783 463 L 778 468 "></path>
        <path fill="none" stroke="#fa00fa" stroke-width="3" d="M 349 210 L 346 213 L 346 214 L 345 215 L 345 216 L 343 218 L 343 219 L 340 222 L 340 223 L 329 234 L 329 239 L 331 241 L 334 241 L 335 240 L 336 240 L 337 239 L 337 238 L 339 236 L 339 235 L 343 231 L 343 230 L 347 226 L 347 225 L 353 219 L 353 218 L 355 216 L 355 212 L 354 211 L 354 210 L 349 210 L 346 213 "></path>
        <path fill="none" stroke="#fa00fa" stroke-width="3" d="M 222 355 L 221 356 L 220 356 L 219 357 L 219 361 L 220 362 L 221 362 L 222 363 L 228 363 L 229 364 L 231 364 L 237 370 L 237 371 L 238 372 L 238 376 L 239 377 L 239 379 L 241 381 L 245 381 L 246 380 L 246 379 L 247 378 L 247 376 L 246 375 L 246 373 L 245 372 L 245 371 L 244 370 L 244 369 L 243 368 L 243 367 L 242 366 L 242 365 L 240 363 L 240 362 L 239 361 L 238 361 L 236 359 L 235 359 L 234 358 L 232 358 L 231 357 L 229 357 L 228 356 L 226 356 L 225 355 L 222 355 L 221 356 "></path>
        <path fill="none" stroke="#fa00fa" stroke-width="3" d="M 357 611 L 356 612 L 355 612 L 355 613 L 354 614 L 354 616 L 356 618 L 357 618 L 358 619 L 360 619 L 361 618 L 372 618 L 373 619 L 379 619 L 380 620 L 383 620 L 384 621 L 389 621 L 391 619 L 391 616 L 388 613 L 383 613 L 382 612 L 374 612 L 373 611 L 357 611 L 356 612 "></path>
        <path fill="none" stroke="#fa00fa" stroke-width="3" d="M 557 666 L 556 667 L 554 667 L 553 668 L 553 669 L 552 670 L 552 672 L 554 674 L 563 674 L 564 673 L 573 673 L 574 674 L 580 674 L 581 675 L 586 675 L 588 673 L 588 672 L 589 671 L 588 670 L 588 669 L 587 668 L 586 668 L 585 667 L 574 667 L 573 666 L 557 666 L 556 667 "></path>
        <path fill="none" stroke="#fa00fa" stroke-width="3" d="M 583 629 L 582 630 L 580 630 L 580 631 L 579 632 L 579 636 L 580 637 L 580 638 L 581 639 L 581 640 L 582 641 L 582 642 L 583 643 L 583 645 L 584 646 L 584 647 L 585 648 L 585 650 L 586 651 L 586 652 L 587 653 L 587 654 L 588 655 L 588 657 L 589 658 L 589 659 L 591 661 L 592 661 L 593 662 L 595 662 L 597 660 L 597 655 L 595 653 L 595 652 L 593 650 L 593 649 L 592 648 L 592 647 L 591 646 L 591 644 L 590 643 L 590 641 L 589 640 L 589 638 L 588 637 L 588 634 L 587 633 L 587 632 L 585 630 L 584 630 L 583 629 L 582 630 "></path>
        <path fill="none" stroke="#fa00fa" stroke-width="3" d="M 709 714 L 708 715 L 706 715 L 705 716 L 702 716 L 701 717 L 697 717 L 696 718 L 693 718 L 692 719 L 689 719 L 688 720 L 684 720 L 683 721 L 678 721 L 676 723 L 676 727 L 677 727 L 678 728 L 682 728 L 683 727 L 685 727 L 686 726 L 689 726 L 690 725 L 693 725 L 694 724 L 698 724 L 699 723 L 702 723 L 703 722 L 707 722 L 708 721 L 712 721 L 713 720 L 714 720 L 715 719 L 715 716 L 713 714 L 709 714 L 708 715 "></path>
        <path fill="none" stroke="#fa00fa" stroke-width="3" d="M 293 210 L 292 211 L 291 211 L 290 212 L 288 212 L 287 213 L 285 213 L 284 214 L 283 214 L 282 215 L 281 215 L 280 216 L 279 216 L 278 217 L 277 217 L 276 218 L 275 218 L 274 219 L 273 219 L 269 223 L 269 225 L 271 227 L 272 227 L 273 228 L 274 227 L 276 227 L 280 223 L 281 223 L 282 222 L 283 222 L 284 221 L 285 221 L 286 220 L 287 220 L 288 219 L 290 219 L 291 218 L 296 218 L 297 217 L 299 217 L 301 215 L 301 212 L 299 210 L 293 210 L 292 211 "></path>
        <path fill="none" stroke="#fa00fa" stroke-width="3" d="M 790 439 L 788 441 L 788 442 L 787 443 L 787 444 L 788 445 L 788 446 L 791 449 L 792 449 L 802 459 L 802 460 L 804 462 L 805 462 L 806 463 L 808 463 L 809 462 L 810 462 L 811 461 L 811 457 L 807 453 L 806 453 L 798 445 L 798 444 L 793 439 L 790 439 L 788 441 "></path>
        <path fill="none" stroke="#fa00fa" stroke-width="3" d="M 269 238 L 268 239 L 267 239 L 266 240 L 266 244 L 267 245 L 268 245 L 269 246 L 271 246 L 272 247 L 276 247 L 277 248 L 280 248 L 281 249 L 284 249 L 285 250 L 287 250 L 288 251 L 294 251 L 296 249 L 296 246 L 294 244 L 293 244 L 292 243 L 285 243 L 284 242 L 281 242 L 280 241 L 277 241 L 276 240 L 275 240 L 274 239 L 272 239 L 271 238 L 269 238 L 268 239 "></path>
        <path fill="none" stroke="#fa00fa" stroke-width="3" d="M 293 629 L 292 630 L 291 630 L 287 634 L 287 635 L 286 636 L 286 638 L 285 639 L 285 644 L 286 645 L 286 646 L 289 649 L 290 649 L 291 650 L 292 650 L 293 651 L 295 651 L 296 652 L 300 652 L 302 650 L 302 647 L 300 645 L 297 645 L 296 644 L 294 644 L 292 642 L 292 640 L 293 639 L 293 638 L 295 636 L 296 636 L 296 635 L 297 634 L 297 631 L 296 630 L 295 630 L 294 629 L 293 629 L 292 630 "></path>
        <path fill="none" stroke="#fa00fa" stroke-width="3" d="M 775 640 L 774 641 L 765 641 L 764 642 L 760 642 L 759 641 L 756 641 L 755 642 L 753 642 L 753 643 L 752 644 L 752 647 L 753 648 L 754 648 L 755 649 L 758 649 L 759 648 L 767 648 L 768 647 L 780 647 L 781 646 L 781 645 L 782 644 L 782 643 L 781 642 L 781 641 L 780 641 L 779 640 L 775 640 L 774 641 "></path>
        <path fill="none" stroke="#fa00fa" stroke-width="3" d="M 437 685 L 435 687 L 435 690 L 437 692 L 439 692 L 440 693 L 446 693 L 447 694 L 451 694 L 452 695 L 454 695 L 455 696 L 460 696 L 462 694 L 462 691 L 460 689 L 459 689 L 458 688 L 451 688 L 450 687 L 447 687 L 446 686 L 444 686 L 443 685 L 437 685 L 435 687 "></path>
        <path fill="none" stroke="#fa00fa" stroke-width="3" d="M 588 728 L 587 729 L 585 729 L 584 730 L 584 734 L 585 735 L 586 735 L 587 736 L 592 736 L 593 735 L 601 735 L 602 736 L 611 736 L 612 735 L 612 734 L 613 733 L 613 732 L 612 731 L 612 730 L 611 730 L 610 729 L 591 729 L 590 728 L 588 728 L 587 729 "></path>
        <path fill="none" stroke="#fa00fa" stroke-width="3" d="M 294 316 L 292 318 L 292 322 L 294 324 L 295 324 L 296 325 L 297 325 L 298 326 L 300 326 L 301 327 L 302 327 L 304 329 L 305 329 L 306 330 L 311 330 L 313 328 L 313 324 L 311 322 L 310 322 L 309 321 L 307 321 L 306 320 L 305 320 L 304 319 L 303 319 L 302 318 L 301 318 L 300 317 L 299 317 L 298 316 L 294 316 L 292 318 "></path>
        <path fill="none" stroke="#fa00fa" stroke-width="3" d="M 187 541 L 184 544 L 184 546 L 186 548 L 192 548 L 193 547 L 200 547 L 201 548 L 204 548 L 205 549 L 207 549 L 208 548 L 209 548 L 210 547 L 210 544 L 208 542 L 207 542 L 206 541 L 187 541 L 184 544 "></path>
        <path fill="none" stroke="#fa00fa" stroke-width="3" d="M 827 478 L 826 479 L 826 480 L 825 481 L 825 482 L 824 483 L 824 484 L 823 485 L 823 486 L 822 487 L 822 488 L 820 490 L 820 491 L 819 492 L 819 496 L 820 497 L 825 497 L 826 496 L 826 495 L 827 494 L 827 493 L 828 492 L 828 490 L 830 488 L 830 487 L 832 485 L 832 484 L 833 483 L 833 480 L 832 479 L 832 478 L 827 478 L 826 479 "></path>
        <path fill="none" stroke="#fa00fa" stroke-width="3" d="M 277 431 L 274 434 L 274 439 L 275 440 L 275 445 L 276 446 L 276 447 L 278 449 L 282 449 L 284 447 L 284 440 L 283 439 L 283 434 L 280 431 L 277 431 L 274 434 "></path>
        <path fill="none" stroke="#fa00fa" stroke-width="3" d="M 243 690 L 242 691 L 230 691 L 228 693 L 228 695 L 230 697 L 236 697 L 237 696 L 251 696 L 253 694 L 253 692 L 251 690 L 243 690 L 242 691 "></path>
        <path fill="none" stroke="#fa00fa" stroke-width="3" d="M 275 355 L 274 356 L 272 356 L 269 359 L 269 360 L 268 361 L 268 362 L 269 363 L 269 364 L 270 365 L 271 365 L 272 366 L 276 366 L 277 365 L 279 365 L 280 364 L 281 364 L 282 363 L 282 362 L 283 361 L 283 358 L 282 357 L 282 356 L 281 356 L 280 355 L 275 355 L 274 356 "></path>
        <path fill="none" stroke="#fa00fa" stroke-width="3" d="M 195 476 L 194 477 L 193 477 L 192 478 L 192 483 L 194 485 L 194 486 L 195 487 L 195 489 L 196 490 L 196 491 L 197 492 L 197 493 L 198 494 L 202 494 L 203 493 L 203 488 L 202 487 L 202 486 L 201 485 L 201 484 L 200 483 L 200 482 L 199 481 L 199 479 L 197 477 L 196 477 L 195 476 L 194 477 "></path>
        <path fill="none" stroke="#fa00fa" stroke-width="3" d="M 812 609 L 811 610 L 804 610 L 802 612 L 802 615 L 803 616 L 804 616 L 805 617 L 808 617 L 809 616 L 817 616 L 818 615 L 819 615 L 821 613 L 821 610 L 820 609 L 812 609 L 811 610 "></path>
        <path fill="none" stroke="#fa00fa" stroke-width="3" d="M 270 482 L 268 484 L 268 485 L 267 486 L 267 489 L 268 490 L 268 492 L 269 493 L 270 493 L 271 494 L 274 494 L 277 491 L 277 485 L 274 482 L 270 482 L 268 484 "></path>
        <path fill="none" stroke="#fa00fa" stroke-width="3" d="M 175 661 L 174 662 L 174 665 L 175 666 L 176 666 L 177 667 L 184 667 L 185 668 L 189 668 L 191 666 L 191 664 L 189 662 L 184 662 L 183 661 L 175 661 L 174 662 "></path>
        <path fill="none" stroke="#fa00fa" stroke-width="3" d="M 788 169 L 787 170 L 783 170 L 781 172 L 781 175 L 783 177 L 788 177 L 789 176 L 793 176 L 794 175 L 795 175 L 795 174 L 796 173 L 796 172 L 793 169 L 788 169 L 787 170 "></path>
        <path fill="none" stroke="#fa00fa" stroke-width="3" d="M 295 261 L 293 263 L 293 264 L 292 265 L 292 266 L 293 267 L 293 268 L 295 270 L 296 270 L 297 271 L 301 271 L 303 269 L 303 264 L 301 262 L 300 262 L 299 261 L 295 261 L 293 263 "></path>
        <path fill="none" stroke="#fa00fa" stroke-width="3" d="M 315 208 L 314 209 L 313 209 L 312 210 L 312 211 L 311 212 L 311 214 L 312 215 L 312 216 L 314 218 L 318 218 L 319 217 L 320 217 L 320 216 L 321 215 L 321 211 L 318 208 L 315 208 L 314 209 "></path>
        <path fill="none" stroke="#fa00fa" stroke-width="3" d="M 302 227 L 301 228 L 300 228 L 298 230 L 298 231 L 297 232 L 297 233 L 298 234 L 298 235 L 300 237 L 305 237 L 307 235 L 307 230 L 305 228 L 304 228 L 303 227 L 302 227 L 301 228 "></path>
        <path fill="none" stroke="#fa00fa" stroke-width="3" d="M 249 484 L 246 487 L 246 492 L 247 493 L 248 493 L 249 494 L 253 494 L 255 492 L 255 487 L 254 486 L 254 485 L 253 485 L 252 484 L 249 484 L 246 487 "></path>
        <path fill="none" stroke="#fa00fa" stroke-width="3" d="M 815 373 L 814 374 L 813 374 L 812 375 L 812 381 L 813 382 L 814 382 L 815 383 L 818 383 L 819 382 L 820 382 L 820 381 L 821 380 L 821 376 L 820 375 L 820 374 L 819 374 L 818 373 L 815 373 L 814 374 "></path>
        <path fill="none" stroke="#fa00fa" stroke-width="3" d="M 158 316 L 156 318 L 156 321 L 159 324 L 160 324 L 161 325 L 162 325 L 163 326 L 164 326 L 165 325 L 166 325 L 166 324 L 167 323 L 167 321 L 164 318 L 163 318 L 162 317 L 161 317 L 160 316 L 158 316 L 156 318 "></path>
        <path fill="none" stroke="#fa00fa" stroke-width="3" d="M 823 445 L 822 446 L 821 446 L 821 447 L 820 448 L 820 452 L 822 454 L 823 454 L 824 455 L 825 455 L 826 454 L 827 454 L 829 452 L 829 448 L 826 445 L 823 445 L 822 446 "></path>
        <path fill="none" stroke="#fa00fa" stroke-width="3" d="M 547 700 L 545 702 L 545 703 L 544 704 L 544 705 L 545 706 L 545 707 L 547 709 L 551 709 L 554 706 L 554 703 L 551 700 L 547 700 L 545 702 "></path>
        <path fill="none" stroke="#fa00fa" stroke-width="3" d="M 252 259 L 251 260 L 250 260 L 250 261 L 249 262 L 249 265 L 250 266 L 250 267 L 251 267 L 252 268 L 256 268 L 258 266 L 258 261 L 256 259 L 252 259 L 251 260 "></path>
        <path fill="none" stroke="#fa00fa" stroke-width="3" d="M 526 701 L 523 704 L 523 708 L 525 710 L 530 710 L 532 708 L 532 704 L 531 703 L 531 702 L 530 702 L 529 701 L 526 701 L 523 704 "></path>
        <path fill="none" stroke="#fa00fa" stroke-width="3" d="M 232 502 L 231 503 L 230 503 L 228 505 L 228 509 L 230 511 L 231 511 L 232 512 L 233 512 L 234 511 L 235 511 L 237 509 L 237 505 L 235 503 L 234 503 L 233 502 L 232 502 L 231 503 "></path>
        <path fill="none" stroke="#fa00fa" stroke-width="3" d="M 666 665 L 665 666 L 664 666 L 664 667 L 663 668 L 663 671 L 666 674 L 669 674 L 670 673 L 671 673 L 672 672 L 672 667 L 670 665 L 666 665 L 665 666 "></path>
        <path fill="none" stroke="#fa00fa" stroke-width="3" d="M 507 705 L 506 706 L 505 706 L 505 707 L 504 708 L 504 711 L 507 714 L 510 714 L 511 713 L 512 713 L 513 712 L 513 707 L 511 705 L 507 705 L 506 706 "></path>
        <path fill="none" stroke="#fa00fa" stroke-width="3" d="M 833 360 L 831 362 L 831 363 L 830 364 L 831 365 L 831 367 L 832 368 L 833 368 L 834 369 L 836 369 L 837 368 L 838 368 L 839 367 L 839 366 L 840 365 L 840 363 L 839 362 L 839 361 L 838 360 L 833 360 L 831 362 "></path>
        <path fill="none" stroke="#fa00fa" stroke-width="3" d="M 221 380 L 219 382 L 219 387 L 220 388 L 221 388 L 222 389 L 224 389 L 225 388 L 226 388 L 227 387 L 227 386 L 228 385 L 228 383 L 227 382 L 227 381 L 226 380 L 221 380 L 219 382 "></path>
        <path fill="none" stroke="#fa00fa" stroke-width="3" d="M 234 289 L 231 292 L 231 296 L 233 298 L 238 298 L 239 297 L 239 296 L 240 295 L 240 293 L 239 292 L 239 291 L 238 290 L 237 290 L 236 289 L 234 289 L 231 292 "></path>
        <path fill="none" stroke="#fa00fa" stroke-width="3" d="M 685 666 L 683 668 L 683 669 L 682 670 L 682 671 L 683 672 L 683 673 L 684 674 L 685 674 L 686 675 L 688 675 L 689 674 L 690 674 L 691 673 L 691 671 L 692 670 L 691 669 L 691 668 L 689 666 L 685 666 L 683 668 "></path>
        <path fill="none" stroke="#fa00fa" stroke-width="3" d="M 375 121 L 374 122 L 373 122 L 373 123 L 372 124 L 372 126 L 373 127 L 373 128 L 374 129 L 375 129 L 376 130 L 378 130 L 381 127 L 381 123 L 379 121 L 375 121 L 374 122 "></path>
        <path fill="none" stroke="#fa00fa" stroke-width="3" d="M 743 672 L 741 674 L 741 675 L 740 676 L 741 677 L 741 678 L 743 680 L 748 680 L 750 678 L 750 675 L 749 674 L 749 673 L 748 673 L 747 672 L 743 672 L 741 674 "></path>
        <path fill="none" stroke="#fa00fa" stroke-width="3" d="M 733 651 L 732 652 L 731 652 L 730 653 L 730 658 L 732 660 L 736 660 L 738 658 L 738 657 L 739 656 L 738 655 L 738 653 L 737 652 L 736 652 L 735 651 L 733 651 L 732 652 "></path>
        <path fill="none" stroke="#fa00fa" stroke-width="3" d="M 794 572 L 793 573 L 792 573 L 791 574 L 791 579 L 793 581 L 797 581 L 799 579 L 799 574 L 798 573 L 797 573 L 796 572 L 794 572 L 793 573 "></path>
        <path fill="none" stroke="#fa00fa" stroke-width="3" d="M 276 193 L 274 195 L 274 200 L 275 201 L 276 201 L 277 202 L 279 202 L 280 201 L 281 201 L 282 200 L 282 195 L 280 193 L 276 193 L 274 195 "></path>
        <path fill="none" stroke="#fa00fa" stroke-width="3" d="M 218 277 L 216 279 L 216 283 L 218 285 L 222 285 L 223 284 L 224 284 L 224 283 L 225 282 L 225 280 L 224 279 L 224 278 L 223 277 L 218 277 L 216 279 "></path>
        <path fill="none" stroke="#fa00fa" stroke-width="3" d="M 835 500 L 834 501 L 833 501 L 833 502 L 832 503 L 832 507 L 834 509 L 838 509 L 840 507 L 840 502 L 839 501 L 838 501 L 837 500 L 835 500 L 834 501 "></path>
        <path fill="none" stroke="#fa00fa" stroke-width="3" d="M 784 190 L 783 191 L 782 191 L 781 192 L 781 193 L 780 194 L 780 195 L 781 196 L 781 197 L 783 199 L 786 199 L 789 196 L 789 193 L 786 190 L 784 190 L 783 191 "></path>
        <path fill="none" stroke="#fa00fa" stroke-width="3" d="M 817 165 L 815 167 L 815 169 L 816 170 L 816 171 L 818 173 L 819 173 L 820 174 L 821 174 L 822 173 L 823 173 L 823 172 L 824 171 L 824 170 L 823 169 L 823 167 L 821 165 L 817 165 L 815 167 "></path>
        <path fill="none" stroke="#fa00fa" stroke-width="3" d="M 513 725 L 511 727 L 511 728 L 510 729 L 511 730 L 511 732 L 512 733 L 517 733 L 519 731 L 519 727 L 517 725 L 513 725 L 511 727 "></path>
        <path fill="none" stroke="#fa00fa" stroke-width="3" d="M 868 472 L 867 473 L 866 473 L 865 474 L 865 475 L 864 476 L 864 477 L 865 478 L 865 479 L 867 481 L 870 481 L 873 478 L 873 476 L 872 475 L 872 474 L 871 473 L 870 473 L 869 472 L 868 472 L 867 473 "></path>
        <path fill="none" stroke="#fa00fa" stroke-width="3" d="M 803 190 L 802 191 L 801 191 L 800 192 L 800 193 L 799 194 L 799 196 L 802 199 L 804 199 L 805 198 L 806 198 L 807 197 L 807 196 L 808 195 L 808 194 L 807 193 L 807 192 L 806 191 L 805 191 L 804 190 L 803 190 L 802 191 "></path>
        <path fill="none" stroke="#fa00fa" stroke-width="3" d="M 506 745 L 503 748 L 503 751 L 506 754 L 508 754 L 509 753 L 510 753 L 511 752 L 511 747 L 510 746 L 509 746 L 508 745 L 506 745 L 503 748 "></path>
        <path fill="none" stroke="#fa00fa" stroke-width="3" d="M 476 742 L 474 744 L 474 747 L 475 748 L 475 749 L 476 750 L 480 750 L 482 748 L 482 747 L 483 746 L 482 745 L 482 743 L 481 743 L 480 742 L 476 742 L 474 744 "></path>
        <path fill="none" stroke="#fa00fa" stroke-width="3" d="M 567 751 L 566 752 L 566 753 L 565 754 L 565 756 L 568 759 L 571 759 L 573 757 L 573 756 L 574 755 L 574 754 L 573 753 L 573 752 L 572 751 L 567 751 L 566 752 "></path>
        <path fill="none" stroke="#fa00fa" stroke-width="3" d="M 540 755 L 537 758 L 537 760 L 538 761 L 538 762 L 539 763 L 544 763 L 545 762 L 545 761 L 546 760 L 546 759 L 545 758 L 545 757 L 543 755 L 540 755 L 537 758 "></path>
        <path fill="none" stroke="#fa00fa" stroke-width="3" d="M 183 348 L 181 350 L 181 354 L 183 356 L 187 356 L 189 354 L 189 350 L 187 348 L 183 348 L 181 350 "></path>
        <path fill="none" stroke="#fa00fa" stroke-width="3" d="M 814 213 L 812 215 L 812 219 L 814 221 L 818 221 L 820 219 L 820 215 L 818 213 L 814 213 L 812 215 "></path>
        <path fill="none" stroke="#fa00fa" stroke-width="3" d="M 684 701 L 683 702 L 682 702 L 681 703 L 681 708 L 682 709 L 687 709 L 689 707 L 689 704 L 688 703 L 688 702 L 687 702 L 686 701 L 684 701 L 683 702 "></path>
        <path fill="none" stroke="#fa00fa" stroke-width="3" d="M 853 275 L 852 276 L 852 281 L 853 282 L 854 282 L 855 283 L 857 283 L 860 280 L 860 277 L 858 275 L 853 275 L 852 276 "></path>
        <path fill="none" stroke="#fa00fa" stroke-width="3" d="M 832 576 L 830 578 L 830 582 L 832 584 L 836 584 L 838 582 L 838 579 L 837 578 L 837 577 L 836 577 L 835 576 L 832 576 L 830 578 "></path>
        <path fill="none" stroke="#fa00fa" stroke-width="3" d="M 215 228 L 214 229 L 213 229 L 213 230 L 212 231 L 212 234 L 214 236 L 218 236 L 220 234 L 220 230 L 218 228 L 215 228 L 214 229 "></path>
        <path fill="none" stroke="#fa00fa" stroke-width="3" d="M 171 468 L 170 469 L 170 470 L 169 471 L 169 472 L 170 473 L 170 474 L 171 475 L 172 475 L 173 476 L 175 476 L 177 474 L 177 473 L 178 472 L 178 471 L 177 470 L 177 469 L 176 468 L 171 468 L 170 469 "></path>
        <path fill="none" stroke="#fa00fa" stroke-width="3" d="M 205 262 L 203 264 L 203 268 L 204 269 L 205 269 L 206 270 L 208 270 L 209 269 L 210 269 L 210 268 L 211 267 L 211 264 L 209 262 L 205 262 L 203 264 "></path>
        <path fill="none" stroke="#fa00fa" stroke-width="3" d="M 288 128 L 287 129 L 285 129 L 284 130 L 284 135 L 285 136 L 287 136 L 288 137 L 289 136 L 290 136 L 292 134 L 292 131 L 290 129 L 289 129 L 288 128 L 287 129 "></path>
        <path fill="none" stroke="#fa00fa" stroke-width="3" d="M 238 182 L 236 184 L 236 188 L 238 190 L 242 190 L 243 189 L 243 188 L 244 187 L 244 185 L 243 184 L 243 183 L 242 183 L 241 182 L 238 182 L 236 184 "></path>
        <path fill="none" stroke="#fa00fa" stroke-width="3" d="M 173 492 L 170 495 L 170 497 L 171 498 L 171 499 L 172 500 L 176 500 L 178 498 L 178 494 L 176 492 L 173 492 L 170 495 "></path>
        <path fill="none" stroke="#fa00fa" stroke-width="3" d="M 785 659 L 783 661 L 783 664 L 786 667 L 788 667 L 789 666 L 790 666 L 791 665 L 791 661 L 789 659 L 785 659 L 783 661 "></path>
        <path fill="none" stroke="#fa00fa" stroke-width="3" d="M 817 627 L 815 629 L 815 633 L 817 635 L 820 635 L 821 634 L 822 634 L 822 633 L 823 632 L 823 630 L 822 629 L 822 628 L 821 628 L 820 627 L 817 627 L 815 629 "></path>
        <path fill="none" stroke="#fa00fa" stroke-width="3" d="M 171 414 L 169 416 L 169 420 L 171 422 L 174 422 L 177 419 L 177 417 L 176 416 L 176 415 L 175 415 L 174 414 L 171 414 L 169 416 "></path>
        <path fill="none" stroke="#fa00fa" stroke-width="3" d="M 269 666 L 268 667 L 268 668 L 267 669 L 267 670 L 268 671 L 268 672 L 269 673 L 270 673 L 271 674 L 272 674 L 273 673 L 274 673 L 275 672 L 275 667 L 274 666 L 269 666 L 268 667 "></path>
        <path fill="none" stroke="#fa00fa" stroke-width="3" d="M 879 278 L 878 279 L 877 279 L 876 280 L 876 284 L 878 286 L 881 286 L 882 285 L 883 285 L 883 284 L 884 283 L 884 281 L 883 280 L 883 279 L 882 279 L 881 278 L 879 278 L 878 279 "></path>
        <path fill="none" stroke="#fa00fa" stroke-width="3" d="M 864 257 L 862 259 L 862 263 L 863 264 L 864 264 L 865 265 L 866 265 L 867 264 L 868 264 L 870 262 L 870 260 L 869 259 L 869 258 L 868 257 L 864 257 L 862 259 "></path>
        <path fill="none" stroke="#fa00fa" stroke-width="3" d="M 168 433 L 167 434 L 166 434 L 164 436 L 164 439 L 166 441 L 167 441 L 168 442 L 169 441 L 170 441 L 172 439 L 172 436 L 170 434 L 169 434 L 168 433 L 167 434 "></path>
        <path fill="none" stroke="#fa00fa" stroke-width="3" d="M 147 371 L 146 372 L 146 373 L 145 374 L 145 376 L 147 378 L 148 378 L 149 379 L 150 379 L 151 378 L 152 378 L 152 377 L 153 376 L 153 373 L 151 371 L 147 371 L 146 372 "></path>
        <path fill="none" stroke="#fa00fa" stroke-width="3" d="M 895 406 L 893 408 L 893 412 L 894 413 L 895 413 L 896 414 L 897 414 L 898 413 L 899 413 L 900 412 L 900 411 L 901 410 L 901 409 L 900 408 L 900 407 L 899 406 L 895 406 L 893 408 "></path>
        <path fill="none" stroke="#fa00fa" stroke-width="3" d="M 155 409 L 153 411 L 153 415 L 154 416 L 155 416 L 156 417 L 158 417 L 160 415 L 160 414 L 161 413 L 161 412 L 160 411 L 160 410 L 159 410 L 158 409 L 155 409 L 153 411 "></path>
        <path fill="none" stroke="#fa00fa" stroke-width="3" d="M 787 687 L 786 688 L 785 688 L 784 689 L 784 692 L 785 693 L 785 694 L 786 694 L 787 695 L 789 695 L 790 694 L 791 694 L 791 693 L 792 692 L 792 690 L 791 689 L 791 688 L 790 688 L 789 687 L 787 687 L 786 688 "></path>
        <path fill="none" stroke="#fa00fa" stroke-width="3" d="M 185 256 L 184 257 L 184 258 L 183 259 L 183 260 L 184 261 L 184 262 L 185 263 L 190 263 L 191 262 L 191 257 L 190 256 L 185 256 L 184 257 "></path>
        <path fill="none" stroke="#fa00fa" stroke-width="3" d="M 812 676 L 810 678 L 810 681 L 812 683 L 816 683 L 818 681 L 818 678 L 816 676 L 812 676 L 810 678 "></path>
        <path fill="none" stroke="#fa00fa" stroke-width="3" d="M 169 273 L 168 274 L 167 274 L 167 276 L 166 277 L 167 278 L 167 279 L 168 280 L 169 280 L 170 281 L 171 281 L 172 280 L 173 280 L 174 279 L 174 275 L 172 273 L 169 273 L 168 274 "></path>
        <path fill="none" stroke="#fa00fa" stroke-width="3" d="M 834 642 L 832 644 L 832 647 L 833 648 L 833 649 L 835 649 L 836 650 L 837 649 L 838 649 L 839 648 L 839 647 L 840 646 L 840 645 L 839 644 L 839 643 L 838 643 L 837 642 L 834 642 L 832 644 "></path>
        <path fill="none" stroke="#fa00fa" stroke-width="3" d="M 292 724 L 290 726 L 290 729 L 292 731 L 296 731 L 297 730 L 297 729 L 298 728 L 298 727 L 297 726 L 297 725 L 296 724 L 292 724 L 290 726 "></path>
        <path fill="none" stroke="#fa00fa" stroke-width="3" d="M 150 516 L 149 517 L 148 517 L 147 518 L 147 522 L 149 524 L 152 524 L 154 522 L 154 518 L 153 517 L 152 517 L 151 516 L 150 516 L 149 517 "></path>
        <path fill="none" stroke="#fa00fa" stroke-width="3" d="M 137 502 L 135 504 L 135 507 L 137 509 L 141 509 L 142 508 L 142 507 L 143 506 L 143 505 L 142 504 L 142 503 L 141 502 L 137 502 L 135 504 "></path>
        <path fill="none" stroke="#fa00fa" stroke-width="3" d="M 890 593 L 889 594 L 889 595 L 888 596 L 888 597 L 889 598 L 889 599 L 890 600 L 894 600 L 896 598 L 896 596 L 895 595 L 895 594 L 894 593 L 890 593 L 889 594 "></path>
        <path fill="none" stroke="#fa00fa" stroke-width="3" d="M 127 444 L 125 446 L 125 448 L 126 449 L 126 450 L 127 451 L 131 451 L 132 450 L 132 449 L 133 448 L 133 447 L 132 446 L 132 445 L 131 444 L 127 444 L 125 446 "></path>
        <path fill="none" stroke="#fa00fa" stroke-width="3" d="M 129 378 L 126 381 L 126 383 L 127 384 L 127 385 L 128 385 L 129 386 L 131 386 L 132 385 L 133 385 L 133 384 L 134 383 L 134 382 L 133 381 L 133 380 L 132 379 L 131 379 L 130 378 L 129 378 L 126 381 "></path>
        <path fill="none" stroke="#fa00fa" stroke-width="3" d="M 143 468 L 141 470 L 141 474 L 142 475 L 147 475 L 148 474 L 148 469 L 147 469 L 146 468 L 143 468 L 141 470 "></path>
        <path fill="none" stroke="#fa00fa" stroke-width="3" d="M 121 463 L 120 464 L 119 464 L 119 465 L 118 466 L 118 467 L 119 468 L 119 469 L 120 470 L 121 470 L 122 471 L 123 470 L 124 470 L 126 468 L 126 466 L 125 465 L 125 464 L 124 464 L 123 463 L 121 463 L 120 464 "></path>
        <path fill="none" stroke="#fa00fa" stroke-width="3" d="M 932 493 L 931 494 L 930 494 L 929 495 L 929 499 L 930 500 L 931 500 L 932 501 L 933 501 L 934 500 L 935 500 L 936 499 L 936 495 L 935 494 L 934 494 L 933 493 L 932 493 L 931 494 "></path>
        <path fill="none" stroke="#fa00fa" stroke-width="3" d="M 208 666 L 207 667 L 206 667 L 205 668 L 205 672 L 206 673 L 207 673 L 208 674 L 209 674 L 210 673 L 211 673 L 212 672 L 212 668 L 211 667 L 210 667 L 209 666 L 208 666 L 207 667 "></path>
        <path fill="none" stroke="#fa00fa" stroke-width="3" d="M 839 661 L 838 662 L 837 662 L 836 663 L 836 666 L 837 667 L 837 668 L 838 668 L 839 669 L 840 669 L 841 668 L 842 668 L 843 667 L 843 663 L 841 661 L 839 661 L 838 662 "></path>
        <path fill="none" stroke="#fa00fa" stroke-width="3" d="M 256 707 L 255 708 L 254 708 L 253 709 L 253 713 L 254 714 L 255 714 L 256 715 L 257 715 L 258 714 L 259 714 L 260 713 L 260 709 L 259 708 L 258 708 L 257 707 L 256 707 L 255 708 "></path>
        <path fill="none" stroke="#fa00fa" stroke-width="3" d="M 214 142 L 213 143 L 213 144 L 212 145 L 212 146 L 213 147 L 213 148 L 214 149 L 218 149 L 219 148 L 219 147 L 220 146 L 220 145 L 219 144 L 219 143 L 218 142 L 214 142 L 213 143 "></path>
        <path fill="none" stroke="#fa00fa" stroke-width="3" d="M 776 709 L 774 711 L 774 715 L 775 716 L 780 716 L 781 715 L 781 711 L 779 709 L 776 709 L 774 711 "></path>
        <path fill="none" stroke="#fa00fa" stroke-width="3" d="M 898 564 L 898 565 L 897 566 L 897 569 L 899 571 L 902 571 L 904 569 L 904 565 L 903 564 L 898 564 L 898 565 "></path>
        <path fill="none" stroke="#fa00fa" stroke-width="3" d="M 208 161 L 206 163 L 206 166 L 207 167 L 207 168 L 212 168 L 213 167 L 213 163 L 211 161 L 208 161 L 206 163 "></path>
        <path fill="none" stroke="#fa00fa" stroke-width="3" d="M 813 699 L 812 700 L 811 700 L 810 701 L 810 702 L 809 703 L 810 704 L 810 705 L 812 707 L 814 707 L 815 706 L 816 706 L 816 705 L 817 704 L 817 702 L 815 700 L 814 700 L 813 699 L 812 700 "></path>
        <path fill="none" stroke="#fa00fa" stroke-width="3" d="M 234 114 L 233 115 L 233 119 L 235 121 L 238 121 L 240 119 L 240 116 L 238 114 L 234 114 L 233 115 "></path>
        <path fill="none" stroke="#fa00fa" stroke-width="3" d="M 852 143 L 850 145 L 850 148 L 852 150 L 855 150 L 857 148 L 857 144 L 856 143 L 852 143 L 850 145 "></path>
        <path fill="none" stroke="#fa00fa" stroke-width="3" d="M 939 475 L 938 476 L 937 476 L 936 477 L 936 481 L 937 482 L 938 482 L 939 483 L 940 483 L 941 482 L 942 482 L 942 481 L 943 480 L 943 478 L 942 477 L 942 476 L 941 476 L 940 475 L 939 475 L 938 476 "></path>
        <path fill="none" stroke="#fa00fa" stroke-width="3" d="M 852 681 L 851 682 L 850 682 L 850 683 L 849 684 L 849 685 L 850 686 L 850 687 L 851 688 L 855 688 L 856 687 L 856 686 L 857 685 L 857 684 L 856 683 L 856 682 L 855 682 L 854 681 L 852 681 L 851 682 "></path>
        <path fill="none" stroke="#fa00fa" stroke-width="3" d="M 908 234 L 906 236 L 906 239 L 908 241 L 911 241 L 913 239 L 913 236 L 911 234 L 908 234 L 906 236 "></path>
        <path fill="none" stroke="#fa00fa" stroke-width="3" d="M 845 123 L 844 124 L 843 124 L 842 125 L 842 129 L 843 130 L 844 130 L 845 131 L 846 131 L 849 128 L 849 126 L 846 123 L 845 123 L 844 124 "></path>
        <path fill="none" stroke="#fa00fa" stroke-width="3" d="M 107 450 L 106 451 L 105 451 L 105 452 L 104 453 L 104 454 L 105 455 L 105 456 L 106 457 L 110 457 L 111 456 L 111 455 L 112 454 L 111 453 L 111 452 L 109 450 L 107 450 L 106 451 "></path>
        <path fill="none" stroke="#fa00fa" stroke-width="3" d="M 229 709 L 228 710 L 228 711 L 227 712 L 227 713 L 230 716 L 232 716 L 234 714 L 234 713 L 235 712 L 234 711 L 234 710 L 233 709 L 229 709 L 228 710 "></path>
        <path fill="none" stroke="#fa00fa" stroke-width="3" d="M 212 109 L 211 110 L 210 110 L 209 111 L 209 115 L 210 116 L 214 116 L 216 114 L 216 112 L 215 111 L 215 110 L 214 110 L 213 109 L 212 109 L 211 110 "></path>
        <path fill="none" stroke="#fa00fa" stroke-width="3" d="M 139 627 L 137 629 L 137 632 L 139 634 L 142 634 L 144 632 L 144 630 L 143 629 L 143 628 L 142 628 L 141 627 L 139 627 L 137 629 "></path>
        <path fill="none" stroke="#fa00fa" stroke-width="3" d="M 856 107 L 855 108 L 854 108 L 854 112 L 856 114 L 858 114 L 859 113 L 860 113 L 860 112 L 861 111 L 861 110 L 860 109 L 860 108 L 859 107 L 856 107 L 855 108 "></path>
        <path fill="none" stroke="#fa00fa" stroke-width="3" d="M 867 702 L 865 704 L 865 707 L 867 709 L 869 709 L 870 708 L 871 708 L 871 707 L 872 706 L 872 705 L 871 704 L 871 703 L 870 702 L 867 702 L 865 704 "></path>
        <path fill="none" stroke="#fa00fa" stroke-width="3" d="M 118 660 L 115 663 L 115 664 L 116 665 L 116 666 L 117 667 L 120 667 L 122 665 L 122 662 L 121 661 L 120 661 L 119 660 L 118 660 L 115 663 "></path>
        <path fill="none" stroke="#fa00fa" stroke-width="3" d="M 167 705 L 166 706 L 166 710 L 167 711 L 171 711 L 172 710 L 172 706 L 171 705 L 167 705 L 166 706 "></path>
    </g>
</svg>
