<svg xmlns="http://www.w3.org/2000/svg" xmlns:xlink="http://www.w3.org/1999/xlink" version="1.1" x="0" y="0" width="1056px" height="816px">
    <g id="rootLayer" transform="translate(0.000000, 0.000000)">
        <path fill="none" stroke="#00fafa" stroke-width="3" d="M 325 168 L 326 167 L 332 167 L 333 168 L 335 168 L 338 171 L 338 172 L 339 173 L 339 174 L 340 175 L 340 176 L 341 177 L 341 178 L 342 179 L 342 180 L 343 181 L 343 182 L 345 184 L 345 185 L 347 187 L 347 188 L 349 190 L 349 191 L 354 196 L 354 197 L 357 200 L 358 200 L 361 203 L 362 203 L 367 208 L 367 228 L 368 229 L 368 233 L 369 234 L 369 236 L 370 237 L 370 243 L 366 247 L 361 247 L 360 246 L 359 246 L 357 244 L 356 244 L 350 238 L 349 238 L 347 236 L 343 236 L 342 237 L 341 237 L 341 238 L 340 239 L 340 241 L 341 242 L 341 243 L 343 245 L 344 245 L 345 246 L 346 246 L 347 247 L 348 247 L 350 249 L 351 249 L 355 253 L 355 256 L 354 257 L 354 258 L 352 260 L 351 260 L 350 261 L 345 261 L 344 260 L 339 260 L 338 259 L 337 260 L 327 260 L 326 259 L 325 259 L 323 257 L 322 257 L 321 256 L 320 256 L 319 255 L 317 255 L 316 254 L 310 254 L 309 255 L 307 255 L 306 256 L 304 256 L 302 258 L 301 258 L 297 262 L 296 262 L 295 263 L 291 263 L 290 262 L 289 262 L 287 260 L 287 259 L 286 258 L 286 257 L 285 256 L 285 255 L 284 254 L 284 253 L 279 248 L 278 248 L 274 244 L 274 242 L 273 241 L 273 238 L 274 237 L 274 233 L 275 232 L 275 230 L 276 229 L 276 228 L 280 224 L 287 224 L 288 225 L 305 225 L 306 224 L 308 224 L 309 225 L 311 225 L 314 228 L 315 228 L 316 229 L 318 229 L 319 230 L 323 230 L 324 229 L 326 229 L 327 228 L 328 228 L 331 225 L 331 224 L 332 223 L 332 222 L 333 221 L 333 215 L 332 214 L 332 212 L 326 206 L 326 205 L 325 204 L 325 200 L 324 199 L 324 192 L 323 191 L 323 189 L 322 188 L 322 187 L 321 186 L 321 185 L 319 183 L 319 182 L 317 180 L 316 180 L 314 178 L 314 177 L 313 176 L 313 175 L 312 174 L 312 173 L 313 172 L 313 171 L 314 170 L 315 170 L 316 169 L 317 169 L 318 168 L 325 168 L 326 167 "></path>
        <path fill="none" stroke="#00fafa" stroke-width="3" d="M 557 153 L 558 152 L 562 152 L 563 153 L 565 153 L 570 158 L 570 160 L 571 161 L 571 163 L 572 164 L 572 165 L 573 166 L 573 167 L 576 170 L 577 170 L 578 171 L 579 171 L 580 172 L 589 172 L 590 171 L 593 171 L 594 170 L 596 170 L 597 171 L 599 171 L 601 173 L 602 173 L 603 174 L 605 174 L 606 175 L 608 175 L 609 176 L 611 176 L 612 177 L 615 177 L 616 178 L 617 178 L 621 182 L 621 183 L 622 184 L 622 185 L 623 186 L 623 187 L 627 191 L 628 191 L 629 192 L 638 192 L 639 191 L 640 191 L 644 187 L 644 186 L 645 185 L 645 184 L 649 180 L 651 180 L 652 179 L 653 180 L 655 180 L 658 183 L 658 184 L 659 185 L 659 186 L 660 187 L 660 188 L 661 189 L 661 195 L 660 196 L 660 197 L 656 201 L 655 201 L 651 205 L 650 205 L 648 207 L 647 207 L 643 211 L 642 211 L 640 213 L 639 213 L 638 214 L 634 214 L 633 213 L 632 213 L 631 212 L 630 212 L 629 211 L 628 211 L 625 208 L 624 208 L 622 206 L 621 206 L 615 200 L 615 199 L 614 198 L 614 188 L 613 187 L 613 186 L 612 185 L 611 185 L 610 184 L 609 184 L 608 185 L 607 185 L 605 187 L 605 196 L 604 197 L 604 198 L 602 200 L 600 200 L 599 201 L 592 201 L 591 202 L 588 202 L 587 203 L 586 203 L 585 204 L 584 204 L 580 208 L 580 209 L 578 211 L 578 212 L 576 214 L 576 215 L 574 217 L 573 217 L 572 218 L 568 218 L 565 215 L 565 210 L 566 209 L 566 208 L 567 207 L 567 206 L 575 198 L 576 198 L 578 196 L 579 196 L 581 194 L 582 194 L 584 192 L 585 192 L 586 191 L 587 191 L 590 188 L 590 185 L 589 184 L 589 183 L 588 182 L 582 182 L 576 188 L 575 188 L 572 191 L 571 191 L 569 193 L 564 193 L 563 192 L 562 192 L 559 189 L 559 188 L 555 184 L 554 184 L 553 183 L 551 183 L 550 182 L 548 182 L 547 181 L 546 181 L 545 180 L 544 180 L 542 178 L 542 177 L 541 176 L 541 174 L 540 173 L 540 164 L 541 163 L 541 161 L 545 157 L 547 157 L 548 156 L 551 156 L 552 155 L 553 155 L 554 154 L 555 154 L 556 153 L 557 153 L 558 152 "></path>
        <path fill="none" stroke="#00fafa" stroke-width="3" d="M 667 201 L 668 200 L 674 200 L 675 201 L 676 201 L 678 203 L 678 204 L 679 205 L 679 206 L 680 207 L 680 208 L 681 209 L 681 210 L 687 216 L 688 216 L 689 217 L 690 217 L 691 218 L 693 218 L 694 219 L 695 219 L 696 220 L 697 220 L 700 223 L 700 224 L 701 225 L 701 226 L 702 227 L 702 228 L 704 230 L 704 231 L 707 234 L 708 234 L 709 235 L 710 235 L 711 236 L 712 236 L 713 237 L 714 237 L 715 238 L 716 238 L 720 242 L 720 244 L 721 245 L 721 248 L 722 249 L 722 251 L 723 252 L 723 255 L 724 256 L 724 258 L 725 259 L 725 261 L 726 262 L 726 263 L 727 264 L 727 266 L 728 267 L 728 269 L 727 270 L 727 272 L 726 273 L 726 274 L 725 275 L 725 276 L 724 277 L 724 278 L 723 279 L 723 280 L 722 281 L 722 282 L 721 283 L 721 284 L 720 285 L 720 286 L 718 288 L 718 289 L 715 292 L 714 292 L 713 293 L 712 293 L 711 292 L 710 292 L 707 289 L 707 287 L 706 286 L 706 285 L 705 284 L 705 283 L 704 282 L 704 281 L 699 276 L 699 275 L 698 274 L 698 269 L 702 265 L 703 265 L 704 264 L 705 264 L 706 263 L 708 263 L 709 262 L 710 262 L 711 261 L 713 261 L 715 259 L 715 258 L 716 257 L 716 255 L 715 254 L 715 253 L 714 253 L 713 252 L 709 252 L 708 253 L 707 253 L 705 255 L 704 255 L 702 257 L 701 257 L 700 258 L 699 258 L 698 259 L 691 259 L 689 257 L 688 257 L 687 256 L 687 255 L 685 253 L 685 252 L 684 251 L 684 241 L 685 240 L 685 239 L 686 238 L 686 237 L 687 236 L 687 235 L 688 234 L 688 230 L 686 228 L 685 228 L 684 227 L 682 227 L 681 228 L 680 228 L 679 229 L 678 229 L 676 231 L 675 231 L 673 233 L 670 233 L 669 234 L 664 234 L 663 233 L 660 233 L 659 232 L 656 232 L 655 231 L 654 231 L 653 230 L 652 230 L 651 229 L 650 229 L 645 224 L 645 220 L 651 214 L 652 214 L 655 211 L 656 211 L 660 207 L 661 207 L 662 206 L 662 205 L 666 201 L 667 201 L 668 200 "></path>
        <path fill="none" stroke="#00fafa" stroke-width="3" d="M 400 176 L 401 175 L 417 175 L 419 177 L 420 177 L 422 179 L 423 179 L 424 180 L 426 180 L 427 181 L 433 181 L 434 182 L 436 182 L 437 183 L 438 183 L 440 185 L 440 186 L 441 187 L 441 188 L 443 190 L 443 192 L 444 193 L 444 194 L 445 195 L 445 201 L 441 205 L 440 205 L 439 206 L 438 206 L 437 207 L 436 207 L 435 208 L 434 208 L 431 211 L 430 211 L 428 213 L 427 213 L 426 214 L 421 214 L 416 209 L 416 208 L 415 207 L 415 206 L 414 205 L 414 204 L 412 202 L 412 201 L 411 200 L 411 199 L 410 198 L 410 197 L 409 196 L 409 195 L 408 194 L 408 193 L 407 192 L 407 190 L 406 189 L 406 188 L 404 186 L 399 186 L 399 187 L 398 188 L 398 193 L 400 195 L 400 196 L 401 197 L 401 198 L 403 200 L 403 201 L 404 202 L 404 203 L 405 204 L 405 205 L 406 206 L 406 207 L 407 208 L 407 209 L 409 211 L 409 212 L 410 213 L 410 214 L 411 215 L 411 216 L 412 217 L 412 221 L 408 225 L 407 225 L 406 226 L 404 226 L 403 227 L 400 227 L 399 228 L 397 228 L 396 229 L 395 229 L 393 231 L 392 231 L 386 237 L 385 237 L 384 238 L 380 238 L 377 235 L 377 234 L 376 233 L 376 230 L 375 229 L 375 220 L 374 219 L 374 213 L 375 212 L 375 208 L 384 199 L 384 198 L 385 197 L 385 196 L 386 195 L 386 191 L 387 190 L 387 186 L 392 181 L 393 181 L 396 178 L 397 178 L 399 176 L 400 176 L 401 175 "></path>
        <path fill="none" stroke="#00fafa" stroke-width="3" d="M 360 264 L 361 263 L 363 263 L 364 264 L 365 264 L 368 267 L 368 269 L 369 270 L 369 273 L 368 274 L 368 275 L 367 276 L 367 277 L 361 283 L 361 284 L 359 286 L 359 287 L 358 288 L 358 290 L 357 291 L 357 294 L 356 295 L 356 297 L 355 298 L 355 299 L 352 302 L 351 302 L 350 303 L 348 303 L 347 304 L 343 304 L 342 305 L 340 305 L 339 306 L 338 306 L 337 307 L 336 307 L 334 309 L 334 310 L 333 311 L 333 312 L 332 313 L 332 318 L 331 319 L 331 322 L 330 323 L 330 324 L 329 325 L 329 326 L 328 327 L 328 328 L 325 331 L 325 332 L 323 334 L 323 336 L 322 337 L 322 341 L 321 342 L 321 343 L 322 344 L 322 351 L 323 352 L 323 360 L 322 361 L 322 362 L 321 363 L 321 364 L 320 365 L 319 365 L 318 366 L 314 366 L 310 362 L 310 361 L 309 360 L 309 359 L 308 358 L 308 356 L 307 355 L 307 352 L 306 351 L 306 349 L 305 348 L 305 340 L 306 339 L 306 338 L 307 337 L 307 335 L 308 334 L 308 332 L 309 331 L 309 330 L 316 323 L 316 322 L 318 320 L 318 318 L 319 317 L 319 311 L 318 310 L 318 307 L 317 306 L 317 304 L 316 303 L 316 301 L 315 300 L 315 298 L 314 297 L 314 291 L 324 281 L 324 280 L 326 278 L 326 276 L 327 275 L 327 274 L 328 273 L 328 272 L 329 271 L 329 270 L 330 269 L 331 269 L 332 268 L 333 268 L 334 267 L 341 267 L 342 268 L 343 268 L 345 270 L 345 271 L 346 272 L 346 274 L 345 275 L 345 277 L 344 278 L 344 279 L 342 281 L 342 282 L 339 285 L 338 285 L 335 288 L 334 288 L 333 289 L 332 289 L 331 290 L 330 290 L 329 291 L 328 291 L 325 294 L 325 298 L 326 299 L 326 300 L 328 300 L 329 301 L 330 301 L 331 300 L 332 300 L 333 299 L 334 299 L 338 295 L 339 295 L 341 293 L 342 293 L 349 286 L 349 285 L 351 283 L 351 282 L 352 281 L 352 279 L 353 278 L 353 272 L 354 271 L 354 269 L 355 268 L 355 267 L 357 265 L 358 265 L 359 264 L 360 264 L 361 263 "></path>
        <path fill="none" stroke="#00fafa" stroke-width="3" d="M 737 272 L 742 272 L 745 275 L 745 276 L 746 277 L 746 278 L 747 279 L 747 282 L 748 283 L 748 286 L 749 287 L 749 290 L 750 291 L 750 292 L 751 293 L 751 294 L 752 295 L 752 296 L 760 304 L 760 306 L 761 307 L 761 313 L 762 314 L 762 316 L 763 317 L 763 320 L 764 321 L 764 323 L 763 324 L 763 326 L 762 327 L 762 328 L 761 329 L 761 333 L 760 334 L 760 338 L 754 344 L 753 344 L 752 345 L 751 345 L 750 346 L 748 346 L 747 345 L 744 345 L 743 344 L 742 344 L 740 342 L 740 341 L 739 340 L 739 336 L 740 335 L 740 334 L 742 332 L 742 331 L 744 329 L 744 328 L 745 327 L 745 322 L 744 321 L 744 320 L 741 317 L 740 317 L 739 316 L 738 316 L 737 315 L 736 315 L 735 314 L 734 314 L 733 313 L 732 313 L 731 312 L 730 312 L 729 311 L 728 311 L 727 310 L 726 310 L 725 309 L 724 309 L 721 306 L 721 305 L 720 304 L 720 299 L 721 298 L 721 297 L 725 293 L 725 292 L 727 290 L 727 289 L 728 288 L 728 287 L 729 286 L 729 285 L 730 284 L 730 282 L 731 281 L 731 280 L 732 279 L 732 278 L 733 277 L 733 276 L 737 272 L 742 272 "></path>
        <path fill="none" stroke="#00fafa" stroke-width="3" d="M 709 165 L 710 164 L 719 164 L 720 165 L 724 165 L 725 166 L 727 166 L 728 167 L 730 167 L 731 168 L 732 168 L 733 169 L 734 169 L 735 170 L 736 170 L 745 179 L 745 180 L 746 181 L 746 182 L 747 183 L 747 187 L 748 188 L 748 189 L 747 190 L 747 194 L 746 195 L 746 196 L 745 197 L 745 198 L 742 201 L 742 202 L 740 204 L 739 204 L 736 207 L 732 207 L 731 206 L 730 206 L 729 205 L 727 205 L 726 204 L 725 204 L 724 203 L 722 203 L 721 202 L 720 202 L 718 200 L 718 199 L 717 198 L 717 192 L 722 187 L 723 187 L 724 186 L 725 186 L 727 184 L 728 184 L 728 183 L 729 182 L 729 179 L 727 177 L 724 177 L 723 178 L 722 178 L 717 183 L 716 183 L 714 185 L 708 185 L 707 184 L 705 184 L 704 183 L 702 183 L 701 182 L 699 182 L 695 178 L 695 171 L 697 169 L 698 169 L 700 167 L 702 167 L 703 166 L 704 166 L 705 165 L 709 165 L 710 164 "></path>
        <path fill="none" stroke="#00fafa" stroke-width="3" d="M 416 125 L 417 124 L 424 124 L 425 125 L 428 125 L 429 126 L 430 126 L 431 127 L 432 127 L 433 128 L 434 128 L 439 133 L 439 134 L 441 136 L 441 137 L 442 138 L 442 140 L 443 141 L 443 143 L 442 144 L 442 145 L 439 148 L 438 148 L 437 149 L 427 149 L 426 150 L 425 150 L 424 151 L 423 151 L 418 156 L 418 157 L 417 158 L 417 160 L 416 161 L 416 163 L 415 164 L 415 165 L 412 168 L 404 168 L 401 165 L 401 163 L 400 162 L 400 151 L 401 150 L 401 145 L 402 144 L 402 140 L 403 139 L 403 132 L 404 131 L 404 130 L 407 127 L 408 127 L 409 126 L 411 126 L 412 125 L 416 125 L 417 124 "></path>
        <path fill="none" stroke="#00fafa" stroke-width="3" d="M 304 183 L 305 182 L 309 182 L 314 187 L 314 188 L 316 190 L 316 192 L 317 193 L 317 196 L 318 197 L 318 203 L 317 204 L 317 205 L 311 211 L 311 212 L 309 214 L 309 215 L 307 217 L 306 217 L 305 218 L 300 218 L 299 219 L 292 219 L 291 218 L 286 218 L 285 217 L 284 217 L 282 215 L 282 207 L 283 206 L 283 204 L 284 203 L 284 202 L 285 201 L 285 200 L 287 198 L 287 197 L 291 193 L 291 192 L 295 188 L 296 188 L 299 185 L 300 185 L 301 184 L 302 184 L 303 183 L 304 183 L 305 182 "></path>
        <path fill="none" stroke="#00fafa" stroke-width="3" d="M 267 302 L 272 302 L 276 306 L 276 308 L 277 309 L 277 310 L 279 312 L 279 313 L 282 316 L 282 317 L 283 318 L 284 318 L 287 321 L 288 321 L 290 323 L 291 323 L 292 324 L 293 324 L 294 325 L 295 325 L 297 327 L 298 327 L 300 329 L 300 334 L 297 337 L 291 337 L 290 336 L 284 336 L 283 335 L 282 335 L 281 336 L 276 336 L 275 337 L 269 337 L 264 332 L 264 331 L 262 329 L 262 327 L 261 326 L 261 323 L 260 322 L 260 316 L 261 315 L 261 312 L 262 311 L 262 309 L 263 308 L 263 307 L 264 306 L 264 305 L 267 302 L 272 302 "></path>
        <path fill="none" stroke="#00fafa" stroke-width="3" d="M 657 257 L 658 256 L 662 256 L 665 259 L 665 260 L 666 261 L 665 262 L 665 263 L 661 267 L 660 267 L 659 268 L 657 268 L 656 269 L 655 269 L 654 270 L 653 270 L 652 271 L 651 271 L 649 273 L 648 273 L 645 276 L 645 278 L 644 279 L 644 280 L 645 281 L 645 282 L 648 285 L 660 285 L 661 284 L 684 284 L 685 283 L 694 283 L 698 287 L 698 288 L 699 289 L 699 293 L 696 296 L 690 296 L 689 295 L 688 295 L 687 294 L 685 294 L 684 293 L 677 293 L 676 292 L 661 292 L 660 293 L 652 293 L 651 292 L 647 292 L 646 291 L 645 291 L 644 290 L 643 290 L 638 285 L 638 283 L 637 282 L 637 276 L 638 275 L 638 274 L 639 273 L 639 272 L 648 263 L 649 263 L 653 259 L 654 259 L 656 257 L 657 257 L 658 256 "></path>
        <path fill="none" stroke="#00fafa" stroke-width="3" d="M 448 149 L 449 148 L 451 148 L 452 149 L 455 149 L 456 150 L 457 150 L 458 151 L 459 151 L 462 154 L 462 155 L 463 156 L 463 194 L 460 197 L 459 197 L 458 198 L 457 197 L 455 197 L 453 195 L 453 194 L 452 193 L 452 192 L 451 191 L 451 189 L 450 188 L 450 187 L 449 186 L 449 185 L 447 183 L 447 182 L 445 180 L 445 179 L 444 178 L 444 174 L 445 173 L 445 170 L 446 169 L 446 162 L 445 161 L 445 158 L 444 157 L 444 153 L 445 152 L 445 151 L 447 149 L 448 149 L 449 148 "></path>
        <path fill="none" stroke="#00fafa" stroke-width="3" d="M 289 287 L 290 286 L 297 286 L 299 288 L 300 288 L 301 289 L 302 289 L 306 293 L 306 295 L 307 296 L 307 299 L 308 300 L 308 303 L 309 304 L 309 306 L 310 307 L 310 309 L 311 310 L 311 316 L 310 317 L 310 318 L 307 321 L 302 321 L 301 320 L 300 320 L 299 319 L 298 319 L 297 318 L 296 318 L 294 316 L 293 316 L 291 314 L 290 314 L 286 310 L 286 309 L 283 306 L 283 305 L 282 304 L 282 303 L 281 302 L 281 297 L 282 296 L 282 295 L 283 294 L 283 293 L 284 292 L 284 291 L 288 287 L 289 287 L 290 286 "></path>
        <path fill="none" stroke="#00fafa" stroke-width="3" d="M 520 146 L 521 145 L 529 145 L 533 149 L 533 150 L 534 151 L 534 152 L 535 153 L 535 158 L 534 159 L 534 161 L 533 162 L 533 164 L 532 165 L 532 173 L 533 174 L 533 176 L 534 177 L 534 180 L 535 181 L 535 183 L 534 184 L 534 185 L 530 189 L 523 189 L 522 188 L 521 188 L 520 187 L 520 186 L 519 185 L 519 184 L 518 183 L 518 173 L 517 172 L 517 168 L 516 167 L 516 164 L 515 163 L 515 161 L 514 160 L 514 158 L 513 157 L 513 155 L 512 154 L 512 153 L 513 152 L 513 151 L 518 146 L 520 146 L 521 145 "></path>
        <path fill="none" stroke="#00fafa" stroke-width="3" d="M 301 384 L 302 383 L 308 383 L 312 387 L 312 388 L 313 389 L 313 392 L 314 393 L 314 397 L 315 398 L 315 401 L 316 402 L 316 403 L 317 404 L 317 405 L 318 406 L 318 407 L 326 415 L 327 415 L 329 417 L 330 417 L 331 418 L 333 418 L 334 419 L 336 419 L 337 420 L 339 420 L 341 422 L 342 422 L 343 423 L 343 424 L 344 425 L 344 427 L 341 430 L 340 430 L 339 431 L 338 431 L 337 430 L 335 430 L 334 429 L 333 429 L 332 428 L 331 428 L 330 427 L 329 427 L 328 426 L 326 426 L 325 425 L 324 425 L 323 424 L 322 424 L 321 423 L 320 423 L 319 422 L 318 422 L 314 418 L 314 417 L 311 414 L 311 413 L 309 411 L 309 410 L 305 406 L 305 405 L 302 402 L 302 401 L 301 400 L 301 399 L 299 397 L 299 396 L 298 395 L 298 394 L 297 393 L 297 388 L 298 387 L 298 386 L 300 384 L 301 384 L 302 383 "></path>
        <path fill="none" stroke="#00fafa" stroke-width="3" d="M 276 344 L 277 343 L 288 343 L 289 344 L 293 344 L 294 345 L 295 345 L 297 347 L 297 348 L 298 349 L 298 351 L 299 352 L 299 355 L 300 356 L 300 359 L 301 360 L 301 361 L 302 362 L 302 363 L 303 364 L 303 365 L 304 366 L 304 367 L 305 368 L 305 369 L 306 370 L 306 372 L 305 373 L 305 374 L 304 375 L 303 375 L 302 376 L 299 376 L 298 375 L 297 375 L 291 369 L 290 369 L 288 367 L 287 367 L 285 365 L 284 365 L 283 364 L 282 364 L 280 362 L 279 362 L 274 357 L 274 356 L 273 355 L 273 353 L 272 352 L 272 347 L 275 344 L 276 344 L 277 343 "></path>
        <path fill="none" stroke="#00fafa" stroke-width="3" d="M 476 148 L 477 147 L 483 147 L 484 148 L 485 148 L 487 150 L 487 151 L 488 152 L 488 155 L 487 156 L 487 157 L 486 158 L 486 160 L 485 161 L 485 162 L 484 163 L 484 166 L 483 167 L 483 173 L 482 174 L 482 178 L 483 179 L 483 185 L 484 186 L 484 190 L 483 191 L 483 192 L 480 195 L 479 195 L 478 196 L 477 196 L 476 195 L 474 195 L 472 193 L 472 192 L 471 191 L 471 186 L 470 185 L 470 152 L 473 149 L 474 149 L 475 148 L 476 148 L 477 147 "></path>
        <path fill="none" stroke="#00fafa" stroke-width="3" d="M 570 127 L 571 126 L 572 126 L 573 127 L 576 127 L 577 128 L 581 128 L 582 129 L 585 129 L 586 130 L 589 130 L 590 131 L 591 131 L 592 132 L 593 132 L 594 133 L 595 133 L 600 138 L 600 140 L 601 141 L 601 142 L 600 143 L 600 144 L 598 146 L 597 146 L 596 147 L 593 147 L 592 146 L 590 146 L 589 145 L 580 145 L 579 146 L 578 146 L 577 147 L 576 147 L 575 148 L 569 148 L 568 147 L 567 147 L 566 146 L 565 146 L 562 143 L 562 141 L 561 140 L 561 135 L 562 134 L 562 133 L 568 127 L 570 127 L 571 126 "></path>
        <path fill="none" stroke="#00fafa" stroke-width="3" d="M 497 155 L 503 155 L 506 158 L 506 159 L 507 160 L 507 162 L 508 163 L 508 166 L 509 167 L 509 171 L 510 172 L 510 181 L 511 182 L 510 183 L 510 186 L 506 190 L 505 190 L 504 191 L 502 191 L 501 192 L 499 192 L 498 191 L 496 191 L 495 190 L 494 190 L 492 188 L 492 187 L 491 186 L 491 182 L 490 181 L 490 171 L 491 170 L 491 166 L 492 165 L 492 163 L 493 162 L 493 160 L 494 159 L 494 158 L 497 155 L 503 155 "></path>
        <path fill="none" stroke="#00fafa" stroke-width="3" d="M 763 347 L 764 346 L 767 346 L 768 347 L 770 347 L 771 348 L 783 348 L 784 347 L 786 347 L 787 346 L 792 346 L 795 349 L 795 350 L 796 351 L 796 354 L 795 355 L 795 356 L 792 359 L 791 359 L 790 360 L 788 360 L 787 361 L 763 361 L 762 360 L 759 360 L 756 357 L 756 352 L 760 348 L 761 348 L 762 347 L 763 347 L 764 346 "></path>
        <path fill="none" stroke="#00fafa" stroke-width="3" d="M 668 168 L 669 167 L 670 167 L 671 168 L 676 168 L 677 169 L 680 169 L 681 170 L 683 170 L 684 171 L 685 171 L 688 174 L 688 176 L 689 177 L 689 181 L 688 182 L 688 183 L 678 193 L 672 193 L 668 189 L 668 188 L 667 187 L 667 185 L 666 184 L 666 183 L 665 182 L 665 181 L 664 180 L 664 179 L 663 178 L 663 177 L 662 176 L 662 174 L 663 173 L 663 172 L 664 171 L 664 170 L 666 168 L 668 168 L 669 167 "></path>
        <path fill="none" stroke="#00fafa" stroke-width="3" d="M 732 234 L 733 233 L 736 233 L 737 234 L 738 234 L 743 239 L 743 240 L 745 242 L 745 244 L 746 245 L 746 247 L 747 248 L 747 256 L 746 257 L 746 259 L 745 260 L 745 262 L 743 264 L 742 264 L 741 265 L 737 265 L 736 264 L 735 264 L 734 263 L 734 262 L 733 261 L 733 260 L 732 259 L 732 257 L 731 256 L 731 254 L 730 253 L 730 250 L 729 249 L 729 247 L 728 246 L 728 244 L 727 243 L 727 238 L 731 234 L 732 234 L 733 233 "></path>
        <path fill="none" stroke="#00fafa" stroke-width="3" d="M 693 189 L 694 188 L 698 188 L 699 189 L 701 189 L 702 190 L 704 190 L 705 191 L 706 191 L 707 192 L 708 192 L 709 193 L 709 194 L 710 195 L 710 196 L 711 197 L 711 202 L 701 212 L 695 212 L 694 211 L 693 211 L 686 204 L 686 203 L 685 202 L 685 197 L 686 196 L 686 195 L 692 189 L 693 189 L 694 188 "></path>
        <path fill="none" stroke="#00fafa" stroke-width="3" d="M 604 150 L 605 149 L 610 149 L 611 150 L 613 150 L 614 151 L 615 151 L 616 152 L 618 152 L 619 153 L 620 153 L 621 154 L 622 154 L 623 155 L 624 155 L 626 157 L 626 158 L 627 159 L 627 165 L 622 170 L 620 170 L 619 171 L 618 171 L 617 170 L 614 170 L 613 169 L 611 169 L 610 168 L 608 168 L 607 167 L 606 167 L 605 166 L 604 166 L 600 162 L 600 160 L 599 159 L 599 157 L 600 156 L 600 154 L 601 153 L 601 152 L 603 150 L 604 150 L 605 149 "></path>
        <path fill="none" stroke="#00fafa" stroke-width="3" d="M 714 210 L 715 209 L 721 209 L 722 210 L 723 210 L 724 211 L 725 211 L 726 212 L 728 212 L 731 215 L 731 216 L 732 217 L 732 223 L 731 224 L 731 225 L 726 230 L 725 230 L 724 231 L 723 231 L 722 232 L 719 232 L 718 231 L 717 231 L 716 230 L 715 230 L 714 229 L 713 229 L 709 225 L 709 224 L 707 222 L 707 217 L 708 216 L 708 215 L 713 210 L 714 210 L 715 209 "></path>
        <path fill="none" stroke="#00fafa" stroke-width="3" d="M 641 153 L 642 152 L 644 152 L 645 153 L 648 153 L 649 154 L 650 154 L 652 156 L 653 156 L 656 159 L 656 160 L 658 162 L 658 164 L 659 165 L 658 166 L 658 168 L 654 172 L 653 172 L 652 173 L 648 173 L 647 172 L 646 172 L 645 171 L 644 171 L 641 168 L 640 168 L 637 165 L 636 165 L 635 164 L 635 163 L 634 162 L 634 156 L 636 154 L 637 154 L 638 153 L 641 153 L 642 152 "></path>
        <path fill="none" stroke="#00fafa" stroke-width="3" d="M 312 262 L 313 261 L 314 262 L 317 262 L 321 266 L 321 271 L 320 272 L 320 273 L 318 275 L 318 276 L 311 283 L 310 283 L 309 284 L 307 284 L 306 283 L 305 283 L 304 282 L 303 282 L 300 279 L 300 277 L 299 276 L 299 272 L 300 271 L 300 269 L 305 264 L 306 264 L 307 263 L 308 263 L 309 262 L 312 262 L 313 261 "></path>
        <path fill="none" stroke="#00fafa" stroke-width="3" d="M 773 303 L 774 302 L 783 302 L 784 303 L 785 303 L 789 307 L 789 308 L 790 309 L 790 315 L 789 316 L 789 317 L 788 318 L 787 318 L 786 319 L 775 319 L 774 318 L 772 318 L 770 316 L 770 315 L 769 314 L 769 313 L 768 312 L 768 306 L 771 303 L 773 303 L 774 302 "></path>
        <path fill="none" stroke="#fa00fa" stroke-width="3" d="M 772 326 L 787 326 L 790 329 L 790 331 L 791 332 L 791 335 L 790 336 L 790 337 L 788 339 L 787 339 L 786 340 L 782 340 L 781 341 L 773 341 L 772 340 L 771 340 L 768 337 L 768 331 L 769 330 L 769 329 L 772 326 L 787 326 "></path>
        <path fill="none" stroke="#fa00fa" stroke-width="3" d="M 311 521 L 312 520 L 313 521 L 316 521 L 317 522 L 318 522 L 322 526 L 322 527 L 323 528 L 323 531 L 322 532 L 322 533 L 317 538 L 315 538 L 314 539 L 311 539 L 310 538 L 309 538 L 308 537 L 307 537 L 305 535 L 305 534 L 304 533 L 304 532 L 303 531 L 303 528 L 304 527 L 304 525 L 307 522 L 308 522 L 309 521 L 311 521 L 312 520 "></path>
        <path fill="none" stroke="#fa00fa" stroke-width="3" d="M 428 157 L 429 156 L 435 156 L 438 159 L 438 162 L 439 163 L 439 167 L 438 168 L 438 170 L 437 171 L 437 172 L 435 174 L 429 174 L 428 173 L 427 173 L 426 172 L 425 172 L 422 169 L 422 164 L 423 163 L 423 162 L 424 161 L 424 160 L 427 157 L 428 157 L 429 156 "></path>
        <path fill="none" stroke="#fa00fa" stroke-width="3" d="M 270 253 L 271 252 L 273 252 L 279 258 L 279 259 L 280 260 L 280 265 L 279 266 L 279 267 L 275 271 L 270 271 L 269 270 L 268 270 L 267 269 L 267 268 L 266 267 L 266 265 L 265 264 L 265 259 L 266 258 L 266 257 L 267 256 L 267 255 L 269 253 L 270 253 L 271 252 "></path>
        <path fill="none" stroke="#fa00fa" stroke-width="3" d="M 545 134 L 546 133 L 549 133 L 550 134 L 551 134 L 554 137 L 554 138 L 555 139 L 555 144 L 551 148 L 550 148 L 549 149 L 547 149 L 546 150 L 543 150 L 538 145 L 538 141 L 539 140 L 539 139 L 544 134 L 545 134 L 546 133 "></path>
        <path fill="none" stroke="#fa00fa" stroke-width="3" d="M 270 278 L 271 277 L 273 277 L 274 278 L 275 278 L 278 281 L 278 282 L 279 283 L 279 287 L 278 288 L 278 289 L 277 290 L 277 291 L 273 295 L 269 295 L 266 292 L 266 290 L 265 289 L 265 285 L 266 284 L 266 282 L 267 281 L 267 280 L 269 278 L 270 278 L 271 277 "></path>
        <path fill="none" stroke="#fa00fa" stroke-width="3" d="M 553 112 L 557 112 L 558 113 L 559 113 L 562 116 L 562 117 L 563 118 L 563 122 L 557 128 L 552 128 L 548 124 L 548 117 L 553 112 L 557 112 "></path>
        <path fill="none" stroke="#fa00fa" stroke-width="3" d="M 581 153 L 582 152 L 588 152 L 589 153 L 590 153 L 592 155 L 592 156 L 593 157 L 593 160 L 592 161 L 592 162 L 590 164 L 588 164 L 587 165 L 584 165 L 583 164 L 582 164 L 581 163 L 580 163 L 579 162 L 579 161 L 578 160 L 578 159 L 577 158 L 577 156 L 580 153 L 581 153 L 582 152 "></path>
        <path fill="none" stroke="#fa00fa" stroke-width="3" d="M 630 172 L 634 172 L 635 173 L 636 173 L 639 176 L 639 177 L 640 178 L 640 179 L 639 180 L 639 181 L 636 184 L 631 184 L 628 181 L 628 180 L 627 179 L 627 175 L 630 172 L 634 172 "></path>
        <path fill="none" stroke="#fa00fa" stroke-width="3" d="M 286 269 L 290 269 L 293 272 L 293 276 L 292 277 L 292 278 L 291 279 L 290 279 L 289 280 L 286 280 L 283 277 L 283 276 L 282 275 L 282 274 L 283 273 L 283 272 L 286 269 L 290 269 "></path>
        <path fill="none" stroke="#fa00fa" stroke-width="3" d="M 504 214 L 508 214 L 511 217 L 511 221 L 508 224 L 507 224 L 506 225 L 505 225 L 504 224 L 503 224 L 501 222 L 501 221 L 500 220 L 500 219 L 501 218 L 501 217 L 504 214 L 508 214 "></path>
        <path fill="none" stroke="#fa00fa" stroke-width="3" d="M 320 212 L 322 212 L 325 215 L 325 216 L 326 217 L 326 218 L 325 219 L 325 220 L 323 222 L 322 222 L 321 223 L 320 222 L 318 222 L 316 220 L 316 219 L 315 218 L 316 217 L 316 216 L 320 212 L 322 212 "></path>
    </g>
</svg>
