<svg xmlns="http://www.w3.org/2000/svg" xmlns:xlink="http://www.w3.org/1999/xlink" version="1.1" x="0" y="0" width="1056px" height="816px">
    <g id="rootLayer" transform="translate(0.000000, 0.000000)">
        <path fill="none" stroke="#fa00fa" stroke-width="3" d="M 438 121 L 437 122 L 435 122 L 434 123 L 433 123 L 432 124 L 431 124 L 430 125 L 429 125 L 426 128 L 425 128 L 424 129 L 423 129 L 422 130 L 422 131 L 420 133 L 420 135 L 419 136 L 418 136 L 412 142 L 412 144 L 410 146 L 410 147 L 408 149 L 408 151 L 407 152 L 407 158 L 408 159 L 408 165 L 405 168 L 405 169 L 404 170 L 404 171 L 403 172 L 403 174 L 402 175 L 402 177 L 401 178 L 401 179 L 400 180 L 400 182 L 398 184 L 398 186 L 397 187 L 397 197 L 398 198 L 398 201 L 399 202 L 399 204 L 400 205 L 400 208 L 401 209 L 401 210 L 402 211 L 402 213 L 403 214 L 403 215 L 404 216 L 404 217 L 409 222 L 410 222 L 411 223 L 412 223 L 413 224 L 414 224 L 415 225 L 421 225 L 424 222 L 424 221 L 426 219 L 453 219 L 454 218 L 455 218 L 456 219 L 458 219 L 459 220 L 459 221 L 460 222 L 460 223 L 461 224 L 461 225 L 463 227 L 464 227 L 466 229 L 469 229 L 470 230 L 471 229 L 474 229 L 476 227 L 478 227 L 479 226 L 480 226 L 481 225 L 482 225 L 483 224 L 485 224 L 486 223 L 488 223 L 489 222 L 490 222 L 490 221 L 491 220 L 492 220 L 495 217 L 496 217 L 498 215 L 499 215 L 500 214 L 501 214 L 502 213 L 502 212 L 503 211 L 504 211 L 505 210 L 506 211 L 507 210 L 508 211 L 509 210 L 510 211 L 511 210 L 512 210 L 513 209 L 513 208 L 516 205 L 517 205 L 519 203 L 520 203 L 521 204 L 523 204 L 524 205 L 526 205 L 526 136 L 525 136 L 524 135 L 523 136 L 499 136 L 498 135 L 495 135 L 493 133 L 492 133 L 491 132 L 490 132 L 489 131 L 485 131 L 484 130 L 483 131 L 482 130 L 480 130 L 479 131 L 478 130 L 472 130 L 471 131 L 460 131 L 455 126 L 455 125 L 454 124 L 453 124 L 452 123 L 451 123 L 450 122 L 449 122 L 448 121 "></path>
        <path fill="none" stroke="#fa00fa" stroke-width="3" d="M 262 164 L 261 165 L 260 165 L 259 166 L 259 167 L 257 169 L 256 169 L 253 172 L 241 172 L 240 173 L 239 173 L 238 174 L 238 176 L 236 178 L 236 179 L 237 180 L 233 184 L 232 184 L 231 185 L 230 185 L 230 188 L 228 190 L 229 191 L 229 196 L 224 201 L 223 201 L 222 202 L 222 211 L 223 212 L 223 215 L 224 216 L 224 218 L 225 219 L 225 220 L 226 221 L 226 222 L 229 225 L 229 226 L 230 227 L 231 227 L 232 228 L 233 228 L 234 229 L 235 229 L 236 230 L 237 230 L 238 231 L 240 231 L 241 232 L 244 232 L 245 231 L 246 232 L 247 231 L 249 231 L 250 232 L 251 231 L 252 232 L 254 232 L 255 231 L 258 231 L 259 230 L 259 228 L 261 226 L 262 226 L 262 225 L 264 223 L 269 223 L 270 224 L 271 223 L 272 224 L 274 224 L 275 223 L 277 223 L 278 222 L 279 222 L 280 221 L 281 221 L 282 220 L 284 220 L 285 219 L 286 219 L 286 218 L 287 217 L 287 215 L 289 213 L 292 213 L 294 211 L 295 211 L 295 210 L 296 209 L 296 207 L 295 206 L 296 205 L 295 204 L 295 198 L 296 197 L 296 196 L 297 195 L 298 195 L 299 194 L 301 194 L 302 193 L 303 193 L 305 191 L 305 189 L 306 188 L 306 184 L 307 183 L 307 179 L 306 178 L 306 176 L 303 173 L 302 173 L 298 169 L 297 169 L 296 168 L 295 168 L 294 167 L 289 167 L 288 166 L 287 167 L 286 166 L 284 166 L 283 165 L 282 165 L 281 164 "></path>
        <path fill="none" stroke="#fa00fa" stroke-width="3" d="M 438 121 L 437 122 L 435 122 L 434 123 L 432 123 L 430 125 L 429 125 L 426 128 L 424 128 L 422 130 L 422 131 L 420 133 L 420 135 L 419 136 L 418 136 L 414 140 L 413 140 L 413 141 L 412 142 L 412 143 L 411 144 L 411 145 L 410 146 L 410 147 L 408 149 L 408 151 L 407 152 L 407 158 L 408 159 L 408 165 L 405 168 L 405 169 L 404 170 L 404 171 L 403 172 L 403 174 L 402 175 L 402 176 L 401 177 L 401 179 L 400 180 L 400 182 L 398 184 L 398 185 L 397 186 L 397 191 L 396 192 L 397 193 L 397 197 L 398 198 L 398 201 L 399 202 L 399 205 L 400 206 L 400 208 L 401 209 L 401 211 L 402 212 L 402 213 L 403 214 L 403 215 L 404 216 L 404 217 L 409 222 L 410 222 L 412 224 L 413 224 L 414 225 L 417 225 L 418 226 L 419 225 L 422 225 L 422 224 L 425 221 L 425 220 L 426 219 L 453 219 L 454 218 L 455 218 L 456 219 L 458 219 L 459 220 L 459 221 L 460 222 L 460 223 L 461 224 L 461 225 L 464 228 L 465 228 L 466 229 L 468 229 L 469 230 L 470 230 L 471 229 L 474 229 L 476 227 L 478 227 L 479 226 L 480 226 L 481 225 L 482 225 L 483 224 L 485 224 L 486 223 L 488 223 L 489 222 L 490 222 L 494 218 L 495 218 L 498 215 L 500 215 L 502 213 L 502 212 L 503 211 L 504 211 L 505 210 L 506 211 L 507 210 L 508 211 L 510 211 L 511 210 L 512 210 L 513 209 L 513 208 L 516 205 L 517 205 L 519 203 L 520 203 L 521 204 L 523 204 L 524 205 L 526 205 L 526 136 L 525 136 L 524 135 L 523 136 L 499 136 L 498 135 L 495 135 L 493 133 L 492 133 L 491 132 L 490 132 L 489 131 L 485 131 L 484 130 L 483 131 L 482 130 L 480 130 L 479 131 L 478 130 L 472 130 L 471 131 L 461 131 L 460 130 L 459 130 L 455 126 L 455 125 L 453 123 L 451 123 L 450 122 L 449 122 L 448 121 "></path>
        <path fill="none" stroke="#fa00fa" stroke-width="3" d="M 438 121 L 437 122 L 435 122 L 434 123 L 432 123 L 430 125 L 429 125 L 426 128 L 424 128 L 422 130 L 422 131 L 420 133 L 420 135 L 419 136 L 418 136 L 414 140 L 413 140 L 413 141 L 412 142 L 412 143 L 411 144 L 411 145 L 410 146 L 410 147 L 408 149 L 408 151 L 407 152 L 407 158 L 408 159 L 408 165 L 405 168 L 405 169 L 404 170 L 404 171 L 403 172 L 403 174 L 402 175 L 402 176 L 401 177 L 401 179 L 400 180 L 400 182 L 398 184 L 398 185 L 397 186 L 397 191 L 396 192 L 397 193 L 397 197 L 398 198 L 398 201 L 399 202 L 399 205 L 400 206 L 400 208 L 401 209 L 401 211 L 402 212 L 402 213 L 403 214 L 403 215 L 404 216 L 404 217 L 409 222 L 410 222 L 412 224 L 413 224 L 414 225 L 417 225 L 418 226 L 419 225 L 422 225 L 422 224 L 425 221 L 425 220 L 426 219 L 453 219 L 454 218 L 455 218 L 456 219 L 458 219 L 459 220 L 459 221 L 460 222 L 460 223 L 461 224 L 461 225 L 464 228 L 465 228 L 466 229 L 468 229 L 469 230 L 470 230 L 471 229 L 474 229 L 476 227 L 478 227 L 479 226 L 480 226 L 481 225 L 482 225 L 483 224 L 485 224 L 486 223 L 488 223 L 489 222 L 490 222 L 494 218 L 495 218 L 498 215 L 500 215 L 502 213 L 502 212 L 503 211 L 504 211 L 505 210 L 506 211 L 507 210 L 508 211 L 510 211 L 511 210 L 512 210 L 513 209 L 513 208 L 516 205 L 517 205 L 519 203 L 520 203 L 521 204 L 523 204 L 524 205 L 526 205 L 526 136 L 525 136 L 524 135 L 523 136 L 499 136 L 498 135 L 495 135 L 493 133 L 492 133 L 491 132 L 490 132 L 489 131 L 485 131 L 484 130 L 483 131 L 482 130 L 480 130 L 479 131 L 478 130 L 472 130 L 471 131 L 461 131 L 460 130 L 459 130 L 455 126 L 455 125 L 453 123 L 451 123 L 450 122 L 449 122 L 448 121 L 262 164 L 261 165 L 260 165 L 259 166 L 259 167 L 257 169 L 256 169 L 253 172 L 241 172 L 240 173 L 239 173 L 238 174 L 238 176 L 236 178 L 236 179 L 237 180 L 233 184 L 232 184 L 231 185 L 230 185 L 230 188 L 228 190 L 229 191 L 229 196 L 224 201 L 223 201 L 222 202 L 222 211 L 223 212 L 223 215 L 224 216 L 224 218 L 225 219 L 225 220 L 226 221 L 226 222 L 229 225 L 229 226 L 230 227 L 231 227 L 232 228 L 233 228 L 234 229 L 235 229 L 236 230 L 237 230 L 238 231 L 240 231 L 241 232 L 244 232 L 245 231 L 246 232 L 247 231 L 249 231 L 250 232 L 251 231 L 252 232 L 254 232 L 255 231 L 258 231 L 259 230 L 259 228 L 261 226 L 262 226 L 262 225 L 264 223 L 269 223 L 270 224 L 271 223 L 272 224 L 274 224 L 275 223 L 277 223 L 278 222 L 279 222 L 280 221 L 281 221 L 282 220 L 284 220 L 285 219 L 286 219 L 286 218 L 287 217 L 287 215 L 289 213 L 292 213 L 294 211 L 295 211 L 295 210 L 296 209 L 296 207 L 295 206 L 296 205 L 295 204 L 295 198 L 296 197 L 296 196 L 297 195 L 298 195 L 299 194 L 301 194 L 302 193 L 303 193 L 305 191 L 305 189 L 306 188 L 306 184 L 307 183 L 307 179 L 306 178 L 306 176 L 302 172 L 301 172 L 298 169 L 297 169 L 296 168 L 295 168 L 294 167 L 289 167 L 288 166 L 287 167 L 286 166 L 284 166 L 283 165 L 282 165 L 281 164 "></path>
        <path fill="none" stroke="#fa00fa" stroke-width="3" d="M 306 5 L 305 6 L 293 6 L 293 7 L 295 9 L 294 10 L 293 10 L 293 11 L 291 13 L 282 13 L 281 14 L 280 14 L 280 15 L 281 15 L 282 16 L 280 18 L 270 18 L 269 17 L 266 17 L 265 16 L 266 15 L 267 15 L 268 14 L 267 14 L 266 13 L 240 13 L 238 11 L 238 10 L 235 10 L 234 9 L 233 10 L 232 9 L 231 10 L 230 9 L 228 9 L 227 10 L 224 10 L 224 11 L 222 13 L 217 13 L 217 14 L 218 15 L 218 18 L 220 20 L 219 21 L 219 22 L 221 24 L 220 25 L 220 26 L 221 26 L 222 27 L 226 27 L 227 26 L 228 27 L 229 26 L 230 27 L 231 26 L 232 27 L 234 27 L 235 28 L 234 29 L 234 30 L 235 31 L 235 32 L 234 33 L 234 34 L 235 35 L 235 36 L 234 37 L 234 38 L 235 39 L 235 40 L 234 41 L 222 41 L 221 40 L 200 40 L 199 41 L 198 41 L 197 42 L 197 43 L 196 44 L 193 44 L 192 45 L 191 45 L 190 46 L 190 47 L 188 49 L 188 51 L 187 52 L 186 52 L 185 53 L 185 54 L 186 55 L 184 57 L 184 62 L 185 63 L 185 66 L 186 66 L 187 67 L 186 68 L 186 70 L 214 70 L 215 71 L 242 71 L 243 70 L 244 71 L 245 70 L 253 70 L 254 71 L 255 70 L 256 71 L 257 70 L 258 71 L 259 70 L 260 71 L 262 71 L 263 72 L 262 73 L 262 75 L 263 76 L 262 77 L 262 79 L 263 79 L 264 80 L 263 81 L 262 81 L 261 82 L 263 84 L 262 85 L 260 85 L 259 86 L 251 86 L 250 85 L 248 85 L 247 86 L 246 85 L 244 85 L 243 86 L 242 85 L 240 85 L 239 86 L 238 85 L 228 85 L 228 87 L 230 87 L 231 88 L 231 90 L 233 90 L 234 91 L 235 90 L 236 91 L 237 90 L 245 90 L 246 91 L 247 90 L 248 91 L 249 90 L 250 91 L 251 90 L 252 91 L 253 90 L 254 91 L 255 90 L 256 91 L 257 90 L 258 91 L 259 90 L 260 91 L 275 91 L 276 92 L 275 93 L 267 93 L 266 94 L 266 95 L 267 95 L 268 96 L 267 97 L 266 97 L 265 98 L 265 99 L 263 101 L 245 101 L 244 100 L 243 100 L 242 99 L 242 98 L 227 98 L 226 97 L 184 97 L 183 98 L 182 97 L 177 97 L 176 98 L 175 98 L 173 100 L 159 100 L 158 99 L 158 98 L 156 96 L 156 95 L 157 94 L 157 92 L 159 90 L 173 90 L 174 91 L 178 91 L 179 90 L 180 90 L 180 87 L 181 86 L 180 85 L 180 82 L 178 80 L 178 77 L 177 76 L 175 76 L 174 75 L 173 75 L 171 73 L 169 73 L 168 72 L 165 72 L 164 71 L 164 70 L 163 70 L 162 69 L 157 69 L 156 68 L 155 69 L 152 69 L 151 70 L 151 71 L 150 72 L 149 72 L 148 73 L 146 73 L 146 75 L 145 76 L 138 76 L 137 77 L 135 77 L 134 78 L 134 79 L 133 80 L 130 80 L 129 81 L 128 80 L 127 81 L 126 80 L 121 80 L 120 81 L 119 81 L 119 82 L 120 83 L 118 85 L 117 85 L 119 87 L 117 89 L 117 90 L 118 91 L 117 92 L 116 92 L 115 93 L 115 94 L 116 94 L 117 95 L 115 97 L 114 97 L 114 98 L 123 98 L 124 99 L 123 100 L 120 100 L 119 101 L 118 100 L 112 100 L 111 101 L 107 101 L 106 100 L 105 101 L 104 100 L 103 101 L 99 101 L 98 102 L 98 106 L 97 107 L 97 109 L 96 110 L 96 113 L 95 114 L 94 114 L 93 115 L 92 115 L 92 116 L 91 117 L 74 117 L 73 118 L 72 118 L 72 119 L 73 120 L 72 121 L 68 121 L 67 122 L 66 121 L 64 121 L 63 122 L 62 122 L 61 123 L 54 123 L 53 124 L 52 124 L 51 125 L 50 125 L 50 127 L 51 128 L 50 129 L 50 130 L 52 132 L 52 138 L 54 140 L 54 142 L 55 143 L 56 143 L 57 144 L 57 145 L 58 146 L 59 146 L 60 147 L 64 147 L 65 146 L 66 146 L 66 144 L 68 142 L 67 141 L 69 139 L 77 139 L 78 140 L 86 140 L 87 139 L 89 141 L 88 142 L 78 142 L 80 144 L 80 145 L 79 146 L 78 146 L 78 149 L 77 150 L 77 151 L 78 152 L 79 152 L 80 153 L 80 154 L 82 156 L 82 157 L 81 158 L 83 158 L 84 159 L 92 159 L 93 158 L 94 158 L 94 156 L 95 155 L 96 155 L 97 154 L 98 155 L 99 154 L 108 154 L 108 152 L 109 151 L 189 151 L 190 150 L 190 149 L 189 148 L 189 147 L 190 146 L 188 144 L 190 142 L 190 141 L 184 141 L 183 142 L 182 141 L 181 142 L 179 142 L 178 141 L 173 141 L 172 140 L 173 139 L 174 139 L 175 138 L 188 138 L 189 139 L 246 139 L 247 138 L 248 139 L 249 138 L 250 139 L 270 139 L 271 138 L 272 139 L 274 139 L 275 138 L 276 139 L 284 139 L 285 138 L 284 137 L 283 137 L 282 136 L 282 135 L 283 134 L 284 134 L 283 134 L 282 133 L 280 133 L 279 134 L 278 133 L 277 134 L 276 133 L 275 134 L 274 133 L 273 134 L 271 134 L 269 132 L 270 131 L 286 131 L 287 130 L 305 130 L 306 129 L 305 129 L 304 128 L 295 128 L 294 127 L 295 126 L 304 126 L 304 125 L 295 125 L 294 124 L 296 122 L 297 122 L 298 123 L 299 122 L 300 123 L 302 123 L 303 122 L 333 122 L 334 123 L 338 123 L 339 122 L 341 122 L 342 123 L 343 123 L 345 125 L 345 127 L 346 128 L 344 130 L 344 132 L 343 133 L 318 133 L 317 134 L 318 135 L 318 137 L 317 138 L 318 139 L 318 140 L 317 141 L 293 141 L 292 142 L 293 142 L 295 144 L 294 145 L 294 146 L 295 147 L 303 147 L 304 148 L 303 149 L 295 149 L 294 150 L 294 152 L 293 153 L 274 153 L 273 154 L 275 156 L 274 157 L 274 158 L 275 159 L 275 160 L 274 161 L 244 161 L 243 162 L 242 161 L 240 161 L 239 162 L 238 161 L 236 161 L 235 162 L 234 161 L 232 161 L 231 162 L 230 161 L 228 161 L 227 162 L 226 161 L 224 161 L 223 162 L 222 161 L 220 161 L 219 162 L 218 161 L 216 161 L 215 162 L 214 161 L 213 162 L 212 161 L 211 162 L 210 161 L 209 162 L 208 161 L 207 162 L 206 161 L 205 162 L 204 161 L 203 162 L 202 161 L 201 162 L 197 162 L 196 161 L 195 162 L 194 161 L 193 162 L 192 161 L 191 162 L 190 161 L 189 162 L 188 161 L 187 162 L 186 161 L 185 162 L 184 161 L 183 162 L 182 161 L 181 162 L 180 161 L 179 162 L 178 161 L 144 161 L 143 162 L 142 161 L 122 161 L 122 163 L 143 163 L 144 164 L 143 165 L 136 165 L 136 166 L 137 166 L 138 167 L 139 166 L 140 167 L 141 166 L 142 167 L 143 166 L 144 167 L 197 167 L 198 166 L 209 166 L 210 167 L 211 166 L 212 167 L 264 167 L 265 168 L 264 169 L 236 169 L 235 170 L 234 169 L 233 170 L 232 169 L 231 170 L 230 169 L 229 170 L 228 169 L 227 170 L 226 169 L 225 170 L 224 169 L 223 170 L 222 169 L 221 170 L 211 170 L 210 169 L 209 170 L 207 170 L 206 169 L 205 170 L 204 169 L 203 170 L 202 169 L 201 170 L 199 170 L 198 169 L 197 170 L 196 169 L 195 170 L 194 169 L 192 169 L 191 170 L 190 169 L 188 169 L 187 170 L 186 169 L 184 169 L 183 170 L 182 169 L 180 169 L 179 170 L 178 169 L 176 169 L 175 170 L 174 169 L 172 169 L 171 170 L 170 169 L 168 169 L 167 170 L 166 169 L 164 169 L 163 170 L 162 169 L 144 169 L 143 170 L 142 169 L 141 170 L 139 170 L 138 169 L 137 170 L 136 169 L 135 170 L 134 169 L 133 170 L 123 170 L 122 169 L 121 170 L 119 170 L 118 169 L 117 170 L 116 169 L 115 170 L 114 169 L 113 170 L 112 169 L 111 170 L 110 169 L 109 170 L 108 169 L 107 170 L 106 169 L 105 170 L 104 169 L 103 170 L 102 169 L 101 170 L 100 169 L 99 170 L 98 169 L 78 169 L 77 170 L 76 170 L 77 171 L 77 172 L 76 173 L 69 173 L 68 174 L 69 174 L 70 175 L 78 175 L 79 174 L 80 175 L 81 174 L 82 175 L 83 174 L 85 174 L 86 175 L 87 174 L 89 174 L 90 175 L 91 174 L 93 174 L 94 175 L 95 174 L 117 174 L 118 175 L 119 174 L 121 174 L 122 175 L 123 174 L 125 174 L 126 175 L 127 174 L 128 175 L 138 175 L 139 174 L 140 175 L 213 175 L 214 174 L 211 174 L 210 173 L 209 174 L 208 173 L 207 174 L 206 173 L 204 173 L 203 174 L 202 173 L 200 173 L 199 174 L 198 173 L 196 173 L 195 174 L 194 173 L 192 173 L 191 174 L 190 173 L 188 173 L 187 174 L 186 173 L 184 173 L 183 174 L 182 173 L 180 173 L 179 174 L 178 173 L 176 173 L 175 174 L 174 173 L 172 173 L 171 174 L 170 173 L 168 173 L 167 174 L 166 173 L 164 173 L 163 174 L 162 173 L 151 173 L 150 172 L 151 171 L 213 171 L 214 170 L 219 170 L 220 171 L 221 170 L 222 171 L 235 171 L 236 172 L 235 173 L 220 173 L 219 174 L 216 174 L 216 175 L 217 174 L 218 175 L 239 175 L 240 176 L 239 177 L 238 177 L 238 179 L 241 179 L 242 180 L 241 181 L 240 181 L 239 182 L 238 182 L 238 183 L 241 183 L 242 184 L 241 185 L 224 185 L 223 186 L 222 185 L 157 185 L 156 184 L 157 183 L 220 183 L 220 182 L 219 182 L 218 181 L 211 181 L 210 180 L 211 179 L 220 179 L 220 178 L 219 177 L 188 177 L 187 178 L 186 177 L 184 177 L 183 178 L 182 177 L 180 177 L 179 178 L 178 177 L 176 177 L 175 178 L 174 177 L 172 177 L 171 178 L 170 177 L 168 177 L 167 178 L 166 177 L 164 177 L 163 178 L 162 177 L 152 177 L 151 178 L 151 179 L 152 179 L 153 180 L 150 183 L 151 184 L 150 185 L 144 185 L 143 186 L 144 187 L 146 187 L 147 186 L 153 186 L 155 188 L 153 190 L 155 192 L 153 194 L 152 194 L 153 194 L 154 195 L 154 197 L 153 198 L 155 200 L 153 202 L 152 202 L 153 203 L 153 204 L 152 205 L 122 205 L 121 206 L 121 208 L 122 209 L 121 210 L 122 211 L 122 219 L 137 219 L 138 220 L 138 221 L 137 222 L 139 224 L 138 225 L 138 226 L 139 226 L 140 227 L 146 227 L 147 228 L 146 229 L 145 229 L 144 230 L 142 230 L 145 230 L 146 231 L 147 231 L 148 232 L 147 233 L 144 233 L 143 234 L 142 233 L 141 234 L 140 233 L 139 234 L 138 233 L 137 234 L 136 233 L 135 234 L 134 233 L 133 234 L 131 234 L 130 233 L 129 234 L 127 234 L 126 233 L 125 234 L 124 233 L 123 234 L 122 233 L 121 234 L 113 234 L 112 233 L 111 234 L 110 234 L 110 235 L 112 237 L 116 237 L 117 236 L 118 237 L 119 236 L 121 236 L 122 237 L 123 237 L 124 238 L 125 238 L 128 241 L 128 243 L 130 245 L 138 245 L 139 244 L 162 244 L 163 243 L 173 243 L 174 244 L 175 243 L 176 244 L 178 244 L 179 243 L 180 244 L 204 244 L 205 243 L 234 243 L 235 242 L 248 242 L 249 243 L 253 243 L 253 237 L 251 237 L 250 236 L 249 237 L 243 237 L 242 236 L 242 235 L 243 234 L 258 234 L 259 235 L 268 235 L 269 234 L 269 233 L 268 232 L 269 231 L 269 230 L 268 229 L 258 229 L 257 228 L 257 227 L 258 226 L 257 225 L 257 224 L 259 222 L 277 222 L 279 220 L 280 220 L 281 219 L 284 219 L 285 218 L 286 218 L 286 216 L 285 215 L 287 213 L 288 213 L 289 212 L 290 212 L 291 211 L 293 211 L 294 210 L 294 209 L 296 207 L 295 207 L 294 206 L 295 205 L 306 205 L 307 204 L 308 205 L 310 203 L 321 203 L 322 202 L 322 197 L 321 196 L 322 195 L 321 194 L 321 193 L 320 192 L 320 191 L 319 192 L 318 191 L 317 192 L 316 191 L 315 191 L 314 190 L 314 186 L 315 185 L 325 185 L 326 186 L 325 187 L 320 187 L 320 189 L 361 189 L 362 190 L 362 197 L 363 198 L 362 199 L 362 202 L 361 203 L 350 203 L 350 210 L 349 211 L 342 211 L 342 212 L 344 214 L 343 215 L 343 217 L 341 219 L 334 219 L 334 220 L 335 221 L 350 221 L 351 220 L 352 220 L 353 221 L 357 221 L 358 222 L 357 223 L 356 223 L 356 224 L 358 226 L 357 227 L 354 227 L 353 228 L 344 228 L 341 231 L 320 231 L 319 232 L 319 234 L 318 235 L 311 235 L 310 236 L 310 242 L 309 243 L 291 243 L 289 245 L 289 246 L 287 248 L 287 250 L 286 251 L 267 251 L 266 252 L 266 253 L 267 254 L 267 256 L 268 257 L 274 257 L 275 258 L 274 259 L 268 259 L 268 261 L 275 261 L 276 262 L 275 263 L 251 263 L 251 265 L 252 266 L 252 269 L 265 269 L 266 270 L 265 271 L 231 271 L 230 272 L 230 277 L 231 277 L 232 278 L 231 279 L 227 279 L 225 277 L 225 274 L 224 273 L 202 273 L 202 279 L 208 279 L 210 281 L 210 287 L 211 287 L 212 288 L 220 288 L 221 289 L 222 289 L 223 290 L 222 291 L 222 293 L 223 294 L 222 295 L 222 297 L 223 298 L 222 299 L 222 301 L 223 302 L 223 303 L 224 304 L 229 304 L 230 305 L 231 305 L 232 306 L 230 308 L 232 310 L 231 311 L 230 311 L 230 313 L 231 314 L 230 315 L 230 321 L 238 321 L 239 322 L 238 323 L 238 325 L 239 326 L 238 327 L 238 329 L 239 330 L 238 331 L 229 331 L 229 332 L 228 333 L 228 336 L 227 337 L 226 337 L 225 338 L 206 338 L 206 339 L 205 340 L 198 340 L 198 343 L 197 344 L 197 347 L 196 348 L 183 348 L 182 347 L 179 347 L 178 348 L 178 353 L 180 355 L 179 356 L 180 357 L 180 358 L 181 359 L 180 360 L 180 363 L 179 364 L 178 364 L 178 367 L 177 368 L 177 369 L 178 370 L 178 373 L 179 373 L 180 374 L 180 376 L 181 377 L 182 377 L 184 379 L 184 380 L 185 381 L 186 381 L 188 383 L 188 384 L 189 384 L 190 385 L 203 385 L 205 383 L 204 382 L 205 381 L 208 381 L 209 380 L 210 380 L 210 379 L 209 378 L 210 377 L 224 377 L 225 376 L 226 376 L 226 374 L 227 373 L 230 373 L 231 372 L 232 372 L 232 370 L 233 369 L 237 369 L 238 368 L 239 368 L 239 367 L 238 366 L 239 365 L 247 365 L 248 364 L 249 364 L 249 363 L 248 362 L 249 361 L 250 361 L 251 360 L 252 360 L 251 360 L 249 358 L 250 357 L 264 357 L 265 356 L 263 354 L 265 352 L 259 352 L 258 351 L 256 351 L 255 350 L 256 349 L 258 349 L 259 348 L 260 349 L 264 349 L 265 348 L 263 348 L 262 347 L 261 348 L 259 348 L 258 347 L 249 347 L 248 346 L 249 345 L 258 345 L 259 344 L 260 345 L 264 345 L 265 344 L 264 343 L 264 342 L 265 341 L 266 341 L 266 339 L 249 339 L 248 338 L 249 337 L 257 337 L 258 336 L 257 336 L 256 335 L 255 335 L 254 334 L 255 333 L 256 333 L 257 332 L 256 331 L 248 331 L 247 330 L 248 329 L 256 329 L 257 328 L 256 327 L 249 327 L 248 326 L 249 325 L 290 325 L 290 323 L 258 323 L 257 322 L 259 320 L 258 319 L 257 319 L 256 318 L 257 317 L 258 317 L 258 315 L 257 314 L 258 313 L 309 313 L 310 312 L 309 311 L 308 311 L 306 309 L 306 308 L 305 308 L 304 307 L 303 308 L 302 307 L 300 307 L 299 308 L 298 307 L 297 308 L 269 308 L 268 307 L 266 307 L 265 306 L 266 305 L 301 305 L 302 304 L 300 302 L 302 300 L 300 298 L 301 297 L 308 297 L 309 296 L 310 296 L 310 294 L 311 293 L 338 293 L 339 294 L 349 294 L 350 293 L 350 292 L 349 291 L 349 288 L 348 287 L 349 286 L 350 286 L 351 285 L 352 286 L 353 285 L 354 286 L 355 285 L 356 286 L 360 286 L 361 285 L 362 285 L 362 284 L 361 283 L 361 282 L 362 281 L 362 280 L 363 279 L 366 279 L 367 278 L 368 279 L 371 279 L 372 280 L 373 280 L 374 281 L 413 281 L 414 280 L 414 275 L 415 274 L 416 274 L 417 273 L 433 273 L 434 272 L 438 272 L 439 271 L 440 272 L 441 271 L 442 272 L 445 272 L 446 273 L 446 274 L 447 274 L 448 275 L 446 277 L 447 278 L 447 280 L 446 281 L 448 283 L 447 284 L 447 286 L 448 287 L 447 288 L 444 288 L 443 289 L 442 288 L 441 289 L 440 288 L 439 289 L 438 288 L 437 289 L 436 288 L 435 289 L 434 288 L 433 289 L 394 289 L 393 288 L 391 288 L 390 289 L 390 290 L 391 291 L 390 292 L 390 294 L 398 294 L 399 293 L 400 294 L 407 294 L 408 295 L 407 296 L 405 296 L 404 297 L 403 297 L 402 296 L 401 297 L 395 297 L 394 296 L 390 296 L 389 297 L 388 297 L 388 299 L 387 300 L 386 300 L 386 305 L 387 305 L 388 306 L 388 307 L 389 308 L 388 309 L 390 311 L 390 315 L 388 317 L 379 317 L 378 316 L 377 317 L 375 317 L 374 316 L 368 316 L 368 320 L 367 321 L 368 321 L 369 322 L 373 322 L 374 321 L 388 321 L 389 322 L 391 322 L 392 323 L 393 322 L 394 323 L 395 323 L 398 326 L 398 333 L 402 333 L 403 332 L 404 332 L 405 331 L 406 331 L 407 330 L 408 331 L 409 330 L 410 331 L 411 330 L 415 334 L 414 335 L 414 341 L 422 341 L 423 340 L 426 340 L 427 339 L 428 339 L 430 341 L 431 341 L 432 342 L 431 343 L 431 344 L 430 345 L 431 345 L 432 346 L 431 347 L 430 347 L 428 349 L 422 349 L 423 350 L 422 351 L 422 355 L 420 357 L 408 357 L 408 358 L 406 360 L 406 361 L 407 362 L 403 366 L 402 366 L 401 367 L 400 367 L 400 369 L 401 370 L 400 371 L 402 373 L 402 374 L 401 375 L 402 376 L 402 377 L 403 378 L 402 379 L 402 382 L 401 383 L 383 383 L 383 384 L 384 385 L 385 385 L 386 386 L 386 387 L 387 387 L 388 388 L 393 388 L 394 389 L 394 390 L 393 391 L 394 392 L 394 393 L 395 394 L 394 395 L 394 397 L 395 398 L 394 399 L 393 399 L 393 401 L 391 403 L 390 403 L 389 402 L 387 402 L 386 403 L 384 403 L 386 405 L 390 405 L 391 404 L 392 404 L 393 405 L 437 405 L 438 406 L 439 406 L 440 405 L 449 405 L 448 404 L 432 404 L 430 402 L 431 401 L 436 401 L 436 400 L 437 399 L 436 398 L 436 397 L 437 396 L 437 395 L 436 394 L 437 393 L 444 393 L 445 392 L 445 387 L 444 386 L 445 385 L 460 385 L 461 384 L 461 383 L 460 382 L 460 379 L 459 379 L 458 378 L 459 377 L 460 377 L 460 375 L 459 374 L 460 373 L 460 371 L 459 370 L 460 369 L 460 366 L 461 365 L 461 363 L 460 362 L 461 361 L 460 360 L 461 359 L 460 358 L 460 357 L 461 356 L 462 356 L 463 355 L 469 355 L 468 354 L 470 352 L 470 351 L 469 351 L 468 350 L 471 347 L 472 347 L 471 346 L 472 345 L 473 345 L 474 344 L 474 343 L 473 342 L 474 341 L 476 341 L 478 339 L 478 332 L 479 331 L 483 331 L 484 332 L 485 331 L 486 332 L 487 331 L 488 331 L 488 330 L 486 328 L 486 324 L 487 323 L 490 323 L 491 322 L 494 322 L 494 320 L 493 319 L 494 318 L 494 317 L 493 316 L 492 316 L 491 315 L 492 314 L 494 314 L 494 312 L 495 311 L 496 311 L 497 310 L 512 310 L 512 303 L 513 302 L 513 300 L 512 299 L 513 298 L 513 297 L 512 296 L 512 295 L 513 294 L 513 289 L 512 288 L 483 288 L 482 287 L 483 286 L 504 286 L 504 285 L 503 285 L 502 284 L 500 284 L 499 285 L 498 284 L 497 285 L 496 284 L 495 285 L 494 284 L 493 285 L 492 284 L 491 285 L 490 284 L 489 285 L 488 284 L 487 285 L 486 284 L 483 284 L 482 283 L 483 282 L 504 282 L 504 280 L 496 280 L 495 281 L 494 280 L 492 280 L 491 281 L 490 280 L 489 281 L 488 280 L 487 281 L 486 280 L 484 280 L 483 279 L 484 278 L 509 278 L 510 279 L 511 279 L 512 280 L 517 280 L 518 281 L 518 283 L 519 284 L 519 287 L 520 287 L 522 289 L 522 292 L 523 293 L 522 294 L 522 296 L 523 297 L 522 298 L 524 300 L 525 300 L 526 299 L 526 282 L 525 281 L 525 280 L 526 279 L 525 278 L 525 276 L 526 275 L 526 258 L 525 257 L 526 256 L 526 254 L 525 253 L 526 252 L 526 237 L 525 236 L 524 236 L 523 237 L 518 237 L 517 238 L 516 238 L 515 239 L 514 238 L 513 239 L 512 238 L 511 239 L 510 238 L 509 238 L 508 237 L 507 237 L 506 236 L 506 234 L 504 232 L 504 231 L 505 230 L 506 230 L 505 229 L 506 228 L 506 227 L 507 226 L 518 226 L 519 225 L 520 226 L 525 226 L 526 225 L 526 224 L 525 223 L 526 222 L 526 217 L 516 217 L 517 218 L 515 220 L 511 220 L 510 219 L 509 219 L 508 218 L 509 217 L 502 217 L 501 216 L 502 215 L 502 213 L 501 212 L 502 211 L 502 210 L 503 209 L 514 209 L 514 207 L 513 206 L 514 205 L 519 205 L 520 206 L 523 206 L 524 207 L 525 206 L 526 206 L 526 184 L 525 183 L 525 182 L 526 181 L 526 180 L 525 179 L 525 178 L 526 177 L 526 175 L 525 174 L 526 173 L 526 137 L 525 136 L 525 135 L 526 134 L 526 92 L 525 91 L 526 90 L 526 73 L 525 72 L 525 71 L 526 70 L 526 65 L 525 64 L 525 63 L 526 62 L 526 61 L 525 60 L 526 59 L 526 41 L 525 40 L 526 39 L 526 37 L 525 36 L 525 35 L 526 34 L 526 21 L 525 20 L 522 20 L 521 21 L 497 21 L 496 20 L 496 19 L 495 18 L 495 17 L 494 16 L 494 13 L 493 12 L 493 6 L 494 5 L 426 5 L 425 6 L 411 6 L 410 5 "></path>
        <path fill="none" stroke="#00fafa" stroke-width="3" d="M 336 73 L 337 73 L 338 74 L 339 73 L 340 74 L 345 74 L 346 75 L 346 76 L 345 77 L 344 77 L 344 78 L 345 78 L 346 79 L 347 78 L 365 78 L 366 79 L 366 80 L 365 81 L 342 81 L 342 82 L 343 82 L 344 83 L 346 83 L 347 82 L 365 82 L 366 83 L 366 84 L 365 85 L 340 85 L 340 87 L 338 89 L 339 90 L 365 90 L 366 91 L 366 92 L 365 93 L 366 94 L 367 94 L 368 95 L 369 94 L 373 94 L 374 95 L 374 96 L 373 97 L 365 97 L 366 98 L 366 99 L 364 101 L 362 101 L 362 102 L 363 102 L 364 103 L 362 105 L 363 105 L 364 106 L 365 106 L 366 107 L 366 110 L 367 111 L 367 112 L 366 113 L 366 114 L 367 115 L 369 115 L 370 116 L 369 117 L 343 117 L 342 116 L 341 116 L 340 115 L 341 114 L 342 114 L 342 113 L 341 112 L 341 111 L 342 110 L 342 109 L 334 109 L 333 108 L 326 108 L 325 109 L 311 109 L 310 108 L 310 105 L 309 105 L 308 104 L 311 101 L 312 102 L 313 101 L 314 102 L 315 101 L 316 101 L 316 100 L 318 98 L 329 98 L 330 97 L 329 97 L 328 96 L 328 93 L 327 92 L 327 91 L 328 90 L 328 89 L 327 89 L 326 88 L 328 86 L 328 85 L 327 85 L 326 84 L 326 83 L 327 82 L 329 82 L 330 81 L 330 80 L 331 79 L 332 79 L 334 77 L 333 76 "></path>
        <path fill="none" stroke="#00fafa" stroke-width="3" d="M 350 132 L 351 131 L 373 131 L 374 132 L 374 133 L 373 134 L 374 135 L 374 137 L 373 138 L 373 139 L 374 140 L 374 141 L 373 142 L 372 142 L 373 143 L 373 145 L 372 146 L 373 147 L 373 149 L 372 150 L 374 152 L 374 153 L 373 154 L 372 154 L 373 155 L 373 157 L 372 158 L 373 158 L 374 159 L 378 159 L 379 158 L 380 159 L 381 159 L 385 163 L 381 167 L 380 167 L 379 168 L 376 168 L 375 169 L 372 166 L 359 166 L 357 164 L 357 163 L 358 162 L 357 161 L 357 159 L 358 158 L 343 158 L 342 157 L 341 157 L 340 156 L 342 154 L 340 152 L 342 150 L 341 149 L 341 148 L 342 147 L 342 146 L 341 145 L 341 143 L 342 142 L 341 141 L 343 139 L 352 139 L 352 138 L 350 136 L 350 135 L 351 134 L 352 134 L 351 134 L 350 133 "></path>
        <path fill="none" stroke="#00fafa" stroke-width="3" d="M 423 46 L 457 46 L 458 47 L 507 47 L 508 48 L 507 49 L 506 49 L 506 50 L 508 52 L 507 53 L 506 53 L 506 56 L 505 57 L 423 57 L 422 56 L 422 53 L 421 53 L 420 52 L 422 50 L 422 49 L 421 48 "></path>
        <path fill="none" stroke="#00fafa" stroke-width="3" d="M 382 64 L 383 63 L 388 63 L 389 64 L 389 65 L 390 65 L 392 67 L 392 68 L 391 69 L 390 69 L 391 70 L 422 70 L 423 71 L 425 71 L 426 72 L 426 75 L 427 75 L 428 76 L 427 77 L 426 77 L 426 80 L 425 81 L 424 80 L 423 81 L 406 81 L 406 86 L 408 88 L 407 89 L 406 89 L 406 90 L 407 91 L 405 93 L 399 93 L 397 91 L 398 90 L 398 89 L 397 89 L 396 88 L 396 87 L 397 86 L 398 86 L 398 85 L 397 84 L 398 83 L 398 81 L 391 81 L 390 80 L 389 80 L 388 79 L 389 78 L 389 77 L 388 76 L 390 74 L 390 73 L 382 73 L 380 71 L 381 70 L 381 69 L 380 68 L 380 67 L 381 66 L 382 66 "></path>
        <path fill="none" stroke="#00fafa" stroke-width="3" d="M 346 169 L 347 168 L 348 169 L 349 168 L 350 169 L 351 168 L 352 169 L 353 168 L 354 169 L 355 168 L 356 169 L 370 169 L 371 168 L 372 169 L 374 169 L 376 171 L 376 172 L 375 173 L 374 173 L 375 174 L 374 175 L 372 175 L 371 176 L 370 176 L 370 178 L 369 179 L 366 179 L 365 180 L 364 179 L 363 180 L 362 179 L 344 179 L 343 180 L 342 179 L 341 180 L 340 179 L 339 180 L 338 179 L 332 179 L 332 181 L 341 181 L 342 182 L 341 183 L 328 183 L 327 184 L 326 183 L 325 184 L 324 183 L 323 183 L 322 182 L 322 176 L 323 175 L 324 176 L 324 177 L 324 176 L 325 175 L 326 176 L 326 177 L 326 176 L 327 175 L 328 176 L 328 177 L 328 176 L 329 175 L 330 176 L 330 177 L 330 176 L 331 175 L 332 176 L 332 177 L 332 176 L 333 175 L 334 176 L 334 177 L 334 176 L 335 175 L 336 176 L 336 177 L 336 175 L 338 173 L 337 172 L 337 171 L 339 169 "></path>
        <path fill="none" stroke="#00fafa" stroke-width="3" d="M 190 100 L 191 99 L 228 99 L 229 100 L 228 101 L 222 101 L 221 102 L 225 102 L 226 103 L 227 102 L 228 103 L 229 103 L 230 104 L 229 105 L 228 105 L 227 106 L 194 106 L 193 105 L 191 105 L 190 104 L 191 103 L 192 103 L 193 102 L 194 102 L 193 101 L 191 101 "></path>
        <path fill="none" stroke="#00fafa" stroke-width="3" d="M 340 56 L 341 55 L 357 55 L 360 58 L 365 58 L 366 59 L 367 58 L 376 58 L 378 60 L 377 61 L 362 61 L 362 62 L 375 62 L 376 63 L 376 64 L 375 65 L 374 64 L 373 65 L 355 65 L 352 62 L 351 62 L 350 61 L 346 61 L 345 62 L 343 62 L 341 60 L 342 59 L 350 59 L 349 58 L 343 58 L 342 57 L 341 57 "></path>
        <path fill="none" stroke="#00fafa" stroke-width="3" d="M 427 98 L 429 98 L 430 99 L 445 99 L 446 100 L 446 101 L 445 102 L 444 102 L 446 104 L 446 105 L 445 106 L 438 106 L 438 107 L 437 108 L 436 108 L 435 109 L 433 109 L 432 110 L 427 110 L 425 108 L 426 107 L 426 105 L 425 104 L 426 103 L 426 101 L 425 100 "></path>
        <path fill="none" stroke="#00fafa" stroke-width="3" d="M 158 200 L 159 199 L 246 199 L 247 200 L 246 201 L 159 201 "></path>
        <path fill="none" stroke="#00fafa" stroke-width="3" d="M 158 192 L 159 191 L 246 191 L 247 192 L 246 193 L 159 193 "></path>
        <path fill="none" stroke="#00fafa" stroke-width="3" d="M 158 196 L 159 195 L 245 195 L 246 196 L 245 197 L 159 197 "></path>
        <path fill="none" stroke="#00fafa" stroke-width="3" d="M 246 131 L 247 130 L 248 131 L 249 130 L 250 131 L 251 130 L 252 131 L 253 130 L 254 131 L 255 130 L 256 131 L 257 130 L 258 131 L 259 130 L 260 131 L 266 131 L 267 132 L 266 133 L 263 133 L 262 134 L 260 134 L 261 134 L 262 135 L 263 134 L 264 135 L 266 135 L 267 134 L 268 135 L 269 134 L 270 135 L 271 134 L 272 135 L 273 134 L 274 135 L 275 134 L 276 135 L 277 134 L 278 135 L 279 134 L 280 135 L 281 135 L 282 136 L 281 137 L 247 137 L 246 136 L 247 135 L 248 135 L 249 134 L 250 135 L 251 134 L 252 135 L 253 134 L 254 134 L 247 134 L 246 133 L 245 133 L 244 132 L 245 131 "></path>
        <path fill="none" stroke="#00fafa" stroke-width="3" d="M 454 213 L 457 213 L 458 214 L 459 214 L 460 215 L 459 216 L 458 216 L 457 217 L 456 217 L 457 217 L 458 218 L 459 218 L 460 219 L 459 220 L 457 220 L 456 221 L 455 221 L 454 220 L 453 221 L 451 221 L 450 220 L 449 221 L 448 220 L 447 221 L 446 220 L 445 221 L 444 220 L 443 221 L 442 220 L 441 221 L 439 221 L 438 220 L 437 221 L 436 220 L 435 221 L 434 220 L 433 221 L 432 220 L 431 221 L 430 220 L 429 221 L 428 220 L 427 221 L 426 220 L 425 221 L 423 221 L 422 220 L 422 219 L 423 218 L 452 218 L 453 217 L 454 217 L 454 216 L 453 216 L 452 215 "></path>
        <path fill="none" stroke="#00fafa" stroke-width="3" d="M 158 188 L 159 187 L 216 187 L 217 188 L 216 189 L 159 189 "></path>
        <path fill="none" stroke="#00fafa" stroke-width="3" d="M 246 63 L 247 62 L 249 62 L 250 63 L 251 62 L 252 63 L 255 63 L 256 64 L 255 65 L 254 65 L 253 66 L 252 66 L 253 66 L 254 67 L 254 68 L 253 69 L 246 69 L 245 68 L 246 67 L 246 65 L 222 65 L 221 64 L 222 63 "></path>
        <path fill="none" stroke="#00fafa" stroke-width="3" d="M 222 47 L 223 46 L 224 47 L 269 47 L 270 48 L 269 49 L 223 49 L 222 48 "></path>
        <path fill="none" stroke="#00fafa" stroke-width="3" d="M 222 52 L 223 51 L 269 51 L 270 52 L 269 53 L 223 53 "></path>
        <path fill="none" stroke="#00fafa" stroke-width="3" d="M 341 64 L 342 63 L 349 63 L 350 64 L 350 65 L 351 66 L 352 66 L 354 68 L 353 69 L 352 69 L 352 70 L 353 70 L 354 71 L 354 72 L 353 73 L 347 73 L 344 70 L 343 70 L 341 68 L 342 67 L 342 65 "></path>
        <path fill="none" stroke="#00fafa" stroke-width="3" d="M 458 63 L 459 62 L 460 63 L 462 63 L 463 62 L 464 63 L 470 63 L 471 62 L 472 63 L 479 63 L 480 64 L 479 65 L 476 65 L 475 66 L 474 65 L 473 66 L 472 65 L 471 66 L 470 65 L 468 65 L 467 66 L 466 65 L 464 65 L 463 66 L 462 65 L 461 66 L 460 65 L 459 66 L 458 65 L 439 65 L 438 64 L 439 63 "></path>
        <path fill="none" stroke="#00fafa" stroke-width="3" d="M 426 294 L 427 293 L 428 294 L 431 294 L 432 295 L 433 295 L 434 296 L 434 301 L 433 302 L 432 302 L 432 303 L 431 304 L 427 304 L 426 303 L 426 302 L 424 300 L 424 297 L 423 297 L 422 296 L 422 295 L 423 294 "></path>
        <path fill="none" stroke="#00fafa" stroke-width="3" d="M 156 180 L 157 179 L 193 179 L 194 180 L 193 181 L 188 181 L 187 182 L 186 181 L 185 182 L 184 181 L 183 182 L 182 181 L 181 182 L 180 181 L 179 182 L 178 181 L 177 182 L 176 181 L 175 182 L 174 181 L 173 182 L 172 181 L 171 182 L 170 181 L 169 182 L 168 181 L 167 182 L 166 181 L 165 182 L 164 181 L 163 182 L 162 181 L 161 182 L 160 181 L 157 181 "></path>
        <path fill="none" stroke="#00fafa" stroke-width="3" d="M 270 309 L 271 308 L 277 308 L 278 309 L 279 308 L 281 308 L 282 309 L 283 308 L 284 308 L 285 309 L 286 309 L 287 308 L 288 308 L 289 309 L 290 309 L 291 308 L 292 309 L 294 309 L 295 308 L 296 309 L 301 309 L 302 310 L 301 311 L 267 311 L 266 310 L 267 309 "></path>
        <path fill="none" stroke="#00fafa" stroke-width="3" d="M 175 118 L 199 118 L 200 119 L 200 120 L 199 121 L 174 121 L 173 120 "></path>
        <path fill="none" stroke="#00fafa" stroke-width="3" d="M 363 49 L 367 49 L 368 50 L 370 50 L 372 52 L 371 53 L 370 53 L 370 54 L 372 56 L 371 57 L 363 57 L 362 56 L 362 53 L 361 53 L 360 52 "></path>
        <path fill="none" stroke="#00fafa" stroke-width="3" d="M 296 193 L 297 192 L 298 193 L 299 192 L 300 193 L 301 193 L 302 194 L 301 195 L 301 197 L 302 198 L 301 199 L 300 199 L 300 202 L 299 203 L 298 203 L 297 204 L 296 203 L 295 204 L 294 203 L 294 194 L 295 193 "></path>
        <path fill="none" stroke="#00fafa" stroke-width="3" d="M 498 135 L 499 134 L 521 134 L 522 135 L 522 136 L 521 137 L 499 137 L 498 136 "></path>
        <path fill="none" stroke="#00fafa" stroke-width="3" d="M 426 92 L 427 91 L 447 91 L 448 92 L 450 92 L 451 91 L 453 93 L 452 94 L 433 94 L 432 93 L 430 93 L 429 94 L 428 93 L 427 93 "></path>
        <path fill="none" stroke="#00fafa" stroke-width="3" d="M 236 44 L 237 43 L 269 43 L 270 44 L 269 45 L 237 45 "></path>
        <path fill="none" stroke="#00fafa" stroke-width="3" d="M 498 131 L 499 130 L 517 130 L 518 131 L 520 131 L 521 132 L 520 133 L 499 133 L 498 132 "></path>
        <path fill="none" stroke="#00fafa" stroke-width="3" d="M 214 56 L 215 55 L 245 55 L 246 56 L 245 57 L 215 57 "></path>
        <path fill="none" stroke="#00fafa" stroke-width="3" d="M 458 67 L 459 66 L 460 67 L 461 66 L 462 67 L 463 66 L 464 67 L 466 67 L 467 66 L 468 67 L 470 67 L 471 66 L 472 67 L 473 66 L 474 67 L 475 66 L 476 67 L 480 67 L 481 68 L 480 69 L 476 69 L 475 70 L 474 69 L 472 69 L 471 70 L 470 69 L 468 69 L 467 70 L 466 69 L 465 70 L 464 69 L 463 70 L 462 69 L 461 70 L 460 69 L 459 70 L 458 69 L 457 69 L 456 68 L 457 67 "></path>
        <path fill="none" stroke="#00fafa" stroke-width="3" d="M 436 30 L 437 29 L 438 30 L 439 29 L 440 30 L 441 30 L 443 32 L 442 33 L 440 33 L 440 34 L 441 34 L 443 36 L 442 37 L 433 37 L 432 36 L 433 35 L 434 35 L 435 34 L 436 34 L 437 33 L 438 33 L 432 33 L 431 32 L 432 31 L 434 31 L 435 30 "></path>
        <path fill="none" stroke="#00fafa" stroke-width="3" d="M 240 40 L 241 39 L 269 39 L 270 40 L 269 41 L 241 41 "></path>
        <path fill="none" stroke="#00fafa" stroke-width="3" d="M 354 71 L 355 70 L 373 70 L 374 71 L 374 72 L 373 73 L 371 73 L 370 72 L 369 73 L 355 73 L 354 72 "></path>
        <path fill="none" stroke="#00fafa" stroke-width="3" d="M 432 96 L 433 95 L 449 95 L 450 96 L 451 95 L 452 96 L 453 96 L 454 97 L 453 98 L 439 98 L 438 97 L 437 98 L 436 97 L 433 97 "></path>
        <path fill="none" stroke="#00fafa" stroke-width="3" d="M 483 275 L 484 274 L 508 274 L 509 275 L 508 276 L 504 276 L 503 277 L 502 276 L 501 277 L 500 276 L 499 277 L 498 276 L 497 277 L 496 276 L 488 276 L 487 277 L 486 276 L 484 276 "></path>
        <path fill="none" stroke="#00fafa" stroke-width="3" d="M 289 100 L 290 99 L 297 99 L 298 100 L 296 102 L 296 103 L 298 103 L 299 104 L 298 105 L 297 105 L 296 106 L 291 106 L 290 105 L 289 105 L 288 104 L 289 103 L 290 103 L 290 101 "></path>
        <path fill="none" stroke="#00fafa" stroke-width="3" d="M 492 68 L 493 67 L 519 67 L 520 68 L 519 69 L 493 69 "></path>
        <path fill="none" stroke="#00fafa" stroke-width="3" d="M 238 172 L 239 171 L 265 171 L 266 172 L 265 173 L 239 173 "></path>
        <path fill="none" stroke="#00fafa" stroke-width="3" d="M 260 56 L 261 55 L 284 55 L 285 56 L 284 57 L 261 57 "></path>
        <path fill="none" stroke="#00fafa" stroke-width="3" d="M 174 123 L 175 122 L 197 122 L 198 123 L 197 124 L 178 124 L 177 125 L 176 124 L 175 124 "></path>
        <path fill="none" stroke="#00fafa" stroke-width="3" d="M 262 60 L 263 59 L 285 59 L 286 60 L 285 61 L 263 61 "></path>
        <path fill="none" stroke="#00fafa" stroke-width="3" d="M 350 75 L 351 74 L 352 75 L 353 74 L 354 75 L 355 74 L 365 74 L 366 75 L 366 76 L 365 77 L 351 77 L 350 76 "></path>
        <path fill="none" stroke="#00fafa" stroke-width="3" d="M 196 164 L 197 163 L 213 163 L 214 164 L 213 165 L 212 165 L 211 166 L 210 165 L 209 166 L 208 165 L 207 166 L 206 165 L 205 166 L 199 166 L 198 165 L 197 165 "></path>
        <path fill="none" stroke="#00fafa" stroke-width="3" d="M 234 277 L 235 276 L 236 277 L 237 276 L 238 277 L 239 276 L 241 276 L 242 277 L 243 276 L 244 277 L 250 277 L 251 278 L 250 279 L 244 279 L 243 280 L 242 279 L 240 279 L 239 280 L 238 279 L 233 279 L 232 278 L 233 277 "></path>
        <path fill="none" stroke="#00fafa" stroke-width="3" d="M 427 110 L 431 110 L 432 111 L 433 111 L 434 112 L 433 113 L 432 113 L 432 116 L 431 117 L 430 116 L 429 117 L 427 117 L 426 116 L 426 115 L 427 114 L 430 114 L 427 114 L 425 112 "></path>
        <path fill="none" stroke="#00fafa" stroke-width="3" d="M 498 64 L 499 63 L 519 63 L 520 64 L 519 65 L 499 65 "></path>
        <path fill="none" stroke="#00fafa" stroke-width="3" d="M 236 24 L 237 23 L 255 23 L 256 24 L 255 25 L 237 25 "></path>
        <path fill="none" stroke="#00fafa" stroke-width="3" d="M 252 32 L 253 31 L 271 31 L 272 32 L 271 33 L 253 33 "></path>
        <path fill="none" stroke="#00fafa" stroke-width="3" d="M 190 204 L 191 203 L 209 203 L 210 204 L 209 205 L 191 205 "></path>
        <path fill="none" stroke="#00fafa" stroke-width="3" d="M 190 208 L 191 207 L 209 207 L 210 208 L 209 209 L 191 209 "></path>
        <path fill="none" stroke="#00fafa" stroke-width="3" d="M 222 60 L 223 59 L 241 59 L 242 60 L 241 61 L 223 61 "></path>
        <path fill="none" stroke="#00fafa" stroke-width="3" d="M 384 226 L 385 225 L 397 225 L 398 226 L 398 227 L 397 228 L 387 228 L 386 227 L 385 227 "></path>
        <path fill="none" stroke="#00fafa" stroke-width="3" d="M 242 231 L 243 230 L 255 230 L 256 231 L 255 232 L 254 232 L 253 233 L 251 233 L 250 232 L 249 233 L 248 233 L 247 234 L 246 233 L 243 233 L 242 232 "></path>
        <path fill="none" stroke="#00fafa" stroke-width="3" d="M 286 186 L 287 185 L 292 185 L 293 186 L 292 187 L 292 189 L 293 190 L 292 191 L 287 191 L 286 190 "></path>
        <path fill="none" stroke="#00fafa" stroke-width="3" d="M 274 31 L 275 30 L 284 30 L 286 32 L 285 33 L 273 33 L 272 32 L 273 31 "></path>
        <path fill="none" stroke="#00fafa" stroke-width="3" d="M 274 39 L 275 38 L 284 38 L 286 40 L 285 41 L 273 41 L 272 40 L 273 39 "></path>
        <path fill="none" stroke="#00fafa" stroke-width="3" d="M 385 222 L 386 221 L 397 221 L 398 222 L 398 223 L 397 224 L 387 224 "></path>
        <path fill="none" stroke="#00fafa" stroke-width="3" d="M 282 95 L 283 94 L 284 95 L 289 95 L 290 96 L 289 97 L 288 97 L 287 98 L 286 97 L 285 98 L 279 98 L 278 97 L 277 97 L 276 96 L 277 95 "></path>
        <path fill="none" stroke="#00fafa" stroke-width="3" d="M 436 38 L 437 37 L 438 38 L 439 37 L 440 38 L 441 38 L 442 39 L 443 39 L 444 40 L 443 41 L 431 41 L 430 40 L 431 39 L 434 39 L 435 38 "></path>
        <path fill="none" stroke="#00fafa" stroke-width="3" d="M 274 35 L 275 34 L 284 34 L 285 35 L 285 36 L 284 37 L 273 37 L 272 36 L 273 35 "></path>
        <path fill="none" stroke="#00fafa" stroke-width="3" d="M 347 214 L 348 213 L 364 213 L 365 214 L 364 215 L 348 215 "></path>
        <path fill="none" stroke="#00fafa" stroke-width="3" d="M 362 67 L 363 66 L 373 66 L 374 67 L 374 68 L 373 69 L 363 69 L 362 68 "></path>
        <path fill="none" stroke="#00fafa" stroke-width="3" d="M 334 286 L 335 285 L 345 285 L 346 286 L 346 287 L 345 288 L 335 288 L 334 287 "></path>
        <path fill="none" stroke="#00fafa" stroke-width="3" d="M 462 71 L 463 70 L 464 71 L 466 71 L 467 70 L 468 71 L 471 71 L 472 72 L 471 73 L 468 73 L 467 74 L 466 73 L 457 73 L 456 72 L 457 71 "></path>
        <path fill="none" stroke="#00fafa" stroke-width="3" d="M 334 282 L 335 281 L 344 281 L 346 283 L 345 284 L 335 284 L 334 283 "></path>
        <path fill="none" stroke="#00fafa" stroke-width="3" d="M 494 228 L 495 227 L 496 228 L 497 227 L 498 228 L 498 229 L 497 230 L 496 230 L 499 230 L 500 231 L 500 233 L 499 234 L 498 233 L 497 234 L 495 234 L 494 233 "></path>
        <path fill="none" stroke="#00fafa" stroke-width="3" d="M 277 92 L 278 91 L 289 91 L 290 92 L 289 93 L 288 93 L 287 94 L 286 93 L 285 93 L 284 94 L 279 94 "></path>
        <path fill="none" stroke="#00fafa" stroke-width="3" d="M 248 342 L 249 341 L 262 341 L 263 342 L 261 344 L 259 344 L 258 343 L 249 343 "></path>
    </g>
</svg>
