<svg xmlns="http://www.w3.org/2000/svg" xmlns:xlink="http://www.w3.org/1999/xlink" version="1.1" x="0" y="0" width="1056px" height="816px">
    <g id="rootLayer" transform="translate(0.000000, 0.000000)">
        <path fill="none" stroke="#ffffff" stroke-width="3" d="M 373 5 L 371 7 L 370 7 L 369 8 L 368 8 L 367 9 L 365 9 L 363 11 L 362 11 L 360 13 L 358 13 L 354 17 L 353 17 L 352 18 L 352 19 L 350 21 L 349 21 L 348 22 L 348 24 L 347 25 L 346 25 L 346 27 L 344 29 L 344 32 L 343 33 L 343 39 L 344 40 L 344 42 L 346 44 L 346 46 L 347 46 L 349 48 L 348 49 L 351 52 L 351 53 L 353 55 L 361 55 L 362 54 L 362 53 L 361 52 L 363 50 L 364 50 L 365 49 L 366 50 L 370 50 L 371 51 L 371 52 L 370 53 L 369 53 L 371 55 L 371 56 L 370 57 L 369 57 L 369 58 L 370 59 L 370 60 L 369 61 L 361 61 L 361 62 L 359 64 L 358 64 L 357 65 L 357 66 L 358 67 L 362 67 L 363 66 L 373 66 L 374 67 L 380 67 L 381 66 L 382 66 L 383 65 L 384 65 L 385 64 L 386 65 L 387 64 L 388 65 L 389 65 L 391 67 L 390 68 L 390 70 L 393 70 L 394 71 L 395 70 L 422 70 L 423 71 L 425 71 L 426 72 L 426 75 L 427 76 L 426 77 L 426 79 L 425 80 L 422 80 L 421 81 L 411 81 L 410 80 L 409 81 L 405 81 L 406 82 L 406 86 L 407 87 L 407 88 L 406 89 L 406 91 L 404 93 L 399 93 L 398 92 L 398 89 L 397 88 L 397 87 L 398 86 L 398 85 L 397 84 L 398 83 L 398 81 L 397 81 L 396 80 L 394 80 L 393 81 L 387 81 L 386 80 L 385 81 L 384 80 L 378 80 L 377 81 L 376 80 L 375 81 L 374 80 L 373 81 L 371 81 L 370 80 L 369 81 L 368 80 L 367 81 L 345 81 L 345 82 L 346 83 L 344 85 L 338 85 L 338 89 L 339 90 L 364 90 L 366 92 L 365 93 L 366 94 L 366 96 L 365 97 L 365 98 L 366 99 L 365 100 L 364 100 L 363 101 L 362 101 L 362 102 L 363 103 L 363 104 L 362 105 L 363 105 L 366 108 L 366 110 L 367 111 L 367 112 L 366 113 L 366 116 L 365 117 L 345 117 L 344 116 L 342 116 L 341 115 L 342 114 L 342 113 L 341 112 L 341 111 L 342 110 L 342 109 L 341 109 L 340 108 L 338 108 L 337 109 L 335 109 L 334 108 L 322 108 L 321 109 L 313 109 L 312 108 L 311 108 L 310 107 L 310 105 L 309 105 L 308 104 L 309 103 L 310 103 L 311 102 L 316 102 L 317 101 L 317 100 L 318 99 L 318 98 L 319 97 L 318 96 L 318 95 L 319 94 L 320 94 L 320 92 L 321 91 L 321 89 L 320 89 L 318 87 L 317 87 L 315 85 L 307 85 L 306 84 L 297 84 L 296 85 L 291 85 L 289 87 L 289 88 L 288 89 L 287 89 L 287 91 L 288 92 L 288 93 L 286 95 L 287 95 L 288 96 L 287 97 L 285 97 L 284 98 L 279 98 L 278 97 L 266 97 L 265 98 L 264 98 L 262 100 L 258 100 L 257 101 L 256 100 L 244 100 L 241 97 L 236 97 L 235 98 L 234 97 L 226 97 L 225 98 L 225 99 L 226 100 L 226 101 L 225 102 L 226 103 L 228 103 L 229 104 L 228 105 L 224 105 L 223 106 L 195 106 L 194 105 L 192 105 L 191 104 L 192 103 L 193 103 L 193 102 L 191 100 L 193 98 L 193 96 L 194 95 L 194 93 L 193 92 L 193 89 L 192 88 L 194 86 L 194 84 L 195 83 L 197 83 L 198 82 L 198 80 L 199 79 L 200 79 L 201 78 L 202 78 L 202 77 L 205 74 L 204 73 L 195 73 L 193 71 L 194 70 L 194 68 L 196 66 L 198 66 L 198 63 L 200 61 L 199 60 L 199 59 L 200 58 L 197 55 L 197 54 L 194 51 L 194 48 L 193 47 L 193 46 L 192 45 L 158 45 L 157 46 L 158 47 L 157 48 L 156 48 L 155 49 L 149 49 L 149 51 L 147 53 L 134 53 L 133 54 L 134 55 L 133 56 L 132 56 L 131 57 L 126 57 L 125 58 L 126 59 L 126 60 L 124 62 L 125 62 L 126 63 L 125 64 L 124 64 L 123 65 L 121 65 L 121 66 L 122 67 L 122 68 L 121 69 L 121 70 L 122 71 L 121 72 L 120 72 L 120 74 L 121 75 L 119 77 L 120 78 L 120 79 L 119 80 L 118 80 L 117 81 L 110 81 L 110 82 L 111 82 L 112 83 L 114 83 L 115 84 L 114 85 L 113 85 L 114 86 L 121 86 L 122 87 L 121 88 L 118 88 L 117 89 L 114 89 L 113 90 L 114 91 L 113 92 L 112 92 L 111 93 L 113 95 L 112 96 L 112 98 L 113 98 L 114 99 L 113 100 L 108 100 L 107 101 L 106 100 L 103 100 L 102 101 L 99 101 L 98 102 L 98 105 L 97 106 L 97 109 L 96 110 L 96 113 L 95 114 L 94 114 L 93 115 L 92 115 L 90 117 L 63 117 L 62 118 L 62 119 L 63 120 L 62 121 L 62 122 L 61 123 L 60 123 L 59 124 L 58 123 L 57 124 L 56 123 L 55 124 L 54 123 L 52 123 L 51 124 L 50 123 L 47 123 L 44 120 L 45 119 L 45 118 L 44 117 L 4 117 L 3 116 L 2 116 L 1 117 L 1 119 L 2 120 L 1 121 L 1 123 L 2 124 L 2 125 L 1 126 L 2 127 L 2 128 L 1 129 L 1 131 L 2 132 L 1 133 L 1 190 L 2 191 L 34 191 L 35 190 L 36 191 L 37 190 L 38 191 L 39 190 L 40 190 L 41 191 L 43 191 L 45 193 L 45 194 L 46 194 L 47 195 L 53 195 L 54 196 L 55 195 L 58 195 L 58 192 L 59 191 L 60 191 L 61 190 L 61 187 L 62 186 L 61 185 L 7 185 L 5 183 L 6 182 L 6 181 L 5 180 L 5 179 L 6 178 L 6 177 L 5 176 L 5 175 L 6 174 L 6 171 L 7 170 L 7 169 L 6 168 L 7 167 L 9 167 L 10 166 L 35 166 L 36 167 L 39 167 L 40 168 L 38 170 L 38 173 L 37 174 L 38 175 L 46 175 L 47 174 L 48 175 L 50 175 L 51 174 L 53 174 L 54 175 L 55 174 L 56 175 L 61 175 L 62 174 L 62 173 L 61 172 L 62 171 L 62 169 L 52 169 L 51 170 L 50 169 L 48 169 L 46 167 L 46 166 L 44 164 L 46 162 L 45 161 L 47 159 L 55 159 L 56 160 L 57 160 L 58 161 L 58 162 L 59 162 L 60 163 L 66 163 L 67 162 L 69 162 L 70 163 L 71 162 L 72 163 L 110 163 L 111 162 L 112 163 L 123 163 L 124 162 L 123 161 L 121 161 L 119 159 L 119 158 L 117 158 L 116 157 L 115 158 L 114 157 L 113 158 L 109 158 L 108 157 L 107 158 L 106 157 L 101 157 L 100 156 L 101 155 L 102 155 L 103 154 L 104 154 L 104 153 L 103 152 L 104 151 L 190 151 L 191 150 L 197 150 L 198 151 L 226 151 L 226 149 L 225 149 L 224 148 L 224 147 L 223 146 L 221 146 L 220 145 L 215 145 L 214 144 L 215 143 L 218 143 L 218 142 L 217 141 L 217 140 L 218 139 L 262 139 L 263 138 L 262 137 L 253 137 L 252 136 L 252 135 L 253 134 L 254 134 L 251 134 L 250 133 L 246 133 L 245 132 L 246 131 L 250 131 L 251 130 L 252 131 L 253 130 L 254 131 L 255 130 L 256 131 L 288 131 L 289 130 L 290 131 L 291 130 L 292 131 L 293 130 L 303 130 L 303 129 L 302 128 L 302 127 L 303 126 L 304 126 L 305 125 L 304 124 L 306 122 L 333 122 L 334 123 L 338 123 L 339 122 L 340 123 L 343 123 L 345 125 L 345 129 L 344 130 L 344 132 L 343 133 L 342 132 L 341 133 L 318 133 L 317 134 L 318 135 L 318 137 L 317 138 L 318 139 L 317 140 L 316 140 L 315 141 L 293 141 L 292 142 L 294 144 L 294 146 L 296 148 L 294 150 L 294 152 L 293 153 L 274 153 L 273 154 L 275 156 L 274 157 L 274 159 L 275 160 L 274 161 L 212 161 L 211 162 L 210 161 L 208 161 L 207 162 L 206 161 L 197 161 L 196 162 L 196 163 L 199 163 L 201 165 L 200 166 L 201 166 L 202 167 L 203 166 L 204 167 L 206 167 L 207 166 L 208 167 L 233 167 L 234 168 L 233 169 L 220 169 L 219 170 L 218 169 L 216 169 L 215 170 L 214 169 L 212 169 L 211 170 L 210 169 L 162 169 L 161 170 L 160 170 L 160 172 L 159 173 L 136 173 L 136 175 L 149 175 L 150 176 L 150 177 L 151 178 L 151 179 L 152 180 L 151 181 L 151 182 L 150 183 L 150 184 L 149 185 L 143 185 L 143 186 L 144 187 L 147 187 L 148 186 L 152 186 L 153 187 L 154 187 L 155 188 L 154 189 L 153 189 L 153 190 L 154 191 L 154 192 L 152 194 L 154 196 L 152 198 L 153 198 L 154 199 L 154 200 L 152 202 L 153 203 L 151 205 L 122 205 L 121 206 L 121 210 L 122 211 L 122 213 L 121 214 L 121 218 L 122 219 L 137 219 L 138 220 L 138 221 L 137 222 L 138 223 L 138 226 L 139 227 L 145 227 L 146 228 L 145 229 L 144 229 L 143 230 L 142 230 L 143 230 L 144 231 L 146 231 L 147 232 L 146 233 L 140 233 L 139 234 L 138 233 L 132 233 L 131 234 L 130 233 L 129 234 L 128 233 L 122 233 L 121 234 L 120 234 L 120 236 L 122 238 L 123 238 L 126 241 L 127 241 L 128 242 L 128 243 L 130 245 L 131 245 L 132 246 L 133 245 L 134 246 L 135 245 L 139 245 L 140 244 L 162 244 L 163 243 L 173 243 L 174 244 L 206 244 L 207 243 L 213 243 L 214 244 L 215 243 L 217 243 L 218 244 L 219 243 L 221 243 L 222 244 L 223 243 L 225 243 L 226 244 L 227 243 L 229 243 L 230 244 L 231 243 L 235 243 L 236 242 L 239 242 L 240 243 L 241 242 L 242 243 L 243 242 L 247 242 L 248 243 L 253 243 L 253 237 L 252 236 L 252 235 L 253 234 L 257 234 L 258 235 L 268 235 L 269 234 L 269 233 L 268 232 L 269 231 L 269 230 L 268 229 L 259 229 L 257 227 L 258 226 L 258 223 L 259 222 L 278 222 L 278 221 L 279 220 L 280 220 L 281 219 L 284 219 L 285 218 L 286 218 L 286 214 L 287 213 L 288 213 L 289 212 L 290 212 L 291 211 L 294 211 L 294 210 L 295 209 L 295 208 L 296 207 L 295 206 L 296 205 L 306 205 L 307 204 L 308 205 L 309 204 L 310 204 L 311 203 L 321 203 L 322 202 L 322 193 L 321 193 L 320 192 L 319 192 L 318 191 L 315 191 L 314 190 L 314 186 L 315 185 L 321 185 L 322 184 L 322 182 L 323 181 L 323 179 L 322 178 L 323 177 L 324 177 L 325 176 L 326 177 L 327 176 L 329 176 L 330 177 L 331 176 L 334 176 L 335 175 L 336 175 L 338 173 L 338 171 L 339 170 L 340 170 L 341 169 L 369 169 L 370 168 L 370 166 L 359 166 L 358 165 L 358 162 L 357 161 L 357 158 L 343 158 L 342 157 L 342 154 L 341 153 L 341 152 L 342 151 L 342 145 L 341 144 L 342 143 L 342 140 L 343 139 L 352 139 L 352 137 L 351 136 L 351 135 L 352 134 L 351 134 L 350 133 L 350 132 L 351 131 L 372 131 L 374 133 L 373 134 L 374 135 L 374 137 L 373 138 L 373 141 L 372 142 L 373 143 L 373 145 L 372 146 L 373 147 L 373 149 L 372 150 L 373 151 L 373 153 L 372 154 L 372 156 L 373 157 L 372 158 L 373 159 L 381 159 L 384 162 L 384 164 L 381 167 L 378 167 L 376 169 L 376 172 L 375 173 L 374 173 L 374 174 L 373 175 L 372 175 L 371 176 L 370 176 L 369 177 L 369 178 L 368 179 L 342 179 L 341 180 L 340 180 L 339 181 L 338 181 L 339 182 L 338 183 L 336 183 L 335 184 L 334 184 L 334 186 L 333 187 L 333 189 L 361 189 L 362 190 L 361 191 L 362 192 L 362 200 L 359 203 L 350 203 L 350 208 L 347 211 L 342 211 L 342 212 L 343 213 L 343 214 L 342 215 L 343 216 L 343 217 L 342 218 L 341 218 L 340 219 L 334 219 L 334 221 L 356 221 L 357 222 L 356 223 L 356 225 L 357 226 L 356 227 L 354 227 L 353 228 L 344 228 L 343 229 L 342 229 L 340 231 L 319 231 L 319 232 L 318 233 L 319 234 L 318 235 L 311 235 L 310 236 L 310 240 L 309 241 L 309 242 L 308 243 L 290 243 L 289 244 L 289 246 L 288 247 L 287 247 L 286 248 L 286 250 L 285 251 L 282 251 L 281 252 L 280 252 L 280 254 L 279 255 L 278 255 L 278 259 L 277 260 L 277 261 L 278 262 L 277 263 L 277 266 L 276 267 L 276 269 L 277 270 L 276 271 L 276 273 L 277 274 L 276 275 L 276 277 L 277 278 L 276 279 L 276 280 L 278 282 L 278 285 L 279 286 L 279 288 L 280 289 L 280 293 L 281 294 L 280 295 L 280 296 L 281 297 L 309 297 L 310 296 L 310 295 L 312 293 L 337 293 L 338 294 L 349 294 L 350 293 L 350 292 L 349 291 L 349 290 L 350 289 L 350 288 L 349 287 L 350 286 L 361 286 L 362 285 L 362 284 L 361 283 L 361 282 L 364 279 L 371 279 L 372 280 L 373 280 L 374 281 L 413 281 L 414 280 L 414 278 L 415 277 L 415 275 L 416 274 L 417 274 L 418 273 L 434 273 L 435 272 L 444 272 L 447 275 L 447 276 L 446 277 L 446 278 L 447 279 L 446 280 L 446 282 L 447 283 L 447 284 L 446 285 L 446 286 L 447 287 L 446 288 L 444 288 L 443 289 L 442 288 L 441 289 L 440 288 L 439 289 L 438 288 L 432 288 L 431 289 L 430 288 L 428 288 L 427 289 L 426 288 L 424 288 L 423 289 L 422 288 L 420 288 L 419 289 L 418 288 L 417 288 L 416 289 L 410 289 L 409 288 L 404 288 L 403 289 L 402 289 L 402 290 L 403 291 L 403 292 L 402 293 L 404 295 L 404 299 L 405 300 L 404 301 L 404 302 L 405 303 L 405 304 L 404 305 L 404 306 L 405 307 L 404 308 L 404 311 L 405 312 L 404 313 L 404 314 L 405 315 L 405 316 L 406 317 L 406 318 L 407 319 L 407 320 L 408 321 L 408 322 L 409 323 L 409 324 L 410 325 L 410 326 L 412 328 L 412 329 L 414 331 L 415 331 L 416 332 L 416 334 L 417 334 L 418 335 L 419 335 L 420 336 L 420 338 L 421 338 L 422 339 L 427 339 L 428 340 L 428 341 L 430 341 L 431 342 L 430 343 L 430 345 L 431 346 L 431 347 L 432 348 L 432 349 L 433 349 L 435 351 L 436 351 L 438 353 L 443 353 L 444 354 L 444 355 L 445 355 L 446 356 L 447 356 L 448 357 L 455 357 L 456 358 L 457 357 L 461 357 L 463 355 L 468 355 L 468 354 L 470 352 L 470 351 L 469 350 L 470 349 L 470 348 L 471 347 L 472 347 L 472 346 L 473 345 L 474 345 L 474 342 L 475 341 L 476 341 L 478 339 L 478 333 L 479 332 L 480 332 L 481 331 L 482 332 L 483 331 L 484 332 L 486 332 L 487 331 L 488 331 L 488 330 L 487 329 L 487 326 L 486 325 L 488 323 L 490 323 L 491 322 L 494 322 L 495 321 L 494 320 L 494 317 L 492 315 L 493 314 L 494 314 L 494 312 L 495 311 L 498 311 L 499 310 L 509 310 L 510 311 L 511 310 L 512 310 L 513 309 L 512 308 L 512 303 L 513 302 L 513 289 L 512 288 L 503 288 L 502 287 L 503 286 L 504 286 L 504 285 L 503 285 L 502 284 L 485 284 L 484 283 L 485 282 L 504 282 L 504 280 L 503 280 L 502 279 L 503 278 L 509 278 L 510 279 L 511 279 L 512 280 L 515 280 L 518 283 L 518 284 L 519 285 L 518 286 L 520 288 L 521 288 L 522 289 L 522 295 L 523 295 L 524 296 L 525 295 L 526 295 L 526 237 L 525 237 L 524 236 L 523 237 L 522 236 L 521 237 L 518 237 L 517 238 L 514 238 L 513 239 L 512 238 L 510 238 L 509 237 L 507 237 L 506 236 L 506 234 L 504 232 L 506 230 L 506 228 L 507 227 L 508 227 L 509 226 L 510 227 L 511 226 L 526 226 L 526 217 L 525 217 L 524 216 L 523 217 L 516 217 L 517 218 L 515 220 L 511 220 L 509 218 L 509 217 L 503 217 L 502 216 L 502 214 L 503 213 L 502 213 L 501 212 L 504 209 L 511 209 L 512 210 L 513 209 L 516 209 L 514 207 L 514 206 L 515 205 L 516 205 L 515 205 L 514 204 L 515 203 L 516 203 L 517 202 L 521 202 L 522 203 L 525 203 L 526 202 L 526 183 L 525 182 L 526 181 L 526 180 L 525 179 L 526 178 L 526 92 L 525 91 L 526 90 L 526 69 L 525 68 L 526 67 L 526 65 L 525 64 L 526 63 L 526 21 L 525 20 L 522 20 L 521 21 L 500 21 L 497 18 L 497 17 L 496 16 L 497 15 L 497 13 L 495 13 L 494 12 L 493 12 L 490 9 L 488 9 L 486 7 L 486 6 L 485 5 L 478 5 L 475 8 L 472 8 L 471 9 L 469 9 L 468 10 L 468 11 L 466 13 L 464 13 L 464 15 L 462 17 L 461 17 L 459 19 L 458 18 L 458 17 L 456 17 L 455 16 L 455 14 L 454 13 L 453 13 L 452 12 L 452 11 L 450 9 L 449 9 L 448 8 L 447 8 L 446 7 L 446 6 L 445 5 L 425 5 L 424 6 L 422 6 L 422 7 L 423 8 L 423 9 L 422 10 L 412 10 L 410 8 L 411 7 L 411 6 L 410 5 "></path>
        <path fill="none" stroke="#ffffff" stroke-width="3" d="M 453 40 L 454 39 L 456 39 L 457 40 L 457 41 L 458 42 L 459 42 L 460 43 L 461 43 L 462 44 L 462 46 L 463 46 L 464 47 L 506 47 L 507 48 L 506 49 L 506 51 L 507 52 L 506 53 L 506 54 L 505 55 L 505 56 L 504 57 L 423 57 L 422 56 L 422 53 L 421 52 L 422 51 L 422 49 L 421 48 L 422 47 L 422 45 L 421 44 L 423 42 L 433 42 L 434 43 L 435 42 L 436 43 L 437 42 L 438 43 L 439 42 L 440 43 L 441 42 L 442 43 L 443 42 L 445 42 L 446 43 L 447 42 L 448 43 L 449 42 L 452 42 L 453 41 "></path>
        <path fill="none" stroke="#ffffff" stroke-width="3" d="M 214 175 L 215 174 L 216 175 L 237 175 L 238 176 L 238 177 L 237 178 L 238 179 L 240 179 L 241 180 L 240 181 L 239 181 L 238 182 L 238 183 L 239 183 L 240 184 L 239 185 L 219 185 L 218 184 L 219 183 L 220 183 L 220 182 L 218 180 L 219 179 L 220 179 L 221 178 L 220 177 L 205 177 L 204 176 L 205 175 "></path>
        <path fill="none" stroke="#ffffff" stroke-width="3" d="M 158 91 L 159 90 L 160 91 L 161 90 L 165 90 L 166 91 L 167 90 L 171 90 L 172 91 L 175 91 L 176 92 L 176 95 L 177 96 L 173 100 L 159 100 L 158 99 L 158 97 L 156 95 L 158 93 "></path>
        <path fill="none" stroke="#ffffff" stroke-width="3" d="M 426 99 L 427 98 L 428 99 L 444 99 L 446 101 L 445 102 L 444 102 L 446 104 L 446 105 L 445 106 L 438 106 L 436 108 L 435 108 L 434 109 L 432 109 L 431 110 L 428 110 L 426 108 L 426 105 L 425 104 L 426 103 "></path>
        <path fill="none" stroke="#ffffff" stroke-width="3" d="M 176 139 L 177 138 L 185 138 L 186 139 L 196 139 L 197 140 L 197 142 L 198 142 L 199 143 L 199 144 L 197 146 L 198 147 L 198 148 L 197 149 L 190 149 L 189 148 L 189 147 L 190 146 L 189 146 L 188 145 L 188 144 L 190 142 L 190 141 L 180 141 L 179 142 L 178 141 L 174 141 L 173 140 L 174 139 "></path>
        <path fill="none" stroke="#ffffff" stroke-width="3" d="M 422 295 L 423 294 L 431 294 L 433 296 L 433 297 L 434 298 L 434 300 L 432 302 L 432 303 L 431 304 L 427 304 L 426 303 L 426 302 L 424 300 L 424 297 "></path>
        <path fill="none" stroke="#ffffff" stroke-width="3" d="M 454 218 L 455 217 L 457 217 L 459 219 L 458 220 L 456 220 L 455 221 L 454 220 L 440 220 L 439 221 L 438 220 L 423 220 L 422 219 L 423 218 "></path>
        <path fill="none" stroke="#ffffff" stroke-width="3" d="M 498 135 L 499 134 L 520 134 L 522 136 L 521 137 L 499 137 L 498 136 "></path>
        <path fill="none" stroke="#ffffff" stroke-width="3" d="M 158 180 L 159 179 L 189 179 L 190 180 L 189 181 L 159 181 "></path>
        <path fill="none" stroke="#ffffff" stroke-width="3" d="M 294 194 L 295 193 L 301 193 L 302 194 L 301 195 L 300 195 L 300 197 L 301 198 L 300 199 L 300 200 L 299 201 L 298 201 L 299 201 L 300 202 L 299 203 L 295 203 L 294 202 "></path>
        <path fill="none" stroke="#ffffff" stroke-width="3" d="M 162 176 L 163 175 L 191 175 L 192 176 L 191 177 L 163 177 "></path>
        <path fill="none" stroke="#ffffff" stroke-width="3" d="M 438 30 L 439 29 L 440 30 L 441 30 L 443 32 L 442 33 L 441 33 L 441 34 L 442 35 L 442 36 L 441 37 L 434 37 L 433 36 L 434 35 L 434 34 L 435 33 L 434 33 L 433 32 L 435 30 "></path>
        <path fill="none" stroke="#ffffff" stroke-width="3" d="M 174 119 L 175 118 L 197 118 L 198 119 L 197 120 L 184 120 L 183 121 L 182 120 L 181 121 L 175 121 L 174 120 "></path>
        <path fill="none" stroke="#ffffff" stroke-width="3" d="M 214 171 L 215 170 L 216 171 L 217 170 L 218 171 L 219 170 L 220 171 L 225 171 L 226 172 L 225 173 L 220 173 L 219 174 L 218 173 L 217 174 L 213 174 L 212 173 L 211 174 L 210 173 L 205 173 L 204 172 L 205 171 "></path>
        <path fill="none" stroke="#ffffff" stroke-width="3" d="M 220 200 L 221 199 L 244 199 L 245 200 L 244 201 L 221 201 "></path>
        <path fill="none" stroke="#ffffff" stroke-width="3" d="M 500 131 L 501 130 L 502 131 L 503 130 L 504 131 L 506 131 L 507 130 L 508 131 L 510 131 L 511 130 L 512 131 L 513 130 L 514 131 L 515 130 L 516 131 L 519 131 L 520 132 L 519 133 L 499 133 L 498 132 L 499 131 "></path>
        <path fill="none" stroke="#ffffff" stroke-width="3" d="M 221 196 L 222 195 L 244 195 L 245 196 L 244 197 L 222 197 "></path>
        <path fill="none" stroke="#ffffff" stroke-width="3" d="M 290 100 L 291 99 L 296 99 L 297 100 L 297 101 L 296 102 L 296 103 L 297 103 L 298 104 L 296 106 L 291 106 L 289 104 L 290 103 L 292 103 L 292 102 "></path>
        <path fill="none" stroke="#ffffff" stroke-width="3" d="M 486 275 L 487 274 L 507 274 L 508 275 L 507 276 L 487 276 "></path>
        <path fill="none" stroke="#ffffff" stroke-width="3" d="M 457 68 L 458 67 L 478 67 L 479 68 L 478 69 L 458 69 "></path>
        <path fill="none" stroke="#ffffff" stroke-width="3" d="M 456 64 L 457 63 L 477 63 L 478 64 L 477 65 L 457 65 "></path>
        <path fill="none" stroke="#ffffff" stroke-width="3" d="M 432 92 L 433 91 L 445 91 L 446 92 L 447 92 L 448 93 L 447 94 L 435 94 L 434 93 L 433 93 "></path>
        <path fill="none" stroke="#ffffff" stroke-width="3" d="M 385 226 L 386 225 L 396 225 L 398 227 L 397 228 L 387 228 "></path>
        <path fill="none" stroke="#ffffff" stroke-width="3" d="M 286 186 L 287 185 L 291 185 L 292 186 L 292 190 L 291 191 L 287 191 L 286 190 "></path>
        <path fill="none" stroke="#ffffff" stroke-width="3" d="M 78 155 L 79 154 L 81 154 L 82 155 L 82 157 L 81 158 L 80 158 L 81 158 L 82 159 L 82 160 L 81 161 L 79 161 L 78 160 L 78 158 L 75 158 L 74 157 L 75 156 L 76 156 L 77 155 "></path>
        <path fill="none" stroke="#ffffff" stroke-width="3" d="M 484 279 L 485 278 L 500 278 L 501 279 L 500 280 L 485 280 "></path>
    </g>
</svg>
