<svg xmlns="http://www.w3.org/2000/svg" xmlns:xlink="http://www.w3.org/1999/xlink" version="1.1" x="0" y="0" width="1056px" height="816px">
    <g id="rootLayer" transform="translate(0.000000, 0.000000)">
        <path fill="none" stroke="#fa00fa" stroke-width="3" d="M 358 5 L 354 9 L 352 9 L 351 10 L 350 10 L 350 11 L 348 13 L 346 13 L 345 14 L 345 16 L 344 17 L 342 17 L 341 18 L 341 20 L 338 23 L 338 24 L 337 25 L 337 26 L 336 27 L 337 28 L 335 30 L 335 31 L 336 32 L 334 34 L 334 35 L 335 36 L 334 37 L 334 38 L 336 40 L 335 41 L 336 42 L 336 43 L 337 44 L 337 46 L 338 47 L 339 47 L 342 50 L 343 50 L 345 52 L 345 54 L 346 55 L 361 55 L 361 54 L 362 53 L 361 52 L 361 51 L 363 49 L 367 49 L 368 50 L 370 50 L 372 52 L 371 53 L 370 53 L 370 54 L 372 56 L 371 57 L 370 57 L 370 58 L 377 58 L 378 59 L 378 60 L 377 61 L 360 61 L 360 63 L 359 64 L 354 64 L 353 65 L 352 65 L 352 66 L 353 66 L 354 67 L 356 67 L 357 66 L 358 67 L 359 66 L 375 66 L 376 67 L 378 67 L 379 66 L 382 66 L 383 65 L 384 65 L 384 64 L 385 63 L 386 64 L 387 63 L 388 64 L 388 65 L 389 65 L 391 67 L 391 68 L 390 69 L 391 70 L 422 70 L 423 71 L 427 71 L 428 72 L 427 73 L 426 73 L 426 75 L 427 75 L 428 76 L 427 77 L 426 77 L 426 80 L 425 81 L 406 81 L 406 86 L 408 88 L 407 89 L 406 89 L 406 90 L 407 91 L 405 93 L 399 93 L 397 91 L 398 90 L 398 89 L 397 89 L 396 88 L 396 87 L 397 86 L 398 86 L 398 85 L 397 84 L 398 83 L 398 81 L 342 81 L 342 82 L 343 83 L 343 84 L 342 85 L 339 85 L 339 88 L 338 89 L 339 90 L 365 90 L 366 91 L 366 92 L 365 93 L 366 94 L 367 94 L 368 95 L 369 94 L 373 94 L 374 95 L 375 95 L 376 96 L 375 97 L 365 97 L 366 98 L 366 99 L 364 101 L 362 101 L 362 102 L 363 102 L 364 103 L 364 104 L 363 105 L 362 105 L 363 105 L 364 106 L 365 106 L 367 108 L 366 109 L 366 110 L 368 112 L 367 113 L 366 113 L 366 114 L 367 115 L 369 115 L 370 116 L 369 117 L 342 117 L 340 115 L 341 114 L 342 114 L 342 113 L 341 113 L 340 112 L 342 110 L 342 109 L 334 109 L 333 108 L 326 108 L 325 109 L 311 109 L 310 108 L 310 105 L 309 105 L 308 104 L 311 101 L 312 102 L 313 101 L 314 102 L 315 101 L 316 102 L 317 101 L 316 100 L 317 99 L 318 99 L 319 98 L 320 98 L 321 97 L 322 97 L 319 97 L 318 96 L 318 95 L 319 94 L 329 94 L 329 93 L 328 92 L 328 89 L 327 89 L 326 88 L 326 87 L 327 86 L 328 86 L 328 85 L 327 85 L 326 84 L 326 83 L 327 82 L 328 82 L 329 81 L 330 81 L 330 80 L 331 79 L 332 79 L 334 77 L 333 76 L 335 74 L 340 74 L 341 73 L 342 73 L 342 72 L 343 71 L 343 70 L 342 69 L 342 65 L 340 65 L 336 61 L 332 61 L 328 57 L 327 57 L 326 56 L 326 53 L 324 53 L 321 50 L 319 50 L 318 49 L 316 49 L 315 50 L 314 50 L 311 53 L 302 53 L 300 51 L 299 52 L 298 51 L 294 51 L 293 52 L 292 51 L 291 52 L 290 52 L 289 53 L 286 53 L 286 55 L 284 57 L 282 57 L 282 59 L 280 61 L 276 61 L 276 64 L 275 65 L 258 65 L 258 66 L 259 67 L 259 68 L 258 69 L 258 70 L 259 70 L 260 71 L 262 71 L 263 72 L 261 74 L 263 76 L 261 78 L 262 79 L 263 79 L 264 80 L 263 81 L 261 81 L 260 82 L 260 83 L 261 83 L 262 84 L 261 85 L 260 85 L 259 86 L 260 87 L 260 88 L 258 90 L 259 90 L 260 91 L 270 91 L 271 90 L 272 91 L 275 91 L 276 92 L 275 93 L 267 93 L 266 94 L 266 95 L 267 95 L 268 96 L 267 97 L 266 97 L 265 98 L 265 99 L 263 101 L 245 101 L 244 100 L 243 100 L 242 99 L 242 98 L 231 98 L 230 97 L 226 97 L 225 98 L 225 99 L 226 99 L 227 100 L 226 101 L 226 102 L 227 102 L 228 103 L 229 103 L 230 104 L 229 105 L 228 105 L 227 106 L 226 105 L 225 106 L 204 106 L 204 107 L 203 108 L 200 108 L 199 109 L 198 109 L 198 110 L 200 112 L 200 114 L 202 116 L 202 118 L 204 120 L 203 121 L 203 123 L 201 125 L 200 125 L 199 126 L 199 127 L 197 129 L 196 129 L 196 130 L 197 131 L 195 133 L 194 133 L 194 139 L 246 139 L 247 138 L 248 139 L 254 139 L 255 138 L 254 137 L 247 137 L 246 136 L 246 135 L 247 134 L 248 135 L 249 134 L 250 135 L 250 134 L 247 134 L 246 133 L 245 133 L 244 132 L 245 131 L 246 131 L 247 130 L 248 131 L 249 130 L 250 131 L 251 130 L 255 130 L 256 131 L 257 130 L 258 131 L 259 130 L 260 131 L 286 131 L 287 130 L 305 130 L 305 129 L 304 128 L 295 128 L 294 127 L 295 126 L 304 126 L 304 125 L 295 125 L 294 124 L 296 122 L 299 122 L 300 123 L 301 122 L 302 123 L 303 122 L 333 122 L 334 123 L 337 123 L 338 122 L 341 122 L 342 123 L 343 123 L 345 125 L 345 126 L 346 127 L 346 128 L 344 130 L 344 132 L 343 133 L 318 133 L 317 134 L 318 135 L 318 137 L 317 138 L 318 139 L 318 140 L 317 141 L 293 141 L 292 142 L 293 142 L 295 144 L 294 145 L 294 146 L 295 147 L 303 147 L 304 148 L 303 149 L 295 149 L 294 150 L 294 152 L 293 153 L 274 153 L 273 154 L 275 156 L 274 157 L 274 158 L 275 159 L 275 160 L 274 161 L 272 161 L 271 162 L 270 161 L 244 161 L 243 162 L 242 161 L 241 162 L 240 161 L 239 162 L 238 161 L 237 162 L 236 161 L 235 162 L 234 161 L 233 162 L 232 161 L 231 162 L 230 161 L 229 162 L 228 161 L 227 162 L 226 161 L 225 162 L 224 161 L 223 162 L 222 161 L 221 162 L 220 161 L 219 162 L 218 161 L 216 161 L 215 162 L 214 161 L 213 162 L 212 161 L 211 162 L 210 161 L 209 162 L 208 161 L 207 162 L 206 161 L 205 162 L 203 162 L 202 161 L 201 162 L 197 162 L 196 161 L 195 162 L 194 161 L 193 162 L 192 161 L 191 162 L 190 161 L 189 162 L 188 161 L 187 162 L 186 161 L 185 162 L 184 161 L 183 162 L 182 161 L 181 162 L 180 161 L 179 162 L 178 161 L 162 161 L 161 162 L 161 163 L 162 164 L 162 165 L 161 166 L 160 166 L 160 167 L 197 167 L 198 166 L 209 166 L 210 167 L 211 166 L 212 167 L 265 167 L 266 168 L 265 169 L 236 169 L 235 170 L 234 169 L 233 170 L 231 170 L 230 169 L 229 170 L 227 170 L 226 169 L 225 170 L 223 170 L 222 169 L 221 170 L 203 170 L 202 169 L 201 170 L 199 170 L 198 169 L 197 170 L 196 169 L 195 170 L 194 169 L 192 169 L 191 170 L 190 169 L 189 170 L 188 169 L 187 170 L 186 169 L 185 170 L 184 169 L 183 170 L 182 169 L 181 170 L 180 169 L 179 170 L 178 169 L 177 170 L 176 169 L 175 170 L 174 169 L 173 170 L 172 169 L 171 170 L 170 169 L 169 170 L 168 169 L 167 170 L 166 169 L 156 169 L 155 170 L 154 169 L 144 169 L 143 170 L 142 169 L 141 170 L 140 169 L 139 170 L 138 169 L 137 170 L 136 169 L 135 170 L 134 169 L 133 170 L 132 169 L 131 170 L 130 169 L 128 169 L 127 170 L 126 169 L 125 170 L 124 170 L 126 172 L 125 173 L 105 173 L 104 174 L 105 174 L 106 175 L 126 175 L 127 174 L 128 175 L 138 175 L 139 174 L 140 175 L 141 174 L 142 175 L 143 174 L 144 175 L 213 175 L 214 174 L 211 174 L 210 173 L 209 174 L 207 174 L 206 173 L 205 174 L 204 173 L 203 174 L 202 173 L 200 173 L 199 174 L 198 173 L 197 174 L 196 173 L 195 174 L 194 173 L 193 174 L 192 173 L 191 174 L 190 173 L 188 173 L 187 174 L 186 173 L 184 173 L 183 174 L 182 173 L 180 173 L 179 174 L 178 173 L 176 173 L 175 174 L 174 173 L 172 173 L 171 174 L 170 173 L 168 173 L 167 174 L 166 173 L 164 173 L 163 174 L 162 173 L 159 173 L 158 172 L 159 171 L 213 171 L 214 170 L 221 170 L 222 171 L 223 170 L 224 171 L 265 171 L 266 172 L 265 173 L 221 173 L 220 174 L 216 174 L 217 174 L 218 175 L 219 174 L 220 175 L 239 175 L 240 176 L 239 177 L 238 177 L 238 178 L 239 178 L 240 179 L 242 179 L 243 180 L 242 181 L 240 181 L 239 182 L 238 182 L 238 183 L 242 183 L 243 184 L 242 185 L 226 185 L 225 186 L 224 185 L 223 186 L 222 185 L 157 185 L 156 184 L 157 183 L 220 183 L 220 182 L 219 182 L 218 181 L 188 181 L 187 182 L 186 181 L 185 182 L 184 181 L 183 182 L 182 181 L 181 182 L 180 181 L 179 182 L 178 181 L 177 182 L 176 181 L 175 182 L 174 181 L 173 182 L 172 181 L 171 182 L 170 181 L 169 182 L 168 181 L 167 182 L 166 181 L 165 182 L 163 182 L 162 181 L 161 182 L 160 181 L 159 182 L 158 181 L 157 181 L 156 180 L 157 179 L 220 179 L 220 178 L 219 177 L 188 177 L 187 178 L 186 177 L 185 178 L 184 177 L 183 178 L 182 177 L 180 177 L 179 178 L 178 177 L 176 177 L 175 178 L 174 177 L 172 177 L 171 178 L 170 177 L 168 177 L 167 178 L 166 177 L 165 178 L 164 177 L 163 178 L 162 177 L 161 178 L 160 177 L 159 178 L 158 177 L 152 177 L 151 178 L 153 180 L 150 183 L 151 184 L 150 185 L 144 185 L 143 186 L 144 186 L 145 187 L 146 187 L 147 186 L 153 186 L 154 187 L 155 187 L 156 188 L 155 189 L 154 189 L 153 190 L 155 192 L 153 194 L 152 194 L 153 194 L 155 196 L 153 198 L 155 200 L 153 202 L 152 202 L 153 203 L 153 204 L 152 205 L 122 205 L 121 206 L 121 208 L 122 209 L 121 210 L 122 211 L 122 219 L 138 219 L 139 220 L 137 222 L 139 224 L 138 225 L 138 226 L 139 226 L 140 227 L 146 227 L 147 228 L 146 229 L 145 229 L 144 230 L 142 230 L 145 230 L 146 231 L 147 231 L 148 232 L 147 233 L 144 233 L 143 234 L 142 233 L 141 234 L 140 233 L 139 234 L 138 233 L 137 234 L 136 233 L 135 234 L 134 233 L 133 234 L 127 234 L 126 233 L 125 234 L 124 233 L 123 234 L 110 234 L 110 235 L 112 237 L 116 237 L 117 236 L 121 236 L 122 237 L 123 237 L 124 238 L 125 238 L 128 241 L 128 243 L 130 245 L 138 245 L 139 244 L 161 244 L 162 243 L 173 243 L 174 244 L 175 243 L 176 244 L 178 244 L 179 243 L 180 244 L 204 244 L 205 243 L 234 243 L 235 242 L 248 242 L 249 243 L 253 243 L 253 238 L 252 237 L 251 237 L 250 236 L 249 237 L 243 237 L 242 236 L 242 235 L 243 234 L 259 234 L 260 235 L 268 235 L 269 234 L 269 233 L 268 232 L 269 231 L 269 230 L 268 229 L 258 229 L 257 228 L 257 227 L 258 226 L 257 225 L 257 224 L 259 222 L 277 222 L 279 220 L 280 220 L 281 219 L 284 219 L 286 217 L 286 216 L 285 215 L 287 213 L 288 213 L 289 212 L 290 212 L 291 211 L 293 211 L 294 210 L 294 209 L 295 208 L 295 207 L 294 206 L 295 205 L 306 205 L 307 204 L 309 204 L 310 203 L 321 203 L 322 202 L 322 197 L 321 196 L 322 195 L 321 194 L 321 193 L 320 192 L 320 191 L 319 192 L 318 191 L 317 192 L 316 191 L 315 192 L 314 191 L 314 186 L 315 185 L 323 185 L 324 186 L 323 187 L 320 187 L 320 189 L 361 189 L 362 190 L 362 193 L 363 194 L 362 195 L 362 197 L 363 198 L 362 199 L 362 202 L 361 203 L 350 203 L 350 210 L 349 211 L 342 211 L 342 212 L 344 214 L 343 215 L 343 217 L 341 219 L 334 219 L 334 220 L 335 221 L 350 221 L 351 220 L 353 220 L 354 221 L 357 221 L 358 222 L 357 223 L 356 223 L 356 224 L 358 226 L 357 227 L 354 227 L 353 228 L 344 228 L 341 231 L 320 231 L 319 232 L 319 233 L 320 234 L 319 235 L 311 235 L 310 236 L 310 242 L 309 243 L 291 243 L 289 245 L 289 246 L 287 248 L 287 249 L 288 250 L 287 251 L 267 251 L 266 252 L 266 253 L 267 254 L 267 256 L 268 257 L 275 257 L 276 258 L 275 259 L 268 259 L 268 261 L 275 261 L 276 262 L 275 263 L 252 263 L 251 264 L 251 265 L 252 265 L 253 266 L 252 267 L 252 268 L 253 269 L 265 269 L 266 270 L 265 271 L 231 271 L 230 272 L 230 277 L 231 277 L 232 278 L 231 279 L 227 279 L 226 278 L 225 278 L 224 277 L 220 277 L 219 278 L 218 278 L 218 280 L 216 282 L 216 287 L 217 288 L 219 288 L 220 289 L 222 289 L 223 290 L 222 291 L 222 293 L 223 294 L 222 295 L 222 297 L 223 298 L 222 299 L 222 301 L 223 301 L 224 302 L 224 304 L 229 304 L 230 305 L 235 305 L 236 306 L 235 307 L 230 307 L 230 308 L 231 309 L 231 310 L 230 311 L 230 313 L 231 314 L 230 315 L 230 316 L 231 316 L 232 317 L 239 317 L 240 318 L 239 319 L 239 320 L 240 320 L 241 321 L 245 321 L 246 322 L 246 324 L 247 324 L 248 325 L 256 325 L 258 323 L 257 322 L 259 320 L 259 319 L 258 318 L 260 316 L 259 315 L 258 315 L 257 314 L 258 313 L 274 313 L 274 311 L 267 311 L 266 310 L 267 309 L 270 309 L 271 308 L 272 308 L 269 308 L 268 307 L 265 307 L 264 306 L 265 305 L 301 305 L 302 304 L 302 303 L 301 302 L 301 301 L 302 300 L 300 298 L 301 297 L 308 297 L 309 296 L 310 296 L 310 294 L 311 293 L 338 293 L 339 294 L 348 294 L 349 293 L 350 293 L 350 292 L 349 291 L 349 288 L 348 287 L 349 286 L 350 286 L 351 285 L 352 286 L 353 285 L 354 286 L 355 285 L 356 286 L 360 286 L 361 285 L 362 285 L 362 284 L 361 283 L 361 282 L 362 281 L 362 280 L 363 279 L 366 279 L 367 278 L 368 279 L 371 279 L 372 280 L 373 280 L 374 281 L 413 281 L 413 280 L 414 279 L 414 275 L 415 274 L 416 274 L 417 273 L 433 273 L 434 272 L 436 272 L 437 271 L 438 272 L 439 271 L 440 272 L 441 271 L 442 272 L 443 271 L 444 272 L 445 272 L 446 273 L 446 274 L 447 274 L 448 275 L 447 276 L 447 280 L 446 281 L 448 283 L 447 284 L 447 286 L 448 287 L 447 288 L 444 288 L 443 289 L 442 288 L 441 289 L 439 289 L 438 288 L 437 289 L 436 288 L 435 289 L 434 288 L 433 289 L 394 289 L 393 288 L 391 288 L 390 289 L 390 290 L 391 291 L 390 292 L 390 294 L 398 294 L 399 293 L 400 294 L 402 294 L 403 293 L 404 294 L 407 294 L 408 295 L 407 296 L 405 296 L 404 297 L 395 297 L 394 296 L 390 296 L 389 297 L 389 299 L 388 300 L 388 306 L 389 307 L 389 308 L 388 309 L 390 311 L 389 312 L 389 314 L 390 315 L 388 317 L 388 321 L 389 322 L 391 322 L 392 323 L 395 323 L 398 326 L 398 331 L 400 333 L 402 333 L 403 332 L 404 332 L 405 331 L 406 331 L 407 330 L 408 331 L 409 330 L 410 331 L 411 330 L 415 334 L 415 335 L 414 336 L 414 341 L 422 341 L 423 340 L 426 340 L 427 339 L 428 339 L 430 341 L 431 341 L 432 342 L 431 343 L 431 344 L 430 345 L 431 345 L 432 346 L 431 347 L 430 347 L 428 349 L 422 349 L 423 350 L 422 351 L 422 353 L 423 354 L 420 357 L 410 357 L 408 359 L 408 365 L 409 366 L 408 367 L 410 369 L 411 369 L 412 370 L 412 371 L 413 371 L 414 372 L 414 373 L 420 373 L 422 375 L 423 375 L 424 376 L 425 376 L 426 377 L 431 377 L 432 378 L 432 379 L 434 379 L 436 381 L 443 381 L 445 383 L 447 383 L 448 384 L 451 384 L 452 385 L 453 384 L 454 385 L 455 384 L 456 384 L 457 383 L 457 382 L 458 381 L 458 378 L 459 377 L 459 375 L 458 374 L 459 373 L 460 373 L 460 371 L 459 370 L 460 369 L 460 366 L 461 365 L 461 363 L 460 362 L 460 360 L 461 359 L 460 358 L 460 357 L 461 356 L 462 356 L 463 355 L 469 355 L 468 354 L 469 353 L 469 352 L 470 351 L 469 351 L 468 350 L 471 347 L 472 347 L 471 346 L 472 345 L 473 345 L 474 344 L 474 343 L 473 342 L 474 341 L 476 341 L 478 339 L 478 332 L 479 331 L 483 331 L 484 332 L 485 331 L 486 332 L 487 331 L 488 331 L 488 330 L 486 328 L 486 324 L 487 323 L 490 323 L 491 322 L 494 322 L 494 320 L 493 319 L 494 318 L 494 317 L 493 316 L 492 316 L 491 315 L 492 314 L 494 314 L 494 312 L 495 311 L 496 311 L 497 310 L 512 310 L 512 303 L 513 302 L 513 300 L 512 299 L 513 298 L 513 297 L 512 296 L 512 295 L 513 294 L 513 289 L 512 288 L 483 288 L 482 287 L 483 286 L 504 286 L 504 285 L 503 285 L 502 284 L 500 284 L 499 285 L 498 284 L 497 285 L 496 284 L 495 285 L 494 284 L 493 285 L 492 284 L 491 285 L 490 284 L 489 285 L 487 285 L 486 284 L 483 284 L 482 283 L 483 282 L 504 282 L 504 280 L 500 280 L 499 281 L 498 280 L 496 280 L 495 281 L 494 280 L 493 281 L 492 280 L 491 281 L 490 280 L 489 281 L 488 280 L 487 281 L 486 280 L 485 281 L 484 280 L 483 280 L 482 279 L 483 278 L 509 278 L 510 279 L 511 279 L 512 280 L 517 280 L 518 281 L 518 284 L 519 285 L 518 286 L 520 288 L 521 288 L 522 289 L 522 291 L 523 291 L 524 292 L 525 292 L 526 291 L 526 282 L 525 281 L 525 280 L 526 279 L 525 278 L 525 275 L 526 274 L 526 236 L 523 236 L 522 237 L 518 237 L 517 238 L 516 238 L 515 239 L 514 238 L 513 239 L 512 238 L 511 239 L 510 238 L 509 238 L 508 237 L 507 237 L 506 236 L 506 234 L 504 232 L 504 231 L 505 230 L 506 230 L 505 229 L 506 228 L 506 227 L 507 226 L 518 226 L 519 225 L 520 226 L 526 226 L 526 225 L 525 224 L 525 222 L 526 221 L 526 217 L 525 216 L 523 216 L 522 217 L 517 217 L 518 218 L 516 220 L 511 220 L 510 219 L 509 219 L 508 218 L 508 217 L 502 217 L 501 216 L 502 215 L 502 213 L 501 212 L 501 211 L 503 209 L 516 209 L 513 206 L 514 205 L 515 205 L 514 204 L 514 203 L 515 202 L 522 202 L 523 203 L 525 203 L 526 202 L 526 183 L 525 182 L 526 181 L 526 180 L 525 179 L 525 178 L 526 177 L 526 176 L 525 175 L 525 174 L 526 173 L 526 79 L 525 78 L 525 72 L 526 71 L 526 65 L 525 64 L 526 63 L 526 49 L 525 48 L 526 47 L 526 37 L 525 36 L 526 35 L 526 29 L 525 28 L 526 27 L 526 25 L 525 24 L 526 23 L 526 21 L 525 20 L 523 20 L 522 21 L 497 21 L 496 20 L 496 17 L 495 17 L 494 16 L 494 15 L 495 14 L 495 13 L 494 13 L 493 12 L 493 9 L 492 8 L 493 7 L 493 6 L 494 5 L 426 5 L 425 6 L 418 6 L 418 7 L 419 7 L 420 8 L 424 8 L 425 9 L 424 10 L 412 10 L 411 9 L 411 8 L 412 7 L 414 7 L 413 6 L 411 6 L 410 5 "></path>
        <path fill="none" stroke="#00fafa" stroke-width="3" d="M 350 132 L 351 131 L 373 131 L 374 132 L 374 133 L 373 134 L 374 135 L 374 137 L 373 138 L 374 139 L 374 141 L 373 142 L 373 143 L 374 144 L 372 146 L 374 148 L 372 150 L 374 152 L 374 153 L 373 154 L 372 154 L 373 155 L 373 157 L 372 158 L 373 158 L 374 159 L 378 159 L 379 158 L 380 159 L 381 159 L 385 163 L 381 167 L 380 167 L 379 168 L 376 168 L 375 169 L 374 168 L 373 168 L 372 167 L 372 166 L 359 166 L 358 165 L 357 165 L 356 164 L 358 162 L 357 161 L 357 159 L 358 158 L 342 158 L 340 156 L 342 154 L 340 152 L 342 150 L 341 149 L 341 147 L 342 146 L 341 145 L 341 143 L 342 142 L 341 141 L 343 139 L 352 139 L 352 138 L 350 136 L 350 135 L 351 134 L 350 133 "></path>
        <path fill="none" stroke="#00fafa" stroke-width="3" d="M 422 43 L 423 42 L 437 42 L 438 43 L 439 42 L 440 43 L 441 43 L 442 44 L 441 45 L 440 45 L 441 46 L 453 46 L 454 47 L 455 47 L 456 48 L 455 49 L 456 50 L 470 50 L 470 48 L 471 47 L 502 47 L 503 46 L 504 47 L 507 47 L 508 48 L 506 50 L 508 52 L 506 54 L 506 56 L 505 57 L 472 57 L 471 58 L 470 57 L 469 58 L 468 57 L 467 58 L 466 57 L 465 58 L 464 57 L 463 58 L 462 57 L 461 58 L 460 57 L 459 58 L 458 57 L 457 58 L 456 57 L 423 57 L 422 56 L 422 53 L 421 52 L 421 51 L 422 50 L 422 49 L 421 48 L 421 47 L 422 46 L 422 45 L 421 45 L 420 44 L 421 43 "></path>
        <path fill="none" stroke="#00fafa" stroke-width="3" d="M 346 169 L 347 168 L 348 169 L 349 168 L 350 169 L 351 168 L 352 169 L 353 168 L 354 169 L 355 168 L 356 169 L 370 169 L 371 168 L 372 169 L 374 169 L 376 171 L 376 172 L 375 173 L 374 173 L 375 174 L 374 175 L 372 175 L 371 176 L 370 176 L 370 178 L 369 179 L 368 179 L 367 180 L 366 179 L 365 180 L 364 179 L 363 180 L 362 179 L 344 179 L 343 180 L 342 179 L 341 180 L 340 179 L 339 180 L 338 179 L 334 179 L 333 180 L 332 179 L 332 181 L 341 181 L 342 182 L 341 183 L 332 183 L 331 184 L 330 183 L 329 184 L 327 184 L 326 183 L 325 184 L 324 183 L 323 183 L 322 182 L 322 176 L 323 175 L 326 175 L 327 174 L 328 175 L 331 175 L 332 176 L 332 177 L 332 176 L 333 175 L 334 176 L 334 177 L 334 176 L 335 175 L 336 176 L 336 177 L 336 175 L 338 173 L 337 172 L 337 171 L 339 169 "></path>
        <path fill="none" stroke="#00fafa" stroke-width="3" d="M 427 98 L 429 98 L 430 99 L 445 99 L 446 100 L 446 101 L 445 102 L 444 102 L 446 104 L 446 105 L 445 106 L 438 106 L 438 107 L 437 108 L 436 108 L 435 109 L 433 109 L 432 110 L 427 110 L 425 108 L 426 107 L 426 105 L 425 105 L 424 104 L 426 102 L 426 101 L 425 100 "></path>
        <path fill="none" stroke="#00fafa" stroke-width="3" d="M 157 200 L 158 199 L 246 199 L 247 200 L 246 201 L 158 201 "></path>
        <path fill="none" stroke="#00fafa" stroke-width="3" d="M 158 192 L 159 191 L 247 191 L 248 192 L 247 193 L 159 193 "></path>
        <path fill="none" stroke="#00fafa" stroke-width="3" d="M 158 196 L 159 195 L 246 195 L 247 196 L 246 197 L 159 197 "></path>
        <path fill="none" stroke="#00fafa" stroke-width="3" d="M 458 63 L 459 62 L 460 63 L 462 63 L 463 62 L 464 63 L 466 63 L 467 62 L 468 63 L 470 63 L 471 62 L 472 63 L 497 63 L 498 64 L 497 65 L 476 65 L 475 66 L 474 65 L 473 66 L 472 65 L 471 66 L 470 65 L 468 65 L 467 66 L 466 65 L 464 65 L 463 66 L 462 65 L 461 66 L 460 65 L 459 66 L 458 65 L 438 65 L 437 64 L 438 63 "></path>
        <path fill="none" stroke="#00fafa" stroke-width="3" d="M 454 213 L 457 213 L 458 214 L 460 214 L 461 215 L 460 216 L 458 216 L 457 217 L 456 217 L 457 217 L 458 218 L 459 218 L 460 219 L 459 220 L 458 220 L 457 221 L 451 221 L 450 220 L 449 221 L 448 220 L 447 221 L 446 220 L 445 221 L 443 221 L 442 220 L 441 221 L 439 221 L 438 220 L 437 221 L 435 221 L 434 220 L 433 221 L 431 221 L 430 220 L 429 221 L 428 220 L 427 221 L 426 220 L 425 221 L 423 221 L 422 220 L 422 219 L 423 218 L 452 218 L 453 217 L 454 217 L 454 216 L 453 216 L 452 215 "></path>
        <path fill="none" stroke="#00fafa" stroke-width="3" d="M 158 188 L 159 187 L 217 187 L 218 188 L 217 189 L 159 189 "></path>
        <path fill="none" stroke="#00fafa" stroke-width="3" d="M 426 294 L 427 293 L 428 294 L 431 294 L 432 295 L 433 295 L 434 296 L 434 301 L 433 302 L 432 302 L 432 303 L 431 304 L 427 304 L 426 303 L 426 302 L 424 300 L 424 297 L 423 297 L 422 296 L 422 295 L 423 294 "></path>
        <path fill="none" stroke="#00fafa" stroke-width="3" d="M 458 67 L 459 66 L 460 67 L 461 66 L 462 67 L 463 66 L 464 67 L 466 67 L 467 66 L 468 67 L 470 67 L 471 66 L 472 67 L 473 66 L 474 67 L 475 66 L 476 67 L 487 67 L 488 68 L 487 69 L 478 69 L 477 70 L 476 69 L 475 70 L 474 69 L 473 70 L 472 69 L 471 70 L 470 69 L 468 69 L 467 70 L 466 69 L 465 70 L 464 69 L 463 70 L 462 69 L 461 70 L 460 69 L 459 70 L 458 69 L 455 69 L 454 68 L 455 67 "></path>
        <path fill="none" stroke="#00fafa" stroke-width="3" d="M 502 134 L 503 133 L 504 134 L 514 134 L 515 133 L 516 134 L 518 134 L 519 133 L 520 134 L 521 134 L 522 135 L 522 136 L 521 137 L 499 137 L 498 136 L 497 136 L 496 135 L 497 134 "></path>
        <path fill="none" stroke="#00fafa" stroke-width="3" d="M 296 193 L 297 192 L 298 193 L 299 192 L 300 193 L 301 193 L 302 194 L 301 195 L 301 197 L 302 198 L 301 199 L 300 199 L 300 201 L 301 202 L 300 203 L 298 203 L 297 204 L 296 203 L 295 204 L 294 203 L 294 194 L 295 193 "></path>
        <path fill="none" stroke="#00fafa" stroke-width="3" d="M 276 92 L 277 91 L 289 91 L 290 92 L 289 93 L 288 93 L 287 94 L 284 94 L 284 95 L 289 95 L 290 96 L 289 97 L 288 97 L 287 98 L 279 98 L 278 97 L 277 97 L 276 96 L 277 95 L 282 95 L 282 94 L 279 94 L 278 93 L 277 93 "></path>
        <path fill="none" stroke="#00fafa" stroke-width="3" d="M 436 30 L 437 29 L 438 30 L 439 29 L 440 30 L 441 30 L 442 31 L 443 31 L 444 32 L 443 33 L 440 33 L 440 34 L 441 34 L 443 36 L 442 37 L 432 37 L 431 36 L 432 35 L 434 35 L 434 34 L 435 33 L 436 33 L 431 33 L 430 32 L 431 31 L 434 31 L 435 30 "></path>
        <path fill="none" stroke="#00fafa" stroke-width="3" d="M 426 92 L 427 91 L 447 91 L 448 92 L 449 91 L 450 92 L 451 91 L 453 93 L 452 94 L 433 94 L 432 93 L 430 93 L 429 94 L 428 93 L 427 93 "></path>
        <path fill="none" stroke="#00fafa" stroke-width="3" d="M 498 131 L 499 130 L 517 130 L 518 131 L 519 130 L 520 131 L 521 131 L 522 132 L 521 133 L 499 133 L 498 132 "></path>
        <path fill="none" stroke="#00fafa" stroke-width="3" d="M 462 71 L 463 70 L 464 71 L 466 71 L 467 70 L 468 71 L 473 71 L 474 72 L 473 73 L 468 73 L 468 75 L 472 75 L 473 76 L 472 77 L 470 77 L 469 78 L 468 77 L 467 78 L 466 77 L 463 77 L 462 76 L 463 75 L 466 75 L 466 73 L 455 73 L 454 72 L 455 71 "></path>
        <path fill="none" stroke="#00fafa" stroke-width="3" d="M 490 68 L 491 67 L 520 67 L 521 68 L 520 69 L 491 69 "></path>
        <path fill="none" stroke="#00fafa" stroke-width="3" d="M 432 96 L 433 95 L 452 95 L 454 97 L 453 98 L 437 98 L 436 97 L 433 97 "></path>
        <path fill="none" stroke="#00fafa" stroke-width="3" d="M 289 100 L 290 99 L 297 99 L 298 100 L 296 102 L 296 103 L 298 103 L 299 104 L 297 106 L 296 106 L 295 107 L 294 106 L 291 106 L 290 105 L 289 105 L 288 104 L 289 103 L 290 103 L 290 101 "></path>
        <path fill="none" stroke="#00fafa" stroke-width="3" d="M 483 275 L 484 274 L 508 274 L 509 275 L 508 276 L 504 276 L 503 277 L 502 276 L 501 277 L 500 276 L 499 277 L 498 276 L 497 277 L 496 276 L 495 277 L 494 276 L 488 276 L 487 277 L 486 276 L 484 276 "></path>
        <path fill="none" stroke="#00fafa" stroke-width="3" d="M 386 252 L 387 251 L 397 251 L 398 252 L 397 253 L 392 253 L 392 255 L 395 255 L 396 256 L 395 257 L 387 257 L 386 256 L 386 254 L 387 253 L 390 253 L 387 253 "></path>
        <path fill="none" stroke="#00fafa" stroke-width="3" d="M 234 277 L 235 276 L 241 276 L 242 277 L 243 276 L 245 276 L 246 277 L 250 277 L 251 278 L 250 279 L 244 279 L 243 280 L 242 279 L 240 279 L 239 280 L 238 279 L 236 279 L 235 280 L 234 279 L 233 279 L 232 278 L 233 277 "></path>
        <path fill="none" stroke="#00fafa" stroke-width="3" d="M 196 164 L 197 163 L 213 163 L 214 164 L 213 165 L 212 165 L 211 166 L 210 165 L 209 166 L 199 166 L 198 165 L 197 165 "></path>
        <path fill="none" stroke="#00fafa" stroke-width="3" d="M 474 299 L 475 298 L 497 298 L 498 299 L 497 300 L 475 300 "></path>
        <path fill="none" stroke="#00fafa" stroke-width="3" d="M 426 111 L 427 110 L 431 110 L 432 111 L 433 111 L 434 112 L 433 113 L 432 113 L 432 114 L 433 115 L 431 117 L 430 116 L 429 117 L 427 117 L 426 116 L 426 115 L 427 114 L 428 114 L 427 114 L 426 113 L 425 113 L 424 112 L 425 111 "></path>
        <path fill="none" stroke="#00fafa" stroke-width="3" d="M 498 64 L 499 63 L 520 63 L 521 64 L 520 65 L 499 65 "></path>
        <path fill="none" stroke="#00fafa" stroke-width="3" d="M 242 231 L 243 230 L 255 230 L 256 231 L 256 232 L 255 233 L 254 232 L 253 233 L 248 233 L 247 234 L 246 233 L 245 234 L 244 233 L 243 234 L 242 233 "></path>
        <path fill="none" stroke="#00fafa" stroke-width="3" d="M 190 208 L 191 207 L 211 207 L 212 208 L 211 209 L 191 209 "></path>
        <path fill="none" stroke="#00fafa" stroke-width="3" d="M 190 204 L 191 203 L 210 203 L 211 204 L 210 205 L 191 205 "></path>
        <path fill="none" stroke="#00fafa" stroke-width="3" d="M 346 214 L 347 213 L 365 213 L 366 214 L 365 215 L 347 215 "></path>
        <path fill="none" stroke="#00fafa" stroke-width="3" d="M 426 84 L 427 83 L 445 83 L 446 84 L 445 85 L 427 85 "></path>
        <path fill="none" stroke="#00fafa" stroke-width="3" d="M 384 226 L 385 225 L 397 225 L 398 226 L 398 227 L 397 228 L 387 228 L 386 227 L 385 227 "></path>
        <path fill="none" stroke="#00fafa" stroke-width="3" d="M 286 186 L 287 185 L 292 185 L 293 186 L 292 187 L 292 189 L 293 190 L 292 191 L 287 191 L 286 190 "></path>
        <path fill="none" stroke="#00fafa" stroke-width="3" d="M 385 222 L 386 221 L 397 221 L 398 222 L 398 223 L 397 224 L 387 224 "></path>
        <path fill="none" stroke="#00fafa" stroke-width="3" d="M 386 258 L 387 257 L 389 257 L 390 258 L 390 259 L 390 258 L 391 257 L 392 258 L 392 259 L 399 259 L 400 260 L 399 261 L 387 261 L 386 260 L 387 259 L 388 259 L 387 259 "></path>
        <path fill="none" stroke="#00fafa" stroke-width="3" d="M 333 286 L 334 285 L 345 285 L 346 286 L 346 287 L 345 288 L 335 288 "></path>
        <path fill="none" stroke="#00fafa" stroke-width="3" d="M 334 282 L 335 281 L 345 281 L 346 282 L 346 283 L 345 284 L 335 284 L 334 283 "></path>
        <path fill="none" stroke="#00fafa" stroke-width="3" d="M 494 228 L 495 227 L 496 228 L 497 227 L 498 228 L 498 229 L 497 230 L 496 230 L 499 230 L 500 231 L 500 233 L 499 234 L 498 233 L 497 234 L 495 234 L 494 233 "></path>
    </g>
</svg>
