<svg xmlns="http://www.w3.org/2000/svg" xmlns:xlink="http://www.w3.org/1999/xlink" version="1.1" x="0" y="0" width="1056px" height="816px">
    <g id="rootLayer" transform="translate(0.000000, 0.000000)">
        <path fill="none" stroke="#00fafa" stroke-width="3" d="M 88 62 L 89 63 L 90 63 L 91 62 L 92 62 L 93 63 L 94 63 L 95 62 L 96 62 L 97 63 L 98 63 L 99 62 L 100 62 L 101 63 L 102 63 L 103 62 L 104 62 L 105 63 L 106 63 L 107 62 L 108 62 L 109 63 L 110 63 L 111 62 L 112 62 L 113 63 L 114 63 L 115 62 L 116 62 L 117 63 L 118 63 L 119 62 L 121 64 L 120 65 L 121 66 L 122 66 L 123 65 L 124 66 L 124 68 L 123 69 L 122 68 L 121 68 L 120 69 L 121 70 L 121 71 L 120 72 L 120 73 L 121 74 L 121 75 L 120 76 L 120 77 L 121 78 L 121 79 L 120 80 L 117 80 L 116 81 L 117 82 L 118 82 L 119 81 L 120 82 L 120 83 L 119 84 L 117 84 L 116 85 L 117 86 L 118 86 L 119 85 L 120 86 L 120 87 L 119 88 L 117 88 L 116 89 L 115 89 L 114 88 L 113 88 L 112 89 L 113 90 L 113 91 L 112 92 L 112 93 L 113 94 L 113 95 L 112 96 L 112 97 L 113 98 L 111 100 L 101 100 L 100 101 L 101 102 L 101 103 L 100 104 L 100 106 L 99 107 L 98 106 L 96 108 L 97 109 L 97 111 L 96 112 L 97 113 L 97 114 L 96 115 L 95 115 L 94 114 L 93 114 L 93 115 L 92 116 L 91 116 L 90 115 L 90 114 L 89 115 L 89 116 L 88 117 L 87 117 L 86 116 L 86 115 L 85 115 L 85 116 L 84 117 L 83 117 L 82 116 L 82 114 L 81 115 L 81 116 L 79 118 L 78 117 L 78 114 L 77 115 L 77 116 L 75 118 L 74 117 L 74 114 L 73 115 L 73 116 L 72 117 L 70 115 L 70 114 L 68 116 L 67 116 L 66 115 L 66 114 L 65 115 L 65 116 L 64 117 L 63 117 L 62 116 L 62 114 L 61 115 L 63 117 L 61 119 L 62 120 L 62 121 L 60 123 L 59 123 L 58 122 L 57 123 L 55 123 L 54 122 L 53 123 L 51 123 L 50 122 L 48 122 L 47 121 L 47 117 L 46 116 L 46 114 L 45 115 L 45 116 L 44 117 L 43 117 L 42 116 L 42 114 L 41 115 L 41 116 L 40 117 L 39 117 L 38 116 L 38 114 L 35 114 L 34 113 L 34 106 L 33 107 L 34 108 L 32 110 L 30 108 L 30 106 L 29 107 L 29 108 L 28 109 L 27 109 L 26 108 L 26 106 L 25 107 L 25 108 L 24 109 L 23 109 L 22 108 L 22 106 L 21 107 L 21 108 L 20 109 L 19 108 L 19 106 L 18 105 L 18 99 L 19 98 L 18 97 L 18 96 L 19 95 L 19 92 L 20 91 L 21 92 L 21 95 L 22 95 L 22 92 L 24 90 L 25 91 L 28 91 L 29 92 L 29 95 L 30 95 L 30 92 L 31 91 L 35 91 L 36 90 L 37 91 L 38 91 L 38 89 L 37 88 L 38 87 L 38 85 L 37 84 L 38 83 L 38 81 L 37 81 L 36 82 L 35 82 L 34 81 L 34 80 L 35 79 L 39 79 L 40 78 L 41 79 L 43 79 L 44 78 L 45 79 L 47 79 L 48 78 L 49 79 L 51 79 L 52 78 L 53 79 L 54 79 L 54 72 L 56 70 L 57 71 L 58 71 L 59 70 L 60 70 L 61 71 L 64 71 L 65 72 L 65 73 L 64 74 L 65 75 L 65 77 L 64 78 L 65 79 L 66 79 L 67 78 L 68 78 L 69 79 L 70 79 L 71 78 L 72 78 L 73 79 L 74 79 L 75 78 L 76 78 L 77 79 L 77 81 L 76 82 L 75 82 L 74 81 L 73 81 L 72 82 L 73 83 L 74 83 L 75 82 L 76 82 L 77 83 L 78 83 L 79 82 L 80 82 L 81 83 L 82 83 L 83 82 L 84 82 L 85 83 L 86 83 L 87 82 L 88 82 L 89 83 L 90 83 L 91 82 L 92 82 L 93 83 L 94 83 L 95 82 L 96 82 L 97 83 L 98 83 L 98 81 L 97 81 L 96 82 L 95 82 L 94 81 L 93 81 L 92 82 L 91 82 L 90 81 L 89 81 L 88 82 L 87 82 L 86 81 L 85 81 L 84 82 L 83 82 L 82 81 L 81 81 L 80 82 L 79 82 L 78 81 L 78 79 L 79 78 L 80 78 L 81 79 L 82 79 L 83 78 L 84 78 L 85 79 L 86 79 L 87 78 L 88 78 L 89 79 L 90 79 L 91 78 L 92 78 L 93 79 L 94 79 L 95 78 L 96 78 L 97 79 L 98 79 L 98 77 L 97 77 L 96 78 L 95 78 L 94 77 L 93 77 L 92 78 L 91 78 L 90 77 L 90 75 L 91 74 L 92 74 L 93 75 L 94 75 L 95 74 L 96 74 L 97 75 L 98 75 L 98 73 L 97 73 L 96 74 L 95 74 L 94 73 L 93 73 L 92 74 L 91 74 L 90 73 L 89 73 L 88 74 L 87 74 L 86 73 L 85 73 L 84 74 L 83 74 L 82 73 L 81 73 L 80 74 L 79 74 L 78 73 L 78 72 L 80 70 L 81 71 L 82 71 L 83 70 L 84 70 L 85 71 L 86 71 L 87 70 L 88 70 L 89 71 L 90 71 L 91 70 L 92 70 L 93 71 L 94 71 L 95 70 L 96 70 L 97 71 L 98 71 L 98 69 L 97 69 L 96 70 L 95 70 L 94 69 L 93 69 L 92 70 L 91 70 L 90 69 L 89 69 L 88 70 L 87 70 L 86 69 L 85 69 L 84 70 L 83 70 L 82 69 L 81 69 L 80 70 L 79 70 L 78 69 L 78 67 L 79 66 L 80 66 L 81 67 L 82 67 L 83 66 L 84 66 L 85 67 L 86 67 L 87 66 L 88 66 L 89 67 L 90 67 L 91 66 L 92 66 L 93 67 L 94 67 L 95 66 L 96 66 L 97 67 L 98 67 L 98 65 L 97 65 L 96 66 L 95 66 L 94 65 L 93 65 L 92 66 L 91 66 L 90 65 L 89 65 L 88 66 L 87 66 L 86 65 L 86 64 "></path>
        <path fill="none" stroke="#00fafa" stroke-width="3" d="M 434 272 L 435 271 L 436 271 L 437 272 L 438 272 L 439 271 L 440 271 L 441 272 L 442 272 L 443 271 L 444 271 L 445 272 L 446 272 L 447 271 L 448 272 L 448 273 L 449 274 L 449 276 L 448 277 L 449 278 L 449 280 L 448 281 L 449 282 L 449 284 L 448 285 L 449 286 L 448 287 L 448 288 L 447 289 L 446 288 L 445 288 L 444 289 L 443 289 L 442 288 L 441 288 L 440 289 L 439 289 L 438 288 L 437 288 L 436 289 L 435 289 L 434 288 L 433 288 L 432 289 L 431 289 L 430 288 L 429 288 L 428 289 L 427 289 L 426 288 L 425 288 L 424 289 L 423 289 L 422 288 L 421 288 L 420 289 L 419 289 L 418 288 L 417 288 L 416 289 L 415 289 L 414 288 L 413 288 L 412 289 L 411 289 L 410 288 L 409 288 L 408 289 L 407 289 L 406 288 L 405 288 L 404 289 L 403 289 L 402 288 L 401 288 L 400 289 L 399 289 L 398 288 L 397 288 L 396 289 L 395 289 L 394 288 L 393 288 L 392 289 L 391 289 L 390 288 L 389 288 L 389 289 L 390 290 L 391 289 L 392 290 L 392 291 L 393 292 L 392 293 L 391 293 L 390 292 L 389 292 L 389 293 L 390 294 L 391 293 L 392 294 L 392 295 L 393 296 L 392 297 L 391 297 L 390 296 L 389 296 L 389 325 L 390 326 L 390 311 L 391 310 L 393 312 L 393 314 L 394 315 L 393 316 L 393 317 L 394 318 L 394 319 L 393 320 L 393 322 L 394 323 L 393 324 L 393 325 L 394 326 L 394 312 L 395 311 L 396 311 L 397 312 L 397 325 L 398 325 L 399 326 L 397 328 L 397 329 L 398 329 L 399 330 L 397 332 L 397 333 L 398 334 L 398 331 L 399 330 L 401 332 L 401 333 L 402 334 L 402 332 L 403 331 L 404 331 L 405 332 L 405 333 L 406 334 L 405 335 L 405 337 L 406 338 L 406 332 L 407 331 L 408 331 L 409 332 L 409 333 L 410 334 L 409 335 L 409 337 L 410 338 L 410 339 L 409 340 L 409 341 L 410 342 L 411 341 L 412 341 L 413 342 L 413 344 L 412 345 L 414 347 L 412 349 L 414 351 L 412 353 L 414 355 L 412 357 L 411 357 L 410 356 L 409 356 L 409 358 L 408 359 L 408 360 L 407 361 L 406 360 L 405 361 L 406 362 L 405 363 L 405 364 L 404 365 L 404 366 L 403 367 L 402 366 L 401 366 L 400 367 L 399 367 L 398 366 L 397 366 L 396 367 L 395 367 L 394 366 L 393 366 L 392 367 L 391 367 L 390 366 L 389 366 L 388 367 L 389 368 L 389 370 L 388 371 L 389 372 L 389 374 L 388 375 L 389 376 L 389 378 L 388 379 L 387 379 L 386 378 L 385 378 L 384 379 L 383 379 L 382 378 L 381 378 L 380 379 L 379 379 L 378 378 L 377 378 L 376 379 L 375 379 L 374 378 L 373 378 L 372 379 L 373 380 L 373 382 L 372 383 L 373 384 L 373 386 L 372 387 L 371 387 L 370 386 L 368 386 L 366 384 L 366 364 L 365 363 L 366 362 L 366 354 L 367 353 L 368 353 L 369 354 L 370 354 L 371 353 L 372 353 L 373 354 L 374 354 L 374 352 L 373 352 L 372 353 L 371 353 L 369 351 L 371 349 L 372 349 L 373 350 L 374 350 L 374 340 L 375 339 L 374 338 L 375 337 L 374 336 L 375 335 L 374 334 L 375 333 L 374 332 L 375 331 L 375 329 L 374 328 L 375 327 L 375 325 L 374 324 L 375 323 L 375 321 L 374 320 L 375 319 L 375 317 L 374 316 L 375 315 L 375 313 L 374 312 L 375 311 L 375 309 L 374 308 L 375 307 L 375 305 L 374 304 L 374 303 L 373 303 L 373 304 L 372 305 L 371 305 L 370 304 L 369 304 L 368 305 L 367 305 L 366 304 L 366 296 L 365 296 L 364 297 L 363 297 L 362 296 L 361 296 L 360 297 L 359 297 L 357 295 L 358 294 L 358 287 L 359 286 L 366 286 L 366 282 L 367 281 L 367 280 L 368 279 L 369 279 L 370 280 L 371 279 L 372 279 L 373 280 L 374 280 L 375 279 L 377 281 L 377 282 L 378 282 L 380 280 L 381 281 L 381 282 L 382 282 L 384 280 L 385 281 L 385 282 L 386 282 L 388 280 L 389 281 L 389 282 L 390 282 L 392 280 L 393 281 L 393 282 L 394 282 L 396 280 L 397 281 L 397 282 L 398 282 L 400 280 L 401 281 L 401 282 L 402 282 L 404 280 L 405 281 L 405 282 L 406 282 L 408 280 L 409 281 L 409 282 L 410 282 L 412 280 L 413 281 L 413 282 L 414 282 L 415 281 L 414 280 L 415 279 L 416 279 L 417 280 L 417 282 L 418 282 L 418 280 L 419 279 L 420 279 L 421 280 L 421 282 L 422 282 L 422 274 L 424 272 L 425 273 L 425 278 L 426 279 L 425 280 L 425 282 L 426 282 L 426 275 L 427 274 L 427 273 L 428 272 L 429 273 L 429 278 L 430 279 L 429 280 L 429 281 L 430 281 L 430 274 L 432 272 L 433 273 L 433 281 L 434 282 "></path>
        <path fill="none" stroke="#00fafa" stroke-width="3" d="M 474 46 L 475 45 L 478 48 L 480 46 L 482 48 L 484 46 L 486 48 L 488 46 L 490 48 L 492 46 L 494 48 L 494 46 L 495 45 L 498 48 L 500 46 L 502 48 L 502 46 L 503 45 L 506 48 L 507 47 L 508 48 L 508 54 L 507 55 L 506 54 L 505 54 L 505 55 L 504 56 L 503 56 L 502 55 L 502 54 L 501 54 L 501 55 L 500 56 L 498 54 L 497 54 L 497 55 L 496 56 L 495 56 L 494 55 L 494 54 L 493 54 L 493 61 L 492 62 L 490 60 L 491 59 L 490 58 L 491 57 L 490 56 L 490 54 L 489 54 L 489 63 L 488 64 L 486 62 L 485 62 L 485 63 L 484 64 L 483 64 L 482 63 L 482 62 L 481 62 L 481 64 L 480 65 L 480 66 L 481 67 L 480 68 L 480 70 L 479 71 L 478 70 L 476 72 L 475 72 L 474 71 L 474 70 L 472 72 L 472 73 L 471 74 L 470 73 L 470 71 L 469 71 L 470 72 L 469 73 L 469 77 L 468 78 L 467 78 L 466 77 L 466 76 L 467 75 L 467 74 L 466 73 L 466 70 L 465 71 L 465 72 L 463 74 L 462 73 L 462 70 L 461 71 L 461 72 L 460 73 L 459 72 L 459 71 L 458 70 L 458 62 L 457 63 L 457 64 L 455 66 L 454 65 L 454 54 L 455 53 L 456 53 L 457 54 L 458 54 L 459 53 L 460 53 L 461 54 L 462 54 L 463 53 L 464 53 L 465 54 L 466 54 L 467 53 L 468 53 L 469 54 L 470 54 L 470 48 L 472 46 L 473 47 L 474 47 "></path>
        <path fill="none" stroke="#fa00fa" stroke-width="3" d="M 81 377 L 80 378 L 80 381 L 79 382 L 78 381 L 79 382 L 79 383 L 77 385 L 76 385 L 75 386 L 74 385 L 73 385 L 72 386 L 72 389 L 71 390 L 72 391 L 72 392 L 73 393 L 72 394 L 72 396 L 73 397 L 72 398 L 72 400 L 73 401 L 74 401 L 74 400 L 75 399 L 77 401 L 78 401 L 78 400 L 79 399 L 81 401 L 82 401 L 82 400 L 83 399 L 85 401 L 86 401 L 86 400 L 87 399 L 89 401 L 90 401 L 90 400 L 91 399 L 93 401 L 94 401 L 94 400 L 95 399 L 97 401 L 98 401 L 98 400 L 99 399 L 101 401 L 102 401 L 102 400 L 103 399 L 105 401 L 106 401 L 106 400 L 107 399 L 108 400 L 110 400 L 110 378 L 108 378 L 107 379 L 106 378 L 104 378 L 103 379 L 102 378 L 100 378 L 99 379 L 98 378 L 96 378 L 95 379 L 94 378 L 91 378 L 90 377 L 89 377 L 88 378 L 87 378 L 86 377 L 85 377 L 84 378 L 83 378 L 82 377 "></path>
        <path fill="none" stroke="#00fafa" stroke-width="3" d="M 318 122 L 319 121 L 320 122 L 323 122 L 324 123 L 328 123 L 329 124 L 329 127 L 330 127 L 330 124 L 331 123 L 332 123 L 333 124 L 333 127 L 334 127 L 334 125 L 335 124 L 336 124 L 337 125 L 337 127 L 338 127 L 338 124 L 339 123 L 340 123 L 341 124 L 341 127 L 342 127 L 342 124 L 343 123 L 344 123 L 345 124 L 345 131 L 344 132 L 342 130 L 342 129 L 341 130 L 341 131 L 340 132 L 338 130 L 338 129 L 337 129 L 337 131 L 336 132 L 335 131 L 335 130 L 334 129 L 333 129 L 333 131 L 332 132 L 330 130 L 330 129 L 329 129 L 329 131 L 328 132 L 327 132 L 326 131 L 326 129 L 325 129 L 325 132 L 324 133 L 322 131 L 322 129 L 321 129 L 321 130 L 322 131 L 319 134 L 318 133 L 318 129 L 317 130 L 318 131 L 315 134 L 314 133 L 313 133 L 312 134 L 311 134 L 310 133 L 309 133 L 308 134 L 307 134 L 306 133 L 305 133 L 304 134 L 305 135 L 306 135 L 307 134 L 308 134 L 309 135 L 310 135 L 311 134 L 312 134 L 313 135 L 313 137 L 312 138 L 311 138 L 310 137 L 309 137 L 308 138 L 307 138 L 306 137 L 305 137 L 304 138 L 303 138 L 302 137 L 301 138 L 302 139 L 299 142 L 298 141 L 296 141 L 295 142 L 294 141 L 294 137 L 293 138 L 293 140 L 291 142 L 290 141 L 290 137 L 289 138 L 289 140 L 288 141 L 287 140 L 287 138 L 286 137 L 286 135 L 287 134 L 286 133 L 286 132 L 288 130 L 289 131 L 291 129 L 292 130 L 294 130 L 295 129 L 297 131 L 298 131 L 299 130 L 300 130 L 301 131 L 302 131 L 303 130 L 304 131 L 306 131 L 306 127 L 307 126 L 306 125 L 308 123 L 314 123 L 315 122 "></path>
        <path fill="none" stroke="#fa00fa" stroke-width="3" d="M 22 388 L 21 389 L 22 390 L 19 393 L 18 392 L 17 392 L 16 393 L 15 393 L 14 392 L 12 394 L 13 395 L 13 397 L 12 398 L 11 398 L 10 397 L 10 396 L 9 396 L 9 397 L 10 398 L 9 399 L 8 399 L 9 400 L 8 401 L 7 401 L 6 400 L 5 400 L 5 401 L 6 402 L 5 403 L 5 405 L 6 405 L 6 404 L 7 403 L 8 404 L 8 405 L 9 406 L 10 406 L 11 405 L 12 406 L 18 406 L 19 405 L 20 405 L 21 406 L 23 404 L 25 406 L 26 406 L 27 405 L 29 405 L 30 406 L 31 405 L 32 405 L 33 406 L 34 406 L 35 405 L 36 405 L 37 406 L 38 405 L 38 402 L 39 401 L 40 401 L 41 402 L 41 404 L 40 405 L 41 406 L 42 406 L 43 405 L 45 405 L 46 406 L 47 405 L 48 405 L 49 406 L 50 405 L 52 405 L 53 406 L 54 406 L 55 405 L 56 405 L 57 406 L 58 406 L 59 405 L 58 404 L 58 402 L 59 401 L 58 400 L 57 400 L 56 401 L 55 401 L 54 400 L 53 400 L 52 401 L 51 401 L 50 400 L 49 400 L 48 401 L 47 401 L 46 400 L 45 400 L 44 401 L 43 401 L 42 400 L 41 400 L 40 399 L 40 400 L 39 401 L 38 400 L 38 398 L 39 397 L 39 396 L 38 395 L 38 394 L 39 393 L 39 392 L 38 392 L 37 391 L 38 390 L 38 388 L 37 389 L 38 390 L 37 391 L 36 391 L 35 392 L 34 392 L 33 391 L 34 390 L 34 388 L 33 389 L 34 390 L 33 391 L 33 392 L 32 393 L 31 393 L 29 391 L 30 390 L 30 388 L 29 389 L 30 390 L 29 391 L 28 391 L 28 392 L 27 393 L 25 391 L 26 390 L 26 388 L 25 389 L 26 390 L 23 393 L 21 391 L 22 390 "></path>
        <path fill="none" stroke="#00fafa" stroke-width="3" d="M 338 90 L 339 89 L 340 89 L 342 91 L 342 90 L 343 89 L 344 89 L 345 90 L 345 92 L 344 93 L 345 94 L 345 96 L 344 97 L 345 98 L 345 100 L 344 101 L 345 102 L 345 104 L 344 105 L 345 106 L 345 108 L 344 109 L 343 108 L 322 108 L 321 107 L 322 106 L 322 104 L 320 104 L 319 105 L 318 104 L 317 104 L 316 105 L 315 105 L 314 104 L 312 104 L 311 103 L 312 102 L 314 102 L 315 101 L 316 101 L 317 102 L 318 102 L 319 101 L 320 101 L 321 102 L 322 102 L 322 98 L 323 97 L 324 97 L 325 98 L 326 98 L 327 97 L 328 97 L 330 99 L 331 98 L 333 98 L 334 99 L 334 96 L 335 95 L 335 94 L 334 93 L 334 92 L 336 90 "></path>
        <path fill="none" stroke="#fa00fa" stroke-width="3" d="M 117 273 L 116 274 L 117 275 L 117 277 L 116 278 L 117 279 L 117 280 L 116 281 L 113 281 L 112 282 L 111 282 L 110 281 L 109 281 L 108 282 L 107 282 L 106 281 L 105 281 L 104 282 L 103 282 L 102 281 L 101 281 L 100 282 L 101 283 L 101 285 L 100 286 L 101 287 L 102 287 L 103 286 L 104 286 L 105 287 L 106 287 L 107 286 L 108 286 L 109 287 L 109 289 L 108 290 L 109 291 L 109 293 L 108 294 L 109 295 L 110 295 L 111 294 L 112 294 L 113 295 L 114 295 L 115 294 L 116 294 L 117 295 L 118 295 L 119 294 L 120 294 L 121 295 L 122 295 L 122 293 L 121 292 L 123 290 L 122 289 L 122 288 L 123 287 L 127 287 L 128 286 L 129 287 L 130 287 L 131 286 L 130 285 L 130 283 L 131 282 L 130 281 L 129 281 L 128 282 L 127 282 L 125 280 L 124 281 L 123 281 L 122 280 L 122 279 L 123 278 L 122 277 L 122 275 L 123 274 L 122 273 L 121 273 L 120 274 L 119 273 "></path>
        <path fill="none" stroke="#00fafa" stroke-width="3" d="M 102 11 L 103 10 L 104 10 L 105 11 L 106 11 L 107 10 L 108 10 L 109 11 L 110 11 L 111 10 L 112 10 L 113 11 L 114 11 L 115 10 L 116 10 L 117 11 L 118 11 L 119 10 L 120 10 L 121 11 L 122 11 L 123 10 L 124 10 L 125 11 L 126 11 L 127 10 L 128 10 L 129 11 L 130 11 L 131 10 L 132 10 L 133 11 L 134 11 L 135 10 L 136 10 L 137 11 L 138 11 L 139 10 L 140 10 L 141 11 L 142 11 L 143 10 L 144 10 L 145 11 L 146 11 L 147 10 L 148 10 L 149 11 L 150 11 L 151 10 L 152 10 L 153 11 L 154 11 L 155 10 L 156 10 L 157 11 L 158 11 L 159 10 L 160 10 L 161 11 L 162 11 L 163 10 L 164 10 L 165 11 L 166 11 L 167 10 L 168 10 L 169 11 L 170 11 L 171 10 L 172 10 L 173 11 L 174 11 L 175 10 L 176 10 L 177 11 L 178 11 L 179 10 L 180 10 L 181 11 L 181 12 L 180 13 L 177 13 L 176 14 L 175 14 L 174 13 L 173 13 L 172 14 L 171 14 L 170 13 L 169 13 L 168 14 L 167 14 L 166 13 L 165 13 L 164 14 L 163 14 L 162 13 L 161 13 L 160 14 L 159 14 L 158 13 L 157 13 L 156 14 L 155 14 L 154 13 L 153 13 L 152 14 L 151 14 L 150 13 L 149 13 L 148 14 L 147 14 L 146 13 L 145 13 L 144 14 L 143 14 L 142 13 L 141 13 L 140 14 L 139 14 L 138 13 L 137 13 L 136 14 L 135 14 L 134 13 L 133 13 L 132 14 L 131 14 L 130 13 L 129 13 L 128 14 L 127 14 L 126 13 L 125 13 L 124 14 L 123 14 L 122 13 L 121 13 L 120 14 L 119 14 L 118 13 L 117 13 L 116 14 L 115 14 L 114 13 L 113 13 L 112 14 L 111 14 L 110 13 L 109 13 L 108 14 L 107 14 L 106 13 L 105 13 L 104 14 L 103 14 L 102 13 L 101 13 L 100 14 L 99 14 L 98 13 L 98 12 L 99 11 "></path>
        <path fill="none" stroke="#00fafa" stroke-width="3" d="M 282 90 L 283 89 L 286 92 L 286 90 L 287 89 L 290 92 L 291 91 L 292 92 L 292 94 L 293 95 L 293 96 L 292 97 L 293 98 L 293 99 L 294 100 L 294 98 L 295 97 L 298 100 L 299 99 L 300 100 L 300 102 L 301 103 L 301 104 L 300 105 L 300 106 L 299 107 L 298 106 L 296 108 L 294 106 L 293 106 L 292 107 L 291 107 L 290 106 L 290 104 L 291 103 L 290 102 L 290 98 L 288 100 L 287 100 L 286 99 L 286 98 L 284 100 L 283 100 L 282 99 L 282 98 L 281 98 L 280 99 L 278 97 L 278 96 L 279 95 L 278 94 L 278 92 L 280 90 L 282 92 "></path>
        <path fill="none" stroke="#00fafa" stroke-width="3" d="M 256 90 L 257 91 L 258 91 L 259 90 L 260 90 L 261 91 L 263 91 L 264 90 L 266 92 L 265 93 L 265 94 L 266 95 L 266 92 L 267 91 L 268 91 L 269 92 L 269 98 L 267 100 L 266 99 L 266 97 L 265 97 L 265 99 L 264 100 L 260 100 L 259 101 L 258 100 L 256 100 L 254 98 L 254 97 L 253 97 L 253 98 L 252 99 L 250 97 L 249 97 L 249 98 L 248 99 L 246 97 L 245 97 L 245 98 L 244 99 L 242 97 L 242 96 L 243 95 L 243 94 L 242 93 L 242 92 L 243 91 L 245 91 L 246 92 L 245 93 L 245 95 L 246 95 L 246 92 L 247 91 L 248 91 L 249 92 L 249 95 L 250 95 L 250 92 L 251 91 L 252 91 L 253 92 L 253 95 L 254 95 L 254 92 "></path>
        <path fill="none" stroke="#00fafa" stroke-width="3" d="M 346 106 L 347 105 L 348 105 L 349 106 L 349 107 L 350 107 L 350 106 L 351 105 L 352 105 L 353 106 L 353 107 L 354 107 L 355 106 L 356 106 L 357 107 L 358 107 L 359 106 L 360 106 L 361 107 L 362 107 L 363 106 L 364 106 L 365 107 L 366 107 L 367 108 L 365 110 L 367 112 L 365 114 L 365 115 L 364 116 L 363 116 L 362 115 L 362 113 L 361 114 L 361 115 L 360 116 L 359 116 L 358 115 L 358 113 L 357 114 L 357 115 L 356 116 L 355 116 L 354 115 L 354 113 L 353 114 L 354 115 L 353 116 L 351 116 L 350 115 L 350 113 L 349 114 L 349 115 L 348 116 L 347 115 L 347 114 L 346 113 L 346 109 L 345 108 L 346 107 "></path>
        <path fill="none" stroke="#00fafa" stroke-width="3" d="M 158 90 L 159 89 L 160 89 L 161 90 L 161 91 L 162 91 L 162 90 L 163 89 L 164 89 L 165 90 L 165 91 L 166 91 L 166 90 L 167 89 L 168 89 L 169 90 L 169 91 L 170 91 L 170 90 L 171 89 L 174 92 L 175 91 L 176 92 L 176 98 L 175 99 L 173 99 L 172 100 L 171 100 L 170 99 L 169 99 L 168 100 L 167 100 L 166 99 L 165 99 L 164 100 L 163 100 L 162 99 L 159 99 L 158 98 L 158 97 L 159 96 L 159 95 L 158 94 L 158 93 L 159 92 L 159 91 "></path>
        <path fill="none" stroke="#00fafa" stroke-width="3" d="M 346 56 L 347 55 L 348 55 L 349 56 L 349 59 L 350 60 L 350 56 L 351 55 L 352 55 L 353 56 L 353 59 L 354 60 L 353 61 L 353 63 L 352 64 L 352 65 L 353 66 L 353 68 L 352 69 L 353 70 L 353 71 L 351 73 L 350 72 L 350 71 L 349 72 L 348 72 L 346 70 L 346 68 L 347 67 L 346 66 L 345 66 L 345 71 L 344 72 L 342 70 L 343 69 L 343 67 L 342 66 L 342 65 L 343 64 L 343 63 L 342 62 L 342 60 L 343 59 L 342 58 L 342 57 L 343 56 "></path>
        <path fill="none" stroke="#00fafa" stroke-width="3" d="M 94 43 L 95 42 L 96 42 L 97 43 L 98 43 L 99 42 L 100 42 L 101 43 L 102 43 L 103 42 L 104 42 L 105 43 L 106 43 L 107 42 L 108 42 L 109 43 L 110 43 L 111 42 L 112 42 L 113 43 L 114 43 L 115 42 L 116 42 L 117 43 L 118 43 L 119 42 L 120 42 L 121 43 L 122 43 L 123 42 L 124 42 L 125 43 L 126 43 L 127 42 L 128 42 L 129 43 L 130 43 L 131 42 L 132 42 L 133 43 L 134 43 L 135 42 L 136 42 L 137 43 L 140 43 L 141 44 L 141 45 L 140 46 L 139 46 L 138 45 L 137 45 L 136 46 L 135 46 L 134 45 L 133 45 L 132 46 L 131 46 L 130 45 L 129 45 L 128 46 L 127 46 L 126 45 L 125 45 L 124 46 L 123 46 L 122 45 L 121 45 L 120 46 L 119 46 L 118 45 L 117 45 L 116 46 L 115 46 L 114 45 L 113 45 L 112 46 L 111 46 L 110 45 L 109 45 L 108 46 L 107 46 L 106 45 L 105 45 L 104 46 L 103 46 L 102 45 L 101 45 L 100 46 L 99 46 L 98 45 L 97 45 L 96 46 L 95 46 L 94 45 L 93 45 L 92 46 L 91 46 L 90 45 L 90 44 L 91 43 "></path>
        <path fill="none" stroke="#00fafa" stroke-width="3" d="M 94 35 L 95 34 L 96 34 L 97 35 L 98 35 L 99 34 L 100 34 L 101 35 L 102 35 L 103 34 L 104 34 L 105 35 L 106 35 L 107 34 L 108 34 L 109 35 L 110 35 L 111 34 L 112 34 L 113 35 L 114 35 L 115 34 L 116 34 L 117 35 L 118 35 L 119 34 L 120 34 L 121 35 L 122 35 L 123 34 L 124 34 L 125 35 L 126 35 L 127 34 L 128 34 L 129 35 L 130 35 L 131 34 L 132 34 L 133 35 L 135 35 L 136 34 L 137 35 L 137 37 L 136 38 L 135 38 L 134 37 L 133 37 L 132 38 L 131 38 L 130 37 L 129 37 L 128 38 L 127 38 L 126 37 L 125 37 L 124 38 L 123 38 L 122 37 L 121 37 L 120 38 L 119 38 L 118 37 L 117 37 L 116 38 L 115 38 L 114 37 L 113 37 L 112 38 L 111 38 L 110 37 L 109 37 L 108 38 L 107 38 L 106 37 L 105 37 L 104 38 L 103 38 L 102 37 L 101 37 L 100 38 L 99 38 L 98 37 L 97 37 L 96 38 L 95 38 L 94 37 L 93 37 L 92 38 L 91 38 L 90 37 L 90 36 L 91 35 "></path>
        <path fill="none" stroke="#00fafa" stroke-width="3" d="M 91 50 L 92 50 L 93 51 L 94 51 L 95 50 L 96 50 L 97 51 L 98 51 L 99 50 L 100 50 L 101 51 L 102 51 L 103 50 L 104 50 L 105 51 L 106 51 L 107 50 L 108 50 L 109 51 L 110 51 L 111 50 L 112 50 L 113 51 L 114 51 L 115 50 L 116 50 L 117 51 L 118 51 L 119 50 L 120 50 L 121 51 L 122 51 L 123 50 L 124 50 L 125 51 L 126 51 L 127 50 L 128 50 L 129 51 L 130 51 L 131 50 L 132 51 L 135 51 L 136 52 L 136 53 L 135 54 L 134 53 L 133 53 L 132 54 L 131 54 L 130 53 L 129 53 L 128 54 L 127 54 L 126 53 L 125 53 L 124 54 L 123 54 L 122 53 L 121 53 L 120 54 L 119 54 L 118 53 L 117 53 L 116 54 L 115 54 L 114 53 L 113 53 L 112 54 L 111 54 L 110 53 L 109 53 L 108 54 L 107 54 L 106 53 L 105 53 L 104 54 L 103 54 L 102 53 L 101 53 L 100 54 L 99 54 L 98 53 L 97 53 L 96 54 L 95 54 L 94 53 L 93 53 L 92 54 L 91 54 L 89 52 "></path>
        <path fill="none" stroke="#00fafa" stroke-width="3" d="M 95 38 L 96 38 L 97 39 L 98 39 L 99 38 L 100 38 L 101 39 L 102 39 L 103 38 L 104 38 L 105 39 L 106 39 L 107 38 L 108 38 L 109 39 L 110 39 L 111 38 L 112 38 L 113 39 L 114 39 L 115 38 L 116 38 L 117 39 L 118 39 L 119 38 L 120 38 L 121 39 L 122 39 L 123 38 L 124 38 L 125 39 L 126 39 L 127 38 L 128 38 L 129 39 L 130 39 L 131 38 L 132 38 L 133 39 L 135 39 L 136 38 L 137 39 L 137 41 L 136 42 L 135 42 L 134 41 L 133 41 L 132 42 L 131 42 L 130 41 L 129 41 L 128 42 L 127 42 L 126 41 L 125 41 L 124 42 L 123 42 L 122 41 L 121 41 L 120 42 L 119 42 L 118 41 L 117 41 L 116 42 L 115 42 L 114 41 L 113 41 L 112 42 L 111 42 L 110 41 L 109 41 L 108 42 L 107 42 L 106 41 L 105 41 L 104 42 L 103 42 L 102 41 L 101 41 L 100 42 L 99 42 L 98 41 L 97 41 L 96 42 L 95 42 L 93 40 "></path>
        <path fill="none" stroke="#00fafa" stroke-width="3" d="M 94 31 L 95 30 L 96 30 L 97 31 L 98 31 L 99 30 L 100 30 L 101 31 L 102 31 L 103 30 L 104 30 L 105 31 L 106 31 L 107 30 L 108 30 L 109 31 L 110 31 L 111 30 L 112 30 L 113 31 L 114 31 L 115 30 L 116 30 L 117 31 L 118 31 L 119 30 L 120 30 L 121 31 L 122 31 L 123 30 L 124 30 L 125 31 L 126 31 L 127 30 L 128 30 L 129 31 L 130 31 L 131 30 L 132 30 L 133 31 L 133 33 L 132 34 L 131 34 L 130 33 L 129 33 L 128 34 L 127 34 L 126 33 L 125 33 L 124 34 L 123 34 L 122 33 L 121 33 L 120 34 L 119 34 L 118 33 L 117 33 L 116 34 L 115 34 L 114 33 L 113 33 L 112 34 L 111 34 L 110 33 L 109 33 L 108 34 L 107 34 L 106 33 L 105 33 L 104 34 L 103 34 L 102 33 L 101 33 L 100 34 L 99 34 L 98 33 L 97 33 L 96 34 L 95 34 L 94 33 L 93 33 L 92 34 L 91 34 L 90 33 L 90 32 L 91 31 "></path>
        <path fill="none" stroke="#00fafa" stroke-width="3" d="M 94 47 L 95 46 L 96 46 L 97 47 L 98 47 L 99 46 L 100 46 L 101 47 L 102 47 L 103 46 L 104 46 L 105 47 L 106 47 L 107 46 L 108 46 L 109 47 L 110 47 L 111 46 L 112 46 L 113 47 L 114 47 L 115 46 L 116 46 L 117 47 L 118 47 L 119 46 L 120 46 L 121 47 L 122 47 L 123 46 L 124 46 L 125 47 L 126 47 L 127 46 L 128 46 L 129 47 L 130 47 L 131 46 L 132 46 L 133 47 L 134 47 L 135 46 L 136 47 L 136 49 L 135 50 L 134 49 L 133 49 L 132 50 L 131 50 L 130 49 L 129 49 L 128 50 L 127 50 L 126 49 L 125 49 L 124 50 L 123 50 L 122 49 L 121 49 L 120 50 L 119 50 L 118 49 L 117 49 L 116 50 L 115 50 L 114 49 L 113 49 L 112 50 L 111 50 L 110 49 L 109 49 L 108 50 L 107 50 L 106 49 L 105 49 L 104 50 L 103 50 L 102 49 L 101 49 L 100 50 L 99 50 L 98 49 L 97 49 L 96 50 L 95 50 L 94 49 "></path>
        <path fill="none" stroke="#00fafa" stroke-width="3" d="M 348 168 L 350 170 L 352 168 L 354 170 L 356 168 L 358 170 L 357 171 L 357 173 L 358 174 L 358 175 L 357 176 L 357 183 L 356 184 L 354 182 L 355 181 L 355 179 L 354 178 L 354 176 L 353 176 L 353 179 L 352 180 L 350 178 L 350 176 L 349 176 L 349 179 L 348 180 L 346 178 L 347 177 L 346 176 L 346 170 "></path>
        <path fill="none" stroke="#00fafa" stroke-width="3" d="M 103 14 L 104 14 L 105 15 L 106 15 L 107 14 L 108 14 L 109 15 L 110 15 L 111 14 L 112 14 L 113 15 L 114 15 L 115 14 L 116 14 L 117 15 L 118 15 L 119 14 L 120 14 L 121 15 L 122 15 L 123 14 L 124 14 L 125 15 L 126 15 L 127 14 L 128 14 L 129 15 L 130 15 L 131 14 L 132 14 L 133 15 L 134 15 L 135 14 L 136 14 L 137 15 L 140 15 L 141 16 L 141 17 L 140 18 L 139 18 L 138 17 L 137 17 L 136 18 L 135 18 L 134 17 L 133 17 L 132 18 L 131 18 L 130 17 L 129 17 L 128 18 L 127 18 L 126 17 L 125 17 L 124 18 L 123 18 L 122 17 L 121 17 L 120 18 L 119 18 L 118 17 L 117 17 L 116 18 L 115 18 L 114 17 L 113 17 L 112 18 L 111 18 L 110 17 L 109 17 L 108 18 L 107 18 L 106 17 L 105 17 L 104 18 L 103 18 L 101 16 "></path>
        <path fill="none" stroke="#00fafa" stroke-width="3" d="M 103 18 L 104 18 L 105 19 L 106 19 L 107 18 L 108 18 L 109 19 L 110 19 L 111 18 L 112 18 L 113 19 L 114 19 L 115 18 L 116 18 L 117 19 L 118 19 L 119 18 L 120 18 L 121 19 L 122 19 L 123 18 L 124 18 L 125 19 L 126 19 L 127 18 L 128 18 L 129 19 L 130 19 L 131 18 L 132 18 L 133 19 L 134 19 L 135 18 L 136 18 L 137 19 L 140 19 L 141 20 L 141 21 L 140 22 L 139 22 L 138 21 L 137 21 L 136 22 L 135 22 L 134 21 L 133 21 L 132 22 L 131 22 L 130 21 L 129 21 L 128 22 L 127 22 L 126 21 L 125 21 L 124 22 L 123 22 L 122 21 L 121 21 L 120 22 L 119 22 L 118 21 L 117 21 L 116 22 L 115 22 L 114 21 L 113 21 L 112 22 L 111 22 L 110 21 L 109 21 L 108 22 L 107 22 L 106 21 L 105 21 L 104 22 L 103 22 L 101 20 "></path>
        <path fill="none" stroke="#00fafa" stroke-width="3" d="M 102 27 L 103 26 L 104 26 L 105 27 L 106 27 L 107 26 L 108 26 L 109 27 L 110 27 L 111 26 L 112 26 L 113 27 L 114 27 L 115 26 L 116 26 L 117 27 L 118 27 L 119 26 L 120 26 L 121 27 L 122 27 L 123 26 L 124 26 L 125 27 L 126 27 L 127 26 L 128 26 L 129 27 L 130 27 L 131 26 L 132 26 L 133 27 L 135 27 L 136 26 L 137 27 L 137 29 L 136 30 L 135 30 L 134 29 L 133 29 L 132 30 L 131 30 L 130 29 L 129 29 L 128 30 L 127 30 L 126 29 L 125 29 L 124 30 L 123 30 L 122 29 L 121 29 L 120 30 L 119 30 L 118 29 L 117 29 L 116 30 L 115 30 L 114 29 L 113 29 L 112 30 L 111 30 L 110 29 L 109 29 L 108 30 L 107 30 L 106 29 L 105 29 L 104 30 L 103 30 L 102 29 L 101 29 L 100 30 L 99 30 L 98 29 L 98 28 L 99 27 "></path>
        <path fill="none" stroke="#00fafa" stroke-width="3" d="M 103 22 L 104 22 L 105 23 L 106 23 L 107 22 L 108 22 L 109 23 L 110 23 L 111 22 L 112 22 L 113 23 L 114 23 L 115 22 L 116 22 L 117 23 L 118 23 L 119 22 L 120 22 L 121 23 L 122 23 L 123 22 L 124 22 L 125 23 L 126 23 L 127 22 L 128 22 L 129 23 L 130 23 L 131 22 L 132 22 L 133 23 L 135 23 L 136 22 L 137 23 L 137 25 L 136 26 L 135 26 L 134 25 L 133 25 L 132 26 L 131 26 L 130 25 L 129 25 L 128 26 L 127 26 L 126 25 L 125 25 L 124 26 L 123 26 L 122 25 L 121 25 L 120 26 L 119 26 L 118 25 L 117 25 L 116 26 L 115 26 L 114 25 L 113 25 L 112 26 L 111 26 L 110 25 L 109 25 L 108 26 L 107 26 L 106 25 L 105 25 L 104 26 L 103 26 L 101 24 "></path>
        <path fill="none" stroke="#00fafa" stroke-width="3" d="M 426 50 L 427 49 L 428 49 L 429 50 L 430 50 L 431 49 L 432 49 L 433 50 L 434 50 L 435 49 L 436 49 L 437 50 L 438 50 L 439 49 L 440 49 L 441 50 L 441 52 L 440 53 L 439 53 L 438 52 L 437 52 L 436 53 L 435 53 L 434 52 L 433 52 L 432 53 L 431 53 L 430 52 L 429 52 L 428 53 L 429 54 L 430 54 L 431 53 L 432 53 L 433 54 L 434 54 L 435 53 L 436 53 L 437 54 L 438 54 L 439 53 L 440 53 L 441 54 L 441 56 L 440 57 L 439 57 L 438 56 L 437 56 L 436 57 L 435 57 L 434 56 L 433 56 L 432 57 L 431 57 L 430 56 L 429 56 L 428 57 L 427 57 L 426 56 L 424 56 L 423 55 L 424 54 L 426 54 L 426 52 L 424 52 L 423 51 L 424 50 "></path>
        <path fill="none" stroke="#00fafa" stroke-width="3" d="M 376 159 L 377 160 L 378 160 L 379 159 L 380 159 L 381 160 L 383 160 L 385 162 L 385 164 L 384 165 L 384 166 L 383 167 L 381 167 L 379 169 L 378 168 L 377 168 L 377 173 L 375 175 L 374 174 L 374 170 L 375 169 L 375 166 L 374 165 L 375 164 L 375 163 L 374 162 L 374 161 "></path>
        <path fill="none" stroke="#00fafa" stroke-width="3" d="M 174 19 L 175 18 L 176 18 L 177 19 L 178 19 L 179 18 L 181 20 L 180 21 L 181 22 L 182 22 L 183 21 L 184 22 L 184 24 L 183 25 L 182 24 L 181 24 L 181 26 L 182 26 L 183 25 L 184 26 L 184 28 L 183 29 L 182 28 L 181 28 L 180 29 L 179 29 L 178 28 L 177 28 L 176 29 L 174 27 L 174 25 L 173 24 L 174 23 L 174 21 L 173 21 L 172 22 L 171 22 L 170 21 L 170 20 L 171 19 "></path>
        <path fill="none" stroke="#00fafa" stroke-width="3" d="M 419 69 L 420 69 L 421 70 L 422 70 L 423 69 L 426 72 L 427 71 L 428 72 L 428 73 L 426 75 L 425 75 L 426 76 L 427 76 L 428 77 L 426 79 L 425 79 L 424 80 L 420 80 L 418 78 L 418 72 L 417 71 "></path>
        <path fill="none" stroke="#00fafa" stroke-width="3" d="M 95 58 L 96 58 L 97 59 L 98 59 L 99 58 L 100 58 L 101 59 L 102 59 L 103 58 L 104 58 L 105 59 L 106 59 L 107 58 L 108 58 L 109 59 L 110 59 L 111 58 L 112 58 L 113 59 L 114 59 L 115 58 L 116 58 L 117 59 L 118 59 L 119 58 L 120 58 L 121 59 L 121 61 L 120 62 L 119 62 L 118 61 L 117 61 L 116 62 L 115 62 L 114 61 L 113 61 L 112 62 L 111 62 L 110 61 L 109 61 L 108 62 L 107 62 L 106 61 L 105 61 L 104 62 L 103 62 L 102 61 L 101 61 L 100 62 L 99 62 L 98 61 L 97 61 L 96 62 L 95 62 L 93 60 "></path>
        <path fill="none" stroke="#00fafa" stroke-width="3" d="M 430 62 L 431 61 L 434 64 L 436 62 L 437 63 L 437 64 L 435 66 L 434 66 L 433 67 L 434 68 L 435 67 L 436 68 L 436 69 L 435 70 L 434 70 L 432 72 L 431 72 L 430 71 L 430 70 L 428 72 L 426 70 L 426 68 L 427 67 L 426 66 L 427 65 L 427 63 L 428 62 L 430 64 "></path>
        <path fill="none" stroke="#00fafa" stroke-width="3" d="M 12 106 L 13 107 L 13 108 L 12 109 L 12 110 L 11 111 L 9 111 L 10 112 L 11 111 L 12 112 L 12 114 L 11 115 L 9 115 L 9 116 L 8 117 L 7 117 L 6 116 L 6 114 L 4 116 L 3 115 L 3 113 L 2 112 L 3 111 L 3 108 L 4 107 L 5 108 L 6 108 L 7 107 L 9 107 L 10 108 "></path>
        <path fill="none" stroke="#00fafa" stroke-width="3" d="M 340 188 L 341 189 L 341 193 L 342 194 L 341 195 L 342 196 L 341 197 L 342 198 L 341 199 L 342 200 L 341 201 L 342 202 L 341 203 L 342 204 L 341 205 L 342 206 L 341 207 L 342 208 L 341 209 L 342 210 L 340 212 L 338 210 L 339 209 L 338 208 L 338 192 L 339 191 L 338 190 "></path>
        <path fill="none" stroke="#00fafa" stroke-width="3" d="M 99 54 L 100 54 L 101 55 L 102 55 L 103 54 L 104 54 L 105 55 L 106 55 L 107 54 L 108 54 L 109 55 L 110 55 L 111 54 L 112 54 L 113 55 L 114 55 L 115 54 L 116 54 L 117 55 L 118 55 L 119 54 L 120 54 L 121 55 L 121 57 L 120 58 L 119 58 L 118 57 L 117 57 L 116 58 L 115 58 L 114 57 L 113 57 L 112 58 L 111 58 L 110 57 L 109 57 L 108 58 L 107 58 L 106 57 L 105 57 L 104 58 L 103 58 L 102 57 L 101 57 L 100 58 L 99 58 L 97 56 "></path>
        <path fill="none" stroke="#00fafa" stroke-width="3" d="M 344 188 L 345 189 L 345 193 L 346 194 L 345 195 L 346 196 L 345 197 L 346 198 L 345 199 L 346 200 L 345 201 L 346 202 L 345 203 L 345 209 L 344 210 L 342 208 L 343 207 L 342 206 L 343 205 L 342 204 L 342 194 L 343 193 L 342 192 L 343 191 L 342 190 "></path>
        <path fill="none" stroke="#00fafa" stroke-width="3" d="M 368 168 L 370 170 L 370 171 L 369 172 L 369 173 L 370 174 L 370 170 L 372 168 L 374 170 L 374 171 L 373 172 L 373 175 L 371 177 L 370 176 L 369 177 L 369 179 L 368 180 L 366 178 L 367 177 L 366 176 L 366 170 "></path>
        <path fill="none" stroke="#00fafa" stroke-width="3" d="M 348 188 L 349 189 L 349 193 L 350 194 L 349 195 L 350 196 L 349 197 L 350 198 L 349 199 L 349 203 L 350 204 L 349 205 L 349 207 L 350 208 L 348 210 L 346 208 L 347 207 L 346 206 L 347 205 L 346 204 L 347 203 L 346 202 L 347 201 L 346 200 L 347 199 L 346 198 L 346 194 L 347 193 L 346 192 L 347 191 L 346 190 "></path>
        <path fill="none" stroke="#00fafa" stroke-width="3" d="M 70 75 L 71 74 L 72 74 L 73 75 L 74 75 L 75 74 L 76 74 L 77 75 L 78 75 L 79 74 L 80 74 L 81 75 L 82 75 L 83 74 L 84 74 L 85 75 L 86 75 L 87 74 L 88 74 L 89 75 L 89 77 L 88 78 L 87 78 L 86 77 L 85 77 L 84 78 L 83 78 L 82 77 L 81 77 L 80 78 L 79 78 L 78 77 L 77 77 L 76 78 L 75 78 L 74 77 L 73 77 L 72 78 L 71 78 L 70 77 "></path>
        <path fill="none" stroke="#00fafa" stroke-width="3" d="M 360 180 L 361 181 L 361 191 L 362 192 L 361 193 L 362 194 L 361 195 L 362 196 L 361 197 L 362 198 L 361 199 L 362 200 L 360 202 L 358 200 L 358 196 L 359 195 L 358 194 L 359 193 L 358 192 L 359 191 L 358 190 L 359 189 L 359 187 L 358 186 L 359 185 L 359 183 L 358 182 "></path>
        <path fill="none" stroke="#fa00fa" stroke-width="3" d="M 73 85 L 72 86 L 73 87 L 74 87 L 75 86 L 76 86 L 77 87 L 78 87 L 79 86 L 80 86 L 81 87 L 82 87 L 83 86 L 84 86 L 85 87 L 85 89 L 84 90 L 83 90 L 82 89 L 81 89 L 80 90 L 79 90 L 78 89 L 77 89 L 76 90 L 75 90 L 74 89 L 73 89 L 73 91 L 74 91 L 75 90 L 76 90 L 77 91 L 78 91 L 79 90 L 80 90 L 81 91 L 82 91 L 83 90 L 84 90 L 85 91 L 86 91 L 87 90 L 88 90 L 89 91 L 90 91 L 91 90 L 92 90 L 93 91 L 94 91 L 95 90 L 96 90 L 97 91 L 98 91 L 98 89 L 97 89 L 96 90 L 95 90 L 94 89 L 93 89 L 92 90 L 91 90 L 90 89 L 89 89 L 88 90 L 87 90 L 85 88 L 87 86 L 88 86 L 89 87 L 90 87 L 91 86 L 92 86 L 93 87 L 94 87 L 95 86 L 96 86 L 97 87 L 98 87 L 98 85 L 97 85 L 96 86 L 95 86 L 94 85 L 93 85 L 92 86 L 91 86 L 90 85 L 89 85 L 88 86 L 87 86 L 86 85 L 85 85 L 84 86 L 83 86 L 82 85 L 81 85 L 80 86 L 79 86 L 78 85 L 77 85 L 76 86 L 75 86 L 74 85 "></path>
        <path fill="none" stroke="#00fafa" stroke-width="3" d="M 356 54 L 358 56 L 359 55 L 360 56 L 360 57 L 361 58 L 361 59 L 360 60 L 360 61 L 361 62 L 361 63 L 360 64 L 359 64 L 358 63 L 357 63 L 356 64 L 354 62 L 354 60 L 355 59 L 354 58 L 354 56 "></path>
        <path fill="none" stroke="#00fafa" stroke-width="3" d="M 426 295 L 427 294 L 428 295 L 429 294 L 431 294 L 433 296 L 432 297 L 432 299 L 433 299 L 433 298 L 432 297 L 433 296 L 434 296 L 435 295 L 436 296 L 436 301 L 434 303 L 433 302 L 433 301 L 432 301 L 431 302 L 429 300 L 430 299 L 429 298 L 429 297 L 427 297 L 426 296 "></path>
        <path fill="none" stroke="#fa00fa" stroke-width="3" d="M 377 296 L 377 333 L 378 334 L 378 335 L 377 336 L 377 337 L 378 338 L 377 339 L 377 341 L 378 342 L 378 343 L 377 344 L 377 345 L 378 346 L 378 314 L 379 313 L 378 312 L 378 310 L 379 309 L 378 308 L 378 302 L 379 301 L 378 300 L 379 299 L 379 298 L 378 297 L 378 296 "></path>
        <path fill="none" stroke="#00fafa" stroke-width="3" d="M 138 389 L 139 388 L 140 388 L 141 389 L 142 389 L 143 388 L 144 388 L 145 389 L 146 389 L 147 388 L 148 388 L 149 389 L 150 389 L 151 388 L 152 388 L 153 389 L 153 391 L 152 392 L 151 392 L 150 391 L 149 391 L 148 392 L 147 392 L 146 391 L 145 391 L 144 392 L 143 392 L 142 391 L 141 391 L 140 392 L 139 392 L 138 391 "></path>
        <path fill="none" stroke="#00fafa" stroke-width="3" d="M 338 212 L 339 211 L 340 212 L 342 212 L 343 211 L 345 213 L 345 214 L 344 215 L 343 215 L 342 214 L 341 215 L 341 216 L 342 216 L 343 215 L 344 216 L 344 218 L 343 219 L 342 218 L 341 218 L 340 219 L 339 219 L 338 218 "></path>
        <path fill="none" stroke="#fa00fa" stroke-width="3" d="M 381 296 L 381 333 L 382 334 L 382 296 "></path>
        <path fill="none" stroke="#00fafa" stroke-width="3" d="M 352 188 L 353 189 L 353 195 L 354 196 L 353 197 L 354 198 L 353 199 L 353 201 L 352 202 L 350 200 L 351 199 L 350 198 L 350 194 L 351 193 L 350 192 L 351 191 L 350 190 "></path>
        <path fill="none" stroke="#00fafa" stroke-width="3" d="M 356 188 L 357 189 L 357 195 L 358 196 L 357 197 L 358 198 L 357 199 L 357 201 L 356 202 L 354 200 L 354 196 L 355 195 L 354 194 L 355 193 L 354 192 L 355 191 L 354 190 "></path>
        <path fill="none" stroke="#fa00fa" stroke-width="3" d="M 385 296 L 385 325 L 386 326 L 386 327 L 385 328 L 385 329 L 386 330 L 386 308 L 387 307 L 387 305 L 386 304 L 386 296 "></path>
        <path fill="none" stroke="#00fafa" stroke-width="3" d="M 138 385 L 139 384 L 140 384 L 141 385 L 142 385 L 143 384 L 144 384 L 145 385 L 146 385 L 147 384 L 148 384 L 149 385 L 149 387 L 148 388 L 147 388 L 146 387 L 145 387 L 144 388 L 143 388 L 142 387 L 141 387 L 140 388 L 139 388 L 138 387 "></path>
        <path fill="none" stroke="#00fafa" stroke-width="3" d="M 360 168 L 362 170 L 361 171 L 361 173 L 362 174 L 362 175 L 361 176 L 361 179 L 360 180 L 358 178 L 359 177 L 358 176 L 358 170 "></path>
        <path fill="none" stroke="#00fafa" stroke-width="3" d="M 364 168 L 366 170 L 366 171 L 365 172 L 365 173 L 366 174 L 365 175 L 365 179 L 364 180 L 362 178 L 363 177 L 362 176 L 362 170 "></path>
        <path fill="none" stroke="#00fafa" stroke-width="3" d="M 410 332 L 411 331 L 412 331 L 413 332 L 413 333 L 414 334 L 414 335 L 413 336 L 413 337 L 414 338 L 413 339 L 413 340 L 412 341 L 411 341 L 410 340 "></path>
        <path fill="none" stroke="#00fafa" stroke-width="3" d="M 334 302 L 335 301 L 336 301 L 337 302 L 340 302 L 341 303 L 341 304 L 340 305 L 339 305 L 338 304 L 337 304 L 336 305 L 335 305 L 334 304 L 333 304 L 332 305 L 331 305 L 329 303 L 330 302 "></path>
        <path fill="none" stroke="#00fafa" stroke-width="3" d="M 102 60 L 103 59 L 104 59 L 105 60 L 104 61 L 104 62 L 105 63 L 106 63 L 106 60 L 107 59 L 108 59 L 109 60 L 108 61 L 108 62 L 109 63 L 110 63 L 110 60 L 111 59 L 112 59 L 113 60 L 112 61 L 112 62 L 113 63 L 114 63 L 114 60 L 115 59 L 116 59 L 117 60 L 116 61 L 116 62 L 117 63 L 118 63 L 119 62 L 120 63 L 120 65 L 122 67 L 121 68 L 121 71 L 120 72 L 120 73 L 121 74 L 121 75 L 120 76 L 120 77 L 121 78 L 121 79 L 120 80 L 117 80 L 116 81 L 117 82 L 117 83 L 116 84 L 116 85 L 117 86 L 117 87 L 116 88 L 116 90 L 115 91 L 114 90 L 114 88 L 113 88 L 113 91 L 112 92 L 112 93 L 113 94 L 112 95 L 112 99 L 111 100 L 101 100 L 100 101 L 100 107 L 99 108 L 97 106 L 97 107 L 96 108 L 97 109 L 97 110 L 96 111 L 96 112 L 97 113 L 97 114 L 96 115 L 94 115 L 93 114 L 94 113 L 91 116 L 90 115 L 89 115 L 88 116 L 87 116 L 86 115 L 85 115 L 84 116 L 83 116 L 81 114 L 81 115 L 80 116 L 79 116 L 77 114 L 77 116 L 76 117 L 73 114 L 73 115 L 72 116 L 71 116 L 69 114 L 69 115 L 68 116 L 67 116 L 65 114 L 65 115 L 63 117 L 62 117 L 63 118 L 62 119 L 61 119 L 62 120 L 62 121 L 60 123 L 58 121 L 56 123 L 54 121 L 52 123 L 50 121 L 49 122 L 48 122 L 47 121 L 47 117 L 46 116 L 46 115 L 45 115 L 45 116 L 44 117 L 41 114 L 41 116 L 40 117 L 37 114 L 38 113 L 37 113 L 36 114 L 35 114 L 34 113 L 34 111 L 35 110 L 36 110 L 37 111 L 38 111 L 37 110 L 38 109 L 37 110 L 35 110 L 34 109 L 32 109 L 29 106 L 29 108 L 28 109 L 25 106 L 25 108 L 24 109 L 21 106 L 21 107 L 20 108 L 19 108 L 18 107 L 18 106 L 19 105 L 18 104 L 18 102 L 19 101 L 18 100 L 19 99 L 18 98 L 19 97 L 18 96 L 20 94 L 22 96 L 21 97 L 21 99 L 22 99 L 22 94 L 23 93 L 22 92 L 23 91 L 24 91 L 25 92 L 25 95 L 26 95 L 26 94 L 27 93 L 26 92 L 27 91 L 28 91 L 29 92 L 29 95 L 30 96 L 29 97 L 29 99 L 30 99 L 30 94 L 31 93 L 30 92 L 31 91 L 38 91 L 38 80 L 39 79 L 54 79 L 54 76 L 55 75 L 54 74 L 54 72 L 55 71 L 64 71 L 65 72 L 65 73 L 64 74 L 65 75 L 65 77 L 64 78 L 65 79 L 72 79 L 73 80 L 73 91 L 74 91 L 74 88 L 75 87 L 76 87 L 77 88 L 76 89 L 76 90 L 77 91 L 78 91 L 78 88 L 79 87 L 80 87 L 81 88 L 80 89 L 80 90 L 81 91 L 82 91 L 82 88 L 83 87 L 84 87 L 85 88 L 84 89 L 84 90 L 85 91 L 86 91 L 86 88 L 87 87 L 88 87 L 89 88 L 88 89 L 88 90 L 89 91 L 90 91 L 90 88 L 91 87 L 92 87 L 93 88 L 92 89 L 92 90 L 93 91 L 94 91 L 94 88 L 95 87 L 96 87 L 97 88 L 96 89 L 96 90 L 97 91 L 98 90 L 98 63 L 99 62 L 100 62 L 101 63 L 102 63 "></path>
        <path fill="none" stroke="#00fafa" stroke-width="3" d="M 388 309 L 389 310 L 389 325 L 390 325 L 390 323 L 389 322 L 390 321 L 390 319 L 389 318 L 390 317 L 390 315 L 389 314 L 390 313 L 390 312 L 391 311 L 392 311 L 393 312 L 393 325 L 394 325 L 394 323 L 393 322 L 394 321 L 394 319 L 393 318 L 394 317 L 394 315 L 393 314 L 394 313 L 394 312 L 395 311 L 396 311 L 397 312 L 397 325 L 398 325 L 399 324 L 400 325 L 400 326 L 399 327 L 398 327 L 397 328 L 397 329 L 398 329 L 398 328 L 399 327 L 400 328 L 400 330 L 399 331 L 398 331 L 397 332 L 397 333 L 398 333 L 398 332 L 399 331 L 400 331 L 401 332 L 401 333 L 402 333 L 402 332 L 403 331 L 405 333 L 405 337 L 406 337 L 406 333 L 407 332 L 408 332 L 409 333 L 409 338 L 410 339 L 409 340 L 409 341 L 410 341 L 410 332 L 411 331 L 412 331 L 413 332 L 413 339 L 412 340 L 412 342 L 413 343 L 412 344 L 412 345 L 413 346 L 413 355 L 411 357 L 410 356 L 409 356 L 409 357 L 408 358 L 408 361 L 407 362 L 406 361 L 406 360 L 405 360 L 405 361 L 406 361 L 407 362 L 406 363 L 405 363 L 404 364 L 404 365 L 403 366 L 401 366 L 400 367 L 400 368 L 401 369 L 400 370 L 399 370 L 398 369 L 398 366 L 397 366 L 396 367 L 396 368 L 397 369 L 396 370 L 395 370 L 394 369 L 394 366 L 393 366 L 392 367 L 392 368 L 393 369 L 392 370 L 391 370 L 390 369 L 390 366 L 389 366 L 389 370 L 388 371 L 389 372 L 389 374 L 388 375 L 388 376 L 389 377 L 387 379 L 386 378 L 385 378 L 384 379 L 383 379 L 382 378 L 381 378 L 380 379 L 380 380 L 381 381 L 380 382 L 379 382 L 378 381 L 378 378 L 377 378 L 376 379 L 375 379 L 374 378 L 373 378 L 372 379 L 372 380 L 373 381 L 373 382 L 372 383 L 372 384 L 373 385 L 372 386 L 371 386 L 370 385 L 369 386 L 368 386 L 366 384 L 366 361 L 367 360 L 366 359 L 366 357 L 367 356 L 366 355 L 368 353 L 369 354 L 370 354 L 370 351 L 371 350 L 372 350 L 373 351 L 372 352 L 372 353 L 373 354 L 374 354 L 374 340 L 375 339 L 375 338 L 374 337 L 375 336 L 375 334 L 374 333 L 375 332 L 375 330 L 376 329 L 377 330 L 377 333 L 378 333 L 378 331 L 380 329 L 381 330 L 381 333 L 382 333 L 382 324 L 383 323 L 383 322 L 382 321 L 382 319 L 383 318 L 382 317 L 382 315 L 384 313 L 385 314 L 385 325 L 386 325 L 386 323 L 387 322 L 386 321 L 386 319 L 387 318 L 386 317 L 386 315 L 387 314 L 386 313 L 386 311 "></path>
        <path fill="none" stroke="#fa00fa" stroke-width="3" d="M 81 377 L 80 378 L 80 381 L 79 382 L 78 381 L 78 382 L 79 382 L 80 383 L 80 385 L 79 386 L 78 385 L 78 384 L 77 384 L 75 386 L 74 385 L 74 384 L 73 385 L 72 385 L 71 386 L 72 387 L 72 389 L 71 390 L 72 391 L 72 400 L 73 401 L 74 401 L 75 400 L 76 400 L 77 401 L 78 401 L 79 400 L 80 400 L 81 401 L 82 401 L 83 400 L 84 400 L 85 401 L 86 401 L 87 400 L 88 400 L 89 401 L 90 401 L 91 400 L 92 400 L 93 401 L 94 401 L 95 400 L 96 400 L 97 401 L 98 401 L 99 400 L 100 400 L 101 401 L 102 401 L 103 400 L 104 400 L 105 401 L 106 401 L 107 400 L 108 400 L 109 401 L 110 401 L 110 378 L 95 378 L 94 377 L 93 377 L 92 378 L 91 378 L 90 377 L 89 377 L 88 378 L 87 378 L 86 377 L 85 377 L 84 378 L 83 378 L 82 377 "></path>
        <path fill="none" stroke="#00fafa" stroke-width="3" d="M 474 47 L 475 46 L 476 47 L 477 47 L 478 48 L 478 47 L 479 46 L 482 49 L 481 50 L 481 51 L 482 52 L 482 53 L 481 54 L 481 55 L 482 55 L 481 54 L 482 53 L 482 51 L 481 50 L 482 49 L 482 47 L 483 46 L 486 49 L 485 50 L 485 51 L 486 51 L 485 50 L 486 49 L 486 47 L 487 46 L 490 49 L 489 50 L 489 51 L 490 51 L 489 50 L 490 49 L 490 47 L 491 46 L 494 49 L 493 50 L 493 51 L 494 52 L 494 53 L 493 54 L 493 56 L 492 57 L 489 54 L 489 62 L 487 64 L 485 62 L 483 64 L 481 62 L 481 63 L 480 64 L 480 71 L 479 72 L 477 70 L 475 72 L 473 70 L 473 71 L 471 73 L 469 73 L 467 75 L 466 74 L 466 71 L 465 70 L 465 72 L 464 73 L 461 70 L 461 71 L 460 72 L 458 70 L 458 63 L 457 62 L 457 63 L 456 64 L 455 64 L 454 63 L 454 61 L 455 60 L 454 59 L 454 53 L 455 52 L 457 54 L 458 54 L 458 53 L 459 52 L 461 54 L 462 54 L 462 53 L 463 52 L 465 54 L 466 54 L 466 53 L 467 52 L 469 54 L 469 55 L 470 54 L 470 49 L 472 47 "></path>
        <path fill="none" stroke="#00fafa" stroke-width="3" d="M 367 280 L 368 279 L 369 280 L 370 280 L 371 279 L 372 279 L 373 280 L 374 280 L 375 279 L 377 281 L 377 282 L 379 282 L 380 281 L 382 283 L 381 284 L 381 286 L 382 287 L 381 288 L 381 290 L 382 291 L 381 292 L 381 294 L 382 294 L 382 283 L 384 281 L 386 283 L 385 284 L 385 286 L 386 286 L 386 283 L 388 281 L 390 283 L 389 284 L 389 286 L 390 287 L 389 288 L 389 290 L 390 290 L 390 283 L 392 281 L 394 283 L 393 284 L 393 286 L 394 287 L 392 289 L 392 297 L 391 298 L 390 297 L 390 296 L 389 296 L 389 304 L 387 306 L 386 305 L 386 303 L 387 302 L 386 301 L 386 299 L 387 298 L 386 297 L 386 296 L 385 296 L 385 308 L 383 310 L 382 309 L 382 308 L 383 307 L 383 306 L 382 305 L 382 303 L 383 302 L 382 301 L 382 300 L 383 299 L 383 298 L 382 297 L 382 296 L 381 296 L 381 300 L 379 302 L 378 301 L 378 300 L 379 299 L 379 298 L 378 297 L 378 296 L 377 296 L 377 304 L 375 306 L 374 305 L 374 303 L 373 303 L 371 305 L 370 304 L 367 304 L 366 303 L 367 302 L 366 301 L 366 299 L 367 298 L 366 297 L 366 296 L 365 296 L 364 297 L 363 297 L 362 296 L 361 296 L 360 297 L 358 295 L 359 294 L 358 293 L 358 291 L 359 290 L 358 289 L 358 287 L 359 286 L 366 286 L 366 283 L 367 282 "></path>
        <path fill="none" stroke="#fa00fa" stroke-width="3" d="M 37 388 L 37 390 L 36 391 L 32 391 L 32 392 L 31 393 L 29 391 L 28 391 L 28 392 L 27 393 L 25 391 L 24 391 L 24 392 L 23 393 L 21 391 L 20 391 L 20 392 L 19 393 L 18 392 L 17 392 L 16 393 L 14 393 L 13 392 L 13 393 L 12 394 L 12 395 L 13 396 L 11 398 L 9 396 L 10 395 L 9 396 L 9 398 L 8 399 L 8 400 L 7 401 L 6 400 L 6 399 L 5 399 L 5 405 L 6 405 L 6 404 L 7 403 L 8 404 L 8 405 L 9 406 L 18 406 L 19 405 L 20 405 L 21 406 L 22 406 L 23 405 L 24 405 L 25 406 L 26 406 L 27 405 L 29 405 L 30 406 L 31 405 L 32 405 L 33 406 L 34 406 L 35 405 L 36 405 L 37 406 L 38 406 L 39 405 L 40 405 L 41 406 L 42 406 L 43 405 L 44 405 L 45 406 L 46 406 L 47 405 L 48 405 L 49 406 L 50 406 L 51 405 L 52 405 L 53 406 L 54 406 L 55 405 L 56 405 L 57 406 L 58 406 L 59 405 L 58 404 L 58 402 L 59 401 L 57 399 L 55 401 L 54 400 L 52 400 L 51 401 L 49 399 L 47 401 L 45 399 L 43 401 L 41 399 L 40 399 L 39 398 L 39 392 L 38 391 L 38 389 "></path>
        <path fill="none" stroke="#00fafa" stroke-width="3" d="M 438 271 L 439 270 L 441 272 L 442 272 L 442 271 L 443 270 L 445 272 L 446 272 L 447 271 L 448 272 L 448 274 L 449 275 L 448 276 L 448 278 L 449 279 L 448 280 L 448 282 L 449 283 L 448 284 L 448 287 L 447 288 L 446 287 L 445 288 L 444 288 L 443 289 L 442 288 L 440 288 L 439 289 L 438 288 L 436 288 L 435 289 L 434 288 L 433 288 L 431 290 L 430 289 L 430 288 L 429 288 L 428 289 L 428 290 L 427 291 L 426 290 L 426 284 L 425 284 L 425 286 L 426 287 L 423 290 L 422 289 L 422 279 L 424 277 L 425 278 L 425 282 L 426 282 L 426 279 L 427 278 L 426 277 L 426 275 L 428 273 L 429 274 L 429 281 L 430 281 L 430 279 L 431 278 L 430 277 L 430 275 L 432 273 L 433 274 L 433 281 L 434 281 L 434 273 L 436 271 L 437 272 L 437 273 L 438 273 "></path>
        <path fill="none" stroke="#fa00fa" stroke-width="3" d="M 121 272 L 120 273 L 117 273 L 116 274 L 117 275 L 117 277 L 116 278 L 117 279 L 117 280 L 116 281 L 101 281 L 101 287 L 102 287 L 103 286 L 104 286 L 105 287 L 106 287 L 107 286 L 109 288 L 108 289 L 108 290 L 109 291 L 109 295 L 110 295 L 111 294 L 112 294 L 113 295 L 114 295 L 115 294 L 116 294 L 117 295 L 118 295 L 118 291 L 119 290 L 121 292 L 120 293 L 120 294 L 121 295 L 122 295 L 122 291 L 123 290 L 122 289 L 122 288 L 123 287 L 124 287 L 125 288 L 126 287 L 130 287 L 131 286 L 130 285 L 130 284 L 131 283 L 131 282 L 129 280 L 127 282 L 125 280 L 124 281 L 123 281 L 122 280 L 123 279 L 123 277 L 122 276 L 122 275 L 123 274 "></path>
        <path fill="none" stroke="#00fafa" stroke-width="3" d="M 338 90 L 339 89 L 341 91 L 342 91 L 342 90 L 343 89 L 345 91 L 345 92 L 344 93 L 345 94 L 345 96 L 344 97 L 345 98 L 345 100 L 344 101 L 345 102 L 345 104 L 344 105 L 345 106 L 345 107 L 344 108 L 343 108 L 342 107 L 341 108 L 335 108 L 334 107 L 333 108 L 331 108 L 330 107 L 329 108 L 323 108 L 322 107 L 322 101 L 323 100 L 322 99 L 322 98 L 323 97 L 325 99 L 326 99 L 326 98 L 327 97 L 329 99 L 330 99 L 331 98 L 332 98 L 333 99 L 334 99 L 335 98 L 334 97 L 335 96 L 335 94 L 334 93 L 335 92 L 335 91 L 336 90 L 337 91 L 338 91 "></path>
        <path fill="none" stroke="#00fafa" stroke-width="3" d="M 315 123 L 316 122 L 322 122 L 323 123 L 324 123 L 325 124 L 325 126 L 326 126 L 326 124 L 327 123 L 328 123 L 329 124 L 329 127 L 330 128 L 327 131 L 326 130 L 326 129 L 325 129 L 325 131 L 324 132 L 323 132 L 322 131 L 322 129 L 321 129 L 321 131 L 320 132 L 317 132 L 316 133 L 315 133 L 314 132 L 313 133 L 312 133 L 311 134 L 310 133 L 310 132 L 309 133 L 308 133 L 307 134 L 306 133 L 306 130 L 307 129 L 306 128 L 307 127 L 306 126 L 307 125 L 307 124 L 308 123 L 309 123 L 310 124 L 309 125 L 309 126 L 310 126 L 310 124 L 311 123 "></path>
        <path fill="none" stroke="#fa00fa" stroke-width="3" d="M 509 374 L 509 382 L 508 383 L 507 383 L 506 382 L 504 384 L 502 382 L 501 382 L 500 383 L 499 383 L 498 382 L 497 382 L 496 383 L 495 383 L 494 382 L 493 382 L 493 390 L 492 391 L 491 391 L 490 390 L 489 391 L 489 392 L 490 392 L 491 391 L 492 392 L 494 392 L 495 391 L 496 392 L 498 392 L 499 391 L 500 392 L 502 392 L 503 391 L 504 392 L 506 392 L 507 391 L 508 392 L 510 392 L 511 391 L 511 390 L 510 389 L 510 388 L 511 387 L 510 386 L 510 384 L 511 383 L 510 382 L 510 380 L 511 379 L 510 378 L 510 376 L 511 375 L 510 374 "></path>
        <path fill="none" stroke="#00fafa" stroke-width="3" d="M 350 106 L 351 105 L 353 107 L 354 107 L 355 106 L 356 106 L 357 107 L 358 107 L 359 106 L 360 106 L 361 107 L 363 107 L 364 106 L 365 107 L 366 107 L 367 108 L 367 109 L 366 110 L 365 109 L 365 110 L 367 112 L 367 113 L 366 114 L 365 113 L 365 115 L 364 116 L 362 114 L 362 113 L 361 113 L 361 115 L 360 116 L 358 114 L 358 113 L 357 113 L 357 115 L 356 116 L 354 114 L 354 113 L 353 113 L 353 115 L 352 116 L 351 116 L 350 115 L 350 113 L 349 113 L 349 114 L 348 115 L 347 115 L 346 114 L 346 107 L 347 106 L 348 106 L 349 107 L 350 107 "></path>
        <path fill="none" stroke="#00fafa" stroke-width="3" d="M 246 92 L 247 91 L 248 91 L 249 92 L 249 95 L 250 95 L 250 92 L 251 91 L 252 91 L 253 92 L 253 95 L 254 95 L 254 92 L 255 91 L 264 91 L 265 92 L 265 95 L 266 94 L 266 92 L 267 91 L 268 91 L 269 92 L 269 93 L 268 94 L 269 95 L 269 97 L 268 98 L 268 99 L 267 100 L 266 99 L 266 97 L 265 97 L 265 99 L 264 100 L 256 100 L 254 98 L 254 97 L 253 97 L 251 99 L 250 98 L 250 97 L 249 97 L 247 99 L 246 98 L 246 96 L 247 95 L 246 94 "></path>
        <path fill="none" stroke="#00fafa" stroke-width="3" d="M 290 131 L 291 130 L 292 130 L 293 131 L 294 130 L 296 130 L 297 131 L 304 131 L 305 132 L 304 133 L 304 134 L 305 135 L 305 136 L 304 137 L 304 138 L 303 139 L 302 138 L 302 137 L 301 137 L 301 138 L 302 139 L 300 141 L 299 141 L 298 140 L 297 140 L 296 141 L 295 141 L 294 140 L 294 138 L 293 137 L 293 139 L 292 140 L 289 137 L 289 139 L 288 140 L 286 138 L 286 136 L 287 135 L 286 134 L 286 133 L 288 131 "></path>
        <path fill="none" stroke="#00fafa" stroke-width="3" d="M 430 63 L 431 62 L 432 63 L 434 63 L 435 62 L 436 63 L 436 65 L 434 67 L 433 66 L 433 67 L 434 67 L 436 69 L 435 70 L 433 70 L 433 71 L 432 72 L 431 72 L 429 70 L 428 71 L 428 73 L 426 75 L 426 76 L 427 76 L 428 77 L 426 79 L 425 79 L 424 80 L 420 80 L 418 78 L 418 70 L 419 69 L 420 69 L 421 70 L 422 70 L 423 69 L 425 71 L 425 72 L 426 72 L 426 69 L 427 68 L 426 67 L 427 66 L 426 65 L 427 64 L 430 64 "></path>
        <path fill="none" stroke="#00fafa" stroke-width="3" d="M 346 169 L 347 168 L 348 169 L 350 169 L 351 168 L 352 169 L 354 169 L 355 168 L 357 170 L 357 173 L 358 173 L 359 172 L 358 171 L 358 169 L 359 168 L 361 170 L 361 173 L 362 173 L 363 172 L 362 171 L 362 169 L 363 168 L 365 170 L 365 176 L 364 177 L 362 175 L 361 175 L 361 176 L 360 177 L 358 175 L 357 175 L 357 178 L 356 179 L 354 177 L 354 176 L 353 176 L 353 178 L 352 179 L 350 177 L 350 176 L 349 176 L 349 178 L 348 179 L 346 177 L 347 176 L 346 175 L 346 173 L 347 172 L 346 171 "></path>
        <path fill="none" stroke="#00fafa" stroke-width="3" d="M 162 90 L 163 89 L 165 91 L 166 91 L 166 90 L 167 89 L 169 91 L 170 91 L 170 90 L 171 89 L 174 92 L 175 92 L 176 93 L 176 98 L 175 99 L 173 99 L 172 100 L 171 99 L 169 99 L 168 100 L 167 99 L 165 99 L 164 100 L 163 99 L 162 99 L 161 98 L 160 99 L 159 98 L 159 97 L 160 96 L 158 94 L 161 91 L 162 91 "></path>
        <path fill="none" stroke="#00fafa" stroke-width="3" d="M 282 91 L 283 90 L 284 91 L 286 91 L 287 90 L 288 91 L 290 91 L 291 90 L 292 91 L 292 99 L 291 100 L 289 98 L 289 99 L 288 100 L 287 100 L 285 98 L 285 99 L 284 100 L 283 100 L 281 98 L 282 97 L 280 99 L 278 97 L 279 96 L 278 95 L 279 94 L 278 93 L 280 91 "></path>
        <path fill="none" stroke="#00fafa" stroke-width="3" d="M 346 55 L 347 54 L 348 55 L 348 56 L 349 57 L 349 60 L 350 61 L 349 62 L 349 63 L 350 64 L 350 63 L 349 62 L 350 61 L 350 59 L 349 58 L 351 56 L 352 56 L 353 57 L 353 62 L 352 63 L 352 66 L 353 67 L 352 68 L 352 69 L 353 70 L 353 71 L 352 72 L 351 72 L 350 71 L 349 71 L 348 72 L 346 70 L 346 63 L 345 62 L 346 61 L 346 59 L 345 58 L 346 57 "></path>
        <path fill="none" stroke="#fa00fa" stroke-width="3" d="M 30 277 L 29 278 L 29 288 L 30 289 L 30 287 L 31 286 L 33 288 L 33 289 L 34 289 L 34 287 L 35 286 L 37 288 L 37 289 L 38 289 L 38 287 L 39 286 L 42 289 L 42 279 L 41 278 L 42 277 L 41 278 L 41 281 L 40 282 L 39 282 L 38 281 L 38 279 L 37 278 L 38 277 L 37 278 L 36 278 L 36 279 L 37 280 L 37 281 L 36 282 L 35 282 L 34 281 L 34 279 L 33 278 L 34 277 L 33 278 L 32 278 L 33 279 L 33 281 L 32 282 L 31 282 L 30 281 L 30 279 L 29 278 "></path>
        <path fill="none" stroke="#00fafa" stroke-width="3" d="M 398 281 L 399 280 L 401 282 L 403 282 L 404 281 L 406 283 L 405 284 L 405 286 L 406 287 L 404 289 L 404 290 L 403 291 L 402 290 L 402 284 L 401 284 L 401 286 L 402 287 L 400 289 L 400 290 L 399 291 L 398 290 L 398 284 L 397 284 L 397 286 L 398 287 L 396 289 L 396 290 L 395 291 L 394 290 L 394 283 L 396 281 L 397 282 L 398 282 "></path>
        <path fill="none" stroke="#00fafa" stroke-width="3" d="M 418 280 L 419 279 L 420 279 L 421 280 L 420 281 L 422 283 L 421 284 L 421 286 L 422 287 L 420 289 L 419 289 L 418 288 L 418 284 L 417 284 L 417 286 L 418 287 L 416 289 L 415 289 L 414 288 L 414 284 L 413 284 L 413 286 L 414 287 L 411 290 L 410 289 L 410 283 L 412 281 L 413 282 L 414 282 L 414 281 L 415 280 L 417 282 L 418 282 "></path>
        <path fill="none" stroke="#00fafa" stroke-width="3" d="M 66 168 L 67 167 L 68 167 L 69 168 L 70 168 L 72 170 L 71 171 L 72 172 L 71 173 L 72 174 L 69 177 L 64 177 L 63 176 L 63 175 L 62 174 L 63 173 L 62 172 L 63 171 L 62 170 L 64 168 "></path>
        <path fill="none" stroke="#00fafa" stroke-width="3" d="M 498 47 L 499 46 L 502 49 L 501 50 L 501 51 L 502 51 L 501 50 L 502 49 L 502 47 L 503 46 L 504 47 L 505 47 L 506 48 L 507 47 L 508 48 L 508 54 L 507 55 L 506 54 L 505 54 L 503 56 L 502 55 L 502 53 L 499 56 L 498 55 L 498 51 L 497 50 L 498 49 "></path>
        <path fill="none" stroke="#00fafa" stroke-width="3" d="M 294 99 L 295 98 L 296 99 L 298 99 L 299 98 L 300 99 L 300 107 L 299 108 L 297 106 L 295 108 L 293 106 L 292 107 L 291 106 L 291 104 L 290 103 L 291 102 L 290 101 L 292 99 "></path>
        <path fill="none" stroke="#00fafa" stroke-width="3" d="M 379 160 L 380 159 L 381 160 L 383 160 L 384 161 L 384 162 L 385 163 L 384 164 L 384 166 L 383 167 L 381 167 L 380 168 L 380 169 L 379 170 L 377 168 L 376 169 L 375 168 L 375 161 L 376 160 "></path>
        <path fill="none" stroke="#00fafa" stroke-width="3" d="M 176 18 L 177 19 L 179 19 L 180 20 L 180 21 L 182 23 L 181 24 L 181 28 L 180 29 L 180 30 L 181 31 L 180 32 L 179 32 L 178 31 L 178 28 L 176 28 L 174 26 L 174 20 "></path>
        <path fill="none" stroke="#00fafa" stroke-width="3" d="M 6 108 L 7 107 L 8 107 L 10 109 L 11 108 L 12 109 L 12 115 L 11 116 L 10 115 L 9 115 L 9 116 L 8 117 L 6 115 L 4 115 L 3 114 L 3 109 L 4 108 L 5 109 L 6 109 "></path>
        <path fill="none" stroke="#fa00fa" stroke-width="3" d="M 65 364 L 65 366 L 66 367 L 65 368 L 65 370 L 66 371 L 65 372 L 65 374 L 66 374 L 66 371 L 67 370 L 69 370 L 70 371 L 69 372 L 69 373 L 68 374 L 70 374 L 70 371 L 71 370 L 73 370 L 74 371 L 73 372 L 73 374 L 74 374 L 74 367 L 75 366 L 74 365 L 74 364 L 73 364 L 71 366 L 70 365 L 70 364 L 69 364 L 69 365 L 68 366 L 67 366 L 66 365 L 66 364 "></path>
        <path fill="none" stroke="#00fafa" stroke-width="3" d="M 366 169 L 367 168 L 369 170 L 369 173 L 370 173 L 371 172 L 370 171 L 370 169 L 371 168 L 374 171 L 373 172 L 373 174 L 372 175 L 372 177 L 371 178 L 369 176 L 370 175 L 369 176 L 369 178 L 368 179 L 366 177 L 367 176 L 366 175 L 366 173 L 367 172 L 366 171 "></path>
        <path fill="none" stroke="#00fafa" stroke-width="3" d="M 336 189 L 337 190 L 337 210 L 336 211 L 334 209 L 335 208 L 334 207 L 335 206 L 334 205 L 335 204 L 334 203 L 335 202 L 334 201 L 335 200 L 334 199 L 335 198 L 334 197 L 335 196 L 334 195 L 335 194 L 334 193 L 335 192 L 334 191 "></path>
        <path fill="none" stroke="#00fafa" stroke-width="3" d="M 340 189 L 341 190 L 341 210 L 340 211 L 338 209 L 339 208 L 338 207 L 339 206 L 338 205 L 339 204 L 338 203 L 339 202 L 338 201 L 339 200 L 338 199 L 339 198 L 338 197 L 339 196 L 338 195 L 339 194 L 338 193 L 339 192 L 338 191 "></path>
        <path fill="none" stroke="#00fafa" stroke-width="3" d="M 354 55 L 355 54 L 357 56 L 359 56 L 360 57 L 360 58 L 361 59 L 360 60 L 360 63 L 359 64 L 358 63 L 357 63 L 356 64 L 354 62 L 354 60 L 355 59 L 354 58 "></path>
        <path fill="none" stroke="#00fafa" stroke-width="3" d="M 344 191 L 345 192 L 345 208 L 344 209 L 342 207 L 343 206 L 342 205 L 343 204 L 342 203 L 343 202 L 342 201 L 343 200 L 342 199 L 343 198 L 342 197 L 343 196 L 342 195 L 343 194 L 342 193 "></path>
        <path fill="none" stroke="#00fafa" stroke-width="3" d="M 348 191 L 349 192 L 349 208 L 348 209 L 346 207 L 347 206 L 346 205 L 347 204 L 346 203 L 347 202 L 346 201 L 347 200 L 346 199 L 347 198 L 346 197 L 347 196 L 346 195 L 347 194 L 346 193 "></path>
        <path fill="none" stroke="#00fafa" stroke-width="3" d="M 379 310 L 380 309 L 381 310 L 381 324 L 379 326 L 378 325 L 378 323 L 379 322 L 378 321 L 378 319 L 379 318 L 378 317 L 378 316 L 379 315 L 379 314 L 378 313 L 378 312 L 379 311 "></path>
        <path fill="none" stroke="#fa00fa" stroke-width="3" d="M 81 332 L 81 333 L 80 334 L 80 335 L 81 336 L 80 337 L 80 339 L 81 340 L 81 341 L 82 341 L 81 340 L 81 338 L 82 337 L 85 340 L 85 341 L 86 341 L 85 340 L 85 338 L 86 337 L 89 340 L 89 341 L 90 341 L 89 340 L 89 339 L 90 338 L 90 337 L 89 336 L 89 334 L 90 333 L 89 333 L 88 334 L 88 335 L 89 336 L 87 338 L 85 336 L 85 334 L 86 333 L 85 332 L 85 333 L 84 334 L 83 334 "></path>
        <path fill="none" stroke="#00fafa" stroke-width="3" d="M 426 42 L 427 41 L 429 43 L 428 44 L 428 45 L 429 46 L 429 47 L 428 48 L 428 49 L 429 50 L 429 51 L 428 52 L 428 53 L 429 54 L 429 55 L 428 56 L 427 56 L 426 55 "></path>
        <path fill="none" stroke="#00fafa" stroke-width="3" d="M 18 30 L 19 29 L 21 31 L 21 33 L 20 34 L 21 35 L 21 36 L 20 37 L 20 39 L 21 40 L 20 41 L 19 41 L 18 40 L 18 37 L 17 36 L 18 35 L 18 33 L 17 32 L 18 31 "></path>
        <path fill="none" stroke="#fa00fa" stroke-width="3" d="M 77 324 L 77 325 L 76 326 L 77 327 L 77 328 L 76 329 L 76 331 L 75 332 L 73 332 L 72 333 L 71 333 L 70 332 L 69 332 L 67 334 L 65 332 L 63 334 L 62 333 L 61 333 L 62 333 L 64 335 L 64 337 L 63 338 L 61 336 L 61 338 L 62 339 L 60 341 L 58 341 L 57 340 L 56 341 L 54 341 L 53 340 L 51 342 L 49 340 L 47 342 L 45 340 L 45 342 L 44 343 L 42 341 L 41 341 L 42 341 L 45 344 L 43 346 L 41 344 L 41 346 L 42 347 L 39 350 L 37 348 L 37 350 L 38 351 L 35 354 L 34 353 L 34 351 L 35 350 L 33 348 L 33 350 L 34 351 L 31 354 L 30 353 L 30 351 L 31 350 L 29 348 L 29 350 L 30 351 L 27 354 L 25 352 L 25 354 L 26 355 L 25 356 L 25 360 L 23 362 L 22 361 L 22 359 L 23 358 L 21 356 L 21 360 L 19 362 L 18 361 L 18 359 L 19 358 L 18 357 L 17 357 L 17 362 L 16 363 L 17 364 L 15 366 L 13 364 L 11 366 L 9 364 L 7 366 L 5 364 L 5 366 L 6 367 L 5 368 L 5 370 L 6 371 L 5 372 L 5 374 L 6 375 L 5 376 L 5 378 L 6 379 L 4 381 L 5 382 L 5 384 L 3 386 L 1 384 L 1 385 L 2 386 L 1 387 L 1 389 L 2 390 L 1 391 L 1 397 L 2 398 L 2 399 L 1 400 L 1 401 L 2 402 L 2 403 L 1 404 L 1 405 L 2 405 L 3 404 L 4 405 L 5 405 L 6 406 L 7 405 L 8 406 L 19 406 L 20 405 L 21 406 L 22 406 L 23 405 L 24 405 L 25 406 L 26 406 L 27 405 L 28 405 L 29 406 L 30 406 L 31 405 L 32 405 L 33 406 L 34 406 L 35 405 L 36 405 L 37 406 L 38 406 L 39 405 L 40 405 L 41 406 L 42 406 L 43 405 L 44 405 L 45 406 L 46 406 L 47 405 L 48 405 L 49 406 L 50 406 L 51 405 L 52 405 L 53 406 L 54 406 L 55 405 L 56 405 L 57 406 L 58 406 L 60 404 L 61 404 L 62 403 L 62 400 L 61 399 L 60 399 L 58 397 L 57 397 L 56 398 L 55 398 L 54 397 L 53 397 L 52 398 L 51 398 L 50 397 L 50 396 L 49 396 L 48 395 L 47 395 L 46 394 L 46 392 L 45 392 L 44 391 L 43 391 L 42 390 L 42 388 L 41 387 L 41 386 L 42 385 L 42 384 L 43 383 L 45 383 L 46 382 L 47 382 L 47 381 L 46 380 L 47 379 L 48 379 L 47 378 L 47 377 L 46 376 L 46 375 L 48 373 L 49 374 L 50 374 L 50 371 L 52 369 L 53 370 L 53 374 L 54 374 L 54 371 L 56 369 L 57 370 L 57 374 L 60 374 L 62 376 L 62 378 L 63 379 L 64 379 L 66 381 L 66 382 L 67 382 L 69 384 L 69 397 L 71 399 L 70 400 L 71 399 L 72 400 L 72 401 L 73 402 L 80 402 L 81 403 L 82 402 L 87 402 L 88 403 L 89 403 L 90 402 L 91 403 L 92 403 L 93 402 L 94 402 L 95 401 L 96 401 L 97 402 L 98 402 L 99 401 L 100 401 L 101 402 L 102 401 L 110 401 L 110 399 L 111 398 L 111 382 L 110 381 L 111 380 L 110 379 L 110 377 L 109 377 L 108 378 L 107 378 L 106 377 L 106 376 L 105 377 L 104 377 L 103 378 L 102 377 L 102 376 L 101 377 L 100 377 L 99 378 L 98 377 L 98 376 L 97 377 L 96 377 L 95 378 L 94 377 L 94 376 L 93 376 L 92 377 L 91 377 L 90 376 L 89 376 L 88 377 L 87 377 L 86 376 L 83 376 L 82 375 L 81 375 L 79 377 L 78 376 L 78 363 L 79 362 L 82 362 L 83 361 L 83 354 L 84 353 L 85 354 L 86 353 L 85 352 L 83 354 L 82 353 L 82 351 L 84 349 L 85 350 L 86 350 L 86 349 L 85 348 L 83 350 L 82 349 L 82 347 L 84 345 L 85 346 L 87 346 L 88 345 L 89 346 L 89 348 L 88 349 L 89 350 L 89 353 L 90 354 L 90 352 L 89 351 L 90 350 L 90 348 L 89 347 L 90 346 L 90 343 L 92 341 L 93 342 L 93 345 L 94 345 L 93 344 L 93 343 L 94 342 L 94 341 L 93 340 L 93 338 L 91 336 L 92 335 L 92 334 L 90 332 L 88 332 L 87 333 L 86 332 L 86 331 L 85 330 L 84 330 L 82 328 L 83 327 L 83 326 L 82 325 L 82 324 L 81 324 L 79 326 "></path>
        <path fill="none" stroke="#00fafa" stroke-width="3" d="M 106 64 L 107 63 L 108 63 L 109 64 L 110 64 L 111 63 L 112 63 L 113 64 L 119 64 L 120 65 L 120 70 L 119 71 L 119 72 L 120 73 L 120 74 L 118 76 L 119 77 L 119 78 L 118 79 L 116 79 L 115 80 L 113 80 L 112 81 L 112 82 L 113 83 L 112 84 L 112 90 L 109 93 L 108 93 L 109 94 L 108 95 L 107 95 L 106 96 L 102 96 L 101 97 L 100 97 L 101 98 L 100 99 L 100 102 L 99 103 L 98 103 L 97 102 L 95 104 L 93 102 L 91 104 L 89 102 L 87 104 L 86 103 L 86 101 L 83 104 L 82 103 L 82 101 L 79 104 L 78 103 L 78 101 L 75 104 L 74 103 L 74 101 L 71 104 L 70 103 L 70 101 L 67 104 L 66 103 L 66 101 L 63 104 L 62 103 L 62 101 L 61 101 L 61 102 L 59 104 L 58 103 L 58 102 L 59 101 L 58 100 L 58 99 L 57 100 L 56 99 L 55 100 L 54 99 L 53 100 L 53 102 L 51 104 L 50 103 L 50 102 L 51 101 L 49 101 L 49 102 L 47 104 L 46 103 L 46 101 L 45 101 L 45 102 L 43 104 L 42 103 L 42 101 L 41 101 L 41 102 L 39 104 L 38 103 L 38 101 L 37 101 L 37 102 L 36 103 L 35 103 L 34 102 L 35 101 L 34 100 L 34 99 L 33 98 L 34 97 L 34 96 L 35 95 L 34 94 L 35 93 L 36 93 L 37 94 L 39 92 L 39 90 L 40 89 L 40 88 L 39 87 L 39 86 L 42 83 L 42 82 L 43 81 L 44 81 L 45 82 L 46 81 L 48 81 L 50 83 L 50 82 L 51 81 L 52 81 L 53 82 L 54 81 L 56 81 L 56 80 L 55 79 L 55 77 L 56 76 L 57 77 L 57 76 L 58 75 L 58 74 L 59 73 L 60 73 L 61 74 L 61 75 L 62 76 L 62 77 L 63 76 L 64 77 L 64 78 L 63 79 L 64 79 L 66 81 L 67 80 L 68 80 L 69 81 L 71 81 L 72 82 L 71 83 L 72 84 L 72 91 L 76 91 L 77 92 L 78 92 L 79 91 L 80 91 L 81 92 L 89 92 L 90 93 L 91 92 L 97 92 L 98 93 L 98 92 L 99 91 L 99 66 L 100 65 L 102 65 L 103 64 "></path>
        <path fill="none" stroke="#00fafa" stroke-width="3" d="M 78 178 L 79 177 L 80 177 L 82 179 L 82 178 L 83 177 L 84 177 L 86 179 L 86 178 L 87 177 L 88 177 L 90 179 L 90 178 L 91 177 L 92 177 L 94 179 L 94 178 L 95 177 L 96 177 L 98 179 L 98 178 L 99 177 L 100 177 L 102 179 L 102 178 L 103 177 L 104 177 L 106 179 L 106 178 L 107 177 L 108 177 L 110 179 L 110 178 L 111 177 L 112 177 L 114 179 L 114 178 L 115 177 L 116 177 L 117 178 L 117 179 L 119 179 L 120 178 L 121 179 L 121 180 L 122 181 L 122 183 L 122 182 L 124 180 L 126 182 L 126 183 L 126 182 L 128 180 L 129 181 L 131 181 L 132 180 L 133 181 L 135 181 L 136 180 L 137 181 L 139 181 L 140 180 L 142 182 L 142 185 L 143 186 L 139 190 L 138 189 L 137 189 L 136 190 L 135 190 L 134 189 L 133 189 L 132 188 L 131 188 L 130 187 L 129 187 L 128 188 L 127 187 L 127 185 L 126 185 L 124 187 L 123 186 L 123 185 L 122 185 L 122 186 L 119 189 L 117 189 L 117 190 L 116 191 L 114 191 L 114 192 L 113 193 L 113 199 L 111 201 L 110 201 L 111 201 L 112 202 L 111 203 L 109 203 L 108 204 L 107 203 L 106 203 L 105 204 L 104 204 L 105 205 L 105 207 L 104 208 L 103 207 L 102 207 L 102 208 L 101 209 L 101 210 L 100 211 L 99 211 L 98 210 L 98 209 L 96 211 L 95 210 L 95 209 L 94 208 L 94 207 L 93 206 L 92 206 L 91 205 L 91 203 L 87 203 L 86 202 L 86 201 L 84 203 L 83 202 L 83 200 L 81 198 L 82 197 L 81 196 L 81 195 L 79 193 L 79 191 L 78 191 L 77 190 L 76 191 L 75 190 L 75 189 L 74 188 L 74 187 L 73 186 L 74 185 L 74 183 L 73 182 L 75 180 L 75 179 L 76 178 L 77 179 L 78 179 "></path>
        <path fill="none" stroke="#00fafa" stroke-width="3" d="M 406 348 L 407 347 L 408 347 L 409 348 L 411 348 L 412 349 L 411 350 L 411 351 L 410 352 L 411 353 L 409 355 L 408 355 L 407 356 L 406 355 L 405 355 L 405 356 L 404 357 L 404 358 L 403 359 L 402 359 L 402 360 L 403 359 L 404 360 L 404 361 L 403 362 L 401 362 L 400 363 L 397 363 L 397 364 L 395 366 L 394 365 L 394 364 L 393 364 L 393 365 L 392 366 L 391 366 L 390 365 L 390 364 L 388 366 L 388 373 L 387 374 L 386 373 L 386 372 L 386 374 L 385 375 L 383 375 L 382 376 L 381 375 L 380 375 L 381 376 L 380 377 L 379 377 L 377 375 L 372 375 L 370 373 L 370 372 L 369 371 L 369 370 L 370 369 L 370 368 L 369 367 L 369 366 L 370 365 L 370 361 L 372 359 L 373 359 L 374 360 L 376 360 L 377 361 L 377 362 L 378 362 L 379 363 L 381 363 L 382 362 L 383 363 L 384 363 L 383 362 L 383 360 L 384 359 L 385 360 L 385 361 L 386 360 L 385 359 L 385 358 L 386 357 L 386 355 L 387 354 L 391 354 L 392 353 L 393 354 L 395 354 L 396 353 L 397 354 L 401 354 L 402 355 L 403 354 L 403 351 L 405 349 L 406 349 "></path>
        <path fill="none" stroke="#fa00fa" stroke-width="3" d="M 117 272 L 116 273 L 116 276 L 115 277 L 115 278 L 114 279 L 113 279 L 112 280 L 108 280 L 107 281 L 106 280 L 105 280 L 104 281 L 103 281 L 102 280 L 101 280 L 100 281 L 100 283 L 101 284 L 100 285 L 100 286 L 101 287 L 104 287 L 105 288 L 105 289 L 107 289 L 108 290 L 108 294 L 109 295 L 112 295 L 113 296 L 114 295 L 116 295 L 117 296 L 118 295 L 120 295 L 121 296 L 122 295 L 123 295 L 123 292 L 124 291 L 126 291 L 126 289 L 127 288 L 128 288 L 129 289 L 131 287 L 131 281 L 130 280 L 130 279 L 129 279 L 128 280 L 126 278 L 126 277 L 124 275 L 124 274 L 122 272 L 121 272 L 120 273 L 119 273 L 118 272 "></path>
        <path fill="none" stroke="#00fafa" stroke-width="3" d="M 473 49 L 474 48 L 476 48 L 477 49 L 477 56 L 480 56 L 481 57 L 481 58 L 480 59 L 481 60 L 481 62 L 479 64 L 477 62 L 477 66 L 475 68 L 473 66 L 473 70 L 472 71 L 471 71 L 469 69 L 470 68 L 470 67 L 469 66 L 469 70 L 467 72 L 466 71 L 466 70 L 465 69 L 466 68 L 466 67 L 465 66 L 465 70 L 464 71 L 463 71 L 462 70 L 462 67 L 461 66 L 461 65 L 462 64 L 462 63 L 461 62 L 459 64 L 458 63 L 458 62 L 457 61 L 458 60 L 458 58 L 457 57 L 458 56 L 460 56 L 461 57 L 461 60 L 462 60 L 462 59 L 461 58 L 461 57 L 463 55 L 464 55 L 465 56 L 466 56 L 467 55 L 470 55 L 470 53 L 471 52 L 471 50 L 472 49 "></path>
        <path fill="none" stroke="#fa00fa" stroke-width="3" d="M 174 289 L 173 290 L 170 290 L 170 293 L 169 294 L 169 295 L 170 296 L 170 323 L 170 307 L 171 306 L 170 305 L 170 304 L 171 303 L 171 302 L 170 301 L 170 300 L 171 299 L 171 298 L 170 297 L 170 296 L 172 294 L 173 295 L 173 310 L 174 311 L 174 320 L 174 311 L 175 310 L 174 309 L 174 308 L 175 307 L 175 306 L 174 305 L 174 304 L 175 303 L 175 302 L 174 301 L 174 300 L 175 299 L 175 298 L 174 297 L 174 296 L 175 295 L 176 295 L 177 296 L 177 312 L 178 313 L 177 314 L 178 315 L 178 320 L 178 312 L 179 311 L 179 310 L 178 309 L 178 308 L 179 307 L 179 306 L 178 305 L 178 304 L 179 303 L 179 302 L 178 301 L 178 300 L 179 299 L 179 298 L 178 297 L 178 296 L 180 294 L 182 296 L 182 298 L 181 299 L 182 300 L 182 301 L 181 302 L 181 319 L 182 320 L 182 323 L 182 320 L 183 319 L 183 318 L 182 317 L 182 316 L 183 315 L 183 314 L 182 313 L 182 312 L 183 311 L 183 310 L 182 309 L 182 308 L 183 307 L 183 306 L 182 305 L 182 304 L 183 303 L 183 302 L 182 301 L 182 295 L 181 294 L 179 294 L 178 293 L 178 292 L 179 291 L 179 290 L 178 289 L 177 290 L 175 290 "></path>
        <path fill="none" stroke="#00fafa" stroke-width="3" d="M 442 273 L 443 272 L 444 272 L 445 273 L 445 275 L 446 276 L 447 276 L 448 277 L 448 278 L 447 279 L 446 278 L 446 280 L 447 279 L 448 280 L 448 281 L 447 282 L 446 282 L 446 283 L 445 284 L 445 285 L 443 287 L 442 286 L 442 285 L 441 285 L 440 286 L 439 286 L 438 285 L 438 284 L 437 284 L 436 283 L 436 282 L 435 281 L 435 280 L 436 279 L 437 280 L 437 278 L 438 277 L 438 275 L 439 274 L 442 274 "></path>
        <path fill="none" stroke="#00fafa" stroke-width="3" d="M 372 282 L 374 284 L 375 283 L 376 284 L 376 293 L 375 294 L 374 294 L 374 295 L 372 297 L 371 296 L 369 296 L 364 291 L 365 290 L 366 290 L 366 289 L 369 286 L 370 286 L 370 284 "></path>
        <path fill="none" stroke="#00fafa" stroke-width="3" d="M 337 97 L 338 96 L 340 96 L 341 97 L 341 99 L 342 100 L 343 100 L 344 101 L 344 102 L 343 103 L 342 103 L 343 104 L 343 105 L 342 106 L 341 106 L 340 107 L 339 107 L 338 106 L 337 106 L 336 107 L 335 107 L 334 106 L 334 103 L 333 102 L 336 99 L 338 99 L 339 98 L 338 98 "></path>
        <path fill="none" stroke="#fa00fa" stroke-width="3" d="M 78 324 L 76 326 L 77 327 L 77 329 L 74 332 L 73 332 L 72 333 L 71 333 L 70 332 L 69 332 L 68 333 L 67 333 L 66 332 L 65 332 L 64 333 L 63 333 L 62 332 L 61 333 L 63 335 L 62 336 L 61 336 L 61 337 L 63 339 L 62 340 L 61 340 L 60 341 L 59 341 L 58 340 L 57 340 L 56 341 L 55 341 L 54 340 L 53 340 L 52 341 L 51 341 L 50 340 L 49 340 L 49 341 L 48 342 L 46 340 L 45 340 L 45 341 L 44 342 L 44 343 L 45 344 L 45 345 L 44 346 L 42 344 L 41 344 L 41 345 L 43 347 L 42 348 L 41 348 L 41 353 L 40 354 L 37 351 L 39 349 L 38 348 L 37 349 L 37 353 L 36 354 L 33 351 L 34 350 L 34 348 L 33 349 L 33 353 L 32 354 L 30 352 L 29 352 L 29 357 L 28 358 L 26 356 L 25 356 L 25 361 L 24 362 L 21 359 L 23 357 L 22 356 L 21 357 L 21 361 L 20 362 L 18 360 L 18 356 L 17 357 L 18 358 L 17 359 L 17 362 L 16 363 L 16 364 L 15 365 L 14 364 L 13 364 L 13 365 L 12 366 L 10 364 L 9 364 L 9 369 L 8 370 L 6 368 L 5 368 L 5 384 L 4 385 L 3 385 L 2 384 L 1 384 L 1 385 L 2 386 L 1 387 L 1 389 L 2 390 L 1 391 L 1 393 L 2 394 L 1 395 L 1 397 L 2 398 L 2 400 L 1 401 L 2 402 L 2 403 L 1 404 L 1 405 L 3 405 L 4 404 L 6 406 L 7 405 L 8 405 L 9 406 L 19 406 L 20 405 L 21 406 L 22 406 L 23 405 L 24 405 L 25 406 L 26 406 L 27 405 L 28 405 L 29 406 L 30 406 L 31 405 L 32 405 L 33 406 L 34 406 L 35 405 L 36 405 L 37 406 L 38 406 L 39 405 L 40 405 L 41 406 L 42 406 L 43 405 L 44 405 L 45 406 L 46 406 L 47 405 L 48 405 L 49 406 L 50 406 L 51 405 L 52 405 L 53 406 L 54 406 L 55 405 L 56 405 L 57 406 L 58 406 L 60 404 L 62 404 L 62 400 L 61 399 L 60 399 L 58 397 L 57 397 L 56 398 L 55 398 L 54 397 L 54 396 L 52 398 L 51 398 L 50 397 L 50 396 L 49 396 L 48 395 L 47 395 L 46 394 L 46 392 L 45 392 L 42 389 L 42 388 L 41 387 L 41 386 L 44 383 L 45 383 L 46 382 L 47 382 L 47 381 L 46 380 L 47 379 L 48 379 L 47 378 L 47 377 L 46 376 L 46 375 L 47 374 L 47 373 L 46 372 L 46 371 L 47 370 L 48 370 L 49 371 L 49 374 L 50 374 L 51 373 L 49 371 L 50 370 L 52 370 L 53 371 L 53 373 L 54 374 L 55 373 L 53 371 L 54 370 L 56 370 L 57 371 L 57 373 L 58 374 L 59 373 L 62 376 L 62 378 L 63 379 L 64 379 L 65 380 L 65 381 L 64 382 L 67 382 L 69 384 L 69 397 L 71 399 L 70 400 L 71 399 L 73 401 L 73 402 L 80 402 L 81 403 L 82 402 L 87 402 L 88 403 L 89 403 L 90 402 L 91 403 L 93 403 L 95 401 L 96 401 L 97 402 L 98 402 L 99 401 L 100 401 L 101 402 L 102 402 L 103 401 L 110 401 L 110 400 L 111 399 L 111 381 L 110 380 L 111 379 L 110 378 L 110 377 L 109 377 L 108 378 L 107 378 L 106 377 L 106 376 L 105 377 L 104 377 L 103 378 L 102 377 L 102 376 L 101 377 L 99 377 L 98 376 L 97 376 L 96 377 L 95 377 L 94 376 L 93 376 L 92 377 L 91 377 L 90 376 L 89 376 L 88 377 L 87 377 L 86 376 L 83 376 L 82 375 L 81 375 L 80 376 L 78 374 L 78 364 L 80 362 L 82 362 L 82 361 L 83 360 L 83 355 L 85 353 L 86 354 L 86 352 L 85 352 L 85 353 L 84 354 L 82 352 L 82 350 L 83 349 L 82 348 L 82 347 L 83 346 L 86 346 L 87 345 L 86 344 L 88 342 L 89 343 L 89 353 L 90 354 L 90 352 L 89 351 L 90 350 L 90 348 L 89 347 L 91 345 L 90 344 L 92 342 L 93 343 L 93 345 L 94 346 L 94 344 L 93 343 L 94 342 L 94 340 L 93 339 L 93 338 L 91 336 L 92 335 L 92 334 L 90 332 L 88 332 L 87 333 L 85 331 L 85 330 L 84 330 L 82 328 L 84 326 L 83 326 L 82 325 L 82 324 L 81 324 L 80 325 L 79 325 "></path>
        <path fill="none" stroke="#00fafa" stroke-width="3" d="M 102 65 L 103 64 L 119 64 L 120 65 L 120 70 L 119 71 L 119 72 L 120 73 L 120 74 L 118 76 L 119 77 L 119 78 L 118 79 L 117 78 L 115 80 L 113 80 L 112 81 L 113 82 L 112 83 L 112 90 L 110 92 L 109 92 L 108 93 L 109 94 L 108 95 L 105 95 L 104 96 L 102 96 L 101 97 L 100 97 L 101 98 L 100 99 L 100 102 L 99 103 L 98 102 L 97 102 L 97 103 L 96 104 L 94 102 L 93 102 L 93 103 L 92 104 L 90 102 L 89 102 L 89 103 L 88 104 L 86 102 L 86 101 L 85 102 L 85 103 L 84 104 L 82 102 L 81 102 L 81 103 L 80 104 L 78 102 L 77 102 L 77 103 L 76 104 L 74 102 L 73 102 L 73 103 L 72 104 L 70 102 L 69 102 L 69 103 L 68 104 L 66 102 L 66 101 L 65 102 L 65 103 L 64 104 L 62 102 L 62 101 L 61 101 L 61 102 L 60 103 L 59 103 L 58 102 L 59 101 L 58 100 L 58 99 L 52 99 L 53 100 L 53 102 L 52 103 L 51 103 L 50 102 L 51 101 L 49 101 L 49 102 L 48 103 L 47 103 L 46 102 L 46 101 L 45 101 L 45 102 L 44 103 L 43 103 L 42 102 L 42 101 L 41 101 L 41 102 L 40 103 L 39 103 L 38 102 L 38 101 L 37 101 L 37 102 L 36 103 L 35 103 L 34 102 L 35 101 L 34 100 L 34 99 L 33 98 L 34 97 L 34 96 L 35 95 L 35 94 L 36 93 L 37 94 L 38 93 L 39 93 L 39 90 L 40 89 L 40 87 L 39 86 L 42 83 L 42 82 L 43 81 L 44 81 L 45 82 L 46 81 L 47 81 L 49 83 L 51 83 L 52 82 L 53 82 L 54 83 L 53 82 L 54 81 L 56 81 L 56 80 L 55 79 L 55 77 L 56 76 L 57 77 L 59 75 L 58 74 L 59 73 L 60 73 L 61 74 L 61 75 L 62 76 L 62 77 L 63 76 L 64 77 L 64 78 L 63 79 L 62 79 L 63 79 L 64 80 L 65 80 L 66 81 L 67 80 L 68 80 L 69 81 L 70 81 L 71 82 L 71 83 L 72 84 L 72 90 L 73 91 L 76 91 L 77 92 L 89 92 L 90 93 L 91 92 L 97 92 L 98 93 L 98 92 L 99 91 L 99 90 L 98 89 L 99 88 L 99 86 L 98 85 L 99 84 L 99 82 L 98 81 L 99 80 L 99 78 L 98 77 L 99 76 L 99 66 L 100 65 "></path>
        <path fill="none" stroke="#00fafa" stroke-width="3" d="M 79 178 L 80 177 L 81 178 L 81 179 L 82 179 L 82 178 L 83 177 L 84 177 L 85 178 L 85 179 L 86 179 L 86 178 L 87 177 L 88 177 L 90 179 L 90 178 L 91 177 L 92 177 L 94 179 L 94 178 L 95 177 L 96 177 L 98 179 L 98 178 L 99 177 L 100 177 L 101 178 L 101 179 L 102 179 L 102 178 L 103 177 L 104 177 L 105 178 L 105 179 L 106 179 L 106 178 L 107 177 L 108 177 L 109 178 L 109 179 L 110 179 L 110 178 L 111 177 L 112 177 L 113 178 L 113 179 L 114 179 L 114 178 L 115 177 L 116 177 L 117 178 L 117 179 L 119 179 L 120 178 L 121 179 L 121 181 L 122 182 L 122 183 L 123 183 L 122 182 L 124 180 L 126 182 L 126 183 L 127 183 L 127 181 L 128 180 L 130 182 L 130 183 L 130 182 L 132 180 L 133 181 L 135 181 L 136 180 L 137 181 L 139 181 L 140 180 L 141 181 L 141 182 L 142 183 L 142 185 L 143 186 L 139 190 L 138 189 L 137 189 L 136 190 L 135 190 L 133 188 L 131 188 L 130 187 L 128 187 L 127 186 L 127 185 L 125 185 L 124 186 L 123 185 L 122 185 L 121 186 L 121 187 L 120 188 L 119 188 L 118 189 L 117 189 L 117 190 L 116 191 L 114 191 L 114 192 L 113 193 L 113 199 L 111 201 L 110 201 L 109 202 L 109 203 L 108 204 L 107 203 L 106 203 L 105 204 L 104 204 L 105 205 L 105 207 L 104 208 L 103 207 L 102 207 L 102 208 L 101 209 L 101 210 L 100 211 L 99 211 L 98 210 L 98 209 L 97 209 L 96 210 L 95 209 L 95 208 L 93 206 L 92 206 L 91 205 L 91 203 L 87 203 L 86 202 L 86 201 L 85 201 L 84 202 L 83 201 L 83 200 L 81 198 L 82 197 L 81 196 L 82 195 L 81 195 L 79 193 L 79 191 L 78 191 L 77 190 L 76 191 L 75 190 L 75 188 L 73 186 L 74 185 L 74 183 L 73 182 L 74 181 L 75 181 L 75 179 L 76 178 L 77 179 L 79 179 "></path>
        <path fill="none" stroke="#00fafa" stroke-width="3" d="M 406 348 L 407 347 L 408 347 L 409 348 L 410 348 L 411 349 L 411 351 L 410 352 L 411 353 L 410 354 L 409 354 L 408 355 L 405 355 L 405 356 L 402 359 L 401 359 L 402 360 L 399 363 L 397 363 L 397 364 L 396 365 L 395 365 L 394 364 L 393 364 L 391 366 L 390 365 L 390 364 L 389 364 L 389 365 L 388 366 L 388 373 L 387 374 L 386 373 L 386 372 L 386 373 L 384 375 L 383 375 L 382 376 L 381 375 L 379 375 L 378 376 L 377 375 L 372 375 L 370 373 L 370 372 L 369 371 L 369 370 L 370 369 L 370 368 L 369 367 L 369 366 L 370 365 L 370 361 L 372 359 L 373 360 L 376 360 L 377 361 L 377 362 L 378 362 L 379 363 L 381 363 L 382 364 L 383 363 L 384 363 L 384 362 L 385 361 L 386 361 L 386 359 L 385 358 L 386 357 L 386 355 L 387 354 L 400 354 L 401 355 L 402 355 L 403 354 L 403 351 L 405 349 L 406 349 "></path>
        <path fill="none" stroke="#fa00fa" stroke-width="3" d="M 117 272 L 116 273 L 116 276 L 115 277 L 115 278 L 114 279 L 113 279 L 112 280 L 108 280 L 107 281 L 106 280 L 104 280 L 103 281 L 102 280 L 101 280 L 101 281 L 100 282 L 100 286 L 101 287 L 104 287 L 105 288 L 105 289 L 107 289 L 108 290 L 108 294 L 109 295 L 112 295 L 113 296 L 114 295 L 116 295 L 117 296 L 118 295 L 120 295 L 121 296 L 122 295 L 123 295 L 123 292 L 124 291 L 126 291 L 126 289 L 127 288 L 128 288 L 129 289 L 131 287 L 131 282 L 130 281 L 130 279 L 129 279 L 128 280 L 126 278 L 126 277 L 125 276 L 125 275 L 122 272 L 120 272 L 119 273 L 118 272 "></path>
        <path fill="none" stroke="#00fafa" stroke-width="3" d="M 473 49 L 474 48 L 475 48 L 477 50 L 477 59 L 478 60 L 477 61 L 477 69 L 475 71 L 473 69 L 475 67 L 474 66 L 473 66 L 473 70 L 472 71 L 471 71 L 469 69 L 470 68 L 470 66 L 469 66 L 469 70 L 468 71 L 467 71 L 465 69 L 466 68 L 466 66 L 465 66 L 465 70 L 464 71 L 463 71 L 461 69 L 463 67 L 461 65 L 462 64 L 462 62 L 461 61 L 462 60 L 462 58 L 461 57 L 463 55 L 464 55 L 465 56 L 465 59 L 466 60 L 466 58 L 465 57 L 467 55 L 470 55 L 470 54 L 471 53 L 471 50 L 472 49 "></path>
        <path fill="none" stroke="#fa00fa" stroke-width="3" d="M 173 289 L 172 290 L 170 290 L 170 292 L 169 293 L 169 296 L 170 297 L 169 298 L 169 299 L 170 300 L 169 301 L 169 307 L 170 308 L 170 317 L 169 318 L 169 319 L 170 320 L 170 323 L 170 308 L 171 307 L 171 306 L 170 305 L 170 304 L 171 303 L 171 302 L 170 301 L 170 300 L 171 299 L 171 298 L 170 297 L 170 296 L 171 295 L 172 295 L 173 296 L 173 311 L 174 312 L 174 322 L 174 312 L 175 311 L 175 310 L 174 309 L 174 308 L 175 307 L 175 306 L 174 305 L 174 304 L 175 303 L 175 302 L 174 301 L 174 300 L 175 299 L 175 298 L 174 297 L 174 296 L 175 295 L 176 295 L 177 296 L 177 315 L 178 316 L 178 320 L 178 316 L 179 315 L 179 314 L 178 313 L 178 312 L 179 311 L 179 310 L 178 309 L 178 308 L 179 307 L 179 306 L 178 305 L 178 304 L 179 303 L 179 302 L 178 301 L 178 300 L 179 299 L 179 298 L 178 297 L 178 296 L 180 294 L 181 295 L 181 319 L 182 320 L 182 323 L 182 320 L 183 319 L 183 318 L 182 317 L 182 316 L 183 315 L 183 314 L 182 313 L 182 312 L 183 311 L 183 310 L 182 309 L 182 308 L 183 307 L 183 306 L 182 305 L 182 304 L 183 303 L 183 302 L 182 301 L 182 295 L 181 294 L 182 293 L 181 294 L 179 294 L 178 293 L 178 292 L 180 290 L 179 290 L 178 289 L 177 289 L 176 290 L 175 290 L 174 289 "></path>
        <path fill="none" stroke="#00fafa" stroke-width="3" d="M 442 273 L 443 272 L 444 272 L 445 273 L 445 275 L 446 276 L 447 276 L 448 277 L 448 278 L 447 279 L 446 278 L 446 280 L 447 279 L 448 280 L 448 281 L 447 282 L 446 282 L 445 283 L 445 285 L 443 287 L 442 286 L 442 285 L 441 285 L 440 286 L 439 286 L 438 285 L 438 284 L 437 284 L 436 283 L 436 282 L 437 281 L 437 278 L 438 277 L 438 276 L 440 274 L 442 274 "></path>
        <path fill="none" stroke="#00fafa" stroke-width="3" d="M 370 284 L 371 283 L 373 283 L 374 284 L 375 283 L 376 284 L 376 285 L 375 286 L 376 287 L 376 293 L 375 294 L 374 294 L 373 295 L 373 296 L 372 297 L 370 295 L 370 294 L 369 295 L 368 295 L 365 292 L 365 291 L 366 290 L 366 289 L 369 286 L 370 286 "></path>
        <path fill="none" stroke="#00fafa" stroke-width="3" d="M 337 97 L 338 96 L 340 96 L 341 97 L 341 99 L 344 102 L 343 103 L 342 103 L 342 104 L 343 105 L 342 106 L 341 106 L 340 107 L 339 107 L 338 106 L 338 105 L 336 107 L 335 107 L 334 106 L 334 103 L 333 102 L 335 100 L 336 100 L 337 99 L 339 99 L 339 98 L 338 98 "></path>
        <path fill="none" stroke="#fa00fa" stroke-width="3" d="M 186 298 L 185 299 L 185 320 L 186 321 L 186 323 L 186 319 L 187 318 L 186 317 L 186 316 L 187 315 L 187 314 L 186 313 L 186 312 L 187 311 L 187 310 L 186 309 L 186 308 L 187 307 L 187 306 L 186 305 L 186 304 L 187 303 L 187 302 L 186 301 "></path>
        <path fill="none" stroke="#fa00fa" stroke-width="3" d="M 77 324 L 77 325 L 76 326 L 77 327 L 77 328 L 74 331 L 73 331 L 72 330 L 72 332 L 71 333 L 70 332 L 68 332 L 67 333 L 66 332 L 65 332 L 64 333 L 63 333 L 62 332 L 61 332 L 61 333 L 63 335 L 62 336 L 61 336 L 61 339 L 59 341 L 58 340 L 57 340 L 56 341 L 55 341 L 54 340 L 53 340 L 52 341 L 51 341 L 50 340 L 49 340 L 48 341 L 47 341 L 46 340 L 45 340 L 45 341 L 44 342 L 42 340 L 41 341 L 43 343 L 42 344 L 41 344 L 41 349 L 40 350 L 38 348 L 37 348 L 37 349 L 36 350 L 34 348 L 33 348 L 33 349 L 32 350 L 30 348 L 29 348 L 29 353 L 28 354 L 26 352 L 25 352 L 25 357 L 24 358 L 22 356 L 21 356 L 21 357 L 20 358 L 18 356 L 17 357 L 17 358 L 16 359 L 17 360 L 17 361 L 14 364 L 13 363 L 12 363 L 13 364 L 13 365 L 12 366 L 10 364 L 9 364 L 8 363 L 9 364 L 9 365 L 8 366 L 6 364 L 5 364 L 5 381 L 4 382 L 2 380 L 1 381 L 2 382 L 3 381 L 4 382 L 4 384 L 3 385 L 2 384 L 1 384 L 1 385 L 2 386 L 1 387 L 1 389 L 2 390 L 1 391 L 1 393 L 2 394 L 1 395 L 1 397 L 2 398 L 2 400 L 1 401 L 2 402 L 1 403 L 1 405 L 3 405 L 4 404 L 6 406 L 7 405 L 8 405 L 9 406 L 19 406 L 20 405 L 21 406 L 22 406 L 23 405 L 24 405 L 25 406 L 26 406 L 27 405 L 28 405 L 29 406 L 30 406 L 31 405 L 32 405 L 33 406 L 34 406 L 35 405 L 36 405 L 37 406 L 38 406 L 39 405 L 40 405 L 41 406 L 42 406 L 43 405 L 44 405 L 45 406 L 46 406 L 47 405 L 48 405 L 49 406 L 50 406 L 51 405 L 52 405 L 53 406 L 54 406 L 55 405 L 56 405 L 57 406 L 58 406 L 59 405 L 62 405 L 62 404 L 63 403 L 63 400 L 64 399 L 65 400 L 66 400 L 67 399 L 68 399 L 70 401 L 71 400 L 73 402 L 76 402 L 77 403 L 81 403 L 82 404 L 83 403 L 85 403 L 86 402 L 87 403 L 88 403 L 89 404 L 90 404 L 91 403 L 93 403 L 94 402 L 98 402 L 99 401 L 100 401 L 101 402 L 102 402 L 103 401 L 104 401 L 105 402 L 106 402 L 107 401 L 110 401 L 110 400 L 111 399 L 111 379 L 110 378 L 110 377 L 109 377 L 108 378 L 106 376 L 105 376 L 104 377 L 103 377 L 102 376 L 101 376 L 100 377 L 99 377 L 98 376 L 97 376 L 96 377 L 95 377 L 94 376 L 93 376 L 92 377 L 91 377 L 90 376 L 86 376 L 85 375 L 84 375 L 82 373 L 82 372 L 81 372 L 81 373 L 80 374 L 79 373 L 79 364 L 80 363 L 81 364 L 82 364 L 82 363 L 83 362 L 83 360 L 84 359 L 84 358 L 85 357 L 84 356 L 86 354 L 86 352 L 85 351 L 87 349 L 86 348 L 88 346 L 89 347 L 89 353 L 90 354 L 90 352 L 89 351 L 90 350 L 90 348 L 89 347 L 91 345 L 90 344 L 92 342 L 93 343 L 93 345 L 94 346 L 94 344 L 93 343 L 94 342 L 94 340 L 93 339 L 93 334 L 92 334 L 88 330 L 87 330 L 86 329 L 84 329 L 83 328 L 84 327 L 84 326 L 82 324 L 81 324 L 80 325 L 79 325 L 78 324 "></path>
        <path fill="none" stroke="#fa00fa" stroke-width="3" d="M 174 285 L 174 286 L 172 288 L 171 287 L 169 287 L 169 288 L 167 290 L 166 289 L 166 287 L 166 290 L 165 291 L 165 297 L 164 298 L 163 298 L 162 297 L 162 296 L 163 295 L 162 294 L 162 293 L 161 294 L 159 294 L 158 293 L 156 295 L 154 295 L 153 296 L 153 301 L 154 302 L 154 303 L 155 302 L 156 302 L 157 303 L 157 304 L 158 305 L 158 304 L 160 302 L 161 303 L 161 305 L 160 306 L 161 307 L 161 318 L 162 319 L 162 326 L 162 324 L 163 323 L 163 322 L 162 321 L 162 320 L 163 319 L 164 319 L 165 320 L 165 326 L 167 326 L 166 325 L 166 324 L 167 323 L 168 323 L 169 324 L 169 326 L 170 326 L 170 324 L 171 323 L 172 323 L 173 324 L 173 325 L 174 326 L 174 324 L 175 323 L 176 323 L 177 324 L 177 325 L 178 326 L 178 324 L 179 323 L 180 323 L 181 324 L 181 326 L 182 326 L 182 324 L 183 323 L 184 323 L 185 324 L 185 326 L 187 326 L 186 325 L 186 324 L 188 322 L 189 323 L 189 330 L 190 331 L 190 334 L 190 332 L 191 331 L 191 330 L 190 329 L 190 328 L 191 327 L 191 326 L 190 325 L 190 323 L 191 322 L 190 321 L 190 319 L 191 318 L 190 317 L 190 315 L 191 314 L 190 313 L 190 311 L 191 310 L 190 309 L 190 308 L 192 306 L 193 307 L 193 314 L 194 315 L 194 318 L 194 307 L 195 306 L 194 305 L 195 304 L 195 303 L 196 302 L 197 303 L 197 304 L 198 305 L 198 297 L 197 298 L 197 301 L 196 302 L 195 301 L 195 298 L 194 297 L 194 295 L 193 296 L 193 297 L 192 298 L 190 296 L 191 295 L 189 295 L 189 296 L 188 297 L 187 297 L 186 296 L 187 295 L 186 294 L 186 291 L 185 292 L 185 293 L 184 294 L 182 292 L 183 291 L 183 290 L 182 289 L 182 287 L 181 287 L 181 288 L 180 289 L 179 288 L 179 287 L 178 286 L 178 285 L 177 286 L 177 287 L 176 288 L 174 286 "></path>
        <path fill="none" stroke="#00fafa" stroke-width="3" d="M 60 80 L 61 81 L 63 81 L 64 80 L 65 81 L 66 81 L 67 80 L 70 83 L 70 85 L 71 84 L 72 85 L 72 86 L 71 87 L 72 88 L 72 91 L 73 92 L 77 92 L 78 93 L 79 92 L 80 92 L 81 93 L 82 93 L 83 92 L 84 92 L 85 93 L 86 93 L 87 92 L 88 92 L 89 93 L 89 94 L 88 95 L 89 95 L 90 96 L 90 97 L 90 96 L 91 95 L 93 95 L 93 94 L 95 92 L 96 92 L 97 93 L 97 97 L 98 97 L 99 98 L 98 99 L 97 99 L 99 101 L 98 102 L 97 102 L 96 103 L 95 103 L 94 102 L 93 102 L 92 103 L 91 103 L 90 102 L 91 101 L 91 100 L 92 99 L 87 99 L 85 101 L 85 102 L 84 103 L 83 103 L 82 102 L 83 101 L 81 101 L 81 102 L 80 103 L 79 103 L 78 102 L 78 101 L 77 101 L 77 102 L 76 103 L 75 103 L 74 102 L 74 101 L 73 101 L 73 102 L 72 103 L 71 103 L 70 102 L 71 101 L 69 101 L 69 102 L 68 103 L 67 103 L 66 102 L 67 101 L 65 101 L 64 102 L 62 100 L 62 99 L 61 98 L 60 99 L 59 99 L 58 98 L 59 97 L 59 95 L 50 95 L 50 97 L 49 98 L 49 99 L 48 100 L 47 99 L 45 99 L 44 100 L 43 99 L 41 99 L 40 100 L 38 98 L 39 97 L 39 95 L 38 94 L 40 92 L 41 93 L 42 93 L 41 92 L 42 91 L 41 90 L 41 89 L 42 88 L 42 87 L 41 86 L 42 85 L 43 85 L 44 84 L 45 84 L 46 85 L 48 85 L 50 87 L 51 87 L 50 87 L 49 86 L 50 85 L 52 85 L 53 86 L 53 87 L 54 87 L 53 86 L 54 85 L 58 85 L 58 82 "></path>
        <path fill="none" stroke="#00fafa" stroke-width="3" d="M 80 180 L 81 181 L 83 181 L 84 180 L 85 181 L 87 181 L 88 180 L 89 181 L 91 181 L 92 180 L 93 181 L 95 181 L 96 180 L 97 181 L 99 181 L 100 180 L 101 181 L 103 181 L 104 180 L 105 181 L 107 181 L 108 180 L 109 181 L 111 181 L 112 180 L 113 181 L 115 181 L 116 180 L 117 181 L 117 187 L 116 188 L 115 188 L 114 187 L 114 188 L 113 189 L 113 191 L 111 193 L 110 193 L 111 193 L 112 194 L 111 195 L 110 195 L 110 196 L 109 197 L 109 199 L 108 200 L 107 200 L 106 199 L 106 200 L 105 201 L 105 202 L 104 203 L 101 203 L 101 206 L 100 207 L 99 207 L 98 206 L 99 205 L 97 205 L 97 206 L 96 207 L 95 206 L 95 204 L 94 203 L 91 203 L 90 202 L 91 201 L 90 200 L 88 200 L 87 199 L 86 199 L 85 198 L 86 197 L 85 197 L 85 198 L 84 199 L 83 198 L 83 195 L 82 194 L 82 191 L 79 191 L 78 190 L 79 189 L 79 188 L 77 186 L 78 185 L 78 182 "></path>
        <path fill="none" stroke="#fa00fa" stroke-width="3" d="M 117 272 L 116 273 L 116 276 L 115 277 L 114 277 L 112 279 L 111 279 L 110 278 L 108 280 L 107 280 L 106 279 L 105 279 L 103 281 L 102 280 L 101 280 L 100 281 L 100 286 L 101 287 L 101 288 L 102 289 L 103 289 L 104 288 L 105 289 L 106 289 L 107 290 L 107 291 L 108 292 L 108 294 L 109 295 L 109 296 L 110 295 L 112 295 L 113 296 L 113 297 L 114 297 L 114 296 L 115 295 L 116 295 L 117 296 L 118 295 L 120 295 L 121 296 L 122 295 L 123 295 L 125 293 L 125 292 L 126 291 L 127 291 L 127 290 L 126 289 L 127 288 L 128 288 L 129 289 L 130 289 L 130 288 L 132 286 L 131 285 L 131 283 L 132 282 L 130 280 L 130 279 L 128 279 L 126 277 L 126 275 L 125 274 L 124 274 L 122 272 L 120 272 L 119 273 L 118 272 "></path>
        <path fill="none" stroke="#00fafa" stroke-width="3" d="M 103 64 L 104 64 L 105 65 L 106 65 L 107 64 L 109 64 L 110 65 L 111 64 L 113 64 L 114 65 L 115 64 L 116 64 L 117 65 L 118 64 L 120 66 L 120 70 L 118 72 L 119 73 L 119 74 L 118 75 L 118 76 L 117 77 L 117 78 L 116 79 L 115 79 L 114 80 L 113 80 L 112 81 L 112 90 L 111 91 L 108 91 L 107 92 L 102 92 L 101 91 L 100 91 L 99 90 L 99 69 L 100 68 L 100 67 "></path>
        <path fill="none" stroke="#00fafa" stroke-width="3" d="M 52 374 L 53 375 L 53 376 L 54 377 L 54 375 L 55 374 L 56 374 L 57 375 L 57 377 L 58 377 L 59 378 L 59 379 L 61 381 L 61 382 L 60 383 L 62 383 L 63 384 L 64 384 L 65 385 L 66 385 L 67 384 L 68 385 L 68 388 L 69 389 L 68 390 L 68 391 L 69 392 L 69 393 L 66 396 L 66 397 L 66 396 L 67 395 L 68 395 L 69 396 L 69 397 L 66 400 L 65 399 L 64 399 L 62 397 L 62 396 L 61 396 L 60 395 L 61 396 L 61 397 L 60 398 L 57 395 L 55 395 L 54 394 L 54 393 L 53 394 L 51 394 L 50 393 L 50 392 L 48 390 L 47 390 L 46 389 L 48 387 L 46 385 L 47 384 L 48 384 L 49 383 L 49 382 L 50 381 L 50 380 L 49 379 L 50 378 L 50 376 "></path>
        <path fill="none" stroke="#00fafa" stroke-width="3" d="M 473 49 L 474 48 L 475 48 L 476 49 L 476 52 L 477 53 L 477 67 L 476 68 L 473 65 L 475 63 L 473 61 L 474 60 L 474 58 L 473 58 L 473 59 L 474 60 L 473 61 L 473 70 L 472 71 L 471 71 L 469 69 L 471 67 L 469 65 L 470 64 L 470 62 L 469 61 L 470 60 L 470 58 L 469 57 L 471 55 L 470 54 L 473 51 L 474 51 L 473 50 "></path>
        <path fill="none" stroke="#fa00fa" stroke-width="3" d="M 134 351 L 133 352 L 133 353 L 132 354 L 130 354 L 130 355 L 129 356 L 130 357 L 130 360 L 131 361 L 131 362 L 129 364 L 130 365 L 130 367 L 129 368 L 130 369 L 131 368 L 132 368 L 133 369 L 131 371 L 130 371 L 130 372 L 132 372 L 133 373 L 134 373 L 135 372 L 137 372 L 138 373 L 137 372 L 136 372 L 134 370 L 134 369 L 135 368 L 136 368 L 134 366 L 134 365 L 135 364 L 136 364 L 134 362 L 134 361 L 135 360 L 137 360 L 137 358 L 139 356 L 140 356 L 139 356 L 137 354 L 137 353 L 136 354 L 135 354 L 134 353 "></path>
        <path fill="none" stroke="#00fafa" stroke-width="3" d="M 374 364 L 375 363 L 376 363 L 377 364 L 377 365 L 378 365 L 378 364 L 379 363 L 381 365 L 381 366 L 380 367 L 381 367 L 382 368 L 382 369 L 382 368 L 383 367 L 384 367 L 385 368 L 385 369 L 382 372 L 381 371 L 380 371 L 381 372 L 381 373 L 380 374 L 379 374 L 378 373 L 378 372 L 377 372 L 376 371 L 375 371 L 374 372 L 373 371 L 373 370 L 374 369 L 374 368 L 373 367 L 373 366 L 374 365 "></path>
        <path fill="none" stroke="#fa00fa" stroke-width="3" d="M 126 324 L 124 326 L 123 326 L 122 325 L 122 328 L 121 329 L 123 331 L 124 331 L 125 332 L 126 332 L 127 331 L 128 331 L 129 332 L 130 332 L 130 326 L 129 325 L 128 326 L 127 326 L 126 325 "></path>
        <path fill="none" stroke="#00fafa" stroke-width="3" d="M 465 57 L 466 56 L 468 56 L 469 57 L 469 59 L 470 60 L 469 61 L 469 70 L 468 71 L 467 71 L 465 69 L 467 67 L 465 65 L 466 64 L 466 62 L 465 61 L 467 59 "></path>
        <path fill="none" stroke="#00fafa" stroke-width="3" d="M 461 57 L 462 56 L 464 56 L 465 57 L 465 70 L 464 71 L 463 71 L 461 69 L 463 67 L 461 65 L 463 63 L 461 61 L 463 59 "></path>
        <path fill="none" stroke="#00fafa" stroke-width="3" d="M 439 276 L 440 275 L 441 276 L 441 277 L 442 278 L 442 276 L 443 275 L 444 275 L 445 276 L 445 282 L 444 283 L 443 283 L 442 282 L 442 280 L 441 281 L 441 282 L 440 283 L 438 281 L 438 280 L 439 279 "></path>
        <path fill="none" stroke="#00fafa" stroke-width="3" d="M 390 356 L 391 355 L 392 355 L 393 356 L 393 357 L 394 357 L 394 356 L 395 355 L 396 355 L 397 356 L 397 358 L 396 359 L 397 360 L 397 361 L 396 362 L 395 362 L 394 361 L 394 360 L 393 359 L 393 361 L 392 362 L 391 362 L 390 361 "></path>
    </g>
</svg>
