<svg xmlns="http://www.w3.org/2000/svg" xmlns:xlink="http://www.w3.org/1999/xlink" version="1.1" x="0" y="0" width="1056px" height="816px">
    <g id="rootLayer" transform="translate(0.000000, 0.000000)">
        <path fill="none" stroke="#ffffff" stroke-width="3" d="M 440 128 L 439 129 L 437 129 L 436 130 L 435 130 L 434 131 L 433 131 L 432 132 L 431 132 L 430 133 L 429 133 L 428 134 L 427 134 L 425 136 L 424 136 L 424 137 L 420 141 L 420 142 L 417 145 L 417 146 L 415 148 L 415 150 L 414 151 L 414 152 L 413 153 L 413 158 L 414 159 L 414 161 L 415 162 L 415 163 L 416 164 L 416 168 L 412 172 L 412 174 L 411 175 L 411 176 L 410 177 L 410 184 L 409 185 L 409 193 L 410 194 L 410 196 L 411 197 L 411 198 L 412 199 L 412 201 L 413 202 L 413 203 L 414 204 L 414 205 L 416 207 L 416 209 L 418 211 L 418 212 L 421 215 L 423 215 L 424 216 L 425 216 L 426 217 L 427 217 L 428 218 L 430 218 L 431 219 L 452 219 L 453 218 L 454 218 L 455 217 L 456 217 L 456 216 L 457 215 L 459 215 L 462 218 L 463 218 L 464 219 L 465 219 L 466 220 L 467 220 L 469 222 L 476 222 L 477 221 L 480 221 L 481 220 L 484 220 L 485 219 L 488 219 L 489 218 L 490 218 L 491 217 L 492 217 L 493 216 L 494 216 L 495 215 L 497 215 L 498 214 L 499 214 L 502 211 L 506 211 L 507 210 L 511 210 L 513 208 L 513 207 L 514 206 L 515 206 L 517 204 L 518 204 L 519 203 L 522 203 L 523 202 L 524 202 L 525 201 L 526 201 L 526 133 L 523 133 L 520 136 L 499 136 L 498 135 L 496 135 L 493 132 L 491 132 L 490 131 L 487 131 L 486 130 L 484 130 L 483 131 L 482 130 L 473 130 L 472 131 L 470 131 L 469 132 L 467 132 L 466 133 L 465 133 L 464 134 L 461 134 L 460 135 L 459 135 L 458 134 L 456 134 L 453 131 L 452 131 L 450 129 L 448 129 L 447 128 "></path>
        <path fill="none" stroke="#ffffff" stroke-width="3" d="M 266 164 L 265 165 L 264 165 L 259 170 L 258 170 L 256 172 L 246 172 L 245 173 L 243 173 L 239 177 L 238 177 L 238 180 L 236 182 L 236 183 L 234 185 L 233 185 L 232 186 L 232 188 L 231 189 L 231 191 L 232 192 L 231 193 L 231 197 L 227 201 L 226 201 L 225 202 L 225 211 L 226 212 L 226 215 L 227 216 L 227 218 L 229 220 L 229 222 L 230 223 L 231 223 L 233 225 L 233 226 L 234 227 L 235 227 L 236 228 L 238 228 L 239 229 L 241 229 L 242 230 L 245 230 L 246 231 L 256 231 L 258 229 L 258 228 L 259 227 L 260 227 L 261 226 L 261 225 L 263 223 L 269 223 L 270 224 L 271 223 L 272 224 L 274 224 L 275 223 L 277 223 L 278 222 L 279 222 L 280 221 L 281 221 L 282 220 L 284 220 L 285 219 L 286 219 L 286 218 L 287 217 L 287 215 L 289 213 L 292 213 L 294 211 L 295 211 L 295 210 L 296 209 L 296 207 L 295 206 L 296 205 L 295 204 L 295 198 L 296 197 L 296 196 L 299 193 L 300 193 L 302 191 L 302 186 L 303 185 L 303 177 L 294 168 L 291 168 L 290 167 L 282 167 L 281 166 L 279 166 L 278 165 L 277 165 L 276 164 "></path>
    </g>
</svg>
