<svg xmlns="http://www.w3.org/2000/svg" xmlns:xlink="http://www.w3.org/1999/xlink" version="1.1" x="0" y="0" width="1056px" height="816px">
    <g id="rootLayer" transform="translate(0.000000, 0.000000)">
        <path fill="none" stroke="#ffffff" stroke-width="3" d="M 474 75 L 473 76 L 460 76 L 459 77 L 458 77 L 457 78 L 456 78 L 456 79 L 455 80 L 454 80 L 453 81 L 452 81 L 449 84 L 446 84 L 443 87 L 443 88 L 441 90 L 442 91 L 442 92 L 443 93 L 443 94 L 441 96 L 439 96 L 438 97 L 436 97 L 435 98 L 435 99 L 436 100 L 438 100 L 441 103 L 441 104 L 440 105 L 438 105 L 437 106 L 435 106 L 431 110 L 431 111 L 430 112 L 425 112 L 424 111 L 412 111 L 411 112 L 410 111 L 408 111 L 407 112 L 406 111 L 404 111 L 403 112 L 402 111 L 400 111 L 399 112 L 398 111 L 396 111 L 395 112 L 394 111 L 382 111 L 381 112 L 379 112 L 378 113 L 377 113 L 377 114 L 374 117 L 374 119 L 371 122 L 371 123 L 369 125 L 369 127 L 368 128 L 368 130 L 371 133 L 371 134 L 372 135 L 372 141 L 371 142 L 372 143 L 372 145 L 371 146 L 372 147 L 372 149 L 371 150 L 372 151 L 372 153 L 371 154 L 371 159 L 372 160 L 380 160 L 381 161 L 381 162 L 382 163 L 382 164 L 380 166 L 378 166 L 377 167 L 376 167 L 374 169 L 374 171 L 370 175 L 369 175 L 367 177 L 366 177 L 365 178 L 354 178 L 353 179 L 353 180 L 352 181 L 352 189 L 353 189 L 354 190 L 357 190 L 358 191 L 359 191 L 360 192 L 360 193 L 361 194 L 361 198 L 360 199 L 360 200 L 359 201 L 352 201 L 351 202 L 350 202 L 349 203 L 349 204 L 348 205 L 349 206 L 348 207 L 348 208 L 347 209 L 344 209 L 343 210 L 342 210 L 341 211 L 341 213 L 342 214 L 341 215 L 341 216 L 340 217 L 338 217 L 337 218 L 334 218 L 334 219 L 333 220 L 335 222 L 353 222 L 354 223 L 353 224 L 353 226 L 352 227 L 343 227 L 342 228 L 340 228 L 339 229 L 336 229 L 335 230 L 324 230 L 323 231 L 322 231 L 322 233 L 323 234 L 323 238 L 322 239 L 322 244 L 323 245 L 323 250 L 322 251 L 322 256 L 323 257 L 323 259 L 324 260 L 324 265 L 325 266 L 325 268 L 327 270 L 327 271 L 328 272 L 328 273 L 329 274 L 329 276 L 331 278 L 331 281 L 332 281 L 333 282 L 345 282 L 346 283 L 360 283 L 361 282 L 363 282 L 364 281 L 365 281 L 366 280 L 370 280 L 371 281 L 373 281 L 374 282 L 412 282 L 413 281 L 414 281 L 414 280 L 415 279 L 415 278 L 418 275 L 419 275 L 420 274 L 433 274 L 434 273 L 443 273 L 444 274 L 445 274 L 448 277 L 448 278 L 454 284 L 454 285 L 456 287 L 457 287 L 458 288 L 459 288 L 460 289 L 461 289 L 462 290 L 478 290 L 479 289 L 481 289 L 483 287 L 484 287 L 486 285 L 486 283 L 488 281 L 488 279 L 490 277 L 490 276 L 491 275 L 513 275 L 515 273 L 515 272 L 517 270 L 517 269 L 518 268 L 518 266 L 519 265 L 519 264 L 520 263 L 520 262 L 521 261 L 521 260 L 522 259 L 522 257 L 524 255 L 524 253 L 525 252 L 525 251 L 526 250 L 526 247 L 525 246 L 525 245 L 524 244 L 524 242 L 522 240 L 522 239 L 520 237 L 511 237 L 510 236 L 509 236 L 508 235 L 508 234 L 506 232 L 506 231 L 507 230 L 507 229 L 508 228 L 510 228 L 511 227 L 525 227 L 526 226 L 526 216 L 525 215 L 520 215 L 519 216 L 517 216 L 516 217 L 515 217 L 513 219 L 512 218 L 511 218 L 509 216 L 507 216 L 505 214 L 505 213 L 504 212 L 505 211 L 514 211 L 515 210 L 516 210 L 517 209 L 517 206 L 519 204 L 525 204 L 526 203 L 526 81 L 525 80 L 522 80 L 521 81 L 520 81 L 519 82 L 515 82 L 514 83 L 512 83 L 510 85 L 509 85 L 509 86 L 496 99 L 495 99 L 492 96 L 492 91 L 491 90 L 491 88 L 490 87 L 490 85 L 489 84 L 489 83 L 488 82 L 488 81 L 486 79 L 486 78 L 485 77 L 484 77 L 483 76 L 481 76 L 480 75 L 476 75 L 475 76 "></path>
        <path fill="none" stroke="#ffffff" stroke-width="3" d="M 295 151 L 294 152 L 279 152 L 278 153 L 277 153 L 275 155 L 275 156 L 274 157 L 273 157 L 272 158 L 272 159 L 271 160 L 251 160 L 250 161 L 248 161 L 245 164 L 226 164 L 225 165 L 224 165 L 223 166 L 223 167 L 224 168 L 224 169 L 221 172 L 213 172 L 211 174 L 211 175 L 212 175 L 213 176 L 227 176 L 230 179 L 231 179 L 232 180 L 232 181 L 229 184 L 197 184 L 196 183 L 195 184 L 193 184 L 192 185 L 191 185 L 191 187 L 192 188 L 192 191 L 193 192 L 190 195 L 189 195 L 188 196 L 184 196 L 183 197 L 182 197 L 181 198 L 181 201 L 180 202 L 180 207 L 181 208 L 181 209 L 180 210 L 180 213 L 179 214 L 179 221 L 178 222 L 179 223 L 179 227 L 180 228 L 180 234 L 181 235 L 181 236 L 182 237 L 182 238 L 184 240 L 184 241 L 187 244 L 188 244 L 189 245 L 206 245 L 207 244 L 208 244 L 209 245 L 210 244 L 213 244 L 214 245 L 215 244 L 217 244 L 218 245 L 219 244 L 221 244 L 222 245 L 223 244 L 225 244 L 226 245 L 227 244 L 229 244 L 230 245 L 231 244 L 242 244 L 243 243 L 248 243 L 249 244 L 253 244 L 254 243 L 254 235 L 255 234 L 256 234 L 256 233 L 257 232 L 263 232 L 264 233 L 266 233 L 267 232 L 269 232 L 270 231 L 270 229 L 269 228 L 267 228 L 266 227 L 265 227 L 264 226 L 263 226 L 262 225 L 263 224 L 270 224 L 271 223 L 272 224 L 274 224 L 275 223 L 277 223 L 278 222 L 279 222 L 280 221 L 281 221 L 282 220 L 284 220 L 285 219 L 286 219 L 286 218 L 287 217 L 287 215 L 289 213 L 292 213 L 294 211 L 295 211 L 295 210 L 296 209 L 296 206 L 297 205 L 300 205 L 301 206 L 307 206 L 308 205 L 310 205 L 311 204 L 321 204 L 323 202 L 323 194 L 322 193 L 322 192 L 321 191 L 320 191 L 318 189 L 318 188 L 319 187 L 320 187 L 321 186 L 322 186 L 324 184 L 324 183 L 325 182 L 325 181 L 326 180 L 326 179 L 327 178 L 328 178 L 329 177 L 331 177 L 332 176 L 333 176 L 335 174 L 335 172 L 336 171 L 336 165 L 334 163 L 334 162 L 332 160 L 331 160 L 330 159 L 329 159 L 328 158 L 325 158 L 324 157 L 319 157 L 318 156 L 311 156 L 310 155 L 307 155 L 306 154 L 304 154 L 303 153 L 302 153 L 301 152 L 299 152 L 298 151 "></path>
        <path fill="none" stroke="#ffffff" stroke-width="3" d="M 474 75 L 473 76 L 460 76 L 459 77 L 458 77 L 457 78 L 456 78 L 456 79 L 455 80 L 454 80 L 453 81 L 452 81 L 450 83 L 449 83 L 448 84 L 446 84 L 445 85 L 444 85 L 444 86 L 443 87 L 443 88 L 441 90 L 441 91 L 443 93 L 443 94 L 441 96 L 439 96 L 438 97 L 436 97 L 435 98 L 435 99 L 436 100 L 438 100 L 441 103 L 441 104 L 440 105 L 438 105 L 437 106 L 435 106 L 431 110 L 431 111 L 430 112 L 425 112 L 424 111 L 412 111 L 411 112 L 410 111 L 408 111 L 407 112 L 406 111 L 404 111 L 403 112 L 402 111 L 400 111 L 399 112 L 398 111 L 396 111 L 395 112 L 394 111 L 382 111 L 381 112 L 379 112 L 378 113 L 377 113 L 377 114 L 374 117 L 374 119 L 371 122 L 371 123 L 369 125 L 369 127 L 368 128 L 368 130 L 371 133 L 371 134 L 372 135 L 372 141 L 371 142 L 372 143 L 372 145 L 371 146 L 372 147 L 372 149 L 371 150 L 372 151 L 372 153 L 371 154 L 371 159 L 372 160 L 380 160 L 381 161 L 381 162 L 382 163 L 382 164 L 380 166 L 378 166 L 377 167 L 376 167 L 374 169 L 374 171 L 370 175 L 369 175 L 367 177 L 366 177 L 365 178 L 354 178 L 353 179 L 353 180 L 352 181 L 352 189 L 353 189 L 354 190 L 357 190 L 358 191 L 359 191 L 360 192 L 360 193 L 361 194 L 361 198 L 360 199 L 360 200 L 359 201 L 352 201 L 351 202 L 350 202 L 349 203 L 349 204 L 348 205 L 349 206 L 348 207 L 348 208 L 347 209 L 344 209 L 343 210 L 342 210 L 341 211 L 341 213 L 342 214 L 341 215 L 341 216 L 340 217 L 338 217 L 337 218 L 334 218 L 334 219 L 333 220 L 335 222 L 353 222 L 354 223 L 353 224 L 353 226 L 352 227 L 343 227 L 342 228 L 340 228 L 339 229 L 336 229 L 335 230 L 324 230 L 323 231 L 322 231 L 322 233 L 323 234 L 323 237 L 322 238 L 322 244 L 323 245 L 323 247 L 322 248 L 323 249 L 323 250 L 322 251 L 322 256 L 323 257 L 323 260 L 324 261 L 324 265 L 325 266 L 325 268 L 327 270 L 327 272 L 329 274 L 329 276 L 331 278 L 331 281 L 332 282 L 345 282 L 346 283 L 360 283 L 361 282 L 363 282 L 364 281 L 365 281 L 366 280 L 370 280 L 371 281 L 373 281 L 374 282 L 412 282 L 413 281 L 414 281 L 414 280 L 415 279 L 415 278 L 418 275 L 419 275 L 420 274 L 433 274 L 434 273 L 443 273 L 444 274 L 445 274 L 448 277 L 448 278 L 454 284 L 454 285 L 456 287 L 457 287 L 458 288 L 459 288 L 460 289 L 461 289 L 462 290 L 478 290 L 479 289 L 481 289 L 483 287 L 484 287 L 486 285 L 486 283 L 488 281 L 488 279 L 490 277 L 490 276 L 491 275 L 513 275 L 515 273 L 515 272 L 517 270 L 517 269 L 518 268 L 518 267 L 519 266 L 519 264 L 520 263 L 520 262 L 521 261 L 521 260 L 522 259 L 522 257 L 524 255 L 524 253 L 525 252 L 525 251 L 526 250 L 526 247 L 525 246 L 525 245 L 524 244 L 524 242 L 522 240 L 522 239 L 520 237 L 511 237 L 510 236 L 509 236 L 508 235 L 508 234 L 506 232 L 506 231 L 507 230 L 507 229 L 508 228 L 510 228 L 511 227 L 525 227 L 526 226 L 526 216 L 525 215 L 520 215 L 519 216 L 517 216 L 516 217 L 515 217 L 513 219 L 512 218 L 511 218 L 509 216 L 507 216 L 505 214 L 505 213 L 504 212 L 505 211 L 514 211 L 515 210 L 516 210 L 517 209 L 517 206 L 519 204 L 525 204 L 526 203 L 526 80 L 522 80 L 521 81 L 520 81 L 519 82 L 514 82 L 513 83 L 512 83 L 510 85 L 509 85 L 508 86 L 508 87 L 496 99 L 495 99 L 492 96 L 492 91 L 491 90 L 491 88 L 490 87 L 490 85 L 489 84 L 489 83 L 488 82 L 488 81 L 486 79 L 486 78 L 485 77 L 484 77 L 483 76 L 481 76 L 480 75 L 476 75 L 475 76 "></path>
        <path fill="none" stroke="#ffffff" stroke-width="3" d="M 474 75 L 473 76 L 460 76 L 459 77 L 458 77 L 457 78 L 456 78 L 456 79 L 455 80 L 454 80 L 453 81 L 452 81 L 450 83 L 449 83 L 448 84 L 446 84 L 445 85 L 444 85 L 444 86 L 443 87 L 443 88 L 441 90 L 441 91 L 443 93 L 443 94 L 441 96 L 439 96 L 438 97 L 436 97 L 435 98 L 435 99 L 436 100 L 438 100 L 441 103 L 441 104 L 440 105 L 438 105 L 437 106 L 435 106 L 431 110 L 431 111 L 430 112 L 425 112 L 424 111 L 412 111 L 411 112 L 410 111 L 408 111 L 407 112 L 406 111 L 404 111 L 403 112 L 402 111 L 400 111 L 399 112 L 398 111 L 396 111 L 395 112 L 394 111 L 382 111 L 381 112 L 379 112 L 378 113 L 377 113 L 377 114 L 374 117 L 374 119 L 371 122 L 371 123 L 369 125 L 369 127 L 368 128 L 368 130 L 371 133 L 371 134 L 372 135 L 372 141 L 371 142 L 372 143 L 372 145 L 371 146 L 372 147 L 372 149 L 371 150 L 372 151 L 372 153 L 371 154 L 371 159 L 372 160 L 380 160 L 381 161 L 381 162 L 382 163 L 382 164 L 380 166 L 378 166 L 377 167 L 376 167 L 374 169 L 374 171 L 370 175 L 369 175 L 367 177 L 366 177 L 365 178 L 354 178 L 353 179 L 353 180 L 352 181 L 352 189 L 353 189 L 354 190 L 357 190 L 358 191 L 359 191 L 360 192 L 360 193 L 361 194 L 361 198 L 360 199 L 360 200 L 359 201 L 352 201 L 351 202 L 350 202 L 349 203 L 349 204 L 348 205 L 349 206 L 348 207 L 348 208 L 347 209 L 344 209 L 343 210 L 342 210 L 341 211 L 341 213 L 342 214 L 341 215 L 341 216 L 340 217 L 338 217 L 337 218 L 334 218 L 334 219 L 333 220 L 335 222 L 353 222 L 354 223 L 353 224 L 353 226 L 352 227 L 343 227 L 342 228 L 340 228 L 339 229 L 336 229 L 335 230 L 324 230 L 323 231 L 322 231 L 322 233 L 323 234 L 323 237 L 322 238 L 322 244 L 323 245 L 323 247 L 322 248 L 323 249 L 323 250 L 322 251 L 322 256 L 323 257 L 323 260 L 324 261 L 324 265 L 325 266 L 325 268 L 327 270 L 327 272 L 329 274 L 329 276 L 331 278 L 331 281 L 332 282 L 345 282 L 346 283 L 360 283 L 361 282 L 363 282 L 364 281 L 365 281 L 366 280 L 370 280 L 371 281 L 373 281 L 374 282 L 412 282 L 413 281 L 414 281 L 414 280 L 415 279 L 415 278 L 418 275 L 419 275 L 420 274 L 433 274 L 434 273 L 443 273 L 444 274 L 445 274 L 448 277 L 448 278 L 454 284 L 454 285 L 456 287 L 457 287 L 458 288 L 459 288 L 460 289 L 461 289 L 462 290 L 478 290 L 479 289 L 481 289 L 483 287 L 484 287 L 486 285 L 486 283 L 488 281 L 488 279 L 490 277 L 490 276 L 491 275 L 513 275 L 515 273 L 515 272 L 517 270 L 517 269 L 518 268 L 518 267 L 519 266 L 519 264 L 520 263 L 520 262 L 521 261 L 521 260 L 522 259 L 522 257 L 524 255 L 524 253 L 525 252 L 525 251 L 526 250 L 526 247 L 525 246 L 525 245 L 524 244 L 524 242 L 522 240 L 522 239 L 520 237 L 511 237 L 510 236 L 509 236 L 508 235 L 508 234 L 506 232 L 506 231 L 507 230 L 507 229 L 508 228 L 510 228 L 511 227 L 525 227 L 526 226 L 526 216 L 525 215 L 520 215 L 519 216 L 517 216 L 516 217 L 515 217 L 513 219 L 512 218 L 511 218 L 509 216 L 507 216 L 505 214 L 505 213 L 504 212 L 505 211 L 514 211 L 515 210 L 516 210 L 517 209 L 517 206 L 519 204 L 525 204 L 526 203 L 526 80 L 522 80 L 521 81 L 520 81 L 519 82 L 514 82 L 513 83 L 512 83 L 510 85 L 509 85 L 508 86 L 508 87 L 496 99 L 495 99 L 492 96 L 492 91 L 491 90 L 491 88 L 490 87 L 490 85 L 489 84 L 489 83 L 488 82 L 488 81 L 486 79 L 486 78 L 485 77 L 484 77 L 483 76 L 481 76 L 480 75 L 476 75 L 475 76 L 295 151 L 294 152 L 279 152 L 278 153 L 277 153 L 275 155 L 275 156 L 274 157 L 273 157 L 272 158 L 272 159 L 271 160 L 251 160 L 250 161 L 248 161 L 245 164 L 226 164 L 225 165 L 224 165 L 223 166 L 223 167 L 224 168 L 224 169 L 221 172 L 213 172 L 211 174 L 211 175 L 212 176 L 227 176 L 230 179 L 231 179 L 232 180 L 232 181 L 229 184 L 197 184 L 196 183 L 195 184 L 193 184 L 192 185 L 191 185 L 190 186 L 192 188 L 192 191 L 193 192 L 191 194 L 190 194 L 188 196 L 184 196 L 183 197 L 182 197 L 181 198 L 181 201 L 180 202 L 180 207 L 181 208 L 181 209 L 180 210 L 180 213 L 179 214 L 179 217 L 178 218 L 179 219 L 179 221 L 178 222 L 179 223 L 179 227 L 180 228 L 180 229 L 179 230 L 180 231 L 180 234 L 181 235 L 181 236 L 182 237 L 182 238 L 184 240 L 184 241 L 185 242 L 185 243 L 186 243 L 187 244 L 188 244 L 189 245 L 206 245 L 207 244 L 208 244 L 209 245 L 210 244 L 213 244 L 214 245 L 215 244 L 217 244 L 218 245 L 219 244 L 221 244 L 222 245 L 223 244 L 225 244 L 226 245 L 227 244 L 229 244 L 230 245 L 231 244 L 242 244 L 243 243 L 248 243 L 249 244 L 253 244 L 254 243 L 254 235 L 255 234 L 256 234 L 256 233 L 257 232 L 263 232 L 264 233 L 266 233 L 267 232 L 269 232 L 270 231 L 270 229 L 269 228 L 267 228 L 266 227 L 265 227 L 264 226 L 263 226 L 262 225 L 263 224 L 270 224 L 271 223 L 272 224 L 274 224 L 275 223 L 277 223 L 278 222 L 279 222 L 280 221 L 281 221 L 282 220 L 284 220 L 285 219 L 286 219 L 286 218 L 287 217 L 287 215 L 289 213 L 292 213 L 294 211 L 295 211 L 295 210 L 296 209 L 296 206 L 297 205 L 300 205 L 301 206 L 307 206 L 308 205 L 310 205 L 311 204 L 321 204 L 323 202 L 323 194 L 322 193 L 322 192 L 321 191 L 320 191 L 318 189 L 318 188 L 319 187 L 320 187 L 321 186 L 322 186 L 324 184 L 324 183 L 325 182 L 325 181 L 326 180 L 326 179 L 327 178 L 328 178 L 329 177 L 331 177 L 332 176 L 333 176 L 335 174 L 335 172 L 336 171 L 336 165 L 334 163 L 334 162 L 332 160 L 331 160 L 330 159 L 329 159 L 328 158 L 325 158 L 324 157 L 319 157 L 318 156 L 311 156 L 310 155 L 307 155 L 306 154 L 304 154 L 303 153 L 302 153 L 301 152 L 299 152 L 298 151 "></path>
    </g>
</svg>
