<svg xmlns="http://www.w3.org/2000/svg" xmlns:xlink="http://www.w3.org/1999/xlink" version="1.1" x="0" y="0" width="1056px" height="816px">
    <g id="rootLayer" transform="translate(0.000000, 0.000000)">
        <path fill="none" stroke="#fa00fa" stroke-width="3" d="M 407 449 L 408 450 L 406 452 L 406 453 L 407 454 L 407 455 L 412 455 L 412 453 L 413 452 L 414 453 L 415 453 L 415 452 L 416 451 L 415 451 L 414 450 L 413 450 L 412 451 L 411 450 L 411 449 L 410 450 L 409 449 L 408 450 L 407 449 L 408 450 "></path>
        <path fill="none" stroke="#fa00fa" stroke-width="3" d="M 340 591 L 338 593 L 338 594 L 336 596 L 337 597 L 339 597 L 340 598 L 341 597 L 342 597 L 342 596 L 343 595 L 343 591 L 342 591 L 341 592 L 340 591 L 338 593 "></path>
        <path fill="none" stroke="#fa00fa" stroke-width="3" d="M 426 412 L 425 413 L 425 414 L 424 415 L 423 415 L 423 416 L 424 417 L 423 418 L 424 418 L 426 420 L 428 418 L 427 417 L 428 416 L 429 416 L 429 414 L 427 412 L 426 412 L 425 413 "></path>
        <path fill="none" stroke="#fa00fa" stroke-width="3" d="M 435 464 L 434 465 L 434 468 L 435 469 L 436 469 L 437 470 L 437 469 L 438 468 L 439 469 L 440 468 L 441 469 L 440 468 L 441 467 L 441 466 L 440 466 L 438 464 L 437 464 L 436 465 L 435 464 L 434 465 "></path>
        <path fill="none" stroke="#fa00fa" stroke-width="3" d="M 408 522 L 407 523 L 407 524 L 408 525 L 407 526 L 408 526 L 409 527 L 413 527 L 412 526 L 413 525 L 414 525 L 413 525 L 412 524 L 412 523 L 413 522 L 408 522 L 407 523 "></path>
        <path fill="none" stroke="#fa00fa" stroke-width="3" d="M 256 418 L 254 420 L 254 421 L 255 422 L 254 423 L 255 424 L 256 424 L 257 423 L 258 423 L 260 421 L 258 419 L 258 418 L 256 418 L 254 420 "></path>
        <path fill="none" stroke="#fa00fa" stroke-width="3" d="M 453 422 L 452 423 L 452 424 L 451 425 L 452 426 L 452 428 L 453 429 L 453 430 L 454 430 L 455 429 L 456 429 L 456 428 L 457 427 L 456 426 L 457 425 L 456 426 L 455 425 L 455 423 L 454 424 L 453 424 L 452 423 L 453 422 L 452 423 "></path>
        <path fill="none" stroke="#fa00fa" stroke-width="3" d="M 449 408 L 448 409 L 447 409 L 447 410 L 448 411 L 447 412 L 448 413 L 449 413 L 450 412 L 451 413 L 452 412 L 453 412 L 452 411 L 453 410 L 451 408 L 449 408 L 448 409 "></path>
        <path fill="none" stroke="#fa00fa" stroke-width="3" d="M 422 443 L 421 444 L 422 445 L 421 446 L 421 447 L 422 448 L 423 447 L 424 448 L 427 445 L 426 444 L 425 444 L 424 443 L 422 443 L 421 444 "></path>
        <path fill="none" stroke="#fa00fa" stroke-width="3" d="M 273 568 L 271 570 L 271 571 L 273 573 L 276 573 L 277 572 L 274 569 L 274 568 L 273 568 L 271 570 "></path>
        <path fill="none" stroke="#fa00fa" stroke-width="3" d="M 291 413 L 290 414 L 290 418 L 293 418 L 294 417 L 294 414 L 292 414 L 291 413 L 290 414 "></path>
        <path fill="none" stroke="#fa00fa" stroke-width="3" d="M 380 711 L 380 712 L 378 714 L 377 713 L 377 712 L 377 714 L 378 714 L 379 715 L 380 715 L 381 716 L 382 715 L 383 715 L 384 714 L 381 711 L 380 711 L 380 712 "></path>
        <path fill="none" stroke="#fa00fa" stroke-width="3" d="M 401 311 L 399 313 L 399 316 L 400 317 L 401 317 L 403 315 L 403 313 L 402 313 L 401 312 L 401 311 L 399 313 "></path>
        <path fill="none" stroke="#fa00fa" stroke-width="3" d="M 319 550 L 318 551 L 318 554 L 319 554 L 320 555 L 321 554 L 322 555 L 322 554 L 323 553 L 321 551 L 320 551 L 319 550 L 318 551 "></path>
        <path fill="none" stroke="#fa00fa" stroke-width="3" d="M 263 608 L 262 609 L 262 611 L 264 611 L 265 612 L 265 613 L 265 612 L 266 611 L 267 611 L 267 610 L 265 608 L 263 608 L 262 609 "></path>
        <path fill="none" stroke="#fa00fa" stroke-width="3" d="M 385 621 L 385 622 L 384 623 L 384 624 L 385 625 L 385 627 L 387 625 L 386 624 L 388 622 L 387 621 L 385 621 L 385 622 "></path>
        <path fill="none" stroke="#fa00fa" stroke-width="3" d="M 429 486 L 428 487 L 427 487 L 427 488 L 428 489 L 428 490 L 429 491 L 431 489 L 431 488 L 429 486 L 428 487 "></path>
        <path fill="none" stroke="#fa00fa" stroke-width="3" d="M 349 390 L 348 391 L 346 391 L 345 392 L 345 393 L 346 393 L 347 394 L 349 394 L 349 393 L 350 392 L 349 391 L 349 390 L 348 391 "></path>
        <path fill="none" stroke="#fa00fa" stroke-width="3" d="M 241 336 L 240 337 L 239 337 L 239 338 L 238 339 L 239 340 L 240 339 L 242 339 L 243 340 L 243 337 L 242 337 L 241 336 L 240 337 "></path>
        <path fill="none" stroke="#fa00fa" stroke-width="3" d="M 429 340 L 428 341 L 428 342 L 429 343 L 430 343 L 431 344 L 431 342 L 432 341 L 432 340 L 429 340 L 428 341 "></path>
        <path fill="none" stroke="#fa00fa" stroke-width="3" d="M 302 699 L 301 700 L 302 701 L 304 701 L 305 702 L 305 701 L 306 700 L 306 699 L 302 699 L 301 700 "></path>
        <path fill="none" stroke="#fa00fa" stroke-width="3" d="M 281 668 L 281 669 L 280 670 L 279 670 L 279 671 L 280 671 L 281 672 L 281 673 L 282 673 L 281 672 L 282 671 L 284 671 L 281 668 L 281 669 "></path>
        <path fill="none" stroke="#fa00fa" stroke-width="3" d="M 419 349 L 418 350 L 417 350 L 418 351 L 418 353 L 420 353 L 420 352 L 421 351 L 420 351 L 419 350 L 419 349 L 418 350 "></path>
        <path fill="none" stroke="#fa00fa" stroke-width="3" d="M 415 479 L 414 480 L 414 481 L 415 482 L 417 480 L 417 479 L 416 480 L 415 479 L 414 480 "></path>
        <path fill="none" stroke="#fa00fa" stroke-width="3" d="M 512 683 L 512 684 L 513 685 L 515 685 L 515 683 L 514 684 L 513 683 L 512 683 L 512 684 "></path>
        <path fill="none" stroke="#fa00fa" stroke-width="3" d="M 477 621 L 477 623 L 478 624 L 479 623 L 478 622 L 478 621 L 477 621 L 477 623 "></path>
        <path fill="none" stroke="#fa00fa" stroke-width="3" d="M 335 478 L 334 479 L 333 479 L 333 480 L 334 481 L 335 480 L 335 478 L 334 479 "></path>
    </g>
</svg>
