<svg xmlns="http://www.w3.org/2000/svg" xmlns:xlink="http://www.w3.org/1999/xlink" version="1.1" x="0" y="0" width="1056px" height="816px">
    <g id="rootLayer" transform="translate(0.000000, 0.000000)">
        <path fill="none" stroke="#ffffff" stroke-width="3" d="M 440 128 L 439 129 L 437 129 L 436 130 L 435 130 L 434 131 L 433 131 L 432 132 L 431 132 L 430 133 L 429 133 L 428 134 L 427 134 L 425 136 L 424 136 L 424 137 L 420 141 L 420 142 L 417 145 L 417 146 L 415 148 L 415 150 L 414 151 L 414 152 L 413 153 L 413 158 L 414 159 L 414 161 L 415 162 L 415 163 L 416 164 L 416 168 L 412 172 L 412 174 L 411 175 L 411 176 L 410 177 L 410 184 L 409 185 L 409 193 L 410 194 L 410 196 L 411 197 L 411 198 L 412 199 L 412 201 L 413 202 L 413 203 L 414 204 L 414 205 L 416 207 L 416 209 L 418 211 L 418 212 L 421 215 L 423 215 L 424 216 L 425 216 L 426 217 L 427 217 L 428 218 L 430 218 L 431 219 L 452 219 L 453 218 L 454 218 L 455 217 L 456 217 L 456 216 L 457 215 L 459 215 L 462 218 L 463 218 L 464 219 L 465 219 L 466 220 L 467 220 L 469 222 L 476 222 L 477 221 L 480 221 L 481 220 L 484 220 L 485 219 L 488 219 L 489 218 L 490 218 L 491 217 L 492 217 L 493 216 L 494 216 L 495 215 L 497 215 L 498 214 L 499 214 L 502 211 L 506 211 L 507 210 L 511 210 L 513 208 L 513 207 L 514 206 L 515 206 L 517 204 L 518 204 L 519 203 L 522 203 L 523 202 L 524 202 L 525 201 L 526 201 L 526 133 L 523 133 L 520 136 L 499 136 L 498 135 L 496 135 L 493 132 L 491 132 L 490 131 L 487 131 L 486 130 L 484 130 L 483 131 L 482 130 L 473 130 L 472 131 L 470 131 L 469 132 L 467 132 L 466 133 L 465 133 L 464 134 L 461 134 L 460 135 L 459 135 L 458 134 L 456 134 L 453 131 L 452 131 L 450 129 L 448 129 L 447 128 "></path>
        <path fill="none" stroke="#ffffff" stroke-width="3" d="M 266 164 L 265 165 L 264 165 L 259 170 L 258 170 L 256 172 L 246 172 L 245 173 L 243 173 L 239 177 L 238 177 L 238 180 L 236 182 L 236 183 L 234 185 L 233 185 L 232 186 L 232 188 L 231 189 L 231 191 L 232 192 L 231 193 L 231 197 L 227 201 L 226 201 L 225 202 L 225 211 L 226 212 L 226 215 L 227 216 L 227 218 L 229 220 L 229 222 L 230 223 L 231 223 L 233 225 L 233 226 L 234 227 L 235 227 L 236 228 L 238 228 L 239 229 L 241 229 L 242 230 L 245 230 L 246 231 L 256 231 L 258 229 L 258 228 L 259 227 L 260 227 L 261 226 L 261 225 L 263 223 L 269 223 L 270 224 L 271 223 L 272 224 L 274 224 L 275 223 L 277 223 L 278 222 L 279 222 L 280 221 L 281 221 L 282 220 L 284 220 L 285 219 L 286 219 L 286 218 L 287 217 L 287 215 L 289 213 L 292 213 L 294 211 L 295 211 L 295 210 L 296 209 L 296 207 L 295 206 L 296 205 L 295 204 L 295 198 L 296 197 L 296 196 L 299 193 L 300 193 L 302 191 L 302 186 L 303 185 L 303 177 L 294 168 L 291 168 L 290 167 L 282 167 L 281 166 L 279 166 L 278 165 L 277 165 L 276 164 "></path>
        <path fill="none" stroke="#ffffff" stroke-width="3" d="M 524 50 L 523 51 L 521 51 L 520 52 L 518 52 L 514 56 L 513 56 L 508 61 L 507 61 L 504 64 L 502 64 L 501 65 L 500 65 L 498 67 L 493 67 L 492 66 L 491 66 L 490 65 L 484 65 L 483 66 L 482 66 L 481 67 L 480 67 L 479 68 L 474 68 L 473 69 L 471 69 L 468 72 L 464 72 L 463 71 L 462 71 L 460 69 L 459 69 L 458 68 L 455 68 L 454 67 L 446 67 L 445 66 L 443 66 L 442 65 L 441 65 L 440 64 L 435 64 L 434 65 L 433 65 L 429 69 L 428 69 L 427 70 L 426 70 L 426 72 L 425 73 L 425 76 L 424 77 L 424 78 L 423 79 L 421 79 L 420 80 L 419 80 L 418 79 L 417 80 L 416 79 L 415 80 L 413 80 L 412 81 L 411 81 L 411 82 L 408 85 L 408 86 L 403 91 L 399 91 L 398 92 L 397 92 L 396 93 L 396 99 L 397 100 L 397 102 L 398 103 L 399 103 L 400 104 L 426 104 L 427 103 L 428 103 L 429 102 L 430 102 L 431 101 L 432 101 L 433 100 L 442 100 L 443 101 L 442 102 L 442 104 L 441 105 L 438 105 L 437 106 L 436 106 L 435 107 L 434 107 L 431 110 L 431 111 L 429 113 L 428 112 L 425 112 L 424 111 L 412 111 L 411 112 L 410 111 L 409 112 L 408 111 L 407 112 L 406 111 L 404 111 L 403 112 L 402 111 L 400 111 L 399 112 L 398 111 L 396 111 L 395 112 L 394 111 L 376 111 L 375 112 L 374 111 L 372 111 L 371 112 L 366 112 L 365 113 L 364 113 L 364 114 L 362 116 L 336 116 L 335 115 L 329 115 L 328 116 L 327 116 L 326 117 L 326 119 L 327 120 L 326 121 L 326 122 L 327 122 L 328 123 L 334 123 L 335 124 L 336 124 L 337 123 L 339 123 L 340 124 L 341 124 L 342 125 L 342 126 L 343 127 L 343 131 L 344 132 L 344 133 L 345 134 L 350 134 L 352 132 L 370 132 L 372 134 L 372 145 L 371 146 L 372 147 L 372 149 L 371 150 L 372 151 L 372 153 L 371 154 L 371 159 L 372 160 L 380 160 L 381 161 L 381 162 L 382 163 L 382 164 L 380 166 L 378 166 L 377 167 L 376 167 L 374 169 L 374 171 L 370 175 L 369 175 L 367 177 L 366 177 L 365 178 L 352 178 L 351 179 L 350 179 L 350 189 L 351 189 L 352 190 L 357 190 L 358 191 L 359 191 L 360 192 L 360 193 L 361 194 L 361 198 L 360 199 L 360 200 L 359 201 L 352 201 L 351 202 L 350 202 L 349 203 L 349 204 L 348 205 L 349 206 L 348 207 L 348 208 L 347 209 L 344 209 L 343 210 L 342 210 L 341 211 L 341 213 L 342 214 L 341 215 L 341 216 L 340 217 L 337 217 L 336 218 L 334 218 L 334 219 L 333 220 L 335 222 L 353 222 L 354 223 L 353 224 L 353 226 L 352 227 L 343 227 L 342 228 L 340 228 L 339 229 L 336 229 L 335 230 L 326 230 L 325 231 L 324 231 L 324 233 L 325 234 L 325 246 L 324 247 L 324 250 L 323 251 L 323 257 L 324 258 L 323 259 L 323 260 L 324 261 L 324 262 L 323 263 L 323 267 L 324 268 L 324 269 L 325 270 L 325 272 L 327 274 L 327 276 L 328 277 L 328 279 L 329 280 L 329 281 L 330 282 L 331 282 L 332 283 L 335 283 L 336 282 L 345 282 L 346 283 L 360 283 L 361 282 L 363 282 L 364 281 L 365 281 L 366 280 L 370 280 L 371 281 L 373 281 L 374 282 L 413 282 L 415 280 L 415 279 L 416 278 L 416 277 L 418 275 L 419 275 L 420 274 L 433 274 L 434 273 L 443 273 L 445 275 L 445 278 L 446 279 L 445 280 L 445 282 L 446 283 L 445 284 L 445 286 L 444 287 L 443 287 L 442 288 L 440 288 L 439 287 L 437 287 L 436 288 L 434 288 L 433 289 L 433 293 L 434 294 L 434 296 L 435 297 L 435 298 L 437 300 L 437 301 L 442 306 L 443 306 L 444 307 L 445 307 L 446 308 L 447 308 L 449 310 L 450 310 L 451 311 L 452 311 L 454 313 L 455 313 L 456 314 L 457 314 L 458 315 L 459 315 L 460 316 L 461 316 L 462 317 L 463 316 L 464 317 L 466 317 L 467 318 L 470 318 L 471 317 L 472 317 L 473 316 L 474 316 L 476 314 L 476 313 L 478 311 L 479 311 L 483 307 L 484 307 L 485 306 L 486 306 L 486 305 L 487 304 L 488 304 L 490 302 L 491 302 L 493 300 L 496 300 L 498 302 L 503 302 L 504 301 L 505 301 L 506 300 L 507 300 L 508 299 L 509 299 L 513 295 L 513 294 L 514 293 L 514 288 L 513 288 L 512 287 L 501 287 L 500 286 L 500 285 L 498 283 L 499 282 L 499 281 L 501 279 L 508 279 L 509 280 L 510 280 L 512 282 L 514 282 L 517 285 L 517 287 L 518 288 L 519 288 L 520 289 L 520 290 L 522 292 L 523 292 L 524 293 L 526 293 L 526 237 L 525 236 L 517 236 L 516 237 L 511 237 L 510 236 L 509 236 L 508 235 L 508 234 L 507 233 L 507 231 L 508 230 L 508 229 L 509 228 L 512 228 L 513 227 L 525 227 L 526 226 L 526 216 L 525 215 L 520 215 L 519 216 L 517 216 L 516 217 L 515 217 L 514 218 L 511 218 L 509 216 L 507 216 L 505 214 L 505 213 L 504 212 L 505 211 L 514 211 L 515 210 L 516 210 L 517 209 L 517 206 L 519 204 L 526 204 L 526 52 "></path>
        <path fill="none" stroke="#ffffff" stroke-width="3" d="M 314 142 L 313 143 L 311 143 L 310 144 L 308 144 L 307 145 L 306 145 L 303 148 L 295 148 L 294 149 L 292 149 L 289 152 L 274 152 L 272 154 L 273 155 L 273 157 L 272 158 L 272 159 L 271 160 L 215 160 L 214 161 L 213 161 L 210 164 L 209 164 L 208 165 L 206 165 L 205 166 L 205 167 L 203 169 L 202 169 L 199 172 L 196 172 L 195 173 L 194 172 L 182 172 L 181 173 L 180 173 L 179 174 L 180 175 L 180 176 L 181 176 L 182 177 L 182 178 L 185 181 L 184 182 L 184 183 L 183 184 L 154 184 L 153 185 L 152 185 L 152 187 L 153 188 L 152 189 L 152 193 L 151 194 L 152 195 L 152 197 L 151 198 L 152 199 L 152 200 L 148 204 L 147 204 L 146 205 L 145 205 L 145 208 L 144 209 L 144 213 L 143 214 L 143 220 L 142 221 L 142 226 L 145 229 L 145 230 L 148 233 L 148 239 L 147 240 L 147 242 L 148 243 L 148 244 L 149 245 L 163 245 L 164 244 L 165 245 L 166 244 L 172 244 L 173 245 L 206 245 L 207 244 L 208 244 L 209 245 L 210 244 L 213 244 L 214 245 L 215 244 L 217 244 L 218 245 L 219 244 L 221 244 L 222 245 L 223 244 L 225 244 L 226 245 L 227 244 L 229 244 L 230 245 L 231 244 L 252 244 L 253 243 L 254 243 L 254 238 L 256 236 L 268 236 L 269 235 L 270 235 L 270 230 L 268 228 L 261 228 L 260 227 L 261 226 L 260 225 L 262 223 L 267 223 L 268 224 L 269 223 L 270 224 L 271 223 L 272 224 L 274 224 L 275 223 L 277 223 L 278 222 L 279 222 L 280 221 L 281 221 L 282 220 L 284 220 L 285 219 L 286 219 L 286 218 L 287 217 L 287 215 L 289 213 L 292 213 L 294 211 L 295 211 L 295 210 L 299 206 L 307 206 L 308 205 L 310 205 L 311 204 L 321 204 L 323 202 L 323 194 L 322 193 L 322 192 L 321 191 L 320 191 L 318 189 L 318 188 L 319 187 L 320 187 L 322 185 L 323 185 L 323 184 L 324 183 L 324 182 L 325 181 L 325 180 L 327 178 L 328 178 L 329 177 L 330 178 L 337 178 L 342 173 L 342 172 L 343 171 L 344 171 L 345 170 L 353 170 L 354 169 L 356 169 L 356 168 L 357 167 L 357 165 L 356 164 L 356 162 L 352 158 L 351 158 L 350 157 L 347 157 L 346 156 L 345 156 L 344 155 L 344 154 L 343 153 L 343 149 L 342 148 L 342 146 L 340 144 L 338 144 L 337 143 L 321 143 L 320 142 "></path>
        <path fill="none" stroke="#ffffff" stroke-width="3" d="M 219 176 L 231 176 L 232 177 L 232 178 L 234 180 L 232 182 L 232 183 L 231 184 L 219 184 L 216 181 L 216 180 L 217 179 L 217 178 "></path>
    </g>
</svg>
