<svg xmlns="http://www.w3.org/2000/svg" xmlns:xlink="http://www.w3.org/1999/xlink" version="1.1" x="0" y="0" width="1056px" height="816px">
    <g id="rootLayer" transform="translate(0.000000, 0.000000)">
        <path fill="none" stroke="#fa00fa" stroke-width="3" d="M 562 190 L 561 191 L 526 191 L 525 192 L 524 192 L 524 193 L 523 194 L 523 196 L 522 197 L 522 199 L 523 200 L 523 234 L 522 235 L 522 238 L 521 239 L 521 241 L 520 242 L 520 243 L 518 245 L 518 246 L 506 258 L 505 258 L 502 261 L 502 262 L 498 266 L 498 267 L 492 273 L 491 273 L 490 274 L 488 274 L 487 273 L 486 273 L 485 272 L 484 272 L 483 271 L 483 270 L 480 267 L 480 266 L 479 265 L 479 264 L 468 253 L 467 253 L 448 234 L 448 233 L 446 231 L 445 231 L 442 228 L 441 228 L 440 227 L 429 227 L 428 228 L 427 228 L 426 229 L 425 229 L 423 231 L 422 231 L 414 239 L 414 240 L 411 243 L 411 255 L 412 256 L 412 280 L 411 281 L 411 286 L 410 287 L 410 289 L 409 290 L 409 291 L 408 292 L 408 293 L 403 298 L 402 298 L 401 299 L 400 299 L 399 300 L 397 300 L 396 301 L 392 301 L 391 302 L 367 302 L 366 301 L 359 301 L 358 302 L 357 302 L 356 303 L 356 315 L 357 316 L 357 331 L 356 332 L 356 340 L 355 341 L 355 348 L 356 349 L 356 350 L 357 351 L 357 352 L 376 371 L 377 371 L 378 372 L 382 372 L 383 373 L 385 373 L 386 372 L 391 372 L 392 371 L 394 371 L 395 370 L 397 370 L 398 369 L 407 369 L 408 370 L 410 370 L 412 372 L 413 372 L 414 373 L 415 373 L 416 374 L 417 374 L 418 375 L 420 375 L 421 376 L 423 376 L 424 377 L 426 377 L 428 379 L 429 379 L 430 380 L 430 381 L 431 382 L 431 383 L 432 384 L 432 388 L 433 389 L 433 397 L 434 398 L 434 400 L 435 401 L 435 403 L 436 404 L 436 405 L 437 406 L 437 407 L 438 408 L 438 409 L 439 410 L 439 411 L 440 412 L 440 413 L 442 415 L 442 416 L 443 417 L 443 418 L 452 427 L 453 427 L 455 429 L 456 429 L 457 430 L 458 430 L 460 432 L 461 432 L 462 433 L 463 433 L 464 434 L 465 434 L 466 435 L 467 435 L 468 436 L 469 436 L 470 437 L 472 437 L 473 438 L 474 438 L 475 439 L 476 439 L 478 441 L 479 441 L 483 445 L 483 446 L 485 448 L 485 449 L 486 450 L 486 451 L 487 452 L 487 454 L 488 455 L 488 456 L 489 457 L 489 458 L 490 459 L 490 460 L 491 461 L 491 463 L 492 464 L 492 467 L 493 468 L 493 474 L 492 475 L 492 476 L 491 477 L 490 477 L 489 478 L 488 478 L 487 477 L 486 477 L 485 476 L 485 475 L 484 474 L 484 471 L 483 470 L 483 467 L 482 466 L 482 464 L 481 463 L 481 461 L 480 460 L 480 459 L 478 457 L 478 456 L 477 455 L 477 454 L 471 448 L 470 448 L 468 446 L 467 446 L 466 445 L 465 445 L 464 444 L 463 444 L 462 443 L 461 443 L 460 442 L 459 442 L 458 441 L 457 441 L 456 440 L 455 440 L 454 439 L 453 439 L 452 438 L 450 438 L 449 437 L 447 437 L 446 436 L 436 436 L 431 431 L 431 424 L 430 423 L 430 420 L 429 419 L 429 417 L 428 416 L 428 415 L 427 414 L 427 413 L 426 412 L 426 411 L 425 410 L 425 409 L 423 407 L 423 406 L 420 403 L 420 402 L 416 398 L 415 398 L 412 395 L 411 395 L 409 393 L 408 393 L 407 392 L 406 392 L 405 391 L 404 391 L 403 390 L 402 390 L 401 389 L 399 389 L 398 388 L 395 388 L 394 387 L 388 387 L 387 386 L 382 386 L 381 387 L 378 387 L 377 388 L 376 388 L 357 407 L 357 408 L 356 409 L 356 410 L 355 411 L 355 422 L 356 423 L 356 449 L 355 450 L 355 460 L 356 461 L 356 462 L 368 474 L 368 475 L 373 480 L 374 480 L 375 481 L 382 481 L 383 482 L 384 482 L 386 484 L 386 485 L 387 486 L 387 500 L 388 501 L 388 503 L 389 504 L 389 506 L 390 507 L 390 508 L 391 509 L 391 510 L 392 511 L 392 512 L 393 513 L 393 514 L 394 515 L 394 516 L 397 519 L 397 520 L 406 529 L 407 529 L 409 531 L 410 531 L 412 533 L 413 533 L 414 534 L 415 534 L 416 535 L 418 535 L 419 536 L 420 536 L 421 537 L 423 537 L 424 538 L 437 538 L 438 539 L 439 539 L 442 542 L 442 543 L 443 544 L 443 555 L 444 556 L 444 559 L 445 560 L 445 561 L 446 562 L 446 564 L 448 566 L 448 567 L 450 569 L 451 569 L 452 570 L 462 570 L 463 569 L 469 569 L 473 573 L 473 576 L 470 579 L 468 579 L 467 580 L 455 580 L 454 581 L 453 581 L 450 584 L 450 585 L 449 586 L 449 605 L 450 606 L 450 608 L 451 609 L 451 610 L 452 611 L 452 612 L 453 613 L 453 614 L 462 623 L 463 623 L 464 624 L 465 624 L 466 625 L 470 625 L 471 624 L 479 624 L 480 623 L 490 623 L 491 624 L 509 624 L 512 621 L 512 615 L 513 614 L 513 613 L 516 610 L 519 610 L 522 613 L 522 615 L 523 616 L 523 617 L 522 618 L 522 627 L 523 628 L 523 629 L 529 635 L 530 635 L 532 637 L 533 637 L 534 638 L 536 638 L 537 639 L 553 639 L 554 638 L 557 638 L 558 637 L 561 637 L 562 636 L 563 636 L 567 632 L 567 630 L 568 629 L 568 583 L 569 582 L 569 580 L 570 579 L 570 578 L 576 572 L 577 572 L 578 571 L 579 571 L 580 570 L 583 570 L 584 569 L 590 569 L 591 568 L 596 568 L 597 569 L 598 569 L 601 572 L 601 576 L 599 578 L 598 578 L 597 579 L 585 579 L 584 580 L 582 580 L 579 583 L 579 584 L 578 585 L 578 630 L 579 631 L 579 632 L 582 635 L 583 635 L 584 636 L 586 636 L 587 637 L 592 637 L 593 638 L 604 638 L 605 637 L 609 637 L 610 636 L 612 636 L 613 635 L 614 635 L 615 634 L 616 634 L 617 633 L 618 633 L 622 629 L 622 628 L 623 627 L 623 624 L 624 623 L 623 622 L 623 576 L 624 575 L 624 574 L 625 573 L 625 572 L 626 571 L 627 571 L 628 570 L 629 570 L 630 569 L 642 569 L 643 568 L 667 568 L 668 569 L 677 569 L 679 567 L 679 559 L 678 558 L 678 526 L 679 525 L 679 522 L 680 521 L 680 520 L 681 519 L 681 518 L 684 515 L 685 515 L 686 514 L 688 514 L 689 513 L 726 513 L 727 514 L 731 514 L 732 513 L 733 513 L 734 512 L 734 501 L 733 500 L 733 480 L 734 479 L 734 472 L 735 471 L 735 468 L 734 467 L 734 465 L 733 464 L 733 463 L 721 451 L 720 451 L 718 449 L 716 449 L 715 448 L 712 448 L 711 447 L 699 447 L 698 448 L 695 448 L 694 449 L 693 449 L 692 450 L 692 451 L 690 453 L 690 455 L 689 456 L 689 457 L 688 458 L 688 459 L 687 460 L 683 460 L 681 458 L 681 457 L 680 456 L 680 451 L 679 450 L 679 449 L 675 445 L 674 445 L 673 444 L 671 444 L 670 443 L 664 443 L 663 442 L 659 442 L 658 441 L 657 441 L 655 439 L 655 437 L 654 436 L 655 435 L 655 433 L 657 431 L 658 431 L 659 430 L 661 430 L 662 429 L 667 429 L 668 428 L 671 428 L 672 427 L 673 427 L 674 426 L 675 426 L 676 425 L 677 425 L 678 424 L 679 424 L 682 421 L 683 421 L 692 412 L 692 411 L 694 409 L 694 408 L 696 406 L 696 405 L 697 404 L 697 403 L 698 402 L 698 401 L 699 400 L 699 398 L 700 397 L 700 395 L 701 394 L 701 390 L 702 389 L 702 377 L 701 376 L 701 375 L 699 373 L 699 372 L 697 370 L 696 370 L 687 361 L 687 360 L 684 357 L 684 356 L 683 355 L 683 354 L 682 353 L 682 352 L 681 351 L 681 349 L 680 348 L 680 345 L 679 344 L 679 331 L 678 330 L 678 320 L 679 319 L 679 297 L 680 296 L 680 291 L 679 290 L 679 288 L 675 284 L 674 284 L 673 283 L 672 283 L 671 282 L 669 282 L 668 281 L 665 281 L 664 280 L 651 280 L 650 279 L 649 279 L 645 275 L 645 265 L 644 264 L 644 263 L 643 262 L 643 261 L 636 254 L 635 254 L 627 246 L 626 246 L 625 245 L 618 245 L 617 246 L 584 246 L 583 245 L 580 245 L 579 244 L 578 244 L 577 243 L 576 243 L 571 238 L 571 237 L 570 236 L 570 235 L 569 234 L 569 232 L 568 231 L 568 193 L 567 192 L 567 191 L 565 191 L 564 190 L 562 190 L 561 191 "></path>
        <path fill="none" stroke="#fa00fa" stroke-width="3" d="M 486 176 L 485 177 L 481 177 L 480 178 L 477 178 L 476 179 L 475 179 L 474 180 L 472 180 L 471 181 L 470 181 L 468 183 L 467 183 L 464 186 L 463 186 L 458 191 L 458 192 L 456 194 L 456 195 L 454 197 L 454 198 L 453 199 L 453 200 L 452 201 L 452 202 L 451 203 L 451 205 L 450 206 L 450 209 L 449 210 L 449 219 L 450 220 L 450 221 L 452 223 L 452 224 L 486 258 L 492 258 L 493 257 L 494 257 L 509 242 L 509 241 L 510 240 L 510 239 L 511 238 L 511 237 L 512 236 L 512 233 L 513 232 L 513 222 L 512 221 L 512 199 L 513 198 L 513 189 L 512 188 L 512 187 L 511 186 L 511 185 L 508 182 L 507 182 L 504 179 L 503 179 L 502 178 L 501 178 L 500 177 L 497 177 L 496 176 L 486 176 L 485 177 "></path>
        <path fill="none" stroke="#fa00fa" stroke-width="3" d="M 376 562 L 375 563 L 372 563 L 371 564 L 370 564 L 369 565 L 368 565 L 366 567 L 365 567 L 357 575 L 357 577 L 356 578 L 356 585 L 357 586 L 357 615 L 356 616 L 356 618 L 357 619 L 357 621 L 359 623 L 360 623 L 361 624 L 367 624 L 368 623 L 393 623 L 394 624 L 403 624 L 404 623 L 405 623 L 407 621 L 408 621 L 408 620 L 412 616 L 412 615 L 414 613 L 414 612 L 415 611 L 415 610 L 416 609 L 416 606 L 417 605 L 417 590 L 416 589 L 416 586 L 415 585 L 415 584 L 414 583 L 414 581 L 412 579 L 412 578 L 410 576 L 410 575 L 404 569 L 403 569 L 401 567 L 400 567 L 399 566 L 398 566 L 397 565 L 396 565 L 395 564 L 393 564 L 392 563 L 389 563 L 388 562 L 376 562 L 375 563 "></path>
        <path fill="none" stroke="#fa00fa" stroke-width="3" d="M 698 285 L 697 286 L 695 286 L 694 287 L 693 287 L 690 290 L 690 293 L 689 294 L 689 343 L 690 344 L 690 346 L 691 347 L 691 349 L 692 350 L 692 351 L 694 353 L 694 354 L 705 365 L 706 365 L 708 367 L 716 367 L 717 366 L 718 366 L 719 365 L 720 365 L 733 352 L 733 351 L 734 350 L 734 348 L 735 347 L 735 344 L 734 343 L 734 336 L 733 335 L 733 313 L 734 312 L 734 304 L 735 303 L 735 302 L 734 301 L 734 299 L 733 298 L 733 297 L 726 290 L 725 290 L 723 288 L 722 288 L 721 287 L 719 287 L 718 286 L 714 286 L 713 285 L 698 285 L 697 286 "></path>
        <path fill="none" stroke="#fa00fa" stroke-width="3" d="M 338 467 L 337 468 L 298 468 L 296 470 L 295 470 L 294 471 L 294 472 L 292 474 L 292 475 L 291 476 L 291 477 L 290 478 L 290 482 L 289 483 L 289 494 L 290 495 L 290 499 L 291 500 L 291 502 L 292 503 L 292 505 L 293 506 L 293 507 L 295 509 L 295 510 L 296 511 L 297 511 L 299 513 L 347 513 L 348 514 L 355 514 L 356 513 L 358 513 L 362 509 L 362 508 L 363 507 L 363 506 L 364 505 L 364 504 L 365 503 L 365 501 L 366 500 L 366 497 L 367 496 L 367 490 L 366 489 L 366 488 L 365 487 L 365 486 L 364 485 L 364 484 L 354 474 L 354 473 L 349 468 L 348 468 L 347 467 L 338 467 L 337 468 "></path>
        <path fill="none" stroke="#fa00fa" stroke-width="3" d="M 636 191 L 635 192 L 634 192 L 634 193 L 633 194 L 633 201 L 634 202 L 634 223 L 633 224 L 633 237 L 634 238 L 634 239 L 643 248 L 644 248 L 649 253 L 650 253 L 651 254 L 654 254 L 655 255 L 658 255 L 659 254 L 662 254 L 663 253 L 665 253 L 666 252 L 668 252 L 669 251 L 670 251 L 671 250 L 672 250 L 674 248 L 675 248 L 679 244 L 680 244 L 680 243 L 684 239 L 684 238 L 686 236 L 686 235 L 687 234 L 687 233 L 688 232 L 688 230 L 689 229 L 689 227 L 690 226 L 690 219 L 691 218 L 691 217 L 690 216 L 690 209 L 689 208 L 689 206 L 688 205 L 688 203 L 687 202 L 687 201 L 686 200 L 686 199 L 685 198 L 685 197 L 683 195 L 683 194 L 682 194 L 680 192 L 678 192 L 677 191 L 669 191 L 668 192 L 646 192 L 645 191 L 636 191 L 635 192 "></path>
        <path fill="none" stroke="#fa00fa" stroke-width="3" d="M 361 191 L 360 192 L 357 192 L 351 198 L 351 199 L 350 200 L 350 201 L 349 202 L 349 204 L 348 205 L 348 207 L 347 208 L 347 212 L 346 213 L 346 222 L 347 223 L 347 227 L 348 228 L 348 229 L 349 230 L 349 231 L 350 232 L 350 233 L 351 234 L 352 234 L 354 236 L 395 236 L 396 237 L 401 237 L 402 236 L 404 236 L 411 229 L 411 228 L 415 224 L 415 223 L 416 222 L 416 221 L 417 220 L 417 210 L 416 209 L 416 207 L 415 206 L 415 204 L 414 203 L 414 202 L 413 201 L 413 200 L 412 199 L 412 198 L 411 197 L 411 196 L 408 193 L 407 193 L 406 192 L 405 192 L 404 191 L 394 191 L 393 192 L 367 192 L 366 191 L 361 191 L 360 192 "></path>
        <path fill="none" stroke="#fa00fa" stroke-width="3" d="M 340 356 L 339 357 L 303 357 L 301 359 L 301 360 L 300 361 L 300 362 L 301 363 L 301 374 L 302 375 L 302 385 L 301 386 L 301 401 L 302 402 L 303 402 L 304 403 L 309 403 L 310 402 L 334 402 L 335 403 L 342 403 L 343 404 L 344 404 L 345 403 L 348 403 L 350 401 L 351 401 L 353 399 L 353 398 L 365 386 L 365 385 L 367 383 L 367 382 L 368 381 L 368 378 L 367 377 L 367 376 L 364 373 L 364 372 L 363 372 L 357 366 L 357 365 L 349 357 L 347 357 L 346 356 L 340 356 L 339 357 "></path>
        <path fill="none" stroke="#fa00fa" stroke-width="3" d="M 739 412 L 738 413 L 734 413 L 732 415 L 731 415 L 731 416 L 729 418 L 729 419 L 728 420 L 728 422 L 727 423 L 727 427 L 726 428 L 726 439 L 727 440 L 727 442 L 729 444 L 729 445 L 738 454 L 738 455 L 739 456 L 740 456 L 742 458 L 754 458 L 755 457 L 778 457 L 779 458 L 786 458 L 787 457 L 788 457 L 788 456 L 789 455 L 789 444 L 788 443 L 788 427 L 789 426 L 789 415 L 787 413 L 786 413 L 785 412 L 782 412 L 781 413 L 742 413 L 741 412 L 739 412 L 738 413 "></path>
        <path fill="none" stroke="#fa00fa" stroke-width="3" d="M 742 357 L 740 359 L 739 359 L 737 361 L 737 362 L 729 370 L 729 371 L 727 373 L 727 375 L 726 376 L 726 388 L 727 389 L 727 392 L 728 393 L 728 395 L 729 396 L 729 397 L 731 399 L 731 400 L 732 400 L 734 402 L 787 402 L 789 400 L 789 389 L 788 388 L 788 372 L 789 371 L 789 360 L 788 359 L 788 358 L 787 358 L 786 357 L 779 357 L 778 358 L 754 358 L 753 357 L 742 357 L 740 359 "></path>
        <path fill="none" stroke="#fa00fa" stroke-width="3" d="M 305 523 L 304 524 L 303 524 L 301 526 L 301 535 L 302 536 L 302 556 L 301 557 L 301 565 L 304 568 L 339 568 L 340 569 L 347 569 L 348 568 L 349 568 L 350 567 L 351 567 L 356 562 L 356 561 L 359 558 L 359 557 L 360 556 L 360 555 L 361 554 L 361 553 L 362 552 L 362 548 L 363 547 L 363 539 L 362 538 L 362 533 L 361 532 L 361 530 L 360 529 L 360 528 L 357 525 L 356 525 L 355 524 L 328 524 L 327 523 L 324 523 L 323 524 L 316 524 L 315 523 L 305 523 L 304 524 "></path>
        <path fill="none" stroke="#fa00fa" stroke-width="3" d="M 429 620 L 428 621 L 426 621 L 425 622 L 424 622 L 423 623 L 422 623 L 421 624 L 420 624 L 417 627 L 416 627 L 414 629 L 414 630 L 413 631 L 413 632 L 412 633 L 412 647 L 413 648 L 413 660 L 412 661 L 412 673 L 413 674 L 413 675 L 416 678 L 417 678 L 418 679 L 426 679 L 427 678 L 442 678 L 443 679 L 453 679 L 454 678 L 455 678 L 455 677 L 456 676 L 456 675 L 457 674 L 457 665 L 456 664 L 456 646 L 457 645 L 457 633 L 456 632 L 456 631 L 449 624 L 448 624 L 446 622 L 445 622 L 444 621 L 443 621 L 442 620 L 429 620 L 428 621 "></path>
        <path fill="none" stroke="#fa00fa" stroke-width="3" d="M 472 634 L 471 635 L 469 635 L 468 636 L 468 637 L 467 638 L 467 649 L 468 650 L 468 666 L 467 667 L 467 675 L 468 676 L 468 677 L 470 679 L 481 679 L 482 678 L 499 678 L 500 679 L 510 679 L 511 678 L 513 678 L 514 677 L 515 677 L 518 674 L 518 673 L 520 671 L 520 670 L 521 669 L 521 668 L 522 667 L 522 665 L 523 664 L 523 662 L 524 661 L 524 658 L 525 657 L 525 649 L 524 648 L 524 646 L 523 645 L 523 644 L 522 643 L 522 642 L 519 639 L 519 638 L 517 636 L 516 636 L 515 635 L 514 635 L 513 634 L 472 634 L 471 635 "></path>
        <path fill="none" stroke="#fa00fa" stroke-width="3" d="M 525 136 L 524 137 L 522 137 L 520 139 L 519 139 L 518 140 L 518 141 L 516 143 L 516 144 L 514 146 L 514 148 L 513 149 L 513 150 L 512 151 L 512 153 L 511 154 L 511 158 L 510 159 L 510 166 L 511 167 L 511 169 L 512 170 L 512 171 L 513 172 L 513 173 L 515 175 L 515 176 L 518 179 L 519 179 L 521 181 L 565 181 L 566 180 L 567 180 L 567 179 L 568 178 L 568 170 L 567 169 L 567 147 L 568 146 L 568 140 L 567 139 L 567 138 L 565 136 L 554 136 L 553 137 L 535 137 L 534 136 L 525 136 L 524 137 "></path>
        <path fill="none" stroke="#fa00fa" stroke-width="3" d="M 744 247 L 743 248 L 742 248 L 736 254 L 736 255 L 735 256 L 735 257 L 734 258 L 734 260 L 733 261 L 733 263 L 732 264 L 732 269 L 731 270 L 731 273 L 732 274 L 732 278 L 733 279 L 733 280 L 734 281 L 734 282 L 735 283 L 735 284 L 738 287 L 738 288 L 739 289 L 740 289 L 742 291 L 744 291 L 745 292 L 750 292 L 751 291 L 785 291 L 786 290 L 787 290 L 788 289 L 788 287 L 789 286 L 789 280 L 788 279 L 788 253 L 787 252 L 787 251 L 785 249 L 784 249 L 783 248 L 782 248 L 781 247 L 744 247 L 743 248 "></path>
        <path fill="none" stroke="#fa00fa" stroke-width="3" d="M 326 236 L 325 237 L 319 237 L 318 238 L 316 238 L 315 239 L 313 239 L 312 240 L 311 240 L 310 241 L 309 241 L 307 243 L 306 243 L 303 246 L 303 247 L 302 248 L 302 251 L 301 252 L 301 256 L 302 257 L 302 280 L 301 281 L 301 289 L 303 291 L 304 291 L 305 292 L 309 292 L 310 291 L 335 291 L 336 292 L 344 292 L 346 290 L 346 289 L 347 288 L 347 284 L 346 283 L 346 245 L 345 244 L 345 243 L 341 239 L 340 239 L 339 238 L 337 238 L 336 237 L 331 237 L 330 236 L 326 236 L 325 237 "></path>
        <path fill="none" stroke="#fa00fa" stroke-width="3" d="M 284 412 L 283 413 L 249 413 L 246 416 L 246 427 L 247 428 L 247 443 L 246 444 L 246 452 L 247 453 L 247 456 L 250 459 L 250 460 L 251 460 L 254 463 L 255 463 L 256 464 L 257 464 L 258 465 L 259 465 L 260 466 L 262 466 L 263 467 L 267 467 L 268 468 L 278 468 L 279 467 L 282 467 L 283 466 L 284 466 L 285 465 L 286 465 L 289 462 L 289 461 L 290 460 L 290 459 L 291 458 L 291 451 L 290 450 L 290 440 L 291 439 L 291 431 L 290 430 L 290 425 L 291 424 L 291 416 L 290 415 L 290 414 L 289 413 L 287 413 L 286 412 L 284 412 L 283 413 "></path>
        <path fill="none" stroke="#fa00fa" stroke-width="3" d="M 376 133 L 375 134 L 372 134 L 371 135 L 369 135 L 368 136 L 367 136 L 365 138 L 364 138 L 359 143 L 359 144 L 358 145 L 358 148 L 357 149 L 357 177 L 360 180 L 362 180 L 363 181 L 399 181 L 400 180 L 403 180 L 404 179 L 405 179 L 408 176 L 408 175 L 409 174 L 409 172 L 410 171 L 410 166 L 411 165 L 411 161 L 410 160 L 410 155 L 409 154 L 409 152 L 408 151 L 408 150 L 407 149 L 407 148 L 406 147 L 406 146 L 404 144 L 404 143 L 401 140 L 400 140 L 397 137 L 396 137 L 395 136 L 394 136 L 393 135 L 391 135 L 390 134 L 388 134 L 387 133 L 376 133 L 375 134 "></path>
        <path fill="none" stroke="#fa00fa" stroke-width="3" d="M 634 634 L 633 635 L 631 635 L 626 640 L 626 641 L 625 642 L 625 643 L 624 644 L 624 647 L 623 648 L 623 657 L 624 658 L 624 661 L 625 662 L 625 664 L 626 665 L 626 666 L 627 667 L 627 668 L 628 669 L 628 670 L 631 673 L 631 674 L 632 675 L 633 675 L 635 677 L 636 677 L 637 678 L 671 678 L 672 677 L 673 677 L 677 673 L 677 671 L 678 670 L 678 637 L 676 635 L 675 635 L 674 634 L 648 634 L 647 635 L 644 635 L 643 634 L 634 634 L 633 635 "></path>
        <path fill="none" stroke="#fa00fa" stroke-width="3" d="M 597 681 L 596 682 L 592 682 L 591 683 L 589 683 L 588 684 L 587 684 L 585 686 L 584 686 L 578 692 L 578 693 L 576 695 L 576 696 L 575 697 L 575 699 L 574 700 L 574 703 L 573 704 L 573 711 L 574 712 L 574 715 L 575 716 L 575 718 L 576 719 L 576 720 L 577 721 L 577 722 L 580 725 L 580 726 L 581 727 L 582 727 L 585 730 L 586 730 L 587 731 L 588 731 L 589 732 L 590 732 L 591 733 L 594 733 L 595 734 L 604 734 L 605 733 L 608 733 L 609 732 L 610 732 L 611 731 L 612 731 L 613 730 L 614 730 L 616 728 L 617 728 L 619 726 L 619 725 L 621 723 L 621 721 L 622 720 L 622 695 L 621 694 L 621 693 L 620 692 L 620 691 L 615 686 L 614 686 L 612 684 L 611 684 L 610 683 L 608 683 L 607 682 L 603 682 L 602 681 L 597 681 L 596 682 "></path>
        <path fill="none" stroke="#fa00fa" stroke-width="3" d="M 268 515 L 267 516 L 264 516 L 263 517 L 261 517 L 260 518 L 259 518 L 258 519 L 257 519 L 255 521 L 254 521 L 249 526 L 249 527 L 248 528 L 248 530 L 247 531 L 247 557 L 248 558 L 248 559 L 249 560 L 249 561 L 250 562 L 250 563 L 252 565 L 253 565 L 254 566 L 255 566 L 256 567 L 259 567 L 260 568 L 267 568 L 268 567 L 273 567 L 274 568 L 286 568 L 287 567 L 288 567 L 290 565 L 290 562 L 291 561 L 291 539 L 290 538 L 290 533 L 291 532 L 291 526 L 290 525 L 290 523 L 289 522 L 289 521 L 286 518 L 285 518 L 284 517 L 283 517 L 282 516 L 279 516 L 278 515 L 268 515 L 267 516 "></path>
        <path fill="none" stroke="#fa00fa" stroke-width="3" d="M 756 190 L 755 191 L 753 191 L 752 192 L 751 192 L 750 193 L 749 193 L 746 196 L 745 196 L 743 198 L 743 199 L 740 202 L 740 203 L 739 204 L 739 205 L 738 206 L 738 208 L 737 209 L 737 212 L 736 213 L 736 220 L 737 221 L 737 225 L 738 226 L 738 227 L 739 228 L 739 230 L 744 235 L 746 235 L 747 236 L 779 236 L 780 235 L 782 235 L 783 234 L 784 234 L 785 233 L 785 232 L 787 230 L 787 227 L 788 226 L 788 208 L 787 207 L 787 204 L 786 203 L 786 202 L 785 201 L 785 200 L 779 194 L 778 194 L 777 193 L 776 193 L 775 192 L 774 192 L 773 191 L 771 191 L 770 190 L 756 190 L 755 191 "></path>
        <path fill="none" stroke="#fa00fa" stroke-width="3" d="M 482 82 L 481 83 L 478 83 L 477 84 L 476 84 L 474 86 L 473 86 L 471 88 L 471 89 L 469 91 L 469 93 L 468 94 L 468 121 L 469 122 L 469 124 L 471 126 L 471 127 L 472 128 L 473 128 L 476 131 L 477 131 L 478 132 L 479 132 L 480 133 L 482 133 L 483 134 L 497 134 L 498 133 L 500 133 L 501 132 L 502 132 L 503 131 L 504 131 L 505 130 L 506 130 L 510 126 L 510 125 L 511 124 L 511 122 L 512 121 L 512 95 L 511 94 L 511 91 L 510 90 L 510 89 L 506 85 L 505 85 L 504 84 L 503 84 L 502 83 L 500 83 L 499 82 L 482 82 L 481 83 "></path>
        <path fill="none" stroke="#fa00fa" stroke-width="3" d="M 700 137 L 699 138 L 696 138 L 695 139 L 694 139 L 690 143 L 690 145 L 689 146 L 689 178 L 690 179 L 690 181 L 694 185 L 695 185 L 696 186 L 697 186 L 698 187 L 700 187 L 701 188 L 704 188 L 705 189 L 711 189 L 712 188 L 716 188 L 717 187 L 719 187 L 720 186 L 721 186 L 722 185 L 723 185 L 731 177 L 731 176 L 732 175 L 732 174 L 733 173 L 733 172 L 734 171 L 734 169 L 735 168 L 735 156 L 734 155 L 734 153 L 733 152 L 733 151 L 732 150 L 732 149 L 731 148 L 731 147 L 729 145 L 729 144 L 727 142 L 726 142 L 724 140 L 723 140 L 722 139 L 721 139 L 720 138 L 717 138 L 716 137 L 700 137 L 699 138 "></path>
        <path fill="none" stroke="#fa00fa" stroke-width="3" d="M 303 412 L 301 414 L 301 415 L 300 416 L 300 419 L 301 420 L 301 455 L 302 456 L 302 457 L 303 457 L 304 458 L 340 458 L 341 457 L 343 457 L 345 455 L 345 454 L 346 453 L 346 417 L 342 413 L 311 413 L 310 412 L 303 412 L 301 414 "></path>
        <path fill="none" stroke="#fa00fa" stroke-width="3" d="M 638 578 L 637 579 L 635 579 L 634 580 L 634 581 L 633 582 L 633 620 L 634 621 L 634 622 L 636 624 L 646 624 L 647 623 L 666 623 L 667 624 L 676 624 L 678 622 L 678 621 L 679 620 L 679 616 L 678 615 L 678 588 L 679 587 L 679 582 L 678 581 L 678 580 L 677 579 L 674 579 L 673 578 L 672 579 L 642 579 L 641 578 L 638 578 L 637 579 "></path>
        <path fill="none" stroke="#fa00fa" stroke-width="3" d="M 305 301 L 304 302 L 303 302 L 301 304 L 301 314 L 302 315 L 302 334 L 301 335 L 301 345 L 303 347 L 341 347 L 342 346 L 343 346 L 345 344 L 345 343 L 346 342 L 346 310 L 347 309 L 347 306 L 346 305 L 346 303 L 345 302 L 343 302 L 342 301 L 340 301 L 339 302 L 308 302 L 307 301 L 305 301 L 304 302 "></path>
        <path fill="none" stroke="#fa00fa" stroke-width="3" d="M 692 523 L 689 526 L 689 527 L 688 528 L 688 535 L 689 536 L 689 560 L 688 561 L 688 565 L 689 566 L 689 567 L 690 568 L 691 568 L 692 569 L 697 569 L 698 568 L 725 568 L 726 569 L 730 569 L 731 568 L 732 568 L 734 566 L 734 559 L 733 558 L 733 534 L 734 533 L 734 526 L 731 523 L 723 523 L 722 524 L 711 524 L 710 523 L 692 523 L 689 526 "></path>
        <path fill="none" stroke="#fa00fa" stroke-width="3" d="M 360 246 L 359 247 L 358 247 L 357 248 L 357 249 L 356 250 L 356 257 L 357 258 L 357 281 L 356 282 L 356 289 L 359 292 L 369 292 L 370 291 L 376 291 L 377 292 L 390 292 L 391 291 L 395 291 L 396 290 L 397 290 L 400 287 L 400 286 L 401 285 L 401 281 L 402 280 L 402 263 L 401 262 L 401 258 L 402 257 L 402 254 L 401 253 L 401 249 L 399 247 L 397 247 L 396 246 L 390 246 L 389 247 L 368 247 L 367 246 L 360 246 L 359 247 "></path>
        <path fill="none" stroke="#fa00fa" stroke-width="3" d="M 618 190 L 617 191 L 608 191 L 607 192 L 595 192 L 594 191 L 580 191 L 578 193 L 578 229 L 579 230 L 579 232 L 582 235 L 584 235 L 585 236 L 619 236 L 620 235 L 621 235 L 622 234 L 622 233 L 623 232 L 623 198 L 624 197 L 624 194 L 623 193 L 623 192 L 622 191 L 620 191 L 619 190 L 618 190 L 617 191 "></path>
        <path fill="none" stroke="#fa00fa" stroke-width="3" d="M 748 468 L 747 469 L 746 469 L 745 470 L 745 471 L 744 472 L 744 511 L 746 513 L 764 513 L 765 512 L 768 512 L 769 513 L 785 513 L 786 512 L 787 512 L 788 511 L 788 510 L 789 509 L 789 500 L 788 499 L 788 482 L 789 481 L 789 471 L 788 470 L 788 469 L 787 469 L 786 468 L 748 468 L 747 469 "></path>
        <path fill="none" stroke="#fa00fa" stroke-width="3" d="M 747 302 L 745 304 L 745 305 L 744 306 L 744 343 L 745 344 L 745 345 L 746 346 L 747 346 L 748 347 L 786 347 L 787 346 L 788 346 L 788 345 L 789 344 L 789 334 L 788 333 L 788 316 L 789 315 L 789 306 L 788 305 L 788 304 L 787 303 L 786 303 L 785 302 L 772 302 L 771 303 L 767 303 L 766 302 L 747 302 L 745 304 "></path>
        <path fill="none" stroke="#fa00fa" stroke-width="3" d="M 581 136 L 579 138 L 579 139 L 578 140 L 578 179 L 580 181 L 620 181 L 621 180 L 622 180 L 622 179 L 623 178 L 623 167 L 622 166 L 622 152 L 623 151 L 623 141 L 622 140 L 622 139 L 620 137 L 619 137 L 618 136 L 610 136 L 609 137 L 592 137 L 591 136 L 581 136 L 579 138 "></path>
        <path fill="none" stroke="#fa00fa" stroke-width="3" d="M 252 357 L 251 358 L 249 358 L 247 360 L 247 361 L 246 362 L 246 370 L 247 371 L 247 388 L 246 389 L 246 398 L 247 399 L 247 400 L 248 401 L 249 401 L 250 402 L 282 402 L 283 403 L 287 403 L 288 402 L 289 402 L 291 400 L 291 360 L 288 357 L 280 357 L 279 358 L 258 358 L 257 357 L 252 357 L 251 358 "></path>
        <path fill="none" stroke="#fa00fa" stroke-width="3" d="M 265 243 L 264 244 L 262 244 L 261 245 L 260 245 L 259 246 L 258 246 L 257 247 L 256 247 L 253 250 L 252 250 L 251 251 L 251 252 L 249 254 L 249 255 L 248 256 L 248 258 L 247 259 L 247 285 L 248 286 L 248 287 L 251 290 L 252 290 L 253 291 L 281 291 L 282 292 L 287 292 L 288 291 L 289 291 L 290 290 L 290 289 L 291 288 L 291 255 L 290 254 L 290 250 L 288 248 L 288 247 L 287 246 L 286 246 L 285 245 L 284 245 L 283 244 L 281 244 L 280 243 L 265 243 L 264 244 "></path>
        <path fill="none" stroke="#fa00fa" stroke-width="3" d="M 693 578 L 692 579 L 690 579 L 689 580 L 689 581 L 688 582 L 688 586 L 689 587 L 689 621 L 691 623 L 692 623 L 693 624 L 698 624 L 699 623 L 728 623 L 729 622 L 730 622 L 732 620 L 732 619 L 733 618 L 733 589 L 734 588 L 734 582 L 731 579 L 696 579 L 695 578 L 693 578 L 692 579 "></path>
        <path fill="none" stroke="#fa00fa" stroke-width="3" d="M 255 302 L 254 303 L 251 303 L 247 307 L 247 311 L 246 312 L 246 313 L 247 314 L 247 334 L 246 335 L 246 342 L 247 343 L 247 344 L 249 346 L 251 346 L 252 347 L 270 347 L 271 346 L 273 346 L 274 347 L 289 347 L 290 346 L 290 345 L 291 344 L 291 306 L 290 305 L 290 304 L 288 302 L 278 302 L 277 303 L 260 303 L 259 302 L 255 302 L 254 303 "></path>
        <path fill="none" stroke="#fa00fa" stroke-width="3" d="M 747 523 L 746 524 L 745 524 L 745 525 L 744 526 L 744 565 L 745 566 L 745 567 L 746 568 L 748 568 L 749 569 L 751 569 L 752 568 L 781 568 L 782 567 L 783 567 L 784 566 L 785 566 L 787 564 L 787 563 L 788 562 L 788 535 L 789 534 L 789 529 L 788 528 L 788 527 L 787 526 L 787 525 L 786 525 L 785 524 L 755 524 L 754 523 L 747 523 L 746 524 "></path>
        <path fill="none" stroke="#fa00fa" stroke-width="3" d="M 433 82 L 432 83 L 427 83 L 426 84 L 425 84 L 424 85 L 423 85 L 422 86 L 421 86 L 414 93 L 414 94 L 413 95 L 413 96 L 412 97 L 412 99 L 411 100 L 411 103 L 410 104 L 410 111 L 411 112 L 411 115 L 412 116 L 412 117 L 413 118 L 413 119 L 414 120 L 414 121 L 416 123 L 416 124 L 419 127 L 420 127 L 422 129 L 423 129 L 424 130 L 425 130 L 426 131 L 427 131 L 428 132 L 432 132 L 433 133 L 438 133 L 439 132 L 443 132 L 444 131 L 446 131 L 447 130 L 448 130 L 450 128 L 451 128 L 454 125 L 454 124 L 455 123 L 455 122 L 456 121 L 456 93 L 455 92 L 455 91 L 453 89 L 453 88 L 452 87 L 451 87 L 449 85 L 448 85 L 447 84 L 445 84 L 444 83 L 440 83 L 439 82 L 433 82 L 432 83 "></path>
        <path fill="none" stroke="#fa00fa" stroke-width="3" d="M 640 136 L 639 137 L 637 137 L 635 139 L 635 140 L 634 141 L 634 169 L 633 170 L 633 178 L 636 181 L 674 181 L 675 180 L 676 180 L 678 178 L 678 163 L 677 162 L 677 158 L 678 157 L 678 146 L 677 145 L 677 143 L 676 142 L 676 141 L 673 138 L 672 138 L 671 137 L 645 137 L 644 136 L 640 136 L 639 137 "></path>
        <path fill="none" stroke="#fa00fa" stroke-width="3" d="M 472 690 L 471 691 L 470 691 L 468 693 L 468 721 L 469 722 L 469 724 L 470 725 L 470 726 L 474 730 L 475 730 L 476 731 L 477 731 L 478 732 L 481 732 L 482 733 L 499 733 L 500 732 L 502 732 L 503 731 L 504 731 L 505 730 L 506 730 L 513 723 L 513 722 L 514 721 L 514 720 L 515 719 L 515 718 L 516 717 L 516 715 L 517 714 L 517 701 L 516 700 L 516 697 L 515 696 L 515 695 L 511 691 L 510 691 L 509 690 L 472 690 L 471 691 "></path>
        <path fill="none" stroke="#fa00fa" stroke-width="3" d="M 306 579 L 305 580 L 304 580 L 302 582 L 302 584 L 301 585 L 301 587 L 302 588 L 302 615 L 303 616 L 303 618 L 307 622 L 309 622 L 310 623 L 338 623 L 339 624 L 340 623 L 343 623 L 345 621 L 345 620 L 346 619 L 346 582 L 343 579 L 306 579 L 305 580 "></path>
        <path fill="none" stroke="#fa00fa" stroke-width="3" d="M 803 413 L 802 414 L 801 414 L 800 415 L 800 418 L 799 419 L 799 420 L 800 421 L 800 455 L 802 457 L 804 457 L 805 458 L 808 458 L 809 457 L 834 457 L 835 456 L 836 456 L 837 455 L 838 455 L 841 452 L 841 451 L 843 449 L 843 448 L 844 447 L 844 445 L 845 444 L 845 442 L 846 441 L 846 429 L 845 428 L 845 425 L 844 424 L 844 423 L 843 422 L 843 421 L 842 420 L 842 419 L 838 415 L 837 415 L 836 414 L 834 414 L 833 413 L 803 413 L 802 414 "></path>
        <path fill="none" stroke="#fa00fa" stroke-width="3" d="M 362 634 L 361 635 L 360 635 L 357 638 L 357 653 L 358 654 L 358 656 L 357 657 L 357 666 L 358 667 L 358 670 L 359 671 L 359 672 L 363 676 L 364 676 L 365 677 L 366 677 L 367 678 L 396 678 L 397 677 L 398 677 L 400 675 L 400 674 L 401 673 L 401 644 L 402 643 L 402 640 L 401 639 L 401 637 L 398 634 L 362 634 L 361 635 "></path>
        <path fill="none" stroke="#fa00fa" stroke-width="3" d="M 748 579 L 747 580 L 746 580 L 745 581 L 745 582 L 744 583 L 744 614 L 745 615 L 745 617 L 746 618 L 746 619 L 750 623 L 752 623 L 753 624 L 754 624 L 755 625 L 760 625 L 761 626 L 765 626 L 766 625 L 770 625 L 771 624 L 773 624 L 774 623 L 775 623 L 776 622 L 777 622 L 778 621 L 779 621 L 785 615 L 785 614 L 786 613 L 786 612 L 787 611 L 787 608 L 788 607 L 788 589 L 787 588 L 787 586 L 786 585 L 786 584 L 785 583 L 785 582 L 784 582 L 782 580 L 780 580 L 779 579 L 748 579 L 747 580 "></path>
        <path fill="none" stroke="#fa00fa" stroke-width="3" d="M 321 137 L 320 138 L 318 138 L 317 139 L 315 139 L 313 141 L 312 141 L 306 147 L 306 148 L 304 150 L 304 151 L 303 152 L 303 154 L 302 155 L 302 160 L 301 161 L 301 163 L 302 164 L 302 168 L 303 169 L 303 171 L 304 172 L 304 173 L 305 174 L 305 175 L 307 177 L 307 178 L 311 182 L 312 182 L 314 184 L 315 184 L 316 185 L 318 185 L 319 186 L 322 186 L 323 187 L 330 187 L 331 186 L 334 186 L 335 185 L 337 185 L 338 184 L 339 184 L 341 182 L 342 182 L 343 181 L 343 180 L 345 178 L 345 175 L 346 174 L 346 149 L 345 148 L 345 146 L 344 145 L 344 144 L 340 140 L 339 140 L 338 139 L 336 139 L 335 138 L 333 138 L 332 137 L 321 137 L 320 138 "></path>
        <path fill="none" stroke="#fa00fa" stroke-width="3" d="M 805 357 L 804 358 L 802 358 L 800 360 L 800 393 L 799 394 L 799 396 L 800 397 L 800 400 L 802 402 L 834 402 L 835 401 L 837 401 L 842 396 L 842 394 L 843 393 L 843 368 L 842 367 L 842 365 L 841 364 L 841 363 L 838 360 L 837 360 L 836 359 L 835 359 L 834 358 L 809 358 L 808 357 L 805 357 L 804 358 "></path>
        <path fill="none" stroke="#fa00fa" stroke-width="3" d="M 693 634 L 692 635 L 691 635 L 690 636 L 690 637 L 689 638 L 689 669 L 690 670 L 690 671 L 691 672 L 691 673 L 694 676 L 695 676 L 696 677 L 699 677 L 700 678 L 716 678 L 717 677 L 720 677 L 721 676 L 723 676 L 725 674 L 726 674 L 730 670 L 730 669 L 732 667 L 732 666 L 733 665 L 733 664 L 734 663 L 734 661 L 735 660 L 735 646 L 734 645 L 734 643 L 733 642 L 733 641 L 732 640 L 732 639 L 729 636 L 728 636 L 727 635 L 725 635 L 724 634 L 693 634 L 692 635 "></path>
        <path fill="none" stroke="#fa00fa" stroke-width="3" d="M 536 82 L 535 83 L 532 83 L 531 84 L 530 84 L 525 89 L 525 90 L 524 91 L 524 93 L 523 94 L 523 122 L 526 125 L 529 125 L 530 126 L 533 126 L 534 125 L 563 125 L 564 124 L 565 124 L 567 122 L 567 94 L 566 93 L 566 91 L 565 90 L 565 89 L 561 85 L 560 85 L 559 84 L 558 84 L 557 83 L 555 83 L 554 82 L 536 82 L 535 83 "></path>
        <path fill="none" stroke="#fa00fa" stroke-width="3" d="M 205 469 L 204 470 L 202 470 L 196 476 L 196 477 L 195 478 L 195 479 L 194 480 L 194 482 L 193 483 L 193 495 L 194 496 L 194 499 L 195 500 L 195 501 L 196 502 L 196 503 L 202 509 L 203 509 L 204 510 L 205 510 L 206 511 L 208 511 L 209 512 L 225 512 L 226 511 L 229 511 L 230 510 L 231 510 L 238 503 L 238 502 L 239 501 L 239 500 L 240 499 L 240 497 L 241 496 L 241 492 L 242 491 L 242 488 L 241 487 L 241 483 L 240 482 L 240 480 L 239 479 L 239 478 L 238 477 L 238 476 L 236 474 L 236 473 L 235 472 L 234 472 L 232 470 L 230 470 L 229 469 L 205 469 L 204 470 "></path>
        <path fill="none" stroke="#fa00fa" stroke-width="3" d="M 807 302 L 806 303 L 803 303 L 801 305 L 801 306 L 800 307 L 800 344 L 802 346 L 803 346 L 804 347 L 813 347 L 814 346 L 824 346 L 825 347 L 829 347 L 830 346 L 835 346 L 836 345 L 837 345 L 840 342 L 840 341 L 841 340 L 841 339 L 842 338 L 842 336 L 843 335 L 843 316 L 842 315 L 842 313 L 841 312 L 841 311 L 840 310 L 840 309 L 836 305 L 835 305 L 834 304 L 833 304 L 832 303 L 812 303 L 811 302 L 807 302 L 806 303 "></path>
        <path fill="none" stroke="#fa00fa" stroke-width="3" d="M 804 468 L 803 469 L 802 469 L 800 471 L 800 508 L 801 509 L 801 510 L 803 512 L 806 512 L 807 513 L 810 513 L 811 512 L 832 512 L 833 511 L 834 511 L 835 510 L 836 510 L 840 506 L 840 505 L 841 504 L 841 503 L 842 502 L 842 499 L 843 498 L 843 480 L 842 479 L 842 476 L 840 474 L 840 473 L 837 470 L 836 470 L 835 469 L 831 469 L 830 468 L 825 468 L 824 469 L 814 469 L 813 468 L 804 468 L 803 469 "></path>
        <path fill="none" stroke="#fa00fa" stroke-width="3" d="M 593 82 L 592 83 L 589 83 L 588 84 L 587 84 L 586 85 L 585 85 L 580 90 L 580 91 L 579 92 L 579 98 L 578 99 L 578 100 L 579 101 L 579 111 L 578 112 L 578 119 L 579 120 L 579 122 L 582 125 L 617 125 L 618 124 L 619 124 L 621 122 L 621 121 L 622 120 L 622 95 L 621 94 L 621 93 L 620 92 L 620 91 L 619 90 L 619 89 L 617 87 L 616 87 L 614 85 L 613 85 L 612 84 L 611 84 L 610 83 L 607 83 L 606 82 L 593 82 L 592 83 "></path>
        <path fill="none" stroke="#fa00fa" stroke-width="3" d="M 207 413 L 206 414 L 203 414 L 202 415 L 201 415 L 200 416 L 199 416 L 197 418 L 197 419 L 195 421 L 195 422 L 194 423 L 194 425 L 193 426 L 193 429 L 192 430 L 192 439 L 193 440 L 193 444 L 194 445 L 194 446 L 195 447 L 195 448 L 196 449 L 196 450 L 201 455 L 202 455 L 203 456 L 205 456 L 206 457 L 230 457 L 231 456 L 232 456 L 234 454 L 234 453 L 235 452 L 235 418 L 234 417 L 234 416 L 232 414 L 231 414 L 230 413 L 207 413 L 206 414 "></path>
        <path fill="none" stroke="#fa00fa" stroke-width="3" d="M 206 358 L 205 359 L 203 359 L 202 360 L 201 360 L 196 365 L 196 366 L 195 367 L 195 368 L 194 369 L 194 370 L 193 371 L 193 375 L 192 376 L 192 384 L 193 385 L 193 389 L 194 390 L 194 392 L 195 393 L 195 394 L 198 397 L 198 398 L 199 398 L 201 400 L 202 400 L 203 401 L 207 401 L 208 402 L 229 402 L 230 401 L 232 401 L 234 399 L 234 398 L 235 397 L 235 363 L 234 362 L 234 361 L 232 359 L 231 359 L 230 358 L 206 358 L 205 359 "></path>
        <path fill="none" stroke="#fa00fa" stroke-width="3" d="M 315 634 L 314 635 L 311 635 L 310 636 L 309 636 L 308 637 L 307 637 L 306 638 L 306 639 L 304 641 L 304 642 L 303 643 L 303 645 L 302 646 L 302 650 L 301 651 L 301 655 L 302 656 L 302 660 L 303 661 L 303 663 L 304 664 L 304 665 L 305 666 L 305 667 L 308 670 L 308 671 L 309 671 L 312 674 L 313 674 L 314 675 L 315 675 L 316 676 L 317 676 L 318 677 L 324 677 L 325 678 L 329 678 L 330 677 L 335 677 L 336 676 L 338 676 L 339 675 L 340 675 L 344 671 L 344 670 L 345 669 L 345 667 L 346 666 L 346 640 L 345 639 L 345 637 L 344 636 L 343 636 L 342 635 L 340 635 L 339 634 L 315 634 L 314 635 "></path>
        <path fill="none" stroke="#fa00fa" stroke-width="3" d="M 419 690 L 418 691 L 417 691 L 414 694 L 414 695 L 413 696 L 413 719 L 414 720 L 414 721 L 415 722 L 415 723 L 416 724 L 416 725 L 419 728 L 420 728 L 422 730 L 423 730 L 424 731 L 426 731 L 427 732 L 430 732 L 431 733 L 440 733 L 441 732 L 445 732 L 446 731 L 447 731 L 448 730 L 449 730 L 450 729 L 451 729 L 454 726 L 454 725 L 455 724 L 455 723 L 456 722 L 456 694 L 455 693 L 455 692 L 454 691 L 453 691 L 452 690 L 419 690 L 418 691 "></path>
        <path fill="none" stroke="#fa00fa" stroke-width="3" d="M 259 579 L 258 580 L 256 580 L 254 582 L 253 582 L 252 583 L 252 584 L 250 586 L 250 587 L 249 588 L 249 590 L 248 591 L 248 606 L 249 607 L 249 609 L 250 610 L 250 611 L 252 613 L 252 614 L 257 619 L 258 619 L 260 621 L 261 621 L 262 622 L 264 622 L 265 623 L 270 623 L 271 624 L 272 624 L 273 623 L 279 623 L 280 622 L 282 622 L 283 621 L 284 621 L 286 619 L 287 619 L 288 618 L 288 617 L 289 616 L 289 615 L 290 614 L 290 610 L 291 609 L 291 587 L 290 586 L 290 583 L 287 580 L 286 580 L 285 579 L 259 579 L 258 580 "></path>
        <path fill="none" stroke="#fa00fa" stroke-width="3" d="M 805 524 L 804 525 L 803 525 L 801 527 L 801 528 L 800 529 L 800 559 L 801 560 L 801 561 L 802 562 L 802 563 L 804 565 L 805 565 L 806 566 L 808 566 L 809 567 L 826 567 L 827 566 L 829 566 L 830 565 L 831 565 L 832 564 L 833 564 L 838 559 L 838 558 L 840 556 L 840 555 L 841 554 L 841 552 L 842 551 L 842 548 L 843 547 L 843 542 L 842 541 L 842 537 L 841 536 L 841 534 L 840 533 L 840 532 L 838 530 L 838 529 L 835 526 L 834 526 L 833 525 L 831 525 L 830 524 L 805 524 L 804 525 "></path>
        <path fill="none" stroke="#fa00fa" stroke-width="3" d="M 809 248 L 808 249 L 806 249 L 804 251 L 803 251 L 802 252 L 802 253 L 801 254 L 801 255 L 800 256 L 800 286 L 801 287 L 801 288 L 803 290 L 804 290 L 805 291 L 830 291 L 831 290 L 833 290 L 834 289 L 835 289 L 838 286 L 838 285 L 840 283 L 840 282 L 841 281 L 841 279 L 842 278 L 842 274 L 843 273 L 843 269 L 842 268 L 842 264 L 841 263 L 841 261 L 840 260 L 840 259 L 838 257 L 838 256 L 833 251 L 832 251 L 831 250 L 830 250 L 829 249 L 827 249 L 826 248 L 809 248 L 808 249 "></path>
        <path fill="none" stroke="#fa00fa" stroke-width="3" d="M 209 303 L 208 304 L 206 304 L 205 305 L 204 305 L 203 306 L 202 306 L 197 311 L 197 312 L 195 314 L 195 316 L 194 317 L 194 319 L 193 320 L 193 331 L 194 332 L 194 334 L 195 335 L 195 337 L 196 338 L 196 339 L 201 344 L 202 344 L 203 345 L 204 345 L 205 346 L 230 346 L 231 345 L 232 345 L 234 343 L 234 342 L 235 341 L 235 311 L 234 310 L 234 308 L 231 305 L 230 305 L 229 304 L 227 304 L 226 303 L 209 303 L 208 304 "></path>
        <path fill="none" stroke="#fa00fa" stroke-width="3" d="M 640 690 L 639 691 L 638 691 L 635 694 L 635 695 L 634 696 L 634 719 L 635 720 L 635 722 L 636 723 L 636 724 L 639 727 L 640 727 L 642 729 L 643 729 L 644 730 L 645 730 L 646 731 L 649 731 L 650 732 L 658 732 L 659 731 L 662 731 L 663 730 L 664 730 L 665 729 L 666 729 L 667 728 L 668 728 L 674 722 L 674 721 L 675 720 L 675 719 L 676 718 L 676 716 L 677 715 L 677 701 L 676 700 L 676 697 L 675 696 L 675 695 L 671 691 L 670 691 L 669 690 L 640 690 L 639 691 "></path>
        <path fill="none" stroke="#fa00fa" stroke-width="3" d="M 652 83 L 651 84 L 647 84 L 646 85 L 644 85 L 643 86 L 642 86 L 640 88 L 639 88 L 637 90 L 637 91 L 635 93 L 635 95 L 634 96 L 634 119 L 635 120 L 635 121 L 638 124 L 639 124 L 640 125 L 668 125 L 669 124 L 670 124 L 671 123 L 672 123 L 674 121 L 674 120 L 675 119 L 675 118 L 676 117 L 676 115 L 677 114 L 677 101 L 676 100 L 676 97 L 675 96 L 675 95 L 674 94 L 674 93 L 668 87 L 667 87 L 666 86 L 665 86 L 664 85 L 662 85 L 661 84 L 658 84 L 657 83 L 652 83 L 651 84 "></path>
        <path fill="none" stroke="#fa00fa" stroke-width="3" d="M 368 690 L 367 691 L 366 691 L 364 693 L 363 693 L 363 694 L 361 696 L 361 697 L 360 698 L 360 699 L 359 700 L 359 704 L 358 705 L 358 710 L 359 711 L 359 715 L 360 716 L 360 718 L 361 719 L 361 720 L 363 722 L 363 723 L 366 726 L 367 726 L 369 728 L 370 728 L 371 729 L 372 729 L 373 730 L 376 730 L 377 731 L 384 731 L 385 730 L 388 730 L 389 729 L 391 729 L 392 728 L 393 728 L 399 722 L 399 721 L 400 720 L 400 718 L 401 717 L 401 699 L 400 698 L 400 696 L 399 695 L 399 694 L 396 691 L 394 691 L 393 690 L 368 690 L 367 691 "></path>
        <path fill="none" stroke="#fa00fa" stroke-width="3" d="M 209 524 L 208 525 L 206 525 L 205 526 L 204 526 L 198 532 L 198 533 L 197 534 L 197 535 L 196 536 L 196 538 L 195 539 L 195 549 L 196 550 L 196 552 L 197 553 L 197 554 L 198 555 L 198 556 L 200 558 L 200 559 L 202 561 L 203 561 L 205 563 L 206 563 L 207 564 L 208 564 L 209 565 L 211 565 L 212 566 L 222 566 L 223 565 L 225 565 L 226 564 L 227 564 L 228 563 L 229 563 L 231 561 L 232 561 L 232 560 L 234 558 L 234 556 L 235 555 L 235 533 L 234 532 L 234 530 L 230 526 L 229 526 L 228 525 L 226 525 L 225 524 L 209 524 L 208 525 "></path>
        <path fill="none" stroke="#fa00fa" stroke-width="3" d="M 212 249 L 211 250 L 209 250 L 208 251 L 207 251 L 206 252 L 205 252 L 203 254 L 202 254 L 200 256 L 200 257 L 198 259 L 198 260 L 197 261 L 197 262 L 196 263 L 196 265 L 195 266 L 195 276 L 196 277 L 196 279 L 197 280 L 197 281 L 198 282 L 198 283 L 204 289 L 205 289 L 206 290 L 209 290 L 210 291 L 225 291 L 226 290 L 228 290 L 229 289 L 230 289 L 233 286 L 233 285 L 234 284 L 234 283 L 235 282 L 235 260 L 234 259 L 234 257 L 232 255 L 232 254 L 231 254 L 228 251 L 226 251 L 225 250 L 223 250 L 222 249 L 212 249 L 211 250 "></path>
        <path fill="none" stroke="#fa00fa" stroke-width="3" d="M 869 359 L 868 360 L 865 360 L 864 361 L 863 361 L 862 362 L 861 362 L 857 366 L 857 367 L 856 368 L 856 370 L 855 371 L 855 390 L 856 391 L 856 392 L 857 393 L 857 394 L 862 399 L 863 399 L 864 400 L 866 400 L 867 401 L 879 401 L 880 400 L 881 400 L 882 399 L 883 399 L 884 398 L 885 398 L 891 392 L 891 391 L 892 390 L 892 389 L 893 388 L 893 386 L 894 385 L 894 375 L 893 374 L 893 372 L 892 371 L 892 370 L 891 369 L 891 368 L 886 363 L 885 363 L 883 361 L 881 361 L 880 360 L 878 360 L 877 359 L 869 359 L 868 360 "></path>
        <path fill="none" stroke="#fa00fa" stroke-width="3" d="M 813 579 L 812 580 L 809 580 L 808 581 L 807 581 L 806 582 L 805 582 L 802 585 L 802 586 L 801 587 L 801 588 L 800 589 L 800 608 L 801 609 L 801 611 L 803 613 L 803 614 L 804 615 L 805 615 L 807 617 L 808 617 L 809 618 L 810 618 L 811 619 L 814 619 L 815 620 L 822 620 L 823 619 L 825 619 L 826 618 L 828 618 L 830 616 L 831 616 L 836 611 L 836 610 L 837 609 L 837 608 L 838 607 L 838 605 L 839 604 L 839 593 L 838 592 L 838 590 L 837 589 L 837 588 L 830 581 L 828 581 L 827 580 L 824 580 L 823 579 L 813 579 L 812 580 "></path>
        <path fill="none" stroke="#fa00fa" stroke-width="3" d="M 814 195 L 813 196 L 811 196 L 810 197 L 809 197 L 808 198 L 807 198 L 802 203 L 802 204 L 801 205 L 801 206 L 800 207 L 800 225 L 801 226 L 801 228 L 803 230 L 803 231 L 804 232 L 805 232 L 807 234 L 809 234 L 810 235 L 813 235 L 814 236 L 822 236 L 823 235 L 827 235 L 828 234 L 829 234 L 830 233 L 831 233 L 836 228 L 836 227 L 837 226 L 837 225 L 838 224 L 838 223 L 839 222 L 839 211 L 838 210 L 838 208 L 837 207 L 837 206 L 836 205 L 836 204 L 830 198 L 829 198 L 828 197 L 827 197 L 826 196 L 823 196 L 822 195 L 814 195 L 813 196 "></path>
        <path fill="none" stroke="#fa00fa" stroke-width="3" d="M 700 690 L 699 691 L 698 691 L 697 692 L 696 692 L 692 696 L 692 697 L 691 698 L 691 699 L 690 700 L 690 705 L 689 706 L 689 710 L 690 711 L 690 716 L 691 717 L 691 718 L 692 719 L 692 720 L 693 721 L 693 722 L 696 725 L 697 725 L 698 726 L 699 726 L 700 727 L 701 727 L 702 728 L 704 728 L 705 729 L 713 729 L 714 728 L 716 728 L 717 727 L 719 727 L 721 725 L 722 725 L 726 721 L 726 720 L 727 719 L 727 718 L 728 717 L 728 716 L 729 715 L 729 712 L 730 711 L 730 706 L 729 705 L 729 702 L 728 701 L 728 699 L 727 698 L 727 697 L 722 692 L 721 692 L 720 691 L 719 691 L 718 690 L 700 690 L 699 691 "></path>
        <path fill="none" stroke="#fa00fa" stroke-width="3" d="M 705 86 L 704 87 L 702 87 L 701 88 L 700 88 L 699 89 L 698 89 L 696 91 L 695 91 L 693 93 L 693 94 L 692 95 L 692 96 L 691 97 L 691 98 L 690 99 L 690 103 L 689 104 L 689 109 L 690 110 L 690 114 L 691 115 L 691 117 L 692 118 L 692 119 L 696 123 L 697 123 L 698 124 L 700 124 L 701 125 L 717 125 L 718 124 L 720 124 L 721 123 L 722 123 L 726 119 L 726 118 L 727 117 L 727 116 L 728 115 L 728 114 L 729 113 L 729 109 L 730 108 L 730 106 L 729 105 L 729 101 L 728 100 L 728 98 L 727 97 L 727 96 L 725 94 L 725 93 L 723 91 L 722 91 L 720 89 L 719 89 L 718 88 L 717 88 L 716 87 L 714 87 L 713 86 L 705 86 L 704 87 "></path>
        <path fill="none" stroke="#fa00fa" stroke-width="3" d="M 541 743 L 540 744 L 538 744 L 537 745 L 536 745 L 535 746 L 534 746 L 532 748 L 531 748 L 530 749 L 530 750 L 528 752 L 528 753 L 527 754 L 527 755 L 526 756 L 526 758 L 525 759 L 525 767 L 526 768 L 526 771 L 527 772 L 527 773 L 529 775 L 529 776 L 532 779 L 533 779 L 535 781 L 536 781 L 537 782 L 539 782 L 540 783 L 550 783 L 551 782 L 553 782 L 554 781 L 555 781 L 557 779 L 558 779 L 560 777 L 560 776 L 562 774 L 562 773 L 563 772 L 563 771 L 564 770 L 564 768 L 565 767 L 565 759 L 564 758 L 564 756 L 563 755 L 563 754 L 562 753 L 562 752 L 556 746 L 555 746 L 554 745 L 553 745 L 552 744 L 550 744 L 549 743 L 541 743 L 540 744 "></path>
        <path fill="none" stroke="#fa00fa" stroke-width="3" d="M 872 469 L 871 470 L 867 470 L 866 471 L 864 471 L 862 473 L 861 473 L 857 477 L 857 478 L 856 479 L 856 481 L 855 482 L 855 497 L 856 498 L 856 500 L 857 501 L 857 502 L 862 507 L 863 507 L 864 508 L 865 508 L 866 509 L 869 509 L 870 510 L 876 510 L 877 509 L 880 509 L 881 508 L 882 508 L 883 507 L 884 507 L 890 501 L 890 500 L 891 499 L 891 498 L 892 497 L 892 496 L 893 495 L 893 485 L 892 484 L 892 482 L 891 481 L 891 480 L 890 479 L 890 478 L 885 473 L 884 473 L 882 471 L 880 471 L 879 470 L 875 470 L 874 469 L 872 469 L 871 470 "></path>
        <path fill="none" stroke="#fa00fa" stroke-width="3" d="M 870 305 L 869 306 L 867 306 L 866 307 L 864 307 L 863 308 L 862 308 L 857 313 L 857 314 L 856 315 L 856 318 L 855 319 L 855 332 L 856 333 L 856 335 L 857 336 L 857 337 L 858 338 L 858 339 L 861 342 L 862 342 L 863 343 L 864 343 L 865 344 L 867 344 L 868 345 L 878 345 L 879 344 L 881 344 L 882 343 L 883 343 L 884 342 L 885 342 L 890 337 L 890 336 L 891 335 L 891 334 L 892 333 L 892 332 L 893 331 L 893 320 L 892 319 L 892 317 L 891 316 L 891 315 L 884 308 L 883 308 L 882 307 L 881 307 L 880 306 L 877 306 L 876 305 L 870 305 L 869 306 "></path>
        <path fill="none" stroke="#fa00fa" stroke-width="3" d="M 541 32 L 540 33 L 538 33 L 537 34 L 535 34 L 533 36 L 532 36 L 529 39 L 529 40 L 527 42 L 527 44 L 526 45 L 526 47 L 525 48 L 525 56 L 526 57 L 526 59 L 527 60 L 527 61 L 528 62 L 528 63 L 533 68 L 534 68 L 535 69 L 537 69 L 538 70 L 551 70 L 552 69 L 555 69 L 556 68 L 557 68 L 562 63 L 562 62 L 563 61 L 563 59 L 564 58 L 564 55 L 565 54 L 565 50 L 564 49 L 564 46 L 563 45 L 563 43 L 562 42 L 562 41 L 556 35 L 555 35 L 554 34 L 553 34 L 552 33 L 550 33 L 549 32 L 541 32 L 540 33 "></path>
        <path fill="none" stroke="#fa00fa" stroke-width="3" d="M 701 297 L 700 298 L 700 308 L 699 309 L 699 331 L 698 332 L 699 333 L 699 341 L 700 342 L 700 344 L 701 345 L 701 346 L 702 347 L 702 348 L 709 355 L 714 355 L 715 354 L 716 354 L 721 349 L 721 348 L 722 347 L 722 346 L 723 345 L 723 338 L 722 337 L 722 316 L 721 315 L 721 314 L 722 313 L 722 304 L 721 303 L 721 302 L 720 301 L 719 301 L 717 299 L 715 299 L 714 298 L 711 298 L 710 297 L 701 297 L 700 298 "></path>
        <path fill="none" stroke="#fa00fa" stroke-width="3" d="M 484 745 L 483 746 L 480 746 L 479 747 L 478 747 L 474 751 L 474 752 L 472 754 L 472 756 L 471 757 L 471 761 L 470 762 L 470 764 L 471 765 L 471 769 L 472 770 L 472 772 L 474 774 L 474 775 L 479 780 L 480 780 L 481 781 L 482 781 L 483 782 L 486 782 L 487 783 L 494 783 L 495 782 L 497 782 L 498 781 L 499 781 L 500 780 L 501 780 L 504 777 L 505 777 L 505 776 L 507 774 L 507 773 L 508 772 L 508 771 L 509 770 L 509 768 L 510 767 L 510 759 L 509 758 L 509 756 L 508 755 L 508 754 L 507 753 L 507 752 L 502 747 L 501 747 L 500 746 L 498 746 L 497 745 L 484 745 L 483 746 "></path>
        <path fill="none" stroke="#fa00fa" stroke-width="3" d="M 487 32 L 486 33 L 483 33 L 482 34 L 481 34 L 480 35 L 479 35 L 474 40 L 474 41 L 472 43 L 472 45 L 471 46 L 471 50 L 470 51 L 470 53 L 471 54 L 471 58 L 472 59 L 472 60 L 473 61 L 473 62 L 474 63 L 474 64 L 477 67 L 478 67 L 479 68 L 480 68 L 481 69 L 483 69 L 484 70 L 496 70 L 497 69 L 500 69 L 501 68 L 502 68 L 507 63 L 507 62 L 508 61 L 508 60 L 509 59 L 509 56 L 510 55 L 510 49 L 509 48 L 509 45 L 508 44 L 508 43 L 507 42 L 507 41 L 501 35 L 500 35 L 499 34 L 498 34 L 497 33 L 494 33 L 493 32 L 487 32 L 486 33 "></path>
        <path fill="none" stroke="#fa00fa" stroke-width="3" d="M 322 690 L 321 691 L 318 691 L 317 692 L 316 692 L 315 693 L 314 693 L 310 697 L 310 698 L 309 699 L 309 700 L 308 701 L 308 703 L 307 704 L 307 714 L 308 715 L 308 716 L 309 717 L 309 718 L 310 719 L 310 720 L 315 725 L 316 725 L 317 726 L 318 726 L 319 727 L 322 727 L 323 728 L 329 728 L 330 727 L 333 727 L 334 726 L 335 726 L 337 724 L 338 724 L 341 721 L 341 720 L 343 718 L 343 717 L 344 716 L 344 713 L 345 712 L 345 705 L 344 704 L 344 701 L 343 700 L 343 699 L 341 697 L 341 696 L 339 694 L 338 694 L 336 692 L 335 692 L 334 691 L 331 691 L 330 690 L 322 690 L 321 691 "></path>
        <path fill="none" stroke="#fa00fa" stroke-width="3" d="M 594 33 L 593 34 L 592 34 L 591 35 L 590 35 L 589 36 L 588 36 L 584 40 L 584 41 L 583 42 L 583 43 L 582 44 L 582 45 L 581 46 L 581 57 L 582 58 L 582 60 L 583 61 L 583 62 L 588 67 L 589 67 L 590 68 L 591 68 L 592 69 L 595 69 L 596 70 L 603 70 L 604 69 L 607 69 L 608 68 L 610 68 L 616 62 L 616 61 L 617 60 L 617 59 L 618 58 L 618 55 L 619 54 L 619 50 L 618 49 L 618 46 L 617 45 L 617 43 L 615 41 L 615 40 L 611 36 L 610 36 L 609 35 L 608 35 L 607 34 L 606 34 L 605 33 L 594 33 L 593 34 "></path>
        <path fill="none" stroke="#fa00fa" stroke-width="3" d="M 214 197 L 213 198 L 210 198 L 209 199 L 208 199 L 207 200 L 206 200 L 201 205 L 201 206 L 200 207 L 200 208 L 199 209 L 199 210 L 198 211 L 198 221 L 199 222 L 199 224 L 201 226 L 201 227 L 206 232 L 207 232 L 208 233 L 209 233 L 210 234 L 214 234 L 215 235 L 218 235 L 219 234 L 223 234 L 224 233 L 225 233 L 226 232 L 227 232 L 232 227 L 232 226 L 234 224 L 234 222 L 235 221 L 235 211 L 234 210 L 234 209 L 233 208 L 233 207 L 232 206 L 232 205 L 227 200 L 226 200 L 225 199 L 224 199 L 223 198 L 220 198 L 219 197 L 214 197 L 213 198 "></path>
        <path fill="none" stroke="#fa00fa" stroke-width="3" d="M 215 580 L 214 581 L 210 581 L 209 582 L 208 582 L 207 583 L 206 583 L 201 588 L 201 589 L 199 591 L 199 593 L 198 594 L 198 604 L 199 605 L 199 607 L 200 608 L 200 609 L 206 615 L 207 615 L 208 616 L 209 616 L 210 617 L 213 617 L 214 618 L 219 618 L 220 617 L 223 617 L 224 616 L 225 616 L 226 615 L 227 615 L 232 610 L 232 609 L 233 608 L 233 607 L 234 606 L 234 603 L 235 602 L 235 596 L 234 595 L 234 592 L 233 591 L 233 590 L 232 589 L 232 588 L 227 583 L 226 583 L 225 582 L 224 582 L 223 581 L 219 581 L 218 580 L 215 580 L 214 581 "></path>
        <path fill="none" stroke="#fa00fa" stroke-width="3" d="M 434 745 L 433 746 L 429 746 L 428 747 L 426 747 L 424 749 L 423 749 L 421 751 L 421 752 L 419 754 L 419 755 L 418 756 L 418 758 L 417 759 L 417 767 L 418 768 L 418 770 L 419 771 L 419 772 L 420 773 L 420 774 L 425 779 L 426 779 L 427 780 L 428 780 L 429 781 L 431 781 L 432 782 L 439 782 L 440 781 L 442 781 L 443 780 L 444 780 L 445 779 L 446 779 L 451 774 L 451 773 L 453 771 L 453 769 L 454 768 L 454 759 L 453 758 L 453 756 L 452 755 L 452 754 L 451 753 L 451 752 L 448 749 L 447 749 L 445 747 L 443 747 L 442 746 L 438 746 L 437 745 L 434 745 L 433 746 "></path>
        <path fill="none" stroke="#fa00fa" stroke-width="3" d="M 157 362 L 156 363 L 154 363 L 153 364 L 152 364 L 146 370 L 146 371 L 145 372 L 145 373 L 144 374 L 144 376 L 143 377 L 143 383 L 144 384 L 144 387 L 145 388 L 145 389 L 147 391 L 147 392 L 150 395 L 151 395 L 153 397 L 155 397 L 156 398 L 159 398 L 160 399 L 164 399 L 165 398 L 168 398 L 169 397 L 170 397 L 171 396 L 172 396 L 177 391 L 177 390 L 178 389 L 178 388 L 179 387 L 179 383 L 180 382 L 180 378 L 179 377 L 179 373 L 178 372 L 178 371 L 177 370 L 177 369 L 173 365 L 172 365 L 170 363 L 168 363 L 167 362 L 157 362 L 156 363 "></path>
        <path fill="none" stroke="#fa00fa" stroke-width="3" d="M 160 416 L 159 417 L 156 417 L 155 418 L 153 418 L 151 420 L 150 420 L 147 423 L 147 424 L 145 426 L 145 428 L 144 429 L 144 431 L 143 432 L 143 438 L 144 439 L 144 441 L 145 442 L 145 443 L 146 444 L 146 445 L 148 447 L 148 448 L 149 448 L 152 451 L 153 451 L 154 452 L 155 452 L 156 453 L 167 453 L 168 452 L 170 452 L 172 450 L 173 450 L 177 446 L 177 445 L 178 444 L 178 443 L 179 442 L 179 437 L 180 436 L 180 433 L 179 432 L 179 428 L 178 427 L 178 426 L 177 425 L 177 424 L 172 419 L 171 419 L 170 418 L 169 418 L 168 417 L 165 417 L 164 416 L 160 416 L 159 417 "></path>
        <path fill="none" stroke="#fa00fa" stroke-width="3" d="M 432 33 L 431 34 L 429 34 L 428 35 L 427 35 L 426 36 L 425 36 L 420 41 L 420 42 L 419 43 L 419 44 L 418 45 L 418 47 L 417 48 L 417 55 L 418 56 L 418 58 L 419 59 L 419 60 L 420 61 L 420 62 L 425 67 L 426 67 L 427 68 L 428 68 L 429 69 L 442 69 L 443 68 L 444 68 L 445 67 L 446 67 L 451 62 L 451 61 L 452 60 L 452 59 L 453 58 L 453 56 L 454 55 L 454 48 L 453 47 L 453 45 L 452 44 L 452 43 L 451 42 L 451 41 L 446 36 L 445 36 L 444 35 L 443 35 L 442 34 L 440 34 L 439 33 L 432 33 L 431 34 "></path>
        <path fill="none" stroke="#fa00fa" stroke-width="3" d="M 158 472 L 157 473 L 155 473 L 154 474 L 153 474 L 151 476 L 150 476 L 147 479 L 147 480 L 146 481 L 146 482 L 145 483 L 145 485 L 144 486 L 144 493 L 145 494 L 145 496 L 146 497 L 146 498 L 147 499 L 147 500 L 151 504 L 152 504 L 153 505 L 154 505 L 155 506 L 156 506 L 157 507 L 166 507 L 167 506 L 169 506 L 170 505 L 171 505 L 176 500 L 176 499 L 177 498 L 177 497 L 178 496 L 178 494 L 179 493 L 179 486 L 178 485 L 178 483 L 177 482 L 177 481 L 176 480 L 176 479 L 172 475 L 171 475 L 170 474 L 169 474 L 168 473 L 166 473 L 165 472 L 158 472 L 157 473 "></path>
        <path fill="none" stroke="#fa00fa" stroke-width="3" d="M 157 308 L 156 309 L 154 309 L 152 311 L 151 311 L 147 315 L 147 316 L 146 317 L 146 318 L 145 319 L 145 321 L 144 322 L 144 328 L 145 329 L 145 332 L 146 333 L 146 334 L 148 336 L 148 337 L 150 339 L 151 339 L 153 341 L 154 341 L 155 342 L 158 342 L 159 343 L 164 343 L 165 342 L 168 342 L 169 341 L 170 341 L 171 340 L 172 340 L 176 336 L 176 335 L 177 334 L 177 333 L 178 332 L 178 330 L 179 329 L 179 322 L 178 321 L 178 319 L 177 318 L 177 316 L 171 310 L 170 310 L 169 309 L 167 309 L 166 308 L 157 308 L 156 309 "></path>
        <path fill="none" stroke="#fa00fa" stroke-width="3" d="M 653 34 L 652 35 L 649 35 L 648 36 L 647 36 L 646 37 L 645 37 L 640 42 L 640 43 L 639 44 L 639 45 L 638 46 L 638 49 L 637 50 L 637 54 L 638 55 L 638 58 L 639 59 L 639 60 L 641 62 L 641 63 L 643 65 L 644 65 L 646 67 L 648 67 L 649 68 L 652 68 L 653 69 L 656 69 L 657 68 L 660 68 L 661 67 L 663 67 L 665 65 L 666 65 L 668 63 L 668 62 L 670 60 L 670 59 L 671 58 L 671 55 L 672 54 L 672 49 L 671 48 L 671 46 L 670 45 L 670 43 L 664 37 L 663 37 L 662 36 L 661 36 L 660 35 L 657 35 L 656 34 L 653 34 L 652 35 "></path>
        <path fill="none" stroke="#fa00fa" stroke-width="3" d="M 336 367 L 335 368 L 327 368 L 326 369 L 314 369 L 313 370 L 313 373 L 314 374 L 314 384 L 313 385 L 313 390 L 314 391 L 328 391 L 329 392 L 335 392 L 336 393 L 343 393 L 344 392 L 345 392 L 346 391 L 347 391 L 355 383 L 355 382 L 356 381 L 356 379 L 355 378 L 355 376 L 352 373 L 351 373 L 346 368 L 344 368 L 343 367 L 336 367 L 335 368 "></path>
        <path fill="none" stroke="#fa00fa" stroke-width="3" d="M 816 637 L 815 638 L 813 638 L 812 639 L 811 639 L 810 640 L 809 640 L 804 645 L 804 646 L 803 647 L 803 649 L 802 650 L 802 658 L 803 659 L 803 660 L 804 661 L 804 662 L 805 663 L 805 664 L 809 668 L 810 668 L 811 669 L 812 669 L 813 670 L 815 670 L 816 671 L 822 671 L 823 670 L 825 670 L 826 669 L 827 669 L 828 668 L 829 668 L 833 664 L 833 663 L 834 662 L 834 661 L 835 660 L 835 657 L 836 656 L 836 652 L 835 651 L 835 648 L 834 647 L 834 646 L 833 645 L 833 644 L 829 640 L 828 640 L 827 639 L 826 639 L 825 638 L 823 638 L 822 637 L 816 637 L 815 638 "></path>
        <path fill="none" stroke="#fa00fa" stroke-width="3" d="M 760 692 L 759 693 L 757 693 L 755 695 L 754 695 L 750 699 L 750 700 L 749 701 L 749 702 L 748 703 L 748 705 L 747 706 L 747 711 L 748 712 L 748 715 L 749 716 L 749 717 L 751 719 L 751 720 L 752 721 L 753 721 L 755 723 L 756 723 L 757 724 L 758 724 L 759 725 L 769 725 L 770 724 L 771 724 L 772 723 L 773 723 L 775 721 L 776 721 L 776 720 L 779 717 L 779 715 L 780 714 L 780 712 L 781 711 L 781 707 L 780 706 L 780 703 L 779 702 L 779 701 L 778 700 L 778 699 L 774 695 L 773 695 L 772 694 L 771 694 L 770 693 L 768 693 L 767 692 L 760 692 L 759 693 "></path>
        <path fill="none" stroke="#fa00fa" stroke-width="3" d="M 759 90 L 758 91 L 757 91 L 756 92 L 755 92 L 750 97 L 750 98 L 749 99 L 749 100 L 748 101 L 748 104 L 747 105 L 747 107 L 748 108 L 748 112 L 749 113 L 749 114 L 750 115 L 750 116 L 754 120 L 755 120 L 756 121 L 757 121 L 758 122 L 760 122 L 761 123 L 767 123 L 768 122 L 770 122 L 771 121 L 772 121 L 773 120 L 774 120 L 778 116 L 778 115 L 779 114 L 779 113 L 780 112 L 780 109 L 781 108 L 781 105 L 780 104 L 780 101 L 779 100 L 779 99 L 778 98 L 778 97 L 773 92 L 772 92 L 771 91 L 770 91 L 769 90 L 759 90 L 758 91 "></path>
        <path fill="none" stroke="#fa00fa" stroke-width="3" d="M 378 747 L 377 748 L 375 748 L 374 749 L 373 749 L 372 750 L 371 750 L 367 754 L 367 755 L 366 756 L 366 757 L 365 758 L 365 760 L 364 761 L 364 766 L 365 767 L 365 769 L 366 770 L 366 772 L 372 778 L 373 778 L 374 779 L 376 779 L 377 780 L 384 780 L 385 779 L 387 779 L 388 778 L 389 778 L 395 772 L 395 771 L 396 770 L 396 768 L 397 767 L 397 760 L 396 759 L 396 757 L 395 756 L 395 755 L 389 749 L 388 749 L 387 748 L 384 748 L 383 747 L 378 747 L 377 748 "></path>
        <path fill="none" stroke="#fa00fa" stroke-width="3" d="M 379 35 L 378 36 L 375 36 L 374 37 L 373 37 L 372 38 L 371 38 L 367 42 L 367 43 L 366 44 L 366 45 L 365 46 L 365 49 L 364 50 L 364 53 L 365 54 L 365 57 L 366 58 L 366 59 L 367 60 L 367 61 L 371 65 L 372 65 L 373 66 L 374 66 L 375 67 L 377 67 L 378 68 L 384 68 L 385 67 L 387 67 L 388 66 L 389 66 L 395 60 L 395 59 L 396 58 L 396 56 L 397 55 L 397 48 L 396 47 L 396 45 L 395 44 L 395 43 L 390 38 L 389 38 L 388 37 L 387 37 L 386 36 L 383 36 L 382 35 L 379 35 L 378 36 "></path>
        <path fill="none" stroke="#fa00fa" stroke-width="3" d="M 158 529 L 157 530 L 155 530 L 154 531 L 153 531 L 148 536 L 148 537 L 147 538 L 147 539 L 146 540 L 146 549 L 147 550 L 147 551 L 148 552 L 148 553 L 153 558 L 154 558 L 155 559 L 156 559 L 157 560 L 165 560 L 166 559 L 168 559 L 169 558 L 170 558 L 175 553 L 175 552 L 176 551 L 176 549 L 177 548 L 177 541 L 176 540 L 176 538 L 175 537 L 175 536 L 170 531 L 169 531 L 168 530 L 166 530 L 165 529 L 158 529 L 157 530 "></path>
        <path fill="none" stroke="#fa00fa" stroke-width="3" d="M 158 255 L 157 256 L 155 256 L 154 257 L 153 257 L 148 262 L 148 263 L 147 264 L 147 266 L 146 267 L 146 274 L 147 275 L 147 277 L 148 278 L 148 279 L 153 284 L 154 284 L 155 285 L 157 285 L 158 286 L 165 286 L 166 285 L 168 285 L 169 284 L 170 284 L 175 279 L 175 278 L 176 277 L 176 275 L 177 274 L 177 267 L 176 266 L 176 264 L 175 263 L 175 262 L 170 257 L 169 257 L 168 256 L 166 256 L 165 255 L 158 255 L 157 256 "></path>
        <path fill="none" stroke="#fa00fa" stroke-width="3" d="M 871 584 L 870 585 L 868 585 L 867 586 L 866 586 L 864 588 L 863 588 L 862 589 L 862 590 L 860 592 L 860 593 L 859 594 L 859 604 L 860 605 L 860 607 L 866 613 L 868 613 L 869 614 L 872 614 L 873 615 L 874 615 L 875 614 L 879 614 L 880 613 L 881 613 L 883 611 L 884 611 L 885 610 L 885 609 L 887 607 L 887 606 L 888 605 L 888 603 L 889 602 L 889 597 L 888 596 L 888 594 L 887 593 L 887 592 L 886 591 L 886 590 L 883 587 L 882 587 L 881 586 L 880 586 L 879 585 L 877 585 L 876 584 L 871 584 L 870 585 "></path>
        <path fill="none" stroke="#fa00fa" stroke-width="3" d="M 869 201 L 868 202 L 867 202 L 866 203 L 865 203 L 861 207 L 861 208 L 860 209 L 860 210 L 859 211 L 859 221 L 860 222 L 860 223 L 862 225 L 862 226 L 864 228 L 865 228 L 866 229 L 867 229 L 868 230 L 870 230 L 871 231 L 877 231 L 878 230 L 880 230 L 882 228 L 883 228 L 886 225 L 886 224 L 887 223 L 887 222 L 888 221 L 888 219 L 889 218 L 889 214 L 888 213 L 888 210 L 887 209 L 887 208 L 882 203 L 881 203 L 880 202 L 879 202 L 878 201 L 869 201 L 868 202 "></path>
        <path fill="none" stroke="#fa00fa" stroke-width="3" d="M 213 146 L 212 147 L 210 147 L 209 148 L 208 148 L 204 152 L 204 153 L 203 154 L 203 155 L 202 156 L 202 158 L 201 159 L 201 163 L 202 164 L 202 166 L 203 167 L 203 168 L 204 169 L 204 170 L 207 173 L 208 173 L 209 174 L 210 174 L 211 175 L 213 175 L 214 176 L 218 176 L 219 175 L 222 175 L 223 174 L 224 174 L 229 169 L 229 168 L 230 167 L 230 165 L 231 164 L 231 158 L 230 157 L 230 155 L 229 154 L 229 153 L 224 148 L 223 148 L 222 147 L 220 147 L 219 146 L 213 146 L 212 147 "></path>
        <path fill="none" stroke="#fa00fa" stroke-width="3" d="M 706 749 L 705 750 L 703 750 L 701 752 L 700 752 L 698 754 L 698 755 L 696 757 L 696 759 L 695 760 L 695 768 L 696 769 L 696 770 L 697 771 L 697 772 L 701 776 L 702 776 L 703 777 L 704 777 L 705 778 L 714 778 L 715 777 L 716 777 L 717 776 L 718 776 L 722 772 L 722 771 L 723 770 L 723 768 L 724 767 L 724 760 L 723 759 L 723 758 L 722 757 L 722 756 L 721 755 L 721 754 L 719 752 L 718 752 L 717 751 L 716 751 L 715 750 L 714 750 L 713 749 L 706 749 L 705 750 "></path>
        <path fill="none" stroke="#fa00fa" stroke-width="3" d="M 706 37 L 705 38 L 703 38 L 702 39 L 701 39 L 697 43 L 697 44 L 696 45 L 696 46 L 695 47 L 695 56 L 696 57 L 696 58 L 697 59 L 697 60 L 701 64 L 702 64 L 703 65 L 705 65 L 706 66 L 713 66 L 714 65 L 715 65 L 716 64 L 717 64 L 719 62 L 720 62 L 720 61 L 722 59 L 722 58 L 723 57 L 723 55 L 724 54 L 724 49 L 723 48 L 723 46 L 722 45 L 722 44 L 720 42 L 720 41 L 719 41 L 717 39 L 716 39 L 715 38 L 714 38 L 713 37 L 706 37 L 705 38 "></path>
        <path fill="none" stroke="#fa00fa" stroke-width="3" d="M 924 421 L 923 422 L 922 422 L 921 423 L 920 423 L 916 427 L 916 428 L 915 429 L 915 431 L 914 432 L 914 438 L 915 439 L 915 441 L 916 442 L 916 443 L 920 447 L 921 447 L 922 448 L 923 448 L 924 449 L 933 449 L 934 448 L 935 448 L 936 447 L 937 447 L 941 443 L 941 442 L 942 441 L 942 439 L 943 438 L 943 432 L 942 431 L 942 429 L 941 428 L 941 427 L 937 423 L 936 423 L 935 422 L 934 422 L 933 421 L 924 421 L 923 422 "></path>
        <path fill="none" stroke="#fa00fa" stroke-width="3" d="M 924 366 L 923 367 L 922 367 L 921 368 L 920 368 L 916 372 L 916 373 L 915 374 L 915 376 L 914 377 L 914 383 L 915 384 L 915 386 L 916 387 L 916 388 L 920 392 L 921 392 L 922 393 L 923 393 L 924 394 L 933 394 L 934 393 L 935 393 L 936 392 L 937 392 L 941 388 L 941 387 L 942 386 L 942 384 L 943 383 L 943 377 L 942 376 L 942 374 L 940 372 L 940 371 L 937 368 L 936 368 L 935 367 L 934 367 L 933 366 L 924 366 L 923 367 "></path>
        <path fill="none" stroke="#fa00fa" stroke-width="3" d="M 337 478 L 336 479 L 331 479 L 330 480 L 323 480 L 322 481 L 318 481 L 317 482 L 318 483 L 319 483 L 321 485 L 322 485 L 324 487 L 324 488 L 325 489 L 325 490 L 326 491 L 326 493 L 327 494 L 326 495 L 326 496 L 323 499 L 325 499 L 326 500 L 330 500 L 331 501 L 339 501 L 340 502 L 346 502 L 347 503 L 350 503 L 351 502 L 352 502 L 354 500 L 354 499 L 355 498 L 355 491 L 354 490 L 354 489 L 353 488 L 353 487 L 345 479 L 343 479 L 342 478 L 337 478 L 336 479 "></path>
        <path fill="none" stroke="#fa00fa" stroke-width="3" d="M 324 750 L 323 751 L 320 751 L 318 753 L 317 753 L 315 755 L 315 756 L 313 758 L 313 761 L 312 762 L 312 766 L 313 767 L 313 769 L 314 770 L 314 771 L 318 775 L 319 775 L 320 776 L 321 776 L 322 777 L 329 777 L 330 776 L 332 776 L 334 774 L 335 774 L 336 773 L 336 772 L 338 770 L 338 769 L 339 768 L 339 760 L 338 759 L 338 757 L 333 752 L 332 752 L 331 751 L 329 751 L 328 750 L 324 750 L 323 751 "></path>
        <path fill="none" stroke="#fa00fa" stroke-width="3" d="M 322 38 L 321 39 L 320 39 L 319 40 L 318 40 L 314 44 L 314 45 L 313 46 L 313 49 L 312 50 L 312 53 L 313 54 L 313 56 L 314 57 L 314 58 L 315 59 L 315 60 L 317 62 L 318 62 L 319 63 L 320 63 L 321 64 L 323 64 L 324 65 L 327 65 L 328 64 L 331 64 L 332 63 L 333 63 L 337 59 L 337 58 L 338 57 L 338 56 L 339 55 L 339 48 L 338 47 L 338 45 L 336 43 L 336 42 L 335 41 L 334 41 L 332 39 L 330 39 L 329 38 L 322 38 L 321 39 "></path>
        <path fill="none" stroke="#fa00fa" stroke-width="3" d="M 387 257 L 386 258 L 378 258 L 377 259 L 374 259 L 373 258 L 370 258 L 368 260 L 368 262 L 369 263 L 369 269 L 368 270 L 368 277 L 367 278 L 368 279 L 368 280 L 369 281 L 383 281 L 384 282 L 387 282 L 388 281 L 389 281 L 391 279 L 391 278 L 392 277 L 392 274 L 391 273 L 391 259 L 390 258 L 389 258 L 388 257 L 387 257 L 386 258 "></path>
        <path fill="none" stroke="#fa00fa" stroke-width="3" d="M 157 203 L 156 204 L 155 204 L 154 205 L 153 205 L 151 207 L 151 208 L 150 209 L 150 210 L 149 211 L 149 213 L 148 214 L 148 217 L 149 218 L 149 220 L 150 221 L 150 222 L 151 223 L 151 224 L 153 226 L 154 226 L 155 227 L 156 227 L 157 228 L 166 228 L 167 227 L 168 227 L 172 223 L 172 222 L 173 221 L 173 220 L 174 219 L 174 212 L 173 211 L 173 210 L 172 209 L 172 208 L 168 204 L 167 204 L 166 203 L 157 203 L 156 204 "></path>
        <path fill="none" stroke="#fa00fa" stroke-width="3" d="M 328 423 L 327 424 L 314 424 L 313 425 L 313 431 L 314 432 L 314 439 L 313 440 L 313 445 L 314 446 L 326 446 L 327 447 L 334 447 L 336 445 L 336 425 L 334 423 L 328 423 L 327 424 "></path>
        <path fill="none" stroke="#fa00fa" stroke-width="3" d="M 590 203 L 589 204 L 589 219 L 588 220 L 588 223 L 589 224 L 589 225 L 590 225 L 591 226 L 610 226 L 612 224 L 612 217 L 611 216 L 611 204 L 610 203 L 608 203 L 607 204 L 596 204 L 595 203 L 590 203 L 589 204 "></path>
        <path fill="none" stroke="#fa00fa" stroke-width="3" d="M 815 697 L 814 698 L 813 698 L 812 699 L 811 699 L 809 701 L 809 702 L 808 703 L 808 704 L 807 705 L 807 713 L 808 714 L 808 715 L 809 716 L 809 717 L 811 719 L 812 719 L 813 720 L 814 720 L 815 721 L 823 721 L 824 720 L 825 720 L 826 719 L 827 719 L 829 717 L 829 716 L 830 715 L 830 714 L 831 713 L 831 705 L 830 704 L 830 703 L 829 702 L 829 701 L 827 699 L 826 699 L 825 698 L 824 698 L 823 697 L 815 697 L 814 698 "></path>
        <path fill="none" stroke="#fa00fa" stroke-width="3" d="M 815 94 L 814 95 L 813 95 L 812 96 L 811 96 L 810 97 L 810 98 L 808 100 L 808 101 L 807 102 L 807 110 L 808 111 L 808 112 L 813 117 L 814 117 L 815 118 L 823 118 L 824 117 L 825 117 L 827 115 L 828 115 L 829 114 L 829 113 L 830 112 L 830 111 L 831 110 L 831 102 L 830 101 L 830 100 L 829 99 L 829 98 L 827 96 L 826 96 L 825 95 L 824 95 L 823 94 L 815 94 L 814 95 "></path>
        <path fill="none" stroke="#fa00fa" stroke-width="3" d="M 103 423 L 102 424 L 101 424 L 100 425 L 99 425 L 96 428 L 96 429 L 95 430 L 95 432 L 94 433 L 94 437 L 95 438 L 95 440 L 97 442 L 97 443 L 99 445 L 100 445 L 101 446 L 103 446 L 104 447 L 109 447 L 110 446 L 111 446 L 112 445 L 113 445 L 117 441 L 117 440 L 118 439 L 118 431 L 117 430 L 117 429 L 115 427 L 115 426 L 114 426 L 112 424 L 111 424 L 110 423 L 103 423 L 102 424 "></path>
        <path fill="none" stroke="#fa00fa" stroke-width="3" d="M 104 368 L 103 369 L 101 369 L 100 370 L 99 370 L 97 372 L 97 373 L 95 375 L 95 378 L 94 379 L 94 382 L 95 383 L 95 385 L 96 386 L 96 387 L 99 390 L 100 390 L 101 391 L 102 391 L 103 392 L 109 392 L 110 391 L 112 391 L 114 389 L 115 389 L 115 388 L 117 386 L 117 385 L 118 384 L 118 376 L 117 375 L 117 374 L 112 369 L 110 369 L 109 368 L 104 368 L 103 369 "></path>
        <path fill="none" stroke="#fa00fa" stroke-width="3" d="M 872 149 L 871 150 L 869 150 L 868 151 L 867 151 L 864 154 L 864 155 L 863 156 L 863 158 L 862 159 L 862 162 L 863 163 L 863 166 L 865 168 L 865 169 L 866 170 L 867 170 L 868 171 L 869 171 L 870 172 L 878 172 L 879 171 L 880 171 L 881 170 L 882 170 L 883 169 L 883 168 L 885 166 L 885 164 L 886 163 L 886 159 L 885 158 L 885 156 L 884 155 L 884 154 L 881 151 L 880 151 L 879 150 L 877 150 L 876 149 L 872 149 L 871 150 "></path>
        <path fill="none" stroke="#fa00fa" stroke-width="3" d="M 103 314 L 102 315 L 101 315 L 99 317 L 98 317 L 98 318 L 96 320 L 96 322 L 95 323 L 95 328 L 96 329 L 96 330 L 97 331 L 97 332 L 100 335 L 101 335 L 102 336 L 110 336 L 111 335 L 112 335 L 113 334 L 114 334 L 115 333 L 115 332 L 117 330 L 117 326 L 118 325 L 117 324 L 117 321 L 116 320 L 116 319 L 112 315 L 110 315 L 109 314 L 103 314 L 102 315 "></path>
        <path fill="none" stroke="#fa00fa" stroke-width="3" d="M 214 698 L 213 699 L 211 699 L 206 704 L 206 706 L 205 707 L 205 712 L 206 713 L 206 714 L 207 715 L 207 716 L 209 718 L 210 718 L 211 719 L 212 719 L 213 720 L 218 720 L 219 719 L 221 719 L 226 714 L 226 712 L 227 711 L 227 708 L 226 707 L 226 705 L 225 704 L 225 703 L 222 700 L 221 700 L 220 699 L 218 699 L 217 698 L 214 698 L 213 699 "></path>
        <path fill="none" stroke="#fa00fa" stroke-width="3" d="M 213 95 L 212 96 L 211 96 L 210 97 L 209 97 L 207 99 L 207 100 L 206 101 L 206 102 L 205 103 L 205 108 L 206 109 L 206 111 L 210 115 L 211 115 L 212 116 L 214 116 L 215 117 L 216 117 L 217 116 L 220 116 L 221 115 L 222 115 L 225 112 L 225 111 L 226 110 L 226 108 L 227 107 L 227 105 L 226 104 L 226 102 L 225 101 L 225 100 L 221 96 L 219 96 L 218 95 L 213 95 L 212 96 "></path>
        <path fill="none" stroke="#fa00fa" stroke-width="3" d="M 268 754 L 267 755 L 266 755 L 265 756 L 264 756 L 262 758 L 262 759 L 261 760 L 261 768 L 262 769 L 262 770 L 265 773 L 266 773 L 267 774 L 274 774 L 275 773 L 276 773 L 277 772 L 278 772 L 279 771 L 279 770 L 280 769 L 280 768 L 281 767 L 281 761 L 280 760 L 280 759 L 276 755 L 275 755 L 274 754 L 268 754 L 267 755 "></path>
        <path fill="none" stroke="#fa00fa" stroke-width="3" d="M 268 41 L 267 42 L 266 42 L 265 43 L 264 43 L 262 45 L 262 46 L 261 47 L 261 55 L 262 56 L 262 57 L 264 59 L 265 59 L 266 60 L 267 60 L 268 61 L 274 61 L 275 60 L 276 60 L 280 56 L 280 54 L 281 53 L 281 49 L 280 48 L 280 46 L 276 42 L 275 42 L 274 41 L 268 41 L 267 42 "></path>
        <path fill="none" stroke="#fa00fa" stroke-width="3" d="M 158 151 L 157 152 L 156 152 L 155 153 L 154 153 L 153 154 L 153 155 L 152 156 L 152 157 L 151 158 L 151 163 L 152 164 L 152 166 L 155 169 L 156 169 L 157 170 L 159 170 L 160 171 L 162 171 L 163 170 L 165 170 L 166 169 L 167 169 L 169 167 L 169 166 L 170 165 L 170 164 L 171 163 L 171 159 L 170 158 L 170 156 L 166 152 L 165 152 L 164 151 L 158 151 L 157 152 "></path>
        <path fill="none" stroke="#fa00fa" stroke-width="3" d="M 103 535 L 102 536 L 101 536 L 97 540 L 97 542 L 96 543 L 96 546 L 97 547 L 97 549 L 99 551 L 99 552 L 100 552 L 102 554 L 105 554 L 106 555 L 107 554 L 110 554 L 111 553 L 112 553 L 114 551 L 114 550 L 115 549 L 115 548 L 116 547 L 116 542 L 115 541 L 115 540 L 114 539 L 114 538 L 113 537 L 112 537 L 111 536 L 110 536 L 109 535 L 103 535 L 102 536 "></path>
        <path fill="none" stroke="#fa00fa" stroke-width="3" d="M 102 261 L 100 263 L 99 263 L 98 264 L 98 265 L 97 266 L 97 268 L 96 269 L 96 272 L 97 273 L 97 275 L 101 279 L 102 279 L 103 280 L 109 280 L 110 279 L 111 279 L 115 275 L 115 274 L 116 273 L 116 268 L 115 267 L 115 266 L 114 265 L 114 264 L 112 262 L 111 262 L 110 261 L 102 261 L 100 263 "></path>
        <path fill="none" stroke="#fa00fa" stroke-width="3" d="M 926 590 L 925 591 L 924 591 L 920 595 L 920 597 L 919 598 L 919 601 L 920 602 L 920 604 L 922 606 L 922 607 L 923 607 L 925 609 L 933 609 L 935 607 L 936 607 L 936 606 L 938 604 L 938 602 L 939 601 L 939 598 L 938 597 L 938 595 L 934 591 L 933 591 L 932 590 L 926 590 L 925 591 "></path>
        <path fill="none" stroke="#fa00fa" stroke-width="3" d="M 926 206 L 925 207 L 924 207 L 920 211 L 920 213 L 919 214 L 919 217 L 920 218 L 920 220 L 924 224 L 925 224 L 926 225 L 932 225 L 933 224 L 934 224 L 938 220 L 938 218 L 939 217 L 939 214 L 938 213 L 938 211 L 934 207 L 933 207 L 932 206 L 926 206 L 925 207 "></path>
        <path fill="none" stroke="#fa00fa" stroke-width="3" d="M 647 219 L 647 220 L 646 221 L 646 224 L 645 225 L 645 234 L 652 241 L 653 241 L 654 242 L 660 242 L 661 241 L 662 241 L 663 240 L 664 240 L 665 239 L 666 239 L 670 235 L 670 234 L 671 233 L 671 232 L 670 232 L 669 233 L 668 233 L 667 234 L 659 234 L 654 229 L 653 229 L 651 227 L 651 226 L 650 225 L 650 224 L 649 223 L 649 222 L 648 221 L 648 220 L 647 219 L 647 220 "></path>
        <path fill="none" stroke="#fa00fa" stroke-width="3" d="M 330 314 L 329 315 L 326 315 L 325 316 L 324 316 L 327 319 L 327 323 L 326 324 L 326 326 L 325 327 L 325 328 L 323 330 L 322 330 L 321 331 L 315 331 L 315 332 L 314 333 L 315 334 L 323 334 L 324 335 L 329 335 L 330 336 L 334 336 L 335 335 L 335 323 L 334 322 L 334 320 L 335 319 L 335 315 L 334 314 L 330 314 L 329 315 "></path>
        <path fill="none" stroke="#fa00fa" stroke-width="3" d="M 983 426 L 982 427 L 980 427 L 976 431 L 976 433 L 975 434 L 975 436 L 976 437 L 976 439 L 980 443 L 987 443 L 988 442 L 989 442 L 991 440 L 991 439 L 992 438 L 992 431 L 988 427 L 986 427 L 985 426 L 983 426 L 982 427 "></path>
        <path fill="none" stroke="#fa00fa" stroke-width="3" d="M 872 701 L 871 702 L 870 702 L 867 705 L 867 706 L 866 707 L 866 712 L 867 713 L 867 714 L 869 716 L 870 716 L 871 717 L 873 717 L 874 718 L 875 718 L 876 717 L 878 717 L 882 713 L 882 711 L 883 710 L 883 709 L 882 708 L 882 706 L 881 705 L 881 704 L 879 702 L 878 702 L 877 701 L 872 701 L 871 702 "></path>
        <path fill="none" stroke="#fa00fa" stroke-width="3" d="M 817 756 L 816 757 L 815 757 L 812 760 L 812 761 L 811 762 L 811 766 L 812 767 L 812 768 L 813 769 L 813 770 L 814 771 L 815 771 L 816 772 L 823 772 L 827 768 L 827 766 L 828 765 L 828 764 L 827 763 L 827 761 L 826 760 L 826 759 L 824 757 L 823 757 L 822 756 L 817 756 L 816 757 "></path>
        <path fill="none" stroke="#fa00fa" stroke-width="3" d="M 871 98 L 870 99 L 869 99 L 867 101 L 867 102 L 866 103 L 866 108 L 867 109 L 867 110 L 870 113 L 871 113 L 872 114 L 877 114 L 878 113 L 879 113 L 881 111 L 881 110 L 882 109 L 882 102 L 878 98 L 871 98 L 870 99 "></path>
        <path fill="none" stroke="#fa00fa" stroke-width="3" d="M 816 43 L 812 47 L 812 49 L 811 50 L 811 52 L 812 53 L 812 55 L 815 58 L 816 58 L 817 59 L 821 59 L 822 58 L 824 58 L 826 56 L 826 55 L 827 54 L 827 52 L 828 51 L 828 50 L 827 49 L 827 47 L 823 43 L 816 43 L 812 47 "></path>
        <path fill="none" stroke="#fa00fa" stroke-width="3" d="M 981 482 L 979 484 L 978 484 L 978 485 L 976 487 L 976 492 L 977 493 L 977 494 L 980 497 L 981 497 L 982 498 L 985 498 L 986 497 L 988 497 L 991 494 L 991 493 L 992 492 L 992 488 L 991 487 L 991 486 L 988 483 L 987 483 L 986 482 L 981 482 L 979 484 "></path>
        <path fill="none" stroke="#fa00fa" stroke-width="3" d="M 983 317 L 982 318 L 980 318 L 977 321 L 977 322 L 976 323 L 976 327 L 977 328 L 977 329 L 978 330 L 978 331 L 979 331 L 981 333 L 987 333 L 989 331 L 990 331 L 990 330 L 991 329 L 991 328 L 992 327 L 992 323 L 991 322 L 991 321 L 988 318 L 986 318 L 985 317 L 983 317 L 982 318 "></path>
        <path fill="none" stroke="#fa00fa" stroke-width="3" d="M 103 208 L 102 209 L 101 209 L 99 211 L 99 213 L 98 214 L 98 217 L 99 218 L 99 219 L 100 220 L 100 221 L 101 222 L 102 222 L 103 223 L 109 223 L 110 222 L 111 222 L 112 221 L 112 220 L 113 219 L 113 218 L 114 217 L 114 213 L 113 212 L 113 211 L 111 209 L 110 209 L 109 208 L 103 208 L 102 209 "></path>
        <path fill="none" stroke="#fa00fa" stroke-width="3" d="M 929 647 L 928 648 L 926 648 L 925 649 L 924 649 L 923 650 L 923 651 L 922 652 L 922 657 L 924 659 L 924 660 L 925 660 L 926 661 L 927 661 L 928 662 L 930 662 L 931 661 L 933 661 L 935 659 L 935 658 L 936 657 L 936 652 L 935 651 L 935 650 L 934 649 L 933 649 L 932 648 L 930 648 L 929 647 L 928 648 "></path>
        <path fill="none" stroke="#fa00fa" stroke-width="3" d="M 741 424 L 739 426 L 739 427 L 738 428 L 738 436 L 739 437 L 739 438 L 746 445 L 750 445 L 751 444 L 746 439 L 746 438 L 745 437 L 745 431 L 748 428 L 749 428 L 750 427 L 751 427 L 750 426 L 749 426 L 748 425 L 746 425 L 745 424 L 741 424 L 739 426 "></path>
        <path fill="none" stroke="#fa00fa" stroke-width="3" d="M 746 370 L 739 377 L 739 378 L 738 379 L 738 387 L 739 388 L 739 389 L 741 391 L 744 391 L 745 390 L 748 390 L 749 389 L 750 389 L 751 388 L 750 388 L 749 387 L 748 387 L 745 384 L 745 378 L 746 377 L 746 376 L 751 371 L 750 370 L 746 370 L 739 377 "></path>
        <path fill="none" stroke="#fa00fa" stroke-width="3" d="M 158 703 L 157 704 L 156 704 L 156 705 L 155 706 L 155 707 L 154 708 L 154 711 L 155 712 L 155 713 L 157 715 L 158 715 L 159 716 L 163 716 L 164 715 L 165 715 L 166 714 L 166 713 L 167 712 L 167 706 L 164 703 L 158 703 L 157 704 "></path>
        <path fill="none" stroke="#fa00fa" stroke-width="3" d="M 159 99 L 158 100 L 157 100 L 155 102 L 155 103 L 154 104 L 154 107 L 155 108 L 155 109 L 158 112 L 163 112 L 164 111 L 165 111 L 166 110 L 166 109 L 167 108 L 167 103 L 166 102 L 166 101 L 165 100 L 164 100 L 163 99 L 159 99 L 158 100 "></path>
        <path fill="none" stroke="#fa00fa" stroke-width="3" d="M 983 538 L 982 539 L 981 539 L 980 540 L 979 540 L 979 541 L 978 542 L 978 543 L 977 544 L 977 545 L 978 546 L 978 548 L 981 551 L 987 551 L 990 548 L 990 547 L 991 546 L 991 544 L 990 543 L 990 542 L 989 541 L 989 540 L 988 540 L 987 539 L 986 539 L 985 538 L 983 538 L 982 539 "></path>
        <path fill="none" stroke="#fa00fa" stroke-width="3" d="M 982 264 L 981 265 L 980 265 L 978 267 L 978 273 L 979 274 L 979 275 L 980 276 L 982 276 L 983 277 L 986 277 L 987 276 L 988 276 L 989 275 L 989 274 L 990 273 L 990 272 L 991 271 L 991 269 L 990 268 L 990 267 L 987 264 L 982 264 L 981 265 "></path>
        <path fill="none" stroke="#fa00fa" stroke-width="3" d="M 379 575 L 378 576 L 377 576 L 376 577 L 380 577 L 381 578 L 385 578 L 386 579 L 387 579 L 388 580 L 389 580 L 390 581 L 391 581 L 394 584 L 395 584 L 397 586 L 397 587 L 400 590 L 400 591 L 401 592 L 401 593 L 402 594 L 402 595 L 403 596 L 403 598 L 404 598 L 404 591 L 403 590 L 403 588 L 402 587 L 402 586 L 401 585 L 401 584 L 395 578 L 394 578 L 393 577 L 392 577 L 391 576 L 389 576 L 388 575 L 379 575 L 378 576 "></path>
        <path fill="none" stroke="#fa00fa" stroke-width="3" d="M 48 374 L 45 377 L 45 379 L 44 380 L 44 381 L 45 382 L 45 383 L 48 386 L 54 386 L 57 383 L 57 377 L 54 374 L 48 374 L 45 377 "></path>
        <path fill="none" stroke="#fa00fa" stroke-width="3" d="M 48 429 L 45 432 L 45 434 L 44 435 L 45 436 L 45 438 L 48 441 L 54 441 L 56 439 L 56 438 L 57 437 L 57 432 L 54 429 L 48 429 L 45 432 "></path>
        <path fill="none" stroke="#fa00fa" stroke-width="3" d="M 49 484 L 45 488 L 45 492 L 46 493 L 46 494 L 47 494 L 48 495 L 49 495 L 50 496 L 52 496 L 53 495 L 54 495 L 56 493 L 56 492 L 57 491 L 57 489 L 56 488 L 56 487 L 53 484 L 49 484 L 45 488 "></path>
        <path fill="none" stroke="#fa00fa" stroke-width="3" d="M 50 319 L 49 320 L 48 320 L 45 323 L 45 327 L 46 328 L 46 329 L 47 330 L 48 330 L 49 331 L 52 331 L 53 330 L 54 330 L 56 328 L 56 326 L 57 325 L 56 324 L 56 322 L 54 320 L 53 320 L 52 319 L 50 319 L 49 320 "></path>
        <path fill="none" stroke="#fa00fa" stroke-width="3" d="M 104 649 L 103 650 L 102 650 L 101 651 L 101 653 L 100 654 L 100 655 L 101 656 L 101 658 L 102 659 L 103 659 L 104 660 L 108 660 L 110 658 L 110 657 L 111 656 L 111 653 L 110 652 L 110 651 L 109 650 L 108 650 L 107 649 L 104 649 L 103 650 "></path>
        <path fill="none" stroke="#fa00fa" stroke-width="3" d="M 982 595 L 980 597 L 980 598 L 979 599 L 979 600 L 980 601 L 980 603 L 981 604 L 982 604 L 983 605 L 986 605 L 989 602 L 989 597 L 987 595 L 982 595 L 980 597 "></path>
        <path fill="none" stroke="#fa00fa" stroke-width="3" d="M 983 210 L 982 211 L 981 211 L 980 212 L 980 213 L 979 214 L 979 217 L 982 220 L 987 220 L 988 219 L 988 218 L 989 217 L 989 213 L 987 211 L 986 211 L 985 210 L 983 210 L 982 211 "></path>
        <path fill="none" stroke="#fa00fa" stroke-width="3" d="M 49 540 L 46 543 L 46 547 L 48 549 L 49 549 L 50 550 L 52 550 L 53 549 L 54 549 L 55 548 L 55 546 L 56 545 L 56 544 L 55 543 L 55 542 L 53 540 L 49 540 L 46 543 "></path>
        <path fill="none" stroke="#fa00fa" stroke-width="3" d="M 872 760 L 870 762 L 870 767 L 872 769 L 877 769 L 879 767 L 879 762 L 877 760 L 872 760 L 870 762 "></path>
        <path fill="none" stroke="#fa00fa" stroke-width="3" d="M 872 46 L 870 48 L 870 53 L 872 55 L 877 55 L 879 53 L 879 48 L 877 46 L 872 46 L 870 48 "></path>
        <path fill="none" stroke="#fa00fa" stroke-width="3" d="M 928 705 L 927 706 L 926 706 L 925 707 L 925 712 L 927 714 L 932 714 L 933 713 L 933 712 L 934 711 L 934 708 L 931 705 L 928 705 L 927 706 "></path>
        <path fill="none" stroke="#fa00fa" stroke-width="3" d="M 159 760 L 156 763 L 156 766 L 159 769 L 162 769 L 163 768 L 164 768 L 164 767 L 165 766 L 165 763 L 162 760 L 159 760 L 156 763 "></path>
        <path fill="none" stroke="#fa00fa" stroke-width="3" d="M 159 46 L 156 49 L 156 52 L 159 55 L 162 55 L 165 52 L 165 49 L 162 46 L 159 46 L 156 49 "></path>
        <path fill="none" stroke="#fa00fa" stroke-width="3" d="M 105 705 L 104 706 L 103 706 L 102 707 L 102 708 L 101 709 L 101 711 L 104 714 L 107 714 L 110 711 L 110 709 L 109 708 L 109 707 L 108 706 L 107 706 L 106 705 L 105 705 L 104 706 "></path>
        <path fill="none" stroke="#fa00fa" stroke-width="3" d="M 983 156 L 980 159 L 980 162 L 982 164 L 983 164 L 984 165 L 985 165 L 986 164 L 987 164 L 988 163 L 988 162 L 989 161 L 989 160 L 988 159 L 988 158 L 986 156 L 983 156 L 980 159 "></path>
        <path fill="none" stroke="#fa00fa" stroke-width="3" d="M 984 650 L 983 651 L 982 651 L 980 653 L 980 656 L 981 657 L 981 658 L 982 658 L 983 659 L 986 659 L 988 657 L 988 656 L 989 655 L 989 654 L 988 653 L 988 652 L 987 651 L 985 651 L 984 650 L 983 651 "></path>
        <path fill="none" stroke="#fa00fa" stroke-width="3" d="M 104 101 L 101 104 L 101 106 L 102 107 L 102 108 L 103 109 L 108 109 L 109 108 L 109 107 L 110 106 L 110 104 L 107 101 L 104 101 L 101 104 "></path>
        <path fill="none" stroke="#fa00fa" stroke-width="3" d="M 700 535 L 700 539 L 701 540 L 701 544 L 702 545 L 702 548 L 703 547 L 703 545 L 704 544 L 704 542 L 708 538 L 709 538 L 710 537 L 709 537 L 708 536 L 706 536 L 705 535 L 700 535 L 700 539 "></path>
        <path fill="none" stroke="#fa00fa" stroke-width="3" d="M 50 156 L 49 157 L 48 157 L 47 158 L 47 162 L 49 164 L 53 164 L 54 163 L 54 161 L 55 160 L 54 159 L 54 158 L 53 157 L 52 157 L 51 156 L 50 156 L 49 157 "></path>
        <path fill="none" stroke="#fa00fa" stroke-width="3" d="M 49 651 L 48 652 L 47 652 L 47 657 L 48 658 L 49 658 L 50 659 L 51 659 L 52 658 L 53 658 L 54 657 L 54 652 L 53 652 L 52 651 L 49 651 L 48 652 "></path>
        <path fill="none" stroke="#fa00fa" stroke-width="3" d="M 927 47 L 926 48 L 926 53 L 927 54 L 932 54 L 933 53 L 933 48 L 932 47 L 927 47 L 926 48 "></path>
        <path fill="none" stroke="#fa00fa" stroke-width="3" d="M 982 706 L 981 707 L 981 712 L 982 713 L 987 713 L 987 712 L 988 711 L 988 708 L 986 706 L 982 706 L 981 707 "></path>
        <path fill="none" stroke="#fa00fa" stroke-width="3" d="M 982 102 L 981 103 L 981 108 L 982 108 L 983 109 L 986 109 L 988 107 L 988 104 L 987 103 L 987 102 L 982 102 L 981 103 "></path>
        <path fill="none" stroke="#fa00fa" stroke-width="3" d="M 103 47 L 103 48 L 102 49 L 102 52 L 104 54 L 107 54 L 109 52 L 109 48 L 108 47 L 103 47 L 103 48 "></path>
        <path fill="none" stroke="#fa00fa" stroke-width="3" d="M 983 761 L 981 763 L 981 766 L 983 768 L 986 768 L 988 766 L 988 763 L 986 761 L 983 761 L 981 763 "></path>
        <path fill="none" stroke="#fa00fa" stroke-width="3" d="M 49 706 L 47 708 L 47 711 L 49 713 L 52 713 L 54 711 L 54 708 L 52 706 L 49 706 L 47 708 "></path>
        <path fill="none" stroke="#fa00fa" stroke-width="3" d="M 104 761 L 102 763 L 102 766 L 104 768 L 107 768 L 109 766 L 109 763 L 107 761 L 104 761 L 102 763 "></path>
        <path fill="none" stroke="#fa00fa" stroke-width="3" d="M 983 47 L 981 49 L 981 52 L 982 53 L 983 53 L 984 54 L 985 54 L 986 53 L 987 53 L 988 52 L 988 49 L 986 47 L 983 47 L 981 49 "></path>
        <path fill="none" stroke="#fa00fa" stroke-width="3" d="M 49 47 L 47 49 L 47 51 L 48 52 L 48 53 L 49 53 L 50 54 L 51 54 L 52 53 L 53 53 L 54 52 L 54 49 L 52 47 L 49 47 L 47 49 "></path>
        <path fill="none" stroke="#fa00fa" stroke-width="3" d="M 50 761 L 49 762 L 48 762 L 47 763 L 47 766 L 49 768 L 52 768 L 54 766 L 54 764 L 53 763 L 53 762 L 52 762 L 51 761 L 50 761 L 49 762 "></path>
        <path fill="none" stroke="#fa00fa" stroke-width="3" d="M 345 536 L 344 537 L 344 538 L 347 541 L 347 542 L 348 543 L 348 548 L 348 547 L 349 546 L 349 544 L 350 543 L 350 538 L 349 537 L 349 536 L 345 536 L 344 537 "></path>
        <path fill="none" stroke="#fa00fa" stroke-width="3" d="M 646 590 L 645 591 L 645 594 L 646 595 L 646 596 L 647 597 L 650 594 L 651 594 L 652 593 L 653 593 L 654 592 L 651 592 L 650 591 L 648 591 L 647 590 L 646 590 L 645 591 "></path>
        <path fill="none" stroke="#fa00fa" stroke-width="3" d="M 403 216 L 402 217 L 402 218 L 398 222 L 397 222 L 396 223 L 398 223 L 402 219 L 402 218 L 403 217 L 403 216 L 402 217 "></path>
    </g>
</svg>
