<svg xmlns="http://www.w3.org/2000/svg" xmlns:xlink="http://www.w3.org/1999/xlink" version="1.1" x="0" y="0" width="1056px" height="816px">
    <g id="rootLayer" transform="translate(0.000000, 0.000000)">
        <path fill="none" stroke="#fa00fa" stroke-width="3" d="M 266 741 L 265 742 L 262 742 L 261 743 L 259 743 L 258 744 L 257 744 L 256 745 L 255 745 L 253 747 L 252 747 L 250 749 L 249 749 L 247 751 L 247 752 L 245 754 L 245 763 L 249 767 L 250 767 L 251 768 L 251 769 L 256 774 L 256 775 L 258 777 L 258 778 L 259 779 L 259 780 L 260 781 L 260 783 L 262 785 L 262 786 L 266 790 L 266 792 L 267 793 L 267 803 L 268 804 L 265 807 L 207 807 L 206 806 L 201 806 L 200 807 L 196 807 L 195 806 L 190 806 L 189 807 L 174 807 L 173 806 L 171 806 L 170 805 L 170 804 L 173 801 L 173 800 L 174 799 L 174 797 L 175 796 L 175 795 L 177 793 L 184 793 L 186 795 L 186 796 L 187 797 L 187 799 L 188 800 L 188 801 L 190 803 L 193 803 L 194 802 L 195 802 L 197 800 L 197 799 L 198 798 L 198 796 L 199 795 L 199 794 L 198 793 L 198 791 L 197 790 L 197 789 L 193 785 L 192 785 L 191 784 L 189 784 L 188 783 L 174 783 L 173 784 L 171 784 L 170 785 L 169 785 L 168 786 L 167 786 L 163 790 L 163 792 L 162 793 L 162 796 L 163 797 L 163 798 L 164 799 L 164 800 L 167 803 L 168 803 L 169 804 L 169 805 L 168 806 L 167 806 L 166 807 L 161 807 L 160 806 L 159 806 L 154 801 L 152 801 L 151 800 L 150 801 L 148 801 L 143 806 L 134 806 L 133 805 L 120 805 L 119 804 L 109 804 L 108 805 L 105 805 L 104 806 L 103 806 L 102 807 L 101 807 L 97 811 L 97 814 L 440 814 L 440 811 L 439 810 L 439 809 L 437 807 L 436 807 L 435 806 L 434 806 L 433 805 L 431 805 L 430 804 L 419 804 L 418 803 L 411 803 L 410 804 L 409 804 L 408 805 L 407 805 L 406 806 L 397 806 L 396 805 L 393 805 L 392 804 L 391 805 L 389 805 L 388 806 L 386 806 L 385 807 L 379 807 L 377 805 L 377 803 L 381 799 L 382 799 L 384 797 L 384 796 L 385 795 L 385 794 L 386 793 L 386 791 L 385 790 L 385 788 L 384 787 L 384 786 L 379 781 L 378 781 L 377 780 L 375 780 L 374 779 L 372 779 L 371 778 L 363 778 L 362 777 L 359 777 L 358 778 L 350 778 L 349 779 L 347 779 L 346 780 L 344 780 L 343 781 L 342 781 L 337 786 L 337 787 L 336 788 L 336 789 L 335 790 L 335 793 L 336 794 L 336 796 L 344 804 L 344 805 L 343 806 L 342 806 L 341 807 L 322 807 L 321 806 L 320 806 L 319 805 L 319 803 L 322 800 L 323 800 L 325 798 L 326 798 L 327 797 L 327 796 L 328 795 L 328 794 L 329 793 L 329 790 L 328 789 L 328 787 L 327 786 L 327 785 L 323 781 L 322 781 L 321 780 L 320 780 L 319 779 L 318 779 L 317 778 L 316 778 L 315 777 L 313 777 L 312 776 L 303 776 L 302 777 L 301 777 L 298 780 L 298 781 L 288 791 L 287 791 L 283 795 L 283 800 L 284 801 L 284 802 L 285 803 L 286 803 L 288 805 L 287 806 L 285 806 L 284 807 L 277 807 L 275 805 L 275 801 L 276 800 L 276 791 L 277 790 L 277 789 L 278 788 L 279 788 L 281 786 L 282 786 L 287 781 L 288 781 L 291 778 L 292 778 L 293 777 L 294 777 L 296 775 L 297 775 L 299 773 L 299 772 L 300 771 L 300 763 L 299 762 L 299 760 L 298 759 L 298 758 L 296 756 L 296 755 L 295 754 L 295 753 L 288 746 L 287 746 L 286 745 L 285 745 L 284 744 L 283 744 L 282 743 L 281 743 L 280 742 L 277 742 L 276 741 L 266 741 L 265 742 "></path>
        <path fill="none" stroke="#fa00fa" stroke-width="3" d="M 1052 348 L 1051 349 L 1050 349 L 1047 352 L 1047 353 L 1046 354 L 1046 356 L 1045 357 L 1045 361 L 1044 362 L 1044 366 L 1045 367 L 1045 370 L 1046 371 L 1046 374 L 1047 375 L 1047 380 L 1045 382 L 1043 382 L 1038 377 L 1038 376 L 1037 376 L 1035 374 L 1029 374 L 1028 375 L 1026 375 L 1025 376 L 1024 376 L 1023 377 L 1022 377 L 1020 379 L 1019 379 L 1012 386 L 1012 387 L 1011 388 L 1011 389 L 1010 390 L 1010 391 L 1009 392 L 1009 393 L 1008 394 L 1008 397 L 1007 398 L 1007 409 L 1008 410 L 1008 413 L 1009 414 L 1009 416 L 1010 417 L 1010 418 L 1011 419 L 1011 420 L 1012 421 L 1012 422 L 1020 430 L 1021 430 L 1024 433 L 1025 433 L 1026 434 L 1027 434 L 1028 435 L 1035 435 L 1044 426 L 1047 429 L 1047 434 L 1046 435 L 1046 437 L 1045 438 L 1045 440 L 1044 441 L 1044 449 L 1045 450 L 1045 453 L 1046 454 L 1046 456 L 1047 457 L 1047 462 L 1046 463 L 1046 464 L 1045 465 L 1045 468 L 1044 469 L 1044 479 L 1045 480 L 1045 489 L 1044 490 L 1044 496 L 1045 497 L 1045 499 L 1046 500 L 1046 502 L 1047 503 L 1047 510 L 1046 511 L 1046 512 L 1045 513 L 1039 513 L 1038 512 L 1037 512 L 1036 511 L 1036 510 L 1035 509 L 1035 508 L 1036 507 L 1036 498 L 1032 494 L 1030 494 L 1029 493 L 1023 493 L 1022 494 L 1019 494 L 1018 495 L 1017 495 L 1016 496 L 1014 496 L 1013 497 L 1011 497 L 1010 498 L 1009 498 L 1008 499 L 1006 499 L 1005 500 L 1004 500 L 1003 501 L 1002 501 L 1001 502 L 1000 502 L 998 504 L 997 504 L 991 510 L 991 511 L 990 512 L 990 513 L 989 514 L 989 515 L 988 516 L 988 518 L 987 519 L 987 522 L 986 523 L 986 530 L 987 531 L 987 535 L 988 536 L 988 537 L 989 538 L 989 540 L 991 542 L 991 543 L 993 545 L 993 546 L 995 548 L 996 548 L 999 551 L 1000 551 L 1001 552 L 1002 552 L 1003 553 L 1004 553 L 1005 554 L 1006 554 L 1007 555 L 1008 555 L 1009 556 L 1010 556 L 1011 557 L 1012 557 L 1013 558 L 1020 558 L 1021 557 L 1022 557 L 1023 556 L 1026 556 L 1027 557 L 1028 557 L 1031 560 L 1036 560 L 1037 559 L 1038 559 L 1039 558 L 1039 557 L 1040 556 L 1040 554 L 1041 553 L 1041 552 L 1040 551 L 1040 538 L 1039 537 L 1039 535 L 1032 528 L 1032 527 L 1033 526 L 1033 525 L 1036 522 L 1038 522 L 1039 521 L 1045 521 L 1046 522 L 1046 523 L 1047 524 L 1047 557 L 1046 558 L 1046 560 L 1045 561 L 1045 562 L 1044 563 L 1044 564 L 1043 565 L 1043 572 L 1044 573 L 1044 582 L 1045 583 L 1045 586 L 1046 587 L 1046 589 L 1047 590 L 1047 591 L 1050 594 L 1054 594 L 1054 348 L 1052 348 L 1051 349 "></path>
        <path fill="none" stroke="#fa00fa" stroke-width="3" d="M 18 454 L 17 455 L 15 455 L 13 457 L 12 457 L 11 458 L 9 458 L 8 457 L 7 457 L 5 455 L 1 455 L 1 684 L 4 684 L 8 680 L 8 679 L 9 678 L 9 675 L 10 674 L 10 666 L 11 665 L 11 660 L 10 659 L 10 650 L 9 649 L 9 637 L 10 636 L 10 630 L 9 629 L 9 626 L 8 625 L 8 619 L 11 616 L 16 621 L 16 622 L 20 626 L 22 626 L 23 627 L 25 627 L 26 626 L 28 626 L 29 625 L 30 625 L 34 621 L 34 620 L 35 619 L 35 618 L 36 617 L 36 616 L 37 615 L 37 612 L 38 611 L 38 586 L 37 585 L 37 583 L 36 582 L 36 581 L 33 578 L 32 578 L 30 576 L 29 576 L 26 573 L 27 572 L 28 572 L 29 571 L 31 571 L 32 570 L 34 570 L 35 569 L 36 569 L 38 567 L 39 567 L 43 563 L 43 562 L 44 561 L 44 560 L 45 559 L 45 552 L 44 551 L 44 550 L 43 549 L 43 548 L 40 545 L 40 544 L 38 542 L 38 541 L 36 539 L 36 538 L 34 536 L 34 535 L 32 533 L 32 532 L 31 531 L 31 530 L 29 528 L 29 527 L 28 526 L 28 525 L 27 524 L 27 521 L 26 520 L 26 519 L 25 518 L 25 517 L 24 516 L 23 516 L 22 515 L 20 515 L 19 516 L 18 516 L 17 517 L 16 517 L 11 522 L 10 522 L 9 521 L 9 520 L 8 519 L 8 508 L 9 507 L 9 506 L 10 505 L 11 505 L 12 506 L 13 506 L 14 507 L 15 507 L 17 509 L 18 509 L 19 510 L 24 510 L 25 509 L 26 509 L 28 507 L 29 507 L 32 504 L 32 503 L 34 501 L 35 501 L 38 498 L 39 498 L 41 496 L 42 496 L 43 495 L 44 495 L 45 494 L 46 494 L 47 493 L 48 493 L 49 492 L 50 492 L 51 491 L 52 491 L 53 490 L 53 489 L 54 488 L 54 487 L 55 486 L 55 478 L 54 477 L 54 475 L 53 474 L 53 472 L 52 471 L 52 470 L 51 469 L 51 468 L 48 465 L 48 464 L 44 460 L 43 460 L 41 458 L 40 458 L 39 457 L 38 457 L 37 456 L 36 456 L 35 455 L 32 455 L 31 454 L 18 454 L 17 455 "></path>
        <path fill="none" stroke="#fa00fa" stroke-width="3" d="M 175 103 L 174 104 L 170 104 L 169 105 L 167 105 L 166 106 L 165 106 L 164 107 L 163 107 L 162 108 L 161 108 L 160 109 L 159 109 L 153 115 L 153 116 L 151 118 L 151 119 L 150 120 L 150 121 L 149 122 L 149 124 L 148 125 L 148 129 L 147 130 L 147 137 L 148 138 L 148 142 L 149 143 L 149 145 L 150 146 L 150 147 L 151 148 L 151 149 L 153 151 L 153 152 L 160 159 L 161 159 L 162 160 L 163 160 L 164 161 L 165 161 L 166 162 L 167 162 L 168 163 L 171 163 L 172 164 L 176 164 L 177 165 L 187 165 L 188 164 L 189 164 L 191 162 L 191 161 L 192 160 L 192 159 L 195 156 L 197 156 L 198 155 L 200 155 L 203 158 L 202 159 L 202 160 L 201 161 L 201 162 L 200 163 L 200 164 L 199 165 L 199 167 L 200 168 L 200 170 L 204 174 L 205 174 L 206 175 L 207 175 L 208 176 L 210 176 L 211 177 L 212 177 L 213 178 L 215 178 L 216 179 L 218 179 L 219 180 L 222 180 L 223 181 L 231 181 L 232 180 L 235 180 L 236 179 L 238 179 L 239 178 L 240 178 L 241 177 L 242 177 L 243 176 L 244 176 L 252 168 L 252 167 L 254 165 L 254 164 L 255 163 L 255 162 L 256 161 L 256 159 L 257 158 L 257 156 L 258 155 L 258 144 L 257 143 L 257 140 L 256 139 L 256 138 L 255 137 L 255 136 L 254 135 L 254 134 L 253 133 L 253 132 L 252 131 L 252 130 L 250 128 L 250 127 L 248 125 L 248 124 L 244 120 L 243 120 L 242 119 L 237 119 L 236 120 L 235 120 L 234 121 L 233 121 L 232 120 L 232 113 L 231 112 L 231 111 L 228 108 L 226 108 L 225 107 L 221 107 L 220 106 L 216 106 L 215 105 L 211 105 L 210 104 L 207 104 L 206 103 L 204 103 L 203 104 L 201 104 L 200 105 L 199 105 L 194 110 L 192 108 L 192 107 L 189 104 L 188 104 L 187 103 L 175 103 L 174 104 "></path>
        <path fill="none" stroke="#fa00fa" stroke-width="3" d="M 537 217 L 536 218 L 530 218 L 529 219 L 527 219 L 526 220 L 525 220 L 524 221 L 523 221 L 522 222 L 521 222 L 519 224 L 518 224 L 514 228 L 514 229 L 512 231 L 512 232 L 511 233 L 511 234 L 510 235 L 510 236 L 509 237 L 509 240 L 508 241 L 508 254 L 509 255 L 509 257 L 510 258 L 510 259 L 511 260 L 511 261 L 512 262 L 512 263 L 513 264 L 513 265 L 521 273 L 522 273 L 524 275 L 525 275 L 526 276 L 527 276 L 528 277 L 530 277 L 531 278 L 534 278 L 535 277 L 537 277 L 538 276 L 540 276 L 545 271 L 545 270 L 548 267 L 548 266 L 549 265 L 549 264 L 550 263 L 550 251 L 551 250 L 551 249 L 552 248 L 552 247 L 553 246 L 553 245 L 554 244 L 554 243 L 556 241 L 556 240 L 557 239 L 557 238 L 559 236 L 561 236 L 563 238 L 563 242 L 562 243 L 562 244 L 561 245 L 561 247 L 560 248 L 560 250 L 559 251 L 559 254 L 558 255 L 558 261 L 559 262 L 559 267 L 555 271 L 554 271 L 553 272 L 552 272 L 550 274 L 549 274 L 548 275 L 547 275 L 546 276 L 545 276 L 544 277 L 543 277 L 542 278 L 542 279 L 541 280 L 541 281 L 540 282 L 540 288 L 541 289 L 541 290 L 544 293 L 544 294 L 551 301 L 552 301 L 555 304 L 556 304 L 557 305 L 558 305 L 559 306 L 561 306 L 562 307 L 566 307 L 567 308 L 572 308 L 573 307 L 577 307 L 578 306 L 580 306 L 581 305 L 582 305 L 583 304 L 584 304 L 586 302 L 587 302 L 589 300 L 590 300 L 596 294 L 596 293 L 597 292 L 597 284 L 596 283 L 596 282 L 589 275 L 589 274 L 588 273 L 588 272 L 595 265 L 595 264 L 596 263 L 596 260 L 595 259 L 595 258 L 594 257 L 594 256 L 592 254 L 592 253 L 583 244 L 583 243 L 578 238 L 578 237 L 577 236 L 577 235 L 576 234 L 576 231 L 575 230 L 574 230 L 573 229 L 566 229 L 565 230 L 564 230 L 563 231 L 561 229 L 561 228 L 560 227 L 560 226 L 559 225 L 559 224 L 557 222 L 556 222 L 555 221 L 554 221 L 553 220 L 550 220 L 549 219 L 546 219 L 545 218 L 539 218 L 538 217 L 537 217 L 536 218 "></path>
        <path fill="none" stroke="#fa00fa" stroke-width="3" d="M 2 141 L 1 142 L 1 306 L 4 306 L 9 301 L 9 300 L 11 298 L 11 296 L 12 295 L 12 290 L 11 289 L 11 287 L 10 286 L 10 285 L 9 284 L 9 282 L 8 281 L 8 235 L 9 234 L 9 233 L 11 231 L 12 232 L 13 232 L 14 233 L 15 233 L 16 234 L 17 234 L 20 237 L 20 240 L 18 242 L 18 243 L 17 244 L 17 250 L 16 251 L 16 253 L 14 255 L 14 257 L 13 258 L 13 259 L 14 260 L 14 265 L 15 266 L 15 280 L 16 281 L 16 282 L 19 285 L 20 285 L 21 286 L 26 286 L 27 285 L 29 285 L 30 284 L 32 284 L 33 283 L 34 283 L 35 282 L 36 282 L 38 280 L 39 280 L 46 273 L 46 272 L 48 270 L 48 269 L 49 268 L 49 267 L 50 266 L 50 265 L 51 264 L 51 262 L 52 261 L 52 259 L 53 258 L 53 244 L 52 243 L 52 241 L 51 240 L 51 239 L 49 237 L 49 236 L 46 233 L 45 233 L 44 232 L 37 232 L 36 233 L 35 233 L 34 234 L 31 234 L 29 232 L 29 230 L 28 229 L 28 228 L 25 225 L 24 225 L 23 224 L 20 224 L 19 225 L 16 225 L 15 226 L 14 226 L 13 227 L 12 227 L 11 228 L 10 228 L 9 227 L 9 226 L 8 225 L 8 218 L 11 215 L 12 215 L 13 216 L 16 216 L 17 217 L 19 217 L 20 218 L 21 218 L 22 219 L 23 219 L 24 220 L 25 220 L 26 221 L 29 221 L 30 222 L 33 222 L 34 221 L 36 221 L 37 220 L 38 220 L 44 214 L 44 213 L 45 212 L 45 211 L 46 210 L 46 209 L 47 208 L 47 206 L 48 205 L 48 202 L 49 201 L 49 193 L 48 192 L 48 189 L 47 188 L 47 186 L 46 185 L 46 184 L 45 183 L 45 182 L 43 180 L 43 179 L 38 174 L 37 174 L 35 172 L 34 172 L 32 170 L 31 170 L 29 168 L 28 168 L 27 167 L 20 167 L 15 172 L 15 173 L 13 175 L 12 175 L 11 176 L 10 176 L 9 175 L 9 174 L 8 173 L 8 169 L 9 168 L 9 166 L 10 165 L 10 164 L 11 163 L 11 161 L 12 160 L 12 156 L 11 155 L 11 152 L 10 151 L 10 149 L 9 148 L 9 146 L 5 142 L 4 142 L 3 141 L 2 141 L 1 142 "></path>
        <path fill="none" stroke="#fa00fa" stroke-width="3" d="M 676 722 L 675 723 L 672 723 L 670 725 L 669 725 L 667 727 L 667 728 L 666 729 L 666 730 L 665 731 L 665 734 L 664 735 L 664 737 L 663 738 L 663 741 L 662 742 L 662 745 L 663 746 L 663 748 L 664 749 L 664 750 L 665 751 L 665 752 L 666 753 L 665 754 L 665 755 L 664 756 L 659 756 L 658 757 L 656 757 L 655 758 L 654 758 L 653 759 L 652 759 L 649 762 L 649 763 L 646 766 L 646 768 L 645 769 L 645 776 L 646 777 L 646 779 L 647 780 L 647 781 L 649 783 L 649 784 L 657 792 L 658 792 L 659 793 L 661 793 L 662 794 L 666 794 L 667 793 L 669 793 L 670 792 L 672 792 L 673 791 L 676 791 L 678 793 L 677 794 L 677 795 L 676 796 L 676 797 L 675 798 L 675 802 L 676 803 L 676 804 L 673 807 L 663 807 L 662 806 L 661 806 L 660 805 L 660 804 L 659 803 L 659 799 L 658 798 L 658 797 L 656 795 L 649 795 L 648 796 L 647 796 L 646 797 L 646 798 L 645 799 L 645 803 L 644 804 L 644 805 L 643 806 L 642 806 L 641 807 L 637 807 L 636 806 L 632 806 L 631 805 L 627 805 L 626 804 L 614 804 L 613 805 L 610 805 L 609 806 L 608 806 L 604 810 L 604 811 L 603 812 L 603 813 L 604 814 L 771 814 L 771 811 L 770 810 L 770 809 L 769 809 L 767 807 L 766 807 L 765 806 L 763 806 L 762 805 L 756 805 L 755 804 L 738 804 L 737 805 L 734 805 L 733 806 L 725 806 L 724 807 L 723 807 L 722 806 L 719 806 L 718 805 L 717 805 L 715 803 L 714 803 L 713 802 L 710 802 L 709 803 L 708 803 L 706 805 L 705 805 L 704 806 L 698 806 L 697 807 L 689 807 L 688 806 L 687 806 L 686 805 L 686 802 L 687 801 L 687 798 L 686 797 L 686 794 L 688 792 L 689 792 L 690 793 L 695 793 L 696 792 L 697 792 L 700 789 L 700 787 L 701 786 L 701 782 L 699 780 L 699 779 L 697 777 L 697 775 L 696 774 L 696 773 L 694 771 L 694 770 L 692 768 L 692 767 L 690 765 L 690 761 L 694 757 L 694 756 L 696 754 L 696 753 L 697 752 L 697 751 L 698 750 L 698 749 L 699 748 L 699 746 L 700 745 L 700 744 L 701 743 L 701 742 L 702 741 L 702 740 L 703 739 L 703 738 L 704 737 L 704 732 L 703 731 L 703 730 L 699 726 L 698 726 L 697 725 L 695 725 L 694 724 L 692 724 L 691 723 L 686 723 L 685 722 L 676 722 L 675 723 "></path>
        <path fill="none" stroke="#fa00fa" stroke-width="3" d="M 151 529 L 150 530 L 146 530 L 145 531 L 144 531 L 141 534 L 141 535 L 139 537 L 139 538 L 138 539 L 135 536 L 134 536 L 132 534 L 131 534 L 130 533 L 124 533 L 123 534 L 120 534 L 119 535 L 116 535 L 115 536 L 114 536 L 113 537 L 111 537 L 110 538 L 109 538 L 107 540 L 106 540 L 101 545 L 101 546 L 99 548 L 99 549 L 98 550 L 98 551 L 97 552 L 97 553 L 96 554 L 96 557 L 95 558 L 95 569 L 96 570 L 96 573 L 97 574 L 97 576 L 98 577 L 98 578 L 99 579 L 99 580 L 101 582 L 101 583 L 106 588 L 107 588 L 108 589 L 116 589 L 117 588 L 119 588 L 120 587 L 122 587 L 123 586 L 126 586 L 127 585 L 131 585 L 132 584 L 137 584 L 138 583 L 139 583 L 141 581 L 141 574 L 140 573 L 140 572 L 139 571 L 139 569 L 138 568 L 138 566 L 137 565 L 137 562 L 136 561 L 136 547 L 137 546 L 137 544 L 138 543 L 139 543 L 142 546 L 142 547 L 143 548 L 143 551 L 144 552 L 144 554 L 145 555 L 145 556 L 146 557 L 146 558 L 147 559 L 147 578 L 148 579 L 148 580 L 149 581 L 149 582 L 152 585 L 153 585 L 154 586 L 159 586 L 160 587 L 164 587 L 165 586 L 169 586 L 170 585 L 173 585 L 174 584 L 176 584 L 177 583 L 178 583 L 179 582 L 180 582 L 186 576 L 186 575 L 187 574 L 187 573 L 188 572 L 188 571 L 189 570 L 189 568 L 190 567 L 190 553 L 189 552 L 189 550 L 188 549 L 188 547 L 187 546 L 187 545 L 185 543 L 185 542 L 178 535 L 177 535 L 175 533 L 174 533 L 173 532 L 171 532 L 170 531 L 168 531 L 167 530 L 162 530 L 161 529 L 151 529 L 150 530 "></path>
        <path fill="none" stroke="#fa00fa" stroke-width="3" d="M 566 560 L 565 561 L 562 561 L 561 562 L 558 562 L 557 563 L 554 563 L 553 564 L 551 564 L 550 565 L 549 565 L 548 566 L 547 566 L 545 568 L 544 568 L 541 571 L 541 572 L 539 574 L 539 577 L 538 578 L 538 582 L 539 583 L 539 586 L 540 587 L 540 590 L 541 591 L 541 598 L 542 599 L 542 604 L 543 605 L 543 606 L 546 609 L 547 609 L 548 610 L 550 610 L 551 611 L 553 611 L 554 612 L 556 612 L 557 613 L 558 613 L 559 614 L 560 614 L 561 615 L 562 615 L 563 616 L 564 616 L 566 618 L 567 618 L 569 620 L 575 620 L 576 619 L 577 619 L 578 618 L 579 618 L 580 619 L 581 619 L 586 624 L 594 624 L 595 623 L 597 623 L 598 622 L 601 622 L 602 621 L 604 621 L 605 620 L 606 620 L 607 619 L 609 619 L 610 618 L 611 618 L 613 616 L 614 616 L 621 609 L 621 608 L 623 606 L 623 605 L 624 604 L 624 602 L 625 601 L 625 595 L 624 594 L 624 592 L 623 591 L 623 590 L 619 586 L 619 585 L 616 582 L 616 581 L 614 579 L 614 578 L 613 577 L 613 576 L 612 575 L 612 574 L 611 573 L 611 572 L 610 571 L 610 570 L 608 568 L 608 567 L 605 564 L 604 564 L 603 563 L 602 563 L 601 562 L 599 562 L 598 561 L 596 561 L 595 560 L 588 560 L 587 561 L 586 561 L 582 565 L 580 565 L 576 561 L 575 561 L 574 560 L 566 560 L 565 561 "></path>
        <path fill="none" stroke="#fa00fa" stroke-width="3" d="M 175 433 L 174 434 L 172 434 L 171 435 L 170 435 L 166 439 L 166 447 L 167 448 L 167 449 L 166 450 L 165 450 L 164 449 L 163 449 L 162 448 L 156 448 L 155 449 L 154 449 L 151 452 L 151 453 L 150 454 L 150 455 L 149 456 L 149 458 L 148 459 L 148 464 L 147 465 L 147 479 L 148 480 L 148 484 L 149 485 L 149 487 L 150 488 L 150 489 L 151 490 L 151 491 L 153 493 L 153 494 L 157 498 L 158 498 L 160 500 L 161 500 L 162 501 L 163 501 L 164 502 L 166 502 L 167 503 L 170 503 L 171 504 L 176 504 L 177 505 L 191 505 L 192 504 L 195 504 L 196 503 L 197 503 L 199 501 L 200 501 L 200 500 L 202 498 L 202 491 L 201 490 L 201 489 L 199 487 L 198 487 L 196 485 L 196 484 L 195 483 L 197 481 L 204 488 L 206 488 L 207 489 L 210 489 L 211 488 L 213 488 L 216 485 L 216 484 L 217 483 L 217 482 L 218 481 L 218 479 L 219 478 L 219 465 L 218 464 L 218 461 L 217 460 L 217 458 L 216 457 L 216 455 L 215 454 L 215 452 L 214 451 L 214 450 L 213 449 L 213 448 L 212 447 L 212 446 L 211 445 L 211 444 L 209 442 L 209 441 L 208 440 L 207 440 L 204 437 L 203 437 L 202 436 L 200 436 L 199 435 L 197 435 L 196 434 L 192 434 L 191 433 L 175 433 L 174 434 "></path>
        <path fill="none" stroke="#fa00fa" stroke-width="3" d="M 824 388 L 823 389 L 822 389 L 820 391 L 819 391 L 819 392 L 818 393 L 818 394 L 817 395 L 817 396 L 816 397 L 816 400 L 815 401 L 815 404 L 816 405 L 816 407 L 818 409 L 818 410 L 820 412 L 821 412 L 823 414 L 824 414 L 825 415 L 826 415 L 827 416 L 829 416 L 830 417 L 831 417 L 832 418 L 833 418 L 834 419 L 835 419 L 848 432 L 848 433 L 849 434 L 847 436 L 845 436 L 844 435 L 843 435 L 842 434 L 841 434 L 840 433 L 839 433 L 838 432 L 836 432 L 835 431 L 834 431 L 833 430 L 832 430 L 827 425 L 826 425 L 821 420 L 821 419 L 818 416 L 813 416 L 810 419 L 810 420 L 809 421 L 809 423 L 808 424 L 808 425 L 806 427 L 806 428 L 804 430 L 804 431 L 802 433 L 802 434 L 795 441 L 795 442 L 794 443 L 794 451 L 795 452 L 795 453 L 796 454 L 796 455 L 805 464 L 806 464 L 807 465 L 808 465 L 809 466 L 810 466 L 811 467 L 813 467 L 814 468 L 817 468 L 818 469 L 825 469 L 826 468 L 830 468 L 831 467 L 833 467 L 834 466 L 835 466 L 836 465 L 837 465 L 838 464 L 839 464 L 851 452 L 851 451 L 852 450 L 852 449 L 853 448 L 853 442 L 852 441 L 852 438 L 853 437 L 858 437 L 859 436 L 861 436 L 865 432 L 865 431 L 866 430 L 866 429 L 867 428 L 867 427 L 868 426 L 868 425 L 869 424 L 869 423 L 870 422 L 870 420 L 871 419 L 871 416 L 872 415 L 872 405 L 871 404 L 871 400 L 870 399 L 870 398 L 869 397 L 869 396 L 868 395 L 868 394 L 866 392 L 865 392 L 864 391 L 863 391 L 862 390 L 854 390 L 853 391 L 844 391 L 843 390 L 838 390 L 837 389 L 833 389 L 832 388 L 824 388 L 823 389 "></path>
        <path fill="none" stroke="#fa00fa" stroke-width="3" d="M 636 491 L 635 492 L 633 492 L 632 493 L 630 493 L 629 494 L 628 494 L 626 496 L 625 496 L 619 502 L 619 503 L 617 505 L 617 506 L 616 507 L 616 509 L 615 510 L 615 512 L 614 513 L 614 516 L 613 517 L 613 532 L 614 533 L 614 534 L 615 535 L 615 536 L 617 538 L 618 538 L 619 539 L 620 539 L 621 540 L 625 540 L 626 539 L 645 539 L 646 538 L 647 538 L 649 536 L 649 535 L 650 534 L 650 533 L 651 532 L 651 529 L 652 528 L 652 527 L 653 526 L 653 525 L 654 524 L 654 523 L 656 521 L 656 520 L 659 517 L 659 516 L 661 514 L 661 513 L 662 512 L 663 512 L 664 511 L 665 511 L 667 513 L 667 515 L 666 516 L 666 518 L 665 519 L 665 520 L 664 521 L 664 523 L 663 524 L 663 525 L 662 526 L 662 527 L 661 528 L 661 529 L 660 530 L 660 531 L 659 532 L 659 533 L 657 535 L 657 536 L 656 537 L 656 538 L 655 539 L 655 542 L 656 543 L 656 545 L 667 556 L 667 557 L 669 559 L 669 560 L 673 564 L 675 564 L 676 565 L 680 565 L 681 564 L 682 564 L 683 563 L 684 563 L 687 560 L 688 560 L 692 556 L 692 555 L 695 552 L 695 551 L 696 550 L 696 549 L 697 548 L 697 547 L 698 546 L 698 544 L 699 543 L 699 539 L 700 538 L 700 533 L 699 532 L 699 527 L 698 526 L 698 524 L 697 523 L 697 522 L 696 521 L 696 520 L 694 518 L 694 517 L 684 507 L 683 507 L 681 505 L 680 505 L 679 504 L 674 504 L 673 505 L 671 505 L 670 506 L 669 506 L 668 505 L 668 504 L 667 503 L 667 501 L 666 500 L 666 499 L 665 498 L 665 497 L 664 497 L 662 495 L 661 495 L 660 494 L 657 494 L 656 493 L 653 493 L 652 492 L 649 492 L 648 491 L 636 491 L 635 492 "></path>
        <path fill="none" stroke="#fa00fa" stroke-width="3" d="M 723 147 L 722 148 L 719 148 L 718 149 L 716 149 L 715 150 L 714 150 L 713 151 L 712 151 L 710 153 L 709 153 L 700 162 L 700 163 L 699 164 L 699 165 L 697 167 L 697 169 L 696 170 L 696 172 L 695 173 L 695 179 L 694 180 L 695 181 L 695 187 L 696 188 L 696 190 L 697 191 L 697 193 L 698 194 L 698 195 L 700 197 L 700 198 L 706 204 L 707 204 L 709 206 L 710 206 L 711 207 L 713 207 L 714 208 L 716 208 L 717 209 L 728 209 L 729 208 L 732 208 L 733 207 L 734 207 L 735 206 L 736 206 L 738 204 L 739 204 L 741 202 L 742 202 L 747 197 L 748 197 L 751 194 L 751 193 L 753 191 L 753 190 L 755 188 L 755 186 L 756 185 L 756 183 L 757 182 L 757 170 L 756 169 L 756 166 L 755 165 L 755 164 L 754 163 L 754 162 L 753 161 L 753 160 L 745 152 L 744 152 L 742 150 L 741 150 L 740 149 L 738 149 L 737 148 L 734 148 L 733 147 L 723 147 L 722 148 "></path>
        <path fill="none" stroke="#fa00fa" stroke-width="3" d="M 821 74 L 820 75 L 818 75 L 817 76 L 815 76 L 814 77 L 813 77 L 811 79 L 810 79 L 803 86 L 803 87 L 802 88 L 802 89 L 801 90 L 801 91 L 800 92 L 800 93 L 799 94 L 799 96 L 798 97 L 798 102 L 797 103 L 797 107 L 798 108 L 798 113 L 799 114 L 799 116 L 800 117 L 800 119 L 801 120 L 801 121 L 803 123 L 803 124 L 809 130 L 810 130 L 812 132 L 813 132 L 814 133 L 815 133 L 816 134 L 818 134 L 819 135 L 823 135 L 824 136 L 830 136 L 831 135 L 835 135 L 836 134 L 838 134 L 839 133 L 840 133 L 841 132 L 842 132 L 843 131 L 844 131 L 847 128 L 848 128 L 850 126 L 850 125 L 853 122 L 853 121 L 854 120 L 854 119 L 855 118 L 855 117 L 856 116 L 856 115 L 857 114 L 857 111 L 858 110 L 858 98 L 857 97 L 857 94 L 856 93 L 856 91 L 855 90 L 855 89 L 853 87 L 853 86 L 846 79 L 845 79 L 843 77 L 842 77 L 841 76 L 839 76 L 838 75 L 836 75 L 835 74 L 821 74 L 820 75 "></path>
        <path fill="none" stroke="#fa00fa" stroke-width="3" d="M 268 610 L 267 611 L 263 611 L 262 612 L 260 612 L 259 613 L 258 613 L 257 614 L 256 614 L 254 616 L 253 616 L 247 622 L 247 623 L 246 624 L 246 625 L 245 626 L 245 627 L 244 628 L 244 630 L 243 631 L 243 635 L 242 636 L 242 647 L 243 648 L 243 652 L 244 653 L 244 655 L 245 656 L 245 657 L 246 658 L 246 659 L 247 660 L 247 661 L 254 668 L 255 668 L 257 670 L 258 670 L 259 671 L 261 671 L 262 672 L 265 672 L 266 673 L 276 673 L 277 672 L 280 672 L 281 671 L 283 671 L 284 670 L 285 670 L 286 669 L 287 669 L 288 668 L 289 668 L 296 661 L 296 660 L 297 659 L 297 658 L 298 657 L 298 656 L 299 655 L 299 653 L 300 652 L 300 649 L 301 648 L 301 635 L 300 634 L 300 632 L 299 631 L 299 629 L 298 628 L 298 627 L 297 626 L 297 625 L 295 623 L 295 622 L 289 616 L 288 616 L 286 614 L 285 614 L 284 613 L 283 613 L 282 612 L 280 612 L 279 611 L 276 611 L 275 610 L 268 610 L 267 611 "></path>
        <path fill="none" stroke="#fa00fa" stroke-width="3" d="M 615 626 L 614 627 L 611 627 L 610 628 L 609 628 L 608 629 L 606 629 L 605 630 L 604 630 L 602 632 L 601 632 L 594 639 L 594 640 L 593 641 L 593 642 L 592 643 L 592 644 L 591 645 L 591 648 L 590 649 L 590 663 L 591 664 L 591 666 L 592 667 L 592 668 L 593 669 L 593 670 L 594 671 L 594 672 L 596 674 L 596 675 L 600 679 L 601 679 L 604 682 L 605 682 L 606 683 L 607 683 L 608 684 L 610 684 L 611 685 L 614 685 L 615 686 L 626 686 L 627 685 L 630 685 L 631 684 L 632 684 L 633 683 L 635 683 L 637 681 L 638 681 L 640 679 L 641 679 L 644 676 L 644 675 L 647 672 L 647 671 L 648 670 L 648 669 L 649 668 L 649 666 L 650 665 L 650 663 L 651 662 L 651 648 L 650 647 L 650 645 L 649 644 L 649 642 L 648 641 L 648 640 L 646 638 L 646 637 L 640 631 L 639 631 L 637 629 L 636 629 L 635 628 L 633 628 L 632 627 L 630 627 L 629 626 L 615 626 L 614 627 "></path>
        <path fill="none" stroke="#fa00fa" stroke-width="3" d="M 525 676 L 524 677 L 522 677 L 521 678 L 520 678 L 519 679 L 518 679 L 516 681 L 515 681 L 509 687 L 509 688 L 507 690 L 507 691 L 506 692 L 506 693 L 505 694 L 505 696 L 504 697 L 504 700 L 503 701 L 503 713 L 504 714 L 504 716 L 505 717 L 505 719 L 506 720 L 506 721 L 507 722 L 507 723 L 510 726 L 510 727 L 513 730 L 514 730 L 516 732 L 517 732 L 519 734 L 521 734 L 522 735 L 523 735 L 524 736 L 528 736 L 529 737 L 536 737 L 537 736 L 541 736 L 542 735 L 544 735 L 545 734 L 546 734 L 547 733 L 548 733 L 550 731 L 551 731 L 558 724 L 558 723 L 559 722 L 559 721 L 560 720 L 560 719 L 561 718 L 561 717 L 562 716 L 562 714 L 563 713 L 563 706 L 564 705 L 563 704 L 563 697 L 562 696 L 562 694 L 561 693 L 561 692 L 560 691 L 560 690 L 559 689 L 559 688 L 552 681 L 551 681 L 550 680 L 549 680 L 548 679 L 547 679 L 546 678 L 544 678 L 543 677 L 539 677 L 538 676 L 525 676 L 524 677 "></path>
        <path fill="none" stroke="#fa00fa" stroke-width="3" d="M 258 482 L 257 483 L 254 483 L 253 484 L 252 484 L 251 485 L 250 485 L 249 486 L 248 486 L 246 488 L 245 488 L 241 492 L 241 493 L 239 495 L 239 496 L 238 497 L 238 498 L 237 499 L 237 500 L 236 501 L 236 504 L 235 505 L 235 517 L 236 518 L 236 521 L 237 522 L 237 523 L 238 524 L 238 525 L 239 526 L 239 527 L 241 529 L 241 530 L 245 534 L 246 534 L 248 536 L 249 536 L 251 538 L 252 538 L 253 539 L 255 539 L 256 540 L 258 540 L 259 541 L 261 541 L 262 542 L 274 542 L 275 541 L 278 541 L 279 540 L 280 540 L 281 539 L 282 539 L 283 538 L 284 538 L 292 530 L 292 529 L 293 528 L 293 527 L 294 526 L 294 525 L 295 524 L 295 522 L 296 521 L 296 518 L 297 517 L 297 510 L 296 509 L 296 505 L 295 504 L 295 503 L 294 502 L 294 500 L 292 498 L 292 497 L 290 495 L 290 494 L 286 490 L 285 490 L 283 488 L 282 488 L 280 486 L 279 486 L 278 485 L 277 485 L 276 484 L 274 484 L 273 483 L 270 483 L 269 482 L 258 482 L 257 483 "></path>
        <path fill="none" stroke="#fa00fa" stroke-width="3" d="M 42 66 L 41 67 L 38 67 L 37 68 L 35 68 L 34 69 L 33 69 L 32 70 L 31 70 L 28 73 L 27 73 L 26 74 L 26 75 L 23 78 L 23 79 L 21 81 L 21 83 L 20 84 L 20 86 L 19 87 L 19 100 L 20 101 L 20 104 L 21 105 L 21 107 L 22 108 L 22 109 L 23 110 L 23 111 L 24 112 L 24 113 L 25 114 L 25 115 L 27 117 L 27 118 L 32 123 L 33 123 L 35 125 L 36 125 L 37 126 L 39 126 L 40 127 L 42 127 L 43 128 L 55 128 L 56 127 L 58 127 L 59 126 L 61 126 L 62 125 L 63 125 L 64 124 L 65 124 L 67 122 L 68 122 L 74 116 L 74 115 L 76 113 L 76 112 L 78 110 L 78 108 L 79 107 L 79 105 L 80 104 L 80 96 L 79 95 L 79 93 L 78 92 L 78 91 L 77 90 L 77 89 L 75 87 L 75 86 L 74 85 L 74 84 L 72 82 L 72 81 L 71 80 L 71 79 L 70 78 L 70 77 L 64 71 L 63 71 L 62 70 L 61 70 L 60 69 L 58 69 L 57 68 L 55 68 L 54 67 L 50 67 L 49 66 L 42 66 L 41 67 "></path>
        <path fill="none" stroke="#fa00fa" stroke-width="3" d="M 798 497 L 797 498 L 794 498 L 793 499 L 791 499 L 790 500 L 789 500 L 788 501 L 787 501 L 786 502 L 785 502 L 782 505 L 781 505 L 779 507 L 779 508 L 776 511 L 776 512 L 775 513 L 775 514 L 774 515 L 774 517 L 773 518 L 773 521 L 772 522 L 772 533 L 773 534 L 773 537 L 774 538 L 774 540 L 775 541 L 775 542 L 776 543 L 776 544 L 777 545 L 777 546 L 786 555 L 787 555 L 788 556 L 789 556 L 790 557 L 791 557 L 792 558 L 794 558 L 795 559 L 798 559 L 799 560 L 807 560 L 808 559 L 811 559 L 812 558 L 814 558 L 815 557 L 816 557 L 817 556 L 818 556 L 819 555 L 820 555 L 825 550 L 825 549 L 827 547 L 827 546 L 828 545 L 828 542 L 829 541 L 829 533 L 830 532 L 830 518 L 829 517 L 829 515 L 828 514 L 828 513 L 827 512 L 827 511 L 825 509 L 825 508 L 820 503 L 819 503 L 817 501 L 816 501 L 815 500 L 814 500 L 813 499 L 811 499 L 810 498 L 806 498 L 805 497 L 798 497 L 797 498 "></path>
        <path fill="none" stroke="#fa00fa" stroke-width="3" d="M 386 278 L 385 279 L 383 279 L 382 280 L 380 280 L 379 281 L 378 281 L 377 282 L 376 282 L 374 284 L 373 284 L 366 291 L 366 292 L 365 293 L 365 294 L 364 295 L 364 296 L 363 297 L 363 299 L 362 300 L 362 303 L 361 304 L 361 312 L 362 313 L 362 316 L 363 317 L 363 319 L 364 320 L 364 321 L 365 322 L 365 323 L 366 324 L 366 325 L 373 332 L 374 332 L 376 334 L 377 334 L 378 335 L 380 335 L 381 336 L 383 336 L 384 337 L 390 337 L 391 338 L 392 338 L 393 337 L 399 337 L 400 336 L 403 336 L 404 335 L 405 335 L 406 334 L 407 334 L 408 333 L 409 333 L 411 331 L 412 331 L 416 327 L 416 326 L 418 324 L 418 323 L 420 321 L 420 319 L 421 318 L 421 317 L 422 316 L 422 312 L 423 311 L 423 304 L 422 303 L 422 299 L 421 298 L 421 296 L 420 295 L 420 294 L 419 293 L 419 292 L 417 290 L 417 289 L 411 283 L 410 283 L 408 281 L 407 281 L 406 280 L 404 280 L 403 279 L 401 279 L 400 278 L 386 278 L 385 279 "></path>
        <path fill="none" stroke="#fa00fa" stroke-width="3" d="M 102 34 L 101 35 L 97 35 L 96 36 L 94 36 L 93 37 L 92 37 L 91 38 L 90 38 L 88 40 L 87 40 L 83 44 L 83 45 L 80 48 L 80 49 L 79 50 L 79 51 L 78 52 L 78 53 L 77 54 L 77 55 L 76 56 L 76 58 L 75 59 L 75 61 L 74 62 L 74 70 L 75 71 L 75 73 L 76 74 L 76 75 L 77 76 L 77 77 L 79 79 L 79 80 L 80 81 L 80 82 L 81 83 L 81 84 L 82 85 L 82 86 L 84 88 L 84 89 L 86 91 L 86 92 L 87 93 L 88 93 L 90 95 L 91 95 L 92 96 L 93 96 L 94 97 L 98 97 L 99 98 L 105 98 L 106 97 L 110 97 L 111 96 L 112 96 L 113 95 L 114 95 L 115 94 L 116 94 L 117 93 L 118 93 L 124 87 L 124 86 L 127 83 L 127 82 L 128 81 L 128 80 L 129 79 L 129 78 L 130 77 L 130 76 L 131 75 L 131 74 L 132 73 L 132 71 L 133 70 L 133 67 L 134 66 L 134 59 L 133 58 L 133 55 L 132 54 L 132 52 L 131 51 L 131 50 L 130 49 L 130 48 L 128 46 L 128 45 L 124 41 L 123 41 L 121 39 L 120 39 L 118 37 L 116 37 L 115 36 L 113 36 L 112 35 L 109 35 L 108 34 L 102 34 L 101 35 "></path>
        <path fill="none" stroke="#fa00fa" stroke-width="3" d="M 615 316 L 614 317 L 612 317 L 611 318 L 609 318 L 608 319 L 607 319 L 605 321 L 604 321 L 597 328 L 597 329 L 596 330 L 596 331 L 595 332 L 595 333 L 594 334 L 594 336 L 593 337 L 593 340 L 592 341 L 592 350 L 593 351 L 593 354 L 594 355 L 594 357 L 595 358 L 595 359 L 596 360 L 596 361 L 598 363 L 598 364 L 603 369 L 604 369 L 606 371 L 607 371 L 608 372 L 609 372 L 610 373 L 611 373 L 612 374 L 614 374 L 615 375 L 630 375 L 631 374 L 633 374 L 634 373 L 636 373 L 637 372 L 638 372 L 640 370 L 641 370 L 648 363 L 648 362 L 649 361 L 649 360 L 650 359 L 650 358 L 651 357 L 651 356 L 652 355 L 652 352 L 653 351 L 653 341 L 652 340 L 652 337 L 651 336 L 651 334 L 650 333 L 650 332 L 649 331 L 649 330 L 647 328 L 647 327 L 641 321 L 640 321 L 639 320 L 638 320 L 637 319 L 636 319 L 635 318 L 634 318 L 633 317 L 631 317 L 630 316 L 615 316 L 614 317 "></path>
        <path fill="none" stroke="#fa00fa" stroke-width="3" d="M 239 546 L 238 547 L 235 547 L 234 548 L 232 548 L 231 549 L 230 549 L 229 550 L 228 550 L 227 551 L 226 551 L 220 557 L 220 558 L 218 560 L 218 561 L 217 562 L 217 563 L 216 564 L 216 566 L 215 567 L 215 570 L 214 571 L 214 581 L 215 582 L 215 585 L 216 586 L 216 588 L 217 589 L 217 590 L 218 591 L 218 592 L 219 593 L 219 594 L 223 598 L 223 599 L 224 599 L 228 603 L 229 603 L 230 604 L 231 604 L 232 605 L 234 605 L 235 606 L 237 606 L 238 607 L 250 607 L 251 606 L 253 606 L 254 605 L 256 605 L 257 604 L 258 604 L 259 603 L 260 603 L 262 601 L 263 601 L 268 596 L 268 595 L 270 593 L 270 592 L 271 591 L 271 590 L 272 589 L 272 587 L 273 586 L 273 583 L 274 582 L 274 573 L 273 572 L 273 569 L 272 568 L 272 566 L 271 565 L 271 564 L 270 563 L 270 562 L 269 561 L 269 560 L 266 557 L 266 556 L 264 554 L 263 554 L 260 551 L 259 551 L 258 550 L 257 550 L 256 549 L 254 549 L 253 548 L 251 548 L 250 547 L 247 547 L 246 546 L 239 546 L 238 547 "></path>
        <path fill="none" stroke="#fa00fa" stroke-width="3" d="M 1018 641 L 1017 642 L 1014 642 L 1013 643 L 1011 643 L 1010 644 L 1009 644 L 1008 645 L 1007 645 L 1005 647 L 1004 647 L 998 653 L 998 654 L 996 656 L 996 657 L 995 658 L 995 660 L 994 661 L 994 663 L 993 664 L 993 678 L 994 679 L 994 681 L 995 682 L 995 683 L 996 684 L 996 685 L 997 686 L 997 687 L 1000 690 L 1000 691 L 1002 693 L 1003 693 L 1006 696 L 1007 696 L 1008 697 L 1009 697 L 1010 698 L 1012 698 L 1013 699 L 1015 699 L 1016 700 L 1029 700 L 1030 699 L 1033 699 L 1034 698 L 1035 698 L 1036 697 L 1037 697 L 1038 696 L 1039 696 L 1040 695 L 1041 695 L 1047 689 L 1047 688 L 1048 687 L 1048 686 L 1050 684 L 1050 683 L 1052 681 L 1052 680 L 1054 678 L 1054 661 L 1049 656 L 1049 655 L 1048 654 L 1048 653 L 1045 650 L 1045 649 L 1043 647 L 1042 647 L 1040 645 L 1039 645 L 1038 644 L 1037 644 L 1036 643 L 1035 643 L 1034 642 L 1031 642 L 1030 641 L 1018 641 L 1017 642 "></path>
        <path fill="none" stroke="#fa00fa" stroke-width="3" d="M 68 620 L 67 621 L 64 621 L 63 622 L 62 622 L 61 623 L 60 623 L 59 624 L 58 624 L 57 625 L 56 625 L 49 632 L 49 633 L 47 635 L 47 636 L 46 637 L 46 639 L 45 640 L 45 642 L 44 643 L 44 656 L 45 657 L 45 659 L 46 660 L 46 662 L 47 663 L 47 664 L 48 665 L 48 666 L 56 674 L 57 674 L 59 676 L 60 676 L 61 677 L 63 677 L 64 678 L 66 678 L 67 679 L 82 679 L 83 678 L 85 678 L 86 677 L 87 677 L 88 676 L 89 676 L 90 675 L 91 675 L 93 673 L 94 673 L 98 669 L 98 668 L 100 666 L 100 665 L 102 663 L 102 661 L 103 660 L 103 658 L 104 657 L 104 652 L 105 651 L 105 648 L 104 647 L 104 642 L 103 641 L 103 639 L 102 638 L 102 637 L 101 636 L 101 635 L 100 634 L 100 633 L 97 630 L 97 629 L 96 628 L 95 628 L 92 625 L 91 625 L 89 623 L 88 623 L 87 622 L 85 622 L 84 621 L 81 621 L 80 620 L 68 620 L 67 621 "></path>
        <path fill="none" stroke="#fa00fa" stroke-width="3" d="M 904 415 L 903 416 L 899 416 L 898 417 L 896 417 L 895 418 L 894 418 L 893 419 L 892 419 L 890 421 L 889 421 L 882 428 L 882 429 L 881 430 L 881 431 L 880 432 L 880 433 L 879 434 L 879 435 L 878 436 L 878 439 L 877 440 L 877 453 L 878 454 L 878 456 L 879 457 L 879 458 L 880 459 L 880 460 L 881 461 L 881 462 L 886 467 L 887 467 L 889 469 L 891 469 L 892 470 L 893 470 L 894 471 L 896 471 L 897 472 L 898 472 L 899 473 L 901 473 L 902 474 L 903 474 L 904 475 L 916 475 L 917 474 L 919 474 L 920 473 L 921 473 L 922 472 L 923 472 L 925 470 L 926 470 L 931 465 L 931 464 L 933 462 L 933 461 L 934 460 L 934 459 L 935 458 L 935 457 L 936 456 L 936 453 L 937 452 L 937 439 L 936 438 L 936 435 L 935 434 L 935 433 L 934 432 L 934 431 L 933 430 L 933 429 L 931 427 L 931 426 L 927 422 L 926 422 L 923 419 L 922 419 L 921 418 L 919 418 L 918 417 L 916 417 L 915 416 L 911 416 L 910 415 L 904 415 L 903 416 "></path>
        <path fill="none" stroke="#fa00fa" stroke-width="3" d="M 565 86 L 564 87 L 559 87 L 558 88 L 556 88 L 555 89 L 554 89 L 553 90 L 552 90 L 551 91 L 550 91 L 542 99 L 542 100 L 540 102 L 540 104 L 539 105 L 539 106 L 538 107 L 538 110 L 537 111 L 537 121 L 538 122 L 538 125 L 539 126 L 539 128 L 540 129 L 540 130 L 541 131 L 541 132 L 544 135 L 544 136 L 547 139 L 548 139 L 551 142 L 552 142 L 553 143 L 554 143 L 555 144 L 557 144 L 558 145 L 561 145 L 562 146 L 573 146 L 574 145 L 577 145 L 578 144 L 579 144 L 580 143 L 581 143 L 582 142 L 583 142 L 584 141 L 585 141 L 592 134 L 592 133 L 593 132 L 593 131 L 594 130 L 594 129 L 595 128 L 595 127 L 596 126 L 596 123 L 597 122 L 597 110 L 596 109 L 596 107 L 595 106 L 595 104 L 594 103 L 594 102 L 592 100 L 592 99 L 589 96 L 589 95 L 588 94 L 587 94 L 584 91 L 583 91 L 582 90 L 581 90 L 580 89 L 579 89 L 578 88 L 576 88 L 575 87 L 570 87 L 569 86 L 565 86 L 564 87 "></path>
        <path fill="none" stroke="#fa00fa" stroke-width="3" d="M 795 679 L 794 680 L 791 680 L 790 681 L 789 681 L 788 682 L 787 682 L 785 684 L 784 684 L 777 691 L 777 692 L 775 694 L 775 696 L 774 697 L 774 698 L 773 699 L 773 702 L 772 703 L 772 714 L 773 715 L 773 718 L 774 719 L 774 720 L 775 721 L 775 723 L 777 725 L 777 726 L 785 734 L 786 734 L 787 735 L 788 735 L 789 736 L 790 736 L 791 737 L 793 737 L 794 738 L 800 738 L 801 739 L 802 739 L 803 738 L 809 738 L 810 737 L 812 737 L 813 736 L 815 736 L 816 735 L 817 735 L 819 733 L 820 733 L 826 727 L 826 726 L 828 724 L 828 723 L 829 722 L 829 721 L 830 720 L 830 718 L 831 717 L 831 714 L 832 713 L 832 704 L 831 703 L 831 700 L 830 699 L 830 697 L 829 696 L 829 695 L 828 694 L 828 693 L 826 691 L 826 690 L 820 684 L 819 684 L 817 682 L 816 682 L 815 681 L 813 681 L 812 680 L 810 680 L 809 679 L 795 679 L 794 680 "></path>
        <path fill="none" stroke="#fa00fa" stroke-width="3" d="M 361 703 L 360 704 L 357 704 L 356 705 L 354 705 L 353 706 L 352 706 L 350 708 L 349 708 L 342 715 L 342 716 L 340 718 L 340 719 L 339 720 L 339 722 L 338 723 L 338 725 L 337 726 L 337 739 L 338 740 L 338 742 L 339 743 L 339 745 L 340 746 L 340 747 L 341 748 L 341 749 L 344 752 L 344 753 L 346 755 L 347 755 L 350 758 L 351 758 L 352 759 L 353 759 L 354 760 L 355 760 L 356 761 L 358 761 L 359 762 L 363 762 L 364 763 L 370 763 L 371 762 L 375 762 L 376 761 L 378 761 L 379 760 L 380 760 L 381 759 L 382 759 L 383 758 L 384 758 L 392 750 L 392 749 L 393 748 L 393 747 L 394 746 L 394 745 L 395 744 L 395 742 L 396 741 L 396 738 L 397 737 L 397 729 L 396 728 L 396 725 L 395 724 L 395 722 L 394 721 L 394 720 L 393 719 L 393 718 L 392 717 L 392 716 L 389 713 L 389 712 L 388 711 L 387 711 L 384 708 L 383 708 L 381 706 L 380 706 L 379 705 L 377 705 L 376 704 L 373 704 L 372 703 L 361 703 L 360 704 "></path>
        <path fill="none" stroke="#fa00fa" stroke-width="3" d="M 806 234 L 805 235 L 802 235 L 801 236 L 800 236 L 799 237 L 798 237 L 797 238 L 796 238 L 795 239 L 794 239 L 791 242 L 790 242 L 789 243 L 789 244 L 786 247 L 786 248 L 784 250 L 784 252 L 783 253 L 783 254 L 782 255 L 782 259 L 781 260 L 781 268 L 782 269 L 782 273 L 783 274 L 783 276 L 784 277 L 784 278 L 785 279 L 785 280 L 786 281 L 786 282 L 788 284 L 788 285 L 795 292 L 796 292 L 797 293 L 798 293 L 799 294 L 800 294 L 801 295 L 802 295 L 803 296 L 806 296 L 807 297 L 818 297 L 819 296 L 822 296 L 823 295 L 824 295 L 825 294 L 826 294 L 827 293 L 828 293 L 830 291 L 831 291 L 836 286 L 836 285 L 838 283 L 838 282 L 839 281 L 839 279 L 840 278 L 840 276 L 841 275 L 841 271 L 842 270 L 842 266 L 841 265 L 841 262 L 840 261 L 840 260 L 835 255 L 834 255 L 823 244 L 823 243 L 819 239 L 819 238 L 818 237 L 817 237 L 816 236 L 815 236 L 814 235 L 812 235 L 811 234 L 806 234 L 805 235 "></path>
        <path fill="none" stroke="#fa00fa" stroke-width="3" d="M 242 408 L 241 409 L 238 409 L 237 410 L 236 410 L 235 411 L 233 411 L 231 413 L 230 413 L 222 421 L 222 422 L 221 423 L 221 424 L 220 425 L 220 426 L 219 427 L 219 429 L 218 430 L 218 441 L 219 442 L 219 445 L 220 446 L 220 447 L 221 448 L 221 450 L 222 451 L 222 452 L 223 453 L 223 454 L 224 455 L 224 456 L 225 457 L 225 458 L 231 464 L 232 464 L 233 465 L 234 465 L 235 466 L 236 466 L 237 467 L 239 467 L 240 468 L 254 468 L 255 467 L 257 467 L 258 466 L 260 466 L 261 465 L 262 465 L 264 463 L 265 463 L 272 456 L 272 455 L 274 453 L 274 452 L 275 451 L 275 449 L 276 448 L 276 446 L 277 445 L 277 432 L 276 431 L 276 428 L 275 427 L 275 426 L 274 425 L 274 424 L 273 423 L 273 422 L 271 420 L 271 419 L 266 414 L 265 414 L 263 412 L 262 412 L 261 411 L 260 411 L 259 410 L 257 410 L 256 409 L 253 409 L 252 408 L 242 408 L 241 409 "></path>
        <path fill="none" stroke="#fa00fa" stroke-width="3" d="M 648 200 L 647 201 L 643 201 L 642 202 L 640 202 L 638 204 L 637 204 L 634 207 L 634 209 L 633 210 L 633 215 L 634 216 L 634 217 L 635 218 L 635 219 L 637 221 L 637 224 L 634 227 L 633 227 L 631 229 L 631 230 L 630 231 L 630 232 L 629 233 L 629 243 L 630 244 L 630 245 L 633 248 L 634 248 L 636 250 L 637 250 L 638 251 L 639 251 L 647 259 L 647 260 L 649 262 L 649 263 L 650 264 L 650 265 L 653 268 L 655 268 L 656 269 L 663 269 L 664 268 L 665 268 L 666 267 L 667 267 L 671 263 L 671 262 L 672 261 L 672 260 L 673 259 L 673 249 L 675 247 L 676 247 L 677 246 L 680 246 L 681 245 L 682 245 L 685 242 L 685 241 L 686 240 L 686 239 L 687 238 L 687 226 L 686 225 L 686 223 L 685 222 L 685 221 L 684 220 L 684 219 L 683 218 L 683 217 L 681 215 L 681 214 L 674 207 L 673 207 L 672 206 L 671 206 L 670 205 L 669 205 L 668 204 L 667 204 L 666 203 L 665 203 L 664 202 L 661 202 L 660 201 L 655 201 L 654 200 L 648 200 L 647 201 "></path>
        <path fill="none" stroke="#fa00fa" stroke-width="3" d="M 65 708 L 64 709 L 61 709 L 60 710 L 58 710 L 57 711 L 56 711 L 55 712 L 54 712 L 52 714 L 51 714 L 45 720 L 45 721 L 43 723 L 43 724 L 42 725 L 42 726 L 41 727 L 41 728 L 40 729 L 40 732 L 39 733 L 39 745 L 40 746 L 40 748 L 41 749 L 41 750 L 48 757 L 49 757 L 54 762 L 55 762 L 59 766 L 60 766 L 61 767 L 62 767 L 63 768 L 67 768 L 68 769 L 71 769 L 72 768 L 76 768 L 77 767 L 79 767 L 80 766 L 81 766 L 82 765 L 83 765 L 84 764 L 85 764 L 88 761 L 89 761 L 92 758 L 92 757 L 94 755 L 94 754 L 96 752 L 96 751 L 97 750 L 97 748 L 98 747 L 98 745 L 99 744 L 99 732 L 98 731 L 98 728 L 97 727 L 97 725 L 96 724 L 96 723 L 94 721 L 94 720 L 87 713 L 86 713 L 85 712 L 84 712 L 83 711 L 82 711 L 81 710 L 79 710 L 78 709 L 75 709 L 74 708 L 65 708 L 64 709 "></path>
        <path fill="none" stroke="#fa00fa" stroke-width="3" d="M 393 365 L 392 366 L 389 366 L 388 367 L 386 367 L 385 368 L 384 368 L 383 369 L 382 369 L 381 370 L 380 370 L 373 377 L 373 378 L 371 380 L 371 381 L 370 382 L 370 384 L 369 385 L 369 387 L 368 388 L 368 402 L 369 403 L 369 405 L 370 406 L 370 408 L 371 409 L 371 410 L 373 412 L 373 413 L 379 419 L 380 419 L 382 421 L 383 421 L 384 422 L 385 422 L 386 423 L 388 423 L 389 424 L 394 424 L 395 425 L 400 425 L 401 424 L 405 424 L 406 423 L 408 423 L 409 422 L 410 422 L 411 421 L 412 421 L 413 420 L 414 420 L 417 417 L 418 417 L 419 416 L 419 415 L 422 412 L 422 411 L 424 409 L 424 408 L 425 407 L 425 405 L 426 404 L 426 401 L 427 400 L 427 390 L 426 389 L 426 386 L 425 385 L 425 383 L 424 382 L 424 381 L 423 380 L 423 379 L 421 377 L 421 376 L 417 372 L 416 372 L 413 369 L 412 369 L 411 368 L 410 368 L 409 367 L 407 367 L 406 366 L 403 366 L 402 365 L 393 365 L 392 366 "></path>
        <path fill="none" stroke="#fa00fa" stroke-width="3" d="M 81 287 L 80 288 L 75 288 L 74 289 L 72 289 L 71 290 L 70 290 L 69 291 L 68 291 L 67 292 L 66 292 L 62 296 L 61 296 L 61 297 L 57 301 L 57 302 L 56 303 L 56 304 L 55 305 L 55 306 L 54 307 L 54 309 L 53 310 L 53 315 L 52 316 L 52 320 L 53 321 L 53 326 L 54 327 L 54 329 L 55 330 L 55 331 L 56 332 L 56 333 L 57 334 L 57 335 L 65 343 L 66 343 L 67 344 L 68 344 L 69 345 L 70 345 L 71 346 L 73 346 L 74 347 L 79 347 L 80 348 L 83 348 L 84 347 L 89 347 L 90 346 L 92 346 L 93 345 L 95 345 L 96 344 L 97 344 L 99 342 L 100 342 L 105 337 L 105 336 L 107 334 L 107 333 L 108 332 L 108 330 L 109 329 L 109 323 L 110 322 L 110 306 L 109 305 L 109 303 L 108 302 L 108 301 L 106 299 L 106 298 L 102 294 L 101 294 L 99 292 L 98 292 L 96 290 L 94 290 L 93 289 L 91 289 L 90 288 L 85 288 L 84 287 L 81 287 L 80 288 "></path>
        <path fill="none" stroke="#fa00fa" stroke-width="3" d="M 139 293 L 138 294 L 135 294 L 134 295 L 132 295 L 131 296 L 130 296 L 128 298 L 127 298 L 120 305 L 120 306 L 119 307 L 119 309 L 118 310 L 118 313 L 117 314 L 117 322 L 116 323 L 116 331 L 117 332 L 117 335 L 118 336 L 118 337 L 119 338 L 119 339 L 120 340 L 120 341 L 127 348 L 128 348 L 129 349 L 130 349 L 131 350 L 132 350 L 133 351 L 135 351 L 136 352 L 139 352 L 140 353 L 146 353 L 147 352 L 152 352 L 153 351 L 155 351 L 156 350 L 157 350 L 158 349 L 159 349 L 160 348 L 161 348 L 168 341 L 168 340 L 170 338 L 170 337 L 171 336 L 171 335 L 172 334 L 172 333 L 173 332 L 173 330 L 174 329 L 174 324 L 175 323 L 175 322 L 174 321 L 174 315 L 173 314 L 173 312 L 172 311 L 172 310 L 171 309 L 171 308 L 170 307 L 170 306 L 162 298 L 161 298 L 160 297 L 159 297 L 158 296 L 157 296 L 156 295 L 155 295 L 154 294 L 151 294 L 150 293 L 139 293 L 138 294 "></path>
        <path fill="none" stroke="#fa00fa" stroke-width="3" d="M 24 755 L 23 756 L 20 756 L 19 757 L 17 757 L 16 758 L 15 758 L 13 760 L 12 760 L 8 764 L 8 765 L 3 770 L 2 770 L 1 771 L 1 798 L 13 810 L 13 813 L 14 814 L 43 814 L 45 812 L 45 810 L 47 808 L 48 808 L 50 806 L 51 806 L 55 802 L 55 801 L 57 799 L 57 798 L 58 797 L 58 795 L 59 794 L 59 790 L 60 789 L 60 781 L 59 780 L 59 778 L 58 777 L 58 775 L 56 773 L 56 772 L 53 769 L 52 769 L 49 766 L 48 766 L 42 760 L 41 760 L 38 757 L 37 757 L 36 756 L 34 756 L 33 755 L 24 755 L 23 756 "></path>
        <path fill="none" stroke="#fa00fa" stroke-width="3" d="M 917 210 L 916 211 L 913 211 L 912 212 L 911 212 L 910 213 L 909 213 L 908 214 L 907 214 L 905 216 L 904 216 L 900 220 L 900 221 L 897 224 L 897 225 L 896 226 L 896 228 L 895 229 L 895 231 L 894 232 L 894 236 L 893 237 L 893 242 L 894 243 L 894 248 L 895 249 L 895 250 L 896 251 L 896 253 L 897 254 L 897 255 L 900 258 L 900 259 L 904 263 L 905 263 L 907 265 L 908 265 L 909 266 L 910 266 L 911 267 L 912 267 L 913 268 L 916 268 L 917 269 L 929 269 L 930 268 L 933 268 L 934 267 L 935 267 L 936 266 L 937 266 L 938 265 L 939 265 L 941 263 L 942 263 L 946 259 L 946 258 L 948 256 L 948 255 L 950 253 L 950 251 L 951 250 L 951 248 L 952 247 L 952 233 L 951 232 L 951 230 L 950 229 L 950 227 L 949 226 L 949 225 L 948 224 L 948 223 L 945 220 L 945 219 L 943 217 L 942 217 L 939 214 L 938 214 L 937 213 L 936 213 L 935 212 L 933 212 L 932 211 L 930 211 L 929 210 L 917 210 L 916 211 "></path>
        <path fill="none" stroke="#fa00fa" stroke-width="3" d="M 484 362 L 483 363 L 479 363 L 478 364 L 476 364 L 475 365 L 474 365 L 473 366 L 472 366 L 470 368 L 469 368 L 463 374 L 463 375 L 461 377 L 461 378 L 460 379 L 460 380 L 459 381 L 459 383 L 458 384 L 458 388 L 457 389 L 457 396 L 458 397 L 458 401 L 459 402 L 459 404 L 460 405 L 460 406 L 461 407 L 461 408 L 463 410 L 463 411 L 468 416 L 469 416 L 471 418 L 472 418 L 473 419 L 474 419 L 475 420 L 476 420 L 477 421 L 480 421 L 481 422 L 493 422 L 494 421 L 497 421 L 498 420 L 499 420 L 500 419 L 501 419 L 502 418 L 503 418 L 505 416 L 506 416 L 511 411 L 511 410 L 513 408 L 513 407 L 514 406 L 514 405 L 515 404 L 515 402 L 516 401 L 516 399 L 517 398 L 517 388 L 516 387 L 516 385 L 515 384 L 515 383 L 513 381 L 513 380 L 498 365 L 497 365 L 496 364 L 495 364 L 494 363 L 491 363 L 490 362 L 484 362 L 483 363 "></path>
        <path fill="none" stroke="#fa00fa" stroke-width="3" d="M 530 320 L 529 321 L 524 321 L 523 322 L 521 322 L 520 323 L 518 323 L 516 325 L 515 325 L 513 327 L 512 327 L 508 331 L 508 332 L 506 334 L 506 335 L 505 336 L 505 337 L 504 338 L 504 339 L 503 340 L 503 342 L 502 343 L 502 348 L 501 349 L 501 351 L 502 352 L 502 356 L 503 357 L 503 359 L 505 361 L 505 362 L 513 370 L 513 371 L 519 377 L 520 377 L 521 378 L 522 378 L 523 379 L 524 379 L 525 380 L 529 380 L 530 381 L 533 381 L 534 380 L 539 380 L 540 379 L 542 379 L 543 378 L 544 378 L 545 377 L 546 377 L 547 376 L 548 376 L 556 368 L 556 367 L 558 365 L 558 364 L 559 363 L 559 361 L 560 360 L 560 357 L 561 356 L 561 345 L 560 344 L 560 341 L 559 340 L 559 338 L 558 337 L 558 336 L 557 335 L 557 334 L 554 331 L 554 330 L 552 328 L 551 328 L 548 325 L 547 325 L 546 324 L 545 324 L 544 323 L 543 323 L 542 322 L 540 322 L 539 321 L 534 321 L 533 320 L 530 320 L 529 321 "></path>
        <path fill="none" stroke="#fa00fa" stroke-width="3" d="M 994 198 L 993 199 L 992 199 L 991 200 L 990 200 L 987 203 L 986 203 L 984 205 L 983 205 L 982 206 L 981 206 L 980 207 L 979 207 L 978 208 L 977 208 L 976 209 L 975 209 L 974 210 L 972 210 L 971 211 L 969 211 L 968 212 L 967 212 L 966 213 L 965 213 L 962 216 L 962 217 L 961 218 L 961 219 L 960 220 L 960 231 L 961 232 L 961 236 L 962 237 L 962 238 L 963 239 L 963 241 L 965 243 L 965 244 L 967 246 L 967 247 L 970 250 L 971 250 L 973 252 L 974 252 L 976 254 L 977 254 L 978 255 L 980 255 L 981 256 L 984 256 L 985 257 L 996 257 L 997 256 L 1000 256 L 1001 255 L 1003 255 L 1004 254 L 1005 254 L 1006 253 L 1007 253 L 1010 250 L 1011 250 L 1015 246 L 1015 245 L 1017 243 L 1017 242 L 1018 241 L 1018 240 L 1019 239 L 1019 238 L 1020 237 L 1020 234 L 1021 233 L 1021 220 L 1020 219 L 1020 217 L 1019 216 L 1019 214 L 1018 213 L 1018 212 L 1016 210 L 1016 209 L 1013 206 L 1013 205 L 1012 205 L 1008 201 L 1007 201 L 1006 200 L 1005 200 L 1004 199 L 1003 199 L 1002 198 L 994 198 L 993 199 "></path>
        <path fill="none" stroke="#fa00fa" stroke-width="3" d="M 896 768 L 895 769 L 893 769 L 892 770 L 891 770 L 890 771 L 889 771 L 888 772 L 887 772 L 885 774 L 884 774 L 880 778 L 880 779 L 877 782 L 877 783 L 876 784 L 876 785 L 875 786 L 875 787 L 874 788 L 874 790 L 873 791 L 873 793 L 874 794 L 874 795 L 875 796 L 875 797 L 882 804 L 879 807 L 874 807 L 873 806 L 870 806 L 869 805 L 866 805 L 865 804 L 860 804 L 859 805 L 855 805 L 854 806 L 853 806 L 852 807 L 851 807 L 850 808 L 849 808 L 849 809 L 848 810 L 848 811 L 847 812 L 847 813 L 848 814 L 958 814 L 958 810 L 954 806 L 953 806 L 952 805 L 949 805 L 948 804 L 938 804 L 937 805 L 935 805 L 934 806 L 933 806 L 932 807 L 927 807 L 925 805 L 925 803 L 929 799 L 930 799 L 933 796 L 933 794 L 934 793 L 934 790 L 933 789 L 933 787 L 932 786 L 932 785 L 930 783 L 930 782 L 927 779 L 927 778 L 923 774 L 922 774 L 920 772 L 919 772 L 918 771 L 917 771 L 916 770 L 915 770 L 914 769 L 912 769 L 911 768 L 896 768 L 895 769 "></path>
        <path fill="none" stroke="#fa00fa" stroke-width="3" d="M 413 1 L 412 2 L 412 3 L 413 4 L 413 5 L 416 8 L 417 8 L 418 9 L 420 9 L 421 10 L 424 10 L 425 11 L 433 11 L 434 10 L 436 10 L 437 9 L 439 9 L 440 8 L 444 8 L 447 11 L 446 12 L 446 13 L 444 15 L 443 15 L 439 19 L 439 20 L 438 21 L 438 26 L 439 27 L 439 28 L 440 29 L 440 30 L 442 32 L 442 33 L 445 36 L 445 37 L 449 41 L 450 41 L 452 43 L 453 43 L 454 44 L 455 44 L 456 45 L 457 45 L 458 46 L 461 46 L 462 47 L 474 47 L 475 46 L 478 46 L 479 45 L 480 45 L 481 44 L 482 44 L 483 43 L 484 43 L 485 42 L 486 42 L 493 35 L 493 34 L 495 32 L 495 31 L 496 30 L 496 29 L 497 28 L 497 27 L 498 26 L 498 20 L 497 19 L 497 18 L 491 12 L 491 10 L 492 9 L 493 9 L 494 8 L 498 8 L 499 9 L 501 9 L 502 10 L 504 10 L 505 11 L 512 11 L 513 10 L 515 10 L 516 9 L 517 9 L 519 7 L 520 7 L 521 6 L 521 5 L 522 4 L 522 1 L 413 1 L 412 2 "></path>
        <path fill="none" stroke="#fa00fa" stroke-width="3" d="M 377 605 L 376 606 L 373 606 L 372 607 L 371 607 L 370 608 L 369 608 L 368 609 L 367 609 L 365 611 L 364 611 L 358 617 L 358 618 L 357 619 L 357 620 L 356 621 L 356 622 L 355 623 L 355 629 L 356 630 L 356 632 L 358 634 L 358 635 L 360 637 L 360 638 L 362 640 L 362 641 L 363 642 L 363 643 L 365 645 L 365 646 L 366 647 L 366 649 L 367 650 L 367 651 L 368 652 L 368 654 L 369 655 L 369 657 L 371 659 L 371 660 L 372 661 L 373 661 L 375 663 L 377 663 L 378 664 L 390 664 L 391 663 L 394 663 L 395 662 L 397 662 L 398 661 L 399 661 L 400 660 L 401 660 L 402 659 L 403 659 L 411 651 L 411 650 L 412 649 L 412 648 L 413 647 L 413 646 L 414 645 L 414 642 L 415 641 L 415 628 L 414 627 L 414 625 L 413 624 L 413 622 L 412 621 L 412 620 L 410 618 L 410 617 L 403 610 L 402 610 L 400 608 L 399 608 L 398 607 L 396 607 L 395 606 L 393 606 L 392 605 L 377 605 L 376 606 "></path>
        <path fill="none" stroke="#fa00fa" stroke-width="3" d="M 335 627 L 334 628 L 329 628 L 328 629 L 326 629 L 325 630 L 324 630 L 323 631 L 322 631 L 321 632 L 320 632 L 312 640 L 312 641 L 311 642 L 311 643 L 310 644 L 310 646 L 309 647 L 309 649 L 308 650 L 308 654 L 307 655 L 307 663 L 308 664 L 308 667 L 309 668 L 309 670 L 310 671 L 310 672 L 311 673 L 311 674 L 314 677 L 314 678 L 317 681 L 318 681 L 321 684 L 322 684 L 323 685 L 324 685 L 325 686 L 327 686 L 328 687 L 330 687 L 331 688 L 343 688 L 344 687 L 347 687 L 348 686 L 350 686 L 351 685 L 352 685 L 354 683 L 355 683 L 363 675 L 363 674 L 364 673 L 364 672 L 365 671 L 365 670 L 366 669 L 366 663 L 365 662 L 365 661 L 364 660 L 364 659 L 362 657 L 362 656 L 359 653 L 359 652 L 358 651 L 358 650 L 356 648 L 356 647 L 355 646 L 355 644 L 354 643 L 354 642 L 353 641 L 353 639 L 352 638 L 352 636 L 351 635 L 351 634 L 350 633 L 350 632 L 348 630 L 347 630 L 346 629 L 345 629 L 344 628 L 341 628 L 340 627 L 335 627 L 334 628 "></path>
        <path fill="none" stroke="#fa00fa" stroke-width="3" d="M 960 150 L 959 151 L 956 151 L 955 152 L 954 152 L 953 153 L 952 153 L 951 154 L 950 154 L 949 155 L 948 155 L 941 162 L 941 163 L 940 164 L 940 165 L 939 166 L 939 167 L 938 168 L 938 169 L 937 170 L 937 173 L 936 174 L 936 185 L 937 186 L 937 189 L 938 190 L 938 192 L 939 193 L 939 194 L 941 196 L 941 197 L 944 200 L 944 201 L 945 202 L 946 202 L 949 205 L 950 205 L 952 207 L 954 207 L 955 208 L 962 208 L 963 207 L 964 207 L 965 206 L 966 206 L 968 204 L 969 204 L 971 202 L 972 202 L 973 201 L 974 201 L 976 199 L 977 199 L 978 198 L 980 198 L 981 197 L 982 197 L 983 196 L 985 196 L 986 195 L 987 195 L 988 194 L 989 194 L 990 193 L 991 193 L 993 191 L 993 190 L 995 188 L 995 185 L 996 184 L 996 177 L 995 176 L 995 172 L 994 171 L 994 169 L 993 168 L 993 167 L 992 166 L 992 165 L 991 164 L 991 163 L 983 155 L 982 155 L 980 153 L 978 153 L 977 152 L 976 152 L 975 151 L 972 151 L 971 150 L 960 150 L 959 151 "></path>
        <path fill="none" stroke="#fa00fa" stroke-width="3" d="M 842 331 L 841 332 L 837 332 L 836 333 L 834 333 L 833 334 L 832 334 L 831 335 L 830 335 L 829 336 L 828 336 L 820 344 L 820 345 L 819 346 L 819 347 L 818 348 L 818 349 L 817 350 L 817 352 L 816 353 L 816 357 L 815 358 L 815 364 L 816 365 L 816 369 L 817 370 L 817 372 L 818 373 L 818 375 L 820 377 L 820 378 L 822 380 L 823 380 L 824 381 L 825 381 L 826 382 L 837 382 L 838 381 L 843 381 L 844 382 L 850 382 L 851 383 L 854 383 L 855 384 L 858 384 L 859 385 L 863 385 L 864 384 L 866 384 L 867 383 L 868 383 L 871 380 L 871 379 L 872 378 L 872 377 L 873 376 L 873 375 L 874 374 L 874 372 L 875 371 L 875 368 L 876 367 L 876 357 L 875 356 L 875 353 L 874 352 L 874 350 L 873 349 L 873 348 L 871 346 L 871 345 L 869 343 L 869 342 L 865 338 L 864 338 L 862 336 L 861 336 L 860 335 L 859 335 L 858 334 L 857 334 L 856 333 L 854 333 L 853 332 L 849 332 L 848 331 L 842 331 L 841 332 "></path>
        <path fill="none" stroke="#fa00fa" stroke-width="3" d="M 197 325 L 196 326 L 193 326 L 192 327 L 191 327 L 190 328 L 189 328 L 188 329 L 187 329 L 186 330 L 185 330 L 179 336 L 179 337 L 177 339 L 177 340 L 175 342 L 175 343 L 174 344 L 174 345 L 173 346 L 173 347 L 172 348 L 172 354 L 173 355 L 173 356 L 179 362 L 180 362 L 188 370 L 188 371 L 191 374 L 191 375 L 192 376 L 192 377 L 194 379 L 194 380 L 196 382 L 196 383 L 197 383 L 199 385 L 201 385 L 202 386 L 206 386 L 207 385 L 209 385 L 210 384 L 212 384 L 213 383 L 214 383 L 215 382 L 216 382 L 217 381 L 218 381 L 221 378 L 222 378 L 225 375 L 225 374 L 228 371 L 228 370 L 229 369 L 229 368 L 230 367 L 230 366 L 231 365 L 231 362 L 232 361 L 232 348 L 231 347 L 231 344 L 230 343 L 230 342 L 229 341 L 229 340 L 228 339 L 228 338 L 220 330 L 219 330 L 217 328 L 216 328 L 215 327 L 213 327 L 212 326 L 209 326 L 208 325 L 197 325 L 196 326 "></path>
        <path fill="none" stroke="#fa00fa" stroke-width="3" d="M 809 162 L 808 163 L 804 163 L 803 164 L 802 164 L 801 165 L 800 165 L 799 166 L 798 166 L 797 167 L 796 167 L 788 175 L 788 176 L 787 177 L 787 178 L 786 179 L 786 180 L 785 181 L 785 184 L 784 185 L 784 199 L 785 200 L 785 202 L 786 203 L 786 205 L 787 206 L 787 207 L 789 209 L 789 210 L 796 217 L 797 217 L 799 219 L 800 219 L 801 220 L 802 220 L 803 221 L 805 221 L 806 222 L 814 222 L 815 221 L 816 221 L 817 220 L 818 220 L 819 219 L 819 218 L 821 216 L 821 215 L 824 212 L 824 211 L 836 199 L 837 199 L 842 194 L 842 192 L 843 191 L 843 185 L 842 184 L 842 182 L 841 181 L 841 180 L 840 179 L 840 178 L 839 177 L 839 176 L 835 172 L 835 171 L 834 170 L 833 170 L 830 167 L 829 167 L 828 166 L 827 166 L 826 165 L 825 165 L 824 164 L 823 164 L 822 163 L 818 163 L 817 162 L 809 162 L 808 163 "></path>
        <path fill="none" stroke="#fa00fa" stroke-width="3" d="M 160 357 L 159 358 L 157 358 L 156 359 L 154 359 L 153 360 L 152 360 L 151 361 L 150 361 L 149 362 L 148 362 L 146 364 L 145 364 L 141 368 L 141 369 L 139 371 L 139 372 L 138 373 L 138 374 L 137 375 L 137 376 L 136 377 L 136 380 L 135 381 L 135 392 L 136 393 L 136 396 L 137 397 L 137 399 L 138 400 L 138 401 L 139 402 L 139 403 L 141 405 L 141 406 L 147 412 L 148 412 L 149 413 L 150 413 L 152 415 L 154 415 L 155 416 L 157 416 L 158 417 L 164 417 L 165 418 L 166 417 L 173 417 L 174 416 L 176 416 L 177 415 L 178 415 L 179 414 L 180 414 L 181 413 L 182 413 L 190 405 L 190 404 L 192 402 L 192 401 L 193 400 L 193 399 L 194 398 L 194 396 L 195 395 L 195 391 L 194 390 L 194 388 L 192 386 L 192 385 L 191 384 L 190 384 L 187 381 L 186 381 L 177 372 L 177 371 L 175 369 L 175 368 L 174 367 L 174 366 L 172 364 L 172 363 L 171 362 L 171 361 L 169 359 L 168 359 L 167 358 L 165 358 L 164 357 L 160 357 L 159 358 "></path>
        <path fill="none" stroke="#fa00fa" stroke-width="3" d="M 727 384 L 726 385 L 723 385 L 722 386 L 720 386 L 719 387 L 718 387 L 717 388 L 716 388 L 715 389 L 714 389 L 707 396 L 707 397 L 705 399 L 705 400 L 704 401 L 704 403 L 703 404 L 703 406 L 702 407 L 702 420 L 703 421 L 703 423 L 704 424 L 704 426 L 705 427 L 705 428 L 707 430 L 707 431 L 713 437 L 714 437 L 716 439 L 717 439 L 718 440 L 719 440 L 720 441 L 722 441 L 723 442 L 727 442 L 728 443 L 734 443 L 735 442 L 739 442 L 740 441 L 742 441 L 743 440 L 744 440 L 745 439 L 746 439 L 747 438 L 748 438 L 753 433 L 753 431 L 754 430 L 754 419 L 753 418 L 753 405 L 754 404 L 754 398 L 753 397 L 753 395 L 752 394 L 752 393 L 748 389 L 747 389 L 745 387 L 743 387 L 742 386 L 740 386 L 739 385 L 736 385 L 735 384 L 727 384 L 726 385 "></path>
        <path fill="none" stroke="#fa00fa" stroke-width="3" d="M 633 706 L 632 707 L 628 707 L 627 708 L 625 708 L 624 709 L 623 709 L 622 710 L 621 710 L 620 711 L 619 711 L 617 713 L 616 713 L 612 717 L 612 718 L 610 720 L 610 721 L 609 722 L 609 723 L 608 724 L 608 725 L 607 726 L 607 728 L 606 729 L 606 735 L 605 736 L 605 738 L 606 739 L 606 744 L 607 745 L 607 747 L 608 748 L 608 750 L 609 751 L 609 752 L 611 754 L 611 755 L 617 761 L 618 761 L 620 763 L 621 763 L 622 764 L 623 764 L 624 765 L 626 765 L 627 766 L 629 766 L 630 767 L 636 767 L 637 766 L 638 766 L 639 765 L 640 765 L 643 762 L 643 761 L 645 759 L 645 758 L 650 753 L 650 752 L 653 749 L 653 748 L 654 747 L 654 744 L 655 743 L 655 740 L 656 739 L 656 737 L 657 736 L 657 734 L 659 732 L 659 731 L 660 730 L 660 729 L 661 728 L 661 727 L 662 726 L 662 721 L 661 720 L 661 719 L 660 718 L 660 717 L 656 713 L 655 713 L 653 711 L 652 711 L 651 710 L 650 710 L 649 709 L 648 709 L 647 708 L 645 708 L 644 707 L 640 707 L 639 706 L 633 706 L 632 707 "></path>
        <path fill="none" stroke="#fa00fa" stroke-width="3" d="M 539 616 L 538 617 L 537 617 L 534 620 L 533 620 L 527 626 L 526 626 L 519 633 L 519 634 L 518 635 L 518 638 L 517 639 L 517 645 L 518 646 L 518 650 L 519 651 L 519 653 L 520 654 L 520 655 L 521 656 L 521 657 L 523 659 L 523 660 L 527 664 L 528 664 L 530 666 L 531 666 L 532 667 L 533 667 L 534 668 L 536 668 L 537 669 L 540 669 L 541 670 L 546 670 L 547 671 L 553 671 L 554 670 L 557 670 L 558 669 L 560 669 L 561 668 L 562 668 L 564 666 L 565 666 L 572 659 L 572 658 L 574 656 L 574 655 L 575 654 L 575 652 L 576 651 L 576 648 L 577 647 L 577 635 L 576 634 L 576 632 L 575 631 L 575 630 L 571 626 L 570 626 L 569 625 L 568 625 L 567 624 L 564 624 L 563 623 L 561 623 L 560 622 L 558 622 L 557 621 L 556 621 L 555 620 L 553 620 L 552 619 L 551 619 L 550 618 L 549 618 L 548 617 L 547 617 L 546 616 L 539 616 L 538 617 "></path>
        <path fill="none" stroke="#fa00fa" stroke-width="3" d="M 554 436 L 553 437 L 550 437 L 549 438 L 547 438 L 546 439 L 545 439 L 544 440 L 543 440 L 542 441 L 541 441 L 539 443 L 538 443 L 534 447 L 534 448 L 531 451 L 531 452 L 530 453 L 530 454 L 529 455 L 529 457 L 528 458 L 528 461 L 527 462 L 527 472 L 528 473 L 528 476 L 529 477 L 529 479 L 530 480 L 530 481 L 531 482 L 531 483 L 533 485 L 533 486 L 538 491 L 539 491 L 541 493 L 542 493 L 543 494 L 544 494 L 545 495 L 546 495 L 547 496 L 549 496 L 550 497 L 565 497 L 566 496 L 568 496 L 569 495 L 570 495 L 571 494 L 572 494 L 573 493 L 574 493 L 576 491 L 577 491 L 583 485 L 583 484 L 584 483 L 584 481 L 585 480 L 585 477 L 584 476 L 584 474 L 583 473 L 583 472 L 576 465 L 576 464 L 572 460 L 572 459 L 571 458 L 571 457 L 570 456 L 570 454 L 569 453 L 569 452 L 568 451 L 568 449 L 567 448 L 567 446 L 566 445 L 566 442 L 561 437 L 558 437 L 557 436 L 554 436 L 553 437 "></path>
        <path fill="none" stroke="#fa00fa" stroke-width="3" d="M 592 415 L 591 416 L 587 416 L 586 417 L 584 417 L 583 418 L 582 418 L 581 419 L 580 419 L 579 420 L 578 420 L 576 422 L 575 422 L 570 427 L 570 428 L 568 430 L 568 438 L 569 439 L 569 440 L 574 445 L 574 446 L 578 450 L 578 451 L 580 453 L 580 454 L 581 455 L 581 456 L 582 457 L 582 458 L 583 459 L 583 461 L 584 462 L 584 463 L 585 464 L 585 466 L 586 467 L 586 470 L 587 471 L 587 472 L 589 474 L 590 474 L 591 475 L 592 475 L 593 476 L 600 476 L 601 475 L 603 475 L 604 474 L 606 474 L 607 473 L 608 473 L 609 472 L 610 472 L 612 470 L 613 470 L 620 463 L 620 462 L 621 461 L 621 460 L 622 459 L 622 458 L 623 457 L 623 455 L 624 454 L 624 451 L 625 450 L 625 440 L 624 439 L 624 436 L 623 435 L 623 434 L 622 433 L 622 432 L 621 431 L 621 430 L 620 429 L 620 428 L 612 420 L 611 420 L 610 419 L 609 419 L 608 418 L 607 418 L 606 417 L 604 417 L 603 416 L 599 416 L 598 415 L 592 415 L 591 416 "></path>
        <path fill="none" stroke="#fa00fa" stroke-width="3" d="M 847 511 L 845 513 L 844 513 L 842 515 L 842 516 L 840 518 L 840 519 L 839 520 L 839 522 L 838 523 L 838 525 L 837 526 L 837 533 L 836 534 L 836 547 L 837 548 L 837 550 L 838 551 L 838 552 L 839 553 L 839 554 L 840 555 L 840 556 L 848 564 L 849 564 L 851 566 L 852 566 L 853 567 L 855 567 L 856 568 L 858 568 L 859 569 L 872 569 L 873 568 L 875 568 L 876 567 L 878 567 L 879 566 L 880 566 L 882 564 L 883 564 L 890 557 L 890 556 L 891 555 L 891 554 L 892 553 L 892 552 L 893 551 L 893 550 L 894 549 L 894 547 L 895 546 L 895 542 L 896 541 L 896 539 L 895 538 L 895 536 L 894 535 L 894 534 L 891 531 L 890 531 L 889 530 L 885 530 L 884 529 L 882 529 L 881 528 L 878 528 L 877 527 L 875 527 L 874 526 L 873 526 L 872 525 L 871 525 L 867 521 L 866 521 L 857 512 L 856 512 L 855 511 L 847 511 L 845 513 "></path>
        <path fill="none" stroke="#fa00fa" stroke-width="3" d="M 849 196 L 848 197 L 847 197 L 845 199 L 844 199 L 844 200 L 842 202 L 842 203 L 840 205 L 840 206 L 838 208 L 838 209 L 829 218 L 828 218 L 826 220 L 825 220 L 821 224 L 821 225 L 820 226 L 820 230 L 821 231 L 821 232 L 822 233 L 822 234 L 823 234 L 826 237 L 827 237 L 839 249 L 839 250 L 844 255 L 845 255 L 846 256 L 849 256 L 850 257 L 852 257 L 853 256 L 857 256 L 858 255 L 860 255 L 861 254 L 862 254 L 863 253 L 864 253 L 865 252 L 866 252 L 868 250 L 869 250 L 873 246 L 873 245 L 875 243 L 875 242 L 877 240 L 877 238 L 878 237 L 878 235 L 879 234 L 879 231 L 880 230 L 880 222 L 879 221 L 879 218 L 878 217 L 878 215 L 877 214 L 877 213 L 876 212 L 876 211 L 875 210 L 875 209 L 872 206 L 872 205 L 871 204 L 870 204 L 867 201 L 866 201 L 864 199 L 863 199 L 862 198 L 860 198 L 859 197 L 857 197 L 856 196 L 849 196 L 848 197 "></path>
        <path fill="none" stroke="#fa00fa" stroke-width="3" d="M 505 569 L 504 570 L 501 570 L 500 571 L 499 571 L 498 572 L 497 572 L 496 573 L 495 573 L 493 575 L 492 575 L 487 580 L 487 581 L 485 583 L 485 584 L 484 585 L 484 587 L 483 588 L 483 590 L 482 591 L 482 595 L 481 596 L 481 600 L 482 601 L 482 606 L 483 607 L 483 609 L 484 610 L 484 611 L 485 612 L 485 613 L 487 615 L 487 616 L 493 622 L 494 622 L 496 624 L 497 624 L 498 625 L 499 625 L 500 626 L 502 626 L 503 627 L 513 627 L 514 626 L 516 626 L 518 624 L 519 624 L 527 616 L 528 616 L 531 613 L 532 613 L 533 612 L 533 611 L 534 610 L 534 609 L 535 608 L 535 601 L 534 600 L 534 597 L 533 596 L 533 588 L 532 587 L 532 580 L 531 579 L 531 578 L 529 576 L 529 575 L 528 574 L 527 574 L 525 572 L 524 572 L 523 571 L 521 571 L 520 570 L 518 570 L 517 569 L 505 569 L 504 570 "></path>
        <path fill="none" stroke="#fa00fa" stroke-width="3" d="M 172 591 L 171 592 L 168 592 L 166 594 L 165 594 L 164 595 L 164 596 L 163 597 L 163 599 L 162 600 L 162 616 L 161 617 L 161 619 L 160 620 L 160 621 L 159 622 L 159 624 L 158 625 L 158 626 L 157 627 L 157 629 L 155 631 L 155 632 L 154 633 L 154 640 L 155 641 L 155 642 L 159 646 L 160 646 L 161 647 L 163 647 L 164 648 L 166 648 L 167 649 L 171 649 L 172 650 L 180 650 L 181 649 L 184 649 L 185 648 L 187 648 L 188 647 L 190 647 L 191 646 L 192 646 L 194 644 L 195 644 L 201 638 L 201 637 L 203 635 L 203 634 L 204 633 L 204 632 L 205 631 L 205 629 L 206 628 L 206 625 L 207 624 L 207 615 L 206 614 L 206 610 L 205 609 L 205 608 L 204 607 L 204 606 L 203 605 L 203 604 L 202 603 L 202 602 L 195 595 L 194 595 L 192 593 L 191 593 L 190 592 L 188 592 L 187 591 L 172 591 L 171 592 "></path>
        <path fill="none" stroke="#fa00fa" stroke-width="3" d="M 781 381 L 780 382 L 776 382 L 775 383 L 774 383 L 773 384 L 771 384 L 770 385 L 769 385 L 767 387 L 766 387 L 763 390 L 763 391 L 761 393 L 761 395 L 760 396 L 760 403 L 761 404 L 761 430 L 762 431 L 762 432 L 763 433 L 763 434 L 765 436 L 766 436 L 768 438 L 769 438 L 770 439 L 771 439 L 772 440 L 773 440 L 774 441 L 776 441 L 777 442 L 781 442 L 782 443 L 783 443 L 784 442 L 787 442 L 788 441 L 789 441 L 792 438 L 792 437 L 793 436 L 793 434 L 794 433 L 794 432 L 795 431 L 795 430 L 796 429 L 796 427 L 797 426 L 797 425 L 798 424 L 798 423 L 801 420 L 801 419 L 808 412 L 808 411 L 809 410 L 809 409 L 810 408 L 810 406 L 811 405 L 811 401 L 810 400 L 810 397 L 809 396 L 809 394 L 808 393 L 808 392 L 802 386 L 801 386 L 799 384 L 797 384 L 796 383 L 795 383 L 794 382 L 790 382 L 789 381 L 781 381 L 780 382 "></path>
        <path fill="none" stroke="#fa00fa" stroke-width="3" d="M 723 729 L 722 730 L 719 730 L 718 731 L 716 731 L 715 732 L 714 732 L 713 733 L 712 733 L 709 736 L 709 737 L 708 738 L 708 743 L 707 744 L 707 749 L 706 750 L 706 752 L 705 753 L 705 754 L 704 755 L 704 756 L 702 758 L 702 760 L 701 761 L 701 770 L 702 771 L 702 774 L 703 775 L 703 782 L 704 783 L 704 784 L 708 788 L 709 788 L 710 789 L 715 789 L 716 788 L 718 788 L 719 787 L 721 787 L 722 786 L 724 786 L 725 785 L 728 785 L 729 784 L 734 784 L 735 783 L 737 783 L 738 782 L 739 782 L 740 781 L 741 781 L 747 775 L 747 774 L 749 772 L 749 770 L 750 769 L 750 768 L 751 767 L 751 763 L 752 762 L 752 755 L 751 754 L 751 750 L 750 749 L 750 747 L 749 746 L 749 745 L 748 744 L 748 743 L 747 742 L 747 741 L 744 738 L 744 737 L 742 735 L 741 735 L 738 732 L 737 732 L 736 731 L 735 731 L 734 730 L 731 730 L 730 729 L 723 729 L 722 730 "></path>
        <path fill="none" stroke="#fa00fa" stroke-width="3" d="M 876 474 L 875 475 L 872 475 L 871 476 L 870 476 L 869 477 L 868 477 L 866 479 L 865 479 L 860 484 L 860 485 L 858 487 L 858 488 L 856 490 L 856 491 L 855 492 L 855 493 L 854 494 L 854 496 L 853 497 L 853 503 L 854 504 L 854 505 L 856 507 L 856 508 L 857 508 L 858 509 L 859 509 L 860 510 L 863 510 L 864 511 L 865 511 L 866 512 L 868 512 L 869 513 L 871 513 L 872 514 L 873 514 L 874 515 L 875 515 L 876 516 L 877 516 L 879 518 L 880 518 L 883 521 L 884 521 L 889 526 L 890 526 L 892 528 L 900 528 L 901 527 L 902 527 L 907 522 L 907 521 L 908 520 L 908 519 L 909 518 L 909 517 L 910 516 L 910 515 L 911 514 L 911 512 L 912 511 L 912 508 L 913 507 L 913 499 L 912 498 L 912 494 L 911 493 L 911 492 L 910 491 L 910 490 L 909 489 L 909 488 L 907 486 L 907 485 L 906 484 L 905 484 L 903 482 L 902 482 L 901 481 L 900 481 L 899 480 L 898 480 L 897 479 L 896 479 L 895 478 L 893 478 L 892 477 L 891 477 L 890 476 L 888 476 L 887 475 L 885 475 L 884 474 L 876 474 L 875 475 "></path>
        <path fill="none" stroke="#fa00fa" stroke-width="3" d="M 58 493 L 57 494 L 55 494 L 46 503 L 45 503 L 42 506 L 41 506 L 39 508 L 38 508 L 36 510 L 35 510 L 32 513 L 32 519 L 37 524 L 37 525 L 41 529 L 41 530 L 42 531 L 42 532 L 43 533 L 43 535 L 44 536 L 44 538 L 45 539 L 45 541 L 46 542 L 46 545 L 47 546 L 47 549 L 51 553 L 52 553 L 53 554 L 60 554 L 61 553 L 63 553 L 64 552 L 65 552 L 66 551 L 67 551 L 69 549 L 70 549 L 72 547 L 73 547 L 76 544 L 76 543 L 79 540 L 79 539 L 80 538 L 80 537 L 81 536 L 81 534 L 82 533 L 82 531 L 83 530 L 83 518 L 82 517 L 82 514 L 81 513 L 81 511 L 80 510 L 80 509 L 79 508 L 79 507 L 77 505 L 77 504 L 69 496 L 68 496 L 67 495 L 66 495 L 65 494 L 64 494 L 63 493 L 58 493 L 57 494 "></path>
        <path fill="none" stroke="#fa00fa" stroke-width="3" d="M 618 544 L 616 546 L 615 546 L 614 547 L 614 548 L 613 549 L 613 550 L 612 551 L 612 555 L 611 556 L 611 557 L 612 558 L 612 562 L 613 563 L 613 564 L 615 566 L 615 567 L 619 571 L 619 572 L 622 575 L 622 576 L 623 577 L 623 578 L 624 579 L 624 580 L 625 581 L 625 582 L 626 583 L 626 584 L 627 585 L 627 586 L 629 588 L 629 589 L 631 591 L 632 591 L 633 592 L 634 592 L 635 593 L 647 593 L 648 592 L 651 592 L 652 591 L 653 591 L 654 590 L 655 590 L 656 589 L 657 589 L 659 587 L 660 587 L 669 578 L 669 577 L 670 576 L 670 575 L 671 574 L 671 569 L 670 568 L 670 566 L 667 563 L 666 563 L 665 562 L 664 562 L 662 560 L 661 560 L 648 547 L 645 547 L 644 546 L 630 546 L 629 545 L 626 545 L 625 544 L 618 544 L 616 546 "></path>
        <path fill="none" stroke="#fa00fa" stroke-width="3" d="M 140 589 L 139 590 L 137 590 L 136 591 L 135 591 L 134 592 L 132 592 L 131 593 L 127 593 L 126 594 L 116 594 L 115 595 L 113 595 L 109 599 L 109 600 L 108 601 L 108 604 L 107 605 L 107 616 L 108 617 L 108 620 L 109 621 L 109 623 L 110 624 L 110 625 L 111 626 L 111 627 L 114 630 L 114 631 L 118 635 L 119 635 L 121 637 L 122 637 L 123 638 L 124 638 L 125 639 L 127 639 L 128 640 L 130 640 L 131 641 L 136 641 L 137 642 L 142 642 L 143 641 L 145 641 L 147 639 L 148 639 L 148 638 L 150 636 L 150 635 L 151 634 L 151 631 L 150 630 L 150 625 L 151 624 L 151 615 L 152 614 L 152 612 L 153 611 L 153 609 L 154 608 L 154 607 L 155 606 L 155 604 L 156 603 L 156 602 L 157 601 L 157 594 L 153 590 L 152 590 L 151 589 L 140 589 L 139 590 "></path>
        <path fill="none" stroke="#fa00fa" stroke-width="3" d="M 601 201 L 600 202 L 596 202 L 595 203 L 593 203 L 592 204 L 591 204 L 590 205 L 589 205 L 588 206 L 587 206 L 584 209 L 583 209 L 580 212 L 580 213 L 577 216 L 577 217 L 576 218 L 576 228 L 579 231 L 580 231 L 581 232 L 582 232 L 593 243 L 593 244 L 595 246 L 595 247 L 596 248 L 596 249 L 597 250 L 598 250 L 599 251 L 604 251 L 605 250 L 606 250 L 607 249 L 608 249 L 610 247 L 611 247 L 612 246 L 614 246 L 615 245 L 616 245 L 617 244 L 618 244 L 620 242 L 620 241 L 622 239 L 622 237 L 623 236 L 623 233 L 624 232 L 624 230 L 625 229 L 625 228 L 626 227 L 626 226 L 627 225 L 627 223 L 628 222 L 628 220 L 629 219 L 629 216 L 628 215 L 628 214 L 627 213 L 627 212 L 623 208 L 622 208 L 620 206 L 619 206 L 618 205 L 617 205 L 616 204 L 615 204 L 614 203 L 612 203 L 611 202 L 606 202 L 605 201 L 601 201 L 600 202 "></path>
        <path fill="none" stroke="#fa00fa" stroke-width="3" d="M 621 250 L 620 251 L 619 251 L 618 252 L 617 252 L 616 253 L 615 253 L 614 254 L 613 254 L 612 255 L 611 255 L 610 256 L 608 256 L 607 257 L 606 257 L 602 261 L 602 262 L 601 263 L 601 264 L 600 265 L 600 270 L 599 271 L 599 273 L 600 274 L 600 280 L 601 281 L 601 283 L 602 284 L 602 286 L 603 287 L 603 288 L 605 290 L 605 291 L 607 293 L 608 293 L 609 294 L 610 294 L 611 295 L 613 295 L 614 296 L 618 296 L 619 297 L 625 297 L 626 296 L 630 296 L 631 295 L 633 295 L 634 294 L 635 294 L 636 293 L 637 293 L 638 292 L 639 292 L 642 289 L 643 289 L 647 285 L 647 284 L 650 281 L 650 280 L 651 279 L 651 272 L 650 271 L 650 269 L 648 267 L 647 267 L 646 266 L 645 266 L 643 264 L 642 264 L 638 260 L 637 260 L 628 251 L 627 251 L 626 250 L 621 250 L 620 251 "></path>
        <path fill="none" stroke="#fa00fa" stroke-width="3" d="M 544 1 L 544 4 L 546 6 L 546 7 L 547 7 L 549 9 L 550 9 L 551 10 L 553 10 L 554 11 L 557 11 L 558 12 L 565 12 L 566 11 L 568 11 L 569 10 L 575 10 L 579 14 L 580 14 L 581 15 L 584 15 L 585 14 L 586 14 L 591 9 L 605 9 L 606 8 L 611 8 L 612 9 L 618 9 L 619 8 L 636 8 L 637 9 L 640 9 L 641 8 L 653 8 L 654 9 L 655 9 L 656 10 L 656 11 L 657 12 L 656 13 L 656 16 L 657 17 L 657 18 L 658 19 L 658 20 L 659 20 L 660 21 L 661 21 L 662 22 L 666 22 L 667 21 L 668 21 L 669 20 L 670 20 L 671 19 L 671 18 L 672 17 L 672 11 L 674 9 L 681 9 L 682 10 L 689 10 L 690 11 L 700 11 L 701 10 L 705 10 L 706 9 L 708 9 L 709 8 L 710 8 L 714 4 L 714 1 L 544 1 L 544 4 "></path>
        <path fill="none" stroke="#fa00fa" stroke-width="3" d="M 230 761 L 229 762 L 228 762 L 227 763 L 226 763 L 225 764 L 224 764 L 222 766 L 221 766 L 213 774 L 213 775 L 211 777 L 211 778 L 209 780 L 209 781 L 208 782 L 208 783 L 207 784 L 207 786 L 206 787 L 206 794 L 207 795 L 207 796 L 210 799 L 211 799 L 212 800 L 243 800 L 244 799 L 249 799 L 250 800 L 251 800 L 252 801 L 258 801 L 260 799 L 260 798 L 261 797 L 261 796 L 260 795 L 260 793 L 258 791 L 257 791 L 253 787 L 253 786 L 252 785 L 252 783 L 251 782 L 251 781 L 250 780 L 250 779 L 248 777 L 248 776 L 247 775 L 247 774 L 245 772 L 245 770 L 244 769 L 244 767 L 243 766 L 243 765 L 240 762 L 239 762 L 238 761 L 230 761 L 229 762 "></path>
        <path fill="none" stroke="#fa00fa" stroke-width="3" d="M 614 12 L 613 13 L 612 13 L 610 15 L 610 16 L 609 17 L 609 18 L 608 19 L 608 23 L 609 24 L 609 25 L 610 26 L 610 27 L 612 29 L 613 29 L 614 30 L 615 30 L 616 31 L 617 31 L 618 32 L 621 32 L 622 33 L 633 33 L 634 32 L 636 32 L 637 31 L 638 31 L 639 30 L 640 30 L 644 26 L 644 25 L 645 24 L 645 18 L 644 17 L 644 16 L 641 13 L 640 13 L 639 12 L 637 12 L 636 13 L 635 13 L 634 14 L 634 15 L 633 16 L 633 19 L 632 20 L 632 21 L 630 23 L 624 23 L 621 20 L 621 19 L 620 18 L 620 15 L 617 12 L 614 12 L 613 13 "></path>
    </g>
</svg>
