<svg xmlns="http://www.w3.org/2000/svg" xmlns:xlink="http://www.w3.org/1999/xlink" version="1.1" x="0" y="0" width="1056px" height="816px">
    <g id="rootLayer" transform="translate(0.000000, 0.000000)">
        <path fill="none" stroke="#ffffff" stroke-width="3" d="M 440 128 L 439 129 L 437 129 L 436 130 L 435 130 L 434 131 L 433 131 L 432 132 L 431 132 L 430 133 L 429 133 L 428 134 L 427 134 L 425 136 L 424 136 L 424 137 L 420 141 L 420 142 L 417 145 L 417 146 L 415 148 L 415 150 L 414 151 L 414 152 L 413 153 L 413 158 L 414 159 L 414 161 L 415 162 L 415 163 L 416 164 L 416 168 L 412 172 L 412 174 L 411 175 L 411 176 L 410 177 L 410 184 L 409 185 L 409 193 L 410 194 L 410 196 L 411 197 L 411 198 L 412 199 L 412 201 L 413 202 L 413 203 L 414 204 L 414 205 L 416 207 L 416 209 L 418 211 L 418 212 L 421 215 L 423 215 L 424 216 L 425 216 L 426 217 L 427 217 L 428 218 L 430 218 L 431 219 L 452 219 L 453 218 L 454 218 L 455 217 L 456 217 L 456 216 L 457 215 L 459 215 L 462 218 L 463 218 L 464 219 L 465 219 L 466 220 L 467 220 L 469 222 L 476 222 L 477 221 L 480 221 L 481 220 L 484 220 L 485 219 L 488 219 L 489 218 L 490 218 L 491 217 L 492 217 L 493 216 L 494 216 L 495 215 L 497 215 L 498 214 L 499 214 L 502 211 L 506 211 L 507 210 L 511 210 L 513 208 L 513 207 L 514 206 L 515 206 L 517 204 L 518 204 L 519 203 L 522 203 L 523 202 L 524 202 L 525 201 L 526 201 L 526 133 L 523 133 L 520 136 L 499 136 L 498 135 L 496 135 L 493 132 L 491 132 L 490 131 L 487 131 L 486 130 L 484 130 L 483 131 L 482 130 L 473 130 L 472 131 L 470 131 L 469 132 L 467 132 L 466 133 L 465 133 L 464 134 L 461 134 L 460 135 L 459 135 L 458 134 L 456 134 L 453 131 L 452 131 L 450 129 L 448 129 L 447 128 "></path>
        <path fill="none" stroke="#ffffff" stroke-width="3" d="M 266 164 L 265 165 L 264 165 L 259 170 L 258 170 L 256 172 L 246 172 L 245 173 L 243 173 L 239 177 L 238 177 L 238 180 L 236 182 L 236 183 L 234 185 L 233 185 L 232 186 L 232 188 L 231 189 L 231 191 L 232 192 L 231 193 L 231 197 L 227 201 L 226 201 L 225 202 L 225 211 L 226 212 L 226 215 L 227 216 L 227 218 L 229 220 L 229 222 L 230 223 L 231 223 L 233 225 L 233 226 L 234 227 L 235 227 L 236 228 L 238 228 L 239 229 L 241 229 L 242 230 L 245 230 L 246 231 L 256 231 L 258 229 L 258 228 L 259 227 L 260 227 L 261 226 L 261 225 L 263 223 L 269 223 L 270 224 L 271 223 L 272 224 L 274 224 L 275 223 L 277 223 L 278 222 L 279 222 L 280 221 L 281 221 L 282 220 L 284 220 L 285 219 L 286 219 L 286 218 L 287 217 L 287 215 L 289 213 L 292 213 L 294 211 L 295 211 L 295 210 L 296 209 L 296 207 L 295 206 L 296 205 L 295 204 L 295 198 L 296 197 L 296 196 L 299 193 L 300 193 L 302 191 L 302 186 L 303 185 L 303 177 L 294 168 L 291 168 L 290 167 L 282 167 L 281 166 L 279 166 L 278 165 L 277 165 L 276 164 "></path>
        <path fill="none" stroke="#ffffff" stroke-width="3" d="M 524 50 L 523 51 L 521 51 L 520 52 L 518 52 L 514 56 L 513 56 L 508 61 L 507 61 L 504 64 L 502 64 L 501 65 L 500 65 L 498 67 L 493 67 L 492 66 L 491 66 L 490 65 L 484 65 L 483 66 L 482 66 L 481 67 L 480 67 L 479 68 L 474 68 L 473 69 L 471 69 L 468 72 L 464 72 L 463 71 L 462 71 L 460 69 L 459 69 L 458 68 L 455 68 L 454 67 L 446 67 L 445 66 L 443 66 L 442 65 L 441 65 L 440 64 L 435 64 L 434 65 L 433 65 L 429 69 L 428 69 L 427 70 L 426 70 L 426 72 L 425 73 L 425 76 L 424 77 L 424 78 L 423 79 L 421 79 L 420 80 L 419 80 L 418 79 L 417 80 L 416 79 L 415 80 L 413 80 L 412 81 L 411 81 L 411 82 L 408 85 L 408 86 L 403 91 L 399 91 L 398 92 L 397 92 L 396 93 L 396 99 L 397 100 L 397 102 L 398 103 L 399 103 L 400 104 L 426 104 L 427 103 L 428 103 L 429 102 L 430 102 L 431 101 L 432 101 L 433 100 L 442 100 L 443 101 L 442 102 L 442 104 L 441 105 L 438 105 L 437 106 L 436 106 L 435 107 L 434 107 L 431 110 L 431 111 L 429 113 L 428 112 L 425 112 L 424 111 L 412 111 L 411 112 L 410 111 L 409 112 L 408 111 L 407 112 L 406 111 L 404 111 L 403 112 L 402 111 L 400 111 L 399 112 L 398 111 L 396 111 L 395 112 L 394 111 L 376 111 L 375 112 L 374 111 L 372 111 L 371 112 L 366 112 L 365 113 L 364 113 L 364 114 L 362 116 L 336 116 L 335 115 L 329 115 L 328 116 L 327 116 L 326 117 L 326 119 L 327 120 L 326 121 L 326 122 L 327 122 L 328 123 L 334 123 L 335 124 L 336 124 L 337 123 L 339 123 L 340 124 L 341 124 L 342 125 L 342 126 L 343 127 L 343 131 L 344 132 L 344 133 L 345 134 L 350 134 L 352 132 L 370 132 L 372 134 L 372 145 L 371 146 L 372 147 L 372 149 L 371 150 L 372 151 L 372 153 L 371 154 L 371 159 L 372 160 L 380 160 L 381 161 L 381 162 L 382 163 L 382 164 L 380 166 L 378 166 L 377 167 L 376 167 L 374 169 L 374 171 L 370 175 L 369 175 L 367 177 L 366 177 L 365 178 L 352 178 L 351 179 L 350 179 L 350 189 L 351 189 L 352 190 L 357 190 L 358 191 L 359 191 L 360 192 L 360 193 L 361 194 L 361 198 L 360 199 L 360 200 L 359 201 L 352 201 L 351 202 L 350 202 L 349 203 L 349 204 L 348 205 L 349 206 L 348 207 L 348 208 L 347 209 L 344 209 L 343 210 L 342 210 L 341 211 L 341 213 L 342 214 L 341 215 L 341 216 L 340 217 L 337 217 L 336 218 L 334 218 L 334 219 L 333 220 L 335 222 L 353 222 L 354 223 L 353 224 L 353 226 L 352 227 L 343 227 L 342 228 L 340 228 L 339 229 L 336 229 L 335 230 L 326 230 L 325 231 L 324 231 L 324 233 L 325 234 L 325 246 L 324 247 L 324 250 L 323 251 L 323 257 L 324 258 L 323 259 L 323 260 L 324 261 L 324 262 L 323 263 L 323 267 L 324 268 L 324 269 L 325 270 L 325 272 L 327 274 L 327 276 L 328 277 L 328 279 L 329 280 L 329 281 L 330 282 L 331 282 L 332 283 L 335 283 L 336 282 L 345 282 L 346 283 L 360 283 L 361 282 L 363 282 L 364 281 L 365 281 L 366 280 L 370 280 L 371 281 L 373 281 L 374 282 L 413 282 L 415 280 L 415 279 L 416 278 L 416 277 L 418 275 L 419 275 L 420 274 L 433 274 L 434 273 L 443 273 L 445 275 L 445 278 L 446 279 L 445 280 L 445 282 L 446 283 L 445 284 L 445 286 L 444 287 L 443 287 L 442 288 L 440 288 L 439 287 L 437 287 L 436 288 L 434 288 L 433 289 L 433 293 L 434 294 L 434 296 L 435 297 L 435 298 L 437 300 L 437 301 L 442 306 L 443 306 L 444 307 L 445 307 L 446 308 L 447 308 L 449 310 L 450 310 L 451 311 L 452 311 L 454 313 L 455 313 L 456 314 L 457 314 L 458 315 L 459 315 L 460 316 L 461 316 L 462 317 L 463 316 L 464 317 L 466 317 L 467 318 L 470 318 L 471 317 L 472 317 L 473 316 L 474 316 L 476 314 L 476 313 L 478 311 L 479 311 L 483 307 L 484 307 L 485 306 L 486 306 L 486 305 L 487 304 L 488 304 L 490 302 L 491 302 L 493 300 L 496 300 L 498 302 L 503 302 L 504 301 L 505 301 L 506 300 L 507 300 L 508 299 L 509 299 L 513 295 L 513 294 L 514 293 L 514 288 L 513 288 L 512 287 L 501 287 L 500 286 L 500 285 L 498 283 L 499 282 L 499 281 L 501 279 L 508 279 L 509 280 L 510 280 L 512 282 L 514 282 L 517 285 L 517 287 L 518 288 L 519 288 L 520 289 L 520 290 L 522 292 L 523 292 L 524 293 L 526 293 L 526 237 L 525 236 L 517 236 L 516 237 L 511 237 L 510 236 L 509 236 L 508 235 L 508 234 L 507 233 L 507 231 L 508 230 L 508 229 L 509 228 L 512 228 L 513 227 L 525 227 L 526 226 L 526 216 L 525 215 L 520 215 L 519 216 L 517 216 L 516 217 L 515 217 L 514 218 L 511 218 L 509 216 L 507 216 L 505 214 L 505 213 L 504 212 L 505 211 L 514 211 L 515 210 L 516 210 L 517 209 L 517 206 L 519 204 L 526 204 L 526 52 "></path>
        <path fill="none" stroke="#ffffff" stroke-width="3" d="M 314 142 L 313 143 L 311 143 L 310 144 L 308 144 L 307 145 L 306 145 L 303 148 L 295 148 L 294 149 L 292 149 L 289 152 L 274 152 L 272 154 L 273 155 L 273 157 L 272 158 L 272 159 L 271 160 L 215 160 L 214 161 L 213 161 L 210 164 L 209 164 L 208 165 L 206 165 L 205 166 L 205 167 L 203 169 L 202 169 L 199 172 L 196 172 L 195 173 L 194 172 L 182 172 L 181 173 L 180 173 L 179 174 L 180 175 L 180 176 L 181 176 L 182 177 L 182 178 L 185 181 L 184 182 L 184 183 L 183 184 L 154 184 L 153 185 L 152 185 L 152 187 L 153 188 L 152 189 L 152 193 L 151 194 L 152 195 L 152 197 L 151 198 L 152 199 L 152 200 L 148 204 L 147 204 L 146 205 L 145 205 L 145 208 L 144 209 L 144 213 L 143 214 L 143 220 L 142 221 L 142 226 L 145 229 L 145 230 L 148 233 L 148 239 L 147 240 L 147 242 L 148 243 L 148 244 L 149 245 L 163 245 L 164 244 L 165 245 L 166 244 L 172 244 L 173 245 L 206 245 L 207 244 L 208 244 L 209 245 L 210 244 L 213 244 L 214 245 L 215 244 L 217 244 L 218 245 L 219 244 L 221 244 L 222 245 L 223 244 L 225 244 L 226 245 L 227 244 L 229 244 L 230 245 L 231 244 L 252 244 L 253 243 L 254 243 L 254 238 L 256 236 L 268 236 L 269 235 L 270 235 L 270 230 L 268 228 L 261 228 L 260 227 L 261 226 L 260 225 L 262 223 L 267 223 L 268 224 L 269 223 L 270 224 L 271 223 L 272 224 L 274 224 L 275 223 L 277 223 L 278 222 L 279 222 L 280 221 L 281 221 L 282 220 L 284 220 L 285 219 L 286 219 L 286 218 L 287 217 L 287 215 L 289 213 L 292 213 L 294 211 L 295 211 L 295 210 L 299 206 L 307 206 L 308 205 L 310 205 L 311 204 L 321 204 L 323 202 L 323 194 L 322 193 L 322 192 L 321 191 L 320 191 L 318 189 L 318 188 L 319 187 L 320 187 L 322 185 L 323 185 L 323 184 L 324 183 L 324 182 L 325 181 L 325 180 L 327 178 L 328 178 L 329 177 L 330 178 L 337 178 L 342 173 L 342 172 L 343 171 L 344 171 L 345 170 L 353 170 L 354 169 L 356 169 L 356 168 L 357 167 L 357 165 L 356 164 L 356 162 L 352 158 L 351 158 L 350 157 L 347 157 L 346 156 L 345 156 L 344 155 L 344 154 L 343 153 L 343 149 L 342 148 L 342 146 L 340 144 L 338 144 L 337 143 L 321 143 L 320 142 "></path>
        <path fill="none" stroke="#ffffff" stroke-width="3" d="M 219 176 L 231 176 L 232 177 L 232 178 L 234 180 L 232 182 L 232 183 L 231 184 L 219 184 L 216 181 L 216 180 L 217 179 L 217 178 "></path>
        <path fill="none" stroke="#ffffff" stroke-width="3" d="M 306 5 L 305 6 L 293 6 L 293 7 L 294 7 L 296 9 L 295 10 L 293 10 L 293 12 L 292 13 L 282 13 L 281 14 L 280 14 L 280 15 L 281 15 L 282 16 L 280 18 L 267 18 L 266 17 L 263 17 L 262 16 L 263 15 L 264 15 L 264 14 L 263 13 L 227 13 L 227 15 L 228 16 L 227 17 L 226 17 L 226 18 L 227 18 L 228 19 L 228 22 L 230 24 L 230 26 L 231 26 L 232 27 L 234 27 L 235 28 L 234 29 L 234 30 L 235 31 L 235 32 L 234 33 L 234 34 L 236 36 L 235 37 L 234 37 L 234 38 L 236 40 L 235 41 L 222 41 L 221 40 L 210 40 L 209 41 L 208 41 L 208 43 L 207 44 L 204 44 L 203 45 L 200 45 L 200 47 L 199 48 L 196 48 L 194 50 L 195 51 L 192 54 L 192 55 L 191 56 L 190 56 L 189 57 L 189 58 L 190 59 L 190 60 L 189 61 L 190 62 L 190 66 L 191 66 L 192 67 L 192 70 L 214 70 L 215 71 L 242 71 L 243 70 L 261 70 L 262 71 L 263 71 L 264 72 L 263 73 L 262 73 L 262 74 L 264 76 L 263 77 L 262 77 L 262 79 L 263 79 L 264 80 L 263 81 L 262 81 L 261 82 L 262 83 L 263 83 L 264 84 L 263 85 L 260 85 L 259 86 L 239 86 L 238 85 L 233 85 L 232 86 L 232 87 L 233 87 L 234 88 L 234 90 L 235 90 L 236 91 L 237 90 L 259 90 L 260 91 L 261 90 L 262 91 L 263 90 L 264 91 L 266 91 L 267 90 L 268 91 L 270 91 L 271 90 L 272 91 L 290 91 L 291 92 L 290 93 L 289 93 L 288 94 L 284 94 L 284 95 L 286 95 L 287 94 L 288 95 L 290 95 L 291 96 L 290 97 L 288 97 L 287 98 L 279 98 L 278 97 L 273 97 L 272 96 L 273 95 L 280 95 L 281 94 L 282 95 L 282 94 L 279 94 L 278 93 L 268 93 L 267 94 L 266 94 L 266 95 L 269 95 L 270 96 L 269 97 L 267 97 L 266 98 L 266 99 L 265 100 L 264 100 L 263 101 L 244 101 L 242 99 L 242 98 L 225 98 L 224 97 L 223 98 L 222 97 L 177 97 L 176 98 L 175 98 L 173 100 L 159 100 L 157 98 L 157 97 L 156 96 L 156 95 L 157 94 L 157 92 L 159 90 L 169 90 L 170 91 L 171 90 L 172 91 L 173 90 L 175 90 L 175 85 L 173 83 L 173 81 L 172 81 L 171 80 L 169 80 L 168 79 L 168 78 L 167 78 L 166 77 L 165 77 L 164 76 L 151 76 L 150 77 L 148 77 L 148 79 L 147 80 L 130 80 L 129 81 L 127 81 L 126 82 L 126 83 L 125 84 L 122 84 L 121 85 L 121 86 L 122 87 L 121 88 L 120 88 L 119 89 L 119 90 L 120 91 L 119 92 L 118 92 L 118 94 L 119 94 L 120 95 L 119 96 L 118 96 L 117 97 L 118 98 L 123 98 L 124 99 L 123 100 L 116 100 L 115 101 L 105 101 L 104 100 L 103 101 L 99 101 L 98 102 L 98 103 L 99 104 L 98 105 L 98 106 L 97 107 L 97 109 L 96 110 L 96 111 L 97 112 L 95 114 L 94 114 L 93 115 L 92 115 L 92 116 L 91 117 L 82 117 L 81 118 L 81 119 L 82 120 L 81 121 L 72 121 L 71 122 L 70 121 L 68 123 L 68 124 L 67 125 L 67 131 L 68 132 L 68 138 L 69 139 L 71 139 L 72 140 L 73 139 L 81 139 L 82 140 L 83 139 L 84 140 L 86 140 L 87 139 L 89 141 L 88 142 L 82 142 L 83 142 L 86 145 L 85 146 L 84 146 L 84 149 L 83 150 L 82 150 L 82 154 L 83 154 L 84 155 L 85 155 L 86 156 L 87 156 L 88 157 L 89 156 L 90 156 L 91 155 L 94 155 L 95 154 L 104 154 L 104 153 L 103 152 L 104 151 L 189 151 L 190 150 L 190 149 L 189 148 L 189 147 L 190 146 L 189 146 L 188 145 L 187 145 L 186 144 L 187 143 L 189 143 L 190 142 L 190 141 L 186 141 L 185 142 L 183 142 L 182 141 L 181 142 L 177 142 L 176 141 L 171 141 L 170 140 L 171 139 L 174 139 L 175 138 L 189 138 L 190 139 L 224 139 L 225 138 L 226 139 L 227 138 L 228 139 L 246 139 L 247 138 L 248 139 L 249 138 L 250 139 L 251 138 L 252 139 L 253 138 L 254 139 L 255 138 L 256 139 L 257 138 L 258 139 L 259 138 L 260 139 L 261 138 L 262 139 L 263 138 L 264 139 L 265 138 L 266 139 L 267 138 L 268 139 L 269 138 L 270 139 L 271 138 L 272 139 L 273 138 L 274 139 L 275 138 L 276 139 L 277 138 L 278 139 L 283 139 L 284 138 L 284 137 L 247 137 L 246 136 L 246 135 L 247 134 L 248 135 L 249 134 L 250 135 L 251 134 L 252 135 L 253 134 L 254 134 L 247 134 L 246 133 L 245 133 L 244 132 L 244 131 L 245 130 L 246 131 L 247 130 L 257 130 L 258 131 L 259 130 L 260 131 L 286 131 L 287 130 L 305 130 L 305 129 L 304 128 L 295 128 L 294 127 L 295 126 L 304 126 L 304 125 L 295 125 L 294 124 L 294 123 L 295 122 L 334 122 L 335 123 L 336 123 L 337 122 L 341 122 L 342 123 L 343 123 L 345 125 L 345 126 L 346 127 L 346 128 L 345 129 L 345 131 L 343 133 L 318 133 L 317 134 L 318 135 L 318 140 L 317 141 L 300 141 L 299 142 L 298 141 L 293 141 L 292 142 L 293 142 L 295 144 L 294 145 L 294 146 L 295 146 L 296 147 L 306 147 L 307 146 L 308 147 L 311 147 L 312 148 L 311 149 L 308 149 L 307 150 L 306 149 L 300 149 L 299 150 L 298 149 L 296 149 L 295 150 L 294 150 L 294 152 L 293 153 L 274 153 L 273 154 L 274 155 L 275 155 L 276 156 L 274 158 L 275 159 L 275 160 L 274 161 L 272 161 L 271 162 L 270 161 L 246 161 L 245 162 L 244 161 L 243 162 L 242 161 L 241 162 L 240 161 L 239 162 L 238 161 L 237 162 L 236 161 L 235 162 L 234 161 L 233 162 L 232 161 L 231 162 L 230 161 L 229 162 L 228 161 L 227 162 L 226 161 L 225 162 L 224 161 L 223 162 L 222 161 L 221 162 L 220 161 L 219 162 L 218 161 L 217 162 L 216 161 L 215 162 L 214 161 L 213 162 L 195 162 L 194 161 L 193 162 L 191 162 L 190 161 L 189 162 L 187 162 L 186 161 L 185 162 L 179 162 L 178 161 L 177 162 L 176 161 L 175 162 L 174 161 L 173 162 L 172 161 L 171 162 L 170 161 L 169 162 L 168 161 L 167 162 L 166 161 L 165 162 L 164 161 L 163 162 L 162 161 L 161 162 L 160 161 L 159 162 L 158 161 L 157 162 L 156 161 L 155 162 L 154 161 L 153 162 L 152 161 L 151 162 L 150 161 L 149 162 L 148 161 L 147 162 L 146 161 L 145 162 L 144 161 L 143 162 L 142 161 L 141 162 L 140 161 L 139 162 L 138 161 L 137 162 L 136 161 L 135 162 L 134 161 L 126 161 L 125 162 L 124 162 L 125 162 L 126 163 L 145 163 L 146 164 L 145 165 L 144 165 L 143 166 L 142 165 L 140 165 L 139 166 L 138 165 L 137 166 L 136 166 L 137 166 L 138 167 L 139 166 L 140 167 L 141 166 L 142 167 L 143 166 L 144 167 L 197 167 L 198 166 L 197 166 L 195 164 L 196 163 L 213 163 L 214 164 L 213 165 L 212 165 L 211 166 L 210 165 L 209 166 L 204 166 L 209 166 L 210 167 L 211 166 L 212 167 L 265 167 L 266 168 L 265 169 L 236 169 L 235 170 L 234 169 L 233 170 L 216 170 L 221 170 L 222 171 L 223 170 L 224 171 L 226 171 L 227 170 L 228 171 L 230 171 L 231 170 L 232 171 L 265 171 L 266 172 L 265 173 L 222 173 L 221 174 L 216 174 L 217 174 L 218 175 L 219 174 L 220 175 L 256 175 L 257 176 L 256 177 L 238 177 L 238 178 L 239 178 L 240 179 L 242 179 L 243 180 L 242 181 L 240 181 L 239 182 L 238 182 L 238 183 L 243 183 L 244 184 L 243 185 L 228 185 L 227 186 L 226 185 L 225 186 L 224 185 L 223 186 L 222 185 L 155 185 L 154 184 L 155 183 L 219 183 L 220 182 L 219 182 L 218 181 L 190 181 L 189 182 L 183 182 L 182 181 L 181 182 L 179 182 L 178 181 L 177 182 L 175 182 L 174 181 L 173 182 L 171 182 L 170 181 L 169 182 L 159 182 L 158 181 L 155 181 L 154 180 L 155 179 L 220 179 L 220 178 L 219 178 L 218 177 L 190 177 L 189 178 L 188 177 L 187 178 L 186 177 L 185 178 L 184 177 L 183 178 L 182 177 L 181 178 L 180 177 L 179 178 L 178 177 L 177 178 L 176 177 L 175 178 L 174 177 L 173 178 L 172 177 L 171 178 L 170 177 L 169 178 L 168 177 L 167 178 L 166 177 L 165 178 L 163 178 L 162 177 L 161 178 L 160 177 L 159 178 L 158 177 L 152 177 L 151 178 L 153 180 L 150 183 L 151 183 L 152 184 L 151 185 L 144 185 L 143 186 L 144 186 L 145 187 L 146 187 L 147 186 L 153 186 L 154 187 L 155 187 L 156 188 L 155 189 L 154 189 L 153 190 L 155 192 L 153 194 L 152 194 L 153 194 L 155 196 L 153 198 L 155 200 L 153 202 L 152 202 L 153 203 L 153 204 L 152 205 L 122 205 L 121 206 L 121 207 L 122 208 L 122 219 L 138 219 L 139 220 L 137 222 L 139 224 L 138 225 L 138 226 L 139 226 L 140 227 L 147 227 L 148 228 L 147 229 L 145 229 L 144 230 L 145 230 L 146 231 L 147 231 L 148 232 L 147 233 L 145 233 L 144 234 L 143 234 L 142 233 L 141 234 L 140 233 L 139 234 L 138 233 L 137 234 L 136 233 L 135 234 L 134 233 L 133 234 L 127 234 L 126 233 L 125 234 L 124 233 L 123 234 L 113 234 L 112 233 L 111 234 L 110 234 L 110 235 L 112 237 L 114 237 L 115 236 L 121 236 L 122 237 L 123 237 L 124 238 L 125 238 L 126 239 L 127 239 L 128 240 L 128 242 L 129 243 L 129 244 L 130 245 L 137 245 L 138 244 L 161 244 L 162 243 L 175 243 L 176 244 L 177 243 L 179 243 L 180 244 L 182 244 L 183 243 L 184 244 L 186 244 L 187 243 L 188 244 L 202 244 L 203 243 L 204 244 L 205 243 L 234 243 L 235 242 L 249 242 L 250 243 L 252 243 L 253 242 L 253 238 L 252 237 L 251 237 L 250 236 L 249 237 L 243 237 L 242 236 L 242 235 L 243 234 L 259 234 L 260 235 L 268 235 L 269 234 L 269 233 L 268 232 L 268 231 L 269 230 L 268 229 L 260 229 L 259 230 L 258 229 L 257 229 L 256 228 L 258 226 L 256 224 L 258 222 L 277 222 L 278 221 L 278 220 L 279 219 L 280 220 L 281 219 L 284 219 L 286 217 L 286 216 L 285 215 L 286 214 L 286 213 L 287 212 L 288 213 L 289 212 L 290 212 L 291 211 L 293 211 L 294 210 L 294 208 L 295 207 L 294 206 L 295 205 L 296 205 L 296 203 L 296 204 L 295 205 L 294 204 L 294 193 L 295 192 L 296 193 L 297 192 L 298 193 L 299 192 L 300 193 L 301 193 L 302 194 L 302 196 L 301 197 L 302 198 L 301 199 L 300 199 L 300 201 L 301 202 L 300 203 L 298 203 L 298 205 L 299 204 L 300 205 L 306 205 L 307 204 L 309 204 L 310 203 L 321 203 L 322 202 L 322 197 L 321 196 L 321 193 L 320 192 L 320 191 L 319 192 L 318 191 L 317 192 L 316 191 L 315 192 L 314 191 L 314 185 L 315 184 L 316 185 L 317 184 L 318 185 L 319 184 L 320 185 L 322 185 L 322 175 L 323 174 L 324 175 L 326 175 L 327 174 L 328 175 L 328 176 L 329 175 L 330 176 L 330 177 L 330 175 L 331 174 L 332 175 L 332 177 L 332 176 L 333 175 L 334 176 L 334 177 L 334 175 L 335 174 L 336 175 L 336 177 L 336 174 L 337 173 L 336 172 L 339 169 L 346 169 L 347 168 L 348 169 L 349 168 L 350 169 L 351 168 L 352 169 L 353 168 L 354 169 L 355 168 L 356 169 L 370 169 L 371 168 L 372 169 L 374 169 L 376 171 L 376 172 L 375 173 L 375 174 L 374 175 L 373 175 L 372 176 L 370 176 L 370 178 L 369 179 L 368 179 L 367 180 L 366 179 L 365 180 L 364 179 L 363 180 L 362 179 L 360 179 L 359 180 L 358 179 L 348 179 L 347 180 L 346 179 L 345 180 L 344 179 L 343 180 L 342 179 L 341 180 L 340 179 L 339 180 L 338 179 L 336 179 L 335 180 L 334 179 L 333 180 L 332 179 L 332 181 L 343 181 L 344 182 L 343 183 L 336 183 L 335 184 L 334 183 L 332 183 L 331 184 L 330 183 L 328 183 L 327 184 L 326 183 L 326 184 L 325 185 L 324 184 L 324 183 L 324 185 L 327 185 L 328 186 L 327 187 L 320 187 L 320 189 L 322 189 L 323 188 L 324 189 L 358 189 L 359 188 L 360 189 L 361 189 L 362 190 L 362 193 L 363 194 L 362 195 L 362 197 L 363 198 L 362 199 L 362 202 L 361 203 L 350 203 L 350 210 L 349 211 L 342 211 L 342 212 L 344 214 L 343 215 L 343 216 L 344 217 L 342 219 L 334 219 L 334 220 L 335 221 L 350 221 L 351 220 L 353 220 L 354 221 L 355 220 L 356 221 L 358 221 L 359 222 L 358 223 L 356 223 L 356 224 L 357 225 L 358 225 L 359 226 L 358 227 L 354 227 L 353 228 L 344 228 L 343 229 L 343 230 L 342 231 L 320 231 L 319 232 L 319 233 L 320 234 L 319 235 L 311 235 L 310 236 L 310 237 L 311 238 L 310 239 L 310 242 L 309 243 L 291 243 L 289 245 L 290 246 L 289 247 L 288 247 L 287 248 L 287 249 L 288 250 L 287 251 L 267 251 L 267 256 L 268 257 L 275 257 L 276 258 L 275 259 L 268 259 L 268 261 L 275 261 L 276 262 L 275 263 L 252 263 L 251 264 L 251 265 L 252 265 L 253 266 L 252 267 L 252 268 L 253 269 L 265 269 L 266 270 L 265 271 L 260 271 L 259 272 L 258 271 L 231 271 L 230 272 L 230 273 L 231 274 L 230 275 L 230 276 L 231 276 L 232 277 L 234 277 L 235 276 L 245 276 L 246 277 L 251 277 L 252 278 L 251 279 L 244 279 L 243 280 L 242 279 L 241 280 L 240 279 L 239 280 L 238 279 L 236 279 L 235 280 L 234 279 L 228 279 L 227 280 L 226 279 L 226 278 L 224 276 L 225 275 L 225 274 L 224 273 L 202 273 L 202 279 L 209 279 L 210 280 L 210 287 L 211 287 L 212 288 L 220 288 L 221 289 L 223 289 L 224 290 L 223 291 L 222 291 L 222 293 L 223 294 L 222 295 L 222 297 L 223 298 L 222 299 L 222 301 L 223 301 L 224 302 L 224 304 L 229 304 L 230 305 L 235 305 L 236 306 L 235 307 L 231 307 L 231 309 L 232 310 L 231 311 L 230 311 L 230 313 L 231 314 L 230 315 L 230 321 L 239 321 L 240 322 L 239 323 L 238 323 L 238 325 L 239 325 L 240 326 L 239 327 L 238 327 L 238 329 L 239 329 L 240 330 L 239 331 L 229 331 L 229 333 L 228 334 L 228 337 L 227 338 L 207 338 L 205 340 L 198 340 L 198 343 L 197 344 L 197 345 L 198 346 L 196 348 L 188 348 L 188 354 L 189 355 L 188 356 L 188 357 L 189 358 L 189 359 L 188 360 L 188 361 L 189 362 L 189 365 L 191 367 L 191 368 L 192 369 L 193 369 L 194 370 L 195 370 L 196 371 L 196 372 L 198 372 L 199 373 L 203 373 L 204 374 L 205 373 L 206 374 L 207 373 L 210 373 L 211 372 L 212 372 L 212 371 L 211 370 L 212 369 L 216 369 L 217 368 L 218 368 L 218 367 L 217 366 L 218 365 L 222 365 L 223 364 L 224 364 L 224 362 L 225 361 L 242 361 L 243 360 L 244 360 L 244 358 L 245 357 L 258 357 L 259 356 L 257 354 L 258 353 L 261 353 L 262 352 L 261 352 L 260 351 L 235 351 L 234 350 L 235 349 L 262 349 L 262 348 L 259 348 L 258 347 L 243 347 L 242 346 L 243 345 L 258 345 L 259 344 L 260 345 L 261 344 L 262 344 L 259 344 L 258 343 L 243 343 L 242 342 L 243 341 L 266 341 L 267 340 L 266 339 L 252 339 L 251 340 L 250 339 L 243 339 L 242 338 L 243 337 L 257 337 L 257 336 L 256 335 L 243 335 L 242 334 L 243 333 L 256 333 L 257 332 L 256 331 L 241 331 L 240 330 L 241 329 L 256 329 L 257 328 L 256 327 L 252 327 L 251 328 L 250 327 L 247 327 L 246 326 L 247 325 L 290 325 L 290 323 L 258 323 L 257 322 L 259 320 L 258 319 L 257 319 L 256 318 L 258 316 L 258 315 L 257 315 L 256 314 L 257 313 L 266 313 L 267 312 L 268 313 L 303 313 L 304 312 L 303 311 L 301 311 L 300 310 L 302 308 L 301 308 L 300 307 L 298 307 L 297 308 L 276 308 L 293 308 L 294 309 L 295 308 L 296 309 L 299 309 L 300 310 L 299 311 L 267 311 L 266 310 L 267 309 L 270 309 L 271 308 L 274 308 L 267 308 L 266 307 L 265 307 L 264 306 L 265 305 L 274 305 L 275 304 L 276 305 L 301 305 L 302 304 L 300 302 L 302 300 L 300 298 L 301 297 L 308 297 L 309 296 L 310 296 L 310 294 L 311 293 L 339 293 L 340 294 L 348 294 L 349 293 L 350 293 L 350 292 L 349 291 L 349 288 L 348 287 L 349 286 L 350 286 L 351 285 L 355 285 L 356 286 L 360 286 L 361 285 L 362 285 L 362 284 L 361 283 L 361 282 L 362 281 L 362 280 L 363 279 L 366 279 L 367 278 L 368 279 L 371 279 L 372 280 L 373 280 L 374 281 L 412 281 L 414 279 L 414 274 L 415 273 L 432 273 L 433 272 L 436 272 L 437 271 L 438 272 L 439 271 L 440 272 L 441 271 L 442 272 L 443 271 L 444 272 L 445 272 L 446 273 L 446 274 L 447 274 L 448 275 L 448 276 L 447 277 L 447 280 L 446 281 L 448 283 L 448 284 L 447 285 L 447 286 L 448 287 L 447 288 L 446 288 L 445 289 L 439 289 L 438 288 L 437 289 L 436 288 L 435 289 L 434 288 L 433 289 L 393 289 L 392 288 L 391 289 L 390 289 L 390 290 L 391 291 L 390 292 L 390 294 L 394 294 L 395 293 L 396 294 L 397 293 L 398 294 L 399 293 L 400 294 L 402 294 L 403 293 L 404 294 L 407 294 L 408 295 L 407 296 L 405 296 L 404 297 L 395 297 L 394 296 L 390 296 L 389 297 L 388 297 L 388 299 L 387 300 L 386 300 L 386 305 L 387 305 L 389 307 L 389 308 L 388 309 L 389 309 L 390 310 L 390 315 L 388 317 L 379 317 L 378 316 L 374 316 L 373 317 L 372 317 L 373 318 L 373 320 L 372 321 L 373 321 L 374 322 L 376 322 L 377 321 L 389 321 L 390 322 L 393 322 L 394 323 L 396 323 L 398 325 L 398 333 L 402 333 L 404 331 L 406 331 L 407 330 L 408 331 L 409 330 L 410 331 L 411 330 L 412 331 L 413 331 L 414 332 L 414 333 L 415 334 L 415 335 L 414 336 L 414 341 L 420 341 L 421 340 L 422 341 L 423 340 L 425 340 L 426 339 L 429 339 L 430 340 L 430 341 L 430 339 L 431 338 L 432 339 L 432 341 L 453 341 L 454 342 L 453 343 L 431 343 L 431 344 L 430 345 L 431 345 L 432 346 L 431 347 L 430 347 L 430 348 L 429 349 L 422 349 L 423 350 L 422 351 L 422 353 L 423 354 L 420 357 L 409 357 L 407 359 L 407 360 L 406 361 L 407 362 L 403 366 L 402 366 L 401 367 L 400 367 L 400 368 L 402 370 L 401 371 L 401 372 L 402 373 L 402 377 L 403 378 L 402 379 L 402 381 L 403 382 L 402 383 L 385 383 L 386 384 L 386 385 L 389 385 L 390 386 L 389 387 L 391 387 L 392 388 L 393 388 L 395 390 L 394 391 L 393 391 L 394 392 L 394 393 L 395 394 L 394 395 L 394 397 L 395 398 L 394 399 L 393 399 L 393 401 L 391 403 L 389 403 L 388 402 L 387 402 L 386 403 L 385 403 L 385 404 L 386 405 L 435 405 L 436 406 L 437 405 L 438 405 L 438 404 L 431 404 L 429 402 L 430 401 L 436 401 L 437 400 L 437 399 L 436 398 L 436 397 L 437 396 L 437 395 L 436 394 L 437 393 L 438 393 L 439 392 L 440 393 L 444 393 L 445 392 L 445 391 L 444 390 L 445 389 L 445 387 L 444 386 L 445 385 L 460 385 L 461 384 L 461 383 L 460 382 L 460 379 L 459 379 L 458 378 L 459 377 L 460 377 L 460 375 L 459 375 L 458 374 L 459 373 L 460 373 L 460 371 L 459 371 L 458 370 L 459 369 L 460 369 L 460 367 L 459 366 L 460 365 L 461 365 L 461 363 L 460 362 L 460 360 L 461 359 L 460 358 L 460 357 L 462 355 L 469 355 L 468 354 L 469 353 L 469 352 L 470 351 L 469 351 L 468 350 L 471 347 L 471 346 L 472 345 L 473 345 L 474 344 L 474 343 L 473 343 L 472 342 L 473 341 L 476 341 L 478 339 L 478 332 L 479 331 L 483 331 L 484 332 L 485 331 L 486 332 L 487 331 L 488 331 L 488 330 L 486 328 L 486 324 L 487 323 L 490 323 L 491 322 L 494 322 L 494 320 L 493 319 L 494 318 L 494 317 L 493 317 L 491 315 L 492 314 L 494 314 L 494 312 L 495 311 L 496 311 L 497 310 L 512 310 L 512 303 L 513 302 L 513 301 L 512 300 L 512 299 L 513 298 L 513 297 L 512 296 L 512 295 L 513 294 L 513 293 L 512 292 L 512 291 L 513 290 L 513 289 L 512 288 L 508 288 L 507 289 L 506 288 L 492 288 L 491 289 L 490 288 L 488 288 L 487 289 L 486 288 L 483 288 L 482 287 L 483 286 L 502 286 L 503 285 L 504 285 L 503 285 L 502 284 L 501 285 L 500 284 L 499 285 L 498 284 L 497 285 L 495 285 L 494 284 L 493 285 L 491 285 L 490 284 L 489 285 L 487 285 L 486 284 L 485 285 L 484 284 L 483 285 L 482 284 L 482 283 L 483 282 L 504 282 L 504 281 L 503 281 L 502 280 L 500 280 L 499 281 L 498 280 L 497 281 L 496 280 L 495 281 L 494 280 L 493 281 L 492 280 L 491 281 L 490 280 L 489 281 L 487 281 L 486 280 L 485 281 L 484 280 L 483 280 L 482 279 L 483 278 L 510 278 L 512 280 L 517 280 L 518 281 L 518 283 L 519 284 L 519 286 L 522 289 L 522 291 L 523 292 L 523 293 L 522 294 L 522 295 L 523 296 L 523 297 L 522 298 L 524 300 L 525 299 L 526 299 L 526 266 L 525 265 L 526 264 L 526 238 L 525 237 L 518 237 L 517 238 L 516 238 L 515 239 L 511 239 L 510 238 L 509 238 L 508 237 L 507 237 L 506 236 L 506 234 L 505 234 L 504 233 L 504 231 L 505 230 L 506 230 L 505 230 L 504 229 L 504 227 L 505 226 L 506 227 L 507 226 L 518 226 L 519 225 L 520 226 L 525 226 L 526 225 L 526 224 L 525 223 L 526 222 L 526 220 L 525 219 L 526 218 L 526 217 L 525 217 L 524 216 L 523 217 L 517 217 L 518 218 L 516 220 L 511 220 L 510 219 L 509 219 L 508 218 L 508 217 L 502 217 L 501 216 L 502 215 L 502 213 L 501 213 L 500 212 L 503 209 L 516 209 L 513 206 L 514 205 L 514 203 L 515 202 L 522 202 L 523 203 L 525 203 L 526 202 L 526 196 L 525 195 L 526 194 L 526 184 L 525 183 L 525 178 L 526 177 L 526 77 L 525 76 L 525 74 L 526 73 L 525 72 L 525 71 L 526 70 L 526 69 L 525 68 L 526 67 L 526 61 L 525 60 L 526 59 L 526 57 L 525 56 L 526 55 L 526 53 L 525 52 L 525 51 L 526 50 L 526 45 L 525 44 L 526 43 L 526 41 L 525 40 L 526 39 L 526 37 L 525 36 L 526 35 L 526 33 L 525 32 L 526 31 L 526 29 L 525 28 L 526 27 L 526 25 L 525 24 L 526 23 L 526 21 L 525 20 L 523 20 L 522 21 L 496 21 L 495 20 L 495 17 L 494 17 L 493 16 L 494 15 L 494 13 L 493 13 L 492 12 L 493 11 L 493 9 L 492 8 L 493 7 L 493 6 L 494 5 L 426 5 L 425 6 L 411 6 L 410 5 "></path>
        <path fill="none" stroke="#ffffff" stroke-width="3" d="M 334 74 L 335 73 L 337 73 L 338 74 L 339 73 L 340 74 L 345 74 L 346 75 L 346 76 L 345 77 L 344 77 L 344 78 L 367 78 L 368 79 L 368 80 L 367 81 L 342 81 L 342 82 L 343 82 L 344 83 L 345 82 L 346 83 L 347 82 L 365 82 L 366 83 L 367 83 L 368 84 L 367 85 L 340 85 L 340 87 L 338 89 L 339 90 L 365 90 L 366 91 L 367 91 L 368 92 L 367 93 L 365 93 L 366 94 L 375 94 L 376 95 L 376 96 L 375 97 L 365 97 L 366 98 L 366 100 L 365 101 L 362 101 L 364 103 L 364 104 L 363 105 L 362 105 L 363 105 L 364 106 L 365 106 L 367 108 L 366 109 L 366 110 L 368 112 L 367 113 L 366 113 L 366 114 L 367 114 L 368 115 L 369 115 L 370 116 L 369 117 L 335 117 L 334 116 L 327 116 L 326 115 L 327 114 L 342 114 L 342 113 L 341 113 L 340 112 L 342 110 L 342 109 L 333 109 L 332 108 L 327 108 L 326 109 L 311 109 L 310 108 L 310 106 L 308 104 L 311 101 L 312 102 L 313 101 L 314 102 L 315 101 L 316 101 L 316 100 L 318 98 L 329 98 L 329 97 L 328 96 L 328 93 L 327 93 L 326 92 L 328 90 L 328 89 L 327 89 L 326 88 L 326 87 L 327 86 L 328 86 L 328 85 L 327 85 L 326 84 L 326 83 L 327 82 L 328 82 L 329 81 L 330 81 L 329 80 L 330 79 L 332 79 L 334 77 L 333 77 L 332 76 L 333 75 L 334 75 "></path>
        <path fill="none" stroke="#ffffff" stroke-width="3" d="M 350 132 L 351 131 L 373 131 L 374 132 L 374 133 L 373 134 L 374 135 L 374 137 L 373 138 L 374 139 L 374 141 L 373 142 L 373 143 L 374 144 L 374 145 L 373 146 L 372 146 L 374 148 L 374 149 L 373 150 L 373 151 L 374 152 L 374 153 L 373 154 L 372 154 L 373 155 L 373 157 L 372 158 L 373 158 L 374 159 L 378 159 L 379 158 L 380 159 L 382 159 L 383 160 L 383 161 L 384 162 L 385 162 L 386 163 L 385 164 L 384 164 L 381 167 L 380 167 L 379 168 L 376 168 L 375 169 L 374 168 L 373 168 L 372 167 L 372 166 L 359 166 L 358 165 L 357 165 L 356 164 L 358 162 L 357 161 L 357 159 L 358 158 L 342 158 L 340 156 L 342 154 L 341 154 L 340 153 L 340 152 L 342 150 L 341 149 L 341 147 L 342 146 L 341 145 L 341 143 L 342 142 L 341 141 L 343 139 L 352 139 L 352 138 L 350 136 "></path>
        <path fill="none" stroke="#ffffff" stroke-width="3" d="M 340 64 L 341 63 L 349 63 L 350 64 L 350 65 L 351 66 L 353 66 L 354 67 L 354 68 L 353 69 L 352 69 L 352 70 L 366 70 L 366 69 L 355 69 L 354 68 L 354 67 L 355 66 L 356 67 L 357 66 L 358 67 L 359 66 L 360 67 L 361 66 L 362 67 L 363 66 L 373 66 L 374 67 L 378 67 L 379 66 L 382 66 L 383 65 L 383 64 L 384 63 L 388 63 L 389 64 L 389 65 L 390 65 L 392 67 L 390 69 L 391 70 L 423 70 L 424 71 L 427 71 L 428 72 L 427 73 L 426 73 L 426 75 L 427 75 L 428 76 L 426 78 L 426 80 L 425 81 L 406 81 L 406 83 L 407 84 L 406 85 L 406 86 L 407 86 L 408 87 L 408 88 L 407 89 L 406 89 L 406 90 L 407 91 L 405 93 L 399 93 L 397 91 L 398 90 L 398 89 L 397 89 L 396 88 L 396 87 L 397 86 L 398 86 L 398 85 L 397 84 L 397 83 L 398 82 L 398 81 L 391 81 L 389 79 L 389 77 L 383 77 L 382 76 L 382 74 L 381 73 L 379 73 L 378 72 L 377 72 L 376 71 L 377 70 L 378 70 L 378 69 L 374 69 L 374 70 L 375 70 L 376 71 L 375 72 L 374 72 L 373 73 L 346 73 L 345 72 L 345 71 L 344 70 L 343 70 L 341 68 L 342 67 L 342 65 L 341 65 "></path>
        <path fill="none" stroke="#ffffff" stroke-width="3" d="M 422 46 L 423 45 L 424 46 L 425 45 L 426 46 L 430 46 L 431 47 L 429 49 L 430 50 L 439 50 L 440 51 L 441 50 L 442 51 L 443 50 L 444 51 L 445 50 L 446 51 L 447 50 L 449 50 L 450 51 L 451 50 L 452 51 L 453 50 L 454 51 L 455 50 L 456 51 L 457 50 L 458 51 L 459 50 L 461 50 L 462 51 L 463 50 L 464 51 L 465 50 L 466 51 L 466 52 L 465 53 L 438 53 L 438 54 L 439 54 L 440 55 L 441 54 L 442 55 L 443 54 L 445 54 L 446 55 L 447 54 L 449 54 L 450 55 L 451 54 L 453 54 L 454 55 L 455 54 L 465 54 L 466 55 L 467 54 L 468 55 L 469 54 L 470 54 L 470 53 L 469 53 L 468 52 L 468 51 L 469 50 L 470 50 L 470 49 L 469 48 L 470 47 L 474 47 L 475 46 L 476 47 L 502 47 L 503 46 L 504 47 L 507 47 L 508 48 L 506 50 L 508 52 L 506 54 L 506 55 L 507 55 L 508 56 L 507 57 L 484 57 L 483 58 L 482 57 L 476 57 L 475 58 L 474 57 L 473 58 L 472 57 L 471 58 L 470 57 L 468 57 L 467 58 L 466 57 L 465 58 L 464 57 L 464 59 L 466 59 L 467 58 L 468 59 L 475 59 L 476 60 L 475 61 L 472 61 L 471 62 L 470 61 L 468 61 L 467 62 L 466 61 L 464 61 L 463 62 L 462 61 L 461 62 L 460 61 L 459 62 L 458 61 L 457 62 L 456 61 L 446 61 L 445 60 L 446 59 L 454 59 L 455 58 L 456 59 L 457 58 L 458 59 L 458 58 L 457 58 L 456 57 L 455 58 L 454 57 L 423 57 L 422 56 L 422 53 L 421 53 L 420 52 L 422 50 L 422 49 L 421 49 L 420 48 L 421 47 L 422 47 "></path>
        <path fill="none" stroke="#ffffff" stroke-width="3" d="M 84 169 L 83 170 L 82 170 L 82 172 L 81 173 L 69 173 L 69 174 L 70 175 L 82 175 L 83 174 L 84 175 L 85 174 L 86 175 L 87 174 L 128 174 L 129 175 L 138 175 L 139 174 L 140 175 L 141 174 L 142 175 L 143 174 L 144 175 L 212 175 L 213 174 L 214 174 L 205 174 L 204 173 L 203 174 L 202 173 L 201 174 L 200 173 L 199 174 L 198 173 L 197 174 L 196 173 L 195 174 L 194 173 L 193 174 L 192 173 L 191 174 L 190 173 L 189 174 L 188 173 L 187 174 L 186 173 L 185 174 L 184 173 L 183 174 L 182 173 L 181 174 L 180 173 L 179 174 L 178 173 L 177 174 L 176 173 L 175 174 L 174 173 L 173 174 L 172 173 L 171 174 L 170 173 L 169 174 L 168 173 L 167 174 L 166 173 L 165 174 L 164 173 L 163 174 L 162 173 L 161 174 L 160 173 L 159 174 L 158 173 L 156 173 L 155 174 L 154 173 L 149 173 L 148 172 L 149 171 L 212 171 L 213 170 L 214 170 L 197 170 L 196 169 L 195 170 L 194 169 L 193 170 L 192 169 L 191 170 L 190 169 L 189 170 L 188 169 L 187 170 L 186 169 L 185 170 L 184 169 L 183 170 L 182 169 L 181 170 L 180 169 L 179 170 L 178 169 L 177 170 L 176 169 L 175 170 L 174 169 L 173 170 L 172 169 L 171 170 L 170 169 L 169 170 L 168 169 L 167 170 L 166 169 L 165 170 L 163 170 L 162 169 L 161 170 L 160 169 L 159 170 L 158 169 L 156 169 L 155 170 L 154 169 L 152 169 L 151 170 L 150 169 L 146 169 L 145 170 L 135 170 L 134 169 L 133 170 L 119 170 L 118 169 L 117 170 L 116 169 L 115 170 L 114 169 L 113 170 L 112 169 L 111 170 L 110 169 L 109 170 L 108 169 L 107 170 L 106 169 L 105 170 L 103 170 L 102 169 L 101 170 L 99 170 L 98 169 L 97 170 L 96 169 "></path>
        <path fill="none" stroke="#ffffff" stroke-width="3" d="M 458 63 L 459 62 L 460 63 L 462 63 L 463 62 L 464 63 L 466 63 L 467 62 L 468 63 L 470 63 L 471 62 L 472 63 L 474 63 L 475 62 L 476 63 L 482 63 L 483 62 L 484 63 L 486 63 L 487 62 L 488 63 L 490 63 L 491 62 L 492 63 L 520 63 L 521 64 L 520 65 L 476 65 L 476 67 L 477 66 L 478 67 L 520 67 L 521 68 L 520 69 L 478 69 L 477 70 L 476 69 L 475 70 L 474 69 L 473 70 L 472 69 L 471 70 L 470 69 L 469 70 L 468 69 L 467 70 L 466 69 L 465 70 L 464 69 L 464 71 L 465 70 L 466 71 L 467 70 L 468 71 L 488 71 L 489 72 L 488 73 L 470 73 L 469 74 L 468 73 L 468 74 L 469 74 L 470 75 L 489 75 L 490 76 L 489 77 L 470 77 L 469 78 L 468 77 L 467 78 L 466 77 L 463 77 L 462 76 L 463 75 L 466 75 L 466 73 L 439 73 L 438 72 L 439 71 L 458 71 L 459 70 L 460 71 L 462 71 L 462 69 L 461 70 L 460 69 L 459 70 L 458 69 L 455 69 L 454 68 L 455 67 L 458 67 L 459 66 L 460 67 L 461 66 L 462 67 L 463 66 L 464 67 L 465 66 L 466 67 L 467 66 L 468 67 L 470 67 L 471 66 L 472 67 L 473 66 L 474 67 L 474 65 L 473 66 L 472 65 L 471 66 L 470 65 L 469 66 L 468 65 L 467 66 L 466 65 L 465 66 L 464 65 L 463 66 L 462 65 L 461 66 L 460 65 L 459 66 L 458 65 L 437 65 L 436 64 L 437 63 "></path>
        <path fill="none" stroke="#ffffff" stroke-width="3" d="M 190 100 L 191 99 L 228 99 L 229 100 L 228 101 L 222 101 L 221 102 L 227 102 L 228 103 L 229 103 L 230 104 L 229 105 L 228 105 L 227 106 L 194 106 L 193 105 L 190 105 L 189 104 L 191 102 L 193 102 L 192 101 L 191 101 "></path>
        <path fill="none" stroke="#ffffff" stroke-width="3" d="M 340 56 L 341 55 L 358 55 L 359 56 L 359 57 L 360 58 L 377 58 L 378 59 L 378 60 L 377 61 L 362 61 L 362 62 L 373 62 L 374 63 L 374 64 L 373 65 L 354 65 L 353 64 L 353 63 L 352 62 L 351 62 L 350 61 L 348 61 L 347 62 L 343 62 L 342 61 L 341 61 L 340 60 L 341 59 L 342 59 L 342 57 L 341 57 "></path>
        <path fill="none" stroke="#ffffff" stroke-width="3" d="M 426 99 L 427 98 L 429 98 L 430 99 L 445 99 L 446 100 L 446 101 L 445 102 L 444 102 L 446 104 L 446 105 L 445 106 L 438 106 L 438 107 L 437 108 L 436 108 L 435 109 L 433 109 L 432 110 L 430 110 L 432 110 L 434 112 L 432 114 L 433 114 L 434 115 L 432 117 L 427 117 L 426 116 L 426 115 L 427 114 L 428 114 L 427 114 L 426 113 L 425 113 L 424 112 L 425 111 L 426 111 L 427 110 L 428 110 L 427 110 L 425 108 L 425 107 L 426 106 L 426 105 L 425 105 L 424 104 L 426 102 L 426 101 L 425 101 L 424 100 L 425 99 "></path>
        <path fill="none" stroke="#ffffff" stroke-width="3" d="M 222 63 L 223 62 L 224 63 L 225 62 L 226 63 L 227 62 L 228 63 L 229 62 L 230 63 L 231 62 L 232 63 L 233 62 L 234 63 L 235 62 L 236 63 L 237 62 L 238 63 L 239 62 L 240 63 L 246 63 L 247 62 L 253 62 L 254 63 L 262 63 L 263 62 L 264 63 L 266 63 L 267 62 L 268 63 L 270 63 L 271 62 L 272 63 L 274 63 L 275 62 L 276 63 L 278 63 L 279 62 L 280 63 L 281 62 L 282 63 L 283 62 L 284 63 L 287 63 L 288 64 L 287 65 L 254 65 L 253 66 L 252 66 L 253 66 L 254 67 L 254 68 L 253 69 L 246 69 L 245 68 L 245 67 L 246 66 L 246 65 L 219 65 L 218 64 L 219 63 "></path>
        <path fill="none" stroke="#ffffff" stroke-width="3" d="M 156 200 L 157 199 L 247 199 L 248 200 L 247 201 L 157 201 "></path>
        <path fill="none" stroke="#ffffff" stroke-width="3" d="M 157 192 L 158 191 L 247 191 L 248 192 L 247 193 L 158 193 "></path>
        <path fill="none" stroke="#ffffff" stroke-width="3" d="M 157 196 L 158 195 L 247 195 L 248 196 L 247 197 L 158 197 "></path>
        <path fill="none" stroke="#ffffff" stroke-width="3" d="M 214 55 L 215 54 L 216 55 L 217 54 L 218 55 L 219 54 L 220 55 L 221 54 L 222 55 L 223 54 L 224 55 L 225 54 L 226 55 L 227 54 L 228 55 L 230 55 L 231 54 L 232 55 L 234 55 L 235 54 L 236 55 L 238 55 L 239 54 L 240 55 L 242 55 L 243 54 L 244 55 L 246 55 L 247 54 L 248 55 L 250 55 L 251 54 L 252 55 L 254 55 L 255 54 L 256 55 L 258 55 L 259 54 L 260 55 L 262 55 L 263 54 L 264 55 L 266 55 L 267 54 L 268 55 L 270 55 L 271 54 L 272 55 L 274 55 L 275 54 L 276 55 L 278 55 L 279 54 L 280 55 L 282 55 L 283 54 L 284 55 L 285 55 L 286 56 L 285 57 L 215 57 L 214 56 "></path>
        <path fill="none" stroke="#ffffff" stroke-width="3" d="M 222 47 L 223 46 L 224 47 L 225 46 L 226 47 L 227 46 L 228 47 L 230 47 L 231 46 L 232 47 L 234 47 L 235 46 L 236 47 L 238 47 L 239 46 L 240 47 L 242 47 L 243 46 L 244 47 L 246 47 L 247 46 L 248 47 L 250 47 L 251 46 L 252 47 L 254 47 L 255 46 L 256 47 L 258 47 L 259 46 L 260 47 L 262 47 L 263 46 L 264 47 L 266 47 L 267 46 L 268 47 L 282 47 L 283 46 L 284 47 L 286 47 L 287 46 L 288 47 L 289 46 L 290 47 L 291 46 L 293 48 L 292 49 L 223 49 L 222 48 "></path>
        <path fill="none" stroke="#ffffff" stroke-width="3" d="M 452 214 L 453 213 L 457 213 L 458 214 L 465 214 L 466 215 L 465 216 L 458 216 L 457 217 L 456 217 L 457 217 L 458 218 L 465 218 L 466 219 L 465 220 L 458 220 L 457 221 L 451 221 L 450 220 L 449 221 L 448 220 L 447 221 L 446 220 L 445 221 L 443 221 L 442 220 L 441 221 L 439 221 L 438 220 L 437 221 L 435 221 L 434 220 L 433 221 L 431 221 L 430 220 L 429 221 L 427 221 L 426 220 L 425 221 L 423 221 L 422 220 L 422 219 L 423 218 L 452 218 L 453 217 L 454 217 L 452 215 "></path>
        <path fill="none" stroke="#ffffff" stroke-width="3" d="M 156 188 L 157 187 L 229 187 L 230 188 L 229 189 L 224 189 L 223 190 L 222 189 L 157 189 "></path>
        <path fill="none" stroke="#ffffff" stroke-width="3" d="M 222 51 L 223 50 L 224 51 L 225 50 L 226 51 L 227 50 L 228 51 L 230 51 L 231 50 L 232 51 L 234 51 L 235 50 L 236 51 L 238 51 L 239 50 L 240 51 L 242 51 L 243 50 L 244 51 L 246 51 L 247 50 L 248 51 L 250 51 L 251 50 L 252 51 L 254 51 L 255 50 L 256 51 L 258 51 L 259 50 L 260 51 L 262 51 L 263 50 L 264 51 L 266 51 L 267 50 L 268 51 L 278 51 L 279 50 L 280 51 L 284 51 L 285 52 L 284 53 L 223 53 L 222 52 "></path>
        <path fill="none" stroke="#ffffff" stroke-width="3" d="M 238 43 L 239 42 L 240 43 L 242 43 L 243 42 L 244 43 L 246 43 L 247 42 L 248 43 L 250 43 L 251 42 L 252 43 L 254 43 L 255 42 L 256 43 L 258 43 L 259 42 L 260 43 L 262 43 L 263 42 L 264 43 L 266 43 L 267 42 L 268 43 L 286 43 L 287 42 L 288 43 L 289 42 L 290 43 L 291 42 L 292 43 L 293 43 L 294 44 L 293 45 L 233 45 L 232 44 L 233 43 "></path>
        <path fill="none" stroke="#ffffff" stroke-width="3" d="M 422 42 L 423 41 L 424 42 L 425 41 L 426 42 L 427 41 L 428 42 L 433 42 L 434 43 L 435 42 L 437 42 L 438 43 L 439 42 L 441 42 L 442 43 L 443 42 L 445 42 L 446 43 L 447 42 L 457 42 L 458 43 L 469 43 L 470 44 L 469 45 L 421 45 L 420 44 L 421 43 L 422 43 "></path>
        <path fill="none" stroke="#ffffff" stroke-width="3" d="M 254 39 L 255 38 L 256 39 L 258 39 L 259 38 L 260 39 L 262 39 L 263 38 L 264 39 L 266 39 L 267 38 L 268 39 L 274 39 L 275 38 L 285 38 L 286 39 L 286 40 L 285 41 L 237 41 L 236 40 L 237 39 "></path>
        <path fill="none" stroke="#ffffff" stroke-width="3" d="M 254 31 L 255 30 L 256 31 L 258 31 L 259 30 L 260 31 L 261 30 L 262 31 L 263 30 L 264 31 L 265 30 L 266 31 L 267 30 L 268 31 L 270 31 L 271 30 L 272 31 L 273 30 L 274 31 L 275 30 L 285 30 L 286 31 L 286 32 L 285 33 L 239 33 L 238 32 L 239 31 "></path>
        <path fill="none" stroke="#ffffff" stroke-width="3" d="M 390 251 L 391 250 L 392 251 L 400 251 L 401 252 L 400 253 L 392 253 L 392 255 L 400 255 L 401 256 L 400 257 L 392 257 L 392 259 L 401 259 L 402 260 L 401 261 L 387 261 L 386 260 L 386 258 L 387 257 L 390 257 L 387 257 L 386 256 L 386 254 L 387 253 L 388 253 L 387 253 L 386 252 L 387 251 "></path>
        <path fill="none" stroke="#ffffff" stroke-width="3" d="M 254 35 L 255 34 L 256 35 L 258 35 L 259 34 L 260 35 L 262 35 L 263 34 L 264 35 L 266 35 L 267 34 L 268 35 L 274 35 L 275 34 L 285 34 L 286 35 L 286 36 L 285 37 L 239 37 L 238 36 L 239 35 "></path>
        <path fill="none" stroke="#ffffff" stroke-width="3" d="M 424 294 L 425 293 L 426 294 L 427 293 L 428 294 L 429 293 L 430 294 L 431 294 L 432 295 L 433 295 L 434 296 L 434 301 L 431 304 L 427 304 L 424 301 L 424 297 L 423 297 L 422 296 L 421 296 L 420 295 L 421 294 "></path>
        <path fill="none" stroke="#ffffff" stroke-width="3" d="M 408 378 L 409 377 L 453 377 L 454 378 L 453 379 L 409 379 "></path>
        <path fill="none" stroke="#ffffff" stroke-width="3" d="M 502 134 L 503 133 L 504 134 L 506 134 L 507 133 L 508 134 L 510 134 L 511 133 L 512 134 L 514 134 L 515 133 L 516 134 L 518 134 L 519 133 L 520 134 L 521 134 L 523 136 L 522 137 L 499 137 L 498 136 L 497 137 L 496 136 L 496 135 L 497 134 "></path>
        <path fill="none" stroke="#ffffff" stroke-width="3" d="M 262 59 L 263 58 L 264 59 L 266 59 L 267 58 L 268 59 L 270 59 L 271 58 L 272 59 L 274 59 L 275 58 L 276 59 L 278 59 L 279 58 L 280 59 L 282 59 L 283 58 L 284 59 L 289 59 L 290 60 L 289 61 L 253 61 L 252 60 L 253 59 "></path>
        <path fill="none" stroke="#ffffff" stroke-width="3" d="M 434 30 L 435 29 L 439 29 L 440 30 L 441 30 L 442 31 L 443 31 L 444 32 L 443 33 L 440 33 L 440 34 L 441 34 L 442 35 L 443 35 L 444 36 L 443 37 L 431 37 L 430 36 L 431 35 L 432 35 L 433 34 L 434 35 L 434 34 L 435 33 L 438 33 L 431 33 L 430 32 L 431 31 L 432 31 L 433 30 "></path>
        <path fill="none" stroke="#ffffff" stroke-width="3" d="M 175 118 L 199 118 L 200 119 L 200 120 L 199 121 L 174 121 L 173 120 "></path>
        <path fill="none" stroke="#ffffff" stroke-width="3" d="M 436 47 L 437 46 L 438 47 L 439 46 L 440 47 L 441 46 L 442 47 L 443 46 L 445 46 L 446 47 L 447 46 L 449 46 L 450 47 L 451 46 L 453 46 L 454 47 L 455 46 L 457 46 L 458 47 L 465 47 L 466 48 L 465 49 L 435 49 L 434 48 L 435 47 "></path>
        <path fill="none" stroke="#ffffff" stroke-width="3" d="M 363 49 L 367 49 L 368 50 L 371 50 L 372 51 L 372 52 L 371 53 L 370 53 L 370 54 L 372 56 L 371 57 L 362 57 L 361 56 L 361 55 L 362 54 L 362 53 L 361 53 L 360 52 "></path>
        <path fill="none" stroke="#ffffff" stroke-width="3" d="M 426 92 L 427 91 L 447 91 L 448 92 L 449 91 L 450 92 L 451 91 L 452 92 L 453 92 L 454 93 L 453 94 L 433 94 L 432 93 L 431 94 L 430 93 L 429 94 L 428 93 L 427 94 L 426 93 "></path>
        <path fill="none" stroke="#ffffff" stroke-width="3" d="M 406 374 L 407 373 L 441 373 L 442 374 L 441 375 L 407 375 "></path>
        <path fill="none" stroke="#ffffff" stroke-width="3" d="M 406 382 L 407 381 L 441 381 L 442 382 L 441 383 L 407 383 "></path>
        <path fill="none" stroke="#ffffff" stroke-width="3" d="M 404 386 L 405 385 L 439 385 L 440 386 L 439 387 L 405 387 "></path>
        <path fill="none" stroke="#ffffff" stroke-width="3" d="M 398 390 L 399 389 L 433 389 L 434 390 L 433 391 L 399 391 "></path>
        <path fill="none" stroke="#ffffff" stroke-width="3" d="M 498 131 L 499 130 L 517 130 L 518 131 L 519 130 L 520 131 L 521 131 L 522 132 L 521 133 L 499 133 L 498 132 "></path>
        <path fill="none" stroke="#ffffff" stroke-width="3" d="M 398 398 L 399 397 L 431 397 L 432 398 L 431 399 L 399 399 "></path>
        <path fill="none" stroke="#ffffff" stroke-width="3" d="M 398 394 L 399 393 L 431 393 L 432 394 L 431 395 L 399 395 "></path>
        <path fill="none" stroke="#ffffff" stroke-width="3" d="M 498 274 L 499 273 L 500 274 L 509 274 L 510 275 L 509 276 L 506 276 L 505 277 L 504 276 L 503 277 L 502 276 L 501 277 L 499 277 L 498 276 L 497 277 L 496 276 L 495 277 L 494 276 L 492 276 L 491 277 L 490 276 L 489 277 L 488 276 L 487 277 L 486 276 L 483 276 L 482 275 L 483 274 "></path>
        <path fill="none" stroke="#ffffff" stroke-width="3" d="M 174 123 L 175 122 L 199 122 L 200 123 L 199 124 L 196 124 L 195 125 L 194 124 L 193 125 L 192 124 L 191 125 L 190 124 L 189 125 L 188 124 L 187 125 L 186 124 L 185 125 L 184 124 L 183 125 L 182 124 L 181 125 L 175 125 L 174 124 "></path>
        <path fill="none" stroke="#ffffff" stroke-width="3" d="M 288 100 L 289 99 L 298 99 L 299 100 L 297 102 L 296 102 L 296 103 L 299 103 L 300 104 L 299 105 L 298 105 L 297 106 L 296 106 L 295 107 L 294 106 L 293 107 L 292 106 L 291 106 L 290 105 L 289 105 L 288 104 L 289 103 L 290 103 L 290 101 L 289 101 "></path>
        <path fill="none" stroke="#ffffff" stroke-width="3" d="M 442 95 L 443 94 L 444 95 L 453 95 L 454 96 L 454 97 L 453 98 L 435 98 L 434 97 L 433 97 L 432 96 L 433 95 "></path>
        <path fill="none" stroke="#ffffff" stroke-width="3" d="M 318 238 L 319 237 L 348 237 L 349 238 L 348 239 L 319 239 "></path>
        <path fill="none" stroke="#ffffff" stroke-width="3" d="M 346 75 L 347 74 L 348 75 L 349 74 L 350 75 L 351 74 L 365 74 L 366 75 L 367 75 L 368 76 L 367 77 L 347 77 L 346 76 "></path>
        <path fill="none" stroke="#ffffff" stroke-width="3" d="M 386 112 L 387 111 L 415 111 L 416 112 L 415 113 L 387 113 "></path>
        <path fill="none" stroke="#ffffff" stroke-width="3" d="M 226 59 L 227 58 L 228 59 L 230 59 L 231 58 L 232 59 L 234 59 L 235 58 L 236 59 L 238 59 L 239 58 L 240 59 L 247 59 L 248 60 L 247 61 L 221 61 L 220 60 L 221 59 "></path>
        <path fill="none" stroke="#ffffff" stroke-width="3" d="M 414 59 L 415 58 L 421 58 L 422 59 L 422 60 L 421 61 L 416 61 L 419 61 L 420 62 L 421 62 L 422 63 L 422 64 L 421 65 L 413 65 L 412 64 L 413 63 L 414 63 L 414 61 L 413 61 L 412 60 L 413 59 "></path>
        <path fill="none" stroke="#ffffff" stroke-width="3" d="M 401 12 L 402 11 L 410 11 L 411 12 L 409 14 L 406 14 L 406 15 L 407 14 L 408 15 L 410 15 L 411 16 L 409 18 L 403 18 L 402 17 L 401 17 L 400 16 L 401 15 L 402 15 L 403 14 L 404 15 L 404 14 L 403 14 "></path>
        <path fill="none" stroke="#ffffff" stroke-width="3" d="M 406 370 L 407 369 L 433 369 L 434 370 L 433 371 L 407 371 "></path>
        <path fill="none" stroke="#ffffff" stroke-width="3" d="M 314 242 L 315 241 L 341 241 L 342 242 L 341 243 L 315 243 "></path>
        <path fill="none" stroke="#ffffff" stroke-width="3" d="M 494 32 L 495 31 L 520 31 L 521 32 L 520 33 L 495 33 "></path>
        <path fill="none" stroke="#ffffff" stroke-width="3" d="M 494 40 L 495 39 L 520 39 L 521 40 L 520 41 L 495 41 "></path>
        <path fill="none" stroke="#ffffff" stroke-width="3" d="M 226 281 L 227 280 L 229 280 L 230 281 L 231 280 L 232 281 L 234 281 L 235 280 L 236 281 L 238 281 L 239 280 L 240 281 L 242 281 L 243 280 L 244 281 L 247 281 L 248 282 L 247 283 L 227 283 L 226 282 "></path>
        <path fill="none" stroke="#ffffff" stroke-width="3" d="M 238 23 L 239 22 L 240 23 L 242 23 L 243 22 L 244 23 L 246 23 L 247 22 L 248 23 L 250 23 L 251 22 L 252 23 L 254 23 L 255 22 L 256 23 L 257 23 L 258 24 L 257 25 L 237 25 L 236 24 L 237 23 "></path>
        <path fill="none" stroke="#ffffff" stroke-width="3" d="M 474 299 L 475 298 L 497 298 L 498 299 L 497 300 L 492 300 L 491 301 L 490 300 L 475 300 "></path>
        <path fill="none" stroke="#ffffff" stroke-width="3" d="M 288 185 L 289 184 L 290 185 L 291 184 L 292 185 L 293 185 L 294 186 L 293 187 L 292 187 L 292 189 L 293 189 L 294 190 L 293 191 L 292 191 L 291 192 L 290 191 L 289 192 L 288 191 L 287 192 L 286 191 L 286 186 L 287 185 "></path>
        <path fill="none" stroke="#ffffff" stroke-width="3" d="M 410 366 L 411 365 L 433 365 L 434 366 L 433 367 L 411 367 "></path>
        <path fill="none" stroke="#ffffff" stroke-width="3" d="M 238 306 L 239 305 L 261 305 L 262 306 L 261 307 L 239 307 "></path>
        <path fill="none" stroke="#ffffff" stroke-width="3" d="M 474 303 L 475 302 L 497 302 L 498 303 L 497 304 L 475 304 "></path>
        <path fill="none" stroke="#ffffff" stroke-width="3" d="M 230 298 L 231 297 L 253 297 L 254 298 L 253 299 L 231 299 "></path>
        <path fill="none" stroke="#ffffff" stroke-width="3" d="M 438 76 L 439 75 L 461 75 L 462 76 L 461 77 L 439 77 "></path>
        <path fill="none" stroke="#ffffff" stroke-width="3" d="M 190 208 L 191 207 L 212 207 L 213 208 L 212 209 L 191 209 "></path>
        <path fill="none" stroke="#ffffff" stroke-width="3" d="M 382 226 L 383 225 L 397 225 L 399 227 L 398 228 L 386 228 L 385 227 L 383 227 "></path>
        <path fill="none" stroke="#ffffff" stroke-width="3" d="M 242 231 L 243 230 L 256 230 L 257 231 L 255 233 L 254 232 L 253 233 L 248 233 L 247 234 L 246 233 L 245 234 L 244 233 L 243 234 L 242 233 "></path>
        <path fill="none" stroke="#ffffff" stroke-width="3" d="M 410 8 L 411 7 L 423 7 L 424 8 L 425 8 L 426 9 L 425 10 L 411 10 L 410 9 "></path>
        <path fill="none" stroke="#ffffff" stroke-width="3" d="M 238 28 L 239 27 L 259 27 L 260 28 L 259 29 L 239 29 "></path>
        <path fill="none" stroke="#ffffff" stroke-width="3" d="M 190 204 L 191 203 L 211 203 L 212 204 L 211 205 L 191 205 "></path>
        <path fill="none" stroke="#ffffff" stroke-width="3" d="M 494 228 L 495 227 L 496 228 L 497 227 L 498 228 L 498 229 L 497 230 L 496 230 L 501 230 L 502 231 L 502 232 L 501 233 L 500 233 L 499 234 L 495 234 L 494 233 L 494 232 L 493 233 L 492 232 L 492 231 L 493 230 L 494 230 "></path>
        <path fill="none" stroke="#ffffff" stroke-width="3" d="M 314 246 L 315 245 L 335 245 L 336 246 L 335 247 L 315 247 "></path>
        <path fill="none" stroke="#ffffff" stroke-width="3" d="M 500 36 L 501 35 L 520 35 L 521 36 L 520 37 L 501 37 "></path>
        <path fill="none" stroke="#ffffff" stroke-width="3" d="M 426 84 L 427 83 L 445 83 L 446 84 L 445 85 L 432 85 L 431 86 L 430 85 L 427 85 "></path>
        <path fill="none" stroke="#ffffff" stroke-width="3" d="M 333 282 L 334 281 L 345 281 L 346 282 L 347 282 L 348 283 L 347 284 L 335 284 "></path>
        <path fill="none" stroke="#ffffff" stroke-width="3" d="M 436 38 L 437 37 L 438 38 L 439 37 L 440 38 L 441 38 L 442 39 L 445 39 L 446 40 L 445 41 L 431 41 L 430 40 L 431 39 L 434 39 L 435 38 "></path>
        <path fill="none" stroke="#ffffff" stroke-width="3" d="M 358 213 L 359 212 L 360 213 L 365 213 L 366 214 L 365 215 L 347 215 L 346 214 L 347 213 "></path>
        <path fill="none" stroke="#ffffff" stroke-width="3" d="M 474 295 L 475 294 L 493 294 L 494 295 L 493 296 L 475 296 "></path>
        <path fill="none" stroke="#ffffff" stroke-width="3" d="M 426 80 L 427 79 L 445 79 L 446 80 L 445 81 L 427 81 "></path>
        <path fill="none" stroke="#ffffff" stroke-width="3" d="M 501 28 L 502 27 L 520 27 L 521 28 L 520 29 L 502 29 "></path>
        <path fill="none" stroke="#ffffff" stroke-width="3" d="M 426 88 L 427 87 L 445 87 L 446 88 L 445 89 L 427 89 "></path>
        <path fill="none" stroke="#ffffff" stroke-width="3" d="M 314 250 L 315 249 L 333 249 L 334 250 L 333 251 L 315 251 "></path>
        <path fill="none" stroke="#ffffff" stroke-width="3" d="M 384 222 L 385 221 L 397 221 L 398 222 L 398 223 L 397 224 L 387 224 L 386 223 L 385 223 "></path>
        <path fill="none" stroke="#ffffff" stroke-width="3" d="M 318 290 L 319 289 L 336 289 L 337 290 L 336 291 L 319 291 "></path>
        <path fill="none" stroke="#ffffff" stroke-width="3" d="M 474 291 L 475 290 L 492 290 L 493 291 L 492 292 L 475 292 "></path>
        <path fill="none" stroke="#ffffff" stroke-width="3" d="M 246 187 L 247 186 L 248 187 L 249 187 L 250 188 L 249 189 L 248 189 L 247 190 L 246 189 L 233 189 L 232 188 L 233 187 "></path>
        <path fill="none" stroke="#ffffff" stroke-width="3" d="M 415 133 L 417 133 L 418 134 L 419 133 L 420 134 L 421 134 L 422 135 L 420 137 L 416 137 L 416 138 L 417 138 L 418 139 L 417 140 L 415 140 L 414 139 L 414 137 L 413 136 L 413 135 "></path>
        <path fill="none" stroke="#ffffff" stroke-width="3" d="M 333 286 L 334 285 L 345 285 L 346 286 L 346 287 L 345 288 L 335 288 "></path>
        <path fill="none" stroke="#ffffff" stroke-width="3" d="M 174 131 L 175 130 L 185 130 L 186 131 L 186 132 L 185 133 L 175 133 L 174 132 "></path>
        <path fill="none" stroke="#ffffff" stroke-width="3" d="M 236 302 L 237 301 L 253 301 L 254 302 L 253 303 L 237 303 "></path>
        <path fill="none" stroke="#ffffff" stroke-width="3" d="M 504 60 L 505 59 L 520 59 L 521 60 L 520 61 L 505 61 "></path>
        <path fill="none" stroke="#ffffff" stroke-width="3" d="M 233 314 L 234 313 L 249 313 L 250 314 L 249 315 L 234 315 "></path>
        <path fill="none" stroke="#ffffff" stroke-width="3" d="M 235 318 L 236 317 L 251 317 L 252 318 L 251 319 L 236 319 "></path>
        <path fill="none" stroke="#ffffff" stroke-width="3" d="M 170 144 L 171 143 L 185 143 L 186 144 L 185 145 L 184 145 L 183 146 L 182 145 L 180 145 L 179 146 L 178 145 L 171 145 "></path>
        <path fill="none" stroke="#ffffff" stroke-width="3" d="M 434 162 L 435 161 L 445 161 L 446 162 L 444 164 L 437 164 L 436 163 L 435 164 L 434 163 "></path>
        <path fill="none" stroke="#ffffff" stroke-width="3" d="M 410 103 L 411 102 L 412 103 L 413 102 L 414 103 L 415 102 L 416 103 L 417 102 L 418 103 L 419 102 L 420 103 L 421 103 L 422 104 L 421 105 L 409 105 L 408 104 L 409 103 "></path>
        <path fill="none" stroke="#ffffff" stroke-width="3" d="M 434 166 L 435 165 L 445 165 L 446 166 L 446 167 L 445 168 L 439 168 L 438 167 L 437 168 L 436 167 L 435 167 "></path>
    </g>
</svg>
