<svg xmlns="http://www.w3.org/2000/svg" xmlns:xlink="http://www.w3.org/1999/xlink" version="1.1" x="0" y="0" width="1056px" height="816px">
    <g id="rootLayer" transform="translate(0.000000, 0.000000)">
        <path fill="none" stroke="#fa00fa" stroke-width="3" d="M 240 1 L 239 2 L 239 3 L 240 3 L 241 4 L 240 5 L 241 4 L 243 6 L 245 6 L 246 5 L 247 5 L 248 6 L 247 7 L 248 6 L 249 6 L 250 5 L 251 5 L 252 4 L 254 4 L 255 5 L 255 6 L 255 5 L 256 4 L 257 5 L 257 6 L 258 7 L 258 6 L 259 5 L 260 6 L 261 6 L 262 5 L 263 6 L 265 6 L 266 7 L 267 6 L 268 6 L 269 5 L 270 6 L 271 5 L 272 5 L 273 6 L 274 6 L 275 5 L 278 5 L 279 6 L 279 5 L 280 4 L 282 6 L 283 6 L 284 7 L 285 6 L 286 7 L 287 6 L 288 7 L 287 6 L 288 5 L 288 4 L 289 3 L 291 5 L 291 4 L 292 3 L 293 4 L 293 5 L 294 5 L 295 6 L 297 6 L 298 5 L 299 5 L 300 6 L 301 5 L 302 6 L 303 5 L 307 5 L 308 4 L 309 4 L 310 5 L 309 6 L 311 4 L 313 6 L 317 6 L 318 7 L 319 6 L 320 6 L 321 5 L 322 6 L 322 7 L 323 6 L 328 6 L 328 5 L 329 4 L 330 5 L 330 6 L 331 6 L 332 7 L 332 6 L 333 5 L 334 6 L 335 6 L 336 5 L 338 5 L 339 6 L 339 7 L 340 7 L 341 6 L 343 6 L 343 5 L 344 4 L 345 5 L 347 5 L 348 4 L 349 5 L 349 6 L 351 6 L 352 7 L 352 6 L 353 5 L 355 5 L 357 3 L 358 4 L 358 5 L 359 4 L 360 5 L 360 6 L 361 5 L 364 5 L 365 6 L 366 6 L 367 7 L 367 6 L 368 5 L 370 7 L 371 7 L 374 4 L 375 4 L 376 5 L 375 6 L 376 5 L 377 6 L 380 6 L 381 5 L 382 6 L 382 7 L 383 7 L 384 6 L 387 6 L 388 5 L 390 7 L 392 7 L 392 6 L 393 5 L 397 5 L 398 6 L 400 6 L 401 5 L 402 5 L 403 6 L 404 5 L 406 5 L 407 6 L 407 5 L 408 4 L 409 5 L 409 6 L 410 5 L 411 6 L 413 6 L 414 5 L 415 5 L 416 6 L 415 7 L 418 7 L 418 6 L 419 5 L 420 6 L 424 6 L 425 7 L 426 6 L 427 6 L 428 5 L 429 6 L 430 5 L 431 6 L 432 5 L 433 5 L 434 6 L 433 7 L 435 5 L 436 6 L 437 6 L 438 5 L 439 6 L 440 5 L 441 5 L 442 6 L 443 5 L 444 6 L 445 5 L 447 5 L 448 6 L 449 5 L 450 6 L 451 6 L 452 5 L 453 6 L 454 5 L 456 7 L 455 6 L 456 5 L 457 5 L 458 6 L 458 7 L 459 7 L 459 6 L 460 5 L 461 5 L 462 4 L 463 5 L 463 6 L 464 5 L 466 5 L 467 6 L 468 5 L 469 6 L 470 6 L 471 5 L 474 5 L 475 6 L 477 6 L 478 7 L 479 6 L 480 7 L 481 7 L 482 6 L 483 6 L 484 5 L 485 6 L 486 6 L 487 5 L 488 5 L 489 6 L 490 6 L 491 5 L 492 6 L 493 5 L 494 6 L 494 5 L 495 4 L 496 5 L 497 4 L 498 5 L 499 5 L 500 6 L 501 6 L 502 7 L 504 7 L 506 5 L 507 6 L 510 6 L 511 5 L 512 6 L 512 7 L 513 6 L 514 7 L 515 6 L 516 7 L 515 6 L 516 5 L 517 5 L 518 6 L 520 6 L 521 7 L 522 6 L 523 6 L 524 7 L 525 7 L 526 6 L 527 7 L 528 6 L 529 6 L 530 5 L 530 3 L 529 3 L 528 2 L 528 1 L 482 1 L 481 2 L 480 2 L 479 1 L 464 1 L 463 2 L 462 1 L 449 1 L 448 2 L 447 1 L 443 1 L 442 2 L 441 1 L 415 1 L 414 2 L 413 1 L 412 2 L 411 1 L 389 1 L 388 2 L 387 1 L 383 1 L 382 2 L 381 2 L 380 1 L 373 1 L 372 2 L 371 1 L 370 2 L 369 1 L 350 1 L 349 2 L 348 1 L 347 2 L 346 1 L 339 1 L 338 2 L 337 2 L 336 1 L 318 1 L 317 2 L 316 1 L 302 1 L 301 2 L 300 2 L 299 1 L 298 1 L 297 2 L 296 1 L 285 1 L 284 2 L 283 1 L 252 1 L 251 2 L 250 1 "></path>
        <path fill="none" stroke="#fa00fa" stroke-width="3" d="M 671 808 L 671 809 L 670 810 L 669 809 L 662 809 L 661 810 L 660 810 L 659 809 L 658 809 L 656 811 L 655 810 L 652 810 L 651 809 L 648 812 L 648 814 L 657 814 L 658 813 L 659 814 L 667 814 L 668 813 L 669 814 L 670 813 L 671 814 L 687 814 L 688 813 L 689 814 L 706 814 L 707 813 L 708 814 L 732 814 L 733 813 L 734 814 L 745 814 L 744 813 L 745 812 L 745 811 L 744 810 L 743 810 L 742 809 L 741 809 L 740 810 L 739 810 L 737 808 L 735 810 L 734 809 L 733 809 L 733 810 L 732 811 L 731 810 L 731 809 L 728 809 L 727 808 L 727 809 L 726 810 L 725 809 L 723 811 L 722 811 L 721 810 L 722 809 L 721 809 L 720 808 L 721 809 L 720 810 L 719 810 L 718 809 L 716 811 L 714 811 L 713 810 L 713 809 L 710 809 L 709 810 L 708 809 L 704 809 L 705 809 L 706 810 L 705 811 L 703 811 L 701 809 L 699 809 L 698 808 L 696 808 L 695 809 L 695 810 L 694 811 L 692 809 L 692 808 L 692 809 L 691 810 L 690 809 L 688 809 L 687 810 L 686 809 L 686 808 L 685 809 L 683 809 L 682 810 L 681 809 L 681 808 L 679 808 L 678 809 L 677 808 L 676 809 L 675 808 L 674 808 L 673 809 L 672 809 "></path>
        <path fill="none" stroke="#fa00fa" stroke-width="3" d="M 167 808 L 166 809 L 164 809 L 164 810 L 163 811 L 164 812 L 163 813 L 162 813 L 163 813 L 164 814 L 165 813 L 166 814 L 168 814 L 169 813 L 170 814 L 197 814 L 198 813 L 199 814 L 200 814 L 201 813 L 202 814 L 218 814 L 219 813 L 220 814 L 221 813 L 223 813 L 224 814 L 225 813 L 226 814 L 249 814 L 251 812 L 252 813 L 254 813 L 255 814 L 256 813 L 257 814 L 258 813 L 259 813 L 260 812 L 261 813 L 261 812 L 260 811 L 261 810 L 260 810 L 259 809 L 259 808 L 257 808 L 256 809 L 255 808 L 254 809 L 253 808 L 252 809 L 251 808 L 249 808 L 248 809 L 248 810 L 247 811 L 246 810 L 246 809 L 245 809 L 244 810 L 242 810 L 241 811 L 240 810 L 240 809 L 239 810 L 238 810 L 237 811 L 235 809 L 233 809 L 232 810 L 231 810 L 230 809 L 229 810 L 223 810 L 222 811 L 220 809 L 219 810 L 216 810 L 214 808 L 210 808 L 209 809 L 207 809 L 207 810 L 206 811 L 205 810 L 199 810 L 198 811 L 197 810 L 195 810 L 194 809 L 193 810 L 187 810 L 186 809 L 182 809 L 181 810 L 180 809 L 180 810 L 179 811 L 178 810 L 178 809 L 177 809 L 176 810 L 169 810 "></path>
        <path fill="none" stroke="#fa00fa" stroke-width="3" d="M 2 598 L 3 599 L 2 600 L 1 600 L 1 609 L 2 610 L 1 611 L 1 630 L 2 631 L 1 632 L 1 643 L 2 644 L 2 646 L 1 647 L 2 648 L 1 649 L 2 650 L 1 651 L 1 655 L 2 656 L 1 657 L 1 658 L 2 659 L 1 660 L 1 664 L 2 665 L 1 666 L 1 675 L 4 675 L 4 672 L 6 670 L 6 669 L 5 668 L 5 666 L 4 665 L 5 664 L 5 662 L 6 661 L 6 659 L 5 658 L 5 655 L 6 654 L 5 653 L 5 652 L 4 651 L 4 650 L 5 649 L 4 648 L 3 648 L 2 647 L 3 646 L 4 646 L 5 645 L 5 643 L 6 642 L 4 640 L 5 639 L 5 638 L 6 637 L 5 636 L 5 635 L 6 634 L 5 635 L 3 635 L 2 634 L 3 633 L 4 633 L 6 631 L 5 630 L 6 629 L 6 628 L 5 627 L 5 625 L 6 624 L 6 623 L 5 622 L 5 619 L 6 618 L 5 617 L 6 616 L 6 614 L 7 613 L 5 611 L 5 605 L 6 604 L 6 602 L 5 601 L 5 600 L 4 599 L 4 598 L 3 599 "></path>
        <path fill="none" stroke="#fa00fa" stroke-width="3" d="M 889 808 L 888 809 L 884 809 L 883 810 L 882 809 L 883 810 L 882 811 L 882 812 L 883 812 L 884 813 L 884 814 L 892 814 L 893 813 L 894 814 L 898 814 L 899 813 L 900 814 L 913 814 L 914 813 L 915 814 L 934 814 L 935 813 L 936 814 L 941 814 L 942 813 L 943 814 L 944 814 L 945 813 L 946 813 L 947 812 L 948 813 L 948 814 L 953 814 L 952 813 L 953 812 L 953 811 L 950 811 L 949 810 L 947 810 L 946 811 L 946 812 L 945 813 L 944 812 L 944 810 L 943 811 L 942 810 L 940 810 L 939 809 L 938 809 L 937 810 L 937 811 L 936 812 L 934 810 L 931 810 L 930 809 L 930 810 L 929 811 L 928 810 L 928 809 L 927 810 L 925 810 L 924 809 L 922 811 L 921 810 L 922 811 L 921 812 L 920 812 L 919 811 L 919 809 L 918 810 L 917 810 L 915 808 L 914 808 L 913 809 L 911 809 L 911 810 L 909 812 L 908 811 L 908 810 L 907 811 L 906 810 L 905 810 L 904 809 L 903 810 L 902 809 L 901 810 L 900 809 L 899 809 L 897 811 L 896 810 L 895 810 L 894 811 L 893 810 L 892 810 L 890 808 "></path>
        <path fill="none" stroke="#fa00fa" stroke-width="3" d="M 1052 556 L 1051 557 L 1050 557 L 1050 559 L 1049 560 L 1048 559 L 1048 558 L 1048 560 L 1050 562 L 1050 563 L 1049 564 L 1050 565 L 1049 566 L 1049 567 L 1048 568 L 1049 567 L 1050 568 L 1050 570 L 1049 571 L 1048 571 L 1050 573 L 1049 574 L 1048 574 L 1049 575 L 1050 575 L 1051 576 L 1050 577 L 1049 577 L 1050 578 L 1050 579 L 1049 580 L 1049 582 L 1050 583 L 1049 584 L 1050 584 L 1051 585 L 1049 587 L 1049 588 L 1050 589 L 1049 590 L 1049 591 L 1050 592 L 1049 593 L 1049 594 L 1051 596 L 1050 597 L 1050 600 L 1051 601 L 1049 603 L 1051 605 L 1051 606 L 1050 607 L 1050 610 L 1049 611 L 1051 613 L 1050 614 L 1049 614 L 1050 614 L 1051 615 L 1050 616 L 1050 617 L 1050 616 L 1051 615 L 1052 615 L 1053 616 L 1054 616 L 1054 592 L 1053 591 L 1053 590 L 1054 589 L 1053 588 L 1054 587 L 1053 586 L 1054 585 L 1054 567 L 1053 566 L 1054 565 L 1053 564 L 1054 563 L 1054 559 L 1052 557 "></path>
        <path fill="none" stroke="#fa00fa" stroke-width="3" d="M 756 808 L 755 809 L 750 809 L 749 810 L 748 810 L 748 813 L 747 814 L 748 813 L 749 814 L 750 813 L 751 814 L 777 814 L 777 813 L 778 812 L 779 813 L 780 813 L 781 814 L 786 814 L 786 812 L 785 812 L 783 810 L 782 811 L 780 809 L 779 809 L 778 808 L 777 808 L 776 809 L 775 809 L 774 810 L 773 810 L 772 809 L 771 809 L 770 808 L 769 809 L 767 809 L 766 808 L 765 808 L 763 810 L 761 810 L 759 808 "></path>
        <path fill="none" stroke="#fa00fa" stroke-width="3" d="M 513 365 L 512 366 L 510 366 L 509 367 L 509 368 L 508 369 L 507 368 L 507 369 L 506 370 L 505 370 L 507 370 L 508 371 L 507 372 L 504 372 L 502 370 L 501 370 L 500 369 L 499 370 L 498 369 L 497 370 L 496 369 L 496 366 L 495 367 L 494 367 L 493 368 L 493 370 L 492 371 L 491 370 L 492 371 L 490 373 L 489 373 L 490 374 L 490 375 L 489 376 L 490 375 L 491 376 L 491 378 L 492 377 L 493 377 L 494 378 L 496 376 L 496 375 L 497 374 L 498 374 L 499 375 L 500 375 L 503 378 L 504 377 L 505 377 L 506 378 L 505 379 L 506 378 L 507 378 L 508 377 L 509 378 L 509 377 L 510 376 L 511 376 L 513 374 L 512 373 L 515 370 L 515 368 L 514 368 L 513 367 L 514 366 "></path>
        <path fill="none" stroke="#fa00fa" stroke-width="3" d="M 467 403 L 465 405 L 464 405 L 465 406 L 464 407 L 464 408 L 465 409 L 467 409 L 468 410 L 469 410 L 470 409 L 471 410 L 472 410 L 473 411 L 473 412 L 475 412 L 476 411 L 477 411 L 478 410 L 481 413 L 481 414 L 482 415 L 482 416 L 483 417 L 482 418 L 483 418 L 485 420 L 484 421 L 488 421 L 489 422 L 489 420 L 490 419 L 489 418 L 489 417 L 490 416 L 488 414 L 489 413 L 489 411 L 487 409 L 484 409 L 483 408 L 482 408 L 480 410 L 476 406 L 475 406 L 474 405 L 473 405 L 472 404 L 472 403 L 472 404 L 471 405 L 470 405 L 468 403 "></path>
        <path fill="none" stroke="#fa00fa" stroke-width="3" d="M 507 432 L 507 433 L 506 434 L 505 433 L 506 434 L 505 435 L 504 435 L 502 437 L 501 437 L 502 437 L 503 438 L 502 439 L 499 439 L 499 441 L 498 442 L 497 442 L 497 443 L 498 444 L 497 445 L 496 445 L 497 445 L 498 446 L 497 447 L 498 448 L 499 448 L 500 449 L 502 449 L 503 448 L 503 447 L 504 446 L 505 446 L 506 445 L 506 443 L 507 442 L 508 442 L 510 440 L 511 441 L 512 441 L 515 438 L 515 436 L 514 435 L 515 434 L 515 433 L 513 433 L 512 432 L 511 432 L 510 433 L 509 432 "></path>
        <path fill="none" stroke="#fa00fa" stroke-width="3" d="M 1051 55 L 1049 57 L 1049 60 L 1051 62 L 1051 64 L 1050 65 L 1050 68 L 1048 70 L 1049 70 L 1050 71 L 1049 72 L 1048 72 L 1048 73 L 1051 76 L 1050 77 L 1051 78 L 1050 79 L 1050 80 L 1051 81 L 1050 82 L 1051 83 L 1050 84 L 1049 84 L 1049 87 L 1050 86 L 1051 87 L 1051 88 L 1052 88 L 1054 86 L 1054 81 L 1053 80 L 1054 79 L 1054 57 L 1053 56 L 1052 56 "></path>
        <path fill="none" stroke="#fa00fa" stroke-width="3" d="M 2 793 L 1 794 L 1 795 L 2 796 L 1 797 L 1 814 L 4 814 L 5 813 L 6 813 L 7 814 L 17 814 L 18 813 L 19 813 L 18 812 L 18 811 L 17 810 L 12 810 L 11 809 L 11 811 L 10 812 L 8 810 L 8 809 L 7 809 L 6 808 L 7 807 L 7 806 L 5 806 L 4 805 L 5 804 L 4 803 L 5 802 L 6 802 L 6 801 L 4 799 L 5 798 L 6 798 L 7 799 L 5 797 L 5 796 L 4 796 L 3 795 L 4 794 L 3 794 "></path>
        <path fill="none" stroke="#fa00fa" stroke-width="3" d="M 521 414 L 521 415 L 520 416 L 519 415 L 518 416 L 519 417 L 518 418 L 519 419 L 519 420 L 520 421 L 520 422 L 519 423 L 519 424 L 518 425 L 520 427 L 519 428 L 519 429 L 520 430 L 520 431 L 521 431 L 522 432 L 525 432 L 527 430 L 527 429 L 526 428 L 527 427 L 527 424 L 526 424 L 524 422 L 526 420 L 527 420 L 528 419 L 528 416 L 526 414 L 523 414 L 522 415 "></path>
        <path fill="none" stroke="#fa00fa" stroke-width="3" d="M 486 323 L 486 324 L 485 325 L 484 325 L 483 326 L 482 326 L 481 327 L 481 330 L 480 331 L 482 333 L 481 334 L 481 335 L 480 336 L 479 335 L 477 337 L 477 338 L 479 340 L 480 340 L 481 341 L 481 343 L 485 343 L 486 342 L 485 341 L 486 340 L 487 340 L 488 341 L 487 340 L 488 339 L 488 338 L 486 336 L 486 334 L 487 333 L 485 333 L 484 332 L 485 331 L 487 331 L 487 330 L 490 327 L 490 325 L 489 324 L 488 324 L 487 323 "></path>
        <path fill="none" stroke="#fa00fa" stroke-width="3" d="M 613 475 L 613 476 L 612 477 L 613 478 L 612 479 L 613 480 L 612 481 L 612 482 L 611 483 L 611 484 L 610 485 L 610 486 L 611 487 L 609 489 L 611 491 L 613 491 L 614 490 L 615 491 L 616 490 L 616 489 L 617 488 L 618 488 L 617 487 L 617 486 L 618 485 L 619 485 L 622 482 L 622 477 L 621 478 L 620 477 L 620 476 L 619 477 L 618 476 L 618 475 "></path>
        <path fill="none" stroke="#fa00fa" stroke-width="3" d="M 578 439 L 580 439 L 581 440 L 580 441 L 577 441 L 575 443 L 576 444 L 575 445 L 575 446 L 576 446 L 578 448 L 577 449 L 575 449 L 576 450 L 576 451 L 577 451 L 578 452 L 577 453 L 577 455 L 578 456 L 577 457 L 579 459 L 580 458 L 581 458 L 582 459 L 583 459 L 584 458 L 584 456 L 585 455 L 585 454 L 586 453 L 587 453 L 586 452 L 585 452 L 584 451 L 584 449 L 584 450 L 583 451 L 582 450 L 582 449 L 581 448 L 581 447 L 583 445 L 582 445 L 581 444 L 583 442 L 582 443 L 581 442 L 581 440 L 580 439 "></path>
        <path fill="none" stroke="#fa00fa" stroke-width="3" d="M 555 389 L 554 390 L 553 390 L 552 391 L 551 390 L 551 391 L 550 392 L 550 395 L 551 396 L 552 395 L 553 396 L 556 396 L 557 397 L 556 398 L 557 398 L 558 397 L 559 397 L 560 396 L 561 397 L 562 396 L 564 398 L 565 398 L 565 396 L 566 395 L 567 396 L 567 397 L 567 396 L 566 395 L 566 392 L 565 392 L 564 391 L 564 390 L 563 391 L 562 391 L 561 390 L 560 391 L 559 390 L 558 391 L 557 390 L 557 389 L 556 390 "></path>
        <path fill="none" stroke="#fa00fa" stroke-width="3" d="M 461 477 L 460 478 L 459 478 L 459 480 L 458 481 L 457 480 L 457 481 L 458 482 L 457 483 L 456 483 L 456 485 L 454 487 L 455 488 L 455 489 L 456 488 L 458 490 L 459 489 L 460 489 L 461 490 L 462 489 L 463 490 L 465 488 L 465 485 L 466 484 L 465 484 L 464 483 L 465 482 L 465 479 L 464 479 L 462 477 "></path>
        <path fill="none" stroke="#fa00fa" stroke-width="3" d="M 549 488 L 548 489 L 547 489 L 546 490 L 546 491 L 543 494 L 542 493 L 543 494 L 542 495 L 540 495 L 539 494 L 538 495 L 536 495 L 535 494 L 534 494 L 534 499 L 535 500 L 535 501 L 537 501 L 538 502 L 539 501 L 540 501 L 540 499 L 541 498 L 541 496 L 542 495 L 543 496 L 544 496 L 545 495 L 546 495 L 547 496 L 548 496 L 548 495 L 549 494 L 550 495 L 550 496 L 551 496 L 551 495 L 554 492 L 554 491 L 553 490 L 552 490 L 551 489 L 550 490 L 549 489 "></path>
        <path fill="none" stroke="#fa00fa" stroke-width="3" d="M 443 440 L 442 441 L 441 441 L 441 443 L 440 444 L 439 444 L 438 443 L 436 445 L 434 445 L 433 446 L 433 447 L 436 450 L 436 451 L 438 451 L 439 450 L 442 450 L 443 449 L 444 450 L 446 448 L 446 446 L 447 445 L 448 445 L 449 446 L 448 445 L 448 443 L 446 441 L 444 441 "></path>
        <path fill="none" stroke="#fa00fa" stroke-width="3" d="M 566 332 L 562 336 L 562 337 L 561 338 L 561 339 L 562 338 L 564 340 L 564 341 L 565 342 L 569 342 L 570 341 L 571 341 L 573 339 L 574 340 L 574 338 L 575 337 L 575 336 L 573 334 L 572 334 L 571 333 L 571 332 L 570 333 L 568 333 L 567 334 L 566 333 "></path>
        <path fill="none" stroke="#fa00fa" stroke-width="3" d="M 626 370 L 626 371 L 624 373 L 625 373 L 626 374 L 625 375 L 628 378 L 627 379 L 629 381 L 629 382 L 630 383 L 632 383 L 633 384 L 634 384 L 636 382 L 636 376 L 635 377 L 634 377 L 633 376 L 633 374 L 632 374 L 630 372 L 631 371 L 630 372 L 628 370 "></path>
        <path fill="none" stroke="#fa00fa" stroke-width="3" d="M 459 348 L 460 349 L 459 350 L 458 350 L 458 352 L 459 353 L 458 354 L 459 355 L 459 356 L 458 357 L 458 358 L 460 358 L 461 359 L 459 361 L 462 364 L 463 363 L 464 363 L 467 360 L 466 359 L 467 358 L 466 357 L 466 354 L 465 354 L 464 353 L 464 351 L 463 350 L 463 348 L 462 349 L 461 348 L 460 349 "></path>
        <path fill="none" stroke="#fa00fa" stroke-width="3" d="M 3 123 L 2 124 L 2 125 L 1 126 L 1 136 L 2 137 L 1 138 L 1 145 L 3 145 L 4 144 L 5 145 L 4 144 L 4 143 L 5 142 L 6 143 L 5 142 L 6 141 L 5 140 L 5 139 L 6 138 L 5 137 L 6 136 L 5 135 L 5 134 L 4 133 L 4 132 L 5 131 L 5 130 L 6 129 L 6 126 L 5 125 L 5 124 L 4 124 "></path>
        <path fill="none" stroke="#fa00fa" stroke-width="3" d="M 615 438 L 614 439 L 614 441 L 612 443 L 611 443 L 611 444 L 610 445 L 610 446 L 609 447 L 610 448 L 611 448 L 612 449 L 611 450 L 612 451 L 613 450 L 614 451 L 614 452 L 615 451 L 616 452 L 617 452 L 619 450 L 618 449 L 618 448 L 620 446 L 618 444 L 618 441 L 619 440 L 617 440 "></path>
        <path fill="none" stroke="#fa00fa" stroke-width="3" d="M 580 346 L 577 349 L 576 348 L 575 349 L 576 350 L 574 352 L 575 353 L 575 354 L 577 354 L 578 355 L 577 356 L 578 356 L 579 355 L 580 355 L 581 356 L 582 355 L 583 355 L 583 353 L 584 352 L 585 353 L 585 354 L 586 353 L 586 352 L 587 351 L 587 350 L 586 349 L 587 348 L 585 346 L 584 347 L 583 347 L 582 346 L 581 347 "></path>
        <path fill="none" stroke="#fa00fa" stroke-width="3" d="M 577 414 L 576 415 L 577 416 L 577 420 L 576 421 L 576 422 L 574 424 L 574 426 L 576 428 L 575 429 L 576 430 L 577 429 L 578 430 L 580 430 L 580 428 L 578 426 L 579 425 L 581 425 L 581 424 L 582 423 L 582 422 L 581 421 L 582 420 L 583 420 L 582 419 L 583 418 L 582 417 L 582 416 L 580 414 L 579 414 L 578 415 "></path>
        <path fill="none" stroke="#fa00fa" stroke-width="3" d="M 494 459 L 494 460 L 493 461 L 492 460 L 491 461 L 491 463 L 489 465 L 489 467 L 490 468 L 490 469 L 491 470 L 492 470 L 493 471 L 493 472 L 494 472 L 495 471 L 497 471 L 498 470 L 498 468 L 500 466 L 499 467 L 498 466 L 498 464 L 497 464 L 496 463 L 497 462 L 496 461 L 497 460 L 496 460 L 495 459 "></path>
        <path fill="none" stroke="#fa00fa" stroke-width="3" d="M 488 430 L 486 432 L 485 431 L 483 431 L 482 432 L 481 432 L 480 433 L 478 433 L 478 434 L 479 434 L 480 435 L 478 437 L 477 437 L 477 439 L 481 439 L 482 438 L 485 438 L 486 439 L 485 440 L 487 438 L 488 439 L 489 439 L 491 437 L 490 436 L 490 434 L 489 433 L 489 432 L 488 431 "></path>
        <path fill="none" stroke="#fa00fa" stroke-width="3" d="M 455 413 L 454 414 L 454 415 L 453 416 L 452 415 L 451 415 L 450 414 L 449 414 L 449 416 L 448 417 L 447 417 L 448 418 L 447 419 L 448 420 L 451 420 L 452 421 L 453 420 L 454 421 L 454 420 L 455 419 L 457 419 L 458 418 L 459 419 L 459 420 L 462 420 L 462 419 L 464 417 L 464 415 L 463 414 L 461 414 L 460 415 L 459 415 L 458 414 L 457 414 L 456 415 L 455 414 "></path>
        <path fill="none" stroke="#fa00fa" stroke-width="3" d="M 486 446 L 485 447 L 484 447 L 483 448 L 482 447 L 482 449 L 480 451 L 480 452 L 481 453 L 480 454 L 480 455 L 481 455 L 483 457 L 485 455 L 486 455 L 487 456 L 488 455 L 489 456 L 490 456 L 490 455 L 491 454 L 492 454 L 492 453 L 491 452 L 492 451 L 491 450 L 490 450 L 489 449 L 488 449 L 486 447 "></path>
        <path fill="none" stroke="#fa00fa" stroke-width="3" d="M 540 421 L 539 422 L 539 423 L 537 425 L 538 426 L 538 427 L 539 428 L 538 429 L 538 430 L 539 431 L 540 431 L 541 432 L 542 432 L 543 433 L 544 433 L 545 434 L 547 432 L 547 431 L 546 430 L 547 429 L 547 428 L 546 427 L 546 426 L 547 425 L 546 424 L 545 424 L 544 423 L 543 424 L 542 423 L 541 423 L 540 422 "></path>
        <path fill="none" stroke="#fa00fa" stroke-width="3" d="M 538 443 L 536 445 L 535 444 L 535 445 L 534 446 L 535 445 L 536 445 L 537 446 L 535 448 L 536 449 L 536 450 L 537 451 L 536 452 L 537 452 L 539 454 L 542 454 L 545 451 L 545 449 L 544 448 L 545 447 L 544 446 L 543 446 L 542 445 L 542 444 L 541 443 "></path>
        <path fill="none" stroke="#fa00fa" stroke-width="3" d="M 415 537 L 414 538 L 414 539 L 415 540 L 414 541 L 413 541 L 414 542 L 413 543 L 414 544 L 415 543 L 416 544 L 417 544 L 418 545 L 417 546 L 425 546 L 425 544 L 424 543 L 426 541 L 425 541 L 424 540 L 425 539 L 421 539 L 420 538 L 419 539 L 418 538 L 418 537 "></path>
        <path fill="none" stroke="#fa00fa" stroke-width="3" d="M 498 350 L 498 351 L 497 352 L 497 353 L 498 354 L 498 355 L 499 354 L 500 355 L 500 357 L 501 358 L 501 360 L 504 360 L 505 361 L 506 360 L 505 359 L 506 358 L 506 356 L 507 355 L 509 355 L 509 353 L 508 353 L 507 352 L 508 351 L 507 351 L 506 350 L 505 350 L 504 351 L 503 350 L 500 350 L 499 351 "></path>
        <path fill="none" stroke="#fa00fa" stroke-width="3" d="M 620 288 L 619 289 L 618 289 L 617 290 L 617 295 L 618 295 L 619 294 L 620 295 L 620 296 L 621 296 L 622 297 L 621 298 L 622 297 L 623 298 L 622 297 L 623 296 L 624 296 L 625 297 L 625 298 L 626 297 L 627 297 L 627 295 L 626 294 L 626 293 L 627 292 L 629 292 L 627 290 L 628 289 L 627 290 L 626 289 L 626 288 "></path>
        <path fill="none" stroke="#fa00fa" stroke-width="3" d="M 632 439 L 631 440 L 631 442 L 632 443 L 631 444 L 631 445 L 634 448 L 635 448 L 636 447 L 637 448 L 641 448 L 642 447 L 642 446 L 643 445 L 640 442 L 640 441 L 639 440 L 638 441 L 637 440 L 636 441 L 635 440 L 633 440 "></path>
        <path fill="none" stroke="#fa00fa" stroke-width="3" d="M 458 442 L 457 443 L 456 443 L 452 447 L 453 448 L 453 449 L 454 450 L 453 451 L 454 452 L 455 452 L 456 453 L 457 452 L 460 452 L 460 451 L 461 450 L 462 450 L 462 449 L 463 448 L 464 448 L 464 447 L 463 447 L 462 446 L 462 444 L 461 444 L 460 443 L 459 444 L 458 443 "></path>
        <path fill="none" stroke="#fa00fa" stroke-width="3" d="M 439 208 L 436 211 L 437 212 L 437 213 L 439 215 L 438 216 L 440 218 L 441 218 L 443 220 L 445 218 L 445 217 L 447 215 L 446 215 L 445 214 L 446 213 L 446 211 L 445 211 L 444 210 L 444 209 L 441 209 L 440 208 "></path>
        <path fill="none" stroke="#fa00fa" stroke-width="3" d="M 441 455 L 440 456 L 439 456 L 438 457 L 438 458 L 437 459 L 436 459 L 436 460 L 438 462 L 440 462 L 441 463 L 442 463 L 443 464 L 443 465 L 445 465 L 446 466 L 447 465 L 448 465 L 448 462 L 449 461 L 449 460 L 447 458 L 446 458 L 445 459 L 444 459 L 443 458 L 444 457 L 443 456 L 442 456 "></path>
        <path fill="none" stroke="#fa00fa" stroke-width="3" d="M 403 351 L 403 352 L 400 355 L 401 356 L 399 358 L 400 358 L 401 359 L 401 360 L 402 361 L 405 361 L 406 362 L 407 361 L 408 361 L 409 360 L 409 358 L 410 357 L 409 356 L 409 353 L 408 352 L 407 353 L 406 353 L 405 352 L 406 351 L 405 352 L 404 351 "></path>
        <path fill="none" stroke="#fa00fa" stroke-width="3" d="M 469 303 L 470 303 L 471 304 L 470 305 L 469 305 L 469 306 L 468 307 L 469 307 L 470 308 L 469 309 L 467 309 L 467 310 L 468 311 L 468 314 L 469 314 L 470 315 L 471 315 L 472 316 L 472 317 L 475 317 L 475 316 L 474 315 L 476 313 L 475 312 L 475 310 L 474 310 L 473 309 L 474 308 L 476 308 L 475 307 L 476 306 L 475 307 L 474 306 L 474 304 L 472 304 L 471 303 "></path>
        <path fill="none" stroke="#fa00fa" stroke-width="3" d="M 477 368 L 476 369 L 476 370 L 475 371 L 475 373 L 474 374 L 473 374 L 474 374 L 475 375 L 475 376 L 476 376 L 478 378 L 479 377 L 480 378 L 482 378 L 481 377 L 482 376 L 484 376 L 484 374 L 483 373 L 484 372 L 484 371 L 481 368 "></path>
        <path fill="none" stroke="#fa00fa" stroke-width="3" d="M 524 501 L 523 502 L 523 503 L 522 504 L 521 504 L 522 504 L 523 505 L 522 506 L 522 507 L 521 508 L 521 510 L 522 510 L 523 511 L 523 513 L 524 514 L 526 514 L 529 511 L 529 510 L 528 509 L 529 508 L 528 507 L 529 506 L 528 505 L 528 502 L 526 502 L 525 501 "></path>
        <path fill="none" stroke="#fa00fa" stroke-width="3" d="M 634 412 L 633 413 L 631 413 L 629 415 L 629 417 L 628 418 L 629 419 L 630 419 L 631 420 L 632 420 L 633 421 L 632 422 L 631 422 L 633 424 L 633 425 L 635 425 L 636 426 L 637 426 L 639 424 L 638 423 L 638 421 L 637 422 L 636 421 L 636 420 L 637 419 L 636 420 L 635 419 L 635 415 L 636 414 L 636 413 L 635 412 "></path>
        <path fill="none" stroke="#fa00fa" stroke-width="3" d="M 474 545 L 473 546 L 471 546 L 469 548 L 469 549 L 467 551 L 468 552 L 468 553 L 471 553 L 472 554 L 472 555 L 474 553 L 475 554 L 476 554 L 476 553 L 477 552 L 478 552 L 478 549 L 479 548 L 480 549 L 480 550 L 480 549 L 477 546 L 477 545 L 476 546 L 475 545 "></path>
        <path fill="none" stroke="#fa00fa" stroke-width="3" d="M 645 330 L 644 331 L 645 332 L 644 333 L 644 334 L 645 335 L 645 337 L 646 337 L 649 340 L 651 340 L 652 339 L 654 339 L 654 337 L 655 336 L 655 335 L 652 332 L 651 333 L 650 333 L 649 332 L 649 330 L 648 331 L 647 330 "></path>
        <path fill="none" stroke="#fa00fa" stroke-width="3" d="M 559 439 L 557 441 L 555 441 L 552 444 L 553 445 L 553 449 L 556 449 L 557 448 L 558 449 L 559 449 L 560 448 L 561 449 L 562 448 L 562 446 L 561 445 L 562 444 L 562 441 L 561 442 L 560 441 L 560 440 "></path>
        <path fill="none" stroke="#fa00fa" stroke-width="3" d="M 526 305 L 522 309 L 522 312 L 523 313 L 522 314 L 522 315 L 523 316 L 524 315 L 525 315 L 526 314 L 527 315 L 527 316 L 527 314 L 528 313 L 529 314 L 529 315 L 530 314 L 530 312 L 531 311 L 531 307 L 530 307 L 529 306 L 528 306 L 527 305 "></path>
        <path fill="none" stroke="#fa00fa" stroke-width="3" d="M 561 421 L 560 422 L 560 424 L 559 425 L 559 427 L 558 428 L 557 428 L 558 428 L 559 429 L 558 430 L 557 430 L 557 431 L 558 432 L 559 431 L 560 431 L 561 432 L 561 433 L 562 432 L 563 432 L 564 431 L 564 430 L 565 429 L 566 429 L 566 428 L 565 427 L 567 425 L 568 426 L 568 425 L 569 424 L 568 425 L 565 422 L 563 422 L 562 421 "></path>
        <path fill="none" stroke="#fa00fa" stroke-width="3" d="M 507 291 L 505 293 L 504 292 L 503 293 L 504 294 L 504 295 L 503 296 L 506 296 L 507 297 L 507 299 L 506 300 L 507 301 L 506 302 L 506 303 L 505 304 L 508 304 L 509 305 L 511 303 L 512 303 L 511 302 L 513 300 L 512 300 L 511 299 L 512 298 L 513 298 L 511 296 L 512 295 L 510 293 L 508 293 L 507 292 "></path>
        <path fill="none" stroke="#fa00fa" stroke-width="3" d="M 549 338 L 549 339 L 548 340 L 547 339 L 547 341 L 546 342 L 546 343 L 548 345 L 547 346 L 547 347 L 548 347 L 550 349 L 552 349 L 554 347 L 554 344 L 555 343 L 554 342 L 555 341 L 556 341 L 556 340 L 555 341 L 553 339 L 551 339 L 550 338 "></path>
        <path fill="none" stroke="#fa00fa" stroke-width="3" d="M 579 388 L 578 389 L 576 389 L 574 391 L 575 392 L 575 395 L 576 395 L 577 396 L 576 397 L 577 396 L 579 398 L 580 398 L 581 397 L 582 398 L 582 397 L 585 394 L 584 394 L 583 393 L 584 392 L 584 390 L 582 390 L 581 389 L 580 389 "></path>
        <path fill="none" stroke="#fa00fa" stroke-width="3" d="M 596 352 L 594 354 L 593 354 L 594 355 L 593 356 L 594 357 L 594 358 L 597 361 L 600 361 L 601 360 L 602 361 L 602 360 L 601 359 L 603 357 L 603 355 L 602 354 L 602 352 L 601 353 L 600 352 L 598 352 L 597 353 "></path>
        <path fill="none" stroke="#fa00fa" stroke-width="3" d="M 599 440 L 599 441 L 598 442 L 597 442 L 596 441 L 595 442 L 594 442 L 592 444 L 592 447 L 593 448 L 594 448 L 595 449 L 597 449 L 599 451 L 600 450 L 601 450 L 602 449 L 602 448 L 601 447 L 601 444 L 600 443 L 600 441 "></path>
        <path fill="none" stroke="#fa00fa" stroke-width="3" d="M 675 503 L 674 504 L 673 504 L 671 506 L 669 506 L 667 508 L 667 509 L 668 510 L 668 512 L 669 512 L 670 513 L 671 512 L 673 512 L 674 511 L 676 511 L 676 509 L 677 508 L 678 509 L 678 507 L 677 506 L 677 505 L 678 504 L 677 503 "></path>
        <path fill="none" stroke="#fa00fa" stroke-width="3" d="M 606 602 L 606 603 L 605 604 L 604 603 L 601 603 L 600 604 L 599 603 L 598 604 L 599 605 L 597 607 L 599 609 L 598 610 L 600 610 L 601 611 L 603 611 L 604 610 L 605 610 L 607 608 L 608 608 L 608 607 L 607 606 L 608 605 L 607 604 L 607 603 "></path>
        <path fill="none" stroke="#fa00fa" stroke-width="3" d="M 562 354 L 561 355 L 559 355 L 559 357 L 558 358 L 558 359 L 557 360 L 557 361 L 558 362 L 559 362 L 560 363 L 562 363 L 563 362 L 564 363 L 567 360 L 567 359 L 566 358 L 567 357 L 566 356 L 566 355 L 565 356 L 564 355 L 564 354 "></path>
        <path fill="none" stroke="#fa00fa" stroke-width="3" d="M 597 460 L 597 461 L 596 462 L 595 462 L 595 463 L 594 464 L 595 465 L 594 466 L 593 466 L 593 469 L 594 470 L 594 471 L 595 472 L 597 472 L 598 471 L 599 472 L 602 469 L 601 470 L 600 469 L 600 468 L 601 467 L 601 466 L 602 465 L 601 465 L 600 464 L 600 463 L 599 463 L 597 461 "></path>
        <path fill="none" stroke="#fa00fa" stroke-width="3" d="M 577 225 L 576 226 L 575 226 L 574 227 L 574 228 L 575 228 L 576 229 L 576 231 L 577 232 L 576 233 L 577 234 L 578 233 L 579 234 L 579 236 L 579 235 L 580 234 L 581 235 L 581 236 L 584 236 L 584 235 L 585 234 L 586 234 L 585 233 L 585 232 L 584 231 L 584 230 L 582 230 L 580 228 L 581 227 L 580 227 L 579 226 L 578 226 "></path>
        <path fill="none" stroke="#fa00fa" stroke-width="3" d="M 591 293 L 590 294 L 589 294 L 588 295 L 588 296 L 587 297 L 589 299 L 589 303 L 590 303 L 593 306 L 595 304 L 596 304 L 596 302 L 595 301 L 596 300 L 594 298 L 594 296 L 593 297 L 592 296 L 592 294 "></path>
        <path fill="none" stroke="#fa00fa" stroke-width="3" d="M 662 536 L 662 537 L 661 538 L 660 537 L 660 538 L 658 540 L 659 541 L 659 542 L 660 542 L 661 543 L 660 544 L 661 544 L 662 545 L 663 544 L 665 544 L 666 545 L 667 544 L 668 544 L 669 543 L 668 542 L 669 541 L 668 540 L 668 539 L 667 538 L 667 537 L 666 538 L 664 536 "></path>
        <path fill="none" stroke="#fa00fa" stroke-width="3" d="M 490 293 L 490 294 L 489 295 L 487 295 L 486 296 L 486 297 L 485 298 L 486 299 L 486 302 L 487 302 L 488 301 L 489 302 L 490 302 L 492 300 L 493 300 L 494 301 L 495 300 L 495 299 L 496 298 L 495 297 L 495 296 L 493 294 L 492 294 L 491 293 "></path>
        <path fill="none" stroke="#fa00fa" stroke-width="3" d="M 595 424 L 593 426 L 592 425 L 591 425 L 590 426 L 590 429 L 589 430 L 589 433 L 590 433 L 591 434 L 592 434 L 594 432 L 595 433 L 595 434 L 595 433 L 594 432 L 595 431 L 595 430 L 596 429 L 597 430 L 597 431 L 598 430 L 598 429 L 599 428 L 599 425 L 596 425 "></path>
        <path fill="none" stroke="#fa00fa" stroke-width="3" d="M 508 491 L 508 493 L 509 494 L 509 495 L 510 496 L 510 497 L 509 498 L 509 499 L 510 499 L 511 500 L 511 501 L 512 501 L 513 502 L 513 501 L 515 499 L 516 499 L 516 497 L 517 496 L 517 494 L 516 494 L 513 491 L 512 491 L 511 492 L 510 491 "></path>
        <path fill="none" stroke="#fa00fa" stroke-width="3" d="M 524 562 L 522 564 L 521 563 L 520 564 L 519 563 L 518 563 L 517 564 L 517 565 L 516 566 L 516 568 L 517 569 L 518 569 L 520 571 L 521 570 L 522 571 L 523 571 L 525 569 L 525 567 L 526 566 L 526 565 L 525 564 L 525 563 "></path>
        <path fill="none" stroke="#fa00fa" stroke-width="3" d="M 488 254 L 485 257 L 485 259 L 486 260 L 485 261 L 486 260 L 487 260 L 488 261 L 488 262 L 489 263 L 490 262 L 491 262 L 492 263 L 493 263 L 493 262 L 492 261 L 493 260 L 494 260 L 495 259 L 495 257 L 494 256 L 493 256 L 491 254 "></path>
        <path fill="none" stroke="#fa00fa" stroke-width="3" d="M 302 261 L 301 262 L 300 262 L 299 263 L 298 262 L 296 262 L 296 263 L 294 265 L 296 267 L 295 268 L 296 267 L 299 270 L 300 269 L 302 269 L 304 267 L 304 266 L 305 265 L 305 264 L 304 263 L 304 262 L 303 262 "></path>
        <path fill="none" stroke="#fa00fa" stroke-width="3" d="M 443 364 L 441 366 L 440 366 L 440 367 L 439 368 L 438 368 L 437 369 L 437 371 L 438 372 L 440 372 L 442 370 L 443 371 L 444 371 L 445 372 L 446 371 L 448 371 L 448 369 L 447 368 L 448 367 L 447 366 L 447 365 L 446 365 L 445 364 "></path>
        <path fill="none" stroke="#fa00fa" stroke-width="3" d="M 573 499 L 574 500 L 573 501 L 572 501 L 571 502 L 572 502 L 573 503 L 573 504 L 571 506 L 572 505 L 573 506 L 573 507 L 576 507 L 577 508 L 580 508 L 581 507 L 581 506 L 582 505 L 581 504 L 581 503 L 580 503 L 578 501 L 578 500 L 577 499 L 576 499 L 575 500 L 574 500 "></path>
        <path fill="none" stroke="#fa00fa" stroke-width="3" d="M 496 330 L 496 331 L 494 333 L 494 336 L 495 337 L 496 337 L 497 338 L 497 339 L 498 340 L 500 340 L 501 339 L 502 339 L 502 338 L 503 337 L 502 336 L 502 335 L 501 335 L 500 334 L 501 333 L 501 331 L 500 330 L 499 331 L 498 330 "></path>
        <path fill="none" stroke="#fa00fa" stroke-width="3" d="M 493 559 L 493 560 L 492 561 L 491 561 L 490 560 L 485 560 L 485 563 L 486 562 L 487 563 L 487 566 L 488 567 L 488 568 L 489 568 L 490 567 L 494 567 L 494 565 L 495 564 L 496 564 L 496 563 L 494 561 L 494 560 "></path>
        <path fill="none" stroke="#fa00fa" stroke-width="3" d="M 574 365 L 574 366 L 573 367 L 572 366 L 571 366 L 571 368 L 568 371 L 569 370 L 570 371 L 570 373 L 569 374 L 571 376 L 570 377 L 571 378 L 572 378 L 573 379 L 575 379 L 574 378 L 575 377 L 575 376 L 574 376 L 573 375 L 573 374 L 574 373 L 575 374 L 574 373 L 575 372 L 575 371 L 577 369 L 577 368 L 576 367 L 575 367 L 574 366 "></path>
        <path fill="none" stroke="#fa00fa" stroke-width="3" d="M 743 439 L 742 440 L 742 441 L 741 442 L 742 443 L 741 444 L 742 444 L 743 445 L 742 446 L 741 446 L 742 447 L 742 449 L 743 448 L 744 449 L 744 451 L 745 450 L 746 451 L 747 450 L 748 450 L 748 449 L 746 447 L 748 445 L 749 446 L 749 445 L 748 444 L 748 443 L 747 443 L 746 442 L 747 441 L 748 441 L 747 440 L 747 439 "></path>
        <path fill="none" stroke="#fa00fa" stroke-width="3" d="M 552 464 L 552 465 L 550 467 L 550 468 L 551 469 L 550 470 L 552 472 L 551 473 L 553 475 L 554 475 L 557 472 L 558 472 L 557 471 L 557 470 L 558 469 L 557 468 L 558 467 L 558 466 L 557 465 L 554 465 L 553 466 L 552 465 "></path>
        <path fill="none" stroke="#fa00fa" stroke-width="3" d="M 350 349 L 349 350 L 349 351 L 348 352 L 349 353 L 349 355 L 350 355 L 351 356 L 351 358 L 352 357 L 354 359 L 355 358 L 355 357 L 356 356 L 357 356 L 357 355 L 358 354 L 357 353 L 358 352 L 357 352 L 355 350 L 352 350 L 351 349 "></path>
        <path fill="none" stroke="#fa00fa" stroke-width="3" d="M 662 368 L 662 369 L 660 371 L 659 370 L 658 371 L 658 374 L 659 375 L 658 376 L 660 378 L 662 378 L 664 380 L 665 379 L 666 379 L 666 378 L 667 377 L 666 376 L 666 375 L 665 375 L 664 374 L 665 373 L 663 371 L 663 368 "></path>
        <path fill="none" stroke="#fa00fa" stroke-width="3" d="M 495 385 L 495 386 L 494 387 L 493 386 L 492 387 L 491 386 L 492 387 L 491 388 L 491 390 L 492 391 L 493 391 L 496 394 L 498 394 L 498 393 L 499 392 L 500 392 L 502 390 L 499 387 L 498 387 L 496 385 "></path>
        <path fill="none" stroke="#fa00fa" stroke-width="3" d="M 475 388 L 474 389 L 473 389 L 474 390 L 473 391 L 473 394 L 475 396 L 475 398 L 476 398 L 477 397 L 478 397 L 479 398 L 480 398 L 480 397 L 481 396 L 482 396 L 483 395 L 482 394 L 481 395 L 480 394 L 480 393 L 481 392 L 480 391 L 479 391 L 478 390 L 478 389 L 477 390 L 476 389 L 476 388 "></path>
        <path fill="none" stroke="#fa00fa" stroke-width="3" d="M 596 387 L 596 388 L 594 390 L 594 391 L 595 392 L 594 393 L 596 393 L 598 395 L 599 395 L 600 394 L 603 394 L 603 392 L 605 390 L 604 389 L 603 389 L 602 388 L 602 387 L 600 387 L 600 388 L 599 389 L 598 388 L 598 387 "></path>
        <path fill="none" stroke="#fa00fa" stroke-width="3" d="M 575 284 L 576 285 L 575 286 L 575 287 L 576 288 L 576 289 L 575 290 L 574 290 L 573 291 L 576 294 L 576 295 L 577 294 L 578 295 L 579 294 L 579 293 L 580 292 L 581 293 L 581 291 L 582 290 L 581 289 L 581 288 L 582 287 L 580 285 L 578 285 L 577 284 "></path>
        <path fill="none" stroke="#fa00fa" stroke-width="3" d="M 511 456 L 512 457 L 512 458 L 511 459 L 509 457 L 510 458 L 510 459 L 509 460 L 508 460 L 508 461 L 509 462 L 509 463 L 510 464 L 510 466 L 514 466 L 514 465 L 516 463 L 517 463 L 517 462 L 516 461 L 517 460 L 516 460 L 515 459 L 516 458 L 514 456 L 513 456 L 512 457 "></path>
        <path fill="none" stroke="#fa00fa" stroke-width="3" d="M 535 545 L 534 546 L 533 546 L 532 547 L 532 548 L 530 550 L 532 552 L 533 552 L 534 553 L 533 554 L 534 554 L 535 555 L 537 555 L 539 553 L 538 552 L 539 551 L 539 549 L 537 547 L 537 546 L 536 546 "></path>
        <path fill="none" stroke="#fa00fa" stroke-width="3" d="M 462 327 L 461 328 L 460 328 L 459 329 L 458 329 L 458 332 L 459 333 L 459 334 L 460 334 L 461 335 L 461 336 L 462 335 L 464 337 L 465 336 L 465 332 L 466 331 L 467 331 L 468 332 L 468 333 L 468 332 L 467 331 L 467 328 L 466 328 L 465 329 L 464 328 L 464 327 L 463 328 "></path>
        <path fill="none" stroke="#fa00fa" stroke-width="3" d="M 604 173 L 601 176 L 601 178 L 603 180 L 604 180 L 605 181 L 607 181 L 608 180 L 609 181 L 609 180 L 611 178 L 610 177 L 610 175 L 609 175 L 608 174 L 606 174 L 605 173 "></path>
        <path fill="none" stroke="#fa00fa" stroke-width="3" d="M 441 491 L 439 493 L 438 492 L 437 493 L 437 495 L 439 497 L 439 500 L 443 500 L 443 499 L 444 498 L 445 499 L 445 497 L 446 496 L 445 495 L 446 494 L 444 492 L 442 492 "></path>
        <path fill="none" stroke="#fa00fa" stroke-width="3" d="M 594 371 L 593 372 L 592 372 L 592 373 L 590 375 L 589 375 L 589 376 L 588 377 L 589 378 L 589 379 L 591 381 L 592 381 L 593 380 L 594 380 L 595 379 L 596 379 L 597 378 L 597 376 L 598 375 L 597 376 L 596 375 L 596 374 L 597 373 L 596 373 "></path>
        <path fill="none" stroke="#fa00fa" stroke-width="3" d="M 477 273 L 476 274 L 476 275 L 477 276 L 477 279 L 478 280 L 478 281 L 479 280 L 480 281 L 480 282 L 481 281 L 482 282 L 482 283 L 482 282 L 484 280 L 485 280 L 486 281 L 486 282 L 486 279 L 485 279 L 484 278 L 484 276 L 483 275 L 482 275 L 481 274 L 482 273 "></path>
        <path fill="none" stroke="#fa00fa" stroke-width="3" d="M 435 545 L 433 547 L 432 547 L 431 546 L 429 546 L 428 547 L 428 549 L 427 550 L 427 552 L 428 552 L 429 553 L 430 553 L 431 554 L 432 554 L 433 553 L 434 554 L 435 553 L 434 553 L 433 552 L 435 550 L 436 550 L 436 548 L 437 547 L 438 548 "></path>
        <path fill="none" stroke="#fa00fa" stroke-width="3" d="M 717 477 L 716 478 L 716 480 L 717 481 L 717 482 L 718 482 L 719 483 L 719 484 L 720 484 L 721 485 L 723 485 L 725 483 L 725 480 L 724 479 L 724 477 L 722 477 L 721 478 L 720 478 L 719 477 "></path>
        <path fill="none" stroke="#fa00fa" stroke-width="3" d="M 595 406 L 594 407 L 594 408 L 593 409 L 592 409 L 591 410 L 591 411 L 590 412 L 591 411 L 592 412 L 593 412 L 594 413 L 594 414 L 596 416 L 597 416 L 598 415 L 600 415 L 600 414 L 599 413 L 599 412 L 598 411 L 599 410 L 599 409 L 598 408 L 599 407 L 599 406 L 598 406 L 597 407 L 596 406 "></path>
        <path fill="none" stroke="#fa00fa" stroke-width="3" d="M 529 459 L 527 461 L 527 463 L 529 465 L 528 466 L 527 466 L 529 468 L 530 467 L 531 467 L 532 466 L 534 468 L 534 467 L 535 466 L 536 467 L 535 466 L 535 465 L 536 464 L 537 464 L 535 462 L 535 461 L 532 461 L 531 460 L 531 459 "></path>
        <path fill="none" stroke="#fa00fa" stroke-width="3" d="M 678 314 L 678 315 L 677 316 L 678 317 L 677 318 L 676 318 L 677 319 L 677 320 L 675 322 L 675 324 L 676 325 L 677 325 L 678 326 L 681 323 L 682 324 L 683 323 L 683 320 L 682 320 L 681 319 L 681 318 L 682 317 L 680 315 L 679 316 L 678 315 "></path>
        <path fill="none" stroke="#fa00fa" stroke-width="3" d="M 558 150 L 558 151 L 557 152 L 556 151 L 556 152 L 553 155 L 554 156 L 554 157 L 555 157 L 556 158 L 557 158 L 558 157 L 559 158 L 560 157 L 562 157 L 561 156 L 562 155 L 563 155 L 563 153 L 562 152 L 562 151 L 561 150 "></path>
        <path fill="none" stroke="#fa00fa" stroke-width="3" d="M 606 362 L 606 364 L 607 365 L 606 366 L 606 367 L 608 369 L 607 370 L 608 370 L 609 371 L 612 371 L 613 370 L 613 368 L 614 367 L 614 366 L 613 365 L 612 365 L 611 364 L 611 362 "></path>
        <path fill="none" stroke="#fa00fa" stroke-width="3" d="M 349 434 L 348 435 L 346 435 L 345 436 L 345 439 L 346 440 L 346 442 L 348 444 L 350 442 L 351 443 L 350 442 L 351 441 L 352 441 L 353 440 L 353 439 L 354 438 L 353 439 L 352 438 L 351 438 L 350 437 L 351 436 L 353 436 L 353 435 L 352 434 L 351 434 L 350 435 "></path>
        <path fill="none" stroke="#fa00fa" stroke-width="3" d="M 296 431 L 295 432 L 295 433 L 294 434 L 293 433 L 292 434 L 293 435 L 293 436 L 292 437 L 293 438 L 293 439 L 294 440 L 294 441 L 295 440 L 296 441 L 297 441 L 298 440 L 297 439 L 298 438 L 300 438 L 300 436 L 299 435 L 300 434 L 298 432 L 297 432 "></path>
        <path fill="none" stroke="#fa00fa" stroke-width="3" d="M 595 276 L 595 277 L 591 281 L 591 283 L 592 284 L 592 285 L 593 286 L 594 285 L 595 286 L 597 286 L 597 285 L 598 284 L 598 283 L 599 282 L 599 281 L 597 279 L 597 278 L 596 277 L 596 276 "></path>
        <path fill="none" stroke="#fa00fa" stroke-width="3" d="M 427 349 L 427 350 L 426 351 L 426 352 L 425 353 L 426 354 L 426 356 L 427 357 L 431 357 L 433 355 L 433 353 L 434 352 L 433 352 L 432 351 L 432 350 L 431 349 L 429 349 L 428 350 "></path>
        <path fill="none" stroke="#fa00fa" stroke-width="3" d="M 430 474 L 429 475 L 428 475 L 427 476 L 427 477 L 426 478 L 426 479 L 427 479 L 428 480 L 427 481 L 429 481 L 430 482 L 431 481 L 432 481 L 433 480 L 435 480 L 434 479 L 435 478 L 435 475 L 434 475 L 433 474 "></path>
        <path fill="none" stroke="#fa00fa" stroke-width="3" d="M 505 272 L 506 272 L 508 274 L 507 275 L 502 275 L 502 280 L 503 281 L 503 282 L 504 283 L 505 282 L 506 283 L 507 282 L 508 282 L 509 283 L 509 282 L 508 281 L 509 280 L 509 276 L 508 275 L 508 274 L 506 272 "></path>
        <path fill="none" stroke="#fa00fa" stroke-width="3" d="M 432 381 L 431 382 L 430 382 L 430 384 L 431 384 L 433 386 L 433 387 L 435 389 L 436 389 L 437 388 L 438 388 L 439 387 L 440 387 L 441 386 L 441 385 L 439 383 L 436 383 L 435 382 L 436 381 L 435 381 L 434 382 L 433 382 "></path>
        <path fill="none" stroke="#fa00fa" stroke-width="3" d="M 415 368 L 414 369 L 414 370 L 413 371 L 412 371 L 411 372 L 411 375 L 414 375 L 415 376 L 416 376 L 417 377 L 417 378 L 417 377 L 418 376 L 419 377 L 420 376 L 419 375 L 420 374 L 420 373 L 418 371 L 418 368 L 417 368 L 417 369 L 416 370 L 415 369 "></path>
        <path fill="none" stroke="#fa00fa" stroke-width="3" d="M 772 389 L 772 390 L 770 392 L 769 392 L 769 395 L 770 396 L 770 397 L 771 397 L 772 398 L 773 398 L 775 396 L 776 396 L 777 395 L 777 392 L 776 391 L 776 390 L 773 390 "></path>
        <path fill="none" stroke="#fa00fa" stroke-width="3" d="M 380 525 L 379 526 L 376 526 L 375 527 L 375 528 L 374 529 L 374 532 L 375 532 L 376 533 L 377 533 L 378 534 L 380 534 L 380 533 L 382 531 L 382 530 L 381 529 L 381 527 L 380 526 "></path>
        <path fill="none" stroke="#fa00fa" stroke-width="3" d="M 647 260 L 645 262 L 644 262 L 645 263 L 644 264 L 643 264 L 643 265 L 642 266 L 643 266 L 644 267 L 644 268 L 643 269 L 644 268 L 646 270 L 646 271 L 647 271 L 647 270 L 649 268 L 650 268 L 650 265 L 651 264 L 650 263 L 650 262 L 649 263 L 648 262 L 648 261 "></path>
        <path fill="none" stroke="#fa00fa" stroke-width="3" d="M 335 500 L 334 501 L 331 501 L 330 502 L 330 505 L 329 506 L 330 506 L 331 507 L 330 508 L 331 507 L 332 508 L 334 508 L 335 507 L 336 507 L 338 505 L 337 504 L 338 503 L 337 502 L 337 501 L 336 500 "></path>
        <path fill="none" stroke="#fa00fa" stroke-width="3" d="M 528 286 L 526 288 L 527 289 L 527 292 L 528 293 L 530 293 L 531 294 L 532 293 L 532 292 L 533 291 L 534 292 L 535 291 L 536 291 L 535 290 L 535 289 L 534 288 L 535 287 L 534 288 L 532 286 L 530 286 L 529 287 "></path>
        <path fill="none" stroke="#fa00fa" stroke-width="3" d="M 655 236 L 655 237 L 653 239 L 649 239 L 649 243 L 650 243 L 651 244 L 653 244 L 654 245 L 655 245 L 657 243 L 658 243 L 657 242 L 658 241 L 659 241 L 658 240 L 658 239 L 656 239 L 655 238 L 656 237 L 657 237 L 656 237 "></path>
        <path fill="none" stroke="#fa00fa" stroke-width="3" d="M 517 537 L 516 538 L 515 538 L 514 539 L 514 544 L 515 545 L 515 546 L 516 546 L 517 547 L 518 546 L 519 546 L 520 545 L 521 545 L 520 544 L 520 543 L 521 542 L 520 542 L 519 541 L 520 540 L 518 538 L 518 537 "></path>
        <path fill="none" stroke="#fa00fa" stroke-width="3" d="M 462 385 L 457 390 L 458 391 L 458 394 L 459 393 L 460 394 L 460 395 L 462 395 L 464 393 L 464 390 L 465 389 L 465 388 L 464 388 L 462 386 "></path>
        <path fill="none" stroke="#fa00fa" stroke-width="3" d="M 466 427 L 464 429 L 463 429 L 463 430 L 464 431 L 463 432 L 463 435 L 464 435 L 465 436 L 467 434 L 468 434 L 469 433 L 469 432 L 470 431 L 471 432 L 471 431 L 470 430 L 470 428 L 469 427 L 468 428 L 467 427 "></path>
        <path fill="none" stroke="#fa00fa" stroke-width="3" d="M 559 244 L 558 245 L 556 245 L 555 246 L 556 247 L 556 248 L 554 250 L 554 251 L 555 252 L 555 253 L 556 253 L 557 254 L 558 253 L 560 253 L 561 252 L 561 251 L 560 250 L 560 249 L 562 247 L 561 248 L 560 247 L 560 246 L 561 245 L 560 245 "></path>
        <path fill="none" stroke="#fa00fa" stroke-width="3" d="M 1050 619 L 1050 622 L 1049 623 L 1049 625 L 1050 626 L 1049 627 L 1048 627 L 1048 628 L 1050 630 L 1051 629 L 1052 630 L 1054 628 L 1054 620 L 1052 620 L 1051 621 L 1050 620 "></path>
        <path fill="none" stroke="#fa00fa" stroke-width="3" d="M 550 270 L 550 271 L 549 272 L 548 271 L 547 271 L 546 272 L 547 273 L 547 276 L 548 277 L 549 277 L 550 278 L 551 278 L 554 275 L 555 275 L 555 273 L 552 270 L 552 271 L 551 272 L 550 271 "></path>
        <path fill="none" stroke="#fa00fa" stroke-width="3" d="M 770 413 L 769 414 L 768 414 L 767 415 L 763 415 L 762 416 L 763 417 L 762 418 L 762 419 L 763 418 L 764 419 L 764 420 L 766 420 L 766 419 L 767 418 L 768 419 L 768 421 L 769 420 L 770 420 L 770 419 L 771 418 L 772 419 L 772 416 L 770 414 "></path>
        <path fill="none" stroke="#fa00fa" stroke-width="3" d="M 345 403 L 344 404 L 342 404 L 341 405 L 342 406 L 341 407 L 341 408 L 342 409 L 342 410 L 343 409 L 344 410 L 344 412 L 345 412 L 345 411 L 346 410 L 347 410 L 349 408 L 349 407 L 348 406 L 348 405 L 347 404 L 347 403 L 346 404 "></path>
        <path fill="none" stroke="#fa00fa" stroke-width="3" d="M 648 524 L 647 525 L 646 525 L 646 526 L 644 528 L 644 529 L 647 532 L 648 532 L 649 531 L 650 531 L 650 530 L 651 529 L 652 530 L 651 529 L 652 528 L 652 526 L 650 524 "></path>
        <path fill="none" stroke="#fa00fa" stroke-width="3" d="M 676 384 L 674 386 L 674 389 L 675 389 L 677 391 L 680 391 L 682 389 L 682 388 L 681 387 L 681 386 L 679 384 L 678 384 L 677 385 "></path>
        <path fill="none" stroke="#fa00fa" stroke-width="3" d="M 282 369 L 281 370 L 279 370 L 279 371 L 278 372 L 279 373 L 279 374 L 280 374 L 281 375 L 282 374 L 283 375 L 283 377 L 284 376 L 285 377 L 287 377 L 287 376 L 288 375 L 289 375 L 288 374 L 289 373 L 288 373 L 287 372 L 286 373 L 285 372 L 285 371 L 284 371 L 283 372 L 282 371 "></path>
        <path fill="none" stroke="#fa00fa" stroke-width="3" d="M 481 683 L 480 684 L 480 685 L 481 686 L 481 689 L 483 691 L 484 691 L 486 689 L 487 690 L 488 689 L 488 688 L 487 687 L 488 686 L 488 685 L 487 686 L 485 684 L 483 684 L 482 683 "></path>
        <path fill="none" stroke="#fa00fa" stroke-width="3" d="M 384 344 L 383 345 L 382 345 L 381 346 L 381 347 L 382 348 L 381 349 L 382 348 L 384 350 L 383 351 L 382 351 L 383 351 L 384 352 L 385 352 L 385 350 L 386 349 L 387 350 L 387 352 L 387 351 L 388 350 L 389 351 L 389 352 L 389 351 L 388 350 L 389 349 L 389 348 L 388 347 L 390 345 L 389 344 L 387 344 L 386 345 L 385 345 "></path>
        <path fill="none" stroke="#fa00fa" stroke-width="3" d="M 617 535 L 616 536 L 615 536 L 614 537 L 613 537 L 613 539 L 615 541 L 615 542 L 616 543 L 617 543 L 617 541 L 618 540 L 619 540 L 620 541 L 619 542 L 620 542 L 620 541 L 621 540 L 622 540 L 621 539 L 621 538 L 622 537 L 621 537 L 620 536 L 619 536 L 618 535 "></path>
        <path fill="none" stroke="#fa00fa" stroke-width="3" d="M 711 525 L 710 526 L 711 527 L 710 528 L 710 530 L 709 531 L 709 532 L 711 534 L 712 534 L 713 533 L 715 533 L 716 532 L 716 531 L 715 530 L 716 529 L 714 527 L 715 526 L 714 526 L 713 527 "></path>
        <path fill="none" stroke="#fa00fa" stroke-width="3" d="M 392 632 L 393 633 L 392 634 L 391 634 L 392 635 L 392 636 L 391 637 L 391 640 L 392 641 L 393 640 L 394 641 L 395 641 L 396 640 L 396 639 L 397 638 L 397 636 L 396 635 L 396 633 L 395 633 L 394 632 "></path>
        <path fill="none" stroke="#fa00fa" stroke-width="3" d="M 735 513 L 735 514 L 734 515 L 733 515 L 733 519 L 734 520 L 734 521 L 735 521 L 736 520 L 738 522 L 739 521 L 738 520 L 739 519 L 740 519 L 740 518 L 741 517 L 740 517 L 739 516 L 739 515 L 738 514 L 737 514 L 736 515 L 735 514 "></path>
        <path fill="none" stroke="#fa00fa" stroke-width="3" d="M 618 242 L 616 244 L 615 244 L 615 248 L 617 250 L 616 251 L 617 251 L 618 250 L 619 251 L 621 251 L 621 249 L 622 248 L 621 249 L 620 248 L 620 247 L 621 246 L 621 245 L 622 244 L 621 245 L 619 243 L 619 242 "></path>
        <path fill="none" stroke="#fa00fa" stroke-width="3" d="M 554 290 L 553 291 L 552 291 L 552 292 L 551 293 L 551 294 L 552 295 L 551 296 L 552 297 L 554 297 L 555 296 L 556 297 L 557 297 L 558 296 L 558 293 L 557 292 L 557 290 L 556 290 L 555 291 "></path>
        <path fill="none" stroke="#fa00fa" stroke-width="3" d="M 463 372 L 463 373 L 462 374 L 462 375 L 461 376 L 460 375 L 461 376 L 461 377 L 460 378 L 460 380 L 461 379 L 462 380 L 464 380 L 465 379 L 466 380 L 466 379 L 467 378 L 468 379 L 468 378 L 467 378 L 466 377 L 467 376 L 467 375 L 468 374 L 469 374 L 468 374 L 466 372 L 464 374 L 463 373 "></path>
        <path fill="none" stroke="#fa00fa" stroke-width="3" d="M 330 542 L 328 544 L 328 545 L 327 546 L 327 548 L 328 549 L 328 550 L 329 551 L 329 552 L 331 552 L 333 550 L 332 549 L 332 548 L 333 547 L 333 546 L 332 545 L 332 544 L 331 544 L 330 543 "></path>
        <path fill="none" stroke="#fa00fa" stroke-width="3" d="M 840 226 L 839 227 L 837 227 L 837 230 L 836 231 L 839 234 L 842 234 L 842 233 L 843 232 L 843 230 L 842 229 L 842 228 L 843 227 L 842 228 "></path>
        <path fill="none" stroke="#fa00fa" stroke-width="3" d="M 207 273 L 207 275 L 206 276 L 207 277 L 207 279 L 208 279 L 209 280 L 211 280 L 212 281 L 212 282 L 213 281 L 213 280 L 214 279 L 213 279 L 212 278 L 213 277 L 214 277 L 213 277 L 212 276 L 213 275 L 212 274 L 211 274 L 210 273 L 209 274 L 208 274 "></path>
        <path fill="none" stroke="#fa00fa" stroke-width="3" d="M 484 353 L 481 356 L 483 358 L 483 359 L 486 359 L 487 358 L 488 359 L 488 360 L 489 359 L 489 358 L 490 357 L 490 356 L 489 355 L 488 355 L 487 354 L 488 353 L 487 354 L 486 353 "></path>
        <path fill="none" stroke="#fa00fa" stroke-width="3" d="M 449 397 L 448 398 L 447 398 L 446 399 L 446 400 L 447 401 L 447 402 L 448 403 L 449 403 L 451 405 L 450 406 L 451 405 L 452 405 L 453 406 L 454 405 L 453 406 L 452 405 L 452 404 L 453 403 L 454 403 L 454 402 L 453 401 L 453 399 L 452 399 L 451 398 L 450 398 "></path>
        <path fill="none" stroke="#fa00fa" stroke-width="3" d="M 635 588 L 634 589 L 631 589 L 631 591 L 630 592 L 630 594 L 631 595 L 632 594 L 633 594 L 634 595 L 633 596 L 634 595 L 635 596 L 636 596 L 636 595 L 637 594 L 637 592 L 635 590 L 636 589 "></path>
        <path fill="none" stroke="#fa00fa" stroke-width="3" d="M 442 595 L 440 597 L 440 600 L 441 600 L 442 601 L 442 602 L 443 601 L 446 601 L 447 600 L 447 599 L 448 598 L 447 597 L 447 596 L 446 597 L 444 595 L 443 596 "></path>
        <path fill="none" stroke="#fa00fa" stroke-width="3" d="M 524 477 L 523 478 L 522 478 L 522 479 L 521 480 L 522 480 L 523 481 L 521 483 L 522 484 L 524 484 L 525 485 L 526 484 L 526 483 L 527 482 L 528 482 L 528 479 L 527 479 L 525 477 "></path>
        <path fill="none" stroke="#fa00fa" stroke-width="3" d="M 682 430 L 681 431 L 680 431 L 680 433 L 681 434 L 680 435 L 682 437 L 683 436 L 685 436 L 687 434 L 687 432 L 686 433 L 685 432 L 685 431 L 684 431 L 683 430 "></path>
        <path fill="none" stroke="#fa00fa" stroke-width="3" d="M 601 336 L 602 337 L 600 339 L 601 339 L 603 341 L 604 341 L 605 342 L 606 342 L 606 341 L 607 340 L 607 339 L 608 338 L 606 336 L 604 336 L 603 337 L 602 337 "></path>
        <path fill="none" stroke="#fa00fa" stroke-width="3" d="M 353 307 L 352 308 L 351 308 L 350 309 L 350 310 L 349 311 L 350 312 L 350 314 L 351 315 L 352 315 L 354 313 L 353 312 L 354 311 L 353 310 L 355 308 L 354 307 "></path>
        <path fill="none" stroke="#fa00fa" stroke-width="3" d="M 355 370 L 356 371 L 355 372 L 354 372 L 353 371 L 352 372 L 353 373 L 352 374 L 353 375 L 353 376 L 354 375 L 355 376 L 357 376 L 357 375 L 358 374 L 356 372 L 356 370 "></path>
        <path fill="none" stroke="#fa00fa" stroke-width="3" d="M 461 127 L 460 128 L 458 128 L 459 129 L 459 130 L 460 131 L 459 132 L 460 132 L 461 133 L 462 132 L 463 132 L 463 131 L 464 130 L 462 128 L 462 127 "></path>
        <path fill="none" stroke="#fa00fa" stroke-width="3" d="M 294 315 L 294 316 L 293 317 L 292 317 L 292 319 L 293 319 L 294 320 L 295 320 L 297 318 L 298 318 L 296 316 L 296 315 "></path>
        <path fill="none" stroke="#fa00fa" stroke-width="3" d="M 558 646 L 557 647 L 556 647 L 556 649 L 555 650 L 556 651 L 557 651 L 558 652 L 560 650 L 559 649 L 559 647 "></path>
        <path fill="none" stroke="#fa00fa" stroke-width="3" d="M 401 478 L 401 479 L 402 480 L 401 481 L 400 481 L 402 481 L 403 482 L 403 483 L 402 484 L 403 483 L 404 484 L 404 482 L 405 481 L 405 480 L 404 479 L 405 478 "></path>
        <path fill="none" stroke="#fa00fa" stroke-width="3" d="M 516 705 L 515 706 L 514 706 L 514 707 L 515 708 L 516 708 L 517 709 L 516 710 L 517 709 L 519 709 L 518 708 L 519 707 L 519 706 L 518 705 L 517 706 "></path>
    </g>
</svg>
