<svg xmlns="http://www.w3.org/2000/svg" xmlns:xlink="http://www.w3.org/1999/xlink" version="1.1" x="0" y="0" width="1056px" height="816px">
    <g id="rootLayer" transform="translate(0.000000, 0.000000)">
        <path fill="none" stroke="#00fafa" stroke-width="3" d="M 375 572 L 376 571 L 387 571 L 388 572 L 390 572 L 391 573 L 392 573 L 393 574 L 394 574 L 395 575 L 396 575 L 399 578 L 400 578 L 401 579 L 401 580 L 405 584 L 405 585 L 406 586 L 406 587 L 407 588 L 407 590 L 408 591 L 408 594 L 409 595 L 409 601 L 408 602 L 408 606 L 407 607 L 407 608 L 406 609 L 406 611 L 405 612 L 405 613 L 401 617 L 400 617 L 399 618 L 392 618 L 391 617 L 373 617 L 372 618 L 364 618 L 362 616 L 362 610 L 363 609 L 363 587 L 362 586 L 362 580 L 363 579 L 363 578 L 365 576 L 366 576 L 368 574 L 369 574 L 370 573 L 372 573 L 373 572 L 375 572 L 376 571 "></path>
        <path fill="none" stroke="#00fafa" stroke-width="3" d="M 430 629 L 431 628 L 440 628 L 441 629 L 443 629 L 444 630 L 445 630 L 446 631 L 447 631 L 451 635 L 451 667 L 452 668 L 452 670 L 451 671 L 451 672 L 450 673 L 449 673 L 448 674 L 446 674 L 445 673 L 421 673 L 418 670 L 418 668 L 417 667 L 417 666 L 418 665 L 418 636 L 423 631 L 424 631 L 425 630 L 427 630 L 428 629 L 430 629 L 431 628 "></path>
        <path fill="none" stroke="#00fafa" stroke-width="3" d="M 750 253 L 751 252 L 757 252 L 758 253 L 769 253 L 770 252 L 775 252 L 776 253 L 779 253 L 782 256 L 782 257 L 783 258 L 783 284 L 781 286 L 746 286 L 742 282 L 742 281 L 741 280 L 741 279 L 740 278 L 740 273 L 739 272 L 739 270 L 740 269 L 740 264 L 741 263 L 741 262 L 742 261 L 742 260 L 743 259 L 743 258 L 748 253 L 750 253 L 751 252 "></path>
        <path fill="none" stroke="#00fafa" stroke-width="3" d="M 475 639 L 476 639 L 477 640 L 480 640 L 481 641 L 485 641 L 486 640 L 489 640 L 490 641 L 504 641 L 505 640 L 512 640 L 515 643 L 515 644 L 516 645 L 516 648 L 517 649 L 517 656 L 516 657 L 516 660 L 515 661 L 515 663 L 514 664 L 514 665 L 513 666 L 513 667 L 512 668 L 512 669 L 509 672 L 508 672 L 507 673 L 479 673 L 478 674 L 476 674 L 475 673 L 474 673 L 473 672 L 473 671 L 472 670 L 472 669 L 473 668 L 473 653 L 474 652 L 474 648 L 473 647 L 473 644 L 472 643 L 472 642 L 475 639 L 476 639 "></path>
        <path fill="none" stroke="#00fafa" stroke-width="3" d="M 254 418 L 262 418 L 263 419 L 279 419 L 280 418 L 284 418 L 286 420 L 286 421 L 285 422 L 285 425 L 284 426 L 284 429 L 285 430 L 285 456 L 282 459 L 280 459 L 279 460 L 266 460 L 265 459 L 263 459 L 262 458 L 261 458 L 260 457 L 259 457 L 258 456 L 257 456 L 253 452 L 253 451 L 252 450 L 252 425 L 251 424 L 251 422 L 252 421 L 252 420 L 254 418 L 262 418 "></path>
        <path fill="none" stroke="#00fafa" stroke-width="3" d="M 666 640 L 667 639 L 670 639 L 673 642 L 673 648 L 672 649 L 672 658 L 673 659 L 673 665 L 672 666 L 672 668 L 668 672 L 667 672 L 666 673 L 643 673 L 642 672 L 640 672 L 635 667 L 635 666 L 633 664 L 633 663 L 632 662 L 632 660 L 631 659 L 631 647 L 632 646 L 632 644 L 633 643 L 633 642 L 634 641 L 635 641 L 636 640 L 666 640 L 667 639 "></path>
        <path fill="none" stroke="#00fafa" stroke-width="3" d="M 380 140 L 381 139 L 382 140 L 387 140 L 388 141 L 390 141 L 392 143 L 393 143 L 400 150 L 400 151 L 401 152 L 401 153 L 402 154 L 402 156 L 403 157 L 403 167 L 402 168 L 402 171 L 398 175 L 372 175 L 371 176 L 366 176 L 365 175 L 364 175 L 363 174 L 363 173 L 362 172 L 362 154 L 363 153 L 363 149 L 365 147 L 365 146 L 366 145 L 367 145 L 370 142 L 371 142 L 372 141 L 374 141 L 375 140 L 380 140 L 381 139 "></path>
        <path fill="none" stroke="#00fafa" stroke-width="3" d="M 268 523 L 269 522 L 275 522 L 276 523 L 279 523 L 280 524 L 281 524 L 282 525 L 283 525 L 284 526 L 284 527 L 285 528 L 285 552 L 286 553 L 286 558 L 285 559 L 285 560 L 283 562 L 282 562 L 281 563 L 275 563 L 274 562 L 270 562 L 269 563 L 265 563 L 264 562 L 260 562 L 259 561 L 258 561 L 254 557 L 254 556 L 253 555 L 253 553 L 252 552 L 252 536 L 253 535 L 253 533 L 254 532 L 254 531 L 259 526 L 260 526 L 261 525 L 262 525 L 263 524 L 264 524 L 265 523 L 268 523 L 269 522 "></path>
        <path fill="none" stroke="#00fafa" stroke-width="3" d="M 598 689 L 599 688 L 601 688 L 602 689 L 605 689 L 606 690 L 608 690 L 609 691 L 610 691 L 616 697 L 616 699 L 617 700 L 617 716 L 616 717 L 616 719 L 610 725 L 609 725 L 608 726 L 607 726 L 606 727 L 604 727 L 603 728 L 597 728 L 596 727 L 593 727 L 592 726 L 591 726 L 590 725 L 589 725 L 583 719 L 583 718 L 582 717 L 582 716 L 581 715 L 581 713 L 580 712 L 580 704 L 581 703 L 581 701 L 582 700 L 582 699 L 584 697 L 584 696 L 588 692 L 589 692 L 590 691 L 591 691 L 592 690 L 593 690 L 594 689 L 598 689 L 599 688 "></path>
        <path fill="none" stroke="#00fafa" stroke-width="3" d="M 486 88 L 487 87 L 494 87 L 495 88 L 498 88 L 499 89 L 500 89 L 501 90 L 502 90 L 505 93 L 505 94 L 506 95 L 506 97 L 507 98 L 507 116 L 506 117 L 506 119 L 505 120 L 505 121 L 503 123 L 502 123 L 500 125 L 499 125 L 498 126 L 496 126 L 495 127 L 485 127 L 484 126 L 483 126 L 482 125 L 481 125 L 480 124 L 479 124 L 474 119 L 474 117 L 473 116 L 473 98 L 474 97 L 474 95 L 479 90 L 480 90 L 481 89 L 482 89 L 483 88 L 486 88 L 487 87 "></path>
        <path fill="none" stroke="#00fafa" stroke-width="3" d="M 759 197 L 760 196 L 768 196 L 769 197 L 771 197 L 772 198 L 773 198 L 775 200 L 776 200 L 780 204 L 780 205 L 781 206 L 781 207 L 782 208 L 782 211 L 783 212 L 783 221 L 782 222 L 782 225 L 781 226 L 781 227 L 778 230 L 777 230 L 776 231 L 752 231 L 751 230 L 749 230 L 746 227 L 746 226 L 745 225 L 745 224 L 744 223 L 744 219 L 743 218 L 743 214 L 744 213 L 744 210 L 745 209 L 745 208 L 746 207 L 746 206 L 748 204 L 748 203 L 751 200 L 752 200 L 754 198 L 755 198 L 756 197 L 759 197 L 760 196 "></path>
        <path fill="none" stroke="#00fafa" stroke-width="3" d="M 705 143 L 706 142 L 712 142 L 713 143 L 716 143 L 717 144 L 718 144 L 719 145 L 720 145 L 726 151 L 726 152 L 727 153 L 727 154 L 728 155 L 728 158 L 729 159 L 729 165 L 728 166 L 728 168 L 727 169 L 727 170 L 726 171 L 726 172 L 719 179 L 718 179 L 717 180 L 716 180 L 715 181 L 711 181 L 710 182 L 707 182 L 706 181 L 703 181 L 702 180 L 700 180 L 699 179 L 698 179 L 695 176 L 695 174 L 694 173 L 694 150 L 695 149 L 695 148 L 699 144 L 700 144 L 701 143 L 705 143 L 706 142 "></path>
        <path fill="none" stroke="#00fafa" stroke-width="3" d="M 268 250 L 269 249 L 274 249 L 275 250 L 279 250 L 280 251 L 281 251 L 282 252 L 283 252 L 284 253 L 284 254 L 285 255 L 285 257 L 286 258 L 286 262 L 285 263 L 285 279 L 286 280 L 286 284 L 283 287 L 281 287 L 280 286 L 257 286 L 256 285 L 255 285 L 254 284 L 254 283 L 253 282 L 253 281 L 252 280 L 252 263 L 253 262 L 253 260 L 254 259 L 254 258 L 259 253 L 260 253 L 261 252 L 262 252 L 263 251 L 264 251 L 265 250 L 268 250 L 269 249 "></path>
        <path fill="none" stroke="#00fafa" stroke-width="3" d="M 751 307 L 754 307 L 755 308 L 776 308 L 777 307 L 780 307 L 781 308 L 782 308 L 783 309 L 783 311 L 784 312 L 783 313 L 783 335 L 784 336 L 784 339 L 781 342 L 778 342 L 777 341 L 755 341 L 754 342 L 752 342 L 749 339 L 749 338 L 750 337 L 750 334 L 751 333 L 751 330 L 750 329 L 750 313 L 749 312 L 749 309 L 751 307 L 754 307 "></path>
        <path fill="none" stroke="#00fafa" stroke-width="3" d="M 586 141 L 589 141 L 590 142 L 615 142 L 617 144 L 617 145 L 618 146 L 618 148 L 617 149 L 617 170 L 618 171 L 618 174 L 616 176 L 614 176 L 613 175 L 595 175 L 594 174 L 592 174 L 591 175 L 588 175 L 587 176 L 585 176 L 583 174 L 583 171 L 584 170 L 584 149 L 583 148 L 583 144 L 586 141 L 589 141 "></path>
        <path fill="none" stroke="#00fafa" stroke-width="3" d="M 751 529 L 752 528 L 753 528 L 754 529 L 781 529 L 783 531 L 783 557 L 782 558 L 782 559 L 779 562 L 777 562 L 776 563 L 769 563 L 768 562 L 759 562 L 758 563 L 751 563 L 749 561 L 749 556 L 750 555 L 750 535 L 749 534 L 749 530 L 750 529 L 751 529 L 752 528 "></path>
        <path fill="none" stroke="#00fafa" stroke-width="3" d="M 281 363 L 282 362 L 283 362 L 286 365 L 286 366 L 285 367 L 285 387 L 284 388 L 285 389 L 285 392 L 286 393 L 286 395 L 284 397 L 280 397 L 279 396 L 262 396 L 261 397 L 254 397 L 252 395 L 252 394 L 251 393 L 251 392 L 252 391 L 252 365 L 254 363 L 274 363 L 275 364 L 276 364 L 277 363 L 281 363 L 282 362 "></path>
        <path fill="none" stroke="#00fafa" stroke-width="3" d="M 310 584 L 324 584 L 325 585 L 332 585 L 333 584 L 339 584 L 341 586 L 341 591 L 340 592 L 340 602 L 341 603 L 341 615 L 338 618 L 315 618 L 314 617 L 312 617 L 308 613 L 308 611 L 307 610 L 307 587 L 310 584 L 324 584 "></path>
        <path fill="none" stroke="#00fafa" stroke-width="3" d="M 279 308 L 280 307 L 283 307 L 286 310 L 286 312 L 285 313 L 285 336 L 286 337 L 286 340 L 284 342 L 281 342 L 280 341 L 260 341 L 259 342 L 256 342 L 255 341 L 254 341 L 252 339 L 252 312 L 256 308 L 279 308 L 280 307 "></path>
        <path fill="none" stroke="#00fafa" stroke-width="3" d="M 642 142 L 666 142 L 667 143 L 668 143 L 672 147 L 672 150 L 673 151 L 673 154 L 672 155 L 672 167 L 673 168 L 673 173 L 670 176 L 666 176 L 665 175 L 645 175 L 644 176 L 640 176 L 639 175 L 639 174 L 638 173 L 638 171 L 639 170 L 639 145 L 642 142 L 666 142 "></path>
        <path fill="none" stroke="#00fafa" stroke-width="3" d="M 694 585 L 695 584 L 699 584 L 700 585 L 719 585 L 720 584 L 726 584 L 728 586 L 728 594 L 727 595 L 727 602 L 728 603 L 728 613 L 727 614 L 727 615 L 725 617 L 724 617 L 723 618 L 713 618 L 712 617 L 706 617 L 705 618 L 696 618 L 694 616 L 694 609 L 695 608 L 695 591 L 694 590 L 694 585 L 695 584 "></path>
        <path fill="none" stroke="#00fafa" stroke-width="3" d="M 807 418 L 829 418 L 830 419 L 832 419 L 837 424 L 837 425 L 838 426 L 838 427 L 839 428 L 839 432 L 840 433 L 840 437 L 839 438 L 839 441 L 838 442 L 838 444 L 837 445 L 837 446 L 832 451 L 831 451 L 830 452 L 807 452 L 805 450 L 805 449 L 804 448 L 804 447 L 805 446 L 805 424 L 804 423 L 804 422 L 805 421 L 805 420 L 807 418 L 829 418 "></path>
        <path fill="none" stroke="#00fafa" stroke-width="3" d="M 365 640 L 366 639 L 373 639 L 374 640 L 388 640 L 389 639 L 394 639 L 397 642 L 397 643 L 396 644 L 396 669 L 393 672 L 392 672 L 391 673 L 372 673 L 371 672 L 369 672 L 368 671 L 367 671 L 364 668 L 364 667 L 363 666 L 363 662 L 362 661 L 362 657 L 363 656 L 363 651 L 362 650 L 362 643 L 363 642 L 363 641 L 364 640 L 365 640 L 366 639 "></path>
        <path fill="none" stroke="#00fafa" stroke-width="3" d="M 476 695 L 505 695 L 509 699 L 509 701 L 510 702 L 510 707 L 511 708 L 510 709 L 510 714 L 509 715 L 509 716 L 508 717 L 508 718 L 507 719 L 507 720 L 502 725 L 501 725 L 500 726 L 499 726 L 498 727 L 495 727 L 494 728 L 486 728 L 485 727 L 482 727 L 481 726 L 480 726 L 478 724 L 477 724 L 475 722 L 475 721 L 474 720 L 474 719 L 473 718 L 473 698 L 476 695 L 505 695 "></path>
        <path fill="none" stroke="#00fafa" stroke-width="3" d="M 431 89 L 432 88 L 439 88 L 440 89 L 443 89 L 444 90 L 445 90 L 450 95 L 450 96 L 451 97 L 451 101 L 452 102 L 452 111 L 451 112 L 451 117 L 450 118 L 450 119 L 446 123 L 445 123 L 444 124 L 443 124 L 442 125 L 439 125 L 438 126 L 433 126 L 432 125 L 429 125 L 428 124 L 427 124 L 425 122 L 424 122 L 420 118 L 420 117 L 419 116 L 419 115 L 418 114 L 418 113 L 417 112 L 417 102 L 418 101 L 418 99 L 419 98 L 419 97 L 425 91 L 426 91 L 427 90 L 428 90 L 429 89 L 431 89 L 432 88 "></path>
        <path fill="none" stroke="#00fafa" stroke-width="3" d="M 807 363 L 830 363 L 831 364 L 832 364 L 836 368 L 836 369 L 837 370 L 837 372 L 838 373 L 838 388 L 837 389 L 837 391 L 836 392 L 836 393 L 834 395 L 833 395 L 832 396 L 831 396 L 830 397 L 807 397 L 805 395 L 805 394 L 804 393 L 804 392 L 805 391 L 805 365 L 807 363 L 830 363 "></path>
        <path fill="none" stroke="#00fafa" stroke-width="3" d="M 752 584 L 776 584 L 777 585 L 778 585 L 781 588 L 781 589 L 782 590 L 782 594 L 783 595 L 783 603 L 782 604 L 782 607 L 781 608 L 781 609 L 780 610 L 780 611 L 776 615 L 775 615 L 773 617 L 772 617 L 771 618 L 769 618 L 768 619 L 759 619 L 758 618 L 756 618 L 755 617 L 754 617 L 750 613 L 750 612 L 749 611 L 749 587 L 752 584 L 776 584 "></path>
        <path fill="none" stroke="#00fafa" stroke-width="3" d="M 697 639 L 721 639 L 722 640 L 723 640 L 727 644 L 727 645 L 728 646 L 728 648 L 729 649 L 729 657 L 728 658 L 728 660 L 727 661 L 727 662 L 726 663 L 726 664 L 719 671 L 717 671 L 716 672 L 713 672 L 712 673 L 706 673 L 705 672 L 701 672 L 700 671 L 699 671 L 695 667 L 695 666 L 694 665 L 694 642 L 697 639 L 721 639 "></path>
        <path fill="none" stroke="#00fafa" stroke-width="3" d="M 540 88 L 541 87 L 549 87 L 550 88 L 553 88 L 554 89 L 555 89 L 557 91 L 558 91 L 560 93 L 560 94 L 561 95 L 561 96 L 562 97 L 562 117 L 559 120 L 536 120 L 535 121 L 533 121 L 532 120 L 530 120 L 529 119 L 529 118 L 528 117 L 528 97 L 529 96 L 529 95 L 530 94 L 530 93 L 533 90 L 534 90 L 535 89 L 536 89 L 537 88 L 540 88 L 541 87 "></path>
        <path fill="none" stroke="#00fafa" stroke-width="3" d="M 807 474 L 808 473 L 813 473 L 814 474 L 821 474 L 822 473 L 827 473 L 828 474 L 831 474 L 836 479 L 836 480 L 837 481 L 837 484 L 838 485 L 838 494 L 837 495 L 837 498 L 836 499 L 836 500 L 830 506 L 829 506 L 828 507 L 808 507 L 805 504 L 805 502 L 804 501 L 804 500 L 805 499 L 805 480 L 804 479 L 804 478 L 805 477 L 805 475 L 806 474 L 807 474 L 808 473 "></path>
        <path fill="none" stroke="#00fafa" stroke-width="3" d="M 808 308 L 828 308 L 829 309 L 830 309 L 836 315 L 836 316 L 837 317 L 837 320 L 838 321 L 838 330 L 837 331 L 837 334 L 836 335 L 836 336 L 831 341 L 828 341 L 827 342 L 821 342 L 820 341 L 814 341 L 813 342 L 808 342 L 805 339 L 805 311 L 808 308 L 828 308 "></path>
        <path fill="none" stroke="#00fafa" stroke-width="3" d="M 321 144 L 322 143 L 330 143 L 331 144 L 333 144 L 334 145 L 335 145 L 336 146 L 337 146 L 339 148 L 339 149 L 340 150 L 340 151 L 341 152 L 341 171 L 340 172 L 340 173 L 339 174 L 339 175 L 338 176 L 337 176 L 335 178 L 334 178 L 333 179 L 331 179 L 330 180 L 323 180 L 322 179 L 320 179 L 319 178 L 318 178 L 317 177 L 316 177 L 310 171 L 310 170 L 309 169 L 309 167 L 308 166 L 308 157 L 309 156 L 309 154 L 310 153 L 310 152 L 317 145 L 318 145 L 319 144 L 321 144 L 322 143 "></path>
        <path fill="none" stroke="#00fafa" stroke-width="3" d="M 212 474 L 213 473 L 220 473 L 221 474 L 225 474 L 226 475 L 227 475 L 233 481 L 233 482 L 234 483 L 234 486 L 235 487 L 235 492 L 234 493 L 234 496 L 233 497 L 233 498 L 231 500 L 231 501 L 229 503 L 228 503 L 226 505 L 225 505 L 224 506 L 222 506 L 221 507 L 212 507 L 211 506 L 209 506 L 208 505 L 207 505 L 201 499 L 201 498 L 200 497 L 200 496 L 199 495 L 199 484 L 200 483 L 200 482 L 201 481 L 201 480 L 206 475 L 207 475 L 208 474 L 212 474 L 213 473 "></path>
        <path fill="none" stroke="#00fafa" stroke-width="3" d="M 593 89 L 594 88 L 606 88 L 607 89 L 608 89 L 609 90 L 610 90 L 616 96 L 616 98 L 617 99 L 617 115 L 616 116 L 616 117 L 613 120 L 587 120 L 586 119 L 585 119 L 584 118 L 584 116 L 583 115 L 583 100 L 584 99 L 584 96 L 585 95 L 585 94 L 589 90 L 590 90 L 591 89 L 593 89 L 594 88 "></path>
        <path fill="none" stroke="#00fafa" stroke-width="3" d="M 208 419 L 209 418 L 225 418 L 226 419 L 227 419 L 230 422 L 230 448 L 227 451 L 226 451 L 225 452 L 210 452 L 209 451 L 207 451 L 206 450 L 205 450 L 201 446 L 201 445 L 200 444 L 200 443 L 199 442 L 199 441 L 198 440 L 198 430 L 199 429 L 199 427 L 200 426 L 200 425 L 206 419 L 208 419 L 209 418 "></path>
        <path fill="none" stroke="#00fafa" stroke-width="3" d="M 208 364 L 209 363 L 225 363 L 226 364 L 227 364 L 230 367 L 230 393 L 227 396 L 226 396 L 225 397 L 210 397 L 209 396 L 207 396 L 206 395 L 205 395 L 200 390 L 200 389 L 199 388 L 199 386 L 198 385 L 198 375 L 199 374 L 199 373 L 200 372 L 200 371 L 201 370 L 201 369 L 205 365 L 206 365 L 207 364 L 208 364 L 209 363 "></path>
        <path fill="none" stroke="#00fafa" stroke-width="3" d="M 423 695 L 448 695 L 451 698 L 451 718 L 450 719 L 450 720 L 449 721 L 449 722 L 448 723 L 447 723 L 445 725 L 444 725 L 443 726 L 441 726 L 440 727 L 431 727 L 430 726 L 428 726 L 427 725 L 426 725 L 424 723 L 423 723 L 421 721 L 421 720 L 419 718 L 419 716 L 418 715 L 418 701 L 419 700 L 419 699 L 423 695 L 448 695 "></path>
        <path fill="none" stroke="#00fafa" stroke-width="3" d="M 316 640 L 317 639 L 336 639 L 337 640 L 338 640 L 340 642 L 340 643 L 341 644 L 341 663 L 340 664 L 340 666 L 337 669 L 336 669 L 335 670 L 334 670 L 333 671 L 331 671 L 330 672 L 322 672 L 321 671 L 319 671 L 318 670 L 317 670 L 310 663 L 310 662 L 309 661 L 309 660 L 308 659 L 308 648 L 309 647 L 309 646 L 310 645 L 310 644 L 314 640 L 316 640 L 317 639 "></path>
        <path fill="none" stroke="#00fafa" stroke-width="3" d="M 261 585 L 262 584 L 281 584 L 282 585 L 283 585 L 285 587 L 285 589 L 286 590 L 286 608 L 285 609 L 285 611 L 281 615 L 280 615 L 279 616 L 278 616 L 277 617 L 267 617 L 266 616 L 264 616 L 263 615 L 262 615 L 256 609 L 256 608 L 255 607 L 255 606 L 254 605 L 254 602 L 253 601 L 253 597 L 254 596 L 254 593 L 255 592 L 255 591 L 256 590 L 256 589 L 260 585 L 261 585 L 262 584 "></path>
        <path fill="none" stroke="#00fafa" stroke-width="3" d="M 808 530 L 809 529 L 827 529 L 828 530 L 829 530 L 830 531 L 831 531 L 833 533 L 833 534 L 835 536 L 835 538 L 836 539 L 836 542 L 837 543 L 837 546 L 836 547 L 836 550 L 835 551 L 835 552 L 834 553 L 834 554 L 828 560 L 827 560 L 826 561 L 824 561 L 823 562 L 814 562 L 813 561 L 811 561 L 810 560 L 809 560 L 805 556 L 805 553 L 804 552 L 804 536 L 805 535 L 805 533 L 806 532 L 806 531 L 807 530 L 808 530 L 809 529 "></path>
        <path fill="none" stroke="#00fafa" stroke-width="3" d="M 813 254 L 814 253 L 822 253 L 823 254 L 826 254 L 827 255 L 828 255 L 834 261 L 834 262 L 835 263 L 835 264 L 836 265 L 836 268 L 837 269 L 837 272 L 836 273 L 836 276 L 835 277 L 835 279 L 833 281 L 833 282 L 831 284 L 830 284 L 829 285 L 828 285 L 827 286 L 809 286 L 805 282 L 805 272 L 804 271 L 804 264 L 805 263 L 805 259 L 809 255 L 810 255 L 811 254 L 813 254 L 814 253 "></path>
        <path fill="none" stroke="#00fafa" stroke-width="3" d="M 211 309 L 212 308 L 221 308 L 222 309 L 225 309 L 230 314 L 230 317 L 231 318 L 231 325 L 230 326 L 230 337 L 226 341 L 220 341 L 219 342 L 214 342 L 213 341 L 208 341 L 207 340 L 206 340 L 201 335 L 201 334 L 200 333 L 200 331 L 199 330 L 199 321 L 200 320 L 200 318 L 201 317 L 201 316 L 207 310 L 208 310 L 209 309 L 211 309 L 212 308 "></path>
        <path fill="none" stroke="#00fafa" stroke-width="3" d="M 646 695 L 647 694 L 662 694 L 663 695 L 665 695 L 666 696 L 667 696 L 669 698 L 669 699 L 670 700 L 670 701 L 671 702 L 671 705 L 672 706 L 672 711 L 671 712 L 671 715 L 670 716 L 670 717 L 663 724 L 662 724 L 661 725 L 659 725 L 658 726 L 651 726 L 650 725 L 648 725 L 647 724 L 646 724 L 645 723 L 644 723 L 641 720 L 641 719 L 640 718 L 640 717 L 639 716 L 639 700 L 640 699 L 640 698 L 642 696 L 643 696 L 644 695 L 646 695 L 647 694 "></path>
        <path fill="none" stroke="#00fafa" stroke-width="3" d="M 650 90 L 651 89 L 657 89 L 658 90 L 661 90 L 662 91 L 663 91 L 669 97 L 669 98 L 670 99 L 670 100 L 671 101 L 671 104 L 672 105 L 672 108 L 671 109 L 671 113 L 670 114 L 670 115 L 665 120 L 662 120 L 661 121 L 648 121 L 647 120 L 644 120 L 643 119 L 642 119 L 640 117 L 640 116 L 639 115 L 639 99 L 640 98 L 640 97 L 641 96 L 641 95 L 643 93 L 644 93 L 646 91 L 647 91 L 648 90 L 650 90 L 651 89 "></path>
        <path fill="none" stroke="#00fafa" stroke-width="3" d="M 374 695 L 375 694 L 386 694 L 387 695 L 390 695 L 391 696 L 392 696 L 394 698 L 394 699 L 395 700 L 395 701 L 396 702 L 396 714 L 395 715 L 395 717 L 389 723 L 388 723 L 387 724 L 385 724 L 384 725 L 377 725 L 376 724 L 374 724 L 373 723 L 372 723 L 367 718 L 367 717 L 365 715 L 365 712 L 364 711 L 364 705 L 365 704 L 365 702 L 366 701 L 366 700 L 371 695 L 374 695 L 375 694 "></path>
        <path fill="none" stroke="#00fafa" stroke-width="3" d="M 211 530 L 212 529 L 221 529 L 222 530 L 224 530 L 225 531 L 226 531 L 229 534 L 229 535 L 230 536 L 230 540 L 231 541 L 231 548 L 230 549 L 230 552 L 229 553 L 229 554 L 224 559 L 222 559 L 221 560 L 212 560 L 211 559 L 210 559 L 209 558 L 208 558 L 203 553 L 203 552 L 202 551 L 202 550 L 201 549 L 201 540 L 202 539 L 202 537 L 204 535 L 204 534 L 206 532 L 207 532 L 209 530 L 211 530 L 212 529 "></path>
        <path fill="none" stroke="#00fafa" stroke-width="3" d="M 211 256 L 212 255 L 221 255 L 222 256 L 224 256 L 229 261 L 229 262 L 230 263 L 230 266 L 231 267 L 231 274 L 230 275 L 230 279 L 229 280 L 229 281 L 226 284 L 225 284 L 224 285 L 222 285 L 221 286 L 212 286 L 211 285 L 210 285 L 209 284 L 208 284 L 202 278 L 202 276 L 201 275 L 201 266 L 202 265 L 202 264 L 203 263 L 203 262 L 208 257 L 209 257 L 210 256 L 211 256 L 212 255 "></path>
        <path fill="none" stroke="#00fafa" stroke-width="3" d="M 868 366 L 869 365 L 877 365 L 878 366 L 880 366 L 882 368 L 883 368 L 885 370 L 885 371 L 887 373 L 887 374 L 888 375 L 888 378 L 889 379 L 889 381 L 888 382 L 888 385 L 887 386 L 887 387 L 886 388 L 886 389 L 882 393 L 881 393 L 880 394 L 879 394 L 878 395 L 869 395 L 868 394 L 866 394 L 861 389 L 861 388 L 860 387 L 860 373 L 861 372 L 861 371 L 865 367 L 866 367 L 867 366 L 868 366 L 869 365 "></path>
        <path fill="none" stroke="#00fafa" stroke-width="3" d="M 816 585 L 817 584 L 821 584 L 822 585 L 824 585 L 825 586 L 826 586 L 827 587 L 828 587 L 831 590 L 831 591 L 832 592 L 832 593 L 833 594 L 833 596 L 834 597 L 834 601 L 833 602 L 833 604 L 832 605 L 832 606 L 831 607 L 831 608 L 827 612 L 826 612 L 825 613 L 823 613 L 822 614 L 815 614 L 814 613 L 812 613 L 810 611 L 809 611 L 807 609 L 807 608 L 806 607 L 806 606 L 805 605 L 805 602 L 804 601 L 804 597 L 805 596 L 805 593 L 806 592 L 806 591 L 807 590 L 807 589 L 809 587 L 810 587 L 811 586 L 812 586 L 813 585 L 816 585 L 817 584 "></path>
        <path fill="none" stroke="#00fafa" stroke-width="3" d="M 814 202 L 815 201 L 823 201 L 824 202 L 825 202 L 826 203 L 827 203 L 831 207 L 831 208 L 832 209 L 832 210 L 833 211 L 833 213 L 834 214 L 834 218 L 833 219 L 833 221 L 832 222 L 832 223 L 830 225 L 830 226 L 829 227 L 828 227 L 826 229 L 825 229 L 824 230 L 820 230 L 819 231 L 818 231 L 817 230 L 813 230 L 812 229 L 811 229 L 806 224 L 806 223 L 805 222 L 805 210 L 806 209 L 806 208 L 808 206 L 808 205 L 809 204 L 810 204 L 812 202 L 814 202 L 815 201 "></path>
        <path fill="none" stroke="#00fafa" stroke-width="3" d="M 703 696 L 704 695 L 715 695 L 716 696 L 717 696 L 722 701 L 722 702 L 723 703 L 723 704 L 724 705 L 724 712 L 723 713 L 723 714 L 722 715 L 722 716 L 720 718 L 720 719 L 719 720 L 718 720 L 716 722 L 715 722 L 714 723 L 705 723 L 704 722 L 703 722 L 702 721 L 701 721 L 697 717 L 697 716 L 696 715 L 696 714 L 695 713 L 695 704 L 696 703 L 696 702 L 697 701 L 697 700 L 701 696 L 703 696 L 704 695 "></path>
        <path fill="none" stroke="#00fafa" stroke-width="3" d="M 704 93 L 705 92 L 713 92 L 714 93 L 716 93 L 722 99 L 722 100 L 723 101 L 723 103 L 724 104 L 724 109 L 723 110 L 723 112 L 722 113 L 722 114 L 717 119 L 715 119 L 714 120 L 704 120 L 703 119 L 702 119 L 701 118 L 700 118 L 697 115 L 697 114 L 696 113 L 696 112 L 695 111 L 695 102 L 696 101 L 696 100 L 697 99 L 697 98 L 701 94 L 702 94 L 703 93 L 704 93 L 705 92 "></path>
        <path fill="none" stroke="#00fafa" stroke-width="3" d="M 871 476 L 872 475 L 875 475 L 876 476 L 878 476 L 879 477 L 880 477 L 881 478 L 882 478 L 885 481 L 885 482 L 887 484 L 887 487 L 888 488 L 888 492 L 887 493 L 887 495 L 886 496 L 886 497 L 881 502 L 880 502 L 879 503 L 878 503 L 877 504 L 870 504 L 869 503 L 868 503 L 867 502 L 866 502 L 861 497 L 861 496 L 860 495 L 860 485 L 861 484 L 861 483 L 862 482 L 862 481 L 866 477 L 867 477 L 868 476 L 871 476 L 872 475 "></path>
        <path fill="none" stroke="#00fafa" stroke-width="3" d="M 869 312 L 870 311 L 877 311 L 878 312 L 879 312 L 880 313 L 881 313 L 886 318 L 886 319 L 887 320 L 887 322 L 888 323 L 888 328 L 887 329 L 887 331 L 886 332 L 886 333 L 882 337 L 881 337 L 880 338 L 879 338 L 878 339 L 875 339 L 874 340 L 873 340 L 872 339 L 869 339 L 868 338 L 867 338 L 866 337 L 865 337 L 862 334 L 862 333 L 861 332 L 861 331 L 860 330 L 860 321 L 861 320 L 861 318 L 866 313 L 867 313 L 868 312 L 869 312 L 870 311 "></path>
        <path fill="none" stroke="#00fafa" stroke-width="3" d="M 541 750 L 542 749 L 547 749 L 548 750 L 550 750 L 551 751 L 552 751 L 558 757 L 558 759 L 559 760 L 559 767 L 558 768 L 558 770 L 552 776 L 551 776 L 550 777 L 548 777 L 547 778 L 543 778 L 542 777 L 540 777 L 539 776 L 538 776 L 532 770 L 532 769 L 531 768 L 531 759 L 532 758 L 532 757 L 534 755 L 534 754 L 536 752 L 537 752 L 538 751 L 539 751 L 540 750 L 541 750 L 542 749 "></path>
        <path fill="none" stroke="#00fafa" stroke-width="3" d="M 543 38 L 544 37 L 546 37 L 547 38 L 550 38 L 551 39 L 552 39 L 557 44 L 557 45 L 558 46 L 558 48 L 559 49 L 559 55 L 558 56 L 558 57 L 557 58 L 557 59 L 553 63 L 552 63 L 551 64 L 550 64 L 549 65 L 541 65 L 540 64 L 538 64 L 532 58 L 532 57 L 531 56 L 531 48 L 532 47 L 532 45 L 538 39 L 539 39 L 540 38 L 543 38 L 544 37 "></path>
        <path fill="none" stroke="#00fafa" stroke-width="3" d="M 485 751 L 486 750 L 494 750 L 495 751 L 497 751 L 499 753 L 500 753 L 501 754 L 501 755 L 503 757 L 503 758 L 504 759 L 504 767 L 503 768 L 503 769 L 502 770 L 502 771 L 497 776 L 496 776 L 495 777 L 486 777 L 485 776 L 484 776 L 483 775 L 482 775 L 478 771 L 478 770 L 477 769 L 477 767 L 476 766 L 476 761 L 477 760 L 477 758 L 478 757 L 478 756 L 482 752 L 483 752 L 484 751 L 485 751 L 486 750 "></path>
        <path fill="none" stroke="#00fafa" stroke-width="3" d="M 485 39 L 486 38 L 494 38 L 495 39 L 496 39 L 497 40 L 498 40 L 502 44 L 502 45 L 503 46 L 503 47 L 504 48 L 504 55 L 503 56 L 503 57 L 502 58 L 502 59 L 498 63 L 497 63 L 496 64 L 495 64 L 494 65 L 486 65 L 485 64 L 484 64 L 483 63 L 482 63 L 478 59 L 478 58 L 477 57 L 477 55 L 476 54 L 476 49 L 477 48 L 477 46 L 478 45 L 478 44 L 482 40 L 483 40 L 484 39 L 485 39 L 486 38 "></path>
        <path fill="none" stroke="#00fafa" stroke-width="3" d="M 320 697 L 321 696 L 330 696 L 331 697 L 332 697 L 333 698 L 334 698 L 337 701 L 337 702 L 338 703 L 338 704 L 339 705 L 339 713 L 338 714 L 338 715 L 336 717 L 336 718 L 335 719 L 334 719 L 332 721 L 331 721 L 330 722 L 322 722 L 321 721 L 320 721 L 319 720 L 318 720 L 314 716 L 314 715 L 313 714 L 313 712 L 312 711 L 312 707 L 313 706 L 313 704 L 314 703 L 314 702 L 319 697 L 320 697 L 321 696 "></path>
        <path fill="none" stroke="#00fafa" stroke-width="3" d="M 596 39 L 597 38 L 602 38 L 603 39 L 605 39 L 606 40 L 607 40 L 611 44 L 611 45 L 612 46 L 612 47 L 613 48 L 613 55 L 612 56 L 612 57 L 611 58 L 611 59 L 608 62 L 607 62 L 606 63 L 605 63 L 604 64 L 601 64 L 600 65 L 599 64 L 595 64 L 594 63 L 593 63 L 588 58 L 588 57 L 587 56 L 587 54 L 586 53 L 586 49 L 587 48 L 587 46 L 589 44 L 589 43 L 591 41 L 592 41 L 594 39 L 596 39 L 597 38 "></path>
        <path fill="none" stroke="#00fafa" stroke-width="3" d="M 212 587 L 213 586 L 219 586 L 220 587 L 222 587 L 224 589 L 225 589 L 226 590 L 226 591 L 228 593 L 228 594 L 229 595 L 229 603 L 228 604 L 228 605 L 227 606 L 227 607 L 224 610 L 223 610 L 222 611 L 221 611 L 220 612 L 212 612 L 211 611 L 210 611 L 205 606 L 205 605 L 204 604 L 204 603 L 203 602 L 203 597 L 204 596 L 204 594 L 205 593 L 205 592 L 209 588 L 210 588 L 211 587 L 212 587 L 213 586 "></path>
        <path fill="none" stroke="#00fafa" stroke-width="3" d="M 362 198 L 363 197 L 374 197 L 375 198 L 389 198 L 390 197 L 400 197 L 405 202 L 405 203 L 406 204 L 406 206 L 407 207 L 407 209 L 408 210 L 408 214 L 409 215 L 409 218 L 408 219 L 408 221 L 407 222 L 407 223 L 405 225 L 405 226 L 401 230 L 396 230 L 395 229 L 397 227 L 399 227 L 400 226 L 401 226 L 403 224 L 403 223 L 404 222 L 404 220 L 405 219 L 405 213 L 404 212 L 404 210 L 403 209 L 403 207 L 398 202 L 396 202 L 395 201 L 388 201 L 387 202 L 367 202 L 366 203 L 365 203 L 361 207 L 361 209 L 360 210 L 360 213 L 359 214 L 359 222 L 360 223 L 360 224 L 362 226 L 363 226 L 364 227 L 381 227 L 382 228 L 380 230 L 363 230 L 362 231 L 360 231 L 359 230 L 358 230 L 355 227 L 355 224 L 354 223 L 354 211 L 355 210 L 355 208 L 356 207 L 356 205 L 357 204 L 357 203 L 359 201 L 359 200 L 361 198 L 362 198 L 363 197 "></path>
        <path fill="none" stroke="#00fafa" stroke-width="3" d="M 212 204 L 213 203 L 220 203 L 221 204 L 222 204 L 223 205 L 224 205 L 227 208 L 227 209 L 228 210 L 228 211 L 229 212 L 229 220 L 228 221 L 228 222 L 222 228 L 220 228 L 219 229 L 213 229 L 212 228 L 211 228 L 210 227 L 209 227 L 205 223 L 205 222 L 204 221 L 204 219 L 203 218 L 203 214 L 204 213 L 204 211 L 205 210 L 205 209 L 210 204 L 212 204 L 213 203 "></path>
        <path fill="none" stroke="#00fafa" stroke-width="3" d="M 556 142 L 557 141 L 560 141 L 562 143 L 562 155 L 561 156 L 561 168 L 562 169 L 562 171 L 563 172 L 563 173 L 560 176 L 559 176 L 558 175 L 556 175 L 554 173 L 555 172 L 556 172 L 558 170 L 558 160 L 557 159 L 557 148 L 556 147 L 532 147 L 531 148 L 530 148 L 529 149 L 528 149 L 527 150 L 527 151 L 525 153 L 525 155 L 524 156 L 524 158 L 523 159 L 523 167 L 524 168 L 524 169 L 526 171 L 528 171 L 529 172 L 552 172 L 553 173 L 552 174 L 530 174 L 529 175 L 523 175 L 520 172 L 520 171 L 519 170 L 519 166 L 518 165 L 518 160 L 519 159 L 519 155 L 520 154 L 520 152 L 521 151 L 521 150 L 522 149 L 522 148 L 524 146 L 524 145 L 526 143 L 527 143 L 528 142 L 556 142 L 557 141 "></path>
        <path fill="none" stroke="#00fafa" stroke-width="3" d="M 157 423 L 158 422 L 165 422 L 166 423 L 167 423 L 168 424 L 169 424 L 172 427 L 172 428 L 173 429 L 173 430 L 174 431 L 174 439 L 173 440 L 173 441 L 167 447 L 165 447 L 164 448 L 159 448 L 158 447 L 156 447 L 150 441 L 150 440 L 149 439 L 149 431 L 150 430 L 150 429 L 151 428 L 151 427 L 154 424 L 155 424 L 156 423 L 157 423 L 158 422 "></path>
        <path fill="none" stroke="#00fafa" stroke-width="3" d="M 158 368 L 159 367 L 164 367 L 165 368 L 167 368 L 173 374 L 173 375 L 174 376 L 174 384 L 173 385 L 173 386 L 172 387 L 172 388 L 169 391 L 168 391 L 167 392 L 166 392 L 165 393 L 158 393 L 157 392 L 156 392 L 155 391 L 154 391 L 151 388 L 151 387 L 150 386 L 150 385 L 149 384 L 149 376 L 150 375 L 150 374 L 156 368 L 158 368 L 159 367 "></path>
        <path fill="none" stroke="#00fafa" stroke-width="3" d="M 431 752 L 432 751 L 439 751 L 440 752 L 442 752 L 447 757 L 447 758 L 448 759 L 448 768 L 447 769 L 447 770 L 442 775 L 441 775 L 440 776 L 431 776 L 430 775 L 429 775 L 424 770 L 424 769 L 423 768 L 423 759 L 424 758 L 424 757 L 428 753 L 429 753 L 430 752 L 431 752 L 432 751 "></path>
        <path fill="none" stroke="#00fafa" stroke-width="3" d="M 434 39 L 435 38 L 436 39 L 440 39 L 441 40 L 442 40 L 446 44 L 446 45 L 447 46 L 447 47 L 448 48 L 448 55 L 447 56 L 447 57 L 446 58 L 446 59 L 443 62 L 442 62 L 441 63 L 440 63 L 439 64 L 432 64 L 431 63 L 430 63 L 429 62 L 428 62 L 425 59 L 425 58 L 423 56 L 423 47 L 424 46 L 424 45 L 429 40 L 430 40 L 431 39 L 434 39 L 435 38 "></path>
        <path fill="none" stroke="#00fafa" stroke-width="3" d="M 752 473 L 754 473 L 755 474 L 777 474 L 778 473 L 781 473 L 784 476 L 784 478 L 783 479 L 783 502 L 784 503 L 783 504 L 783 506 L 782 507 L 781 507 L 780 508 L 777 508 L 776 507 L 755 507 L 754 508 L 751 508 L 749 506 L 749 503 L 750 502 L 750 500 L 751 499 L 751 497 L 750 496 L 750 486 L 751 485 L 751 484 L 752 483 L 753 484 L 753 500 L 754 501 L 754 502 L 755 503 L 764 503 L 765 502 L 776 502 L 778 500 L 778 480 L 776 478 L 762 478 L 761 477 L 756 477 L 753 480 L 753 481 L 752 482 L 751 482 L 750 481 L 750 478 L 749 477 L 749 476 L 752 473 L 754 473 "></path>
        <path fill="none" stroke="#00fafa" stroke-width="3" d="M 309 528 L 310 528 L 311 529 L 314 529 L 315 530 L 333 530 L 334 531 L 333 532 L 326 532 L 325 533 L 313 533 L 312 534 L 312 535 L 311 536 L 311 539 L 312 540 L 312 556 L 314 558 L 333 558 L 334 559 L 341 559 L 342 558 L 344 558 L 348 554 L 348 553 L 349 552 L 349 550 L 350 549 L 350 546 L 351 545 L 351 540 L 350 539 L 350 537 L 349 536 L 349 535 L 347 533 L 346 533 L 344 531 L 345 530 L 346 530 L 347 529 L 348 530 L 350 530 L 352 532 L 352 533 L 353 534 L 353 539 L 354 540 L 354 547 L 353 548 L 353 552 L 352 553 L 352 554 L 351 555 L 351 556 L 350 557 L 350 558 L 346 562 L 345 562 L 344 563 L 340 563 L 339 562 L 316 562 L 315 563 L 309 563 L 307 561 L 307 551 L 308 550 L 308 538 L 307 537 L 307 534 L 306 533 L 306 531 L 309 528 L 310 528 "></path>
        <path fill="none" stroke="#00fafa" stroke-width="3" d="M 157 478 L 165 478 L 166 479 L 167 479 L 168 480 L 169 480 L 171 482 L 171 483 L 172 484 L 172 485 L 173 486 L 173 494 L 171 496 L 171 497 L 168 500 L 167 500 L 166 501 L 164 501 L 163 502 L 160 502 L 159 501 L 157 501 L 156 500 L 155 500 L 151 496 L 151 495 L 150 494 L 150 492 L 149 491 L 149 488 L 150 487 L 150 485 L 151 484 L 151 483 L 154 480 L 155 480 L 157 478 L 165 478 "></path>
        <path fill="none" stroke="#00fafa" stroke-width="3" d="M 158 314 L 159 313 L 163 313 L 164 314 L 166 314 L 167 315 L 168 315 L 172 319 L 172 320 L 173 321 L 173 329 L 172 330 L 172 331 L 167 336 L 166 336 L 165 337 L 158 337 L 157 336 L 156 336 L 155 335 L 154 335 L 152 333 L 152 332 L 150 330 L 150 328 L 149 327 L 149 324 L 150 323 L 150 321 L 151 320 L 151 319 L 155 315 L 156 315 L 157 314 L 158 314 L 159 313 "></path>
        <path fill="none" stroke="#00fafa" stroke-width="3" d="M 322 245 L 323 244 L 332 244 L 333 245 L 336 245 L 337 246 L 338 246 L 340 248 L 340 249 L 341 250 L 341 252 L 340 253 L 340 272 L 339 273 L 338 273 L 337 272 L 337 255 L 336 254 L 336 252 L 334 250 L 332 250 L 331 249 L 326 249 L 325 250 L 321 250 L 320 251 L 318 251 L 317 252 L 316 252 L 313 255 L 313 257 L 312 258 L 312 275 L 311 276 L 311 279 L 312 280 L 312 281 L 313 281 L 314 282 L 327 282 L 328 283 L 329 283 L 330 284 L 329 285 L 314 285 L 313 286 L 308 286 L 306 284 L 306 282 L 307 281 L 307 278 L 308 277 L 308 266 L 307 265 L 307 254 L 308 253 L 308 252 L 312 248 L 313 248 L 314 247 L 315 247 L 316 246 L 318 246 L 319 245 L 322 245 L 323 244 "></path>
        <path fill="none" stroke="#00fafa" stroke-width="3" d="M 650 41 L 651 40 L 658 40 L 659 41 L 660 41 L 661 42 L 662 42 L 664 44 L 664 45 L 665 46 L 665 47 L 666 48 L 666 55 L 665 56 L 665 57 L 660 62 L 659 62 L 658 63 L 652 63 L 651 62 L 649 62 L 644 57 L 644 56 L 643 55 L 643 48 L 644 47 L 644 46 L 649 41 L 650 41 L 651 40 "></path>
        <path fill="none" stroke="#00fafa" stroke-width="3" d="M 815 643 L 823 643 L 824 644 L 825 644 L 829 648 L 829 649 L 830 650 L 830 653 L 831 654 L 830 655 L 830 658 L 829 659 L 829 660 L 825 664 L 824 664 L 823 665 L 821 665 L 820 666 L 819 666 L 818 665 L 815 665 L 814 664 L 813 664 L 809 660 L 809 659 L 808 658 L 808 650 L 809 649 L 809 648 L 812 645 L 813 645 L 815 643 L 823 643 "></path>
        <path fill="none" stroke="#00fafa" stroke-width="3" d="M 760 698 L 768 698 L 769 699 L 770 699 L 774 703 L 774 704 L 775 705 L 775 713 L 774 714 L 774 715 L 770 719 L 769 719 L 768 720 L 761 720 L 760 719 L 759 719 L 758 718 L 757 718 L 755 716 L 755 715 L 754 714 L 754 713 L 753 712 L 753 706 L 754 705 L 754 704 L 755 703 L 755 702 L 757 700 L 758 700 L 760 698 L 768 698 "></path>
        <path fill="none" stroke="#00fafa" stroke-width="3" d="M 760 96 L 761 95 L 767 95 L 768 96 L 769 96 L 770 97 L 771 97 L 774 100 L 774 101 L 775 102 L 775 110 L 774 111 L 774 112 L 770 116 L 769 116 L 768 117 L 760 117 L 758 115 L 757 115 L 755 113 L 755 112 L 754 111 L 754 110 L 753 109 L 753 103 L 754 102 L 754 101 L 759 96 L 760 96 L 761 95 "></path>
        <path fill="none" stroke="#00fafa" stroke-width="3" d="M 376 754 L 377 753 L 384 753 L 385 754 L 386 754 L 390 758 L 390 759 L 391 760 L 391 763 L 392 764 L 391 765 L 391 768 L 389 770 L 389 771 L 387 773 L 386 773 L 385 774 L 383 774 L 382 775 L 378 775 L 377 774 L 376 774 L 375 773 L 374 773 L 372 771 L 372 770 L 370 768 L 370 765 L 369 764 L 370 763 L 370 760 L 371 759 L 371 758 L 375 754 L 376 754 L 377 753 "></path>
        <path fill="none" stroke="#00fafa" stroke-width="3" d="M 641 196 L 642 196 L 643 197 L 645 197 L 646 198 L 664 198 L 665 197 L 674 197 L 679 202 L 679 203 L 680 204 L 680 206 L 681 207 L 681 209 L 682 210 L 682 224 L 681 225 L 681 227 L 680 228 L 680 229 L 679 230 L 679 231 L 677 233 L 677 234 L 672 239 L 671 239 L 669 241 L 668 241 L 667 242 L 666 242 L 665 243 L 664 243 L 663 244 L 661 244 L 660 245 L 651 245 L 649 243 L 650 242 L 653 242 L 654 243 L 658 243 L 659 242 L 662 242 L 663 241 L 664 241 L 666 239 L 667 239 L 670 236 L 671 236 L 671 235 L 674 232 L 674 231 L 675 230 L 675 229 L 676 228 L 676 227 L 677 226 L 677 223 L 678 222 L 678 213 L 677 212 L 677 209 L 676 208 L 676 207 L 675 206 L 675 205 L 673 203 L 672 203 L 671 202 L 669 202 L 668 201 L 649 201 L 648 200 L 647 200 L 646 201 L 644 201 L 643 202 L 643 203 L 641 205 L 640 204 L 640 203 L 639 202 L 639 198 L 641 196 L 642 196 "></path>
        <path fill="none" stroke="#00fafa" stroke-width="3" d="M 379 41 L 380 40 L 381 40 L 382 41 L 385 41 L 391 47 L 391 55 L 390 56 L 390 57 L 386 61 L 385 61 L 384 62 L 377 62 L 376 61 L 375 61 L 371 57 L 371 56 L 370 55 L 370 48 L 371 47 L 371 46 L 376 41 L 379 41 L 380 40 "></path>
        <path fill="none" stroke="#00fafa" stroke-width="3" d="M 159 535 L 160 534 L 163 534 L 164 535 L 165 535 L 166 536 L 167 536 L 170 539 L 170 540 L 171 541 L 171 543 L 172 544 L 172 545 L 171 546 L 171 549 L 166 554 L 165 554 L 164 555 L 159 555 L 158 554 L 157 554 L 156 553 L 155 553 L 152 550 L 152 549 L 151 548 L 151 542 L 152 541 L 152 540 L 153 539 L 153 538 L 154 537 L 155 537 L 157 535 L 159 535 L 160 534 "></path>
        <path fill="none" stroke="#00fafa" stroke-width="3" d="M 158 261 L 159 260 L 163 260 L 164 261 L 166 261 L 171 266 L 171 268 L 172 269 L 172 271 L 171 272 L 171 274 L 170 275 L 170 276 L 166 280 L 164 280 L 163 281 L 160 281 L 159 280 L 157 280 L 152 275 L 152 274 L 151 273 L 151 268 L 152 267 L 152 266 L 153 265 L 153 264 L 155 262 L 156 262 L 157 261 L 158 261 L 159 260 "></path>
        <path fill="none" stroke="#00fafa" stroke-width="3" d="M 870 207 L 871 206 L 877 206 L 878 207 L 879 207 L 882 210 L 882 211 L 883 212 L 883 213 L 884 214 L 884 217 L 883 218 L 883 220 L 878 225 L 875 225 L 874 226 L 873 226 L 872 225 L 870 225 L 869 224 L 868 224 L 866 222 L 866 221 L 865 220 L 865 219 L 864 218 L 864 213 L 865 212 L 865 211 L 869 207 L 870 207 L 871 206 "></path>
        <path fill="none" stroke="#00fafa" stroke-width="3" d="M 870 590 L 877 590 L 878 591 L 879 591 L 883 595 L 883 597 L 884 598 L 884 601 L 883 602 L 883 604 L 879 608 L 878 608 L 877 609 L 870 609 L 868 607 L 867 607 L 866 606 L 866 605 L 865 604 L 865 603 L 864 602 L 864 597 L 865 596 L 865 595 L 870 590 L 877 590 "></path>
        <path fill="none" stroke="#00fafa" stroke-width="3" d="M 213 152 L 214 151 L 218 151 L 219 152 L 220 152 L 221 153 L 222 153 L 224 155 L 224 156 L 225 157 L 225 159 L 226 160 L 226 162 L 225 163 L 225 165 L 221 169 L 220 169 L 219 170 L 213 170 L 212 169 L 211 169 L 207 165 L 207 163 L 206 162 L 206 159 L 207 158 L 207 157 L 208 156 L 208 155 L 210 153 L 211 153 L 212 152 L 213 152 L 214 151 "></path>
        <path fill="none" stroke="#00fafa" stroke-width="3" d="M 779 363 L 780 362 L 781 362 L 784 365 L 784 368 L 783 369 L 783 378 L 782 379 L 782 384 L 783 385 L 783 391 L 784 392 L 784 395 L 782 397 L 778 397 L 777 396 L 761 396 L 759 394 L 760 393 L 776 393 L 779 390 L 779 384 L 778 383 L 778 376 L 779 375 L 779 370 L 776 367 L 761 367 L 760 366 L 758 366 L 757 365 L 758 364 L 775 364 L 776 363 L 779 363 L 780 362 "></path>
        <path fill="none" stroke="#00fafa" stroke-width="3" d="M 708 755 L 709 754 L 710 754 L 711 755 L 713 755 L 714 756 L 715 756 L 718 759 L 718 760 L 719 761 L 719 766 L 718 767 L 718 768 L 717 769 L 717 770 L 716 771 L 715 771 L 713 773 L 706 773 L 701 768 L 701 767 L 700 766 L 700 762 L 701 761 L 701 759 L 704 756 L 705 756 L 706 755 L 708 755 L 709 754 "></path>
        <path fill="none" stroke="#00fafa" stroke-width="3" d="M 776 419 L 777 418 L 782 418 L 784 420 L 784 423 L 783 424 L 783 429 L 782 430 L 782 439 L 783 440 L 783 447 L 784 448 L 784 450 L 781 453 L 780 453 L 779 452 L 775 452 L 774 451 L 758 451 L 757 450 L 758 449 L 760 449 L 761 448 L 776 448 L 779 445 L 779 440 L 778 439 L 778 432 L 779 431 L 779 425 L 776 422 L 761 422 L 759 420 L 760 419 L 776 419 L 777 418 "></path>
        <path fill="none" stroke="#00fafa" stroke-width="3" d="M 706 43 L 707 42 L 712 42 L 713 43 L 714 43 L 718 47 L 718 49 L 719 50 L 719 53 L 718 54 L 718 55 L 717 56 L 717 57 L 715 59 L 714 59 L 713 60 L 712 60 L 711 61 L 708 61 L 707 60 L 705 60 L 701 56 L 701 55 L 700 54 L 700 49 L 701 48 L 701 47 L 705 43 L 706 43 L 707 42 "></path>
        <path fill="none" stroke="#00fafa" stroke-width="3" d="M 925 372 L 926 371 L 932 371 L 934 373 L 935 373 L 936 374 L 936 375 L 937 376 L 937 377 L 938 378 L 938 382 L 937 383 L 937 384 L 936 385 L 936 386 L 935 387 L 934 387 L 932 389 L 926 389 L 925 388 L 924 388 L 920 384 L 920 382 L 919 381 L 919 379 L 920 378 L 920 376 L 924 372 L 925 372 L 926 371 "></path>
        <path fill="none" stroke="#00fafa" stroke-width="3" d="M 925 427 L 926 426 L 932 426 L 933 427 L 934 427 L 936 429 L 936 430 L 937 431 L 937 432 L 938 433 L 938 437 L 937 438 L 937 439 L 936 440 L 936 441 L 935 442 L 934 442 L 932 444 L 926 444 L 925 443 L 924 443 L 920 439 L 920 436 L 919 435 L 920 434 L 920 431 L 924 427 L 925 427 L 926 426 "></path>
        <path fill="none" stroke="#00fafa" stroke-width="3" d="M 324 756 L 325 755 L 326 755 L 327 756 L 329 756 L 330 757 L 331 757 L 332 758 L 332 759 L 334 761 L 334 766 L 333 767 L 333 768 L 329 772 L 323 772 L 322 771 L 321 771 L 318 768 L 318 767 L 317 766 L 317 762 L 318 761 L 318 760 L 322 756 L 324 756 L 325 755 "></path>
        <path fill="none" stroke="#00fafa" stroke-width="3" d="M 322 44 L 323 43 L 328 43 L 329 44 L 330 44 L 333 47 L 333 48 L 334 49 L 334 53 L 333 54 L 333 55 L 329 59 L 322 59 L 318 55 L 318 54 L 317 53 L 317 50 L 318 49 L 318 47 L 321 44 L 322 44 L 323 43 "></path>
        <path fill="none" stroke="#00fafa" stroke-width="3" d="M 302 474 L 308 474 L 309 475 L 309 476 L 308 477 L 307 477 L 306 478 L 305 478 L 302 481 L 302 485 L 301 486 L 301 490 L 302 491 L 302 496 L 303 497 L 303 499 L 307 503 L 309 503 L 310 504 L 318 504 L 319 505 L 318 506 L 313 506 L 312 507 L 303 507 L 301 505 L 301 504 L 300 503 L 300 502 L 299 501 L 299 499 L 298 498 L 298 494 L 297 493 L 297 484 L 298 483 L 298 479 L 299 478 L 299 477 L 302 474 L 308 474 "></path>
        <path fill="none" stroke="#00fafa" stroke-width="3" d="M 160 208 L 161 207 L 162 208 L 164 208 L 165 209 L 166 209 L 168 211 L 168 212 L 169 213 L 169 218 L 164 223 L 158 223 L 154 219 L 154 218 L 153 217 L 153 214 L 154 213 L 154 212 L 155 211 L 155 210 L 156 209 L 157 209 L 158 208 L 160 208 L 161 207 "></path>
        <path fill="none" stroke="#00fafa" stroke-width="3" d="M 669 596 L 670 595 L 671 596 L 671 597 L 672 598 L 672 611 L 673 612 L 673 617 L 671 619 L 669 619 L 668 618 L 665 618 L 664 617 L 646 617 L 645 618 L 643 618 L 642 619 L 640 619 L 639 618 L 639 617 L 638 616 L 638 615 L 639 614 L 639 613 L 641 611 L 644 614 L 645 614 L 646 615 L 649 615 L 650 614 L 666 614 L 669 611 L 669 596 L 670 595 "></path>
        <path fill="none" stroke="#00fafa" stroke-width="3" d="M 483 186 L 484 185 L 497 185 L 498 186 L 501 186 L 502 187 L 503 187 L 507 191 L 507 193 L 505 195 L 503 193 L 503 192 L 501 190 L 500 190 L 499 189 L 497 189 L 496 188 L 486 188 L 485 189 L 482 189 L 481 190 L 479 190 L 478 191 L 477 191 L 476 192 L 475 192 L 474 193 L 473 193 L 465 201 L 465 202 L 464 203 L 464 204 L 463 205 L 463 206 L 462 207 L 462 208 L 461 209 L 460 208 L 460 206 L 461 205 L 461 203 L 463 201 L 463 200 L 464 199 L 464 198 L 471 191 L 472 191 L 474 189 L 475 189 L 476 188 L 477 188 L 478 187 L 479 187 L 480 186 L 483 186 L 484 185 "></path>
        <path fill="none" stroke="#00fafa" stroke-width="3" d="M 816 702 L 822 702 L 826 706 L 826 707 L 827 708 L 827 710 L 826 711 L 826 712 L 825 713 L 825 714 L 824 715 L 823 715 L 822 716 L 821 716 L 820 717 L 818 717 L 817 716 L 816 716 L 812 712 L 812 706 L 816 702 L 822 702 "></path>
        <path fill="none" stroke="#00fafa" stroke-width="3" d="M 817 99 L 818 98 L 820 98 L 821 99 L 823 99 L 825 101 L 825 102 L 826 103 L 826 104 L 827 105 L 827 106 L 826 107 L 826 109 L 822 113 L 817 113 L 816 112 L 815 112 L 813 110 L 813 109 L 812 108 L 812 103 L 816 99 L 817 99 L 818 98 "></path>
        <path fill="none" stroke="#00fafa" stroke-width="3" d="M 103 374 L 104 373 L 108 373 L 109 374 L 110 374 L 113 377 L 113 383 L 109 387 L 104 387 L 103 386 L 102 386 L 100 384 L 100 383 L 99 382 L 99 378 L 100 377 L 100 376 L 102 374 L 103 374 L 104 373 "></path>
        <path fill="none" stroke="#00fafa" stroke-width="3" d="M 103 429 L 104 428 L 109 428 L 113 432 L 113 437 L 112 438 L 112 439 L 110 441 L 109 441 L 108 442 L 104 442 L 103 441 L 102 441 L 100 439 L 100 438 L 99 437 L 99 433 L 100 432 L 100 431 L 102 429 L 103 429 L 104 428 "></path>
        <path fill="none" stroke="#00fafa" stroke-width="3" d="M 614 618 L 615 617 L 616 617 L 617 618 L 617 624 L 615 626 L 614 626 L 613 627 L 611 627 L 610 628 L 608 628 L 607 629 L 590 629 L 589 628 L 587 628 L 584 625 L 584 621 L 585 620 L 586 620 L 588 622 L 588 623 L 589 624 L 590 624 L 591 625 L 593 625 L 594 626 L 603 626 L 604 625 L 607 625 L 608 624 L 610 624 L 613 621 L 613 620 L 614 619 L 614 618 L 615 617 "></path>
        <path fill="none" stroke="#00fafa" stroke-width="3" d="M 871 155 L 872 154 L 876 154 L 877 155 L 878 155 L 880 157 L 880 158 L 881 159 L 881 163 L 877 167 L 875 167 L 874 168 L 873 167 L 871 167 L 868 164 L 868 163 L 867 162 L 867 160 L 868 159 L 868 158 L 869 157 L 869 156 L 870 155 L 871 155 L 872 154 "></path>
        <path fill="none" stroke="#00fafa" stroke-width="3" d="M 726 538 L 727 539 L 727 555 L 728 556 L 728 562 L 727 563 L 722 563 L 721 562 L 709 562 L 708 561 L 706 561 L 705 560 L 706 559 L 721 559 L 724 556 L 724 540 L 726 538 L 727 539 "></path>
        <path fill="none" stroke="#00fafa" stroke-width="3" d="M 103 320 L 104 319 L 108 319 L 109 320 L 110 320 L 112 322 L 112 324 L 113 325 L 113 326 L 112 327 L 112 328 L 109 331 L 108 331 L 107 332 L 106 332 L 105 331 L 103 331 L 100 328 L 100 323 L 101 322 L 101 321 L 102 320 L 103 320 L 104 319 "></path>
        <path fill="none" stroke="#00fafa" stroke-width="3" d="M 528 621 L 529 620 L 530 620 L 531 621 L 531 622 L 535 626 L 536 626 L 537 627 L 542 627 L 543 628 L 547 628 L 548 627 L 553 627 L 554 626 L 555 626 L 560 621 L 561 621 L 562 622 L 562 625 L 558 629 L 554 629 L 553 630 L 545 630 L 544 631 L 543 630 L 537 630 L 536 629 L 534 629 L 533 628 L 532 628 L 531 627 L 530 627 L 529 626 L 529 625 L 528 624 L 528 621 L 529 620 "></path>
        <path fill="none" stroke="#00fafa" stroke-width="3" d="M 214 703 L 217 703 L 218 704 L 219 704 L 221 706 L 221 707 L 222 708 L 222 711 L 218 715 L 213 715 L 210 712 L 210 707 L 214 703 L 217 703 "></path>
        <path fill="none" stroke="#00fafa" stroke-width="3" d="M 213 100 L 218 100 L 221 103 L 221 104 L 222 105 L 222 107 L 221 108 L 221 109 L 219 111 L 218 111 L 217 112 L 215 112 L 214 111 L 213 111 L 210 108 L 210 103 L 213 100 L 218 100 "></path>
        <path fill="none" stroke="#00fafa" stroke-width="3" d="M 268 759 L 273 759 L 276 762 L 276 766 L 275 767 L 275 768 L 274 769 L 273 769 L 272 770 L 270 770 L 269 769 L 268 769 L 266 767 L 266 766 L 265 765 L 265 763 L 266 762 L 266 761 L 268 759 L 273 759 "></path>
        <path fill="none" stroke="#00fafa" stroke-width="3" d="M 269 46 L 270 45 L 271 45 L 272 46 L 273 46 L 276 49 L 276 53 L 273 56 L 268 56 L 266 54 L 266 53 L 265 52 L 265 50 L 266 49 L 266 48 L 268 46 L 269 46 L 270 45 "></path>
        <path fill="none" stroke="#00fafa" stroke-width="3" d="M 159 156 L 160 155 L 162 155 L 166 159 L 166 162 L 165 163 L 165 164 L 164 165 L 163 165 L 162 166 L 159 166 L 156 163 L 156 158 L 158 156 L 159 156 L 160 155 "></path>
        <path fill="none" stroke="#00fafa" stroke-width="3" d="M 705 295 L 706 294 L 712 294 L 713 295 L 717 295 L 718 296 L 720 296 L 721 297 L 722 297 L 723 298 L 724 298 L 725 299 L 726 299 L 727 300 L 727 301 L 728 302 L 728 307 L 727 308 L 726 308 L 725 307 L 725 305 L 724 304 L 724 303 L 721 300 L 720 300 L 719 299 L 718 299 L 717 298 L 715 298 L 714 297 L 710 297 L 709 296 L 706 296 L 705 295 L 706 294 "></path>
        <path fill="none" stroke="#00fafa" stroke-width="3" d="M 740 419 L 745 419 L 746 420 L 744 422 L 743 422 L 742 423 L 741 423 L 740 424 L 740 425 L 739 426 L 739 427 L 738 428 L 738 432 L 737 433 L 738 434 L 738 439 L 739 440 L 739 442 L 740 443 L 740 444 L 739 445 L 737 443 L 737 442 L 736 441 L 736 439 L 735 438 L 735 432 L 736 431 L 736 426 L 737 425 L 737 423 L 738 422 L 738 421 L 740 419 L 745 419 "></path>
        <path fill="none" stroke="#00fafa" stroke-width="3" d="M 105 540 L 106 539 L 107 540 L 108 540 L 111 543 L 111 547 L 109 549 L 108 549 L 107 550 L 105 550 L 104 549 L 103 549 L 101 547 L 101 543 L 104 540 L 105 540 L 106 539 "></path>
        <path fill="none" stroke="#00fafa" stroke-width="3" d="M 104 266 L 105 265 L 107 265 L 108 266 L 109 266 L 111 268 L 111 272 L 108 275 L 104 275 L 101 272 L 101 268 L 103 266 L 104 266 L 105 265 "></path>
        <path fill="none" stroke="#00fafa" stroke-width="3" d="M 927 595 L 931 595 L 934 598 L 934 602 L 932 604 L 931 604 L 930 605 L 928 605 L 927 604 L 926 604 L 925 603 L 925 602 L 924 601 L 924 598 L 927 595 L 931 595 "></path>
        <path fill="none" stroke="#00fafa" stroke-width="3" d="M 928 210 L 930 210 L 931 211 L 932 211 L 934 213 L 934 217 L 931 220 L 927 220 L 924 217 L 924 214 L 928 210 L 930 210 "></path>
        <path fill="none" stroke="#00fafa" stroke-width="3" d="M 308 307 L 311 307 L 312 308 L 313 308 L 315 310 L 314 311 L 313 311 L 310 314 L 310 328 L 309 329 L 308 328 L 308 314 L 307 313 L 307 312 L 306 311 L 306 309 L 308 307 L 311 307 "></path>
        <path fill="none" stroke="#00fafa" stroke-width="3" d="M 983 431 L 986 431 L 988 433 L 988 436 L 985 439 L 983 439 L 980 436 L 980 434 L 983 431 L 986 431 "></path>
        <path fill="none" stroke="#00fafa" stroke-width="3" d="M 460 607 L 461 606 L 462 607 L 462 608 L 463 609 L 463 610 L 467 614 L 468 614 L 469 615 L 470 615 L 472 617 L 471 618 L 467 618 L 466 617 L 465 617 L 463 615 L 463 614 L 462 613 L 462 612 L 461 611 L 461 610 L 460 609 L 460 607 L 461 606 "></path>
        <path fill="none" stroke="#00fafa" stroke-width="3" d="M 736 384 L 737 383 L 738 384 L 738 388 L 740 390 L 740 391 L 741 392 L 742 392 L 743 393 L 744 393 L 746 395 L 745 396 L 740 396 L 738 394 L 738 393 L 737 392 L 737 390 L 736 389 L 736 384 L 737 383 "></path>
        <path fill="none" stroke="#00fafa" stroke-width="3" d="M 873 706 L 874 705 L 875 706 L 876 706 L 878 708 L 878 711 L 876 713 L 873 713 L 871 711 L 871 710 L 870 709 L 871 708 L 871 707 L 872 706 L 873 706 L 874 705 "></path>
        <path fill="none" stroke="#00fafa" stroke-width="3" d="M 873 102 L 876 102 L 878 104 L 878 107 L 876 109 L 872 109 L 871 108 L 871 104 L 873 102 L 876 102 "></path>
        <path fill="none" stroke="#00fafa" stroke-width="3" d="M 818 761 L 821 761 L 823 763 L 823 766 L 821 768 L 818 768 L 816 766 L 816 763 L 818 761 L 821 761 "></path>
        <path fill="none" stroke="#00fafa" stroke-width="3" d="M 818 47 L 821 47 L 823 49 L 823 52 L 821 54 L 818 54 L 816 52 L 816 49 L 818 47 L 821 47 "></path>
        <path fill="none" stroke="#00fafa" stroke-width="3" d="M 723 529 L 727 529 L 729 531 L 728 532 L 728 534 L 727 535 L 727 537 L 726 538 L 725 537 L 725 536 L 724 535 L 724 534 L 721 531 L 723 529 L 727 529 "></path>
        <path fill="none" stroke="#00fafa" stroke-width="3" d="M 668 585 L 669 584 L 672 584 L 673 585 L 673 589 L 672 590 L 672 591 L 671 592 L 667 588 L 667 587 L 666 586 L 667 585 L 668 585 L 669 584 "></path>
        <path fill="none" stroke="#00fafa" stroke-width="3" d="M 983 487 L 984 486 L 985 487 L 986 487 L 987 488 L 987 492 L 986 493 L 982 493 L 981 492 L 981 488 L 982 487 L 983 487 L 984 486 "></path>
        <path fill="none" stroke="#00fafa" stroke-width="3" d="M 309 334 L 311 336 L 311 337 L 313 339 L 313 340 L 312 341 L 311 341 L 310 342 L 308 342 L 306 340 L 306 339 L 307 338 L 307 336 L 309 334 L 311 336 "></path>
        <path fill="none" stroke="#00fafa" stroke-width="3" d="M 105 212 L 107 212 L 109 214 L 109 217 L 107 219 L 105 219 L 103 217 L 103 214 L 105 212 L 107 212 "></path>
        <path fill="none" stroke="#00fafa" stroke-width="3" d="M 739 370 L 740 371 L 740 372 L 739 373 L 739 375 L 738 376 L 738 380 L 737 381 L 737 383 L 736 384 L 735 383 L 735 376 L 736 375 L 736 374 L 737 373 L 737 372 L 739 370 L 740 371 "></path>
        <path fill="none" stroke="#00fafa" stroke-width="3" d="M 740 446 L 741 445 L 743 447 L 744 447 L 745 448 L 747 448 L 748 449 L 750 449 L 751 450 L 749 452 L 745 452 L 740 447 L 740 446 L 741 445 "></path>
        <path fill="none" stroke="#00fafa" stroke-width="3" d="M 744 364 L 745 363 L 749 363 L 751 365 L 750 366 L 748 366 L 747 367 L 745 367 L 744 368 L 743 368 L 742 369 L 741 369 L 740 368 L 742 366 L 742 365 L 743 364 L 744 364 L 745 363 "></path>
        <path fill="none" stroke="#00fafa" stroke-width="3" d="M 695 557 L 696 556 L 699 559 L 700 559 L 701 560 L 701 561 L 699 563 L 695 563 L 694 562 L 694 559 L 695 558 L 695 557 L 696 556 "></path>
        <path fill="none" stroke="#00fafa" stroke-width="3" d="M 983 322 L 985 322 L 987 324 L 987 327 L 986 328 L 985 328 L 984 329 L 983 328 L 982 328 L 981 327 L 981 324 L 983 322 L 985 322 "></path>
        <path fill="none" stroke="#00fafa" stroke-width="3" d="M 339 279 L 340 280 L 340 281 L 341 282 L 341 285 L 340 286 L 336 286 L 334 284 L 339 279 L 340 280 "></path>
        <path fill="none" stroke="#00fafa" stroke-width="3" d="M 307 447 L 308 446 L 309 446 L 313 450 L 311 452 L 310 452 L 309 453 L 308 453 L 306 451 L 306 449 L 307 448 L 307 447 L 308 446 "></path>
        <path fill="none" stroke="#00fafa" stroke-width="3" d="M 308 362 L 309 362 L 310 363 L 311 363 L 313 365 L 309 369 L 308 369 L 307 368 L 307 367 L 306 366 L 306 364 L 308 362 L 309 362 "></path>
        <path fill="none" stroke="#00fafa" stroke-width="3" d="M 614 197 L 615 196 L 616 196 L 618 198 L 618 200 L 617 201 L 617 202 L 616 203 L 615 203 L 611 199 L 613 197 L 614 197 L 615 196 "></path>
        <path fill="none" stroke="#00fafa" stroke-width="3" d="M 698 295 L 699 294 L 703 294 L 704 295 L 702 297 L 701 297 L 699 299 L 698 299 L 697 300 L 696 300 L 695 299 L 695 298 L 696 297 L 696 296 L 697 295 L 698 295 L 699 294 "></path>
        <path fill="none" stroke="#00fafa" stroke-width="3" d="M 362 253 L 363 252 L 366 252 L 368 254 L 368 255 L 365 258 L 364 258 L 362 256 L 362 253 L 363 252 "></path>
        <path fill="none" stroke="#00fafa" stroke-width="3" d="M 725 502 L 727 502 L 728 503 L 728 504 L 729 505 L 729 506 L 727 508 L 725 508 L 723 506 L 723 504 L 725 502 L 727 502 "></path>
        <path fill="none" stroke="#00fafa" stroke-width="3" d="M 306 419 L 307 418 L 310 418 L 312 420 L 312 421 L 309 424 L 308 424 L 307 423 L 307 422 L 306 421 L 306 419 L 307 418 "></path>
        <path fill="none" stroke="#00fafa" stroke-width="3" d="M 307 392 L 308 391 L 309 391 L 312 394 L 312 395 L 310 397 L 308 397 L 306 395 L 306 394 L 307 393 L 307 392 L 308 391 "></path>
        <path fill="none" stroke="#00fafa" stroke-width="3" d="M 337 308 L 338 307 L 339 307 L 341 309 L 341 311 L 339 313 L 338 312 L 337 312 L 335 310 L 335 309 L 336 308 L 337 308 L 338 307 "></path>
        <path fill="none" stroke="#00fafa" stroke-width="3" d="M 585 196 L 586 196 L 587 197 L 588 197 L 589 198 L 589 199 L 586 202 L 585 202 L 584 201 L 584 200 L 583 199 L 583 198 L 585 196 L 586 196 "></path>
        <path fill="none" stroke="#00fafa" stroke-width="3" d="M 504 613 L 505 613 L 507 615 L 507 617 L 506 618 L 502 618 L 501 617 L 501 616 L 504 613 L 505 613 "></path>
        <path fill="none" stroke="#00fafa" stroke-width="3" d="M 559 197 L 560 196 L 561 196 L 563 198 L 563 199 L 560 202 L 557 199 L 557 198 L 558 197 L 559 197 L 560 196 "></path>
        <path fill="none" stroke="#00fafa" stroke-width="3" d="M 353 501 L 354 502 L 354 504 L 351 507 L 348 507 L 347 506 L 349 504 L 350 504 L 353 501 L 354 502 "></path>
        <path fill="none" stroke="#00fafa" stroke-width="3" d="M 639 585 L 640 584 L 642 584 L 644 586 L 644 587 L 641 590 L 639 588 L 639 585 L 640 584 "></path>
        <path fill="none" stroke="#00fafa" stroke-width="3" d="M 530 196 L 531 197 L 532 197 L 533 198 L 533 200 L 532 201 L 531 201 L 530 202 L 528 200 L 528 198 L 530 196 L 531 197 "></path>
        <path fill="none" stroke="#00fafa" stroke-width="3" d="M 670 558 L 671 558 L 673 560 L 673 562 L 672 563 L 669 563 L 668 562 L 668 560 L 670 558 L 671 558 "></path>
        <path fill="none" stroke="#00fafa" stroke-width="3" d="M 927 653 L 928 652 L 930 652 L 932 654 L 932 655 L 930 657 L 928 657 L 927 656 L 927 653 L 928 652 "></path>
        <path fill="none" stroke="#00fafa" stroke-width="3" d="M 392 252 L 394 252 L 396 254 L 396 255 L 394 257 L 393 257 L 390 254 L 392 252 L 394 252 "></path>
        <path fill="none" stroke="#00fafa" stroke-width="3" d="M 338 336 L 339 336 L 340 337 L 340 340 L 339 341 L 336 341 L 335 340 L 335 339 L 338 336 L 339 336 "></path>
        <path fill="none" stroke="#00fafa" stroke-width="3" d="M 458 213 L 459 212 L 460 213 L 460 216 L 461 217 L 461 220 L 460 221 L 458 219 L 458 213 L 459 212 "></path>
        <path fill="none" stroke="#00fafa" stroke-width="3" d="M 459 587 L 460 586 L 462 586 L 463 587 L 463 588 L 459 592 L 458 591 L 458 589 L 459 588 L 459 587 L 460 586 "></path>
        <path fill="none" stroke="#00fafa" stroke-width="3" d="M 694 530 L 695 529 L 698 529 L 699 530 L 699 531 L 696 534 L 694 532 L 694 530 L 695 529 "></path>
        <path fill="none" stroke="#00fafa" stroke-width="3" d="M 727 343 L 728 344 L 728 347 L 725 350 L 724 349 L 724 348 L 725 347 L 725 345 L 727 343 L 728 344 "></path>
        <path fill="none" stroke="#00fafa" stroke-width="3" d="M 364 281 L 367 284 L 365 286 L 363 286 L 362 285 L 362 283 L 364 281 L 367 284 "></path>
        <path fill="none" stroke="#00fafa" stroke-width="3" d="M 724 466 L 725 465 L 728 468 L 728 470 L 727 471 L 726 471 L 725 470 L 725 468 L 724 467 L 724 466 L 725 465 "></path>
        <path fill="none" stroke="#00fafa" stroke-width="3" d="M 616 225 L 617 226 L 617 229 L 616 230 L 614 230 L 613 229 L 613 228 L 616 225 L 617 226 "></path>
        <path fill="none" stroke="#00fafa" stroke-width="3" d="M 336 449 L 337 448 L 339 448 L 340 449 L 340 450 L 338 452 L 337 452 L 336 451 L 336 449 L 337 448 "></path>
        <path fill="none" stroke="#00fafa" stroke-width="3" d="M 639 233 L 640 232 L 641 232 L 642 233 L 642 235 L 643 236 L 642 237 L 641 237 L 640 236 L 640 235 L 639 234 L 639 233 L 640 232 "></path>
        <path fill="none" stroke="#00fafa" stroke-width="3" d="M 362 308 L 363 307 L 364 307 L 366 309 L 364 311 L 363 311 L 362 310 L 362 308 L 363 307 "></path>
        <path fill="none" stroke="#00fafa" stroke-width="3" d="M 584 227 L 585 226 L 586 226 L 588 228 L 588 229 L 587 230 L 586 230 L 584 228 L 584 227 L 585 226 "></path>
        <path fill="none" stroke="#00fafa" stroke-width="3" d="M 336 420 L 337 419 L 339 419 L 340 420 L 340 421 L 339 422 L 337 422 L 336 421 L 336 420 L 337 419 "></path>
        <path fill="none" stroke="#00fafa" stroke-width="3" d="M 984 543 L 985 543 L 986 544 L 986 545 L 984 547 L 982 545 L 984 543 L 985 543 "></path>
        <path fill="none" stroke="#00fafa" stroke-width="3" d="M 161 707 L 163 709 L 161 711 L 160 711 L 159 710 L 159 709 L 161 707 L 163 709 "></path>
        <path fill="none" stroke="#00fafa" stroke-width="3" d="M 586 585 L 587 586 L 587 588 L 586 589 L 585 589 L 584 588 L 584 587 L 586 585 L 587 586 "></path>
        <path fill="none" stroke="#00fafa" stroke-width="3" d="M 983 270 L 984 269 L 985 269 L 986 270 L 986 271 L 985 272 L 984 272 L 983 271 L 983 270 L 984 269 "></path>
        <path fill="none" stroke="#00fafa" stroke-width="3" d="M 698 458 L 699 458 L 700 459 L 698 461 L 697 461 L 696 460 L 698 458 L 699 458 "></path>
        <path fill="none" stroke="#00fafa" stroke-width="3" d="M 159 105 L 160 104 L 161 104 L 162 105 L 162 106 L 161 107 L 160 107 L 159 106 L 159 105 L 160 104 "></path>
        <path fill="none" stroke="#00fafa" stroke-width="3" d="M 459 209 L 460 208 L 461 209 L 461 211 L 460 212 L 459 211 L 459 209 L 460 208 "></path>
        <path fill="none" stroke="#00fafa" stroke-width="3" d="M 669 294 L 670 293 L 671 293 L 672 294 L 672 295 L 671 296 L 669 294 L 670 293 "></path>
        <path fill="none" stroke="#00fafa" stroke-width="3" d="M 459 605 L 460 604 L 461 605 L 461 606 L 460 607 L 459 606 L 459 605 L 460 604 "></path>
        <path fill="none" stroke="#00fafa" stroke-width="3" d="M 49 380 L 50 379 L 51 379 L 52 380 L 51 381 L 50 381 L 49 380 L 50 379 "></path>
        <path fill="none" stroke="#00fafa" stroke-width="3" d="M 49 435 L 50 434 L 51 434 L 52 435 L 51 436 L 50 436 L 49 435 L 50 434 "></path>
        <path fill="none" stroke="#00fafa" stroke-width="3" d="M 709 357 L 710 356 L 711 356 L 712 357 L 711 358 L 710 358 L 709 357 L 710 356 "></path>
    </g>
</svg>
