<svg xmlns="http://www.w3.org/2000/svg" xmlns:xlink="http://www.w3.org/1999/xlink" version="1.1" x="0" y="0" width="1056px" height="816px">
    <g id="rootLayer" transform="translate(0.000000, 0.000000)">
        <path fill="none" stroke="#fa00fa" stroke-width="3" d="M 522 388 L 521 389 L 520 389 L 519 390 L 518 390 L 513 395 L 507 395 L 506 394 L 504 394 L 503 395 L 502 394 L 501 395 L 498 395 L 497 396 L 490 396 L 489 397 L 487 397 L 486 398 L 485 398 L 483 400 L 481 400 L 479 402 L 479 404 L 478 405 L 478 407 L 477 408 L 477 410 L 478 411 L 478 413 L 479 414 L 479 418 L 480 419 L 480 420 L 481 420 L 482 421 L 485 421 L 486 422 L 487 421 L 488 421 L 489 422 L 495 422 L 496 421 L 497 422 L 506 422 L 507 421 L 511 421 L 512 420 L 514 420 L 515 419 L 516 419 L 516 418 L 518 416 L 518 415 L 519 414 L 525 414 L 526 415 L 528 415 L 529 414 L 535 414 L 536 415 L 537 415 L 538 416 L 540 416 L 541 417 L 553 417 L 554 418 L 554 425 L 555 426 L 555 429 L 556 430 L 556 431 L 558 433 L 559 433 L 560 434 L 565 434 L 566 435 L 567 434 L 568 435 L 569 435 L 570 436 L 570 437 L 571 438 L 570 439 L 570 443 L 571 444 L 571 448 L 572 449 L 572 450 L 574 452 L 576 452 L 578 454 L 578 455 L 579 456 L 579 462 L 580 463 L 580 464 L 581 465 L 581 466 L 582 467 L 582 469 L 583 470 L 583 472 L 584 473 L 584 475 L 585 476 L 585 477 L 586 478 L 586 479 L 587 479 L 590 482 L 593 482 L 594 483 L 595 482 L 596 482 L 597 483 L 599 483 L 600 482 L 603 482 L 604 481 L 606 481 L 608 479 L 608 477 L 610 475 L 610 473 L 611 472 L 611 468 L 610 467 L 610 466 L 608 464 L 608 457 L 607 456 L 607 455 L 604 452 L 604 449 L 603 448 L 603 447 L 602 446 L 601 446 L 598 443 L 598 442 L 597 441 L 597 440 L 596 439 L 596 435 L 594 433 L 594 432 L 593 432 L 592 431 L 592 430 L 591 430 L 589 428 L 588 428 L 587 427 L 585 427 L 584 428 L 583 427 L 582 427 L 580 425 L 580 417 L 579 416 L 579 415 L 578 414 L 578 413 L 574 409 L 573 409 L 572 408 L 564 408 L 563 409 L 560 409 L 558 407 L 558 406 L 557 405 L 557 404 L 558 403 L 557 402 L 557 398 L 555 396 L 555 395 L 554 394 L 553 394 L 552 393 L 551 393 L 550 392 L 548 392 L 547 391 L 545 391 L 544 392 L 541 392 L 540 393 L 536 393 L 534 391 L 533 391 L 532 390 L 531 390 L 530 389 L 529 389 L 528 388 L 522 388 L 521 389 "></path>
        <path fill="none" stroke="#fa00fa" stroke-width="3" d="M 566 500 L 565 501 L 564 501 L 563 502 L 561 502 L 561 503 L 560 504 L 560 505 L 558 507 L 558 509 L 557 510 L 557 511 L 556 512 L 556 514 L 554 516 L 554 517 L 545 526 L 545 527 L 544 528 L 544 539 L 542 541 L 542 542 L 538 546 L 536 546 L 535 547 L 529 547 L 528 548 L 527 548 L 526 549 L 525 549 L 525 550 L 523 552 L 523 554 L 522 555 L 522 557 L 521 558 L 521 564 L 522 565 L 522 566 L 523 567 L 523 568 L 526 571 L 527 571 L 528 572 L 529 572 L 530 573 L 539 573 L 540 572 L 541 572 L 543 570 L 546 570 L 547 571 L 548 571 L 549 572 L 549 573 L 551 573 L 552 574 L 556 574 L 557 575 L 558 575 L 559 574 L 562 574 L 564 572 L 566 572 L 568 570 L 569 570 L 570 569 L 571 569 L 572 570 L 575 570 L 576 571 L 578 571 L 579 570 L 583 570 L 584 569 L 585 569 L 586 568 L 586 567 L 588 565 L 588 563 L 589 562 L 589 561 L 590 560 L 590 559 L 591 558 L 591 557 L 592 556 L 592 555 L 594 553 L 594 542 L 593 541 L 593 540 L 591 538 L 591 533 L 590 532 L 590 531 L 587 528 L 586 528 L 585 527 L 584 527 L 581 524 L 581 522 L 582 521 L 582 520 L 583 519 L 583 516 L 584 515 L 583 514 L 583 511 L 582 510 L 582 507 L 581 506 L 581 505 L 579 503 L 579 502 L 577 502 L 576 501 L 575 501 L 574 500 L 573 501 L 572 500 L 568 500 L 567 501 L 566 500 L 565 501 "></path>
        <path fill="none" stroke="#fa00fa" stroke-width="3" d="M 466 420 L 465 421 L 464 421 L 463 422 L 462 421 L 460 423 L 459 423 L 457 425 L 457 426 L 456 427 L 456 431 L 455 432 L 455 437 L 456 438 L 456 439 L 460 443 L 460 444 L 461 445 L 462 445 L 463 446 L 464 446 L 466 448 L 466 451 L 464 453 L 464 454 L 463 455 L 463 456 L 462 457 L 462 458 L 463 459 L 463 460 L 464 461 L 464 464 L 463 465 L 464 466 L 464 468 L 465 469 L 465 470 L 466 471 L 467 471 L 468 472 L 469 472 L 470 473 L 482 473 L 483 472 L 484 473 L 486 473 L 487 472 L 488 472 L 489 473 L 490 473 L 491 472 L 497 472 L 498 471 L 499 471 L 500 470 L 500 468 L 501 467 L 501 466 L 502 465 L 502 463 L 503 462 L 504 462 L 505 461 L 506 461 L 507 460 L 508 460 L 509 459 L 510 459 L 511 458 L 511 457 L 512 456 L 512 453 L 513 452 L 513 447 L 514 446 L 514 443 L 513 442 L 513 439 L 512 438 L 512 437 L 510 435 L 508 435 L 507 434 L 494 434 L 492 436 L 491 436 L 490 437 L 490 438 L 489 439 L 489 440 L 488 441 L 488 443 L 485 446 L 484 446 L 483 447 L 481 447 L 479 445 L 479 442 L 480 441 L 480 440 L 482 438 L 482 428 L 481 427 L 481 426 L 480 425 L 480 423 L 478 421 L 475 421 L 474 420 L 466 420 L 465 421 "></path>
        <path fill="none" stroke="#fa00fa" stroke-width="3" d="M 481 625 L 480 626 L 476 626 L 475 627 L 474 627 L 473 628 L 472 628 L 471 629 L 470 629 L 468 631 L 468 632 L 462 638 L 462 639 L 461 640 L 461 641 L 457 645 L 457 646 L 456 647 L 456 648 L 455 649 L 455 653 L 454 654 L 454 658 L 455 659 L 455 660 L 457 662 L 457 663 L 458 664 L 459 664 L 462 667 L 464 667 L 465 668 L 468 668 L 469 669 L 472 669 L 473 668 L 474 668 L 479 663 L 479 662 L 483 658 L 483 656 L 484 655 L 484 654 L 488 650 L 489 650 L 490 649 L 491 649 L 492 648 L 492 647 L 493 646 L 493 634 L 492 633 L 492 632 L 491 631 L 491 629 L 490 628 L 489 628 L 488 627 L 487 627 L 486 626 L 483 626 L 482 625 L 481 625 L 480 626 "></path>
        <path fill="none" stroke="#fa00fa" stroke-width="3" d="M 422 341 L 421 342 L 418 342 L 416 344 L 415 344 L 413 346 L 413 347 L 412 348 L 412 349 L 411 350 L 411 351 L 410 352 L 410 355 L 411 356 L 411 361 L 413 363 L 413 364 L 415 364 L 417 366 L 417 367 L 418 368 L 419 368 L 420 369 L 421 369 L 422 370 L 428 370 L 429 369 L 431 369 L 432 368 L 433 368 L 435 366 L 435 364 L 436 363 L 436 362 L 437 361 L 437 359 L 438 358 L 438 357 L 439 356 L 439 352 L 438 351 L 438 350 L 436 348 L 436 346 L 433 343 L 432 343 L 431 342 L 428 342 L 427 341 L 422 341 L 421 342 "></path>
        <path fill="none" stroke="#fa00fa" stroke-width="3" d="M 482 361 L 481 362 L 478 362 L 477 363 L 474 363 L 472 365 L 472 366 L 471 367 L 471 368 L 470 369 L 470 370 L 469 371 L 469 376 L 470 377 L 470 380 L 471 381 L 471 382 L 472 383 L 472 384 L 473 385 L 473 386 L 474 387 L 475 387 L 476 388 L 477 388 L 478 389 L 479 388 L 480 389 L 486 389 L 487 388 L 490 388 L 491 387 L 492 387 L 494 385 L 494 383 L 495 382 L 495 379 L 496 378 L 496 375 L 497 374 L 496 373 L 496 369 L 494 367 L 494 366 L 490 362 L 483 362 L 482 361 L 481 362 "></path>
        <path fill="none" stroke="#fa00fa" stroke-width="3" d="M 498 593 L 497 594 L 494 594 L 490 598 L 490 599 L 488 601 L 488 612 L 489 613 L 489 614 L 490 615 L 491 615 L 494 618 L 496 618 L 497 619 L 506 619 L 508 617 L 510 617 L 512 615 L 512 614 L 513 613 L 513 610 L 514 609 L 514 602 L 513 601 L 513 599 L 511 597 L 511 596 L 510 596 L 509 595 L 508 595 L 507 594 L 505 594 L 504 593 L 498 593 L 497 594 "></path>
        <path fill="none" stroke="#fa00fa" stroke-width="3" d="M 135 1 L 135 4 L 139 8 L 140 8 L 142 10 L 143 10 L 144 11 L 145 11 L 146 12 L 153 12 L 154 11 L 156 11 L 157 10 L 158 10 L 159 9 L 160 9 L 161 8 L 162 8 L 163 7 L 164 7 L 165 6 L 166 7 L 167 7 L 168 8 L 169 8 L 170 9 L 172 9 L 173 10 L 183 10 L 184 9 L 187 9 L 188 8 L 190 8 L 192 6 L 193 6 L 195 4 L 195 1 L 135 1 L 135 4 "></path>
        <path fill="none" stroke="#fa00fa" stroke-width="3" d="M 617 1 L 617 3 L 622 8 L 623 8 L 624 9 L 625 9 L 626 10 L 634 10 L 635 9 L 638 9 L 639 8 L 640 8 L 641 7 L 642 7 L 644 5 L 646 5 L 647 6 L 648 6 L 650 8 L 652 8 L 653 9 L 654 9 L 655 10 L 664 10 L 665 9 L 667 9 L 669 7 L 670 7 L 671 6 L 672 6 L 673 5 L 673 4 L 674 3 L 674 1 L 617 1 L 617 3 "></path>
        <path fill="none" stroke="#fa00fa" stroke-width="3" d="M 866 21 L 865 22 L 864 22 L 861 25 L 861 26 L 860 27 L 860 33 L 861 34 L 861 35 L 862 36 L 862 37 L 863 37 L 865 39 L 872 39 L 873 38 L 874 39 L 875 38 L 876 38 L 879 35 L 879 34 L 880 33 L 880 26 L 877 23 L 876 23 L 874 21 L 866 21 L 865 22 "></path>
        <path fill="none" stroke="#fa00fa" stroke-width="3" d="M 26 291 L 25 292 L 24 292 L 23 293 L 22 293 L 21 294 L 21 295 L 20 296 L 20 304 L 21 305 L 21 306 L 22 307 L 23 307 L 24 308 L 25 308 L 26 309 L 28 309 L 29 310 L 30 310 L 31 309 L 35 309 L 37 307 L 38 307 L 38 306 L 39 305 L 39 302 L 40 301 L 40 300 L 39 299 L 39 296 L 35 292 L 33 292 L 32 291 L 26 291 L 25 292 "></path>
        <path fill="none" stroke="#fa00fa" stroke-width="3" d="M 988 531 L 987 532 L 985 532 L 980 537 L 980 538 L 979 539 L 979 541 L 980 542 L 980 543 L 984 547 L 985 547 L 987 549 L 989 549 L 990 550 L 991 549 L 994 549 L 995 548 L 996 548 L 998 546 L 998 545 L 1001 542 L 1001 538 L 999 536 L 999 535 L 998 534 L 997 534 L 995 532 L 993 532 L 992 531 L 988 531 L 987 532 "></path>
        <path fill="none" stroke="#fa00fa" stroke-width="3" d="M 956 620 L 955 621 L 954 621 L 951 624 L 951 626 L 950 627 L 950 633 L 951 634 L 951 635 L 954 638 L 955 638 L 957 640 L 961 640 L 962 639 L 963 639 L 967 635 L 967 634 L 968 633 L 968 624 L 965 621 L 964 621 L 963 620 L 956 620 L 955 621 "></path>
        <path fill="none" stroke="#fa00fa" stroke-width="3" d="M 868 739 L 867 740 L 866 740 L 863 743 L 863 748 L 862 749 L 862 750 L 861 751 L 861 754 L 864 757 L 864 758 L 866 760 L 869 760 L 870 761 L 871 760 L 873 760 L 875 758 L 875 757 L 876 756 L 876 753 L 878 751 L 878 749 L 879 748 L 879 745 L 878 744 L 878 742 L 877 741 L 876 741 L 874 739 L 868 739 L 867 740 "></path>
        <path fill="none" stroke="#fa00fa" stroke-width="3" d="M 56 530 L 55 531 L 54 531 L 53 532 L 53 533 L 52 534 L 52 536 L 51 537 L 51 541 L 53 543 L 53 546 L 56 549 L 57 549 L 58 550 L 63 550 L 64 549 L 66 549 L 68 547 L 68 545 L 69 544 L 69 543 L 68 542 L 68 536 L 67 535 L 67 533 L 65 531 L 64 531 L 63 530 L 56 530 L 55 531 "></path>
        <path fill="none" stroke="#fa00fa" stroke-width="3" d="M 58 680 L 57 681 L 56 681 L 54 683 L 54 684 L 50 688 L 50 689 L 49 690 L 49 691 L 50 692 L 50 693 L 55 698 L 57 698 L 58 699 L 63 699 L 64 698 L 65 698 L 67 696 L 67 695 L 70 692 L 70 689 L 69 688 L 69 687 L 67 685 L 67 683 L 65 681 L 64 681 L 63 680 L 58 680 L 57 681 "></path>
        <path fill="none" stroke="#fa00fa" stroke-width="3" d="M 58 774 L 57 775 L 54 775 L 53 776 L 52 776 L 51 777 L 50 777 L 48 779 L 48 781 L 49 782 L 49 783 L 50 784 L 50 785 L 54 789 L 55 789 L 56 790 L 63 790 L 64 789 L 66 789 L 68 787 L 69 787 L 71 785 L 71 783 L 72 782 L 72 781 L 71 780 L 71 779 L 69 777 L 68 777 L 66 775 L 64 775 L 63 774 L 62 774 L 61 775 L 60 775 L 59 774 L 58 774 L 57 775 "></path>
        <path fill="none" stroke="#fa00fa" stroke-width="3" d="M 117 650 L 116 651 L 115 651 L 113 653 L 113 654 L 112 655 L 112 658 L 110 660 L 110 662 L 111 663 L 111 664 L 114 667 L 115 667 L 116 668 L 117 668 L 118 669 L 123 669 L 124 668 L 126 668 L 128 666 L 128 665 L 129 664 L 129 663 L 130 662 L 130 660 L 128 658 L 128 656 L 127 655 L 127 654 L 124 651 L 123 651 L 122 650 L 117 650 L 116 651 "></path>
        <path fill="none" stroke="#fa00fa" stroke-width="3" d="M 1022 622 L 1021 623 L 1018 623 L 1017 624 L 1013 624 L 1012 625 L 1011 625 L 1009 627 L 1009 629 L 1010 630 L 1010 633 L 1011 634 L 1011 635 L 1014 638 L 1017 638 L 1018 639 L 1019 639 L 1020 638 L 1023 638 L 1024 637 L 1027 637 L 1028 636 L 1029 636 L 1031 634 L 1031 629 L 1030 628 L 1030 627 L 1028 625 L 1028 624 L 1027 623 L 1024 623 L 1023 622 L 1022 622 L 1021 623 "></path>
        <path fill="none" stroke="#fa00fa" stroke-width="3" d="M 897 291 L 896 292 L 895 292 L 893 294 L 893 295 L 892 296 L 892 306 L 893 307 L 893 308 L 894 309 L 896 309 L 897 310 L 903 310 L 904 309 L 906 309 L 909 306 L 909 300 L 908 299 L 908 297 L 907 296 L 907 294 L 905 292 L 904 292 L 903 291 L 897 291 L 896 292 "></path>
        <path fill="none" stroke="#fa00fa" stroke-width="3" d="M 56 620 L 55 621 L 54 621 L 53 622 L 53 623 L 52 624 L 52 625 L 51 626 L 51 631 L 53 633 L 53 634 L 54 635 L 54 636 L 55 636 L 58 639 L 62 639 L 63 638 L 64 638 L 68 634 L 68 633 L 69 632 L 69 624 L 66 621 L 65 621 L 64 620 L 56 620 L 55 621 "></path>
        <path fill="none" stroke="#fa00fa" stroke-width="3" d="M 961 709 L 960 710 L 957 710 L 956 711 L 955 711 L 954 712 L 953 712 L 952 713 L 952 714 L 951 715 L 951 719 L 952 720 L 952 721 L 951 722 L 952 723 L 952 725 L 954 727 L 955 727 L 956 728 L 957 728 L 958 729 L 963 729 L 967 725 L 967 723 L 968 722 L 968 720 L 969 719 L 969 715 L 965 711 L 964 711 L 963 710 L 962 710 L 961 709 L 960 710 "></path>
        <path fill="none" stroke="#fa00fa" stroke-width="3" d="M 89 171 L 88 172 L 86 172 L 81 177 L 81 178 L 80 179 L 80 182 L 81 183 L 81 184 L 82 185 L 82 186 L 84 186 L 86 188 L 89 188 L 90 189 L 91 188 L 95 188 L 96 187 L 97 187 L 99 185 L 99 184 L 100 183 L 100 179 L 99 178 L 99 175 L 97 173 L 96 173 L 94 171 L 89 171 L 88 172 "></path>
        <path fill="none" stroke="#fa00fa" stroke-width="3" d="M 146 171 L 143 174 L 142 174 L 140 176 L 140 181 L 141 182 L 141 183 L 146 188 L 149 188 L 150 189 L 151 188 L 154 188 L 158 184 L 158 182 L 160 180 L 160 177 L 159 176 L 159 175 L 156 172 L 155 172 L 154 171 L 146 171 L 143 174 "></path>
        <path fill="none" stroke="#fa00fa" stroke-width="3" d="M 986 709 L 985 710 L 984 710 L 981 713 L 981 720 L 982 721 L 982 723 L 986 727 L 987 727 L 988 726 L 989 727 L 990 727 L 991 726 L 994 726 L 995 725 L 996 725 L 997 724 L 998 724 L 998 723 L 1000 721 L 1000 715 L 999 714 L 999 713 L 998 713 L 997 712 L 996 712 L 994 710 L 991 710 L 990 709 L 989 709 L 988 710 L 987 710 L 986 709 L 985 710 "></path>
        <path fill="none" stroke="#fa00fa" stroke-width="3" d="M 930 291 L 929 292 L 927 292 L 921 298 L 921 299 L 920 300 L 920 304 L 921 305 L 921 306 L 925 310 L 934 310 L 936 308 L 937 308 L 937 307 L 938 306 L 938 304 L 939 303 L 939 302 L 938 301 L 938 298 L 937 297 L 937 296 L 936 295 L 936 294 L 934 292 L 931 292 L 930 291 L 929 292 "></path>
        <path fill="none" stroke="#fa00fa" stroke-width="3" d="M 841 140 L 840 141 L 836 141 L 835 142 L 834 142 L 831 145 L 831 146 L 830 147 L 830 150 L 831 151 L 831 152 L 832 153 L 832 154 L 835 157 L 836 157 L 837 158 L 841 158 L 842 157 L 843 157 L 844 156 L 846 156 L 848 154 L 848 153 L 849 152 L 849 150 L 850 149 L 850 147 L 849 146 L 849 145 L 847 143 L 847 142 L 846 142 L 845 141 L 843 141 L 842 140 L 841 140 L 840 141 "></path>
        <path fill="none" stroke="#fa00fa" stroke-width="3" d="M 986 141 L 985 142 L 984 142 L 983 143 L 982 143 L 980 145 L 980 146 L 979 147 L 979 148 L 982 151 L 982 152 L 987 157 L 988 157 L 989 158 L 992 158 L 993 157 L 994 157 L 999 152 L 999 151 L 1001 149 L 1001 147 L 1000 146 L 1000 145 L 999 144 L 999 143 L 997 143 L 995 141 L 986 141 L 985 142 "></path>
        <path fill="none" stroke="#fa00fa" stroke-width="3" d="M 26 561 L 24 563 L 23 563 L 22 564 L 22 565 L 20 567 L 20 571 L 21 572 L 21 573 L 26 578 L 29 578 L 30 579 L 31 578 L 34 578 L 35 577 L 36 577 L 36 576 L 38 574 L 38 573 L 39 572 L 39 566 L 34 561 L 26 561 L 24 563 "></path>
        <path fill="none" stroke="#fa00fa" stroke-width="3" d="M 870 141 L 869 142 L 865 142 L 864 143 L 863 143 L 861 145 L 861 147 L 860 148 L 860 149 L 861 150 L 861 153 L 862 154 L 862 155 L 863 155 L 865 157 L 866 157 L 867 158 L 868 158 L 869 159 L 870 159 L 871 158 L 874 158 L 877 155 L 878 155 L 879 154 L 879 152 L 880 151 L 880 146 L 878 144 L 877 144 L 875 142 L 871 142 L 870 141 L 869 142 "></path>
        <path fill="none" stroke="#fa00fa" stroke-width="3" d="M 27 592 L 26 593 L 25 593 L 24 594 L 24 595 L 23 596 L 22 596 L 21 597 L 21 604 L 22 605 L 22 606 L 25 609 L 26 609 L 27 610 L 32 610 L 33 609 L 35 609 L 36 608 L 37 608 L 38 607 L 39 607 L 39 601 L 38 600 L 38 599 L 37 598 L 37 596 L 36 595 L 36 594 L 35 593 L 34 593 L 33 592 L 27 592 L 26 593 "></path>
        <path fill="none" stroke="#fa00fa" stroke-width="3" d="M 1046 740 L 1045 741 L 1044 741 L 1043 742 L 1042 742 L 1041 743 L 1041 744 L 1040 745 L 1040 746 L 1038 748 L 1038 750 L 1039 751 L 1039 752 L 1047 760 L 1048 760 L 1049 761 L 1050 761 L 1051 762 L 1054 762 L 1054 741 L 1053 741 L 1052 740 L 1046 740 L 1045 741 "></path>
        <path fill="none" stroke="#fa00fa" stroke-width="3" d="M 30 261 L 29 262 L 25 262 L 24 263 L 22 263 L 21 264 L 21 265 L 20 266 L 20 272 L 21 273 L 21 274 L 23 276 L 24 276 L 25 277 L 32 277 L 33 276 L 35 276 L 37 274 L 38 274 L 40 272 L 40 270 L 41 269 L 40 268 L 40 266 L 38 264 L 38 263 L 36 263 L 35 262 L 31 262 L 30 261 L 29 262 "></path>
        <path fill="none" stroke="#fa00fa" stroke-width="3" d="M 808 770 L 807 771 L 805 771 L 802 774 L 802 778 L 803 779 L 803 780 L 802 781 L 802 784 L 803 785 L 803 786 L 804 787 L 804 788 L 805 789 L 806 789 L 807 790 L 814 790 L 816 788 L 816 783 L 817 782 L 817 774 L 814 771 L 811 771 L 810 770 L 808 770 L 807 771 "></path>
        <path fill="none" stroke="#fa00fa" stroke-width="3" d="M 868 712 L 867 713 L 866 713 L 863 716 L 863 717 L 862 718 L 862 719 L 861 720 L 861 726 L 864 729 L 865 729 L 866 730 L 871 730 L 872 729 L 874 729 L 875 728 L 876 728 L 879 725 L 879 721 L 878 720 L 878 718 L 877 717 L 877 716 L 875 714 L 875 713 L 873 713 L 872 712 L 868 712 L 867 713 "></path>
        <path fill="none" stroke="#fa00fa" stroke-width="3" d="M 150 680 L 149 681 L 146 681 L 143 684 L 143 685 L 142 686 L 142 689 L 143 690 L 143 692 L 142 693 L 142 696 L 144 698 L 145 698 L 146 699 L 154 699 L 155 698 L 156 698 L 157 697 L 158 697 L 158 696 L 159 695 L 159 692 L 158 691 L 158 689 L 157 688 L 157 687 L 156 686 L 156 684 L 153 681 L 151 681 L 150 680 L 149 681 "></path>
        <path fill="none" stroke="#fa00fa" stroke-width="3" d="M 806 651 L 803 654 L 803 660 L 802 661 L 802 664 L 803 665 L 803 666 L 805 668 L 807 668 L 808 669 L 813 669 L 814 668 L 815 668 L 817 666 L 817 665 L 818 664 L 818 660 L 819 659 L 819 655 L 816 652 L 815 652 L 814 651 L 806 651 L 803 654 "></path>
        <path fill="none" stroke="#fa00fa" stroke-width="3" d="M 357 742 L 356 743 L 354 743 L 351 746 L 351 747 L 350 748 L 350 752 L 351 753 L 351 755 L 354 758 L 355 758 L 356 759 L 363 759 L 364 758 L 364 757 L 365 756 L 365 755 L 367 753 L 367 752 L 368 751 L 368 749 L 369 748 L 369 746 L 366 743 L 365 743 L 364 742 L 357 742 L 356 743 "></path>
        <path fill="none" stroke="#fa00fa" stroke-width="3" d="M 838 381 L 837 382 L 835 382 L 834 383 L 834 384 L 833 385 L 833 386 L 832 387 L 832 390 L 831 391 L 831 393 L 832 394 L 832 395 L 834 397 L 835 397 L 837 399 L 843 399 L 844 398 L 845 398 L 847 396 L 847 395 L 848 394 L 848 390 L 847 389 L 848 388 L 848 386 L 847 385 L 847 384 L 844 381 L 838 381 L 837 382 "></path>
        <path fill="none" stroke="#fa00fa" stroke-width="3" d="M 1017 321 L 1016 322 L 1014 322 L 1012 324 L 1012 334 L 1013 335 L 1013 336 L 1014 336 L 1015 337 L 1016 337 L 1017 338 L 1022 338 L 1023 337 L 1024 337 L 1025 336 L 1026 336 L 1028 334 L 1028 333 L 1029 332 L 1029 325 L 1026 322 L 1023 322 L 1022 321 L 1021 321 L 1020 322 L 1019 321 L 1017 321 L 1016 322 "></path>
        <path fill="none" stroke="#fa00fa" stroke-width="3" d="M 56 560 L 55 561 L 54 561 L 53 562 L 53 563 L 52 564 L 52 565 L 51 566 L 51 570 L 52 571 L 52 573 L 54 575 L 55 575 L 56 576 L 57 576 L 58 577 L 63 577 L 64 576 L 65 576 L 66 575 L 67 575 L 68 574 L 68 573 L 69 572 L 69 570 L 68 569 L 68 564 L 65 561 L 63 561 L 62 560 L 56 560 L 55 561 "></path>
        <path fill="none" stroke="#fa00fa" stroke-width="3" d="M 986 473 L 983 476 L 983 478 L 982 479 L 982 485 L 983 486 L 983 487 L 985 489 L 989 489 L 990 490 L 991 490 L 992 489 L 993 490 L 994 490 L 996 488 L 997 488 L 998 487 L 998 485 L 999 484 L 999 479 L 998 478 L 998 475 L 997 474 L 996 474 L 995 473 L 989 473 L 988 474 L 987 474 L 986 473 L 983 476 "></path>
        <path fill="none" stroke="#fa00fa" stroke-width="3" d="M 75 1 L 75 4 L 79 8 L 80 8 L 82 10 L 84 10 L 85 11 L 86 11 L 87 12 L 92 12 L 93 11 L 95 11 L 96 10 L 97 10 L 98 9 L 99 9 L 105 3 L 105 1 L 75 1 L 75 4 "></path>
        <path fill="none" stroke="#fa00fa" stroke-width="3" d="M 58 111 L 57 112 L 56 112 L 55 113 L 54 113 L 51 116 L 51 122 L 54 125 L 55 125 L 56 126 L 57 126 L 58 127 L 63 127 L 64 126 L 66 126 L 69 123 L 70 123 L 71 122 L 71 118 L 70 117 L 70 116 L 69 116 L 66 113 L 65 113 L 64 112 L 63 112 L 62 111 L 61 112 L 59 112 L 58 111 L 57 112 "></path>
        <path fill="none" stroke="#fa00fa" stroke-width="3" d="M 956 652 L 955 653 L 954 653 L 953 654 L 952 654 L 952 655 L 951 656 L 951 661 L 952 662 L 952 663 L 958 669 L 963 669 L 967 665 L 967 663 L 968 662 L 968 661 L 969 660 L 969 657 L 968 656 L 968 655 L 966 653 L 965 653 L 964 652 L 956 652 L 955 653 "></path>
        <path fill="none" stroke="#fa00fa" stroke-width="3" d="M 1050 649 L 1049 650 L 1049 651 L 1047 653 L 1046 653 L 1045 654 L 1044 654 L 1043 655 L 1041 655 L 1040 656 L 1040 657 L 1039 658 L 1039 662 L 1041 664 L 1041 665 L 1042 665 L 1047 670 L 1048 670 L 1049 671 L 1050 671 L 1051 672 L 1052 672 L 1053 671 L 1054 671 L 1054 649 L 1050 649 L 1049 650 "></path>
        <path fill="none" stroke="#fa00fa" stroke-width="3" d="M 1050 710 L 1048 712 L 1046 712 L 1044 714 L 1044 715 L 1043 716 L 1042 716 L 1041 717 L 1041 718 L 1040 719 L 1040 725 L 1045 730 L 1048 730 L 1049 731 L 1051 731 L 1052 732 L 1054 732 L 1054 710 L 1050 710 L 1048 712 "></path>
        <path fill="none" stroke="#fa00fa" stroke-width="3" d="M 85 293 L 83 295 L 82 295 L 80 297 L 80 298 L 79 299 L 79 300 L 80 301 L 80 302 L 82 304 L 82 305 L 83 305 L 85 307 L 86 307 L 87 308 L 89 308 L 90 309 L 91 309 L 92 308 L 95 308 L 98 305 L 98 304 L 99 303 L 99 302 L 100 301 L 100 300 L 99 299 L 99 298 L 97 296 L 96 296 L 94 294 L 92 294 L 91 293 L 85 293 L 83 295 "></path>
        <path fill="none" stroke="#fa00fa" stroke-width="3" d="M 30 54 L 29 55 L 25 55 L 24 56 L 22 56 L 21 57 L 21 58 L 20 59 L 20 65 L 22 67 L 23 67 L 24 68 L 29 68 L 30 69 L 31 68 L 35 68 L 37 66 L 38 66 L 40 64 L 40 58 L 38 56 L 37 56 L 36 55 L 35 55 L 34 54 L 33 55 L 31 55 L 30 54 L 29 55 "></path>
        <path fill="none" stroke="#fa00fa" stroke-width="3" d="M 898 261 L 897 262 L 896 262 L 895 263 L 894 263 L 893 264 L 893 265 L 892 266 L 892 268 L 893 269 L 893 270 L 894 271 L 894 275 L 895 276 L 895 277 L 897 279 L 898 279 L 899 280 L 902 280 L 903 279 L 904 279 L 906 277 L 906 276 L 907 275 L 907 274 L 908 273 L 908 266 L 905 263 L 904 263 L 902 261 L 898 261 L 897 262 "></path>
        <path fill="none" stroke="#fa00fa" stroke-width="3" d="M 286 1 L 285 2 L 285 3 L 290 8 L 291 8 L 292 9 L 293 9 L 294 10 L 296 10 L 297 11 L 303 11 L 304 10 L 307 10 L 308 9 L 309 9 L 310 8 L 311 8 L 314 5 L 314 4 L 315 3 L 315 2 L 314 1 L 286 1 L 285 2 "></path>
        <path fill="none" stroke="#fa00fa" stroke-width="3" d="M 506 23 L 504 25 L 502 25 L 501 26 L 501 27 L 500 28 L 500 30 L 501 31 L 501 32 L 502 33 L 502 34 L 504 36 L 504 37 L 505 37 L 506 38 L 507 38 L 508 39 L 511 39 L 512 38 L 514 38 L 515 37 L 516 37 L 516 36 L 518 34 L 518 32 L 519 31 L 519 28 L 515 24 L 512 24 L 511 23 L 506 23 L 504 25 "></path>
        <path fill="none" stroke="#fa00fa" stroke-width="3" d="M 928 532 L 927 533 L 926 533 L 923 536 L 923 537 L 922 538 L 922 540 L 923 541 L 923 545 L 924 546 L 924 547 L 926 549 L 928 549 L 929 550 L 931 550 L 932 549 L 934 549 L 937 546 L 937 545 L 938 544 L 938 541 L 939 540 L 938 539 L 938 537 L 934 533 L 933 533 L 932 532 L 928 532 L 927 533 "></path>
        <path fill="none" stroke="#fa00fa" stroke-width="3" d="M 390 21 L 389 22 L 387 22 L 385 24 L 384 24 L 384 25 L 383 26 L 383 28 L 384 29 L 384 36 L 387 39 L 388 39 L 389 40 L 391 40 L 392 39 L 394 39 L 395 38 L 395 37 L 396 36 L 396 32 L 397 31 L 398 31 L 398 30 L 400 28 L 399 27 L 399 26 L 398 25 L 398 24 L 397 23 L 396 23 L 394 21 L 390 21 L 389 22 "></path>
        <path fill="none" stroke="#fa00fa" stroke-width="3" d="M 417 21 L 413 25 L 413 36 L 416 39 L 423 39 L 425 37 L 425 36 L 426 35 L 426 32 L 427 31 L 427 30 L 428 29 L 428 26 L 426 24 L 426 23 L 425 23 L 423 21 L 417 21 L 413 25 "></path>
        <path fill="none" stroke="#fa00fa" stroke-width="3" d="M 177 740 L 173 744 L 173 745 L 172 746 L 172 748 L 171 749 L 171 750 L 172 751 L 172 752 L 176 756 L 177 756 L 178 757 L 182 757 L 185 754 L 186 754 L 186 753 L 188 751 L 188 748 L 189 747 L 188 746 L 188 744 L 184 740 L 177 740 L 173 744 "></path>
        <path fill="none" stroke="#fa00fa" stroke-width="3" d="M 238 51 L 237 52 L 235 52 L 232 55 L 232 59 L 231 60 L 232 61 L 232 63 L 234 65 L 235 65 L 236 66 L 237 66 L 238 67 L 240 67 L 241 68 L 242 68 L 243 67 L 244 67 L 245 66 L 246 66 L 247 65 L 247 63 L 248 62 L 248 56 L 247 55 L 247 54 L 245 52 L 244 52 L 243 51 L 238 51 L 237 52 "></path>
        <path fill="none" stroke="#fa00fa" stroke-width="3" d="M 495 1 L 495 3 L 499 7 L 500 7 L 502 9 L 503 9 L 504 10 L 505 10 L 506 11 L 514 11 L 515 10 L 516 10 L 517 9 L 518 9 L 520 7 L 521 7 L 523 5 L 523 4 L 524 3 L 524 1 L 495 1 L 495 3 "></path>
        <path fill="none" stroke="#fa00fa" stroke-width="3" d="M 1017 173 L 1017 174 L 1016 175 L 1016 176 L 1015 177 L 1014 177 L 1013 178 L 1013 179 L 1011 181 L 1011 185 L 1012 186 L 1012 187 L 1014 189 L 1015 189 L 1016 190 L 1023 190 L 1024 189 L 1025 189 L 1027 187 L 1027 186 L 1028 185 L 1028 182 L 1027 181 L 1027 180 L 1026 179 L 1026 178 L 1024 176 L 1024 174 L 1023 173 L 1017 173 L 1017 174 "></path>
        <path fill="none" stroke="#fa00fa" stroke-width="3" d="M 86 502 L 85 503 L 84 503 L 82 505 L 82 506 L 81 507 L 81 510 L 82 511 L 82 512 L 85 515 L 85 516 L 87 516 L 88 517 L 95 517 L 99 513 L 99 512 L 100 511 L 100 510 L 99 509 L 99 507 L 96 504 L 95 504 L 94 503 L 92 503 L 91 502 L 86 502 L 85 503 "></path>
        <path fill="none" stroke="#fa00fa" stroke-width="3" d="M 948 1 L 948 5 L 951 8 L 952 8 L 954 10 L 957 10 L 958 11 L 966 11 L 967 10 L 968 10 L 969 9 L 970 9 L 974 5 L 974 4 L 975 3 L 975 2 L 974 1 L 948 1 L 948 5 "></path>
        <path fill="none" stroke="#fa00fa" stroke-width="3" d="M 299 741 L 298 742 L 297 742 L 294 745 L 294 750 L 295 751 L 295 754 L 294 755 L 295 756 L 295 757 L 297 759 L 300 759 L 301 760 L 302 760 L 303 759 L 306 759 L 308 757 L 308 756 L 309 755 L 309 752 L 308 751 L 308 748 L 307 747 L 307 746 L 304 743 L 303 743 L 301 741 L 299 741 L 298 742 "></path>
        <path fill="none" stroke="#fa00fa" stroke-width="3" d="M 988 651 L 987 652 L 985 652 L 982 655 L 982 660 L 983 661 L 983 662 L 984 663 L 984 664 L 985 665 L 985 666 L 986 667 L 987 667 L 988 668 L 992 668 L 993 667 L 994 667 L 994 666 L 995 665 L 995 664 L 998 661 L 998 660 L 999 659 L 999 656 L 998 655 L 998 654 L 997 654 L 995 652 L 992 652 L 991 651 L 988 651 L 987 652 "></path>
        <path fill="none" stroke="#fa00fa" stroke-width="3" d="M 178 771 L 177 772 L 176 772 L 173 775 L 173 776 L 172 777 L 172 782 L 173 783 L 173 785 L 174 786 L 174 787 L 175 787 L 177 789 L 183 789 L 186 786 L 186 774 L 185 773 L 185 772 L 184 772 L 183 771 L 178 771 L 177 772 "></path>
        <path fill="none" stroke="#fa00fa" stroke-width="3" d="M 90 200 L 89 201 L 88 201 L 87 202 L 86 202 L 84 204 L 84 207 L 83 208 L 83 214 L 84 215 L 84 217 L 85 218 L 87 218 L 88 219 L 89 219 L 90 220 L 91 219 L 94 219 L 96 217 L 96 215 L 97 214 L 97 210 L 96 209 L 96 204 L 93 201 L 91 201 L 90 200 L 89 201 "></path>
        <path fill="none" stroke="#fa00fa" stroke-width="3" d="M 146 743 L 144 745 L 143 745 L 142 746 L 142 747 L 141 748 L 141 749 L 140 750 L 141 751 L 141 752 L 142 753 L 142 754 L 145 757 L 147 757 L 148 758 L 153 758 L 154 757 L 155 757 L 158 754 L 158 753 L 159 752 L 159 748 L 156 745 L 155 745 L 154 744 L 152 744 L 151 743 L 146 743 L 144 745 "></path>
        <path fill="none" stroke="#fa00fa" stroke-width="3" d="M 1049 110 L 1048 111 L 1047 111 L 1045 113 L 1043 113 L 1041 115 L 1040 115 L 1038 117 L 1038 120 L 1041 123 L 1041 124 L 1043 124 L 1045 126 L 1047 126 L 1048 127 L 1049 127 L 1050 128 L 1052 128 L 1053 129 L 1054 128 L 1054 110 L 1049 110 L 1048 111 "></path>
        <path fill="none" stroke="#fa00fa" stroke-width="3" d="M 987 801 L 986 802 L 985 802 L 982 805 L 982 806 L 981 807 L 981 810 L 982 811 L 982 812 L 983 812 L 985 814 L 990 814 L 991 813 L 992 813 L 993 814 L 995 814 L 996 813 L 997 814 L 998 814 L 1001 811 L 1001 808 L 1000 807 L 1000 806 L 995 801 L 987 801 L 986 802 "></path>
        <path fill="none" stroke="#fa00fa" stroke-width="3" d="M 956 442 L 955 443 L 954 443 L 953 444 L 953 446 L 952 447 L 952 448 L 953 449 L 953 455 L 954 456 L 955 456 L 956 457 L 957 457 L 958 458 L 960 458 L 961 457 L 962 458 L 963 457 L 964 457 L 965 456 L 966 456 L 966 455 L 967 454 L 967 453 L 968 452 L 968 445 L 966 443 L 964 443 L 963 442 L 956 442 L 955 443 "></path>
        <path fill="none" stroke="#fa00fa" stroke-width="3" d="M 826 1 L 826 4 L 827 5 L 827 6 L 829 8 L 830 8 L 831 9 L 832 9 L 833 10 L 835 10 L 836 11 L 839 11 L 840 10 L 843 10 L 844 9 L 847 9 L 848 8 L 850 8 L 852 6 L 852 5 L 853 4 L 853 1 L 826 1 L 826 4 "></path>
        <path fill="none" stroke="#fa00fa" stroke-width="3" d="M 150 474 L 149 475 L 146 475 L 145 476 L 144 476 L 143 477 L 142 477 L 140 479 L 140 480 L 139 481 L 140 482 L 140 484 L 142 486 L 143 486 L 144 487 L 145 487 L 146 488 L 154 488 L 155 487 L 156 487 L 157 486 L 158 486 L 159 485 L 159 484 L 160 483 L 160 481 L 154 475 L 151 475 L 150 474 L 149 475 "></path>
        <path fill="none" stroke="#fa00fa" stroke-width="3" d="M 688 112 L 687 113 L 685 113 L 685 114 L 682 117 L 682 118 L 681 119 L 681 122 L 682 123 L 682 124 L 683 124 L 686 127 L 694 127 L 696 125 L 698 125 L 698 124 L 699 123 L 699 118 L 694 113 L 692 113 L 691 112 L 688 112 L 687 113 "></path>
        <path fill="none" stroke="#fa00fa" stroke-width="3" d="M 838 801 L 837 802 L 835 802 L 832 805 L 832 806 L 830 808 L 830 809 L 829 810 L 829 811 L 828 812 L 828 814 L 850 814 L 851 813 L 851 810 L 850 809 L 850 808 L 849 808 L 848 807 L 847 807 L 842 802 L 839 802 L 838 801 L 837 802 "></path>
        <path fill="none" stroke="#fa00fa" stroke-width="3" d="M 236 591 L 233 594 L 233 602 L 234 603 L 234 604 L 238 608 L 239 607 L 243 607 L 248 602 L 248 595 L 245 592 L 244 592 L 243 591 L 236 591 L 233 594 "></path>
        <path fill="none" stroke="#fa00fa" stroke-width="3" d="M 358 20 L 357 21 L 356 21 L 353 24 L 353 30 L 354 31 L 354 32 L 355 33 L 355 36 L 358 39 L 362 39 L 364 37 L 364 35 L 365 34 L 365 33 L 366 32 L 366 31 L 368 29 L 368 26 L 367 25 L 367 24 L 365 22 L 364 22 L 363 21 L 359 21 L 358 20 L 357 21 "></path>
        <path fill="none" stroke="#fa00fa" stroke-width="3" d="M 927 260 L 926 261 L 925 261 L 925 262 L 923 264 L 923 267 L 924 268 L 924 272 L 925 273 L 925 275 L 926 276 L 927 276 L 928 277 L 932 277 L 933 276 L 934 276 L 936 274 L 936 273 L 937 272 L 937 270 L 938 269 L 938 264 L 934 260 L 927 260 L 926 261 "></path>
        <path fill="none" stroke="#fa00fa" stroke-width="3" d="M 149 144 L 148 145 L 146 145 L 143 148 L 142 148 L 140 150 L 140 152 L 141 153 L 141 154 L 143 156 L 144 156 L 146 158 L 155 158 L 157 156 L 158 156 L 160 154 L 160 150 L 158 148 L 157 148 L 155 146 L 154 146 L 153 145 L 151 145 L 150 144 L 149 144 L 148 145 "></path>
        <path fill="none" stroke="#fa00fa" stroke-width="3" d="M 737 1 L 737 4 L 741 8 L 742 8 L 743 9 L 745 9 L 746 10 L 754 10 L 755 9 L 758 9 L 759 8 L 760 8 L 761 7 L 762 7 L 765 4 L 765 1 L 737 1 L 737 4 "></path>
        <path fill="none" stroke="#fa00fa" stroke-width="3" d="M 986 80 L 984 82 L 983 82 L 982 83 L 982 87 L 984 89 L 985 89 L 988 92 L 988 96 L 990 98 L 994 98 L 995 97 L 996 97 L 996 96 L 997 95 L 997 94 L 998 93 L 998 87 L 999 86 L 999 85 L 998 84 L 997 84 L 995 82 L 992 82 L 990 80 L 988 80 L 987 81 L 986 80 L 984 82 "></path>
        <path fill="none" stroke="#fa00fa" stroke-width="3" d="M 778 83 L 777 84 L 776 84 L 775 85 L 774 85 L 773 86 L 773 87 L 772 88 L 772 92 L 773 93 L 773 94 L 774 95 L 774 96 L 775 96 L 776 97 L 777 97 L 778 98 L 782 98 L 783 97 L 784 97 L 785 96 L 786 96 L 787 95 L 788 95 L 788 94 L 790 92 L 790 91 L 789 90 L 789 89 L 788 88 L 788 86 L 787 86 L 786 85 L 785 85 L 784 84 L 783 84 L 782 83 L 778 83 L 777 84 "></path>
        <path fill="none" stroke="#fa00fa" stroke-width="3" d="M 58 802 L 56 804 L 55 804 L 54 805 L 53 805 L 51 807 L 50 807 L 50 808 L 49 809 L 49 812 L 50 813 L 50 814 L 68 814 L 69 813 L 70 813 L 70 812 L 71 811 L 71 808 L 70 807 L 68 807 L 66 805 L 65 805 L 62 802 L 58 802 L 56 804 "></path>
        <path fill="none" stroke="#fa00fa" stroke-width="3" d="M 625 83 L 623 85 L 622 85 L 620 87 L 620 89 L 622 91 L 623 91 L 628 96 L 629 96 L 630 97 L 634 97 L 639 92 L 639 91 L 640 90 L 640 87 L 638 85 L 636 85 L 635 84 L 633 84 L 632 83 L 625 83 L 623 85 "></path>
        <path fill="none" stroke="#fa00fa" stroke-width="3" d="M 1053 528 L 1052 529 L 1050 529 L 1048 531 L 1047 531 L 1045 533 L 1044 533 L 1044 534 L 1042 536 L 1042 541 L 1043 542 L 1043 543 L 1044 544 L 1044 545 L 1047 548 L 1048 548 L 1050 550 L 1054 550 L 1054 529 L 1053 528 L 1052 529 "></path>
        <path fill="none" stroke="#fa00fa" stroke-width="3" d="M 1048 350 L 1047 351 L 1046 351 L 1044 353 L 1043 353 L 1042 354 L 1042 356 L 1041 357 L 1042 358 L 1042 359 L 1041 360 L 1042 361 L 1042 362 L 1048 368 L 1049 368 L 1050 369 L 1054 369 L 1054 350 L 1048 350 L 1047 351 "></path>
        <path fill="none" stroke="#fa00fa" stroke-width="3" d="M 1049 172 L 1048 173 L 1046 173 L 1046 174 L 1042 178 L 1042 180 L 1043 181 L 1043 185 L 1044 186 L 1044 187 L 1047 190 L 1048 190 L 1050 192 L 1052 192 L 1053 193 L 1054 193 L 1054 172 L 1049 172 L 1048 173 "></path>
        <path fill="none" stroke="#fa00fa" stroke-width="3" d="M 507 712 L 506 713 L 505 713 L 504 714 L 504 715 L 503 716 L 503 719 L 504 720 L 504 722 L 505 723 L 505 725 L 506 726 L 506 727 L 507 728 L 508 728 L 509 729 L 511 729 L 512 728 L 514 728 L 514 727 L 516 725 L 516 722 L 518 720 L 518 716 L 515 713 L 512 713 L 511 712 L 507 712 L 506 713 "></path>
        <path fill="none" stroke="#fa00fa" stroke-width="3" d="M 29 82 L 28 83 L 25 83 L 24 84 L 24 86 L 23 87 L 24 88 L 23 89 L 24 90 L 24 91 L 23 92 L 23 94 L 24 95 L 24 96 L 25 97 L 36 97 L 38 95 L 38 89 L 37 88 L 37 87 L 36 86 L 36 85 L 34 83 L 32 83 L 31 82 L 29 82 L 28 83 "></path>
        <path fill="none" stroke="#fa00fa" stroke-width="3" d="M 2 288 L 1 289 L 1 312 L 3 312 L 5 310 L 6 310 L 9 307 L 9 306 L 11 304 L 11 301 L 12 300 L 11 299 L 11 296 L 10 295 L 10 294 L 9 293 L 9 292 L 6 289 L 5 289 L 4 288 L 2 288 L 1 289 "></path>
        <path fill="none" stroke="#fa00fa" stroke-width="3" d="M 568 741 L 567 742 L 566 742 L 562 746 L 562 750 L 563 751 L 563 753 L 566 756 L 568 756 L 569 757 L 571 757 L 572 756 L 574 756 L 576 754 L 576 753 L 577 752 L 577 746 L 576 745 L 576 744 L 574 742 L 572 742 L 571 741 L 568 741 L 567 742 "></path>
        <path fill="none" stroke="#fa00fa" stroke-width="3" d="M 897 111 L 896 112 L 894 112 L 892 114 L 892 118 L 893 119 L 893 120 L 894 121 L 894 122 L 895 122 L 898 125 L 900 125 L 901 126 L 902 126 L 905 123 L 906 123 L 907 122 L 907 121 L 908 120 L 908 118 L 909 117 L 909 115 L 906 112 L 904 112 L 903 111 L 897 111 L 896 112 "></path>
        <path fill="none" stroke="#fa00fa" stroke-width="3" d="M 174 804 L 170 808 L 170 810 L 169 811 L 169 812 L 170 813 L 170 814 L 189 814 L 190 813 L 190 812 L 191 811 L 191 810 L 190 809 L 190 808 L 186 804 L 185 805 L 184 805 L 183 804 L 177 804 L 176 805 L 175 804 L 174 804 L 170 808 "></path>
        <path fill="none" stroke="#fa00fa" stroke-width="3" d="M 1 768 L 1 791 L 5 791 L 6 790 L 7 790 L 7 789 L 8 788 L 8 786 L 11 783 L 11 778 L 10 777 L 10 776 L 9 775 L 9 773 L 8 772 L 8 771 L 5 768 L 1 768 L 1 791 "></path>
        <path fill="none" stroke="#fa00fa" stroke-width="3" d="M 2 739 L 1 740 L 1 761 L 2 762 L 4 762 L 5 761 L 6 761 L 8 759 L 8 758 L 10 756 L 10 755 L 11 754 L 11 751 L 12 750 L 11 749 L 11 748 L 9 746 L 9 745 L 8 744 L 8 743 L 7 742 L 7 741 L 6 740 L 5 740 L 4 739 L 2 739 L 1 740 "></path>
        <path fill="none" stroke="#fa00fa" stroke-width="3" d="M 807 411 L 805 413 L 804 413 L 804 414 L 803 415 L 803 420 L 804 421 L 804 423 L 805 424 L 805 425 L 806 426 L 807 426 L 808 427 L 811 427 L 812 426 L 813 426 L 815 424 L 815 423 L 816 422 L 816 414 L 814 412 L 813 412 L 812 411 L 807 411 L 805 413 "></path>
        <path fill="none" stroke="#fa00fa" stroke-width="3" d="M 868 472 L 867 473 L 866 473 L 865 474 L 865 475 L 863 477 L 863 480 L 864 481 L 864 483 L 865 484 L 865 485 L 867 485 L 868 486 L 869 486 L 870 487 L 871 486 L 872 486 L 873 485 L 874 485 L 876 483 L 876 482 L 878 480 L 878 476 L 875 473 L 875 472 L 868 472 L 867 473 "></path>
        <path fill="none" stroke="#fa00fa" stroke-width="3" d="M 718 114 L 717 115 L 716 115 L 715 116 L 714 116 L 712 118 L 712 123 L 713 124 L 713 125 L 714 126 L 716 126 L 718 128 L 722 128 L 725 125 L 726 125 L 726 124 L 727 123 L 727 117 L 726 116 L 725 116 L 724 115 L 723 115 L 722 114 L 718 114 L 717 115 "></path>
        <path fill="none" stroke="#fa00fa" stroke-width="3" d="M 2 467 L 1 468 L 1 491 L 4 491 L 5 490 L 6 490 L 7 489 L 7 488 L 8 487 L 8 485 L 9 484 L 9 482 L 10 481 L 10 478 L 9 477 L 9 475 L 8 474 L 8 472 L 7 471 L 7 470 L 5 468 L 4 468 L 3 467 L 2 467 L 1 468 "></path>
        <path fill="none" stroke="#fa00fa" stroke-width="3" d="M 2 261 L 1 262 L 1 281 L 3 281 L 4 280 L 6 280 L 9 277 L 9 276 L 10 275 L 10 274 L 11 273 L 11 269 L 10 268 L 10 266 L 9 265 L 9 264 L 8 263 L 7 263 L 6 262 L 5 262 L 4 261 L 2 261 L 1 262 "></path>
        <path fill="none" stroke="#fa00fa" stroke-width="3" d="M 478 803 L 474 807 L 474 808 L 472 810 L 472 811 L 471 812 L 471 814 L 488 814 L 489 813 L 489 811 L 488 810 L 488 807 L 487 806 L 487 805 L 486 804 L 484 804 L 483 803 L 478 803 L 474 807 "></path>
        <path fill="none" stroke="#fa00fa" stroke-width="3" d="M 2 439 L 1 440 L 1 459 L 2 460 L 3 460 L 4 459 L 5 459 L 10 454 L 10 447 L 8 445 L 8 442 L 6 440 L 5 440 L 4 439 L 2 439 L 1 440 "></path>
        <path fill="none" stroke="#fa00fa" stroke-width="3" d="M 416 112 L 413 115 L 413 117 L 412 118 L 413 119 L 413 122 L 414 123 L 415 123 L 417 125 L 417 126 L 418 126 L 419 127 L 422 127 L 423 126 L 423 125 L 424 124 L 424 117 L 425 116 L 425 114 L 423 112 L 416 112 L 413 115 "></path>
    </g>
</svg>
