<svg xmlns="http://www.w3.org/2000/svg" xmlns:xlink="http://www.w3.org/1999/xlink" version="1.1" x="0" y="0" width="1056px" height="816px">
    <g id="rootLayer" transform="translate(0.000000, 0.000000)">
        <path fill="none" stroke="#00fafa" stroke-width="3" d="M 536 293 L 537 292 L 541 292 L 542 293 L 542 297 L 541 298 L 541 299 L 539 301 L 539 311 L 540 312 L 540 313 L 539 314 L 539 316 L 538 317 L 538 320 L 537 321 L 537 327 L 538 328 L 538 331 L 539 332 L 539 335 L 538 336 L 538 337 L 536 339 L 535 339 L 534 340 L 531 340 L 530 341 L 529 341 L 528 342 L 527 342 L 523 346 L 520 346 L 518 344 L 518 341 L 519 340 L 519 339 L 520 338 L 520 337 L 522 335 L 522 334 L 524 332 L 524 331 L 525 330 L 525 320 L 524 319 L 524 310 L 523 309 L 523 307 L 521 305 L 521 304 L 519 302 L 519 301 L 517 299 L 517 295 L 519 293 L 522 293 L 523 294 L 525 294 L 526 295 L 532 295 L 533 294 L 534 294 L 535 293 "></path>
        <path fill="none" stroke="#00fafa" stroke-width="3" d="M 628 710 L 630 710 L 632 712 L 632 716 L 631 717 L 631 719 L 630 720 L 630 724 L 629 725 L 629 728 L 628 729 L 628 732 L 627 733 L 627 736 L 628 737 L 628 739 L 631 742 L 631 743 L 633 745 L 633 748 L 631 750 L 629 750 L 628 751 L 626 751 L 623 754 L 615 754 L 614 755 L 611 755 L 609 753 L 609 752 L 608 751 L 609 750 L 609 748 L 611 746 L 611 745 L 613 743 L 613 741 L 614 740 L 614 735 L 613 734 L 613 730 L 612 729 L 612 725 L 611 724 L 611 722 L 610 721 L 610 716 L 611 715 L 621 715 L 622 714 L 623 714 L 625 712 L 626 712 "></path>
        <path fill="none" stroke="#00fafa" stroke-width="3" d="M 313 592 L 316 592 L 318 594 L 318 595 L 319 596 L 319 599 L 320 600 L 320 601 L 321 602 L 321 614 L 318 617 L 317 617 L 316 618 L 313 618 L 312 617 L 311 617 L 310 618 L 305 618 L 304 619 L 294 619 L 291 616 L 291 611 L 290 610 L 290 608 L 289 607 L 289 604 L 290 603 L 290 601 L 291 600 L 291 597 L 293 595 L 297 595 L 298 596 L 299 596 L 300 597 L 307 597 L 309 595 L 310 595 "></path>
        <path fill="none" stroke="#00fafa" stroke-width="3" d="M 721 486 L 722 485 L 726 485 L 727 486 L 728 486 L 729 487 L 731 487 L 732 486 L 734 486 L 735 487 L 736 487 L 738 489 L 738 496 L 739 497 L 739 498 L 740 499 L 740 503 L 739 504 L 739 511 L 737 513 L 728 513 L 727 514 L 721 514 L 720 513 L 719 514 L 715 514 L 713 512 L 713 509 L 714 508 L 714 507 L 716 505 L 716 504 L 717 503 L 717 502 L 718 501 L 718 498 L 717 497 L 717 495 L 716 494 L 716 493 L 715 492 L 715 489 L 717 487 L 718 487 L 719 486 "></path>
        <path fill="none" stroke="#00fafa" stroke-width="3" d="M 352 729 L 353 728 L 357 728 L 358 729 L 359 729 L 361 731 L 368 731 L 370 729 L 371 729 L 372 728 L 375 728 L 377 730 L 377 732 L 376 733 L 376 734 L 375 735 L 375 736 L 374 737 L 374 743 L 375 744 L 375 745 L 376 746 L 376 747 L 377 748 L 377 750 L 374 753 L 370 753 L 369 754 L 368 754 L 367 755 L 365 755 L 364 754 L 363 754 L 362 753 L 355 753 L 354 752 L 353 752 L 351 750 L 351 745 L 350 744 L 350 742 L 349 741 L 349 738 L 350 737 L 350 736 L 351 735 L 351 731 L 352 730 "></path>
        <path fill="none" stroke="#00fafa" stroke-width="3" d="M 418 546 L 422 546 L 423 547 L 424 547 L 428 551 L 428 552 L 429 553 L 429 556 L 426 559 L 423 559 L 422 560 L 421 560 L 419 562 L 419 566 L 420 567 L 420 571 L 419 572 L 419 577 L 420 578 L 420 579 L 421 580 L 421 581 L 422 582 L 422 583 L 421 584 L 421 585 L 419 587 L 418 587 L 417 588 L 416 588 L 415 589 L 411 589 L 408 586 L 408 585 L 407 584 L 407 582 L 406 581 L 406 580 L 407 579 L 407 576 L 408 575 L 408 574 L 407 573 L 407 572 L 404 569 L 404 568 L 403 567 L 403 565 L 407 561 L 408 561 L 409 560 L 409 559 L 410 558 L 410 556 L 411 555 L 411 554 L 412 553 L 412 552 "></path>
        <path fill="none" stroke="#00fafa" stroke-width="3" d="M 312 428 L 313 427 L 316 427 L 319 430 L 319 444 L 320 445 L 320 451 L 318 453 L 310 453 L 309 454 L 300 454 L 299 453 L 298 453 L 296 451 L 296 438 L 295 437 L 295 435 L 294 434 L 294 431 L 295 430 L 296 430 L 297 429 L 298 429 L 299 430 L 302 430 L 303 431 L 306 431 L 307 430 L 308 430 L 309 429 L 310 429 L 311 428 "></path>
        <path fill="none" stroke="#00fafa" stroke-width="3" d="M 192 655 L 193 654 L 194 654 L 196 656 L 196 659 L 195 660 L 195 661 L 194 662 L 194 666 L 195 667 L 195 669 L 197 671 L 197 673 L 198 674 L 197 675 L 197 676 L 196 677 L 195 677 L 194 678 L 192 678 L 191 679 L 190 679 L 188 681 L 186 681 L 185 680 L 184 680 L 183 679 L 176 679 L 173 676 L 173 675 L 172 674 L 172 669 L 169 666 L 169 664 L 170 663 L 170 662 L 172 660 L 172 658 L 175 655 L 179 655 L 180 656 L 189 656 L 190 655 "></path>
        <path fill="none" stroke="#00fafa" stroke-width="3" d="M 265 159 L 269 159 L 270 160 L 272 160 L 273 161 L 279 161 L 280 160 L 282 160 L 283 159 L 284 159 L 285 160 L 286 160 L 288 162 L 288 163 L 293 168 L 292 169 L 292 170 L 291 171 L 291 172 L 290 173 L 290 177 L 287 180 L 286 180 L 285 181 L 281 181 L 280 182 L 279 182 L 278 183 L 277 183 L 276 184 L 275 184 L 274 183 L 272 183 L 271 182 L 267 182 L 265 180 L 265 176 L 266 175 L 266 169 L 265 168 L 265 167 L 264 166 L 264 165 L 263 164 L 263 161 "></path>
        <path fill="none" stroke="#00fafa" stroke-width="3" d="M 896 426 L 900 426 L 901 427 L 901 432 L 900 433 L 900 434 L 899 435 L 899 442 L 900 443 L 900 444 L 901 445 L 901 446 L 902 447 L 902 450 L 900 452 L 899 452 L 898 453 L 895 453 L 894 454 L 893 454 L 892 455 L 889 455 L 888 454 L 880 454 L 878 452 L 878 448 L 879 447 L 879 446 L 880 445 L 880 444 L 881 443 L 881 438 L 880 437 L 880 436 L 879 435 L 879 434 L 878 433 L 878 429 L 879 428 L 883 428 L 884 429 L 886 429 L 887 430 L 890 430 L 891 429 L 892 429 L 893 428 L 894 428 "></path>
        <path fill="none" stroke="#00fafa" stroke-width="3" d="M 904 8 L 905 7 L 910 7 L 911 8 L 913 8 L 915 10 L 915 16 L 919 20 L 919 22 L 918 23 L 918 27 L 917 28 L 917 29 L 915 31 L 914 31 L 913 32 L 911 32 L 910 33 L 905 33 L 904 32 L 903 32 L 896 25 L 896 24 L 893 21 L 892 21 L 890 19 L 890 18 L 891 17 L 891 16 L 892 15 L 892 11 L 893 10 L 893 9 L 894 8 "></path>
        <path fill="none" stroke="#00fafa" stroke-width="3" d="M 838 428 L 839 427 L 840 427 L 842 429 L 842 433 L 841 434 L 841 435 L 840 436 L 840 438 L 839 439 L 839 442 L 840 443 L 840 445 L 841 446 L 841 448 L 842 449 L 841 450 L 841 451 L 839 453 L 837 453 L 836 454 L 835 454 L 832 457 L 831 457 L 830 456 L 829 456 L 828 455 L 825 455 L 824 454 L 822 454 L 821 453 L 821 446 L 820 445 L 820 444 L 819 443 L 819 442 L 818 442 L 816 440 L 817 439 L 817 438 L 819 436 L 819 433 L 820 432 L 820 431 L 821 430 L 826 430 L 827 431 L 832 431 L 833 430 L 834 430 L 835 429 L 836 429 L 837 428 "></path>
        <path fill="none" stroke="#00fafa" stroke-width="3" d="M 776 250 L 778 250 L 779 251 L 781 251 L 782 252 L 788 252 L 789 251 L 791 251 L 792 250 L 797 250 L 799 252 L 799 253 L 800 254 L 800 255 L 802 257 L 802 259 L 800 261 L 800 262 L 799 263 L 799 267 L 798 268 L 798 269 L 797 270 L 796 270 L 795 271 L 790 271 L 789 272 L 788 272 L 786 274 L 783 274 L 782 273 L 778 273 L 777 272 L 776 272 L 774 270 L 774 267 L 775 266 L 775 264 L 776 263 L 776 259 L 775 258 L 775 256 L 774 255 L 774 252 "></path>
        <path fill="none" stroke="#00fafa" stroke-width="3" d="M 671 55 L 672 54 L 675 54 L 678 57 L 678 59 L 680 61 L 680 62 L 681 63 L 680 64 L 680 65 L 678 67 L 678 77 L 676 79 L 675 79 L 674 80 L 670 80 L 668 82 L 667 82 L 665 84 L 659 78 L 659 77 L 658 76 L 658 69 L 657 68 L 657 65 L 656 64 L 656 58 L 657 57 L 666 57 L 667 56 L 669 56 L 670 55 "></path>
        <path fill="none" stroke="#00fafa" stroke-width="3" d="M 776 534 L 777 533 L 779 533 L 781 535 L 781 539 L 780 540 L 780 542 L 779 543 L 779 545 L 780 546 L 780 549 L 781 550 L 781 552 L 782 553 L 781 554 L 781 555 L 780 556 L 774 556 L 773 555 L 767 555 L 766 556 L 764 556 L 763 557 L 758 557 L 756 555 L 756 549 L 755 548 L 755 543 L 756 542 L 756 541 L 757 540 L 757 537 L 758 536 L 758 535 L 759 534 L 762 534 L 763 535 L 765 535 L 766 536 L 772 536 L 773 535 L 774 535 L 775 534 "></path>
        <path fill="none" stroke="#00fafa" stroke-width="3" d="M 372 576 L 373 575 L 374 575 L 377 578 L 377 581 L 376 582 L 376 584 L 375 585 L 375 589 L 376 590 L 376 593 L 377 594 L 376 595 L 376 596 L 375 597 L 373 597 L 372 598 L 369 598 L 366 601 L 366 602 L 364 604 L 355 604 L 353 602 L 353 599 L 354 598 L 354 597 L 355 596 L 355 595 L 356 594 L 356 592 L 357 591 L 357 590 L 356 589 L 356 587 L 355 586 L 355 585 L 353 583 L 353 579 L 354 578 L 362 578 L 363 579 L 364 578 L 367 578 L 368 577 L 369 577 L 370 576 "></path>
        <path fill="none" stroke="#00fafa" stroke-width="3" d="M 358 291 L 362 291 L 364 293 L 364 300 L 365 301 L 365 311 L 364 312 L 364 313 L 363 314 L 362 314 L 361 315 L 359 315 L 358 314 L 357 314 L 356 313 L 354 313 L 353 312 L 348 312 L 347 313 L 346 313 L 345 314 L 344 314 L 343 315 L 342 315 L 341 316 L 340 316 L 338 314 L 338 311 L 339 310 L 339 309 L 340 308 L 340 301 L 339 300 L 339 299 L 338 298 L 338 295 L 340 293 L 341 293 L 342 294 L 344 294 L 345 295 L 346 295 L 347 296 L 352 296 L 353 295 L 354 295 "></path>
        <path fill="none" stroke="#00fafa" stroke-width="3" d="M 459 729 L 460 728 L 464 728 L 465 729 L 465 734 L 464 735 L 464 741 L 465 742 L 465 743 L 466 744 L 466 745 L 467 746 L 467 750 L 465 752 L 460 752 L 459 753 L 450 753 L 449 754 L 448 754 L 447 753 L 445 753 L 444 752 L 444 751 L 443 750 L 443 743 L 444 742 L 444 733 L 447 730 L 456 730 L 457 729 "></path>
        <path fill="none" stroke="#00fafa" stroke-width="3" d="M 821 503 L 822 502 L 825 502 L 826 503 L 826 507 L 825 508 L 825 509 L 824 510 L 824 512 L 823 513 L 823 515 L 824 516 L 824 518 L 825 519 L 825 520 L 826 521 L 826 525 L 825 526 L 824 526 L 823 527 L 822 527 L 821 528 L 820 528 L 817 531 L 815 531 L 814 530 L 812 530 L 811 529 L 806 529 L 804 527 L 804 523 L 805 522 L 805 520 L 806 519 L 806 514 L 805 513 L 805 512 L 804 511 L 804 510 L 803 509 L 803 506 L 805 504 L 807 504 L 808 505 L 810 505 L 811 506 L 815 506 L 816 505 L 818 505 L 820 503 "></path>
        <path fill="none" stroke="#00fafa" stroke-width="3" d="M 597 260 L 600 260 L 601 261 L 602 261 L 603 262 L 603 264 L 604 265 L 603 266 L 603 274 L 604 275 L 604 277 L 605 278 L 605 280 L 606 281 L 606 284 L 604 286 L 603 286 L 602 287 L 601 287 L 600 286 L 598 286 L 596 284 L 595 284 L 594 283 L 590 283 L 589 284 L 588 284 L 587 285 L 586 285 L 583 288 L 579 288 L 578 287 L 578 282 L 579 281 L 579 280 L 580 279 L 580 277 L 581 276 L 581 275 L 582 274 L 582 273 L 583 272 L 583 271 L 587 267 L 588 267 L 590 265 L 591 265 L 594 262 L 595 262 "></path>
        <path fill="none" stroke="#00fafa" stroke-width="3" d="M 423 468 L 424 467 L 427 467 L 428 468 L 429 468 L 432 471 L 432 475 L 430 477 L 430 478 L 429 479 L 429 486 L 430 487 L 430 488 L 429 489 L 429 492 L 430 493 L 430 494 L 431 495 L 431 496 L 432 497 L 432 502 L 429 505 L 428 505 L 427 506 L 421 506 L 416 501 L 416 498 L 417 497 L 417 496 L 418 495 L 418 481 L 417 480 L 417 478 L 416 477 L 416 474 L 418 472 L 418 471 L 419 470 L 420 470 L 422 468 "></path>
        <path fill="none" stroke="#00fafa" stroke-width="3" d="M 867 41 L 873 41 L 874 42 L 876 42 L 877 43 L 879 43 L 880 44 L 881 44 L 883 46 L 884 46 L 886 48 L 887 48 L 888 49 L 889 49 L 890 50 L 890 52 L 889 53 L 889 55 L 888 56 L 888 59 L 885 62 L 881 62 L 880 63 L 879 63 L 878 64 L 877 64 L 875 66 L 873 66 L 872 65 L 870 65 L 869 64 L 865 64 L 862 61 L 862 59 L 863 58 L 863 57 L 865 55 L 865 54 L 866 53 L 866 46 L 865 45 L 865 43 "></path>
        <path fill="none" stroke="#00fafa" stroke-width="3" d="M 626 458 L 627 457 L 629 457 L 632 460 L 632 462 L 631 463 L 631 464 L 630 465 L 630 467 L 629 468 L 629 470 L 630 471 L 630 472 L 631 473 L 631 474 L 632 475 L 632 476 L 633 477 L 633 480 L 631 482 L 625 482 L 624 481 L 622 481 L 621 482 L 618 482 L 617 483 L 616 483 L 615 484 L 614 484 L 613 485 L 608 485 L 607 484 L 607 483 L 606 482 L 606 481 L 607 480 L 607 478 L 609 476 L 609 475 L 611 473 L 611 472 L 612 471 L 612 470 L 613 469 L 613 467 L 614 466 L 614 464 L 618 460 L 619 460 L 620 459 L 622 459 L 623 458 "></path>
        <path fill="none" stroke="#00fafa" stroke-width="3" d="M 521 438 L 524 438 L 526 440 L 527 440 L 529 442 L 531 442 L 532 443 L 540 443 L 542 445 L 542 446 L 541 447 L 541 448 L 540 449 L 540 451 L 539 452 L 539 456 L 540 457 L 540 458 L 541 459 L 541 460 L 543 462 L 543 464 L 541 466 L 538 466 L 537 465 L 534 465 L 533 464 L 528 464 L 527 463 L 525 463 L 521 459 L 521 457 L 520 456 L 520 450 L 519 449 L 519 447 L 518 446 L 518 441 "></path>
        <path fill="none" stroke="#00fafa" stroke-width="3" d="M 553 217 L 554 216 L 555 216 L 558 219 L 558 220 L 557 221 L 557 223 L 556 224 L 556 227 L 555 228 L 555 234 L 552 237 L 551 237 L 550 238 L 548 238 L 547 239 L 545 239 L 544 240 L 543 240 L 542 241 L 541 241 L 539 243 L 538 243 L 537 244 L 533 244 L 531 242 L 531 239 L 532 238 L 532 237 L 535 234 L 535 233 L 536 232 L 536 227 L 535 226 L 535 225 L 534 224 L 534 220 L 535 219 L 540 219 L 541 220 L 547 220 L 548 219 L 549 219 L 550 218 L 551 218 L 552 217 "></path>
        <path fill="none" stroke="#00fafa" stroke-width="3" d="M 481 435 L 482 434 L 483 434 L 484 435 L 486 435 L 489 438 L 489 439 L 490 440 L 490 446 L 486 450 L 480 450 L 479 451 L 478 451 L 473 456 L 472 456 L 471 457 L 470 457 L 466 461 L 461 461 L 458 458 L 458 457 L 457 456 L 457 452 L 458 451 L 458 450 L 459 449 L 459 448 L 460 447 L 461 447 L 462 446 L 465 446 L 466 445 L 468 445 L 470 443 L 471 443 L 473 441 L 474 441 L 477 438 L 477 437 L 479 435 "></path>
        <path fill="none" stroke="#00fafa" stroke-width="3" d="M 942 235 L 946 235 L 947 236 L 951 236 L 952 237 L 953 237 L 954 238 L 955 238 L 958 241 L 958 242 L 961 245 L 961 246 L 964 249 L 964 253 L 961 256 L 956 256 L 955 257 L 953 257 L 952 258 L 948 258 L 947 259 L 942 259 L 941 258 L 940 258 L 938 256 L 938 254 L 939 253 L 939 252 L 940 251 L 940 250 L 941 249 L 941 247 L 942 246 L 942 243 L 941 242 L 941 240 L 940 239 L 940 237 "></path>
        <path fill="none" stroke="#00fafa" stroke-width="3" d="M 612 565 L 613 565 L 614 566 L 616 566 L 617 567 L 623 567 L 624 566 L 626 566 L 627 565 L 629 565 L 630 566 L 631 566 L 633 568 L 633 573 L 632 574 L 632 575 L 630 577 L 630 578 L 627 581 L 626 581 L 624 583 L 623 583 L 621 585 L 620 585 L 618 587 L 617 587 L 615 589 L 613 589 L 612 590 L 611 590 L 610 589 L 609 589 L 607 587 L 607 582 L 608 581 L 608 580 L 609 579 L 609 578 L 610 577 L 610 571 L 609 570 L 609 568 "></path>
        <path fill="none" stroke="#00fafa" stroke-width="3" d="M 432 280 L 433 279 L 436 279 L 437 280 L 437 281 L 438 282 L 437 283 L 437 285 L 436 286 L 436 287 L 435 288 L 435 289 L 434 290 L 434 291 L 431 294 L 431 295 L 429 297 L 428 297 L 422 303 L 421 303 L 419 305 L 417 305 L 416 306 L 415 306 L 414 305 L 413 305 L 411 303 L 411 300 L 412 299 L 412 298 L 415 295 L 415 294 L 416 293 L 416 288 L 415 287 L 415 286 L 414 285 L 414 281 L 415 280 L 419 280 L 420 281 L 422 281 L 423 282 L 427 282 L 428 281 L 430 281 L 431 280 "></path>
        <path fill="none" stroke="#00fafa" stroke-width="3" d="M 596 113 L 597 112 L 598 112 L 599 113 L 600 113 L 601 114 L 601 117 L 600 118 L 600 120 L 599 121 L 599 122 L 598 123 L 598 125 L 597 126 L 597 128 L 596 129 L 596 130 L 589 137 L 588 137 L 587 138 L 585 138 L 584 139 L 582 139 L 581 138 L 580 138 L 578 136 L 578 133 L 579 132 L 579 130 L 580 129 L 580 121 L 579 120 L 579 117 L 581 115 L 592 115 L 593 114 L 594 114 L 595 113 "></path>
        <path fill="none" stroke="#00fafa" stroke-width="3" d="M 631 10 L 632 9 L 634 9 L 635 10 L 636 10 L 639 13 L 639 15 L 640 16 L 640 17 L 641 18 L 641 19 L 644 22 L 644 26 L 645 27 L 645 29 L 647 31 L 647 35 L 642 40 L 637 40 L 635 38 L 635 37 L 634 36 L 634 33 L 630 29 L 630 28 L 629 27 L 629 24 L 628 23 L 628 22 L 626 20 L 626 19 L 625 18 L 625 14 L 629 10 "></path>
        <path fill="none" stroke="#00fafa" stroke-width="3" d="M 230 243 L 233 243 L 234 244 L 238 244 L 239 245 L 240 245 L 243 248 L 243 251 L 242 252 L 242 253 L 241 254 L 240 254 L 238 256 L 237 256 L 236 257 L 236 258 L 234 260 L 233 259 L 232 259 L 231 258 L 227 258 L 226 257 L 224 257 L 222 255 L 222 254 L 221 253 L 221 250 L 225 246 L 226 246 L 227 245 L 228 245 "></path>
        <path fill="none" stroke="#00fafa" stroke-width="3" d="M 595 311 L 596 310 L 601 310 L 602 311 L 603 311 L 607 315 L 607 321 L 602 326 L 596 326 L 595 325 L 594 325 L 591 322 L 591 321 L 590 320 L 590 315 L 594 311 "></path>
        <path fill="none" stroke="#00fafa" stroke-width="3" d="M 398 440 L 399 439 L 405 439 L 406 440 L 407 440 L 409 442 L 409 443 L 410 444 L 410 449 L 405 454 L 404 454 L 403 455 L 398 455 L 397 454 L 396 454 L 395 453 L 395 452 L 394 451 L 394 450 L 393 449 L 393 445 L 394 444 L 394 443 L 397 440 "></path>
        <path fill="none" stroke="#00fafa" stroke-width="3" d="M 650 296 L 655 296 L 656 297 L 657 297 L 661 301 L 661 302 L 662 303 L 662 308 L 661 309 L 661 310 L 658 313 L 656 313 L 655 314 L 654 314 L 653 313 L 652 313 L 648 309 L 648 308 L 647 307 L 647 305 L 646 304 L 646 301 L 647 300 L 647 299 "></path>
        <path fill="none" stroke="#00fafa" stroke-width="3" d="M 254 291 L 255 290 L 260 290 L 265 295 L 265 301 L 264 302 L 264 303 L 262 305 L 261 305 L 260 306 L 258 306 L 257 307 L 256 306 L 254 306 L 253 305 L 252 305 L 250 303 L 250 302 L 249 301 L 249 296 L 250 295 L 250 294 L 253 291 "></path>
        <path fill="none" stroke="#00fafa" stroke-width="3" d="M 317 487 L 318 486 L 319 486 L 320 487 L 322 487 L 325 490 L 325 491 L 326 492 L 326 497 L 325 498 L 325 499 L 322 502 L 321 502 L 320 503 L 315 503 L 311 499 L 311 498 L 310 497 L 310 493 L 311 492 L 311 491 L 312 490 L 312 489 L 313 488 L 314 488 L 315 487 "></path>
        <path fill="none" stroke="#00fafa" stroke-width="3" d="M 437 606 L 441 606 L 442 607 L 443 607 L 447 611 L 447 613 L 448 614 L 448 616 L 447 617 L 447 619 L 444 622 L 442 622 L 441 623 L 439 623 L 438 622 L 436 622 L 433 619 L 433 618 L 432 617 L 432 611 L 433 610 L 433 609 L 434 608 L 435 608 "></path>
        <path fill="none" stroke="#00fafa" stroke-width="3" d="M 657 261 L 658 260 L 662 260 L 663 261 L 665 261 L 666 262 L 667 262 L 669 264 L 669 265 L 670 266 L 670 271 L 666 275 L 659 275 L 658 274 L 657 274 L 653 270 L 653 264 L 656 261 "></path>
        <path fill="none" stroke="#00fafa" stroke-width="3" d="M 381 359 L 382 358 L 387 358 L 388 359 L 390 359 L 393 362 L 393 369 L 392 370 L 392 371 L 389 374 L 387 374 L 386 375 L 385 374 L 383 374 L 378 369 L 378 366 L 377 365 L 378 364 L 378 362 L 379 361 L 379 360 L 380 359 "></path>
        <path fill="none" stroke="#00fafa" stroke-width="3" d="M 244 592 L 248 592 L 249 593 L 250 593 L 253 596 L 253 598 L 254 599 L 254 605 L 253 606 L 253 607 L 251 609 L 245 609 L 241 605 L 241 604 L 240 603 L 240 596 "></path>
        <path fill="none" stroke="#00fafa" stroke-width="3" d="M 239 526 L 244 526 L 248 530 L 248 531 L 249 532 L 249 538 L 245 542 L 244 542 L 243 543 L 241 543 L 240 542 L 239 542 L 235 538 L 235 537 L 234 536 L 234 532 L 235 531 L 235 530 "></path>
        <path fill="none" stroke="#00fafa" stroke-width="3" d="M 339 517 L 340 516 L 346 516 L 349 519 L 349 520 L 350 521 L 350 526 L 349 527 L 349 528 L 347 530 L 346 530 L 345 531 L 339 531 L 338 530 L 337 530 L 336 529 L 336 528 L 335 527 L 335 526 L 334 525 L 334 523 L 335 522 L 335 521 L 336 520 L 336 519 L 338 517 "></path>
        <path fill="none" stroke="#00fafa" stroke-width="3" d="M 822 552 L 823 551 L 827 551 L 828 552 L 829 552 L 833 556 L 833 560 L 832 561 L 832 562 L 831 563 L 830 563 L 829 564 L 828 564 L 827 565 L 820 565 L 816 561 L 816 560 L 815 559 L 816 558 L 816 556 L 820 552 "></path>
        <path fill="none" stroke="#00fafa" stroke-width="3" d="M 430 21 L 431 20 L 436 20 L 437 21 L 442 21 L 443 22 L 444 22 L 446 24 L 446 25 L 447 26 L 446 27 L 446 28 L 443 31 L 440 31 L 439 32 L 433 32 L 432 31 L 430 31 L 427 28 L 427 23 L 429 21 "></path>
        <path fill="none" stroke="#00fafa" stroke-width="3" d="M 257 114 L 258 113 L 261 113 L 262 114 L 263 114 L 264 115 L 265 115 L 266 116 L 266 117 L 267 118 L 267 121 L 266 122 L 266 123 L 263 126 L 262 126 L 261 127 L 260 127 L 259 128 L 256 128 L 255 127 L 254 127 L 251 124 L 251 123 L 250 122 L 250 120 L 251 119 L 251 118 L 255 114 "></path>
        <path fill="none" stroke="#00fafa" stroke-width="3" d="M 179 258 L 187 258 L 188 259 L 189 259 L 192 262 L 192 264 L 193 265 L 192 266 L 192 268 L 189 271 L 181 271 L 180 270 L 179 270 L 176 267 L 176 266 L 175 265 L 175 263 L 176 262 L 176 261 "></path>
        <path fill="none" stroke="#00fafa" stroke-width="3" d="M 817 365 L 818 364 L 821 364 L 822 365 L 823 365 L 826 368 L 826 370 L 827 371 L 827 373 L 826 374 L 826 376 L 823 379 L 822 379 L 821 380 L 818 380 L 817 379 L 816 379 L 812 375 L 812 369 L 816 365 "></path>
        <path fill="none" stroke="#00fafa" stroke-width="3" d="M 447 385 L 448 384 L 450 384 L 454 388 L 454 390 L 455 391 L 455 397 L 454 398 L 454 399 L 453 400 L 452 400 L 451 401 L 448 401 L 447 400 L 446 400 L 442 396 L 442 395 L 441 394 L 441 391 L 442 390 L 442 389 L 446 385 "></path>
        <path fill="none" stroke="#00fafa" stroke-width="3" d="M 386 324 L 391 324 L 396 329 L 396 330 L 397 331 L 397 334 L 393 338 L 386 338 L 385 337 L 384 337 L 381 334 L 381 329 "></path>
        <path fill="none" stroke="#00fafa" stroke-width="3" d="M 192 618 L 193 617 L 194 617 L 195 618 L 197 618 L 202 623 L 202 628 L 199 631 L 198 631 L 197 632 L 195 632 L 194 631 L 192 631 L 191 630 L 190 630 L 186 626 L 186 622 L 190 618 "></path>
        <path fill="none" stroke="#00fafa" stroke-width="3" d="M 922 129 L 923 128 L 928 128 L 931 131 L 931 132 L 932 133 L 932 139 L 928 143 L 927 143 L 926 144 L 924 144 L 923 143 L 922 143 L 919 140 L 919 138 L 918 137 L 918 134 L 919 133 L 919 132 L 920 131 L 920 130 L 921 129 "></path>
        <path fill="none" stroke="#00fafa" stroke-width="3" d="M 656 784 L 657 783 L 661 783 L 662 784 L 663 784 L 665 786 L 665 787 L 666 788 L 666 793 L 662 797 L 661 797 L 660 798 L 656 798 L 652 794 L 652 793 L 651 792 L 651 790 L 652 789 L 652 787 L 655 784 "></path>
        <path fill="none" stroke="#00fafa" stroke-width="3" d="M 577 29 L 578 28 L 579 28 L 580 29 L 581 29 L 585 33 L 585 39 L 584 40 L 584 41 L 582 43 L 581 43 L 580 44 L 575 44 L 571 40 L 571 36 L 572 35 L 572 34 L 573 33 L 573 32 L 576 29 "></path>
        <path fill="none" stroke="#00fafa" stroke-width="3" d="M 135 672 L 136 671 L 140 671 L 144 675 L 144 682 L 143 683 L 143 684 L 141 686 L 140 686 L 139 687 L 136 687 L 135 686 L 134 686 L 132 684 L 132 683 L 131 682 L 131 676 L 132 675 L 132 674 L 134 672 "></path>
        <path fill="none" stroke="#00fafa" stroke-width="3" d="M 268 70 L 275 70 L 278 73 L 278 74 L 279 75 L 279 79 L 278 80 L 278 81 L 275 84 L 269 84 L 265 80 L 265 79 L 264 78 L 264 76 L 265 75 L 265 73 "></path>
        <path fill="none" stroke="#00fafa" stroke-width="3" d="M 505 260 L 506 259 L 509 259 L 510 260 L 511 260 L 515 264 L 515 269 L 511 273 L 510 273 L 509 274 L 504 274 L 502 272 L 502 271 L 501 270 L 501 264 L 502 263 L 502 262 L 504 260 "></path>
        <path fill="none" stroke="#00fafa" stroke-width="3" d="M 46 420 L 47 419 L 48 420 L 49 420 L 52 423 L 52 424 L 53 425 L 53 429 L 54 430 L 53 431 L 53 434 L 49 438 L 47 438 L 46 437 L 45 437 L 44 436 L 44 435 L 43 434 L 43 433 L 42 432 L 42 423 L 45 420 "></path>
        <path fill="none" stroke="#00fafa" stroke-width="3" d="M 915 273 L 916 272 L 918 272 L 919 273 L 920 273 L 922 275 L 923 275 L 926 278 L 926 279 L 927 280 L 927 284 L 925 286 L 924 286 L 923 287 L 921 287 L 920 286 L 919 286 L 918 285 L 917 285 L 916 284 L 915 284 L 912 281 L 912 280 L 911 279 L 911 276 L 914 273 "></path>
        <path fill="none" stroke="#00fafa" stroke-width="3" d="M 159 735 L 160 734 L 163 734 L 164 735 L 165 735 L 167 737 L 167 738 L 168 739 L 168 745 L 164 749 L 163 749 L 162 750 L 161 750 L 160 749 L 159 749 L 158 748 L 157 748 L 156 747 L 156 746 L 155 745 L 155 738 L 158 735 "></path>
        <path fill="none" stroke="#00fafa" stroke-width="3" d="M 370 135 L 371 134 L 372 134 L 373 135 L 374 135 L 375 136 L 376 136 L 377 137 L 377 138 L 378 139 L 378 140 L 379 141 L 379 144 L 378 145 L 378 146 L 374 150 L 370 150 L 366 146 L 366 139 L 367 138 L 367 137 L 369 135 "></path>
        <path fill="none" stroke="#00fafa" stroke-width="3" d="M 969 593 L 970 592 L 974 592 L 975 593 L 976 593 L 979 596 L 979 597 L 980 598 L 980 600 L 979 601 L 979 602 L 976 605 L 970 605 L 969 604 L 968 604 L 965 601 L 965 600 L 964 599 L 964 598 L 965 597 L 965 596 L 968 593 "></path>
        <path fill="none" stroke="#00fafa" stroke-width="3" d="M 768 687 L 769 686 L 773 686 L 776 689 L 776 690 L 777 691 L 777 694 L 776 695 L 776 696 L 772 700 L 767 700 L 766 699 L 765 699 L 764 698 L 764 697 L 763 696 L 763 692 L 765 690 L 765 689 L 767 687 "></path>
        <path fill="none" stroke="#00fafa" stroke-width="3" d="M 900 667 L 906 667 L 909 670 L 909 671 L 910 672 L 910 675 L 909 676 L 909 677 L 907 679 L 906 679 L 905 680 L 899 680 L 896 677 L 896 671 "></path>
        <path fill="none" stroke="#00fafa" stroke-width="3" d="M 619 626 L 623 626 L 625 628 L 626 628 L 628 630 L 628 631 L 630 633 L 630 637 L 628 639 L 627 639 L 626 640 L 621 640 L 617 636 L 617 635 L 616 634 L 616 629 "></path>
        <path fill="none" stroke="#00fafa" stroke-width="3" d="M 982 759 L 983 758 L 984 759 L 986 759 L 987 760 L 988 760 L 989 761 L 989 762 L 990 763 L 990 766 L 989 767 L 989 768 L 987 770 L 986 770 L 985 771 L 978 771 L 975 768 L 975 764 L 976 763 L 976 762 L 978 760 L 979 760 L 980 759 "></path>
        <path fill="none" stroke="#00fafa" stroke-width="3" d="M 802 668 L 806 668 L 810 672 L 810 677 L 805 682 L 800 682 L 796 678 L 796 675 L 797 674 L 797 673 "></path>
        <path fill="none" stroke="#00fafa" stroke-width="3" d="M 103 128 L 104 127 L 107 127 L 111 131 L 111 137 L 107 141 L 106 141 L 105 142 L 104 142 L 103 141 L 101 141 L 99 139 L 99 138 L 98 137 L 98 133 L 99 132 L 99 131 L 102 128 "></path>
        <path fill="none" stroke="#00fafa" stroke-width="3" d="M 628 73 L 629 72 L 631 72 L 635 76 L 635 77 L 636 78 L 636 84 L 634 86 L 633 86 L 632 87 L 630 87 L 629 86 L 627 86 L 623 82 L 623 77 L 627 73 "></path>
        <path fill="none" stroke="#00fafa" stroke-width="3" d="M 482 222 L 483 221 L 486 221 L 490 225 L 490 229 L 489 230 L 489 231 L 487 233 L 486 233 L 485 234 L 478 234 L 476 232 L 476 231 L 475 230 L 476 229 L 476 227 L 481 222 "></path>
        <path fill="none" stroke="#00fafa" stroke-width="3" d="M 595 166 L 596 165 L 597 165 L 598 166 L 600 166 L 601 167 L 602 167 L 605 170 L 605 172 L 606 173 L 605 174 L 605 175 L 601 179 L 596 179 L 592 175 L 592 169 L 593 168 L 593 167 L 594 166 "></path>
        <path fill="none" stroke="#00fafa" stroke-width="3" d="M 207 340 L 213 340 L 214 341 L 214 343 L 215 344 L 214 345 L 214 348 L 213 349 L 213 351 L 210 354 L 209 354 L 208 355 L 207 355 L 206 354 L 205 354 L 202 351 L 202 345 "></path>
        <path fill="none" stroke="#00fafa" stroke-width="3" d="M 377 682 L 378 681 L 382 681 L 383 682 L 384 682 L 385 683 L 386 683 L 387 684 L 387 685 L 388 686 L 388 690 L 384 694 L 380 694 L 379 693 L 378 693 L 374 689 L 374 684 L 376 682 "></path>
        <path fill="none" stroke="#00fafa" stroke-width="3" d="M 665 201 L 673 201 L 676 204 L 676 209 L 673 212 L 672 212 L 671 213 L 668 213 L 667 212 L 665 212 L 662 209 L 662 204 "></path>
        <path fill="none" stroke="#00fafa" stroke-width="3" d="M 870 720 L 871 719 L 873 719 L 874 720 L 875 720 L 877 722 L 877 723 L 878 724 L 878 730 L 877 731 L 877 733 L 874 736 L 873 736 L 872 735 L 871 735 L 869 733 L 869 731 L 868 730 L 868 727 L 867 726 L 867 723 L 868 722 L 868 721 L 869 720 "></path>
        <path fill="none" stroke="#00fafa" stroke-width="3" d="M 900 584 L 901 583 L 904 583 L 908 587 L 908 589 L 909 590 L 909 592 L 908 593 L 908 594 L 905 597 L 901 597 L 900 596 L 899 596 L 897 594 L 897 593 L 896 592 L 896 588 L 897 587 L 897 586 L 899 584 "></path>
        <path fill="none" stroke="#00fafa" stroke-width="3" d="M 488 185 L 492 185 L 496 189 L 496 190 L 497 191 L 497 195 L 493 199 L 489 199 L 485 195 L 485 188 "></path>
        <path fill="none" stroke="#00fafa" stroke-width="3" d="M 110 547 L 117 547 L 118 548 L 119 548 L 120 549 L 120 550 L 121 551 L 121 555 L 118 558 L 117 558 L 116 559 L 113 559 L 112 558 L 111 558 L 108 555 L 108 554 L 107 553 L 107 550 "></path>
        <path fill="none" stroke="#00fafa" stroke-width="3" d="M 177 200 L 178 199 L 185 199 L 187 201 L 187 205 L 183 209 L 181 209 L 180 210 L 177 210 L 176 209 L 175 209 L 173 207 L 173 202 L 174 201 L 175 201 L 176 200 "></path>
        <path fill="none" stroke="#00fafa" stroke-width="3" d="M 593 531 L 594 530 L 595 530 L 596 531 L 597 531 L 599 533 L 599 535 L 600 536 L 600 538 L 599 539 L 599 542 L 595 546 L 594 546 L 593 545 L 592 545 L 591 544 L 591 543 L 590 542 L 590 540 L 589 539 L 589 536 L 590 535 L 590 534 L 591 533 L 591 532 L 592 531 "></path>
        <path fill="none" stroke="#00fafa" stroke-width="3" d="M 342 336 L 350 336 L 354 340 L 354 342 L 353 343 L 353 344 L 350 347 L 346 347 L 340 341 L 340 338 "></path>
        <path fill="none" stroke="#00fafa" stroke-width="3" d="M 138 136 L 139 135 L 141 135 L 142 136 L 143 136 L 146 139 L 146 140 L 147 141 L 147 142 L 143 146 L 137 146 L 136 145 L 135 145 L 134 144 L 134 142 L 133 141 L 134 140 L 134 139 L 137 136 "></path>
        <path fill="none" stroke="#00fafa" stroke-width="3" d="M 316 396 L 317 395 L 321 395 L 322 396 L 323 396 L 326 399 L 326 400 L 325 401 L 325 402 L 323 404 L 322 404 L 321 405 L 317 405 L 316 404 L 315 404 L 312 401 L 312 399 L 315 396 "></path>
    </g>
</svg>
