<svg xmlns="http://www.w3.org/2000/svg" xmlns:xlink="http://www.w3.org/1999/xlink" version="1.1" x="0" y="0" width="1056px" height="816px">
    <g id="rootLayer" transform="translate(0.000000, 0.000000)">
        <path fill="none" stroke="#fa00fa" stroke-width="3" d="M 931 575 L 930 576 L 929 576 L 928 577 L 927 577 L 926 578 L 925 578 L 924 579 L 922 579 L 921 580 L 913 580 L 912 579 L 909 579 L 908 578 L 903 578 L 902 577 L 901 578 L 896 578 L 895 579 L 894 579 L 893 580 L 892 580 L 890 582 L 889 582 L 885 586 L 885 587 L 881 591 L 881 592 L 879 594 L 879 595 L 878 596 L 878 597 L 877 598 L 877 600 L 876 601 L 876 607 L 877 608 L 877 611 L 878 612 L 878 614 L 879 615 L 879 623 L 878 624 L 878 626 L 877 627 L 877 629 L 876 630 L 876 632 L 875 633 L 875 644 L 876 645 L 876 647 L 877 648 L 877 649 L 878 650 L 878 651 L 879 652 L 879 653 L 887 661 L 888 661 L 892 665 L 893 665 L 895 667 L 896 667 L 897 668 L 899 668 L 900 669 L 906 669 L 907 668 L 909 668 L 910 667 L 912 667 L 913 666 L 914 666 L 915 665 L 916 665 L 917 664 L 918 664 L 919 663 L 921 663 L 922 662 L 928 662 L 929 663 L 932 663 L 933 664 L 943 664 L 944 663 L 947 663 L 948 662 L 950 662 L 951 661 L 953 661 L 954 660 L 955 660 L 956 659 L 957 659 L 958 658 L 959 658 L 962 655 L 962 654 L 963 653 L 963 651 L 964 650 L 964 635 L 963 634 L 963 630 L 962 629 L 962 626 L 961 625 L 961 622 L 960 621 L 960 613 L 961 612 L 961 606 L 962 605 L 962 598 L 961 597 L 961 592 L 960 591 L 960 590 L 959 589 L 959 588 L 958 587 L 958 586 L 954 582 L 953 582 L 951 580 L 950 580 L 949 579 L 948 579 L 947 578 L 946 578 L 945 577 L 944 577 L 943 576 L 941 576 L 940 575 L 931 575 L 930 576 "></path>
        <path fill="none" stroke="#fa00fa" stroke-width="3" d="M 120 716 L 119 717 L 112 717 L 111 718 L 103 718 L 102 719 L 99 719 L 98 720 L 96 720 L 95 721 L 93 721 L 91 723 L 90 723 L 89 724 L 88 724 L 85 727 L 84 727 L 82 729 L 82 730 L 79 733 L 79 734 L 78 735 L 78 737 L 77 738 L 77 740 L 76 741 L 76 746 L 75 747 L 75 754 L 74 755 L 74 766 L 75 767 L 75 771 L 76 772 L 76 774 L 77 775 L 77 777 L 79 779 L 79 780 L 84 785 L 85 785 L 88 788 L 89 788 L 96 795 L 96 796 L 97 797 L 98 797 L 100 799 L 101 799 L 102 800 L 104 800 L 105 801 L 116 801 L 117 800 L 119 800 L 120 799 L 121 799 L 127 793 L 127 792 L 130 789 L 131 789 L 133 787 L 135 787 L 136 786 L 141 786 L 142 785 L 144 785 L 145 784 L 146 784 L 147 783 L 148 783 L 152 779 L 152 778 L 153 777 L 153 776 L 154 775 L 154 774 L 155 773 L 155 772 L 156 771 L 156 770 L 157 769 L 157 768 L 158 767 L 158 765 L 159 764 L 159 762 L 160 761 L 160 746 L 159 745 L 159 742 L 158 741 L 158 739 L 157 738 L 157 736 L 156 735 L 156 734 L 155 733 L 155 732 L 153 730 L 153 729 L 149 725 L 149 724 L 148 723 L 147 723 L 144 720 L 143 720 L 142 719 L 141 719 L 140 718 L 139 718 L 138 717 L 136 717 L 135 716 L 120 716 L 119 717 "></path>
        <path fill="none" stroke="#fa00fa" stroke-width="3" d="M 934 591 L 933 592 L 930 592 L 929 593 L 928 593 L 926 595 L 925 595 L 923 597 L 922 597 L 921 598 L 918 598 L 917 597 L 916 597 L 915 596 L 914 596 L 913 595 L 912 595 L 911 594 L 908 594 L 907 593 L 905 593 L 904 594 L 901 594 L 900 595 L 899 595 L 898 596 L 897 596 L 895 598 L 895 599 L 894 600 L 894 601 L 893 602 L 893 609 L 894 610 L 894 611 L 895 612 L 895 614 L 896 615 L 896 622 L 895 623 L 895 625 L 894 626 L 894 627 L 893 628 L 893 630 L 892 631 L 892 633 L 891 634 L 891 640 L 892 641 L 892 643 L 893 644 L 893 645 L 898 650 L 899 650 L 900 651 L 901 651 L 902 652 L 909 652 L 910 651 L 911 651 L 912 650 L 913 650 L 918 645 L 926 645 L 927 646 L 929 646 L 930 647 L 932 647 L 933 648 L 944 648 L 945 647 L 946 647 L 947 646 L 947 645 L 948 644 L 948 643 L 949 642 L 949 636 L 948 635 L 948 631 L 947 630 L 947 629 L 946 628 L 946 627 L 944 625 L 944 624 L 942 622 L 942 617 L 943 616 L 943 615 L 944 614 L 944 612 L 945 611 L 945 609 L 946 608 L 946 598 L 945 597 L 945 596 L 941 592 L 939 592 L 938 591 L 934 591 L 933 592 "></path>
        <path fill="none" stroke="#fa00fa" stroke-width="3" d="M 871 139 L 870 140 L 868 140 L 867 141 L 866 141 L 861 146 L 861 148 L 860 149 L 860 159 L 861 160 L 861 162 L 862 163 L 862 169 L 861 170 L 861 171 L 859 173 L 859 175 L 858 176 L 858 182 L 859 183 L 859 184 L 860 185 L 860 186 L 861 187 L 861 188 L 863 190 L 863 191 L 864 192 L 865 192 L 867 194 L 869 194 L 870 195 L 874 195 L 875 194 L 876 194 L 877 193 L 879 193 L 880 192 L 881 192 L 882 191 L 883 191 L 884 190 L 890 190 L 891 191 L 893 191 L 894 192 L 895 192 L 896 193 L 897 193 L 899 195 L 901 195 L 902 196 L 907 196 L 908 195 L 909 195 L 913 191 L 913 190 L 914 189 L 914 188 L 915 187 L 915 184 L 916 183 L 916 178 L 915 177 L 915 175 L 914 174 L 914 173 L 913 172 L 913 170 L 912 169 L 912 167 L 913 166 L 913 165 L 914 164 L 914 163 L 915 162 L 915 161 L 916 160 L 916 158 L 917 157 L 917 154 L 918 153 L 918 149 L 917 148 L 917 146 L 916 145 L 916 144 L 913 141 L 912 141 L 911 140 L 902 140 L 901 141 L 900 141 L 899 142 L 898 142 L 896 144 L 896 145 L 891 150 L 886 150 L 882 146 L 882 145 L 877 140 L 874 140 L 873 139 L 871 139 L 870 140 "></path>
        <path fill="none" stroke="#fa00fa" stroke-width="3" d="M 126 731 L 125 732 L 123 732 L 122 733 L 119 733 L 118 734 L 114 734 L 113 733 L 108 733 L 107 734 L 103 734 L 102 735 L 100 735 L 99 736 L 98 736 L 93 741 L 93 742 L 92 743 L 92 745 L 91 746 L 91 755 L 90 756 L 90 759 L 89 760 L 89 764 L 90 765 L 90 767 L 91 768 L 91 769 L 93 771 L 93 772 L 95 774 L 96 774 L 103 781 L 104 781 L 107 784 L 109 784 L 110 785 L 111 785 L 112 784 L 114 784 L 120 778 L 120 777 L 122 775 L 123 775 L 124 774 L 125 774 L 126 773 L 131 773 L 132 772 L 134 772 L 135 771 L 136 771 L 141 766 L 141 765 L 142 764 L 142 763 L 143 762 L 143 760 L 144 759 L 144 746 L 143 745 L 143 743 L 142 742 L 142 740 L 140 738 L 140 737 L 136 733 L 135 733 L 134 732 L 132 732 L 131 731 L 126 731 L 125 732 "></path>
        <path fill="none" stroke="#fa00fa" stroke-width="3" d="M 227 549 L 226 550 L 224 550 L 222 552 L 221 552 L 219 554 L 219 555 L 218 556 L 218 557 L 217 558 L 217 561 L 216 562 L 216 566 L 215 567 L 215 568 L 213 570 L 213 571 L 211 573 L 211 574 L 210 575 L 210 577 L 209 578 L 209 579 L 210 580 L 210 583 L 215 588 L 216 588 L 217 589 L 218 589 L 219 590 L 222 590 L 223 591 L 231 591 L 232 590 L 235 590 L 236 589 L 238 589 L 239 588 L 241 588 L 242 587 L 243 587 L 245 585 L 245 584 L 246 583 L 246 578 L 245 577 L 245 575 L 244 574 L 244 572 L 243 571 L 243 565 L 244 564 L 244 561 L 243 560 L 243 557 L 242 556 L 242 555 L 240 553 L 240 552 L 239 552 L 237 550 L 235 550 L 234 549 L 227 549 L 226 550 "></path>
    </g>
</svg>
