<svg xmlns="http://www.w3.org/2000/svg" xmlns:xlink="http://www.w3.org/1999/xlink" version="1.1" x="0" y="0" width="1056px" height="816px">
    <g id="rootLayer" transform="translate(0.000000, 0.000000)">
        <path fill="none" stroke="#fa00fa" stroke-width="3" d="M 531 400 L 530 401 L 527 401 L 526 402 L 525 402 L 524 403 L 523 403 L 518 408 L 517 408 L 516 409 L 502 409 L 500 407 L 499 407 L 498 406 L 497 406 L 496 405 L 490 405 L 489 406 L 488 406 L 484 410 L 484 411 L 480 415 L 480 417 L 482 417 L 485 414 L 486 414 L 487 413 L 489 413 L 490 412 L 499 412 L 502 415 L 502 417 L 503 418 L 503 419 L 505 421 L 505 425 L 502 428 L 501 428 L 500 429 L 499 429 L 498 430 L 498 431 L 497 432 L 498 433 L 498 434 L 499 434 L 500 435 L 501 435 L 502 436 L 506 436 L 507 437 L 513 437 L 514 438 L 515 438 L 516 439 L 517 439 L 518 440 L 522 440 L 523 441 L 534 441 L 535 440 L 537 440 L 538 439 L 539 439 L 541 441 L 541 442 L 542 443 L 542 447 L 541 448 L 541 450 L 540 451 L 540 457 L 541 458 L 541 461 L 540 462 L 540 463 L 538 465 L 538 466 L 537 467 L 537 471 L 538 472 L 541 472 L 542 471 L 542 470 L 544 468 L 544 466 L 545 465 L 545 464 L 546 463 L 546 462 L 547 461 L 547 456 L 548 455 L 548 452 L 547 451 L 547 445 L 548 444 L 548 438 L 547 437 L 547 427 L 548 426 L 548 424 L 549 423 L 549 412 L 548 411 L 548 410 L 547 409 L 547 408 L 541 402 L 540 402 L 539 401 L 537 401 L 536 400 "></path>
        <path fill="none" stroke="#fa00fa" stroke-width="3" d="M 485 339 L 484 340 L 481 340 L 479 342 L 478 342 L 477 343 L 477 344 L 475 346 L 475 350 L 474 351 L 474 353 L 470 357 L 469 357 L 463 363 L 462 363 L 461 364 L 459 364 L 458 365 L 456 365 L 452 369 L 452 370 L 451 371 L 451 377 L 454 380 L 456 380 L 458 378 L 458 377 L 459 376 L 459 375 L 460 374 L 460 373 L 464 369 L 465 369 L 466 368 L 467 368 L 468 367 L 469 367 L 470 366 L 471 366 L 473 364 L 474 364 L 476 362 L 476 361 L 477 360 L 477 359 L 478 358 L 478 357 L 479 356 L 479 355 L 480 354 L 480 353 L 485 348 L 490 348 L 493 351 L 494 351 L 498 355 L 499 355 L 500 356 L 501 356 L 502 357 L 505 357 L 506 358 L 515 358 L 516 359 L 522 359 L 523 360 L 526 360 L 527 361 L 529 361 L 530 362 L 532 362 L 533 363 L 535 363 L 536 364 L 537 364 L 538 365 L 539 365 L 540 366 L 541 366 L 543 368 L 544 368 L 547 371 L 548 371 L 552 375 L 553 375 L 562 384 L 562 385 L 564 387 L 564 388 L 565 389 L 565 391 L 566 392 L 566 393 L 569 396 L 569 397 L 572 400 L 572 401 L 573 402 L 573 405 L 574 406 L 574 413 L 575 414 L 575 416 L 576 417 L 576 418 L 577 419 L 577 420 L 578 421 L 578 422 L 580 424 L 580 425 L 581 426 L 581 429 L 582 430 L 582 433 L 581 434 L 581 436 L 580 437 L 580 438 L 579 439 L 579 440 L 580 441 L 580 448 L 579 449 L 579 450 L 580 451 L 580 452 L 581 453 L 581 454 L 582 455 L 583 455 L 585 453 L 585 452 L 586 451 L 586 437 L 585 436 L 585 428 L 584 427 L 584 423 L 583 422 L 583 417 L 582 416 L 582 414 L 581 413 L 581 412 L 580 411 L 580 409 L 579 408 L 579 407 L 578 406 L 578 404 L 577 403 L 577 402 L 576 401 L 576 399 L 575 398 L 575 395 L 574 394 L 574 391 L 573 390 L 573 387 L 572 386 L 572 385 L 571 384 L 571 383 L 570 382 L 570 381 L 568 379 L 568 378 L 556 366 L 555 366 L 553 364 L 552 364 L 550 362 L 549 362 L 546 359 L 545 359 L 544 358 L 543 358 L 542 357 L 541 357 L 540 356 L 539 356 L 538 355 L 534 355 L 533 354 L 530 354 L 529 353 L 526 353 L 525 352 L 523 352 L 522 351 L 514 351 L 513 350 L 508 350 L 507 349 L 503 349 L 502 348 L 500 348 L 497 345 L 497 344 L 494 341 L 493 341 L 492 340 L 491 340 L 490 339 "></path>
        <path fill="none" stroke="#fa00fa" stroke-width="3" d="M 540 321 L 539 322 L 536 322 L 535 323 L 527 323 L 526 322 L 524 322 L 523 323 L 520 323 L 519 324 L 518 324 L 515 327 L 515 328 L 513 330 L 513 332 L 512 333 L 512 338 L 513 339 L 513 341 L 516 344 L 517 344 L 518 345 L 522 345 L 523 344 L 523 342 L 522 341 L 522 340 L 521 339 L 521 337 L 520 336 L 520 335 L 521 334 L 521 333 L 523 331 L 524 331 L 525 330 L 529 330 L 530 329 L 542 329 L 543 330 L 544 330 L 546 332 L 546 333 L 547 334 L 547 336 L 546 337 L 546 338 L 544 340 L 542 340 L 541 341 L 539 341 L 538 342 L 537 342 L 536 343 L 536 345 L 539 348 L 547 348 L 548 347 L 549 347 L 553 343 L 553 342 L 554 341 L 554 337 L 555 336 L 555 334 L 554 333 L 554 330 L 553 329 L 553 328 L 552 327 L 552 326 L 549 323 L 548 323 L 547 322 L 545 322 L 544 321 "></path>
        <path fill="none" stroke="#fa00fa" stroke-width="3" d="M 453 467 L 452 468 L 450 468 L 449 469 L 447 469 L 446 470 L 445 470 L 444 471 L 443 471 L 442 472 L 442 473 L 440 475 L 440 484 L 441 485 L 441 486 L 444 489 L 445 489 L 446 490 L 448 490 L 449 491 L 450 491 L 452 493 L 452 495 L 453 496 L 453 497 L 455 499 L 456 499 L 457 500 L 458 500 L 459 501 L 467 501 L 468 500 L 469 500 L 470 499 L 471 499 L 473 497 L 473 496 L 474 495 L 474 490 L 470 490 L 468 492 L 467 492 L 466 493 L 465 493 L 464 494 L 462 494 L 461 493 L 460 493 L 459 492 L 458 492 L 457 491 L 455 491 L 451 487 L 451 486 L 449 484 L 449 483 L 448 482 L 448 481 L 447 480 L 447 478 L 448 477 L 448 475 L 450 473 L 455 473 L 456 474 L 461 474 L 461 473 L 462 472 L 461 471 L 461 470 L 459 468 L 458 468 L 457 467 "></path>
        <path fill="none" stroke="#fa00fa" stroke-width="3" d="M 583 343 L 582 344 L 580 344 L 579 345 L 578 345 L 574 349 L 574 350 L 573 351 L 573 353 L 572 354 L 572 361 L 573 362 L 573 363 L 574 364 L 574 365 L 577 368 L 579 368 L 580 369 L 581 369 L 582 368 L 583 368 L 584 367 L 584 364 L 583 363 L 583 362 L 581 360 L 581 359 L 580 358 L 580 356 L 581 355 L 581 354 L 583 352 L 584 352 L 585 351 L 587 351 L 588 352 L 589 352 L 591 354 L 591 355 L 593 357 L 594 357 L 595 358 L 596 358 L 597 357 L 598 357 L 598 356 L 599 355 L 599 352 L 598 351 L 598 349 L 594 345 L 593 345 L 592 344 L 589 344 L 588 343 "></path>
        <path fill="none" stroke="#fa00fa" stroke-width="3" d="M 601 363 L 599 365 L 599 366 L 600 367 L 600 369 L 602 371 L 602 372 L 603 373 L 603 375 L 602 376 L 602 377 L 600 379 L 599 379 L 598 380 L 596 380 L 595 379 L 594 379 L 592 377 L 592 376 L 588 372 L 586 372 L 584 374 L 584 380 L 585 381 L 585 382 L 589 386 L 590 386 L 591 387 L 594 387 L 595 388 L 599 388 L 600 387 L 603 387 L 604 386 L 605 386 L 609 382 L 609 381 L 610 380 L 610 376 L 611 375 L 611 373 L 610 372 L 610 368 L 609 367 L 609 366 L 606 363 "></path>
        <path fill="none" stroke="#fa00fa" stroke-width="3" d="M 607 406 L 606 407 L 604 407 L 603 408 L 602 408 L 598 412 L 598 413 L 597 414 L 597 416 L 596 417 L 596 422 L 597 423 L 597 425 L 599 427 L 602 427 L 604 425 L 604 419 L 605 418 L 605 417 L 607 415 L 608 415 L 609 414 L 611 414 L 612 415 L 613 415 L 615 417 L 615 420 L 616 421 L 616 425 L 618 427 L 620 427 L 621 426 L 622 426 L 622 425 L 623 424 L 623 422 L 624 421 L 624 418 L 623 417 L 623 415 L 622 414 L 622 413 L 621 412 L 621 411 L 618 408 L 617 408 L 616 407 L 614 407 L 613 406 "></path>
        <path fill="none" stroke="#fa00fa" stroke-width="3" d="M 559 492 L 558 493 L 557 493 L 555 495 L 554 495 L 553 496 L 551 496 L 550 497 L 547 497 L 546 498 L 543 498 L 542 499 L 540 499 L 539 500 L 528 500 L 528 501 L 527 502 L 528 503 L 528 504 L 531 507 L 538 507 L 539 506 L 540 506 L 544 502 L 549 502 L 550 503 L 558 503 L 559 502 L 560 502 L 562 500 L 562 499 L 563 498 L 563 494 L 561 492 "></path>
        <path fill="none" stroke="#fa00fa" stroke-width="3" d="M 504 447 L 503 448 L 502 448 L 501 449 L 501 450 L 500 451 L 500 455 L 501 456 L 501 457 L 502 458 L 502 459 L 501 460 L 497 460 L 496 461 L 495 461 L 493 463 L 493 466 L 495 468 L 500 468 L 501 467 L 502 467 L 502 466 L 503 465 L 503 463 L 502 462 L 502 460 L 503 459 L 509 459 L 510 458 L 513 458 L 515 456 L 515 454 L 516 453 L 516 452 L 515 451 L 515 450 L 512 447 "></path>
        <path fill="none" stroke="#fa00fa" stroke-width="3" d="M 493 368 L 492 369 L 490 369 L 489 370 L 488 370 L 487 371 L 486 371 L 484 373 L 483 373 L 482 374 L 481 374 L 478 377 L 477 377 L 475 379 L 475 380 L 474 381 L 474 385 L 475 386 L 479 386 L 480 385 L 481 385 L 486 380 L 487 380 L 488 379 L 489 379 L 490 378 L 494 378 L 495 377 L 496 377 L 497 376 L 498 376 L 498 375 L 499 374 L 499 372 L 498 371 L 498 370 L 497 369 L 495 369 L 494 368 "></path>
        <path fill="none" stroke="#fa00fa" stroke-width="3" d="M 445 387 L 444 388 L 443 388 L 442 389 L 441 389 L 440 390 L 440 391 L 439 392 L 439 393 L 438 394 L 438 396 L 437 397 L 437 401 L 438 402 L 438 404 L 439 405 L 439 406 L 442 409 L 443 409 L 444 410 L 446 410 L 447 411 L 448 411 L 450 409 L 450 407 L 449 406 L 449 405 L 446 402 L 446 397 L 447 396 L 447 395 L 450 392 L 450 390 L 449 389 L 449 388 L 448 388 L 447 387 "></path>
        <path fill="none" stroke="#fa00fa" stroke-width="3" d="M 433 446 L 432 447 L 431 447 L 431 448 L 430 449 L 430 457 L 431 458 L 431 459 L 435 463 L 436 463 L 437 464 L 443 464 L 444 463 L 447 463 L 448 462 L 450 462 L 452 460 L 452 459 L 453 458 L 453 456 L 452 455 L 449 455 L 448 456 L 447 456 L 445 458 L 442 458 L 441 457 L 440 457 L 438 455 L 438 454 L 437 453 L 437 449 L 436 448 L 436 447 L 435 446 "></path>
        <path fill="none" stroke="#fa00fa" stroke-width="3" d="M 575 490 L 573 492 L 573 495 L 574 496 L 574 497 L 576 499 L 577 499 L 578 500 L 582 500 L 583 501 L 585 501 L 586 500 L 590 500 L 592 498 L 593 498 L 593 497 L 594 496 L 594 495 L 595 494 L 595 492 L 594 491 L 588 491 L 587 492 L 582 492 L 581 491 L 580 491 L 579 490 "></path>
        <path fill="none" stroke="#fa00fa" stroke-width="3" d="M 524 372 L 522 374 L 522 377 L 523 378 L 523 379 L 525 381 L 526 381 L 527 382 L 528 382 L 530 384 L 531 384 L 532 385 L 533 385 L 534 386 L 535 386 L 536 387 L 538 387 L 539 388 L 541 388 L 542 387 L 542 385 L 541 384 L 541 383 L 540 382 L 540 381 L 536 377 L 535 377 L 531 373 L 530 373 L 529 372 "></path>
        <path fill="none" stroke="#fa00fa" stroke-width="3" d="M 438 421 L 437 422 L 436 422 L 435 423 L 434 423 L 433 424 L 433 425 L 431 427 L 431 428 L 430 429 L 430 432 L 429 433 L 429 434 L 430 435 L 430 437 L 431 438 L 431 439 L 432 440 L 433 440 L 434 441 L 435 440 L 436 440 L 436 439 L 437 438 L 437 433 L 438 432 L 438 431 L 440 429 L 441 429 L 442 428 L 443 428 L 444 427 L 444 426 L 445 425 L 445 424 L 442 421 "></path>
        <path fill="none" stroke="#fa00fa" stroke-width="3" d="M 509 375 L 508 376 L 506 376 L 505 377 L 505 378 L 504 379 L 504 386 L 505 387 L 505 391 L 506 392 L 506 394 L 507 395 L 510 395 L 510 394 L 512 392 L 512 390 L 513 389 L 513 378 L 511 376 L 510 376 "></path>
        <path fill="none" stroke="#fa00fa" stroke-width="3" d="M 611 458 L 611 459 L 610 460 L 610 469 L 609 470 L 609 476 L 610 477 L 611 477 L 612 476 L 614 476 L 617 473 L 617 472 L 618 471 L 618 469 L 619 468 L 619 465 L 618 464 L 618 462 L 617 461 L 617 460 L 615 458 "></path>
        <path fill="none" stroke="#fa00fa" stroke-width="3" d="M 617 433 L 617 434 L 616 435 L 616 437 L 615 438 L 615 443 L 614 444 L 614 445 L 613 446 L 613 449 L 614 450 L 619 450 L 620 449 L 621 449 L 621 448 L 623 446 L 623 443 L 624 442 L 624 439 L 623 438 L 623 436 L 622 435 L 622 434 L 621 434 L 620 433 "></path>
        <path fill="none" stroke="#fa00fa" stroke-width="3" d="M 486 494 L 485 495 L 485 502 L 486 503 L 486 504 L 490 508 L 493 508 L 494 509 L 495 509 L 496 508 L 498 508 L 499 507 L 500 507 L 501 506 L 501 504 L 500 504 L 499 503 L 498 503 L 497 502 L 495 502 L 490 497 L 490 496 L 488 494 "></path>
        <path fill="none" stroke="#fa00fa" stroke-width="3" d="M 605 479 L 604 480 L 603 480 L 598 485 L 598 486 L 597 487 L 597 490 L 598 491 L 605 491 L 609 487 L 609 484 L 610 483 L 609 482 L 609 480 L 608 479 "></path>
        <path fill="none" stroke="#fa00fa" stroke-width="3" d="M 599 433 L 598 434 L 598 435 L 597 436 L 597 437 L 596 438 L 596 442 L 597 443 L 597 445 L 599 447 L 600 447 L 601 448 L 603 448 L 605 446 L 605 439 L 604 438 L 604 435 L 603 434 L 603 433 "></path>
        <path fill="none" stroke="#fa00fa" stroke-width="3" d="M 470 392 L 468 394 L 468 395 L 467 396 L 467 404 L 469 406 L 472 406 L 475 403 L 475 401 L 476 400 L 476 395 L 475 394 L 475 393 L 474 392 "></path>
        <path fill="none" stroke="#fa00fa" stroke-width="3" d="M 459 446 L 458 447 L 458 450 L 459 451 L 459 452 L 460 452 L 462 454 L 462 455 L 464 457 L 464 458 L 465 459 L 465 460 L 467 462 L 467 463 L 468 463 L 469 464 L 470 464 L 471 463 L 471 458 L 469 456 L 469 455 L 466 452 L 466 451 L 464 449 L 464 448 L 462 446 "></path>
        <path fill="none" stroke="#fa00fa" stroke-width="3" d="M 490 435 L 488 437 L 488 438 L 487 439 L 487 441 L 486 442 L 486 444 L 485 445 L 485 447 L 484 448 L 484 452 L 485 453 L 486 453 L 489 450 L 489 449 L 490 448 L 490 445 L 491 444 L 491 440 L 492 439 L 492 436 L 491 435 "></path>
        <path fill="none" stroke="#fa00fa" stroke-width="3" d="M 598 455 L 597 456 L 596 456 L 594 458 L 594 459 L 593 460 L 593 463 L 595 465 L 598 465 L 599 464 L 600 464 L 601 463 L 601 462 L 602 461 L 602 460 L 603 459 L 603 457 L 601 455 "></path>
        <path fill="none" stroke="#fa00fa" stroke-width="3" d="M 515 467 L 514 468 L 513 468 L 511 470 L 511 473 L 512 474 L 512 475 L 513 475 L 514 476 L 519 476 L 520 475 L 520 470 L 518 468 L 517 468 L 516 467 "></path>
        <path fill="none" stroke="#fa00fa" stroke-width="3" d="M 516 501 L 515 502 L 512 502 L 511 503 L 510 503 L 508 505 L 510 507 L 511 507 L 512 508 L 515 508 L 516 507 L 517 507 L 518 506 L 518 505 L 519 504 L 519 502 L 518 502 L 517 501 "></path>
        <path fill="none" stroke="#fa00fa" stroke-width="3" d="M 551 389 L 550 390 L 549 390 L 549 392 L 550 392 L 551 393 L 552 393 L 553 394 L 558 394 L 559 393 L 559 392 L 557 390 L 555 390 L 554 389 "></path>
        <path fill="none" stroke="#fa00fa" stroke-width="3" d="M 528 401 L 527 402 L 526 402 L 525 403 L 524 403 L 522 405 L 521 405 L 516 410 L 505 410 L 504 409 L 502 409 L 501 408 L 500 408 L 498 406 L 497 406 L 496 405 L 490 405 L 489 406 L 488 406 L 484 410 L 484 411 L 480 415 L 480 417 L 482 417 L 485 414 L 486 414 L 487 413 L 489 413 L 490 412 L 499 412 L 503 416 L 503 417 L 505 419 L 505 420 L 506 421 L 506 425 L 503 428 L 501 428 L 499 430 L 498 430 L 498 433 L 500 435 L 501 435 L 502 436 L 509 436 L 510 437 L 513 437 L 514 438 L 515 438 L 516 439 L 517 439 L 518 440 L 522 440 L 523 441 L 534 441 L 535 440 L 537 440 L 538 439 L 539 439 L 541 441 L 541 442 L 542 443 L 542 447 L 541 448 L 541 450 L 540 451 L 540 457 L 541 458 L 541 461 L 540 462 L 540 463 L 538 465 L 538 466 L 537 467 L 537 471 L 538 472 L 541 472 L 542 471 L 542 470 L 544 468 L 544 466 L 545 465 L 545 464 L 546 463 L 546 462 L 547 461 L 547 456 L 548 455 L 548 452 L 547 451 L 547 445 L 548 444 L 548 438 L 547 437 L 547 433 L 546 432 L 546 430 L 547 429 L 547 427 L 548 426 L 548 424 L 549 423 L 549 413 L 548 412 L 548 410 L 546 408 L 546 407 L 541 402 L 540 402 L 539 401 "></path>
        <path fill="none" stroke="#fa00fa" stroke-width="3" d="M 484 339 L 483 340 L 481 340 L 479 342 L 478 342 L 476 344 L 476 345 L 475 346 L 475 349 L 474 350 L 474 352 L 473 353 L 473 354 L 471 356 L 470 356 L 463 363 L 462 363 L 461 364 L 458 364 L 457 365 L 456 365 L 452 369 L 452 370 L 451 371 L 451 377 L 454 380 L 456 380 L 458 378 L 458 377 L 459 376 L 459 375 L 460 374 L 460 373 L 463 370 L 464 370 L 466 368 L 467 368 L 468 367 L 469 367 L 470 366 L 471 366 L 473 364 L 474 364 L 476 362 L 476 361 L 478 359 L 478 357 L 479 356 L 479 355 L 480 354 L 480 353 L 485 348 L 490 348 L 493 351 L 494 351 L 499 356 L 501 356 L 502 357 L 505 357 L 506 358 L 515 358 L 516 359 L 522 359 L 523 360 L 525 360 L 526 361 L 529 361 L 530 362 L 532 362 L 533 363 L 535 363 L 536 364 L 537 364 L 538 365 L 539 365 L 540 366 L 541 366 L 543 368 L 544 368 L 547 371 L 548 371 L 552 375 L 553 375 L 562 384 L 562 385 L 564 387 L 564 388 L 565 389 L 565 390 L 566 391 L 566 392 L 567 393 L 567 394 L 570 397 L 570 398 L 572 400 L 572 401 L 573 402 L 573 404 L 574 405 L 574 413 L 575 414 L 575 416 L 576 417 L 576 418 L 577 419 L 577 420 L 579 422 L 579 423 L 580 424 L 580 425 L 581 426 L 581 428 L 582 429 L 582 433 L 581 434 L 581 436 L 580 437 L 580 452 L 581 453 L 581 454 L 584 454 L 585 453 L 585 452 L 586 451 L 586 438 L 585 437 L 585 429 L 584 428 L 584 423 L 583 422 L 583 417 L 582 416 L 582 414 L 581 413 L 581 412 L 580 411 L 580 409 L 579 408 L 579 407 L 578 406 L 578 404 L 577 403 L 577 402 L 576 401 L 576 399 L 575 398 L 575 395 L 574 394 L 574 391 L 573 390 L 573 387 L 572 386 L 572 385 L 571 384 L 571 383 L 570 382 L 570 381 L 568 379 L 568 378 L 556 366 L 555 366 L 553 364 L 552 364 L 550 362 L 549 362 L 546 359 L 545 359 L 544 358 L 543 358 L 542 357 L 541 357 L 540 356 L 539 356 L 538 355 L 534 355 L 533 354 L 530 354 L 529 353 L 526 353 L 525 352 L 522 352 L 521 351 L 514 351 L 513 350 L 508 350 L 507 349 L 503 349 L 502 348 L 501 348 L 500 347 L 499 347 L 497 345 L 497 344 L 494 341 L 493 341 L 492 340 L 491 340 L 490 339 "></path>
        <path fill="none" stroke="#fa00fa" stroke-width="3" d="M 539 321 L 538 322 L 536 322 L 535 323 L 527 323 L 526 322 L 523 322 L 522 323 L 520 323 L 519 324 L 518 324 L 515 327 L 515 328 L 513 330 L 513 332 L 512 333 L 512 338 L 513 339 L 513 341 L 516 344 L 517 344 L 518 345 L 522 345 L 523 344 L 523 342 L 522 341 L 522 340 L 521 339 L 521 337 L 520 336 L 520 335 L 521 334 L 521 333 L 523 331 L 524 331 L 525 330 L 529 330 L 530 329 L 542 329 L 543 330 L 544 330 L 546 332 L 546 333 L 547 334 L 547 336 L 546 337 L 546 338 L 544 340 L 542 340 L 541 341 L 539 341 L 538 342 L 537 342 L 536 343 L 536 345 L 539 348 L 547 348 L 548 347 L 549 347 L 553 343 L 553 342 L 554 341 L 554 338 L 555 337 L 555 334 L 554 333 L 554 329 L 552 327 L 552 326 L 549 323 L 548 323 L 547 322 L 545 322 L 544 321 "></path>
        <path fill="none" stroke="#fa00fa" stroke-width="3" d="M 453 467 L 452 468 L 450 468 L 449 469 L 447 469 L 446 470 L 445 470 L 444 471 L 443 471 L 442 472 L 442 473 L 440 475 L 440 484 L 441 485 L 441 486 L 444 489 L 445 489 L 446 490 L 447 490 L 448 491 L 450 491 L 452 493 L 452 495 L 453 496 L 453 497 L 455 499 L 456 499 L 457 500 L 458 500 L 459 501 L 467 501 L 468 500 L 470 500 L 473 497 L 473 496 L 474 495 L 474 490 L 470 490 L 468 492 L 467 492 L 466 493 L 465 493 L 464 494 L 462 494 L 461 493 L 460 493 L 459 492 L 458 492 L 457 491 L 456 491 L 455 490 L 454 490 L 451 487 L 451 486 L 449 484 L 449 483 L 448 482 L 448 481 L 447 480 L 447 478 L 448 477 L 448 475 L 450 473 L 455 473 L 456 474 L 461 474 L 461 473 L 462 472 L 461 471 L 461 470 L 459 468 L 458 468 L 457 467 "></path>
        <path fill="none" stroke="#fa00fa" stroke-width="3" d="M 583 343 L 582 344 L 580 344 L 579 345 L 578 345 L 574 349 L 574 350 L 573 351 L 573 353 L 572 354 L 572 361 L 573 362 L 573 363 L 574 364 L 574 365 L 577 368 L 579 368 L 580 369 L 581 369 L 582 368 L 583 368 L 584 367 L 584 364 L 583 363 L 583 362 L 581 360 L 581 359 L 580 358 L 580 356 L 581 355 L 581 354 L 583 352 L 584 352 L 585 351 L 587 351 L 588 352 L 589 352 L 591 354 L 591 355 L 593 357 L 594 357 L 595 358 L 596 358 L 597 357 L 598 357 L 598 356 L 599 355 L 599 351 L 598 350 L 598 349 L 594 345 L 593 345 L 592 344 L 589 344 L 588 343 "></path>
        <path fill="none" stroke="#fa00fa" stroke-width="3" d="M 601 363 L 599 365 L 599 366 L 600 367 L 600 369 L 602 371 L 602 372 L 603 373 L 603 375 L 602 376 L 602 377 L 600 379 L 599 379 L 598 380 L 596 380 L 595 379 L 594 379 L 592 377 L 592 376 L 588 372 L 586 372 L 584 374 L 584 380 L 585 381 L 585 382 L 589 386 L 590 386 L 591 387 L 594 387 L 595 388 L 599 388 L 600 387 L 603 387 L 604 386 L 605 386 L 609 382 L 609 381 L 610 380 L 610 376 L 611 375 L 611 373 L 610 372 L 610 368 L 609 367 L 609 366 L 606 363 "></path>
        <path fill="none" stroke="#fa00fa" stroke-width="3" d="M 607 406 L 606 407 L 604 407 L 603 408 L 602 408 L 598 412 L 598 413 L 597 414 L 597 416 L 596 417 L 596 423 L 597 424 L 597 425 L 599 427 L 602 427 L 604 425 L 604 419 L 605 418 L 605 417 L 608 414 L 611 414 L 612 415 L 613 415 L 615 417 L 615 420 L 616 421 L 616 425 L 618 427 L 620 427 L 621 426 L 622 426 L 622 425 L 623 424 L 623 422 L 624 421 L 624 418 L 623 417 L 623 414 L 621 412 L 621 411 L 618 408 L 617 408 L 616 407 L 614 407 L 613 406 "></path>
        <path fill="none" stroke="#fa00fa" stroke-width="3" d="M 559 492 L 558 493 L 557 493 L 555 495 L 554 495 L 553 496 L 551 496 L 550 497 L 547 497 L 546 498 L 543 498 L 542 499 L 540 499 L 539 500 L 528 500 L 528 504 L 531 507 L 538 507 L 539 506 L 540 506 L 544 502 L 549 502 L 550 503 L 558 503 L 559 502 L 560 502 L 562 500 L 562 499 L 563 498 L 563 494 L 561 492 "></path>
        <path fill="none" stroke="#fa00fa" stroke-width="3" d="M 508 446 L 507 447 L 504 447 L 503 448 L 502 448 L 501 449 L 501 450 L 500 451 L 500 455 L 501 456 L 501 457 L 502 458 L 502 459 L 501 460 L 497 460 L 496 461 L 495 461 L 493 463 L 493 466 L 495 468 L 501 468 L 502 467 L 502 466 L 503 465 L 503 463 L 502 462 L 502 460 L 503 459 L 509 459 L 510 458 L 513 458 L 515 456 L 515 455 L 516 454 L 516 452 L 515 451 L 515 450 L 512 447 L 509 447 "></path>
        <path fill="none" stroke="#fa00fa" stroke-width="3" d="M 493 368 L 492 369 L 490 369 L 489 370 L 488 370 L 487 371 L 486 371 L 484 373 L 483 373 L 482 374 L 481 374 L 478 377 L 477 377 L 475 379 L 475 380 L 474 381 L 474 385 L 475 386 L 479 386 L 480 385 L 481 385 L 486 380 L 487 380 L 488 379 L 490 379 L 491 378 L 494 378 L 495 377 L 497 377 L 498 376 L 498 375 L 499 374 L 499 372 L 498 371 L 498 370 L 497 369 L 496 369 L 495 368 "></path>
        <path fill="none" stroke="#fa00fa" stroke-width="3" d="M 445 387 L 444 388 L 443 388 L 442 389 L 441 389 L 440 390 L 440 391 L 439 392 L 439 393 L 438 394 L 438 396 L 437 397 L 437 401 L 438 402 L 438 404 L 439 405 L 439 406 L 442 409 L 443 409 L 444 410 L 446 410 L 447 411 L 448 411 L 450 409 L 450 407 L 449 406 L 449 405 L 446 402 L 446 397 L 447 396 L 447 395 L 450 392 L 450 390 L 449 389 L 449 388 L 448 388 L 447 387 "></path>
        <path fill="none" stroke="#fa00fa" stroke-width="3" d="M 433 446 L 432 447 L 431 447 L 431 448 L 430 449 L 430 457 L 431 458 L 431 459 L 435 463 L 436 463 L 437 464 L 443 464 L 444 463 L 447 463 L 448 462 L 450 462 L 452 460 L 452 459 L 453 458 L 453 456 L 452 455 L 449 455 L 448 456 L 447 456 L 445 458 L 442 458 L 441 457 L 440 457 L 438 455 L 438 454 L 437 453 L 437 449 L 436 448 L 436 447 L 435 446 "></path>
        <path fill="none" stroke="#fa00fa" stroke-width="3" d="M 575 490 L 573 492 L 573 495 L 574 496 L 574 497 L 576 499 L 577 499 L 578 500 L 582 500 L 583 501 L 585 501 L 586 500 L 590 500 L 592 498 L 593 498 L 593 497 L 594 496 L 594 495 L 595 494 L 595 492 L 594 491 L 588 491 L 587 492 L 582 492 L 581 491 L 580 491 L 579 490 "></path>
        <path fill="none" stroke="#fa00fa" stroke-width="3" d="M 524 372 L 522 374 L 522 377 L 523 378 L 523 379 L 525 381 L 526 381 L 527 382 L 528 382 L 530 384 L 531 384 L 532 385 L 534 385 L 535 386 L 536 386 L 537 387 L 539 387 L 540 388 L 541 388 L 542 387 L 542 385 L 541 384 L 541 383 L 540 382 L 540 381 L 536 377 L 535 377 L 531 373 L 530 373 L 529 372 "></path>
        <path fill="none" stroke="#fa00fa" stroke-width="3" d="M 438 421 L 437 422 L 436 422 L 435 423 L 434 423 L 432 425 L 432 426 L 431 427 L 431 428 L 430 429 L 430 432 L 429 433 L 429 434 L 430 435 L 430 437 L 431 438 L 431 439 L 432 440 L 433 440 L 434 441 L 435 440 L 436 440 L 436 439 L 437 438 L 437 433 L 438 432 L 438 431 L 440 429 L 441 429 L 442 428 L 443 428 L 444 427 L 444 426 L 445 425 L 445 424 L 444 423 L 444 422 L 443 422 L 442 421 "></path>
        <path fill="none" stroke="#fa00fa" stroke-width="3" d="M 508 375 L 507 376 L 506 376 L 505 377 L 505 378 L 504 379 L 504 387 L 505 388 L 505 391 L 506 392 L 506 393 L 507 394 L 507 395 L 509 395 L 512 392 L 512 389 L 513 388 L 513 378 L 511 376 L 510 376 L 509 375 "></path>
        <path fill="none" stroke="#fa00fa" stroke-width="3" d="M 612 458 L 610 460 L 610 469 L 609 470 L 609 476 L 610 477 L 612 477 L 613 476 L 614 476 L 618 472 L 618 469 L 619 468 L 619 465 L 618 464 L 618 462 L 617 461 L 617 460 L 615 458 "></path>
        <path fill="none" stroke="#fa00fa" stroke-width="3" d="M 617 433 L 616 434 L 616 437 L 615 438 L 615 443 L 614 444 L 614 445 L 613 446 L 613 449 L 614 450 L 619 450 L 620 449 L 621 449 L 621 448 L 623 446 L 623 443 L 624 442 L 624 439 L 623 438 L 623 436 L 622 435 L 622 434 L 621 433 "></path>
        <path fill="none" stroke="#fa00fa" stroke-width="3" d="M 486 494 L 485 495 L 485 503 L 490 508 L 492 508 L 493 509 L 495 509 L 496 508 L 498 508 L 501 505 L 499 503 L 498 503 L 497 502 L 495 502 L 490 497 L 490 496 L 488 494 "></path>
        <path fill="none" stroke="#fa00fa" stroke-width="3" d="M 605 479 L 604 480 L 603 480 L 598 485 L 598 486 L 597 487 L 597 490 L 598 491 L 600 491 L 601 492 L 602 491 L 605 491 L 609 487 L 609 485 L 610 484 L 610 483 L 609 482 L 609 480 L 608 479 "></path>
        <path fill="none" stroke="#fa00fa" stroke-width="3" d="M 599 433 L 597 435 L 597 437 L 596 438 L 596 442 L 597 443 L 597 445 L 599 447 L 600 447 L 601 448 L 603 448 L 605 446 L 605 438 L 604 437 L 604 435 L 603 434 L 603 433 "></path>
        <path fill="none" stroke="#fa00fa" stroke-width="3" d="M 470 392 L 467 395 L 467 399 L 466 400 L 466 401 L 467 402 L 467 404 L 469 406 L 472 406 L 475 403 L 475 401 L 476 400 L 476 395 L 475 394 L 475 393 L 474 392 "></path>
        <path fill="none" stroke="#fa00fa" stroke-width="3" d="M 459 446 L 458 447 L 458 450 L 459 451 L 459 452 L 460 452 L 462 454 L 462 455 L 464 457 L 464 458 L 465 459 L 465 460 L 469 464 L 470 464 L 471 463 L 471 458 L 469 456 L 469 455 L 466 452 L 466 451 L 464 449 L 464 448 L 462 446 "></path>
        <path fill="none" stroke="#fa00fa" stroke-width="3" d="M 598 455 L 597 456 L 596 456 L 593 459 L 593 463 L 595 465 L 599 465 L 601 463 L 601 462 L 602 461 L 602 460 L 603 459 L 603 457 L 601 455 "></path>
        <path fill="none" stroke="#fa00fa" stroke-width="3" d="M 489 436 L 488 437 L 488 438 L 487 439 L 487 441 L 486 442 L 486 444 L 485 445 L 485 447 L 484 448 L 484 452 L 485 453 L 486 453 L 489 450 L 489 449 L 490 448 L 490 445 L 491 444 L 491 440 L 492 439 L 492 437 L 491 436 "></path>
        <path fill="none" stroke="#fa00fa" stroke-width="3" d="M 515 467 L 514 468 L 513 468 L 511 470 L 511 473 L 512 474 L 512 475 L 513 475 L 514 476 L 519 476 L 520 475 L 520 470 L 518 468 L 517 468 L 516 467 "></path>
        <path fill="none" stroke="#fa00fa" stroke-width="3" d="M 516 501 L 515 502 L 512 502 L 511 503 L 510 503 L 509 504 L 509 506 L 510 507 L 511 507 L 512 508 L 515 508 L 516 507 L 517 507 L 518 506 L 518 505 L 519 504 L 519 503 L 517 501 "></path>
        <path fill="none" stroke="#fa00fa" stroke-width="3" d="M 552 389 L 551 390 L 550 390 L 549 391 L 551 393 L 552 393 L 553 394 L 558 394 L 558 391 L 557 391 L 556 390 L 554 390 L 553 389 "></path>
    </g>
</svg>
