<svg xmlns="http://www.w3.org/2000/svg" xmlns:xlink="http://www.w3.org/1999/xlink" version="1.1" x="0" y="0" width="1056px" height="816px">
    <g id="rootLayer" transform="translate(0.000000, 0.000000)">
        <path fill="none" stroke="#fa00fa" stroke-width="3" d="M 502 235 L 501 236 L 500 236 L 501 237 L 501 238 L 500 239 L 499 239 L 500 240 L 500 242 L 499 243 L 498 243 L 497 244 L 498 244 L 499 245 L 498 246 L 496 246 L 498 246 L 499 247 L 498 248 L 496 248 L 494 250 L 493 250 L 492 251 L 492 253 L 490 255 L 491 256 L 491 257 L 492 258 L 491 259 L 490 259 L 489 258 L 488 258 L 487 259 L 488 260 L 487 261 L 484 261 L 483 260 L 483 259 L 482 260 L 481 260 L 480 261 L 479 260 L 479 258 L 479 259 L 478 260 L 477 260 L 476 259 L 476 260 L 475 261 L 474 261 L 473 262 L 473 263 L 472 264 L 471 263 L 471 262 L 470 261 L 469 261 L 469 262 L 468 263 L 469 263 L 470 264 L 469 265 L 467 265 L 466 264 L 466 263 L 465 262 L 464 263 L 463 262 L 463 261 L 464 260 L 463 259 L 464 258 L 464 257 L 465 256 L 465 255 L 463 253 L 463 252 L 462 253 L 461 252 L 460 253 L 459 252 L 458 253 L 457 252 L 453 256 L 453 257 L 450 260 L 450 262 L 451 262 L 452 263 L 453 263 L 454 262 L 455 263 L 455 264 L 456 264 L 457 265 L 457 267 L 459 269 L 459 270 L 460 269 L 462 269 L 462 268 L 463 267 L 464 268 L 464 269 L 465 270 L 468 267 L 468 266 L 469 265 L 470 266 L 471 266 L 472 267 L 471 266 L 472 265 L 473 265 L 474 266 L 476 264 L 477 264 L 478 265 L 482 265 L 483 266 L 483 267 L 486 270 L 485 271 L 484 271 L 484 274 L 485 275 L 486 274 L 488 276 L 488 277 L 487 278 L 486 277 L 485 277 L 485 278 L 483 280 L 485 282 L 484 283 L 482 283 L 481 284 L 480 283 L 480 281 L 479 280 L 479 281 L 477 283 L 476 282 L 475 283 L 473 281 L 474 280 L 473 280 L 472 281 L 471 281 L 470 280 L 469 281 L 467 281 L 465 283 L 464 283 L 463 282 L 462 283 L 461 282 L 462 283 L 461 284 L 460 284 L 459 285 L 457 283 L 458 282 L 459 282 L 458 282 L 456 280 L 455 281 L 454 281 L 453 280 L 452 281 L 451 281 L 451 286 L 452 286 L 453 287 L 453 288 L 454 288 L 454 287 L 455 286 L 456 286 L 458 288 L 457 289 L 458 289 L 459 288 L 460 289 L 460 290 L 460 289 L 459 288 L 460 287 L 461 287 L 463 289 L 464 289 L 465 290 L 465 291 L 464 292 L 463 291 L 463 292 L 464 293 L 464 294 L 463 295 L 464 296 L 463 297 L 463 298 L 465 300 L 465 301 L 467 301 L 468 300 L 472 300 L 473 299 L 474 300 L 474 301 L 474 300 L 475 299 L 476 300 L 476 302 L 477 301 L 478 302 L 479 302 L 480 303 L 479 304 L 480 303 L 481 304 L 481 305 L 481 304 L 482 303 L 483 304 L 483 306 L 485 304 L 486 305 L 486 307 L 487 306 L 490 306 L 491 307 L 490 308 L 490 309 L 489 310 L 488 309 L 490 311 L 490 314 L 491 315 L 492 315 L 494 317 L 492 319 L 489 316 L 488 316 L 488 318 L 487 319 L 485 319 L 481 323 L 480 322 L 478 324 L 477 323 L 476 324 L 475 323 L 473 323 L 472 324 L 471 323 L 471 322 L 472 321 L 471 320 L 470 320 L 468 322 L 468 323 L 467 324 L 465 322 L 464 323 L 463 322 L 463 321 L 460 324 L 461 325 L 461 326 L 460 327 L 461 327 L 462 328 L 462 333 L 463 333 L 464 334 L 463 335 L 461 335 L 462 336 L 462 338 L 461 339 L 459 337 L 458 337 L 457 336 L 456 337 L 455 336 L 454 336 L 453 337 L 452 336 L 451 337 L 450 336 L 449 337 L 447 335 L 447 336 L 445 338 L 444 337 L 444 336 L 444 337 L 443 338 L 442 337 L 442 336 L 441 337 L 440 337 L 439 338 L 438 337 L 437 337 L 438 337 L 439 338 L 438 339 L 435 339 L 434 340 L 433 340 L 431 342 L 430 342 L 430 344 L 429 345 L 428 345 L 427 344 L 426 344 L 426 345 L 425 346 L 424 345 L 423 345 L 422 346 L 421 346 L 420 347 L 418 347 L 416 349 L 415 349 L 414 350 L 411 350 L 410 351 L 409 350 L 409 356 L 410 357 L 410 359 L 409 360 L 408 360 L 407 361 L 407 362 L 406 363 L 406 365 L 408 363 L 409 364 L 409 365 L 408 366 L 409 367 L 409 368 L 408 369 L 407 369 L 406 370 L 405 370 L 404 369 L 403 370 L 402 369 L 402 367 L 403 366 L 404 367 L 404 364 L 403 365 L 399 365 L 397 367 L 397 368 L 396 369 L 395 369 L 395 372 L 394 373 L 394 374 L 395 374 L 396 375 L 396 376 L 395 377 L 394 376 L 393 376 L 392 375 L 390 375 L 390 376 L 389 377 L 389 379 L 388 380 L 389 379 L 390 380 L 390 381 L 389 382 L 390 382 L 391 383 L 392 382 L 394 384 L 394 385 L 395 384 L 396 385 L 397 384 L 398 384 L 399 385 L 401 385 L 402 386 L 401 387 L 400 387 L 402 389 L 402 390 L 403 391 L 403 392 L 402 393 L 401 392 L 401 394 L 400 395 L 398 395 L 398 396 L 397 397 L 396 397 L 395 398 L 394 397 L 395 398 L 396 398 L 397 397 L 398 398 L 398 401 L 397 402 L 394 402 L 393 401 L 394 400 L 393 400 L 391 402 L 389 400 L 390 399 L 389 399 L 388 398 L 387 399 L 384 399 L 384 402 L 383 403 L 385 405 L 385 406 L 386 406 L 388 408 L 391 408 L 393 410 L 395 408 L 396 408 L 397 409 L 394 412 L 395 412 L 396 413 L 397 413 L 398 414 L 396 416 L 395 416 L 396 417 L 397 417 L 398 418 L 397 419 L 395 419 L 394 420 L 393 420 L 393 421 L 392 422 L 393 423 L 392 424 L 393 425 L 392 426 L 393 425 L 396 425 L 397 424 L 397 423 L 398 422 L 399 422 L 400 423 L 399 422 L 400 421 L 403 421 L 404 422 L 403 423 L 403 424 L 404 423 L 404 422 L 405 421 L 406 422 L 406 424 L 407 425 L 406 426 L 407 426 L 409 428 L 408 429 L 407 429 L 408 430 L 407 431 L 406 431 L 407 432 L 407 433 L 404 436 L 403 436 L 402 437 L 402 438 L 401 439 L 400 439 L 399 438 L 399 439 L 398 440 L 398 441 L 397 442 L 396 442 L 397 443 L 397 444 L 396 445 L 395 444 L 395 447 L 396 447 L 398 449 L 398 450 L 396 452 L 395 451 L 397 453 L 396 454 L 394 454 L 394 457 L 391 460 L 391 463 L 392 464 L 391 465 L 392 466 L 393 465 L 394 466 L 395 466 L 394 465 L 395 464 L 397 464 L 398 463 L 399 464 L 398 463 L 399 462 L 402 462 L 403 463 L 402 464 L 403 464 L 404 463 L 406 465 L 408 465 L 409 464 L 410 464 L 411 465 L 414 462 L 415 463 L 416 462 L 417 462 L 418 463 L 418 464 L 418 463 L 419 462 L 421 464 L 422 463 L 423 463 L 425 465 L 425 466 L 426 465 L 427 466 L 428 465 L 428 464 L 427 464 L 426 463 L 426 462 L 428 460 L 427 460 L 426 459 L 427 458 L 428 458 L 428 455 L 429 454 L 430 454 L 431 455 L 431 456 L 432 455 L 434 457 L 433 458 L 432 458 L 431 459 L 431 460 L 430 461 L 431 462 L 430 463 L 431 464 L 431 465 L 431 464 L 433 462 L 434 463 L 435 463 L 436 462 L 439 465 L 438 466 L 437 466 L 438 466 L 439 467 L 438 468 L 440 470 L 438 472 L 437 472 L 438 472 L 439 473 L 439 475 L 438 476 L 437 475 L 437 474 L 437 475 L 436 476 L 434 474 L 434 475 L 433 476 L 432 475 L 431 475 L 430 476 L 428 476 L 426 478 L 425 477 L 425 478 L 424 479 L 423 479 L 422 478 L 421 478 L 420 477 L 420 476 L 418 474 L 417 474 L 416 473 L 417 472 L 415 472 L 414 471 L 413 472 L 411 472 L 410 473 L 409 472 L 408 473 L 407 473 L 407 475 L 408 476 L 408 477 L 409 477 L 410 478 L 409 479 L 410 480 L 410 481 L 409 482 L 410 483 L 410 484 L 408 486 L 408 491 L 409 492 L 409 494 L 410 495 L 410 497 L 411 498 L 410 499 L 410 500 L 411 499 L 412 500 L 412 501 L 411 502 L 412 503 L 414 503 L 415 504 L 415 505 L 418 505 L 419 506 L 417 508 L 416 508 L 418 510 L 418 511 L 417 512 L 418 513 L 417 514 L 417 516 L 416 517 L 416 518 L 417 519 L 416 520 L 416 521 L 415 522 L 415 523 L 416 524 L 417 524 L 418 525 L 417 526 L 418 527 L 419 527 L 419 526 L 420 525 L 421 526 L 421 527 L 423 525 L 425 525 L 425 524 L 426 523 L 425 522 L 426 521 L 425 520 L 425 519 L 426 518 L 423 515 L 423 514 L 422 513 L 423 512 L 423 511 L 427 507 L 428 507 L 427 506 L 429 504 L 430 505 L 430 506 L 431 506 L 432 507 L 433 507 L 434 508 L 434 509 L 435 510 L 435 509 L 436 508 L 437 509 L 437 512 L 440 512 L 441 513 L 441 514 L 440 515 L 439 515 L 440 515 L 442 517 L 440 519 L 441 520 L 441 522 L 442 522 L 443 523 L 444 523 L 446 521 L 447 522 L 446 521 L 446 520 L 445 519 L 446 518 L 446 516 L 445 515 L 445 514 L 447 512 L 449 514 L 448 515 L 450 513 L 451 514 L 451 513 L 450 512 L 451 511 L 452 511 L 453 510 L 453 509 L 454 508 L 455 509 L 455 510 L 456 510 L 457 511 L 456 512 L 455 512 L 454 513 L 455 513 L 456 514 L 455 515 L 455 516 L 456 517 L 455 518 L 454 518 L 453 519 L 452 518 L 452 517 L 453 516 L 453 515 L 453 516 L 452 517 L 452 518 L 451 519 L 450 519 L 449 518 L 448 519 L 448 520 L 449 521 L 450 521 L 451 520 L 456 520 L 457 521 L 458 520 L 459 520 L 460 519 L 460 518 L 458 518 L 457 517 L 458 516 L 462 516 L 463 515 L 464 515 L 465 514 L 466 515 L 466 514 L 467 513 L 468 514 L 469 514 L 470 513 L 471 513 L 472 514 L 474 512 L 475 513 L 475 515 L 476 515 L 477 514 L 478 515 L 483 515 L 483 514 L 484 513 L 484 511 L 486 509 L 489 509 L 489 508 L 490 507 L 489 506 L 491 504 L 490 503 L 491 502 L 492 502 L 492 501 L 491 500 L 491 499 L 492 498 L 492 497 L 491 496 L 492 495 L 491 495 L 490 494 L 492 492 L 493 493 L 494 493 L 493 492 L 495 490 L 496 490 L 498 488 L 499 488 L 500 489 L 503 489 L 504 490 L 505 489 L 506 489 L 507 490 L 507 491 L 505 493 L 505 494 L 506 495 L 507 495 L 508 496 L 509 495 L 510 496 L 511 496 L 512 497 L 512 498 L 514 496 L 515 497 L 517 497 L 519 499 L 519 498 L 520 497 L 521 498 L 521 501 L 522 502 L 522 504 L 521 505 L 522 506 L 524 506 L 525 507 L 525 509 L 526 510 L 525 511 L 525 514 L 521 518 L 520 517 L 519 518 L 518 517 L 518 518 L 517 519 L 515 519 L 515 521 L 516 522 L 515 523 L 514 523 L 513 522 L 513 520 L 513 521 L 512 522 L 510 522 L 509 521 L 508 522 L 508 523 L 509 524 L 508 525 L 507 525 L 505 527 L 505 528 L 504 529 L 503 529 L 503 530 L 502 531 L 501 531 L 501 532 L 502 533 L 502 534 L 501 535 L 502 536 L 501 537 L 501 539 L 503 541 L 502 542 L 507 547 L 506 548 L 508 548 L 510 550 L 511 550 L 512 549 L 513 549 L 515 547 L 514 546 L 515 545 L 514 544 L 516 542 L 517 543 L 517 544 L 518 545 L 518 543 L 517 543 L 516 542 L 515 542 L 514 543 L 513 542 L 513 541 L 515 539 L 516 540 L 517 539 L 521 543 L 520 544 L 520 546 L 521 547 L 522 546 L 524 546 L 525 547 L 524 548 L 524 549 L 526 551 L 526 552 L 527 552 L 528 553 L 527 554 L 527 555 L 529 557 L 529 559 L 530 560 L 531 560 L 532 561 L 531 562 L 533 564 L 533 563 L 534 562 L 535 562 L 536 563 L 535 564 L 535 565 L 536 565 L 538 567 L 538 568 L 540 568 L 541 567 L 542 568 L 542 567 L 543 566 L 544 566 L 544 564 L 543 563 L 543 562 L 543 563 L 542 564 L 540 562 L 540 561 L 542 559 L 541 558 L 542 557 L 542 556 L 541 555 L 542 554 L 544 554 L 543 553 L 545 551 L 546 552 L 547 552 L 548 553 L 547 554 L 546 554 L 546 555 L 548 557 L 548 559 L 547 560 L 546 559 L 544 559 L 544 560 L 545 561 L 545 562 L 546 563 L 547 563 L 548 562 L 549 562 L 550 563 L 550 562 L 551 561 L 553 561 L 553 559 L 555 557 L 556 558 L 557 558 L 558 559 L 558 558 L 559 557 L 559 555 L 561 553 L 561 551 L 562 550 L 563 550 L 565 548 L 564 547 L 563 547 L 562 546 L 562 547 L 561 548 L 560 547 L 560 545 L 562 543 L 564 545 L 565 545 L 566 546 L 565 545 L 567 543 L 568 544 L 569 543 L 569 542 L 570 541 L 570 540 L 572 538 L 571 537 L 571 535 L 570 534 L 571 533 L 574 533 L 576 531 L 576 528 L 575 527 L 575 526 L 576 525 L 577 526 L 576 525 L 576 524 L 575 523 L 576 522 L 576 521 L 575 520 L 572 520 L 571 519 L 571 518 L 570 518 L 569 519 L 568 519 L 567 518 L 567 517 L 566 516 L 565 517 L 563 515 L 562 515 L 561 516 L 560 516 L 559 515 L 558 515 L 556 517 L 556 518 L 555 519 L 553 519 L 552 518 L 553 517 L 554 517 L 552 517 L 551 516 L 550 516 L 549 515 L 549 514 L 547 514 L 546 513 L 546 512 L 544 510 L 545 509 L 545 508 L 541 508 L 540 507 L 541 506 L 540 506 L 539 505 L 538 505 L 537 504 L 536 505 L 534 503 L 533 504 L 531 504 L 530 503 L 532 501 L 532 500 L 531 499 L 531 498 L 532 497 L 531 496 L 532 495 L 535 495 L 536 496 L 537 495 L 538 495 L 539 496 L 539 497 L 540 498 L 543 498 L 544 499 L 544 500 L 545 499 L 546 500 L 546 501 L 547 500 L 548 501 L 549 500 L 550 501 L 550 500 L 551 499 L 555 499 L 556 500 L 556 501 L 555 502 L 554 501 L 555 502 L 554 503 L 554 504 L 556 506 L 557 505 L 558 506 L 560 506 L 563 503 L 564 504 L 565 503 L 566 503 L 567 504 L 567 505 L 568 505 L 569 506 L 568 507 L 570 507 L 572 509 L 575 509 L 576 510 L 577 510 L 579 512 L 580 512 L 581 513 L 582 513 L 583 514 L 583 515 L 585 517 L 586 517 L 587 516 L 588 516 L 589 517 L 588 518 L 589 519 L 589 520 L 590 521 L 591 521 L 592 522 L 591 523 L 589 523 L 590 524 L 590 525 L 592 525 L 593 524 L 594 525 L 594 526 L 595 525 L 596 526 L 596 528 L 597 528 L 598 529 L 597 530 L 598 531 L 598 532 L 599 532 L 600 533 L 600 534 L 601 533 L 602 534 L 604 534 L 605 533 L 607 533 L 608 534 L 609 534 L 610 535 L 610 536 L 611 535 L 612 535 L 613 534 L 614 534 L 614 531 L 615 530 L 615 529 L 614 528 L 614 527 L 613 526 L 614 525 L 614 523 L 615 522 L 616 522 L 615 521 L 615 519 L 616 518 L 617 519 L 617 520 L 618 520 L 618 519 L 617 518 L 618 517 L 619 517 L 620 518 L 620 519 L 621 518 L 623 518 L 624 517 L 624 516 L 625 515 L 626 515 L 626 514 L 627 513 L 627 512 L 628 511 L 628 510 L 627 509 L 628 508 L 627 507 L 627 506 L 626 505 L 627 504 L 626 505 L 625 504 L 625 503 L 624 502 L 625 501 L 624 500 L 624 499 L 623 500 L 621 498 L 622 497 L 623 497 L 622 496 L 622 495 L 621 494 L 621 493 L 619 493 L 618 492 L 619 491 L 621 491 L 621 489 L 620 488 L 619 488 L 618 487 L 618 486 L 619 485 L 620 486 L 620 485 L 619 484 L 619 483 L 618 482 L 618 481 L 619 480 L 621 482 L 621 483 L 622 483 L 621 482 L 621 481 L 622 480 L 623 481 L 622 480 L 624 478 L 623 477 L 624 476 L 625 476 L 626 477 L 626 476 L 627 475 L 628 475 L 630 473 L 632 473 L 633 472 L 633 471 L 632 470 L 633 469 L 633 463 L 632 463 L 631 462 L 631 461 L 630 460 L 630 459 L 627 456 L 627 455 L 626 455 L 623 452 L 623 450 L 622 450 L 621 449 L 622 448 L 620 448 L 619 449 L 618 448 L 617 449 L 616 448 L 615 448 L 614 449 L 612 447 L 608 447 L 607 446 L 607 445 L 608 444 L 608 443 L 609 442 L 608 443 L 606 441 L 607 440 L 609 440 L 610 439 L 614 439 L 614 438 L 615 437 L 615 434 L 616 433 L 619 433 L 620 434 L 619 433 L 620 432 L 623 432 L 623 431 L 624 430 L 624 429 L 623 428 L 623 427 L 624 426 L 625 427 L 625 426 L 626 425 L 625 424 L 626 423 L 628 423 L 628 422 L 629 421 L 628 420 L 628 419 L 629 418 L 630 419 L 631 418 L 632 419 L 632 418 L 631 417 L 633 415 L 634 415 L 634 414 L 633 413 L 633 412 L 634 411 L 635 411 L 635 410 L 636 409 L 636 406 L 637 405 L 638 406 L 639 405 L 640 405 L 641 404 L 642 405 L 643 404 L 644 404 L 645 405 L 647 405 L 648 404 L 650 406 L 651 406 L 653 408 L 654 408 L 655 409 L 657 409 L 658 410 L 658 411 L 657 412 L 656 412 L 657 413 L 659 413 L 660 412 L 661 413 L 662 413 L 663 414 L 661 416 L 660 415 L 660 416 L 662 416 L 662 415 L 663 414 L 664 415 L 664 418 L 663 419 L 662 419 L 661 418 L 659 418 L 659 419 L 657 421 L 658 422 L 658 424 L 660 426 L 661 426 L 662 427 L 662 428 L 662 427 L 663 426 L 664 427 L 665 427 L 666 426 L 667 426 L 668 425 L 668 424 L 669 423 L 668 422 L 669 421 L 669 420 L 670 419 L 671 419 L 672 418 L 672 417 L 671 417 L 669 415 L 670 414 L 671 414 L 672 415 L 673 414 L 672 413 L 673 412 L 674 412 L 674 411 L 675 410 L 674 409 L 675 408 L 675 407 L 676 406 L 675 405 L 675 402 L 674 401 L 674 395 L 673 394 L 674 393 L 674 391 L 673 390 L 674 389 L 672 387 L 672 386 L 670 388 L 669 387 L 669 386 L 670 385 L 669 384 L 670 383 L 669 383 L 668 382 L 669 381 L 668 381 L 668 382 L 666 384 L 664 382 L 665 381 L 666 381 L 666 380 L 667 379 L 668 379 L 669 378 L 668 377 L 669 376 L 668 375 L 668 376 L 667 377 L 666 376 L 666 374 L 667 373 L 669 373 L 668 372 L 669 371 L 667 371 L 666 370 L 666 369 L 667 368 L 668 369 L 670 369 L 667 366 L 667 365 L 668 364 L 669 365 L 671 365 L 672 364 L 672 363 L 673 362 L 673 361 L 674 360 L 675 361 L 675 362 L 676 362 L 677 363 L 676 364 L 677 363 L 678 364 L 680 364 L 680 363 L 681 362 L 683 362 L 685 360 L 686 360 L 687 359 L 686 359 L 684 357 L 685 356 L 684 355 L 683 356 L 682 355 L 678 355 L 677 356 L 676 355 L 675 355 L 675 356 L 674 357 L 672 357 L 672 358 L 670 360 L 669 360 L 670 361 L 669 362 L 665 362 L 664 363 L 663 363 L 662 362 L 661 362 L 660 361 L 660 362 L 659 363 L 658 362 L 658 361 L 657 362 L 656 361 L 656 362 L 655 363 L 654 362 L 652 364 L 651 363 L 651 361 L 650 360 L 651 359 L 648 359 L 647 358 L 646 358 L 645 359 L 642 359 L 641 358 L 640 358 L 639 359 L 638 358 L 638 357 L 637 358 L 636 358 L 636 359 L 635 360 L 634 360 L 633 361 L 631 361 L 630 360 L 631 359 L 632 359 L 634 357 L 634 356 L 633 356 L 632 357 L 631 356 L 631 355 L 629 353 L 629 354 L 628 355 L 627 354 L 627 349 L 626 348 L 626 347 L 624 345 L 624 344 L 623 343 L 623 340 L 622 339 L 623 338 L 621 336 L 622 335 L 622 334 L 621 333 L 620 333 L 619 332 L 620 331 L 619 330 L 619 326 L 617 324 L 617 323 L 618 322 L 617 321 L 617 319 L 618 318 L 619 319 L 619 317 L 618 317 L 617 316 L 618 315 L 619 315 L 620 314 L 621 314 L 621 313 L 623 311 L 622 310 L 623 309 L 622 308 L 622 307 L 623 306 L 621 304 L 622 303 L 621 302 L 621 301 L 620 300 L 620 297 L 621 296 L 622 296 L 622 293 L 621 292 L 621 291 L 619 289 L 616 292 L 617 293 L 615 295 L 615 296 L 614 297 L 613 296 L 613 298 L 611 300 L 610 300 L 609 301 L 608 301 L 607 300 L 606 301 L 605 301 L 604 302 L 603 301 L 603 300 L 602 300 L 601 301 L 600 301 L 599 300 L 599 299 L 598 299 L 598 300 L 596 302 L 595 302 L 595 303 L 596 304 L 596 305 L 595 306 L 594 305 L 593 305 L 592 304 L 593 303 L 593 302 L 592 301 L 593 300 L 591 300 L 590 299 L 591 298 L 588 295 L 588 294 L 587 295 L 586 294 L 586 293 L 587 292 L 586 291 L 588 289 L 589 290 L 590 289 L 591 289 L 591 288 L 592 287 L 591 288 L 590 287 L 590 286 L 591 285 L 592 285 L 593 284 L 594 285 L 594 287 L 595 287 L 596 288 L 597 287 L 598 288 L 599 288 L 598 287 L 599 286 L 604 286 L 605 287 L 604 286 L 605 285 L 607 285 L 608 284 L 607 283 L 608 282 L 610 282 L 611 283 L 610 284 L 613 281 L 614 282 L 613 281 L 614 280 L 615 280 L 614 279 L 615 278 L 616 278 L 616 277 L 615 277 L 614 276 L 616 274 L 617 275 L 615 273 L 616 272 L 616 265 L 615 265 L 614 264 L 614 262 L 613 262 L 612 261 L 611 261 L 610 260 L 609 261 L 606 258 L 604 258 L 603 257 L 602 257 L 601 256 L 601 255 L 602 254 L 603 254 L 603 253 L 605 251 L 606 252 L 608 250 L 610 250 L 609 249 L 609 248 L 611 246 L 610 247 L 609 246 L 609 244 L 610 243 L 611 244 L 610 243 L 611 242 L 610 242 L 609 241 L 609 239 L 607 239 L 605 241 L 605 243 L 603 245 L 604 246 L 602 248 L 601 247 L 601 248 L 602 248 L 603 249 L 603 250 L 602 251 L 600 251 L 601 252 L 599 254 L 598 254 L 598 255 L 596 257 L 594 257 L 593 258 L 592 258 L 592 261 L 591 262 L 590 261 L 589 261 L 588 262 L 587 262 L 587 263 L 586 264 L 586 265 L 585 266 L 585 268 L 584 269 L 584 270 L 583 271 L 582 271 L 582 274 L 583 275 L 583 276 L 584 277 L 583 278 L 583 279 L 584 280 L 584 281 L 585 282 L 585 285 L 586 286 L 585 287 L 585 288 L 586 289 L 586 290 L 584 292 L 582 292 L 581 293 L 580 292 L 578 294 L 577 294 L 575 296 L 574 295 L 573 296 L 572 295 L 572 294 L 571 294 L 570 293 L 571 292 L 568 289 L 568 288 L 567 287 L 569 285 L 567 283 L 567 281 L 568 280 L 569 281 L 570 280 L 571 281 L 572 280 L 571 279 L 572 278 L 571 277 L 572 276 L 570 274 L 571 273 L 571 272 L 570 272 L 569 273 L 568 272 L 566 272 L 565 271 L 563 271 L 562 272 L 561 271 L 559 271 L 558 272 L 557 272 L 556 271 L 556 269 L 555 270 L 550 265 L 550 262 L 549 261 L 550 260 L 549 259 L 549 253 L 550 252 L 549 251 L 550 250 L 551 250 L 552 249 L 551 250 L 550 249 L 550 247 L 549 246 L 550 245 L 551 245 L 552 246 L 550 244 L 551 243 L 551 242 L 552 241 L 551 240 L 552 239 L 551 238 L 552 237 L 551 237 L 549 235 L 548 236 L 547 235 L 546 236 L 545 236 L 545 238 L 546 239 L 546 240 L 545 241 L 545 245 L 547 245 L 548 246 L 547 247 L 546 247 L 545 248 L 546 249 L 545 250 L 544 250 L 544 251 L 543 252 L 543 253 L 542 254 L 541 253 L 541 254 L 539 256 L 539 257 L 540 258 L 538 260 L 537 259 L 536 260 L 535 259 L 535 258 L 534 257 L 533 258 L 531 256 L 530 257 L 529 257 L 529 259 L 528 260 L 528 261 L 527 262 L 528 263 L 527 264 L 527 265 L 526 266 L 529 269 L 530 269 L 531 270 L 531 271 L 530 272 L 530 274 L 529 275 L 528 274 L 529 275 L 528 276 L 529 277 L 528 278 L 527 278 L 526 277 L 524 279 L 522 279 L 520 281 L 520 283 L 518 285 L 518 286 L 517 287 L 519 287 L 520 288 L 519 289 L 521 291 L 521 292 L 522 291 L 523 291 L 524 290 L 525 291 L 526 290 L 527 290 L 528 289 L 529 290 L 530 289 L 531 290 L 531 291 L 534 294 L 533 295 L 532 295 L 531 294 L 532 295 L 533 295 L 534 296 L 533 297 L 535 299 L 536 298 L 537 299 L 537 300 L 538 300 L 539 301 L 538 302 L 534 302 L 534 303 L 533 304 L 532 303 L 532 302 L 529 302 L 528 301 L 527 302 L 526 302 L 525 301 L 523 303 L 522 302 L 521 303 L 520 303 L 519 302 L 521 300 L 522 300 L 521 300 L 520 299 L 518 299 L 518 302 L 517 303 L 514 303 L 515 304 L 515 305 L 514 306 L 513 305 L 512 306 L 511 305 L 510 305 L 509 304 L 509 302 L 510 301 L 511 301 L 512 302 L 513 301 L 514 301 L 513 301 L 512 300 L 512 298 L 511 298 L 506 293 L 507 292 L 508 292 L 507 291 L 508 290 L 507 289 L 507 288 L 508 287 L 509 288 L 507 286 L 509 284 L 508 283 L 509 282 L 509 281 L 508 282 L 506 280 L 505 281 L 504 280 L 504 279 L 503 280 L 501 280 L 501 281 L 498 284 L 496 282 L 496 281 L 495 280 L 496 279 L 497 279 L 496 278 L 497 277 L 499 277 L 497 275 L 497 274 L 497 277 L 496 278 L 495 277 L 495 276 L 494 276 L 493 275 L 493 274 L 494 273 L 495 274 L 493 272 L 493 271 L 494 270 L 495 270 L 496 271 L 497 271 L 498 272 L 499 272 L 501 274 L 502 273 L 503 274 L 503 272 L 504 271 L 505 271 L 506 270 L 507 270 L 508 269 L 509 270 L 509 271 L 508 272 L 507 272 L 508 272 L 509 273 L 508 274 L 507 274 L 507 275 L 506 276 L 505 275 L 505 274 L 505 275 L 506 276 L 505 277 L 506 276 L 508 278 L 508 279 L 510 277 L 510 276 L 509 275 L 510 274 L 511 274 L 512 275 L 511 274 L 513 272 L 514 272 L 514 271 L 515 270 L 516 270 L 517 269 L 516 268 L 518 266 L 518 265 L 517 265 L 516 264 L 517 263 L 517 262 L 516 263 L 515 262 L 514 263 L 513 262 L 512 262 L 510 264 L 509 263 L 508 264 L 507 264 L 507 265 L 506 266 L 505 265 L 505 263 L 504 264 L 503 264 L 502 265 L 500 265 L 498 263 L 497 263 L 495 261 L 496 260 L 498 260 L 497 259 L 498 258 L 496 256 L 496 255 L 497 254 L 499 254 L 499 252 L 498 251 L 499 250 L 500 250 L 500 249 L 502 247 L 502 246 L 501 245 L 504 242 L 504 240 L 506 238 L 505 238 L 503 236 L 504 235 L 503 236 L 502 235 L 501 236 "></path>
        <path fill="none" stroke="#fa00fa" stroke-width="3" d="M 656 450 L 655 451 L 654 451 L 654 452 L 655 453 L 655 454 L 654 455 L 653 455 L 651 457 L 651 460 L 649 462 L 649 463 L 650 464 L 650 466 L 646 470 L 645 470 L 646 471 L 646 472 L 648 472 L 649 471 L 650 471 L 651 472 L 649 474 L 646 474 L 645 475 L 645 476 L 644 477 L 643 476 L 643 475 L 643 477 L 642 478 L 643 479 L 642 480 L 641 480 L 640 479 L 639 479 L 638 480 L 639 481 L 638 482 L 637 482 L 634 485 L 633 484 L 633 485 L 634 486 L 634 487 L 633 488 L 632 487 L 631 487 L 630 488 L 632 490 L 631 491 L 632 491 L 634 493 L 634 496 L 636 498 L 636 500 L 637 501 L 636 502 L 637 502 L 638 503 L 639 503 L 640 504 L 643 504 L 643 503 L 644 502 L 645 503 L 645 505 L 645 504 L 646 503 L 647 504 L 647 505 L 647 504 L 648 503 L 649 503 L 650 504 L 651 504 L 652 505 L 654 505 L 655 504 L 660 504 L 659 503 L 658 503 L 657 502 L 658 501 L 660 501 L 661 502 L 662 502 L 663 503 L 662 504 L 663 503 L 664 504 L 665 503 L 671 503 L 674 500 L 675 501 L 676 501 L 677 500 L 677 499 L 678 498 L 679 499 L 679 500 L 680 501 L 682 501 L 684 503 L 684 504 L 684 503 L 685 502 L 686 503 L 686 504 L 687 505 L 691 505 L 691 503 L 693 501 L 691 499 L 690 499 L 689 500 L 688 499 L 688 498 L 687 498 L 686 497 L 685 498 L 685 499 L 684 500 L 683 499 L 683 497 L 682 497 L 681 498 L 680 497 L 680 495 L 679 495 L 677 497 L 676 497 L 674 499 L 673 498 L 671 498 L 670 499 L 669 498 L 670 499 L 669 500 L 668 500 L 667 499 L 666 499 L 665 500 L 663 498 L 662 499 L 660 497 L 659 497 L 658 496 L 658 495 L 656 495 L 655 496 L 654 496 L 654 498 L 653 499 L 652 498 L 652 497 L 652 498 L 650 500 L 649 500 L 648 499 L 648 498 L 643 498 L 641 496 L 641 495 L 639 493 L 639 492 L 638 491 L 640 489 L 640 487 L 639 486 L 640 485 L 641 485 L 643 483 L 643 481 L 644 480 L 645 481 L 646 480 L 647 480 L 648 479 L 648 477 L 649 476 L 652 476 L 653 477 L 652 478 L 653 477 L 655 479 L 658 476 L 659 477 L 659 478 L 658 479 L 658 481 L 659 482 L 659 483 L 660 482 L 661 483 L 661 485 L 663 485 L 664 486 L 665 486 L 666 487 L 667 487 L 668 486 L 667 485 L 668 484 L 669 484 L 669 483 L 671 481 L 671 480 L 670 479 L 672 477 L 672 476 L 673 475 L 673 474 L 674 473 L 674 466 L 675 465 L 674 465 L 673 464 L 673 463 L 672 462 L 671 462 L 670 461 L 669 461 L 668 462 L 667 461 L 666 461 L 665 460 L 665 459 L 664 458 L 663 458 L 662 459 L 661 458 L 661 455 L 660 456 L 659 455 L 659 453 L 660 452 L 659 453 L 656 450 L 655 451 "></path>
        <path fill="none" stroke="#fa00fa" stroke-width="3" d="M 399 299 L 397 301 L 397 305 L 398 305 L 399 306 L 398 307 L 397 307 L 397 308 L 395 310 L 395 312 L 393 314 L 393 315 L 394 316 L 392 318 L 391 318 L 388 321 L 388 323 L 387 324 L 386 323 L 386 322 L 385 323 L 382 323 L 381 324 L 380 323 L 380 322 L 379 322 L 378 323 L 377 322 L 377 321 L 376 321 L 373 318 L 372 319 L 371 318 L 371 317 L 370 317 L 368 315 L 367 316 L 366 315 L 367 316 L 365 318 L 364 317 L 364 314 L 364 316 L 363 317 L 362 316 L 362 314 L 361 313 L 361 314 L 360 315 L 359 314 L 359 313 L 358 314 L 357 314 L 356 313 L 357 314 L 356 315 L 354 315 L 353 314 L 352 314 L 350 312 L 349 312 L 349 313 L 348 314 L 347 313 L 347 311 L 346 310 L 346 309 L 345 310 L 344 310 L 343 311 L 343 312 L 342 313 L 343 313 L 344 314 L 344 315 L 345 316 L 347 314 L 349 316 L 347 318 L 346 318 L 347 318 L 348 319 L 348 318 L 349 317 L 350 318 L 350 319 L 353 319 L 354 318 L 355 318 L 356 319 L 357 318 L 358 319 L 359 319 L 361 317 L 362 317 L 363 318 L 363 319 L 362 320 L 363 319 L 365 321 L 366 320 L 367 320 L 368 321 L 369 321 L 370 322 L 370 323 L 372 323 L 374 325 L 375 325 L 377 327 L 377 328 L 378 329 L 379 329 L 380 330 L 379 331 L 377 331 L 376 332 L 376 337 L 377 338 L 375 340 L 375 341 L 376 342 L 375 343 L 374 343 L 370 347 L 369 346 L 368 347 L 367 347 L 366 348 L 365 348 L 364 347 L 364 349 L 363 350 L 363 352 L 364 352 L 365 353 L 365 355 L 366 356 L 365 357 L 366 357 L 367 358 L 367 357 L 368 356 L 369 357 L 368 356 L 368 355 L 369 354 L 369 353 L 370 352 L 371 352 L 372 353 L 372 352 L 371 351 L 372 350 L 373 350 L 374 351 L 376 351 L 377 352 L 377 354 L 378 353 L 379 353 L 381 351 L 382 351 L 382 347 L 381 346 L 380 347 L 379 346 L 379 345 L 380 344 L 380 343 L 379 342 L 378 343 L 377 342 L 377 341 L 378 340 L 379 340 L 378 340 L 377 339 L 379 337 L 380 338 L 378 336 L 379 335 L 380 335 L 381 336 L 382 336 L 382 329 L 385 326 L 386 327 L 388 325 L 390 325 L 391 326 L 391 327 L 392 326 L 394 326 L 395 327 L 396 326 L 398 328 L 398 329 L 399 329 L 400 330 L 401 329 L 402 330 L 402 331 L 403 332 L 403 335 L 402 336 L 400 336 L 399 335 L 400 334 L 399 334 L 398 335 L 398 336 L 397 337 L 396 337 L 395 338 L 395 339 L 394 340 L 393 340 L 394 341 L 396 341 L 397 342 L 397 343 L 396 344 L 395 344 L 394 343 L 394 344 L 396 346 L 399 346 L 401 348 L 403 346 L 402 345 L 403 344 L 401 342 L 402 341 L 402 340 L 401 339 L 401 337 L 402 336 L 403 337 L 403 338 L 405 340 L 404 341 L 404 342 L 405 341 L 406 342 L 406 341 L 407 340 L 407 339 L 406 339 L 405 338 L 407 336 L 408 337 L 409 336 L 408 335 L 409 334 L 409 331 L 408 330 L 406 330 L 403 327 L 403 326 L 400 323 L 399 323 L 398 322 L 399 321 L 398 320 L 398 319 L 399 318 L 399 316 L 400 315 L 401 316 L 402 315 L 403 315 L 402 314 L 404 312 L 405 313 L 405 311 L 406 310 L 405 309 L 405 308 L 406 307 L 405 306 L 405 305 L 404 304 L 405 303 L 404 302 L 404 301 L 403 301 L 401 299 L 399 299 L 397 301 "></path>
        <path fill="none" stroke="#fa00fa" stroke-width="3" d="M 663 304 L 663 305 L 662 306 L 660 306 L 660 307 L 661 308 L 661 309 L 659 311 L 658 310 L 658 309 L 657 309 L 657 310 L 658 310 L 659 311 L 659 312 L 658 313 L 657 313 L 655 311 L 654 311 L 653 310 L 652 311 L 651 310 L 649 310 L 648 311 L 647 310 L 648 311 L 648 312 L 647 313 L 646 312 L 646 314 L 645 315 L 643 315 L 642 314 L 640 316 L 635 316 L 636 317 L 636 318 L 635 319 L 632 316 L 633 317 L 632 318 L 630 318 L 630 319 L 629 320 L 629 323 L 630 324 L 630 326 L 632 328 L 632 329 L 633 330 L 632 331 L 633 332 L 633 333 L 634 334 L 633 335 L 635 337 L 635 339 L 638 339 L 639 340 L 639 341 L 638 342 L 638 344 L 641 347 L 640 348 L 639 348 L 641 350 L 643 350 L 644 349 L 644 348 L 646 346 L 645 345 L 646 344 L 645 343 L 647 341 L 645 339 L 646 338 L 645 338 L 644 337 L 644 336 L 643 335 L 644 334 L 644 333 L 643 333 L 642 332 L 642 330 L 644 328 L 643 328 L 642 327 L 642 326 L 644 324 L 643 323 L 644 322 L 644 321 L 645 320 L 645 319 L 644 319 L 643 318 L 644 317 L 647 317 L 648 318 L 649 317 L 650 317 L 650 316 L 651 315 L 652 316 L 653 316 L 653 315 L 654 314 L 655 315 L 655 316 L 659 320 L 660 320 L 661 321 L 660 322 L 661 321 L 662 321 L 663 322 L 662 323 L 663 324 L 662 325 L 661 325 L 662 325 L 663 326 L 662 327 L 663 328 L 663 329 L 662 330 L 664 332 L 664 333 L 663 334 L 664 335 L 664 336 L 659 341 L 660 342 L 658 344 L 658 345 L 656 347 L 655 346 L 654 346 L 654 347 L 652 349 L 652 351 L 653 352 L 656 352 L 656 351 L 657 350 L 658 351 L 660 349 L 661 349 L 661 348 L 662 347 L 663 348 L 664 347 L 665 348 L 666 348 L 668 346 L 668 345 L 669 344 L 669 343 L 668 342 L 668 341 L 669 340 L 668 339 L 670 337 L 671 337 L 670 336 L 671 335 L 669 333 L 669 332 L 668 331 L 668 330 L 669 329 L 668 328 L 668 327 L 669 326 L 668 325 L 669 324 L 668 323 L 668 322 L 669 321 L 667 319 L 666 319 L 665 318 L 665 317 L 664 316 L 664 315 L 665 314 L 665 312 L 666 311 L 666 310 L 668 308 L 667 307 L 668 306 L 666 304 L 663 304 L 663 305 "></path>
        <path fill="none" stroke="#fa00fa" stroke-width="3" d="M 374 457 L 373 458 L 371 458 L 370 459 L 371 460 L 370 461 L 370 463 L 371 464 L 370 465 L 370 466 L 369 467 L 370 468 L 369 469 L 370 470 L 368 472 L 368 473 L 366 475 L 367 476 L 366 477 L 366 481 L 365 482 L 366 483 L 365 484 L 366 485 L 365 486 L 366 487 L 364 489 L 364 490 L 363 491 L 363 492 L 364 493 L 364 494 L 366 496 L 366 497 L 367 497 L 369 499 L 371 499 L 372 498 L 373 498 L 375 496 L 376 497 L 378 495 L 379 495 L 380 496 L 381 495 L 383 497 L 383 498 L 384 497 L 385 498 L 385 499 L 386 498 L 387 498 L 388 499 L 388 502 L 389 502 L 391 504 L 392 503 L 395 506 L 394 507 L 394 508 L 395 508 L 396 509 L 395 510 L 395 511 L 394 512 L 395 513 L 395 514 L 396 515 L 397 515 L 398 516 L 397 517 L 398 517 L 399 518 L 403 518 L 405 516 L 405 514 L 404 513 L 404 512 L 403 511 L 403 510 L 402 510 L 401 511 L 399 511 L 398 510 L 399 509 L 400 509 L 401 508 L 400 508 L 398 506 L 398 505 L 397 505 L 395 503 L 396 502 L 394 500 L 395 499 L 395 498 L 393 498 L 391 496 L 391 495 L 387 491 L 386 491 L 385 490 L 382 490 L 381 491 L 380 491 L 379 492 L 379 493 L 377 495 L 376 494 L 376 492 L 375 491 L 374 491 L 373 492 L 369 492 L 368 491 L 369 490 L 370 490 L 371 489 L 370 489 L 369 488 L 371 486 L 372 486 L 372 483 L 371 482 L 371 481 L 370 480 L 370 479 L 369 478 L 370 477 L 371 477 L 371 475 L 372 474 L 373 475 L 375 473 L 375 471 L 376 470 L 377 471 L 376 470 L 376 469 L 377 468 L 378 468 L 379 467 L 379 466 L 378 465 L 378 464 L 377 463 L 377 462 L 376 461 L 377 460 L 374 457 L 373 458 "></path>
        <path fill="none" stroke="#fa00fa" stroke-width="3" d="M 730 363 L 731 364 L 730 365 L 727 365 L 727 366 L 726 367 L 726 369 L 725 370 L 723 370 L 723 371 L 722 372 L 721 371 L 719 371 L 718 372 L 717 371 L 716 372 L 716 373 L 715 374 L 713 374 L 712 375 L 712 376 L 711 377 L 710 376 L 710 375 L 709 376 L 709 378 L 708 379 L 707 378 L 707 374 L 706 373 L 705 373 L 704 374 L 703 373 L 703 371 L 702 371 L 701 372 L 700 371 L 698 373 L 697 373 L 696 374 L 695 373 L 693 375 L 692 374 L 691 374 L 691 375 L 690 376 L 689 375 L 687 375 L 686 374 L 685 375 L 685 378 L 686 379 L 689 379 L 690 380 L 690 381 L 691 382 L 691 384 L 690 385 L 689 384 L 689 383 L 689 384 L 690 385 L 690 388 L 691 389 L 691 390 L 692 389 L 694 391 L 694 392 L 695 393 L 696 392 L 697 393 L 697 397 L 698 396 L 699 396 L 700 397 L 698 399 L 697 399 L 698 399 L 699 400 L 700 400 L 701 401 L 700 402 L 700 403 L 701 403 L 702 404 L 701 405 L 702 406 L 703 406 L 704 407 L 705 406 L 707 406 L 707 404 L 706 403 L 707 402 L 707 400 L 706 399 L 706 398 L 705 397 L 704 397 L 700 393 L 700 392 L 699 391 L 699 390 L 698 390 L 696 388 L 696 387 L 694 385 L 695 384 L 696 384 L 695 383 L 695 382 L 694 381 L 694 380 L 693 379 L 694 378 L 698 378 L 697 378 L 696 377 L 695 377 L 694 376 L 694 375 L 695 374 L 696 374 L 697 375 L 698 374 L 699 374 L 700 375 L 699 376 L 702 376 L 703 375 L 707 379 L 706 380 L 708 380 L 708 379 L 709 378 L 710 378 L 712 380 L 713 379 L 714 380 L 714 381 L 715 381 L 717 379 L 717 377 L 719 375 L 720 376 L 722 374 L 723 374 L 724 375 L 725 374 L 726 374 L 726 373 L 727 372 L 728 372 L 732 368 L 733 368 L 734 367 L 733 366 L 733 364 L 732 364 L 731 363 L 730 363 L 731 364 "></path>
        <path fill="none" stroke="#fa00fa" stroke-width="3" d="M 554 217 L 553 218 L 551 218 L 550 219 L 547 219 L 548 220 L 548 221 L 547 222 L 546 221 L 543 221 L 544 221 L 545 222 L 545 223 L 544 224 L 543 223 L 542 223 L 542 224 L 541 225 L 540 224 L 538 224 L 537 225 L 535 225 L 534 226 L 533 226 L 532 227 L 531 226 L 531 225 L 530 225 L 529 224 L 527 224 L 526 223 L 525 223 L 525 224 L 524 225 L 523 224 L 522 224 L 521 223 L 520 223 L 518 225 L 518 226 L 517 227 L 517 228 L 518 229 L 519 229 L 520 230 L 519 231 L 521 231 L 521 230 L 522 229 L 523 230 L 523 231 L 524 232 L 526 232 L 527 231 L 528 232 L 529 232 L 530 231 L 534 231 L 535 230 L 536 231 L 538 229 L 539 229 L 542 226 L 543 227 L 544 226 L 545 226 L 545 225 L 546 224 L 548 224 L 549 223 L 550 223 L 551 224 L 552 223 L 553 224 L 554 223 L 555 224 L 556 224 L 558 226 L 558 227 L 559 228 L 559 229 L 560 230 L 561 229 L 562 230 L 562 231 L 563 231 L 564 232 L 564 236 L 563 237 L 562 236 L 562 235 L 561 234 L 561 233 L 561 237 L 560 238 L 561 238 L 562 239 L 561 240 L 561 242 L 562 242 L 564 244 L 563 245 L 563 246 L 565 246 L 566 245 L 567 245 L 568 244 L 567 243 L 567 242 L 568 241 L 566 239 L 567 238 L 566 237 L 567 236 L 568 236 L 566 234 L 567 233 L 567 232 L 568 231 L 567 231 L 566 230 L 566 229 L 567 228 L 565 226 L 563 226 L 562 225 L 563 224 L 563 222 L 562 222 L 561 221 L 560 221 L 558 219 L 557 219 L 556 218 L 555 218 L 554 217 L 553 218 "></path>
        <path fill="none" stroke="#fa00fa" stroke-width="3" d="M 628 252 L 626 254 L 624 254 L 625 254 L 626 255 L 624 257 L 624 258 L 625 259 L 627 259 L 628 258 L 629 259 L 630 259 L 631 258 L 632 259 L 633 258 L 634 259 L 634 260 L 636 260 L 637 259 L 639 259 L 640 260 L 640 262 L 639 263 L 638 262 L 640 264 L 641 263 L 642 264 L 642 265 L 643 266 L 643 267 L 644 267 L 645 268 L 644 269 L 647 272 L 647 273 L 648 274 L 649 273 L 650 274 L 652 274 L 653 275 L 653 276 L 654 277 L 655 277 L 656 278 L 658 278 L 659 279 L 660 278 L 661 279 L 662 279 L 663 280 L 663 281 L 664 281 L 666 283 L 667 283 L 668 284 L 668 285 L 669 285 L 670 286 L 670 287 L 671 286 L 672 287 L 672 290 L 673 290 L 674 291 L 676 289 L 678 289 L 678 288 L 679 287 L 679 286 L 678 286 L 677 285 L 678 284 L 677 285 L 676 285 L 675 284 L 676 283 L 675 284 L 674 284 L 673 283 L 674 282 L 673 281 L 672 282 L 672 283 L 671 284 L 670 283 L 670 281 L 669 281 L 668 280 L 668 279 L 669 278 L 668 277 L 668 278 L 667 279 L 666 278 L 666 276 L 665 275 L 664 275 L 663 274 L 662 274 L 661 273 L 662 272 L 660 272 L 659 271 L 659 272 L 658 273 L 657 272 L 657 271 L 657 272 L 656 273 L 655 272 L 655 271 L 652 268 L 652 267 L 651 266 L 652 267 L 651 268 L 649 268 L 648 267 L 649 266 L 648 265 L 648 262 L 647 262 L 645 260 L 645 259 L 643 257 L 642 257 L 641 256 L 641 255 L 640 255 L 639 256 L 638 255 L 636 255 L 635 254 L 633 256 L 632 255 L 630 255 L 629 254 L 630 253 L 631 253 L 631 252 L 630 253 L 629 252 L 628 252 L 626 254 "></path>
        <path fill="none" stroke="#fa00fa" stroke-width="3" d="M 692 418 L 693 419 L 692 420 L 691 420 L 690 419 L 688 419 L 688 420 L 687 421 L 687 422 L 690 425 L 690 426 L 692 426 L 693 425 L 694 426 L 695 425 L 696 426 L 696 427 L 697 428 L 698 428 L 699 429 L 700 429 L 701 428 L 702 429 L 703 429 L 706 432 L 706 434 L 707 434 L 708 435 L 708 437 L 704 441 L 704 442 L 703 443 L 703 444 L 704 444 L 705 445 L 704 446 L 703 446 L 702 447 L 702 449 L 703 450 L 702 451 L 701 451 L 700 452 L 698 452 L 698 453 L 697 454 L 697 455 L 696 456 L 695 455 L 695 453 L 694 453 L 693 452 L 692 453 L 691 453 L 690 452 L 689 453 L 688 453 L 688 454 L 687 455 L 686 455 L 685 456 L 685 457 L 686 458 L 686 459 L 687 460 L 688 460 L 689 459 L 691 459 L 692 458 L 693 459 L 693 458 L 694 457 L 695 458 L 696 458 L 697 459 L 698 458 L 699 459 L 698 458 L 700 456 L 701 456 L 702 457 L 701 458 L 703 458 L 705 456 L 705 451 L 706 450 L 706 448 L 707 447 L 708 448 L 708 446 L 709 445 L 708 445 L 707 444 L 708 443 L 710 443 L 709 442 L 710 441 L 710 440 L 709 439 L 709 438 L 710 437 L 711 438 L 711 437 L 712 436 L 711 436 L 710 435 L 711 434 L 712 434 L 713 433 L 711 431 L 711 429 L 710 430 L 709 430 L 708 429 L 709 428 L 707 426 L 708 427 L 707 428 L 706 428 L 701 423 L 700 424 L 699 423 L 699 421 L 697 423 L 696 422 L 696 421 L 694 419 L 693 419 L 692 418 L 693 419 "></path>
        <path fill="none" stroke="#fa00fa" stroke-width="3" d="M 350 372 L 348 374 L 347 374 L 346 373 L 345 373 L 344 374 L 343 374 L 342 375 L 342 376 L 340 378 L 339 378 L 338 377 L 338 378 L 337 379 L 336 378 L 335 378 L 334 377 L 331 377 L 330 378 L 329 378 L 328 377 L 325 377 L 324 378 L 323 378 L 322 377 L 321 377 L 320 378 L 319 377 L 318 378 L 317 377 L 315 379 L 314 378 L 314 377 L 309 377 L 309 378 L 307 380 L 307 381 L 308 382 L 308 383 L 309 384 L 310 384 L 311 383 L 312 384 L 315 384 L 316 383 L 317 383 L 316 382 L 318 380 L 319 380 L 321 382 L 323 380 L 324 381 L 324 382 L 325 382 L 326 383 L 327 382 L 329 384 L 330 383 L 331 384 L 331 383 L 332 382 L 333 383 L 334 383 L 334 382 L 335 381 L 336 381 L 337 380 L 338 381 L 338 382 L 339 383 L 340 382 L 341 382 L 342 381 L 343 382 L 343 383 L 343 382 L 344 381 L 345 382 L 344 381 L 345 380 L 346 380 L 346 379 L 347 378 L 348 379 L 348 377 L 349 376 L 350 377 L 350 378 L 354 378 L 355 379 L 357 379 L 358 380 L 358 381 L 359 381 L 361 383 L 362 383 L 363 382 L 363 379 L 364 378 L 362 378 L 361 377 L 362 376 L 361 376 L 360 375 L 358 377 L 357 376 L 355 376 L 354 375 L 355 374 L 356 374 L 354 374 L 353 373 L 352 374 L 351 373 L 351 372 L 350 372 L 348 374 "></path>
        <path fill="none" stroke="#fa00fa" stroke-width="3" d="M 688 303 L 687 304 L 686 304 L 685 305 L 684 305 L 684 306 L 683 307 L 682 306 L 683 307 L 683 308 L 682 309 L 683 308 L 685 310 L 689 310 L 690 311 L 690 312 L 694 312 L 695 313 L 695 314 L 696 315 L 695 316 L 696 317 L 696 318 L 702 318 L 703 319 L 703 320 L 704 321 L 704 322 L 705 321 L 706 321 L 707 322 L 707 323 L 708 324 L 708 325 L 709 326 L 709 327 L 710 328 L 710 329 L 712 331 L 713 331 L 714 332 L 714 334 L 717 337 L 718 337 L 722 341 L 722 342 L 723 341 L 726 341 L 727 340 L 727 336 L 726 336 L 725 335 L 724 336 L 722 334 L 722 335 L 721 336 L 720 335 L 720 334 L 719 333 L 719 332 L 718 333 L 717 333 L 716 332 L 717 331 L 717 330 L 716 329 L 716 328 L 715 328 L 714 327 L 714 325 L 711 322 L 712 321 L 710 319 L 709 320 L 708 319 L 708 318 L 707 317 L 706 317 L 705 318 L 704 317 L 704 315 L 703 315 L 702 314 L 702 313 L 701 312 L 700 312 L 698 310 L 697 310 L 695 308 L 695 307 L 695 308 L 694 309 L 693 308 L 693 306 L 691 306 L 690 305 L 690 303 L 688 303 L 687 304 "></path>
        <path fill="none" stroke="#fa00fa" stroke-width="3" d="M 371 511 L 370 512 L 370 513 L 369 514 L 370 514 L 371 515 L 371 516 L 372 517 L 372 518 L 373 519 L 374 519 L 375 520 L 374 521 L 375 521 L 376 522 L 375 523 L 375 524 L 376 525 L 376 526 L 375 527 L 374 527 L 375 528 L 374 529 L 375 530 L 374 531 L 374 532 L 375 531 L 377 533 L 376 534 L 375 534 L 376 535 L 376 536 L 377 536 L 378 537 L 378 538 L 377 539 L 377 540 L 378 540 L 379 541 L 378 542 L 381 545 L 381 546 L 382 547 L 382 548 L 384 550 L 385 549 L 388 552 L 389 551 L 391 551 L 392 552 L 392 553 L 393 553 L 394 554 L 394 555 L 395 556 L 395 558 L 396 559 L 398 557 L 399 558 L 399 559 L 399 558 L 400 557 L 399 556 L 398 557 L 397 556 L 397 555 L 398 554 L 399 554 L 399 551 L 398 550 L 398 549 L 397 550 L 396 550 L 395 549 L 395 548 L 394 549 L 393 548 L 393 547 L 392 548 L 391 547 L 390 547 L 389 548 L 388 547 L 386 547 L 385 546 L 386 545 L 385 544 L 385 543 L 384 542 L 383 542 L 381 540 L 382 539 L 381 538 L 381 532 L 380 531 L 381 530 L 381 528 L 382 527 L 381 528 L 380 527 L 380 525 L 378 523 L 377 523 L 376 522 L 377 521 L 378 521 L 377 520 L 377 519 L 376 518 L 378 516 L 377 516 L 376 515 L 376 514 L 375 513 L 375 512 L 374 512 L 373 511 L 371 511 L 370 512 "></path>
        <path fill="none" stroke="#fa00fa" stroke-width="3" d="M 398 260 L 397 261 L 396 261 L 396 262 L 395 263 L 394 263 L 391 266 L 390 265 L 390 266 L 389 267 L 388 267 L 387 268 L 388 269 L 387 270 L 385 270 L 383 272 L 382 271 L 382 272 L 381 273 L 380 273 L 379 274 L 378 274 L 377 275 L 377 276 L 375 278 L 376 278 L 377 279 L 376 280 L 375 280 L 376 281 L 375 282 L 374 282 L 374 285 L 373 286 L 372 286 L 373 286 L 374 287 L 373 288 L 372 288 L 371 289 L 370 288 L 370 289 L 368 291 L 369 291 L 370 292 L 369 293 L 370 294 L 370 295 L 371 295 L 376 290 L 376 289 L 377 288 L 376 287 L 378 285 L 377 285 L 376 284 L 377 283 L 379 283 L 379 282 L 381 280 L 381 279 L 383 277 L 383 276 L 384 275 L 387 275 L 387 274 L 388 273 L 388 271 L 389 270 L 390 271 L 390 273 L 391 272 L 391 270 L 392 269 L 394 269 L 394 267 L 395 266 L 396 266 L 397 265 L 398 266 L 400 266 L 401 265 L 403 265 L 404 264 L 404 262 L 402 260 L 401 261 L 400 260 L 400 261 L 399 262 L 398 261 L 398 260 L 397 261 "></path>
        <path fill="none" stroke="#fa00fa" stroke-width="3" d="M 421 202 L 420 203 L 420 206 L 421 207 L 422 207 L 424 209 L 424 211 L 425 210 L 426 211 L 426 212 L 427 211 L 428 212 L 428 213 L 429 212 L 431 214 L 430 215 L 430 216 L 431 215 L 434 215 L 435 216 L 435 217 L 436 216 L 437 216 L 439 218 L 442 218 L 443 219 L 444 218 L 447 221 L 449 221 L 450 222 L 452 222 L 453 223 L 454 223 L 455 224 L 456 223 L 457 223 L 457 219 L 456 218 L 456 217 L 455 217 L 453 215 L 452 215 L 451 214 L 451 215 L 450 216 L 449 215 L 449 214 L 449 216 L 448 217 L 447 216 L 447 215 L 445 213 L 440 213 L 439 212 L 437 212 L 436 211 L 435 211 L 434 212 L 431 209 L 430 209 L 429 210 L 427 208 L 428 207 L 427 208 L 426 207 L 426 206 L 425 205 L 426 204 L 425 204 L 423 202 L 421 202 L 420 203 "></path>
        <path fill="none" stroke="#fa00fa" stroke-width="3" d="M 589 577 L 588 578 L 587 578 L 587 581 L 586 582 L 585 581 L 586 582 L 586 586 L 588 586 L 589 587 L 589 588 L 590 587 L 592 589 L 591 590 L 593 592 L 594 592 L 595 593 L 595 594 L 596 595 L 597 594 L 600 597 L 601 597 L 602 598 L 601 599 L 603 601 L 602 602 L 603 603 L 603 604 L 604 605 L 604 606 L 603 607 L 603 609 L 602 610 L 601 610 L 601 611 L 600 612 L 600 613 L 599 614 L 598 614 L 597 615 L 597 616 L 595 618 L 596 618 L 598 620 L 600 620 L 602 618 L 602 615 L 600 615 L 599 614 L 600 613 L 602 613 L 603 612 L 604 612 L 605 611 L 606 612 L 606 611 L 607 610 L 606 610 L 605 609 L 606 608 L 607 608 L 605 608 L 604 607 L 605 606 L 606 606 L 606 604 L 605 604 L 604 603 L 606 601 L 606 599 L 605 598 L 606 597 L 606 595 L 604 595 L 603 594 L 602 594 L 601 593 L 600 593 L 599 592 L 600 593 L 599 594 L 598 594 L 597 593 L 597 591 L 598 590 L 597 590 L 596 589 L 596 588 L 595 588 L 594 587 L 594 586 L 592 584 L 591 584 L 590 583 L 590 582 L 591 581 L 591 580 L 590 579 L 590 578 L 589 577 L 588 578 "></path>
        <path fill="none" stroke="#fa00fa" stroke-width="3" d="M 588 208 L 588 209 L 587 210 L 588 211 L 588 212 L 589 213 L 589 215 L 590 216 L 589 217 L 590 218 L 592 218 L 593 219 L 592 220 L 594 220 L 595 219 L 596 220 L 596 221 L 597 222 L 598 222 L 599 223 L 599 224 L 602 224 L 603 225 L 601 227 L 602 228 L 601 229 L 601 231 L 602 230 L 603 231 L 605 231 L 606 230 L 607 230 L 606 229 L 607 228 L 606 227 L 607 226 L 607 225 L 605 225 L 604 224 L 603 225 L 602 224 L 602 223 L 601 222 L 601 221 L 594 214 L 593 214 L 592 213 L 593 212 L 593 209 L 592 210 L 590 208 L 588 208 L 588 209 "></path>
        <path fill="none" stroke="#fa00fa" stroke-width="3" d="M 536 156 L 536 157 L 535 158 L 536 159 L 536 160 L 537 160 L 538 161 L 537 162 L 536 162 L 536 165 L 537 166 L 537 167 L 538 168 L 538 170 L 539 171 L 541 169 L 541 168 L 542 167 L 542 164 L 540 162 L 539 162 L 538 161 L 539 160 L 540 160 L 540 159 L 538 157 L 539 156 L 536 156 L 536 157 "></path>
        <path fill="none" stroke="#fa00fa" stroke-width="3" d="M 277 378 L 276 379 L 276 380 L 275 381 L 275 384 L 276 385 L 275 386 L 276 387 L 276 388 L 277 389 L 278 389 L 280 387 L 280 386 L 281 385 L 280 384 L 281 383 L 279 381 L 280 380 L 278 378 L 277 378 L 276 379 "></path>
        <path fill="none" stroke="#fa00fa" stroke-width="3" d="M 332 539 L 331 540 L 331 541 L 330 542 L 329 542 L 329 545 L 330 545 L 331 546 L 331 547 L 332 547 L 333 546 L 334 547 L 335 547 L 336 546 L 337 546 L 337 545 L 336 544 L 336 541 L 335 540 L 335 539 L 334 540 L 333 539 L 332 539 L 331 540 "></path>
        <path fill="none" stroke="#fa00fa" stroke-width="3" d="M 762 268 L 761 269 L 759 269 L 756 272 L 757 273 L 757 274 L 758 275 L 759 275 L 760 276 L 761 275 L 761 274 L 762 273 L 763 273 L 763 271 L 764 270 L 762 268 L 761 269 "></path>
        <path fill="none" stroke="#fa00fa" stroke-width="3" d="M 753 380 L 750 383 L 750 384 L 751 385 L 751 386 L 751 385 L 752 384 L 753 385 L 753 387 L 754 386 L 755 387 L 756 387 L 757 386 L 756 385 L 757 384 L 757 382 L 755 380 L 753 380 L 750 383 "></path>
        <path fill="none" stroke="#fa00fa" stroke-width="3" d="M 490 162 L 490 166 L 491 167 L 490 168 L 491 168 L 492 169 L 492 168 L 493 167 L 494 168 L 495 168 L 496 167 L 498 167 L 497 166 L 497 165 L 496 164 L 496 163 L 495 163 L 494 164 L 493 163 L 493 162 L 492 163 L 491 162 L 490 162 L 490 166 "></path>
        <path fill="none" stroke="#fa00fa" stroke-width="3" d="M 708 593 L 706 595 L 707 596 L 706 597 L 706 598 L 707 599 L 713 599 L 713 598 L 712 597 L 712 595 L 711 594 L 711 593 L 710 594 L 709 593 L 708 593 L 706 595 "></path>
        <path fill="none" stroke="#fa00fa" stroke-width="3" d="M 767 535 L 767 538 L 766 539 L 768 541 L 767 542 L 768 543 L 769 543 L 770 544 L 771 543 L 771 541 L 770 540 L 770 539 L 771 538 L 772 539 L 771 538 L 771 535 L 767 535 L 767 538 "></path>
        <path fill="none" stroke="#fa00fa" stroke-width="3" d="M 553 710 L 552 711 L 551 711 L 550 712 L 550 715 L 551 715 L 553 717 L 555 715 L 556 716 L 555 715 L 556 714 L 557 714 L 555 712 L 555 711 L 554 711 L 553 710 L 552 711 "></path>
        <path fill="none" stroke="#fa00fa" stroke-width="3" d="M 756 591 L 753 594 L 753 595 L 754 595 L 755 596 L 757 596 L 758 597 L 759 596 L 760 596 L 760 594 L 758 592 L 759 591 L 756 591 L 753 594 "></path>
        <path fill="none" stroke="#fa00fa" stroke-width="3" d="M 768 208 L 767 209 L 766 209 L 766 211 L 765 212 L 765 213 L 767 213 L 768 212 L 770 212 L 771 213 L 773 211 L 773 210 L 772 209 L 770 209 L 769 208 L 768 208 L 767 209 "></path>
        <path fill="none" stroke="#fa00fa" stroke-width="3" d="M 490 650 L 490 651 L 489 652 L 489 654 L 490 655 L 492 655 L 493 656 L 494 656 L 495 655 L 495 654 L 494 653 L 495 652 L 493 650 L 492 651 L 491 650 L 490 650 L 490 651 "></path>
        <path fill="none" stroke="#fa00fa" stroke-width="3" d="M 275 323 L 274 324 L 273 324 L 272 325 L 271 325 L 271 326 L 270 327 L 271 328 L 270 329 L 271 329 L 272 330 L 274 328 L 275 328 L 276 327 L 277 327 L 276 326 L 276 325 L 275 324 L 276 323 L 275 323 L 274 324 "></path>
        <path fill="none" stroke="#fa00fa" stroke-width="3" d="M 767 316 L 765 318 L 763 318 L 762 319 L 763 320 L 763 321 L 764 321 L 767 324 L 768 324 L 768 322 L 767 321 L 767 318 L 768 317 L 767 316 L 765 318 "></path>
        <path fill="none" stroke="#fa00fa" stroke-width="3" d="M 381 652 L 378 655 L 380 657 L 381 657 L 382 656 L 383 656 L 384 657 L 384 656 L 385 655 L 385 653 L 382 653 L 381 652 L 378 655 "></path>
        <path fill="none" stroke="#fa00fa" stroke-width="3" d="M 657 106 L 656 107 L 654 107 L 655 108 L 655 110 L 656 111 L 657 111 L 658 112 L 659 112 L 659 111 L 660 110 L 660 108 L 659 109 L 657 107 L 657 106 L 656 107 "></path>
        <path fill="none" stroke="#fa00fa" stroke-width="3" d="M 269 154 L 268 155 L 268 157 L 269 158 L 269 160 L 270 159 L 272 159 L 272 156 L 270 154 L 269 154 L 268 155 "></path>
        <path fill="none" stroke="#fa00fa" stroke-width="3" d="M 325 214 L 325 215 L 324 216 L 323 216 L 324 217 L 323 218 L 321 218 L 322 219 L 323 219 L 324 220 L 326 220 L 326 217 L 327 216 L 327 215 L 326 215 L 325 214 L 325 215 "></path>
        <path fill="none" stroke="#fa00fa" stroke-width="3" d="M 708 112 L 708 113 L 709 114 L 707 116 L 708 116 L 710 118 L 712 116 L 712 115 L 710 113 L 711 112 L 710 113 L 709 112 L 708 112 L 708 113 "></path>
    </g>
</svg>
