<svg xmlns="http://www.w3.org/2000/svg" xmlns:xlink="http://www.w3.org/1999/xlink" version="1.1" x="0" y="0" width="1056px" height="816px">
    <g id="rootLayer" transform="translate(0.000000, 0.000000)">
        <path fill="none" stroke="#00fafa" stroke-width="3" d="M 465 447 L 466 446 L 469 446 L 470 447 L 471 447 L 474 450 L 474 453 L 473 454 L 473 455 L 472 456 L 471 456 L 469 458 L 468 458 L 467 459 L 466 459 L 465 460 L 462 460 L 461 461 L 460 461 L 458 463 L 458 464 L 457 465 L 457 466 L 458 467 L 458 468 L 459 469 L 465 469 L 467 467 L 468 467 L 469 466 L 470 466 L 471 465 L 472 465 L 473 464 L 474 464 L 479 459 L 479 458 L 480 457 L 481 457 L 482 456 L 486 456 L 489 459 L 489 460 L 490 461 L 490 462 L 489 463 L 489 464 L 488 465 L 488 466 L 485 469 L 484 469 L 483 470 L 482 470 L 481 471 L 480 471 L 479 472 L 478 472 L 477 473 L 476 473 L 475 474 L 474 474 L 473 475 L 472 475 L 471 476 L 470 476 L 469 477 L 468 477 L 467 478 L 465 478 L 464 479 L 461 479 L 460 478 L 458 478 L 453 473 L 453 472 L 451 470 L 451 468 L 450 467 L 450 461 L 451 460 L 451 459 L 453 457 L 453 456 L 460 449 L 461 449 L 463 447 "></path>
        <path fill="none" stroke="#00fafa" stroke-width="3" d="M 519 391 L 520 390 L 531 390 L 532 391 L 535 391 L 536 392 L 541 392 L 542 393 L 549 393 L 550 394 L 551 394 L 553 396 L 553 399 L 552 400 L 552 401 L 551 402 L 550 402 L 549 403 L 548 403 L 547 404 L 542 404 L 540 402 L 539 402 L 537 400 L 535 400 L 534 399 L 529 399 L 528 398 L 520 398 L 518 400 L 518 404 L 520 406 L 521 406 L 522 407 L 532 407 L 533 408 L 534 408 L 536 410 L 536 414 L 532 418 L 531 418 L 530 419 L 526 419 L 525 418 L 524 418 L 518 412 L 517 412 L 515 410 L 515 409 L 513 407 L 513 406 L 512 405 L 512 404 L 511 403 L 511 398 L 513 396 L 513 395 L 515 393 L 516 393 L 518 391 "></path>
        <path fill="none" stroke="#00fafa" stroke-width="3" d="M 481 402 L 482 401 L 483 401 L 484 402 L 486 402 L 490 406 L 490 407 L 491 408 L 491 413 L 492 414 L 492 418 L 493 419 L 493 420 L 494 421 L 494 422 L 496 424 L 496 425 L 497 425 L 502 430 L 502 431 L 503 432 L 503 433 L 502 434 L 502 435 L 500 437 L 498 437 L 497 436 L 496 436 L 495 435 L 494 435 L 490 431 L 489 431 L 483 425 L 483 420 L 484 419 L 484 418 L 485 417 L 485 412 L 483 410 L 482 410 L 481 409 L 480 410 L 479 410 L 477 412 L 477 414 L 476 415 L 476 421 L 473 424 L 467 424 L 466 423 L 465 423 L 464 422 L 464 418 L 465 417 L 465 416 L 469 412 L 469 411 L 477 403 L 478 403 L 479 402 "></path>
        <path fill="none" stroke="#00fafa" stroke-width="3" d="M 557 425 L 562 425 L 565 428 L 566 428 L 570 432 L 570 433 L 572 435 L 572 436 L 573 437 L 573 439 L 574 440 L 574 446 L 573 447 L 573 448 L 572 449 L 572 450 L 571 451 L 570 451 L 568 453 L 567 453 L 566 454 L 565 454 L 564 455 L 560 455 L 559 454 L 557 454 L 556 453 L 555 453 L 554 452 L 553 452 L 551 450 L 550 450 L 549 449 L 547 449 L 546 448 L 545 448 L 542 445 L 542 441 L 543 440 L 543 439 L 544 438 L 545 438 L 546 437 L 549 437 L 550 438 L 551 438 L 560 447 L 565 447 L 566 446 L 566 445 L 567 444 L 567 442 L 566 441 L 566 440 L 564 438 L 563 438 L 562 437 L 561 437 L 559 435 L 558 435 L 554 431 L 554 429 L 555 428 L 555 427 "></path>
        <path fill="none" stroke="#00fafa" stroke-width="3" d="M 435 432 L 436 431 L 439 431 L 442 434 L 442 435 L 441 436 L 441 437 L 437 441 L 436 441 L 426 451 L 423 451 L 422 450 L 421 450 L 419 448 L 419 447 L 418 446 L 418 445 L 417 444 L 418 443 L 418 442 L 422 438 L 423 438 L 424 437 L 425 437 L 426 436 L 427 436 L 428 435 L 429 435 L 431 433 L 432 433 L 433 432 "></path>
        <path fill="none" stroke="#00fafa" stroke-width="3" d="M 584 469 L 585 468 L 591 468 L 592 469 L 593 469 L 594 470 L 594 473 L 591 476 L 590 476 L 589 477 L 588 477 L 587 478 L 585 478 L 584 479 L 577 479 L 576 478 L 576 474 L 580 470 L 581 470 L 582 469 "></path>
        <path fill="none" stroke="#00fafa" stroke-width="3" d="M 613 432 L 618 432 L 621 435 L 621 441 L 619 443 L 617 443 L 616 444 L 615 443 L 614 443 L 611 440 L 611 438 L 610 437 L 611 436 L 611 434 "></path>
    </g>
</svg>
