<svg xmlns="http://www.w3.org/2000/svg" xmlns:xlink="http://www.w3.org/1999/xlink" version="1.1" x="0" y="0" width="1056px" height="816px">
    <g id="rootLayer" transform="translate(0.000000, 0.000000)">
        <path fill="none" stroke="#fa00fa" stroke-width="3" d="M 441 408 L 439 410 L 438 409 L 437 409 L 437 410 L 438 411 L 437 412 L 436 412 L 437 413 L 437 414 L 438 415 L 437 416 L 438 417 L 437 418 L 438 419 L 438 420 L 439 421 L 438 422 L 439 423 L 439 424 L 438 425 L 437 424 L 436 424 L 435 425 L 434 424 L 437 427 L 437 428 L 440 431 L 441 430 L 442 431 L 442 432 L 444 430 L 445 431 L 446 430 L 445 430 L 444 429 L 445 428 L 447 428 L 446 427 L 446 426 L 443 423 L 443 421 L 444 420 L 443 421 L 442 420 L 442 417 L 443 416 L 444 416 L 444 415 L 445 414 L 444 413 L 445 412 L 445 411 L 444 411 "></path>
        <path fill="none" stroke="#fa00fa" stroke-width="3" d="M 2 161 L 1 162 L 1 170 L 2 171 L 1 172 L 1 180 L 2 181 L 1 182 L 1 185 L 2 186 L 2 187 L 1 188 L 2 188 L 3 189 L 3 188 L 5 186 L 4 185 L 5 184 L 6 184 L 5 183 L 6 182 L 7 182 L 6 181 L 7 180 L 7 179 L 6 178 L 6 176 L 5 175 L 5 171 L 6 170 L 4 170 L 3 169 L 5 167 L 6 167 L 6 163 L 4 161 "></path>
        <path fill="none" stroke="#fa00fa" stroke-width="3" d="M 575 463 L 574 464 L 569 464 L 570 465 L 570 466 L 569 467 L 569 468 L 570 469 L 569 470 L 569 471 L 570 472 L 571 472 L 572 473 L 573 472 L 574 473 L 574 475 L 575 475 L 576 476 L 578 476 L 577 475 L 578 474 L 580 474 L 581 473 L 581 470 L 580 469 L 580 468 L 581 467 L 578 467 L 577 466 L 577 464 L 576 464 "></path>
        <path fill="none" stroke="#fa00fa" stroke-width="3" d="M 788 1 L 786 3 L 787 4 L 789 4 L 790 5 L 791 4 L 793 6 L 794 5 L 795 6 L 795 7 L 796 6 L 798 6 L 799 5 L 800 6 L 802 6 L 803 7 L 805 7 L 806 6 L 807 6 L 807 5 L 808 4 L 809 4 L 808 3 L 809 2 L 808 2 L 807 1 "></path>
        <path fill="none" stroke="#fa00fa" stroke-width="3" d="M 633 466 L 633 467 L 632 468 L 631 468 L 630 469 L 630 473 L 631 473 L 632 474 L 632 475 L 634 475 L 635 476 L 634 477 L 635 476 L 637 476 L 638 477 L 639 477 L 639 476 L 640 475 L 641 475 L 641 474 L 642 473 L 642 472 L 641 471 L 642 470 L 641 469 L 640 469 L 639 468 L 640 467 L 639 468 L 638 467 L 636 467 L 635 466 L 635 467 L 634 468 L 633 467 "></path>
        <path fill="none" stroke="#fa00fa" stroke-width="3" d="M 542 497 L 541 498 L 540 498 L 540 499 L 541 500 L 540 501 L 540 504 L 539 505 L 539 506 L 541 508 L 542 508 L 543 509 L 544 508 L 544 507 L 546 505 L 547 506 L 547 505 L 548 504 L 550 504 L 551 503 L 550 502 L 550 498 L 547 498 L 546 499 L 545 499 L 543 497 "></path>
        <path fill="none" stroke="#fa00fa" stroke-width="3" d="M 614 285 L 614 286 L 613 287 L 613 289 L 614 290 L 614 294 L 613 295 L 613 296 L 614 297 L 616 297 L 618 299 L 619 298 L 620 298 L 620 297 L 622 295 L 622 293 L 621 292 L 621 291 L 622 290 L 622 289 L 621 289 L 619 287 L 618 288 L 616 286 L 617 285 L 616 286 L 615 286 "></path>
        <path fill="none" stroke="#fa00fa" stroke-width="3" d="M 544 373 L 542 375 L 543 376 L 542 377 L 543 378 L 542 379 L 541 379 L 542 380 L 541 381 L 539 381 L 540 382 L 539 383 L 540 383 L 541 384 L 542 384 L 543 385 L 543 386 L 544 385 L 545 385 L 551 379 L 550 378 L 551 377 L 549 375 L 548 375 L 547 374 L 548 373 L 547 373 L 546 374 L 545 373 "></path>
        <path fill="none" stroke="#fa00fa" stroke-width="3" d="M 3 750 L 2 751 L 1 751 L 1 752 L 2 753 L 1 754 L 1 756 L 2 757 L 1 758 L 1 770 L 3 772 L 3 771 L 4 770 L 5 771 L 5 770 L 6 769 L 6 767 L 5 766 L 5 759 L 6 758 L 6 756 L 5 755 L 5 752 L 4 753 L 3 752 "></path>
        <path fill="none" stroke="#fa00fa" stroke-width="3" d="M 883 808 L 882 809 L 877 809 L 876 810 L 874 810 L 873 809 L 872 810 L 871 809 L 869 811 L 869 814 L 884 814 L 885 813 L 886 813 L 887 812 L 886 812 L 885 811 L 885 809 L 884 808 "></path>
        <path fill="none" stroke="#fa00fa" stroke-width="3" d="M 509 363 L 509 364 L 508 365 L 507 365 L 507 366 L 508 367 L 507 368 L 507 370 L 508 370 L 512 374 L 513 373 L 514 373 L 515 374 L 516 373 L 516 370 L 517 369 L 517 368 L 516 367 L 516 365 L 515 364 L 514 364 L 513 363 L 512 364 L 511 363 L 510 364 "></path>
        <path fill="none" stroke="#fa00fa" stroke-width="3" d="M 575 417 L 573 419 L 572 418 L 569 418 L 568 419 L 569 420 L 568 421 L 569 422 L 567 424 L 567 425 L 568 426 L 569 425 L 570 426 L 570 427 L 571 426 L 572 427 L 572 428 L 573 427 L 574 428 L 574 429 L 575 430 L 575 429 L 576 428 L 576 427 L 577 426 L 578 426 L 579 427 L 578 428 L 579 427 L 578 426 L 577 426 L 576 425 L 577 424 L 579 424 L 579 422 L 578 422 L 577 421 L 575 421 L 574 420 L 574 419 L 575 418 "></path>
        <path fill="none" stroke="#fa00fa" stroke-width="3" d="M 1052 381 L 1051 382 L 1049 382 L 1049 383 L 1050 384 L 1049 385 L 1048 385 L 1048 386 L 1050 388 L 1050 394 L 1049 395 L 1050 396 L 1050 398 L 1051 399 L 1052 398 L 1053 399 L 1054 398 L 1054 381 "></path>
        <path fill="none" stroke="#fa00fa" stroke-width="3" d="M 500 464 L 499 465 L 498 465 L 498 467 L 497 468 L 496 467 L 495 468 L 494 468 L 494 472 L 495 472 L 497 474 L 498 474 L 499 475 L 500 474 L 501 475 L 502 475 L 502 474 L 503 473 L 502 472 L 503 471 L 503 469 L 505 467 L 505 466 L 504 466 L 503 465 L 503 464 L 502 464 L 501 465 "></path>
        <path fill="none" stroke="#fa00fa" stroke-width="3" d="M 409 464 L 407 466 L 406 465 L 406 466 L 405 467 L 404 466 L 405 467 L 404 468 L 405 469 L 405 470 L 407 472 L 405 474 L 406 474 L 408 476 L 410 476 L 411 475 L 412 476 L 411 475 L 412 474 L 413 474 L 413 473 L 414 472 L 413 471 L 413 468 L 412 467 L 413 466 L 412 466 L 411 465 L 410 465 "></path>
        <path fill="none" stroke="#fa00fa" stroke-width="3" d="M 482 527 L 482 528 L 480 530 L 478 530 L 478 532 L 479 533 L 481 531 L 482 532 L 482 533 L 481 534 L 481 536 L 482 536 L 483 537 L 484 536 L 485 536 L 486 537 L 489 537 L 489 534 L 490 533 L 489 532 L 489 531 L 488 530 L 489 529 L 487 529 L 486 528 L 487 527 L 486 527 L 485 528 L 484 528 L 483 527 "></path>
        <path fill="none" stroke="#fa00fa" stroke-width="3" d="M 375 341 L 374 342 L 372 342 L 373 343 L 372 344 L 372 347 L 373 346 L 375 348 L 375 349 L 374 350 L 375 351 L 376 351 L 377 352 L 377 353 L 378 352 L 379 352 L 380 351 L 381 352 L 381 350 L 382 349 L 384 351 L 385 351 L 386 350 L 385 351 L 384 350 L 384 349 L 385 348 L 385 347 L 385 348 L 384 349 L 383 348 L 382 348 L 381 347 L 382 346 L 383 346 L 382 346 L 381 345 L 381 343 L 379 345 L 378 344 L 378 343 L 377 343 L 376 342 L 376 341 "></path>
        <path fill="none" stroke="#fa00fa" stroke-width="3" d="M 557 510 L 557 511 L 556 512 L 555 512 L 555 513 L 554 514 L 554 517 L 556 519 L 557 518 L 562 518 L 562 516 L 563 515 L 565 517 L 566 516 L 567 516 L 566 515 L 567 514 L 566 514 L 565 513 L 565 512 L 564 511 L 562 511 L 561 510 L 560 510 L 560 511 L 559 512 "></path>
        <path fill="none" stroke="#fa00fa" stroke-width="3" d="M 499 376 L 498 377 L 496 377 L 495 378 L 494 378 L 493 379 L 492 379 L 492 380 L 493 380 L 494 381 L 493 382 L 492 382 L 493 383 L 495 383 L 496 384 L 497 384 L 498 383 L 499 384 L 499 385 L 500 384 L 501 385 L 504 382 L 503 381 L 503 380 L 504 379 L 504 378 L 503 377 L 502 377 L 501 376 L 500 377 "></path>
        <path fill="none" stroke="#fa00fa" stroke-width="3" d="M 470 404 L 470 406 L 469 407 L 468 406 L 467 407 L 466 407 L 465 408 L 465 411 L 466 411 L 467 412 L 466 413 L 467 414 L 469 414 L 470 415 L 471 414 L 471 413 L 472 412 L 474 412 L 474 410 L 475 409 L 474 408 L 475 407 L 475 405 L 474 404 L 473 404 L 472 405 L 471 404 "></path>
        <path fill="none" stroke="#fa00fa" stroke-width="3" d="M 591 273 L 591 274 L 589 276 L 588 276 L 586 278 L 585 278 L 584 279 L 586 281 L 586 282 L 587 282 L 588 281 L 589 282 L 590 282 L 591 283 L 592 283 L 594 281 L 596 281 L 596 280 L 597 279 L 597 278 L 596 277 L 596 276 L 595 276 L 594 275 L 593 275 "></path>
        <path fill="none" stroke="#fa00fa" stroke-width="3" d="M 637 452 L 636 453 L 629 453 L 629 454 L 628 455 L 629 455 L 630 456 L 630 458 L 631 459 L 632 458 L 633 458 L 634 459 L 633 460 L 634 460 L 635 461 L 637 459 L 638 460 L 640 458 L 640 456 L 641 455 L 640 454 L 640 453 L 639 452 "></path>
        <path fill="none" stroke="#fa00fa" stroke-width="3" d="M 668 494 L 667 495 L 666 495 L 666 496 L 665 497 L 664 497 L 664 498 L 663 499 L 663 500 L 664 500 L 665 501 L 665 505 L 667 507 L 668 506 L 669 507 L 670 506 L 670 505 L 671 504 L 671 502 L 672 501 L 671 500 L 671 499 L 672 498 L 671 497 L 670 497 L 669 496 L 669 495 "></path>
        <path fill="none" stroke="#fa00fa" stroke-width="3" d="M 439 317 L 437 319 L 436 318 L 434 318 L 435 319 L 435 320 L 434 321 L 434 322 L 433 323 L 432 323 L 433 324 L 433 325 L 435 327 L 436 326 L 438 326 L 439 327 L 440 326 L 441 326 L 442 325 L 442 319 L 440 317 "></path>
        <path fill="none" stroke="#fa00fa" stroke-width="3" d="M 516 285 L 515 286 L 513 286 L 513 287 L 512 288 L 512 290 L 511 291 L 512 291 L 513 292 L 512 293 L 511 293 L 513 295 L 512 296 L 512 297 L 513 296 L 514 297 L 517 297 L 516 296 L 517 295 L 518 295 L 519 294 L 519 293 L 518 292 L 518 290 L 519 289 L 520 289 L 519 288 L 519 286 L 517 286 "></path>
        <path fill="none" stroke="#fa00fa" stroke-width="3" d="M 483 300 L 479 304 L 480 305 L 479 306 L 480 306 L 481 307 L 480 308 L 481 307 L 482 308 L 482 309 L 487 309 L 488 308 L 489 308 L 490 307 L 490 303 L 488 301 L 487 302 L 486 301 L 485 301 L 483 303 L 482 302 L 482 301 "></path>
        <path fill="none" stroke="#fa00fa" stroke-width="3" d="M 676 346 L 675 347 L 674 347 L 673 348 L 674 349 L 673 350 L 673 351 L 677 355 L 679 355 L 680 356 L 680 355 L 681 354 L 682 355 L 681 354 L 682 353 L 683 353 L 682 352 L 682 349 L 681 348 L 681 346 "></path>
        <path fill="none" stroke="#fa00fa" stroke-width="3" d="M 637 493 L 638 494 L 637 495 L 634 495 L 634 496 L 633 497 L 632 497 L 633 498 L 633 500 L 634 501 L 634 502 L 636 504 L 637 504 L 638 505 L 639 505 L 639 504 L 641 502 L 641 501 L 642 500 L 642 498 L 641 498 L 640 497 L 640 496 L 639 496 L 638 495 L 639 494 L 638 493 "></path>
        <path fill="none" stroke="#fa00fa" stroke-width="3" d="M 467 359 L 465 361 L 464 360 L 463 361 L 465 363 L 464 364 L 463 364 L 462 363 L 463 364 L 463 365 L 462 366 L 464 366 L 465 367 L 464 368 L 463 368 L 463 369 L 464 370 L 465 369 L 468 369 L 468 368 L 469 367 L 470 368 L 470 369 L 470 368 L 471 367 L 472 368 L 473 367 L 473 366 L 472 365 L 472 364 L 471 364 L 469 362 L 470 361 L 468 359 "></path>
        <path fill="none" stroke="#fa00fa" stroke-width="3" d="M 602 345 L 600 347 L 598 347 L 597 348 L 597 350 L 596 351 L 597 352 L 598 352 L 600 354 L 601 354 L 602 353 L 602 352 L 603 351 L 605 353 L 606 353 L 606 352 L 608 350 L 608 348 L 607 349 L 606 348 L 606 347 L 604 345 L 603 346 "></path>
        <path fill="none" stroke="#fa00fa" stroke-width="3" d="M 25 809 L 24 810 L 23 810 L 22 811 L 21 811 L 21 814 L 35 814 L 36 813 L 36 812 L 35 811 L 36 810 L 35 809 L 34 810 L 33 809 L 32 809 L 30 811 L 28 809 "></path>
        <path fill="none" stroke="#fa00fa" stroke-width="3" d="M 1052 424 L 1050 426 L 1051 427 L 1051 428 L 1052 429 L 1051 430 L 1049 430 L 1050 431 L 1050 432 L 1048 434 L 1048 435 L 1049 434 L 1050 435 L 1050 436 L 1049 437 L 1049 438 L 1050 438 L 1051 439 L 1051 440 L 1052 441 L 1052 442 L 1053 441 L 1054 441 L 1054 425 L 1053 425 "></path>
        <path fill="none" stroke="#fa00fa" stroke-width="3" d="M 450 184 L 449 185 L 448 185 L 448 186 L 447 187 L 447 192 L 448 192 L 449 193 L 450 193 L 451 192 L 452 192 L 453 193 L 452 194 L 454 192 L 455 192 L 454 191 L 456 189 L 455 188 L 455 187 L 456 186 L 456 184 L 454 184 L 453 185 L 451 185 "></path>
        <path fill="none" stroke="#fa00fa" stroke-width="3" d="M 712 482 L 711 483 L 710 483 L 709 484 L 709 485 L 710 486 L 708 488 L 709 489 L 710 489 L 711 490 L 711 491 L 712 490 L 713 491 L 713 492 L 714 492 L 715 491 L 717 491 L 717 490 L 718 489 L 717 488 L 717 487 L 718 486 L 718 484 L 717 485 L 715 483 L 715 482 L 714 482 L 714 483 L 713 484 L 712 483 "></path>
        <path fill="none" stroke="#fa00fa" stroke-width="3" d="M 587 423 L 587 424 L 586 425 L 585 424 L 583 426 L 581 426 L 583 426 L 584 425 L 586 427 L 586 428 L 585 429 L 584 428 L 583 428 L 584 428 L 588 432 L 589 432 L 590 433 L 591 433 L 592 432 L 592 431 L 594 429 L 594 426 L 593 426 L 591 424 L 589 424 L 588 423 "></path>
        <path fill="none" stroke="#fa00fa" stroke-width="3" d="M 633 422 L 631 424 L 630 424 L 631 425 L 631 429 L 632 430 L 633 430 L 634 431 L 636 431 L 637 430 L 637 429 L 638 428 L 639 428 L 639 427 L 640 426 L 641 427 L 641 425 L 640 425 L 639 424 L 639 422 L 638 422 L 638 423 L 637 424 L 636 423 L 635 423 L 634 422 "></path>
        <path fill="none" stroke="#fa00fa" stroke-width="3" d="M 391 436 L 391 438 L 390 439 L 391 440 L 390 441 L 389 441 L 390 442 L 389 443 L 389 444 L 390 443 L 391 443 L 392 444 L 391 445 L 392 445 L 393 444 L 394 445 L 397 445 L 398 446 L 399 445 L 399 443 L 400 442 L 400 441 L 399 440 L 399 439 L 397 439 L 396 438 L 395 439 L 394 438 L 393 438 "></path>
        <path fill="none" stroke="#fa00fa" stroke-width="3" d="M 544 450 L 543 451 L 543 453 L 541 455 L 541 457 L 543 459 L 545 459 L 546 458 L 547 458 L 548 459 L 548 460 L 548 459 L 549 458 L 550 458 L 550 457 L 549 456 L 550 455 L 549 454 L 550 453 L 550 452 L 549 453 L 548 452 L 548 450 "></path>
        <path fill="none" stroke="#fa00fa" stroke-width="3" d="M 990 809 L 987 812 L 989 814 L 1000 814 L 1001 813 L 1002 813 L 1003 812 L 1003 811 L 1002 810 L 1001 811 L 999 809 L 998 809 L 997 810 L 995 810 L 994 811 L 992 809 "></path>
        <path fill="none" stroke="#fa00fa" stroke-width="3" d="M 635 286 L 636 286 L 637 287 L 637 288 L 636 289 L 635 288 L 633 288 L 633 289 L 632 290 L 631 289 L 630 290 L 630 291 L 631 292 L 630 293 L 630 295 L 631 295 L 632 294 L 634 296 L 635 295 L 637 295 L 638 296 L 637 295 L 638 294 L 639 294 L 641 292 L 640 292 L 639 291 L 640 290 L 641 290 L 640 289 L 639 289 L 636 286 "></path>
        <path fill="none" stroke="#fa00fa" stroke-width="3" d="M 558 432 L 557 433 L 556 433 L 555 434 L 556 435 L 556 442 L 559 442 L 560 443 L 561 442 L 562 443 L 562 444 L 562 443 L 564 441 L 565 441 L 564 441 L 563 440 L 564 439 L 565 439 L 565 438 L 563 438 L 562 437 L 563 436 L 562 437 L 561 436 L 561 434 L 559 434 L 558 433 "></path>
        <path fill="none" stroke="#fa00fa" stroke-width="3" d="M 572 434 L 572 435 L 570 437 L 570 439 L 571 440 L 573 438 L 574 439 L 574 442 L 575 443 L 575 444 L 576 444 L 577 445 L 577 446 L 579 446 L 581 444 L 581 442 L 578 439 L 578 438 L 577 437 L 576 438 L 575 437 L 575 436 L 573 434 "></path>
        <path fill="none" stroke="#fa00fa" stroke-width="3" d="M 485 363 L 485 364 L 484 365 L 483 365 L 482 364 L 480 364 L 481 364 L 482 365 L 480 367 L 480 368 L 479 369 L 478 368 L 478 369 L 479 370 L 479 371 L 480 371 L 481 372 L 481 373 L 483 371 L 483 370 L 484 369 L 485 370 L 487 370 L 488 369 L 488 368 L 489 367 L 490 368 L 489 367 L 490 366 L 489 365 L 489 363 L 487 363 L 486 364 "></path>
        <path fill="none" stroke="#fa00fa" stroke-width="3" d="M 407 282 L 406 283 L 405 283 L 404 284 L 404 290 L 405 291 L 405 292 L 406 293 L 408 293 L 409 294 L 410 293 L 409 292 L 410 291 L 411 291 L 412 292 L 411 291 L 411 290 L 410 289 L 410 285 L 409 284 L 409 283 L 408 283 "></path>
        <path fill="none" stroke="#fa00fa" stroke-width="3" d="M 516 389 L 514 391 L 513 391 L 513 393 L 512 394 L 511 393 L 511 392 L 510 393 L 511 394 L 509 396 L 508 396 L 509 397 L 509 398 L 510 398 L 511 399 L 511 400 L 510 401 L 512 401 L 513 400 L 514 401 L 516 399 L 515 398 L 517 396 L 516 395 L 516 394 L 517 393 L 518 394 L 517 393 L 518 392 L 518 391 L 517 391 L 516 390 "></path>
        <path fill="none" stroke="#fa00fa" stroke-width="3" d="M 1051 128 L 1051 129 L 1050 130 L 1051 131 L 1051 132 L 1050 133 L 1050 135 L 1049 136 L 1050 136 L 1051 137 L 1050 138 L 1051 139 L 1050 140 L 1050 143 L 1051 144 L 1053 144 L 1054 143 L 1054 129 L 1053 128 L 1052 129 "></path>
        <path fill="none" stroke="#fa00fa" stroke-width="3" d="M 529 376 L 527 378 L 526 378 L 527 379 L 527 380 L 528 381 L 528 384 L 529 383 L 531 385 L 532 384 L 535 384 L 537 382 L 534 379 L 535 378 L 533 378 L 531 376 "></path>
        <path fill="none" stroke="#fa00fa" stroke-width="3" d="M 1051 647 L 1051 648 L 1050 649 L 1051 650 L 1049 652 L 1049 653 L 1050 654 L 1049 655 L 1049 657 L 1050 658 L 1050 660 L 1052 662 L 1054 662 L 1054 658 L 1053 657 L 1054 656 L 1054 655 L 1053 654 L 1053 653 L 1054 652 L 1054 648 L 1053 647 L 1052 648 "></path>
        <path fill="none" stroke="#fa00fa" stroke-width="3" d="M 526 302 L 524 304 L 523 304 L 523 306 L 522 307 L 522 308 L 523 308 L 525 310 L 526 309 L 528 309 L 529 308 L 532 308 L 533 307 L 532 306 L 532 303 L 531 304 L 529 302 "></path>
        <path fill="none" stroke="#fa00fa" stroke-width="3" d="M 378 285 L 378 286 L 376 288 L 376 289 L 377 290 L 376 291 L 377 292 L 376 293 L 376 294 L 377 295 L 378 294 L 380 294 L 382 292 L 383 293 L 382 292 L 383 291 L 384 291 L 383 290 L 384 289 L 384 287 L 383 287 L 382 286 L 382 285 L 381 286 L 380 285 "></path>
        <path fill="none" stroke="#fa00fa" stroke-width="3" d="M 393 540 L 392 541 L 391 541 L 390 542 L 389 542 L 390 542 L 391 543 L 390 544 L 391 545 L 391 546 L 390 547 L 391 547 L 392 548 L 393 548 L 394 549 L 394 552 L 395 552 L 396 551 L 398 553 L 399 553 L 399 552 L 398 551 L 399 550 L 398 549 L 398 548 L 397 549 L 395 547 L 395 546 L 396 545 L 397 545 L 396 544 L 396 542 L 395 541 L 394 541 "></path>
        <path fill="none" stroke="#fa00fa" stroke-width="3" d="M 456 598 L 457 599 L 456 600 L 456 601 L 455 602 L 454 601 L 453 602 L 453 603 L 454 603 L 455 604 L 455 607 L 456 607 L 457 608 L 459 608 L 460 609 L 459 608 L 460 607 L 460 606 L 462 604 L 462 603 L 461 602 L 461 601 L 462 600 L 461 600 L 459 598 L 458 599 L 457 599 "></path>
        <path fill="none" stroke="#fa00fa" stroke-width="3" d="M 420 287 L 419 288 L 420 289 L 419 290 L 421 292 L 420 293 L 421 293 L 422 294 L 422 296 L 424 298 L 425 298 L 426 297 L 426 295 L 428 293 L 428 291 L 427 290 L 426 290 L 425 289 L 424 289 L 423 288 L 422 289 "></path>
        <path fill="none" stroke="#fa00fa" stroke-width="3" d="M 485 329 L 485 330 L 484 331 L 483 331 L 482 332 L 481 332 L 481 333 L 480 334 L 481 335 L 481 338 L 482 337 L 483 337 L 484 338 L 484 337 L 485 336 L 487 338 L 489 336 L 490 336 L 490 335 L 489 334 L 490 333 L 488 331 L 487 331 "></path>
        <path fill="none" stroke="#fa00fa" stroke-width="3" d="M 482 152 L 481 153 L 481 155 L 480 156 L 480 157 L 481 157 L 482 158 L 483 158 L 484 159 L 485 159 L 486 160 L 487 160 L 488 159 L 489 159 L 489 158 L 490 157 L 489 156 L 489 155 L 488 155 L 487 154 L 487 153 L 486 152 "></path>
        <path fill="none" stroke="#fa00fa" stroke-width="3" d="M 576 540 L 575 541 L 574 541 L 573 542 L 572 541 L 571 542 L 572 543 L 571 544 L 569 544 L 570 545 L 569 546 L 570 546 L 571 545 L 572 545 L 573 546 L 572 547 L 573 546 L 576 546 L 578 548 L 580 546 L 581 546 L 581 543 L 580 543 L 579 542 L 579 541 L 578 541 L 577 540 "></path>
        <path fill="none" stroke="#fa00fa" stroke-width="3" d="M 757 538 L 757 539 L 756 540 L 753 540 L 754 541 L 754 542 L 753 543 L 752 543 L 752 544 L 753 545 L 754 544 L 755 545 L 755 546 L 756 546 L 758 548 L 760 546 L 761 547 L 761 544 L 760 543 L 761 542 L 762 542 L 761 542 L 760 541 L 761 540 L 760 540 L 759 539 L 758 539 "></path>
        <path fill="none" stroke="#fa00fa" stroke-width="3" d="M 845 1 L 844 2 L 844 3 L 845 4 L 845 5 L 846 5 L 847 6 L 848 5 L 849 6 L 849 7 L 850 6 L 851 7 L 852 7 L 852 5 L 853 4 L 854 5 L 854 6 L 854 5 L 855 4 L 856 4 L 856 1 "></path>
        <path fill="none" stroke="#fa00fa" stroke-width="3" d="M 603 467 L 603 468 L 602 469 L 601 469 L 600 470 L 599 469 L 598 469 L 597 470 L 595 470 L 594 471 L 594 473 L 595 473 L 596 474 L 598 472 L 599 472 L 600 471 L 601 472 L 603 472 L 604 473 L 604 474 L 605 474 L 606 473 L 607 474 L 607 475 L 607 474 L 606 473 L 608 471 L 608 470 L 606 468 L 605 468 L 604 467 "></path>
        <path fill="none" stroke="#fa00fa" stroke-width="3" d="M 705 599 L 705 601 L 706 602 L 705 603 L 706 603 L 707 604 L 707 605 L 706 606 L 707 605 L 709 607 L 712 607 L 714 605 L 714 604 L 713 603 L 715 601 L 714 602 L 713 601 L 713 600 L 712 600 L 711 601 L 709 599 L 708 600 L 707 599 L 706 600 "></path>
        <path fill="none" stroke="#fa00fa" stroke-width="3" d="M 456 646 L 454 648 L 454 649 L 453 650 L 452 650 L 452 652 L 453 652 L 456 655 L 457 654 L 458 655 L 460 653 L 461 653 L 461 652 L 460 651 L 460 650 L 461 649 L 460 648 L 459 648 L 458 647 L 457 647 "></path>
        <path fill="none" stroke="#fa00fa" stroke-width="3" d="M 333 480 L 332 481 L 332 482 L 330 484 L 330 485 L 332 487 L 331 488 L 332 487 L 333 488 L 333 489 L 337 489 L 336 488 L 338 486 L 338 485 L 339 484 L 338 484 L 337 483 L 337 482 L 336 481 L 336 480 L 335 481 L 334 480 "></path>
        <path fill="none" stroke="#fa00fa" stroke-width="3" d="M 650 403 L 648 405 L 647 405 L 648 406 L 648 408 L 647 409 L 648 408 L 649 409 L 649 411 L 651 411 L 652 412 L 651 413 L 650 413 L 650 414 L 653 414 L 652 413 L 654 411 L 655 411 L 656 410 L 655 411 L 654 411 L 653 410 L 655 408 L 655 407 L 654 406 L 655 405 L 656 405 L 655 405 L 654 404 L 653 404 L 652 403 L 651 404 "></path>
        <path fill="none" stroke="#fa00fa" stroke-width="3" d="M 634 254 L 635 255 L 634 256 L 631 256 L 631 258 L 630 259 L 632 261 L 632 262 L 633 262 L 634 263 L 634 262 L 635 261 L 636 261 L 637 262 L 637 261 L 639 259 L 639 258 L 638 257 L 638 254 "></path>
        <path fill="none" stroke="#fa00fa" stroke-width="3" d="M 499 285 L 499 286 L 497 288 L 497 289 L 498 290 L 497 291 L 498 292 L 497 293 L 498 293 L 499 294 L 499 295 L 500 295 L 501 296 L 504 293 L 503 292 L 503 289 L 501 287 L 502 286 L 501 285 "></path>
        <path fill="none" stroke="#fa00fa" stroke-width="3" d="M 682 271 L 680 273 L 680 274 L 681 275 L 680 276 L 678 276 L 678 277 L 677 278 L 678 279 L 678 280 L 680 282 L 681 282 L 682 281 L 683 281 L 684 280 L 683 279 L 684 278 L 683 277 L 683 276 L 684 275 L 685 276 L 686 276 L 685 275 L 685 274 L 683 272 L 683 271 "></path>
        <path fill="none" stroke="#fa00fa" stroke-width="3" d="M 632 572 L 631 573 L 631 574 L 630 575 L 629 575 L 630 576 L 629 577 L 630 577 L 631 578 L 631 579 L 632 579 L 634 581 L 635 580 L 636 580 L 637 579 L 637 578 L 638 577 L 637 577 L 636 576 L 636 574 L 637 573 L 636 572 L 634 572 L 633 573 "></path>
        <path fill="none" stroke="#fa00fa" stroke-width="3" d="M 343 359 L 343 360 L 344 361 L 343 362 L 342 362 L 342 363 L 344 365 L 344 367 L 344 366 L 345 365 L 346 366 L 347 366 L 348 367 L 349 367 L 349 366 L 350 365 L 351 365 L 352 364 L 351 363 L 351 362 L 350 362 L 349 361 L 348 361 L 347 360 L 348 359 "></path>
        <path fill="none" stroke="#fa00fa" stroke-width="3" d="M 632 270 L 632 272 L 630 274 L 631 275 L 631 277 L 632 278 L 633 278 L 634 279 L 635 279 L 638 276 L 638 275 L 636 273 L 637 272 L 637 271 L 636 271 L 635 270 L 634 271 L 633 270 "></path>
        <path fill="none" stroke="#fa00fa" stroke-width="3" d="M 454 427 L 452 429 L 451 428 L 450 428 L 451 429 L 450 430 L 451 431 L 451 432 L 450 433 L 452 435 L 453 435 L 453 434 L 454 433 L 456 433 L 457 434 L 458 433 L 458 430 L 459 429 L 459 428 L 458 428 L 457 427 L 456 428 L 455 427 "></path>
        <path fill="none" stroke="#fa00fa" stroke-width="3" d="M 321 468 L 320 469 L 319 469 L 318 470 L 317 470 L 317 471 L 316 472 L 316 473 L 317 474 L 316 475 L 317 475 L 319 477 L 319 475 L 320 474 L 322 476 L 321 475 L 322 474 L 323 474 L 324 473 L 325 473 L 325 469 L 324 470 L 323 469 L 322 469 "></path>
        <path fill="none" stroke="#fa00fa" stroke-width="3" d="M 818 273 L 816 275 L 815 274 L 814 275 L 813 275 L 812 276 L 813 277 L 813 279 L 815 281 L 818 281 L 819 280 L 819 279 L 820 278 L 820 277 L 821 276 L 820 275 L 820 274 L 819 274 "></path>
        <path fill="none" stroke="#fa00fa" stroke-width="3" d="M 409 228 L 409 229 L 408 230 L 406 230 L 406 232 L 405 233 L 405 235 L 406 236 L 406 237 L 407 236 L 408 236 L 409 235 L 410 236 L 411 236 L 413 234 L 412 233 L 412 232 L 413 231 L 413 230 L 412 229 L 411 230 L 410 229 L 410 228 "></path>
        <path fill="none" stroke="#fa00fa" stroke-width="3" d="M 530 394 L 529 395 L 528 395 L 527 396 L 526 395 L 527 396 L 526 397 L 525 397 L 526 398 L 526 400 L 527 400 L 528 401 L 529 401 L 530 400 L 532 400 L 535 397 L 535 396 L 533 394 "></path>
        <path fill="none" stroke="#fa00fa" stroke-width="3" d="M 829 451 L 828 452 L 826 452 L 825 453 L 824 453 L 825 454 L 825 455 L 826 456 L 825 457 L 827 459 L 827 458 L 828 457 L 829 458 L 829 459 L 830 458 L 832 458 L 832 457 L 833 456 L 834 457 L 834 454 L 833 454 L 832 453 L 831 454 L 830 453 L 830 452 "></path>
        <path fill="none" stroke="#fa00fa" stroke-width="3" d="M 572 122 L 573 122 L 574 123 L 573 124 L 570 124 L 570 126 L 569 127 L 569 128 L 570 128 L 572 130 L 573 129 L 574 130 L 575 129 L 576 129 L 577 130 L 576 129 L 577 128 L 577 127 L 578 126 L 579 127 L 579 126 L 578 126 L 577 125 L 578 124 L 577 123 L 574 123 L 573 122 "></path>
        <path fill="none" stroke="#fa00fa" stroke-width="3" d="M 887 481 L 885 483 L 885 485 L 887 487 L 886 488 L 887 487 L 888 488 L 891 488 L 893 486 L 893 484 L 892 483 L 892 482 L 891 481 L 890 481 L 889 482 L 888 481 "></path>
        <path fill="none" stroke="#fa00fa" stroke-width="3" d="M 661 257 L 662 258 L 661 259 L 659 259 L 659 264 L 660 264 L 661 265 L 661 266 L 662 265 L 663 266 L 664 266 L 664 265 L 665 264 L 666 264 L 666 263 L 667 262 L 668 262 L 667 261 L 667 259 L 667 260 L 666 261 L 665 260 L 665 259 L 663 259 "></path>
        <path fill="none" stroke="#fa00fa" stroke-width="3" d="M 470 542 L 469 543 L 469 544 L 468 545 L 467 545 L 467 548 L 468 549 L 467 550 L 469 550 L 470 551 L 471 551 L 472 552 L 473 552 L 473 549 L 474 548 L 474 546 L 472 544 L 471 544 L 470 543 "></path>
        <path fill="none" stroke="#fa00fa" stroke-width="3" d="M 745 283 L 743 285 L 742 285 L 744 285 L 745 286 L 744 287 L 741 287 L 740 288 L 740 289 L 741 290 L 741 291 L 742 292 L 742 293 L 743 293 L 743 292 L 744 291 L 745 291 L 746 292 L 745 293 L 746 293 L 748 291 L 748 289 L 747 288 L 748 287 L 748 286 L 747 285 L 747 284 L 746 285 L 745 285 L 744 284 "></path>
        <path fill="none" stroke="#fa00fa" stroke-width="3" d="M 318 586 L 317 587 L 316 587 L 316 588 L 317 589 L 316 590 L 316 591 L 317 591 L 318 592 L 323 592 L 325 590 L 325 588 L 324 587 L 325 586 L 322 586 L 320 588 "></path>
        <path fill="none" stroke="#fa00fa" stroke-width="3" d="M 483 284 L 482 285 L 479 285 L 480 286 L 479 287 L 479 291 L 480 292 L 481 291 L 482 292 L 483 291 L 484 292 L 485 292 L 485 289 L 486 288 L 486 287 L 485 286 L 485 285 L 484 285 "></path>
        <path fill="none" stroke="#fa00fa" stroke-width="3" d="M 648 586 L 647 587 L 647 588 L 645 590 L 648 593 L 649 592 L 650 593 L 650 594 L 650 592 L 651 591 L 653 593 L 655 593 L 655 592 L 656 591 L 656 590 L 654 588 L 653 589 L 651 589 L 649 587 L 649 586 "></path>
        <path fill="none" stroke="#fa00fa" stroke-width="3" d="M 707 289 L 708 290 L 707 291 L 705 291 L 705 292 L 706 292 L 707 293 L 707 294 L 708 295 L 709 295 L 710 296 L 714 296 L 714 295 L 715 294 L 715 292 L 714 291 L 713 292 L 712 292 L 711 291 L 712 290 L 711 290 L 710 289 L 709 289 L 708 290 "></path>
        <path fill="none" stroke="#fa00fa" stroke-width="3" d="M 488 408 L 487 409 L 487 410 L 486 411 L 485 410 L 484 410 L 483 411 L 483 412 L 485 414 L 484 415 L 484 416 L 485 416 L 485 415 L 486 414 L 487 415 L 488 415 L 489 414 L 490 415 L 492 413 L 491 412 L 492 411 L 491 410 L 492 409 L 489 409 "></path>
        <path fill="none" stroke="#fa00fa" stroke-width="3" d="M 408 16 L 407 17 L 407 20 L 409 22 L 412 22 L 411 21 L 412 20 L 413 20 L 414 21 L 414 22 L 415 22 L 417 20 L 414 17 L 413 17 L 412 16 L 411 17 L 410 16 L 409 17 "></path>
        <path fill="none" stroke="#fa00fa" stroke-width="3" d="M 394 268 L 392 270 L 392 272 L 391 273 L 393 275 L 397 275 L 398 274 L 399 274 L 399 273 L 398 272 L 399 271 L 397 269 L 396 269 L 395 268 "></path>
        <path fill="none" stroke="#fa00fa" stroke-width="3" d="M 437 737 L 436 738 L 436 739 L 435 740 L 435 742 L 436 743 L 436 744 L 437 745 L 439 745 L 439 744 L 440 743 L 441 744 L 441 743 L 442 742 L 443 743 L 444 742 L 443 743 L 442 742 L 442 740 L 443 739 L 442 740 L 441 739 L 441 738 L 440 738 L 439 737 L 438 738 "></path>
        <path fill="none" stroke="#fa00fa" stroke-width="3" d="M 369 213 L 368 214 L 369 215 L 368 216 L 367 216 L 365 218 L 364 217 L 365 218 L 365 221 L 366 222 L 367 221 L 368 222 L 370 220 L 370 219 L 372 217 L 372 216 L 373 215 L 371 213 L 370 214 "></path>
        <path fill="none" stroke="#fa00fa" stroke-width="3" d="M 287 484 L 288 485 L 287 486 L 287 487 L 288 488 L 288 489 L 290 489 L 291 490 L 295 490 L 296 491 L 295 490 L 296 489 L 295 488 L 296 487 L 296 486 L 295 486 L 294 485 L 294 484 L 293 485 L 290 485 L 289 484 L 288 485 "></path>
        <path fill="none" stroke="#fa00fa" stroke-width="3" d="M 672 795 L 672 796 L 671 797 L 670 796 L 671 797 L 669 799 L 670 800 L 669 801 L 672 804 L 673 804 L 674 803 L 675 803 L 674 802 L 675 801 L 676 801 L 677 802 L 676 801 L 676 799 L 675 798 L 675 797 L 674 797 L 673 796 L 673 795 "></path>
        <path fill="none" stroke="#fa00fa" stroke-width="3" d="M 735 300 L 736 301 L 735 302 L 734 302 L 734 304 L 735 305 L 736 305 L 738 307 L 739 307 L 740 306 L 739 305 L 740 304 L 741 304 L 742 305 L 742 304 L 743 303 L 743 302 L 742 301 L 739 301 L 738 300 L 737 300 L 736 301 "></path>
        <path fill="none" stroke="#fa00fa" stroke-width="3" d="M 754 268 L 753 269 L 753 270 L 752 271 L 753 272 L 752 273 L 753 274 L 752 275 L 753 274 L 754 275 L 755 275 L 756 276 L 758 276 L 757 275 L 758 274 L 759 274 L 760 273 L 759 272 L 759 271 L 758 270 L 756 270 L 755 269 L 755 268 "></path>
        <path fill="none" stroke="#fa00fa" stroke-width="3" d="M 755 437 L 754 438 L 752 438 L 752 439 L 751 440 L 750 439 L 749 439 L 750 440 L 749 441 L 749 442 L 750 443 L 749 444 L 748 444 L 750 444 L 751 443 L 752 444 L 752 445 L 753 445 L 754 446 L 755 445 L 756 445 L 756 444 L 757 443 L 755 441 L 756 440 L 755 441 L 754 440 L 754 439 L 755 438 L 756 438 "></path>
        <path fill="none" stroke="#fa00fa" stroke-width="3" d="M 693 180 L 692 181 L 693 182 L 693 185 L 692 186 L 693 187 L 694 186 L 695 187 L 695 188 L 698 188 L 699 187 L 700 187 L 700 186 L 699 186 L 697 184 L 698 183 L 696 181 L 694 181 "></path>
        <path fill="none" stroke="#fa00fa" stroke-width="3" d="M 755 632 L 756 633 L 755 634 L 755 637 L 754 638 L 754 639 L 755 639 L 756 640 L 757 640 L 758 639 L 759 639 L 760 638 L 761 639 L 760 638 L 760 637 L 761 636 L 760 635 L 760 632 L 759 632 L 759 633 L 758 634 L 757 633 L 757 632 L 756 633 "></path>
        <path fill="none" stroke="#fa00fa" stroke-width="3" d="M 458 684 L 457 685 L 455 685 L 453 687 L 453 690 L 454 691 L 454 692 L 456 692 L 457 693 L 458 693 L 459 692 L 458 691 L 459 690 L 460 690 L 459 689 L 458 689 L 457 688 L 457 686 L 458 685 "></path>
        <path fill="none" stroke="#fa00fa" stroke-width="3" d="M 602 77 L 600 79 L 600 80 L 599 81 L 600 82 L 600 83 L 601 83 L 602 84 L 604 84 L 604 83 L 606 81 L 605 80 L 606 79 L 606 78 L 605 78 L 604 77 "></path>
        <path fill="none" stroke="#fa00fa" stroke-width="3" d="M 513 257 L 512 258 L 512 259 L 513 260 L 512 261 L 513 261 L 514 262 L 514 263 L 513 264 L 512 263 L 513 264 L 514 263 L 515 264 L 515 265 L 517 265 L 517 264 L 518 263 L 517 262 L 519 260 L 520 260 L 519 259 L 518 259 L 516 257 L 515 258 L 514 258 "></path>
        <path fill="none" stroke="#fa00fa" stroke-width="3" d="M 352 527 L 350 529 L 349 529 L 349 531 L 348 532 L 350 534 L 350 533 L 351 532 L 352 533 L 352 534 L 353 534 L 354 533 L 355 533 L 354 532 L 355 531 L 356 531 L 355 530 L 355 528 L 354 527 "></path>
        <path fill="none" stroke="#fa00fa" stroke-width="3" d="M 963 238 L 962 239 L 961 239 L 960 240 L 960 242 L 961 243 L 962 243 L 963 244 L 962 245 L 964 245 L 967 242 L 967 241 L 966 240 L 966 239 L 965 239 L 964 238 "></path>
        <path fill="none" stroke="#fa00fa" stroke-width="3" d="M 406 738 L 404 740 L 405 741 L 405 742 L 403 744 L 404 745 L 403 746 L 404 746 L 405 745 L 408 745 L 409 744 L 410 744 L 409 743 L 410 742 L 411 742 L 410 742 L 409 741 L 410 740 L 410 739 L 408 739 L 407 740 L 406 739 "></path>
        <path fill="none" stroke="#fa00fa" stroke-width="3" d="M 407 347 L 405 349 L 406 350 L 405 351 L 406 351 L 407 350 L 408 351 L 408 352 L 407 353 L 409 353 L 409 351 L 410 350 L 412 352 L 413 351 L 414 351 L 414 349 L 413 348 L 414 347 L 413 348 L 412 347 L 410 347 L 409 348 L 408 347 "></path>
        <path fill="none" stroke="#fa00fa" stroke-width="3" d="M 157 300 L 156 301 L 154 301 L 153 302 L 153 305 L 154 306 L 155 306 L 156 307 L 156 306 L 157 305 L 159 307 L 161 305 L 160 306 L 159 305 L 159 304 L 160 303 L 161 303 L 160 303 "></path>
        <path fill="none" stroke="#fa00fa" stroke-width="3" d="M 487 570 L 487 571 L 485 573 L 484 572 L 485 573 L 484 574 L 485 573 L 486 574 L 486 575 L 489 578 L 490 578 L 491 579 L 492 579 L 492 578 L 493 577 L 492 577 L 491 576 L 492 575 L 491 574 L 490 574 L 489 573 L 490 572 L 489 572 L 488 571 L 488 570 "></path>
        <path fill="none" stroke="#fa00fa" stroke-width="3" d="M 648 422 L 647 423 L 647 424 L 648 425 L 647 426 L 648 426 L 649 427 L 648 428 L 649 428 L 650 429 L 652 429 L 654 427 L 653 426 L 654 425 L 654 424 L 652 424 L 651 423 L 650 424 "></path>
        <path fill="none" stroke="#fa00fa" stroke-width="3" d="M 486 318 L 486 319 L 485 320 L 484 319 L 483 320 L 484 321 L 483 322 L 482 322 L 483 322 L 484 323 L 484 324 L 485 324 L 487 326 L 486 325 L 487 324 L 489 324 L 490 325 L 489 324 L 490 323 L 490 321 L 489 321 L 488 320 L 489 319 L 488 319 L 487 318 "></path>
        <path fill="none" stroke="#fa00fa" stroke-width="3" d="M 411 391 L 412 392 L 411 393 L 409 393 L 408 394 L 407 394 L 408 395 L 408 397 L 409 397 L 411 399 L 413 399 L 412 398 L 412 397 L 414 395 L 414 394 L 413 393 L 413 391 "></path>
        <path fill="none" stroke="#fa00fa" stroke-width="3" d="M 483 602 L 481 604 L 480 604 L 481 605 L 481 609 L 482 609 L 483 608 L 484 609 L 484 608 L 486 606 L 487 606 L 487 605 L 485 603 L 485 602 "></path>
        <path fill="none" stroke="#fa00fa" stroke-width="3" d="M 484 586 L 482 588 L 482 589 L 483 590 L 483 592 L 484 592 L 485 593 L 488 590 L 489 590 L 488 589 L 489 588 L 487 588 L 485 586 "></path>
        <path fill="none" stroke="#fa00fa" stroke-width="3" d="M 694 390 L 694 391 L 693 392 L 692 392 L 691 393 L 691 396 L 693 398 L 694 397 L 695 397 L 696 398 L 697 398 L 697 397 L 696 396 L 696 395 L 697 394 L 698 395 L 697 394 L 698 393 L 698 392 L 697 392 L 696 391 L 697 392 L 695 394 L 693 392 L 694 391 "></path>
        <path fill="none" stroke="#fa00fa" stroke-width="3" d="M 245 361 L 244 362 L 244 364 L 243 365 L 244 366 L 244 367 L 246 367 L 247 366 L 248 367 L 249 366 L 249 363 L 247 361 "></path>
        <path fill="none" stroke="#fa00fa" stroke-width="3" d="M 618 32 L 616 34 L 615 34 L 615 35 L 616 36 L 615 37 L 616 38 L 619 38 L 620 37 L 621 38 L 621 36 L 622 35 L 621 34 L 622 33 L 621 34 L 620 34 L 619 33 L 620 32 L 619 33 "></path>
        <path fill="none" stroke="#fa00fa" stroke-width="3" d="M 590 631 L 591 632 L 590 633 L 588 633 L 588 635 L 589 636 L 588 637 L 589 638 L 590 637 L 591 638 L 592 637 L 594 637 L 594 634 L 593 633 L 593 632 L 592 633 "></path>
        <path fill="none" stroke="#fa00fa" stroke-width="3" d="M 138 500 L 138 501 L 137 502 L 136 502 L 135 503 L 136 504 L 136 505 L 137 505 L 138 506 L 141 506 L 142 505 L 142 504 L 141 503 L 141 502 L 140 501 L 139 501 "></path>
        <path fill="none" stroke="#fa00fa" stroke-width="3" d="M 871 301 L 870 302 L 868 302 L 869 302 L 870 303 L 869 304 L 871 306 L 871 307 L 873 307 L 874 308 L 874 307 L 875 306 L 876 307 L 876 306 L 875 305 L 875 304 L 876 303 L 875 304 L 874 304 L 873 303 L 873 301 "></path>
        <path fill="none" stroke="#fa00fa" stroke-width="3" d="M 691 588 L 690 589 L 690 590 L 691 591 L 691 593 L 692 594 L 694 594 L 694 592 L 695 591 L 696 591 L 695 590 L 696 589 L 696 588 "></path>
        <path fill="none" stroke="#fa00fa" stroke-width="3" d="M 195 244 L 194 245 L 194 247 L 195 247 L 196 248 L 195 249 L 196 248 L 197 249 L 197 250 L 198 250 L 200 248 L 201 248 L 200 247 L 200 246 L 199 245 L 199 244 L 197 244 L 196 245 "></path>
        <path fill="none" stroke="#fa00fa" stroke-width="3" d="M 318 722 L 317 723 L 318 724 L 318 726 L 319 727 L 319 728 L 320 729 L 321 728 L 322 728 L 323 727 L 323 726 L 324 725 L 323 725 L 322 724 L 322 723 L 323 722 L 321 724 L 319 722 "></path>
        <path fill="none" stroke="#fa00fa" stroke-width="3" d="M 904 635 L 903 636 L 902 636 L 901 637 L 900 637 L 900 638 L 902 640 L 903 640 L 904 641 L 905 641 L 905 640 L 906 639 L 906 638 L 907 637 L 905 635 "></path>
        <path fill="none" stroke="#fa00fa" stroke-width="3" d="M 273 496 L 273 499 L 272 500 L 271 499 L 272 500 L 271 501 L 272 501 L 273 502 L 272 503 L 271 503 L 274 503 L 277 500 L 278 501 L 277 500 L 277 499 L 276 498 L 276 497 L 275 496 "></path>
        <path fill="none" stroke="#fa00fa" stroke-width="3" d="M 246 91 L 245 92 L 245 93 L 244 94 L 243 94 L 245 96 L 245 97 L 246 96 L 247 97 L 247 98 L 249 96 L 249 91 L 248 92 L 247 92 "></path>
        <path fill="none" stroke="#fa00fa" stroke-width="3" d="M 620 751 L 619 752 L 618 752 L 618 755 L 620 757 L 621 756 L 622 756 L 623 757 L 622 756 L 623 755 L 623 753 L 622 752 L 621 752 "></path>
        <path fill="none" stroke="#fa00fa" stroke-width="3" d="M 334 467 L 335 468 L 334 469 L 333 469 L 334 470 L 333 471 L 332 471 L 333 472 L 334 471 L 335 472 L 335 473 L 336 474 L 337 473 L 337 471 L 338 470 L 339 470 L 339 468 L 338 467 L 338 468 L 337 469 L 336 468 L 336 467 L 335 468 "></path>
        <path fill="none" stroke="#fa00fa" stroke-width="3" d="M 754 301 L 753 302 L 752 302 L 751 303 L 755 307 L 756 306 L 757 306 L 756 305 L 756 303 L 755 302 L 756 301 "></path>
        <path fill="none" stroke="#fa00fa" stroke-width="3" d="M 632 783 L 632 784 L 630 786 L 631 785 L 632 786 L 632 788 L 634 790 L 635 790 L 635 789 L 636 788 L 636 787 L 635 786 L 635 785 L 634 785 "></path>
        <path fill="none" stroke="#fa00fa" stroke-width="3" d="M 429 805 L 428 806 L 428 807 L 427 808 L 428 808 L 429 809 L 428 810 L 429 810 L 430 809 L 432 809 L 432 808 L 433 807 L 433 806 L 432 805 L 431 805 L 430 806 "></path>
        <path fill="none" stroke="#fa00fa" stroke-width="3" d="M 140 395 L 140 398 L 139 399 L 140 399 L 141 400 L 144 397 L 144 395 "></path>
        <path fill="none" stroke="#fa00fa" stroke-width="3" d="M 575 106 L 573 108 L 572 108 L 574 110 L 574 111 L 575 112 L 576 112 L 576 110 L 577 109 L 576 108 L 577 107 L 576 106 "></path>
        <path fill="none" stroke="#fa00fa" stroke-width="3" d="M 696 406 L 696 407 L 697 408 L 696 409 L 696 411 L 697 412 L 700 409 L 700 407 L 699 408 L 698 407 L 697 407 "></path>
        <path fill="none" stroke="#fa00fa" stroke-width="3" d="M 815 545 L 814 546 L 812 546 L 811 547 L 812 548 L 812 549 L 813 549 L 814 550 L 814 549 L 815 548 L 816 548 L 816 547 L 815 546 L 816 545 "></path>
        <path fill="none" stroke="#fa00fa" stroke-width="3" d="M 307 783 L 306 784 L 305 784 L 305 786 L 306 787 L 308 787 L 309 786 L 309 785 L 308 784 L 308 783 "></path>
    </g>
</svg>
