<svg xmlns="http://www.w3.org/2000/svg" xmlns:xlink="http://www.w3.org/1999/xlink" version="1.1" x="0" y="0" width="1056px" height="816px">
    <g id="rootLayer" transform="translate(0.000000, 0.000000)">
        <path fill="none" stroke="#00fafa" stroke-width="3" d="M 522 443 L 523 442 L 524 443 L 525 443 L 527 445 L 528 445 L 529 446 L 529 448 L 528 449 L 528 451 L 527 452 L 526 452 L 524 454 L 524 455 L 523 456 L 522 455 L 522 456 L 521 457 L 520 456 L 520 453 L 517 450 L 517 448 L 516 447 L 517 446 L 518 446 L 518 444 L 519 443 "></path>
        <path fill="none" stroke="#00fafa" stroke-width="3" d="M 553 397 L 554 396 L 555 397 L 557 397 L 559 399 L 559 400 L 558 401 L 558 403 L 557 404 L 557 406 L 556 407 L 555 406 L 554 407 L 553 407 L 552 406 L 549 406 L 548 405 L 549 406 L 548 407 L 547 407 L 546 406 L 546 402 L 548 400 L 548 399 L 549 398 L 550 399 L 552 397 "></path>
        <path fill="none" stroke="#00fafa" stroke-width="3" d="M 522 470 L 523 469 L 525 469 L 526 470 L 526 471 L 527 471 L 528 472 L 528 473 L 527 474 L 528 474 L 529 475 L 528 476 L 529 477 L 529 479 L 527 481 L 525 481 L 524 480 L 523 480 L 521 478 L 521 477 L 521 478 L 520 479 L 518 477 L 519 476 L 518 475 L 517 476 L 516 475 L 516 474 L 517 473 L 517 472 L 518 471 L 519 472 L 520 471 L 521 472 L 520 471 L 521 470 "></path>
        <path fill="none" stroke="#00fafa" stroke-width="3" d="M 535 301 L 536 301 L 537 302 L 537 303 L 536 304 L 537 303 L 540 303 L 541 304 L 541 305 L 542 304 L 541 303 L 542 302 L 544 302 L 546 304 L 546 305 L 545 306 L 543 306 L 542 307 L 543 306 L 544 306 L 545 307 L 546 307 L 548 309 L 547 310 L 546 310 L 545 309 L 544 310 L 541 310 L 540 311 L 539 311 L 539 313 L 540 312 L 542 314 L 541 315 L 539 315 L 539 316 L 538 317 L 537 316 L 539 318 L 537 320 L 536 320 L 535 319 L 536 318 L 534 318 L 533 317 L 534 316 L 533 317 L 532 316 L 532 315 L 534 313 L 535 313 L 534 312 L 534 310 L 535 309 L 534 308 L 534 307 L 534 309 L 533 310 L 531 308 L 532 307 L 531 306 L 532 305 L 533 305 L 533 303 "></path>
        <path fill="none" stroke="#00fafa" stroke-width="3" d="M 544 284 L 545 283 L 546 284 L 547 283 L 548 283 L 549 284 L 549 286 L 548 287 L 547 286 L 546 287 L 545 287 L 544 288 L 544 290 L 543 291 L 542 291 L 543 292 L 542 293 L 541 293 L 542 294 L 540 296 L 539 296 L 538 297 L 537 297 L 536 298 L 536 300 L 535 301 L 534 300 L 532 300 L 531 301 L 530 301 L 529 300 L 530 299 L 529 299 L 528 298 L 529 297 L 529 296 L 530 295 L 531 296 L 531 297 L 532 298 L 532 297 L 534 295 L 535 296 L 534 295 L 533 296 L 531 294 L 533 292 L 534 292 L 531 292 L 530 291 L 531 290 L 532 290 L 533 289 L 534 290 L 535 289 L 536 289 L 537 290 L 536 289 L 536 286 L 537 285 L 538 286 L 538 287 L 539 286 L 540 286 L 541 285 L 542 285 L 543 284 L 544 285 "></path>
        <path fill="none" stroke="#00fafa" stroke-width="3" d="M 510 315 L 511 316 L 511 318 L 510 319 L 511 320 L 511 323 L 511 320 L 512 319 L 513 320 L 513 321 L 514 320 L 515 321 L 515 322 L 516 322 L 517 323 L 516 324 L 515 324 L 516 324 L 517 323 L 518 324 L 520 324 L 521 325 L 518 328 L 517 328 L 516 329 L 517 330 L 516 331 L 515 331 L 515 336 L 514 337 L 513 337 L 512 336 L 513 337 L 513 338 L 512 339 L 511 339 L 510 338 L 510 334 L 511 333 L 510 332 L 511 331 L 513 331 L 512 330 L 511 330 L 510 329 L 510 326 L 511 325 L 510 325 L 508 323 L 509 322 L 508 323 L 507 323 L 506 322 L 508 320 L 508 317 "></path>
        <path fill="none" stroke="#00fafa" stroke-width="3" d="M 541 315 L 542 314 L 544 314 L 545 315 L 544 316 L 543 316 L 543 317 L 544 318 L 545 317 L 547 319 L 546 320 L 545 320 L 546 321 L 545 322 L 544 322 L 543 321 L 542 321 L 544 323 L 545 322 L 546 322 L 547 323 L 545 325 L 544 325 L 543 326 L 543 327 L 542 328 L 541 328 L 540 329 L 539 328 L 539 327 L 540 326 L 541 326 L 540 325 L 540 324 L 541 323 L 540 323 L 539 322 L 540 321 L 538 323 L 537 323 L 536 322 L 537 321 L 537 320 L 539 318 L 540 319 L 542 319 L 540 317 L 541 316 "></path>
        <path fill="none" stroke="#00fafa" stroke-width="3" d="M 522 292 L 524 294 L 524 295 L 525 294 L 527 294 L 528 295 L 527 296 L 526 296 L 527 297 L 526 298 L 525 298 L 525 299 L 524 300 L 522 300 L 520 298 L 519 299 L 519 300 L 521 302 L 520 303 L 514 303 L 513 302 L 518 297 L 518 296 L 519 295 L 520 296 L 519 295 "></path>
        <path fill="none" stroke="#00fafa" stroke-width="3" d="M 552 295 L 554 297 L 555 297 L 555 296 L 556 295 L 557 296 L 558 296 L 559 297 L 558 298 L 559 299 L 558 300 L 561 300 L 562 301 L 561 302 L 561 304 L 560 305 L 559 304 L 558 305 L 557 304 L 555 304 L 554 303 L 555 302 L 556 302 L 552 302 L 551 301 L 552 300 L 552 298 L 552 299 L 551 300 L 550 299 L 550 297 "></path>
        <path fill="none" stroke="#00fafa" stroke-width="3" d="M 529 277 L 530 276 L 532 278 L 533 277 L 534 278 L 534 279 L 532 281 L 531 281 L 530 282 L 529 282 L 528 283 L 527 282 L 525 284 L 523 282 L 523 281 L 524 280 L 525 281 L 525 280 L 523 278 L 524 277 L 525 277 L 527 279 L 527 280 L 528 279 L 527 279 L 526 278 L 527 277 "></path>
        <path fill="none" stroke="#00fafa" stroke-width="3" d="M 508 291 L 509 290 L 510 290 L 512 292 L 512 293 L 511 294 L 512 294 L 513 295 L 514 294 L 515 295 L 515 296 L 514 297 L 512 297 L 512 300 L 510 302 L 509 301 L 509 300 L 508 299 L 509 298 L 510 298 L 508 296 L 508 294 L 509 293 L 509 292 "></path>
        <path fill="none" stroke="#00fafa" stroke-width="3" d="M 527 298 L 528 298 L 529 299 L 529 300 L 528 301 L 528 303 L 526 305 L 525 304 L 524 304 L 522 306 L 521 305 L 521 304 L 520 303 L 521 302 L 519 300 L 520 299 L 521 299 L 522 300 L 525 300 L 526 301 L 525 302 L 523 302 L 526 302 L 526 301 L 525 300 "></path>
        <path fill="none" stroke="#00fafa" stroke-width="3" d="M 534 279 L 535 278 L 536 278 L 538 280 L 539 280 L 540 281 L 538 283 L 537 283 L 537 284 L 536 285 L 534 285 L 533 284 L 534 285 L 533 286 L 532 286 L 531 285 L 531 282 L 532 281 L 533 282 L 534 282 L 535 281 L 535 280 "></path>
        <path fill="none" stroke="#00fafa" stroke-width="3" d="M 510 304 L 511 303 L 513 303 L 514 304 L 514 305 L 516 303 L 518 305 L 517 306 L 518 307 L 518 308 L 516 310 L 515 309 L 514 310 L 513 309 L 513 308 L 512 308 L 511 307 L 512 306 L 512 305 L 511 305 "></path>
        <path fill="none" stroke="#00fafa" stroke-width="3" d="M 520 314 L 521 314 L 522 315 L 521 316 L 522 316 L 523 315 L 525 317 L 524 318 L 523 318 L 524 319 L 524 320 L 523 321 L 524 322 L 523 323 L 522 323 L 521 322 L 521 321 L 520 321 L 519 320 L 520 319 L 520 318 L 518 316 "></path>
        <path fill="none" stroke="#00fafa" stroke-width="3" d="M 560 322 L 561 323 L 561 324 L 559 326 L 561 324 L 562 325 L 562 327 L 561 328 L 559 328 L 558 329 L 557 328 L 557 326 L 557 327 L 556 328 L 554 326 L 557 323 L 558 324 "></path>
        <path fill="none" stroke="#00fafa" stroke-width="3" d="M 517 293 L 518 294 L 518 297 L 514 301 L 512 299 L 512 298 L 513 297 L 514 297 L 515 296 L 515 295 "></path>
        <path fill="none" stroke="#00fafa" stroke-width="3" d="M 521 307 L 522 308 L 522 309 L 521 310 L 521 312 L 520 313 L 519 312 L 519 311 L 518 312 L 517 312 L 516 311 L 517 310 L 517 309 L 518 308 L 519 309 "></path>
        <path fill="none" stroke="#00fafa" stroke-width="3" d="M 519 271 L 520 270 L 521 271 L 522 270 L 523 270 L 524 271 L 524 272 L 523 273 L 523 274 L 521 276 L 520 275 L 520 273 L 519 272 "></path>
        <path fill="none" stroke="#00fafa" stroke-width="3" d="M 549 308 L 550 307 L 551 307 L 552 308 L 552 309 L 553 310 L 553 311 L 552 312 L 551 311 L 549 313 L 548 312 L 548 311 L 549 310 "></path>
        <path fill="none" stroke="#00fafa" stroke-width="3" d="M 534 323 L 535 322 L 536 323 L 536 324 L 537 325 L 536 326 L 537 327 L 536 328 L 533 328 L 532 327 L 533 326 L 533 325 L 534 324 "></path>
        <path fill="none" stroke="#00fafa" stroke-width="3" d="M 557 311 L 558 311 L 559 312 L 560 312 L 561 313 L 561 315 L 560 316 L 559 315 L 559 314 L 558 314 L 557 315 L 555 313 "></path>
        <path fill="none" stroke="#00fafa" stroke-width="3" d="M 554 303 L 555 304 L 557 304 L 558 305 L 557 306 L 556 306 L 556 307 L 555 308 L 554 308 L 553 307 L 553 306 L 552 305 "></path>
        <path fill="none" stroke="#00fafa" stroke-width="3" d="M 545 312 L 546 311 L 548 313 L 547 314 L 548 314 L 549 315 L 548 316 L 546 316 L 545 315 L 545 314 L 544 314 L 543 313 L 544 312 "></path>
        <path fill="none" stroke="#00fafa" stroke-width="3" d="M 550 277 L 551 276 L 552 277 L 552 278 L 551 279 L 552 280 L 551 281 L 550 281 L 549 282 L 548 281 L 548 280 L 549 279 L 548 278 L 549 277 "></path>
        <path fill="none" stroke="#00fafa" stroke-width="3" d="M 520 278 L 521 277 L 522 277 L 524 279 L 524 280 L 521 283 L 520 282 L 520 281 L 521 280 L 521 279 "></path>
        <path fill="none" stroke="#00fafa" stroke-width="3" d="M 525 312 L 526 311 L 527 312 L 527 314 L 528 315 L 526 317 L 525 317 L 524 316 L 525 315 L 524 314 L 525 313 "></path>
        <path fill="none" stroke="#00fafa" stroke-width="3" d="M 523 361 L 524 360 L 526 362 L 527 361 L 528 362 L 528 364 L 527 365 L 526 364 L 525 364 L 523 362 "></path>
        <path fill="none" stroke="#00fafa" stroke-width="3" d="M 551 314 L 552 313 L 554 315 L 553 316 L 551 316 L 549 318 L 548 317 L 548 316 L 550 314 "></path>
        <path fill="none" stroke="#00fafa" stroke-width="3" d="M 507 308 L 508 307 L 509 308 L 509 309 L 510 310 L 508 312 L 507 311 L 507 310 L 506 311 L 505 310 L 505 309 L 506 308 "></path>
        <path fill="none" stroke="#00fafa" stroke-width="3" d="M 518 330 L 519 331 L 520 331 L 522 333 L 521 334 L 520 334 L 519 333 L 517 333 L 516 332 "></path>
        <path fill="none" stroke="#00fafa" stroke-width="3" d="M 525 323 L 526 322 L 528 324 L 527 325 L 526 325 L 525 326 L 524 325 L 523 325 L 522 324 L 523 323 "></path>
        <path fill="none" stroke="#00fafa" stroke-width="3" d="M 556 307 L 557 306 L 558 306 L 560 308 L 560 310 L 559 311 L 558 311 L 557 310 L 558 309 "></path>
        <path fill="none" stroke="#00fafa" stroke-width="3" d="M 542 278 L 543 277 L 544 277 L 545 278 L 545 279 L 546 280 L 546 281 L 545 282 L 544 282 L 543 281 L 543 279 "></path>
        <path fill="none" stroke="#00fafa" stroke-width="3" d="M 506 315 L 507 316 L 507 318 L 508 319 L 507 320 L 506 320 L 504 318 L 504 317 "></path>
        <path fill="none" stroke="#00fafa" stroke-width="3" d="M 512 317 L 513 316 L 514 316 L 517 319 L 516 320 L 514 320 L 513 319 L 513 318 "></path>
        <path fill="none" stroke="#00fafa" stroke-width="3" d="M 543 299 L 544 298 L 547 298 L 548 299 L 547 300 L 547 301 L 546 302 "></path>
        <path fill="none" stroke="#00fafa" stroke-width="3" d="M 575 337 L 576 336 L 578 338 L 578 339 L 577 340 L 576 340 L 575 341 L 574 340 L 574 339 L 575 338 "></path>
        <path fill="none" stroke="#00fafa" stroke-width="3" d="M 504 302 L 505 301 L 506 301 L 507 302 L 506 303 L 506 306 L 505 307 L 504 306 "></path>
        <path fill="none" stroke="#00fafa" stroke-width="3" d="M 525 289 L 526 288 L 527 289 L 527 290 L 528 291 L 527 292 L 524 292 L 523 291 L 524 290 L 525 290 "></path>
        <path fill="none" stroke="#00fafa" stroke-width="3" d="M 538 323 L 539 322 L 540 323 L 540 324 L 539 325 L 539 326 L 538 327 L 537 326 L 537 325 L 536 324 L 537 323 "></path>
        <path fill="none" stroke="#00fafa" stroke-width="3" d="M 533 340 L 534 341 L 534 344 L 533 345 L 532 345 L 531 344 L 532 343 L 531 342 "></path>
        <path fill="none" stroke="#00fafa" stroke-width="3" d="M 521 264 L 522 263 L 523 264 L 524 263 L 525 264 L 525 265 L 524 266 L 523 266 L 522 267 L 521 266 "></path>
        <path fill="none" stroke="#00fafa" stroke-width="3" d="M 570 362 L 571 361 L 572 362 L 572 363 L 571 364 L 570 364 L 569 365 L 568 365 L 567 364 L 569 362 "></path>
        <path fill="none" stroke="#00fafa" stroke-width="3" d="M 523 471 L 524 470 L 525 471 L 525 473 L 526 473 L 527 474 L 527 476 L 528 476 L 529 477 L 527 479 L 529 477 L 531 477 L 531 476 L 532 475 L 534 477 L 533 478 L 534 477 L 535 477 L 536 478 L 536 476 L 537 475 L 538 476 L 538 477 L 540 479 L 539 480 L 538 480 L 539 480 L 540 481 L 539 482 L 539 485 L 538 486 L 537 486 L 537 487 L 538 488 L 536 490 L 534 488 L 535 487 L 534 486 L 534 485 L 535 484 L 537 484 L 537 482 L 535 480 L 535 481 L 536 481 L 537 482 L 537 483 L 536 484 L 535 484 L 534 485 L 533 484 L 533 487 L 532 488 L 531 487 L 531 485 L 530 486 L 527 483 L 526 484 L 524 484 L 524 485 L 523 486 L 522 486 L 520 484 L 520 483 L 522 481 L 521 482 L 520 481 L 520 480 L 519 479 L 520 478 L 522 478 L 523 477 L 523 475 L 520 472 L 521 471 "></path>
        <path fill="none" stroke="#00fafa" stroke-width="3" d="M 521 429 L 522 428 L 525 428 L 526 429 L 526 430 L 525 431 L 525 432 L 525 431 L 526 430 L 527 431 L 527 432 L 528 431 L 530 431 L 531 432 L 529 434 L 527 434 L 529 434 L 531 436 L 530 437 L 529 437 L 528 438 L 527 437 L 526 437 L 524 435 L 523 436 L 522 435 L 522 434 L 521 433 L 522 432 L 521 433 L 522 434 L 522 436 L 521 437 L 521 438 L 520 439 L 521 438 L 522 438 L 523 439 L 522 440 L 524 442 L 523 443 L 524 442 L 525 443 L 525 444 L 525 443 L 524 442 L 525 441 L 526 441 L 527 442 L 527 445 L 525 447 L 524 447 L 522 449 L 520 447 L 518 449 L 516 447 L 516 446 L 517 445 L 517 444 L 516 443 L 516 442 L 517 441 L 519 443 L 520 443 L 521 442 L 520 443 L 518 441 L 518 440 L 517 441 L 516 441 L 515 440 L 516 439 L 515 438 L 516 437 L 518 437 L 519 436 L 518 437 L 517 436 L 517 434 L 518 433 L 519 434 L 518 433 L 518 431 L 519 430 L 520 431 L 519 430 L 520 429 L 521 429 L 522 430 "></path>
        <path fill="none" stroke="#00fafa" stroke-width="3" d="M 583 453 L 584 452 L 585 452 L 586 453 L 587 452 L 588 453 L 589 453 L 590 454 L 588 456 L 589 455 L 590 455 L 591 456 L 588 459 L 588 460 L 589 460 L 590 461 L 590 462 L 589 463 L 590 464 L 590 465 L 588 467 L 587 467 L 585 465 L 586 464 L 586 463 L 586 464 L 585 465 L 584 465 L 583 466 L 582 465 L 579 465 L 577 463 L 577 462 L 578 461 L 579 462 L 580 461 L 583 461 L 584 460 L 585 461 L 583 459 L 583 458 L 584 457 L 585 457 L 584 456 L 584 454 "></path>
        <path fill="none" stroke="#00fafa" stroke-width="3" d="M 522 455 L 523 456 L 523 458 L 524 459 L 523 460 L 523 461 L 522 462 L 521 461 L 522 462 L 522 463 L 520 465 L 519 464 L 520 465 L 520 466 L 519 467 L 517 465 L 516 465 L 515 464 L 515 463 L 513 463 L 512 464 L 511 463 L 511 461 L 512 460 L 513 461 L 514 461 L 515 460 L 518 460 L 519 461 L 519 460 L 518 459 "></path>
        <path fill="none" stroke="#00fafa" stroke-width="3" d="M 552 431 L 553 430 L 554 431 L 554 433 L 553 434 L 555 436 L 554 437 L 554 439 L 553 440 L 552 439 L 552 437 L 551 437 L 552 438 L 551 439 L 551 440 L 553 442 L 551 444 L 550 443 L 550 442 L 547 439 L 549 437 L 548 437 L 547 436 L 548 435 L 547 434 L 548 433 L 549 433 L 550 432 L 551 433 L 552 432 "></path>
        <path fill="none" stroke="#00fafa" stroke-width="3" d="M 564 441 L 565 442 L 565 444 L 564 445 L 563 445 L 562 446 L 562 448 L 561 449 L 560 449 L 560 450 L 559 451 L 558 451 L 557 450 L 557 448 L 556 447 L 556 446 L 555 445 L 555 444 L 556 443 L 558 443 L 559 442 L 560 443 L 560 444 L 561 444 "></path>
        <path fill="none" stroke="#00fafa" stroke-width="3" d="M 518 450 L 520 452 L 520 453 L 521 453 L 522 454 L 522 455 L 519 458 L 518 457 L 519 458 L 518 459 L 517 459 L 516 460 L 515 459 L 515 458 L 514 458 L 513 457 L 513 456 L 516 453 L 517 453 L 516 452 "></path>
        <path fill="none" stroke="#00fafa" stroke-width="3" d="M 537 457 L 538 456 L 539 457 L 540 457 L 541 456 L 542 457 L 542 458 L 543 459 L 544 459 L 545 460 L 543 462 L 542 461 L 541 461 L 541 463 L 540 464 L 539 464 L 536 461 L 536 460 L 535 459 L 536 458 L 537 458 "></path>
        <path fill="none" stroke="#00fafa" stroke-width="3" d="M 530 444 L 531 443 L 532 443 L 534 445 L 532 447 L 533 447 L 534 448 L 534 450 L 533 451 L 532 450 L 531 450 L 532 451 L 532 452 L 531 453 L 530 453 L 529 452 L 529 449 L 528 448 L 528 446 L 529 445 L 530 446 L 530 447 L 530 446 L 531 445 "></path>
        <path fill="none" stroke="#00fafa" stroke-width="3" d="M 525 484 L 526 485 L 527 484 L 528 484 L 529 485 L 529 486 L 525 490 L 523 488 L 524 489 L 523 490 L 522 490 L 521 489 L 521 488 L 520 489 L 519 488 L 519 487 L 520 486 L 523 486 "></path>
        <path fill="none" stroke="#00fafa" stroke-width="3" d="M 508 450 L 509 449 L 510 450 L 510 451 L 512 451 L 513 452 L 512 453 L 513 454 L 512 455 L 512 456 L 511 457 L 511 459 L 510 460 L 509 459 L 509 458 L 508 457 L 509 456 L 508 456 L 507 455 L 508 454 L 509 454 L 508 454 L 507 453 L 508 452 "></path>
        <path fill="none" stroke="#00fafa" stroke-width="3" d="M 580 429 L 581 430 L 581 432 L 582 433 L 580 435 L 579 435 L 578 434 L 579 435 L 578 436 L 578 437 L 579 438 L 578 439 L 577 439 L 576 438 L 576 434 L 575 434 L 574 433 L 576 431 L 577 432 L 579 432 L 578 431 "></path>
        <path fill="none" stroke="#00fafa" stroke-width="3" d="M 514 466 L 515 467 L 518 467 L 519 468 L 517 470 L 518 469 L 519 470 L 519 471 L 518 472 L 515 472 L 514 471 L 513 471 L 512 472 L 511 471 L 511 470 L 512 469 L 512 468 "></path>
        <path fill="none" stroke="#00fafa" stroke-width="3" d="M 503 460 L 504 459 L 509 459 L 511 461 L 511 463 L 510 464 L 509 463 L 508 463 L 508 465 L 507 466 L 506 466 L 505 465 L 506 464 L 506 463 L 505 462 L 505 461 L 504 461 "></path>
        <path fill="none" stroke="#00fafa" stroke-width="3" d="M 527 488 L 528 489 L 528 492 L 527 493 L 526 493 L 525 494 L 526 495 L 525 496 L 524 496 L 523 495 L 523 494 L 522 494 L 521 493 L 523 491 L 523 490 L 524 489 L 526 491 L 525 490 "></path>
        <path fill="none" stroke="#00fafa" stroke-width="3" d="M 551 501 L 552 500 L 554 502 L 556 502 L 557 503 L 557 504 L 558 505 L 557 506 L 554 506 L 553 505 L 554 504 L 551 504 L 550 505 L 549 504 L 549 502 L 550 501 L 551 502 "></path>
        <path fill="none" stroke="#00fafa" stroke-width="3" d="M 531 489 L 532 488 L 533 488 L 534 489 L 535 489 L 536 490 L 536 491 L 537 492 L 536 493 L 535 493 L 534 492 L 534 491 L 533 491 L 533 493 L 532 494 L 531 493 L 530 493 L 529 492 L 530 491 L 531 491 "></path>
        <path fill="none" stroke="#00fafa" stroke-width="3" d="M 527 464 L 528 464 L 529 465 L 528 466 L 528 470 L 527 471 L 526 470 L 525 471 L 524 470 L 524 469 L 523 468 L 525 466 L 526 467 L 526 468 L 526 467 L 525 466 "></path>
        <path fill="none" stroke="#00fafa" stroke-width="3" d="M 599 473 L 600 474 L 601 474 L 602 475 L 602 476 L 601 477 L 600 476 L 598 478 L 599 479 L 598 480 L 597 480 L 595 478 L 595 477 L 596 476 L 597 476 L 597 475 "></path>
        <path fill="none" stroke="#00fafa" stroke-width="3" d="M 522 453 L 523 452 L 524 452 L 526 454 L 525 455 L 526 454 L 528 456 L 527 457 L 525 457 L 525 458 L 524 459 L 523 458 L 523 456 L 522 455 "></path>
        <path fill="none" stroke="#00fafa" stroke-width="3" d="M 561 498 L 562 497 L 563 497 L 565 499 L 564 500 L 565 500 L 566 501 L 565 502 L 564 502 L 563 503 L 561 501 L 562 500 L 561 501 L 559 499 L 560 498 "></path>
        <path fill="none" stroke="#00fafa" stroke-width="3" d="M 575 424 L 576 425 L 576 427 L 577 427 L 579 429 L 579 430 L 578 431 L 577 430 L 576 431 L 573 428 L 574 427 L 573 426 "></path>
        <path fill="none" stroke="#00fafa" stroke-width="3" d="M 560 427 L 562 427 L 563 428 L 562 429 L 561 429 L 561 431 L 562 432 L 560 434 L 559 434 L 558 433 L 559 432 L 558 431 L 558 429 "></path>
        <path fill="none" stroke="#00fafa" stroke-width="3" d="M 550 448 L 551 447 L 552 448 L 552 450 L 551 451 L 551 452 L 549 454 L 548 453 L 548 452 L 547 451 L 548 450 L 548 449 L 549 448 "></path>
        <path fill="none" stroke="#00fafa" stroke-width="3" d="M 596 510 L 597 509 L 599 511 L 599 512 L 598 513 L 597 512 L 596 513 L 596 515 L 595 516 L 594 515 L 594 514 L 593 513 L 594 512 L 594 511 L 595 510 "></path>
        <path fill="none" stroke="#00fafa" stroke-width="3" d="M 510 442 L 511 441 L 512 442 L 513 442 L 514 443 L 512 445 L 512 446 L 511 447 L 510 446 L 508 446 L 507 445 L 509 443 L 510 444 "></path>
        <path fill="none" stroke="#00fafa" stroke-width="3" d="M 445 498 L 446 499 L 446 500 L 447 500 L 449 502 L 448 503 L 447 503 L 447 504 L 446 505 L 444 503 L 445 502 L 443 500 "></path>
        <path fill="none" stroke="#00fafa" stroke-width="3" d="M 568 537 L 569 537 L 571 539 L 571 540 L 570 541 L 569 540 L 570 541 L 569 542 L 568 542 L 567 541 L 566 541 L 565 540 "></path>
        <path fill="none" stroke="#00fafa" stroke-width="3" d="M 564 434 L 565 433 L 566 433 L 567 434 L 567 435 L 566 436 L 567 437 L 567 439 L 566 440 L 563 437 L 563 436 L 564 435 "></path>
        <path fill="none" stroke="#00fafa" stroke-width="3" d="M 550 494 L 551 493 L 553 495 L 552 496 L 553 496 L 554 497 L 554 498 L 553 499 L 552 498 L 550 498 L 549 497 L 549 496 L 550 495 "></path>
        <path fill="none" stroke="#00fafa" stroke-width="3" d="M 543 445 L 544 446 L 544 447 L 545 448 L 542 451 L 541 450 L 540 450 L 539 449 L 540 448 L 542 448 L 541 447 "></path>
        <path fill="none" stroke="#00fafa" stroke-width="3" d="M 514 473 L 515 472 L 519 472 L 520 473 L 519 474 L 518 474 L 519 475 L 517 477 L 516 476 L 516 475 "></path>
        <path fill="none" stroke="#00fafa" stroke-width="3" d="M 521 466 L 522 466 L 523 467 L 523 468 L 524 469 L 522 471 L 521 470 L 519 470 L 518 469 "></path>
        <path fill="none" stroke="#00fafa" stroke-width="3" d="M 553 473 L 554 474 L 555 474 L 556 475 L 556 476 L 555 477 L 554 477 L 553 476 L 551 478 L 550 477 L 550 476 "></path>
        <path fill="none" stroke="#00fafa" stroke-width="3" d="M 580 467 L 581 466 L 583 468 L 583 473 L 582 474 L 581 473 L 581 470 L 580 469 "></path>
        <path fill="none" stroke="#00fafa" stroke-width="3" d="M 563 492 L 564 491 L 567 491 L 569 493 L 568 494 L 567 494 L 567 495 L 566 496 L 565 495 L 565 493 L 564 493 "></path>
        <path fill="none" stroke="#00fafa" stroke-width="3" d="M 512 447 L 513 446 L 515 446 L 518 449 L 517 450 L 517 451 L 516 452 L 515 451 L 515 449 L 514 448 L 513 448 "></path>
        <path fill="none" stroke="#00fafa" stroke-width="3" d="M 543 450 L 544 449 L 545 450 L 545 452 L 546 451 L 548 453 L 547 454 L 546 454 L 545 455 L 543 453 "></path>
        <path fill="none" stroke="#00fafa" stroke-width="3" d="M 550 445 L 551 444 L 552 445 L 553 445 L 554 446 L 555 445 L 556 446 L 556 447 L 555 448 L 552 448 L 550 446 "></path>
        <path fill="none" stroke="#00fafa" stroke-width="3" d="M 561 456 L 562 455 L 563 456 L 563 457 L 564 458 L 563 459 L 562 459 L 561 460 L 559 460 L 558 459 L 560 457 L 561 457 "></path>
        <path fill="none" stroke="#00fafa" stroke-width="3" d="M 597 496 L 598 495 L 600 495 L 601 496 L 600 497 L 600 499 L 599 500 L 597 500 L 596 499 L 597 498 L 598 498 L 598 497 "></path>
        <path fill="none" stroke="#00fafa" stroke-width="3" d="M 554 431 L 555 430 L 556 431 L 557 430 L 558 431 L 558 433 L 559 434 L 558 435 L 557 435 L 554 432 "></path>
        <path fill="none" stroke="#00fafa" stroke-width="3" d="M 586 448 L 587 447 L 588 448 L 588 451 L 587 452 L 585 452 L 584 451 L 585 450 L 586 450 L 585 450 L 584 449 L 585 448 "></path>
        <path fill="none" stroke="#00fafa" stroke-width="3" d="M 586 478 L 587 477 L 589 477 L 590 478 L 590 480 L 591 481 L 590 482 L 589 482 L 587 480 L 588 479 L 587 479 "></path>
        <path fill="none" stroke="#00fafa" stroke-width="3" d="M 600 518 L 601 519 L 601 520 L 602 521 L 602 522 L 601 523 L 600 522 L 599 523 L 597 521 "></path>
        <path fill="none" stroke="#00fafa" stroke-width="3" d="M 537 470 L 538 469 L 540 471 L 539 472 L 539 474 L 538 475 L 537 474 L 537 472 L 536 472 L 535 471 L 536 470 "></path>
        <path fill="none" stroke="#00fafa" stroke-width="3" d="M 581 535 L 582 536 L 584 536 L 585 537 L 585 538 L 584 539 L 583 539 L 582 538 L 580 538 L 579 537 "></path>
        <path fill="none" stroke="#00fafa" stroke-width="3" d="M 574 463 L 575 462 L 576 462 L 578 464 L 578 465 L 576 467 L 574 465 "></path>
        <path fill="none" stroke="#00fafa" stroke-width="3" d="M 591 473 L 592 472 L 593 473 L 593 474 L 594 475 L 591 478 L 590 478 L 589 477 L 591 475 "></path>
        <path fill="none" stroke="#00fafa" stroke-width="3" d="M 505 452 L 506 451 L 507 451 L 508 452 L 507 453 L 507 454 L 506 455 L 504 455 L 503 454 L 503 453 L 504 452 "></path>
        <path fill="none" stroke="#00fafa" stroke-width="3" d="M 595 493 L 596 492 L 597 493 L 597 498 L 596 499 L 595 498 L 595 497 L 594 496 L 595 495 "></path>
        <path fill="none" stroke="#00fafa" stroke-width="3" d="M 575 487 L 576 486 L 578 488 L 577 489 L 578 490 L 578 491 L 577 492 L 574 489 L 575 488 "></path>
        <path fill="none" stroke="#00fafa" stroke-width="3" d="M 552 466 L 553 467 L 553 468 L 552 469 L 553 470 L 553 471 L 552 472 L 549 469 "></path>
        <path fill="none" stroke="#00fafa" stroke-width="3" d="M 549 458 L 550 457 L 551 457 L 554 460 L 552 462 L 551 461 L 551 460 L 550 460 L 549 459 "></path>
        <path fill="none" stroke="#00fafa" stroke-width="3" d="M 570 517 L 571 516 L 573 516 L 574 517 L 574 518 L 573 519 L 573 520 L 572 521 L 571 520 L 571 518 "></path>
        <path fill="none" stroke="#00fafa" stroke-width="3" d="M 571 492 L 572 491 L 573 492 L 573 493 L 572 494 L 573 495 L 572 496 L 571 496 L 570 495 L 570 494 L 569 493 L 570 492 "></path>
        <path fill="none" stroke="#00fafa" stroke-width="3" d="M 489 437 L 491 439 L 492 439 L 493 440 L 492 441 L 490 441 L 489 440 L 488 440 L 487 439 "></path>
        <path fill="none" stroke="#00fafa" stroke-width="3" d="M 530 453 L 531 453 L 532 454 L 531 455 L 531 456 L 532 457 L 531 458 L 530 458 L 529 457 L 529 456 L 528 455 "></path>
        <path fill="none" stroke="#00fafa" stroke-width="3" d="M 533 460 L 534 459 L 535 459 L 536 460 L 536 461 L 537 462 L 537 463 L 536 464 L 535 463 L 534 463 L 533 462 L 534 461 "></path>
        <path fill="none" stroke="#00fafa" stroke-width="3" d="M 531 472 L 532 471 L 535 474 L 535 476 L 534 477 L 533 476 L 533 475 L 531 473 "></path>
        <path fill="none" stroke="#00fafa" stroke-width="3" d="M 565 464 L 566 463 L 567 463 L 568 464 L 568 465 L 569 466 L 568 467 L 567 467 L 566 468 L 565 467 L 565 466 L 566 465 "></path>
        <path fill="none" stroke="#00fafa" stroke-width="3" d="M 535 443 L 536 442 L 537 442 L 538 443 L 539 442 L 540 443 L 540 444 L 538 446 "></path>
        <path fill="none" stroke="#00fafa" stroke-width="3" d="M 506 441 L 507 440 L 509 440 L 510 441 L 509 442 L 508 442 L 509 443 L 508 444 L 507 444 L 506 443 "></path>
        <path fill="none" stroke="#00fafa" stroke-width="3" d="M 559 440 L 560 439 L 563 442 L 561 444 L 559 442 "></path>
        <path fill="none" stroke="#00fafa" stroke-width="3" d="M 502 440 L 503 439 L 504 439 L 505 440 L 504 441 L 504 442 L 505 443 L 504 444 L 503 444 L 502 443 "></path>
        <path fill="none" stroke="#00fafa" stroke-width="3" d="M 575 520 L 576 521 L 576 522 L 577 522 L 578 523 L 577 524 L 575 524 L 573 522 "></path>
        <path fill="none" stroke="#00fafa" stroke-width="3" d="M 580 507 L 581 506 L 582 506 L 583 507 L 582 508 L 582 509 L 580 511 L 579 510 L 579 509 L 580 508 "></path>
        <path fill="none" stroke="#00fafa" stroke-width="3" d="M 574 441 L 575 442 L 575 445 L 574 446 L 573 446 L 572 445 L 573 444 L 572 443 "></path>
        <path fill="none" stroke="#00fafa" stroke-width="3" d="M 568 510 L 569 509 L 570 509 L 571 510 L 570 511 L 571 512 L 571 513 L 570 514 L 568 512 "></path>
        <path fill="none" stroke="#00fafa" stroke-width="3" d="M 519 338 L 521 338 L 523 340 L 523 341 L 524 340 L 523 339 L 524 338 L 526 338 L 527 339 L 528 338 L 530 340 L 530 341 L 533 344 L 532 345 L 534 343 L 537 346 L 536 347 L 536 351 L 536 350 L 537 349 L 537 348 L 538 347 L 539 347 L 540 346 L 541 346 L 542 347 L 541 348 L 542 349 L 541 350 L 542 351 L 543 351 L 545 353 L 544 354 L 542 354 L 541 353 L 541 354 L 544 354 L 545 355 L 546 355 L 547 356 L 547 357 L 548 358 L 548 359 L 550 359 L 551 360 L 550 361 L 550 362 L 551 363 L 550 364 L 549 364 L 549 365 L 550 364 L 551 365 L 551 368 L 550 369 L 549 369 L 548 368 L 548 367 L 548 368 L 549 369 L 548 370 L 550 372 L 548 374 L 547 373 L 546 373 L 545 372 L 545 370 L 545 372 L 546 373 L 546 374 L 547 373 L 548 374 L 548 376 L 549 377 L 548 378 L 548 379 L 549 378 L 550 379 L 550 380 L 551 381 L 551 383 L 550 384 L 549 384 L 549 385 L 550 386 L 549 387 L 546 387 L 546 388 L 547 388 L 548 389 L 547 390 L 545 390 L 544 391 L 543 391 L 542 392 L 541 392 L 542 393 L 541 394 L 541 395 L 538 398 L 537 397 L 536 398 L 536 399 L 535 400 L 534 400 L 534 401 L 533 402 L 532 401 L 531 401 L 532 402 L 532 403 L 531 404 L 529 402 L 529 401 L 528 400 L 526 400 L 527 400 L 528 401 L 528 402 L 527 403 L 527 404 L 526 405 L 525 404 L 522 404 L 521 403 L 522 402 L 521 402 L 520 401 L 518 401 L 519 402 L 518 403 L 517 403 L 515 401 L 515 400 L 516 399 L 521 399 L 522 400 L 523 400 L 522 399 L 521 399 L 520 398 L 520 397 L 521 396 L 521 395 L 518 398 L 517 397 L 517 396 L 516 396 L 515 395 L 515 396 L 514 397 L 514 399 L 513 400 L 512 399 L 508 399 L 508 400 L 507 401 L 506 401 L 505 402 L 504 401 L 504 400 L 504 401 L 503 402 L 502 401 L 502 400 L 501 400 L 500 399 L 500 398 L 496 398 L 495 399 L 494 398 L 494 396 L 493 395 L 495 393 L 494 392 L 494 391 L 492 391 L 491 390 L 493 388 L 491 386 L 491 385 L 492 384 L 493 385 L 492 384 L 493 383 L 492 383 L 491 382 L 490 382 L 488 380 L 488 377 L 489 376 L 489 375 L 490 374 L 491 375 L 491 377 L 492 378 L 492 379 L 493 379 L 493 377 L 491 375 L 492 374 L 491 375 L 490 374 L 489 375 L 488 374 L 488 373 L 487 374 L 486 373 L 485 373 L 484 372 L 485 371 L 486 371 L 486 370 L 488 368 L 489 368 L 488 368 L 487 367 L 487 366 L 486 365 L 487 364 L 486 363 L 487 362 L 487 359 L 489 357 L 490 358 L 489 357 L 492 354 L 493 354 L 494 353 L 496 353 L 495 352 L 495 351 L 496 350 L 497 351 L 498 351 L 499 352 L 500 352 L 499 351 L 500 350 L 498 348 L 499 347 L 500 347 L 500 346 L 501 345 L 502 346 L 503 345 L 501 345 L 500 344 L 501 343 L 502 343 L 502 342 L 503 341 L 504 342 L 505 341 L 506 342 L 507 341 L 508 341 L 509 342 L 510 342 L 511 341 L 513 343 L 514 342 L 515 343 L 516 343 L 517 342 L 518 342 L 517 341 L 517 340 "></path>
        <path fill="none" stroke="#00fafa" stroke-width="3" d="M 486 375 L 487 374 L 488 374 L 489 375 L 488 376 L 488 378 L 487 379 L 486 379 L 485 378 L 486 377 "></path>
        <path fill="none" stroke="#00fafa" stroke-width="3" d="M 651 443 L 652 442 L 653 442 L 654 443 L 653 444 L 654 445 L 654 446 L 656 446 L 657 447 L 660 447 L 661 448 L 662 448 L 663 449 L 662 450 L 658 450 L 657 451 L 655 451 L 654 450 L 655 449 L 654 448 L 653 448 L 653 450 L 654 450 L 655 451 L 656 451 L 658 453 L 657 452 L 658 451 L 661 451 L 662 452 L 663 452 L 665 454 L 664 455 L 662 455 L 661 456 L 661 457 L 660 458 L 659 457 L 658 457 L 657 456 L 658 455 L 657 455 L 656 456 L 656 458 L 655 459 L 656 460 L 656 463 L 655 464 L 653 462 L 651 462 L 650 461 L 649 462 L 650 463 L 649 464 L 650 465 L 649 466 L 649 467 L 649 466 L 650 465 L 651 466 L 651 464 L 650 463 L 651 462 L 653 462 L 654 463 L 653 464 L 656 464 L 657 465 L 657 466 L 658 467 L 657 468 L 656 468 L 655 467 L 655 466 L 655 467 L 656 468 L 657 468 L 658 469 L 658 470 L 657 471 L 656 470 L 657 471 L 656 472 L 655 472 L 654 471 L 653 471 L 652 470 L 653 469 L 654 469 L 653 469 L 652 470 L 650 470 L 649 469 L 648 469 L 648 470 L 649 469 L 650 470 L 652 470 L 653 471 L 654 471 L 655 472 L 655 473 L 654 474 L 653 474 L 652 473 L 651 473 L 652 473 L 653 474 L 653 477 L 652 478 L 653 479 L 653 480 L 652 481 L 653 482 L 653 483 L 652 484 L 650 484 L 648 482 L 648 480 L 648 482 L 649 483 L 647 485 L 646 485 L 645 486 L 644 486 L 643 487 L 642 487 L 641 488 L 640 487 L 639 488 L 638 487 L 638 486 L 638 487 L 637 488 L 636 487 L 636 485 L 638 483 L 639 484 L 639 483 L 638 482 L 638 481 L 639 480 L 640 481 L 639 480 L 638 480 L 637 481 L 638 482 L 637 483 L 636 483 L 636 485 L 635 486 L 634 486 L 633 485 L 632 486 L 631 485 L 630 485 L 631 485 L 632 486 L 631 487 L 630 487 L 630 489 L 628 491 L 627 490 L 627 489 L 628 488 L 626 488 L 625 487 L 625 486 L 627 484 L 628 484 L 626 484 L 626 485 L 625 486 L 623 484 L 625 482 L 627 482 L 628 481 L 629 482 L 632 482 L 633 481 L 635 481 L 635 480 L 634 479 L 635 478 L 637 478 L 638 477 L 640 477 L 641 476 L 642 477 L 644 477 L 646 475 L 647 476 L 647 477 L 647 475 L 648 474 L 648 473 L 647 472 L 646 473 L 645 472 L 645 471 L 644 470 L 644 468 L 643 469 L 643 470 L 645 472 L 645 473 L 646 474 L 646 475 L 645 476 L 644 475 L 643 475 L 644 475 L 645 476 L 644 477 L 642 477 L 641 476 L 641 475 L 641 476 L 640 477 L 639 476 L 639 475 L 638 474 L 639 473 L 638 472 L 639 473 L 638 474 L 639 475 L 639 476 L 638 477 L 637 476 L 636 477 L 635 477 L 634 476 L 634 475 L 633 474 L 633 473 L 636 470 L 638 470 L 639 469 L 640 470 L 640 471 L 641 471 L 642 472 L 642 473 L 642 472 L 639 469 L 638 469 L 637 470 L 636 469 L 635 469 L 632 472 L 631 471 L 630 471 L 628 469 L 626 469 L 626 471 L 625 472 L 624 471 L 623 471 L 622 470 L 623 469 L 624 469 L 623 469 L 622 470 L 621 469 L 621 468 L 621 469 L 620 470 L 619 470 L 618 469 L 619 468 L 617 466 L 616 467 L 615 467 L 614 468 L 613 467 L 613 466 L 616 463 L 614 461 L 616 459 L 618 461 L 619 461 L 620 462 L 620 463 L 621 462 L 622 463 L 620 461 L 621 460 L 620 459 L 622 457 L 623 458 L 623 460 L 624 460 L 625 459 L 626 459 L 627 460 L 625 462 L 625 463 L 623 465 L 623 467 L 623 466 L 625 464 L 626 465 L 627 464 L 628 465 L 628 466 L 627 467 L 629 465 L 630 466 L 630 465 L 631 464 L 632 464 L 634 466 L 634 467 L 634 466 L 636 464 L 636 463 L 637 462 L 638 463 L 638 464 L 638 462 L 637 462 L 636 463 L 636 464 L 634 466 L 633 465 L 633 464 L 634 463 L 633 463 L 632 464 L 631 463 L 631 462 L 635 458 L 636 458 L 637 459 L 638 458 L 638 457 L 639 456 L 640 457 L 641 456 L 644 456 L 646 458 L 646 459 L 646 457 L 645 456 L 646 455 L 645 456 L 644 455 L 643 455 L 642 454 L 642 453 L 643 452 L 644 453 L 645 453 L 644 453 L 643 452 L 644 451 L 644 450 L 643 449 L 643 448 L 644 447 L 645 448 L 644 447 L 645 446 L 646 446 L 647 447 L 647 448 L 648 449 L 647 450 L 646 450 L 646 451 L 647 450 L 648 450 L 648 449 L 647 448 L 647 447 L 649 445 L 650 445 L 651 444 "></path>
        <path fill="none" stroke="#00fafa" stroke-width="3" d="M 669 398 L 670 398 L 671 399 L 670 400 L 671 401 L 671 402 L 672 403 L 671 404 L 671 405 L 670 406 L 670 408 L 671 407 L 672 408 L 673 408 L 674 409 L 674 410 L 673 411 L 672 410 L 675 413 L 673 415 L 672 415 L 673 415 L 674 416 L 671 419 L 672 418 L 673 419 L 673 420 L 674 420 L 675 419 L 676 420 L 675 419 L 677 417 L 678 417 L 679 416 L 681 416 L 683 418 L 684 417 L 685 418 L 685 419 L 684 420 L 683 420 L 682 421 L 681 420 L 680 421 L 682 421 L 683 422 L 684 421 L 684 420 L 685 419 L 686 420 L 686 422 L 687 423 L 686 424 L 685 424 L 683 426 L 682 425 L 679 425 L 678 424 L 679 425 L 679 426 L 680 427 L 679 426 L 680 425 L 682 425 L 683 426 L 683 427 L 680 430 L 679 430 L 679 432 L 678 433 L 677 433 L 676 432 L 677 431 L 677 429 L 676 429 L 674 427 L 674 425 L 675 424 L 675 423 L 674 422 L 673 422 L 673 423 L 672 424 L 671 424 L 670 425 L 669 424 L 669 423 L 669 424 L 670 425 L 669 426 L 668 426 L 668 427 L 667 428 L 666 428 L 665 427 L 666 426 L 666 425 L 666 426 L 665 427 L 663 427 L 664 427 L 665 428 L 665 429 L 666 428 L 667 428 L 668 429 L 667 430 L 667 431 L 666 432 L 665 432 L 664 431 L 664 432 L 662 434 L 663 435 L 666 432 L 667 432 L 669 434 L 668 435 L 667 435 L 664 438 L 663 437 L 664 438 L 665 437 L 666 438 L 668 438 L 669 439 L 668 440 L 666 440 L 668 440 L 669 441 L 668 442 L 669 441 L 670 442 L 669 441 L 670 440 L 671 440 L 672 441 L 673 440 L 674 441 L 675 440 L 675 439 L 674 438 L 675 437 L 676 437 L 677 438 L 677 439 L 678 438 L 680 440 L 680 441 L 679 442 L 678 441 L 677 441 L 678 442 L 678 443 L 677 444 L 676 444 L 677 444 L 678 445 L 677 446 L 672 446 L 670 444 L 670 448 L 669 449 L 667 447 L 668 446 L 668 445 L 668 446 L 666 448 L 663 445 L 664 444 L 664 443 L 662 443 L 661 442 L 662 441 L 663 441 L 662 441 L 661 440 L 662 439 L 661 440 L 660 440 L 659 441 L 657 439 L 657 436 L 655 434 L 656 433 L 655 432 L 656 431 L 655 432 L 654 431 L 654 428 L 653 429 L 652 429 L 651 430 L 650 430 L 649 431 L 649 432 L 650 433 L 651 433 L 652 434 L 651 435 L 652 436 L 652 437 L 654 439 L 654 441 L 653 442 L 652 442 L 651 443 L 649 441 L 650 442 L 649 443 L 648 443 L 647 444 L 645 442 L 646 443 L 644 445 L 642 443 L 642 442 L 641 442 L 640 441 L 641 440 L 642 440 L 642 439 L 643 438 L 645 438 L 646 439 L 645 440 L 646 440 L 647 441 L 646 440 L 646 439 L 647 438 L 646 438 L 645 437 L 645 436 L 642 433 L 643 432 L 644 432 L 646 434 L 647 433 L 647 432 L 646 432 L 645 431 L 645 430 L 644 429 L 645 428 L 646 428 L 647 429 L 647 430 L 648 429 L 648 428 L 649 427 L 648 427 L 647 426 L 644 429 L 642 427 L 643 426 L 644 426 L 645 425 L 644 425 L 643 424 L 644 423 L 646 423 L 647 424 L 648 424 L 649 425 L 650 424 L 652 426 L 651 427 L 652 427 L 653 426 L 654 426 L 654 425 L 655 424 L 653 424 L 652 423 L 653 422 L 655 422 L 656 421 L 657 422 L 656 421 L 655 422 L 652 422 L 652 423 L 651 424 L 649 422 L 650 421 L 649 420 L 648 421 L 650 423 L 649 424 L 648 424 L 647 423 L 646 423 L 645 422 L 646 421 L 645 420 L 645 418 L 644 417 L 645 416 L 647 416 L 648 417 L 647 418 L 648 417 L 648 416 L 647 415 L 648 414 L 649 414 L 650 413 L 652 413 L 652 412 L 653 411 L 655 411 L 657 413 L 657 414 L 656 415 L 657 416 L 657 418 L 660 421 L 659 420 L 659 418 L 660 417 L 661 417 L 660 416 L 662 414 L 663 414 L 664 415 L 663 416 L 664 417 L 664 418 L 665 418 L 664 417 L 665 416 L 666 416 L 666 415 L 667 414 L 668 415 L 668 416 L 669 416 L 669 415 L 671 413 L 670 413 L 669 412 L 670 411 L 668 409 L 667 410 L 666 410 L 664 412 L 664 413 L 663 414 L 661 414 L 660 413 L 660 412 L 660 413 L 661 414 L 660 415 L 658 415 L 657 414 L 658 413 L 657 413 L 656 412 L 658 410 L 659 410 L 661 408 L 662 409 L 662 410 L 664 408 L 665 408 L 666 407 L 666 406 L 666 407 L 665 408 L 663 406 L 662 406 L 661 407 L 660 406 L 660 405 L 661 404 L 661 403 L 662 402 L 664 404 L 665 403 L 666 403 L 667 402 L 668 403 L 668 402 L 667 401 L 667 400 "></path>
        <path fill="none" stroke="#00fafa" stroke-width="3" d="M 643 392 L 644 391 L 647 394 L 647 395 L 645 397 L 646 398 L 647 398 L 647 396 L 648 395 L 649 396 L 652 396 L 653 395 L 654 395 L 656 397 L 656 399 L 653 402 L 652 402 L 651 401 L 650 401 L 651 402 L 653 402 L 654 403 L 655 403 L 656 402 L 657 403 L 657 404 L 656 405 L 659 408 L 658 409 L 657 409 L 656 408 L 655 408 L 654 409 L 654 410 L 653 411 L 652 410 L 652 409 L 651 410 L 650 409 L 650 408 L 651 407 L 653 407 L 654 406 L 652 404 L 651 405 L 650 405 L 649 404 L 649 403 L 648 403 L 647 402 L 647 403 L 646 404 L 646 405 L 647 405 L 648 406 L 648 407 L 647 408 L 647 409 L 646 410 L 647 411 L 646 412 L 644 412 L 643 411 L 644 410 L 644 409 L 643 410 L 643 411 L 642 412 L 642 413 L 643 413 L 644 414 L 643 415 L 640 415 L 639 416 L 640 417 L 639 418 L 638 418 L 637 419 L 636 418 L 636 417 L 637 416 L 637 415 L 638 414 L 638 413 L 637 412 L 637 409 L 638 408 L 639 409 L 639 410 L 640 409 L 639 408 L 640 407 L 644 407 L 643 406 L 642 407 L 641 406 L 641 405 L 642 404 L 638 404 L 637 403 L 638 402 L 637 401 L 637 399 L 638 398 L 639 399 L 639 400 L 639 398 L 638 397 L 638 396 L 639 395 L 640 396 L 642 394 L 643 394 "></path>
        <path fill="none" stroke="#00fafa" stroke-width="3" d="M 660 472 L 662 472 L 663 473 L 662 474 L 663 475 L 663 476 L 662 477 L 661 477 L 662 477 L 663 478 L 663 479 L 665 481 L 664 480 L 666 478 L 667 479 L 667 478 L 668 477 L 669 477 L 670 476 L 671 477 L 673 477 L 674 478 L 673 479 L 671 479 L 671 481 L 670 482 L 670 483 L 669 484 L 670 483 L 671 483 L 673 481 L 673 480 L 674 479 L 675 480 L 675 482 L 673 484 L 673 487 L 674 488 L 673 489 L 672 489 L 672 490 L 673 491 L 672 492 L 672 493 L 673 494 L 673 495 L 672 496 L 671 495 L 671 496 L 670 497 L 669 497 L 668 496 L 668 495 L 670 493 L 670 492 L 669 491 L 670 490 L 670 488 L 670 490 L 669 491 L 668 491 L 667 492 L 668 493 L 668 494 L 667 495 L 664 492 L 663 492 L 662 491 L 662 490 L 663 489 L 665 489 L 666 490 L 667 489 L 666 489 L 665 488 L 664 488 L 663 487 L 662 488 L 661 487 L 661 486 L 662 485 L 664 485 L 661 485 L 660 486 L 656 482 L 656 481 L 657 480 L 660 483 L 661 483 L 661 482 L 660 481 L 661 480 L 661 479 L 660 480 L 658 478 L 658 477 L 660 475 L 658 477 L 657 476 L 657 475 "></path>
        <path fill="none" stroke="#00fafa" stroke-width="3" d="M 681 335 L 682 334 L 683 335 L 683 337 L 684 337 L 686 339 L 686 340 L 685 341 L 684 341 L 683 340 L 683 339 L 682 340 L 682 341 L 681 342 L 682 342 L 683 343 L 682 344 L 680 344 L 679 343 L 679 341 L 679 343 L 678 344 L 677 343 L 676 343 L 677 344 L 675 346 L 673 344 L 674 345 L 673 346 L 673 347 L 674 348 L 678 348 L 679 349 L 677 351 L 676 350 L 676 351 L 675 352 L 673 352 L 672 353 L 671 352 L 667 352 L 666 351 L 666 350 L 665 351 L 666 352 L 666 353 L 665 354 L 664 354 L 663 353 L 663 352 L 662 352 L 661 351 L 661 349 L 662 348 L 663 348 L 663 347 L 662 347 L 660 345 L 661 344 L 662 344 L 663 345 L 664 345 L 664 344 L 665 343 L 667 343 L 668 344 L 669 344 L 670 345 L 670 346 L 668 348 L 669 347 L 670 347 L 671 348 L 671 347 L 670 346 L 670 345 L 669 344 L 671 342 L 673 342 L 670 339 L 672 337 L 674 337 L 675 336 L 677 338 L 676 337 L 677 336 L 678 336 L 679 337 L 680 336 L 681 337 "></path>
        <path fill="none" stroke="#00fafa" stroke-width="3" d="M 671 398 L 672 397 L 673 398 L 673 400 L 674 400 L 676 402 L 676 401 L 678 399 L 679 400 L 679 401 L 680 402 L 679 403 L 680 404 L 681 404 L 682 405 L 683 404 L 682 403 L 682 402 L 683 401 L 686 401 L 687 400 L 688 400 L 687 399 L 688 398 L 690 398 L 691 399 L 692 399 L 693 400 L 692 401 L 692 402 L 691 403 L 690 402 L 689 403 L 691 403 L 692 404 L 691 405 L 691 406 L 690 407 L 691 407 L 693 409 L 694 409 L 695 408 L 696 408 L 697 409 L 695 411 L 696 411 L 698 413 L 697 414 L 696 414 L 695 415 L 694 414 L 693 414 L 692 413 L 693 412 L 691 414 L 689 412 L 690 411 L 690 410 L 687 410 L 686 409 L 687 408 L 688 408 L 687 407 L 686 408 L 685 407 L 685 406 L 686 405 L 685 405 L 684 406 L 686 408 L 682 412 L 681 411 L 681 410 L 682 409 L 682 408 L 682 409 L 681 410 L 679 408 L 680 407 L 679 406 L 678 407 L 676 407 L 675 406 L 674 407 L 673 406 L 672 406 L 671 405 L 672 404 L 673 404 L 673 402 L 672 403 L 671 402 L 671 401 L 670 400 L 671 399 "></path>
        <path fill="none" stroke="#00fafa" stroke-width="3" d="M 679 349 L 680 348 L 681 348 L 682 349 L 681 350 L 681 351 L 682 352 L 682 351 L 684 349 L 685 349 L 686 350 L 684 352 L 685 353 L 686 353 L 688 355 L 689 354 L 688 353 L 689 352 L 690 352 L 691 353 L 691 354 L 692 355 L 691 356 L 690 356 L 688 358 L 687 357 L 687 358 L 686 359 L 685 358 L 684 358 L 683 357 L 683 355 L 683 358 L 681 360 L 680 360 L 679 359 L 679 358 L 678 359 L 675 359 L 673 357 L 674 356 L 675 356 L 676 357 L 675 356 L 677 354 L 679 356 L 681 356 L 679 356 L 678 355 L 678 354 L 679 353 L 680 353 L 681 354 L 680 353 L 678 353 L 677 352 L 679 350 "></path>
        <path fill="none" stroke="#00fafa" stroke-width="3" d="M 667 364 L 668 363 L 669 364 L 669 365 L 670 364 L 671 365 L 672 365 L 673 366 L 674 366 L 675 367 L 674 368 L 671 368 L 671 369 L 672 370 L 671 371 L 670 371 L 669 372 L 668 371 L 668 370 L 669 369 L 668 370 L 666 370 L 666 371 L 667 370 L 668 371 L 668 372 L 667 373 L 666 373 L 665 374 L 664 374 L 665 374 L 666 375 L 664 377 L 663 376 L 662 376 L 661 375 L 662 374 L 660 376 L 659 376 L 657 374 L 659 372 L 660 372 L 659 372 L 658 371 L 658 370 L 659 369 L 661 369 L 662 368 L 663 369 L 664 369 L 663 369 L 662 368 L 663 367 L 664 367 L 665 366 L 666 367 L 667 366 "></path>
        <path fill="none" stroke="#00fafa" stroke-width="3" d="M 660 458 L 661 457 L 662 458 L 662 459 L 664 459 L 666 461 L 666 462 L 667 463 L 667 464 L 668 465 L 668 467 L 669 468 L 668 469 L 669 470 L 669 471 L 670 472 L 671 471 L 673 473 L 673 474 L 672 475 L 671 475 L 670 474 L 670 475 L 669 476 L 668 475 L 667 476 L 666 476 L 665 475 L 667 473 L 666 474 L 665 474 L 664 473 L 664 471 L 663 470 L 663 469 L 664 468 L 665 468 L 663 466 L 664 465 L 663 464 L 663 463 L 662 462 L 662 461 L 662 463 L 661 464 L 659 464 L 658 463 L 659 462 L 660 462 L 659 462 L 658 461 L 659 460 L 660 460 "></path>
        <path fill="none" stroke="#00fafa" stroke-width="3" d="M 615 473 L 616 472 L 617 473 L 617 474 L 618 475 L 618 476 L 620 478 L 621 478 L 620 478 L 619 477 L 620 476 L 621 476 L 622 475 L 623 475 L 624 476 L 623 477 L 623 479 L 622 480 L 622 481 L 621 482 L 620 482 L 620 483 L 619 484 L 617 482 L 617 481 L 618 480 L 617 480 L 616 481 L 615 480 L 614 481 L 613 480 L 612 481 L 611 481 L 610 480 L 613 477 L 615 477 L 616 478 L 614 476 L 613 476 L 612 475 L 612 474 L 613 473 L 614 474 L 615 474 "></path>
        <path fill="none" stroke="#00fafa" stroke-width="3" d="M 654 314 L 655 313 L 656 314 L 657 314 L 658 315 L 657 316 L 658 315 L 659 316 L 660 316 L 661 317 L 662 317 L 663 318 L 662 319 L 661 319 L 660 320 L 659 320 L 659 322 L 658 323 L 659 324 L 658 325 L 657 325 L 656 326 L 655 325 L 655 323 L 654 323 L 653 322 L 653 321 L 652 320 L 653 319 L 654 319 L 655 320 L 656 320 L 657 321 L 656 320 L 657 319 L 656 320 L 654 318 L 653 319 L 652 318 L 652 317 L 653 316 L 655 316 L 653 316 L 652 315 L 653 314 "></path>
        <path fill="none" stroke="#00fafa" stroke-width="3" d="M 636 447 L 637 446 L 639 448 L 638 449 L 639 450 L 638 451 L 638 452 L 639 453 L 638 454 L 634 454 L 633 455 L 633 457 L 632 458 L 631 457 L 631 456 L 630 455 L 630 454 L 629 453 L 629 452 L 630 451 L 630 449 L 632 447 L 633 447 L 635 449 L 636 448 "></path>
        <path fill="none" stroke="#00fafa" stroke-width="3" d="M 682 394 L 683 393 L 684 393 L 685 394 L 685 396 L 684 397 L 684 398 L 685 398 L 686 399 L 684 401 L 682 399 L 682 398 L 682 400 L 681 401 L 680 400 L 680 399 L 679 400 L 678 399 L 678 398 L 678 399 L 677 400 L 676 400 L 675 401 L 674 400 L 674 399 L 675 398 L 676 398 L 675 397 L 677 395 L 678 395 L 679 396 L 679 395 L 680 394 L 681 395 L 682 394 L 683 395 "></path>
        <path fill="none" stroke="#00fafa" stroke-width="3" d="M 690 416 L 693 416 L 694 417 L 693 418 L 694 417 L 695 418 L 695 419 L 696 420 L 695 421 L 694 421 L 693 422 L 692 422 L 692 423 L 691 424 L 690 423 L 689 423 L 688 424 L 686 422 L 686 419 L 685 418 L 686 417 L 687 417 L 688 418 "></path>
        <path fill="none" stroke="#00fafa" stroke-width="3" d="M 671 295 L 672 295 L 673 296 L 672 297 L 672 298 L 673 299 L 673 300 L 674 300 L 675 301 L 674 302 L 675 303 L 674 304 L 673 304 L 674 304 L 675 305 L 675 306 L 673 308 L 671 306 L 671 305 L 670 306 L 669 306 L 668 305 L 669 304 L 669 303 L 668 302 L 669 301 L 670 301 L 670 300 L 669 299 L 669 297 "></path>
        <path fill="none" stroke="#00fafa" stroke-width="3" d="M 664 322 L 665 321 L 667 323 L 667 322 L 668 321 L 669 322 L 669 323 L 670 324 L 670 325 L 669 326 L 670 325 L 671 326 L 671 327 L 669 329 L 669 331 L 670 332 L 670 333 L 669 334 L 666 331 L 665 331 L 664 330 L 665 329 L 666 329 L 666 328 L 665 327 L 666 326 L 667 326 L 664 323 "></path>
        <path fill="none" stroke="#00fafa" stroke-width="3" d="M 646 313 L 647 312 L 648 312 L 649 313 L 649 314 L 650 314 L 651 315 L 651 316 L 650 317 L 649 316 L 649 317 L 647 319 L 646 319 L 645 318 L 646 319 L 647 319 L 648 320 L 646 322 L 645 321 L 644 321 L 643 322 L 642 321 L 642 320 L 643 319 L 642 318 L 642 317 L 643 316 L 644 316 L 645 315 L 646 316 L 645 315 L 645 314 L 646 313 L 647 314 "></path>
        <path fill="none" stroke="#00fafa" stroke-width="3" d="M 634 319 L 635 320 L 635 321 L 638 321 L 640 323 L 639 324 L 639 325 L 638 326 L 638 327 L 637 328 L 636 328 L 635 329 L 634 328 L 634 327 L 633 326 L 635 324 L 633 326 L 632 326 L 631 325 L 631 324 L 632 323 L 633 323 L 633 322 L 632 321 "></path>
        <path fill="none" stroke="#00fafa" stroke-width="3" d="M 619 276 L 620 275 L 621 276 L 621 277 L 622 276 L 624 276 L 626 278 L 627 277 L 630 280 L 629 281 L 627 281 L 626 280 L 625 281 L 624 280 L 623 281 L 621 281 L 620 280 L 620 279 L 620 280 L 619 281 L 618 280 L 618 279 L 617 278 L 618 277 L 619 277 "></path>
        <path fill="none" stroke="#00fafa" stroke-width="3" d="M 611 276 L 612 275 L 613 275 L 614 276 L 614 277 L 615 278 L 614 279 L 615 280 L 616 280 L 617 279 L 619 281 L 619 282 L 618 283 L 617 282 L 616 282 L 615 283 L 613 281 L 612 282 L 611 282 L 610 283 L 609 282 L 609 281 L 610 280 L 608 278 L 610 276 "></path>
        <path fill="none" stroke="#00fafa" stroke-width="3" d="M 679 359 L 680 360 L 681 360 L 682 361 L 682 362 L 683 363 L 682 364 L 685 364 L 687 366 L 686 367 L 684 367 L 683 368 L 682 368 L 681 367 L 682 366 L 681 366 L 681 367 L 680 368 L 679 367 L 679 365 L 678 364 L 680 362 L 678 362 L 677 361 "></path>
        <path fill="none" stroke="#00fafa" stroke-width="3" d="M 601 260 L 602 259 L 603 259 L 604 260 L 604 262 L 606 264 L 605 265 L 603 265 L 603 266 L 600 269 L 598 267 L 599 266 L 598 266 L 597 265 L 598 264 L 600 264 L 599 263 L 601 261 L 602 261 "></path>
        <path fill="none" stroke="#00fafa" stroke-width="3" d="M 649 288 L 650 287 L 652 287 L 655 290 L 654 291 L 653 291 L 652 290 L 653 291 L 653 292 L 651 294 L 650 294 L 649 295 L 648 294 L 648 292 L 647 291 L 647 289 L 648 288 L 649 289 "></path>
        <path fill="none" stroke="#00fafa" stroke-width="3" d="M 644 309 L 645 309 L 646 310 L 647 309 L 648 310 L 649 309 L 650 309 L 654 313 L 653 314 L 652 314 L 650 312 L 646 312 L 646 313 L 645 314 L 645 315 L 644 316 L 643 315 L 643 312 L 642 311 "></path>
        <path fill="none" stroke="#00fafa" stroke-width="3" d="M 650 301 L 651 300 L 652 300 L 653 301 L 652 302 L 653 301 L 654 302 L 654 303 L 653 304 L 655 302 L 656 303 L 656 305 L 654 307 L 653 307 L 651 305 L 651 304 L 651 305 L 650 306 L 649 305 L 648 306 L 647 305 L 647 304 L 648 303 L 649 303 L 650 302 "></path>
        <path fill="none" stroke="#00fafa" stroke-width="3" d="M 652 281 L 653 280 L 655 282 L 654 283 L 655 283 L 656 284 L 655 285 L 654 285 L 655 286 L 655 287 L 654 288 L 653 287 L 650 287 L 649 286 L 650 285 L 649 286 L 648 285 L 648 284 L 647 283 L 648 282 L 649 282 L 650 283 L 651 283 L 652 282 "></path>
        <path fill="none" stroke="#00fafa" stroke-width="3" d="M 650 388 L 651 387 L 652 387 L 655 390 L 654 391 L 653 391 L 652 392 L 651 392 L 652 393 L 651 394 L 650 394 L 651 394 L 652 395 L 651 396 L 649 396 L 648 395 L 648 394 L 647 393 L 651 389 "></path>
        <path fill="none" stroke="#00fafa" stroke-width="3" d="M 666 390 L 668 390 L 670 392 L 667 395 L 667 396 L 664 399 L 663 398 L 663 396 L 664 395 L 665 395 L 664 395 L 663 394 L 664 393 L 665 393 L 664 392 "></path>
        <path fill="none" stroke="#00fafa" stroke-width="3" d="M 684 342 L 685 343 L 686 343 L 687 344 L 688 343 L 689 343 L 690 344 L 688 346 L 687 346 L 687 347 L 685 349 L 682 349 L 681 348 L 682 347 L 683 347 L 684 346 L 684 345 L 683 346 L 682 345 L 682 344 "></path>
        <path fill="none" stroke="#00fafa" stroke-width="3" d="M 646 357 L 647 356 L 648 356 L 649 357 L 648 358 L 649 357 L 650 357 L 651 358 L 651 359 L 652 360 L 651 361 L 649 361 L 648 362 L 647 361 L 645 363 L 643 361 L 645 359 L 646 359 "></path>
        <path fill="none" stroke="#00fafa" stroke-width="3" d="M 669 360 L 670 359 L 671 359 L 672 360 L 671 361 L 672 361 L 673 362 L 674 362 L 676 364 L 676 365 L 677 366 L 677 367 L 676 368 L 674 366 L 673 366 L 672 365 L 672 364 L 671 363 L 670 364 L 669 363 "></path>
        <path fill="none" stroke="#00fafa" stroke-width="3" d="M 681 369 L 682 368 L 683 369 L 683 370 L 684 371 L 685 370 L 687 372 L 685 374 L 684 373 L 685 374 L 683 376 L 679 372 L 680 371 L 681 371 "></path>
        <path fill="none" stroke="#00fafa" stroke-width="3" d="M 631 411 L 632 410 L 633 411 L 634 410 L 635 411 L 636 411 L 638 413 L 638 414 L 637 415 L 634 415 L 633 416 L 632 415 L 631 415 L 630 414 L 631 413 "></path>
        <path fill="none" stroke="#00fafa" stroke-width="3" d="M 636 444 L 637 443 L 638 443 L 640 445 L 639 444 L 640 443 L 641 443 L 642 444 L 642 445 L 643 445 L 644 446 L 643 447 L 643 448 L 642 449 L 640 449 L 639 448 L 640 447 L 638 447 L 637 446 L 637 445 "></path>
        <path fill="none" stroke="#00fafa" stroke-width="3" d="M 648 346 L 649 345 L 650 346 L 650 347 L 651 346 L 653 348 L 652 349 L 652 350 L 651 351 L 650 350 L 651 351 L 650 352 L 647 352 L 646 351 L 646 350 L 647 349 L 648 350 L 648 349 L 647 348 L 648 347 "></path>
        <path fill="none" stroke="#00fafa" stroke-width="3" d="M 651 365 L 652 364 L 653 365 L 653 366 L 657 370 L 657 371 L 656 372 L 654 372 L 653 371 L 654 370 L 653 369 L 650 369 L 649 368 L 649 367 L 650 366 L 651 366 "></path>
        <path fill="none" stroke="#00fafa" stroke-width="3" d="M 616 296 L 617 296 L 619 298 L 618 299 L 619 299 L 620 300 L 621 300 L 622 301 L 622 303 L 621 304 L 620 303 L 619 303 L 614 298 "></path>
        <path fill="none" stroke="#00fafa" stroke-width="3" d="M 643 292 L 644 293 L 644 294 L 643 295 L 643 296 L 644 297 L 645 296 L 646 297 L 646 298 L 645 299 L 643 299 L 642 300 L 641 299 L 641 298 L 640 298 L 639 297 L 639 296 L 640 295 L 641 296 L 641 294 "></path>
        <path fill="none" stroke="#00fafa" stroke-width="3" d="M 611 300 L 612 299 L 614 299 L 615 300 L 615 301 L 614 302 L 613 301 L 614 302 L 614 303 L 613 304 L 612 303 L 612 306 L 611 307 L 610 306 L 610 305 L 609 305 L 608 304 L 609 303 L 610 303 L 610 302 L 611 301 "></path>
        <path fill="none" stroke="#00fafa" stroke-width="3" d="M 640 333 L 641 332 L 642 332 L 643 333 L 643 337 L 644 336 L 645 337 L 645 338 L 643 340 L 642 340 L 640 338 "></path>
        <path fill="none" stroke="#00fafa" stroke-width="3" d="M 651 294 L 653 296 L 652 297 L 653 296 L 654 297 L 654 300 L 653 301 L 652 300 L 652 299 L 650 301 L 648 299 L 649 298 L 650 298 L 649 297 L 649 296 "></path>
        <path fill="none" stroke="#00fafa" stroke-width="3" d="M 623 261 L 624 260 L 625 261 L 626 260 L 627 260 L 628 261 L 627 262 L 628 261 L 629 262 L 629 263 L 628 264 L 627 264 L 627 265 L 626 266 L 624 266 L 623 265 L 624 264 L 624 263 L 623 262 "></path>
        <path fill="none" stroke="#00fafa" stroke-width="3" d="M 671 327 L 672 326 L 673 326 L 674 327 L 673 328 L 674 329 L 674 330 L 676 330 L 677 331 L 676 332 L 672 332 L 671 331 L 670 332 L 669 331 L 669 330 L 670 329 L 671 329 "></path>
        <path fill="none" stroke="#00fafa" stroke-width="3" d="M 661 391 L 663 393 L 662 394 L 662 395 L 663 396 L 663 398 L 662 399 L 660 397 L 659 398 L 658 397 L 658 395 L 659 394 L 659 393 "></path>
        <path fill="none" stroke="#00fafa" stroke-width="3" d="M 630 275 L 631 274 L 633 276 L 633 277 L 634 276 L 636 278 L 636 279 L 635 280 L 634 279 L 635 280 L 634 281 L 632 281 L 631 280 L 631 279 L 630 278 L 631 277 L 630 276 "></path>
        <path fill="none" stroke="#00fafa" stroke-width="3" d="M 648 370 L 649 369 L 652 369 L 653 370 L 653 371 L 652 372 L 651 371 L 650 371 L 648 373 L 648 375 L 647 376 L 646 376 L 645 375 L 646 374 L 646 371 L 647 370 "></path>
        <path fill="none" stroke="#00fafa" stroke-width="3" d="M 674 407 L 675 406 L 677 408 L 676 409 L 677 409 L 678 408 L 679 408 L 681 410 L 679 412 L 678 411 L 677 412 L 676 411 L 675 412 L 674 411 "></path>
        <path fill="none" stroke="#00fafa" stroke-width="3" d="M 656 286 L 657 287 L 657 288 L 658 287 L 659 288 L 659 289 L 658 290 L 658 292 L 657 293 L 655 293 L 654 292 L 654 291 L 655 290 L 655 289 L 654 288 "></path>
        <path fill="none" stroke="#00fafa" stroke-width="3" d="M 640 324 L 642 326 L 642 327 L 643 327 L 644 328 L 644 329 L 642 331 L 641 330 L 641 329 L 640 330 L 639 329 L 639 328 L 640 327 L 639 328 L 638 327 L 638 326 "></path>
        <path fill="none" stroke="#00fafa" stroke-width="3" d="M 589 264 L 590 263 L 591 264 L 592 264 L 593 265 L 594 264 L 595 265 L 595 266 L 596 267 L 594 269 L 593 268 L 593 267 L 592 267 L 591 268 L 589 266 "></path>
        <path fill="none" stroke="#00fafa" stroke-width="3" d="M 680 388 L 681 389 L 681 390 L 683 392 L 682 393 L 681 393 L 680 394 L 679 393 L 678 394 L 676 392 L 676 391 L 677 390 L 678 391 L 679 391 L 678 390 "></path>
        <path fill="none" stroke="#00fafa" stroke-width="3" d="M 681 431 L 682 430 L 683 430 L 684 431 L 683 432 L 684 431 L 686 433 L 685 434 L 685 435 L 683 437 L 681 435 L 682 434 L 681 433 "></path>
        <path fill="none" stroke="#00fafa" stroke-width="3" d="M 640 434 L 643 434 L 644 435 L 643 436 L 643 438 L 641 440 L 639 438 L 639 437 L 638 436 "></path>
        <path fill="none" stroke="#00fafa" stroke-width="3" d="M 628 469 L 630 471 L 629 472 L 630 471 L 631 471 L 632 472 L 632 473 L 631 474 L 629 474 L 628 475 L 627 475 L 626 474 L 627 473 L 627 472 L 626 471 "></path>
        <path fill="none" stroke="#00fafa" stroke-width="3" d="M 656 376 L 657 375 L 659 377 L 658 378 L 657 378 L 658 378 L 659 379 L 658 380 L 654 380 L 653 379 L 654 378 L 655 378 L 654 378 L 653 377 L 654 376 "></path>
        <path fill="none" stroke="#00fafa" stroke-width="3" d="M 640 318 L 641 317 L 642 318 L 642 320 L 641 321 L 642 322 L 643 322 L 644 323 L 643 324 L 641 324 L 638 321 L 639 320 L 638 319 L 639 318 "></path>
        <path fill="none" stroke="#00fafa" stroke-width="3" d="M 685 410 L 686 409 L 687 410 L 689 410 L 690 411 L 688 413 L 687 412 L 687 414 L 686 415 L 685 415 L 683 413 L 685 411 "></path>
        <path fill="none" stroke="#00fafa" stroke-width="3" d="M 676 375 L 678 377 L 678 378 L 677 379 L 676 378 L 677 379 L 675 381 L 673 381 L 672 380 L 672 379 L 673 378 L 674 378 L 674 377 "></path>
        <path fill="none" stroke="#00fafa" stroke-width="3" d="M 635 301 L 636 302 L 636 303 L 634 305 L 633 305 L 634 306 L 632 308 L 631 307 L 631 305 L 630 304 L 631 303 L 633 303 "></path>
        <path fill="none" stroke="#00fafa" stroke-width="3" d="M 638 361 L 639 360 L 640 360 L 641 361 L 641 365 L 642 366 L 640 368 L 639 367 L 639 365 L 638 364 L 639 363 L 638 362 "></path>
        <path fill="none" stroke="#00fafa" stroke-width="3" d="M 613 455 L 614 454 L 615 454 L 616 455 L 617 455 L 618 456 L 617 457 L 616 457 L 617 457 L 618 458 L 617 459 L 616 459 L 615 460 L 614 459 L 614 457 L 613 456 "></path>
        <path fill="none" stroke="#00fafa" stroke-width="3" d="M 669 387 L 670 386 L 671 387 L 672 386 L 673 387 L 673 389 L 672 390 L 671 389 L 670 390 L 669 389 L 668 390 L 666 388 L 667 387 "></path>
        <path fill="none" stroke="#00fafa" stroke-width="3" d="M 629 299 L 630 300 L 630 301 L 631 302 L 629 304 L 628 304 L 628 305 L 627 306 L 625 304 L 627 302 L 628 302 L 627 301 "></path>
        <path fill="none" stroke="#00fafa" stroke-width="3" d="M 628 325 L 629 326 L 630 326 L 631 325 L 632 326 L 632 327 L 631 328 L 631 330 L 630 331 L 629 330 L 629 328 L 627 328 L 626 327 "></path>
        <path fill="none" stroke="#00fafa" stroke-width="3" d="M 647 363 L 648 362 L 650 362 L 651 363 L 650 364 L 649 364 L 650 365 L 650 366 L 648 368 L 646 366 L 646 365 L 647 364 "></path>
        <path fill="none" stroke="#00fafa" stroke-width="3" d="M 647 332 L 648 333 L 648 334 L 649 335 L 649 337 L 648 338 L 647 338 L 646 337 L 645 337 L 644 336 L 645 335 L 646 335 L 645 334 "></path>
        <path fill="none" stroke="#00fafa" stroke-width="3" d="M 640 390 L 641 389 L 642 390 L 642 394 L 640 396 L 638 394 L 638 393 L 640 391 "></path>
        <path fill="none" stroke="#00fafa" stroke-width="3" d="M 670 353 L 671 354 L 672 353 L 674 355 L 674 356 L 673 357 L 671 357 L 670 356 L 669 357 L 668 356 L 668 355 "></path>
        <path fill="none" stroke="#00fafa" stroke-width="3" d="M 682 329 L 683 328 L 684 329 L 684 330 L 685 330 L 686 331 L 685 332 L 684 332 L 685 332 L 686 333 L 685 334 L 683 334 L 682 333 "></path>
        <path fill="none" stroke="#00fafa" stroke-width="3" d="M 644 488 L 645 487 L 646 488 L 647 487 L 648 487 L 649 488 L 646 491 L 646 492 L 645 493 L 644 492 "></path>
        <path fill="none" stroke="#00fafa" stroke-width="3" d="M 629 319 L 630 318 L 632 320 L 628 324 L 627 323 L 627 320 L 628 319 L 629 320 "></path>
        <path fill="none" stroke="#00fafa" stroke-width="3" d="M 676 371 L 677 370 L 678 371 L 678 372 L 679 373 L 680 373 L 681 374 L 680 375 L 678 375 L 676 373 L 675 373 L 674 372 L 675 371 "></path>
        <path fill="none" stroke="#00fafa" stroke-width="3" d="M 685 368 L 686 367 L 687 368 L 687 369 L 688 368 L 689 369 L 689 371 L 688 372 L 687 371 L 686 371 L 685 370 L 684 370 L 683 369 L 684 368 "></path>
        <path fill="none" stroke="#00fafa" stroke-width="3" d="M 680 438 L 681 437 L 682 438 L 683 437 L 685 439 L 683 441 L 682 441 L 681 442 L 680 441 "></path>
        <path fill="none" stroke="#00fafa" stroke-width="3" d="M 618 456 L 619 455 L 621 457 L 621 458 L 620 459 L 621 460 L 620 461 L 618 461 L 617 460 L 618 459 "></path>
        <path fill="none" stroke="#00fafa" stroke-width="3" d="M 527 264 L 528 263 L 529 263 L 530 264 L 531 264 L 532 265 L 531 266 L 531 267 L 530 268 L 529 268 L 528 267 L 529 266 L 528 266 L 527 265 "></path>
        <path fill="none" stroke="#00fafa" stroke-width="3" d="M 693 351 L 694 350 L 695 351 L 696 350 L 698 352 L 697 353 L 697 354 L 696 355 L 695 355 L 694 354 L 695 353 L 694 353 L 693 352 "></path>
        <path fill="none" stroke="#00fafa" stroke-width="3" d="M 607 264 L 608 263 L 609 264 L 610 264 L 611 265 L 609 267 L 608 267 L 608 268 L 607 269 L 606 268 L 606 266 L 607 265 "></path>
        <path fill="none" stroke="#00fafa" stroke-width="3" d="M 693 422 L 694 423 L 694 424 L 693 425 L 694 426 L 693 427 L 692 427 L 691 428 L 689 426 L 690 425 L 691 425 L 691 424 "></path>
        <path fill="none" stroke="#00fafa" stroke-width="3" d="M 632 330 L 633 331 L 633 334 L 632 335 L 631 335 L 630 336 L 629 335 L 629 334 L 630 333 L 630 332 "></path>
        <path fill="none" stroke="#00fafa" stroke-width="3" d="M 670 306 L 671 306 L 672 307 L 668 311 L 667 311 L 666 310 L 666 309 L 667 308 L 668 308 "></path>
        <path fill="none" stroke="#00fafa" stroke-width="3" d="M 633 455 L 634 454 L 636 454 L 637 455 L 637 456 L 638 457 L 638 458 L 637 459 L 635 457 L 635 456 L 634 457 L 633 456 "></path>
        <path fill="none" stroke="#00fafa" stroke-width="3" d="M 678 413 L 679 412 L 680 412 L 681 413 L 680 414 L 681 413 L 682 414 L 682 415 L 681 416 L 678 416 L 677 415 L 678 414 "></path>
        <path fill="none" stroke="#00fafa" stroke-width="3" d="M 621 489 L 622 488 L 624 488 L 625 489 L 625 490 L 627 492 L 626 493 L 625 493 L 623 491 L 623 490 L 622 490 "></path>
        <path fill="none" stroke="#00fafa" stroke-width="3" d="M 659 339 L 660 338 L 661 339 L 661 341 L 662 342 L 661 343 L 660 343 L 659 342 L 659 341 L 658 342 L 657 341 L 657 340 L 658 339 "></path>
        <path fill="none" stroke="#00fafa" stroke-width="3" d="M 662 313 L 663 312 L 667 316 L 665 318 L 663 316 L 663 315 L 662 314 "></path>
        <path fill="none" stroke="#00fafa" stroke-width="3" d="M 589 293 L 590 292 L 592 292 L 594 294 L 595 294 L 596 295 L 595 296 L 593 296 L 591 294 L 590 294 "></path>
        <path fill="none" stroke="#00fafa" stroke-width="3" d="M 684 363 L 685 362 L 686 362 L 687 363 L 688 362 L 689 363 L 690 363 L 691 364 L 690 365 L 686 365 "></path>
        <path fill="none" stroke="#00fafa" stroke-width="3" d="M 653 351 L 654 351 L 655 352 L 654 353 L 654 354 L 655 355 L 654 356 L 652 356 L 651 355 L 652 354 L 651 353 "></path>
        <path fill="none" stroke="#00fafa" stroke-width="3" d="M 687 333 L 688 332 L 689 333 L 689 334 L 690 335 L 689 336 L 688 336 L 687 335 L 686 336 L 685 336 L 684 335 L 686 333 "></path>
        <path fill="none" stroke="#00fafa" stroke-width="3" d="M 670 314 L 671 315 L 672 315 L 673 314 L 674 315 L 674 316 L 672 318 L 671 317 L 669 317 L 668 316 "></path>
        <path fill="none" stroke="#00fafa" stroke-width="3" d="M 661 375 L 662 376 L 663 376 L 664 377 L 664 378 L 662 380 L 659 377 "></path>
        <path fill="none" stroke="#00fafa" stroke-width="3" d="M 670 382 L 671 381 L 672 382 L 672 384 L 671 385 L 670 385 L 670 386 L 669 387 L 668 386 L 668 384 L 669 383 L 670 383 "></path>
        <path fill="none" stroke="#00fafa" stroke-width="3" d="M 658 488 L 659 487 L 660 487 L 662 489 L 661 490 L 662 491 L 661 492 L 660 492 L 658 490 L 659 489 "></path>
        <path fill="none" stroke="#00fafa" stroke-width="3" d="M 555 243 L 556 242 L 558 244 L 558 247 L 557 248 L 555 246 "></path>
        <path fill="none" stroke="#00fafa" stroke-width="3" d="M 670 377 L 672 377 L 673 378 L 672 379 L 672 380 L 671 381 L 670 380 L 669 381 L 668 380 L 668 379 "></path>
        <path fill="none" stroke="#00fafa" stroke-width="3" d="M 618 483 L 619 484 L 619 485 L 620 485 L 621 486 L 620 487 L 619 487 L 618 488 L 616 486 L 616 485 "></path>
        <path fill="none" stroke="#00fafa" stroke-width="3" d="M 581 270 L 582 271 L 583 271 L 584 272 L 584 273 L 583 274 L 582 274 L 581 273 L 580 274 L 579 273 L 579 272 "></path>
        <path fill="none" stroke="#00fafa" stroke-width="3" d="M 645 301 L 646 302 L 646 306 L 645 307 L 643 305 L 643 303 "></path>
        <path fill="none" stroke="#00fafa" stroke-width="3" d="M 658 303 L 659 302 L 660 302 L 662 304 L 661 305 L 660 305 L 660 306 L 659 307 L 657 305 L 658 304 "></path>
        <path fill="none" stroke="#00fafa" stroke-width="3" d="M 631 321 L 632 321 L 633 322 L 631 324 L 631 325 L 630 326 L 629 326 L 628 325 L 628 324 "></path>
        <path fill="none" stroke="#00fafa" stroke-width="3" d="M 677 321 L 678 320 L 681 320 L 682 321 L 681 322 L 681 323 L 680 324 L 679 323 L 678 323 L 677 322 "></path>
        <path fill="none" stroke="#00fafa" stroke-width="3" d="M 568 279 L 569 278 L 570 279 L 570 280 L 569 281 L 570 282 L 569 283 L 568 283 L 566 281 L 566 280 L 567 279 "></path>
        <path fill="none" stroke="#00fafa" stroke-width="3" d="M 610 290 L 613 293 L 612 294 L 609 294 L 608 293 L 608 292 "></path>
        <path fill="none" stroke="#00fafa" stroke-width="3" d="M 688 413 L 690 413 L 691 414 L 690 415 L 690 416 L 689 417 L 688 417 L 686 415 "></path>
        <path fill="none" stroke="#00fafa" stroke-width="3" d="M 525 278 L 526 277 L 527 278 L 527 282 L 526 283 L 525 283 L 524 282 L 524 281 L 525 280 "></path>
        <path fill="none" stroke="#00fafa" stroke-width="3" d="M 596 292 L 597 291 L 598 292 L 598 293 L 599 294 L 598 295 L 597 295 L 596 294 L 594 294 L 593 293 L 594 292 "></path>
        <path fill="none" stroke="#00fafa" stroke-width="3" d="M 685 395 L 686 394 L 687 395 L 687 396 L 688 395 L 690 397 L 689 398 L 686 398 L 685 397 "></path>
        <path fill="none" stroke="#00fafa" stroke-width="3" d="M 653 308 L 654 307 L 655 308 L 655 310 L 656 310 L 657 311 L 655 313 L 653 311 "></path>
        <path fill="none" stroke="#00fafa" stroke-width="3" d="M 491 237 L 492 236 L 493 236 L 494 237 L 494 238 L 493 239 L 494 240 L 493 241 L 492 241 L 491 240 "></path>
        <path fill="none" stroke="#00fafa" stroke-width="3" d="M 656 312 L 657 311 L 660 311 L 661 312 L 661 313 L 660 314 L 659 313 L 658 314 L 657 314 L 656 313 "></path>
        <path fill="none" stroke="#00fafa" stroke-width="3" d="M 547 282 L 548 281 L 551 281 L 552 282 L 551 283 L 550 283 L 548 285 L 547 284 "></path>
        <path fill="none" stroke="#00fafa" stroke-width="3" d="M 673 333 L 674 332 L 676 332 L 677 333 L 677 336 L 676 337 L 675 336 L 675 335 "></path>
        <path fill="none" stroke="#00fafa" stroke-width="3" d="M 643 345 L 644 344 L 645 344 L 646 345 L 646 347 L 647 348 L 646 349 L 645 349 L 643 347 L 644 346 "></path>
        <path fill="none" stroke="#00fafa" stroke-width="3" d="M 654 349 L 655 348 L 656 349 L 657 349 L 658 348 L 659 349 L 659 350 L 657 352 L 656 351 L 655 351 L 654 350 "></path>
        <path fill="none" stroke="#00fafa" stroke-width="3" d="M 690 356 L 691 356 L 692 357 L 691 358 L 691 360 L 690 361 L 688 359 L 688 358 "></path>
        <path fill="none" stroke="#00fafa" stroke-width="3" d="M 671 430 L 672 429 L 673 429 L 674 430 L 674 433 L 673 434 L 671 432 "></path>
        <path fill="none" stroke="#00fafa" stroke-width="3" d="M 642 430 L 643 429 L 645 431 L 644 432 L 643 432 L 642 433 L 641 433 L 640 432 L 640 431 L 641 430 "></path>
        <path fill="none" stroke="#00fafa" stroke-width="3" d="M 673 429 L 674 428 L 675 428 L 677 430 L 677 431 L 675 433 L 674 432 L 674 430 "></path>
        <path fill="none" stroke="#00fafa" stroke-width="3" d="M 639 357 L 640 356 L 641 357 L 641 358 L 638 361 L 637 360 L 637 358 L 638 357 "></path>
        <path fill="none" stroke="#00fafa" stroke-width="3" d="M 636 329 L 637 328 L 638 329 L 639 329 L 640 330 L 637 333 L 636 332 "></path>
        <path fill="none" stroke="#00fafa" stroke-width="3" d="M 633 297 L 634 296 L 635 296 L 636 297 L 636 299 L 635 300 L 633 300 L 632 299 L 633 298 "></path>
        <path fill="none" stroke="#00fafa" stroke-width="3" d="M 573 576 L 574 577 L 575 576 L 576 577 L 576 578 L 574 580 L 573 579 L 572 579 L 571 578 "></path>
        <path fill="none" stroke="#00fafa" stroke-width="3" d="M 668 372 L 669 372 L 670 373 L 670 374 L 669 375 L 669 376 L 668 377 L 667 376 L 667 375 L 666 374 "></path>
        <path fill="none" stroke="#00fafa" stroke-width="3" d="M 612 258 L 613 257 L 614 258 L 614 261 L 615 262 L 614 263 L 613 263 L 612 262 "></path>
        <path fill="none" stroke="#00fafa" stroke-width="3" d="M 663 363 L 664 362 L 665 362 L 666 363 L 666 365 L 664 367 L 663 366 "></path>
        <path fill="none" stroke="#00fafa" stroke-width="3" d="M 670 465 L 671 466 L 671 467 L 672 468 L 670 470 L 669 470 L 668 469 L 669 468 L 668 467 "></path>
        <path fill="none" stroke="#00fafa" stroke-width="3" d="M 638 343 L 639 342 L 641 344 L 641 345 L 639 347 L 637 345 L 638 344 "></path>
        <path fill="none" stroke="#00fafa" stroke-width="3" d="M 674 416 L 676 416 L 677 417 L 674 420 L 672 418 "></path>
        <path fill="none" stroke="#00fafa" stroke-width="3" d="M 677 386 L 678 385 L 679 386 L 679 389 L 678 390 L 677 389 L 676 389 L 675 388 L 676 387 L 677 387 "></path>
        <path fill="none" stroke="#00fafa" stroke-width="3" d="M 658 359 L 659 358 L 660 358 L 661 359 L 661 360 L 662 360 L 663 361 L 662 362 L 660 362 L 659 361 L 659 360 "></path>
        <path fill="none" stroke="#00fafa" stroke-width="3" d="M 626 295 L 627 296 L 629 296 L 630 297 L 629 298 L 625 298 L 624 297 "></path>
        <path fill="none" stroke="#00fafa" stroke-width="3" d="M 674 434 L 675 433 L 676 433 L 677 434 L 675 436 L 672 436 L 671 435 L 672 434 "></path>
        <path fill="none" stroke="#00fafa" stroke-width="3" d="M 662 383 L 665 386 L 664 387 L 662 387 L 660 385 "></path>
        <path fill="none" stroke="#00fafa" stroke-width="3" d="M 645 353 L 646 352 L 649 352 L 650 353 L 650 354 L 649 355 L 648 354 L 647 355 "></path>
        <path fill="none" stroke="#00fafa" stroke-width="3" d="M 665 354 L 666 353 L 667 354 L 667 355 L 666 356 L 666 357 L 665 358 L 664 357 L 664 356 L 663 355 L 664 354 "></path>
        <path fill="none" stroke="#00fafa" stroke-width="3" d="M 633 427 L 634 426 L 635 427 L 635 428 L 636 429 L 634 431 L 633 431 L 632 430 L 633 429 "></path>
        <path fill="none" stroke="#00fafa" stroke-width="3" d="M 604 299 L 605 298 L 606 299 L 606 300 L 607 301 L 607 302 L 606 303 L 605 303 L 604 302 "></path>
        <path fill="none" stroke="#00fafa" stroke-width="3" d="M 664 292 L 665 291 L 667 293 L 666 294 L 666 295 L 665 296 L 664 296 L 663 295 L 664 294 "></path>
        <path fill="none" stroke="#00fafa" stroke-width="3" d="M 627 282 L 628 281 L 629 282 L 630 281 L 631 282 L 631 284 L 630 285 L 629 284 L 628 284 L 627 283 "></path>
        <path fill="none" stroke="#00fafa" stroke-width="3" d="M 660 468 L 661 467 L 662 467 L 663 468 L 663 470 L 661 472 L 660 471 L 660 470 L 661 469 "></path>
        <path fill="none" stroke="#00fafa" stroke-width="3" d="M 657 483 L 658 484 L 658 486 L 659 487 L 658 488 L 657 488 L 656 487 L 656 486 L 655 485 "></path>
        <path fill="none" stroke="#00fafa" stroke-width="3" d="M 651 486 L 652 485 L 653 486 L 653 487 L 652 488 L 651 488 L 650 489 L 648 487 L 649 486 "></path>
    </g>
</svg>
