<svg xmlns="http://www.w3.org/2000/svg" xmlns:xlink="http://www.w3.org/1999/xlink" version="1.1" x="0" y="0" width="1056px" height="816px">
    <g id="rootLayer" transform="translate(0.000000, 0.000000)">
        <path fill="none" stroke="#00fafa" stroke-width="3" d="M 553 247 L 554 246 L 557 246 L 560 249 L 560 254 L 557 257 L 557 258 L 554 261 L 553 261 L 552 262 L 551 262 L 548 265 L 548 270 L 547 271 L 547 272 L 546 273 L 541 273 L 540 272 L 532 272 L 531 273 L 529 273 L 528 274 L 527 274 L 526 275 L 523 275 L 522 274 L 521 274 L 519 272 L 519 267 L 520 266 L 520 261 L 521 260 L 521 258 L 522 257 L 522 256 L 523 255 L 523 251 L 526 248 L 527 249 L 528 249 L 529 250 L 530 250 L 531 251 L 532 251 L 533 252 L 535 252 L 536 253 L 539 253 L 540 252 L 542 252 L 543 251 L 544 251 L 545 250 L 546 250 L 547 249 L 548 249 L 549 248 L 550 248 L 551 247 "></path>
        <path fill="none" stroke="#00fafa" stroke-width="3" d="M 708 576 L 712 576 L 714 578 L 714 596 L 715 597 L 715 599 L 712 602 L 709 602 L 708 601 L 706 601 L 705 600 L 704 600 L 703 599 L 700 599 L 699 600 L 698 600 L 697 601 L 696 601 L 694 603 L 693 603 L 692 604 L 691 604 L 690 605 L 689 605 L 687 603 L 687 598 L 688 597 L 688 596 L 689 595 L 689 594 L 690 593 L 690 589 L 689 588 L 689 586 L 688 585 L 688 583 L 687 582 L 687 581 L 689 579 L 693 579 L 694 580 L 695 580 L 696 581 L 702 581 L 703 580 L 704 580 "></path>
        <path fill="none" stroke="#00fafa" stroke-width="3" d="M 765 354 L 766 353 L 768 353 L 769 354 L 770 354 L 773 357 L 773 358 L 776 361 L 777 361 L 778 362 L 779 362 L 781 364 L 782 364 L 784 366 L 784 368 L 785 369 L 784 370 L 784 372 L 781 375 L 780 375 L 779 376 L 776 376 L 775 375 L 766 375 L 764 377 L 763 377 L 763 378 L 761 380 L 760 380 L 759 381 L 754 381 L 750 377 L 750 376 L 749 375 L 749 370 L 753 366 L 754 366 L 755 365 L 756 365 L 761 360 L 761 359 L 762 358 L 762 357 L 763 356 L 763 355 L 764 354 "></path>
        <path fill="none" stroke="#00fafa" stroke-width="3" d="M 764 301 L 765 300 L 768 303 L 768 304 L 767 305 L 767 307 L 766 308 L 766 309 L 765 310 L 765 316 L 766 317 L 766 318 L 769 321 L 769 323 L 770 324 L 767 327 L 755 327 L 754 328 L 751 328 L 750 329 L 747 329 L 746 330 L 745 329 L 744 329 L 743 328 L 743 327 L 742 326 L 742 325 L 743 324 L 743 323 L 744 322 L 744 321 L 745 320 L 745 319 L 746 318 L 746 314 L 745 313 L 745 312 L 744 311 L 744 309 L 743 308 L 743 306 L 745 304 L 748 304 L 749 305 L 751 305 L 752 306 L 755 306 L 756 305 L 757 305 L 758 304 L 759 304 L 762 301 "></path>
        <path fill="none" stroke="#00fafa" stroke-width="3" d="M 432 191 L 436 191 L 438 193 L 438 194 L 437 195 L 437 197 L 436 198 L 436 199 L 435 200 L 435 206 L 437 208 L 437 209 L 438 210 L 438 211 L 439 212 L 439 214 L 437 216 L 427 216 L 426 217 L 422 217 L 421 218 L 415 218 L 412 215 L 412 213 L 413 212 L 413 211 L 414 210 L 414 209 L 415 208 L 415 201 L 414 200 L 414 198 L 413 197 L 413 196 L 416 193 L 417 193 L 418 194 L 420 194 L 421 195 L 427 195 L 429 193 L 430 193 "></path>
        <path fill="none" stroke="#00fafa" stroke-width="3" d="M 156 413 L 157 412 L 161 412 L 163 414 L 163 416 L 162 417 L 162 418 L 161 419 L 161 420 L 160 421 L 160 422 L 159 423 L 159 428 L 160 429 L 160 430 L 161 431 L 161 436 L 159 438 L 158 438 L 157 439 L 155 439 L 154 440 L 153 440 L 152 441 L 149 441 L 148 440 L 142 440 L 141 439 L 140 439 L 138 437 L 138 435 L 139 434 L 139 432 L 141 430 L 141 428 L 142 427 L 142 425 L 141 424 L 141 422 L 140 421 L 140 420 L 139 419 L 139 418 L 138 417 L 139 416 L 139 415 L 140 414 L 143 414 L 144 415 L 147 415 L 148 416 L 149 416 L 150 415 L 153 415 L 155 413 "></path>
        <path fill="none" stroke="#00fafa" stroke-width="3" d="M 267 303 L 268 302 L 269 302 L 271 304 L 271 308 L 270 309 L 270 312 L 269 313 L 269 314 L 270 315 L 270 317 L 271 318 L 271 319 L 273 321 L 273 322 L 274 323 L 274 326 L 272 328 L 269 328 L 268 327 L 267 327 L 266 326 L 265 326 L 264 325 L 257 325 L 256 326 L 255 326 L 253 328 L 251 328 L 250 329 L 247 326 L 247 324 L 248 323 L 248 322 L 249 321 L 249 320 L 250 319 L 250 312 L 249 311 L 249 310 L 248 309 L 248 308 L 247 307 L 247 304 L 248 303 L 252 303 L 253 304 L 254 304 L 255 305 L 257 305 L 258 306 L 260 306 L 261 305 L 263 305 L 264 304 L 265 304 L 266 303 "></path>
        <path fill="none" stroke="#00fafa" stroke-width="3" d="M 707 519 L 708 518 L 713 518 L 714 519 L 715 519 L 719 523 L 719 528 L 718 529 L 718 541 L 719 542 L 719 547 L 716 550 L 715 550 L 714 551 L 712 551 L 711 552 L 710 552 L 709 551 L 707 551 L 706 550 L 705 550 L 702 547 L 702 543 L 703 542 L 703 539 L 704 538 L 704 532 L 703 531 L 703 528 L 702 527 L 702 523 L 706 519 "></path>
        <path fill="none" stroke="#00fafa" stroke-width="3" d="M 610 76 L 616 76 L 617 77 L 618 77 L 620 79 L 620 80 L 621 81 L 621 85 L 622 86 L 622 89 L 623 90 L 623 92 L 624 93 L 624 95 L 625 96 L 625 97 L 626 98 L 626 99 L 628 101 L 628 106 L 627 107 L 627 108 L 626 109 L 626 110 L 625 111 L 624 111 L 623 112 L 618 112 L 614 108 L 614 107 L 613 106 L 613 100 L 612 99 L 612 98 L 611 97 L 611 95 L 610 94 L 610 92 L 609 91 L 609 90 L 607 88 L 607 87 L 606 86 L 606 81 L 607 80 L 607 79 "></path>
        <path fill="none" stroke="#00fafa" stroke-width="3" d="M 314 75 L 321 75 L 324 78 L 324 79 L 325 80 L 325 81 L 327 83 L 332 83 L 333 82 L 335 82 L 336 83 L 336 84 L 339 87 L 341 87 L 342 88 L 345 88 L 347 90 L 347 95 L 345 97 L 345 98 L 343 100 L 342 100 L 341 101 L 340 101 L 339 102 L 335 102 L 332 99 L 332 97 L 331 96 L 331 94 L 329 92 L 328 92 L 327 91 L 326 92 L 324 92 L 323 93 L 321 93 L 319 91 L 319 90 L 318 89 L 317 89 L 316 88 L 315 88 L 311 84 L 311 83 L 310 82 L 310 80 L 311 79 L 311 78 "></path>
        <path fill="none" stroke="#00fafa" stroke-width="3" d="M 605 217 L 606 216 L 612 216 L 613 217 L 614 217 L 618 221 L 618 222 L 619 223 L 619 225 L 618 226 L 618 227 L 616 229 L 616 230 L 615 231 L 615 232 L 614 233 L 614 235 L 613 236 L 613 238 L 612 239 L 612 242 L 611 243 L 611 244 L 609 246 L 608 246 L 607 247 L 602 247 L 601 246 L 600 246 L 596 242 L 596 241 L 595 240 L 595 239 L 596 238 L 596 237 L 597 236 L 597 235 L 599 233 L 599 232 L 600 231 L 600 229 L 601 228 L 601 225 L 602 224 L 602 219 L 604 217 "></path>
        <path fill="none" stroke="#00fafa" stroke-width="3" d="M 889 133 L 890 132 L 895 132 L 896 133 L 897 133 L 900 136 L 900 137 L 901 138 L 901 141 L 900 142 L 900 143 L 898 145 L 898 146 L 897 147 L 897 149 L 896 150 L 896 151 L 894 153 L 894 154 L 893 155 L 893 157 L 892 158 L 892 159 L 888 163 L 882 163 L 878 159 L 878 158 L 877 157 L 877 155 L 878 154 L 878 153 L 879 152 L 879 151 L 880 150 L 880 149 L 881 148 L 881 146 L 882 145 L 882 144 L 883 143 L 883 142 L 884 141 L 884 140 L 885 139 L 885 137 L 886 136 L 886 135 L 888 133 "></path>
        <path fill="none" stroke="#00fafa" stroke-width="3" d="M 844 344 L 845 343 L 849 343 L 850 344 L 851 344 L 853 346 L 853 347 L 854 348 L 854 352 L 853 353 L 853 354 L 854 355 L 854 357 L 855 358 L 855 359 L 856 360 L 856 361 L 855 362 L 855 367 L 858 370 L 858 371 L 859 372 L 859 376 L 858 377 L 858 378 L 857 379 L 856 379 L 855 380 L 853 380 L 852 379 L 850 379 L 846 375 L 846 372 L 845 371 L 845 368 L 843 366 L 843 365 L 842 364 L 842 357 L 841 356 L 841 355 L 839 353 L 839 348 L 843 344 "></path>
        <path fill="none" stroke="#00fafa" stroke-width="3" d="M 803 197 L 804 196 L 807 196 L 808 197 L 810 197 L 813 200 L 813 201 L 814 202 L 814 207 L 811 210 L 810 210 L 809 211 L 808 211 L 807 212 L 806 212 L 804 214 L 803 214 L 801 216 L 800 216 L 793 223 L 788 223 L 785 220 L 785 219 L 784 218 L 784 214 L 785 213 L 785 211 L 789 207 L 790 207 L 792 205 L 793 205 L 795 203 L 796 203 L 802 197 "></path>
        <path fill="none" stroke="#00fafa" stroke-width="3" d="M 629 767 L 630 766 L 632 766 L 633 767 L 634 767 L 636 769 L 636 770 L 638 772 L 639 772 L 640 773 L 641 773 L 642 774 L 642 775 L 643 776 L 643 779 L 644 780 L 644 781 L 645 782 L 645 785 L 644 786 L 644 787 L 640 791 L 639 791 L 638 792 L 634 792 L 632 790 L 631 790 L 630 789 L 629 789 L 628 788 L 627 788 L 625 786 L 625 784 L 624 783 L 624 782 L 621 779 L 621 778 L 620 777 L 620 775 L 621 774 L 621 773 L 626 768 L 627 768 L 628 767 "></path>
        <path fill="none" stroke="#00fafa" stroke-width="3" d="M 607 706 L 608 705 L 612 705 L 616 709 L 617 709 L 618 710 L 619 710 L 621 712 L 621 713 L 622 714 L 622 715 L 623 716 L 623 717 L 626 720 L 626 723 L 625 724 L 625 725 L 620 730 L 615 730 L 612 727 L 610 727 L 609 726 L 608 726 L 606 724 L 606 723 L 605 722 L 605 721 L 600 716 L 600 714 L 601 713 L 601 712 L 603 710 L 603 709 L 606 706 "></path>
        <path fill="none" stroke="#00fafa" stroke-width="3" d="M 522 469 L 523 468 L 526 468 L 527 469 L 528 469 L 532 473 L 533 473 L 534 474 L 536 474 L 538 476 L 539 476 L 541 478 L 541 479 L 542 480 L 542 482 L 543 483 L 543 485 L 544 486 L 544 487 L 545 488 L 545 490 L 543 492 L 539 492 L 538 491 L 531 491 L 530 492 L 529 492 L 528 493 L 527 493 L 526 494 L 522 494 L 520 492 L 520 489 L 522 487 L 522 486 L 524 484 L 524 483 L 525 482 L 525 478 L 524 477 L 524 476 L 523 475 L 523 474 L 522 473 "></path>
        <path fill="none" stroke="#00fafa" stroke-width="3" d="M 483 660 L 484 659 L 485 659 L 486 660 L 487 660 L 490 663 L 490 671 L 487 674 L 487 675 L 479 683 L 478 683 L 476 685 L 473 685 L 467 679 L 467 678 L 466 677 L 466 673 L 470 669 L 471 669 L 476 664 L 477 664 L 478 663 L 479 663 L 482 660 "></path>
        <path fill="none" stroke="#00fafa" stroke-width="3" d="M 518 404 L 519 403 L 524 403 L 529 408 L 529 409 L 530 410 L 530 411 L 531 412 L 531 419 L 526 424 L 520 424 L 519 423 L 518 423 L 515 420 L 515 419 L 514 418 L 514 416 L 513 415 L 513 411 L 514 410 L 514 408 L 515 407 L 515 406 L 517 404 "></path>
        <path fill="none" stroke="#00fafa" stroke-width="3" d="M 347 368 L 348 367 L 352 367 L 356 371 L 356 377 L 355 378 L 355 379 L 354 380 L 353 380 L 351 382 L 350 382 L 349 383 L 347 383 L 346 384 L 345 384 L 344 385 L 337 385 L 334 382 L 334 381 L 333 380 L 333 378 L 338 373 L 339 373 L 340 372 L 341 372 L 343 370 L 344 370 L 346 368 "></path>
        <path fill="none" stroke="#00fafa" stroke-width="3" d="M 518 527 L 519 526 L 524 526 L 525 527 L 526 527 L 529 530 L 529 531 L 530 532 L 530 536 L 529 537 L 529 538 L 523 544 L 521 544 L 520 545 L 516 545 L 515 544 L 514 544 L 512 542 L 512 541 L 511 540 L 511 533 L 513 531 L 513 530 L 514 529 L 515 529 L 517 527 "></path>
        <path fill="none" stroke="#00fafa" stroke-width="3" d="M 504 356 L 505 355 L 506 355 L 507 356 L 509 356 L 510 357 L 511 357 L 514 360 L 514 361 L 515 362 L 515 368 L 514 369 L 514 370 L 511 373 L 510 373 L 509 374 L 502 374 L 497 369 L 497 367 L 496 366 L 496 364 L 497 363 L 497 361 L 502 356 "></path>
        <path fill="none" stroke="#00fafa" stroke-width="3" d="M 459 482 L 460 481 L 461 481 L 462 482 L 464 482 L 465 483 L 466 483 L 469 486 L 469 487 L 470 488 L 470 494 L 469 495 L 469 496 L 465 500 L 463 500 L 462 501 L 461 501 L 460 500 L 458 500 L 457 499 L 456 499 L 453 496 L 453 495 L 452 494 L 452 488 L 453 487 L 453 486 L 457 482 "></path>
        <path fill="none" stroke="#00fafa" stroke-width="3" d="M 505 304 L 512 304 L 513 305 L 514 305 L 517 308 L 517 309 L 518 310 L 518 315 L 517 316 L 517 317 L 514 320 L 513 320 L 512 321 L 505 321 L 504 320 L 503 320 L 499 316 L 499 310 L 500 309 L 500 308 L 502 306 L 503 306 "></path>
        <path fill="none" stroke="#00fafa" stroke-width="3" d="M 431 335 L 432 334 L 438 334 L 443 339 L 443 341 L 444 342 L 444 345 L 443 346 L 443 347 L 442 348 L 442 349 L 439 352 L 437 352 L 436 353 L 433 353 L 432 352 L 431 352 L 427 348 L 427 347 L 426 346 L 426 340 L 427 339 L 427 338 L 430 335 "></path>
        <path fill="none" stroke="#00fafa" stroke-width="3" d="M 372 410 L 373 409 L 375 409 L 376 410 L 378 410 L 383 415 L 383 416 L 384 417 L 384 421 L 383 422 L 383 423 L 379 427 L 371 427 L 366 422 L 366 421 L 365 420 L 365 415 L 370 410 "></path>
        <path fill="none" stroke="#00fafa" stroke-width="3" d="M 644 435 L 645 434 L 653 434 L 654 435 L 655 435 L 658 438 L 658 439 L 659 440 L 659 443 L 658 444 L 658 445 L 654 449 L 644 449 L 643 448 L 642 448 L 641 447 L 640 447 L 638 445 L 638 439 L 642 435 "></path>
        <path fill="none" stroke="#00fafa" stroke-width="3" d="M 663 373 L 664 372 L 667 372 L 668 373 L 670 373 L 671 374 L 672 374 L 674 376 L 675 376 L 677 378 L 677 379 L 678 380 L 678 381 L 679 382 L 679 384 L 678 385 L 678 386 L 674 390 L 669 390 L 668 389 L 667 389 L 666 388 L 665 388 L 660 383 L 660 382 L 659 381 L 659 376 L 662 373 "></path>
        <path fill="none" stroke="#00fafa" stroke-width="3" d="M 623 389 L 624 388 L 627 388 L 630 391 L 630 395 L 629 396 L 629 400 L 628 401 L 628 405 L 627 406 L 627 407 L 625 409 L 624 409 L 623 410 L 620 410 L 619 409 L 618 409 L 615 406 L 615 404 L 614 403 L 614 402 L 615 401 L 615 397 L 616 396 L 616 395 L 617 394 L 617 393 L 620 390 L 621 390 L 622 389 "></path>
        <path fill="none" stroke="#00fafa" stroke-width="3" d="M 682 456 L 689 456 L 693 460 L 693 461 L 694 462 L 694 467 L 693 468 L 693 469 L 690 472 L 689 472 L 688 473 L 681 473 L 676 468 L 676 463 L 677 462 L 677 461 L 678 460 L 678 459 L 679 458 L 680 458 "></path>
        <path fill="none" stroke="#00fafa" stroke-width="3" d="M 650 209 L 651 208 L 659 208 L 663 212 L 663 213 L 664 214 L 664 216 L 663 217 L 663 218 L 662 219 L 662 220 L 660 222 L 659 222 L 658 223 L 657 223 L 656 224 L 650 224 L 649 223 L 648 223 L 645 220 L 645 219 L 644 218 L 644 216 L 645 215 L 645 213 L 649 209 "></path>
        <path fill="none" stroke="#00fafa" stroke-width="3" d="M 633 256 L 634 255 L 638 255 L 639 256 L 640 256 L 643 259 L 643 261 L 644 262 L 644 263 L 643 264 L 643 266 L 642 267 L 642 268 L 639 271 L 638 271 L 637 272 L 636 272 L 635 273 L 631 273 L 630 272 L 629 272 L 626 269 L 626 268 L 625 267 L 625 264 L 626 263 L 626 262 L 632 256 "></path>
        <path fill="none" stroke="#00fafa" stroke-width="3" d="M 285 261 L 286 260 L 289 260 L 290 261 L 291 261 L 295 265 L 295 267 L 296 268 L 296 271 L 295 272 L 295 274 L 291 278 L 289 278 L 288 279 L 287 279 L 286 278 L 284 278 L 280 274 L 280 273 L 279 272 L 279 267 L 280 266 L 280 265 L 284 261 "></path>
        <path fill="none" stroke="#00fafa" stroke-width="3" d="M 555 127 L 556 126 L 560 126 L 561 127 L 562 127 L 566 131 L 566 132 L 567 133 L 567 137 L 566 138 L 566 139 L 563 142 L 562 142 L 561 143 L 555 143 L 554 142 L 553 142 L 550 139 L 550 137 L 549 136 L 549 133 L 550 132 L 550 131 L 554 127 "></path>
        <path fill="none" stroke="#00fafa" stroke-width="3" d="M 780 408 L 787 408 L 788 409 L 789 409 L 791 411 L 791 412 L 792 413 L 792 415 L 793 416 L 793 417 L 792 418 L 792 420 L 787 425 L 782 425 L 781 424 L 780 424 L 776 420 L 776 419 L 775 418 L 775 414 L 776 413 L 776 412 "></path>
        <path fill="none" stroke="#00fafa" stroke-width="3" d="M 276 380 L 277 379 L 282 379 L 283 380 L 284 380 L 287 383 L 287 384 L 288 385 L 288 390 L 287 391 L 287 392 L 283 396 L 276 396 L 272 392 L 272 391 L 271 390 L 271 385 L 272 384 L 272 383 L 275 380 "></path>
        <path fill="none" stroke="#00fafa" stroke-width="3" d="M 816 300 L 817 299 L 819 299 L 820 300 L 822 300 L 826 304 L 826 305 L 827 306 L 827 307 L 826 308 L 826 310 L 821 315 L 820 315 L 819 316 L 815 316 L 814 315 L 813 315 L 809 311 L 809 310 L 808 309 L 808 306 L 809 305 L 809 304 L 813 300 "></path>
        <path fill="none" stroke="#00fafa" stroke-width="3" d="M 932 439 L 933 438 L 935 438 L 936 439 L 937 439 L 938 440 L 938 441 L 940 443 L 940 445 L 941 446 L 941 450 L 942 451 L 942 453 L 941 454 L 941 456 L 937 460 L 932 460 L 929 457 L 929 441 L 931 439 "></path>
        <path fill="none" stroke="#00fafa" stroke-width="3" d="M 326 689 L 327 688 L 330 688 L 331 689 L 332 689 L 334 691 L 334 697 L 333 698 L 333 699 L 332 700 L 332 701 L 326 707 L 321 707 L 318 704 L 318 703 L 317 702 L 317 699 L 318 698 L 318 697 L 319 696 L 319 695 L 325 689 "></path>
        <path fill="none" stroke="#00fafa" stroke-width="3" d="M 571 746 L 572 745 L 576 745 L 577 746 L 578 746 L 581 749 L 581 751 L 582 752 L 582 753 L 581 754 L 581 756 L 580 757 L 580 758 L 578 760 L 577 760 L 575 762 L 569 762 L 565 758 L 565 757 L 564 756 L 564 754 L 565 753 L 565 751 L 566 750 L 566 749 L 568 747 L 569 747 L 570 746 "></path>
        <path fill="none" stroke="#00fafa" stroke-width="3" d="M 361 171 L 362 170 L 366 170 L 367 171 L 368 171 L 371 174 L 371 175 L 372 176 L 372 182 L 367 187 L 361 187 L 360 186 L 359 186 L 356 183 L 356 181 L 355 180 L 355 178 L 356 177 L 356 175 L 360 171 "></path>
        <path fill="none" stroke="#00fafa" stroke-width="3" d="M 609 356 L 610 355 L 612 355 L 613 356 L 615 356 L 616 357 L 617 357 L 620 360 L 620 361 L 621 362 L 621 365 L 617 369 L 616 369 L 615 370 L 614 370 L 613 371 L 606 371 L 603 368 L 603 366 L 602 365 L 602 364 L 603 363 L 603 361 L 604 360 L 604 359 L 606 357 L 607 357 L 608 356 "></path>
        <path fill="none" stroke="#00fafa" stroke-width="3" d="M 463 61 L 464 60 L 467 60 L 468 61 L 469 61 L 472 64 L 472 65 L 473 66 L 473 71 L 472 72 L 472 73 L 469 76 L 468 76 L 467 77 L 463 77 L 462 76 L 461 76 L 460 75 L 459 75 L 458 74 L 458 73 L 456 71 L 456 67 L 457 66 L 457 65 L 461 61 "></path>
        <path fill="none" stroke="#00fafa" stroke-width="3" d="M 343 597 L 344 596 L 346 596 L 347 597 L 349 597 L 352 600 L 352 601 L 353 602 L 353 608 L 352 609 L 352 610 L 350 612 L 349 612 L 348 613 L 342 613 L 341 612 L 340 612 L 338 610 L 338 609 L 337 608 L 337 602 L 338 601 L 338 600 L 341 597 "></path>
        <path fill="none" stroke="#00fafa" stroke-width="3" d="M 503 719 L 504 718 L 508 718 L 509 719 L 510 719 L 511 720 L 512 720 L 513 721 L 513 722 L 514 723 L 514 724 L 515 725 L 515 727 L 514 728 L 514 730 L 511 733 L 510 733 L 509 734 L 503 734 L 502 733 L 501 733 L 498 730 L 498 729 L 497 728 L 497 725 L 498 724 L 498 723 L 502 719 "></path>
        <path fill="none" stroke="#00fafa" stroke-width="3" d="M 425 636 L 426 635 L 431 635 L 432 636 L 433 636 L 436 639 L 436 640 L 437 641 L 437 647 L 436 648 L 436 649 L 435 650 L 434 650 L 433 651 L 432 651 L 431 652 L 429 652 L 428 651 L 426 651 L 421 646 L 421 645 L 420 644 L 420 642 L 421 641 L 421 640 L 422 639 L 422 638 L 424 636 "></path>
        <path fill="none" stroke="#00fafa" stroke-width="3" d="M 188 443 L 189 442 L 192 442 L 193 443 L 194 443 L 195 444 L 196 444 L 197 445 L 197 446 L 199 448 L 199 454 L 198 455 L 198 456 L 195 459 L 188 459 L 184 455 L 184 454 L 183 453 L 183 448 L 184 447 L 184 446 L 187 443 "></path>
        <path fill="none" stroke="#00fafa" stroke-width="3" d="M 367 681 L 368 680 L 371 680 L 372 681 L 373 681 L 376 684 L 376 685 L 377 686 L 377 691 L 376 692 L 376 693 L 372 697 L 371 697 L 370 698 L 368 698 L 367 697 L 365 697 L 362 694 L 362 693 L 361 692 L 361 688 L 362 687 L 362 685 L 366 681 "></path>
        <path fill="none" stroke="#00fafa" stroke-width="3" d="M 386 100 L 393 100 L 397 104 L 397 105 L 398 106 L 398 109 L 397 110 L 397 112 L 393 116 L 390 116 L 389 117 L 388 116 L 386 116 L 382 112 L 382 110 L 381 109 L 381 107 L 382 106 L 382 104 "></path>
        <path fill="none" stroke="#00fafa" stroke-width="3" d="M 10 647 L 11 646 L 12 646 L 13 647 L 18 647 L 19 648 L 20 648 L 24 652 L 24 657 L 20 661 L 12 661 L 11 662 L 10 661 L 9 661 L 8 660 L 8 658 L 7 657 L 7 651 L 8 650 L 8 648 L 9 647 "></path>
        <path fill="none" stroke="#00fafa" stroke-width="3" d="M 241 458 L 242 457 L 247 457 L 248 458 L 249 458 L 251 460 L 251 461 L 252 462 L 252 463 L 253 464 L 253 467 L 252 468 L 252 469 L 250 471 L 249 471 L 248 472 L 246 472 L 245 473 L 244 473 L 243 472 L 240 472 L 236 468 L 236 462 L 240 458 "></path>
        <path fill="none" stroke="#00fafa" stroke-width="3" d="M 350 123 L 351 122 L 355 122 L 356 123 L 357 123 L 360 126 L 360 127 L 361 128 L 361 132 L 360 133 L 360 134 L 357 137 L 356 137 L 355 138 L 350 138 L 349 137 L 348 137 L 345 134 L 345 133 L 344 132 L 344 129 L 345 128 L 345 127 L 349 123 "></path>
        <path fill="none" stroke="#00fafa" stroke-width="3" d="M 755 139 L 756 138 L 761 138 L 762 139 L 763 139 L 766 142 L 766 143 L 767 144 L 767 148 L 766 149 L 766 150 L 762 154 L 756 154 L 755 153 L 754 153 L 752 151 L 752 150 L 751 149 L 751 143 L 752 142 L 752 141 L 754 139 "></path>
        <path fill="none" stroke="#00fafa" stroke-width="3" d="M 780 700 L 786 700 L 790 704 L 790 706 L 791 707 L 791 709 L 790 710 L 790 712 L 785 717 L 781 717 L 780 716 L 779 716 L 776 713 L 776 711 L 775 710 L 775 707 L 776 706 L 776 704 "></path>
        <path fill="none" stroke="#00fafa" stroke-width="3" d="M 282 122 L 283 121 L 287 121 L 288 122 L 289 122 L 292 125 L 292 126 L 293 127 L 293 134 L 290 137 L 289 137 L 288 138 L 284 138 L 283 137 L 282 137 L 279 134 L 279 133 L 278 132 L 278 126 L 279 125 L 279 124 L 281 122 "></path>
        <path fill="none" stroke="#00fafa" stroke-width="3" d="M 129 163 L 134 163 L 135 164 L 136 164 L 137 165 L 138 165 L 140 167 L 141 167 L 144 170 L 144 171 L 145 172 L 145 174 L 140 179 L 136 179 L 135 178 L 134 178 L 132 176 L 131 176 L 129 174 L 129 173 L 127 171 L 127 170 L 126 169 L 126 166 "></path>
        <path fill="none" stroke="#00fafa" stroke-width="3" d="M 411 670 L 412 669 L 413 669 L 414 670 L 416 670 L 417 671 L 418 671 L 421 674 L 421 676 L 422 677 L 422 679 L 421 680 L 421 681 L 417 685 L 410 685 L 406 681 L 406 680 L 405 679 L 405 674 L 409 670 "></path>
        <path fill="none" stroke="#00fafa" stroke-width="3" d="M 355 721 L 356 720 L 358 720 L 359 721 L 360 721 L 361 722 L 362 722 L 364 724 L 364 725 L 365 726 L 365 731 L 360 736 L 354 736 L 353 735 L 352 735 L 350 733 L 350 732 L 349 731 L 349 725 L 353 721 "></path>
        <path fill="none" stroke="#00fafa" stroke-width="3" d="M 556 29 L 560 29 L 561 30 L 562 30 L 566 34 L 566 35 L 567 36 L 567 43 L 564 46 L 563 46 L 562 47 L 560 47 L 559 46 L 558 46 L 554 42 L 554 41 L 553 40 L 553 38 L 552 37 L 552 34 L 553 33 L 553 32 "></path>
        <path fill="none" stroke="#00fafa" stroke-width="3" d="M 60 245 L 61 244 L 65 244 L 66 245 L 67 245 L 69 247 L 70 247 L 74 251 L 74 254 L 73 255 L 73 256 L 71 258 L 69 258 L 68 259 L 67 259 L 66 258 L 65 258 L 64 257 L 62 257 L 60 255 L 59 255 L 58 254 L 57 254 L 55 252 L 55 251 L 54 250 L 54 248 L 56 246 L 57 246 L 58 245 "></path>
        <path fill="none" stroke="#00fafa" stroke-width="3" d="M 677 741 L 682 741 L 683 742 L 684 742 L 689 747 L 689 749 L 690 750 L 690 752 L 689 753 L 689 754 L 688 755 L 688 756 L 686 758 L 684 758 L 683 759 L 682 758 L 681 758 L 677 754 L 677 753 L 676 752 L 676 751 L 675 750 L 675 749 L 674 748 L 674 744 "></path>
        <path fill="none" stroke="#00fafa" stroke-width="3" d="M 169 588 L 170 587 L 172 587 L 173 588 L 175 588 L 178 591 L 178 592 L 179 593 L 179 598 L 174 603 L 168 603 L 164 599 L 164 598 L 163 597 L 163 593 L 164 592 L 164 591 L 167 588 "></path>
        <path fill="none" stroke="#00fafa" stroke-width="3" d="M 129 245 L 130 244 L 133 244 L 134 245 L 135 245 L 136 246 L 137 246 L 138 247 L 138 248 L 140 250 L 140 255 L 139 256 L 139 257 L 136 260 L 130 260 L 129 259 L 128 259 L 126 257 L 126 256 L 125 255 L 125 254 L 124 253 L 124 250 L 125 249 L 125 248 L 128 245 "></path>
        <path fill="none" stroke="#00fafa" stroke-width="3" d="M 104 441 L 110 441 L 111 442 L 112 442 L 114 444 L 114 445 L 115 446 L 115 451 L 114 452 L 114 453 L 112 455 L 111 455 L 110 456 L 109 456 L 108 457 L 106 457 L 105 456 L 103 456 L 100 453 L 100 451 L 99 450 L 99 448 L 100 447 L 100 445 "></path>
        <path fill="none" stroke="#00fafa" stroke-width="3" d="M 664 45 L 670 45 L 675 50 L 675 52 L 676 53 L 676 55 L 675 56 L 675 58 L 673 60 L 672 60 L 671 61 L 666 61 L 664 59 L 663 59 L 662 58 L 662 57 L 661 56 L 661 55 L 660 54 L 660 50 L 661 49 L 661 48 "></path>
        <path fill="none" stroke="#00fafa" stroke-width="3" d="M 91 512 L 96 512 L 100 516 L 100 524 L 99 525 L 99 526 L 98 527 L 98 528 L 96 530 L 94 530 L 93 531 L 92 530 L 91 530 L 88 527 L 88 526 L 87 525 L 87 517 L 88 516 L 88 515 "></path>
        <path fill="none" stroke="#00fafa" stroke-width="3" d="M 377 57 L 378 56 L 381 56 L 382 57 L 383 57 L 387 61 L 387 67 L 386 68 L 386 69 L 384 71 L 383 71 L 382 72 L 376 72 L 372 68 L 372 66 L 371 65 L 371 63 L 372 62 L 372 61 L 376 57 "></path>
        <path fill="none" stroke="#00fafa" stroke-width="3" d="M 449 22 L 450 21 L 451 21 L 452 22 L 454 22 L 458 26 L 458 27 L 459 28 L 459 31 L 458 32 L 458 33 L 455 36 L 454 36 L 453 37 L 448 37 L 447 36 L 446 36 L 443 33 L 443 26 L 447 22 "></path>
        <path fill="none" stroke="#00fafa" stroke-width="3" d="M 189 346 L 190 345 L 191 345 L 192 346 L 194 346 L 198 350 L 198 351 L 199 352 L 199 355 L 198 356 L 198 357 L 194 361 L 188 361 L 187 360 L 186 360 L 184 358 L 184 357 L 183 356 L 183 350 L 187 346 "></path>
        <path fill="none" stroke="#00fafa" stroke-width="3" d="M 396 454 L 400 454 L 401 455 L 402 455 L 404 457 L 405 457 L 407 459 L 408 459 L 409 460 L 409 461 L 410 462 L 410 466 L 407 469 L 406 469 L 405 470 L 401 470 L 400 469 L 399 469 L 394 464 L 394 463 L 393 462 L 393 458 L 394 457 L 394 456 "></path>
        <path fill="none" stroke="#00fafa" stroke-width="3" d="M 710 765 L 711 764 L 714 764 L 715 765 L 716 765 L 718 767 L 718 768 L 719 769 L 719 770 L 720 771 L 720 773 L 719 774 L 719 776 L 716 779 L 715 779 L 714 780 L 709 780 L 708 779 L 707 779 L 705 777 L 705 776 L 704 775 L 704 771 L 705 770 L 705 769 L 706 768 L 706 767 L 707 766 L 708 766 L 709 765 "></path>
        <path fill="none" stroke="#00fafa" stroke-width="3" d="M 940 633 L 941 632 L 948 632 L 949 633 L 950 633 L 953 636 L 953 642 L 950 645 L 949 645 L 948 646 L 942 646 L 941 645 L 940 645 L 937 642 L 937 641 L 936 640 L 936 637 L 937 636 L 937 635 L 939 633 "></path>
        <path fill="none" stroke="#00fafa" stroke-width="3" d="M 193 642 L 194 641 L 199 641 L 200 642 L 201 642 L 204 645 L 204 647 L 205 648 L 205 650 L 204 651 L 204 652 L 200 656 L 194 656 L 193 655 L 192 655 L 189 652 L 189 650 L 188 649 L 188 648 L 189 647 L 189 645 L 192 642 "></path>
        <path fill="none" stroke="#00fafa" stroke-width="3" d="M 864 746 L 865 745 L 870 745 L 874 749 L 874 751 L 875 752 L 874 753 L 874 756 L 870 760 L 869 760 L 868 761 L 864 761 L 863 760 L 862 760 L 860 758 L 860 757 L 859 756 L 859 751 L 861 749 L 861 748 L 863 746 "></path>
        <path fill="none" stroke="#00fafa" stroke-width="3" d="M 190 681 L 191 680 L 194 680 L 195 681 L 196 681 L 197 682 L 198 682 L 199 683 L 199 684 L 200 685 L 200 691 L 196 695 L 195 695 L 194 696 L 190 696 L 188 694 L 187 694 L 186 693 L 186 692 L 185 691 L 185 685 L 189 681 "></path>
        <path fill="none" stroke="#00fafa" stroke-width="3" d="M 814 734 L 824 734 L 825 735 L 826 735 L 830 739 L 830 742 L 829 743 L 829 744 L 827 746 L 825 746 L 824 747 L 823 746 L 818 746 L 817 745 L 816 745 L 815 744 L 814 744 L 811 741 L 811 737 "></path>
        <path fill="none" stroke="#00fafa" stroke-width="3" d="M 532 593 L 533 592 L 538 592 L 541 595 L 541 598 L 540 599 L 540 600 L 532 608 L 528 608 L 525 605 L 525 604 L 524 603 L 524 600 L 525 599 L 525 598 L 530 593 "></path>
        <path fill="none" stroke="#00fafa" stroke-width="3" d="M 827 391 L 828 390 L 829 391 L 831 391 L 832 392 L 833 392 L 834 393 L 835 393 L 837 395 L 838 395 L 840 397 L 840 398 L 841 399 L 841 401 L 840 402 L 840 403 L 839 404 L 838 404 L 837 405 L 834 405 L 833 404 L 830 404 L 829 403 L 828 403 L 827 402 L 826 402 L 823 399 L 823 398 L 822 397 L 822 395 L 823 394 L 823 393 L 825 391 "></path>
        <path fill="none" stroke="#00fafa" stroke-width="3" d="M 146 368 L 147 367 L 152 367 L 157 372 L 157 377 L 156 378 L 156 379 L 154 381 L 153 381 L 152 382 L 146 382 L 142 378 L 142 377 L 141 376 L 141 374 L 142 373 L 142 371 L 145 368 "></path>
        <path fill="none" stroke="#00fafa" stroke-width="3" d="M 963 248 L 964 247 L 970 247 L 971 248 L 972 248 L 974 250 L 974 251 L 975 252 L 975 255 L 974 256 L 974 257 L 973 258 L 973 259 L 972 260 L 971 260 L 970 261 L 969 261 L 968 262 L 965 262 L 964 261 L 963 261 L 959 257 L 959 252 L 960 251 L 960 250 L 962 248 "></path>
        <path fill="none" stroke="#00fafa" stroke-width="3" d="M 205 496 L 206 495 L 208 495 L 209 496 L 210 496 L 212 498 L 212 499 L 213 500 L 213 502 L 214 503 L 214 508 L 213 509 L 213 510 L 211 512 L 210 512 L 209 513 L 208 513 L 207 512 L 205 512 L 201 508 L 201 506 L 200 505 L 200 501 L 201 500 L 201 499 L 204 496 "></path>
        <path fill="none" stroke="#00fafa" stroke-width="3" d="M 754 207 L 755 206 L 760 206 L 762 208 L 762 209 L 763 210 L 763 218 L 762 219 L 762 220 L 760 222 L 759 222 L 758 223 L 755 223 L 754 222 L 753 222 L 751 220 L 751 219 L 750 218 L 750 216 L 749 215 L 749 214 L 750 213 L 750 211 L 751 210 L 751 209 L 753 207 "></path>
        <path fill="none" stroke="#00fafa" stroke-width="3" d="M 768 646 L 769 645 L 774 645 L 775 646 L 776 646 L 778 648 L 778 649 L 779 650 L 779 655 L 778 656 L 778 657 L 776 659 L 775 659 L 774 660 L 769 660 L 768 659 L 767 659 L 765 657 L 765 656 L 764 655 L 764 650 L 765 649 L 765 648 L 767 646 "></path>
        <path fill="none" stroke="#00fafa" stroke-width="3" d="M 960 171 L 961 170 L 964 170 L 965 171 L 966 171 L 969 174 L 969 176 L 970 177 L 970 179 L 969 180 L 969 182 L 965 186 L 963 186 L 962 187 L 961 186 L 959 186 L 956 183 L 956 181 L 955 180 L 955 177 L 956 176 L 956 175 L 957 174 L 957 173 L 959 171 "></path>
        <path fill="none" stroke="#00fafa" stroke-width="3" d="M 905 317 L 906 316 L 907 316 L 908 317 L 910 317 L 911 318 L 912 318 L 913 319 L 913 320 L 915 322 L 915 325 L 914 326 L 914 327 L 913 328 L 912 328 L 910 330 L 906 330 L 905 331 L 904 330 L 902 330 L 901 329 L 900 329 L 899 328 L 899 327 L 898 326 L 898 323 L 899 322 L 899 321 L 903 317 "></path>
        <path fill="none" stroke="#00fafa" stroke-width="3" d="M 125 58 L 126 57 L 129 57 L 130 58 L 131 58 L 134 61 L 134 63 L 135 64 L 135 65 L 134 66 L 134 67 L 133 68 L 133 69 L 131 71 L 130 71 L 129 72 L 124 72 L 123 71 L 122 71 L 120 69 L 120 68 L 119 67 L 119 63 L 120 62 L 120 61 L 122 59 L 123 59 L 124 58 "></path>
        <path fill="none" stroke="#00fafa" stroke-width="3" d="M 80 594 L 86 594 L 90 598 L 90 600 L 91 601 L 90 602 L 90 604 L 86 608 L 85 608 L 84 609 L 80 609 L 79 608 L 78 608 L 76 606 L 76 605 L 75 604 L 75 600 L 76 599 L 76 598 "></path>
        <path fill="none" stroke="#00fafa" stroke-width="3" d="M 558 611 L 561 611 L 565 615 L 565 620 L 564 621 L 564 622 L 563 623 L 563 624 L 561 626 L 560 626 L 559 627 L 553 627 L 550 624 L 550 620 L 551 619 L 551 618 L 554 615 L 554 614 L 555 613 L 556 613 "></path>
        <path fill="none" stroke="#00fafa" stroke-width="3" d="M 568 475 L 572 475 L 576 479 L 576 480 L 577 481 L 577 489 L 573 493 L 569 493 L 567 491 L 567 490 L 566 489 L 566 487 L 565 486 L 565 478 "></path>
        <path fill="none" stroke="#00fafa" stroke-width="3" d="M 161 750 L 162 749 L 165 749 L 166 750 L 167 750 L 171 754 L 171 759 L 170 760 L 170 761 L 168 763 L 167 763 L 166 764 L 161 764 L 160 763 L 159 763 L 157 761 L 157 760 L 156 759 L 156 755 L 157 754 L 157 753 L 160 750 "></path>
        <path fill="none" stroke="#00fafa" stroke-width="3" d="M 911 351 L 912 350 L 918 350 L 919 351 L 920 351 L 921 352 L 921 353 L 922 354 L 922 359 L 918 363 L 916 363 L 915 364 L 914 364 L 913 363 L 911 363 L 910 362 L 909 362 L 906 359 L 906 354 L 909 351 "></path>
        <path fill="none" stroke="#00fafa" stroke-width="3" d="M 84 90 L 88 90 L 89 91 L 90 91 L 93 94 L 93 95 L 94 96 L 94 99 L 93 100 L 93 101 L 90 104 L 89 104 L 88 105 L 84 105 L 79 100 L 79 96 L 80 95 L 80 94 "></path>
        <path fill="none" stroke="#00fafa" stroke-width="3" d="M 299 184 L 300 183 L 301 184 L 303 184 L 306 187 L 306 191 L 305 192 L 305 193 L 304 194 L 304 195 L 300 199 L 296 199 L 295 198 L 294 198 L 293 197 L 293 196 L 292 195 L 292 189 L 293 188 L 293 187 L 295 185 L 296 185 L 297 184 "></path>
        <path fill="none" stroke="#00fafa" stroke-width="3" d="M 824 524 L 825 523 L 831 523 L 835 527 L 835 529 L 836 530 L 836 532 L 835 533 L 835 535 L 833 537 L 831 537 L 830 538 L 829 537 L 827 537 L 821 531 L 821 526 L 823 524 "></path>
        <path fill="none" stroke="#00fafa" stroke-width="3" d="M 804 548 L 809 548 L 812 551 L 813 551 L 815 553 L 815 554 L 816 555 L 816 556 L 817 557 L 816 558 L 816 559 L 813 562 L 807 562 L 806 561 L 805 561 L 801 557 L 801 551 "></path>
        <path fill="none" stroke="#00fafa" stroke-width="3" d="M 969 129 L 970 128 L 971 128 L 972 129 L 973 129 L 976 132 L 976 133 L 977 134 L 977 138 L 976 139 L 976 140 L 973 143 L 972 143 L 971 144 L 969 144 L 968 143 L 967 143 L 966 142 L 965 142 L 964 141 L 964 140 L 963 139 L 963 134 L 965 132 L 965 131 L 966 130 L 967 130 L 968 129 "></path>
        <path fill="none" stroke="#00fafa" stroke-width="3" d="M 544 67 L 545 66 L 547 66 L 548 67 L 549 67 L 552 70 L 552 78 L 548 82 L 544 82 L 539 77 L 539 71 L 543 67 "></path>
        <path fill="none" stroke="#00fafa" stroke-width="3" d="M 47 737 L 53 737 L 56 740 L 56 741 L 57 742 L 57 745 L 56 746 L 56 747 L 52 751 L 47 751 L 46 750 L 45 750 L 43 748 L 43 747 L 42 746 L 42 743 L 43 742 L 43 741 "></path>
        <path fill="none" stroke="#00fafa" stroke-width="3" d="M 955 72 L 958 72 L 962 76 L 962 81 L 961 82 L 961 84 L 957 88 L 952 88 L 949 85 L 949 79 L 950 78 L 950 77 "></path>
        <path fill="none" stroke="#00fafa" stroke-width="3" d="M 238 494 L 239 493 L 240 494 L 243 494 L 247 498 L 247 504 L 243 508 L 242 508 L 241 509 L 239 509 L 238 508 L 237 508 L 235 506 L 235 505 L 234 504 L 234 497 L 235 496 L 235 495 L 236 494 "></path>
        <path fill="none" stroke="#00fafa" stroke-width="3" d="M 284 581 L 285 580 L 290 580 L 291 581 L 292 581 L 295 584 L 295 585 L 296 586 L 296 588 L 292 592 L 289 592 L 288 593 L 286 593 L 285 592 L 283 592 L 280 589 L 280 584 L 283 581 "></path>
        <path fill="none" stroke="#00fafa" stroke-width="3" d="M 937 108 L 943 108 L 944 109 L 945 109 L 946 110 L 946 111 L 947 112 L 947 113 L 948 114 L 948 115 L 947 116 L 947 117 L 946 118 L 946 119 L 944 121 L 942 121 L 941 122 L 939 122 L 938 121 L 937 121 L 934 118 L 934 117 L 933 116 L 933 113 L 934 112 L 934 111 "></path>
        <path fill="none" stroke="#00fafa" stroke-width="3" d="M 876 59 L 879 59 L 880 60 L 881 60 L 883 62 L 884 62 L 885 63 L 885 64 L 886 65 L 886 66 L 887 67 L 887 68 L 886 69 L 886 70 L 883 73 L 877 73 L 873 69 L 873 68 L 872 67 L 872 63 "></path>
        <path fill="none" stroke="#00fafa" stroke-width="3" d="M 577 70 L 578 69 L 579 69 L 580 70 L 581 70 L 584 73 L 584 80 L 583 81 L 583 82 L 580 85 L 575 85 L 573 83 L 573 82 L 572 81 L 572 76 L 573 75 L 573 73 L 576 70 "></path>
        <path fill="none" stroke="#00fafa" stroke-width="3" d="M 26 793 L 32 793 L 33 794 L 34 794 L 35 795 L 35 796 L 36 797 L 36 801 L 35 802 L 35 803 L 33 805 L 32 805 L 31 806 L 30 806 L 29 807 L 27 807 L 26 806 L 25 806 L 23 804 L 23 802 L 22 801 L 22 798 L 23 797 L 23 796 "></path>
        <path fill="none" stroke="#00fafa" stroke-width="3" d="M 896 34 L 897 33 L 898 33 L 899 34 L 901 34 L 904 37 L 904 38 L 905 39 L 905 42 L 904 43 L 904 44 L 901 47 L 898 47 L 897 46 L 896 46 L 891 41 L 891 37 L 894 34 "></path>
        <path fill="none" stroke="#00fafa" stroke-width="3" d="M 696 30 L 703 30 L 707 34 L 707 37 L 703 41 L 702 41 L 701 42 L 697 42 L 696 41 L 695 41 L 694 40 L 694 39 L 693 38 L 693 33 "></path>
        <path fill="none" stroke="#00fafa" stroke-width="3" d="M 291 613 L 292 612 L 297 612 L 300 615 L 300 618 L 299 619 L 299 620 L 295 624 L 291 624 L 290 623 L 289 623 L 288 622 L 288 621 L 287 620 L 287 617 L 288 616 L 288 615 L 290 613 "></path>
    </g>
</svg>
