<svg xmlns="http://www.w3.org/2000/svg" xmlns:xlink="http://www.w3.org/1999/xlink" version="1.1" x="0" y="0" width="1056px" height="816px">
    <g id="rootLayer" transform="translate(0.000000, 0.000000)">
        <path fill="none" stroke="#fa00fa" stroke-width="3" d="M 537 416 L 536 417 L 535 417 L 535 418 L 534 419 L 534 423 L 535 424 L 535 425 L 537 427 L 537 430 L 534 433 L 533 433 L 529 437 L 529 438 L 528 439 L 528 440 L 531 443 L 537 443 L 539 441 L 539 440 L 540 439 L 540 432 L 541 431 L 542 431 L 543 430 L 545 430 L 546 429 L 547 429 L 549 427 L 549 422 L 548 421 L 548 420 L 545 417 L 544 417 L 543 416 "></path>
        <path fill="none" stroke="#fa00fa" stroke-width="3" d="M 533 378 L 532 379 L 531 379 L 530 380 L 530 381 L 529 382 L 529 387 L 530 388 L 530 389 L 531 389 L 535 393 L 535 400 L 537 402 L 538 402 L 539 403 L 544 403 L 548 399 L 548 394 L 547 393 L 547 392 L 546 392 L 545 391 L 544 391 L 543 390 L 542 390 L 541 389 L 541 381 L 539 379 L 538 379 L 537 378 "></path>
        <path fill="none" stroke="#fa00fa" stroke-width="3" d="M 505 412 L 504 413 L 503 413 L 501 415 L 501 416 L 500 417 L 500 422 L 499 423 L 499 424 L 498 425 L 498 432 L 500 434 L 502 434 L 503 435 L 504 435 L 505 434 L 506 434 L 508 432 L 508 431 L 509 430 L 509 427 L 510 426 L 510 425 L 514 421 L 514 417 L 513 416 L 513 415 L 511 413 L 510 413 L 509 412 "></path>
        <path fill="none" stroke="#fa00fa" stroke-width="3" d="M 618 295 L 617 296 L 616 296 L 615 297 L 615 298 L 614 299 L 614 301 L 615 302 L 615 304 L 616 305 L 616 307 L 617 308 L 617 309 L 620 312 L 623 312 L 624 311 L 625 311 L 625 310 L 626 309 L 626 304 L 625 303 L 625 302 L 624 301 L 624 299 L 621 296 L 620 296 L 619 295 "></path>
        <path fill="none" stroke="#fa00fa" stroke-width="3" d="M 517 434 L 516 435 L 515 435 L 515 436 L 514 437 L 514 438 L 513 439 L 513 443 L 514 444 L 514 446 L 516 448 L 522 448 L 523 447 L 523 446 L 524 445 L 524 444 L 525 443 L 525 440 L 524 439 L 524 438 L 523 437 L 523 436 L 521 434 "></path>
        <path fill="none" stroke="#fa00fa" stroke-width="3" d="M 650 369 L 648 371 L 648 372 L 647 373 L 647 375 L 648 376 L 648 378 L 650 380 L 650 381 L 651 382 L 652 382 L 653 383 L 656 383 L 657 382 L 658 382 L 659 381 L 659 379 L 660 378 L 660 377 L 659 376 L 659 374 L 658 373 L 658 372 L 656 370 L 655 370 L 654 369 "></path>
        <path fill="none" stroke="#fa00fa" stroke-width="3" d="M 396 359 L 395 360 L 394 360 L 390 364 L 390 367 L 389 368 L 390 369 L 390 371 L 391 372 L 392 372 L 393 373 L 396 373 L 397 372 L 398 372 L 400 370 L 400 369 L 401 368 L 401 367 L 402 366 L 402 363 L 401 362 L 401 361 L 400 360 L 399 360 L 398 359 "></path>
        <path fill="none" stroke="#fa00fa" stroke-width="3" d="M 676 372 L 675 373 L 674 373 L 672 375 L 672 379 L 674 381 L 675 381 L 676 382 L 684 382 L 685 381 L 686 381 L 686 380 L 687 379 L 687 375 L 685 373 L 681 373 L 680 372 "></path>
        <path fill="none" stroke="#fa00fa" stroke-width="3" d="M 389 388 L 386 391 L 386 393 L 385 394 L 385 395 L 386 396 L 386 398 L 388 400 L 389 400 L 390 401 L 393 401 L 394 400 L 395 400 L 397 398 L 397 396 L 398 395 L 398 394 L 397 393 L 397 391 L 395 389 L 394 389 L 393 388 "></path>
        <path fill="none" stroke="#fa00fa" stroke-width="3" d="M 633 345 L 631 347 L 631 348 L 630 349 L 630 351 L 631 352 L 631 353 L 635 357 L 641 357 L 643 355 L 643 350 L 638 345 "></path>
        <path fill="none" stroke="#fa00fa" stroke-width="3" d="M 391 298 L 389 300 L 389 301 L 388 302 L 388 307 L 389 308 L 389 310 L 392 313 L 394 313 L 395 312 L 396 312 L 397 311 L 397 310 L 398 309 L 398 303 L 397 302 L 397 300 L 395 298 "></path>
        <path fill="none" stroke="#fa00fa" stroke-width="3" d="M 662 345 L 660 347 L 660 348 L 659 349 L 659 351 L 658 352 L 658 354 L 659 355 L 659 357 L 660 358 L 661 358 L 662 359 L 665 359 L 668 356 L 668 354 L 669 353 L 669 349 L 668 348 L 668 347 L 666 345 "></path>
        <path fill="none" stroke="#fa00fa" stroke-width="3" d="M 651 508 L 649 510 L 649 511 L 648 512 L 648 518 L 649 519 L 649 520 L 651 522 L 655 522 L 657 520 L 657 519 L 658 518 L 658 512 L 657 511 L 657 510 L 656 509 L 655 509 L 654 508 "></path>
        <path fill="none" stroke="#fa00fa" stroke-width="3" d="M 651 482 L 650 483 L 649 483 L 648 484 L 648 485 L 647 486 L 647 492 L 649 494 L 654 494 L 655 493 L 656 493 L 657 492 L 657 491 L 658 490 L 658 489 L 659 488 L 659 487 L 658 486 L 658 484 L 656 482 "></path>
        <path fill="none" stroke="#fa00fa" stroke-width="3" d="M 620 254 L 618 256 L 618 258 L 617 259 L 617 263 L 618 264 L 618 266 L 620 268 L 624 268 L 626 266 L 626 265 L 627 264 L 627 258 L 626 257 L 626 255 L 625 255 L 624 254 "></path>
        <path fill="none" stroke="#fa00fa" stroke-width="3" d="M 680 432 L 679 433 L 678 433 L 677 434 L 677 435 L 676 436 L 676 440 L 677 441 L 677 442 L 678 443 L 679 443 L 680 444 L 684 444 L 687 441 L 687 440 L 688 439 L 688 437 L 687 436 L 687 435 L 685 433 L 684 433 L 683 432 "></path>
        <path fill="none" stroke="#fa00fa" stroke-width="3" d="M 645 327 L 642 330 L 642 334 L 646 338 L 647 338 L 648 339 L 652 339 L 654 337 L 654 332 L 650 328 L 649 328 L 648 327 "></path>
        <path fill="none" stroke="#fa00fa" stroke-width="3" d="M 676 482 L 675 483 L 674 483 L 673 484 L 673 486 L 672 487 L 673 488 L 673 489 L 675 491 L 676 491 L 677 492 L 682 492 L 683 491 L 684 491 L 685 490 L 685 489 L 686 488 L 686 486 L 685 485 L 685 484 L 684 483 L 683 483 L 682 482 "></path>
        <path fill="none" stroke="#fa00fa" stroke-width="3" d="M 365 402 L 362 405 L 362 406 L 361 407 L 361 409 L 362 410 L 362 411 L 364 413 L 365 413 L 366 414 L 369 414 L 370 413 L 371 413 L 372 412 L 372 411 L 373 410 L 373 407 L 372 406 L 372 405 L 369 402 "></path>
        <path fill="none" stroke="#fa00fa" stroke-width="3" d="M 664 313 L 663 314 L 662 314 L 661 315 L 661 316 L 660 317 L 660 320 L 661 321 L 661 322 L 663 324 L 664 324 L 665 325 L 668 325 L 669 324 L 670 324 L 671 323 L 671 322 L 672 321 L 672 319 L 671 318 L 671 316 L 669 314 L 667 314 L 666 313 "></path>
        <path fill="none" stroke="#fa00fa" stroke-width="3" d="M 363 436 L 360 439 L 360 442 L 361 443 L 361 444 L 363 446 L 364 446 L 365 447 L 370 447 L 372 445 L 372 440 L 371 439 L 371 438 L 370 437 L 369 437 L 368 436 "></path>
        <path fill="none" stroke="#fa00fa" stroke-width="3" d="M 571 253 L 569 255 L 569 260 L 573 264 L 578 264 L 579 263 L 580 263 L 580 262 L 581 261 L 581 258 L 580 257 L 580 256 L 578 254 L 577 254 L 576 253 "></path>
        <path fill="none" stroke="#fa00fa" stroke-width="3" d="M 366 463 L 365 464 L 364 464 L 362 466 L 362 472 L 363 473 L 364 473 L 365 474 L 369 474 L 370 473 L 371 473 L 372 472 L 372 471 L 373 470 L 373 465 L 371 463 "></path>
        <path fill="none" stroke="#fa00fa" stroke-width="3" d="M 360 342 L 358 344 L 358 349 L 359 350 L 359 351 L 360 352 L 361 352 L 362 353 L 366 353 L 369 350 L 369 346 L 368 345 L 368 344 L 366 342 "></path>
        <path fill="none" stroke="#fa00fa" stroke-width="3" d="M 392 269 L 391 270 L 390 270 L 389 271 L 389 272 L 388 273 L 388 278 L 389 279 L 389 280 L 390 281 L 391 281 L 392 282 L 393 282 L 394 281 L 395 281 L 398 278 L 398 272 L 396 270 L 395 270 L 394 269 "></path>
        <path fill="none" stroke="#fa00fa" stroke-width="3" d="M 647 268 L 644 271 L 644 275 L 645 276 L 645 277 L 646 277 L 647 278 L 653 278 L 656 275 L 656 271 L 654 269 L 653 269 L 652 268 "></path>
        <path fill="none" stroke="#fa00fa" stroke-width="3" d="M 578 230 L 577 231 L 576 231 L 575 232 L 575 233 L 574 234 L 574 236 L 575 237 L 575 238 L 578 241 L 584 241 L 585 240 L 585 239 L 586 238 L 586 235 L 585 234 L 585 233 L 584 232 L 583 232 L 582 231 L 581 231 L 580 230 "></path>
        <path fill="none" stroke="#fa00fa" stroke-width="3" d="M 603 226 L 600 229 L 600 234 L 601 235 L 602 235 L 603 236 L 608 236 L 609 235 L 610 235 L 611 234 L 611 233 L 612 232 L 612 230 L 611 229 L 611 228 L 610 227 L 609 227 L 608 226 "></path>
        <path fill="none" stroke="#fa00fa" stroke-width="3" d="M 347 361 L 346 362 L 345 362 L 344 363 L 344 364 L 343 365 L 343 369 L 344 370 L 344 371 L 345 371 L 346 372 L 350 372 L 352 370 L 353 370 L 353 369 L 354 368 L 354 364 L 353 363 L 353 362 L 352 362 L 351 361 "></path>
        <path fill="none" stroke="#fa00fa" stroke-width="3" d="M 332 434 L 329 437 L 329 438 L 328 439 L 328 441 L 329 442 L 329 443 L 330 444 L 332 444 L 333 445 L 334 444 L 336 444 L 339 441 L 339 440 L 340 439 L 340 437 L 339 436 L 339 435 L 338 434 "></path>
        <path fill="none" stroke="#fa00fa" stroke-width="3" d="M 481 223 L 480 224 L 479 224 L 479 225 L 478 226 L 478 231 L 480 233 L 481 233 L 482 234 L 484 234 L 485 233 L 486 233 L 489 230 L 489 227 L 488 226 L 488 225 L 486 223 "></path>
        <path fill="none" stroke="#fa00fa" stroke-width="3" d="M 337 387 L 336 388 L 335 388 L 332 391 L 332 397 L 334 399 L 338 399 L 339 398 L 340 398 L 341 397 L 341 396 L 342 395 L 342 390 L 340 388 L 339 388 L 338 387 "></path>
        <path fill="none" stroke="#fa00fa" stroke-width="3" d="M 705 348 L 704 349 L 703 349 L 701 351 L 701 356 L 704 359 L 709 359 L 710 358 L 711 358 L 711 357 L 712 356 L 712 353 L 711 352 L 711 351 L 709 349 L 708 349 L 707 348 "></path>
        <path fill="none" stroke="#fa00fa" stroke-width="3" d="M 351 301 L 349 303 L 349 304 L 348 305 L 348 307 L 349 308 L 349 309 L 352 312 L 355 312 L 356 311 L 357 311 L 359 309 L 359 304 L 356 301 "></path>
        <path fill="none" stroke="#fa00fa" stroke-width="3" d="M 676 525 L 675 526 L 674 526 L 674 527 L 673 528 L 673 531 L 674 532 L 674 533 L 675 534 L 676 534 L 677 535 L 681 535 L 682 534 L 683 534 L 684 533 L 684 532 L 685 531 L 685 530 L 684 529 L 684 527 L 682 525 "></path>
        <path fill="none" stroke="#fa00fa" stroke-width="3" d="M 648 242 L 647 243 L 646 243 L 644 245 L 644 249 L 645 250 L 645 251 L 646 252 L 648 252 L 649 253 L 650 253 L 651 252 L 653 252 L 655 250 L 655 245 L 653 243 L 652 243 L 651 242 "></path>
        <path fill="none" stroke="#fa00fa" stroke-width="3" d="M 706 327 L 705 328 L 704 328 L 703 329 L 703 334 L 705 336 L 706 336 L 707 337 L 710 337 L 711 336 L 712 336 L 714 334 L 714 333 L 715 332 L 715 331 L 714 330 L 714 329 L 712 327 "></path>
        <path fill="none" stroke="#fa00fa" stroke-width="3" d="M 546 195 L 545 196 L 544 196 L 543 197 L 543 198 L 542 199 L 542 202 L 543 203 L 543 204 L 544 205 L 545 205 L 546 206 L 549 206 L 550 205 L 551 205 L 552 204 L 552 203 L 553 202 L 553 199 L 552 198 L 552 197 L 551 196 L 550 196 L 549 195 "></path>
        <path fill="none" stroke="#fa00fa" stroke-width="3" d="M 394 553 L 393 554 L 391 554 L 390 555 L 390 556 L 389 557 L 389 562 L 392 565 L 396 565 L 398 563 L 398 562 L 399 561 L 399 557 L 398 556 L 398 555 L 397 554 L 395 554 "></path>
        <path fill="none" stroke="#fa00fa" stroke-width="3" d="M 727 344 L 726 345 L 725 345 L 724 346 L 724 348 L 723 349 L 723 351 L 724 352 L 724 354 L 725 355 L 726 355 L 727 356 L 730 356 L 733 353 L 733 347 L 731 345 L 730 345 L 729 344 "></path>
        <path fill="none" stroke="#fa00fa" stroke-width="3" d="M 604 586 L 602 588 L 602 594 L 604 596 L 606 596 L 607 597 L 608 597 L 609 596 L 610 596 L 612 594 L 612 593 L 613 592 L 613 591 L 612 590 L 612 589 L 611 588 L 611 587 L 610 587 L 609 586 "></path>
        <path fill="none" stroke="#fa00fa" stroke-width="3" d="M 423 224 L 421 226 L 421 227 L 420 228 L 420 229 L 421 230 L 421 232 L 423 234 L 424 234 L 425 235 L 428 235 L 429 234 L 430 234 L 430 233 L 431 232 L 431 228 L 430 227 L 430 226 L 429 225 L 428 225 L 427 224 "></path>
        <path fill="none" stroke="#fa00fa" stroke-width="3" d="M 723 302 L 722 303 L 721 303 L 720 304 L 720 305 L 719 306 L 719 309 L 720 310 L 720 311 L 721 312 L 722 312 L 723 313 L 726 313 L 727 312 L 728 312 L 729 311 L 729 310 L 730 309 L 730 306 L 729 305 L 729 304 L 728 303 L 726 303 L 725 302 "></path>
        <path fill="none" stroke="#fa00fa" stroke-width="3" d="M 333 344 L 330 347 L 330 348 L 329 349 L 329 351 L 330 352 L 330 353 L 331 354 L 337 354 L 340 351 L 340 350 L 341 349 L 341 348 L 340 347 L 340 346 L 338 344 "></path>
        <path fill="none" stroke="#fa00fa" stroke-width="3" d="M 529 601 L 528 602 L 526 602 L 524 604 L 524 608 L 525 609 L 525 610 L 526 611 L 527 611 L 528 612 L 532 612 L 535 609 L 535 605 L 532 602 L 530 602 "></path>
        <path fill="none" stroke="#fa00fa" stroke-width="3" d="M 484 195 L 483 196 L 482 196 L 481 197 L 481 198 L 480 199 L 480 204 L 482 206 L 487 206 L 490 203 L 490 198 L 489 197 L 489 196 L 488 196 L 487 195 "></path>
        <path fill="none" stroke="#fa00fa" stroke-width="3" d="M 511 195 L 510 196 L 509 196 L 509 197 L 508 198 L 508 199 L 507 200 L 507 201 L 508 202 L 508 204 L 509 205 L 510 205 L 511 206 L 515 206 L 517 204 L 517 203 L 518 202 L 518 199 L 517 198 L 517 197 L 516 196 L 515 196 L 514 195 "></path>
        <path fill="none" stroke="#fa00fa" stroke-width="3" d="M 346 451 L 344 453 L 344 454 L 343 455 L 343 458 L 344 459 L 344 460 L 345 461 L 347 461 L 348 462 L 349 461 L 351 461 L 353 459 L 353 458 L 354 457 L 354 454 L 351 451 "></path>
        <path fill="none" stroke="#fa00fa" stroke-width="3" d="M 408 570 L 407 571 L 406 571 L 405 572 L 405 573 L 404 574 L 404 576 L 405 577 L 405 578 L 407 580 L 408 580 L 409 581 L 411 581 L 412 580 L 413 580 L 415 578 L 415 574 L 414 573 L 414 572 L 413 571 L 412 571 L 411 570 "></path>
        <path fill="none" stroke="#fa00fa" stroke-width="3" d="M 361 524 L 360 525 L 359 525 L 359 526 L 358 527 L 358 532 L 360 534 L 362 534 L 363 535 L 364 535 L 365 534 L 366 534 L 368 532 L 368 526 L 366 524 "></path>
        <path fill="none" stroke="#fa00fa" stroke-width="3" d="M 558 613 L 555 616 L 555 620 L 558 623 L 563 623 L 566 620 L 566 616 L 563 613 "></path>
        <path fill="none" stroke="#fa00fa" stroke-width="3" d="M 408 240 L 407 241 L 406 241 L 404 243 L 404 248 L 405 249 L 405 250 L 406 250 L 407 251 L 412 251 L 414 249 L 414 243 L 412 241 L 410 241 L 409 240 "></path>
        <path fill="none" stroke="#fa00fa" stroke-width="3" d="M 678 238 L 677 239 L 676 239 L 675 240 L 675 241 L 674 242 L 674 244 L 675 245 L 675 246 L 677 248 L 678 248 L 679 249 L 681 249 L 682 248 L 683 248 L 684 247 L 684 246 L 685 245 L 685 242 L 684 241 L 684 240 L 683 239 L 682 239 L 681 238 "></path>
        <path fill="none" stroke="#fa00fa" stroke-width="3" d="M 317 376 L 316 377 L 315 377 L 315 378 L 314 379 L 314 380 L 313 381 L 313 383 L 314 384 L 314 385 L 315 386 L 316 386 L 317 387 L 319 387 L 320 386 L 321 386 L 323 384 L 323 383 L 324 382 L 324 379 L 321 376 "></path>
        <path fill="none" stroke="#fa00fa" stroke-width="3" d="M 514 225 L 512 227 L 512 228 L 511 229 L 511 231 L 512 232 L 512 233 L 513 234 L 514 234 L 515 235 L 518 235 L 519 234 L 520 234 L 522 232 L 522 227 L 520 225 "></path>
        <path fill="none" stroke="#fa00fa" stroke-width="3" d="M 587 600 L 586 601 L 585 601 L 584 602 L 584 604 L 583 605 L 583 606 L 584 607 L 584 608 L 586 610 L 588 610 L 589 611 L 590 610 L 592 610 L 593 609 L 593 608 L 594 607 L 594 603 L 591 600 "></path>
        <path fill="none" stroke="#fa00fa" stroke-width="3" d="M 320 479 L 319 480 L 318 480 L 316 482 L 316 483 L 315 484 L 315 486 L 316 487 L 316 488 L 317 489 L 318 489 L 319 490 L 322 490 L 323 489 L 324 489 L 325 488 L 325 487 L 326 486 L 326 483 L 325 482 L 325 481 L 324 480 L 322 480 L 321 479 "></path>
        <path fill="none" stroke="#fa00fa" stroke-width="3" d="M 347 274 L 344 277 L 344 280 L 345 281 L 345 282 L 346 283 L 347 283 L 348 284 L 351 284 L 352 283 L 353 283 L 355 281 L 355 277 L 354 276 L 354 275 L 353 275 L 352 274 "></path>
        <path fill="none" stroke="#fa00fa" stroke-width="3" d="M 454 616 L 452 618 L 452 619 L 451 620 L 451 622 L 452 623 L 452 624 L 454 626 L 459 626 L 460 625 L 461 625 L 461 624 L 462 623 L 462 620 L 461 619 L 461 618 L 460 617 L 459 617 L 458 616 "></path>
        <path fill="none" stroke="#fa00fa" stroke-width="3" d="M 497 602 L 496 603 L 495 603 L 494 604 L 494 606 L 493 607 L 493 608 L 494 609 L 494 610 L 496 612 L 501 612 L 504 609 L 504 605 L 503 604 L 503 603 L 502 603 L 501 602 "></path>
        <path fill="none" stroke="#fa00fa" stroke-width="3" d="M 366 554 L 365 555 L 364 555 L 363 556 L 363 557 L 362 558 L 362 562 L 365 565 L 369 565 L 370 564 L 371 564 L 371 563 L 372 562 L 372 558 L 371 557 L 371 556 L 370 555 L 369 555 L 368 554 "></path>
        <path fill="none" stroke="#fa00fa" stroke-width="3" d="M 303 403 L 301 405 L 301 406 L 300 407 L 300 409 L 301 410 L 301 411 L 303 413 L 308 413 L 310 411 L 310 410 L 311 409 L 311 407 L 310 406 L 310 405 L 308 403 "></path>
        <path fill="none" stroke="#fa00fa" stroke-width="3" d="M 333 510 L 330 513 L 330 518 L 332 520 L 337 520 L 338 519 L 339 519 L 339 518 L 340 517 L 340 512 L 338 510 "></path>
        <path fill="none" stroke="#fa00fa" stroke-width="3" d="M 752 377 L 751 378 L 750 378 L 749 379 L 749 385 L 750 386 L 751 386 L 752 387 L 756 387 L 757 386 L 758 386 L 758 385 L 759 384 L 759 380 L 758 379 L 758 378 L 757 378 L 756 377 "></path>
        <path fill="none" stroke="#fa00fa" stroke-width="3" d="M 755 464 L 754 465 L 752 465 L 750 467 L 750 472 L 753 475 L 756 475 L 757 474 L 758 474 L 760 472 L 760 468 L 759 467 L 759 466 L 758 465 L 756 465 "></path>
        <path fill="none" stroke="#fa00fa" stroke-width="3" d="M 393 584 L 392 585 L 391 585 L 390 586 L 390 587 L 389 588 L 389 589 L 390 590 L 390 592 L 392 594 L 393 594 L 394 595 L 396 595 L 397 594 L 398 594 L 399 593 L 399 592 L 400 591 L 400 589 L 399 588 L 399 587 L 397 585 L 395 585 L 394 584 "></path>
        <path fill="none" stroke="#fa00fa" stroke-width="3" d="M 514 616 L 513 617 L 512 617 L 510 619 L 510 620 L 509 621 L 509 622 L 510 623 L 510 624 L 512 626 L 513 626 L 514 627 L 515 627 L 516 626 L 518 626 L 519 625 L 519 624 L 520 623 L 520 620 L 517 617 L 516 617 L 515 616 "></path>
        <path fill="none" stroke="#fa00fa" stroke-width="3" d="M 590 165 L 589 166 L 587 166 L 585 168 L 585 173 L 587 175 L 588 175 L 589 176 L 591 176 L 592 175 L 593 175 L 594 174 L 594 173 L 595 172 L 595 169 L 594 168 L 594 167 L 593 166 L 591 166 "></path>
        <path fill="none" stroke="#fa00fa" stroke-width="3" d="M 347 253 L 346 254 L 346 255 L 345 256 L 345 259 L 348 262 L 353 262 L 356 259 L 356 256 L 355 255 L 355 254 L 354 254 L 353 253 "></path>
        <path fill="none" stroke="#fa00fa" stroke-width="3" d="M 437 630 L 435 632 L 435 633 L 434 634 L 434 636 L 435 637 L 435 638 L 437 640 L 442 640 L 444 638 L 444 633 L 441 630 "></path>
        <path fill="none" stroke="#fa00fa" stroke-width="3" d="M 364 225 L 363 226 L 362 226 L 361 227 L 361 228 L 360 229 L 360 231 L 361 232 L 361 233 L 363 235 L 368 235 L 370 233 L 370 228 L 367 225 "></path>
        <path fill="none" stroke="#fa00fa" stroke-width="3" d="M 379 600 L 378 601 L 377 601 L 375 603 L 375 607 L 376 608 L 376 609 L 377 609 L 378 610 L 383 610 L 385 608 L 385 604 L 384 603 L 384 602 L 383 601 L 381 601 L 380 600 "></path>
        <path fill="none" stroke="#fa00fa" stroke-width="3" d="M 737 541 L 735 543 L 735 544 L 734 545 L 734 547 L 735 548 L 735 549 L 736 550 L 737 550 L 738 551 L 740 551 L 741 550 L 742 550 L 744 548 L 744 543 L 742 541 "></path>
        <path fill="none" stroke="#fa00fa" stroke-width="3" d="M 303 525 L 301 527 L 301 529 L 300 530 L 301 531 L 301 532 L 302 533 L 302 534 L 303 534 L 304 535 L 307 535 L 308 534 L 309 534 L 309 533 L 310 532 L 310 531 L 311 530 L 310 529 L 310 527 L 308 525 "></path>
        <path fill="none" stroke="#fa00fa" stroke-width="3" d="M 783 360 L 782 361 L 781 361 L 780 362 L 780 363 L 779 364 L 779 367 L 782 370 L 786 370 L 787 369 L 788 369 L 788 368 L 789 367 L 789 363 L 787 361 L 786 361 L 785 360 "></path>
        <path fill="none" stroke="#fa00fa" stroke-width="3" d="M 320 255 L 319 256 L 318 256 L 316 258 L 316 263 L 318 265 L 323 265 L 325 263 L 325 262 L 326 261 L 326 260 L 325 259 L 325 257 L 324 256 L 322 256 L 321 255 "></path>
        <path fill="none" stroke="#fa00fa" stroke-width="3" d="M 287 256 L 286 257 L 286 258 L 285 259 L 285 262 L 286 263 L 286 264 L 287 264 L 288 265 L 292 265 L 294 263 L 294 262 L 295 261 L 295 260 L 294 259 L 294 258 L 292 256 "></path>
    </g>
</svg>
