<svg xmlns="http://www.w3.org/2000/svg" xmlns:xlink="http://www.w3.org/1999/xlink" version="1.1" x="0" y="0" width="1056px" height="816px">
    <g id="rootLayer" transform="translate(0.000000, 0.000000)">
        <path fill="none" stroke="#00fafa" stroke-width="3" d="M 486 177 L 487 176 L 492 176 L 493 177 L 495 177 L 496 178 L 497 178 L 499 180 L 500 180 L 506 186 L 506 187 L 508 189 L 508 190 L 509 191 L 509 199 L 508 200 L 508 230 L 507 231 L 507 234 L 506 235 L 506 237 L 505 238 L 505 244 L 506 245 L 506 246 L 507 247 L 507 248 L 508 249 L 509 249 L 510 250 L 512 250 L 513 251 L 514 251 L 515 250 L 517 250 L 518 249 L 519 249 L 523 245 L 523 244 L 524 243 L 524 241 L 525 240 L 525 238 L 526 237 L 526 232 L 527 231 L 527 198 L 530 195 L 559 195 L 560 194 L 561 194 L 562 195 L 563 195 L 564 196 L 564 228 L 565 229 L 565 232 L 566 233 L 566 235 L 567 236 L 567 237 L 569 239 L 569 240 L 574 245 L 575 245 L 577 247 L 578 247 L 579 248 L 581 248 L 582 249 L 585 249 L 586 250 L 593 250 L 594 251 L 608 251 L 609 250 L 616 250 L 617 249 L 623 249 L 624 250 L 625 250 L 635 260 L 636 260 L 643 267 L 643 268 L 645 270 L 645 271 L 651 277 L 652 277 L 653 278 L 654 278 L 655 279 L 657 279 L 658 280 L 665 280 L 666 281 L 669 281 L 670 282 L 672 282 L 675 285 L 675 286 L 676 287 L 676 292 L 675 293 L 675 307 L 674 308 L 674 335 L 675 336 L 675 343 L 676 344 L 676 347 L 677 348 L 677 351 L 678 352 L 678 353 L 679 354 L 679 355 L 680 356 L 680 357 L 681 358 L 681 359 L 682 360 L 682 361 L 685 364 L 685 365 L 696 376 L 697 376 L 701 380 L 701 381 L 702 382 L 702 384 L 703 385 L 703 387 L 702 388 L 702 392 L 701 393 L 701 395 L 700 396 L 700 398 L 699 399 L 699 401 L 698 402 L 698 403 L 697 404 L 697 405 L 696 406 L 696 407 L 694 409 L 694 410 L 691 413 L 691 414 L 684 421 L 683 421 L 681 423 L 680 423 L 679 424 L 678 424 L 677 425 L 675 425 L 674 426 L 673 426 L 672 427 L 671 427 L 670 428 L 669 428 L 667 430 L 667 431 L 666 432 L 666 434 L 665 435 L 665 436 L 666 437 L 666 440 L 670 444 L 671 444 L 673 446 L 674 446 L 675 447 L 676 447 L 677 448 L 678 448 L 680 450 L 682 450 L 683 451 L 691 451 L 692 450 L 693 450 L 694 449 L 695 449 L 696 448 L 698 448 L 699 447 L 701 447 L 702 446 L 706 446 L 707 447 L 710 447 L 711 448 L 712 448 L 729 465 L 729 466 L 730 467 L 730 468 L 731 469 L 731 472 L 730 473 L 730 482 L 729 483 L 729 498 L 730 499 L 730 508 L 729 509 L 728 509 L 727 510 L 725 510 L 724 509 L 694 509 L 693 510 L 690 510 L 689 511 L 687 511 L 686 512 L 685 512 L 682 515 L 681 515 L 680 516 L 680 517 L 678 519 L 678 520 L 677 521 L 677 522 L 676 523 L 676 525 L 675 526 L 675 529 L 674 530 L 674 557 L 675 558 L 675 563 L 673 565 L 667 565 L 666 564 L 641 564 L 640 565 L 635 565 L 634 566 L 632 566 L 631 567 L 630 567 L 629 568 L 628 568 L 623 573 L 623 574 L 621 576 L 621 578 L 620 579 L 620 581 L 619 582 L 619 619 L 620 620 L 620 623 L 619 624 L 619 626 L 617 628 L 617 629 L 614 632 L 613 632 L 610 635 L 609 635 L 608 636 L 607 636 L 606 637 L 602 637 L 601 638 L 595 638 L 594 637 L 588 637 L 587 636 L 586 636 L 585 635 L 584 635 L 583 634 L 583 633 L 582 632 L 582 592 L 583 591 L 583 589 L 584 588 L 584 587 L 586 585 L 586 584 L 587 583 L 587 582 L 588 581 L 588 575 L 587 574 L 587 573 L 584 570 L 583 570 L 582 569 L 577 569 L 576 570 L 574 570 L 568 576 L 568 577 L 567 578 L 567 579 L 566 580 L 566 582 L 565 583 L 565 585 L 564 586 L 564 593 L 563 594 L 563 619 L 564 620 L 564 632 L 563 633 L 563 634 L 560 637 L 558 637 L 557 638 L 553 638 L 552 639 L 541 639 L 540 638 L 539 638 L 538 637 L 537 637 L 530 630 L 530 629 L 522 621 L 521 621 L 520 620 L 519 620 L 518 619 L 515 619 L 514 618 L 511 618 L 510 619 L 504 619 L 503 620 L 473 620 L 472 621 L 468 621 L 467 620 L 465 620 L 450 605 L 450 604 L 449 603 L 449 600 L 448 599 L 448 590 L 449 589 L 449 588 L 450 587 L 450 586 L 455 581 L 455 580 L 456 579 L 456 572 L 454 570 L 454 569 L 453 569 L 451 567 L 450 567 L 448 565 L 447 565 L 446 564 L 446 563 L 445 562 L 445 561 L 444 560 L 444 557 L 443 556 L 443 551 L 442 550 L 442 548 L 441 547 L 441 546 L 439 544 L 439 543 L 438 542 L 437 542 L 435 540 L 433 540 L 432 539 L 429 539 L 428 538 L 423 538 L 422 537 L 420 537 L 419 536 L 417 536 L 416 535 L 415 535 L 414 534 L 413 534 L 411 532 L 410 532 L 408 530 L 407 530 L 403 526 L 402 526 L 399 523 L 399 522 L 395 518 L 395 517 L 393 515 L 393 514 L 392 513 L 392 512 L 391 511 L 391 510 L 390 509 L 390 508 L 389 507 L 389 506 L 388 505 L 388 501 L 387 500 L 387 493 L 386 492 L 386 489 L 385 488 L 385 487 L 384 486 L 384 485 L 381 482 L 381 481 L 361 461 L 361 460 L 359 458 L 359 450 L 360 449 L 360 442 L 361 441 L 361 436 L 360 435 L 360 433 L 359 432 L 359 431 L 358 430 L 358 429 L 357 428 L 356 428 L 355 427 L 353 427 L 352 426 L 350 426 L 349 427 L 347 427 L 343 431 L 343 432 L 342 433 L 342 438 L 341 439 L 341 442 L 342 443 L 342 449 L 341 450 L 341 451 L 339 453 L 324 453 L 323 454 L 308 454 L 305 451 L 305 422 L 304 421 L 304 419 L 307 416 L 311 416 L 312 417 L 337 417 L 338 418 L 343 418 L 344 419 L 347 419 L 348 418 L 352 418 L 353 417 L 354 417 L 356 415 L 357 415 L 360 412 L 360 411 L 372 399 L 372 398 L 374 396 L 374 395 L 379 390 L 380 390 L 381 389 L 399 389 L 400 390 L 403 390 L 404 391 L 405 391 L 406 392 L 407 392 L 408 393 L 409 393 L 410 394 L 411 394 L 415 398 L 415 399 L 417 401 L 417 402 L 418 403 L 418 404 L 420 406 L 420 407 L 427 414 L 427 422 L 428 423 L 428 425 L 429 426 L 429 427 L 430 428 L 430 429 L 435 434 L 436 434 L 437 435 L 445 435 L 447 433 L 448 433 L 448 432 L 450 430 L 450 422 L 449 421 L 449 420 L 448 419 L 448 418 L 444 414 L 444 413 L 443 412 L 442 412 L 438 408 L 438 403 L 437 402 L 437 399 L 436 398 L 436 396 L 435 395 L 435 393 L 434 392 L 434 391 L 433 390 L 433 389 L 432 388 L 432 387 L 431 386 L 431 385 L 429 383 L 429 382 L 426 379 L 425 379 L 423 377 L 422 377 L 420 375 L 419 375 L 418 374 L 416 374 L 415 373 L 414 373 L 413 372 L 411 372 L 410 371 L 408 371 L 407 370 L 402 370 L 401 369 L 395 369 L 394 370 L 381 370 L 380 369 L 379 369 L 375 365 L 375 364 L 371 360 L 371 359 L 360 348 L 360 347 L 359 346 L 359 341 L 360 340 L 360 333 L 361 332 L 361 315 L 360 314 L 360 306 L 361 305 L 361 301 L 362 300 L 362 292 L 361 291 L 361 259 L 360 258 L 360 254 L 361 253 L 361 252 L 362 251 L 363 251 L 364 250 L 368 250 L 369 251 L 390 251 L 391 250 L 392 250 L 393 251 L 395 251 L 397 253 L 397 279 L 396 280 L 396 282 L 392 286 L 390 286 L 389 287 L 376 287 L 375 288 L 373 288 L 372 289 L 371 289 L 369 291 L 369 292 L 368 293 L 368 295 L 367 296 L 367 298 L 368 299 L 368 301 L 369 302 L 369 303 L 370 304 L 371 304 L 372 305 L 373 305 L 374 306 L 389 306 L 390 305 L 395 305 L 396 304 L 398 304 L 399 303 L 400 303 L 401 302 L 402 302 L 403 301 L 404 301 L 411 294 L 411 293 L 412 292 L 412 291 L 413 290 L 413 289 L 414 288 L 414 285 L 415 284 L 415 280 L 416 279 L 416 256 L 415 255 L 415 245 L 423 237 L 423 236 L 431 228 L 432 228 L 433 227 L 435 227 L 437 229 L 438 229 L 440 231 L 440 232 L 473 265 L 474 265 L 479 270 L 480 270 L 481 271 L 482 271 L 483 272 L 490 272 L 491 271 L 492 271 L 493 270 L 494 270 L 494 269 L 496 267 L 496 265 L 497 264 L 497 263 L 496 262 L 496 259 L 494 257 L 494 256 L 493 255 L 492 255 L 490 253 L 489 253 L 488 252 L 487 252 L 485 250 L 484 250 L 482 248 L 482 247 L 450 215 L 450 213 L 449 212 L 449 209 L 450 208 L 450 206 L 451 205 L 451 203 L 452 202 L 452 201 L 453 200 L 453 199 L 455 197 L 455 196 L 457 194 L 457 193 L 466 184 L 467 184 L 469 182 L 470 182 L 471 181 L 472 181 L 473 180 L 474 180 L 475 179 L 477 179 L 478 178 L 481 178 L 482 177 L 486 177 L 487 176 "></path>
        <path fill="none" stroke="#00fafa" stroke-width="3" d="M 377 563 L 378 562 L 389 562 L 390 563 L 393 563 L 394 564 L 395 564 L 396 565 L 397 565 L 398 566 L 399 566 L 400 567 L 401 567 L 403 569 L 404 569 L 410 575 L 410 576 L 412 578 L 412 579 L 414 581 L 414 582 L 415 583 L 415 585 L 416 586 L 416 588 L 417 589 L 417 595 L 418 596 L 418 598 L 417 599 L 417 604 L 416 605 L 416 606 L 414 608 L 414 609 L 404 619 L 403 619 L 402 620 L 391 620 L 390 619 L 371 619 L 370 620 L 362 620 L 360 618 L 360 613 L 361 612 L 361 589 L 360 588 L 360 579 L 361 578 L 361 577 L 374 564 L 375 564 L 376 563 L 377 563 L 378 562 "></path>
        <path fill="none" stroke="#00fafa" stroke-width="3" d="M 638 196 L 639 195 L 648 195 L 649 196 L 665 196 L 666 195 L 680 195 L 686 201 L 686 202 L 687 203 L 687 204 L 688 205 L 688 206 L 689 207 L 689 211 L 690 212 L 690 224 L 689 225 L 689 228 L 688 229 L 688 231 L 687 232 L 687 233 L 686 234 L 686 235 L 685 236 L 685 237 L 683 239 L 683 240 L 675 248 L 674 248 L 672 250 L 671 250 L 670 251 L 669 251 L 668 252 L 667 252 L 666 253 L 664 253 L 663 254 L 657 254 L 655 252 L 654 252 L 643 241 L 642 241 L 638 237 L 638 236 L 637 235 L 637 223 L 638 222 L 638 203 L 637 202 L 637 198 L 638 197 L 638 196 L 639 195 "></path>
        <path fill="none" stroke="#00fafa" stroke-width="3" d="M 337 472 L 338 471 L 344 471 L 345 472 L 346 472 L 354 480 L 354 481 L 365 492 L 365 493 L 366 494 L 366 501 L 365 502 L 365 504 L 364 505 L 364 506 L 361 509 L 360 509 L 359 510 L 351 510 L 350 509 L 305 509 L 304 510 L 303 510 L 302 509 L 299 509 L 293 503 L 293 502 L 292 501 L 292 500 L 291 499 L 291 498 L 290 497 L 290 491 L 289 490 L 289 487 L 290 486 L 290 483 L 291 482 L 291 481 L 292 480 L 292 479 L 298 473 L 299 473 L 300 472 L 337 472 L 338 471 "></path>
        <path fill="none" stroke="#00fafa" stroke-width="3" d="M 697 286 L 698 285 L 712 285 L 713 286 L 715 286 L 716 287 L 717 287 L 719 289 L 720 289 L 728 297 L 728 298 L 730 300 L 730 302 L 731 303 L 731 306 L 730 307 L 730 315 L 729 316 L 729 332 L 730 333 L 730 341 L 731 342 L 731 346 L 730 347 L 730 348 L 729 349 L 729 350 L 717 362 L 717 363 L 716 364 L 715 364 L 714 365 L 712 365 L 711 364 L 710 364 L 706 360 L 706 359 L 699 352 L 699 351 L 697 349 L 697 348 L 696 347 L 696 346 L 695 345 L 695 343 L 694 342 L 694 338 L 693 337 L 693 301 L 694 300 L 694 289 L 695 288 L 695 287 L 696 286 L 697 286 L 698 285 "></path>
        <path fill="none" stroke="#00fafa" stroke-width="3" d="M 356 196 L 357 195 L 369 195 L 370 196 L 389 196 L 390 195 L 408 195 L 413 200 L 413 201 L 414 202 L 414 203 L 415 204 L 415 206 L 416 207 L 416 210 L 417 211 L 417 213 L 416 214 L 416 216 L 414 218 L 414 219 L 406 227 L 406 228 L 403 231 L 402 231 L 401 232 L 400 232 L 399 233 L 394 233 L 393 232 L 361 232 L 360 233 L 359 233 L 358 232 L 355 232 L 349 226 L 349 225 L 348 224 L 348 223 L 347 222 L 347 211 L 348 210 L 348 207 L 349 206 L 349 204 L 350 203 L 350 202 L 351 201 L 351 200 L 355 196 L 356 196 L 357 195 "></path>
        <path fill="none" stroke="#00fafa" stroke-width="3" d="M 778 417 L 779 416 L 783 416 L 785 418 L 785 419 L 786 420 L 786 421 L 785 422 L 785 449 L 786 450 L 785 451 L 785 452 L 783 454 L 776 454 L 775 453 L 758 453 L 757 454 L 744 454 L 730 440 L 730 439 L 727 436 L 727 435 L 726 434 L 726 425 L 727 424 L 727 422 L 728 421 L 728 420 L 731 417 L 778 417 L 779 416 "></path>
        <path fill="none" stroke="#00fafa" stroke-width="3" d="M 744 361 L 757 361 L 758 362 L 775 362 L 776 361 L 783 361 L 786 364 L 786 366 L 785 367 L 785 397 L 784 398 L 783 398 L 782 399 L 780 399 L 779 398 L 731 398 L 728 395 L 728 394 L 727 393 L 727 391 L 726 390 L 726 381 L 727 380 L 727 379 L 731 375 L 731 374 L 744 361 L 757 361 "></path>
        <path fill="none" stroke="#00fafa" stroke-width="3" d="M 308 527 L 326 527 L 327 528 L 357 528 L 358 529 L 359 529 L 362 532 L 362 535 L 363 536 L 363 546 L 362 547 L 362 548 L 361 549 L 361 550 L 357 554 L 357 555 L 348 564 L 347 564 L 346 565 L 338 565 L 337 564 L 313 564 L 312 565 L 307 565 L 305 563 L 305 553 L 306 552 L 306 541 L 305 540 L 305 530 L 308 527 L 326 527 "></path>
        <path fill="none" stroke="#00fafa" stroke-width="3" d="M 339 361 L 340 360 L 344 360 L 345 361 L 346 361 L 347 362 L 348 362 L 350 364 L 350 365 L 363 378 L 363 381 L 362 382 L 362 383 L 361 384 L 360 384 L 352 392 L 352 393 L 347 398 L 346 398 L 345 399 L 335 399 L 334 398 L 311 398 L 310 399 L 308 399 L 307 398 L 306 398 L 305 397 L 305 365 L 304 364 L 305 363 L 305 362 L 306 361 L 339 361 L 340 360 "></path>
        <path fill="none" stroke="#00fafa" stroke-width="3" d="M 594 683 L 595 682 L 603 682 L 604 683 L 607 683 L 608 684 L 610 684 L 611 685 L 612 685 L 618 691 L 618 693 L 619 694 L 619 719 L 618 720 L 618 723 L 617 724 L 617 725 L 613 729 L 612 729 L 611 730 L 610 730 L 609 731 L 607 731 L 606 732 L 593 732 L 592 731 L 590 731 L 589 730 L 588 730 L 586 728 L 585 728 L 578 721 L 578 720 L 577 719 L 577 718 L 576 717 L 576 715 L 575 714 L 575 711 L 574 710 L 574 705 L 575 704 L 575 700 L 576 699 L 576 698 L 577 697 L 577 696 L 578 695 L 578 694 L 580 692 L 580 691 L 583 688 L 584 688 L 587 685 L 588 685 L 589 684 L 591 684 L 592 683 L 594 683 L 595 682 "></path>
        <path fill="none" stroke="#00fafa" stroke-width="3" d="M 376 135 L 377 134 L 386 134 L 387 135 L 390 135 L 391 136 L 392 136 L 393 137 L 394 137 L 395 138 L 396 138 L 398 140 L 399 140 L 404 145 L 404 146 L 406 148 L 406 149 L 407 150 L 407 151 L 408 152 L 408 153 L 409 154 L 409 157 L 410 158 L 410 169 L 409 170 L 409 172 L 405 176 L 401 176 L 400 177 L 363 177 L 361 175 L 361 174 L 360 173 L 360 170 L 361 169 L 361 145 L 362 144 L 362 143 L 363 142 L 363 141 L 365 139 L 366 139 L 368 137 L 369 137 L 370 136 L 372 136 L 373 135 L 376 135 L 377 134 "></path>
        <path fill="none" stroke="#00fafa" stroke-width="3" d="M 430 621 L 431 620 L 437 620 L 439 622 L 440 622 L 445 627 L 446 627 L 452 633 L 452 634 L 453 635 L 453 673 L 451 675 L 450 675 L 449 676 L 448 676 L 447 675 L 418 675 L 416 673 L 416 639 L 415 638 L 415 637 L 416 636 L 416 634 L 417 633 L 417 632 L 425 624 L 426 624 L 429 621 L 430 621 L 431 620 "></path>
        <path fill="none" stroke="#00fafa" stroke-width="3" d="M 474 639 L 475 638 L 511 638 L 512 639 L 513 639 L 522 648 L 522 649 L 523 650 L 523 651 L 524 652 L 524 660 L 523 661 L 523 663 L 522 664 L 522 666 L 521 667 L 521 668 L 520 669 L 520 670 L 516 674 L 515 674 L 514 675 L 477 675 L 476 676 L 474 676 L 473 675 L 472 675 L 471 674 L 471 642 L 472 641 L 472 640 L 473 639 L 474 639 L 475 638 "></path>
        <path fill="none" stroke="#00fafa" stroke-width="3" d="M 558 140 L 559 139 L 561 139 L 564 142 L 564 150 L 563 151 L 563 166 L 564 167 L 564 175 L 562 177 L 523 177 L 521 175 L 520 175 L 518 173 L 518 172 L 513 167 L 513 166 L 512 165 L 512 164 L 511 163 L 511 156 L 512 155 L 512 153 L 513 152 L 513 150 L 514 149 L 514 148 L 516 146 L 516 145 L 520 141 L 521 141 L 522 140 L 558 140 L 559 139 "></path>
        <path fill="none" stroke="#00fafa" stroke-width="3" d="M 743 251 L 744 250 L 748 250 L 749 251 L 778 251 L 779 250 L 780 250 L 781 251 L 783 251 L 785 253 L 785 267 L 784 268 L 784 271 L 785 272 L 785 286 L 784 287 L 783 287 L 782 288 L 776 288 L 775 287 L 755 287 L 754 288 L 746 288 L 745 287 L 744 287 L 735 278 L 735 277 L 733 275 L 733 274 L 732 273 L 732 265 L 733 264 L 733 262 L 734 261 L 734 259 L 735 258 L 735 257 L 736 256 L 736 255 L 739 252 L 740 252 L 741 251 L 743 251 L 744 250 "></path>
        <path fill="none" stroke="#00fafa" stroke-width="3" d="M 321 238 L 322 237 L 331 237 L 332 238 L 334 238 L 336 240 L 337 240 L 341 244 L 341 245 L 342 246 L 342 249 L 343 250 L 342 251 L 342 281 L 343 282 L 343 285 L 340 288 L 334 288 L 333 287 L 313 287 L 312 288 L 308 288 L 307 287 L 306 287 L 305 286 L 305 277 L 306 276 L 306 262 L 305 261 L 305 247 L 306 246 L 306 245 L 309 242 L 310 242 L 311 241 L 312 241 L 313 240 L 314 240 L 315 239 L 317 239 L 318 238 L 321 238 L 322 237 "></path>
        <path fill="none" stroke="#00fafa" stroke-width="3" d="M 252 416 L 256 416 L 257 417 L 280 417 L 281 416 L 283 416 L 284 417 L 285 417 L 287 419 L 287 426 L 286 427 L 286 446 L 287 447 L 287 457 L 286 458 L 286 459 L 280 465 L 279 465 L 278 466 L 277 466 L 276 467 L 266 467 L 265 466 L 263 466 L 262 465 L 260 465 L 259 464 L 258 464 L 257 463 L 256 463 L 254 461 L 253 461 L 252 460 L 252 459 L 250 457 L 250 423 L 249 422 L 249 420 L 250 419 L 250 418 L 252 416 L 256 416 "></path>
        <path fill="none" stroke="#00fafa" stroke-width="3" d="M 634 639 L 635 638 L 672 638 L 675 641 L 675 644 L 674 645 L 674 672 L 671 675 L 661 675 L 660 674 L 649 674 L 648 675 L 636 675 L 635 674 L 634 674 L 633 673 L 632 673 L 629 670 L 629 669 L 628 668 L 628 667 L 627 666 L 627 665 L 626 664 L 626 663 L 625 662 L 625 660 L 624 659 L 624 650 L 625 649 L 625 648 L 626 647 L 626 646 L 629 643 L 629 642 L 631 640 L 632 640 L 633 639 L 634 639 L 635 638 "></path>
        <path fill="none" stroke="#00fafa" stroke-width="3" d="M 757 192 L 758 191 L 768 191 L 769 192 L 771 192 L 772 193 L 774 193 L 775 194 L 776 194 L 779 197 L 780 197 L 782 199 L 782 200 L 783 201 L 783 202 L 784 203 L 784 218 L 785 219 L 785 228 L 784 229 L 784 230 L 783 231 L 782 231 L 781 232 L 744 232 L 743 231 L 742 231 L 739 228 L 739 227 L 738 226 L 738 223 L 737 222 L 737 212 L 738 211 L 738 209 L 739 208 L 739 206 L 740 205 L 740 204 L 742 202 L 742 201 L 747 196 L 748 196 L 750 194 L 751 194 L 752 193 L 753 193 L 754 192 L 757 192 L 758 191 "></path>
        <path fill="none" stroke="#00fafa" stroke-width="3" d="M 697 141 L 698 140 L 705 140 L 706 141 L 721 141 L 722 142 L 723 142 L 724 143 L 725 143 L 730 148 L 730 149 L 731 150 L 731 151 L 732 152 L 732 153 L 733 154 L 733 157 L 734 158 L 734 166 L 733 167 L 733 170 L 732 171 L 732 172 L 731 173 L 731 174 L 730 175 L 730 176 L 727 179 L 727 180 L 726 181 L 725 181 L 722 184 L 721 184 L 720 185 L 719 185 L 718 186 L 717 186 L 716 187 L 713 187 L 712 188 L 704 188 L 703 187 L 701 187 L 700 186 L 699 186 L 697 184 L 696 184 L 694 182 L 694 181 L 693 180 L 693 144 L 696 141 L 697 141 L 698 140 "></path>
        <path fill="none" stroke="#00fafa" stroke-width="3" d="M 266 517 L 267 516 L 277 516 L 278 517 L 279 517 L 280 518 L 281 518 L 286 523 L 286 524 L 287 525 L 287 562 L 285 564 L 284 564 L 283 565 L 282 565 L 281 564 L 255 564 L 254 563 L 253 563 L 251 561 L 251 559 L 250 558 L 250 549 L 251 548 L 251 541 L 250 540 L 250 530 L 251 529 L 251 527 L 252 526 L 252 525 L 257 520 L 258 520 L 259 519 L 260 519 L 261 518 L 262 518 L 263 517 L 266 517 L 267 516 "></path>
        <path fill="none" stroke="#00fafa" stroke-width="3" d="M 479 86 L 480 85 L 501 85 L 502 86 L 504 86 L 507 89 L 507 90 L 508 91 L 508 124 L 507 125 L 507 126 L 502 131 L 501 131 L 500 132 L 499 132 L 498 133 L 495 133 L 494 134 L 487 134 L 486 133 L 483 133 L 482 132 L 480 132 L 479 131 L 478 131 L 477 130 L 476 130 L 473 127 L 473 126 L 472 125 L 472 123 L 471 122 L 471 114 L 472 113 L 472 91 L 473 90 L 473 89 L 475 87 L 476 87 L 477 86 L 479 86 L 480 85 "></path>
        <path fill="none" stroke="#00fafa" stroke-width="3" d="M 430 86 L 431 85 L 442 85 L 443 86 L 447 86 L 448 87 L 449 87 L 451 89 L 451 90 L 452 91 L 452 93 L 453 94 L 453 121 L 452 122 L 452 124 L 451 125 L 451 126 L 448 129 L 447 129 L 446 130 L 444 130 L 443 131 L 440 131 L 439 132 L 432 132 L 431 131 L 428 131 L 427 130 L 426 130 L 425 129 L 424 129 L 422 127 L 421 127 L 416 122 L 416 121 L 415 120 L 415 119 L 414 118 L 414 117 L 413 116 L 413 115 L 412 114 L 412 102 L 413 101 L 413 99 L 414 98 L 414 97 L 415 96 L 415 95 L 417 93 L 417 92 L 420 89 L 421 89 L 423 87 L 425 87 L 426 86 L 430 86 L 431 85 "></path>
        <path fill="none" stroke="#00fafa" stroke-width="3" d="M 324 139 L 325 138 L 329 138 L 330 139 L 334 139 L 335 140 L 336 140 L 337 141 L 338 141 L 341 144 L 341 145 L 342 146 L 342 178 L 341 179 L 341 180 L 338 183 L 337 183 L 336 184 L 335 184 L 334 185 L 331 185 L 330 186 L 324 186 L 323 185 L 320 185 L 319 184 L 317 184 L 316 183 L 315 183 L 313 181 L 312 181 L 308 177 L 308 176 L 306 174 L 306 173 L 305 172 L 305 171 L 304 170 L 304 167 L 303 166 L 303 158 L 304 157 L 304 154 L 305 153 L 305 152 L 306 151 L 306 150 L 309 147 L 309 146 L 311 144 L 312 144 L 314 142 L 315 142 L 317 140 L 319 140 L 320 139 L 324 139 L 325 138 "></path>
        <path fill="none" stroke="#00fafa" stroke-width="3" d="M 265 245 L 266 244 L 280 244 L 281 245 L 282 245 L 283 246 L 284 246 L 285 247 L 285 248 L 286 249 L 286 251 L 287 252 L 287 286 L 285 288 L 277 288 L 276 287 L 266 287 L 265 288 L 254 288 L 253 287 L 252 287 L 250 285 L 250 273 L 251 272 L 251 267 L 250 266 L 250 259 L 251 258 L 251 255 L 252 254 L 252 253 L 257 248 L 258 248 L 259 247 L 260 247 L 261 246 L 262 246 L 263 245 L 265 245 L 266 244 "></path>
        <path fill="none" stroke="#00fafa" stroke-width="3" d="M 474 694 L 475 693 L 478 693 L 479 694 L 490 694 L 491 693 L 494 693 L 495 694 L 511 694 L 515 698 L 515 699 L 516 700 L 516 713 L 515 714 L 515 716 L 514 717 L 514 718 L 513 719 L 513 720 L 512 721 L 512 722 L 506 728 L 505 728 L 504 729 L 501 729 L 500 730 L 480 730 L 479 729 L 476 729 L 472 725 L 472 721 L 471 720 L 471 716 L 472 715 L 472 706 L 471 705 L 471 696 L 473 694 L 474 694 L 475 693 "></path>
        <path fill="none" stroke="#00fafa" stroke-width="3" d="M 204 473 L 205 472 L 229 472 L 230 473 L 233 473 L 238 478 L 238 479 L 239 480 L 239 482 L 240 483 L 240 486 L 241 487 L 241 491 L 240 492 L 240 496 L 239 497 L 239 499 L 237 501 L 237 502 L 232 507 L 231 507 L 230 508 L 226 508 L 225 509 L 210 509 L 209 508 L 205 508 L 204 507 L 203 507 L 198 502 L 198 501 L 197 500 L 197 499 L 196 498 L 196 493 L 195 492 L 195 486 L 196 485 L 196 480 L 197 479 L 197 478 L 202 473 L 204 473 L 205 472 "></path>
        <path fill="none" stroke="#00fafa" stroke-width="3" d="M 806 417 L 807 416 L 808 416 L 809 417 L 836 417 L 837 418 L 838 418 L 842 422 L 842 423 L 843 424 L 843 425 L 844 426 L 844 430 L 845 431 L 845 439 L 844 440 L 844 443 L 843 444 L 843 446 L 842 447 L 842 448 L 837 453 L 813 453 L 812 454 L 806 454 L 803 451 L 803 445 L 804 444 L 804 440 L 803 439 L 803 432 L 804 431 L 804 427 L 803 426 L 803 420 L 804 419 L 804 418 L 805 417 L 806 417 L 807 416 "></path>
        <path fill="none" stroke="#00fafa" stroke-width="3" d="M 750 583 L 781 583 L 782 584 L 783 584 L 784 585 L 784 587 L 785 588 L 785 593 L 784 594 L 784 612 L 783 613 L 783 614 L 782 615 L 782 616 L 779 619 L 778 619 L 776 621 L 775 621 L 774 622 L 773 622 L 772 623 L 770 623 L 769 624 L 756 624 L 755 623 L 753 623 L 749 619 L 749 618 L 748 617 L 748 585 L 750 583 L 781 583 "></path>
        <path fill="none" stroke="#00fafa" stroke-width="3" d="M 695 638 L 726 638 L 727 639 L 729 639 L 732 642 L 732 643 L 733 644 L 733 646 L 734 647 L 734 658 L 733 659 L 733 661 L 732 662 L 732 663 L 731 664 L 731 665 L 730 666 L 730 667 L 724 673 L 722 673 L 721 674 L 705 674 L 704 675 L 698 675 L 697 674 L 696 674 L 693 671 L 693 644 L 692 643 L 692 642 L 693 641 L 693 640 L 695 638 L 726 638 "></path>
        <path fill="none" stroke="#00fafa" stroke-width="3" d="M 585 139 L 586 139 L 587 140 L 614 140 L 615 139 L 616 140 L 617 140 L 619 142 L 619 175 L 617 177 L 584 177 L 582 175 L 582 142 L 585 139 L 586 139 "></path>
        <path fill="none" stroke="#00fafa" stroke-width="3" d="M 252 306 L 285 306 L 287 308 L 287 341 L 285 343 L 252 343 L 250 341 L 250 308 L 252 306 L 285 306 "></path>
        <path fill="none" stroke="#00fafa" stroke-width="3" d="M 751 306 L 784 306 L 785 307 L 785 338 L 786 339 L 786 340 L 785 341 L 785 342 L 784 343 L 752 343 L 751 342 L 750 342 L 749 341 L 749 340 L 748 339 L 748 309 L 751 306 L 784 306 "></path>
        <path fill="none" stroke="#00fafa" stroke-width="3" d="M 751 473 L 752 472 L 783 472 L 785 474 L 785 508 L 784 509 L 750 509 L 748 507 L 748 476 L 749 475 L 749 474 L 750 473 L 751 473 L 752 472 "></path>
        <path fill="none" stroke="#00fafa" stroke-width="3" d="M 252 361 L 261 361 L 262 362 L 275 362 L 276 361 L 285 361 L 286 362 L 286 363 L 287 364 L 287 397 L 286 398 L 285 398 L 284 399 L 281 399 L 280 398 L 255 398 L 254 399 L 253 399 L 252 398 L 251 398 L 250 397 L 250 396 L 249 395 L 249 394 L 250 393 L 250 366 L 249 365 L 250 364 L 250 363 L 252 361 L 261 361 "></path>
        <path fill="none" stroke="#00fafa" stroke-width="3" d="M 641 583 L 673 583 L 674 584 L 674 585 L 675 586 L 675 588 L 674 589 L 674 613 L 675 614 L 675 618 L 673 620 L 662 620 L 661 619 L 655 619 L 654 620 L 640 620 L 638 618 L 638 617 L 637 616 L 637 588 L 638 587 L 638 586 L 641 583 L 673 583 "></path>
        <path fill="none" stroke="#00fafa" stroke-width="3" d="M 307 306 L 308 305 L 310 305 L 311 306 L 341 306 L 342 307 L 342 308 L 343 309 L 343 310 L 342 311 L 342 339 L 339 342 L 338 342 L 337 343 L 307 343 L 305 341 L 305 330 L 306 329 L 306 321 L 305 320 L 305 307 L 306 306 L 307 306 L 308 305 "></path>
        <path fill="none" stroke="#00fafa" stroke-width="3" d="M 750 527 L 757 527 L 758 528 L 776 528 L 777 527 L 782 527 L 783 528 L 784 528 L 785 529 L 785 539 L 784 540 L 784 550 L 785 551 L 785 562 L 783 564 L 781 564 L 780 565 L 778 565 L 777 564 L 756 564 L 755 565 L 751 565 L 750 564 L 749 564 L 748 563 L 748 529 L 750 527 L 757 527 "></path>
        <path fill="none" stroke="#00fafa" stroke-width="3" d="M 615 195 L 616 194 L 617 195 L 618 195 L 620 197 L 620 200 L 619 201 L 619 228 L 618 229 L 618 230 L 617 231 L 616 231 L 615 232 L 591 232 L 590 231 L 588 231 L 587 230 L 586 230 L 584 228 L 584 227 L 583 226 L 583 223 L 582 222 L 582 197 L 584 195 L 615 195 L 616 194 "></path>
        <path fill="none" stroke="#00fafa" stroke-width="3" d="M 698 528 L 699 527 L 708 527 L 709 528 L 721 528 L 722 527 L 727 527 L 728 528 L 729 528 L 730 529 L 730 535 L 729 536 L 729 555 L 730 556 L 730 563 L 728 565 L 723 565 L 722 564 L 700 564 L 699 565 L 695 565 L 693 563 L 693 562 L 692 561 L 692 560 L 693 559 L 693 531 L 696 528 L 698 528 L 699 527 "></path>
        <path fill="none" stroke="#00fafa" stroke-width="3" d="M 638 141 L 639 140 L 650 140 L 651 141 L 659 141 L 660 140 L 671 140 L 674 143 L 674 171 L 675 172 L 674 173 L 674 175 L 672 177 L 639 177 L 637 175 L 637 166 L 638 165 L 638 151 L 637 150 L 637 143 L 638 142 L 638 141 L 639 140 "></path>
        <path fill="none" stroke="#00fafa" stroke-width="3" d="M 695 582 L 698 582 L 699 583 L 725 583 L 726 582 L 727 583 L 728 583 L 730 585 L 730 591 L 729 592 L 729 610 L 730 611 L 730 617 L 727 620 L 721 620 L 720 619 L 702 619 L 701 620 L 695 620 L 693 618 L 693 589 L 692 588 L 692 585 L 695 582 L 698 582 "></path>
        <path fill="none" stroke="#00fafa" stroke-width="3" d="M 806 472 L 835 472 L 836 473 L 837 473 L 839 475 L 839 476 L 840 477 L 840 500 L 839 501 L 839 504 L 835 508 L 833 508 L 832 509 L 806 509 L 804 507 L 804 506 L 803 505 L 803 486 L 804 485 L 804 483 L 803 482 L 803 475 L 806 472 L 835 472 "></path>
        <path fill="none" stroke="#00fafa" stroke-width="3" d="M 363 638 L 394 638 L 395 639 L 396 639 L 397 640 L 397 641 L 398 642 L 398 648 L 397 649 L 397 666 L 398 667 L 398 671 L 397 672 L 397 673 L 395 675 L 385 675 L 384 674 L 374 674 L 373 675 L 366 675 L 365 674 L 364 674 L 361 671 L 361 645 L 360 644 L 360 642 L 361 641 L 361 640 L 363 638 L 394 638 "></path>
        <path fill="none" stroke="#00fafa" stroke-width="3" d="M 307 583 L 339 583 L 342 586 L 342 618 L 340 620 L 334 620 L 333 619 L 317 619 L 316 620 L 309 620 L 305 616 L 305 609 L 306 608 L 306 593 L 305 592 L 305 585 L 307 583 L 339 583 "></path>
        <path fill="none" stroke="#00fafa" stroke-width="3" d="M 806 306 L 832 306 L 833 307 L 835 307 L 839 311 L 839 314 L 840 315 L 840 338 L 839 339 L 839 340 L 837 342 L 836 342 L 835 343 L 806 343 L 803 340 L 803 335 L 804 334 L 804 326 L 803 325 L 803 320 L 804 319 L 804 317 L 803 316 L 803 310 L 804 309 L 804 308 L 806 306 L 832 306 "></path>
        <path fill="none" stroke="#00fafa" stroke-width="3" d="M 806 361 L 812 361 L 813 362 L 829 362 L 830 361 L 833 361 L 834 362 L 837 362 L 839 364 L 839 365 L 840 366 L 840 395 L 837 398 L 810 398 L 809 399 L 807 399 L 806 398 L 805 398 L 803 396 L 803 389 L 804 388 L 804 370 L 803 369 L 803 364 L 806 361 L 812 361 "></path>
        <path fill="none" stroke="#00fafa" stroke-width="3" d="M 533 86 L 534 85 L 556 85 L 557 86 L 559 86 L 563 90 L 563 112 L 564 113 L 564 119 L 562 121 L 561 121 L 560 122 L 556 122 L 555 121 L 548 121 L 547 122 L 530 122 L 529 121 L 528 121 L 527 120 L 527 119 L 526 118 L 526 115 L 527 114 L 527 90 L 531 86 L 533 86 L 534 85 "></path>
        <path fill="none" stroke="#00fafa" stroke-width="3" d="M 311 639 L 312 638 L 340 638 L 342 640 L 342 669 L 341 670 L 341 671 L 339 673 L 338 673 L 337 674 L 333 674 L 332 675 L 328 675 L 327 674 L 317 674 L 316 673 L 314 673 L 312 671 L 311 671 L 308 668 L 308 667 L 306 665 L 306 664 L 305 663 L 305 662 L 304 661 L 304 659 L 303 658 L 303 648 L 304 647 L 304 644 L 309 639 L 311 639 L 312 638 "></path>
        <path fill="none" stroke="#00fafa" stroke-width="3" d="M 590 86 L 591 85 L 607 85 L 608 86 L 612 86 L 613 87 L 614 87 L 617 90 L 617 91 L 618 92 L 618 94 L 619 95 L 619 119 L 617 121 L 615 121 L 614 122 L 611 122 L 610 121 L 590 121 L 589 122 L 586 122 L 585 121 L 584 121 L 582 119 L 582 92 L 583 91 L 583 90 L 587 86 L 590 86 L 591 85 "></path>
        <path fill="none" stroke="#00fafa" stroke-width="3" d="M 256 583 L 285 583 L 287 585 L 287 613 L 286 614 L 286 616 L 281 621 L 278 621 L 277 622 L 268 622 L 267 621 L 265 621 L 264 620 L 262 620 L 261 619 L 260 619 L 253 612 L 253 611 L 252 610 L 252 609 L 251 608 L 251 589 L 252 588 L 252 587 L 256 583 L 285 583 "></path>
        <path fill="none" stroke="#00fafa" stroke-width="3" d="M 806 528 L 807 527 L 813 527 L 814 528 L 823 528 L 824 527 L 828 527 L 829 528 L 833 528 L 834 529 L 835 529 L 838 532 L 838 533 L 839 534 L 839 535 L 840 536 L 840 538 L 841 539 L 841 548 L 840 549 L 840 552 L 839 553 L 839 554 L 838 555 L 838 556 L 832 562 L 831 562 L 830 563 L 828 563 L 827 564 L 808 564 L 807 563 L 806 563 L 804 561 L 804 559 L 803 558 L 803 531 L 804 530 L 804 529 L 805 528 L 806 528 L 807 527 "></path>
        <path fill="none" stroke="#00fafa" stroke-width="3" d="M 445 694 L 446 693 L 449 693 L 450 694 L 451 694 L 453 696 L 453 722 L 452 723 L 452 724 L 451 725 L 451 726 L 449 728 L 448 728 L 447 729 L 444 729 L 443 730 L 429 730 L 428 729 L 425 729 L 424 728 L 422 728 L 418 724 L 418 723 L 417 722 L 417 720 L 416 719 L 416 697 L 419 694 L 445 694 L 446 693 "></path>
        <path fill="none" stroke="#00fafa" stroke-width="3" d="M 807 252 L 808 251 L 827 251 L 828 252 L 830 252 L 831 253 L 832 253 L 838 259 L 838 260 L 839 261 L 839 262 L 840 263 L 840 266 L 841 267 L 841 276 L 840 277 L 840 279 L 839 280 L 839 281 L 838 282 L 838 283 L 835 286 L 834 286 L 833 287 L 828 287 L 827 288 L 826 288 L 825 287 L 813 287 L 812 288 L 807 288 L 806 287 L 805 287 L 804 286 L 804 285 L 803 284 L 803 277 L 804 276 L 804 273 L 803 272 L 803 258 L 804 257 L 804 254 L 806 252 L 807 252 L 808 251 "></path>
        <path fill="none" stroke="#00fafa" stroke-width="3" d="M 225 417 L 226 416 L 227 416 L 228 417 L 229 417 L 231 419 L 231 445 L 232 446 L 232 449 L 231 450 L 231 452 L 230 453 L 229 453 L 228 454 L 221 454 L 220 453 L 203 453 L 202 452 L 201 452 L 197 448 L 197 447 L 196 446 L 196 442 L 195 441 L 195 428 L 196 427 L 196 423 L 197 422 L 197 421 L 200 418 L 201 418 L 202 417 L 225 417 L 226 416 "></path>
        <path fill="none" stroke="#00fafa" stroke-width="3" d="M 221 362 L 222 361 L 228 361 L 229 362 L 230 362 L 231 363 L 231 365 L 232 366 L 232 369 L 231 370 L 231 390 L 232 391 L 232 394 L 231 395 L 231 396 L 229 398 L 203 398 L 202 397 L 201 397 L 200 396 L 199 396 L 198 395 L 198 394 L 196 392 L 196 388 L 195 387 L 195 374 L 196 373 L 196 369 L 197 368 L 197 367 L 202 362 L 221 362 L 222 361 "></path>
        <path fill="none" stroke="#00fafa" stroke-width="3" d="M 209 307 L 210 306 L 227 306 L 228 307 L 229 307 L 231 309 L 231 312 L 232 313 L 232 324 L 231 325 L 231 334 L 232 335 L 232 338 L 231 339 L 231 341 L 230 342 L 229 342 L 228 343 L 206 343 L 205 342 L 202 342 L 197 337 L 197 335 L 196 334 L 196 328 L 195 327 L 195 325 L 196 324 L 196 317 L 197 316 L 197 315 L 198 314 L 198 313 L 203 308 L 204 308 L 205 307 L 209 307 L 210 306 "></path>
        <path fill="none" stroke="#00fafa" stroke-width="3" d="M 641 693 L 667 693 L 668 694 L 670 694 L 674 698 L 674 715 L 673 716 L 673 719 L 672 720 L 672 721 L 666 727 L 665 727 L 664 728 L 663 728 L 662 729 L 660 729 L 659 730 L 649 730 L 648 729 L 646 729 L 645 728 L 644 728 L 643 727 L 642 727 L 639 724 L 639 723 L 638 722 L 638 718 L 637 717 L 637 712 L 638 711 L 638 707 L 637 706 L 637 697 L 641 693 L 667 693 "></path>
        <path fill="none" stroke="#00fafa" stroke-width="3" d="M 646 87 L 647 86 L 661 86 L 662 87 L 664 87 L 665 88 L 666 88 L 672 94 L 672 95 L 673 96 L 673 99 L 674 100 L 674 116 L 673 117 L 673 118 L 670 121 L 668 121 L 667 122 L 642 122 L 641 121 L 640 121 L 637 118 L 637 111 L 638 110 L 638 102 L 637 101 L 637 99 L 638 98 L 638 93 L 639 92 L 639 91 L 642 88 L 643 88 L 644 87 L 646 87 L 647 86 "></path>
        <path fill="none" stroke="#00fafa" stroke-width="3" d="M 368 694 L 369 693 L 392 693 L 393 694 L 395 694 L 397 696 L 397 698 L 398 699 L 398 702 L 397 703 L 397 720 L 396 721 L 396 722 L 391 727 L 389 727 L 388 728 L 385 728 L 384 729 L 378 729 L 377 728 L 374 728 L 373 727 L 372 727 L 371 726 L 370 726 L 369 725 L 368 725 L 365 722 L 365 721 L 363 719 L 363 718 L 362 717 L 362 714 L 361 713 L 361 701 L 362 700 L 362 698 L 366 694 L 368 694 L 369 693 "></path>
        <path fill="none" stroke="#00fafa" stroke-width="3" d="M 211 528 L 212 527 L 226 527 L 227 528 L 228 528 L 231 531 L 231 533 L 232 534 L 232 554 L 231 555 L 231 558 L 227 562 L 226 562 L 225 563 L 220 563 L 219 564 L 216 564 L 215 563 L 210 563 L 209 562 L 208 562 L 207 561 L 206 561 L 204 559 L 203 559 L 202 558 L 202 557 L 199 554 L 199 553 L 198 552 L 198 550 L 197 549 L 197 539 L 198 538 L 198 536 L 199 535 L 199 534 L 204 529 L 205 529 L 206 528 L 211 528 L 212 527 "></path>
        <path fill="none" stroke="#00fafa" stroke-width="3" d="M 215 252 L 216 251 L 220 251 L 221 252 L 225 252 L 226 253 L 227 253 L 231 257 L 231 260 L 232 261 L 232 280 L 231 281 L 231 284 L 228 287 L 225 287 L 224 288 L 219 288 L 218 287 L 206 287 L 205 286 L 204 286 L 199 281 L 199 280 L 198 279 L 198 276 L 197 275 L 197 267 L 198 266 L 198 263 L 199 262 L 199 261 L 202 258 L 202 257 L 203 256 L 204 256 L 206 254 L 207 254 L 208 253 L 209 253 L 210 252 L 215 252 L 216 251 "></path>
        <path fill="none" stroke="#00fafa" stroke-width="3" d="M 865 363 L 866 362 L 879 362 L 880 363 L 882 363 L 884 365 L 885 365 L 889 369 L 889 370 L 890 371 L 890 372 L 891 373 L 891 375 L 892 376 L 892 385 L 891 386 L 891 387 L 890 388 L 890 389 L 889 390 L 889 391 L 883 397 L 882 397 L 881 398 L 880 398 L 879 399 L 876 399 L 875 400 L 869 400 L 868 399 L 866 399 L 865 398 L 864 398 L 860 394 L 860 393 L 859 392 L 859 368 L 860 367 L 860 366 L 863 363 L 865 363 L 866 362 "></path>
        <path fill="none" stroke="#00fafa" stroke-width="3" d="M 539 746 L 540 745 L 550 745 L 551 746 L 552 746 L 553 747 L 554 747 L 555 748 L 556 748 L 559 751 L 559 752 L 561 754 L 561 755 L 562 756 L 562 758 L 563 759 L 563 767 L 562 768 L 562 770 L 561 771 L 561 772 L 554 779 L 553 779 L 552 780 L 550 780 L 549 781 L 541 781 L 540 780 L 538 780 L 537 779 L 536 779 L 529 772 L 529 770 L 528 769 L 528 766 L 527 765 L 527 761 L 528 760 L 528 756 L 529 755 L 529 754 L 530 753 L 530 752 L 534 748 L 535 748 L 537 746 L 539 746 L 540 745 "></path>
        <path fill="none" stroke="#00fafa" stroke-width="3" d="M 808 583 L 828 583 L 829 584 L 830 584 L 835 589 L 835 590 L 836 591 L 836 592 L 837 593 L 837 604 L 836 605 L 836 606 L 835 607 L 835 608 L 834 609 L 834 610 L 829 615 L 828 615 L 827 616 L 826 616 L 825 617 L 822 617 L 821 618 L 815 618 L 814 617 L 811 617 L 810 616 L 809 616 L 804 611 L 804 608 L 803 607 L 803 590 L 804 589 L 804 587 L 808 583 L 828 583 "></path>
        <path fill="none" stroke="#00fafa" stroke-width="3" d="M 813 198 L 814 197 L 822 197 L 823 198 L 825 198 L 826 199 L 827 199 L 828 200 L 829 200 L 834 205 L 834 206 L 835 207 L 835 208 L 836 209 L 836 210 L 837 211 L 837 221 L 836 222 L 836 224 L 835 225 L 835 226 L 830 231 L 828 231 L 827 232 L 809 232 L 808 231 L 807 231 L 804 228 L 804 225 L 803 224 L 803 208 L 804 207 L 804 204 L 809 199 L 810 199 L 811 198 L 813 198 L 814 197 "></path>
        <path fill="none" stroke="#00fafa" stroke-width="3" d="M 700 694 L 701 693 L 717 693 L 718 694 L 720 694 L 721 695 L 722 695 L 726 699 L 726 701 L 727 702 L 727 705 L 728 706 L 728 710 L 727 711 L 727 714 L 726 715 L 726 716 L 725 717 L 725 718 L 723 720 L 723 721 L 722 722 L 721 722 L 718 725 L 717 725 L 716 726 L 714 726 L 713 727 L 705 727 L 704 726 L 702 726 L 701 725 L 700 725 L 698 723 L 697 723 L 696 722 L 696 721 L 694 719 L 694 717 L 693 716 L 693 699 L 694 698 L 694 697 L 696 695 L 697 695 L 698 694 L 700 694 L 701 693 "></path>
        <path fill="none" stroke="#00fafa" stroke-width="3" d="M 705 89 L 706 88 L 712 88 L 713 89 L 715 89 L 716 90 L 717 90 L 718 91 L 719 91 L 725 97 L 725 98 L 726 99 L 726 100 L 727 101 L 727 106 L 728 107 L 727 108 L 727 113 L 726 114 L 726 115 L 725 116 L 725 117 L 722 120 L 721 120 L 720 121 L 717 121 L 716 122 L 702 122 L 701 121 L 698 121 L 697 120 L 696 120 L 694 118 L 694 117 L 693 116 L 693 99 L 694 98 L 694 96 L 696 94 L 696 93 L 697 92 L 698 92 L 700 90 L 701 90 L 702 89 L 705 89 L 706 88 "></path>
        <path fill="none" stroke="#00fafa" stroke-width="3" d="M 868 472 L 869 471 L 876 471 L 877 472 L 879 472 L 880 473 L 881 473 L 882 474 L 883 474 L 888 479 L 888 480 L 889 481 L 889 482 L 890 483 L 890 484 L 891 485 L 891 494 L 890 495 L 890 497 L 888 499 L 888 500 L 883 505 L 882 505 L 881 506 L 880 506 L 879 507 L 877 507 L 876 508 L 869 508 L 868 507 L 866 507 L 865 506 L 864 506 L 860 502 L 860 501 L 859 500 L 859 493 L 858 492 L 858 490 L 859 489 L 859 479 L 860 478 L 860 477 L 864 473 L 865 473 L 866 472 L 868 472 L 869 471 "></path>
        <path fill="none" stroke="#00fafa" stroke-width="3" d="M 868 308 L 869 307 L 876 307 L 877 308 L 879 308 L 880 309 L 881 309 L 882 310 L 883 310 L 889 316 L 889 317 L 890 318 L 890 320 L 891 321 L 891 330 L 890 331 L 890 333 L 889 334 L 889 335 L 884 340 L 883 340 L 882 341 L 881 341 L 880 342 L 875 342 L 874 343 L 872 343 L 871 342 L 865 342 L 864 341 L 863 341 L 860 338 L 860 337 L 859 336 L 859 315 L 860 314 L 860 313 L 864 309 L 865 309 L 866 308 L 868 308 L 869 307 "></path>
        <path fill="none" stroke="#00fafa" stroke-width="3" d="M 541 35 L 542 34 L 548 34 L 549 35 L 551 35 L 552 36 L 553 36 L 554 37 L 555 37 L 560 42 L 560 43 L 561 44 L 561 46 L 562 47 L 562 58 L 561 59 L 561 61 L 557 65 L 556 65 L 555 66 L 535 66 L 534 65 L 533 65 L 529 61 L 529 60 L 528 59 L 528 56 L 527 55 L 527 50 L 528 49 L 528 46 L 529 45 L 529 43 L 536 36 L 537 36 L 538 35 L 541 35 L 542 34 "></path>
        <path fill="none" stroke="#00fafa" stroke-width="3" d="M 479 750 L 480 749 L 500 749 L 501 750 L 502 750 L 506 754 L 506 755 L 507 756 L 507 761 L 508 762 L 508 763 L 507 764 L 507 769 L 506 770 L 506 771 L 505 772 L 505 773 L 500 778 L 499 778 L 498 779 L 497 779 L 496 780 L 494 780 L 493 781 L 488 781 L 487 780 L 484 780 L 483 779 L 482 779 L 480 777 L 479 777 L 476 774 L 476 773 L 474 771 L 474 769 L 473 768 L 473 757 L 474 756 L 474 755 L 475 754 L 475 753 L 478 750 L 479 750 L 480 749 "></path>
        <path fill="none" stroke="#00fafa" stroke-width="3" d="M 487 35 L 488 34 L 492 34 L 493 35 L 496 35 L 497 36 L 498 36 L 499 37 L 500 37 L 505 42 L 505 43 L 506 44 L 506 45 L 507 46 L 507 58 L 506 59 L 506 61 L 502 65 L 501 65 L 500 66 L 481 66 L 480 65 L 478 65 L 475 62 L 475 61 L 474 60 L 474 59 L 473 58 L 473 47 L 474 46 L 474 44 L 476 42 L 476 41 L 479 38 L 480 38 L 482 36 L 483 36 L 484 35 L 487 35 L 488 34 "></path>
        <path fill="none" stroke="#00fafa" stroke-width="3" d="M 322 694 L 323 693 L 329 693 L 330 694 L 335 694 L 337 696 L 338 696 L 340 698 L 340 699 L 341 700 L 341 702 L 342 703 L 342 713 L 341 714 L 341 717 L 339 719 L 339 720 L 337 722 L 336 722 L 334 724 L 333 724 L 332 725 L 329 725 L 328 726 L 324 726 L 323 725 L 320 725 L 319 724 L 318 724 L 311 717 L 311 716 L 310 715 L 310 714 L 309 713 L 309 704 L 310 703 L 310 701 L 312 699 L 312 698 L 314 696 L 315 696 L 316 695 L 317 695 L 318 694 L 322 694 L 323 693 "></path>
        <path fill="none" stroke="#00fafa" stroke-width="3" d="M 215 200 L 216 199 L 218 199 L 219 200 L 222 200 L 223 201 L 224 201 L 225 202 L 226 202 L 231 207 L 231 208 L 232 209 L 232 210 L 233 211 L 233 214 L 234 215 L 234 217 L 233 218 L 233 222 L 232 223 L 232 224 L 226 230 L 225 230 L 224 231 L 222 231 L 221 232 L 212 232 L 211 231 L 209 231 L 208 230 L 207 230 L 203 226 L 203 225 L 201 223 L 201 221 L 200 220 L 200 213 L 201 212 L 201 210 L 202 209 L 202 208 L 204 206 L 204 205 L 206 203 L 207 203 L 209 201 L 210 201 L 211 200 L 215 200 L 216 199 "></path>
        <path fill="none" stroke="#00fafa" stroke-width="3" d="M 595 36 L 596 35 L 603 35 L 604 36 L 606 36 L 607 37 L 608 37 L 615 44 L 615 46 L 616 47 L 616 50 L 617 51 L 617 53 L 616 54 L 616 58 L 615 59 L 615 60 L 610 65 L 609 65 L 608 66 L 591 66 L 590 65 L 589 65 L 585 61 L 585 60 L 584 59 L 584 58 L 583 57 L 583 47 L 584 46 L 584 45 L 585 44 L 585 43 L 591 37 L 592 37 L 593 36 L 595 36 L 596 35 "></path>
        <path fill="none" stroke="#00fafa" stroke-width="3" d="M 211 584 L 212 583 L 221 583 L 222 584 L 224 584 L 225 585 L 226 585 L 230 589 L 230 590 L 231 591 L 231 595 L 232 596 L 232 602 L 231 603 L 231 607 L 230 608 L 230 609 L 226 613 L 225 613 L 224 614 L 223 614 L 222 615 L 220 615 L 219 616 L 215 616 L 214 615 L 211 615 L 210 614 L 209 614 L 207 612 L 206 612 L 203 609 L 203 608 L 202 607 L 202 606 L 201 605 L 201 604 L 200 603 L 200 595 L 201 594 L 201 592 L 203 590 L 203 589 L 207 585 L 208 585 L 209 584 L 211 584 L 212 583 "></path>
        <path fill="none" stroke="#00fafa" stroke-width="3" d="M 427 750 L 428 749 L 443 749 L 444 750 L 445 750 L 446 751 L 447 751 L 449 753 L 449 754 L 451 756 L 451 758 L 452 759 L 452 766 L 451 767 L 451 769 L 450 770 L 450 771 L 449 772 L 449 773 L 445 777 L 444 777 L 443 778 L 442 778 L 441 779 L 438 779 L 437 780 L 434 780 L 433 779 L 430 779 L 429 778 L 428 778 L 426 776 L 425 776 L 423 774 L 423 773 L 421 771 L 421 770 L 420 769 L 420 767 L 419 766 L 419 760 L 420 759 L 420 757 L 421 756 L 421 755 L 426 750 L 427 750 L 428 749 "></path>
        <path fill="none" stroke="#00fafa" stroke-width="3" d="M 156 365 L 157 364 L 167 364 L 168 365 L 169 365 L 170 366 L 171 366 L 174 369 L 174 370 L 175 371 L 175 372 L 176 373 L 176 388 L 175 389 L 175 390 L 170 395 L 169 395 L 168 396 L 164 396 L 163 397 L 161 397 L 160 396 L 157 396 L 156 395 L 154 395 L 148 389 L 148 388 L 147 387 L 147 386 L 146 385 L 146 381 L 145 380 L 146 379 L 146 375 L 147 374 L 147 373 L 148 372 L 148 371 L 153 366 L 154 366 L 155 365 L 156 365 L 157 364 "></path>
        <path fill="none" stroke="#00fafa" stroke-width="3" d="M 160 419 L 161 418 L 163 418 L 164 419 L 168 419 L 169 420 L 170 420 L 175 425 L 175 427 L 176 428 L 176 442 L 175 443 L 175 444 L 174 445 L 174 446 L 171 449 L 170 449 L 169 450 L 168 450 L 167 451 L 157 451 L 156 450 L 155 450 L 154 449 L 153 449 L 148 444 L 148 443 L 147 442 L 147 441 L 146 440 L 146 430 L 147 429 L 147 428 L 148 427 L 148 426 L 154 420 L 156 420 L 157 419 L 160 419 L 161 418 "></path>
        <path fill="none" stroke="#00fafa" stroke-width="3" d="M 434 36 L 435 35 L 437 35 L 438 36 L 441 36 L 442 37 L 443 37 L 445 39 L 446 39 L 448 41 L 448 42 L 450 44 L 450 45 L 451 46 L 451 49 L 452 50 L 452 54 L 451 55 L 451 58 L 450 59 L 450 60 L 445 65 L 443 65 L 442 66 L 429 66 L 428 65 L 426 65 L 421 60 L 421 59 L 420 58 L 420 56 L 419 55 L 419 49 L 420 48 L 420 46 L 421 45 L 421 44 L 423 42 L 423 41 L 425 39 L 426 39 L 428 37 L 429 37 L 430 36 L 434 36 L 435 35 "></path>
        <path fill="none" stroke="#00fafa" stroke-width="3" d="M 158 475 L 159 474 L 165 474 L 166 475 L 168 475 L 169 476 L 170 476 L 174 480 L 174 481 L 175 482 L 175 484 L 176 485 L 176 494 L 175 495 L 175 497 L 174 498 L 174 499 L 170 503 L 169 503 L 168 504 L 166 504 L 165 505 L 159 505 L 158 504 L 156 504 L 155 503 L 154 503 L 148 497 L 148 496 L 147 495 L 147 492 L 146 491 L 146 488 L 147 487 L 147 484 L 148 483 L 148 482 L 154 476 L 155 476 L 156 475 L 158 475 L 159 474 "></path>
        <path fill="none" stroke="#00fafa" stroke-width="3" d="M 157 311 L 158 310 L 165 310 L 166 311 L 168 311 L 169 312 L 170 312 L 174 316 L 174 317 L 175 318 L 175 319 L 176 320 L 176 330 L 175 331 L 175 333 L 174 334 L 174 335 L 171 338 L 170 338 L 169 339 L 168 339 L 167 340 L 165 340 L 164 341 L 160 341 L 159 340 L 157 340 L 156 339 L 155 339 L 154 338 L 153 338 L 149 334 L 149 333 L 148 332 L 148 331 L 147 330 L 147 327 L 146 326 L 146 325 L 147 324 L 147 320 L 148 319 L 148 318 L 154 312 L 155 312 L 156 311 L 157 311 L 158 310 "></path>
        <path fill="none" stroke="#00fafa" stroke-width="3" d="M 650 38 L 651 37 L 658 37 L 659 38 L 661 38 L 663 40 L 664 40 L 666 42 L 666 43 L 668 45 L 668 46 L 669 47 L 669 57 L 668 58 L 668 59 L 663 64 L 662 64 L 661 65 L 660 65 L 659 66 L 650 66 L 649 65 L 647 65 L 641 59 L 641 58 L 640 57 L 640 54 L 639 53 L 639 51 L 640 50 L 640 47 L 641 46 L 641 45 L 642 44 L 642 43 L 645 40 L 646 40 L 648 38 L 650 38 L 651 37 "></path>
        <path fill="none" stroke="#00fafa" stroke-width="3" d="M 816 640 L 817 639 L 820 639 L 821 640 L 824 640 L 825 641 L 826 641 L 832 647 L 832 648 L 833 649 L 833 658 L 832 659 L 832 660 L 831 661 L 831 662 L 827 666 L 826 666 L 825 667 L 824 667 L 823 668 L 814 668 L 813 667 L 812 667 L 810 665 L 809 665 L 807 663 L 807 662 L 805 660 L 805 658 L 804 657 L 804 650 L 805 649 L 805 648 L 806 647 L 806 646 L 811 641 L 812 641 L 813 640 L 816 640 L 817 639 "></path>
        <path fill="none" stroke="#00fafa" stroke-width="3" d="M 760 695 L 761 694 L 767 694 L 768 695 L 770 695 L 772 697 L 773 697 L 775 699 L 775 700 L 777 702 L 777 703 L 778 704 L 778 713 L 777 714 L 777 715 L 775 717 L 775 718 L 773 720 L 772 720 L 770 722 L 768 722 L 767 723 L 761 723 L 760 722 L 758 722 L 757 721 L 756 721 L 752 717 L 752 716 L 751 715 L 751 714 L 750 713 L 750 710 L 749 709 L 749 708 L 750 707 L 750 703 L 751 702 L 751 701 L 756 696 L 757 696 L 758 695 L 760 695 L 761 694 "></path>
        <path fill="none" stroke="#00fafa" stroke-width="3" d="M 760 93 L 761 92 L 767 92 L 768 93 L 769 93 L 770 94 L 771 94 L 773 96 L 774 96 L 775 97 L 775 98 L 777 100 L 777 101 L 778 102 L 778 111 L 777 112 L 777 113 L 775 115 L 775 116 L 773 118 L 772 118 L 770 120 L 768 120 L 767 121 L 761 121 L 760 120 L 758 120 L 757 119 L 756 119 L 752 115 L 752 114 L 751 113 L 751 112 L 750 111 L 750 102 L 751 101 L 751 100 L 752 99 L 752 98 L 755 95 L 756 95 L 758 93 L 760 93 L 761 92 "></path>
        <path fill="none" stroke="#00fafa" stroke-width="3" d="M 375 751 L 376 750 L 386 750 L 387 751 L 388 751 L 393 756 L 393 757 L 394 758 L 394 760 L 395 761 L 395 766 L 394 767 L 394 769 L 392 771 L 392 772 L 389 775 L 388 775 L 387 776 L 386 776 L 385 777 L 376 777 L 375 776 L 374 776 L 368 770 L 368 769 L 367 768 L 367 759 L 368 758 L 368 757 L 369 756 L 369 755 L 372 752 L 373 752 L 374 751 L 375 751 L 376 750 "></path>
        <path fill="none" stroke="#00fafa" stroke-width="3" d="M 376 39 L 377 38 L 384 38 L 385 39 L 387 39 L 393 45 L 393 46 L 394 47 L 394 49 L 395 50 L 395 54 L 394 55 L 394 57 L 393 58 L 393 59 L 388 64 L 387 64 L 386 65 L 384 65 L 383 66 L 378 66 L 377 65 L 375 65 L 373 63 L 372 63 L 369 60 L 369 59 L 368 58 L 368 57 L 367 56 L 367 48 L 368 47 L 368 46 L 369 45 L 369 44 L 373 40 L 374 40 L 375 39 L 376 39 L 377 38 "></path>
        <path fill="none" stroke="#00fafa" stroke-width="3" d="M 158 532 L 159 531 L 164 531 L 165 532 L 167 532 L 168 533 L 169 533 L 173 537 L 173 538 L 174 539 L 174 541 L 175 542 L 175 547 L 174 548 L 174 550 L 172 552 L 172 553 L 170 555 L 169 555 L 167 557 L 165 557 L 164 558 L 160 558 L 159 557 L 157 557 L 156 556 L 155 556 L 150 551 L 150 550 L 149 549 L 149 547 L 148 546 L 148 543 L 149 542 L 149 540 L 150 539 L 150 538 L 155 533 L 156 533 L 157 532 L 158 532 L 159 531 "></path>
        <path fill="none" stroke="#00fafa" stroke-width="3" d="M 160 258 L 161 257 L 163 257 L 164 258 L 166 258 L 167 259 L 168 259 L 169 260 L 170 260 L 172 262 L 172 263 L 174 265 L 174 267 L 175 268 L 175 273 L 174 274 L 174 276 L 173 277 L 173 278 L 169 282 L 168 282 L 167 283 L 165 283 L 164 284 L 159 284 L 158 283 L 157 283 L 156 282 L 155 282 L 150 277 L 150 276 L 149 275 L 149 266 L 150 265 L 150 264 L 155 259 L 156 259 L 157 258 L 160 258 L 161 257 "></path>
        <path fill="none" stroke="#00fafa" stroke-width="3" d="M 868 588 L 869 587 L 878 587 L 879 588 L 880 588 L 884 592 L 884 593 L 885 594 L 885 595 L 886 596 L 886 603 L 885 604 L 885 605 L 879 611 L 877 611 L 876 612 L 870 612 L 869 611 L 868 611 L 867 610 L 866 610 L 863 607 L 863 606 L 862 605 L 862 604 L 861 603 L 861 595 L 862 594 L 862 593 L 867 588 L 868 588 L 869 587 "></path>
        <path fill="none" stroke="#00fafa" stroke-width="3" d="M 870 204 L 871 203 L 875 203 L 876 204 L 878 204 L 879 205 L 880 205 L 885 210 L 885 212 L 886 213 L 886 219 L 885 220 L 885 221 L 884 222 L 884 223 L 880 227 L 879 227 L 878 228 L 876 228 L 875 229 L 872 229 L 871 228 L 869 228 L 868 227 L 867 227 L 862 222 L 862 221 L 861 220 L 861 212 L 862 211 L 862 210 L 867 205 L 868 205 L 869 204 L 870 204 L 871 203 "></path>
        <path fill="none" stroke="#00fafa" stroke-width="3" d="M 212 150 L 213 149 L 220 149 L 221 150 L 222 150 L 224 152 L 225 152 L 226 153 L 226 154 L 228 156 L 228 158 L 229 159 L 229 163 L 228 164 L 228 166 L 227 167 L 227 168 L 224 171 L 223 171 L 222 172 L 221 172 L 220 173 L 212 173 L 211 172 L 210 172 L 206 168 L 206 167 L 205 166 L 205 165 L 204 164 L 204 158 L 205 157 L 205 156 L 206 155 L 206 154 L 209 151 L 210 151 L 211 150 L 212 150 L 213 149 "></path>
        <path fill="none" stroke="#00fafa" stroke-width="3" d="M 707 752 L 708 751 L 711 751 L 712 752 L 714 752 L 715 753 L 716 753 L 720 757 L 720 758 L 721 759 L 721 768 L 719 770 L 719 771 L 716 774 L 715 774 L 714 775 L 712 775 L 711 776 L 708 776 L 707 775 L 705 775 L 704 774 L 703 774 L 699 770 L 699 769 L 698 768 L 698 767 L 697 766 L 697 761 L 698 760 L 698 758 L 703 753 L 704 753 L 705 752 L 707 752 L 708 751 "></path>
        <path fill="none" stroke="#00fafa" stroke-width="3" d="M 704 41 L 705 40 L 713 40 L 714 41 L 715 41 L 720 46 L 720 47 L 721 48 L 721 55 L 720 56 L 720 57 L 719 58 L 719 59 L 716 62 L 715 62 L 714 63 L 712 63 L 711 64 L 707 64 L 706 63 L 704 63 L 702 61 L 701 61 L 700 60 L 700 59 L 698 57 L 698 56 L 697 55 L 697 49 L 698 48 L 698 46 L 703 41 L 704 41 L 705 40 "></path>
        <path fill="none" stroke="#00fafa" stroke-width="3" d="M 925 424 L 926 423 L 931 423 L 932 424 L 933 424 L 934 425 L 935 425 L 939 429 L 939 431 L 940 432 L 940 438 L 939 439 L 939 440 L 938 441 L 938 442 L 935 445 L 934 445 L 933 446 L 931 446 L 930 447 L 926 447 L 925 446 L 923 446 L 918 441 L 918 440 L 917 439 L 917 437 L 916 436 L 916 434 L 917 433 L 917 430 L 923 424 L 925 424 L 926 423 "></path>
        <path fill="none" stroke="#00fafa" stroke-width="3" d="M 925 369 L 926 368 L 930 368 L 931 369 L 933 369 L 934 370 L 935 370 L 938 373 L 938 374 L 939 375 L 939 376 L 940 377 L 940 383 L 939 384 L 939 385 L 938 386 L 938 387 L 935 390 L 934 390 L 933 391 L 932 391 L 931 392 L 926 392 L 925 391 L 923 391 L 917 385 L 917 383 L 916 382 L 916 379 L 917 378 L 917 376 L 918 375 L 918 374 L 923 369 L 925 369 L 926 368 "></path>
        <path fill="none" stroke="#00fafa" stroke-width="3" d="M 321 754 L 322 753 L 330 753 L 332 755 L 333 755 L 334 756 L 334 757 L 336 759 L 336 761 L 337 762 L 337 765 L 336 766 L 336 768 L 334 770 L 334 771 L 333 772 L 332 772 L 330 774 L 322 774 L 321 773 L 320 773 L 317 770 L 317 769 L 316 768 L 316 767 L 315 766 L 315 761 L 316 760 L 316 759 L 317 758 L 317 757 L 320 754 L 321 754 L 322 753 "></path>
        <path fill="none" stroke="#00fafa" stroke-width="3" d="M 321 42 L 322 41 L 329 41 L 330 42 L 331 42 L 336 47 L 336 50 L 337 51 L 337 52 L 336 53 L 336 55 L 335 56 L 335 57 L 331 61 L 330 61 L 329 62 L 323 62 L 322 61 L 321 61 L 320 60 L 319 60 L 317 58 L 317 57 L 316 56 L 316 55 L 315 54 L 315 49 L 316 48 L 316 47 L 317 46 L 317 45 L 320 42 L 321 42 L 322 41 "></path>
        <path fill="none" stroke="#00fafa" stroke-width="3" d="M 159 206 L 160 205 L 163 205 L 164 206 L 165 206 L 166 207 L 167 207 L 170 210 L 170 211 L 171 212 L 171 213 L 172 214 L 172 217 L 171 218 L 171 220 L 166 225 L 165 225 L 164 226 L 159 226 L 158 225 L 157 225 L 152 220 L 152 219 L 151 218 L 151 214 L 152 213 L 152 211 L 157 206 L 159 206 L 160 205 "></path>
        <path fill="none" stroke="#00fafa" stroke-width="3" d="M 816 700 L 817 699 L 821 699 L 822 700 L 823 700 L 828 705 L 828 707 L 829 708 L 829 709 L 828 710 L 828 713 L 823 718 L 820 718 L 819 719 L 818 718 L 815 718 L 810 713 L 810 712 L 809 711 L 809 707 L 810 706 L 810 705 L 811 704 L 811 703 L 813 701 L 814 701 L 815 700 L 816 700 L 817 699 "></path>
        <path fill="none" stroke="#00fafa" stroke-width="3" d="M 817 97 L 818 96 L 820 96 L 821 97 L 823 97 L 828 102 L 828 110 L 823 115 L 821 115 L 820 116 L 818 116 L 817 115 L 815 115 L 810 110 L 810 108 L 809 107 L 809 105 L 810 104 L 810 102 L 815 97 L 817 97 L 818 96 "></path>
        <path fill="none" stroke="#00fafa" stroke-width="3" d="M 103 372 L 104 371 L 109 371 L 110 372 L 111 372 L 115 376 L 115 378 L 116 379 L 116 382 L 115 383 L 115 384 L 110 389 L 103 389 L 98 384 L 98 382 L 97 381 L 97 379 L 98 378 L 98 376 L 102 372 L 103 372 L 104 371 "></path>
        <path fill="none" stroke="#00fafa" stroke-width="3" d="M 103 426 L 110 426 L 115 431 L 115 433 L 116 434 L 116 436 L 115 437 L 115 439 L 111 443 L 110 443 L 109 444 L 104 444 L 103 443 L 102 443 L 98 439 L 98 437 L 97 436 L 97 433 L 98 432 L 98 431 L 103 426 L 110 426 "></path>
        <path fill="none" stroke="#00fafa" stroke-width="3" d="M 871 153 L 872 152 L 876 152 L 877 153 L 878 153 L 882 157 L 882 158 L 883 159 L 883 162 L 882 163 L 882 165 L 878 169 L 877 169 L 876 170 L 872 170 L 871 169 L 870 169 L 866 165 L 866 164 L 865 163 L 865 159 L 866 158 L 866 157 L 867 156 L 867 155 L 868 154 L 869 154 L 870 153 L 871 153 L 872 152 "></path>
        <path fill="none" stroke="#00fafa" stroke-width="3" d="M 103 318 L 104 317 L 109 317 L 110 318 L 111 318 L 114 321 L 114 322 L 115 323 L 115 327 L 114 328 L 114 329 L 110 333 L 108 333 L 107 334 L 106 334 L 105 333 L 103 333 L 99 329 L 99 328 L 98 327 L 98 323 L 99 322 L 99 321 L 102 318 L 103 318 L 104 317 "></path>
        <path fill="none" stroke="#00fafa" stroke-width="3" d="M 213 702 L 214 701 L 218 701 L 219 702 L 220 702 L 223 705 L 223 706 L 224 707 L 224 711 L 223 712 L 223 713 L 220 716 L 219 716 L 218 717 L 214 717 L 213 716 L 212 716 L 209 713 L 209 712 L 208 711 L 208 707 L 209 706 L 209 705 L 212 702 L 213 702 L 214 701 "></path>
        <path fill="none" stroke="#00fafa" stroke-width="3" d="M 213 99 L 214 98 L 218 98 L 219 99 L 220 99 L 223 102 L 223 104 L 224 105 L 224 107 L 223 108 L 223 110 L 220 113 L 218 113 L 217 114 L 215 114 L 214 113 L 212 113 L 209 110 L 209 108 L 208 107 L 208 104 L 209 103 L 209 102 L 212 99 L 213 99 L 214 98 "></path>
        <path fill="none" stroke="#00fafa" stroke-width="3" d="M 268 757 L 274 757 L 278 761 L 278 766 L 277 767 L 277 768 L 275 770 L 274 770 L 273 771 L 269 771 L 268 770 L 267 770 L 264 767 L 264 761 L 268 757 L 274 757 "></path>
        <path fill="none" stroke="#00fafa" stroke-width="3" d="M 268 45 L 269 44 L 273 44 L 278 49 L 278 53 L 277 54 L 277 55 L 274 58 L 268 58 L 264 54 L 264 49 L 265 48 L 265 47 L 267 45 L 268 45 L 269 44 "></path>
        <path fill="none" stroke="#00fafa" stroke-width="3" d="M 158 155 L 159 154 L 163 154 L 164 155 L 165 155 L 167 157 L 167 158 L 168 159 L 168 162 L 167 163 L 167 164 L 164 167 L 163 167 L 162 168 L 160 168 L 159 167 L 158 167 L 155 164 L 155 163 L 154 162 L 154 159 L 155 158 L 155 157 L 157 155 L 158 155 L 159 154 "></path>
        <path fill="none" stroke="#00fafa" stroke-width="3" d="M 434 414 L 436 414 L 437 415 L 438 415 L 443 420 L 443 421 L 444 422 L 444 423 L 445 424 L 445 427 L 444 428 L 444 429 L 443 430 L 438 430 L 434 426 L 434 425 L 433 424 L 433 423 L 432 422 L 432 416 L 434 414 L 436 414 "></path>
        <path fill="none" stroke="#00fafa" stroke-width="3" d="M 104 538 L 109 538 L 112 541 L 112 542 L 113 543 L 113 547 L 109 551 L 104 551 L 103 550 L 102 550 L 101 549 L 101 548 L 100 547 L 100 542 L 104 538 L 109 538 "></path>
        <path fill="none" stroke="#00fafa" stroke-width="3" d="M 103 265 L 104 264 L 109 264 L 112 267 L 112 268 L 113 269 L 113 272 L 112 273 L 112 274 L 110 276 L 109 276 L 108 277 L 104 277 L 100 273 L 100 268 L 101 267 L 101 266 L 102 265 L 103 265 L 104 264 "></path>
        <path fill="none" stroke="#00fafa" stroke-width="3" d="M 926 594 L 927 593 L 931 593 L 935 597 L 935 602 L 934 603 L 934 604 L 933 605 L 932 605 L 931 606 L 927 606 L 926 605 L 925 605 L 923 603 L 923 602 L 922 601 L 922 598 L 923 597 L 923 596 L 925 594 L 926 594 L 927 593 "></path>
        <path fill="none" stroke="#00fafa" stroke-width="3" d="M 926 210 L 927 209 L 931 209 L 935 213 L 935 218 L 931 222 L 927 222 L 926 221 L 925 221 L 923 219 L 923 218 L 922 217 L 922 214 L 923 213 L 923 212 L 925 210 L 926 210 L 927 209 "></path>
        <path fill="none" stroke="#00fafa" stroke-width="3" d="M 981 430 L 986 430 L 989 433 L 989 437 L 986 440 L 982 440 L 979 437 L 979 436 L 978 435 L 979 434 L 979 432 L 981 430 L 986 430 "></path>
        <path fill="none" stroke="#00fafa" stroke-width="3" d="M 872 101 L 876 101 L 879 104 L 879 108 L 876 111 L 873 111 L 872 110 L 871 110 L 870 109 L 870 108 L 869 107 L 869 104 L 872 101 L 876 101 "></path>
        <path fill="none" stroke="#00fafa" stroke-width="3" d="M 872 705 L 873 704 L 876 704 L 879 707 L 879 711 L 876 714 L 872 714 L 869 711 L 869 708 L 870 707 L 870 706 L 871 705 L 872 705 L 873 704 "></path>
        <path fill="none" stroke="#00fafa" stroke-width="3" d="M 818 759 L 821 759 L 824 762 L 824 766 L 821 769 L 818 769 L 817 768 L 816 768 L 815 767 L 815 766 L 814 765 L 814 763 L 818 759 L 821 759 "></path>
        <path fill="none" stroke="#00fafa" stroke-width="3" d="M 818 46 L 821 46 L 824 49 L 824 53 L 822 55 L 821 55 L 820 56 L 818 56 L 815 53 L 815 52 L 814 51 L 815 50 L 815 49 L 818 46 L 821 46 "></path>
        <path fill="none" stroke="#00fafa" stroke-width="3" d="M 104 211 L 108 211 L 111 214 L 111 216 L 110 217 L 110 218 L 108 220 L 105 220 L 104 219 L 103 219 L 102 218 L 102 213 L 104 211 L 108 211 "></path>
        <path fill="none" stroke="#00fafa" stroke-width="3" d="M 982 486 L 983 485 L 985 485 L 988 488 L 988 492 L 986 494 L 982 494 L 979 491 L 979 488 L 981 486 L 982 486 L 983 485 "></path>
        <path fill="none" stroke="#00fafa" stroke-width="3" d="M 982 321 L 986 321 L 988 323 L 988 327 L 985 330 L 982 330 L 980 328 L 980 327 L 979 326 L 979 324 L 982 321 L 986 321 "></path>
        <path fill="none" stroke="#00fafa" stroke-width="3" d="M 926 652 L 927 651 L 931 651 L 932 652 L 932 653 L 933 654 L 933 656 L 931 658 L 927 658 L 926 657 L 926 656 L 925 655 L 925 654 L 926 653 L 926 652 L 927 651 "></path>
        <path fill="none" stroke="#00fafa" stroke-width="3" d="M 160 706 L 162 706 L 164 708 L 164 710 L 161 713 L 160 712 L 159 712 L 158 711 L 158 708 L 160 706 L 162 706 "></path>
        <path fill="none" stroke="#00fafa" stroke-width="3" d="M 158 104 L 159 103 L 162 103 L 164 105 L 164 107 L 162 109 L 160 109 L 158 107 L 158 104 L 159 103 "></path>
        <path fill="none" stroke="#00fafa" stroke-width="3" d="M 983 542 L 985 542 L 987 544 L 987 546 L 985 548 L 983 548 L 981 546 L 981 544 L 983 542 L 985 542 "></path>
        <path fill="none" stroke="#00fafa" stroke-width="3" d="M 50 432 L 52 432 L 54 434 L 54 436 L 52 438 L 50 438 L 48 436 L 48 434 L 50 432 L 52 432 "></path>
        <path fill="none" stroke="#00fafa" stroke-width="3" d="M 50 377 L 52 377 L 54 379 L 54 381 L 52 383 L 50 383 L 48 381 L 48 379 L 50 377 L 52 377 "></path>
        <path fill="none" stroke="#00fafa" stroke-width="3" d="M 983 267 L 985 267 L 987 269 L 987 271 L 985 273 L 983 273 L 981 271 L 981 269 L 983 267 L 985 267 "></path>
        <path fill="none" stroke="#00fafa" stroke-width="3" d="M 51 488 L 53 490 L 51 492 L 49 490 L 51 488 L 53 490 "></path>
        <path fill="none" stroke="#00fafa" stroke-width="3" d="M 49 325 L 50 324 L 51 324 L 52 325 L 52 326 L 51 327 L 49 325 L 50 324 "></path>
    </g>
</svg>
