<svg xmlns="http://www.w3.org/2000/svg" xmlns:xlink="http://www.w3.org/1999/xlink" version="1.1" x="0" y="0" width="1056px" height="816px">
    <g id="rootLayer" transform="translate(0.000000, 0.000000)">
        <path fill="none" stroke="#00fafa" stroke-width="3" d="M 523 390 L 524 389 L 525 389 L 526 390 L 532 390 L 533 391 L 545 391 L 546 390 L 548 390 L 549 391 L 550 391 L 552 393 L 552 394 L 553 395 L 553 397 L 552 398 L 552 399 L 551 400 L 551 401 L 550 402 L 549 402 L 547 404 L 543 404 L 542 403 L 541 403 L 538 400 L 537 400 L 536 399 L 532 399 L 531 398 L 524 398 L 523 397 L 522 398 L 520 398 L 518 400 L 518 404 L 520 406 L 522 406 L 523 407 L 526 407 L 527 406 L 530 406 L 531 407 L 533 407 L 534 408 L 535 408 L 536 409 L 536 410 L 537 411 L 537 412 L 536 413 L 536 415 L 534 417 L 534 418 L 532 420 L 531 420 L 530 421 L 527 421 L 523 417 L 523 416 L 522 415 L 521 415 L 513 407 L 513 406 L 512 405 L 512 403 L 511 402 L 511 398 L 512 397 L 512 396 L 516 392 L 517 392 L 518 391 L 519 391 L 520 390 "></path>
        <path fill="none" stroke="#00fafa" stroke-width="3" d="M 463 447 L 464 446 L 470 446 L 474 450 L 474 452 L 473 453 L 473 454 L 470 457 L 469 457 L 468 458 L 467 458 L 466 459 L 464 459 L 463 460 L 461 460 L 459 462 L 459 467 L 460 468 L 462 468 L 463 469 L 464 468 L 466 468 L 467 467 L 468 467 L 469 466 L 470 466 L 472 464 L 473 464 L 481 456 L 485 456 L 489 460 L 489 462 L 488 463 L 488 464 L 486 466 L 486 467 L 484 469 L 483 469 L 481 471 L 480 471 L 478 473 L 477 473 L 476 474 L 475 474 L 474 475 L 473 475 L 472 476 L 471 476 L 470 477 L 468 477 L 467 478 L 463 478 L 462 477 L 460 477 L 458 475 L 457 475 L 454 472 L 454 471 L 453 470 L 453 469 L 452 468 L 452 467 L 451 466 L 451 460 L 452 459 L 452 458 L 454 456 L 454 455 L 462 447 "></path>
        <path fill="none" stroke="#00fafa" stroke-width="3" d="M 479 402 L 486 402 L 490 406 L 490 407 L 491 408 L 491 411 L 492 412 L 492 417 L 493 418 L 493 420 L 494 421 L 494 422 L 502 430 L 502 431 L 503 432 L 503 434 L 500 437 L 497 437 L 496 436 L 495 436 L 493 434 L 492 434 L 484 426 L 484 425 L 483 424 L 483 420 L 484 419 L 484 418 L 485 417 L 485 411 L 484 410 L 483 410 L 482 409 L 481 409 L 480 410 L 479 410 L 477 412 L 477 415 L 476 416 L 476 420 L 473 423 L 465 423 L 462 420 L 462 417 L 468 411 L 469 411 L 476 404 L 477 404 "></path>
        <path fill="none" stroke="#00fafa" stroke-width="3" d="M 558 425 L 561 425 L 562 426 L 563 426 L 566 429 L 567 429 L 570 432 L 570 433 L 572 435 L 572 437 L 573 438 L 573 447 L 572 448 L 572 449 L 568 453 L 567 453 L 566 454 L 565 454 L 564 455 L 559 455 L 558 454 L 556 454 L 555 453 L 554 453 L 553 452 L 552 452 L 551 451 L 550 451 L 549 450 L 548 450 L 547 449 L 546 449 L 543 446 L 543 442 L 547 438 L 550 438 L 558 446 L 559 446 L 560 447 L 564 447 L 566 445 L 566 441 L 562 437 L 561 437 L 560 436 L 559 436 L 558 435 L 557 435 L 555 433 L 555 432 L 554 431 L 554 429 "></path>
        <path fill="none" stroke="#00fafa" stroke-width="3" d="M 435 430 L 436 429 L 440 429 L 442 431 L 442 434 L 441 435 L 441 436 L 430 447 L 430 448 L 429 449 L 429 450 L 428 451 L 428 452 L 426 454 L 423 454 L 422 453 L 421 453 L 417 449 L 417 448 L 416 447 L 416 443 L 420 439 L 421 439 L 422 438 L 423 438 L 424 437 L 425 437 L 426 436 L 427 436 L 429 434 L 430 434 L 434 430 "></path>
        <path fill="none" stroke="#00fafa" stroke-width="3" d="M 591 466 L 592 465 L 596 465 L 599 468 L 599 469 L 598 470 L 598 471 L 595 474 L 594 474 L 593 475 L 592 475 L 591 476 L 589 476 L 588 477 L 587 477 L 586 478 L 585 478 L 584 479 L 583 479 L 582 480 L 581 480 L 580 481 L 576 481 L 575 480 L 575 479 L 574 478 L 574 476 L 575 475 L 575 474 L 577 472 L 578 472 L 579 471 L 580 471 L 581 470 L 582 470 L 583 469 L 584 469 L 585 468 L 586 468 L 587 467 L 588 467 L 589 466 "></path>
        <path fill="none" stroke="#00fafa" stroke-width="3" d="M 421 384 L 422 383 L 425 383 L 426 384 L 427 384 L 428 385 L 429 385 L 430 386 L 431 386 L 432 387 L 433 387 L 438 392 L 438 393 L 439 394 L 439 396 L 440 397 L 440 400 L 439 401 L 436 401 L 433 398 L 432 398 L 430 396 L 429 396 L 427 394 L 426 394 L 422 390 L 422 389 L 421 388 L 421 387 L 420 386 L 421 385 "></path>
        <path fill="none" stroke="#00fafa" stroke-width="3" d="M 615 429 L 616 428 L 620 428 L 623 431 L 623 436 L 622 437 L 622 438 L 621 439 L 621 440 L 619 442 L 618 442 L 617 443 L 613 443 L 611 441 L 611 440 L 610 439 L 610 435 L 611 434 L 611 433 L 612 432 L 612 431 L 614 429 "></path>
    </g>
</svg>
