<svg xmlns="http://www.w3.org/2000/svg" xmlns:xlink="http://www.w3.org/1999/xlink" version="1.1" x="0" y="0" width="1056px" height="816px">
    <g id="rootLayer" transform="translate(0.000000, 0.000000)">
        <path fill="none" stroke="#fa00fa" stroke-width="3" d="M 1 1 L 1 7 L 2 7 L 3 8 L 5 8 L 6 9 L 7 9 L 18 20 L 19 20 L 20 21 L 21 21 L 22 22 L 26 22 L 27 21 L 37 21 L 38 20 L 39 20 L 40 19 L 41 19 L 43 17 L 46 17 L 47 18 L 47 20 L 46 21 L 46 22 L 45 23 L 45 24 L 44 25 L 44 33 L 45 34 L 45 38 L 46 39 L 46 41 L 50 45 L 51 45 L 52 46 L 53 46 L 54 47 L 59 47 L 60 46 L 64 46 L 65 45 L 68 45 L 69 44 L 71 44 L 73 42 L 74 42 L 76 40 L 76 39 L 77 38 L 77 37 L 78 36 L 78 34 L 79 33 L 78 32 L 78 30 L 75 27 L 75 26 L 74 25 L 74 24 L 73 23 L 73 22 L 72 21 L 72 17 L 74 15 L 75 15 L 76 14 L 78 14 L 81 11 L 83 11 L 84 10 L 86 10 L 88 8 L 90 8 L 91 7 L 92 8 L 93 8 L 94 9 L 95 9 L 99 13 L 100 13 L 101 14 L 102 14 L 103 15 L 105 15 L 106 16 L 109 16 L 110 17 L 113 17 L 114 18 L 124 18 L 125 17 L 128 17 L 129 16 L 132 16 L 133 15 L 135 15 L 136 14 L 138 14 L 139 13 L 140 13 L 142 11 L 143 11 L 146 8 L 147 8 L 148 7 L 149 7 L 152 4 L 152 3 L 153 2 L 152 1 L 1 1 L 1 7 "></path>
        <path fill="none" stroke="#fa00fa" stroke-width="3" d="M 266 708 L 265 709 L 262 709 L 260 711 L 260 714 L 259 715 L 259 716 L 258 717 L 258 718 L 257 719 L 257 720 L 256 721 L 256 723 L 257 724 L 257 728 L 258 729 L 258 730 L 259 730 L 262 733 L 262 734 L 263 735 L 263 736 L 260 739 L 260 740 L 258 742 L 258 746 L 259 747 L 258 748 L 258 749 L 257 750 L 255 750 L 253 748 L 253 746 L 254 745 L 254 741 L 253 741 L 252 740 L 252 739 L 250 737 L 249 737 L 248 736 L 247 736 L 246 735 L 244 735 L 243 734 L 238 734 L 237 735 L 235 735 L 234 736 L 233 736 L 232 737 L 231 737 L 230 738 L 229 738 L 229 739 L 226 742 L 226 744 L 227 745 L 227 747 L 226 748 L 226 749 L 225 750 L 225 751 L 224 752 L 224 754 L 223 755 L 223 758 L 224 759 L 224 761 L 226 763 L 226 764 L 227 764 L 231 768 L 231 769 L 229 771 L 228 771 L 227 772 L 226 772 L 225 773 L 225 774 L 224 775 L 224 776 L 223 777 L 224 778 L 224 781 L 225 782 L 225 783 L 228 786 L 228 787 L 229 788 L 229 789 L 233 793 L 235 793 L 236 794 L 239 794 L 240 793 L 242 793 L 243 792 L 244 792 L 245 791 L 247 791 L 249 789 L 250 789 L 251 788 L 251 787 L 252 786 L 252 785 L 256 781 L 256 780 L 257 779 L 257 776 L 256 775 L 256 774 L 253 771 L 252 771 L 250 769 L 250 768 L 249 767 L 249 766 L 250 765 L 250 764 L 252 762 L 253 762 L 255 760 L 258 760 L 259 761 L 260 761 L 263 764 L 264 764 L 265 765 L 266 765 L 267 766 L 274 766 L 275 765 L 276 765 L 277 764 L 278 764 L 282 760 L 282 759 L 283 758 L 283 757 L 284 756 L 284 755 L 285 754 L 284 753 L 284 751 L 283 750 L 283 748 L 282 747 L 282 742 L 281 741 L 281 740 L 278 737 L 278 735 L 280 733 L 280 732 L 281 731 L 281 730 L 282 729 L 282 728 L 283 727 L 283 726 L 285 724 L 285 720 L 283 718 L 283 716 L 282 715 L 282 713 L 278 709 L 276 709 L 275 708 L 266 708 L 265 709 "></path>
        <path fill="none" stroke="#fa00fa" stroke-width="3" d="M 54 165 L 52 167 L 50 167 L 47 170 L 46 170 L 45 171 L 45 173 L 44 174 L 44 181 L 45 182 L 45 183 L 46 184 L 46 185 L 47 186 L 47 187 L 49 189 L 49 190 L 50 191 L 50 192 L 52 194 L 52 196 L 50 198 L 49 198 L 45 202 L 45 203 L 44 204 L 44 209 L 45 210 L 45 211 L 46 212 L 46 217 L 48 219 L 48 220 L 50 222 L 51 222 L 52 223 L 53 223 L 54 224 L 57 224 L 58 225 L 59 224 L 66 224 L 68 222 L 70 222 L 71 221 L 71 220 L 73 218 L 73 217 L 74 216 L 74 213 L 75 212 L 75 210 L 77 208 L 79 210 L 79 218 L 80 219 L 80 220 L 82 222 L 83 222 L 85 224 L 87 224 L 88 225 L 96 225 L 97 224 L 98 224 L 99 223 L 100 223 L 104 219 L 104 217 L 103 216 L 103 215 L 102 214 L 102 212 L 101 211 L 101 210 L 100 209 L 102 207 L 102 206 L 103 205 L 104 205 L 105 206 L 105 207 L 108 210 L 108 216 L 107 217 L 108 218 L 108 220 L 110 222 L 112 222 L 113 223 L 117 223 L 118 224 L 121 224 L 122 225 L 123 224 L 127 224 L 130 221 L 130 220 L 131 219 L 131 209 L 132 208 L 132 207 L 133 206 L 133 205 L 134 204 L 134 201 L 133 200 L 133 199 L 130 196 L 128 196 L 127 195 L 123 195 L 122 194 L 121 194 L 120 195 L 119 195 L 118 194 L 117 194 L 116 195 L 112 195 L 111 196 L 109 196 L 106 199 L 106 200 L 105 201 L 105 204 L 104 205 L 102 203 L 102 201 L 101 200 L 101 199 L 97 195 L 95 195 L 94 194 L 85 194 L 84 195 L 83 195 L 82 196 L 81 196 L 80 197 L 80 198 L 79 199 L 79 205 L 78 206 L 78 207 L 77 208 L 75 206 L 75 205 L 72 202 L 72 200 L 67 195 L 67 193 L 72 188 L 72 187 L 75 184 L 75 183 L 77 181 L 77 179 L 76 178 L 76 175 L 74 173 L 74 172 L 71 169 L 69 169 L 68 168 L 67 168 L 66 167 L 65 167 L 64 166 L 63 166 L 62 165 L 54 165 L 52 167 "></path>
        <path fill="none" stroke="#fa00fa" stroke-width="3" d="M 58 585 L 57 586 L 55 586 L 54 587 L 53 587 L 51 589 L 50 589 L 48 591 L 48 592 L 47 593 L 47 595 L 46 596 L 46 598 L 45 599 L 45 600 L 43 602 L 43 606 L 44 607 L 45 607 L 49 611 L 49 612 L 50 613 L 49 614 L 49 616 L 46 619 L 46 621 L 45 622 L 45 623 L 44 624 L 44 625 L 43 626 L 43 628 L 44 629 L 44 632 L 49 637 L 49 641 L 52 644 L 53 644 L 54 645 L 57 645 L 58 646 L 63 646 L 64 645 L 66 645 L 67 644 L 68 644 L 71 641 L 71 635 L 72 634 L 73 634 L 76 631 L 76 630 L 77 629 L 77 628 L 78 627 L 78 623 L 77 622 L 77 621 L 76 620 L 76 619 L 71 614 L 71 611 L 73 609 L 74 609 L 75 608 L 76 608 L 82 614 L 83 614 L 84 615 L 85 615 L 86 616 L 93 616 L 94 615 L 95 615 L 96 614 L 98 614 L 102 610 L 102 609 L 104 607 L 104 606 L 105 605 L 105 601 L 106 600 L 106 593 L 104 591 L 103 591 L 101 589 L 100 589 L 98 587 L 94 587 L 93 588 L 90 588 L 89 589 L 82 589 L 80 591 L 79 591 L 76 594 L 73 594 L 72 593 L 72 591 L 71 590 L 71 589 L 70 588 L 69 588 L 67 586 L 66 586 L 65 585 L 58 585 L 57 586 "></path>
        <path fill="none" stroke="#fa00fa" stroke-width="3" d="M 866 733 L 865 734 L 862 734 L 861 735 L 859 735 L 858 736 L 857 736 L 856 737 L 856 738 L 854 740 L 854 747 L 855 748 L 855 754 L 857 756 L 857 758 L 858 759 L 859 759 L 860 760 L 860 762 L 861 763 L 861 764 L 862 765 L 862 768 L 860 770 L 858 770 L 857 771 L 855 771 L 854 772 L 853 772 L 853 773 L 852 774 L 852 776 L 853 777 L 853 779 L 854 780 L 854 781 L 855 782 L 855 783 L 856 784 L 856 785 L 857 786 L 857 787 L 863 793 L 864 793 L 865 794 L 870 794 L 871 793 L 871 792 L 876 787 L 878 787 L 879 786 L 882 786 L 883 785 L 884 786 L 885 786 L 886 787 L 888 787 L 890 789 L 893 789 L 894 790 L 895 789 L 896 789 L 897 790 L 899 790 L 900 791 L 904 791 L 905 790 L 907 790 L 909 788 L 910 788 L 913 785 L 914 785 L 918 781 L 918 776 L 917 775 L 917 774 L 914 771 L 914 770 L 913 769 L 913 768 L 912 767 L 912 766 L 911 765 L 910 765 L 909 764 L 908 764 L 907 763 L 906 763 L 905 762 L 898 762 L 897 763 L 895 763 L 894 764 L 893 764 L 892 765 L 892 766 L 888 770 L 887 770 L 886 771 L 884 771 L 883 770 L 881 770 L 879 768 L 879 767 L 880 766 L 880 765 L 883 762 L 883 761 L 884 760 L 884 754 L 883 753 L 883 752 L 884 751 L 884 750 L 886 748 L 886 747 L 887 746 L 887 743 L 886 742 L 886 741 L 884 739 L 884 738 L 883 737 L 883 736 L 882 735 L 880 735 L 879 734 L 875 734 L 874 733 L 873 734 L 871 734 L 870 733 L 869 733 L 868 734 L 867 734 L 866 733 L 865 734 "></path>
        <path fill="none" stroke="#fa00fa" stroke-width="3" d="M 898 13 L 897 14 L 894 14 L 893 15 L 890 15 L 889 16 L 888 16 L 886 18 L 886 19 L 885 20 L 885 22 L 884 23 L 884 24 L 883 25 L 883 26 L 882 27 L 882 28 L 883 29 L 883 34 L 884 35 L 884 36 L 886 38 L 886 39 L 887 39 L 888 40 L 889 40 L 892 43 L 892 44 L 889 47 L 889 48 L 888 49 L 888 50 L 887 51 L 884 51 L 879 46 L 878 46 L 877 45 L 869 45 L 868 46 L 862 46 L 861 47 L 860 47 L 859 48 L 858 48 L 856 50 L 856 51 L 854 53 L 854 54 L 853 55 L 853 58 L 854 59 L 854 64 L 855 65 L 855 66 L 861 72 L 862 72 L 863 73 L 864 73 L 865 74 L 869 74 L 870 75 L 871 75 L 872 74 L 877 74 L 884 67 L 888 67 L 890 69 L 891 69 L 893 71 L 895 71 L 896 72 L 897 71 L 899 71 L 900 70 L 903 70 L 904 69 L 907 69 L 908 68 L 910 68 L 912 66 L 913 66 L 914 65 L 914 64 L 916 62 L 916 58 L 917 57 L 916 56 L 916 54 L 914 52 L 914 51 L 913 50 L 913 49 L 912 48 L 912 47 L 911 47 L 908 44 L 908 43 L 909 42 L 910 42 L 913 39 L 914 39 L 915 38 L 915 36 L 916 35 L 916 26 L 915 25 L 915 24 L 914 23 L 914 22 L 913 22 L 907 16 L 906 16 L 904 14 L 900 14 L 899 13 L 898 13 L 897 14 "></path>
        <path fill="none" stroke="#fa00fa" stroke-width="3" d="M 1024 763 L 1023 764 L 1020 764 L 1019 765 L 1018 765 L 1017 766 L 1016 765 L 1014 765 L 1013 766 L 1012 765 L 1011 766 L 1010 766 L 1008 768 L 1007 768 L 1005 770 L 1005 771 L 1004 772 L 1004 779 L 1005 780 L 1005 781 L 1006 782 L 1006 786 L 1005 787 L 1005 790 L 1007 792 L 1008 792 L 1010 794 L 1011 794 L 1013 796 L 1013 797 L 1014 798 L 1012 800 L 1009 800 L 1008 801 L 1007 801 L 1006 800 L 1005 800 L 1002 797 L 1001 797 L 1000 796 L 994 796 L 993 797 L 992 797 L 991 798 L 981 798 L 980 799 L 977 799 L 975 801 L 975 802 L 974 803 L 974 804 L 975 805 L 975 806 L 976 807 L 976 808 L 977 809 L 977 810 L 978 811 L 979 811 L 980 812 L 981 812 L 982 813 L 984 813 L 985 814 L 986 814 L 987 813 L 988 813 L 989 814 L 990 814 L 991 813 L 995 813 L 996 814 L 1036 814 L 1037 813 L 1039 813 L 1040 812 L 1040 811 L 1041 810 L 1040 809 L 1040 806 L 1037 803 L 1036 803 L 1035 802 L 1027 802 L 1026 801 L 1025 801 L 1023 799 L 1023 798 L 1024 797 L 1024 796 L 1025 795 L 1026 795 L 1027 794 L 1028 794 L 1029 793 L 1030 793 L 1036 787 L 1036 785 L 1040 781 L 1040 779 L 1039 778 L 1039 772 L 1038 771 L 1038 770 L 1036 768 L 1036 767 L 1035 767 L 1034 766 L 1032 766 L 1030 764 L 1027 764 L 1026 763 L 1024 763 L 1023 764 "></path>
        <path fill="none" stroke="#fa00fa" stroke-width="3" d="M 933 1 L 932 2 L 932 3 L 933 4 L 933 6 L 935 8 L 936 8 L 938 10 L 939 10 L 942 13 L 944 13 L 946 15 L 948 15 L 949 16 L 950 16 L 951 17 L 953 17 L 954 18 L 957 18 L 958 19 L 964 19 L 965 18 L 968 18 L 969 17 L 971 17 L 972 16 L 975 16 L 976 15 L 977 16 L 980 16 L 982 18 L 984 18 L 985 19 L 993 19 L 994 18 L 996 18 L 997 17 L 999 17 L 1000 16 L 1001 16 L 1003 14 L 1004 14 L 1005 13 L 1006 14 L 1007 13 L 1010 13 L 1012 11 L 1013 11 L 1016 8 L 1017 8 L 1020 5 L 1022 5 L 1029 12 L 1030 12 L 1031 13 L 1032 13 L 1035 16 L 1036 16 L 1040 20 L 1041 20 L 1042 21 L 1043 21 L 1044 22 L 1045 22 L 1046 23 L 1047 23 L 1048 24 L 1049 24 L 1050 25 L 1054 25 L 1054 1 L 933 1 L 932 2 "></path>
        <path fill="none" stroke="#fa00fa" stroke-width="3" d="M 2 729 L 1 730 L 1 773 L 5 773 L 6 772 L 7 772 L 7 771 L 8 770 L 8 769 L 9 768 L 9 767 L 10 766 L 10 765 L 12 763 L 13 763 L 14 762 L 15 762 L 18 759 L 20 759 L 21 758 L 23 758 L 24 757 L 29 757 L 30 758 L 31 758 L 32 759 L 33 759 L 34 760 L 38 760 L 41 757 L 42 757 L 43 756 L 45 756 L 46 757 L 47 757 L 48 758 L 48 759 L 50 761 L 59 761 L 60 760 L 62 760 L 62 759 L 63 758 L 64 758 L 65 757 L 66 757 L 67 756 L 68 756 L 69 757 L 74 757 L 75 756 L 76 756 L 77 755 L 79 755 L 79 754 L 81 752 L 81 751 L 82 750 L 82 748 L 81 747 L 81 745 L 80 744 L 80 743 L 78 741 L 77 741 L 76 740 L 75 740 L 74 739 L 73 739 L 72 738 L 71 738 L 70 737 L 69 737 L 68 736 L 66 736 L 65 735 L 64 735 L 63 734 L 55 734 L 54 735 L 53 735 L 52 736 L 51 736 L 48 739 L 47 739 L 46 740 L 41 740 L 40 739 L 36 739 L 35 740 L 32 740 L 31 741 L 30 741 L 27 744 L 24 744 L 23 743 L 17 743 L 16 742 L 15 742 L 14 741 L 14 740 L 12 738 L 12 736 L 10 734 L 8 734 L 7 733 L 7 732 L 6 731 L 5 731 L 3 729 L 2 729 L 1 730 "></path>
        <path fill="none" stroke="#fa00fa" stroke-width="3" d="M 930 283 L 929 284 L 926 284 L 925 285 L 924 285 L 920 289 L 920 290 L 919 291 L 918 291 L 917 292 L 917 293 L 916 294 L 916 295 L 914 297 L 914 298 L 913 299 L 913 302 L 912 303 L 913 304 L 913 306 L 914 307 L 914 308 L 916 310 L 916 311 L 920 315 L 920 316 L 916 320 L 916 321 L 915 322 L 915 323 L 914 324 L 914 329 L 915 330 L 915 332 L 916 333 L 915 334 L 915 335 L 916 336 L 916 337 L 918 339 L 918 340 L 920 342 L 921 342 L 925 346 L 927 346 L 928 347 L 934 347 L 935 346 L 936 346 L 937 345 L 938 345 L 939 344 L 940 344 L 940 343 L 943 340 L 943 339 L 944 338 L 944 337 L 945 336 L 945 335 L 946 334 L 946 333 L 947 332 L 947 326 L 946 325 L 946 324 L 944 322 L 944 321 L 942 319 L 941 319 L 940 318 L 940 317 L 939 316 L 940 315 L 940 314 L 941 313 L 942 313 L 942 312 L 944 310 L 944 309 L 945 308 L 945 304 L 944 303 L 944 302 L 941 299 L 941 290 L 940 289 L 940 288 L 937 285 L 936 285 L 935 284 L 931 284 L 930 283 L 929 284 "></path>
        <path fill="none" stroke="#fa00fa" stroke-width="3" d="M 958 405 L 957 406 L 956 406 L 955 407 L 954 407 L 953 408 L 952 408 L 946 414 L 946 415 L 944 417 L 944 426 L 945 427 L 945 428 L 946 429 L 946 430 L 947 430 L 950 433 L 953 433 L 954 434 L 957 434 L 958 435 L 966 435 L 967 434 L 970 434 L 974 430 L 975 430 L 976 429 L 977 430 L 979 430 L 982 433 L 984 433 L 985 434 L 987 434 L 988 435 L 992 435 L 993 434 L 997 434 L 998 433 L 1000 433 L 1001 432 L 1002 432 L 1003 431 L 1004 431 L 1007 428 L 1007 427 L 1008 426 L 1008 424 L 1009 423 L 1009 418 L 1008 417 L 1008 416 L 1007 415 L 1007 414 L 1004 411 L 1003 411 L 1001 409 L 1000 409 L 999 408 L 998 408 L 997 407 L 996 407 L 995 406 L 994 406 L 993 405 L 987 405 L 986 406 L 985 406 L 984 407 L 983 407 L 981 409 L 980 409 L 980 410 L 978 412 L 978 416 L 979 417 L 979 418 L 978 419 L 978 420 L 977 421 L 976 421 L 975 422 L 972 419 L 972 416 L 971 415 L 971 413 L 970 412 L 970 411 L 966 407 L 965 407 L 964 406 L 963 406 L 962 405 L 958 405 L 957 406 "></path>
        <path fill="none" stroke="#fa00fa" stroke-width="3" d="M 238 43 L 237 44 L 234 44 L 232 46 L 231 46 L 229 48 L 229 49 L 227 51 L 226 51 L 225 52 L 223 50 L 222 50 L 219 47 L 216 47 L 215 46 L 214 46 L 213 47 L 201 47 L 200 48 L 199 48 L 194 53 L 194 56 L 193 57 L 193 59 L 192 60 L 192 62 L 193 63 L 193 65 L 194 65 L 197 68 L 197 69 L 198 69 L 202 73 L 204 73 L 205 74 L 208 74 L 209 75 L 212 75 L 213 74 L 215 74 L 216 73 L 217 73 L 220 70 L 220 69 L 224 65 L 226 65 L 227 64 L 228 65 L 229 65 L 230 66 L 232 66 L 237 71 L 238 71 L 239 72 L 244 72 L 245 71 L 247 71 L 250 68 L 250 67 L 252 65 L 252 64 L 253 63 L 253 62 L 254 61 L 254 57 L 255 56 L 255 52 L 254 51 L 254 50 L 249 45 L 248 45 L 247 44 L 244 44 L 243 43 L 241 43 L 240 44 L 239 43 L 238 43 L 237 44 "></path>
        <path fill="none" stroke="#fa00fa" stroke-width="3" d="M 1051 372 L 1050 373 L 1049 373 L 1047 375 L 1046 375 L 1043 378 L 1042 378 L 1041 379 L 1041 380 L 1040 381 L 1040 384 L 1039 385 L 1038 385 L 1037 386 L 1032 381 L 1032 379 L 1030 377 L 1029 377 L 1028 376 L 1027 376 L 1026 375 L 1014 375 L 1013 376 L 1010 376 L 1008 378 L 1007 378 L 1004 381 L 1004 382 L 1003 383 L 1003 385 L 1004 386 L 1004 388 L 1006 390 L 1006 399 L 1007 400 L 1007 401 L 1013 407 L 1014 407 L 1015 408 L 1024 408 L 1025 407 L 1026 407 L 1029 404 L 1030 404 L 1030 403 L 1032 401 L 1032 400 L 1033 399 L 1033 398 L 1034 397 L 1034 396 L 1035 395 L 1035 394 L 1036 393 L 1037 393 L 1038 394 L 1038 399 L 1039 400 L 1039 401 L 1042 404 L 1043 404 L 1044 405 L 1044 406 L 1046 408 L 1047 408 L 1050 411 L 1054 411 L 1054 373 L 1053 372 L 1051 372 L 1050 373 "></path>
        <path fill="none" stroke="#fa00fa" stroke-width="3" d="M 898 376 L 897 377 L 896 377 L 895 378 L 893 378 L 892 379 L 890 379 L 888 381 L 887 381 L 887 382 L 886 383 L 886 384 L 885 385 L 885 387 L 884 388 L 884 391 L 883 392 L 883 393 L 884 394 L 884 395 L 887 398 L 888 398 L 891 401 L 892 401 L 894 403 L 894 404 L 895 405 L 895 406 L 889 412 L 889 417 L 886 420 L 886 426 L 887 427 L 887 429 L 891 433 L 898 433 L 899 432 L 903 432 L 904 431 L 905 432 L 907 432 L 908 431 L 909 432 L 910 432 L 911 431 L 912 431 L 913 430 L 914 430 L 914 429 L 915 428 L 915 421 L 912 418 L 912 415 L 911 414 L 911 413 L 910 412 L 909 412 L 906 409 L 905 409 L 903 407 L 905 405 L 906 405 L 909 402 L 910 402 L 911 401 L 911 400 L 912 399 L 912 397 L 913 396 L 913 394 L 912 393 L 912 392 L 913 391 L 912 390 L 913 389 L 913 387 L 914 386 L 913 385 L 913 382 L 912 381 L 912 379 L 911 378 L 910 378 L 909 377 L 907 377 L 906 376 L 898 376 L 897 377 "></path>
        <path fill="none" stroke="#fa00fa" stroke-width="3" d="M 209 557 L 208 558 L 205 558 L 199 564 L 198 564 L 197 565 L 194 565 L 193 564 L 191 564 L 190 563 L 182 563 L 181 562 L 179 562 L 178 561 L 177 561 L 176 560 L 175 560 L 174 559 L 173 560 L 169 560 L 166 563 L 166 564 L 165 565 L 165 574 L 166 575 L 166 576 L 170 580 L 171 580 L 174 583 L 177 583 L 178 584 L 184 584 L 185 583 L 187 583 L 188 582 L 188 581 L 189 580 L 190 580 L 191 579 L 192 579 L 193 578 L 197 578 L 201 582 L 202 582 L 203 583 L 204 583 L 205 584 L 208 584 L 209 585 L 210 585 L 211 584 L 214 584 L 215 583 L 216 583 L 217 582 L 218 582 L 219 581 L 220 581 L 223 578 L 223 577 L 225 575 L 225 574 L 226 573 L 226 568 L 225 567 L 225 566 L 222 563 L 221 563 L 218 560 L 217 560 L 215 558 L 213 558 L 212 557 L 209 557 L 208 558 "></path>
        <path fill="none" stroke="#fa00fa" stroke-width="3" d="M 538 767 L 537 768 L 535 768 L 534 769 L 533 769 L 532 770 L 532 771 L 528 775 L 526 775 L 525 776 L 525 777 L 524 778 L 524 783 L 525 784 L 525 785 L 529 789 L 529 790 L 530 791 L 532 791 L 534 793 L 537 793 L 538 794 L 539 793 L 543 793 L 544 792 L 545 792 L 546 791 L 547 791 L 549 789 L 550 789 L 552 787 L 554 787 L 555 786 L 556 786 L 560 790 L 560 791 L 561 792 L 562 792 L 563 793 L 565 793 L 566 794 L 573 794 L 574 793 L 575 793 L 577 791 L 578 791 L 578 790 L 580 788 L 581 788 L 582 787 L 583 787 L 584 786 L 585 786 L 588 783 L 588 780 L 586 778 L 585 778 L 584 777 L 580 777 L 578 775 L 577 775 L 576 774 L 576 773 L 575 772 L 575 770 L 573 768 L 572 768 L 571 767 L 565 767 L 564 768 L 563 768 L 560 771 L 560 772 L 557 775 L 551 775 L 550 774 L 549 774 L 547 772 L 547 770 L 546 769 L 545 769 L 544 768 L 541 768 L 540 767 L 538 767 L 537 768 "></path>
        <path fill="none" stroke="#fa00fa" stroke-width="3" d="M 446 47 L 444 49 L 444 50 L 443 51 L 442 51 L 440 53 L 438 53 L 437 54 L 434 54 L 433 53 L 432 53 L 431 52 L 427 52 L 426 51 L 425 52 L 423 52 L 422 51 L 421 52 L 419 52 L 418 51 L 417 52 L 415 52 L 414 51 L 413 52 L 409 52 L 408 53 L 406 53 L 404 55 L 404 56 L 403 57 L 403 58 L 402 59 L 402 62 L 406 66 L 406 67 L 407 68 L 408 68 L 409 69 L 409 70 L 410 71 L 411 71 L 412 72 L 413 72 L 414 73 L 419 73 L 420 72 L 421 72 L 422 71 L 423 71 L 424 70 L 427 70 L 429 68 L 430 68 L 433 65 L 435 65 L 436 66 L 436 67 L 438 69 L 439 69 L 442 72 L 444 72 L 445 73 L 451 73 L 452 72 L 455 72 L 456 71 L 457 71 L 458 72 L 460 70 L 461 70 L 462 69 L 462 68 L 463 67 L 463 66 L 464 65 L 464 63 L 465 62 L 465 61 L 466 60 L 466 57 L 465 56 L 465 55 L 464 54 L 464 53 L 462 51 L 461 51 L 460 50 L 459 50 L 458 49 L 456 49 L 455 48 L 454 48 L 453 47 L 446 47 L 444 49 "></path>
        <path fill="none" stroke="#fa00fa" stroke-width="3" d="M 2 606 L 1 607 L 1 683 L 4 683 L 7 680 L 7 679 L 8 678 L 8 677 L 9 676 L 10 676 L 13 673 L 14 673 L 16 671 L 16 670 L 17 669 L 17 668 L 18 667 L 18 666 L 20 664 L 20 663 L 21 662 L 21 660 L 20 659 L 20 658 L 18 656 L 18 655 L 17 654 L 17 653 L 16 652 L 16 650 L 14 648 L 14 645 L 15 644 L 15 643 L 16 642 L 16 635 L 18 633 L 18 625 L 17 624 L 17 620 L 16 619 L 16 618 L 11 613 L 11 612 L 10 611 L 10 610 L 6 606 L 2 606 L 1 607 "></path>
        <path fill="none" stroke="#fa00fa" stroke-width="3" d="M 957 254 L 956 255 L 954 255 L 948 261 L 948 262 L 947 263 L 946 263 L 944 265 L 944 270 L 943 271 L 943 274 L 944 275 L 944 277 L 945 278 L 945 279 L 946 280 L 946 281 L 950 285 L 951 285 L 953 287 L 956 287 L 957 288 L 962 288 L 963 287 L 966 287 L 967 286 L 967 285 L 968 284 L 969 284 L 973 280 L 974 280 L 975 279 L 975 278 L 976 277 L 976 276 L 977 275 L 977 266 L 976 265 L 976 264 L 975 263 L 975 262 L 974 261 L 973 261 L 972 260 L 972 259 L 970 257 L 969 257 L 967 255 L 966 255 L 965 254 L 957 254 L 956 255 "></path>
        <path fill="none" stroke="#fa00fa" stroke-width="3" d="M 30 313 L 29 314 L 26 314 L 25 315 L 22 315 L 21 316 L 19 316 L 14 321 L 14 322 L 13 323 L 13 330 L 14 331 L 14 333 L 15 334 L 15 337 L 16 338 L 16 339 L 18 341 L 18 342 L 20 344 L 21 344 L 22 345 L 24 345 L 25 346 L 31 346 L 32 345 L 37 345 L 38 344 L 39 344 L 43 340 L 43 339 L 44 338 L 44 336 L 45 335 L 45 334 L 46 333 L 46 332 L 47 331 L 47 330 L 48 329 L 48 327 L 47 326 L 47 325 L 44 322 L 44 321 L 43 320 L 43 319 L 39 315 L 38 315 L 37 314 L 35 314 L 34 313 L 30 313 L 29 314 "></path>
        <path fill="none" stroke="#fa00fa" stroke-width="3" d="M 84 45 L 83 46 L 82 46 L 81 47 L 80 47 L 79 48 L 78 48 L 74 52 L 74 53 L 73 54 L 73 57 L 72 58 L 72 64 L 73 65 L 73 66 L 78 71 L 78 72 L 79 72 L 81 74 L 83 74 L 84 75 L 85 75 L 86 76 L 94 76 L 95 75 L 96 75 L 97 74 L 98 74 L 101 71 L 102 71 L 105 68 L 105 67 L 107 65 L 107 63 L 108 62 L 108 56 L 107 55 L 107 54 L 102 49 L 101 49 L 100 48 L 99 48 L 98 47 L 96 47 L 95 46 L 92 46 L 91 45 L 84 45 L 83 46 "></path>
        <path fill="none" stroke="#fa00fa" stroke-width="3" d="M 749 763 L 748 764 L 747 764 L 746 765 L 745 765 L 743 767 L 741 767 L 740 768 L 738 768 L 736 770 L 736 771 L 735 772 L 735 773 L 736 774 L 736 779 L 734 781 L 734 787 L 735 788 L 735 789 L 738 792 L 738 793 L 739 793 L 740 794 L 741 794 L 742 795 L 743 794 L 744 795 L 749 795 L 750 796 L 751 795 L 753 795 L 754 796 L 755 795 L 758 795 L 759 794 L 760 794 L 761 793 L 762 793 L 767 788 L 767 785 L 768 784 L 768 782 L 767 781 L 767 780 L 765 778 L 765 776 L 764 775 L 764 772 L 763 771 L 763 770 L 762 769 L 762 768 L 758 764 L 757 764 L 756 763 L 749 763 L 748 764 "></path>
        <path fill="none" stroke="#fa00fa" stroke-width="3" d="M 958 764 L 957 765 L 954 765 L 952 767 L 950 767 L 949 768 L 949 769 L 948 770 L 947 770 L 946 771 L 945 771 L 944 772 L 943 772 L 942 773 L 941 773 L 940 774 L 940 776 L 939 777 L 939 779 L 940 780 L 940 781 L 941 782 L 941 783 L 944 786 L 944 787 L 948 791 L 949 791 L 950 792 L 952 792 L 953 793 L 967 793 L 968 792 L 969 793 L 970 793 L 971 792 L 972 792 L 973 791 L 974 791 L 974 790 L 975 789 L 975 784 L 976 783 L 978 783 L 982 779 L 982 777 L 981 776 L 981 775 L 980 774 L 979 774 L 978 773 L 975 773 L 974 772 L 973 773 L 971 773 L 968 770 L 968 769 L 967 768 L 967 767 L 966 766 L 965 766 L 964 765 L 961 765 L 960 764 L 958 764 L 957 765 "></path>
        <path fill="none" stroke="#fa00fa" stroke-width="3" d="M 961 103 L 960 104 L 955 104 L 954 105 L 952 105 L 951 106 L 950 106 L 949 107 L 948 107 L 944 111 L 944 113 L 943 114 L 943 115 L 944 116 L 944 122 L 943 123 L 943 124 L 942 125 L 942 128 L 946 132 L 947 132 L 948 133 L 949 133 L 950 134 L 966 134 L 967 133 L 970 133 L 976 127 L 976 125 L 977 124 L 977 121 L 976 120 L 976 118 L 975 117 L 975 116 L 974 115 L 974 114 L 972 112 L 972 111 L 969 108 L 969 106 L 967 104 L 965 104 L 964 103 L 961 103 L 960 104 "></path>
        <path fill="none" stroke="#fa00fa" stroke-width="3" d="M 54 345 L 53 346 L 52 346 L 51 347 L 50 347 L 49 348 L 48 348 L 44 352 L 43 352 L 41 354 L 41 358 L 42 359 L 42 360 L 45 363 L 45 364 L 46 365 L 46 367 L 47 368 L 47 371 L 50 374 L 51 374 L 52 375 L 53 375 L 54 376 L 56 376 L 57 377 L 63 377 L 64 376 L 66 376 L 73 369 L 73 368 L 74 367 L 74 365 L 76 363 L 76 360 L 77 359 L 77 356 L 72 351 L 72 350 L 70 348 L 69 348 L 67 346 L 63 346 L 62 345 L 54 345 L 53 346 "></path>
        <path fill="none" stroke="#fa00fa" stroke-width="3" d="M 925 614 L 924 615 L 923 615 L 920 618 L 918 618 L 916 620 L 916 622 L 915 623 L 915 627 L 916 628 L 916 635 L 917 636 L 917 638 L 918 639 L 918 641 L 920 643 L 921 643 L 922 644 L 925 644 L 926 645 L 935 645 L 936 644 L 938 644 L 939 643 L 941 643 L 942 642 L 943 642 L 946 639 L 946 636 L 947 635 L 947 624 L 946 623 L 946 622 L 941 617 L 940 617 L 939 616 L 937 616 L 936 615 L 935 615 L 934 614 L 925 614 L 924 615 "></path>
        <path fill="none" stroke="#fa00fa" stroke-width="3" d="M 206 13 L 205 14 L 204 14 L 203 15 L 202 15 L 201 16 L 200 16 L 199 17 L 198 17 L 197 18 L 197 19 L 196 20 L 195 20 L 193 22 L 193 23 L 192 24 L 192 30 L 193 31 L 193 33 L 194 34 L 194 35 L 201 42 L 202 42 L 203 43 L 205 43 L 206 44 L 207 43 L 209 43 L 213 39 L 215 39 L 216 38 L 217 38 L 218 39 L 219 38 L 222 38 L 223 37 L 224 37 L 227 34 L 227 23 L 219 15 L 217 15 L 216 14 L 215 14 L 214 13 L 206 13 L 205 14 "></path>
        <path fill="none" stroke="#fa00fa" stroke-width="3" d="M 990 314 L 989 315 L 986 315 L 984 317 L 982 317 L 981 318 L 981 319 L 978 322 L 978 323 L 977 324 L 977 327 L 976 328 L 976 329 L 973 332 L 973 333 L 972 334 L 973 335 L 973 337 L 974 338 L 974 339 L 978 343 L 979 343 L 981 345 L 983 345 L 984 346 L 987 346 L 988 347 L 994 347 L 996 345 L 997 345 L 999 343 L 999 342 L 1000 341 L 1000 340 L 1001 339 L 1001 338 L 1002 337 L 1002 335 L 1003 334 L 1003 332 L 1004 331 L 1004 327 L 1005 326 L 1005 325 L 1004 324 L 1004 323 L 1003 322 L 1003 321 L 999 317 L 998 317 L 997 316 L 996 316 L 995 315 L 992 315 L 991 314 L 990 314 L 989 315 "></path>
        <path fill="none" stroke="#fa00fa" stroke-width="3" d="M 148 343 L 147 344 L 144 344 L 143 345 L 142 345 L 139 348 L 139 349 L 138 350 L 138 351 L 137 352 L 137 354 L 136 355 L 136 360 L 135 361 L 135 363 L 136 364 L 136 365 L 138 367 L 138 368 L 143 373 L 144 373 L 145 374 L 147 374 L 148 375 L 154 375 L 155 374 L 157 374 L 158 373 L 159 373 L 163 369 L 163 367 L 164 366 L 164 356 L 165 355 L 164 354 L 164 349 L 163 348 L 163 347 L 161 345 L 160 345 L 159 344 L 157 344 L 156 343 L 148 343 L 147 344 "></path>
        <path fill="none" stroke="#fa00fa" stroke-width="3" d="M 925 703 L 924 704 L 923 704 L 922 705 L 921 705 L 921 706 L 920 707 L 919 707 L 918 708 L 918 711 L 917 712 L 917 716 L 916 717 L 917 718 L 917 722 L 916 723 L 917 724 L 917 730 L 918 731 L 918 732 L 920 734 L 921 734 L 922 735 L 925 735 L 926 736 L 933 736 L 934 735 L 935 735 L 936 734 L 937 734 L 944 727 L 944 719 L 945 718 L 945 714 L 943 712 L 943 711 L 942 710 L 941 710 L 938 707 L 937 707 L 934 704 L 932 704 L 931 703 L 925 703 L 924 704 "></path>
        <path fill="none" stroke="#fa00fa" stroke-width="3" d="M 174 226 L 173 227 L 172 227 L 172 228 L 171 229 L 170 229 L 169 230 L 169 231 L 163 237 L 163 243 L 164 244 L 164 245 L 165 246 L 165 248 L 169 252 L 170 252 L 171 253 L 173 253 L 174 254 L 175 253 L 176 254 L 185 254 L 186 253 L 187 253 L 188 252 L 190 252 L 193 249 L 194 249 L 194 248 L 195 247 L 195 246 L 196 245 L 196 244 L 198 242 L 198 238 L 197 237 L 196 237 L 195 236 L 195 235 L 191 231 L 191 230 L 190 229 L 189 229 L 187 227 L 184 227 L 183 226 L 174 226 L 173 227 "></path>
        <path fill="none" stroke="#fa00fa" stroke-width="3" d="M 178 614 L 177 615 L 174 615 L 173 616 L 172 616 L 169 619 L 169 620 L 165 624 L 165 625 L 163 627 L 163 628 L 162 629 L 162 634 L 163 635 L 163 636 L 164 636 L 166 638 L 171 638 L 173 640 L 174 640 L 176 642 L 177 642 L 178 643 L 183 643 L 184 642 L 185 642 L 186 641 L 187 641 L 188 640 L 189 640 L 190 639 L 191 639 L 192 638 L 194 638 L 198 634 L 198 633 L 199 632 L 199 631 L 198 630 L 198 629 L 195 626 L 195 624 L 192 621 L 192 620 L 190 618 L 190 617 L 189 616 L 188 616 L 187 615 L 185 615 L 184 614 L 178 614 L 177 615 "></path>
        <path fill="none" stroke="#fa00fa" stroke-width="3" d="M 806 764 L 805 765 L 803 765 L 802 766 L 801 766 L 801 767 L 797 771 L 797 772 L 796 773 L 796 774 L 795 775 L 795 776 L 796 777 L 796 780 L 795 781 L 795 788 L 799 792 L 800 792 L 802 794 L 804 794 L 805 795 L 808 795 L 809 796 L 816 796 L 817 795 L 819 795 L 823 791 L 823 787 L 822 786 L 822 785 L 821 784 L 821 782 L 822 781 L 822 780 L 823 779 L 823 777 L 824 776 L 824 775 L 823 774 L 823 772 L 821 770 L 820 770 L 818 768 L 816 768 L 814 766 L 813 766 L 812 765 L 809 765 L 808 764 L 806 764 L 805 765 "></path>
        <path fill="none" stroke="#fa00fa" stroke-width="3" d="M 985 587 L 984 588 L 982 588 L 979 591 L 979 592 L 977 594 L 977 595 L 976 596 L 976 597 L 975 598 L 975 601 L 976 602 L 976 605 L 977 606 L 977 611 L 978 612 L 978 613 L 980 615 L 982 615 L 983 616 L 986 616 L 987 617 L 994 617 L 995 616 L 996 616 L 997 615 L 998 615 L 999 614 L 1000 614 L 1003 611 L 1003 610 L 1004 609 L 1004 602 L 1005 601 L 1005 600 L 1004 599 L 1004 597 L 1003 596 L 1003 595 L 1002 594 L 1002 592 L 1000 590 L 999 590 L 998 589 L 996 589 L 995 588 L 992 588 L 991 587 L 985 587 L 984 588 "></path>
        <path fill="none" stroke="#fa00fa" stroke-width="3" d="M 209 705 L 208 706 L 206 706 L 205 707 L 204 707 L 203 708 L 202 708 L 201 709 L 201 710 L 197 714 L 197 715 L 193 719 L 193 720 L 192 721 L 192 724 L 193 725 L 193 726 L 194 727 L 194 728 L 195 728 L 198 731 L 199 731 L 200 732 L 206 732 L 207 731 L 212 731 L 214 733 L 219 733 L 220 732 L 222 732 L 227 727 L 227 725 L 228 724 L 228 720 L 227 719 L 226 719 L 225 718 L 224 718 L 222 716 L 222 715 L 221 714 L 221 713 L 220 712 L 220 711 L 219 710 L 219 709 L 217 707 L 216 707 L 215 706 L 212 706 L 211 705 L 209 705 L 208 706 "></path>
        <path fill="none" stroke="#fa00fa" stroke-width="3" d="M 142 736 L 140 738 L 139 738 L 136 741 L 136 742 L 135 743 L 135 744 L 134 745 L 134 746 L 133 747 L 133 748 L 132 749 L 132 752 L 134 754 L 134 755 L 135 755 L 138 758 L 140 758 L 142 760 L 143 760 L 147 764 L 148 764 L 149 765 L 154 765 L 155 764 L 156 764 L 157 763 L 158 763 L 160 761 L 160 760 L 161 759 L 161 758 L 164 755 L 164 752 L 165 751 L 165 748 L 164 747 L 164 744 L 163 743 L 163 741 L 161 739 L 159 739 L 158 738 L 155 738 L 154 737 L 152 737 L 151 736 L 142 736 L 140 738 "></path>
        <path fill="none" stroke="#fa00fa" stroke-width="3" d="M 987 165 L 986 166 L 985 166 L 984 167 L 982 167 L 981 168 L 981 169 L 978 172 L 978 173 L 976 175 L 976 176 L 975 177 L 975 179 L 974 180 L 974 186 L 975 187 L 975 188 L 979 192 L 980 192 L 981 193 L 991 193 L 992 192 L 993 193 L 999 193 L 1000 192 L 1001 192 L 1005 188 L 1005 182 L 1004 181 L 1004 179 L 1003 178 L 1003 177 L 1002 176 L 1002 175 L 1001 174 L 1001 172 L 1000 171 L 1000 170 L 996 166 L 995 166 L 994 165 L 987 165 L 986 166 "></path>
        <path fill="none" stroke="#fa00fa" stroke-width="3" d="M 296 765 L 295 766 L 293 766 L 291 768 L 290 768 L 289 769 L 288 769 L 287 770 L 286 770 L 285 771 L 284 771 L 284 772 L 283 773 L 283 774 L 282 775 L 282 777 L 284 779 L 284 780 L 285 781 L 285 782 L 286 783 L 286 786 L 287 787 L 287 788 L 289 790 L 291 790 L 293 792 L 297 792 L 298 793 L 302 793 L 303 792 L 307 792 L 308 791 L 309 791 L 310 790 L 311 790 L 311 789 L 314 786 L 314 784 L 315 783 L 315 781 L 316 780 L 316 779 L 318 777 L 318 775 L 317 774 L 317 773 L 315 771 L 311 771 L 310 770 L 309 771 L 305 771 L 304 770 L 304 769 L 302 767 L 301 767 L 300 766 L 299 766 L 298 765 L 297 766 L 296 765 L 295 766 "></path>
        <path fill="none" stroke="#fa00fa" stroke-width="3" d="M 1049 730 L 1048 731 L 1047 731 L 1046 732 L 1045 732 L 1043 734 L 1042 734 L 1041 735 L 1040 735 L 1039 736 L 1038 736 L 1036 738 L 1035 738 L 1030 743 L 1030 747 L 1029 748 L 1029 750 L 1030 751 L 1030 752 L 1032 754 L 1032 755 L 1034 757 L 1034 758 L 1035 759 L 1035 760 L 1038 763 L 1040 763 L 1041 764 L 1044 764 L 1045 765 L 1046 765 L 1049 768 L 1050 768 L 1051 769 L 1053 769 L 1054 768 L 1054 730 L 1049 730 L 1048 731 "></path>
        <path fill="none" stroke="#fa00fa" stroke-width="3" d="M 326 13 L 325 14 L 324 14 L 323 15 L 322 15 L 319 18 L 319 19 L 318 20 L 318 21 L 317 22 L 317 35 L 318 36 L 319 36 L 320 37 L 320 38 L 321 39 L 321 40 L 322 41 L 322 42 L 325 45 L 326 45 L 327 46 L 332 46 L 333 45 L 336 45 L 337 44 L 337 43 L 340 40 L 340 39 L 341 38 L 341 32 L 340 31 L 340 30 L 341 29 L 341 28 L 343 26 L 343 22 L 342 21 L 342 20 L 341 19 L 341 18 L 340 17 L 340 16 L 339 15 L 338 15 L 337 14 L 335 14 L 334 13 L 326 13 L 325 14 "></path>
        <path fill="none" stroke="#fa00fa" stroke-width="3" d="M 927 164 L 926 165 L 925 165 L 924 166 L 923 166 L 922 167 L 921 167 L 915 173 L 915 180 L 916 181 L 916 185 L 917 186 L 917 187 L 918 188 L 919 188 L 921 190 L 923 190 L 924 191 L 928 191 L 929 190 L 930 191 L 931 190 L 932 191 L 939 191 L 940 190 L 941 190 L 942 189 L 942 188 L 943 187 L 943 184 L 944 183 L 944 181 L 945 180 L 945 174 L 944 173 L 944 171 L 943 170 L 943 169 L 939 165 L 936 165 L 935 164 L 927 164 L 926 165 "></path>
        <path fill="none" stroke="#fa00fa" stroke-width="3" d="M 752 1 L 751 2 L 752 3 L 752 4 L 755 7 L 756 7 L 758 9 L 760 9 L 766 15 L 767 15 L 768 16 L 769 16 L 770 17 L 776 17 L 777 18 L 783 18 L 784 17 L 790 17 L 791 16 L 792 16 L 793 15 L 794 15 L 799 10 L 800 10 L 801 9 L 802 9 L 807 4 L 807 1 L 752 1 L 751 2 "></path>
        <path fill="none" stroke="#fa00fa" stroke-width="3" d="M 389 15 L 388 16 L 386 16 L 381 21 L 381 23 L 380 24 L 380 25 L 379 26 L 379 27 L 380 28 L 380 30 L 381 31 L 380 32 L 380 34 L 379 35 L 379 37 L 378 38 L 378 39 L 379 40 L 379 41 L 383 45 L 385 45 L 386 46 L 389 46 L 390 47 L 391 46 L 394 46 L 395 45 L 396 45 L 397 44 L 398 44 L 399 43 L 399 42 L 402 39 L 402 38 L 403 37 L 403 33 L 407 29 L 407 26 L 406 25 L 406 23 L 402 19 L 401 19 L 399 17 L 398 17 L 397 16 L 396 16 L 395 15 L 389 15 L 388 16 "></path>
        <path fill="none" stroke="#fa00fa" stroke-width="3" d="M 1014 498 L 1013 499 L 1012 499 L 1011 500 L 1010 500 L 1008 502 L 1008 503 L 1007 504 L 1007 505 L 1003 509 L 1003 516 L 1004 517 L 1004 518 L 1005 518 L 1007 520 L 1008 520 L 1010 522 L 1011 522 L 1012 523 L 1013 523 L 1015 525 L 1024 525 L 1025 524 L 1026 524 L 1027 523 L 1028 523 L 1031 520 L 1032 520 L 1035 517 L 1035 512 L 1034 511 L 1034 510 L 1032 508 L 1032 504 L 1031 503 L 1031 502 L 1029 500 L 1028 500 L 1027 499 L 1025 499 L 1024 498 L 1016 498 L 1015 499 L 1014 498 L 1013 499 "></path>
        <path fill="none" stroke="#fa00fa" stroke-width="3" d="M 202 139 L 201 140 L 197 140 L 194 143 L 194 155 L 197 158 L 198 158 L 199 159 L 200 159 L 202 161 L 205 161 L 206 162 L 216 162 L 217 161 L 218 162 L 220 160 L 222 160 L 227 155 L 227 148 L 226 147 L 226 143 L 223 140 L 215 140 L 214 139 L 213 140 L 212 139 L 202 139 L 201 140 "></path>
        <path fill="none" stroke="#fa00fa" stroke-width="3" d="M 331 1 L 331 3 L 332 4 L 332 5 L 334 7 L 335 7 L 337 9 L 338 9 L 339 10 L 340 10 L 341 11 L 343 11 L 344 12 L 345 12 L 346 13 L 348 13 L 350 15 L 352 15 L 353 16 L 355 16 L 356 17 L 364 17 L 365 16 L 368 16 L 369 15 L 371 15 L 372 14 L 374 14 L 375 13 L 376 13 L 377 12 L 378 12 L 380 10 L 382 10 L 383 9 L 384 9 L 388 5 L 388 4 L 389 3 L 389 1 L 331 1 L 331 3 "></path>
        <path fill="none" stroke="#fa00fa" stroke-width="3" d="M 960 496 L 959 497 L 956 497 L 955 498 L 954 498 L 952 500 L 952 506 L 951 507 L 950 507 L 949 508 L 949 509 L 947 511 L 946 511 L 946 512 L 945 513 L 945 517 L 951 523 L 952 523 L 954 525 L 955 525 L 956 526 L 963 526 L 964 525 L 965 525 L 966 524 L 967 524 L 969 522 L 970 522 L 973 519 L 974 519 L 975 518 L 976 518 L 976 517 L 977 516 L 977 511 L 976 510 L 976 509 L 973 506 L 973 505 L 971 503 L 971 502 L 967 498 L 965 498 L 964 497 L 961 497 L 960 496 L 959 497 "></path>
        <path fill="none" stroke="#fa00fa" stroke-width="3" d="M 117 678 L 115 680 L 114 680 L 114 681 L 110 685 L 109 685 L 108 686 L 105 686 L 104 687 L 103 687 L 101 689 L 101 693 L 104 696 L 105 696 L 106 697 L 107 697 L 108 698 L 109 698 L 111 700 L 111 701 L 114 704 L 116 704 L 117 705 L 123 705 L 124 704 L 126 704 L 127 703 L 128 703 L 130 701 L 130 700 L 133 697 L 134 697 L 134 696 L 136 694 L 136 687 L 132 683 L 132 682 L 129 679 L 128 679 L 127 678 L 117 678 L 115 680 "></path>
        <path fill="none" stroke="#fa00fa" stroke-width="3" d="M 1050 547 L 1049 548 L 1048 548 L 1047 549 L 1046 549 L 1043 552 L 1042 552 L 1035 559 L 1035 560 L 1034 561 L 1034 565 L 1033 566 L 1033 570 L 1032 571 L 1033 572 L 1033 575 L 1034 575 L 1037 578 L 1037 579 L 1041 583 L 1042 583 L 1043 584 L 1044 584 L 1047 587 L 1048 587 L 1049 588 L 1053 588 L 1054 587 L 1054 547 L 1050 547 L 1049 548 "></path>
        <path fill="none" stroke="#fa00fa" stroke-width="3" d="M 810 226 L 809 227 L 806 227 L 801 232 L 801 233 L 798 236 L 797 236 L 794 239 L 794 243 L 795 244 L 795 247 L 796 248 L 796 249 L 800 253 L 801 253 L 802 254 L 803 254 L 804 255 L 805 255 L 806 256 L 807 255 L 808 256 L 811 256 L 812 255 L 816 255 L 817 254 L 818 254 L 819 253 L 820 253 L 820 251 L 821 250 L 821 249 L 822 248 L 822 247 L 824 245 L 824 240 L 823 239 L 823 238 L 822 238 L 821 237 L 821 236 L 820 235 L 820 234 L 819 233 L 819 231 L 818 230 L 818 229 L 817 229 L 815 227 L 814 227 L 813 226 L 810 226 L 809 227 "></path>
        <path fill="none" stroke="#fa00fa" stroke-width="3" d="M 58 433 L 57 434 L 54 434 L 53 435 L 52 435 L 51 436 L 50 436 L 47 439 L 47 440 L 46 441 L 46 444 L 49 447 L 49 448 L 51 450 L 51 457 L 50 458 L 50 459 L 51 460 L 51 461 L 52 462 L 53 462 L 54 463 L 57 463 L 58 464 L 59 464 L 60 463 L 61 463 L 62 464 L 63 463 L 66 463 L 68 461 L 68 460 L 70 458 L 70 457 L 74 453 L 74 445 L 73 444 L 73 443 L 72 442 L 72 441 L 71 440 L 71 439 L 66 434 L 64 434 L 63 433 L 58 433 L 57 434 "></path>
        <path fill="none" stroke="#fa00fa" stroke-width="3" d="M 83 408 L 82 409 L 80 409 L 79 410 L 77 410 L 76 411 L 75 411 L 73 413 L 73 414 L 72 415 L 72 416 L 71 417 L 71 418 L 70 419 L 70 420 L 71 421 L 71 422 L 76 427 L 76 428 L 77 429 L 77 430 L 78 431 L 80 431 L 81 432 L 82 432 L 83 433 L 85 433 L 86 434 L 91 434 L 93 432 L 94 432 L 100 426 L 102 426 L 104 424 L 104 423 L 105 422 L 105 419 L 102 416 L 101 416 L 99 414 L 99 413 L 96 410 L 96 409 L 95 409 L 94 408 L 85 408 L 84 409 L 83 408 L 82 409 "></path>
        <path fill="none" stroke="#fa00fa" stroke-width="3" d="M 864 678 L 863 679 L 861 679 L 860 680 L 857 680 L 855 682 L 854 682 L 853 683 L 853 689 L 854 690 L 854 691 L 856 693 L 856 697 L 858 699 L 859 699 L 862 702 L 865 702 L 866 703 L 872 703 L 873 702 L 875 702 L 877 700 L 878 700 L 880 698 L 880 697 L 882 695 L 882 693 L 883 692 L 883 691 L 885 689 L 886 689 L 887 688 L 887 683 L 886 682 L 885 682 L 884 681 L 883 681 L 882 680 L 879 680 L 878 679 L 877 680 L 876 680 L 875 679 L 872 679 L 871 678 L 864 678 L 863 679 "></path>
        <path fill="none" stroke="#fa00fa" stroke-width="3" d="M 898 140 L 897 141 L 896 141 L 895 142 L 894 141 L 893 142 L 891 142 L 890 141 L 889 142 L 886 142 L 885 143 L 884 143 L 882 145 L 882 146 L 881 147 L 881 149 L 882 150 L 882 153 L 883 154 L 883 156 L 884 157 L 884 158 L 885 159 L 886 159 L 887 160 L 889 160 L 890 161 L 893 161 L 894 162 L 897 162 L 898 163 L 899 163 L 900 162 L 901 162 L 902 163 L 903 162 L 906 162 L 908 160 L 909 160 L 913 156 L 913 154 L 914 153 L 914 152 L 915 151 L 915 150 L 917 148 L 917 143 L 916 142 L 915 142 L 914 141 L 903 141 L 902 140 L 901 141 L 900 141 L 899 140 L 898 140 L 897 141 "></path>
        <path fill="none" stroke="#fa00fa" stroke-width="3" d="M 182 315 L 181 316 L 177 316 L 176 317 L 173 317 L 172 318 L 172 319 L 170 321 L 170 323 L 169 324 L 169 326 L 168 327 L 168 334 L 169 335 L 169 336 L 171 338 L 171 339 L 172 340 L 172 341 L 173 342 L 173 343 L 174 343 L 175 344 L 177 344 L 178 345 L 184 345 L 185 344 L 187 344 L 189 342 L 190 342 L 192 340 L 192 339 L 193 338 L 193 337 L 195 335 L 195 333 L 196 332 L 196 330 L 194 328 L 194 327 L 193 327 L 192 326 L 192 324 L 191 323 L 191 320 L 189 318 L 189 317 L 188 317 L 187 316 L 184 316 L 183 315 L 182 315 L 181 316 "></path>
        <path fill="none" stroke="#fa00fa" stroke-width="3" d="M 838 105 L 837 106 L 835 106 L 834 107 L 833 107 L 830 110 L 830 112 L 829 113 L 829 117 L 828 118 L 828 120 L 827 121 L 827 122 L 826 123 L 826 125 L 827 126 L 827 127 L 835 135 L 836 135 L 837 136 L 844 136 L 845 135 L 847 135 L 850 132 L 850 131 L 851 130 L 851 129 L 852 128 L 852 123 L 851 122 L 851 121 L 850 120 L 850 118 L 851 117 L 851 112 L 850 111 L 850 109 L 849 108 L 848 108 L 846 106 L 843 106 L 842 105 L 838 105 L 837 106 "></path>
        <path fill="none" stroke="#fa00fa" stroke-width="3" d="M 1049 642 L 1047 644 L 1046 644 L 1045 645 L 1044 645 L 1043 646 L 1042 646 L 1041 647 L 1040 647 L 1030 657 L 1030 660 L 1031 661 L 1031 662 L 1033 664 L 1033 667 L 1034 668 L 1034 669 L 1035 670 L 1036 670 L 1038 672 L 1039 672 L 1040 673 L 1041 673 L 1043 675 L 1044 675 L 1045 676 L 1046 676 L 1047 677 L 1048 677 L 1050 679 L 1054 679 L 1054 644 L 1052 642 L 1049 642 L 1047 644 "></path>
        <path fill="none" stroke="#fa00fa" stroke-width="3" d="M 805 707 L 804 708 L 802 708 L 799 711 L 798 711 L 795 714 L 795 718 L 794 719 L 794 723 L 795 724 L 795 725 L 797 727 L 800 727 L 801 728 L 805 728 L 806 729 L 807 728 L 815 728 L 816 729 L 823 729 L 824 728 L 826 728 L 828 726 L 828 725 L 829 724 L 829 720 L 826 717 L 826 716 L 824 714 L 824 712 L 822 710 L 821 710 L 819 708 L 816 708 L 815 707 L 805 707 L 804 708 "></path>
        <path fill="none" stroke="#fa00fa" stroke-width="3" d="M 839 345 L 838 346 L 837 346 L 836 347 L 834 347 L 833 348 L 832 348 L 831 349 L 830 349 L 830 350 L 829 351 L 829 352 L 828 353 L 828 355 L 827 356 L 827 358 L 828 359 L 828 362 L 827 363 L 827 364 L 828 365 L 828 367 L 829 368 L 829 369 L 830 370 L 830 371 L 832 373 L 833 373 L 834 374 L 837 374 L 838 375 L 843 375 L 844 374 L 847 374 L 849 372 L 850 372 L 850 371 L 851 370 L 851 367 L 852 366 L 852 365 L 853 364 L 853 361 L 852 360 L 852 356 L 851 355 L 851 353 L 850 352 L 850 351 L 848 349 L 848 348 L 847 347 L 847 346 L 845 346 L 844 345 L 839 345 L 838 346 "></path>
        <path fill="none" stroke="#fa00fa" stroke-width="3" d="M 266 197 L 265 198 L 264 198 L 263 199 L 262 199 L 259 202 L 258 202 L 258 203 L 257 204 L 257 205 L 256 206 L 256 208 L 255 209 L 255 214 L 256 215 L 256 216 L 257 217 L 257 218 L 258 219 L 259 219 L 260 220 L 261 220 L 262 221 L 264 221 L 265 222 L 269 222 L 270 223 L 271 222 L 273 222 L 274 223 L 275 222 L 279 222 L 280 221 L 282 221 L 285 218 L 285 211 L 284 210 L 284 206 L 283 205 L 283 204 L 278 199 L 275 199 L 274 198 L 272 198 L 271 197 L 266 197 L 265 198 "></path>
        <path fill="none" stroke="#fa00fa" stroke-width="3" d="M 54 498 L 53 499 L 50 499 L 48 501 L 47 501 L 44 504 L 44 510 L 45 511 L 45 512 L 46 513 L 46 515 L 50 519 L 51 519 L 52 520 L 56 520 L 57 521 L 64 521 L 65 520 L 68 520 L 69 519 L 71 519 L 75 515 L 75 512 L 76 511 L 76 505 L 75 504 L 75 503 L 74 502 L 74 501 L 73 501 L 72 500 L 71 500 L 70 499 L 67 499 L 66 498 L 54 498 L 53 499 "></path>
        <path fill="none" stroke="#fa00fa" stroke-width="3" d="M 265 135 L 264 136 L 263 136 L 262 137 L 261 137 L 260 138 L 260 139 L 258 141 L 258 148 L 257 149 L 257 153 L 258 154 L 258 155 L 260 157 L 260 160 L 262 162 L 264 162 L 266 164 L 275 164 L 276 163 L 277 163 L 278 162 L 279 162 L 280 161 L 280 159 L 281 158 L 281 156 L 282 155 L 282 146 L 281 145 L 282 144 L 282 142 L 281 141 L 281 140 L 278 137 L 276 137 L 274 135 L 265 135 L 264 136 "></path>
        <path fill="none" stroke="#fa00fa" stroke-width="3" d="M 174 76 L 173 77 L 171 77 L 169 79 L 168 79 L 163 84 L 163 85 L 162 86 L 162 88 L 161 89 L 161 92 L 164 95 L 165 95 L 166 96 L 169 96 L 170 97 L 171 97 L 173 99 L 174 99 L 175 100 L 180 100 L 181 99 L 184 99 L 185 98 L 186 98 L 187 97 L 190 97 L 191 96 L 192 96 L 193 95 L 195 95 L 197 93 L 198 93 L 198 89 L 194 85 L 193 85 L 191 83 L 190 83 L 187 80 L 186 80 L 184 78 L 183 78 L 182 77 L 180 77 L 179 76 L 174 76 L 173 77 "></path>
        <path fill="none" stroke="#fa00fa" stroke-width="3" d="M 150 137 L 149 138 L 146 138 L 144 140 L 143 140 L 142 141 L 142 142 L 141 143 L 141 144 L 137 148 L 136 148 L 135 149 L 134 149 L 133 150 L 133 153 L 138 158 L 138 159 L 139 160 L 140 160 L 142 162 L 143 162 L 144 163 L 145 163 L 146 164 L 147 164 L 148 163 L 149 164 L 151 164 L 152 163 L 155 163 L 156 162 L 159 162 L 161 160 L 162 160 L 165 157 L 166 157 L 166 156 L 167 155 L 167 154 L 168 153 L 168 151 L 167 150 L 167 149 L 166 148 L 165 148 L 164 147 L 161 147 L 159 145 L 159 143 L 158 142 L 158 141 L 155 138 L 152 138 L 151 137 L 150 137 L 149 138 "></path>
        <path fill="none" stroke="#fa00fa" stroke-width="3" d="M 865 106 L 864 107 L 863 107 L 862 108 L 861 108 L 861 109 L 860 110 L 860 111 L 859 112 L 859 113 L 858 114 L 858 116 L 859 117 L 859 118 L 858 119 L 858 121 L 856 123 L 856 125 L 855 126 L 856 127 L 856 129 L 857 130 L 857 131 L 859 133 L 861 133 L 862 134 L 866 134 L 867 133 L 873 133 L 874 132 L 876 132 L 877 131 L 878 131 L 880 129 L 881 129 L 882 128 L 882 122 L 881 121 L 882 120 L 882 116 L 883 115 L 883 114 L 882 113 L 882 111 L 880 109 L 879 109 L 878 108 L 875 108 L 874 107 L 871 107 L 870 106 L 865 106 L 864 107 "></path>
        <path fill="none" stroke="#fa00fa" stroke-width="3" d="M 777 196 L 776 197 L 773 197 L 772 198 L 770 198 L 768 200 L 768 201 L 767 202 L 767 208 L 768 209 L 768 210 L 769 211 L 769 215 L 770 216 L 770 220 L 774 224 L 781 224 L 782 225 L 783 224 L 787 224 L 790 221 L 790 214 L 791 213 L 791 211 L 792 210 L 792 209 L 793 208 L 793 207 L 794 206 L 794 201 L 792 199 L 791 199 L 790 198 L 788 198 L 787 197 L 779 197 L 778 196 L 777 196 L 776 197 "></path>
        <path fill="none" stroke="#fa00fa" stroke-width="3" d="M 55 795 L 54 796 L 53 796 L 51 798 L 50 798 L 50 799 L 49 800 L 49 801 L 45 805 L 44 805 L 43 806 L 42 806 L 40 808 L 40 812 L 41 813 L 41 814 L 81 814 L 81 809 L 76 804 L 76 803 L 75 802 L 75 801 L 74 800 L 74 799 L 72 797 L 71 797 L 70 796 L 68 796 L 67 795 L 55 795 L 54 796 "></path>
        <path fill="none" stroke="#fa00fa" stroke-width="3" d="M 1051 97 L 1048 100 L 1047 100 L 1043 104 L 1042 104 L 1041 105 L 1041 106 L 1040 107 L 1040 110 L 1037 113 L 1034 113 L 1033 114 L 1031 114 L 1029 116 L 1029 120 L 1030 121 L 1030 122 L 1032 124 L 1033 124 L 1034 125 L 1035 124 L 1036 125 L 1040 125 L 1042 127 L 1042 128 L 1043 129 L 1043 131 L 1044 132 L 1044 133 L 1045 134 L 1046 134 L 1047 135 L 1048 135 L 1050 137 L 1054 137 L 1054 97 L 1051 97 L 1048 100 "></path>
        <path fill="none" stroke="#fa00fa" stroke-width="3" d="M 634 1 L 634 3 L 639 8 L 640 8 L 646 14 L 647 14 L 648 15 L 649 15 L 650 16 L 653 16 L 654 17 L 666 17 L 667 16 L 669 16 L 671 14 L 671 13 L 674 10 L 675 10 L 676 9 L 679 9 L 680 8 L 681 8 L 684 5 L 684 4 L 685 3 L 685 1 L 634 1 L 634 3 "></path>
        <path fill="none" stroke="#fa00fa" stroke-width="3" d="M 2 152 L 1 153 L 1 201 L 4 201 L 5 200 L 7 200 L 10 197 L 10 196 L 11 195 L 11 194 L 12 193 L 13 193 L 14 192 L 15 192 L 16 191 L 16 190 L 18 188 L 18 186 L 17 185 L 17 183 L 16 182 L 16 180 L 15 179 L 15 177 L 14 176 L 14 173 L 15 172 L 15 171 L 14 170 L 14 168 L 13 167 L 13 164 L 12 163 L 12 162 L 11 161 L 11 160 L 10 159 L 10 158 L 8 156 L 8 155 L 6 153 L 4 153 L 3 152 L 2 152 L 1 153 "></path>
        <path fill="none" stroke="#fa00fa" stroke-width="3" d="M 178 105 L 176 107 L 175 107 L 173 109 L 173 110 L 172 111 L 172 115 L 171 116 L 171 117 L 169 119 L 169 120 L 168 121 L 168 124 L 169 125 L 169 126 L 170 127 L 170 131 L 171 132 L 171 133 L 173 135 L 176 135 L 177 136 L 184 136 L 185 135 L 186 135 L 188 133 L 189 133 L 192 130 L 192 127 L 193 126 L 193 121 L 192 120 L 192 119 L 191 119 L 188 116 L 189 115 L 189 111 L 187 109 L 187 108 L 186 107 L 185 107 L 184 106 L 183 106 L 182 105 L 178 105 L 176 107 "></path>
        <path fill="none" stroke="#fa00fa" stroke-width="3" d="M 695 1 L 695 5 L 698 8 L 699 8 L 701 10 L 704 10 L 706 12 L 707 12 L 709 14 L 710 14 L 711 15 L 712 15 L 713 16 L 717 16 L 718 17 L 723 17 L 724 16 L 727 16 L 728 15 L 729 15 L 733 11 L 734 11 L 735 10 L 738 10 L 739 9 L 740 9 L 741 8 L 742 8 L 745 5 L 745 4 L 746 3 L 746 2 L 745 1 L 695 1 L 695 5 "></path>
        <path fill="none" stroke="#fa00fa" stroke-width="3" d="M 2 547 L 1 548 L 1 593 L 2 594 L 3 594 L 4 593 L 5 593 L 8 590 L 8 589 L 12 585 L 12 583 L 13 582 L 13 581 L 14 580 L 14 579 L 15 578 L 15 577 L 16 576 L 16 560 L 14 558 L 14 556 L 13 556 L 12 555 L 12 554 L 6 548 L 4 548 L 3 547 L 2 547 L 1 548 "></path>
        <path fill="none" stroke="#fa00fa" stroke-width="3" d="M 234 647 L 232 649 L 230 649 L 227 652 L 227 658 L 226 659 L 226 660 L 225 661 L 225 666 L 227 668 L 228 668 L 229 669 L 232 669 L 233 670 L 234 670 L 235 669 L 237 669 L 238 670 L 239 669 L 240 669 L 241 670 L 243 670 L 244 669 L 245 670 L 246 670 L 247 669 L 250 669 L 251 668 L 252 668 L 253 667 L 253 663 L 252 662 L 252 659 L 253 658 L 253 653 L 251 651 L 249 651 L 248 650 L 244 650 L 242 648 L 240 648 L 239 647 L 234 647 L 232 649 "></path>
        <path fill="none" stroke="#fa00fa" stroke-width="3" d="M 390 78 L 389 79 L 382 79 L 381 80 L 379 80 L 378 81 L 377 81 L 377 82 L 376 83 L 377 84 L 377 86 L 378 87 L 378 95 L 380 97 L 380 99 L 381 100 L 381 101 L 383 103 L 384 103 L 385 104 L 389 104 L 390 103 L 391 103 L 391 102 L 392 101 L 395 101 L 396 100 L 399 100 L 403 96 L 403 91 L 402 90 L 402 89 L 400 87 L 401 86 L 401 81 L 400 81 L 398 79 L 395 79 L 394 78 L 393 79 L 392 79 L 391 78 L 390 78 L 389 79 "></path>
        <path fill="none" stroke="#fa00fa" stroke-width="3" d="M 326 648 L 325 649 L 322 649 L 319 652 L 319 653 L 318 654 L 318 656 L 319 657 L 319 660 L 317 662 L 317 663 L 316 664 L 316 668 L 317 669 L 320 669 L 321 670 L 325 670 L 326 671 L 327 670 L 328 670 L 329 671 L 333 671 L 334 672 L 335 671 L 336 671 L 337 672 L 338 672 L 339 671 L 340 671 L 341 670 L 342 670 L 343 669 L 343 668 L 344 667 L 344 665 L 342 663 L 342 662 L 341 661 L 341 658 L 342 657 L 342 654 L 338 650 L 337 650 L 336 651 L 335 650 L 332 650 L 331 649 L 328 649 L 327 648 L 326 648 L 325 649 "></path>
        <path fill="none" stroke="#fa00fa" stroke-width="3" d="M 648 83 L 647 84 L 645 84 L 644 85 L 643 85 L 641 87 L 641 88 L 642 89 L 642 90 L 644 92 L 645 92 L 652 99 L 652 100 L 654 102 L 655 102 L 656 103 L 663 103 L 664 102 L 666 102 L 669 99 L 670 99 L 673 96 L 674 96 L 677 93 L 677 90 L 678 89 L 677 88 L 677 87 L 674 84 L 668 84 L 667 85 L 666 84 L 665 85 L 663 85 L 662 84 L 661 85 L 659 85 L 658 84 L 655 84 L 654 83 L 652 83 L 651 84 L 650 83 L 648 83 L 647 84 "></path>
        <path fill="none" stroke="#fa00fa" stroke-width="3" d="M 866 799 L 865 800 L 861 800 L 860 801 L 859 801 L 853 807 L 851 807 L 850 808 L 849 808 L 848 809 L 848 810 L 847 811 L 847 814 L 892 814 L 893 813 L 893 812 L 892 811 L 892 810 L 890 808 L 889 808 L 888 807 L 887 807 L 886 806 L 885 806 L 881 802 L 880 802 L 878 800 L 867 800 L 866 799 L 865 800 "></path>
        <path fill="none" stroke="#fa00fa" stroke-width="3" d="M 778 76 L 777 77 L 774 77 L 773 78 L 772 78 L 771 79 L 771 80 L 770 81 L 770 82 L 769 83 L 769 84 L 767 86 L 767 92 L 768 93 L 768 94 L 769 95 L 769 96 L 770 97 L 771 97 L 772 98 L 773 98 L 774 99 L 775 98 L 785 98 L 786 99 L 790 99 L 792 97 L 793 97 L 794 96 L 794 95 L 795 94 L 795 88 L 794 87 L 794 86 L 793 86 L 791 84 L 790 84 L 789 83 L 788 83 L 787 82 L 787 80 L 786 79 L 786 78 L 785 78 L 784 77 L 779 77 L 778 76 L 777 77 "></path>
        <path fill="none" stroke="#fa00fa" stroke-width="3" d="M 2 100 L 1 101 L 1 140 L 4 140 L 5 139 L 6 139 L 10 135 L 10 134 L 13 131 L 13 129 L 14 128 L 14 127 L 15 126 L 15 125 L 18 122 L 18 121 L 19 120 L 19 117 L 16 114 L 16 113 L 12 109 L 12 107 L 11 106 L 11 105 L 9 105 L 6 102 L 5 102 L 4 101 L 3 101 L 2 100 L 1 101 "></path>
        <path fill="none" stroke="#fa00fa" stroke-width="3" d="M 266 796 L 264 798 L 263 798 L 262 799 L 262 800 L 261 801 L 261 802 L 260 803 L 260 805 L 259 806 L 258 806 L 256 808 L 253 808 L 250 811 L 250 814 L 290 814 L 290 812 L 289 811 L 289 810 L 286 807 L 285 807 L 284 806 L 283 806 L 282 805 L 282 804 L 280 802 L 280 801 L 279 800 L 279 799 L 278 798 L 277 798 L 276 797 L 275 797 L 274 796 L 266 796 L 264 798 "></path>
        <path fill="none" stroke="#fa00fa" stroke-width="3" d="M 210 797 L 209 798 L 206 798 L 205 799 L 203 799 L 202 800 L 201 800 L 195 806 L 193 806 L 192 807 L 192 808 L 191 809 L 191 813 L 192 814 L 226 814 L 226 809 L 225 808 L 225 807 L 223 805 L 223 803 L 222 802 L 222 801 L 218 797 L 210 797 L 209 798 "></path>
        <path fill="none" stroke="#fa00fa" stroke-width="3" d="M 30 438 L 29 439 L 26 439 L 23 442 L 22 442 L 20 444 L 19 444 L 17 446 L 16 446 L 15 447 L 15 448 L 14 449 L 14 452 L 15 453 L 15 454 L 16 455 L 17 455 L 18 456 L 19 456 L 20 457 L 21 457 L 25 461 L 27 461 L 28 462 L 29 461 L 30 462 L 31 461 L 34 461 L 35 460 L 37 460 L 40 457 L 40 456 L 41 455 L 42 455 L 42 454 L 43 453 L 43 451 L 42 450 L 42 449 L 41 449 L 40 448 L 40 446 L 39 445 L 39 444 L 38 443 L 38 442 L 37 442 L 34 439 L 31 439 L 30 438 L 29 439 "></path>
        <path fill="none" stroke="#fa00fa" stroke-width="3" d="M 386 798 L 385 799 L 383 799 L 382 800 L 381 800 L 380 801 L 378 801 L 374 805 L 374 806 L 373 807 L 373 809 L 374 810 L 374 813 L 375 814 L 405 814 L 406 813 L 406 807 L 405 806 L 405 805 L 401 801 L 400 801 L 398 799 L 395 799 L 394 798 L 386 798 L 385 799 "></path>
        <path fill="none" stroke="#fa00fa" stroke-width="3" d="M 780 797 L 779 798 L 772 798 L 771 799 L 769 799 L 769 800 L 768 801 L 767 801 L 766 802 L 766 810 L 765 811 L 765 813 L 766 814 L 788 814 L 789 813 L 791 813 L 791 812 L 792 811 L 792 809 L 793 808 L 793 802 L 790 799 L 788 799 L 786 797 L 780 797 L 779 798 "></path>
    </g>
</svg>
