<svg xmlns="http://www.w3.org/2000/svg" xmlns:xlink="http://www.w3.org/1999/xlink" version="1.1" x="0" y="0" width="1056px" height="816px">
    <g id="rootLayer" transform="translate(0.000000, 0.000000)">
        <path fill="none" stroke="#fa00fa" stroke-width="3" d="M 659 353 L 658 354 L 657 354 L 656 355 L 654 355 L 652 357 L 652 358 L 651 359 L 651 371 L 652 372 L 652 375 L 654 377 L 655 377 L 656 378 L 659 378 L 660 379 L 662 379 L 663 378 L 664 379 L 665 379 L 666 380 L 664 382 L 661 382 L 660 383 L 659 383 L 657 385 L 657 387 L 656 388 L 656 393 L 655 394 L 655 397 L 656 398 L 656 401 L 658 403 L 658 404 L 659 404 L 661 406 L 665 406 L 666 407 L 667 406 L 668 406 L 669 407 L 670 407 L 671 406 L 675 406 L 676 405 L 677 405 L 679 403 L 679 402 L 680 401 L 680 397 L 681 396 L 681 391 L 680 390 L 680 388 L 679 387 L 679 386 L 676 383 L 675 383 L 674 382 L 671 382 L 670 381 L 667 381 L 666 380 L 666 379 L 668 377 L 670 377 L 672 375 L 673 375 L 675 373 L 675 372 L 676 371 L 676 365 L 675 364 L 676 363 L 676 360 L 675 359 L 675 358 L 672 355 L 671 355 L 670 354 L 668 354 L 667 353 L 659 353 L 658 354 "></path>
        <path fill="none" stroke="#fa00fa" stroke-width="3" d="M 601 323 L 600 324 L 597 324 L 595 326 L 594 326 L 592 328 L 592 330 L 591 331 L 591 335 L 590 336 L 590 339 L 591 340 L 591 343 L 592 344 L 591 345 L 591 348 L 592 349 L 592 352 L 598 358 L 600 358 L 601 359 L 606 359 L 607 358 L 610 358 L 612 356 L 613 356 L 615 354 L 615 353 L 616 352 L 616 335 L 615 334 L 615 331 L 614 330 L 614 329 L 613 328 L 613 327 L 612 326 L 611 326 L 610 325 L 609 325 L 608 324 L 604 324 L 603 323 L 601 323 L 600 324 "></path>
        <path fill="none" stroke="#fa00fa" stroke-width="3" d="M 645 295 L 644 296 L 642 296 L 640 298 L 639 298 L 636 301 L 636 302 L 635 303 L 635 312 L 636 313 L 636 314 L 637 315 L 637 316 L 639 318 L 640 318 L 642 320 L 643 320 L 644 321 L 651 321 L 652 320 L 654 320 L 656 318 L 657 318 L 659 316 L 659 315 L 660 314 L 660 313 L 661 312 L 661 305 L 660 304 L 660 301 L 659 300 L 659 299 L 658 298 L 657 298 L 655 296 L 652 296 L 651 295 L 645 295 L 644 296 "></path>
        <path fill="none" stroke="#fa00fa" stroke-width="3" d="M 489 368 L 488 369 L 485 369 L 480 374 L 480 377 L 479 378 L 479 384 L 480 385 L 480 387 L 481 388 L 481 389 L 485 393 L 487 393 L 488 394 L 496 394 L 497 393 L 498 393 L 499 392 L 500 392 L 503 389 L 503 388 L 504 387 L 504 386 L 505 385 L 505 384 L 504 383 L 505 382 L 504 381 L 504 375 L 503 374 L 503 373 L 501 371 L 500 371 L 498 369 L 495 369 L 494 368 L 489 368 L 488 369 "></path>
        <path fill="none" stroke="#fa00fa" stroke-width="3" d="M 529 226 L 528 227 L 525 227 L 520 232 L 520 233 L 519 234 L 519 244 L 520 245 L 520 246 L 521 247 L 521 248 L 523 250 L 524 250 L 525 251 L 534 251 L 535 250 L 538 250 L 539 249 L 542 249 L 543 248 L 543 247 L 544 246 L 544 240 L 545 239 L 545 235 L 544 234 L 544 233 L 543 232 L 543 231 L 541 229 L 540 229 L 539 228 L 536 228 L 535 227 L 532 227 L 531 226 L 529 226 L 528 227 "></path>
        <path fill="none" stroke="#fa00fa" stroke-width="3" d="M 614 361 L 613 362 L 610 362 L 607 365 L 606 365 L 605 366 L 605 367 L 604 368 L 604 371 L 603 372 L 603 378 L 604 379 L 604 380 L 605 381 L 605 382 L 609 386 L 612 386 L 613 387 L 619 387 L 620 386 L 622 386 L 624 384 L 625 384 L 627 382 L 627 381 L 628 380 L 628 378 L 629 377 L 628 376 L 628 369 L 627 368 L 627 367 L 622 362 L 620 362 L 619 361 L 614 361 L 613 362 "></path>
        <path fill="none" stroke="#fa00fa" stroke-width="3" d="M 1019 743 L 1018 744 L 1016 744 L 1015 745 L 1014 745 L 1012 747 L 1012 748 L 1011 749 L 1011 750 L 1012 751 L 1012 754 L 1016 758 L 1017 758 L 1018 759 L 1022 759 L 1023 758 L 1024 758 L 1025 757 L 1026 757 L 1028 755 L 1028 754 L 1029 753 L 1029 748 L 1028 747 L 1028 746 L 1027 746 L 1026 745 L 1024 745 L 1023 744 L 1020 744 L 1019 743 L 1018 744 "></path>
        <path fill="none" stroke="#fa00fa" stroke-width="3" d="M 26 352 L 22 356 L 22 358 L 21 359 L 21 360 L 22 361 L 22 364 L 24 366 L 25 366 L 26 367 L 31 367 L 32 366 L 35 366 L 38 363 L 38 356 L 37 355 L 37 354 L 36 354 L 34 352 L 26 352 L 22 356 "></path>
        <path fill="none" stroke="#fa00fa" stroke-width="3" d="M 1017 232 L 1014 235 L 1014 236 L 1013 237 L 1013 239 L 1012 240 L 1012 241 L 1013 242 L 1013 243 L 1015 245 L 1016 245 L 1019 248 L 1020 248 L 1021 247 L 1022 248 L 1023 247 L 1024 247 L 1026 245 L 1026 244 L 1027 243 L 1027 242 L 1028 241 L 1028 236 L 1027 235 L 1027 234 L 1026 233 L 1025 233 L 1024 232 L 1017 232 L 1014 235 "></path>
        <path fill="none" stroke="#fa00fa" stroke-width="3" d="M 57 743 L 56 744 L 55 744 L 52 747 L 52 748 L 51 749 L 51 751 L 52 752 L 52 753 L 54 755 L 56 755 L 57 756 L 59 756 L 60 755 L 61 755 L 62 756 L 63 755 L 66 755 L 69 752 L 69 747 L 65 743 L 57 743 L 56 744 "></path>
        <path fill="none" stroke="#fa00fa" stroke-width="3" d="M 957 622 L 956 623 L 955 623 L 953 625 L 953 626 L 952 627 L 952 633 L 953 634 L 953 635 L 954 636 L 955 636 L 956 637 L 957 637 L 958 638 L 960 638 L 961 637 L 963 637 L 965 635 L 965 634 L 966 633 L 966 625 L 964 623 L 963 623 L 962 622 L 957 622 L 956 623 "></path>
        <path fill="none" stroke="#fa00fa" stroke-width="3" d="M 57 144 L 55 146 L 54 146 L 53 147 L 53 148 L 52 149 L 52 150 L 51 151 L 51 153 L 52 154 L 52 155 L 54 157 L 55 157 L 56 158 L 63 158 L 64 157 L 65 157 L 67 155 L 67 153 L 68 152 L 68 151 L 67 150 L 67 149 L 66 148 L 66 147 L 65 146 L 64 146 L 62 144 L 57 144 L 55 146 "></path>
        <path fill="none" stroke="#fa00fa" stroke-width="3" d="M 1016 653 L 1015 654 L 1014 654 L 1013 655 L 1013 656 L 1012 657 L 1012 660 L 1014 662 L 1014 663 L 1016 665 L 1016 666 L 1018 668 L 1022 668 L 1023 667 L 1024 667 L 1026 665 L 1026 664 L 1027 663 L 1027 661 L 1028 660 L 1028 658 L 1027 657 L 1027 656 L 1025 654 L 1024 654 L 1023 653 L 1016 653 L 1015 654 "></path>
        <path fill="none" stroke="#fa00fa" stroke-width="3" d="M 987 263 L 986 264 L 985 264 L 984 265 L 984 266 L 983 267 L 983 274 L 984 275 L 984 276 L 985 277 L 987 277 L 988 278 L 992 278 L 993 277 L 994 277 L 996 275 L 996 274 L 997 273 L 997 271 L 998 270 L 997 269 L 997 267 L 996 266 L 996 265 L 995 264 L 994 264 L 993 263 L 987 263 L 986 264 "></path>
        <path fill="none" stroke="#fa00fa" stroke-width="3" d="M 838 52 L 836 54 L 835 54 L 833 56 L 833 63 L 834 64 L 834 65 L 835 65 L 838 68 L 842 68 L 844 66 L 845 66 L 846 65 L 846 63 L 847 62 L 847 57 L 846 56 L 846 55 L 844 53 L 842 53 L 841 52 L 838 52 L 836 54 "></path>
        <path fill="none" stroke="#fa00fa" stroke-width="3" d="M 958 262 L 956 264 L 955 264 L 955 265 L 954 266 L 954 268 L 953 269 L 953 272 L 954 273 L 954 275 L 956 277 L 957 277 L 958 278 L 962 278 L 963 277 L 964 277 L 967 274 L 967 268 L 966 267 L 966 266 L 965 265 L 965 264 L 964 264 L 962 262 L 958 262 L 956 264 "></path>
        <path fill="none" stroke="#fa00fa" stroke-width="3" d="M 238 22 L 237 23 L 236 23 L 236 24 L 234 26 L 234 28 L 233 29 L 233 33 L 234 34 L 234 35 L 236 37 L 237 37 L 238 38 L 242 38 L 243 37 L 244 37 L 246 35 L 246 34 L 247 33 L 247 29 L 246 28 L 246 26 L 245 25 L 245 24 L 244 23 L 243 23 L 242 22 L 238 22 L 237 23 "></path>
        <path fill="none" stroke="#fa00fa" stroke-width="3" d="M 989 533 L 988 534 L 986 534 L 982 538 L 982 542 L 984 544 L 984 545 L 985 545 L 986 546 L 987 546 L 988 547 L 992 547 L 993 546 L 995 546 L 998 543 L 998 542 L 999 541 L 999 539 L 998 538 L 998 537 L 997 536 L 996 536 L 994 534 L 992 534 L 991 533 L 989 533 L 988 534 "></path>
        <path fill="none" stroke="#fa00fa" stroke-width="3" d="M 89 173 L 88 174 L 86 174 L 84 176 L 84 177 L 82 179 L 82 181 L 83 182 L 83 184 L 86 187 L 93 187 L 94 186 L 95 186 L 97 184 L 97 182 L 98 181 L 98 180 L 97 179 L 97 176 L 96 175 L 96 174 L 95 174 L 94 173 L 89 173 L 88 174 "></path>
        <path fill="none" stroke="#fa00fa" stroke-width="3" d="M 118 773 L 117 774 L 116 774 L 112 778 L 112 782 L 113 783 L 113 784 L 116 787 L 117 787 L 118 788 L 119 787 L 123 787 L 124 786 L 125 786 L 126 785 L 126 784 L 127 783 L 127 782 L 128 781 L 128 779 L 127 778 L 127 777 L 124 774 L 123 774 L 122 773 L 118 773 L 117 774 "></path>
        <path fill="none" stroke="#fa00fa" stroke-width="3" d="M 30 622 L 29 623 L 27 623 L 26 624 L 25 624 L 25 625 L 23 627 L 23 629 L 22 630 L 22 631 L 23 632 L 23 633 L 24 634 L 24 635 L 25 636 L 27 636 L 28 637 L 31 637 L 32 636 L 34 636 L 37 633 L 37 632 L 38 631 L 38 627 L 37 626 L 37 625 L 36 625 L 34 623 L 31 623 L 30 622 L 29 623 "></path>
        <path fill="none" stroke="#fa00fa" stroke-width="3" d="M 1049 231 L 1048 232 L 1047 232 L 1044 235 L 1044 240 L 1043 241 L 1043 245 L 1044 246 L 1044 247 L 1045 248 L 1046 248 L 1047 249 L 1054 249 L 1054 231 L 1049 231 L 1048 232 "></path>
        <path fill="none" stroke="#fa00fa" stroke-width="3" d="M 988 232 L 987 233 L 986 233 L 984 235 L 984 237 L 983 238 L 983 239 L 982 240 L 982 242 L 984 244 L 984 245 L 985 245 L 986 246 L 988 246 L 989 247 L 991 247 L 992 246 L 994 246 L 997 243 L 997 242 L 998 241 L 998 240 L 997 239 L 997 238 L 996 237 L 996 236 L 995 235 L 995 234 L 994 233 L 993 233 L 992 232 L 988 232 L 987 233 "></path>
        <path fill="none" stroke="#fa00fa" stroke-width="3" d="M 29 262 L 28 263 L 26 263 L 25 264 L 24 264 L 24 265 L 22 267 L 22 272 L 26 276 L 32 276 L 33 275 L 34 275 L 35 274 L 36 274 L 37 273 L 37 271 L 38 270 L 38 268 L 36 266 L 36 265 L 34 263 L 31 263 L 30 262 L 29 262 L 28 263 "></path>
        <path fill="none" stroke="#fa00fa" stroke-width="3" d="M 178 142 L 177 143 L 176 143 L 176 144 L 174 146 L 174 154 L 177 157 L 181 157 L 182 158 L 183 157 L 185 157 L 187 155 L 187 149 L 186 148 L 186 145 L 184 143 L 183 143 L 182 142 L 178 142 L 177 143 "></path>
        <path fill="none" stroke="#fa00fa" stroke-width="3" d="M 58 54 L 57 55 L 56 55 L 55 56 L 54 56 L 53 57 L 53 58 L 52 59 L 52 60 L 53 61 L 53 64 L 54 65 L 54 66 L 55 66 L 56 67 L 57 67 L 58 68 L 63 68 L 65 66 L 66 66 L 66 65 L 68 63 L 68 59 L 67 58 L 67 57 L 66 56 L 65 56 L 64 55 L 63 55 L 62 54 L 61 55 L 60 55 L 59 54 L 58 54 L 57 55 "></path>
        <path fill="none" stroke="#fa00fa" stroke-width="3" d="M 117 173 L 116 174 L 115 174 L 115 175 L 114 176 L 114 179 L 113 180 L 114 181 L 114 184 L 117 187 L 118 187 L 119 188 L 120 188 L 121 187 L 122 188 L 123 187 L 124 187 L 127 184 L 127 183 L 128 182 L 128 179 L 127 178 L 127 177 L 126 176 L 126 175 L 125 175 L 124 174 L 123 174 L 122 173 L 117 173 L 116 174 "></path>
        <path fill="none" stroke="#fa00fa" stroke-width="3" d="M 838 142 L 837 143 L 836 143 L 833 146 L 833 148 L 832 149 L 833 150 L 833 152 L 834 153 L 834 154 L 836 156 L 837 156 L 838 157 L 839 157 L 840 156 L 843 156 L 846 153 L 846 152 L 847 151 L 847 146 L 846 145 L 846 144 L 845 144 L 844 143 L 843 143 L 842 142 L 838 142 L 837 143 "></path>
        <path fill="none" stroke="#fa00fa" stroke-width="3" d="M 58 775 L 57 776 L 55 776 L 54 777 L 53 777 L 52 778 L 52 782 L 53 783 L 53 784 L 55 786 L 56 786 L 58 788 L 62 788 L 63 787 L 64 787 L 65 786 L 66 786 L 68 784 L 68 783 L 69 782 L 69 780 L 65 776 L 64 776 L 63 775 L 58 775 L 57 776 "></path>
        <path fill="none" stroke="#fa00fa" stroke-width="3" d="M 89 383 L 88 384 L 86 384 L 83 387 L 83 390 L 82 391 L 83 392 L 83 394 L 86 397 L 87 397 L 88 398 L 92 398 L 93 397 L 94 397 L 96 395 L 96 394 L 97 393 L 97 389 L 96 388 L 96 386 L 95 386 L 93 384 L 91 384 L 90 383 L 89 383 L 88 384 "></path>
        <path fill="none" stroke="#fa00fa" stroke-width="3" d="M 958 354 L 957 355 L 956 355 L 953 358 L 953 359 L 952 360 L 952 364 L 954 366 L 955 366 L 956 367 L 957 367 L 958 368 L 962 368 L 964 366 L 965 366 L 967 364 L 967 363 L 968 362 L 968 361 L 967 360 L 967 359 L 966 358 L 966 357 L 964 355 L 963 355 L 962 354 L 958 354 L 957 355 "></path>
        <path fill="none" stroke="#fa00fa" stroke-width="3" d="M 1018 802 L 1017 803 L 1016 803 L 1015 804 L 1014 804 L 1013 805 L 1013 806 L 1012 807 L 1012 808 L 1011 809 L 1011 810 L 1012 811 L 1012 812 L 1013 813 L 1013 814 L 1026 814 L 1027 813 L 1027 812 L 1029 810 L 1029 808 L 1028 807 L 1028 806 L 1026 804 L 1025 804 L 1024 803 L 1023 803 L 1022 802 L 1021 803 L 1019 803 L 1018 802 L 1017 803 "></path>
        <path fill="none" stroke="#fa00fa" stroke-width="3" d="M 117 744 L 116 745 L 115 745 L 113 747 L 113 748 L 112 749 L 112 752 L 113 753 L 113 754 L 114 755 L 115 755 L 116 756 L 117 756 L 118 757 L 119 757 L 120 756 L 121 756 L 122 757 L 123 756 L 124 756 L 125 755 L 126 755 L 128 753 L 128 752 L 129 751 L 129 750 L 128 749 L 128 748 L 126 746 L 125 746 L 124 745 L 123 745 L 122 744 L 117 744 L 116 745 "></path>
        <path fill="none" stroke="#fa00fa" stroke-width="3" d="M 150 532 L 149 533 L 146 533 L 145 534 L 144 534 L 144 535 L 143 536 L 143 542 L 144 543 L 144 544 L 146 546 L 149 546 L 150 547 L 152 547 L 153 546 L 155 546 L 156 545 L 156 544 L 157 543 L 157 538 L 156 537 L 156 536 L 154 534 L 153 534 L 152 533 L 151 533 L 150 532 L 149 533 "></path>
        <path fill="none" stroke="#fa00fa" stroke-width="3" d="M 90 23 L 89 24 L 87 24 L 84 27 L 84 28 L 83 29 L 83 35 L 85 37 L 86 37 L 87 38 L 92 38 L 93 37 L 94 37 L 97 34 L 97 29 L 96 28 L 96 27 L 94 25 L 93 25 L 92 24 L 91 24 L 90 23 L 89 24 "></path>
        <path fill="none" stroke="#fa00fa" stroke-width="3" d="M 29 652 L 28 653 L 26 653 L 24 655 L 24 657 L 23 658 L 23 659 L 22 660 L 22 662 L 23 663 L 23 664 L 25 666 L 29 666 L 30 667 L 31 666 L 34 666 L 36 664 L 36 663 L 37 662 L 37 659 L 36 658 L 36 657 L 34 655 L 34 654 L 33 654 L 31 652 L 29 652 L 28 653 "></path>
        <path fill="none" stroke="#fa00fa" stroke-width="3" d="M 178 623 L 175 626 L 174 626 L 174 627 L 173 628 L 173 629 L 172 630 L 172 631 L 173 632 L 173 634 L 174 635 L 176 635 L 177 636 L 181 636 L 182 637 L 183 636 L 184 636 L 185 635 L 186 635 L 187 634 L 187 633 L 188 632 L 188 630 L 187 629 L 187 627 L 186 626 L 186 625 L 185 625 L 183 623 L 178 623 L 175 626 "></path>
        <path fill="none" stroke="#fa00fa" stroke-width="3" d="M 58 172 L 56 174 L 55 174 L 53 176 L 53 178 L 52 179 L 52 180 L 53 181 L 53 182 L 58 187 L 60 187 L 61 186 L 62 187 L 65 184 L 66 184 L 67 183 L 67 181 L 68 180 L 67 179 L 67 177 L 65 175 L 64 175 L 62 173 L 59 173 L 58 172 L 56 174 "></path>
        <path fill="none" stroke="#fa00fa" stroke-width="3" d="M 90 143 L 89 144 L 88 144 L 87 145 L 86 145 L 85 146 L 85 147 L 83 149 L 83 154 L 86 157 L 88 157 L 89 158 L 91 158 L 92 157 L 94 157 L 95 156 L 96 156 L 96 155 L 97 154 L 97 152 L 98 151 L 98 150 L 96 148 L 96 147 L 94 145 L 93 145 L 91 143 L 90 143 L 89 144 "></path>
        <path fill="none" stroke="#fa00fa" stroke-width="3" d="M 810 652 L 809 653 L 807 653 L 805 655 L 805 656 L 804 657 L 804 664 L 805 665 L 805 666 L 806 666 L 807 667 L 813 667 L 816 664 L 816 660 L 817 659 L 817 656 L 814 653 L 813 653 L 812 652 L 810 652 L 809 653 "></path>
        <path fill="none" stroke="#fa00fa" stroke-width="3" d="M 26 774 L 22 778 L 22 783 L 24 785 L 25 785 L 26 786 L 31 786 L 32 785 L 35 785 L 38 782 L 38 777 L 37 776 L 36 776 L 35 775 L 32 775 L 31 774 L 26 774 L 22 778 "></path>
        <path fill="none" stroke="#fa00fa" stroke-width="3" d="M 90 233 L 89 234 L 86 234 L 84 236 L 84 237 L 83 238 L 83 242 L 84 243 L 84 245 L 85 246 L 86 246 L 87 247 L 93 247 L 94 246 L 95 246 L 97 244 L 97 238 L 95 236 L 95 235 L 94 234 L 91 234 L 90 233 L 89 234 "></path>
        <path fill="none" stroke="#fa00fa" stroke-width="3" d="M 1049 561 L 1047 563 L 1046 563 L 1046 564 L 1044 566 L 1044 567 L 1043 568 L 1043 573 L 1047 577 L 1048 577 L 1049 578 L 1051 578 L 1052 579 L 1054 579 L 1054 561 L 1049 561 L 1047 563 "></path>
        <path fill="none" stroke="#fa00fa" stroke-width="3" d="M 867 383 L 866 384 L 865 384 L 865 385 L 864 386 L 864 387 L 863 388 L 863 393 L 866 396 L 869 396 L 870 397 L 871 397 L 872 396 L 875 396 L 876 395 L 876 394 L 877 393 L 877 388 L 876 387 L 876 386 L 874 384 L 872 384 L 871 383 L 867 383 L 866 384 "></path>
        <path fill="none" stroke="#fa00fa" stroke-width="3" d="M 117 653 L 116 654 L 116 655 L 114 657 L 114 658 L 113 659 L 113 660 L 112 661 L 113 662 L 113 664 L 114 665 L 115 665 L 116 666 L 117 666 L 118 667 L 123 667 L 125 665 L 126 665 L 126 664 L 127 663 L 127 659 L 126 658 L 126 657 L 122 653 L 117 653 L 116 654 "></path>
        <path fill="none" stroke="#fa00fa" stroke-width="3" d="M 145 624 L 144 625 L 144 626 L 143 627 L 143 629 L 142 630 L 142 631 L 147 636 L 149 636 L 150 637 L 152 637 L 153 636 L 155 636 L 158 633 L 158 629 L 154 625 L 153 625 L 152 624 L 145 624 L 144 625 "></path>
        <path fill="none" stroke="#fa00fa" stroke-width="3" d="M 929 52 L 928 53 L 926 53 L 924 55 L 924 61 L 925 62 L 925 64 L 927 66 L 928 66 L 929 67 L 931 67 L 932 66 L 934 66 L 936 64 L 936 63 L 937 62 L 937 57 L 936 56 L 936 55 L 934 53 L 932 53 L 931 52 L 929 52 L 928 53 "></path>
        <path fill="none" stroke="#fa00fa" stroke-width="3" d="M 990 563 L 989 564 L 987 564 L 986 565 L 985 565 L 983 567 L 983 572 L 984 573 L 984 574 L 986 576 L 994 576 L 998 572 L 998 568 L 997 567 L 997 566 L 996 566 L 994 564 L 991 564 L 990 563 L 989 564 "></path>
        <path fill="none" stroke="#fa00fa" stroke-width="3" d="M 927 742 L 925 744 L 925 745 L 924 746 L 924 750 L 925 751 L 925 755 L 927 757 L 929 757 L 930 758 L 931 757 L 932 757 L 935 754 L 935 753 L 936 752 L 936 751 L 937 750 L 937 749 L 936 748 L 936 746 L 935 745 L 935 744 L 933 742 L 927 742 L 925 744 "></path>
        <path fill="none" stroke="#fa00fa" stroke-width="3" d="M 26 55 L 24 57 L 24 58 L 23 59 L 23 64 L 26 67 L 34 67 L 37 64 L 37 63 L 38 62 L 38 59 L 37 58 L 37 57 L 36 56 L 35 56 L 34 55 L 26 55 L 24 57 "></path>
        <path fill="none" stroke="#fa00fa" stroke-width="3" d="M 1019 772 L 1018 773 L 1017 773 L 1014 776 L 1014 782 L 1016 784 L 1016 785 L 1017 786 L 1019 786 L 1020 787 L 1021 787 L 1022 786 L 1023 786 L 1026 783 L 1026 782 L 1027 781 L 1027 780 L 1028 779 L 1028 777 L 1027 776 L 1027 775 L 1026 774 L 1025 774 L 1024 773 L 1023 773 L 1022 772 L 1021 772 L 1020 773 L 1019 772 L 1018 773 "></path>
        <path fill="none" stroke="#fa00fa" stroke-width="3" d="M 450 742 L 449 743 L 446 743 L 444 745 L 444 746 L 443 747 L 443 750 L 444 751 L 444 752 L 445 753 L 445 754 L 447 756 L 453 756 L 456 753 L 456 752 L 457 751 L 457 746 L 454 743 L 452 743 L 451 742 L 450 742 L 449 743 "></path>
        <path fill="none" stroke="#fa00fa" stroke-width="3" d="M 837 23 L 837 24 L 836 25 L 835 25 L 834 26 L 834 27 L 833 28 L 833 32 L 834 33 L 834 34 L 835 34 L 837 36 L 843 36 L 845 34 L 847 34 L 847 33 L 848 32 L 848 29 L 847 28 L 847 27 L 843 23 L 837 23 L 837 24 "></path>
        <path fill="none" stroke="#fa00fa" stroke-width="3" d="M 898 143 L 897 144 L 896 144 L 895 145 L 894 145 L 893 146 L 893 153 L 894 154 L 894 155 L 895 155 L 897 157 L 902 157 L 904 155 L 904 153 L 906 151 L 906 150 L 907 149 L 907 147 L 904 144 L 903 144 L 902 143 L 898 143 L 897 144 "></path>
        <path fill="none" stroke="#fa00fa" stroke-width="3" d="M 1050 112 L 1049 113 L 1047 113 L 1046 114 L 1045 114 L 1044 115 L 1043 115 L 1042 116 L 1042 117 L 1041 118 L 1041 120 L 1042 121 L 1042 122 L 1046 126 L 1047 125 L 1048 126 L 1049 126 L 1050 127 L 1054 127 L 1054 112 L 1050 112 L 1049 113 "></path>
        <path fill="none" stroke="#fa00fa" stroke-width="3" d="M 989 292 L 988 293 L 987 293 L 984 296 L 984 298 L 983 299 L 983 300 L 984 301 L 984 303 L 987 306 L 988 306 L 989 307 L 993 307 L 995 305 L 995 304 L 996 303 L 996 301 L 997 300 L 996 299 L 996 296 L 995 295 L 995 294 L 994 294 L 993 293 L 992 293 L 991 292 L 989 292 L 988 293 "></path>
        <path fill="none" stroke="#fa00fa" stroke-width="3" d="M 630 773 L 629 774 L 626 774 L 623 777 L 623 778 L 622 779 L 622 780 L 623 781 L 623 782 L 624 783 L 624 784 L 626 786 L 629 786 L 630 787 L 631 786 L 633 786 L 634 785 L 635 785 L 636 784 L 636 783 L 638 781 L 638 780 L 637 779 L 637 778 L 635 776 L 635 775 L 634 775 L 633 774 L 631 774 L 630 773 L 629 774 "></path>
        <path fill="none" stroke="#fa00fa" stroke-width="3" d="M 150 263 L 149 264 L 148 264 L 147 265 L 146 265 L 144 267 L 144 268 L 143 269 L 143 272 L 144 273 L 144 274 L 147 277 L 152 277 L 153 276 L 155 276 L 156 275 L 156 274 L 157 273 L 157 268 L 155 266 L 155 265 L 154 264 L 151 264 L 150 263 L 149 264 "></path>
        <path fill="none" stroke="#fa00fa" stroke-width="3" d="M 29 804 L 28 805 L 25 805 L 24 806 L 23 806 L 21 808 L 21 811 L 22 812 L 22 814 L 37 814 L 38 813 L 38 812 L 39 811 L 39 808 L 36 805 L 32 805 L 31 804 L 29 804 L 28 805 "></path>
        <path fill="none" stroke="#fa00fa" stroke-width="3" d="M 297 683 L 296 684 L 295 684 L 293 686 L 293 689 L 294 690 L 294 691 L 295 692 L 295 695 L 297 697 L 303 697 L 304 696 L 304 693 L 305 692 L 305 691 L 306 690 L 306 689 L 307 688 L 307 687 L 306 686 L 306 685 L 305 684 L 304 684 L 303 683 L 297 683 L 296 684 "></path>
        <path fill="none" stroke="#fa00fa" stroke-width="3" d="M 1050 712 L 1048 714 L 1047 714 L 1046 715 L 1045 715 L 1045 716 L 1043 718 L 1043 719 L 1042 720 L 1042 723 L 1044 725 L 1044 726 L 1045 727 L 1048 727 L 1049 728 L 1051 728 L 1052 727 L 1054 727 L 1054 712 L 1052 712 L 1051 713 L 1050 712 L 1048 714 "></path>
        <path fill="none" stroke="#fa00fa" stroke-width="3" d="M 58 654 L 57 655 L 56 655 L 55 656 L 54 656 L 52 658 L 52 659 L 51 660 L 51 662 L 54 665 L 56 665 L 57 666 L 63 666 L 64 665 L 66 665 L 69 662 L 68 661 L 68 659 L 66 657 L 64 657 L 63 656 L 61 656 L 60 655 L 59 655 L 58 654 L 57 655 "></path>
        <path fill="none" stroke="#fa00fa" stroke-width="3" d="M 688 773 L 684 777 L 684 779 L 683 780 L 683 783 L 686 786 L 689 786 L 690 787 L 691 787 L 692 786 L 695 786 L 697 784 L 697 780 L 696 779 L 696 778 L 695 777 L 695 776 L 692 773 L 688 773 L 684 777 "></path>
        <path fill="none" stroke="#fa00fa" stroke-width="3" d="M 25 685 L 22 688 L 22 692 L 26 696 L 28 696 L 29 697 L 31 697 L 32 696 L 34 696 L 38 692 L 38 689 L 36 687 L 35 687 L 34 686 L 33 686 L 32 685 L 25 685 L 22 688 "></path>
        <path fill="none" stroke="#fa00fa" stroke-width="3" d="M 449 53 L 448 54 L 446 54 L 444 56 L 444 57 L 443 58 L 443 62 L 445 64 L 445 65 L 446 65 L 447 66 L 453 66 L 454 65 L 455 65 L 455 64 L 457 62 L 457 57 L 454 54 L 452 54 L 451 53 L 449 53 L 448 54 "></path>
        <path fill="none" stroke="#fa00fa" stroke-width="3" d="M 239 83 L 238 84 L 237 84 L 235 86 L 234 86 L 234 87 L 232 89 L 232 93 L 233 94 L 234 94 L 235 95 L 244 95 L 245 94 L 246 94 L 248 92 L 248 89 L 243 84 L 242 84 L 241 83 L 239 83 L 238 84 "></path>
        <path fill="none" stroke="#fa00fa" stroke-width="3" d="M 778 623 L 775 626 L 775 630 L 774 631 L 774 634 L 777 637 L 783 637 L 786 634 L 786 631 L 787 630 L 787 628 L 786 627 L 786 626 L 783 623 L 778 623 L 775 626 "></path>
        <path fill="none" stroke="#fa00fa" stroke-width="3" d="M 268 85 L 267 86 L 266 86 L 264 88 L 263 88 L 262 89 L 262 90 L 261 91 L 262 92 L 262 93 L 264 95 L 265 95 L 266 96 L 268 96 L 269 97 L 272 97 L 273 96 L 275 96 L 277 94 L 277 93 L 278 92 L 278 89 L 277 89 L 274 86 L 273 86 L 272 85 L 268 85 L 267 86 "></path>
        <path fill="none" stroke="#fa00fa" stroke-width="3" d="M 918 1 L 918 3 L 919 4 L 919 5 L 921 7 L 922 7 L 923 8 L 925 8 L 926 9 L 932 9 L 933 8 L 934 9 L 935 8 L 936 8 L 940 4 L 940 1 L 918 1 L 918 3 "></path>
        <path fill="none" stroke="#fa00fa" stroke-width="3" d="M 986 684 L 984 686 L 983 686 L 982 687 L 982 691 L 986 695 L 988 695 L 989 696 L 990 696 L 991 695 L 992 695 L 993 694 L 994 694 L 998 690 L 998 687 L 997 686 L 996 686 L 994 684 L 986 684 L 984 686 "></path>
        <path fill="none" stroke="#fa00fa" stroke-width="3" d="M 109 1 L 109 4 L 112 7 L 113 7 L 114 8 L 116 8 L 117 9 L 123 9 L 124 8 L 126 8 L 127 7 L 128 7 L 131 4 L 131 1 L 109 1 L 109 4 "></path>
        <path fill="none" stroke="#fa00fa" stroke-width="3" d="M 150 113 L 149 114 L 148 114 L 148 115 L 147 116 L 146 116 L 146 117 L 144 119 L 144 120 L 143 121 L 143 123 L 146 126 L 147 126 L 148 127 L 153 127 L 154 126 L 155 126 L 157 124 L 157 123 L 158 122 L 157 121 L 157 120 L 156 119 L 156 117 L 153 114 L 152 114 L 151 113 L 150 113 L 149 114 "></path>
        <path fill="none" stroke="#fa00fa" stroke-width="3" d="M 958 142 L 956 144 L 955 144 L 954 145 L 954 152 L 955 153 L 955 155 L 957 157 L 963 157 L 965 155 L 965 145 L 963 143 L 960 143 L 959 142 L 958 142 L 956 144 "></path>
        <path fill="none" stroke="#fa00fa" stroke-width="3" d="M 1017 22 L 1016 23 L 1015 23 L 1013 25 L 1013 29 L 1014 30 L 1014 31 L 1015 31 L 1018 34 L 1023 34 L 1024 33 L 1025 33 L 1026 32 L 1027 32 L 1027 31 L 1028 30 L 1028 28 L 1027 27 L 1027 26 L 1026 25 L 1026 24 L 1025 23 L 1024 23 L 1023 22 L 1017 22 L 1016 23 "></path>
        <path fill="none" stroke="#fa00fa" stroke-width="3" d="M 328 802 L 327 803 L 326 803 L 323 806 L 323 809 L 324 810 L 324 814 L 336 814 L 337 813 L 337 812 L 336 811 L 336 810 L 337 809 L 337 807 L 336 806 L 336 805 L 334 803 L 333 803 L 332 802 L 328 802 L 327 803 "></path>
        <path fill="none" stroke="#fa00fa" stroke-width="3" d="M 177 84 L 175 86 L 174 86 L 174 87 L 173 88 L 173 89 L 172 90 L 172 92 L 175 95 L 177 95 L 178 96 L 182 96 L 183 95 L 184 95 L 185 94 L 186 94 L 186 93 L 187 92 L 187 87 L 186 86 L 185 86 L 184 85 L 183 85 L 182 84 L 177 84 L 175 86 "></path>
        <path fill="none" stroke="#fa00fa" stroke-width="3" d="M 1050 472 L 1049 473 L 1047 473 L 1043 477 L 1042 477 L 1042 482 L 1046 486 L 1048 486 L 1049 487 L 1051 487 L 1052 486 L 1054 486 L 1054 473 L 1052 473 L 1051 472 L 1050 472 L 1049 473 "></path>
        <path fill="none" stroke="#fa00fa" stroke-width="3" d="M 869 652 L 868 653 L 866 653 L 865 654 L 865 657 L 864 658 L 864 663 L 865 664 L 865 665 L 866 666 L 867 666 L 868 667 L 872 667 L 873 666 L 874 666 L 875 665 L 875 655 L 873 653 L 872 653 L 871 652 L 869 652 L 868 653 "></path>
        <path fill="none" stroke="#fa00fa" stroke-width="3" d="M 179 323 L 178 324 L 177 324 L 175 326 L 175 328 L 174 329 L 174 332 L 175 333 L 175 334 L 178 337 L 182 337 L 183 336 L 184 336 L 187 333 L 187 328 L 183 324 L 181 324 L 180 323 L 179 323 L 178 324 "></path>
        <path fill="none" stroke="#fa00fa" stroke-width="3" d="M 298 23 L 297 24 L 296 24 L 295 25 L 295 27 L 294 28 L 294 34 L 297 37 L 303 37 L 305 35 L 305 34 L 306 33 L 306 29 L 305 28 L 305 27 L 304 26 L 304 25 L 303 24 L 302 24 L 301 23 L 298 23 L 297 24 "></path>
        <path fill="none" stroke="#fa00fa" stroke-width="3" d="M 990 803 L 989 804 L 986 804 L 983 807 L 983 810 L 984 811 L 984 812 L 985 813 L 987 813 L 988 814 L 995 814 L 996 813 L 997 813 L 998 812 L 998 811 L 999 810 L 999 809 L 998 808 L 998 807 L 994 803 L 990 803 L 989 804 "></path>
        <path fill="none" stroke="#fa00fa" stroke-width="3" d="M 957 443 L 955 445 L 955 446 L 954 447 L 954 448 L 955 449 L 955 455 L 956 456 L 957 456 L 958 457 L 962 457 L 963 456 L 964 456 L 964 455 L 965 454 L 965 453 L 966 452 L 966 446 L 964 444 L 963 444 L 962 443 L 957 443 L 955 445 "></path>
        <path fill="none" stroke="#fa00fa" stroke-width="3" d="M 58 23 L 57 24 L 56 24 L 54 26 L 54 28 L 53 29 L 53 30 L 54 31 L 54 32 L 55 32 L 56 33 L 56 34 L 58 36 L 63 36 L 67 32 L 67 31 L 68 30 L 68 28 L 66 26 L 65 26 L 63 24 L 60 24 L 59 23 L 58 23 L 57 24 "></path>
        <path fill="none" stroke="#fa00fa" stroke-width="3" d="M 329 174 L 328 175 L 326 175 L 324 177 L 324 185 L 325 186 L 327 186 L 328 187 L 334 187 L 336 185 L 336 183 L 337 182 L 336 181 L 336 178 L 335 177 L 335 176 L 334 175 L 332 175 L 331 174 L 329 174 L 328 175 "></path>
        <path fill="none" stroke="#fa00fa" stroke-width="3" d="M 989 594 L 988 595 L 986 595 L 983 598 L 983 601 L 984 602 L 984 603 L 987 606 L 988 606 L 989 607 L 991 607 L 992 606 L 994 606 L 996 604 L 996 602 L 997 601 L 997 598 L 995 596 L 995 595 L 992 595 L 991 594 L 989 594 L 988 595 "></path>
        <path fill="none" stroke="#fa00fa" stroke-width="3" d="M 120 323 L 119 324 L 118 324 L 116 326 L 116 327 L 115 328 L 114 328 L 114 329 L 113 330 L 113 333 L 116 336 L 117 336 L 118 337 L 122 337 L 123 336 L 124 336 L 125 335 L 126 335 L 126 330 L 125 329 L 125 326 L 123 324 L 122 324 L 121 323 L 120 323 L 119 324 "></path>
        <path fill="none" stroke="#fa00fa" stroke-width="3" d="M 30 83 L 29 84 L 27 84 L 25 86 L 25 88 L 24 89 L 24 94 L 26 96 L 29 96 L 30 97 L 31 97 L 32 96 L 35 96 L 36 95 L 36 94 L 37 93 L 36 92 L 37 91 L 36 90 L 36 88 L 35 87 L 35 86 L 33 84 L 31 84 L 30 83 L 29 84 "></path>
        <path fill="none" stroke="#fa00fa" stroke-width="3" d="M 149 744 L 148 745 L 145 745 L 144 746 L 144 747 L 143 748 L 143 752 L 147 756 L 149 756 L 150 757 L 151 756 L 153 756 L 157 752 L 157 748 L 154 745 L 152 745 L 151 744 L 149 744 L 148 745 "></path>
        <path fill="none" stroke="#fa00fa" stroke-width="3" d="M 358 802 L 357 803 L 356 803 L 354 805 L 354 807 L 353 808 L 353 809 L 354 810 L 354 813 L 355 814 L 364 814 L 366 812 L 366 810 L 367 809 L 367 807 L 366 806 L 366 805 L 364 803 L 363 803 L 362 802 L 360 802 L 359 803 L 358 802 L 357 803 "></path>
        <path fill="none" stroke="#fa00fa" stroke-width="3" d="M 170 1 L 169 2 L 169 3 L 170 4 L 170 5 L 172 7 L 173 7 L 174 8 L 184 8 L 185 7 L 187 7 L 188 6 L 189 6 L 192 3 L 192 1 L 170 1 L 169 2 "></path>
        <path fill="none" stroke="#fa00fa" stroke-width="3" d="M 90 353 L 89 354 L 86 354 L 83 357 L 83 360 L 84 361 L 84 363 L 86 365 L 87 365 L 88 366 L 92 366 L 93 365 L 94 365 L 95 364 L 95 361 L 96 360 L 96 356 L 95 355 L 95 354 L 94 354 L 93 353 L 92 354 L 91 353 L 90 353 L 89 354 "></path>
        <path fill="none" stroke="#fa00fa" stroke-width="3" d="M 1050 772 L 1048 774 L 1047 774 L 1045 776 L 1045 777 L 1044 778 L 1044 779 L 1043 780 L 1043 782 L 1045 784 L 1045 785 L 1046 786 L 1047 786 L 1048 787 L 1049 787 L 1050 788 L 1052 788 L 1053 787 L 1054 787 L 1054 774 L 1052 772 L 1050 772 L 1048 774 "></path>
        <path fill="none" stroke="#fa00fa" stroke-width="3" d="M 89 203 L 87 205 L 86 205 L 86 206 L 85 207 L 85 209 L 84 210 L 84 213 L 85 214 L 85 215 L 86 216 L 87 216 L 88 217 L 93 217 L 96 214 L 96 210 L 95 209 L 95 206 L 92 203 L 89 203 L 87 205 "></path>
        <path fill="none" stroke="#fa00fa" stroke-width="3" d="M 149 353 L 148 354 L 146 354 L 145 355 L 145 357 L 144 358 L 144 359 L 143 360 L 143 361 L 144 362 L 144 363 L 146 365 L 148 365 L 149 366 L 152 366 L 153 365 L 154 365 L 155 364 L 156 364 L 156 358 L 155 357 L 155 355 L 153 353 L 149 353 L 148 354 "></path>
        <path fill="none" stroke="#fa00fa" stroke-width="3" d="M 1050 683 L 1049 684 L 1046 684 L 1045 685 L 1044 685 L 1042 687 L 1042 688 L 1041 689 L 1042 690 L 1042 691 L 1043 691 L 1045 693 L 1045 694 L 1046 695 L 1047 695 L 1048 696 L 1049 696 L 1050 697 L 1054 697 L 1054 684 L 1053 683 L 1052 683 L 1051 684 L 1050 683 L 1049 684 "></path>
        <path fill="none" stroke="#fa00fa" stroke-width="3" d="M 929 383 L 928 384 L 927 384 L 924 387 L 924 392 L 925 393 L 925 394 L 927 396 L 929 396 L 930 397 L 931 396 L 933 396 L 935 394 L 935 393 L 936 392 L 936 387 L 935 386 L 935 385 L 934 384 L 932 384 L 931 383 L 929 383 L 928 384 "></path>
        <path fill="none" stroke="#fa00fa" stroke-width="3" d="M 837 804 L 836 805 L 835 805 L 833 807 L 833 808 L 832 809 L 832 814 L 847 814 L 848 813 L 848 810 L 847 809 L 847 808 L 846 807 L 844 807 L 842 805 L 841 805 L 840 804 L 837 804 L 836 805 "></path>
        <path fill="none" stroke="#fa00fa" stroke-width="3" d="M 88 444 L 87 445 L 85 445 L 84 446 L 84 450 L 83 451 L 83 452 L 86 455 L 88 455 L 89 456 L 91 456 L 92 455 L 95 455 L 97 453 L 97 450 L 96 449 L 96 447 L 94 445 L 93 445 L 92 444 L 88 444 L 87 445 "></path>
        <path fill="none" stroke="#fa00fa" stroke-width="3" d="M 840 682 L 839 683 L 837 683 L 834 686 L 834 687 L 833 688 L 833 690 L 834 691 L 834 692 L 836 694 L 837 694 L 838 695 L 839 694 L 844 694 L 847 691 L 847 688 L 846 687 L 846 686 L 845 685 L 845 684 L 844 684 L 843 683 L 841 683 L 840 682 L 839 683 "></path>
        <path fill="none" stroke="#fa00fa" stroke-width="3" d="M 178 804 L 177 805 L 176 805 L 175 806 L 174 806 L 173 807 L 173 813 L 174 814 L 186 814 L 187 813 L 187 812 L 188 811 L 188 808 L 186 806 L 185 806 L 184 805 L 183 805 L 182 804 L 178 804 L 177 805 "></path>
        <path fill="none" stroke="#fa00fa" stroke-width="3" d="M 597 84 L 596 85 L 594 85 L 593 86 L 593 87 L 592 88 L 593 89 L 593 91 L 594 92 L 594 93 L 596 95 L 597 95 L 598 96 L 602 96 L 604 94 L 604 93 L 607 90 L 607 87 L 606 86 L 604 86 L 603 85 L 600 85 L 599 84 L 597 84 L 596 85 "></path>
        <path fill="none" stroke="#fa00fa" stroke-width="3" d="M 57 84 L 53 88 L 53 92 L 58 97 L 62 97 L 63 96 L 63 95 L 65 93 L 65 92 L 66 91 L 66 89 L 65 88 L 65 87 L 62 84 L 57 84 L 53 88 "></path>
        <path fill="none" stroke="#fa00fa" stroke-width="3" d="M 990 773 L 989 774 L 985 774 L 982 777 L 982 779 L 988 785 L 991 785 L 992 784 L 993 784 L 997 780 L 997 776 L 996 775 L 995 775 L 994 774 L 991 774 L 990 773 L 989 774 "></path>
        <path fill="none" stroke="#fa00fa" stroke-width="3" d="M 777 594 L 776 595 L 775 595 L 775 596 L 774 597 L 774 602 L 776 604 L 776 605 L 777 606 L 779 606 L 780 607 L 782 607 L 784 605 L 785 605 L 785 604 L 786 603 L 786 597 L 784 595 L 783 595 L 782 594 L 777 594 L 776 595 "></path>
        <path fill="none" stroke="#fa00fa" stroke-width="3" d="M 891 1 L 891 4 L 892 5 L 892 6 L 894 8 L 896 8 L 897 9 L 903 9 L 904 8 L 906 8 L 910 4 L 910 1 L 891 1 L 891 4 "></path>
        <path fill="none" stroke="#fa00fa" stroke-width="3" d="M 237 204 L 233 208 L 233 212 L 235 214 L 236 214 L 238 216 L 242 216 L 245 213 L 246 213 L 246 207 L 243 204 L 237 204 L 233 208 "></path>
        <path fill="none" stroke="#fa00fa" stroke-width="3" d="M 1016 684 L 1015 685 L 1014 685 L 1012 687 L 1012 690 L 1014 692 L 1015 692 L 1016 693 L 1017 693 L 1018 694 L 1022 694 L 1024 692 L 1026 692 L 1028 690 L 1028 687 L 1026 685 L 1025 685 L 1024 684 L 1016 684 L 1015 685 "></path>
        <path fill="none" stroke="#fa00fa" stroke-width="3" d="M 300 653 L 299 654 L 297 654 L 295 656 L 295 657 L 294 658 L 294 659 L 295 660 L 295 665 L 297 667 L 300 667 L 301 668 L 302 667 L 303 667 L 304 666 L 304 665 L 305 664 L 305 656 L 303 654 L 302 654 L 301 653 L 300 653 L 299 654 "></path>
        <path fill="none" stroke="#fa00fa" stroke-width="3" d="M 598 803 L 596 805 L 596 807 L 594 809 L 594 810 L 593 811 L 593 812 L 594 813 L 594 814 L 608 814 L 608 811 L 607 810 L 607 809 L 606 808 L 606 807 L 605 806 L 605 805 L 603 803 L 598 803 L 596 805 "></path>
        <path fill="none" stroke="#fa00fa" stroke-width="3" d="M 297 85 L 297 86 L 295 88 L 294 88 L 294 89 L 293 90 L 293 92 L 294 93 L 294 94 L 295 95 L 296 95 L 298 97 L 302 97 L 304 95 L 305 95 L 306 94 L 306 93 L 307 92 L 307 89 L 306 88 L 305 88 L 304 87 L 304 86 L 303 85 L 297 85 L 297 86 "></path>
        <path fill="none" stroke="#fa00fa" stroke-width="3" d="M 1050 142 L 1049 143 L 1048 143 L 1047 144 L 1046 144 L 1044 146 L 1044 149 L 1045 150 L 1045 152 L 1049 156 L 1049 157 L 1050 158 L 1054 158 L 1054 142 L 1050 142 L 1049 143 "></path>
        <path fill="none" stroke="#fa00fa" stroke-width="3" d="M 119 503 L 118 504 L 117 504 L 116 505 L 115 505 L 114 506 L 114 511 L 115 512 L 115 513 L 118 516 L 123 516 L 124 515 L 124 514 L 126 512 L 126 510 L 127 509 L 126 508 L 126 507 L 123 504 L 120 504 L 119 503 L 118 504 "></path>
        <path fill="none" stroke="#fa00fa" stroke-width="3" d="M 958 594 L 957 595 L 956 595 L 954 597 L 954 598 L 953 599 L 953 601 L 954 602 L 954 603 L 955 603 L 956 604 L 956 605 L 957 606 L 962 606 L 965 603 L 965 602 L 966 601 L 966 597 L 963 594 L 958 594 L 957 595 "></path>
        <path fill="none" stroke="#fa00fa" stroke-width="3" d="M 231 1 L 230 2 L 230 3 L 231 4 L 231 5 L 232 6 L 233 6 L 234 7 L 236 7 L 237 8 L 245 8 L 246 7 L 247 7 L 248 6 L 249 6 L 250 5 L 250 4 L 251 3 L 251 1 L 231 1 L 230 2 "></path>
        <path fill="none" stroke="#fa00fa" stroke-width="3" d="M 177 743 L 176 744 L 176 745 L 174 747 L 174 752 L 177 755 L 182 755 L 185 752 L 186 752 L 186 746 L 183 743 L 177 743 L 176 744 "></path>
        <path fill="none" stroke="#fa00fa" stroke-width="3" d="M 630 684 L 629 685 L 627 685 L 626 686 L 625 686 L 625 687 L 623 689 L 623 690 L 622 691 L 623 692 L 623 693 L 624 694 L 625 694 L 626 695 L 634 695 L 635 694 L 636 694 L 637 693 L 637 690 L 636 689 L 636 688 L 634 686 L 633 686 L 632 685 L 631 685 L 630 684 L 629 685 "></path>
        <path fill="none" stroke="#fa00fa" stroke-width="3" d="M 238 113 L 236 115 L 236 116 L 235 117 L 235 120 L 236 121 L 236 125 L 237 126 L 243 126 L 245 124 L 245 123 L 246 122 L 246 118 L 245 117 L 245 116 L 242 113 L 238 113 L 236 115 "></path>
        <path fill="none" stroke="#fa00fa" stroke-width="3" d="M 357 84 L 355 86 L 355 88 L 354 89 L 354 91 L 355 92 L 355 93 L 356 94 L 356 95 L 357 96 L 358 96 L 359 97 L 360 96 L 363 96 L 365 94 L 365 93 L 366 92 L 366 89 L 365 88 L 365 87 L 362 84 L 357 84 L 355 86 "></path>
        <path fill="none" stroke="#fa00fa" stroke-width="3" d="M 358 113 L 356 115 L 355 115 L 354 116 L 354 122 L 356 124 L 357 124 L 358 125 L 363 125 L 366 122 L 366 117 L 363 114 L 360 114 L 359 113 L 358 113 L 356 115 "></path>
        <path fill="none" stroke="#fa00fa" stroke-width="3" d="M 210 804 L 209 805 L 206 805 L 204 807 L 204 814 L 216 814 L 217 813 L 217 809 L 216 808 L 216 806 L 215 805 L 213 805 L 212 804 L 210 804 L 209 805 "></path>
        <path fill="none" stroke="#fa00fa" stroke-width="3" d="M 868 805 L 867 806 L 866 806 L 865 807 L 864 807 L 863 808 L 863 809 L 862 810 L 862 811 L 865 814 L 877 814 L 878 813 L 878 811 L 877 810 L 877 809 L 874 806 L 873 806 L 872 805 L 868 805 L 867 806 "></path>
        <path fill="none" stroke="#fa00fa" stroke-width="3" d="M 88 83 L 87 84 L 86 84 L 85 85 L 85 87 L 84 88 L 84 90 L 85 91 L 85 93 L 86 94 L 87 94 L 88 95 L 89 95 L 90 96 L 92 94 L 93 94 L 95 92 L 95 91 L 96 90 L 96 88 L 95 87 L 95 86 L 94 85 L 94 84 L 93 84 L 92 83 L 88 83 L 87 84 "></path>
        <path fill="none" stroke="#fa00fa" stroke-width="3" d="M 651 1 L 651 4 L 654 7 L 656 7 L 657 8 L 664 8 L 665 7 L 666 7 L 668 5 L 668 4 L 669 3 L 669 1 L 651 1 L 651 4 "></path>
        <path fill="none" stroke="#fa00fa" stroke-width="3" d="M 2 262 L 1 263 L 1 279 L 4 279 L 8 275 L 8 273 L 9 272 L 9 270 L 8 269 L 8 266 L 5 263 L 4 263 L 3 262 L 2 262 L 1 263 "></path>
        <path fill="none" stroke="#fa00fa" stroke-width="3" d="M 1 173 L 1 190 L 2 191 L 3 191 L 4 190 L 5 190 L 7 188 L 7 186 L 8 185 L 8 178 L 7 177 L 7 176 L 5 174 L 4 174 L 3 173 L 1 173 L 1 190 "></path>
        <path fill="none" stroke="#fa00fa" stroke-width="3" d="M 150 444 L 148 446 L 146 446 L 145 447 L 145 448 L 144 449 L 144 452 L 147 455 L 149 455 L 150 456 L 151 455 L 153 455 L 155 453 L 155 452 L 156 451 L 156 449 L 155 448 L 155 447 L 153 445 L 151 445 L 150 444 L 148 446 "></path>
        <path fill="none" stroke="#fa00fa" stroke-width="3" d="M 1047 24 L 1043 28 L 1043 29 L 1044 30 L 1044 31 L 1045 32 L 1045 33 L 1046 34 L 1048 34 L 1049 35 L 1051 35 L 1052 34 L 1053 34 L 1054 33 L 1054 25 L 1053 25 L 1052 24 L 1047 24 L 1043 28 "></path>
        <path fill="none" stroke="#fa00fa" stroke-width="3" d="M 2 81 L 1 82 L 1 97 L 2 98 L 3 98 L 4 97 L 5 97 L 5 96 L 7 94 L 7 91 L 8 90 L 8 85 L 6 83 L 5 83 L 4 82 L 3 82 L 2 81 L 1 82 "></path>
        <path fill="none" stroke="#fa00fa" stroke-width="3" d="M 1 232 L 1 248 L 3 248 L 4 247 L 5 247 L 6 246 L 6 245 L 7 244 L 7 240 L 8 239 L 8 236 L 7 235 L 7 234 L 5 232 L 1 232 L 1 248 "></path>
    </g>
</svg>
