<svg xmlns="http://www.w3.org/2000/svg" xmlns:xlink="http://www.w3.org/1999/xlink" version="1.1" x="0" y="0" width="1056px" height="816px">
    <g id="rootLayer" transform="translate(0.000000, 0.000000)">
        <path fill="none" stroke="#fa00fa" stroke-width="3" d="M 665 1 L 664 2 L 664 5 L 667 8 L 668 8 L 669 9 L 670 9 L 671 10 L 672 10 L 673 11 L 675 11 L 676 12 L 679 12 L 680 13 L 683 13 L 684 14 L 686 14 L 687 15 L 690 15 L 691 16 L 694 16 L 695 17 L 696 17 L 697 18 L 698 18 L 699 19 L 700 19 L 701 20 L 702 20 L 703 21 L 704 21 L 705 22 L 706 22 L 707 23 L 710 23 L 711 24 L 715 24 L 716 25 L 720 25 L 721 26 L 723 26 L 724 27 L 728 27 L 729 28 L 738 28 L 743 33 L 743 34 L 746 37 L 747 37 L 748 38 L 749 38 L 750 39 L 752 39 L 753 40 L 757 40 L 758 41 L 768 41 L 769 40 L 772 40 L 773 39 L 774 39 L 775 38 L 776 38 L 779 35 L 780 35 L 781 34 L 782 34 L 783 33 L 785 33 L 786 32 L 794 32 L 795 31 L 800 31 L 801 30 L 803 30 L 804 29 L 806 29 L 807 28 L 809 28 L 810 27 L 811 27 L 812 26 L 813 26 L 814 25 L 815 25 L 816 24 L 818 24 L 819 23 L 820 23 L 821 22 L 823 22 L 824 21 L 825 21 L 826 20 L 828 20 L 829 19 L 831 19 L 832 18 L 835 18 L 836 17 L 837 17 L 838 16 L 839 16 L 844 11 L 848 11 L 853 16 L 854 16 L 855 17 L 856 17 L 857 18 L 859 18 L 860 19 L 862 19 L 863 20 L 865 20 L 866 21 L 868 21 L 869 22 L 871 22 L 872 23 L 874 23 L 875 24 L 876 24 L 877 25 L 879 25 L 880 26 L 881 26 L 882 27 L 883 27 L 884 28 L 885 28 L 886 29 L 887 29 L 888 30 L 889 30 L 890 31 L 891 31 L 892 32 L 893 32 L 894 33 L 896 33 L 897 34 L 900 34 L 902 36 L 902 37 L 899 40 L 898 40 L 894 44 L 894 45 L 893 46 L 893 57 L 894 58 L 894 60 L 896 62 L 896 63 L 898 65 L 898 68 L 897 69 L 897 70 L 896 71 L 896 77 L 897 78 L 897 79 L 898 80 L 898 81 L 899 82 L 899 83 L 900 84 L 900 85 L 901 86 L 901 87 L 902 88 L 902 89 L 910 97 L 911 97 L 912 98 L 913 98 L 914 99 L 915 99 L 916 100 L 917 100 L 918 101 L 919 101 L 920 102 L 921 102 L 924 105 L 925 105 L 926 106 L 927 106 L 928 107 L 935 107 L 936 106 L 938 106 L 939 107 L 940 107 L 941 108 L 941 109 L 943 111 L 943 112 L 945 114 L 945 115 L 949 119 L 950 119 L 951 120 L 952 120 L 953 121 L 954 121 L 955 122 L 957 122 L 958 123 L 964 123 L 965 124 L 970 124 L 971 125 L 972 125 L 973 124 L 977 124 L 978 123 L 982 123 L 983 122 L 986 122 L 987 121 L 997 121 L 998 122 L 1000 122 L 1001 123 L 1001 124 L 1000 125 L 999 125 L 997 127 L 996 127 L 995 128 L 994 128 L 993 129 L 992 129 L 990 131 L 989 131 L 986 134 L 986 135 L 985 136 L 985 151 L 982 154 L 981 154 L 977 158 L 977 159 L 976 160 L 976 161 L 975 162 L 975 163 L 974 164 L 974 165 L 972 167 L 972 168 L 969 171 L 969 172 L 967 174 L 967 175 L 965 177 L 965 179 L 964 180 L 964 187 L 965 188 L 965 190 L 966 191 L 966 192 L 967 193 L 967 194 L 969 196 L 969 197 L 971 199 L 971 200 L 972 201 L 972 203 L 974 205 L 974 206 L 977 209 L 977 210 L 979 212 L 979 213 L 980 214 L 980 215 L 981 216 L 981 217 L 987 223 L 988 223 L 989 224 L 991 224 L 992 225 L 996 225 L 997 226 L 1005 226 L 1006 227 L 1010 227 L 1011 228 L 1018 228 L 1019 227 L 1020 227 L 1021 226 L 1022 226 L 1024 224 L 1025 224 L 1026 225 L 1026 227 L 1027 228 L 1027 232 L 1028 233 L 1028 235 L 1029 236 L 1029 237 L 1030 238 L 1030 243 L 1027 246 L 1026 246 L 1025 247 L 1024 247 L 1023 246 L 1016 246 L 1015 247 L 1011 247 L 1010 248 L 1007 248 L 1006 249 L 1004 249 L 1003 250 L 1001 250 L 1000 251 L 999 251 L 998 252 L 997 252 L 991 258 L 991 259 L 990 260 L 990 261 L 989 262 L 989 263 L 988 264 L 988 266 L 986 268 L 986 269 L 984 271 L 983 271 L 978 276 L 978 277 L 975 280 L 975 281 L 974 282 L 974 284 L 973 285 L 973 287 L 974 288 L 974 291 L 975 292 L 973 294 L 962 294 L 961 295 L 960 295 L 959 296 L 958 296 L 957 297 L 957 298 L 954 301 L 953 301 L 952 302 L 950 300 L 950 298 L 949 297 L 950 296 L 950 289 L 949 288 L 949 284 L 948 283 L 948 281 L 947 280 L 947 279 L 944 276 L 944 275 L 943 274 L 942 274 L 941 273 L 940 273 L 939 272 L 937 272 L 936 271 L 934 271 L 933 272 L 931 272 L 929 270 L 929 266 L 930 265 L 930 262 L 929 261 L 929 259 L 922 252 L 921 252 L 914 245 L 913 245 L 910 242 L 909 242 L 908 241 L 906 241 L 905 240 L 891 240 L 890 241 L 883 241 L 882 242 L 879 242 L 878 243 L 877 243 L 876 244 L 875 244 L 874 245 L 873 245 L 871 247 L 870 247 L 864 253 L 864 254 L 862 256 L 862 257 L 861 258 L 861 260 L 860 261 L 860 263 L 861 264 L 861 267 L 862 268 L 862 270 L 863 271 L 862 272 L 862 273 L 860 275 L 859 275 L 854 280 L 854 282 L 853 283 L 853 293 L 854 294 L 854 297 L 855 298 L 855 299 L 856 300 L 856 301 L 857 302 L 857 303 L 858 304 L 858 305 L 862 309 L 862 310 L 866 314 L 866 315 L 871 320 L 873 320 L 874 321 L 878 321 L 879 320 L 880 320 L 883 323 L 883 328 L 884 329 L 884 330 L 889 335 L 890 335 L 892 337 L 893 337 L 894 338 L 895 338 L 896 339 L 897 339 L 898 340 L 899 340 L 900 341 L 902 341 L 903 342 L 906 342 L 907 343 L 913 343 L 914 344 L 923 344 L 924 343 L 927 343 L 929 341 L 930 341 L 933 338 L 935 338 L 936 339 L 936 346 L 937 347 L 937 349 L 938 350 L 938 351 L 939 352 L 939 353 L 940 354 L 940 355 L 941 356 L 941 357 L 942 358 L 942 359 L 944 361 L 944 362 L 948 366 L 949 366 L 951 368 L 953 368 L 954 369 L 955 369 L 956 370 L 959 370 L 960 371 L 963 371 L 964 372 L 967 372 L 968 373 L 972 373 L 973 374 L 976 374 L 977 375 L 984 375 L 985 374 L 987 374 L 988 373 L 989 373 L 990 372 L 991 372 L 994 369 L 995 369 L 1004 360 L 1004 359 L 1007 356 L 1008 356 L 1010 358 L 1010 360 L 1011 361 L 1011 362 L 1014 365 L 1015 365 L 1016 366 L 1019 366 L 1020 367 L 1025 367 L 1026 366 L 1028 366 L 1030 368 L 1030 370 L 1029 371 L 1029 373 L 1028 374 L 1028 380 L 1029 381 L 1029 382 L 1034 387 L 1035 387 L 1037 389 L 1038 389 L 1040 391 L 1040 401 L 1042 403 L 1042 404 L 1044 406 L 1044 407 L 1045 408 L 1045 409 L 1044 410 L 1044 411 L 1041 414 L 1041 415 L 1040 416 L 1040 427 L 1039 428 L 1039 429 L 1037 431 L 1036 431 L 1034 433 L 1033 433 L 1029 437 L 1029 438 L 1028 439 L 1028 442 L 1027 443 L 1027 445 L 1028 446 L 1028 449 L 1026 451 L 1019 451 L 1018 452 L 1017 452 L 1016 453 L 1015 453 L 1014 454 L 1014 455 L 1012 457 L 1012 459 L 1011 460 L 1011 461 L 1010 462 L 1010 463 L 1009 464 L 1009 465 L 1008 466 L 1008 467 L 1007 468 L 1007 469 L 1006 470 L 1006 472 L 1005 473 L 1005 475 L 1002 478 L 1000 478 L 999 477 L 997 477 L 996 476 L 991 476 L 990 477 L 986 477 L 985 478 L 982 478 L 981 479 L 980 479 L 979 480 L 978 480 L 976 482 L 973 482 L 971 480 L 971 479 L 964 472 L 963 472 L 958 467 L 957 467 L 955 465 L 954 465 L 953 464 L 952 464 L 951 463 L 949 463 L 948 462 L 944 462 L 943 461 L 940 461 L 939 462 L 932 462 L 931 463 L 925 463 L 924 464 L 922 464 L 921 465 L 920 465 L 919 466 L 918 466 L 917 467 L 916 467 L 914 469 L 913 469 L 910 472 L 910 473 L 908 475 L 908 477 L 907 478 L 907 480 L 906 481 L 906 482 L 905 483 L 905 484 L 904 485 L 904 486 L 902 488 L 902 489 L 900 491 L 900 493 L 899 494 L 899 502 L 900 503 L 900 505 L 901 506 L 901 507 L 902 508 L 902 509 L 903 510 L 903 512 L 904 513 L 904 514 L 905 515 L 905 516 L 906 517 L 906 518 L 907 519 L 907 520 L 908 521 L 908 522 L 909 523 L 909 524 L 918 533 L 919 533 L 920 534 L 921 534 L 922 535 L 923 535 L 924 536 L 926 536 L 927 537 L 930 537 L 931 538 L 934 538 L 935 539 L 946 539 L 947 538 L 949 538 L 950 537 L 951 537 L 952 536 L 953 536 L 956 533 L 958 533 L 959 534 L 959 541 L 960 542 L 960 543 L 961 544 L 961 545 L 963 547 L 963 548 L 970 555 L 971 555 L 972 556 L 973 556 L 974 557 L 975 557 L 976 558 L 977 558 L 978 559 L 979 559 L 980 560 L 982 560 L 983 561 L 986 561 L 987 562 L 1003 562 L 1004 561 L 1006 561 L 1007 560 L 1008 560 L 1009 559 L 1010 559 L 1011 558 L 1012 558 L 1013 557 L 1014 557 L 1015 556 L 1016 556 L 1018 554 L 1019 554 L 1023 550 L 1023 549 L 1025 547 L 1025 546 L 1026 545 L 1026 544 L 1027 543 L 1027 535 L 1026 534 L 1026 532 L 1025 531 L 1025 530 L 1028 527 L 1030 527 L 1032 529 L 1032 540 L 1033 541 L 1033 542 L 1034 543 L 1034 546 L 1035 547 L 1035 554 L 1036 555 L 1036 556 L 1037 557 L 1037 562 L 1036 563 L 1036 564 L 1035 565 L 1035 566 L 1034 567 L 1034 568 L 1033 569 L 1033 571 L 1032 572 L 1032 574 L 1031 575 L 1031 576 L 1028 579 L 1028 580 L 1027 581 L 1027 583 L 1026 584 L 1026 588 L 1027 589 L 1027 591 L 1025 593 L 1024 593 L 1023 592 L 1022 592 L 1021 591 L 1015 591 L 1014 592 L 1012 592 L 1010 594 L 1009 594 L 1004 599 L 1004 600 L 999 605 L 998 605 L 996 607 L 995 607 L 994 608 L 993 608 L 990 611 L 989 611 L 988 612 L 988 613 L 985 616 L 985 617 L 984 618 L 984 619 L 983 620 L 983 622 L 982 623 L 982 629 L 983 630 L 983 631 L 984 632 L 984 633 L 985 634 L 985 635 L 986 636 L 986 641 L 983 644 L 981 644 L 980 643 L 980 642 L 979 641 L 979 628 L 978 627 L 978 625 L 977 624 L 977 622 L 976 621 L 976 620 L 974 618 L 974 617 L 968 611 L 967 611 L 965 609 L 964 609 L 963 608 L 961 608 L 960 607 L 958 607 L 957 606 L 954 606 L 953 605 L 950 605 L 949 604 L 946 604 L 945 603 L 931 603 L 930 602 L 922 602 L 921 603 L 919 603 L 918 604 L 917 604 L 916 605 L 915 605 L 914 606 L 913 606 L 911 608 L 910 608 L 908 610 L 907 610 L 904 613 L 904 614 L 901 617 L 901 618 L 900 619 L 900 620 L 898 622 L 898 624 L 897 625 L 897 626 L 896 627 L 896 628 L 893 631 L 893 632 L 891 634 L 891 635 L 890 636 L 890 642 L 889 643 L 890 644 L 890 650 L 891 651 L 891 652 L 892 653 L 892 655 L 893 656 L 893 657 L 894 658 L 894 659 L 895 660 L 895 661 L 896 662 L 896 663 L 897 664 L 897 666 L 898 667 L 898 668 L 906 676 L 907 676 L 912 681 L 913 681 L 915 683 L 916 683 L 917 684 L 918 684 L 919 685 L 921 685 L 922 686 L 929 686 L 930 687 L 943 687 L 944 686 L 946 686 L 947 685 L 948 685 L 949 684 L 950 684 L 952 682 L 953 682 L 956 679 L 957 679 L 959 677 L 960 677 L 961 676 L 966 676 L 967 675 L 968 675 L 969 674 L 970 674 L 974 670 L 974 669 L 975 668 L 975 667 L 977 665 L 978 666 L 978 668 L 979 669 L 979 670 L 981 672 L 981 673 L 984 676 L 984 677 L 985 678 L 985 679 L 986 680 L 986 681 L 993 688 L 993 689 L 995 691 L 995 693 L 994 694 L 992 694 L 991 693 L 990 693 L 989 692 L 987 692 L 986 691 L 985 691 L 984 690 L 977 690 L 976 689 L 961 689 L 960 690 L 957 690 L 956 691 L 953 691 L 952 692 L 950 692 L 949 693 L 948 693 L 947 694 L 946 694 L 937 703 L 937 704 L 936 705 L 936 706 L 935 707 L 932 707 L 930 705 L 928 705 L 927 704 L 918 704 L 917 705 L 915 705 L 914 706 L 912 706 L 911 707 L 910 707 L 909 708 L 908 708 L 907 709 L 906 709 L 904 711 L 903 711 L 896 718 L 891 718 L 890 717 L 888 717 L 887 716 L 869 716 L 868 717 L 864 717 L 863 718 L 861 718 L 860 719 L 859 719 L 857 721 L 856 721 L 853 724 L 853 725 L 850 728 L 850 729 L 843 736 L 843 737 L 841 739 L 841 741 L 840 742 L 840 747 L 841 748 L 841 751 L 842 752 L 842 755 L 841 756 L 841 757 L 836 762 L 836 764 L 835 765 L 836 766 L 836 769 L 838 771 L 838 772 L 839 773 L 839 774 L 841 776 L 841 777 L 843 779 L 843 780 L 848 785 L 849 785 L 853 789 L 853 790 L 854 791 L 854 792 L 853 793 L 853 795 L 850 798 L 848 798 L 847 799 L 844 799 L 843 800 L 841 800 L 840 801 L 838 801 L 837 802 L 834 802 L 833 803 L 831 803 L 830 804 L 829 804 L 828 805 L 827 805 L 826 806 L 825 806 L 822 809 L 822 810 L 821 811 L 821 813 L 822 814 L 1054 814 L 1054 1 L 665 1 L 664 2 "></path>
        <path fill="none" stroke="#fa00fa" stroke-width="3" d="M 1 1 L 1 343 L 2 344 L 4 344 L 5 343 L 6 343 L 10 339 L 10 338 L 11 337 L 11 336 L 12 335 L 12 334 L 13 333 L 13 332 L 14 331 L 14 330 L 15 329 L 15 328 L 16 327 L 16 325 L 17 324 L 17 320 L 18 319 L 18 317 L 20 315 L 21 315 L 26 320 L 27 320 L 28 321 L 29 321 L 30 322 L 42 322 L 43 323 L 57 323 L 58 322 L 61 322 L 62 321 L 63 321 L 64 320 L 66 320 L 67 319 L 68 319 L 69 318 L 70 318 L 72 316 L 73 316 L 79 310 L 79 309 L 85 303 L 85 302 L 87 300 L 87 299 L 88 298 L 88 297 L 89 296 L 89 295 L 90 294 L 90 293 L 91 292 L 91 291 L 92 290 L 92 287 L 93 286 L 93 282 L 94 281 L 94 275 L 93 274 L 93 272 L 92 271 L 92 270 L 90 268 L 90 267 L 88 265 L 88 264 L 87 263 L 87 262 L 85 260 L 85 259 L 83 257 L 83 256 L 82 255 L 82 254 L 78 250 L 78 249 L 77 248 L 76 248 L 73 245 L 72 245 L 70 243 L 69 243 L 68 242 L 67 242 L 65 240 L 64 240 L 63 239 L 61 239 L 60 238 L 58 238 L 57 237 L 53 237 L 52 238 L 48 238 L 46 236 L 46 229 L 45 228 L 45 227 L 44 226 L 44 225 L 42 223 L 41 223 L 40 222 L 39 222 L 38 221 L 36 221 L 35 220 L 34 220 L 31 217 L 31 215 L 32 214 L 32 210 L 31 209 L 31 208 L 30 207 L 30 206 L 27 203 L 27 202 L 26 201 L 26 199 L 25 198 L 25 197 L 23 195 L 23 194 L 22 193 L 22 191 L 23 190 L 23 188 L 26 185 L 26 184 L 28 182 L 29 182 L 32 179 L 32 178 L 34 176 L 34 174 L 35 173 L 35 170 L 36 169 L 36 168 L 43 161 L 43 160 L 45 158 L 45 157 L 46 156 L 46 155 L 47 154 L 47 148 L 48 147 L 48 145 L 49 144 L 49 143 L 50 142 L 50 140 L 51 139 L 51 135 L 52 134 L 52 127 L 50 125 L 50 124 L 47 121 L 46 121 L 40 115 L 40 105 L 39 104 L 39 102 L 37 100 L 37 99 L 32 94 L 32 93 L 27 88 L 27 87 L 26 86 L 26 83 L 29 80 L 30 80 L 32 78 L 32 77 L 33 76 L 33 74 L 34 73 L 34 58 L 36 56 L 38 56 L 39 55 L 40 56 L 45 56 L 46 57 L 48 57 L 49 56 L 53 56 L 54 55 L 56 55 L 57 54 L 58 54 L 60 52 L 61 52 L 65 48 L 65 47 L 66 46 L 66 45 L 68 43 L 68 41 L 69 40 L 69 38 L 70 37 L 70 35 L 71 34 L 71 32 L 72 31 L 72 30 L 73 29 L 74 29 L 75 28 L 82 28 L 83 27 L 87 27 L 88 26 L 90 26 L 91 25 L 93 25 L 94 24 L 96 24 L 97 23 L 98 23 L 99 22 L 100 22 L 103 19 L 104 19 L 107 16 L 113 16 L 115 18 L 116 18 L 118 20 L 119 20 L 120 21 L 121 21 L 122 22 L 123 22 L 125 24 L 126 24 L 127 25 L 128 25 L 129 26 L 130 26 L 131 27 L 133 27 L 134 28 L 137 28 L 138 29 L 140 29 L 141 30 L 143 30 L 144 31 L 146 31 L 147 32 L 148 32 L 149 33 L 151 33 L 152 34 L 154 34 L 155 35 L 156 35 L 157 36 L 158 36 L 161 39 L 161 40 L 165 44 L 166 44 L 168 46 L 169 46 L 170 47 L 172 47 L 173 48 L 174 48 L 175 49 L 176 49 L 177 50 L 178 50 L 179 51 L 180 51 L 181 52 L 182 52 L 183 53 L 185 53 L 186 54 L 198 54 L 199 53 L 202 53 L 203 52 L 205 52 L 206 51 L 208 51 L 209 50 L 211 50 L 212 49 L 213 49 L 214 48 L 215 48 L 217 46 L 218 46 L 221 43 L 222 43 L 223 42 L 225 42 L 226 41 L 227 41 L 228 40 L 229 40 L 233 36 L 233 34 L 234 33 L 234 28 L 237 25 L 240 25 L 241 24 L 245 24 L 246 23 L 248 23 L 249 22 L 250 22 L 251 21 L 253 21 L 254 20 L 256 20 L 257 19 L 259 19 L 260 18 L 261 18 L 262 17 L 263 17 L 265 15 L 266 15 L 268 13 L 269 13 L 270 12 L 271 12 L 272 11 L 275 11 L 276 10 L 278 10 L 279 9 L 280 9 L 282 7 L 283 7 L 284 6 L 284 5 L 285 4 L 285 1 L 1 1 L 1 343 "></path>
        <path fill="none" stroke="#fa00fa" stroke-width="3" d="M 258 695 L 257 696 L 255 696 L 254 697 L 252 697 L 251 698 L 250 698 L 249 699 L 248 699 L 247 700 L 246 700 L 244 702 L 243 702 L 240 705 L 240 706 L 230 716 L 229 716 L 227 718 L 227 719 L 226 720 L 226 721 L 225 722 L 225 727 L 226 728 L 226 730 L 227 731 L 227 733 L 225 735 L 224 734 L 223 734 L 222 733 L 220 733 L 219 732 L 212 732 L 211 731 L 210 731 L 208 729 L 208 728 L 207 727 L 207 726 L 206 725 L 206 724 L 202 720 L 201 720 L 200 719 L 199 719 L 198 718 L 197 718 L 196 717 L 194 717 L 193 716 L 191 716 L 190 715 L 188 715 L 187 714 L 185 714 L 184 713 L 182 713 L 181 712 L 169 712 L 168 713 L 167 713 L 166 714 L 164 714 L 163 715 L 162 715 L 161 716 L 158 716 L 157 717 L 155 717 L 154 718 L 153 718 L 152 719 L 151 719 L 142 728 L 142 729 L 139 732 L 139 733 L 138 734 L 138 735 L 137 736 L 137 738 L 136 739 L 136 754 L 130 760 L 130 761 L 129 762 L 129 767 L 130 768 L 130 770 L 131 771 L 131 773 L 133 775 L 133 776 L 137 780 L 137 781 L 142 786 L 143 786 L 145 788 L 146 788 L 147 789 L 149 789 L 150 790 L 152 790 L 153 791 L 155 791 L 156 792 L 157 792 L 158 793 L 159 793 L 162 796 L 163 796 L 164 797 L 165 797 L 166 798 L 172 798 L 173 797 L 176 797 L 179 800 L 179 802 L 180 803 L 180 804 L 183 807 L 184 807 L 185 808 L 186 808 L 187 809 L 188 809 L 189 810 L 190 810 L 192 812 L 193 812 L 194 813 L 205 813 L 206 812 L 207 812 L 208 811 L 210 811 L 211 810 L 215 810 L 216 811 L 226 811 L 227 810 L 229 810 L 231 808 L 232 808 L 233 807 L 234 807 L 236 805 L 237 805 L 239 803 L 240 803 L 247 796 L 247 795 L 249 793 L 249 792 L 250 791 L 250 790 L 252 788 L 252 787 L 253 786 L 253 785 L 254 784 L 254 783 L 255 782 L 255 776 L 254 775 L 254 774 L 253 773 L 253 771 L 254 770 L 255 770 L 256 771 L 258 771 L 259 772 L 261 772 L 262 773 L 269 773 L 270 772 L 273 772 L 274 771 L 276 771 L 277 770 L 279 770 L 280 769 L 281 769 L 282 768 L 283 768 L 287 764 L 288 764 L 291 761 L 291 760 L 293 758 L 293 757 L 295 755 L 295 754 L 302 747 L 302 746 L 304 744 L 304 743 L 306 741 L 306 740 L 307 739 L 307 738 L 308 737 L 308 730 L 307 729 L 307 728 L 306 727 L 306 726 L 303 723 L 303 722 L 300 719 L 300 718 L 299 717 L 299 716 L 298 715 L 298 714 L 297 713 L 297 712 L 296 711 L 296 710 L 295 709 L 295 708 L 291 704 L 290 704 L 287 701 L 286 701 L 285 700 L 284 700 L 283 699 L 282 699 L 281 698 L 280 698 L 279 697 L 277 697 L 276 696 L 273 696 L 272 695 L 258 695 L 257 696 "></path>
        <path fill="none" stroke="#fa00fa" stroke-width="3" d="M 584 372 L 583 373 L 582 373 L 582 374 L 581 375 L 581 376 L 580 377 L 580 378 L 578 380 L 557 380 L 556 381 L 552 381 L 549 384 L 548 384 L 547 385 L 546 385 L 545 386 L 543 386 L 541 388 L 540 388 L 538 390 L 537 390 L 536 391 L 535 391 L 534 392 L 531 392 L 530 391 L 529 391 L 528 390 L 527 390 L 526 389 L 503 389 L 501 391 L 501 393 L 500 394 L 500 395 L 499 396 L 498 396 L 497 397 L 494 397 L 493 398 L 492 398 L 490 400 L 490 403 L 491 404 L 491 405 L 493 407 L 494 407 L 495 408 L 501 408 L 502 407 L 502 406 L 503 405 L 503 400 L 504 399 L 504 398 L 505 397 L 506 397 L 507 396 L 520 396 L 521 397 L 524 397 L 525 398 L 526 398 L 529 401 L 529 402 L 530 403 L 530 408 L 531 409 L 531 414 L 529 416 L 528 416 L 527 417 L 520 417 L 519 416 L 519 415 L 518 414 L 518 413 L 519 412 L 519 411 L 520 410 L 520 405 L 519 404 L 519 403 L 518 403 L 517 402 L 514 402 L 513 403 L 512 403 L 512 404 L 511 405 L 511 409 L 512 410 L 512 415 L 511 416 L 510 416 L 509 417 L 503 417 L 502 416 L 497 416 L 496 417 L 495 417 L 494 416 L 493 416 L 491 414 L 491 412 L 488 409 L 452 409 L 451 408 L 450 408 L 449 407 L 448 407 L 447 406 L 444 406 L 443 407 L 442 407 L 440 409 L 440 410 L 439 411 L 439 415 L 440 416 L 440 417 L 441 417 L 442 418 L 443 418 L 444 419 L 445 419 L 446 418 L 448 418 L 449 417 L 468 417 L 470 419 L 470 426 L 469 427 L 469 430 L 470 431 L 470 433 L 471 434 L 469 436 L 468 436 L 464 432 L 464 431 L 463 431 L 462 430 L 461 430 L 460 429 L 459 429 L 458 430 L 457 430 L 456 431 L 456 432 L 455 433 L 455 438 L 456 439 L 456 440 L 455 441 L 455 442 L 448 449 L 448 450 L 447 451 L 447 454 L 450 457 L 451 457 L 454 460 L 454 461 L 455 462 L 455 463 L 456 464 L 456 465 L 460 469 L 462 469 L 463 470 L 467 470 L 468 469 L 470 469 L 472 467 L 473 467 L 474 466 L 476 466 L 477 465 L 478 465 L 479 466 L 484 466 L 485 465 L 486 465 L 487 464 L 487 463 L 488 462 L 488 455 L 490 453 L 491 453 L 496 458 L 498 458 L 499 459 L 510 459 L 511 458 L 516 458 L 517 457 L 536 457 L 539 460 L 539 464 L 538 465 L 538 467 L 536 469 L 532 469 L 530 467 L 530 466 L 527 463 L 524 463 L 523 464 L 522 464 L 522 465 L 521 466 L 521 467 L 520 468 L 520 469 L 517 472 L 513 472 L 512 471 L 511 471 L 510 470 L 509 470 L 508 469 L 506 469 L 505 468 L 499 468 L 496 471 L 496 476 L 499 479 L 500 479 L 501 480 L 509 480 L 512 483 L 512 484 L 513 485 L 514 485 L 515 486 L 518 486 L 519 485 L 520 485 L 521 484 L 521 483 L 522 482 L 522 480 L 525 477 L 532 477 L 533 478 L 543 478 L 544 479 L 549 479 L 550 480 L 557 480 L 558 479 L 563 479 L 564 480 L 567 480 L 568 481 L 571 481 L 572 480 L 573 480 L 575 478 L 575 473 L 572 470 L 570 470 L 569 469 L 566 469 L 565 470 L 557 470 L 556 471 L 548 471 L 547 470 L 547 469 L 546 468 L 546 466 L 547 465 L 547 464 L 546 463 L 546 458 L 547 457 L 550 457 L 551 458 L 558 458 L 559 457 L 562 457 L 563 458 L 564 458 L 566 460 L 567 460 L 569 462 L 570 462 L 571 463 L 573 463 L 574 464 L 582 464 L 583 463 L 585 463 L 587 461 L 588 461 L 591 458 L 591 457 L 592 456 L 592 452 L 589 449 L 589 448 L 588 447 L 588 439 L 587 438 L 587 437 L 586 436 L 585 436 L 584 435 L 583 435 L 582 434 L 575 434 L 574 433 L 569 433 L 568 432 L 563 432 L 562 433 L 558 433 L 557 432 L 556 432 L 555 431 L 554 431 L 553 430 L 551 430 L 550 429 L 543 429 L 542 430 L 539 430 L 538 431 L 536 431 L 535 430 L 533 430 L 532 431 L 519 431 L 514 436 L 505 436 L 504 437 L 497 437 L 496 438 L 479 438 L 478 437 L 477 437 L 476 436 L 476 435 L 477 434 L 477 433 L 479 431 L 479 426 L 478 425 L 478 423 L 477 422 L 477 420 L 476 419 L 479 416 L 483 416 L 485 418 L 485 419 L 486 420 L 485 421 L 485 424 L 486 425 L 486 426 L 488 428 L 492 428 L 493 427 L 494 427 L 496 425 L 497 425 L 498 424 L 519 424 L 520 425 L 525 425 L 526 424 L 530 424 L 531 423 L 532 423 L 533 422 L 534 422 L 535 421 L 537 421 L 538 420 L 560 420 L 561 421 L 562 421 L 563 422 L 564 422 L 565 423 L 566 423 L 567 424 L 569 424 L 570 425 L 573 425 L 574 426 L 584 426 L 585 427 L 586 427 L 587 428 L 588 428 L 591 431 L 591 432 L 593 434 L 593 435 L 595 437 L 601 437 L 602 436 L 603 436 L 603 435 L 605 433 L 605 427 L 604 426 L 604 425 L 603 425 L 602 424 L 598 424 L 597 425 L 595 425 L 594 424 L 593 424 L 590 421 L 590 419 L 593 416 L 599 416 L 600 417 L 604 417 L 605 418 L 610 418 L 611 419 L 630 419 L 631 418 L 632 418 L 634 416 L 634 415 L 635 414 L 635 413 L 634 412 L 634 410 L 632 408 L 631 408 L 630 407 L 624 407 L 623 408 L 621 408 L 620 409 L 598 409 L 597 408 L 592 408 L 591 409 L 588 409 L 587 410 L 586 410 L 579 417 L 573 417 L 572 416 L 570 416 L 569 415 L 567 415 L 566 414 L 565 414 L 564 413 L 562 413 L 561 412 L 540 412 L 538 410 L 538 408 L 537 407 L 537 403 L 538 402 L 538 401 L 543 396 L 544 396 L 545 395 L 546 395 L 548 393 L 549 393 L 550 392 L 551 392 L 553 390 L 554 390 L 555 389 L 556 389 L 557 388 L 558 388 L 559 387 L 569 387 L 570 388 L 575 388 L 576 387 L 581 387 L 582 386 L 589 386 L 591 384 L 591 382 L 592 381 L 592 376 L 591 375 L 591 374 L 589 372 L 584 372 L 583 373 "></path>
        <path fill="none" stroke="#fa00fa" stroke-width="3" d="M 104 637 L 103 638 L 98 638 L 97 639 L 95 639 L 94 640 L 93 640 L 92 641 L 91 641 L 90 642 L 88 642 L 87 643 L 86 643 L 85 644 L 84 644 L 83 645 L 82 645 L 76 651 L 76 652 L 71 657 L 71 658 L 68 661 L 68 662 L 66 664 L 65 664 L 63 666 L 62 666 L 58 670 L 58 671 L 57 672 L 57 673 L 52 678 L 52 679 L 51 680 L 51 684 L 52 685 L 52 686 L 53 687 L 53 688 L 63 698 L 63 700 L 64 701 L 64 706 L 65 707 L 65 709 L 67 711 L 67 712 L 71 716 L 72 716 L 73 717 L 74 717 L 75 718 L 76 718 L 77 719 L 79 719 L 81 721 L 82 721 L 83 722 L 84 722 L 86 724 L 87 724 L 88 725 L 89 725 L 90 726 L 92 726 L 93 727 L 106 727 L 107 726 L 111 726 L 112 725 L 115 725 L 116 724 L 117 724 L 118 723 L 119 723 L 120 722 L 121 722 L 122 721 L 123 721 L 124 720 L 125 720 L 126 719 L 127 719 L 129 717 L 130 717 L 135 712 L 135 711 L 137 709 L 137 708 L 138 707 L 138 706 L 139 705 L 139 704 L 140 703 L 140 699 L 141 698 L 141 697 L 146 692 L 147 692 L 149 690 L 149 689 L 150 688 L 150 686 L 151 685 L 151 682 L 150 681 L 150 679 L 149 678 L 149 677 L 148 676 L 148 673 L 147 672 L 147 670 L 145 668 L 145 667 L 144 666 L 144 665 L 142 663 L 142 662 L 123 643 L 122 643 L 120 641 L 119 641 L 118 640 L 116 640 L 115 639 L 112 639 L 111 638 L 105 638 L 104 637 L 103 638 "></path>
        <path fill="none" stroke="#fa00fa" stroke-width="3" d="M 41 508 L 40 509 L 36 509 L 35 510 L 33 510 L 32 511 L 29 511 L 28 512 L 26 512 L 25 513 L 24 513 L 23 514 L 22 514 L 21 515 L 20 515 L 18 517 L 17 517 L 10 524 L 10 525 L 9 526 L 9 527 L 8 528 L 8 529 L 7 530 L 7 531 L 6 532 L 6 533 L 5 534 L 5 535 L 4 536 L 3 536 L 1 538 L 1 559 L 3 561 L 4 561 L 5 562 L 6 562 L 8 564 L 8 565 L 10 567 L 10 575 L 11 576 L 11 577 L 12 578 L 12 579 L 18 585 L 19 585 L 20 586 L 21 586 L 22 587 L 23 587 L 24 588 L 25 588 L 26 589 L 27 589 L 28 590 L 31 590 L 32 591 L 37 591 L 38 592 L 47 592 L 48 593 L 61 593 L 62 592 L 65 592 L 66 591 L 68 591 L 69 590 L 70 590 L 71 589 L 72 589 L 73 588 L 74 588 L 76 586 L 77 586 L 80 583 L 80 582 L 82 580 L 82 579 L 83 578 L 83 577 L 84 576 L 84 573 L 85 572 L 85 570 L 86 569 L 86 565 L 87 564 L 87 558 L 88 557 L 88 556 L 89 555 L 89 554 L 90 553 L 90 551 L 91 550 L 91 541 L 89 539 L 89 538 L 86 535 L 86 534 L 85 533 L 85 531 L 84 530 L 84 528 L 83 527 L 83 526 L 77 520 L 76 520 L 73 517 L 72 517 L 70 515 L 69 515 L 68 514 L 67 514 L 66 513 L 65 513 L 64 512 L 63 512 L 62 511 L 59 511 L 58 510 L 54 510 L 53 509 L 47 509 L 46 508 L 41 508 L 40 509 "></path>
        <path fill="none" stroke="#fa00fa" stroke-width="3" d="M 2 690 L 1 691 L 1 814 L 72 814 L 72 813 L 73 812 L 72 811 L 72 810 L 71 809 L 71 808 L 67 804 L 67 800 L 68 799 L 68 795 L 67 794 L 67 791 L 66 790 L 66 789 L 65 788 L 65 787 L 63 785 L 63 784 L 62 783 L 62 782 L 66 778 L 67 778 L 71 774 L 71 772 L 72 771 L 72 770 L 71 769 L 71 767 L 66 762 L 65 762 L 64 761 L 63 761 L 59 757 L 59 756 L 58 755 L 58 753 L 57 752 L 57 750 L 56 749 L 56 748 L 55 747 L 55 746 L 48 739 L 47 739 L 46 738 L 45 738 L 44 737 L 42 737 L 41 736 L 38 736 L 37 735 L 34 735 L 33 734 L 30 734 L 28 732 L 28 724 L 27 723 L 27 722 L 23 718 L 22 718 L 17 713 L 17 709 L 16 708 L 16 707 L 15 706 L 15 705 L 14 704 L 14 703 L 13 702 L 13 700 L 12 699 L 12 698 L 11 697 L 11 696 L 9 694 L 9 693 L 8 692 L 7 692 L 5 690 L 2 690 L 1 691 "></path>
        <path fill="none" stroke="#fa00fa" stroke-width="3" d="M 738 749 L 737 750 L 734 750 L 733 751 L 732 751 L 731 752 L 730 752 L 729 753 L 728 753 L 720 761 L 719 761 L 715 765 L 714 765 L 705 774 L 705 775 L 702 778 L 702 779 L 701 780 L 701 787 L 702 788 L 702 790 L 703 791 L 703 792 L 704 793 L 704 795 L 705 796 L 705 797 L 706 798 L 706 799 L 708 801 L 708 804 L 706 806 L 701 806 L 700 807 L 698 807 L 695 810 L 695 813 L 696 814 L 786 814 L 787 813 L 787 811 L 786 810 L 786 809 L 785 808 L 784 808 L 783 807 L 782 807 L 781 806 L 780 806 L 779 805 L 778 805 L 777 804 L 777 803 L 776 802 L 777 801 L 777 800 L 779 798 L 780 798 L 782 796 L 783 796 L 783 795 L 785 793 L 785 792 L 786 791 L 786 781 L 785 780 L 785 779 L 784 778 L 784 777 L 783 776 L 783 775 L 782 774 L 782 773 L 779 770 L 779 769 L 778 768 L 778 767 L 777 766 L 777 765 L 776 764 L 776 763 L 771 758 L 770 758 L 769 757 L 768 757 L 767 756 L 766 756 L 765 755 L 764 755 L 763 754 L 762 754 L 761 753 L 760 753 L 759 752 L 758 752 L 757 751 L 754 751 L 753 750 L 747 750 L 746 749 L 738 749 L 737 750 "></path>
        <path fill="none" stroke="#fa00fa" stroke-width="3" d="M 205 596 L 204 597 L 200 597 L 199 598 L 198 598 L 197 599 L 195 599 L 193 601 L 192 601 L 191 602 L 190 602 L 187 605 L 186 605 L 176 615 L 176 616 L 175 617 L 175 618 L 174 619 L 174 620 L 173 621 L 173 622 L 172 623 L 172 625 L 171 626 L 171 628 L 170 629 L 170 632 L 171 633 L 171 635 L 172 636 L 172 638 L 173 639 L 173 641 L 174 642 L 174 645 L 175 646 L 175 647 L 176 648 L 176 649 L 177 650 L 177 651 L 178 652 L 178 653 L 179 654 L 179 655 L 182 658 L 182 659 L 188 665 L 189 665 L 191 667 L 192 667 L 193 668 L 194 668 L 195 669 L 197 669 L 198 670 L 201 670 L 202 671 L 215 671 L 216 670 L 220 670 L 221 669 L 223 669 L 224 668 L 226 668 L 227 667 L 228 667 L 229 666 L 230 666 L 231 665 L 232 665 L 234 663 L 235 663 L 238 660 L 239 660 L 242 657 L 242 656 L 244 654 L 244 653 L 245 652 L 245 651 L 246 650 L 246 648 L 247 647 L 247 644 L 248 643 L 248 629 L 247 628 L 247 622 L 246 621 L 246 619 L 245 618 L 245 617 L 244 616 L 244 615 L 241 612 L 241 611 L 238 608 L 237 608 L 233 604 L 232 604 L 230 602 L 229 602 L 228 601 L 227 601 L 226 600 L 225 600 L 224 599 L 222 599 L 221 598 L 219 598 L 218 597 L 214 597 L 213 596 L 205 596 L 204 597 "></path>
        <path fill="none" stroke="#fa00fa" stroke-width="3" d="M 201 300 L 200 301 L 197 301 L 196 302 L 194 302 L 193 303 L 192 303 L 191 304 L 190 304 L 189 305 L 188 305 L 185 308 L 184 308 L 182 310 L 182 311 L 179 314 L 179 315 L 177 317 L 177 318 L 176 319 L 176 320 L 175 321 L 175 323 L 174 324 L 174 327 L 173 328 L 173 341 L 174 342 L 174 344 L 175 345 L 175 347 L 176 348 L 176 349 L 177 350 L 177 351 L 178 352 L 178 353 L 181 356 L 181 357 L 184 360 L 185 360 L 187 362 L 188 362 L 190 364 L 191 364 L 192 365 L 193 365 L 194 366 L 196 366 L 197 367 L 200 367 L 201 368 L 213 368 L 214 367 L 217 367 L 218 366 L 219 366 L 220 365 L 221 365 L 222 364 L 223 364 L 224 363 L 225 363 L 227 361 L 228 361 L 234 355 L 234 354 L 236 352 L 236 351 L 238 349 L 238 347 L 239 346 L 239 345 L 240 344 L 240 340 L 241 339 L 241 333 L 240 332 L 240 327 L 239 326 L 239 323 L 238 322 L 238 320 L 237 319 L 237 318 L 236 317 L 236 316 L 234 314 L 234 313 L 228 307 L 227 307 L 225 305 L 224 305 L 223 304 L 222 304 L 221 303 L 220 303 L 219 302 L 217 302 L 216 301 L 213 301 L 212 300 L 201 300 L 200 301 "></path>
        <path fill="none" stroke="#fa00fa" stroke-width="3" d="M 570 330 L 569 331 L 567 331 L 566 332 L 565 332 L 564 333 L 562 333 L 561 334 L 560 334 L 556 338 L 556 343 L 558 345 L 563 345 L 564 344 L 565 344 L 566 343 L 568 343 L 570 345 L 570 347 L 571 348 L 571 349 L 572 350 L 572 351 L 576 355 L 576 356 L 574 358 L 573 358 L 572 357 L 567 357 L 566 356 L 564 356 L 563 355 L 562 355 L 561 354 L 560 354 L 558 352 L 556 352 L 555 351 L 546 351 L 545 352 L 540 352 L 539 353 L 533 353 L 532 352 L 530 352 L 529 351 L 528 351 L 527 350 L 524 350 L 523 349 L 522 349 L 519 346 L 519 338 L 518 337 L 518 336 L 517 335 L 516 335 L 515 334 L 513 334 L 512 335 L 510 335 L 509 336 L 502 336 L 501 335 L 499 335 L 498 334 L 494 334 L 493 335 L 492 335 L 487 340 L 487 341 L 486 342 L 486 343 L 485 344 L 485 345 L 484 346 L 484 348 L 483 349 L 483 351 L 480 354 L 478 354 L 475 357 L 475 358 L 474 359 L 474 360 L 475 361 L 475 363 L 477 365 L 478 365 L 479 366 L 484 366 L 485 365 L 486 365 L 487 364 L 488 364 L 489 363 L 493 363 L 494 364 L 498 364 L 499 365 L 507 365 L 508 366 L 509 366 L 510 367 L 511 367 L 512 368 L 512 369 L 509 372 L 508 372 L 507 373 L 504 373 L 503 374 L 502 374 L 501 373 L 499 373 L 498 372 L 497 372 L 496 371 L 491 371 L 489 373 L 489 378 L 490 379 L 490 380 L 491 381 L 491 382 L 493 384 L 498 384 L 499 383 L 501 383 L 502 382 L 506 382 L 507 381 L 510 381 L 511 380 L 513 380 L 514 379 L 519 379 L 520 380 L 522 380 L 523 381 L 526 381 L 527 382 L 530 382 L 531 381 L 535 381 L 536 380 L 538 380 L 539 379 L 545 379 L 546 378 L 547 379 L 550 379 L 551 378 L 552 378 L 554 376 L 554 372 L 553 371 L 553 370 L 552 369 L 547 369 L 546 370 L 544 370 L 543 371 L 540 371 L 539 372 L 534 372 L 533 373 L 526 373 L 525 372 L 522 372 L 521 371 L 519 371 L 518 370 L 516 370 L 514 368 L 514 367 L 516 365 L 516 364 L 517 363 L 517 360 L 518 359 L 518 358 L 519 357 L 523 357 L 524 358 L 525 358 L 529 362 L 529 363 L 530 364 L 530 365 L 531 365 L 532 366 L 536 366 L 538 364 L 539 364 L 543 360 L 544 360 L 545 359 L 553 359 L 554 360 L 555 360 L 558 363 L 559 363 L 560 364 L 562 364 L 563 365 L 576 365 L 577 366 L 580 366 L 581 367 L 582 367 L 583 366 L 585 366 L 586 365 L 586 364 L 587 363 L 587 362 L 588 361 L 588 355 L 587 354 L 587 353 L 583 349 L 582 349 L 577 344 L 577 343 L 576 342 L 576 340 L 577 339 L 577 334 L 574 331 L 573 331 L 572 330 L 570 330 L 569 331 "></path>
        <path fill="none" stroke="#fa00fa" stroke-width="3" d="M 205 318 L 204 319 L 202 319 L 201 320 L 200 320 L 199 321 L 198 321 L 196 323 L 196 324 L 194 326 L 194 327 L 193 328 L 193 330 L 192 331 L 192 338 L 193 339 L 193 341 L 194 342 L 194 343 L 199 348 L 200 348 L 201 349 L 202 349 L 203 350 L 213 350 L 214 349 L 216 349 L 217 348 L 218 348 L 223 343 L 223 342 L 224 341 L 224 340 L 225 339 L 225 330 L 224 329 L 224 328 L 223 327 L 223 326 L 219 322 L 218 322 L 216 320 L 215 320 L 214 319 L 212 319 L 211 318 L 205 318 L 204 319 "></path>
        <path fill="none" stroke="#fa00fa" stroke-width="3" d="M 205 618 L 204 619 L 203 619 L 201 621 L 200 621 L 199 622 L 199 623 L 196 626 L 196 627 L 195 628 L 195 630 L 194 631 L 194 637 L 195 638 L 195 640 L 196 641 L 196 642 L 199 645 L 200 645 L 201 646 L 202 646 L 203 647 L 205 647 L 206 648 L 209 648 L 210 649 L 212 649 L 213 648 L 216 648 L 217 647 L 219 647 L 220 646 L 221 646 L 226 641 L 226 640 L 227 639 L 227 629 L 226 628 L 226 627 L 225 626 L 225 625 L 221 621 L 220 621 L 219 620 L 218 620 L 217 619 L 214 619 L 213 618 L 205 618 L 204 619 "></path>
        <path fill="none" stroke="#fa00fa" stroke-width="3" d="M 462 369 L 461 370 L 460 370 L 458 372 L 457 372 L 456 373 L 454 373 L 453 374 L 451 374 L 448 377 L 448 381 L 449 382 L 449 383 L 450 384 L 451 384 L 453 386 L 454 386 L 457 389 L 457 390 L 459 392 L 459 393 L 460 394 L 461 394 L 462 395 L 463 395 L 464 396 L 466 396 L 467 397 L 474 397 L 475 396 L 477 396 L 478 395 L 480 395 L 481 394 L 482 394 L 485 391 L 485 384 L 484 383 L 484 381 L 483 380 L 483 379 L 479 375 L 478 375 L 476 373 L 475 373 L 474 372 L 473 372 L 472 371 L 471 371 L 470 370 L 469 370 L 468 369 L 462 369 L 461 370 "></path>
        <path fill="none" stroke="#fa00fa" stroke-width="3" d="M 573 394 L 572 395 L 571 395 L 570 396 L 568 396 L 567 397 L 559 397 L 556 400 L 556 404 L 559 407 L 562 407 L 563 406 L 564 406 L 565 405 L 566 405 L 567 404 L 570 404 L 573 407 L 574 407 L 575 408 L 579 408 L 580 407 L 581 407 L 581 406 L 582 405 L 582 403 L 583 402 L 583 399 L 582 398 L 582 397 L 579 394 L 573 394 L 572 395 "></path>
    </g>
</svg>
