<svg xmlns="http://www.w3.org/2000/svg" xmlns:xlink="http://www.w3.org/1999/xlink" version="1.1" x="0" y="0" width="1056px" height="816px">
    <g id="rootLayer" transform="translate(0.000000, 0.000000)">
        <path fill="none" stroke="#00fafa" stroke-width="3" d="M 538 344 L 539 343 L 540 344 L 542 344 L 543 343 L 544 344 L 546 344 L 547 343 L 548 344 L 550 344 L 551 343 L 552 344 L 554 344 L 555 343 L 556 344 L 558 344 L 559 343 L 560 343 L 561 344 L 562 344 L 563 343 L 564 343 L 565 344 L 566 344 L 567 343 L 568 344 L 571 344 L 572 345 L 572 347 L 571 348 L 569 348 L 568 349 L 556 349 L 555 350 L 554 350 L 553 349 L 552 350 L 543 350 L 542 349 L 534 349 L 533 348 L 534 347 L 534 346 L 533 345 L 534 344 "></path>
    </g>
</svg>
