<svg xmlns="http://www.w3.org/2000/svg" xmlns:xlink="http://www.w3.org/1999/xlink" version="1.1" x="0" y="0" width="1056px" height="816px">
    <g id="rootLayer" transform="translate(0.000000, 0.000000)">
        <path fill="none" stroke="#ffffff" stroke-width="3" d="M 452 100 L 451 101 L 448 101 L 444 105 L 442 105 L 441 106 L 438 106 L 437 107 L 436 107 L 433 110 L 433 111 L 430 114 L 429 114 L 428 115 L 418 115 L 417 116 L 415 116 L 414 117 L 413 117 L 410 120 L 409 120 L 408 121 L 408 123 L 405 126 L 405 127 L 403 129 L 402 129 L 398 133 L 398 134 L 396 136 L 396 140 L 395 141 L 395 142 L 392 145 L 392 148 L 391 149 L 391 150 L 392 151 L 392 155 L 390 157 L 390 158 L 389 159 L 389 160 L 388 161 L 388 163 L 387 164 L 386 164 L 385 165 L 385 166 L 383 168 L 383 171 L 382 172 L 382 173 L 383 174 L 383 176 L 382 177 L 382 179 L 381 180 L 381 182 L 380 183 L 380 186 L 379 187 L 379 197 L 380 198 L 380 201 L 381 202 L 381 205 L 382 206 L 382 208 L 384 210 L 384 211 L 385 212 L 385 213 L 387 215 L 387 216 L 389 218 L 389 220 L 391 222 L 394 222 L 396 224 L 396 225 L 397 226 L 398 226 L 399 227 L 399 228 L 400 229 L 400 230 L 401 231 L 401 232 L 402 233 L 403 233 L 405 235 L 409 235 L 410 236 L 411 235 L 412 236 L 413 235 L 422 235 L 423 234 L 424 234 L 425 233 L 426 233 L 429 230 L 429 229 L 430 228 L 430 226 L 431 225 L 431 221 L 433 219 L 445 219 L 447 221 L 447 227 L 446 228 L 446 235 L 447 236 L 447 237 L 448 238 L 448 239 L 449 240 L 449 241 L 456 248 L 457 248 L 458 249 L 459 249 L 460 250 L 461 250 L 462 251 L 475 251 L 476 250 L 478 250 L 479 249 L 481 249 L 482 248 L 483 248 L 484 247 L 485 247 L 487 245 L 488 245 L 489 244 L 490 244 L 494 240 L 494 239 L 495 238 L 495 234 L 496 233 L 496 232 L 498 230 L 499 230 L 500 229 L 501 229 L 502 228 L 510 228 L 511 227 L 512 227 L 514 225 L 514 220 L 513 220 L 512 219 L 511 219 L 509 217 L 507 217 L 504 214 L 505 213 L 504 212 L 505 211 L 513 211 L 514 210 L 515 210 L 516 209 L 516 206 L 519 203 L 520 204 L 523 204 L 524 205 L 525 204 L 526 204 L 526 108 L 525 107 L 521 107 L 520 108 L 519 108 L 518 109 L 517 109 L 515 111 L 514 111 L 509 116 L 509 118 L 508 119 L 508 120 L 507 121 L 507 129 L 509 131 L 510 131 L 512 133 L 512 135 L 511 136 L 506 136 L 504 134 L 504 133 L 503 133 L 501 131 L 501 129 L 500 128 L 499 128 L 498 127 L 493 127 L 492 126 L 491 126 L 485 120 L 485 119 L 482 116 L 481 116 L 480 115 L 473 115 L 472 116 L 471 116 L 467 112 L 467 111 L 466 110 L 466 108 L 465 107 L 465 105 L 462 102 L 460 102 L 459 101 L 455 101 L 454 100 "></path>
        <path fill="none" stroke="#ffffff" stroke-width="3" d="M 278 159 L 277 160 L 276 160 L 275 161 L 274 161 L 271 164 L 246 164 L 245 165 L 244 165 L 243 166 L 242 166 L 242 167 L 239 170 L 238 170 L 236 172 L 229 172 L 228 173 L 227 173 L 227 175 L 228 176 L 229 176 L 230 177 L 230 178 L 231 178 L 234 181 L 231 184 L 217 184 L 215 186 L 215 187 L 217 189 L 217 191 L 218 192 L 217 193 L 217 194 L 214 197 L 212 197 L 210 199 L 209 199 L 208 200 L 206 200 L 205 201 L 204 201 L 204 207 L 205 208 L 204 209 L 204 215 L 205 216 L 205 219 L 206 220 L 206 222 L 208 224 L 208 226 L 212 230 L 212 231 L 213 231 L 214 232 L 216 232 L 219 235 L 220 235 L 221 236 L 223 236 L 225 238 L 226 238 L 227 239 L 228 239 L 229 240 L 240 240 L 241 239 L 242 239 L 244 237 L 244 236 L 248 232 L 250 232 L 251 231 L 253 231 L 254 232 L 255 231 L 256 232 L 263 232 L 264 233 L 266 233 L 267 232 L 269 232 L 270 231 L 270 229 L 269 228 L 267 228 L 266 227 L 266 226 L 265 226 L 264 225 L 265 224 L 274 224 L 275 223 L 277 223 L 278 222 L 279 222 L 280 221 L 281 221 L 282 220 L 284 220 L 285 219 L 286 219 L 286 218 L 287 217 L 287 215 L 289 213 L 292 213 L 294 211 L 295 211 L 295 210 L 296 209 L 296 207 L 295 206 L 296 205 L 295 204 L 295 202 L 296 201 L 296 199 L 295 198 L 296 197 L 298 197 L 299 198 L 299 200 L 300 201 L 300 203 L 301 204 L 301 205 L 302 205 L 303 206 L 308 206 L 309 205 L 312 205 L 313 204 L 314 204 L 315 203 L 317 203 L 318 202 L 318 200 L 319 199 L 319 198 L 320 197 L 319 196 L 320 195 L 319 194 L 319 192 L 317 190 L 317 188 L 319 186 L 320 186 L 321 185 L 322 185 L 322 184 L 323 183 L 323 177 L 322 176 L 322 175 L 320 173 L 320 172 L 319 171 L 319 170 L 318 169 L 318 168 L 317 167 L 317 166 L 316 165 L 315 165 L 314 164 L 311 164 L 310 163 L 308 163 L 307 164 L 306 163 L 299 163 L 298 162 L 295 162 L 294 161 L 292 161 L 291 160 L 287 160 L 286 159 "></path>
    </g>
</svg>
