<svg xmlns="http://www.w3.org/2000/svg" xmlns:xlink="http://www.w3.org/1999/xlink" version="1.1" x="0" y="0" width="1056px" height="816px">
    <g id="rootLayer" transform="translate(0.000000, 0.000000)">
        <path fill="none" stroke="#00fafa" stroke-width="3" d="M 378 568 L 379 567 L 385 567 L 386 568 L 390 568 L 391 569 L 393 569 L 394 570 L 395 570 L 396 571 L 397 571 L 400 574 L 401 574 L 406 579 L 406 580 L 408 582 L 408 583 L 409 584 L 409 585 L 410 586 L 410 587 L 411 588 L 411 591 L 412 592 L 412 603 L 411 604 L 411 607 L 410 608 L 410 609 L 409 610 L 409 611 L 407 613 L 407 614 L 403 618 L 402 618 L 401 619 L 393 619 L 392 618 L 371 618 L 370 619 L 363 619 L 361 617 L 361 612 L 362 611 L 362 587 L 361 586 L 361 579 L 363 577 L 363 576 L 365 574 L 366 574 L 370 570 L 371 570 L 372 569 L 373 569 L 374 568 L 378 568 L 379 567 "></path>
        <path fill="none" stroke="#00fafa" stroke-width="3" d="M 700 291 L 701 290 L 709 290 L 710 291 L 716 291 L 717 292 L 718 292 L 719 293 L 721 293 L 723 295 L 724 295 L 728 299 L 728 300 L 729 301 L 729 310 L 728 311 L 728 338 L 729 339 L 729 348 L 717 360 L 716 360 L 715 361 L 714 361 L 713 362 L 711 362 L 710 361 L 709 361 L 701 353 L 701 352 L 698 349 L 698 348 L 697 347 L 697 346 L 696 345 L 696 343 L 695 342 L 695 333 L 694 332 L 694 315 L 695 314 L 695 300 L 694 299 L 694 296 L 695 295 L 695 293 L 696 292 L 697 292 L 698 291 L 700 291 L 701 290 "></path>
        <path fill="none" stroke="#00fafa" stroke-width="3" d="M 340 473 L 341 472 L 343 472 L 344 473 L 346 473 L 349 476 L 349 477 L 354 482 L 354 483 L 356 485 L 357 485 L 358 486 L 358 487 L 361 490 L 361 496 L 360 497 L 360 500 L 359 501 L 359 503 L 358 504 L 358 505 L 355 508 L 301 508 L 298 505 L 298 504 L 297 503 L 297 502 L 296 501 L 296 499 L 295 498 L 295 494 L 294 493 L 294 484 L 295 483 L 295 480 L 296 479 L 296 477 L 300 473 L 315 473 L 316 474 L 317 473 L 325 473 L 326 474 L 331 474 L 332 473 L 340 473 L 341 472 "></path>
        <path fill="none" stroke="#00fafa" stroke-width="3" d="M 638 197 L 639 196 L 646 196 L 647 197 L 665 197 L 666 196 L 676 196 L 677 197 L 678 197 L 681 200 L 681 201 L 682 202 L 682 203 L 683 204 L 683 206 L 684 207 L 684 209 L 685 210 L 685 224 L 684 225 L 684 227 L 683 228 L 683 230 L 682 231 L 682 232 L 681 233 L 681 234 L 678 237 L 678 238 L 675 241 L 674 241 L 671 244 L 670 244 L 668 246 L 667 246 L 666 247 L 664 247 L 663 248 L 661 248 L 660 249 L 654 249 L 653 248 L 652 248 L 647 243 L 646 243 L 638 235 L 638 228 L 639 227 L 639 203 L 638 202 L 638 197 L 639 196 "></path>
        <path fill="none" stroke="#00fafa" stroke-width="3" d="M 360 197 L 361 196 L 370 196 L 371 197 L 390 197 L 391 196 L 402 196 L 403 197 L 404 197 L 408 201 L 408 202 L 409 203 L 409 205 L 410 206 L 410 207 L 411 208 L 411 211 L 412 212 L 412 218 L 411 219 L 411 220 L 409 222 L 409 223 L 401 231 L 399 231 L 398 232 L 397 232 L 396 231 L 356 231 L 353 228 L 353 227 L 352 226 L 352 223 L 351 222 L 351 213 L 352 212 L 352 209 L 353 208 L 353 206 L 354 205 L 354 203 L 355 202 L 355 201 L 359 197 L 360 197 L 361 196 "></path>
        <path fill="none" stroke="#00fafa" stroke-width="3" d="M 744 363 L 745 362 L 753 362 L 754 363 L 775 363 L 776 362 L 783 362 L 784 363 L 784 364 L 785 365 L 785 366 L 784 367 L 784 377 L 783 378 L 783 383 L 784 384 L 784 393 L 785 394 L 785 395 L 782 398 L 779 398 L 778 397 L 737 397 L 734 394 L 734 393 L 733 392 L 733 390 L 732 389 L 732 385 L 731 384 L 731 379 L 732 378 L 732 376 L 733 375 L 733 374 L 739 368 L 739 367 L 743 363 L 744 363 L 745 362 "></path>
        <path fill="none" stroke="#00fafa" stroke-width="3" d="M 778 418 L 779 417 L 783 417 L 784 418 L 784 419 L 785 420 L 785 421 L 784 422 L 784 430 L 783 431 L 783 439 L 784 440 L 784 448 L 785 449 L 785 450 L 784 451 L 784 452 L 783 453 L 776 453 L 775 452 L 754 452 L 753 453 L 745 453 L 744 452 L 743 452 L 739 448 L 739 447 L 733 441 L 733 440 L 732 439 L 732 437 L 731 436 L 731 431 L 732 430 L 732 426 L 733 425 L 733 423 L 734 422 L 734 421 L 737 418 L 778 418 L 779 417 "></path>
        <path fill="none" stroke="#00fafa" stroke-width="3" d="M 306 529 L 307 528 L 320 528 L 321 529 L 353 529 L 356 532 L 356 534 L 357 535 L 357 550 L 356 551 L 356 552 L 355 553 L 355 554 L 354 555 L 354 556 L 347 563 L 346 563 L 345 564 L 340 564 L 339 563 L 314 563 L 313 564 L 308 564 L 306 562 L 306 554 L 307 553 L 307 538 L 306 537 L 306 529 L 307 528 "></path>
        <path fill="none" stroke="#00fafa" stroke-width="3" d="M 307 362 L 313 362 L 314 363 L 337 363 L 338 362 L 346 362 L 350 366 L 350 367 L 353 370 L 353 371 L 356 374 L 357 374 L 362 379 L 362 380 L 357 385 L 356 385 L 353 388 L 353 389 L 350 392 L 350 393 L 346 397 L 345 397 L 344 398 L 340 398 L 339 397 L 311 397 L 310 398 L 308 398 L 306 396 L 306 390 L 307 389 L 307 370 L 306 369 L 306 366 L 305 365 L 305 364 L 307 362 L 313 362 "></path>
        <path fill="none" stroke="#00fafa" stroke-width="3" d="M 429 626 L 430 625 L 440 625 L 441 626 L 442 626 L 443 627 L 444 627 L 447 630 L 448 630 L 451 633 L 451 634 L 452 635 L 452 672 L 450 674 L 449 674 L 448 675 L 447 674 L 419 674 L 417 672 L 417 634 L 422 629 L 423 629 L 425 627 L 426 627 L 427 626 L 429 626 L 430 625 "></path>
        <path fill="none" stroke="#00fafa" stroke-width="3" d="M 474 639 L 511 639 L 512 640 L 513 640 L 517 644 L 517 645 L 519 647 L 519 649 L 520 650 L 520 656 L 519 657 L 519 660 L 518 661 L 518 663 L 517 664 L 517 665 L 516 666 L 516 667 L 515 668 L 515 669 L 511 673 L 510 673 L 509 674 L 477 674 L 476 675 L 475 675 L 474 674 L 473 674 L 472 673 L 472 641 L 474 639 L 511 639 "></path>
        <path fill="none" stroke="#00fafa" stroke-width="3" d="M 745 253 L 746 252 L 780 252 L 784 256 L 784 285 L 782 287 L 764 287 L 763 286 L 755 286 L 754 287 L 746 287 L 745 286 L 744 286 L 739 281 L 739 280 L 738 279 L 738 278 L 737 277 L 737 265 L 738 264 L 738 262 L 739 261 L 739 259 L 741 257 L 741 256 L 744 253 L 745 253 L 746 252 "></path>
        <path fill="none" stroke="#00fafa" stroke-width="3" d="M 558 141 L 559 140 L 560 140 L 561 141 L 562 141 L 563 142 L 563 151 L 562 152 L 562 168 L 563 169 L 563 175 L 562 176 L 554 176 L 553 175 L 552 176 L 540 176 L 539 175 L 534 175 L 533 176 L 523 176 L 517 170 L 517 169 L 516 168 L 516 165 L 515 164 L 515 160 L 516 159 L 516 155 L 517 154 L 517 152 L 518 151 L 518 150 L 519 149 L 519 148 L 520 147 L 520 146 L 524 142 L 525 142 L 526 141 L 541 141 L 542 142 L 546 142 L 547 141 L 558 141 L 559 140 "></path>
        <path fill="none" stroke="#00fafa" stroke-width="3" d="M 253 417 L 258 417 L 259 418 L 280 418 L 281 417 L 284 417 L 286 419 L 286 441 L 285 442 L 285 447 L 286 448 L 286 456 L 285 457 L 285 458 L 281 462 L 279 462 L 278 463 L 268 463 L 267 462 L 264 462 L 263 461 L 261 461 L 260 460 L 259 460 L 258 459 L 257 459 L 252 454 L 252 453 L 251 452 L 251 423 L 250 422 L 250 421 L 251 420 L 251 419 L 253 417 L 258 417 "></path>
        <path fill="none" stroke="#00fafa" stroke-width="3" d="M 324 242 L 325 241 L 330 241 L 331 242 L 335 242 L 336 243 L 338 243 L 341 246 L 341 281 L 342 282 L 342 285 L 340 287 L 335 287 L 334 286 L 314 286 L 313 287 L 308 287 L 306 285 L 306 279 L 307 278 L 307 262 L 306 261 L 306 252 L 307 251 L 307 250 L 308 249 L 308 248 L 309 247 L 310 247 L 312 245 L 313 245 L 314 244 L 316 244 L 317 243 L 319 243 L 320 242 L 324 242 L 325 241 "></path>
        <path fill="none" stroke="#00fafa" stroke-width="3" d="M 379 138 L 380 137 L 382 137 L 383 138 L 388 138 L 389 139 L 390 139 L 391 140 L 392 140 L 393 141 L 394 141 L 396 143 L 397 143 L 400 146 L 400 147 L 402 149 L 402 150 L 404 152 L 404 154 L 405 155 L 405 158 L 406 159 L 406 166 L 405 167 L 405 170 L 404 171 L 404 172 L 401 175 L 400 175 L 399 176 L 364 176 L 361 173 L 361 170 L 362 169 L 362 148 L 363 147 L 363 146 L 368 141 L 369 141 L 370 140 L 371 140 L 372 139 L 374 139 L 375 138 L 379 138 L 380 137 "></path>
        <path fill="none" stroke="#00fafa" stroke-width="3" d="M 634 640 L 635 639 L 672 639 L 674 641 L 674 645 L 673 646 L 673 670 L 670 673 L 668 673 L 667 674 L 641 674 L 640 673 L 638 673 L 632 667 L 632 666 L 631 665 L 631 664 L 630 663 L 630 662 L 629 661 L 629 658 L 628 657 L 628 648 L 629 647 L 629 645 L 630 644 L 630 643 L 633 640 L 634 640 L 635 639 "></path>
        <path fill="none" stroke="#00fafa" stroke-width="3" d="M 595 687 L 596 686 L 603 686 L 604 687 L 607 687 L 608 688 L 609 688 L 610 689 L 611 689 L 616 694 L 616 695 L 617 696 L 617 697 L 618 698 L 618 717 L 617 718 L 617 720 L 616 721 L 616 722 L 612 726 L 611 726 L 610 727 L 609 727 L 608 728 L 607 728 L 606 729 L 602 729 L 601 730 L 598 730 L 597 729 L 593 729 L 592 728 L 591 728 L 590 727 L 589 727 L 587 725 L 586 725 L 582 721 L 582 720 L 580 718 L 580 716 L 579 715 L 579 713 L 578 712 L 578 703 L 579 702 L 579 700 L 580 699 L 580 698 L 581 697 L 581 696 L 587 690 L 588 690 L 590 688 L 591 688 L 592 687 L 595 687 L 596 686 "></path>
        <path fill="none" stroke="#00fafa" stroke-width="3" d="M 266 521 L 267 520 L 278 520 L 279 521 L 281 521 L 286 526 L 286 561 L 284 563 L 283 563 L 282 564 L 281 564 L 280 563 L 259 563 L 258 562 L 257 562 L 256 561 L 255 561 L 253 559 L 253 558 L 252 557 L 252 554 L 251 553 L 251 535 L 252 534 L 252 531 L 253 530 L 253 529 L 258 524 L 259 524 L 260 523 L 261 523 L 262 522 L 263 522 L 264 521 L 266 521 L 267 520 "></path>
        <path fill="none" stroke="#00fafa" stroke-width="3" d="M 484 87 L 485 86 L 495 86 L 496 87 L 500 87 L 501 88 L 502 88 L 506 92 L 506 93 L 507 94 L 507 121 L 506 122 L 506 123 L 503 126 L 502 126 L 501 127 L 500 127 L 499 128 L 498 128 L 497 129 L 494 129 L 493 130 L 488 130 L 487 129 L 484 129 L 483 128 L 481 128 L 480 127 L 479 127 L 473 121 L 473 119 L 472 118 L 472 98 L 473 97 L 473 94 L 474 93 L 474 92 L 477 89 L 478 89 L 479 88 L 480 88 L 481 87 L 484 87 L 485 86 "></path>
        <path fill="none" stroke="#00fafa" stroke-width="3" d="M 759 195 L 760 194 L 767 194 L 768 195 L 771 195 L 772 196 L 773 196 L 774 197 L 775 197 L 782 204 L 782 206 L 783 207 L 783 211 L 784 212 L 784 222 L 783 223 L 783 227 L 779 231 L 776 231 L 775 232 L 772 232 L 771 231 L 748 231 L 747 230 L 746 230 L 744 228 L 744 227 L 743 226 L 743 225 L 742 224 L 742 222 L 741 221 L 741 212 L 742 211 L 742 209 L 743 208 L 743 207 L 744 206 L 744 205 L 746 203 L 746 202 L 749 199 L 750 199 L 752 197 L 753 197 L 754 196 L 755 196 L 756 195 L 759 195 L 760 194 "></path>
        <path fill="none" stroke="#00fafa" stroke-width="3" d="M 704 142 L 705 141 L 711 141 L 712 142 L 718 142 L 719 143 L 720 143 L 721 144 L 722 144 L 727 149 L 727 150 L 728 151 L 728 152 L 729 153 L 729 154 L 730 155 L 730 158 L 731 159 L 731 164 L 730 165 L 730 168 L 729 169 L 729 171 L 728 172 L 728 173 L 720 181 L 719 181 L 718 182 L 717 182 L 716 183 L 713 183 L 712 184 L 704 184 L 703 183 L 701 183 L 700 182 L 699 182 L 698 181 L 697 181 L 695 179 L 695 178 L 694 177 L 694 173 L 693 172 L 694 171 L 694 160 L 693 159 L 693 150 L 694 149 L 694 146 L 697 143 L 698 143 L 699 142 L 704 142 L 705 141 "></path>
        <path fill="none" stroke="#00fafa" stroke-width="3" d="M 268 248 L 269 247 L 276 247 L 277 248 L 280 248 L 281 249 L 282 249 L 285 252 L 285 253 L 286 254 L 286 285 L 284 287 L 256 287 L 255 286 L 254 286 L 252 284 L 252 283 L 251 282 L 251 263 L 252 262 L 252 259 L 253 258 L 253 257 L 254 256 L 254 255 L 257 252 L 258 252 L 260 250 L 261 250 L 262 249 L 264 249 L 265 248 L 268 248 L 269 247 "></path>
        <path fill="none" stroke="#00fafa" stroke-width="3" d="M 429 88 L 430 87 L 442 87 L 443 88 L 445 88 L 447 90 L 448 90 L 450 92 L 450 93 L 451 94 L 451 95 L 452 96 L 452 118 L 451 119 L 451 121 L 447 125 L 446 125 L 445 126 L 444 126 L 443 127 L 440 127 L 439 128 L 432 128 L 431 127 L 429 127 L 428 126 L 426 126 L 424 124 L 423 124 L 419 120 L 419 119 L 417 117 L 417 116 L 416 115 L 416 113 L 415 112 L 415 102 L 416 101 L 416 99 L 417 98 L 417 97 L 420 94 L 420 93 L 422 91 L 423 91 L 425 89 L 426 89 L 427 88 L 429 88 L 430 87 "></path>
        <path fill="none" stroke="#00fafa" stroke-width="3" d="M 475 694 L 505 694 L 506 695 L 508 695 L 511 698 L 511 699 L 512 700 L 512 704 L 513 705 L 513 710 L 512 711 L 512 714 L 511 715 L 511 717 L 510 718 L 510 719 L 508 721 L 508 722 L 505 725 L 504 725 L 502 727 L 501 727 L 500 728 L 496 728 L 495 729 L 485 729 L 484 728 L 481 728 L 480 727 L 478 727 L 474 723 L 474 722 L 473 721 L 473 719 L 472 718 L 472 697 L 475 694 L 505 694 "></path>
        <path fill="none" stroke="#00fafa" stroke-width="3" d="M 807 417 L 810 417 L 811 418 L 833 418 L 834 419 L 835 419 L 839 423 L 839 424 L 840 425 L 840 427 L 841 428 L 841 432 L 842 433 L 842 437 L 841 438 L 841 442 L 840 443 L 840 444 L 839 445 L 839 446 L 838 447 L 838 448 L 835 451 L 834 451 L 833 452 L 831 452 L 830 453 L 821 453 L 820 452 L 817 452 L 816 453 L 806 453 L 804 451 L 804 420 L 807 417 L 810 417 "></path>
        <path fill="none" stroke="#00fafa" stroke-width="3" d="M 585 141 L 586 140 L 587 140 L 588 141 L 616 141 L 618 143 L 618 175 L 617 176 L 584 176 L 583 175 L 583 174 L 582 173 L 583 172 L 583 142 L 584 141 L 585 141 L 586 140 "></path>
        <path fill="none" stroke="#00fafa" stroke-width="3" d="M 749 308 L 750 307 L 782 307 L 784 309 L 784 324 L 783 325 L 784 326 L 784 337 L 785 338 L 785 340 L 783 342 L 782 342 L 781 343 L 780 342 L 751 342 L 749 340 L 749 308 L 750 307 "></path>
        <path fill="none" stroke="#00fafa" stroke-width="3" d="M 253 362 L 265 362 L 266 363 L 276 363 L 277 362 L 285 362 L 286 363 L 286 396 L 284 398 L 280 398 L 279 397 L 258 397 L 257 398 L 254 398 L 253 397 L 252 397 L 251 396 L 251 364 L 253 362 L 265 362 "></path>
        <path fill="none" stroke="#00fafa" stroke-width="3" d="M 282 307 L 283 306 L 284 307 L 285 307 L 286 308 L 286 341 L 285 342 L 284 342 L 283 343 L 282 342 L 253 342 L 251 340 L 251 311 L 252 310 L 252 309 L 253 308 L 254 308 L 255 307 L 282 307 L 283 306 "></path>
        <path fill="none" stroke="#00fafa" stroke-width="3" d="M 751 473 L 783 473 L 784 474 L 784 475 L 785 476 L 784 477 L 784 486 L 783 487 L 783 493 L 784 494 L 784 507 L 783 508 L 781 508 L 780 509 L 779 508 L 753 508 L 752 509 L 751 508 L 750 508 L 749 507 L 749 475 L 751 473 L 783 473 "></path>
        <path fill="none" stroke="#00fafa" stroke-width="3" d="M 641 141 L 667 141 L 668 142 L 670 142 L 672 144 L 672 145 L 673 146 L 673 169 L 674 170 L 674 173 L 673 174 L 673 175 L 672 176 L 639 176 L 638 175 L 638 144 L 641 141 L 667 141 "></path>
        <path fill="none" stroke="#00fafa" stroke-width="3" d="M 749 529 L 750 528 L 758 528 L 759 529 L 762 529 L 763 528 L 781 528 L 784 531 L 784 541 L 783 542 L 783 547 L 784 548 L 784 558 L 783 559 L 783 560 L 780 563 L 756 563 L 755 564 L 751 564 L 749 562 L 749 561 L 748 560 L 749 559 L 749 533 L 748 532 L 748 531 L 749 530 L 749 529 L 750 528 "></path>
        <path fill="none" stroke="#00fafa" stroke-width="3" d="M 322 142 L 323 141 L 329 141 L 330 142 L 333 142 L 334 143 L 335 143 L 336 144 L 337 144 L 340 147 L 340 148 L 341 149 L 341 152 L 342 153 L 342 158 L 341 159 L 341 175 L 336 180 L 335 180 L 334 181 L 332 181 L 331 182 L 322 182 L 321 181 L 319 181 L 318 180 L 317 180 L 316 179 L 315 179 L 309 173 L 309 172 L 308 171 L 308 170 L 307 169 L 307 167 L 306 166 L 306 157 L 307 156 L 307 154 L 308 153 L 308 152 L 310 150 L 310 149 L 313 146 L 314 146 L 316 144 L 317 144 L 318 143 L 319 143 L 320 142 L 322 142 L 323 141 "></path>
        <path fill="none" stroke="#00fafa" stroke-width="3" d="M 640 584 L 641 583 L 642 583 L 643 584 L 669 584 L 670 583 L 671 583 L 672 584 L 673 584 L 674 585 L 674 588 L 673 589 L 673 612 L 674 613 L 674 617 L 672 619 L 665 619 L 664 618 L 648 618 L 647 619 L 640 619 L 638 617 L 638 610 L 639 609 L 639 592 L 638 591 L 638 585 L 639 584 L 640 584 L 641 583 "></path>
        <path fill="none" stroke="#00fafa" stroke-width="3" d="M 695 583 L 699 583 L 700 584 L 722 584 L 723 583 L 726 583 L 727 584 L 728 584 L 729 585 L 729 591 L 728 592 L 728 609 L 729 610 L 729 615 L 725 619 L 719 619 L 718 618 L 702 618 L 701 619 L 695 619 L 694 618 L 694 617 L 693 616 L 693 613 L 694 612 L 694 590 L 693 589 L 693 585 L 695 583 L 699 583 "></path>
        <path fill="none" stroke="#00fafa" stroke-width="3" d="M 694 529 L 695 528 L 700 528 L 701 529 L 722 529 L 723 528 L 727 528 L 729 530 L 729 534 L 728 535 L 728 556 L 729 557 L 729 562 L 727 564 L 723 564 L 722 563 L 700 563 L 699 564 L 695 564 L 693 562 L 693 559 L 694 558 L 694 534 L 693 533 L 693 531 L 694 530 L 694 529 L 695 528 "></path>
        <path fill="none" stroke="#00fafa" stroke-width="3" d="M 364 639 L 395 639 L 397 641 L 397 670 L 393 674 L 371 674 L 370 673 L 367 673 L 363 669 L 363 668 L 362 667 L 362 646 L 361 645 L 361 642 L 364 639 L 395 639 "></path>
        <path fill="none" stroke="#00fafa" stroke-width="3" d="M 309 584 L 310 583 L 312 583 L 313 584 L 335 584 L 336 583 L 338 583 L 339 584 L 340 584 L 341 585 L 341 586 L 342 587 L 342 589 L 341 590 L 341 612 L 342 613 L 342 615 L 341 616 L 341 617 L 339 619 L 333 619 L 332 618 L 319 618 L 318 619 L 314 619 L 313 618 L 310 618 L 307 615 L 307 612 L 306 611 L 306 606 L 307 605 L 307 594 L 306 593 L 306 586 L 308 584 L 309 584 L 310 583 "></path>
        <path fill="none" stroke="#00fafa" stroke-width="3" d="M 308 306 L 310 306 L 311 307 L 337 307 L 338 306 L 339 306 L 342 309 L 342 310 L 341 311 L 341 339 L 338 342 L 334 342 L 333 341 L 315 341 L 314 342 L 307 342 L 306 341 L 306 335 L 307 334 L 307 316 L 306 315 L 306 308 L 308 306 L 310 306 "></path>
        <path fill="none" stroke="#00fafa" stroke-width="3" d="M 805 363 L 806 362 L 816 362 L 817 363 L 820 363 L 821 362 L 830 362 L 831 363 L 834 363 L 837 366 L 837 367 L 838 368 L 838 370 L 839 371 L 839 390 L 838 391 L 838 393 L 834 397 L 812 397 L 811 398 L 807 398 L 806 397 L 805 397 L 804 396 L 804 365 L 805 364 L 805 363 L 806 362 "></path>
        <path fill="none" stroke="#00fafa" stroke-width="3" d="M 363 251 L 367 251 L 368 252 L 390 252 L 391 251 L 394 251 L 396 253 L 396 282 L 395 283 L 395 284 L 394 285 L 393 285 L 392 286 L 367 286 L 366 287 L 363 287 L 361 285 L 361 282 L 362 281 L 362 258 L 361 257 L 361 253 L 363 251 L 367 251 "></path>
        <path fill="none" stroke="#00fafa" stroke-width="3" d="M 206 474 L 207 473 L 226 473 L 227 474 L 229 474 L 235 480 L 235 482 L 236 483 L 236 485 L 237 486 L 237 493 L 236 494 L 236 496 L 235 497 L 235 498 L 234 499 L 234 500 L 228 506 L 227 506 L 226 507 L 223 507 L 222 508 L 212 508 L 211 507 L 208 507 L 207 506 L 206 506 L 205 505 L 204 505 L 201 502 L 201 501 L 199 499 L 199 498 L 198 497 L 198 494 L 197 493 L 197 486 L 198 485 L 198 482 L 199 481 L 199 480 L 201 478 L 201 477 L 203 475 L 204 475 L 205 474 L 206 474 L 207 473 "></path>
        <path fill="none" stroke="#00fafa" stroke-width="3" d="M 694 640 L 695 639 L 724 639 L 725 640 L 726 640 L 729 643 L 729 644 L 730 645 L 730 648 L 731 649 L 731 657 L 730 658 L 730 660 L 729 661 L 729 663 L 727 665 L 727 666 L 722 671 L 721 671 L 720 672 L 719 672 L 718 673 L 710 673 L 709 674 L 707 674 L 706 673 L 699 673 L 698 672 L 697 672 L 694 669 L 694 666 L 693 665 L 693 660 L 694 659 L 694 647 L 693 646 L 693 642 L 694 641 L 694 640 L 695 639 "></path>
        <path fill="none" stroke="#00fafa" stroke-width="3" d="M 751 584 L 752 583 L 755 583 L 756 584 L 779 584 L 783 588 L 783 596 L 784 597 L 784 599 L 783 600 L 783 608 L 782 609 L 782 611 L 775 618 L 774 618 L 773 619 L 772 619 L 771 620 L 769 620 L 768 621 L 758 621 L 757 620 L 755 620 L 754 619 L 753 619 L 750 616 L 750 615 L 749 614 L 749 585 L 750 584 L 751 584 L 752 583 "></path>
        <path fill="none" stroke="#00fafa" stroke-width="3" d="M 306 418 L 307 417 L 310 417 L 311 418 L 339 418 L 341 420 L 341 424 L 340 425 L 340 445 L 341 446 L 341 450 L 339 452 L 338 452 L 337 453 L 336 453 L 335 452 L 314 452 L 313 453 L 307 453 L 306 452 L 306 443 L 307 442 L 307 426 L 306 425 L 306 422 L 305 421 L 305 420 L 306 419 L 306 418 L 307 417 "></path>
        <path fill="none" stroke="#00fafa" stroke-width="3" d="M 615 196 L 616 195 L 619 198 L 619 200 L 618 201 L 618 229 L 616 231 L 610 231 L 609 230 L 593 230 L 592 231 L 588 231 L 587 230 L 586 230 L 584 228 L 584 227 L 583 226 L 583 223 L 584 222 L 584 204 L 583 203 L 583 197 L 584 196 L 590 196 L 591 197 L 610 197 L 611 196 L 615 196 L 616 195 "></path>
        <path fill="none" stroke="#00fafa" stroke-width="3" d="M 538 87 L 539 86 L 550 86 L 551 87 L 555 87 L 556 88 L 557 88 L 562 93 L 562 97 L 563 98 L 563 118 L 560 121 L 530 121 L 527 118 L 527 112 L 528 111 L 528 93 L 533 88 L 534 88 L 535 87 L 538 87 L 539 86 "></path>
        <path fill="none" stroke="#00fafa" stroke-width="3" d="M 807 307 L 829 307 L 830 308 L 831 308 L 832 309 L 833 309 L 837 313 L 837 315 L 838 316 L 838 319 L 839 320 L 839 332 L 838 333 L 838 336 L 837 337 L 837 338 L 834 341 L 833 341 L 832 342 L 806 342 L 804 340 L 804 310 L 807 307 L 829 307 "></path>
        <path fill="none" stroke="#00fafa" stroke-width="3" d="M 806 473 L 832 473 L 833 474 L 834 474 L 837 477 L 837 478 L 838 479 L 838 482 L 839 483 L 839 495 L 838 496 L 838 499 L 837 500 L 837 502 L 833 506 L 832 506 L 831 507 L 830 507 L 829 508 L 807 508 L 804 505 L 804 475 L 806 473 L 832 473 "></path>
        <path fill="none" stroke="#00fafa" stroke-width="3" d="M 596 87 L 597 86 L 602 86 L 603 87 L 607 87 L 608 88 L 610 88 L 612 90 L 613 90 L 616 93 L 616 94 L 617 95 L 617 97 L 618 98 L 618 117 L 614 121 L 586 121 L 583 118 L 583 95 L 584 94 L 584 93 L 589 88 L 591 88 L 592 87 L 596 87 L 597 86 "></path>
        <path fill="none" stroke="#00fafa" stroke-width="3" d="M 222 418 L 223 417 L 226 417 L 227 418 L 228 418 L 230 420 L 230 421 L 231 422 L 231 448 L 230 449 L 230 450 L 228 452 L 227 452 L 226 453 L 210 453 L 209 452 L 206 452 L 205 451 L 204 451 L 199 446 L 199 445 L 198 444 L 198 443 L 197 442 L 197 428 L 198 427 L 198 425 L 200 423 L 200 422 L 203 419 L 204 419 L 205 418 L 222 418 L 223 417 "></path>
        <path fill="none" stroke="#00fafa" stroke-width="3" d="M 421 695 L 422 694 L 448 694 L 449 695 L 450 695 L 452 697 L 452 719 L 451 720 L 451 722 L 447 726 L 446 726 L 445 727 L 443 727 L 442 728 L 429 728 L 428 727 L 426 727 L 425 726 L 424 726 L 419 721 L 419 720 L 418 719 L 418 717 L 417 716 L 417 699 L 418 698 L 418 697 L 420 695 L 421 695 L 422 694 "></path>
        <path fill="none" stroke="#00fafa" stroke-width="3" d="M 209 363 L 210 362 L 226 362 L 227 363 L 228 363 L 231 366 L 231 394 L 228 397 L 206 397 L 205 396 L 204 396 L 203 395 L 202 395 L 200 393 L 200 392 L 198 390 L 198 388 L 197 387 L 197 373 L 198 372 L 198 371 L 199 370 L 199 369 L 204 364 L 205 364 L 206 363 L 209 363 L 210 362 "></path>
        <path fill="none" stroke="#00fafa" stroke-width="3" d="M 313 639 L 339 639 L 341 641 L 341 642 L 342 643 L 342 648 L 341 649 L 341 654 L 342 655 L 342 663 L 341 664 L 341 667 L 337 671 L 336 671 L 335 672 L 334 672 L 333 673 L 321 673 L 320 672 L 318 672 L 317 671 L 316 671 L 315 670 L 314 670 L 310 666 L 310 665 L 308 663 L 308 662 L 307 661 L 307 659 L 306 658 L 306 649 L 307 648 L 307 646 L 308 645 L 308 644 L 309 643 L 309 642 L 310 641 L 311 641 L 313 639 L 339 639 "></path>
        <path fill="none" stroke="#00fafa" stroke-width="3" d="M 262 584 L 263 583 L 282 583 L 283 584 L 284 584 L 286 586 L 286 612 L 284 614 L 284 615 L 283 616 L 282 616 L 281 617 L 280 617 L 279 618 L 277 618 L 276 619 L 268 619 L 267 618 L 265 618 L 264 617 L 263 617 L 262 616 L 261 616 L 254 609 L 254 608 L 253 607 L 253 604 L 252 603 L 252 594 L 253 593 L 253 591 L 254 590 L 254 589 L 255 588 L 255 587 L 257 585 L 258 585 L 259 584 L 262 584 L 263 583 "></path>
        <path fill="none" stroke="#00fafa" stroke-width="3" d="M 807 529 L 808 528 L 828 528 L 829 529 L 831 529 L 836 534 L 836 535 L 837 536 L 837 538 L 838 539 L 838 549 L 837 550 L 837 552 L 836 553 L 836 554 L 833 557 L 833 558 L 832 559 L 831 559 L 829 561 L 828 561 L 827 562 L 825 562 L 824 563 L 812 563 L 811 562 L 809 562 L 808 561 L 807 561 L 805 559 L 805 558 L 804 557 L 804 532 L 805 531 L 805 530 L 806 529 L 807 529 L 808 528 "></path>
        <path fill="none" stroke="#00fafa" stroke-width="3" d="M 811 253 L 812 252 L 824 252 L 825 253 L 827 253 L 828 254 L 829 254 L 836 261 L 836 262 L 837 263 L 837 265 L 838 266 L 838 276 L 837 277 L 837 279 L 836 280 L 836 281 L 832 285 L 831 285 L 830 286 L 828 286 L 827 287 L 808 287 L 804 283 L 804 259 L 805 258 L 805 257 L 809 253 L 811 253 L 812 252 "></path>
        <path fill="none" stroke="#00fafa" stroke-width="3" d="M 211 308 L 212 307 L 223 307 L 224 308 L 226 308 L 227 309 L 228 309 L 230 311 L 230 312 L 231 313 L 231 337 L 230 338 L 230 339 L 227 342 L 208 342 L 207 341 L 205 341 L 199 335 L 199 333 L 198 332 L 198 329 L 197 328 L 197 323 L 198 322 L 198 319 L 199 318 L 199 317 L 200 316 L 200 315 L 202 313 L 202 312 L 203 311 L 204 311 L 206 309 L 207 309 L 208 308 L 211 308 L 212 307 "></path>
        <path fill="none" stroke="#00fafa" stroke-width="3" d="M 642 695 L 643 694 L 666 694 L 667 695 L 668 695 L 671 698 L 671 699 L 672 700 L 672 702 L 673 703 L 673 712 L 672 713 L 672 716 L 671 717 L 671 718 L 669 720 L 669 721 L 666 724 L 665 724 L 664 725 L 663 725 L 662 726 L 661 726 L 660 727 L 656 727 L 655 728 L 653 728 L 652 727 L 648 727 L 647 726 L 646 726 L 645 725 L 644 725 L 640 721 L 640 720 L 639 719 L 639 717 L 638 716 L 638 699 L 639 698 L 639 697 L 641 695 L 642 695 L 643 694 "></path>
        <path fill="none" stroke="#00fafa" stroke-width="3" d="M 648 89 L 649 88 L 659 88 L 660 89 L 662 89 L 663 90 L 664 90 L 666 92 L 667 92 L 669 94 L 669 95 L 671 97 L 671 98 L 672 99 L 672 102 L 673 103 L 673 111 L 672 112 L 672 115 L 671 116 L 671 117 L 668 120 L 666 120 L 665 121 L 643 121 L 642 120 L 641 120 L 639 118 L 639 117 L 638 116 L 638 99 L 639 98 L 639 96 L 640 95 L 640 94 L 643 91 L 644 91 L 646 89 L 648 89 L 649 88 "></path>
        <path fill="none" stroke="#00fafa" stroke-width="3" d="M 616 570 L 617 569 L 618 570 L 618 572 L 617 573 L 617 612 L 618 613 L 618 625 L 613 630 L 612 630 L 611 631 L 609 631 L 608 632 L 603 632 L 602 633 L 596 633 L 595 632 L 589 632 L 588 631 L 586 631 L 583 628 L 583 588 L 584 587 L 584 586 L 585 585 L 586 585 L 587 584 L 589 584 L 590 585 L 601 585 L 602 586 L 601 587 L 600 587 L 599 588 L 596 588 L 595 589 L 591 589 L 590 590 L 589 590 L 589 591 L 588 592 L 588 597 L 589 598 L 589 609 L 590 610 L 590 623 L 591 624 L 597 624 L 598 623 L 597 623 L 594 620 L 594 618 L 597 615 L 599 615 L 600 614 L 602 614 L 603 613 L 605 613 L 606 614 L 607 614 L 608 615 L 608 619 L 607 620 L 607 621 L 606 622 L 606 623 L 608 623 L 610 621 L 610 609 L 611 608 L 611 598 L 612 597 L 612 584 L 613 583 L 613 576 L 614 575 L 614 574 L 615 573 L 615 572 L 616 571 L 616 570 L 617 569 "></path>
        <path fill="none" stroke="#00fafa" stroke-width="3" d="M 370 695 L 371 694 L 391 694 L 392 695 L 393 695 L 396 698 L 396 701 L 397 702 L 397 714 L 396 715 L 396 718 L 394 720 L 394 721 L 392 723 L 391 723 L 389 725 L 387 725 L 386 726 L 375 726 L 374 725 L 373 725 L 372 724 L 371 724 L 365 718 L 365 717 L 364 716 L 364 714 L 363 713 L 363 703 L 364 702 L 364 700 L 365 699 L 365 698 L 367 696 L 368 696 L 369 695 L 370 695 L 371 694 "></path>
        <path fill="none" stroke="#00fafa" stroke-width="3" d="M 211 529 L 212 528 L 222 528 L 223 529 L 226 529 L 230 533 L 230 534 L 231 535 L 231 553 L 230 554 L 230 555 L 229 556 L 229 557 L 227 559 L 226 559 L 225 560 L 224 560 L 223 561 L 220 561 L 219 562 L 215 562 L 214 561 L 211 561 L 210 560 L 209 560 L 208 559 L 207 559 L 202 554 L 202 553 L 201 552 L 201 551 L 200 550 L 200 548 L 199 547 L 199 541 L 200 540 L 200 538 L 201 537 L 201 536 L 202 535 L 202 534 L 205 531 L 206 531 L 208 529 L 211 529 L 212 528 "></path>
        <path fill="none" stroke="#00fafa" stroke-width="3" d="M 213 254 L 214 253 L 219 253 L 220 254 L 223 254 L 224 255 L 225 255 L 226 256 L 227 256 L 229 258 L 229 259 L 230 260 L 230 261 L 231 262 L 231 279 L 230 280 L 230 282 L 227 285 L 226 285 L 225 286 L 223 286 L 222 287 L 212 287 L 211 286 L 209 286 L 208 285 L 207 285 L 206 284 L 205 284 L 203 282 L 203 281 L 201 279 L 201 278 L 200 277 L 200 274 L 199 273 L 199 268 L 200 267 L 200 265 L 201 264 L 201 263 L 202 262 L 202 261 L 207 256 L 208 256 L 209 255 L 210 255 L 211 254 L 213 254 L 214 253 "></path>
        <path fill="none" stroke="#00fafa" stroke-width="3" d="M 488 182 L 489 181 L 493 181 L 494 182 L 498 182 L 499 183 L 500 183 L 501 184 L 502 184 L 507 189 L 507 190 L 508 191 L 508 196 L 507 197 L 507 232 L 506 233 L 506 235 L 505 236 L 505 237 L 501 241 L 500 241 L 499 240 L 499 239 L 500 238 L 500 237 L 501 236 L 501 235 L 502 234 L 502 232 L 503 231 L 503 222 L 502 221 L 502 210 L 501 209 L 501 193 L 498 190 L 496 190 L 495 189 L 488 189 L 487 190 L 483 190 L 482 191 L 480 191 L 479 192 L 478 192 L 477 193 L 476 193 L 475 194 L 474 194 L 472 196 L 471 196 L 466 201 L 466 202 L 464 204 L 464 205 L 463 206 L 463 207 L 462 208 L 462 210 L 461 211 L 461 217 L 463 219 L 463 220 L 470 227 L 470 228 L 478 236 L 478 237 L 483 242 L 483 243 L 482 244 L 478 240 L 477 240 L 462 225 L 461 225 L 456 220 L 456 219 L 455 218 L 455 217 L 454 216 L 454 213 L 455 212 L 455 209 L 456 208 L 456 206 L 457 205 L 457 203 L 458 202 L 458 201 L 460 199 L 460 198 L 462 196 L 462 195 L 468 189 L 469 189 L 471 187 L 472 187 L 474 185 L 475 185 L 476 184 L 478 184 L 479 183 L 481 183 L 482 182 L 488 182 L 489 181 "></path>
        <path fill="none" stroke="#00fafa" stroke-width="3" d="M 871 364 L 872 363 L 874 363 L 875 364 L 879 364 L 880 365 L 881 365 L 883 367 L 884 367 L 886 369 L 886 370 L 888 372 L 888 373 L 889 374 L 889 376 L 890 377 L 890 383 L 889 384 L 889 386 L 888 387 L 888 388 L 887 389 L 887 390 L 883 394 L 882 394 L 881 395 L 880 395 L 879 396 L 878 396 L 877 397 L 869 397 L 868 396 L 866 396 L 864 394 L 863 394 L 861 392 L 861 391 L 860 390 L 860 388 L 859 387 L 859 373 L 860 372 L 860 370 L 865 365 L 866 365 L 867 364 L 871 364 L 872 363 "></path>
        <path fill="none" stroke="#00fafa" stroke-width="3" d="M 816 584 L 817 583 L 820 583 L 821 584 L 825 584 L 826 585 L 827 585 L 828 586 L 829 586 L 832 589 L 832 590 L 834 592 L 834 594 L 835 595 L 835 603 L 834 604 L 834 605 L 833 606 L 833 607 L 832 608 L 832 609 L 829 612 L 828 612 L 826 614 L 825 614 L 824 615 L 820 615 L 819 616 L 817 616 L 816 615 L 813 615 L 812 614 L 811 614 L 810 613 L 809 613 L 806 610 L 806 609 L 805 608 L 805 607 L 804 606 L 804 592 L 805 591 L 805 589 L 809 585 L 810 585 L 811 584 L 816 584 L 817 583 "></path>
        <path fill="none" stroke="#00fafa" stroke-width="3" d="M 816 200 L 817 199 L 820 199 L 821 200 L 824 200 L 825 201 L 826 201 L 827 202 L 828 202 L 832 206 L 832 207 L 833 208 L 833 209 L 834 210 L 834 211 L 835 212 L 835 220 L 834 221 L 834 222 L 833 223 L 833 224 L 832 225 L 832 226 L 829 229 L 828 229 L 827 230 L 826 230 L 825 231 L 812 231 L 811 230 L 810 230 L 809 229 L 808 229 L 806 227 L 806 226 L 805 225 L 805 223 L 804 222 L 804 210 L 805 209 L 805 207 L 806 206 L 806 205 L 809 202 L 810 202 L 811 201 L 812 201 L 813 200 L 816 200 L 817 199 "></path>
        <path fill="none" stroke="#00fafa" stroke-width="3" d="M 702 695 L 703 694 L 715 694 L 716 695 L 718 695 L 720 697 L 721 697 L 722 698 L 722 699 L 724 701 L 724 703 L 725 704 L 725 713 L 724 714 L 724 715 L 723 716 L 723 717 L 717 723 L 716 723 L 715 724 L 712 724 L 711 725 L 707 725 L 706 724 L 703 724 L 702 723 L 701 723 L 696 718 L 696 717 L 695 716 L 695 715 L 694 714 L 694 703 L 695 702 L 695 700 L 700 695 L 702 695 L 703 694 "></path>
        <path fill="none" stroke="#00fafa" stroke-width="3" d="M 706 91 L 707 90 L 711 90 L 712 91 L 714 91 L 715 92 L 717 92 L 723 98 L 723 99 L 724 100 L 724 101 L 725 102 L 725 111 L 724 112 L 724 113 L 723 114 L 723 115 L 718 120 L 716 120 L 715 121 L 703 121 L 702 120 L 701 120 L 700 119 L 699 119 L 695 115 L 695 113 L 694 112 L 694 101 L 695 100 L 695 99 L 696 98 L 696 97 L 700 93 L 701 93 L 702 92 L 703 92 L 704 91 L 706 91 L 707 90 "></path>
        <path fill="none" stroke="#00fafa" stroke-width="3" d="M 544 748 L 545 747 L 546 748 L 550 748 L 551 749 L 552 749 L 554 751 L 555 751 L 557 753 L 557 754 L 559 756 L 559 757 L 560 758 L 560 761 L 561 762 L 561 765 L 560 766 L 560 769 L 559 770 L 559 771 L 553 777 L 552 777 L 551 778 L 549 778 L 548 779 L 542 779 L 541 778 L 539 778 L 538 777 L 537 777 L 531 771 L 531 770 L 530 769 L 530 766 L 529 765 L 529 761 L 530 760 L 530 758 L 531 757 L 531 756 L 532 755 L 532 754 L 536 750 L 537 750 L 538 749 L 539 749 L 540 748 L 544 748 L 545 747 "></path>
        <path fill="none" stroke="#00fafa" stroke-width="3" d="M 868 475 L 869 474 L 877 474 L 878 475 L 880 475 L 882 477 L 883 477 L 886 480 L 886 481 L 887 482 L 887 483 L 888 484 L 888 485 L 889 486 L 889 493 L 888 494 L 888 496 L 887 497 L 887 498 L 882 503 L 881 503 L 880 504 L 879 504 L 878 505 L 868 505 L 867 504 L 866 504 L 864 502 L 863 502 L 862 501 L 862 500 L 860 498 L 860 496 L 859 495 L 859 485 L 860 484 L 860 481 L 866 475 L 868 475 L 869 474 "></path>
        <path fill="none" stroke="#00fafa" stroke-width="3" d="M 867 311 L 868 310 L 878 310 L 879 311 L 880 311 L 881 312 L 882 312 L 887 317 L 887 318 L 888 319 L 888 321 L 889 322 L 889 329 L 888 330 L 888 332 L 886 334 L 886 335 L 883 338 L 882 338 L 880 340 L 878 340 L 877 341 L 870 341 L 869 340 L 867 340 L 866 339 L 865 339 L 861 335 L 861 334 L 860 333 L 860 331 L 859 330 L 859 321 L 860 320 L 860 318 L 861 317 L 861 316 L 866 311 L 867 311 L 868 310 "></path>
        <path fill="none" stroke="#00fafa" stroke-width="3" d="M 541 37 L 542 36 L 547 36 L 548 37 L 550 37 L 551 38 L 552 38 L 553 39 L 554 39 L 558 43 L 558 44 L 559 45 L 559 46 L 560 47 L 560 56 L 559 57 L 559 59 L 554 64 L 553 64 L 552 65 L 550 65 L 549 66 L 541 66 L 540 65 L 537 65 L 536 64 L 535 64 L 532 61 L 532 60 L 531 59 L 531 58 L 530 57 L 530 55 L 529 54 L 529 50 L 530 49 L 530 46 L 531 45 L 531 44 L 537 38 L 538 38 L 539 37 L 541 37 L 542 36 "></path>
        <path fill="none" stroke="#00fafa" stroke-width="3" d="M 485 750 L 486 749 L 494 749 L 495 750 L 498 750 L 499 751 L 500 751 L 503 754 L 503 755 L 504 756 L 504 757 L 505 758 L 505 761 L 506 762 L 506 764 L 505 765 L 505 768 L 504 769 L 504 770 L 503 771 L 503 772 L 499 776 L 498 776 L 497 777 L 496 777 L 495 778 L 493 778 L 492 779 L 488 779 L 487 778 L 485 778 L 484 777 L 483 777 L 482 776 L 481 776 L 478 773 L 478 772 L 476 770 L 476 768 L 475 767 L 475 759 L 476 758 L 476 756 L 481 751 L 482 751 L 483 750 L 485 750 L 486 749 "></path>
        <path fill="none" stroke="#00fafa" stroke-width="3" d="M 488 37 L 489 36 L 492 36 L 493 37 L 495 37 L 496 38 L 497 38 L 498 39 L 499 39 L 503 43 L 503 44 L 504 45 L 504 46 L 505 47 L 505 57 L 504 58 L 504 59 L 499 64 L 498 64 L 497 65 L 495 65 L 494 66 L 486 66 L 485 65 L 483 65 L 482 64 L 481 64 L 477 60 L 477 59 L 476 58 L 476 57 L 475 56 L 475 48 L 476 47 L 476 45 L 478 43 L 478 42 L 481 39 L 482 39 L 483 38 L 484 38 L 485 37 L 488 37 L 489 36 "></path>
        <path fill="none" stroke="#00fafa" stroke-width="3" d="M 323 695 L 324 694 L 327 694 L 328 695 L 332 695 L 333 696 L 334 696 L 339 701 L 339 703 L 340 704 L 340 708 L 341 709 L 340 710 L 340 714 L 339 715 L 339 716 L 333 722 L 332 722 L 331 723 L 328 723 L 327 724 L 325 724 L 324 723 L 321 723 L 320 722 L 319 722 L 318 721 L 317 721 L 314 718 L 314 717 L 312 715 L 312 713 L 311 712 L 311 705 L 312 704 L 312 703 L 313 702 L 313 701 L 318 696 L 319 696 L 320 695 L 323 695 L 324 694 "></path>
        <path fill="none" stroke="#00fafa" stroke-width="3" d="M 595 38 L 596 37 L 603 37 L 604 38 L 606 38 L 608 40 L 609 40 L 611 42 L 611 43 L 613 45 L 613 46 L 614 47 L 614 56 L 613 57 L 613 58 L 612 59 L 612 60 L 609 63 L 608 63 L 607 64 L 606 64 L 605 65 L 601 65 L 600 66 L 599 66 L 598 65 L 594 65 L 593 64 L 592 64 L 591 63 L 590 63 L 588 61 L 588 60 L 586 58 L 586 56 L 585 55 L 585 48 L 586 47 L 586 45 L 593 38 L 595 38 L 596 37 "></path>
        <path fill="none" stroke="#00fafa" stroke-width="3" d="M 698 454 L 699 453 L 712 453 L 713 454 L 715 454 L 717 456 L 718 456 L 729 467 L 729 475 L 728 476 L 728 501 L 729 502 L 729 507 L 727 509 L 725 509 L 724 508 L 719 508 L 718 507 L 688 507 L 687 508 L 684 508 L 683 509 L 681 509 L 680 508 L 682 506 L 683 506 L 684 505 L 686 505 L 687 504 L 689 504 L 690 503 L 698 503 L 699 502 L 713 502 L 714 501 L 717 501 L 718 502 L 720 502 L 721 501 L 722 501 L 722 479 L 723 478 L 723 470 L 722 469 L 722 468 L 721 467 L 721 466 L 716 461 L 715 461 L 714 460 L 713 460 L 712 459 L 711 459 L 710 458 L 701 458 L 697 462 L 697 467 L 696 468 L 694 466 L 694 464 L 693 463 L 693 462 L 694 461 L 694 459 L 695 458 L 695 457 L 696 456 L 696 455 L 697 454 L 698 454 L 699 453 "></path>
        <path fill="none" stroke="#00fafa" stroke-width="3" d="M 211 203 L 212 202 L 221 202 L 222 203 L 223 203 L 224 204 L 225 204 L 228 207 L 228 208 L 230 210 L 230 212 L 231 213 L 231 219 L 230 220 L 230 222 L 228 224 L 228 225 L 226 227 L 225 227 L 223 229 L 222 229 L 221 230 L 212 230 L 211 229 L 210 229 L 209 228 L 208 228 L 205 225 L 205 224 L 203 222 L 203 220 L 202 219 L 202 213 L 203 212 L 203 210 L 205 208 L 205 207 L 208 204 L 209 204 L 210 203 L 211 203 L 212 202 "></path>
        <path fill="none" stroke="#00fafa" stroke-width="3" d="M 211 586 L 212 585 L 221 585 L 222 586 L 223 586 L 224 587 L 225 587 L 228 590 L 228 591 L 229 592 L 229 593 L 230 594 L 230 604 L 229 605 L 229 606 L 228 607 L 228 608 L 225 611 L 224 611 L 223 612 L 222 612 L 221 613 L 218 613 L 217 614 L 216 614 L 215 613 L 212 613 L 211 612 L 210 612 L 209 611 L 208 611 L 204 607 L 204 606 L 203 605 L 203 604 L 202 603 L 202 596 L 203 595 L 203 593 L 204 592 L 204 591 L 208 587 L 209 587 L 210 586 L 211 586 L 212 585 "></path>
        <path fill="none" stroke="#00fafa" stroke-width="3" d="M 430 751 L 431 750 L 440 750 L 441 751 L 443 751 L 448 756 L 448 757 L 449 758 L 449 760 L 450 761 L 450 766 L 449 767 L 449 769 L 448 770 L 448 771 L 444 775 L 443 775 L 441 777 L 438 777 L 437 778 L 434 778 L 433 777 L 431 777 L 430 776 L 429 776 L 428 775 L 427 775 L 424 772 L 424 771 L 422 769 L 422 766 L 421 765 L 421 761 L 422 760 L 422 758 L 423 757 L 423 756 L 427 752 L 428 752 L 429 751 L 430 751 L 431 750 "></path>
        <path fill="none" stroke="#00fafa" stroke-width="3" d="M 157 367 L 158 366 L 165 366 L 166 367 L 168 367 L 170 369 L 171 369 L 172 370 L 172 371 L 174 373 L 174 374 L 175 375 L 175 385 L 174 386 L 174 387 L 173 388 L 173 389 L 170 392 L 169 392 L 168 393 L 167 393 L 166 394 L 157 394 L 156 393 L 155 393 L 149 387 L 149 386 L 148 385 L 148 382 L 147 381 L 147 379 L 148 378 L 148 375 L 149 374 L 149 373 L 154 368 L 155 368 L 156 367 L 157 367 L 158 366 "></path>
        <path fill="none" stroke="#00fafa" stroke-width="3" d="M 156 422 L 157 421 L 166 421 L 167 422 L 168 422 L 169 423 L 170 423 L 173 426 L 173 427 L 174 428 L 174 429 L 175 430 L 175 440 L 174 441 L 174 442 L 168 448 L 166 448 L 165 449 L 158 449 L 157 448 L 156 448 L 155 447 L 154 447 L 149 442 L 149 441 L 148 440 L 148 437 L 147 436 L 147 434 L 148 433 L 148 430 L 149 429 L 149 428 L 155 422 L 156 422 L 157 421 "></path>
        <path fill="none" stroke="#00fafa" stroke-width="3" d="M 433 38 L 434 37 L 437 37 L 438 38 L 440 38 L 441 39 L 442 39 L 443 40 L 444 40 L 447 43 L 447 44 L 448 45 L 448 46 L 449 47 L 449 50 L 450 51 L 450 52 L 449 53 L 449 56 L 448 57 L 448 58 L 447 59 L 447 60 L 444 63 L 443 63 L 442 64 L 441 64 L 440 65 L 431 65 L 430 64 L 429 64 L 428 63 L 427 63 L 424 60 L 424 59 L 422 57 L 422 54 L 421 53 L 421 50 L 422 49 L 422 46 L 424 44 L 424 43 L 427 40 L 428 40 L 430 38 L 433 38 L 434 37 "></path>
        <path fill="none" stroke="#00fafa" stroke-width="3" d="M 159 477 L 160 476 L 163 476 L 164 477 L 166 477 L 167 478 L 168 478 L 169 479 L 170 479 L 172 481 L 172 482 L 173 483 L 173 484 L 174 485 L 174 487 L 175 488 L 175 491 L 174 492 L 174 495 L 172 497 L 172 498 L 170 500 L 169 500 L 167 502 L 165 502 L 164 503 L 159 503 L 158 502 L 156 502 L 154 500 L 153 500 L 151 498 L 151 497 L 149 495 L 149 493 L 148 492 L 148 487 L 149 486 L 149 485 L 150 484 L 150 483 L 155 478 L 156 478 L 157 477 L 159 477 L 160 476 "></path>
        <path fill="none" stroke="#00fafa" stroke-width="3" d="M 560 581 L 561 580 L 562 581 L 562 621 L 563 622 L 563 627 L 562 628 L 562 629 L 559 632 L 557 632 L 556 633 L 551 633 L 550 634 L 539 634 L 538 633 L 536 633 L 534 631 L 533 631 L 528 626 L 528 625 L 527 624 L 527 620 L 528 619 L 528 611 L 527 610 L 527 609 L 526 608 L 526 607 L 527 606 L 528 606 L 531 609 L 531 610 L 532 611 L 532 612 L 533 613 L 533 618 L 534 619 L 534 622 L 535 623 L 535 624 L 536 625 L 537 625 L 538 626 L 542 626 L 543 627 L 545 627 L 546 626 L 554 626 L 556 624 L 556 611 L 557 610 L 557 596 L 558 595 L 558 587 L 559 586 L 559 583 L 560 582 L 560 581 L 561 580 "></path>
        <path fill="none" stroke="#00fafa" stroke-width="3" d="M 158 313 L 159 312 L 165 312 L 166 313 L 167 313 L 168 314 L 169 314 L 172 317 L 172 318 L 174 320 L 174 323 L 175 324 L 175 327 L 174 328 L 174 330 L 173 331 L 173 332 L 168 337 L 167 337 L 166 338 L 163 338 L 162 339 L 161 339 L 160 338 L 157 338 L 156 337 L 155 337 L 150 332 L 150 331 L 149 330 L 149 328 L 148 327 L 148 323 L 149 322 L 149 320 L 151 318 L 151 317 L 154 314 L 155 314 L 156 313 L 158 313 L 159 312 "></path>
        <path fill="none" stroke="#00fafa" stroke-width="3" d="M 649 40 L 650 39 L 659 39 L 660 40 L 661 40 L 666 45 L 666 46 L 667 47 L 667 56 L 666 57 L 666 58 L 661 63 L 660 63 L 659 64 L 650 64 L 649 63 L 648 63 L 643 58 L 643 57 L 642 56 L 642 47 L 643 46 L 643 45 L 648 40 L 649 40 L 650 39 "></path>
        <path fill="none" stroke="#00fafa" stroke-width="3" d="M 457 586 L 458 585 L 464 585 L 465 586 L 470 586 L 471 587 L 470 588 L 469 588 L 468 589 L 464 589 L 463 590 L 462 590 L 460 592 L 460 600 L 461 601 L 461 603 L 462 604 L 462 606 L 464 608 L 464 609 L 466 611 L 467 611 L 468 612 L 470 612 L 471 613 L 474 613 L 475 612 L 495 612 L 496 613 L 500 613 L 501 612 L 502 612 L 504 610 L 504 609 L 508 605 L 509 605 L 510 606 L 509 607 L 509 608 L 508 609 L 508 610 L 507 611 L 507 617 L 505 619 L 500 619 L 499 618 L 476 618 L 475 619 L 466 619 L 457 610 L 457 609 L 456 608 L 456 607 L 455 606 L 455 602 L 454 601 L 454 589 L 455 588 L 455 587 L 456 586 L 457 586 L 458 585 "></path>
        <path fill="none" stroke="#00fafa" stroke-width="3" d="M 817 642 L 818 641 L 820 641 L 821 642 L 823 642 L 824 643 L 825 643 L 826 644 L 827 644 L 829 646 L 829 647 L 830 648 L 830 649 L 831 650 L 831 652 L 832 653 L 832 655 L 831 656 L 831 659 L 829 661 L 829 662 L 827 664 L 826 664 L 824 666 L 821 666 L 820 667 L 818 667 L 817 666 L 814 666 L 812 664 L 811 664 L 809 662 L 809 661 L 807 659 L 807 657 L 806 656 L 806 652 L 807 651 L 807 649 L 808 648 L 808 647 L 811 644 L 812 644 L 814 642 L 817 642 L 818 641 "></path>
        <path fill="none" stroke="#00fafa" stroke-width="3" d="M 761 697 L 762 696 L 766 696 L 767 697 L 769 697 L 771 699 L 772 699 L 774 701 L 774 702 L 775 703 L 775 704 L 776 705 L 776 713 L 775 714 L 775 715 L 770 720 L 769 720 L 768 721 L 760 721 L 759 720 L 758 720 L 753 715 L 753 714 L 752 713 L 752 705 L 753 704 L 753 703 L 754 702 L 754 701 L 756 699 L 757 699 L 759 697 L 761 697 L 762 696 "></path>
        <path fill="none" stroke="#00fafa" stroke-width="3" d="M 560 196 L 561 195 L 563 197 L 563 202 L 562 203 L 562 234 L 561 235 L 560 234 L 560 232 L 559 231 L 559 228 L 558 227 L 558 219 L 557 218 L 557 203 L 556 202 L 551 202 L 550 203 L 542 203 L 541 202 L 535 202 L 533 204 L 533 223 L 532 224 L 532 232 L 531 233 L 531 235 L 530 236 L 529 235 L 529 220 L 528 219 L 528 201 L 527 200 L 527 199 L 528 198 L 528 197 L 529 196 L 535 196 L 536 197 L 555 197 L 556 196 L 560 196 L 561 195 "></path>
        <path fill="none" stroke="#00fafa" stroke-width="3" d="M 760 95 L 761 94 L 767 94 L 768 95 L 770 95 L 775 100 L 775 101 L 776 102 L 776 110 L 775 111 L 775 112 L 774 113 L 774 114 L 772 116 L 771 116 L 769 118 L 767 118 L 766 119 L 763 119 L 762 118 L 759 118 L 757 116 L 756 116 L 755 115 L 755 114 L 753 112 L 753 111 L 752 110 L 752 102 L 753 101 L 753 100 L 757 96 L 758 96 L 759 95 L 760 95 L 761 94 "></path>
        <path fill="none" stroke="#00fafa" stroke-width="3" d="M 376 752 L 385 752 L 386 753 L 387 753 L 391 757 L 391 758 L 392 759 L 392 761 L 393 762 L 393 765 L 392 766 L 392 768 L 391 769 L 391 770 L 387 774 L 386 774 L 385 775 L 384 775 L 383 776 L 379 776 L 378 775 L 376 775 L 375 774 L 374 774 L 370 770 L 370 769 L 369 768 L 369 766 L 368 765 L 368 763 L 369 762 L 369 759 L 370 758 L 370 757 L 373 754 L 374 754 L 376 752 L 385 752 "></path>
        <path fill="none" stroke="#00fafa" stroke-width="3" d="M 379 40 L 380 39 L 381 39 L 382 40 L 385 40 L 386 41 L 387 41 L 391 45 L 391 46 L 392 47 L 392 49 L 393 50 L 393 53 L 392 54 L 392 56 L 391 57 L 391 58 L 387 62 L 386 62 L 385 63 L 383 63 L 382 64 L 380 64 L 379 63 L 376 63 L 374 61 L 373 61 L 371 59 L 371 58 L 369 56 L 369 47 L 371 45 L 371 44 L 373 42 L 374 42 L 376 40 L 379 40 L 380 39 "></path>
        <path fill="none" stroke="#00fafa" stroke-width="3" d="M 674 514 L 675 515 L 675 516 L 674 517 L 674 518 L 673 519 L 673 525 L 672 526 L 672 537 L 673 538 L 673 558 L 674 559 L 674 562 L 672 564 L 669 564 L 668 563 L 627 563 L 626 564 L 625 564 L 624 565 L 623 565 L 622 564 L 624 562 L 625 562 L 626 561 L 627 561 L 628 560 L 631 560 L 632 559 L 641 559 L 642 558 L 666 558 L 668 556 L 668 551 L 667 550 L 668 549 L 668 530 L 669 529 L 669 524 L 670 523 L 670 520 L 671 519 L 671 518 L 672 517 L 672 516 L 674 514 L 675 515 "></path>
        <path fill="none" stroke="#00fafa" stroke-width="3" d="M 158 534 L 159 533 L 164 533 L 165 534 L 166 534 L 167 535 L 168 535 L 171 538 L 171 539 L 172 540 L 172 542 L 173 543 L 173 547 L 172 548 L 172 549 L 171 550 L 171 551 L 168 554 L 167 554 L 166 555 L 165 555 L 164 556 L 159 556 L 158 555 L 156 555 L 151 550 L 151 548 L 150 547 L 150 542 L 151 541 L 151 539 L 155 535 L 156 535 L 157 534 L 158 534 L 159 533 "></path>
        <path fill="none" stroke="#00fafa" stroke-width="3" d="M 158 260 L 159 259 L 164 259 L 165 260 L 166 260 L 167 261 L 168 261 L 171 264 L 171 265 L 172 266 L 172 267 L 173 268 L 173 273 L 172 274 L 172 275 L 171 276 L 171 277 L 168 280 L 167 280 L 166 281 L 165 281 L 164 282 L 159 282 L 158 281 L 157 281 L 156 280 L 155 280 L 152 277 L 152 276 L 151 275 L 151 274 L 150 273 L 150 268 L 151 267 L 151 266 L 152 265 L 152 264 L 155 261 L 156 261 L 157 260 L 158 260 L 159 259 "></path>
        <path fill="none" stroke="#00fafa" stroke-width="3" d="M 872 589 L 873 588 L 874 588 L 875 589 L 878 589 L 880 591 L 881 591 L 882 592 L 882 593 L 884 595 L 884 597 L 885 598 L 885 601 L 884 602 L 884 604 L 879 609 L 878 609 L 877 610 L 870 610 L 869 609 L 868 609 L 864 605 L 864 604 L 863 603 L 863 596 L 864 595 L 864 594 L 868 590 L 869 590 L 870 589 L 872 589 L 873 588 "></path>
        <path fill="none" stroke="#00fafa" stroke-width="3" d="M 870 206 L 871 205 L 877 205 L 878 206 L 879 206 L 883 210 L 883 211 L 884 212 L 884 214 L 885 215 L 885 217 L 884 218 L 884 220 L 883 221 L 883 222 L 880 225 L 879 225 L 878 226 L 876 226 L 875 227 L 872 227 L 871 226 L 869 226 L 864 221 L 864 220 L 863 219 L 863 212 L 865 210 L 865 209 L 867 207 L 868 207 L 869 206 L 870 206 L 871 205 "></path>
        <path fill="none" stroke="#00fafa" stroke-width="3" d="M 213 151 L 214 150 L 218 150 L 219 151 L 220 151 L 221 152 L 222 152 L 225 155 L 225 156 L 226 157 L 226 158 L 227 159 L 227 163 L 226 164 L 226 165 L 225 166 L 225 167 L 222 170 L 221 170 L 220 171 L 212 171 L 210 169 L 209 169 L 208 168 L 208 167 L 206 165 L 206 162 L 205 161 L 205 160 L 206 159 L 206 157 L 207 156 L 207 155 L 210 152 L 211 152 L 212 151 L 213 151 L 214 150 "></path>
        <path fill="none" stroke="#00fafa" stroke-width="3" d="M 707 754 L 708 753 L 711 753 L 712 754 L 714 754 L 719 759 L 719 760 L 720 761 L 720 766 L 719 767 L 719 768 L 718 769 L 718 770 L 715 773 L 714 773 L 713 774 L 706 774 L 705 773 L 704 773 L 701 770 L 701 769 L 700 768 L 700 767 L 699 766 L 699 761 L 700 760 L 700 759 L 705 754 L 707 754 L 708 753 "></path>
        <path fill="none" stroke="#00fafa" stroke-width="3" d="M 706 42 L 707 41 L 712 41 L 713 42 L 714 42 L 719 47 L 719 49 L 720 50 L 720 53 L 719 54 L 719 56 L 714 61 L 712 61 L 711 62 L 707 62 L 706 61 L 705 61 L 704 60 L 703 60 L 701 58 L 701 57 L 699 55 L 699 48 L 700 47 L 700 46 L 703 43 L 704 43 L 705 42 L 706 42 L 707 41 "></path>
        <path fill="none" stroke="#00fafa" stroke-width="3" d="M 431 233 L 432 232 L 437 232 L 438 233 L 439 233 L 448 242 L 448 243 L 459 254 L 459 255 L 458 256 L 454 252 L 453 252 L 444 243 L 443 243 L 440 240 L 439 240 L 438 239 L 437 239 L 436 238 L 433 238 L 432 239 L 430 239 L 428 241 L 427 241 L 423 245 L 423 246 L 422 247 L 422 249 L 421 250 L 421 275 L 420 276 L 420 278 L 419 279 L 418 278 L 418 257 L 417 256 L 417 252 L 416 251 L 416 246 L 418 244 L 418 243 L 421 240 L 422 240 L 422 239 L 425 236 L 426 236 L 429 233 L 431 233 L 432 232 "></path>
        <path fill="none" stroke="#00fafa" stroke-width="3" d="M 925 370 L 932 370 L 934 372 L 935 372 L 937 374 L 937 375 L 938 376 L 938 377 L 939 378 L 939 382 L 938 383 L 938 384 L 937 385 L 937 386 L 934 389 L 933 389 L 932 390 L 925 390 L 924 389 L 923 389 L 920 386 L 920 385 L 919 384 L 919 383 L 918 382 L 918 378 L 919 377 L 919 376 L 920 375 L 920 374 L 922 372 L 923 372 L 925 370 L 932 370 "></path>
        <path fill="none" stroke="#00fafa" stroke-width="3" d="M 924 426 L 925 425 L 932 425 L 933 426 L 934 426 L 937 429 L 937 430 L 938 431 L 938 432 L 939 433 L 939 437 L 938 438 L 938 439 L 937 440 L 937 441 L 935 443 L 934 443 L 932 445 L 926 445 L 925 444 L 924 444 L 923 443 L 922 443 L 920 441 L 920 440 L 919 439 L 919 437 L 918 436 L 918 434 L 919 433 L 919 431 L 920 430 L 920 429 L 923 426 L 924 426 L 925 425 "></path>
        <path fill="none" stroke="#00fafa" stroke-width="3" d="M 324 755 L 325 754 L 327 754 L 328 755 L 330 755 L 334 759 L 334 760 L 335 761 L 335 766 L 334 767 L 334 768 L 330 772 L 329 772 L 328 773 L 323 773 L 322 772 L 321 772 L 317 768 L 317 766 L 316 765 L 316 763 L 317 762 L 317 760 L 322 755 L 324 755 L 325 754 "></path>
        <path fill="none" stroke="#00fafa" stroke-width="3" d="M 322 43 L 323 42 L 328 42 L 329 43 L 330 43 L 334 47 L 334 48 L 335 49 L 335 53 L 334 54 L 334 55 L 333 56 L 333 57 L 331 59 L 330 59 L 329 60 L 322 60 L 317 55 L 317 53 L 316 52 L 316 51 L 317 50 L 317 48 L 318 47 L 318 46 L 321 43 L 322 43 L 323 42 "></path>
        <path fill="none" stroke="#00fafa" stroke-width="3" d="M 363 306 L 365 306 L 366 307 L 368 307 L 369 308 L 389 308 L 390 309 L 389 310 L 387 310 L 386 311 L 369 311 L 368 312 L 367 312 L 366 313 L 366 334 L 365 335 L 365 344 L 366 345 L 366 347 L 367 348 L 367 349 L 368 350 L 368 351 L 367 352 L 366 352 L 361 347 L 361 341 L 362 340 L 362 334 L 363 333 L 363 328 L 362 327 L 362 312 L 361 311 L 361 308 L 363 306 L 365 306 "></path>
        <path fill="none" stroke="#00fafa" stroke-width="3" d="M 157 208 L 158 207 L 164 207 L 165 208 L 166 208 L 169 211 L 169 212 L 170 213 L 170 218 L 169 219 L 169 220 L 166 223 L 165 223 L 164 224 L 158 224 L 153 219 L 153 217 L 152 216 L 152 215 L 153 214 L 153 212 L 154 211 L 154 210 L 156 208 L 157 208 L 158 207 "></path>
        <path fill="none" stroke="#00fafa" stroke-width="3" d="M 816 701 L 822 701 L 827 706 L 827 712 L 826 713 L 826 714 L 824 716 L 823 716 L 822 717 L 816 717 L 811 712 L 811 706 L 816 701 L 822 701 "></path>
        <path fill="none" stroke="#00fafa" stroke-width="3" d="M 816 98 L 822 98 L 823 99 L 824 99 L 826 101 L 826 102 L 827 103 L 827 109 L 822 114 L 817 114 L 816 113 L 815 113 L 812 110 L 812 109 L 811 108 L 811 103 L 816 98 L 822 98 "></path>
        <path fill="none" stroke="#00fafa" stroke-width="3" d="M 395 491 L 396 492 L 396 494 L 397 495 L 397 500 L 398 501 L 398 503 L 399 504 L 399 505 L 400 506 L 400 507 L 401 508 L 401 509 L 403 511 L 403 512 L 413 522 L 414 522 L 416 524 L 417 524 L 418 525 L 419 525 L 420 526 L 421 526 L 422 527 L 424 527 L 425 528 L 428 528 L 429 529 L 432 529 L 433 530 L 431 532 L 426 532 L 425 531 L 423 531 L 422 530 L 421 530 L 420 529 L 418 529 L 416 527 L 415 527 L 414 526 L 413 526 L 411 524 L 410 524 L 401 515 L 401 514 L 399 512 L 399 511 L 398 510 L 398 509 L 397 508 L 397 507 L 396 506 L 396 505 L 395 504 L 395 503 L 394 502 L 394 500 L 393 499 L 393 493 L 395 491 L 396 492 "></path>
        <path fill="none" stroke="#00fafa" stroke-width="3" d="M 104 373 L 105 372 L 108 372 L 109 373 L 110 373 L 113 376 L 113 377 L 114 378 L 114 383 L 110 387 L 109 387 L 108 388 L 104 388 L 103 387 L 102 387 L 100 385 L 100 384 L 99 383 L 99 382 L 98 381 L 98 379 L 99 378 L 99 377 L 100 376 L 100 375 L 101 374 L 102 374 L 103 373 L 104 373 L 105 372 "></path>
        <path fill="none" stroke="#00fafa" stroke-width="3" d="M 103 428 L 104 427 L 108 427 L 109 428 L 110 428 L 113 431 L 113 432 L 114 433 L 114 437 L 113 438 L 113 439 L 110 442 L 108 442 L 107 443 L 105 443 L 104 442 L 103 442 L 102 441 L 101 441 L 100 440 L 100 439 L 99 438 L 99 437 L 98 436 L 98 434 L 99 433 L 99 431 L 102 428 L 103 428 L 104 427 "></path>
        <path fill="none" stroke="#00fafa" stroke-width="3" d="M 682 465 L 686 465 L 688 467 L 688 468 L 689 469 L 689 481 L 688 482 L 688 483 L 686 485 L 685 485 L 684 486 L 683 486 L 682 485 L 681 485 L 680 484 L 680 483 L 679 482 L 679 481 L 678 480 L 678 476 L 679 475 L 679 469 L 680 468 L 680 467 L 682 465 L 686 465 "></path>
        <path fill="none" stroke="#00fafa" stroke-width="3" d="M 689 374 L 690 373 L 691 374 L 692 374 L 695 377 L 695 378 L 696 379 L 696 381 L 697 382 L 696 383 L 696 388 L 695 389 L 695 392 L 694 393 L 694 395 L 693 396 L 693 398 L 692 399 L 692 400 L 691 401 L 691 402 L 689 404 L 689 405 L 686 408 L 686 409 L 681 414 L 680 414 L 677 417 L 676 417 L 674 419 L 673 419 L 672 420 L 671 420 L 670 421 L 668 421 L 667 420 L 668 419 L 669 419 L 670 418 L 671 418 L 672 417 L 673 417 L 675 415 L 676 415 L 684 407 L 684 406 L 686 404 L 686 403 L 687 402 L 687 401 L 688 400 L 688 399 L 689 398 L 689 397 L 690 396 L 690 394 L 691 393 L 691 390 L 692 389 L 692 381 L 691 380 L 691 378 L 690 377 L 690 376 L 689 375 L 689 374 L 690 373 "></path>
        <path fill="none" stroke="#00fafa" stroke-width="3" d="M 616 252 L 617 251 L 624 251 L 635 262 L 636 262 L 638 264 L 638 265 L 639 266 L 639 272 L 638 273 L 638 274 L 637 275 L 636 274 L 636 273 L 635 272 L 635 270 L 634 269 L 634 267 L 633 266 L 633 265 L 625 257 L 624 257 L 623 256 L 621 256 L 620 255 L 594 255 L 593 254 L 594 253 L 611 253 L 612 252 L 616 252 L 617 251 "></path>
        <path fill="none" stroke="#00fafa" stroke-width="3" d="M 653 286 L 664 286 L 665 287 L 668 287 L 669 288 L 670 288 L 671 289 L 672 289 L 674 291 L 674 298 L 673 299 L 673 307 L 672 308 L 672 324 L 671 325 L 670 324 L 670 297 L 669 296 L 669 294 L 667 292 L 666 292 L 665 291 L 662 291 L 661 290 L 655 290 L 654 289 L 652 289 L 651 288 L 653 286 L 664 286 "></path>
        <path fill="none" stroke="#00fafa" stroke-width="3" d="M 872 154 L 873 153 L 875 153 L 876 154 L 878 154 L 881 157 L 881 159 L 882 160 L 882 162 L 881 163 L 881 164 L 877 168 L 871 168 L 867 164 L 867 162 L 866 161 L 867 160 L 867 158 L 868 157 L 868 156 L 869 155 L 870 155 L 871 154 L 872 154 L 873 153 "></path>
        <path fill="none" stroke="#00fafa" stroke-width="3" d="M 104 318 L 108 318 L 109 319 L 110 319 L 113 322 L 113 328 L 109 332 L 104 332 L 103 331 L 102 331 L 100 329 L 100 328 L 99 327 L 99 324 L 100 323 L 100 322 L 104 318 L 108 318 "></path>
        <path fill="none" stroke="#00fafa" stroke-width="3" d="M 215 703 L 216 702 L 217 703 L 219 703 L 222 706 L 222 708 L 223 709 L 223 710 L 222 711 L 222 712 L 219 715 L 218 715 L 217 716 L 214 716 L 213 715 L 212 715 L 210 713 L 210 712 L 209 711 L 209 708 L 210 707 L 210 706 L 213 703 L 215 703 L 216 702 "></path>
        <path fill="none" stroke="#00fafa" stroke-width="3" d="M 213 100 L 214 99 L 217 99 L 218 100 L 219 100 L 222 103 L 222 109 L 219 112 L 213 112 L 210 109 L 210 108 L 209 107 L 209 104 L 210 103 L 210 102 L 212 100 L 213 100 L 214 99 "></path>
        <path fill="none" stroke="#00fafa" stroke-width="3" d="M 268 759 L 269 758 L 273 758 L 277 762 L 277 766 L 273 770 L 269 770 L 268 769 L 267 769 L 265 767 L 265 762 L 266 761 L 266 760 L 267 759 L 268 759 L 269 758 "></path>
        <path fill="none" stroke="#00fafa" stroke-width="3" d="M 268 46 L 269 45 L 273 45 L 276 48 L 276 49 L 277 50 L 277 52 L 276 53 L 276 54 L 273 57 L 269 57 L 268 56 L 267 56 L 266 55 L 266 54 L 265 53 L 265 49 L 266 48 L 266 47 L 267 46 L 268 46 L 269 45 "></path>
        <path fill="none" stroke="#00fafa" stroke-width="3" d="M 159 155 L 163 155 L 166 158 L 166 159 L 167 160 L 167 162 L 166 163 L 166 164 L 164 166 L 162 166 L 161 167 L 160 166 L 158 166 L 156 164 L 156 163 L 155 162 L 155 159 L 159 155 L 163 155 "></path>
        <path fill="none" stroke="#00fafa" stroke-width="3" d="M 104 539 L 108 539 L 112 543 L 112 546 L 111 547 L 111 548 L 109 550 L 104 550 L 101 547 L 101 546 L 100 545 L 100 544 L 101 543 L 101 542 L 104 539 L 108 539 "></path>
        <path fill="none" stroke="#00fafa" stroke-width="3" d="M 104 265 L 108 265 L 109 266 L 110 266 L 111 267 L 111 268 L 112 269 L 112 272 L 108 276 L 104 276 L 101 273 L 101 272 L 100 271 L 100 269 L 104 265 L 108 265 "></path>
        <path fill="none" stroke="#00fafa" stroke-width="3" d="M 927 594 L 931 594 L 934 597 L 934 598 L 935 599 L 935 600 L 934 601 L 934 602 L 931 605 L 927 605 L 924 602 L 924 601 L 923 600 L 923 599 L 924 598 L 924 597 L 927 594 L 931 594 "></path>
        <path fill="none" stroke="#00fafa" stroke-width="3" d="M 927 210 L 931 210 L 934 213 L 934 214 L 935 215 L 935 216 L 934 217 L 934 218 L 931 221 L 927 221 L 924 218 L 924 217 L 923 216 L 923 215 L 924 214 L 924 213 L 927 210 L 931 210 "></path>
        <path fill="none" stroke="#00fafa" stroke-width="3" d="M 450 548 L 451 547 L 452 548 L 452 549 L 453 550 L 453 554 L 454 555 L 454 557 L 457 560 L 458 560 L 459 561 L 461 561 L 462 562 L 460 564 L 458 564 L 457 565 L 456 565 L 455 564 L 454 564 L 452 562 L 452 561 L 451 560 L 451 559 L 450 558 L 450 554 L 449 553 L 449 550 L 450 549 L 450 548 L 451 547 "></path>
        <path fill="none" stroke="#00fafa" stroke-width="3" d="M 983 431 L 984 430 L 985 431 L 986 431 L 988 433 L 988 434 L 989 435 L 988 436 L 988 437 L 986 439 L 982 439 L 980 437 L 980 436 L 979 435 L 980 434 L 980 433 L 982 431 L 983 431 L 984 430 "></path>
        <path fill="none" stroke="#00fafa" stroke-width="3" d="M 873 705 L 876 705 L 878 707 L 878 708 L 879 709 L 879 710 L 875 714 L 874 714 L 873 713 L 872 713 L 870 711 L 870 708 L 873 705 L 876 705 "></path>
        <path fill="none" stroke="#00fafa" stroke-width="3" d="M 873 102 L 874 101 L 875 102 L 876 102 L 878 104 L 878 105 L 879 106 L 878 107 L 878 108 L 876 110 L 873 110 L 870 107 L 870 104 L 872 102 L 873 102 L 874 101 "></path>
        <path fill="none" stroke="#00fafa" stroke-width="3" d="M 818 760 L 821 760 L 823 762 L 823 763 L 824 764 L 823 765 L 823 766 L 821 768 L 817 768 L 816 767 L 816 766 L 815 765 L 815 763 L 818 760 L 821 760 "></path>
        <path fill="none" stroke="#00fafa" stroke-width="3" d="M 818 47 L 821 47 L 823 49 L 823 50 L 824 51 L 823 52 L 823 53 L 821 55 L 818 55 L 816 53 L 816 52 L 815 51 L 815 50 L 818 47 L 821 47 "></path>
        <path fill="none" stroke="#00fafa" stroke-width="3" d="M 362 449 L 363 448 L 364 449 L 364 453 L 365 454 L 365 457 L 366 458 L 366 459 L 367 460 L 367 461 L 368 462 L 367 463 L 366 463 L 361 458 L 361 452 L 362 451 L 362 449 L 363 448 "></path>
        <path fill="none" stroke="#00fafa" stroke-width="3" d="M 375 360 L 376 359 L 378 361 L 379 361 L 380 362 L 382 362 L 383 363 L 390 363 L 391 364 L 390 365 L 388 365 L 387 366 L 380 366 L 375 361 L 375 360 L 376 359 "></path>
        <path fill="none" stroke="#00fafa" stroke-width="3" d="M 983 486 L 985 486 L 988 489 L 988 491 L 985 494 L 983 494 L 980 491 L 980 489 L 983 486 L 985 486 "></path>
        <path fill="none" stroke="#00fafa" stroke-width="3" d="M 104 212 L 108 212 L 110 214 L 110 216 L 109 217 L 109 218 L 108 219 L 104 219 L 103 218 L 103 217 L 102 216 L 102 214 L 104 212 L 108 212 "></path>
        <path fill="none" stroke="#00fafa" stroke-width="3" d="M 983 321 L 984 321 L 985 322 L 986 322 L 988 324 L 988 326 L 985 329 L 983 329 L 980 326 L 980 324 L 983 321 L 984 321 "></path>
        <path fill="none" stroke="#00fafa" stroke-width="3" d="M 485 247 L 486 246 L 493 246 L 494 247 L 494 248 L 490 252 L 488 252 L 486 250 L 486 249 L 485 248 L 485 247 L 486 246 "></path>
        <path fill="none" stroke="#00fafa" stroke-width="3" d="M 364 409 L 365 409 L 366 410 L 366 412 L 365 413 L 365 414 L 364 415 L 364 419 L 363 420 L 362 420 L 361 419 L 361 412 L 364 409 L 365 409 "></path>
        <path fill="none" stroke="#00fafa" stroke-width="3" d="M 372 469 L 373 468 L 374 468 L 375 469 L 376 469 L 378 471 L 379 471 L 380 472 L 381 472 L 382 473 L 382 474 L 381 475 L 377 475 L 373 471 L 373 470 L 372 469 L 373 468 "></path>
        <path fill="none" stroke="#00fafa" stroke-width="3" d="M 665 451 L 666 450 L 671 450 L 674 453 L 674 456 L 673 457 L 672 457 L 667 452 L 666 452 L 665 451 L 666 450 "></path>
        <path fill="none" stroke="#00fafa" stroke-width="3" d="M 380 393 L 387 393 L 388 394 L 387 395 L 385 395 L 384 396 L 382 396 L 381 397 L 379 397 L 378 398 L 377 398 L 376 397 L 380 393 L 387 393 "></path>
        <path fill="none" stroke="#00fafa" stroke-width="3" d="M 928 652 L 931 652 L 932 653 L 932 656 L 931 657 L 930 657 L 929 658 L 926 655 L 926 654 L 928 652 L 931 652 "></path>
        <path fill="none" stroke="#00fafa" stroke-width="3" d="M 696 471 L 697 470 L 698 471 L 698 480 L 697 481 L 696 480 L 696 471 L 697 470 "></path>
        <path fill="none" stroke="#00fafa" stroke-width="3" d="M 160 707 L 162 707 L 163 708 L 163 710 L 161 712 L 160 712 L 158 710 L 158 709 L 160 707 L 162 707 "></path>
        <path fill="none" stroke="#00fafa" stroke-width="3" d="M 160 103 L 161 103 L 163 105 L 163 106 L 161 108 L 160 108 L 158 106 L 158 105 L 160 103 L 161 103 "></path>
        <path fill="none" stroke="#00fafa" stroke-width="3" d="M 982 544 L 983 543 L 985 543 L 986 544 L 986 546 L 985 547 L 983 547 L 982 546 L 982 544 L 983 543 "></path>
        <path fill="none" stroke="#00fafa" stroke-width="3" d="M 982 269 L 983 268 L 985 268 L 986 269 L 986 271 L 985 272 L 983 272 L 982 271 L 982 269 L 983 268 "></path>
        <path fill="none" stroke="#00fafa" stroke-width="3" d="M 49 434 L 50 433 L 51 433 L 53 435 L 51 437 L 50 437 L 49 436 L 49 434 L 50 433 "></path>
        <path fill="none" stroke="#00fafa" stroke-width="3" d="M 49 379 L 50 378 L 51 378 L 53 380 L 51 382 L 50 382 L 49 381 L 49 379 L 50 378 "></path>
        <path fill="none" stroke="#00fafa" stroke-width="3" d="M 363 435 L 364 434 L 365 435 L 365 439 L 364 440 L 363 439 L 363 435 L 364 434 "></path>
        <path fill="none" stroke="#00fafa" stroke-width="3" d="M 679 508 L 680 508 L 681 509 L 679 511 L 678 511 L 677 510 L 679 508 L 680 508 "></path>
    </g>
</svg>
