<svg xmlns="http://www.w3.org/2000/svg" xmlns:xlink="http://www.w3.org/1999/xlink" version="1.1" x="0" y="0" width="1056px" height="816px">
    <g id="rootLayer" transform="translate(0.000000, 0.000000)">
        <path fill="none" stroke="#fa00fa" stroke-width="3" d="M 438 121 L 437 122 L 435 122 L 434 123 L 433 123 L 432 124 L 431 124 L 430 125 L 429 125 L 426 128 L 425 128 L 424 129 L 423 129 L 422 130 L 422 131 L 420 133 L 420 135 L 419 136 L 418 136 L 412 142 L 412 144 L 410 146 L 410 147 L 408 149 L 408 151 L 407 152 L 407 158 L 408 159 L 408 165 L 405 168 L 405 169 L 404 170 L 404 171 L 403 172 L 403 174 L 402 175 L 402 177 L 401 178 L 401 179 L 400 180 L 400 182 L 398 184 L 398 186 L 397 187 L 397 197 L 398 198 L 398 201 L 399 202 L 399 204 L 400 205 L 400 208 L 401 209 L 401 210 L 402 211 L 402 213 L 403 214 L 403 215 L 404 216 L 404 217 L 409 222 L 410 222 L 411 223 L 412 223 L 413 224 L 414 224 L 415 225 L 421 225 L 424 222 L 424 221 L 426 219 L 453 219 L 454 218 L 455 218 L 456 219 L 458 219 L 459 220 L 459 221 L 460 222 L 460 223 L 461 224 L 461 225 L 463 227 L 464 227 L 466 229 L 469 229 L 470 230 L 471 229 L 474 229 L 476 227 L 478 227 L 479 226 L 480 226 L 481 225 L 482 225 L 483 224 L 485 224 L 486 223 L 488 223 L 489 222 L 490 222 L 490 221 L 491 220 L 492 220 L 495 217 L 496 217 L 498 215 L 499 215 L 500 214 L 501 214 L 502 213 L 502 212 L 503 211 L 504 211 L 505 210 L 506 211 L 507 210 L 508 211 L 509 210 L 510 211 L 511 210 L 512 210 L 513 209 L 513 208 L 516 205 L 517 205 L 519 203 L 520 203 L 521 204 L 523 204 L 524 205 L 526 205 L 526 136 L 525 136 L 524 135 L 523 136 L 499 136 L 498 135 L 495 135 L 493 133 L 492 133 L 491 132 L 490 132 L 489 131 L 485 131 L 484 130 L 483 131 L 482 130 L 480 130 L 479 131 L 478 130 L 472 130 L 471 131 L 460 131 L 455 126 L 455 125 L 454 124 L 453 124 L 452 123 L 451 123 L 450 122 L 449 122 L 448 121 "></path>
        <path fill="none" stroke="#fa00fa" stroke-width="3" d="M 262 164 L 261 165 L 260 165 L 259 166 L 259 167 L 257 169 L 256 169 L 253 172 L 241 172 L 240 173 L 239 173 L 238 174 L 238 176 L 236 178 L 236 179 L 237 180 L 233 184 L 232 184 L 231 185 L 230 185 L 230 188 L 228 190 L 229 191 L 229 196 L 224 201 L 223 201 L 222 202 L 222 211 L 223 212 L 223 215 L 224 216 L 224 218 L 225 219 L 225 220 L 226 221 L 226 222 L 229 225 L 229 226 L 230 227 L 231 227 L 232 228 L 233 228 L 234 229 L 235 229 L 236 230 L 237 230 L 238 231 L 240 231 L 241 232 L 244 232 L 245 231 L 246 232 L 247 231 L 249 231 L 250 232 L 251 231 L 252 232 L 254 232 L 255 231 L 258 231 L 259 230 L 259 228 L 261 226 L 262 226 L 262 225 L 264 223 L 269 223 L 270 224 L 271 223 L 272 224 L 274 224 L 275 223 L 277 223 L 278 222 L 279 222 L 280 221 L 281 221 L 282 220 L 284 220 L 285 219 L 286 219 L 286 218 L 287 217 L 287 215 L 289 213 L 292 213 L 294 211 L 295 211 L 295 210 L 296 209 L 296 207 L 295 206 L 296 205 L 295 204 L 295 198 L 296 197 L 296 196 L 297 195 L 298 195 L 299 194 L 301 194 L 302 193 L 303 193 L 305 191 L 305 189 L 306 188 L 306 184 L 307 183 L 307 179 L 306 178 L 306 176 L 303 173 L 302 173 L 298 169 L 297 169 L 296 168 L 295 168 L 294 167 L 289 167 L 288 166 L 287 167 L 286 166 L 284 166 L 283 165 L 282 165 L 281 164 "></path>
        <path fill="none" stroke="#fa00fa" stroke-width="3" d="M 438 121 L 437 122 L 435 122 L 434 123 L 432 123 L 430 125 L 429 125 L 426 128 L 424 128 L 422 130 L 422 131 L 420 133 L 420 135 L 419 136 L 418 136 L 414 140 L 413 140 L 413 141 L 412 142 L 412 143 L 411 144 L 411 145 L 410 146 L 410 147 L 408 149 L 408 151 L 407 152 L 407 158 L 408 159 L 408 165 L 405 168 L 405 169 L 404 170 L 404 171 L 403 172 L 403 174 L 402 175 L 402 176 L 401 177 L 401 179 L 400 180 L 400 182 L 398 184 L 398 185 L 397 186 L 397 191 L 396 192 L 397 193 L 397 197 L 398 198 L 398 201 L 399 202 L 399 205 L 400 206 L 400 208 L 401 209 L 401 211 L 402 212 L 402 213 L 403 214 L 403 215 L 404 216 L 404 217 L 409 222 L 410 222 L 412 224 L 413 224 L 414 225 L 417 225 L 418 226 L 419 225 L 422 225 L 422 224 L 425 221 L 425 220 L 426 219 L 453 219 L 454 218 L 455 218 L 456 219 L 458 219 L 459 220 L 459 221 L 460 222 L 460 223 L 461 224 L 461 225 L 464 228 L 465 228 L 466 229 L 468 229 L 469 230 L 470 230 L 471 229 L 474 229 L 476 227 L 478 227 L 479 226 L 480 226 L 481 225 L 482 225 L 483 224 L 485 224 L 486 223 L 488 223 L 489 222 L 490 222 L 494 218 L 495 218 L 498 215 L 500 215 L 502 213 L 502 212 L 503 211 L 504 211 L 505 210 L 506 211 L 507 210 L 508 211 L 510 211 L 511 210 L 512 210 L 513 209 L 513 208 L 516 205 L 517 205 L 519 203 L 520 203 L 521 204 L 523 204 L 524 205 L 526 205 L 526 136 L 525 136 L 524 135 L 523 136 L 499 136 L 498 135 L 495 135 L 493 133 L 492 133 L 491 132 L 490 132 L 489 131 L 485 131 L 484 130 L 483 131 L 482 130 L 480 130 L 479 131 L 478 130 L 472 130 L 471 131 L 461 131 L 460 130 L 459 130 L 455 126 L 455 125 L 453 123 L 451 123 L 450 122 L 449 122 L 448 121 "></path>
        <path fill="none" stroke="#fa00fa" stroke-width="3" d="M 438 121 L 437 122 L 435 122 L 434 123 L 432 123 L 430 125 L 429 125 L 426 128 L 424 128 L 422 130 L 422 131 L 420 133 L 420 135 L 419 136 L 418 136 L 414 140 L 413 140 L 413 141 L 412 142 L 412 143 L 411 144 L 411 145 L 410 146 L 410 147 L 408 149 L 408 151 L 407 152 L 407 158 L 408 159 L 408 165 L 405 168 L 405 169 L 404 170 L 404 171 L 403 172 L 403 174 L 402 175 L 402 176 L 401 177 L 401 179 L 400 180 L 400 182 L 398 184 L 398 185 L 397 186 L 397 191 L 396 192 L 397 193 L 397 197 L 398 198 L 398 201 L 399 202 L 399 205 L 400 206 L 400 208 L 401 209 L 401 211 L 402 212 L 402 213 L 403 214 L 403 215 L 404 216 L 404 217 L 409 222 L 410 222 L 412 224 L 413 224 L 414 225 L 417 225 L 418 226 L 419 225 L 422 225 L 422 224 L 425 221 L 425 220 L 426 219 L 453 219 L 454 218 L 455 218 L 456 219 L 458 219 L 459 220 L 459 221 L 460 222 L 460 223 L 461 224 L 461 225 L 464 228 L 465 228 L 466 229 L 468 229 L 469 230 L 470 230 L 471 229 L 474 229 L 476 227 L 478 227 L 479 226 L 480 226 L 481 225 L 482 225 L 483 224 L 485 224 L 486 223 L 488 223 L 489 222 L 490 222 L 494 218 L 495 218 L 498 215 L 500 215 L 502 213 L 502 212 L 503 211 L 504 211 L 505 210 L 506 211 L 507 210 L 508 211 L 510 211 L 511 210 L 512 210 L 513 209 L 513 208 L 516 205 L 517 205 L 519 203 L 520 203 L 521 204 L 523 204 L 524 205 L 526 205 L 526 136 L 525 136 L 524 135 L 523 136 L 499 136 L 498 135 L 495 135 L 493 133 L 492 133 L 491 132 L 490 132 L 489 131 L 485 131 L 484 130 L 483 131 L 482 130 L 480 130 L 479 131 L 478 130 L 472 130 L 471 131 L 461 131 L 460 130 L 459 130 L 455 126 L 455 125 L 453 123 L 451 123 L 450 122 L 449 122 L 448 121 L 262 164 L 261 165 L 260 165 L 259 166 L 259 167 L 257 169 L 256 169 L 253 172 L 241 172 L 240 173 L 239 173 L 238 174 L 238 176 L 236 178 L 236 179 L 237 180 L 233 184 L 232 184 L 231 185 L 230 185 L 230 188 L 228 190 L 229 191 L 229 196 L 224 201 L 223 201 L 222 202 L 222 211 L 223 212 L 223 215 L 224 216 L 224 218 L 225 219 L 225 220 L 226 221 L 226 222 L 229 225 L 229 226 L 230 227 L 231 227 L 232 228 L 233 228 L 234 229 L 235 229 L 236 230 L 237 230 L 238 231 L 240 231 L 241 232 L 244 232 L 245 231 L 246 232 L 247 231 L 249 231 L 250 232 L 251 231 L 252 232 L 254 232 L 255 231 L 258 231 L 259 230 L 259 228 L 261 226 L 262 226 L 262 225 L 264 223 L 269 223 L 270 224 L 271 223 L 272 224 L 274 224 L 275 223 L 277 223 L 278 222 L 279 222 L 280 221 L 281 221 L 282 220 L 284 220 L 285 219 L 286 219 L 286 218 L 287 217 L 287 215 L 289 213 L 292 213 L 294 211 L 295 211 L 295 210 L 296 209 L 296 207 L 295 206 L 296 205 L 295 204 L 295 198 L 296 197 L 296 196 L 297 195 L 298 195 L 299 194 L 301 194 L 302 193 L 303 193 L 305 191 L 305 189 L 306 188 L 306 184 L 307 183 L 307 179 L 306 178 L 306 176 L 302 172 L 301 172 L 298 169 L 297 169 L 296 168 L 295 168 L 294 167 L 289 167 L 288 166 L 287 167 L 286 166 L 284 166 L 283 165 L 282 165 L 281 164 "></path>
    </g>
</svg>
