<svg xmlns="http://www.w3.org/2000/svg" xmlns:xlink="http://www.w3.org/1999/xlink" version="1.1" x="0" y="0" width="1056px" height="816px">
    <g id="rootLayer" transform="translate(0.000000, 0.000000)">
        <path fill="none" stroke="#00fafa" stroke-width="3" d="M 553 350 L 554 349 L 556 351 L 557 350 L 563 350 L 564 351 L 565 350 L 566 351 L 568 351 L 569 350 L 578 350 L 579 351 L 580 350 L 581 351 L 582 350 L 583 351 L 584 351 L 585 350 L 586 351 L 587 350 L 589 352 L 589 353 L 590 354 L 590 355 L 591 356 L 590 357 L 590 358 L 591 359 L 590 360 L 590 363 L 589 364 L 590 365 L 589 366 L 589 369 L 588 370 L 588 371 L 587 372 L 579 372 L 578 371 L 577 372 L 567 372 L 566 371 L 562 371 L 561 372 L 544 372 L 543 373 L 542 373 L 541 372 L 531 372 L 530 373 L 529 372 L 527 372 L 525 370 L 524 370 L 523 369 L 524 368 L 523 367 L 524 366 L 523 365 L 523 363 L 524 362 L 524 361 L 523 360 L 523 358 L 524 357 L 523 356 L 523 355 L 525 353 L 524 352 L 525 351 L 526 351 L 527 350 L 528 351 L 529 350 L 530 351 L 531 350 L 537 350 L 538 351 L 539 350 L 543 350 L 544 351 L 547 351 L 548 350 "></path>
        <path fill="none" stroke="#00fafa" stroke-width="3" d="M 183 228 L 184 227 L 185 228 L 185 230 L 184 231 L 184 232 L 184 231 L 185 230 L 186 230 L 186 229 L 187 228 L 188 229 L 188 231 L 186 233 L 186 234 L 185 235 L 185 236 L 184 237 L 185 236 L 185 235 L 186 234 L 187 234 L 188 235 L 186 233 L 188 231 L 189 232 L 189 233 L 190 232 L 191 233 L 191 234 L 190 235 L 191 235 L 191 233 L 192 232 L 193 233 L 193 232 L 192 232 L 191 231 L 192 230 L 193 230 L 194 229 L 195 230 L 195 231 L 197 233 L 197 234 L 196 235 L 197 234 L 197 233 L 198 232 L 199 233 L 199 234 L 200 234 L 201 235 L 201 236 L 202 237 L 203 236 L 204 237 L 204 238 L 202 240 L 203 239 L 204 240 L 204 241 L 204 240 L 203 239 L 206 236 L 207 237 L 208 237 L 209 238 L 207 236 L 208 235 L 209 235 L 209 234 L 211 232 L 209 230 L 211 228 L 214 228 L 215 229 L 214 230 L 215 231 L 214 232 L 213 232 L 213 233 L 212 234 L 213 233 L 214 234 L 216 234 L 217 235 L 216 236 L 215 236 L 216 237 L 216 238 L 215 239 L 213 237 L 212 237 L 213 237 L 214 238 L 213 239 L 212 239 L 213 240 L 212 241 L 211 241 L 212 242 L 211 243 L 210 243 L 209 242 L 210 243 L 210 244 L 212 244 L 212 243 L 213 242 L 214 243 L 214 245 L 215 244 L 216 245 L 218 245 L 219 246 L 219 247 L 218 248 L 221 245 L 222 246 L 223 245 L 224 246 L 224 245 L 223 245 L 222 246 L 220 244 L 219 244 L 218 245 L 217 245 L 216 244 L 216 242 L 215 242 L 213 240 L 214 239 L 216 239 L 219 242 L 220 241 L 222 243 L 223 243 L 224 242 L 227 242 L 228 241 L 229 242 L 230 242 L 231 243 L 229 245 L 231 243 L 234 243 L 235 244 L 235 245 L 235 244 L 236 243 L 237 243 L 237 242 L 238 241 L 237 241 L 236 240 L 240 236 L 242 238 L 241 239 L 242 240 L 243 240 L 244 239 L 245 240 L 245 241 L 246 241 L 247 242 L 246 243 L 247 242 L 248 242 L 249 241 L 250 242 L 251 241 L 252 242 L 252 243 L 251 244 L 248 244 L 247 245 L 248 245 L 249 244 L 251 246 L 250 247 L 250 248 L 251 249 L 250 250 L 250 251 L 249 252 L 248 251 L 248 249 L 247 248 L 248 247 L 247 248 L 246 248 L 244 246 L 244 243 L 244 244 L 243 245 L 242 244 L 242 243 L 241 242 L 241 243 L 240 244 L 239 243 L 240 244 L 240 245 L 239 246 L 238 245 L 239 246 L 239 247 L 240 248 L 239 249 L 238 249 L 236 247 L 234 249 L 233 248 L 233 247 L 232 246 L 233 245 L 232 246 L 231 246 L 231 247 L 230 248 L 228 248 L 227 247 L 227 246 L 227 247 L 226 248 L 225 248 L 225 251 L 224 252 L 223 251 L 223 248 L 223 249 L 222 250 L 221 249 L 220 249 L 219 250 L 218 250 L 219 250 L 220 251 L 220 253 L 219 254 L 216 251 L 215 251 L 214 250 L 213 251 L 212 250 L 212 249 L 210 249 L 211 250 L 211 251 L 209 253 L 208 252 L 208 251 L 208 253 L 210 253 L 211 254 L 210 255 L 208 255 L 209 256 L 208 257 L 207 257 L 206 256 L 205 256 L 204 255 L 205 254 L 206 254 L 206 252 L 205 253 L 204 252 L 204 251 L 205 250 L 206 250 L 207 249 L 206 248 L 205 248 L 206 248 L 207 249 L 206 250 L 205 250 L 204 251 L 203 250 L 202 250 L 203 251 L 203 252 L 202 253 L 201 253 L 200 252 L 198 252 L 197 253 L 197 254 L 196 255 L 197 254 L 199 256 L 198 257 L 199 257 L 199 256 L 200 255 L 201 256 L 202 256 L 203 255 L 204 255 L 206 257 L 205 258 L 204 258 L 205 258 L 207 260 L 205 262 L 204 261 L 204 260 L 203 260 L 202 259 L 202 258 L 201 258 L 200 259 L 198 259 L 198 260 L 197 261 L 199 261 L 201 263 L 199 265 L 201 267 L 200 268 L 199 268 L 198 269 L 199 270 L 200 269 L 201 270 L 201 271 L 200 272 L 199 272 L 199 273 L 198 274 L 197 273 L 196 273 L 197 274 L 196 275 L 196 276 L 195 277 L 196 277 L 198 279 L 198 280 L 197 281 L 196 280 L 196 281 L 197 281 L 198 282 L 197 283 L 198 284 L 197 285 L 195 285 L 194 286 L 193 285 L 193 284 L 194 283 L 195 283 L 194 283 L 193 284 L 192 283 L 193 284 L 193 286 L 194 286 L 195 285 L 197 285 L 198 284 L 199 285 L 200 285 L 199 285 L 198 284 L 198 283 L 199 282 L 200 283 L 201 283 L 204 286 L 203 287 L 202 287 L 202 288 L 200 290 L 199 289 L 199 288 L 200 287 L 196 287 L 195 288 L 193 288 L 192 289 L 191 288 L 191 286 L 190 286 L 189 285 L 189 284 L 190 283 L 189 282 L 188 283 L 187 283 L 186 282 L 187 281 L 186 282 L 185 282 L 184 281 L 184 280 L 185 279 L 185 276 L 183 276 L 181 274 L 181 273 L 180 272 L 182 270 L 184 270 L 183 269 L 185 267 L 186 268 L 188 266 L 189 267 L 190 266 L 191 267 L 192 266 L 193 267 L 192 266 L 192 265 L 193 264 L 194 264 L 195 263 L 195 262 L 194 262 L 193 261 L 195 259 L 196 259 L 196 257 L 195 258 L 194 258 L 193 259 L 193 260 L 192 261 L 190 259 L 191 258 L 191 257 L 190 256 L 191 255 L 190 256 L 189 255 L 189 254 L 188 253 L 188 250 L 189 249 L 190 250 L 190 252 L 191 253 L 190 252 L 191 251 L 191 250 L 192 249 L 193 249 L 192 249 L 191 250 L 189 248 L 186 248 L 187 249 L 186 250 L 185 250 L 186 250 L 187 251 L 185 253 L 184 252 L 185 253 L 185 254 L 188 254 L 189 255 L 188 256 L 190 256 L 191 257 L 190 258 L 185 258 L 183 256 L 183 255 L 182 256 L 181 255 L 181 254 L 180 253 L 183 250 L 182 249 L 182 247 L 183 246 L 184 247 L 184 248 L 184 244 L 185 243 L 186 243 L 187 242 L 188 243 L 187 242 L 188 241 L 188 240 L 189 239 L 188 240 L 186 240 L 187 241 L 186 242 L 184 242 L 183 241 L 184 240 L 184 239 L 183 240 L 181 238 L 180 238 L 178 236 L 179 235 L 181 235 L 181 233 L 182 232 L 182 230 L 183 229 "></path>
        <path fill="none" stroke="#00fafa" stroke-width="3" d="M 222 196 L 223 195 L 224 196 L 226 196 L 227 197 L 226 198 L 224 198 L 226 198 L 227 199 L 226 200 L 224 200 L 225 201 L 226 200 L 227 201 L 227 203 L 226 204 L 225 204 L 224 203 L 222 203 L 224 203 L 225 204 L 226 204 L 227 203 L 228 204 L 228 205 L 226 207 L 224 207 L 224 209 L 227 212 L 225 210 L 226 209 L 226 207 L 227 206 L 228 207 L 228 208 L 229 209 L 228 210 L 229 209 L 230 210 L 228 208 L 228 207 L 229 206 L 230 207 L 231 207 L 232 208 L 234 206 L 236 206 L 235 205 L 236 204 L 236 203 L 236 204 L 235 205 L 233 203 L 236 200 L 238 202 L 240 202 L 241 203 L 242 202 L 244 202 L 246 204 L 246 206 L 244 208 L 244 209 L 243 210 L 241 208 L 241 206 L 242 205 L 243 206 L 243 205 L 242 205 L 241 206 L 240 205 L 239 205 L 238 204 L 239 205 L 238 206 L 238 207 L 236 209 L 235 208 L 234 209 L 234 210 L 233 211 L 232 210 L 233 211 L 232 212 L 231 212 L 232 212 L 233 213 L 232 214 L 229 214 L 228 215 L 227 214 L 226 214 L 227 214 L 228 215 L 227 216 L 225 216 L 224 215 L 224 212 L 223 211 L 223 212 L 222 213 L 221 212 L 220 213 L 221 214 L 221 216 L 219 218 L 219 219 L 220 220 L 218 222 L 217 221 L 217 220 L 216 219 L 217 218 L 215 218 L 214 217 L 214 216 L 215 215 L 216 216 L 217 216 L 216 216 L 215 215 L 214 216 L 213 215 L 214 216 L 213 217 L 212 217 L 211 218 L 211 219 L 209 221 L 208 220 L 208 219 L 209 218 L 209 217 L 208 218 L 207 217 L 207 216 L 205 216 L 204 215 L 202 215 L 202 216 L 201 217 L 201 218 L 202 218 L 202 217 L 203 216 L 204 216 L 205 217 L 206 216 L 208 218 L 207 219 L 206 219 L 207 219 L 208 220 L 206 222 L 206 226 L 207 227 L 206 228 L 205 228 L 204 227 L 204 226 L 203 225 L 202 226 L 201 226 L 200 225 L 199 225 L 198 226 L 197 225 L 195 227 L 194 226 L 194 225 L 195 224 L 194 223 L 194 221 L 195 220 L 196 220 L 195 219 L 196 218 L 197 218 L 197 217 L 196 216 L 195 217 L 194 216 L 194 215 L 195 214 L 198 214 L 199 213 L 200 214 L 201 213 L 201 212 L 201 213 L 200 214 L 199 213 L 199 211 L 198 212 L 196 212 L 197 213 L 196 214 L 195 214 L 194 213 L 192 215 L 191 214 L 191 213 L 190 214 L 189 213 L 189 211 L 190 210 L 191 210 L 190 210 L 189 209 L 187 209 L 186 208 L 187 207 L 186 208 L 184 206 L 185 205 L 185 202 L 187 200 L 190 203 L 189 204 L 188 204 L 187 203 L 188 204 L 187 205 L 188 204 L 189 205 L 189 206 L 189 205 L 190 204 L 191 205 L 192 204 L 193 204 L 194 203 L 195 204 L 196 204 L 196 202 L 195 202 L 194 201 L 195 200 L 198 200 L 196 200 L 195 199 L 196 198 L 199 198 L 200 199 L 201 198 L 204 198 L 205 199 L 204 200 L 203 200 L 204 200 L 205 201 L 204 202 L 203 202 L 202 203 L 201 202 L 201 205 L 199 207 L 198 206 L 197 207 L 198 206 L 199 207 L 199 209 L 200 208 L 200 206 L 201 205 L 202 205 L 203 206 L 203 207 L 202 208 L 203 209 L 202 208 L 203 207 L 205 207 L 205 206 L 204 207 L 202 205 L 204 203 L 205 204 L 206 204 L 206 202 L 208 200 L 209 201 L 209 202 L 208 203 L 208 206 L 208 203 L 209 202 L 210 203 L 210 204 L 210 201 L 211 200 L 211 199 L 212 198 L 213 199 L 213 201 L 214 202 L 216 202 L 217 203 L 216 204 L 216 206 L 215 207 L 213 207 L 212 208 L 211 207 L 212 208 L 211 209 L 210 209 L 209 208 L 209 209 L 208 210 L 209 209 L 210 209 L 211 210 L 210 211 L 211 210 L 212 210 L 213 211 L 212 212 L 213 211 L 214 211 L 215 210 L 216 210 L 215 209 L 216 208 L 217 208 L 217 207 L 216 206 L 216 204 L 217 203 L 220 206 L 219 207 L 220 207 L 222 205 L 220 205 L 218 203 L 219 202 L 219 201 L 220 200 L 221 201 L 222 200 "></path>
        <path fill="none" stroke="#00fafa" stroke-width="3" d="M 473 401 L 474 400 L 475 401 L 476 401 L 477 400 L 480 403 L 480 404 L 481 405 L 481 432 L 479 434 L 478 434 L 477 433 L 472 433 L 469 430 L 469 427 L 468 426 L 468 425 L 469 424 L 469 423 L 468 422 L 469 421 L 469 419 L 468 418 L 468 417 L 469 416 L 469 415 L 468 414 L 468 409 L 467 408 L 468 407 L 469 407 L 468 406 L 469 405 L 469 404 L 468 403 L 469 402 L 470 402 L 471 401 "></path>
        <path fill="none" stroke="#00fafa" stroke-width="3" d="M 207 260 L 209 262 L 208 263 L 210 263 L 211 264 L 211 265 L 213 265 L 215 267 L 215 268 L 214 269 L 215 270 L 214 271 L 213 271 L 212 270 L 212 271 L 213 272 L 213 273 L 214 274 L 212 276 L 211 275 L 209 277 L 207 277 L 206 276 L 207 275 L 207 274 L 207 275 L 206 276 L 207 277 L 206 278 L 205 278 L 204 279 L 202 279 L 201 278 L 203 276 L 204 276 L 204 275 L 202 275 L 201 274 L 203 272 L 204 273 L 205 272 L 204 273 L 203 272 L 203 271 L 204 270 L 205 270 L 205 269 L 206 268 L 207 269 L 206 268 L 208 266 L 207 266 L 207 267 L 204 270 L 201 267 L 202 266 L 204 266 L 202 266 L 201 265 L 203 263 L 204 263 "></path>
        <path fill="none" stroke="#00fafa" stroke-width="3" d="M 223 423 L 224 422 L 225 422 L 226 423 L 227 423 L 229 425 L 228 426 L 229 425 L 231 425 L 233 427 L 232 428 L 234 426 L 235 426 L 236 427 L 236 428 L 235 429 L 234 429 L 236 431 L 235 432 L 234 432 L 234 433 L 233 434 L 232 433 L 232 432 L 231 432 L 230 433 L 229 432 L 229 431 L 228 431 L 227 430 L 228 431 L 228 432 L 229 433 L 229 434 L 230 435 L 230 436 L 229 437 L 228 437 L 227 436 L 226 436 L 227 437 L 226 438 L 225 438 L 224 437 L 224 434 L 222 432 L 223 431 L 224 431 L 225 432 L 224 431 L 225 430 L 224 431 L 223 431 L 222 430 L 223 429 L 222 428 L 223 427 L 223 426 L 221 426 L 220 425 L 222 423 L 223 424 "></path>
        <path fill="none" stroke="#00fafa" stroke-width="3" d="M 214 252 L 215 251 L 216 251 L 217 252 L 217 253 L 218 254 L 218 257 L 219 257 L 220 256 L 221 257 L 222 256 L 223 257 L 225 255 L 226 256 L 227 255 L 228 256 L 230 256 L 231 257 L 230 258 L 229 258 L 228 259 L 227 258 L 229 260 L 230 260 L 231 261 L 229 263 L 228 263 L 228 264 L 227 265 L 226 265 L 225 266 L 224 265 L 224 264 L 223 263 L 225 261 L 224 262 L 222 260 L 222 261 L 221 262 L 220 261 L 220 260 L 220 261 L 219 262 L 218 261 L 216 261 L 215 262 L 213 262 L 212 261 L 214 259 L 213 258 L 212 259 L 210 259 L 209 258 L 212 255 L 213 255 L 215 257 L 216 257 L 215 256 L 215 253 "></path>
        <path fill="none" stroke="#00fafa" stroke-width="3" d="M 186 373 L 188 375 L 187 376 L 188 376 L 188 375 L 189 374 L 190 374 L 191 375 L 190 376 L 191 375 L 192 376 L 192 377 L 193 377 L 193 376 L 194 375 L 195 376 L 195 379 L 196 380 L 195 381 L 196 382 L 196 384 L 195 385 L 194 385 L 194 386 L 193 387 L 192 387 L 190 385 L 191 384 L 192 384 L 193 383 L 192 384 L 191 383 L 191 382 L 189 382 L 188 381 L 189 382 L 188 383 L 189 382 L 190 382 L 191 383 L 188 386 L 187 385 L 186 385 L 185 384 L 186 383 L 185 384 L 182 384 L 181 383 L 182 382 L 184 382 L 183 382 L 182 381 L 182 380 L 183 379 L 184 379 L 186 381 L 185 380 L 186 379 L 187 379 L 185 379 L 184 378 L 185 377 L 184 377 L 183 376 "></path>
        <path fill="none" stroke="#00fafa" stroke-width="3" d="M 245 228 L 246 227 L 249 227 L 250 228 L 251 227 L 252 228 L 252 229 L 253 229 L 255 231 L 253 233 L 252 232 L 252 231 L 252 233 L 251 234 L 252 234 L 253 233 L 255 235 L 255 236 L 254 237 L 256 237 L 257 238 L 257 240 L 255 242 L 254 242 L 252 240 L 252 239 L 250 237 L 251 236 L 249 236 L 248 235 L 248 234 L 247 233 L 249 231 L 250 232 L 250 230 L 249 230 L 248 229 L 248 231 L 247 232 L 247 233 L 246 234 L 245 234 L 244 235 L 243 235 L 242 234 L 242 233 L 242 234 L 240 236 L 239 235 L 239 234 L 238 233 L 240 231 L 240 230 L 241 229 L 242 229 L 243 228 L 244 228 L 245 229 "></path>
        <path fill="none" stroke="#00fafa" stroke-width="3" d="M 185 213 L 186 212 L 187 213 L 188 213 L 189 214 L 190 214 L 191 215 L 192 215 L 193 214 L 194 215 L 194 216 L 192 218 L 192 219 L 191 220 L 190 219 L 191 220 L 192 219 L 194 221 L 194 224 L 191 227 L 190 226 L 190 228 L 191 229 L 190 230 L 191 231 L 190 232 L 189 232 L 188 231 L 188 227 L 187 226 L 183 226 L 182 225 L 183 224 L 184 224 L 185 223 L 186 224 L 185 223 L 186 222 L 187 222 L 188 221 L 187 221 L 186 220 L 187 219 L 187 218 L 186 217 L 186 218 L 185 219 L 184 218 L 184 216 L 185 215 "></path>
        <path fill="none" stroke="#00fafa" stroke-width="3" d="M 255 199 L 256 198 L 258 200 L 257 201 L 258 202 L 257 203 L 258 202 L 259 202 L 259 201 L 260 200 L 261 201 L 261 203 L 260 204 L 260 207 L 259 208 L 258 207 L 257 207 L 256 208 L 255 208 L 256 209 L 256 210 L 257 209 L 260 209 L 261 210 L 260 211 L 258 211 L 257 212 L 255 212 L 254 211 L 254 210 L 254 211 L 253 212 L 252 211 L 252 210 L 251 211 L 250 211 L 249 210 L 251 208 L 250 208 L 249 209 L 247 209 L 246 208 L 250 204 L 251 205 L 250 204 L 250 203 L 251 202 L 252 203 L 252 202 L 253 201 L 253 200 L 254 199 "></path>
        <path fill="none" stroke="#00fafa" stroke-width="3" d="M 240 251 L 241 251 L 242 252 L 241 253 L 242 252 L 243 253 L 243 254 L 243 253 L 244 252 L 245 253 L 248 253 L 249 254 L 248 255 L 245 255 L 245 256 L 246 257 L 246 258 L 247 258 L 250 261 L 251 260 L 252 261 L 252 262 L 251 263 L 249 263 L 249 264 L 250 265 L 250 266 L 249 267 L 247 265 L 247 264 L 246 263 L 247 262 L 246 263 L 244 263 L 244 266 L 243 267 L 242 266 L 242 264 L 241 263 L 241 261 L 242 260 L 241 260 L 240 259 L 240 258 L 239 257 L 240 256 L 241 256 L 239 256 L 238 255 L 237 255 L 236 254 L 237 253 L 238 253 "></path>
        <path fill="none" stroke="#00fafa" stroke-width="3" d="M 232 217 L 233 216 L 234 217 L 234 218 L 235 219 L 235 220 L 237 222 L 235 224 L 237 222 L 237 220 L 236 220 L 235 219 L 236 218 L 238 218 L 238 217 L 239 216 L 241 218 L 239 220 L 239 222 L 240 223 L 240 225 L 239 226 L 238 226 L 237 225 L 238 226 L 238 229 L 237 230 L 237 231 L 235 233 L 234 232 L 234 231 L 233 231 L 232 230 L 233 229 L 232 228 L 232 227 L 231 226 L 232 225 L 233 225 L 231 223 L 232 222 L 234 222 L 233 222 L 232 221 L 232 220 L 230 220 L 229 219 L 230 218 L 232 218 "></path>
        <path fill="none" stroke="#00fafa" stroke-width="3" d="M 231 232 L 232 231 L 233 231 L 235 233 L 233 235 L 232 234 L 233 235 L 233 236 L 230 239 L 229 238 L 225 238 L 223 240 L 222 240 L 221 241 L 220 240 L 219 240 L 217 238 L 218 237 L 219 237 L 219 235 L 220 234 L 221 235 L 221 236 L 222 236 L 222 234 L 223 233 L 224 234 L 224 236 L 224 233 L 225 232 L 226 233 L 226 234 L 228 236 L 227 235 L 230 232 "></path>
        <path fill="none" stroke="#00fafa" stroke-width="3" d="M 215 220 L 216 219 L 217 220 L 217 221 L 218 222 L 216 224 L 216 225 L 217 226 L 218 225 L 220 225 L 221 226 L 220 227 L 219 227 L 220 228 L 221 228 L 222 229 L 221 230 L 220 230 L 221 230 L 222 231 L 222 234 L 221 235 L 220 234 L 220 233 L 219 232 L 218 233 L 217 232 L 218 233 L 217 234 L 216 234 L 214 232 L 215 231 L 214 230 L 216 228 L 217 228 L 218 229 L 217 228 L 216 228 L 213 225 L 212 226 L 210 224 L 210 223 L 211 222 L 212 223 L 211 222 L 212 221 L 213 221 L 214 222 L 215 221 "></path>
        <path fill="none" stroke="#00fafa" stroke-width="3" d="M 184 405 L 185 404 L 189 404 L 190 405 L 189 406 L 190 405 L 191 406 L 192 406 L 193 407 L 194 406 L 196 408 L 197 408 L 199 410 L 199 411 L 198 412 L 198 413 L 197 414 L 196 414 L 195 413 L 196 412 L 196 411 L 195 412 L 194 411 L 193 411 L 192 410 L 192 409 L 191 409 L 190 408 L 189 409 L 187 407 L 186 407 L 186 410 L 185 411 L 184 410 L 185 411 L 184 412 L 183 412 L 182 411 L 182 409 L 183 408 L 184 408 L 183 408 L 182 407 L 182 406 L 183 405 "></path>
        <path fill="none" stroke="#00fafa" stroke-width="3" d="M 205 372 L 206 372 L 207 373 L 207 374 L 208 374 L 209 375 L 208 376 L 207 376 L 207 377 L 208 378 L 207 379 L 205 379 L 207 381 L 207 383 L 208 384 L 207 383 L 209 381 L 210 382 L 210 385 L 211 386 L 210 387 L 209 387 L 208 386 L 206 388 L 205 387 L 205 386 L 206 385 L 204 387 L 202 385 L 204 383 L 205 383 L 204 382 L 204 381 L 203 380 L 203 379 L 202 380 L 201 379 L 201 378 L 202 377 L 204 377 L 203 377 L 202 376 L 203 375 L 203 374 "></path>
        <path fill="none" stroke="#00fafa" stroke-width="3" d="M 226 398 L 227 399 L 227 400 L 226 401 L 227 402 L 226 403 L 228 401 L 229 402 L 229 404 L 230 403 L 231 404 L 231 405 L 230 406 L 229 406 L 229 407 L 228 408 L 227 407 L 227 406 L 226 405 L 227 406 L 227 407 L 224 410 L 223 409 L 222 409 L 220 407 L 221 406 L 221 405 L 220 404 L 221 403 L 221 400 L 222 399 L 223 399 L 224 400 L 223 401 "></path>
        <path fill="none" stroke="#00fafa" stroke-width="3" d="M 365 104 L 366 103 L 367 104 L 367 105 L 369 105 L 370 106 L 369 107 L 370 108 L 369 109 L 370 110 L 370 111 L 369 112 L 368 112 L 367 111 L 367 110 L 367 111 L 366 112 L 365 112 L 364 111 L 363 111 L 363 112 L 362 113 L 361 112 L 360 112 L 359 113 L 358 113 L 357 112 L 357 111 L 358 110 L 359 110 L 358 109 L 359 108 L 360 108 L 361 107 L 363 109 L 364 109 L 364 106 L 363 105 L 364 104 "></path>
        <path fill="none" stroke="#00fafa" stroke-width="3" d="M 254 269 L 255 268 L 256 269 L 256 271 L 255 272 L 256 273 L 257 272 L 258 273 L 259 273 L 260 274 L 259 275 L 258 275 L 260 275 L 261 276 L 261 278 L 260 279 L 259 279 L 258 278 L 259 277 L 256 277 L 255 278 L 254 278 L 253 277 L 252 277 L 253 277 L 254 278 L 252 280 L 251 280 L 250 279 L 250 278 L 249 277 L 251 275 L 252 275 L 253 274 L 253 272 L 252 271 L 252 270 L 253 269 "></path>
        <path fill="none" stroke="#00fafa" stroke-width="3" d="M 215 289 L 216 288 L 218 290 L 219 290 L 220 291 L 220 292 L 221 291 L 222 292 L 222 291 L 223 290 L 225 290 L 226 291 L 225 292 L 225 293 L 226 294 L 225 295 L 223 295 L 222 296 L 221 296 L 220 295 L 221 294 L 219 296 L 218 296 L 217 295 L 218 294 L 218 293 L 217 292 L 217 295 L 218 296 L 217 297 L 216 297 L 215 296 L 215 295 L 214 294 L 214 293 L 213 292 L 214 291 L 213 290 L 214 289 "></path>
        <path fill="none" stroke="#00fafa" stroke-width="3" d="M 208 427 L 209 426 L 210 427 L 210 428 L 209 429 L 207 429 L 208 430 L 205 433 L 204 432 L 205 433 L 206 433 L 207 434 L 205 436 L 204 436 L 203 437 L 203 438 L 202 439 L 201 438 L 200 438 L 199 439 L 196 436 L 197 435 L 199 435 L 200 436 L 201 436 L 202 435 L 201 434 L 202 433 L 202 432 L 201 431 L 202 430 L 203 430 L 203 429 L 202 428 L 203 427 L 204 427 L 205 428 L 205 429 L 205 428 L 206 427 "></path>
        <path fill="none" stroke="#00fafa" stroke-width="3" d="M 317 112 L 318 111 L 320 113 L 320 114 L 319 115 L 320 114 L 321 115 L 321 116 L 320 117 L 319 117 L 319 118 L 318 119 L 318 120 L 317 121 L 315 121 L 316 122 L 318 122 L 319 123 L 318 124 L 318 125 L 316 127 L 315 126 L 314 126 L 312 124 L 313 123 L 313 120 L 314 119 L 313 118 L 315 116 L 316 117 L 317 117 L 317 116 L 316 115 L 316 114 L 317 113 "></path>
        <path fill="none" stroke="#00fafa" stroke-width="3" d="M 239 282 L 240 281 L 241 281 L 242 282 L 243 282 L 244 283 L 244 284 L 245 284 L 246 285 L 244 287 L 243 287 L 243 289 L 242 290 L 243 289 L 244 290 L 244 291 L 243 292 L 242 292 L 241 293 L 239 293 L 238 292 L 239 291 L 240 291 L 239 291 L 238 290 L 239 289 L 239 288 L 238 287 L 238 286 L 239 285 L 240 285 L 241 286 L 241 284 L 240 285 L 239 284 L 238 284 L 237 283 L 238 282 "></path>
        <path fill="none" stroke="#00fafa" stroke-width="3" d="M 223 389 L 224 389 L 225 390 L 224 391 L 225 392 L 225 393 L 226 394 L 227 393 L 228 393 L 229 392 L 230 393 L 231 393 L 232 394 L 231 395 L 230 395 L 230 396 L 229 397 L 227 397 L 226 396 L 225 397 L 223 395 L 223 394 L 223 396 L 222 397 L 221 396 L 222 397 L 222 399 L 221 400 L 220 399 L 220 398 L 219 397 L 219 395 L 220 394 L 220 393 L 221 392 L 222 392 L 221 391 "></path>
        <path fill="none" stroke="#00fafa" stroke-width="3" d="M 221 216 L 222 215 L 224 217 L 223 218 L 224 218 L 225 219 L 224 220 L 223 220 L 223 221 L 224 222 L 225 221 L 227 223 L 227 224 L 228 225 L 227 226 L 226 226 L 225 227 L 224 227 L 223 226 L 223 225 L 222 225 L 221 224 L 220 225 L 218 225 L 217 226 L 216 225 L 216 224 L 217 223 L 218 223 L 219 222 L 220 222 L 221 221 L 221 220 L 220 220 L 219 219 L 220 218 L 221 218 "></path>
        <path fill="none" stroke="#00fafa" stroke-width="3" d="M 235 416 L 237 416 L 239 418 L 238 419 L 239 419 L 240 418 L 241 419 L 241 420 L 244 420 L 245 419 L 246 419 L 247 420 L 247 421 L 246 422 L 240 422 L 239 423 L 238 422 L 239 423 L 238 424 L 237 424 L 235 422 L 234 422 L 233 421 L 234 420 L 234 419 L 233 418 "></path>
        <path fill="none" stroke="#00fafa" stroke-width="3" d="M 183 386 L 184 387 L 184 388 L 183 389 L 183 390 L 182 391 L 183 392 L 182 393 L 181 393 L 180 392 L 179 393 L 178 392 L 179 393 L 179 395 L 178 396 L 177 396 L 176 397 L 173 394 L 173 393 L 174 392 L 174 391 L 175 390 L 176 391 L 176 392 L 176 391 L 177 390 L 177 389 L 178 388 L 180 390 L 179 389 L 180 388 L 181 388 "></path>
        <path fill="none" stroke="#00fafa" stroke-width="3" d="M 400 74 L 401 73 L 402 74 L 402 75 L 403 76 L 403 77 L 407 73 L 409 75 L 408 76 L 409 77 L 408 78 L 407 78 L 407 79 L 409 81 L 408 82 L 407 82 L 405 80 L 403 82 L 402 81 L 402 80 L 401 79 L 401 78 L 400 79 L 399 78 L 399 76 L 400 75 "></path>
        <path fill="none" stroke="#00fafa" stroke-width="3" d="M 214 275 L 215 274 L 216 275 L 218 275 L 219 276 L 219 277 L 217 279 L 216 278 L 215 278 L 214 279 L 214 280 L 213 281 L 212 281 L 211 280 L 210 281 L 209 280 L 209 282 L 210 283 L 208 285 L 207 284 L 207 280 L 206 280 L 205 279 L 207 277 L 208 278 L 209 277 L 210 278 L 211 278 L 213 276 L 214 276 "></path>
        <path fill="none" stroke="#00fafa" stroke-width="3" d="M 270 201 L 271 201 L 272 202 L 270 204 L 271 204 L 272 203 L 273 204 L 273 206 L 272 207 L 271 207 L 273 209 L 273 211 L 274 212 L 273 213 L 271 213 L 270 212 L 269 213 L 267 211 L 268 210 L 268 209 L 267 208 L 269 206 L 268 205 L 268 203 "></path>
        <path fill="none" stroke="#00fafa" stroke-width="3" d="M 403 117 L 404 118 L 404 119 L 405 119 L 406 118 L 409 118 L 410 119 L 409 120 L 408 120 L 407 121 L 406 121 L 406 122 L 405 123 L 404 123 L 403 122 L 404 121 L 403 122 L 402 121 L 401 121 L 402 121 L 404 123 L 404 124 L 403 125 L 401 123 L 402 124 L 401 125 L 400 125 L 399 124 L 398 124 L 397 123 L 399 121 L 399 120 L 400 119 L 401 119 "></path>
        <path fill="none" stroke="#00fafa" stroke-width="3" d="M 225 276 L 226 275 L 227 275 L 230 278 L 230 277 L 231 276 L 232 277 L 232 278 L 234 278 L 235 279 L 236 279 L 237 278 L 238 279 L 238 281 L 237 282 L 236 281 L 234 283 L 233 282 L 233 280 L 232 281 L 230 281 L 228 279 L 227 280 L 226 279 L 225 280 L 224 279 L 224 278 L 225 277 L 226 277 "></path>
        <path fill="none" stroke="#00fafa" stroke-width="3" d="M 185 283 L 186 282 L 189 285 L 189 286 L 188 287 L 187 287 L 187 288 L 188 288 L 189 289 L 188 290 L 189 290 L 190 291 L 189 292 L 187 292 L 186 291 L 186 290 L 186 291 L 185 292 L 183 292 L 182 291 L 183 290 L 184 290 L 183 290 L 182 289 L 182 288 L 183 287 L 185 287 "></path>
        <path fill="none" stroke="#00fafa" stroke-width="3" d="M 246 285 L 247 286 L 247 287 L 246 288 L 247 289 L 248 289 L 249 290 L 251 288 L 253 290 L 253 291 L 252 292 L 252 294 L 250 296 L 249 295 L 249 294 L 250 293 L 249 292 L 248 293 L 246 293 L 245 292 L 246 291 L 243 288 "></path>
        <path fill="none" stroke="#00fafa" stroke-width="3" d="M 175 413 L 177 415 L 177 416 L 178 415 L 179 416 L 180 416 L 181 417 L 181 416 L 182 415 L 183 416 L 184 415 L 185 416 L 185 418 L 183 420 L 181 420 L 179 418 L 178 419 L 175 419 L 174 418 L 175 417 L 173 415 "></path>
        <path fill="none" stroke="#00fafa" stroke-width="3" d="M 402 66 L 403 65 L 404 66 L 404 68 L 402 70 L 404 68 L 405 69 L 406 69 L 407 70 L 406 71 L 407 70 L 408 71 L 408 72 L 406 74 L 405 73 L 404 73 L 403 72 L 404 71 L 403 72 L 401 72 L 400 71 L 400 68 L 399 68 L 398 67 L 399 66 "></path>
        <path fill="none" stroke="#00fafa" stroke-width="3" d="M 252 246 L 253 247 L 253 249 L 254 250 L 252 252 L 254 254 L 255 254 L 256 255 L 255 256 L 254 256 L 253 257 L 252 257 L 251 256 L 250 256 L 249 257 L 248 256 L 248 255 L 249 254 L 249 253 L 250 252 L 250 250 L 251 249 L 250 248 "></path>
        <path fill="none" stroke="#00fafa" stroke-width="3" d="M 231 261 L 232 261 L 233 262 L 233 263 L 231 265 L 230 265 L 231 266 L 232 266 L 233 267 L 232 268 L 231 268 L 230 269 L 230 270 L 228 272 L 227 272 L 226 271 L 227 270 L 226 269 L 227 268 L 228 268 L 227 267 L 228 266 L 228 264 "></path>
        <path fill="none" stroke="#00fafa" stroke-width="3" d="M 188 363 L 189 363 L 190 364 L 188 366 L 189 365 L 191 365 L 193 367 L 193 368 L 192 369 L 190 367 L 190 369 L 189 370 L 188 369 L 189 370 L 187 372 L 186 371 L 186 368 L 185 367 L 186 366 L 186 365 "></path>
        <path fill="none" stroke="#00fafa" stroke-width="3" d="M 398 110 L 399 109 L 400 109 L 401 110 L 400 111 L 401 110 L 402 111 L 404 111 L 405 112 L 403 114 L 404 115 L 403 116 L 402 116 L 402 117 L 401 118 L 400 117 L 400 116 L 398 114 "></path>
        <path fill="none" stroke="#00fafa" stroke-width="3" d="M 246 279 L 247 278 L 248 279 L 248 280 L 249 279 L 250 279 L 251 280 L 250 281 L 251 282 L 252 281 L 253 282 L 253 284 L 254 285 L 252 287 L 250 287 L 249 286 L 249 283 L 248 283 L 246 281 "></path>
        <path fill="none" stroke="#00fafa" stroke-width="3" d="M 271 278 L 272 279 L 272 280 L 273 280 L 275 282 L 274 283 L 274 284 L 273 285 L 273 286 L 272 287 L 271 286 L 271 285 L 269 285 L 268 284 L 268 281 "></path>
        <path fill="none" stroke="#00fafa" stroke-width="3" d="M 182 197 L 184 199 L 183 200 L 182 200 L 183 200 L 184 199 L 185 200 L 185 201 L 184 202 L 182 202 L 182 204 L 181 205 L 179 203 L 178 203 L 176 201 L 178 199 L 180 199 "></path>
        <path fill="none" stroke="#00fafa" stroke-width="3" d="M 365 113 L 366 112 L 367 113 L 368 112 L 369 112 L 370 113 L 370 114 L 371 113 L 373 115 L 373 116 L 374 116 L 375 117 L 374 118 L 374 119 L 373 120 L 372 119 L 372 118 L 371 117 L 371 116 L 369 118 L 368 117 L 368 116 L 367 115 L 366 115 L 365 114 "></path>
        <path fill="none" stroke="#00fafa" stroke-width="3" d="M 255 436 L 256 435 L 257 435 L 259 437 L 259 440 L 258 441 L 257 440 L 255 440 L 257 440 L 258 441 L 257 442 L 254 442 L 252 440 L 252 439 L 254 437 L 255 438 L 256 437 "></path>
        <path fill="none" stroke="#00fafa" stroke-width="3" d="M 261 228 L 262 227 L 263 227 L 264 228 L 263 229 L 263 230 L 262 231 L 263 231 L 263 230 L 264 229 L 265 230 L 265 233 L 264 234 L 260 234 L 258 232 L 259 231 L 259 230 L 260 229 L 261 229 "></path>
        <path fill="none" stroke="#00fafa" stroke-width="3" d="M 253 212 L 254 211 L 255 212 L 256 212 L 257 213 L 257 215 L 255 217 L 254 217 L 253 218 L 254 219 L 254 220 L 253 221 L 251 219 L 251 217 L 252 216 L 251 215 L 253 213 "></path>
        <path fill="none" stroke="#00fafa" stroke-width="3" d="M 324 543 L 325 542 L 327 544 L 329 544 L 330 545 L 329 546 L 329 548 L 328 549 L 327 548 L 327 547 L 326 546 L 324 548 L 323 548 L 322 547 L 323 546 L 322 547 L 321 546 L 321 545 L 322 544 L 324 544 "></path>
        <path fill="none" stroke="#00fafa" stroke-width="3" d="M 290 555 L 291 554 L 292 554 L 293 555 L 292 556 L 292 558 L 293 559 L 294 558 L 295 559 L 295 560 L 294 561 L 292 561 L 291 560 L 290 560 L 289 561 L 288 560 L 287 560 L 286 559 L 287 558 L 290 558 L 289 558 L 288 557 L 289 556 L 290 556 "></path>
        <path fill="none" stroke="#00fafa" stroke-width="3" d="M 237 411 L 238 410 L 239 411 L 239 412 L 240 412 L 241 413 L 240 414 L 242 416 L 240 418 L 239 417 L 238 417 L 237 416 L 236 416 L 235 415 L 236 414 L 235 413 L 236 412 L 237 412 "></path>
        <path fill="none" stroke="#00fafa" stroke-width="3" d="M 220 281 L 221 280 L 222 280 L 223 281 L 223 282 L 225 284 L 226 283 L 227 284 L 227 286 L 226 287 L 223 287 L 222 286 L 223 285 L 222 286 L 221 285 L 221 284 L 220 283 "></path>
        <path fill="none" stroke="#00fafa" stroke-width="3" d="M 672 564 L 674 566 L 673 567 L 675 565 L 677 567 L 676 568 L 677 569 L 676 570 L 675 570 L 674 571 L 672 569 L 671 569 L 670 568 L 670 566 "></path>
        <path fill="none" stroke="#00fafa" stroke-width="3" d="M 227 247 L 228 248 L 228 249 L 229 250 L 229 251 L 230 252 L 230 253 L 229 254 L 228 254 L 227 255 L 226 255 L 225 254 L 227 252 L 227 251 L 227 252 L 225 254 L 224 253 L 224 252 L 225 251 L 225 249 "></path>
        <path fill="none" stroke="#00fafa" stroke-width="3" d="M 388 120 L 390 122 L 389 123 L 390 124 L 388 126 L 386 126 L 384 124 L 383 125 L 382 124 L 382 123 L 383 122 L 386 122 "></path>
        <path fill="none" stroke="#00fafa" stroke-width="3" d="M 230 439 L 231 438 L 233 440 L 232 441 L 233 441 L 234 442 L 234 444 L 231 447 L 230 447 L 229 446 L 230 445 L 229 444 L 230 443 L 232 443 L 231 443 L 229 441 L 230 440 "></path>
        <path fill="none" stroke="#00fafa" stroke-width="3" d="M 372 35 L 373 34 L 374 35 L 374 36 L 375 36 L 376 37 L 376 39 L 375 40 L 373 38 L 374 39 L 373 40 L 372 40 L 369 37 L 369 36 L 370 35 "></path>
        <path fill="none" stroke="#00fafa" stroke-width="3" d="M 203 398 L 204 397 L 205 397 L 206 398 L 208 398 L 209 397 L 210 398 L 211 397 L 213 399 L 212 400 L 209 400 L 208 401 L 207 400 L 208 401 L 207 402 L 206 402 L 205 401 L 205 400 "></path>
        <path fill="none" stroke="#00fafa" stroke-width="3" d="M 670 284 L 671 283 L 672 284 L 674 284 L 675 285 L 674 286 L 673 286 L 674 287 L 674 289 L 673 290 L 672 290 L 671 291 L 670 290 L 670 288 L 669 287 L 670 286 L 671 286 L 670 285 "></path>
        <path fill="none" stroke="#00fafa" stroke-width="3" d="M 264 399 L 265 398 L 267 400 L 267 402 L 266 403 L 265 402 L 265 404 L 263 406 L 262 405 L 262 404 L 263 403 L 263 402 L 262 403 L 261 402 L 261 401 L 263 399 "></path>
        <path fill="none" stroke="#00fafa" stroke-width="3" d="M 195 367 L 196 366 L 197 367 L 198 367 L 199 368 L 198 369 L 199 370 L 196 373 L 195 372 L 195 371 L 194 372 L 193 371 L 193 370 L 194 369 L 193 368 L 194 367 "></path>
        <path fill="none" stroke="#00fafa" stroke-width="3" d="M 237 361 L 238 360 L 240 360 L 243 363 L 241 365 L 240 364 L 240 363 L 239 362 L 240 363 L 239 364 L 238 364 L 238 365 L 237 366 L 236 366 L 235 365 L 235 364 L 237 362 "></path>
        <path fill="none" stroke="#00fafa" stroke-width="3" d="M 337 31 L 339 33 L 339 34 L 338 35 L 339 36 L 337 38 L 333 38 L 332 37 L 334 35 L 335 36 L 336 35 L 335 34 L 335 33 "></path>
        <path fill="none" stroke="#00fafa" stroke-width="3" d="M 259 365 L 260 364 L 262 364 L 263 365 L 263 366 L 264 367 L 262 369 L 261 369 L 260 368 L 259 368 L 258 369 L 257 368 L 257 366 L 258 365 L 259 365 L 260 366 "></path>
        <path fill="none" stroke="#00fafa" stroke-width="3" d="M 268 222 L 269 221 L 272 224 L 271 225 L 271 226 L 270 227 L 268 227 L 266 225 L 266 223 L 267 222 "></path>
        <path fill="none" stroke="#00fafa" stroke-width="3" d="M 275 555 L 276 554 L 278 554 L 279 555 L 279 559 L 280 560 L 280 561 L 279 562 L 277 560 L 277 559 L 276 558 L 277 557 L 277 556 L 277 557 L 276 558 L 275 557 "></path>
        <path fill="none" stroke="#00fafa" stroke-width="3" d="M 273 449 L 274 448 L 275 449 L 276 448 L 278 450 L 278 451 L 277 452 L 276 452 L 274 454 L 273 454 L 272 453 L 272 451 L 273 450 "></path>
        <path fill="none" stroke="#00fafa" stroke-width="3" d="M 262 272 L 263 271 L 264 272 L 264 274 L 264 273 L 265 272 L 266 273 L 266 274 L 267 275 L 265 277 L 264 277 L 263 278 L 261 276 L 262 275 "></path>
        <path fill="none" stroke="#00fafa" stroke-width="3" d="M 196 382 L 197 381 L 198 381 L 199 382 L 198 383 L 200 383 L 201 384 L 201 386 L 200 387 L 199 387 L 198 388 L 197 387 L 197 385 L 196 384 "></path>
        <path fill="none" stroke="#00fafa" stroke-width="3" d="M 220 252 L 221 251 L 222 252 L 222 253 L 223 252 L 225 254 L 224 255 L 224 256 L 223 257 L 222 256 L 222 255 L 221 256 L 220 256 L 219 257 L 218 256 L 218 255 L 219 254 L 220 254 "></path>
        <path fill="none" stroke="#00fafa" stroke-width="3" d="M 241 405 L 242 406 L 242 407 L 241 408 L 243 408 L 245 410 L 244 411 L 243 411 L 242 410 L 240 410 L 239 411 L 237 409 L 238 408 L 239 408 L 239 407 "></path>
        <path fill="none" stroke="#00fafa" stroke-width="3" d="M 218 274 L 219 273 L 220 273 L 221 274 L 222 273 L 224 275 L 223 276 L 223 277 L 222 278 L 223 279 L 222 280 L 221 280 L 220 279 L 220 276 "></path>
        <path fill="none" stroke="#00fafa" stroke-width="3" d="M 314 557 L 315 556 L 317 556 L 318 557 L 317 558 L 318 557 L 319 558 L 320 557 L 321 558 L 321 559 L 320 560 L 317 560 L 316 561 L 315 561 L 314 560 L 315 559 L 315 558 "></path>
        <path fill="none" stroke="#00fafa" stroke-width="3" d="M 391 123 L 392 124 L 392 125 L 391 126 L 394 126 L 395 127 L 394 128 L 391 128 L 391 129 L 390 130 L 389 129 L 389 128 L 388 127 L 388 126 "></path>
        <path fill="none" stroke="#00fafa" stroke-width="3" d="M 277 513 L 278 512 L 280 512 L 281 513 L 281 514 L 280 515 L 279 514 L 280 515 L 279 516 L 279 517 L 277 519 L 276 519 L 275 518 L 277 516 L 276 515 L 277 514 "></path>
        <path fill="none" stroke="#00fafa" stroke-width="3" d="M 271 243 L 272 244 L 273 243 L 274 244 L 274 246 L 275 246 L 276 247 L 275 248 L 275 249 L 274 250 L 273 249 L 273 248 L 271 246 L 270 246 L 269 245 "></path>
        <path fill="none" stroke="#00fafa" stroke-width="3" d="M 365 551 L 366 552 L 367 552 L 368 553 L 366 555 L 366 557 L 365 558 L 364 558 L 363 557 L 364 556 L 364 555 L 363 555 L 362 554 "></path>
        <path fill="none" stroke="#00fafa" stroke-width="3" d="M 198 398 L 200 400 L 199 401 L 198 401 L 198 403 L 197 404 L 196 403 L 195 404 L 193 402 L 195 400 L 196 400 "></path>
        <path fill="none" stroke="#00fafa" stroke-width="3" d="M 244 279 L 249 284 L 249 285 L 248 286 L 247 286 L 245 284 L 245 283 L 244 282 L 243 282 L 242 281 "></path>
        <path fill="none" stroke="#00fafa" stroke-width="3" d="M 210 281 L 211 280 L 212 281 L 214 281 L 215 282 L 215 283 L 216 284 L 215 285 L 213 285 L 212 284 L 211 285 L 210 284 "></path>
        <path fill="none" stroke="#00fafa" stroke-width="3" d="M 179 273 L 180 272 L 181 273 L 181 274 L 183 276 L 183 277 L 182 278 L 182 279 L 181 280 L 179 278 "></path>
        <path fill="none" stroke="#00fafa" stroke-width="3" d="M 189 412 L 191 414 L 190 415 L 190 416 L 189 417 L 188 416 L 187 417 L 187 418 L 186 419 L 185 418 L 185 416 "></path>
        <path fill="none" stroke="#00fafa" stroke-width="3" d="M 196 438 L 197 437 L 199 439 L 198 440 L 196 440 L 196 441 L 195 442 L 194 442 L 193 441 L 194 440 L 193 441 L 192 440 L 192 439 L 193 438 "></path>
        <path fill="none" stroke="#00fafa" stroke-width="3" d="M 266 241 L 267 240 L 268 241 L 271 241 L 272 240 L 273 240 L 274 241 L 272 243 L 271 243 L 270 244 L 269 243 L 268 244 L 266 242 "></path>
        <path fill="none" stroke="#00fafa" stroke-width="3" d="M 407 112 L 408 111 L 409 111 L 410 112 L 409 113 L 411 113 L 412 114 L 411 115 L 410 115 L 409 116 L 408 115 L 407 116 L 405 114 L 406 113 L 407 113 "></path>
        <path fill="none" stroke="#00fafa" stroke-width="3" d="M 261 439 L 262 440 L 262 441 L 263 442 L 262 443 L 261 443 L 261 444 L 260 445 L 258 445 L 257 444 L 258 443 L 258 442 "></path>
        <path fill="none" stroke="#00fafa" stroke-width="3" d="M 238 259 L 239 258 L 240 259 L 240 260 L 239 261 L 239 263 L 238 264 L 237 263 L 236 264 L 235 263 L 235 261 L 237 259 "></path>
        <path fill="none" stroke="#00fafa" stroke-width="3" d="M 214 269 L 215 268 L 216 268 L 219 271 L 219 273 L 218 274 L 216 272 L 215 273 L 214 272 L 214 271 L 215 270 "></path>
        <path fill="none" stroke="#00fafa" stroke-width="3" d="M 214 444 L 215 444 L 217 446 L 218 446 L 219 447 L 218 448 L 217 448 L 216 449 L 215 448 L 214 448 L 212 446 "></path>
        <path fill="none" stroke="#00fafa" stroke-width="3" d="M 213 386 L 214 385 L 215 386 L 215 387 L 217 387 L 218 388 L 218 389 L 219 390 L 218 391 L 217 391 L 216 390 L 216 389 L 215 389 L 214 390 L 213 389 "></path>
        <path fill="none" stroke="#00fafa" stroke-width="3" d="M 234 251 L 235 250 L 236 250 L 237 251 L 238 251 L 239 252 L 238 253 L 235 253 L 234 254 L 232 254 L 231 253 L 233 251 "></path>
        <path fill="none" stroke="#00fafa" stroke-width="3" d="M 210 433 L 211 432 L 212 433 L 215 433 L 216 434 L 216 435 L 215 436 L 214 435 L 210 435 L 209 436 L 208 435 L 208 434 L 209 433 "></path>
        <path fill="none" stroke="#00fafa" stroke-width="3" d="M 223 263 L 224 264 L 224 267 L 222 269 L 221 268 L 220 268 L 219 267 L 219 266 L 220 265 L 221 265 L 222 266 L 221 265 "></path>
        <path fill="none" stroke="#00fafa" stroke-width="3" d="M 206 287 L 207 288 L 207 289 L 209 289 L 210 290 L 209 291 L 208 291 L 207 292 L 205 292 L 204 291 L 204 289 "></path>
        <path fill="none" stroke="#00fafa" stroke-width="3" d="M 246 413 L 247 412 L 249 412 L 251 414 L 250 415 L 250 417 L 249 418 L 248 418 L 247 417 L 248 416 L 247 415 L 247 414 "></path>
        <path fill="none" stroke="#00fafa" stroke-width="3" d="M 248 390 L 249 390 L 250 391 L 249 392 L 250 393 L 250 394 L 251 395 L 250 396 L 248 396 L 247 395 L 247 393 L 246 392 "></path>
        <path fill="none" stroke="#00fafa" stroke-width="3" d="M 198 274 L 199 273 L 200 273 L 201 274 L 200 275 L 201 276 L 200 277 L 199 277 L 199 278 L 198 279 L 197 278 L 197 277 L 196 276 L 196 275 L 197 274 "></path>
        <path fill="none" stroke="#00fafa" stroke-width="3" d="M 185 418 L 186 419 L 190 419 L 191 420 L 190 421 L 187 421 L 186 422 L 185 422 L 183 420 "></path>
        <path fill="none" stroke="#00fafa" stroke-width="3" d="M 264 287 L 265 286 L 267 288 L 267 289 L 268 290 L 268 291 L 267 292 L 266 291 L 265 291 L 264 290 L 265 289 L 263 289 L 262 288 L 263 287 "></path>
        <path fill="none" stroke="#00fafa" stroke-width="3" d="M 302 498 L 303 497 L 305 497 L 306 498 L 305 499 L 306 500 L 306 502 L 305 503 L 304 503 L 303 502 L 304 501 L 303 501 L 302 500 L 303 499 "></path>
        <path fill="none" stroke="#00fafa" stroke-width="3" d="M 198 381 L 199 380 L 200 380 L 201 381 L 202 381 L 203 380 L 204 381 L 204 383 L 202 385 "></path>
        <path fill="none" stroke="#00fafa" stroke-width="3" d="M 248 271 L 249 272 L 249 273 L 250 274 L 249 275 L 248 275 L 248 276 L 247 277 L 246 277 L 245 276 L 245 274 "></path>
        <path fill="none" stroke="#00fafa" stroke-width="3" d="M 225 361 L 226 360 L 227 361 L 227 363 L 228 363 L 229 364 L 229 365 L 228 366 L 227 365 L 227 366 L 226 367 L 225 366 "></path>
        <path fill="none" stroke="#00fafa" stroke-width="3" d="M 346 508 L 347 507 L 349 509 L 349 510 L 348 511 L 347 510 L 348 511 L 346 513 L 345 512 L 345 510 L 344 509 L 345 508 "></path>
        <path fill="none" stroke="#00fafa" stroke-width="3" d="M 240 224 L 241 223 L 242 223 L 244 225 L 243 226 L 244 227 L 243 228 L 241 228 L 239 226 L 240 225 "></path>
        <path fill="none" stroke="#00fafa" stroke-width="3" d="M 210 444 L 211 443 L 212 444 L 212 447 L 211 448 L 209 448 L 207 446 L 207 445 L 208 444 L 209 445 L 210 445 "></path>
        <path fill="none" stroke="#00fafa" stroke-width="3" d="M 551 44 L 552 43 L 553 44 L 554 44 L 555 43 L 557 43 L 558 44 L 557 45 L 556 45 L 554 47 L 553 47 L 551 45 "></path>
        <path fill="none" stroke="#00fafa" stroke-width="3" d="M 238 449 L 239 450 L 239 451 L 240 452 L 241 451 L 242 452 L 242 453 L 241 454 L 238 454 L 237 453 L 237 452 L 236 451 "></path>
        <path fill="none" stroke="#00fafa" stroke-width="3" d="M 248 430 L 249 429 L 250 430 L 250 431 L 248 433 L 247 432 L 245 434 L 244 433 L 244 431 L 245 430 "></path>
        <path fill="none" stroke="#00fafa" stroke-width="3" d="M 193 449 L 194 448 L 195 449 L 195 450 L 194 451 L 192 451 L 191 452 L 188 452 L 187 451 L 188 450 L 190 450 L 191 449 "></path>
        <path fill="none" stroke="#00fafa" stroke-width="3" d="M 198 280 L 199 279 L 203 279 L 204 280 L 204 281 L 203 282 L 202 281 L 202 282 L 201 283 L 200 283 L 199 282 L 199 281 "></path>
        <path fill="none" stroke="#00fafa" stroke-width="3" d="M 190 360 L 192 362 L 193 361 L 195 363 L 194 364 L 190 364 L 188 362 "></path>
        <path fill="none" stroke="#00fafa" stroke-width="3" d="M 733 156 L 734 155 L 735 155 L 737 157 L 737 159 L 736 160 L 735 159 L 734 160 L 733 160 L 732 159 L 734 157 "></path>
        <path fill="none" stroke="#00fafa" stroke-width="3" d="M 233 215 L 234 214 L 238 214 L 239 215 L 237 217 L 236 216 L 236 218 L 235 219 L 234 218 L 234 216 "></path>
        <path fill="none" stroke="#00fafa" stroke-width="3" d="M 291 507 L 292 506 L 295 506 L 296 507 L 296 509 L 295 510 L 293 510 L 292 509 L 292 508 "></path>
        <path fill="none" stroke="#00fafa" stroke-width="3" d="M 223 438 L 224 437 L 225 438 L 225 441 L 224 442 L 223 442 L 222 441 L 221 441 L 220 440 L 222 438 "></path>
        <path fill="none" stroke="#00fafa" stroke-width="3" d="M 634 88 L 635 88 L 636 89 L 636 91 L 635 92 L 635 93 L 634 94 L 633 93 L 633 92 L 632 91 L 632 90 "></path>
        <path fill="none" stroke="#00fafa" stroke-width="3" d="M 216 265 L 217 264 L 218 264 L 219 265 L 219 266 L 218 267 L 219 267 L 220 268 L 218 270 L 216 268 "></path>
        <path fill="none" stroke="#00fafa" stroke-width="3" d="M 392 52 L 393 51 L 396 51 L 397 52 L 395 54 L 396 55 L 395 56 L 394 56 L 393 55 L 393 53 "></path>
        <path fill="none" stroke="#00fafa" stroke-width="3" d="M 241 389 L 243 389 L 244 390 L 243 391 L 242 391 L 242 392 L 241 393 L 240 393 L 239 394 L 238 393 L 238 392 "></path>
        <path fill="none" stroke="#00fafa" stroke-width="3" d="M 280 481 L 281 480 L 282 481 L 283 480 L 284 481 L 284 483 L 283 484 L 282 483 L 282 484 L 281 485 L 279 483 L 280 482 "></path>
        <path fill="none" stroke="#00fafa" stroke-width="3" d="M 361 104 L 362 103 L 363 104 L 363 105 L 364 106 L 364 108 L 363 109 L 361 107 L 361 106 L 360 106 L 359 105 L 360 104 "></path>
        <path fill="none" stroke="#00fafa" stroke-width="3" d="M 230 396 L 231 395 L 232 396 L 233 396 L 234 395 L 235 396 L 235 397 L 233 399 L 231 399 L 230 398 "></path>
        <path fill="none" stroke="#00fafa" stroke-width="3" d="M 242 217 L 244 219 L 243 220 L 242 220 L 242 222 L 241 223 L 239 221 L 239 220 "></path>
        <path fill="none" stroke="#00fafa" stroke-width="3" d="M 220 433 L 221 432 L 222 432 L 224 434 L 223 435 L 224 436 L 222 438 L 220 436 L 221 435 L 221 434 "></path>
        <path fill="none" stroke="#00fafa" stroke-width="3" d="M 269 488 L 270 489 L 271 488 L 272 489 L 272 490 L 273 491 L 272 492 L 271 492 L 270 491 L 269 492 L 267 490 "></path>
        <path fill="none" stroke="#00fafa" stroke-width="3" d="M 199 450 L 200 449 L 205 449 L 206 450 L 205 451 L 204 451 L 203 452 L 202 451 L 201 451 L 200 452 L 199 451 "></path>
        <path fill="none" stroke="#00fafa" stroke-width="3" d="M 748 280 L 749 279 L 750 280 L 751 280 L 752 281 L 752 282 L 751 283 L 751 284 L 750 285 L 748 283 L 749 282 L 748 281 "></path>
        <path fill="none" stroke="#00fafa" stroke-width="3" d="M 228 205 L 229 204 L 234 204 L 235 205 L 234 206 L 233 206 L 232 207 L 231 206 L 230 207 "></path>
        <path fill="none" stroke="#00fafa" stroke-width="3" d="M 341 563 L 342 562 L 343 562 L 345 564 L 347 564 L 348 565 L 347 566 L 344 566 "></path>
        <path fill="none" stroke="#00fafa" stroke-width="3" d="M 183 450 L 184 449 L 187 449 L 188 450 L 187 451 L 187 452 L 186 453 L 185 453 L 184 452 L 185 451 L 184 452 L 183 451 "></path>
        <path fill="none" stroke="#00fafa" stroke-width="3" d="M 673 523 L 674 522 L 676 524 L 678 524 L 679 525 L 678 526 L 674 526 L 673 525 "></path>
        <path fill="none" stroke="#00fafa" stroke-width="3" d="M 248 238 L 249 237 L 250 237 L 252 239 L 252 240 L 251 241 L 248 241 L 247 240 L 248 239 "></path>
        <path fill="none" stroke="#00fafa" stroke-width="3" d="M 180 282 L 181 281 L 183 283 L 183 287 L 182 288 L 181 287 L 181 286 L 180 285 L 181 284 L 180 283 "></path>
        <path fill="none" stroke="#00fafa" stroke-width="3" d="M 320 514 L 321 515 L 321 518 L 322 519 L 320 521 L 319 520 L 319 517 L 318 516 "></path>
        <path fill="none" stroke="#00fafa" stroke-width="3" d="M 233 370 L 234 369 L 235 370 L 237 370 L 238 371 L 235 374 L 233 372 "></path>
        <path fill="none" stroke="#00fafa" stroke-width="3" d="M 201 387 L 202 386 L 203 387 L 203 388 L 202 389 L 202 390 L 201 391 L 200 391 L 199 390 L 200 389 L 199 389 L 198 388 L 199 387 "></path>
        <path fill="none" stroke="#00fafa" stroke-width="3" d="M 555 46 L 556 45 L 558 45 L 559 46 L 558 47 L 558 49 L 557 50 L 556 49 L 555 49 L 554 48 L 555 47 L 556 47 "></path>
        <path fill="none" stroke="#00fafa" stroke-width="3" d="M 213 402 L 214 401 L 215 401 L 216 402 L 216 403 L 217 402 L 218 403 L 218 404 L 217 405 L 216 405 L 215 406 L 214 405 L 214 403 "></path>
        <path fill="none" stroke="#00fafa" stroke-width="3" d="M 357 114 L 358 113 L 359 114 L 360 113 L 362 115 L 359 118 L 358 117 L 358 116 L 357 115 "></path>
        <path fill="none" stroke="#00fafa" stroke-width="3" d="M 267 251 L 269 251 L 270 252 L 269 253 L 268 253 L 269 254 L 269 255 L 268 256 L 265 253 "></path>
        <path fill="none" stroke="#00fafa" stroke-width="3" d="M 223 365 L 224 364 L 225 365 L 225 366 L 226 367 L 226 368 L 224 370 L 223 370 L 222 369 L 223 368 "></path>
        <path fill="none" stroke="#00fafa" stroke-width="3" d="M 257 214 L 258 213 L 260 213 L 261 214 L 262 214 L 263 215 L 263 216 L 262 217 L 261 217 L 259 215 L 258 215 "></path>
        <path fill="none" stroke="#00fafa" stroke-width="3" d="M 245 450 L 246 449 L 247 450 L 248 450 L 249 451 L 250 451 L 251 452 L 249 454 L 247 452 L 246 452 L 245 451 "></path>
        <path fill="none" stroke="#00fafa" stroke-width="3" d="M 265 247 L 266 246 L 268 246 L 269 247 L 269 248 L 268 249 L 269 250 L 268 251 L 267 251 L 266 250 L 266 248 "></path>
        <path fill="none" stroke="#00fafa" stroke-width="3" d="M 358 483 L 359 482 L 360 483 L 360 484 L 359 485 L 358 485 L 356 487 L 355 486 L 355 484 L 356 483 "></path>
        <path fill="none" stroke="#00fafa" stroke-width="3" d="M 312 47 L 313 46 L 314 47 L 314 49 L 315 50 L 315 51 L 314 52 L 313 52 L 312 51 L 312 50 L 311 49 L 312 48 "></path>
        <path fill="none" stroke="#00fafa" stroke-width="3" d="M 219 288 L 220 287 L 223 287 L 224 288 L 223 289 L 221 289 L 222 290 L 221 291 L 220 291 L 219 290 "></path>
        <path fill="none" stroke="#00fafa" stroke-width="3" d="M 364 71 L 365 70 L 368 70 L 369 71 L 367 73 L 366 73 L 365 74 L 364 73 "></path>
        <path fill="none" stroke="#00fafa" stroke-width="3" d="M 240 272 L 241 273 L 241 274 L 243 276 L 243 277 L 242 278 L 238 274 "></path>
        <path fill="none" stroke="#00fafa" stroke-width="3" d="M 697 269 L 698 270 L 698 271 L 694 275 L 693 274 L 693 273 "></path>
        <path fill="none" stroke="#00fafa" stroke-width="3" d="M 235 196 L 236 195 L 240 199 L 239 200 L 238 200 L 237 199 L 236 199 L 235 198 "></path>
        <path fill="none" stroke="#00fafa" stroke-width="3" d="M 401 36 L 402 35 L 404 37 L 401 40 L 399 38 L 399 37 L 400 36 L 401 37 "></path>
        <path fill="none" stroke="#00fafa" stroke-width="3" d="M 178 435 L 179 436 L 180 436 L 181 437 L 180 438 L 179 438 L 178 439 L 176 439 L 175 438 "></path>
        <path fill="none" stroke="#00fafa" stroke-width="3" d="M 244 358 L 246 360 L 246 361 L 245 362 L 244 362 L 243 363 L 242 362 L 242 360 "></path>
        <path fill="none" stroke="#00fafa" stroke-width="3" d="M 269 218 L 270 217 L 272 219 L 272 221 L 271 222 L 270 222 L 268 220 L 269 219 "></path>
        <path fill="none" stroke="#00fafa" stroke-width="3" d="M 227 448 L 228 447 L 229 447 L 230 448 L 230 450 L 228 452 L 226 450 L 227 449 "></path>
        <path fill="none" stroke="#00fafa" stroke-width="3" d="M 186 433 L 188 435 L 188 436 L 186 438 L 185 438 L 184 437 L 185 436 L 184 435 "></path>
        <path fill="none" stroke="#00fafa" stroke-width="3" d="M 729 187 L 730 187 L 731 188 L 731 191 L 730 192 L 727 189 "></path>
        <path fill="none" stroke="#00fafa" stroke-width="3" d="M 649 176 L 650 175 L 651 175 L 652 176 L 650 178 L 649 178 L 649 179 L 648 180 L 647 179 L 647 177 L 648 176 "></path>
        <path fill="none" stroke="#00fafa" stroke-width="3" d="M 230 381 L 232 381 L 233 382 L 233 383 L 232 384 L 231 383 L 231 384 L 230 385 L 228 383 "></path>
        <path fill="none" stroke="#00fafa" stroke-width="3" d="M 682 185 L 683 186 L 685 186 L 686 187 L 685 188 L 683 188 L 682 189 L 680 187 "></path>
        <path fill="none" stroke="#00fafa" stroke-width="3" d="M 316 508 L 317 509 L 317 513 L 316 514 L 315 513 L 315 512 L 314 511 L 314 510 "></path>
        <path fill="none" stroke="#00fafa" stroke-width="3" d="M 186 398 L 187 397 L 188 398 L 189 397 L 190 398 L 190 400 L 189 401 L 188 400 L 187 401 L 186 400 "></path>
        <path fill="none" stroke="#00fafa" stroke-width="3" d="M 219 378 L 220 379 L 220 380 L 218 382 L 217 382 L 216 383 L 215 382 L 215 381 L 216 380 L 217 380 "></path>
        <path fill="none" stroke="#00fafa" stroke-width="3" d="M 211 450 L 213 450 L 214 451 L 214 452 L 213 453 L 212 452 L 212 453 L 211 454 L 209 452 "></path>
        <path fill="none" stroke="#00fafa" stroke-width="3" d="M 715 269 L 716 268 L 718 268 L 720 270 L 720 271 L 719 272 L 718 272 L 717 271 L 717 270 L 716 270 "></path>
        <path fill="none" stroke="#00fafa" stroke-width="3" d="M 202 227 L 203 226 L 205 228 L 204 229 L 205 230 L 203 232 L 202 231 "></path>
        <path fill="none" stroke="#00fafa" stroke-width="3" d="M 312 555 L 313 554 L 314 554 L 315 555 L 315 556 L 314 557 L 315 558 L 314 559 L 313 559 L 312 558 "></path>
        <path fill="none" stroke="#00fafa" stroke-width="3" d="M 695 285 L 697 285 L 698 286 L 697 287 L 696 287 L 696 288 L 695 289 L 694 289 L 693 288 L 693 287 "></path>
        <path fill="none" stroke="#00fafa" stroke-width="3" d="M 699 270 L 700 270 L 701 271 L 701 272 L 700 273 L 699 273 L 699 274 L 698 275 L 697 274 L 697 272 "></path>
        <path fill="none" stroke="#00fafa" stroke-width="3" d="M 177 241 L 178 240 L 180 240 L 182 242 L 180 244 L 179 244 L 178 243 L 179 242 L 178 242 "></path>
        <path fill="none" stroke="#00fafa" stroke-width="3" d="M 237 401 L 238 400 L 240 402 L 240 403 L 239 404 L 238 404 L 237 403 L 236 403 L 235 402 L 236 401 "></path>
        <path fill="none" stroke="#00fafa" stroke-width="3" d="M 392 128 L 394 128 L 395 129 L 394 130 L 394 131 L 393 132 L 392 131 L 391 131 L 390 130 "></path>
        <path fill="none" stroke="#00fafa" stroke-width="3" d="M 213 405 L 214 406 L 214 407 L 215 408 L 214 409 L 213 409 L 212 410 L 211 409 L 211 407 "></path>
        <path fill="none" stroke="#00fafa" stroke-width="3" d="M 190 421 L 191 420 L 192 421 L 193 421 L 194 422 L 194 423 L 192 425 L 191 424 L 191 423 L 190 422 "></path>
        <path fill="none" stroke="#00fafa" stroke-width="3" d="M 247 233 L 248 234 L 248 235 L 249 236 L 249 237 L 248 238 L 247 238 L 246 237 L 246 236 L 245 235 "></path>
        <path fill="none" stroke="#00fafa" stroke-width="3" d="M 242 399 L 243 400 L 243 401 L 245 403 L 244 404 L 243 404 L 240 401 "></path>
        <path fill="none" stroke="#00fafa" stroke-width="3" d="M 286 505 L 287 504 L 289 504 L 290 505 L 290 507 L 289 508 L 288 507 L 287 507 L 286 506 "></path>
        <path fill="none" stroke="#00fafa" stroke-width="3" d="M 245 269 L 246 270 L 247 270 L 248 271 L 246 273 L 245 272 L 244 273 L 243 272 L 243 271 "></path>
        <path fill="none" stroke="#00fafa" stroke-width="3" d="M 197 225 L 198 226 L 198 227 L 197 228 L 197 229 L 196 230 L 195 230 L 194 229 L 194 228 "></path>
        <path fill="none" stroke="#00fafa" stroke-width="3" d="M 179 360 L 180 359 L 181 360 L 182 360 L 183 361 L 182 362 L 182 363 L 181 364 L 179 362 "></path>
        <path fill="none" stroke="#00fafa" stroke-width="3" d="M 736 109 L 737 108 L 739 110 L 739 112 L 738 113 L 737 112 L 736 112 L 735 111 L 736 110 "></path>
        <path fill="none" stroke="#00fafa" stroke-width="3" d="M 192 432 L 193 433 L 194 432 L 195 433 L 195 434 L 194 435 L 193 435 L 192 436 L 190 434 "></path>
        <path fill="none" stroke="#00fafa" stroke-width="3" d="M 406 105 L 407 104 L 409 104 L 410 105 L 410 106 L 411 107 L 410 108 L 409 108 "></path>
        <path fill="none" stroke="#00fafa" stroke-width="3" d="M 177 360 L 178 359 L 179 360 L 179 363 L 178 364 L 176 364 L 175 363 L 176 362 L 177 362 "></path>
        <path fill="none" stroke="#00fafa" stroke-width="3" d="M 265 257 L 266 256 L 267 256 L 269 258 L 266 261 L 265 260 L 265 259 L 266 258 "></path>
        <path fill="none" stroke="#00fafa" stroke-width="3" d="M 641 165 L 642 164 L 643 165 L 646 165 L 647 166 L 646 167 L 642 167 L 641 166 "></path>
        <path fill="none" stroke="#00fafa" stroke-width="3" d="M 739 292 L 740 292 L 741 293 L 740 294 L 740 296 L 739 297 L 737 295 L 737 294 "></path>
        <path fill="none" stroke="#00fafa" stroke-width="3" d="M 199 439 L 200 440 L 200 441 L 201 442 L 199 444 L 197 442 L 197 441 "></path>
        <path fill="none" stroke="#00fafa" stroke-width="3" d="M 443 604 L 444 603 L 445 604 L 445 606 L 446 607 L 444 609 L 443 608 "></path>
        <path fill="none" stroke="#00fafa" stroke-width="3" d="M 229 282 L 230 281 L 231 282 L 233 282 L 234 283 L 234 284 L 233 285 L 232 284 L 230 284 L 229 283 "></path>
        <path fill="none" stroke="#00fafa" stroke-width="3" d="M 258 381 L 259 380 L 261 382 L 260 383 L 260 385 L 259 386 L 258 385 "></path>
        <path fill="none" stroke="#00fafa" stroke-width="3" d="M 738 162 L 739 161 L 740 161 L 741 162 L 740 163 L 740 164 L 741 165 L 740 166 L 739 166 L 738 165 "></path>
        <path fill="none" stroke="#00fafa" stroke-width="3" d="M 260 239 L 262 241 L 259 244 L 258 243 L 258 241 "></path>
        <path fill="none" stroke="#00fafa" stroke-width="3" d="M 208 402 L 210 404 L 210 406 L 209 407 L 206 404 "></path>
        <path fill="none" stroke="#00fafa" stroke-width="3" d="M 185 219 L 186 220 L 186 222 L 184 224 L 182 222 "></path>
        <path fill="none" stroke="#00fafa" stroke-width="3" d="M 213 419 L 214 420 L 214 424 L 213 425 L 212 424 L 212 422 L 211 421 "></path>
        <path fill="none" stroke="#00fafa" stroke-width="3" d="M 195 359 L 196 358 L 197 358 L 198 359 L 198 361 L 196 363 L 195 362 L 195 361 L 196 360 "></path>
        <path fill="none" stroke="#00fafa" stroke-width="3" d="M 273 293 L 274 292 L 275 293 L 275 295 L 274 296 L 273 295 L 272 296 L 271 295 L 271 294 L 272 293 "></path>
        <path fill="none" stroke="#00fafa" stroke-width="3" d="M 374 105 L 375 104 L 376 104 L 377 105 L 376 106 L 376 107 L 374 109 L 373 108 L 373 107 L 374 106 "></path>
        <path fill="none" stroke="#00fafa" stroke-width="3" d="M 211 292 L 212 291 L 213 292 L 213 294 L 211 296 L 210 296 L 209 295 L 211 293 "></path>
        <path fill="none" stroke="#00fafa" stroke-width="3" d="M 214 379 L 215 378 L 216 378 L 217 379 L 215 381 L 214 381 L 213 382 L 212 381 L 212 380 L 213 379 "></path>
        <path fill="none" stroke="#00fafa" stroke-width="3" d="M 266 278 L 268 278 L 269 279 L 269 280 L 268 281 L 267 280 L 266 281 L 265 281 L 264 280 "></path>
        <path fill="none" stroke="#00fafa" stroke-width="3" d="M 269 451 L 271 451 L 272 452 L 272 453 L 271 454 L 270 453 L 269 454 L 268 454 L 267 453 "></path>
        <path fill="none" stroke="#00fafa" stroke-width="3" d="M 315 61 L 316 62 L 317 62 L 318 63 L 317 64 L 315 64 L 314 65 L 313 64 L 313 63 "></path>
        <path fill="none" stroke="#00fafa" stroke-width="3" d="M 193 390 L 194 389 L 197 389 L 198 390 L 198 391 L 197 392 L 196 392 L 195 391 L 194 391 "></path>
        <path fill="none" stroke="#00fafa" stroke-width="3" d="M 262 453 L 263 452 L 264 453 L 265 453 L 266 454 L 266 455 L 265 456 L 264 455 L 263 456 L 262 455 "></path>
        <path fill="none" stroke="#00fafa" stroke-width="3" d="M 736 182 L 737 181 L 739 183 L 738 184 L 738 185 L 737 186 L 736 186 L 735 185 L 736 184 "></path>
        <path fill="none" stroke="#00fafa" stroke-width="3" d="M 264 224 L 265 223 L 266 224 L 266 225 L 265 226 L 265 227 L 264 228 L 263 227 L 263 226 L 262 225 L 263 224 "></path>
        <path fill="none" stroke="#00fafa" stroke-width="3" d="M 328 549 L 329 548 L 330 549 L 332 549 L 333 550 L 332 551 L 331 551 L 330 552 L 328 550 "></path>
        <path fill="none" stroke="#00fafa" stroke-width="3" d="M 183 208 L 184 207 L 185 208 L 186 208 L 187 209 L 186 210 L 186 211 L 185 212 L 184 211 L 184 210 L 183 209 "></path>
        <path fill="none" stroke="#00fafa" stroke-width="3" d="M 248 213 L 249 212 L 250 213 L 250 214 L 252 216 L 251 217 L 250 217 L 248 215 "></path>
        <path fill="none" stroke="#00fafa" stroke-width="3" d="M 217 412 L 218 411 L 220 413 L 219 414 L 217 414 L 216 415 L 215 414 L 215 413 L 216 412 "></path>
    </g>
</svg>
