<svg xmlns="http://www.w3.org/2000/svg" xmlns:xlink="http://www.w3.org/1999/xlink" version="1.1" x="0" y="0" width="1056px" height="816px">
    <g id="rootLayer" transform="translate(0.000000, 0.000000)">
        <path fill="none" stroke="#fa00fa" stroke-width="3" d="M 544 448 L 543 449 L 542 449 L 539 452 L 539 453 L 538 454 L 538 457 L 539 458 L 539 459 L 540 460 L 541 460 L 542 461 L 547 461 L 548 460 L 549 460 L 551 458 L 551 457 L 552 456 L 552 453 L 551 452 L 551 451 L 549 449 L 547 449 L 546 448 "></path>
        <path fill="none" stroke="#fa00fa" stroke-width="3" d="M 468 463 L 467 464 L 466 464 L 464 466 L 464 467 L 463 468 L 463 471 L 464 472 L 464 474 L 467 477 L 472 477 L 475 474 L 475 467 L 472 464 L 471 464 L 470 463 "></path>
        <path fill="none" stroke="#fa00fa" stroke-width="3" d="M 600 420 L 597 423 L 597 427 L 598 428 L 598 429 L 599 430 L 600 430 L 601 431 L 606 431 L 607 430 L 609 430 L 611 428 L 611 427 L 612 426 L 612 424 L 611 423 L 611 422 L 610 422 L 609 421 L 608 421 L 607 420 "></path>
        <path fill="none" stroke="#fa00fa" stroke-width="3" d="M 578 484 L 577 485 L 576 485 L 575 486 L 575 487 L 574 488 L 574 492 L 575 493 L 575 494 L 577 496 L 579 496 L 580 497 L 581 497 L 582 496 L 584 496 L 586 494 L 586 493 L 587 492 L 587 489 L 586 488 L 586 487 L 583 484 "></path>
        <path fill="none" stroke="#fa00fa" stroke-width="3" d="M 482 448 L 479 451 L 479 457 L 482 460 L 486 460 L 487 459 L 488 459 L 491 456 L 491 451 L 488 448 "></path>
        <path fill="none" stroke="#fa00fa" stroke-width="3" d="M 575 416 L 574 417 L 573 417 L 572 418 L 571 418 L 570 419 L 570 420 L 569 421 L 569 425 L 570 426 L 571 426 L 572 427 L 573 427 L 574 426 L 579 426 L 580 425 L 581 425 L 583 423 L 583 419 L 582 418 L 582 417 L 581 417 L 580 416 "></path>
        <path fill="none" stroke="#fa00fa" stroke-width="3" d="M 498 493 L 497 494 L 495 494 L 493 496 L 493 497 L 492 498 L 492 499 L 493 500 L 493 501 L 494 502 L 495 502 L 496 503 L 505 503 L 507 501 L 507 498 L 506 497 L 506 496 L 505 495 L 504 495 L 503 494 L 500 494 L 499 493 "></path>
        <path fill="none" stroke="#fa00fa" stroke-width="3" d="M 557 465 L 556 466 L 556 467 L 555 468 L 555 474 L 556 475 L 556 476 L 557 476 L 558 477 L 562 477 L 563 476 L 564 476 L 566 474 L 566 472 L 567 471 L 566 470 L 566 468 L 563 465 "></path>
        <path fill="none" stroke="#fa00fa" stroke-width="3" d="M 568 394 L 567 395 L 567 396 L 566 397 L 566 399 L 567 400 L 567 401 L 569 403 L 570 403 L 571 404 L 575 404 L 576 403 L 577 403 L 580 400 L 580 396 L 579 395 L 578 395 L 577 394 "></path>
        <path fill="none" stroke="#fa00fa" stroke-width="3" d="M 517 284 L 516 285 L 514 285 L 510 289 L 510 290 L 509 291 L 509 293 L 510 294 L 510 295 L 512 297 L 516 297 L 517 296 L 518 296 L 520 294 L 520 293 L 521 292 L 521 287 L 519 285 L 518 285 "></path>
        <path fill="none" stroke="#fa00fa" stroke-width="3" d="M 544 493 L 544 494 L 543 495 L 543 504 L 544 505 L 544 506 L 545 507 L 549 507 L 551 505 L 551 502 L 552 501 L 552 500 L 551 499 L 551 496 L 550 495 L 550 494 L 549 493 "></path>
        <path fill="none" stroke="#fa00fa" stroke-width="3" d="M 542 379 L 540 381 L 540 385 L 543 388 L 550 388 L 552 386 L 552 385 L 553 384 L 553 382 L 552 381 L 552 380 L 551 380 L 550 379 "></path>
        <path fill="none" stroke="#fa00fa" stroke-width="3" d="M 602 345 L 599 348 L 599 353 L 602 356 L 606 356 L 607 355 L 608 355 L 609 354 L 609 353 L 610 352 L 610 349 L 609 348 L 609 347 L 608 346 L 607 346 L 606 345 "></path>
        <path fill="none" stroke="#fa00fa" stroke-width="3" d="M 439 539 L 438 540 L 437 540 L 436 541 L 436 542 L 435 543 L 435 547 L 436 548 L 436 549 L 437 550 L 439 550 L 440 551 L 441 550 L 442 550 L 443 549 L 444 549 L 444 548 L 445 547 L 445 542 L 442 539 "></path>
        <path fill="none" stroke="#fa00fa" stroke-width="3" d="M 510 448 L 508 450 L 508 454 L 510 456 L 511 456 L 512 457 L 517 457 L 518 456 L 519 456 L 520 455 L 520 451 L 518 449 L 517 449 L 516 448 "></path>
        <path fill="none" stroke="#fa00fa" stroke-width="3" d="M 619 405 L 617 407 L 617 408 L 616 409 L 616 413 L 618 415 L 619 415 L 620 416 L 622 416 L 623 415 L 624 415 L 626 413 L 626 407 L 624 405 "></path>
        <path fill="none" stroke="#fa00fa" stroke-width="3" d="M 495 361 L 493 363 L 493 364 L 492 365 L 492 369 L 495 372 L 499 372 L 500 371 L 500 370 L 501 369 L 501 363 L 499 361 "></path>
        <path fill="none" stroke="#fa00fa" stroke-width="3" d="M 634 480 L 633 481 L 632 481 L 632 482 L 631 483 L 631 487 L 633 489 L 634 489 L 635 490 L 638 490 L 639 489 L 640 489 L 641 488 L 641 483 L 638 480 "></path>
        <path fill="none" stroke="#fa00fa" stroke-width="3" d="M 495 465 L 494 466 L 494 467 L 493 468 L 493 471 L 494 472 L 494 474 L 496 476 L 500 476 L 502 474 L 502 469 L 501 468 L 501 467 L 499 465 "></path>
        <path fill="none" stroke="#fa00fa" stroke-width="3" d="M 487 314 L 485 316 L 485 322 L 487 324 L 488 324 L 489 325 L 490 325 L 491 324 L 492 324 L 493 323 L 493 322 L 494 321 L 494 317 L 493 316 L 493 315 L 492 314 "></path>
        <path fill="none" stroke="#fa00fa" stroke-width="3" d="M 486 343 L 484 345 L 484 353 L 486 355 L 488 355 L 492 351 L 492 345 L 490 343 "></path>
        <path fill="none" stroke="#fa00fa" stroke-width="3" d="M 678 436 L 677 437 L 676 437 L 676 438 L 675 439 L 675 443 L 678 446 L 682 446 L 685 443 L 685 440 L 684 439 L 684 438 L 682 436 "></path>
        <path fill="none" stroke="#fa00fa" stroke-width="3" d="M 379 421 L 378 422 L 377 422 L 376 423 L 376 424 L 375 425 L 375 426 L 376 427 L 376 429 L 377 430 L 378 430 L 379 431 L 383 431 L 385 429 L 385 424 L 383 422 L 382 422 L 381 421 "></path>
        <path fill="none" stroke="#fa00fa" stroke-width="3" d="M 527 493 L 526 494 L 524 494 L 523 495 L 523 496 L 522 497 L 522 500 L 523 501 L 523 502 L 525 504 L 529 504 L 531 502 L 531 496 L 529 494 L 528 494 "></path>
        <path fill="none" stroke="#fa00fa" stroke-width="3" d="M 710 379 L 708 381 L 708 382 L 707 383 L 707 385 L 708 386 L 708 387 L 709 388 L 710 388 L 711 389 L 713 389 L 714 388 L 715 388 L 717 386 L 717 382 L 716 381 L 716 380 L 715 380 L 714 379 "></path>
        <path fill="none" stroke="#fa00fa" stroke-width="3" d="M 680 345 L 679 346 L 678 346 L 676 348 L 676 349 L 675 350 L 675 352 L 676 353 L 676 354 L 678 356 L 682 356 L 684 354 L 684 352 L 685 351 L 685 350 L 684 349 L 684 348 L 682 346 L 681 346 "></path>
        <path fill="none" stroke="#fa00fa" stroke-width="3" d="M 364 330 L 363 331 L 362 331 L 361 332 L 361 336 L 365 340 L 370 340 L 371 339 L 371 335 L 370 334 L 370 333 L 369 332 L 368 332 L 367 331 L 366 331 L 365 330 "></path>
        <path fill="none" stroke="#fa00fa" stroke-width="3" d="M 588 507 L 587 508 L 586 508 L 585 509 L 585 514 L 587 516 L 592 516 L 595 513 L 595 510 L 592 507 "></path>
        <path fill="none" stroke="#fa00fa" stroke-width="3" d="M 483 289 L 481 291 L 481 296 L 482 297 L 483 297 L 484 298 L 488 298 L 491 295 L 491 292 L 488 289 "></path>
        <path fill="none" stroke="#fa00fa" stroke-width="3" d="M 457 417 L 456 418 L 455 418 L 453 420 L 453 424 L 456 427 L 460 427 L 463 424 L 463 422 L 462 421 L 462 420 L 460 418 L 459 418 L 458 417 "></path>
        <path fill="none" stroke="#fa00fa" stroke-width="3" d="M 601 393 L 600 394 L 599 394 L 599 395 L 598 396 L 598 398 L 599 399 L 599 400 L 600 401 L 601 401 L 602 402 L 606 402 L 607 401 L 608 401 L 608 400 L 609 399 L 609 397 L 606 394 L 605 394 L 604 393 "></path>
        <path fill="none" stroke="#fa00fa" stroke-width="3" d="M 708 465 L 707 466 L 706 466 L 705 467 L 705 472 L 707 474 L 713 474 L 715 472 L 715 469 L 712 466 L 711 466 L 710 465 "></path>
        <path fill="none" stroke="#fa00fa" stroke-width="3" d="M 516 468 L 514 470 L 514 471 L 513 472 L 513 474 L 514 475 L 514 476 L 515 476 L 516 477 L 519 477 L 520 476 L 521 476 L 522 475 L 522 474 L 523 473 L 523 470 L 521 468 "></path>
        <path fill="none" stroke="#fa00fa" stroke-width="3" d="M 636 374 L 633 377 L 633 381 L 634 382 L 634 383 L 635 384 L 639 384 L 642 381 L 642 378 L 641 377 L 641 376 L 640 375 L 639 375 L 638 374 "></path>
        <path fill="none" stroke="#fa00fa" stroke-width="3" d="M 453 514 L 452 515 L 451 515 L 451 516 L 450 517 L 450 519 L 451 520 L 451 521 L 452 522 L 454 522 L 455 523 L 456 523 L 457 522 L 458 522 L 460 520 L 460 516 L 458 514 "></path>
        <path fill="none" stroke="#fa00fa" stroke-width="3" d="M 467 393 L 466 394 L 464 394 L 463 395 L 463 400 L 465 402 L 466 402 L 467 403 L 469 403 L 470 402 L 471 402 L 472 401 L 472 396 L 470 394 L 468 394 "></path>
        <path fill="none" stroke="#fa00fa" stroke-width="3" d="M 600 373 L 598 375 L 598 376 L 597 377 L 597 379 L 598 380 L 598 381 L 599 382 L 604 382 L 606 380 L 606 379 L 607 378 L 607 377 L 606 376 L 606 375 L 604 373 "></path>
        <path fill="none" stroke="#fa00fa" stroke-width="3" d="M 472 493 L 469 496 L 469 501 L 471 503 L 472 503 L 473 504 L 474 504 L 475 503 L 476 503 L 476 502 L 477 501 L 477 496 L 476 495 L 476 494 L 475 494 L 474 493 "></path>
        <path fill="none" stroke="#fa00fa" stroke-width="3" d="M 438 453 L 436 455 L 436 456 L 435 457 L 436 458 L 436 459 L 438 461 L 440 461 L 441 462 L 442 461 L 443 461 L 444 460 L 445 460 L 445 459 L 446 458 L 446 456 L 445 455 L 445 454 L 444 454 L 443 453 "></path>
        <path fill="none" stroke="#fa00fa" stroke-width="3" d="M 471 373 L 468 376 L 468 378 L 469 379 L 469 380 L 470 381 L 471 381 L 472 382 L 475 382 L 476 381 L 477 381 L 477 380 L 478 379 L 478 377 L 477 376 L 477 375 L 476 374 L 475 374 L 474 373 "></path>
        <path fill="none" stroke="#fa00fa" stroke-width="3" d="M 511 313 L 510 314 L 509 314 L 507 316 L 507 320 L 509 322 L 514 322 L 516 320 L 516 315 L 515 314 L 514 314 L 513 313 "></path>
        <path fill="none" stroke="#fa00fa" stroke-width="3" d="M 457 438 L 456 439 L 455 439 L 454 440 L 454 441 L 453 442 L 453 445 L 456 448 L 458 448 L 459 447 L 460 447 L 461 446 L 461 445 L 462 444 L 462 441 L 461 440 L 461 439 L 460 439 L 459 438 "></path>
        <path fill="none" stroke="#fa00fa" stroke-width="3" d="M 424 300 L 423 301 L 422 301 L 420 303 L 420 307 L 422 309 L 423 309 L 424 310 L 425 310 L 426 309 L 427 309 L 429 307 L 429 303 L 427 301 L 426 301 L 425 300 "></path>
        <path fill="none" stroke="#fa00fa" stroke-width="3" d="M 576 358 L 575 359 L 574 359 L 574 360 L 573 361 L 573 363 L 574 364 L 574 365 L 576 367 L 580 367 L 582 365 L 582 360 L 580 358 "></path>
        <path fill="none" stroke="#fa00fa" stroke-width="3" d="M 635 451 L 634 452 L 634 453 L 633 454 L 633 457 L 634 458 L 634 459 L 635 460 L 636 460 L 637 461 L 638 461 L 639 460 L 640 460 L 641 459 L 641 457 L 642 456 L 642 455 L 641 454 L 641 453 L 639 451 "></path>
        <path fill="none" stroke="#fa00fa" stroke-width="3" d="M 438 394 L 437 395 L 436 395 L 436 397 L 435 398 L 436 399 L 436 400 L 438 402 L 443 402 L 445 400 L 445 399 L 446 398 L 445 397 L 445 395 L 444 395 L 443 394 "></path>
        <path fill="none" stroke="#fa00fa" stroke-width="3" d="M 621 358 L 620 359 L 619 359 L 617 361 L 617 364 L 618 365 L 619 365 L 620 366 L 625 366 L 627 364 L 627 360 L 626 359 L 625 359 L 624 358 "></path>
        <path fill="none" stroke="#fa00fa" stroke-width="3" d="M 651 331 L 649 333 L 649 334 L 648 335 L 648 336 L 649 337 L 649 339 L 650 340 L 652 340 L 653 341 L 654 340 L 655 340 L 657 338 L 657 334 L 656 333 L 656 332 L 655 332 L 654 331 "></path>
        <path fill="none" stroke="#fa00fa" stroke-width="3" d="M 556 289 L 555 290 L 555 291 L 554 292 L 554 294 L 557 297 L 561 297 L 562 296 L 563 296 L 563 295 L 564 294 L 564 291 L 562 289 "></path>
        <path fill="none" stroke="#fa00fa" stroke-width="3" d="M 663 479 L 662 480 L 661 480 L 659 482 L 659 487 L 661 489 L 662 489 L 663 490 L 664 489 L 665 489 L 667 487 L 667 482 L 665 480 L 664 480 "></path>
        <path fill="none" stroke="#fa00fa" stroke-width="3" d="M 411 388 L 410 389 L 409 389 L 409 390 L 408 391 L 408 393 L 409 394 L 409 395 L 410 395 L 411 396 L 415 396 L 416 395 L 417 395 L 417 394 L 418 393 L 418 390 L 416 388 "></path>
        <path fill="none" stroke="#fa00fa" stroke-width="3" d="M 586 270 L 585 271 L 584 271 L 584 272 L 583 273 L 583 277 L 585 279 L 590 279 L 591 278 L 591 276 L 592 275 L 592 274 L 591 273 L 591 272 L 589 270 "></path>
        <path fill="none" stroke="#fa00fa" stroke-width="3" d="M 604 483 L 603 484 L 601 484 L 600 485 L 600 486 L 599 487 L 599 488 L 600 489 L 600 490 L 601 491 L 602 491 L 603 492 L 606 492 L 609 489 L 609 486 L 607 484 L 605 484 "></path>
        <path fill="none" stroke="#fa00fa" stroke-width="3" d="M 616 448 L 613 451 L 613 454 L 616 457 L 618 457 L 619 456 L 620 456 L 622 454 L 622 450 L 620 448 "></path>
        <path fill="none" stroke="#fa00fa" stroke-width="3" d="M 530 313 L 528 315 L 528 319 L 530 321 L 531 321 L 532 322 L 534 322 L 537 319 L 537 316 L 534 313 "></path>
        <path fill="none" stroke="#fa00fa" stroke-width="3" d="M 708 360 L 707 361 L 706 361 L 706 363 L 705 364 L 706 365 L 706 366 L 708 368 L 709 368 L 710 369 L 711 369 L 712 368 L 713 368 L 714 367 L 714 366 L 715 365 L 715 364 L 714 363 L 714 362 L 712 360 "></path>
        <path fill="none" stroke="#fa00fa" stroke-width="3" d="M 425 511 L 424 512 L 424 513 L 423 514 L 423 517 L 424 518 L 424 519 L 425 520 L 429 520 L 431 518 L 431 513 L 429 511 "></path>
        <path fill="none" stroke="#fa00fa" stroke-width="3" d="M 319 391 L 316 394 L 316 396 L 317 397 L 317 398 L 318 399 L 323 399 L 325 397 L 325 396 L 326 395 L 325 394 L 325 392 L 324 392 L 323 391 "></path>
        <path fill="none" stroke="#fa00fa" stroke-width="3" d="M 648 439 L 646 441 L 646 444 L 649 447 L 653 447 L 655 445 L 655 441 L 653 439 "></path>
        <path fill="none" stroke="#fa00fa" stroke-width="3" d="M 557 313 L 556 314 L 554 314 L 554 315 L 553 316 L 553 317 L 552 318 L 553 319 L 553 321 L 554 321 L 555 322 L 559 322 L 561 320 L 561 315 L 560 314 L 559 314 L 558 313 "></path>
        <path fill="none" stroke="#fa00fa" stroke-width="3" d="M 585 467 L 582 470 L 582 472 L 583 473 L 583 474 L 585 476 L 588 476 L 590 474 L 590 473 L 591 472 L 591 470 L 588 467 "></path>
        <path fill="none" stroke="#fa00fa" stroke-width="3" d="M 587 616 L 586 617 L 586 618 L 585 619 L 585 621 L 586 622 L 586 623 L 587 623 L 588 624 L 592 624 L 594 622 L 594 618 L 592 616 "></path>
        <path fill="none" stroke="#fa00fa" stroke-width="3" d="M 579 288 L 578 289 L 577 289 L 577 290 L 576 291 L 576 293 L 577 294 L 577 295 L 578 296 L 583 296 L 585 294 L 585 291 L 584 290 L 584 289 L 583 288 "></path>
        <path fill="none" stroke="#fa00fa" stroke-width="3" d="M 531 388 L 530 389 L 529 389 L 529 390 L 528 391 L 528 394 L 531 397 L 535 397 L 536 396 L 536 394 L 537 393 L 536 392 L 536 390 L 535 389 L 533 389 L 532 388 "></path>
        <path fill="none" stroke="#fa00fa" stroke-width="3" d="M 647 509 L 646 510 L 646 511 L 645 512 L 645 513 L 646 514 L 646 515 L 648 517 L 651 517 L 652 516 L 653 516 L 654 515 L 654 510 L 653 510 L 652 509 "></path>
        <path fill="none" stroke="#fa00fa" stroke-width="3" d="M 391 405 L 389 407 L 389 408 L 388 409 L 388 410 L 389 411 L 389 412 L 391 414 L 394 414 L 396 412 L 396 411 L 397 410 L 397 409 L 396 408 L 396 407 L 394 405 "></path>
        <path fill="none" stroke="#fa00fa" stroke-width="3" d="M 513 646 L 511 648 L 511 652 L 513 654 L 517 654 L 518 653 L 519 653 L 519 652 L 520 651 L 520 650 L 519 649 L 519 647 L 518 647 L 517 646 "></path>
        <path fill="none" stroke="#fa00fa" stroke-width="3" d="M 484 509 L 483 510 L 482 510 L 481 511 L 481 516 L 482 517 L 487 517 L 490 514 L 490 513 L 489 512 L 489 511 L 487 509 "></path>
        <path fill="none" stroke="#fa00fa" stroke-width="3" d="M 649 241 L 648 242 L 647 242 L 647 243 L 646 244 L 646 247 L 647 248 L 647 249 L 648 249 L 649 250 L 652 250 L 654 248 L 654 244 L 653 243 L 653 242 L 652 242 L 651 241 "></path>
        <path fill="none" stroke="#fa00fa" stroke-width="3" d="M 468 226 L 466 228 L 466 232 L 468 234 L 469 234 L 470 235 L 471 234 L 473 234 L 473 233 L 474 232 L 474 228 L 472 226 "></path>
        <path fill="none" stroke="#fa00fa" stroke-width="3" d="M 525 439 L 524 440 L 524 441 L 523 442 L 523 443 L 524 444 L 524 445 L 525 446 L 526 446 L 527 447 L 528 447 L 529 446 L 530 446 L 532 444 L 532 440 L 531 439 "></path>
        <path fill="none" stroke="#fa00fa" stroke-width="3" d="M 436 495 L 435 496 L 435 497 L 434 498 L 434 501 L 436 503 L 437 503 L 438 504 L 439 503 L 440 503 L 442 501 L 442 497 L 440 495 "></path>
        <path fill="none" stroke="#fa00fa" stroke-width="3" d="M 724 495 L 723 496 L 722 496 L 721 497 L 721 502 L 723 504 L 726 504 L 728 502 L 728 501 L 729 500 L 729 499 L 728 498 L 728 497 L 726 495 "></path>
        <path fill="none" stroke="#fa00fa" stroke-width="3" d="M 288 421 L 286 423 L 286 428 L 287 429 L 291 429 L 292 428 L 293 428 L 293 427 L 294 426 L 294 423 L 292 421 "></path>
        <path fill="none" stroke="#fa00fa" stroke-width="3" d="M 571 453 L 569 455 L 569 457 L 570 458 L 570 459 L 571 460 L 572 460 L 573 461 L 575 461 L 576 460 L 577 460 L 578 459 L 578 456 L 576 454 L 575 454 L 574 453 "></path>
        <path fill="none" stroke="#fa00fa" stroke-width="3" d="M 514 509 L 513 510 L 512 510 L 512 511 L 511 512 L 511 514 L 514 517 L 517 517 L 518 516 L 519 516 L 519 515 L 520 514 L 520 512 L 517 509 "></path>
        <path fill="none" stroke="#fa00fa" stroke-width="3" d="M 574 646 L 573 647 L 572 647 L 572 648 L 571 649 L 571 652 L 573 654 L 577 654 L 579 652 L 579 648 L 577 646 "></path>
        <path fill="none" stroke="#fa00fa" stroke-width="3" d="M 410 274 L 409 275 L 408 275 L 407 276 L 407 280 L 408 281 L 409 281 L 410 282 L 413 282 L 415 280 L 415 276 L 414 275 L 413 275 L 412 274 "></path>
        <path fill="none" stroke="#fa00fa" stroke-width="3" d="M 676 374 L 674 376 L 674 380 L 675 381 L 676 381 L 677 382 L 679 382 L 682 379 L 682 376 L 680 374 "></path>
        <path fill="none" stroke="#fa00fa" stroke-width="3" d="M 365 301 L 363 303 L 363 306 L 364 307 L 364 308 L 365 308 L 366 309 L 368 309 L 369 308 L 370 308 L 370 307 L 371 306 L 371 303 L 369 301 "></path>
        <path fill="none" stroke="#fa00fa" stroke-width="3" d="M 618 494 L 616 496 L 616 500 L 618 502 L 621 502 L 622 501 L 623 501 L 623 500 L 624 499 L 624 497 L 623 496 L 623 495 L 622 495 L 621 494 "></path>
        <path fill="none" stroke="#fa00fa" stroke-width="3" d="M 557 573 L 555 575 L 555 576 L 554 577 L 555 578 L 555 579 L 557 581 L 560 581 L 562 579 L 562 578 L 563 577 L 563 576 L 560 573 "></path>
        <path fill="none" stroke="#fa00fa" stroke-width="3" d="M 412 363 L 411 364 L 410 364 L 409 365 L 409 366 L 408 367 L 408 368 L 409 369 L 409 370 L 410 371 L 415 371 L 416 370 L 416 365 L 415 364 L 414 364 L 413 363 "></path>
        <path fill="none" stroke="#fa00fa" stroke-width="3" d="M 633 226 L 630 229 L 630 231 L 633 234 L 636 234 L 638 232 L 638 231 L 639 230 L 638 229 L 638 228 L 637 227 L 636 227 L 635 226 "></path>
        <path fill="none" stroke="#fa00fa" stroke-width="3" d="M 725 421 L 723 423 L 723 426 L 725 428 L 726 428 L 727 429 L 728 428 L 729 428 L 731 426 L 731 423 L 729 421 "></path>
        <path fill="none" stroke="#fa00fa" stroke-width="3" d="M 392 333 L 391 334 L 390 334 L 389 335 L 389 340 L 390 340 L 391 341 L 395 341 L 396 340 L 396 335 L 395 334 L 394 334 L 393 333 "></path>
        <path fill="none" stroke="#fa00fa" stroke-width="3" d="M 768 556 L 766 558 L 766 561 L 768 563 L 772 563 L 774 561 L 774 558 L 772 556 "></path>
        <path fill="none" stroke="#fa00fa" stroke-width="3" d="M 723 301 L 721 303 L 721 304 L 720 305 L 721 306 L 721 307 L 723 309 L 725 309 L 726 308 L 727 308 L 728 307 L 728 303 L 726 301 "></path>
        <path fill="none" stroke="#fa00fa" stroke-width="3" d="M 334 511 L 333 512 L 332 512 L 331 513 L 331 517 L 332 518 L 332 519 L 337 519 L 338 518 L 338 513 L 337 512 L 336 512 L 335 511 "></path>
        <path fill="none" stroke="#fa00fa" stroke-width="3" d="M 319 464 L 318 465 L 317 465 L 317 466 L 316 467 L 316 469 L 318 471 L 319 471 L 320 472 L 321 471 L 323 471 L 323 470 L 324 469 L 324 466 L 322 464 "></path>
        <path fill="none" stroke="#fa00fa" stroke-width="3" d="M 681 478 L 680 479 L 679 479 L 679 484 L 681 486 L 684 486 L 685 485 L 685 484 L 686 483 L 686 481 L 685 480 L 685 479 L 684 478 "></path>
        <path fill="none" stroke="#fa00fa" stroke-width="3" d="M 424 464 L 422 466 L 422 469 L 424 471 L 428 471 L 429 470 L 429 469 L 430 468 L 430 467 L 429 466 L 429 465 L 428 464 "></path>
        <path fill="none" stroke="#fa00fa" stroke-width="3" d="M 426 407 L 424 409 L 424 413 L 425 414 L 426 414 L 427 415 L 428 415 L 429 414 L 430 414 L 430 413 L 431 412 L 431 409 L 429 407 "></path>
        <path fill="none" stroke="#fa00fa" stroke-width="3" d="M 391 313 L 389 315 L 389 319 L 391 321 L 393 321 L 394 320 L 395 320 L 395 319 L 396 318 L 396 315 L 395 314 L 394 314 L 393 313 "></path>
        <path fill="none" stroke="#fa00fa" stroke-width="3" d="M 647 389 L 646 390 L 645 390 L 644 391 L 644 395 L 646 397 L 648 397 L 649 396 L 650 396 L 651 395 L 651 391 L 650 390 L 649 390 L 648 389 "></path>
        <path fill="none" stroke="#fa00fa" stroke-width="3" d="M 390 496 L 389 497 L 389 502 L 390 503 L 394 503 L 396 501 L 396 498 L 394 496 "></path>
        <path fill="none" stroke="#fa00fa" stroke-width="3" d="M 740 511 L 739 512 L 738 512 L 737 513 L 737 517 L 739 519 L 741 519 L 742 518 L 743 518 L 744 517 L 744 514 L 743 513 L 743 512 L 742 512 L 741 511 "></path>
        <path fill="none" stroke="#fa00fa" stroke-width="3" d="M 470 661 L 469 662 L 468 662 L 467 663 L 467 667 L 469 669 L 471 669 L 472 668 L 473 668 L 474 667 L 474 664 L 473 663 L 473 662 L 471 662 "></path>
        <path fill="none" stroke="#fa00fa" stroke-width="3" d="M 591 333 L 588 336 L 588 338 L 590 340 L 594 340 L 595 339 L 595 338 L 596 337 L 596 336 L 595 335 L 595 334 L 594 334 L 593 333 "></path>
        <path fill="none" stroke="#fa00fa" stroke-width="3" d="M 678 571 L 676 573 L 676 576 L 678 578 L 682 578 L 683 577 L 683 573 L 681 571 "></path>
        <path fill="none" stroke="#fa00fa" stroke-width="3" d="M 377 526 L 376 527 L 375 527 L 375 528 L 374 529 L 374 531 L 376 533 L 377 533 L 378 534 L 379 533 L 380 533 L 381 532 L 381 528 L 379 526 "></path>
        <path fill="none" stroke="#fa00fa" stroke-width="3" d="M 532 333 L 530 335 L 530 336 L 529 337 L 529 338 L 531 340 L 535 340 L 536 339 L 536 338 L 537 337 L 537 336 L 534 333 "></path>
        <path fill="none" stroke="#fa00fa" stroke-width="3" d="M 723 526 L 721 528 L 721 531 L 723 533 L 726 533 L 728 531 L 728 528 L 726 526 "></path>
        <path fill="none" stroke="#fa00fa" stroke-width="3" d="M 738 542 L 736 544 L 736 547 L 738 549 L 741 549 L 743 547 L 743 544 L 741 542 "></path>
        <path fill="none" stroke="#fa00fa" stroke-width="3" d="M 679 528 L 678 529 L 677 529 L 676 530 L 676 534 L 677 535 L 681 535 L 683 533 L 683 530 L 682 529 L 681 529 L 680 528 "></path>
        <path fill="none" stroke="#fa00fa" stroke-width="3" d="M 540 541 L 539 542 L 539 543 L 538 544 L 538 545 L 539 546 L 539 547 L 540 548 L 543 548 L 545 546 L 545 542 L 544 541 "></path>
        <path fill="none" stroke="#fa00fa" stroke-width="3" d="M 532 558 L 531 559 L 530 559 L 530 560 L 529 561 L 529 563 L 531 565 L 535 565 L 535 564 L 536 563 L 536 560 L 534 558 "></path>
        <path fill="none" stroke="#fa00fa" stroke-width="3" d="M 498 225 L 496 227 L 496 229 L 497 230 L 497 231 L 498 231 L 499 232 L 500 232 L 501 231 L 502 231 L 503 230 L 503 226 L 502 225 "></path>
        <path fill="none" stroke="#fa00fa" stroke-width="3" d="M 405 434 L 403 436 L 403 438 L 404 439 L 404 440 L 405 440 L 406 441 L 408 441 L 410 439 L 410 436 L 408 434 "></path>
        <path fill="none" stroke="#fa00fa" stroke-width="3" d="M 366 556 L 364 558 L 364 562 L 365 563 L 366 563 L 367 564 L 368 563 L 369 563 L 370 562 L 370 561 L 371 560 L 370 559 L 370 558 L 368 556 "></path>
        <path fill="none" stroke="#fa00fa" stroke-width="3" d="M 437 419 L 435 421 L 435 424 L 437 426 L 439 426 L 440 425 L 441 425 L 441 424 L 442 423 L 442 421 L 440 419 "></path>
        <path fill="none" stroke="#fa00fa" stroke-width="3" d="M 616 256 L 614 258 L 614 261 L 616 263 L 618 263 L 619 262 L 620 262 L 620 261 L 621 260 L 621 259 L 620 258 L 620 257 L 619 256 "></path>
        <path fill="none" stroke="#fa00fa" stroke-width="3" d="M 799 421 L 797 423 L 797 426 L 799 428 L 801 428 L 802 427 L 803 427 L 803 426 L 804 425 L 804 424 L 803 423 L 803 422 L 802 422 L 801 421 "></path>
        <path fill="none" stroke="#fa00fa" stroke-width="3" d="M 273 287 L 272 288 L 272 292 L 273 293 L 274 293 L 275 294 L 276 293 L 277 293 L 278 292 L 278 291 L 279 290 L 278 289 L 278 288 L 277 287 "></path>
        <path fill="none" stroke="#fa00fa" stroke-width="3" d="M 558 92 L 557 93 L 557 97 L 558 98 L 559 98 L 560 99 L 561 98 L 562 98 L 563 97 L 563 96 L 564 95 L 563 94 L 563 93 L 562 92 "></path>
        <path fill="none" stroke="#fa00fa" stroke-width="3" d="M 333 421 L 332 422 L 331 422 L 330 423 L 330 427 L 331 428 L 335 428 L 336 427 L 336 423 L 335 422 L 334 422 "></path>
        <path fill="none" stroke="#fa00fa" stroke-width="3" d="M 696 511 L 694 513 L 694 517 L 695 518 L 698 518 L 700 516 L 700 513 L 699 512 L 698 512 L 697 511 "></path>
        <path fill="none" stroke="#fa00fa" stroke-width="3" d="M 378 484 L 377 485 L 377 489 L 378 490 L 382 490 L 383 489 L 383 485 L 382 484 "></path>
        <path fill="none" stroke="#fa00fa" stroke-width="3" d="M 620 572 L 620 573 L 619 574 L 619 576 L 621 578 L 624 578 L 625 577 L 625 576 L 626 575 L 626 574 L 624 572 "></path>
    </g>
</svg>
