<svg xmlns="http://www.w3.org/2000/svg" xmlns:xlink="http://www.w3.org/1999/xlink" version="1.1" x="0" y="0" width="1056px" height="816px">
    <g id="rootLayer" transform="translate(0.000000, 0.000000)">
        <path fill="none" stroke="#fa00fa" stroke-width="3" d="M 531 400 L 530 401 L 527 401 L 526 402 L 525 402 L 524 403 L 523 403 L 518 408 L 517 408 L 516 409 L 502 409 L 500 407 L 499 407 L 498 406 L 497 406 L 496 405 L 490 405 L 489 406 L 488 406 L 484 410 L 484 411 L 480 415 L 480 417 L 482 417 L 485 414 L 486 414 L 487 413 L 489 413 L 490 412 L 499 412 L 502 415 L 502 417 L 503 418 L 503 419 L 505 421 L 505 425 L 502 428 L 501 428 L 500 429 L 499 429 L 498 430 L 498 431 L 497 432 L 498 433 L 498 434 L 499 434 L 500 435 L 501 435 L 502 436 L 506 436 L 507 437 L 513 437 L 514 438 L 515 438 L 516 439 L 517 439 L 518 440 L 522 440 L 523 441 L 534 441 L 535 440 L 537 440 L 538 439 L 539 439 L 541 441 L 541 442 L 542 443 L 542 447 L 541 448 L 541 450 L 540 451 L 540 457 L 541 458 L 541 461 L 540 462 L 540 463 L 538 465 L 538 466 L 537 467 L 537 471 L 538 472 L 541 472 L 542 471 L 542 470 L 544 468 L 544 466 L 545 465 L 545 464 L 546 463 L 546 462 L 547 461 L 547 456 L 548 455 L 548 452 L 547 451 L 547 445 L 548 444 L 548 438 L 547 437 L 547 427 L 548 426 L 548 424 L 549 423 L 549 412 L 548 411 L 548 410 L 547 409 L 547 408 L 541 402 L 540 402 L 539 401 L 537 401 L 536 400 "></path>
        <path fill="none" stroke="#fa00fa" stroke-width="3" d="M 485 339 L 484 340 L 481 340 L 479 342 L 478 342 L 477 343 L 477 344 L 475 346 L 475 350 L 474 351 L 474 353 L 470 357 L 469 357 L 463 363 L 462 363 L 461 364 L 459 364 L 458 365 L 456 365 L 452 369 L 452 370 L 451 371 L 451 377 L 454 380 L 456 380 L 458 378 L 458 377 L 459 376 L 459 375 L 460 374 L 460 373 L 464 369 L 465 369 L 466 368 L 467 368 L 468 367 L 469 367 L 470 366 L 471 366 L 473 364 L 474 364 L 476 362 L 476 361 L 477 360 L 477 359 L 478 358 L 478 357 L 479 356 L 479 355 L 480 354 L 480 353 L 485 348 L 490 348 L 493 351 L 494 351 L 498 355 L 499 355 L 500 356 L 501 356 L 502 357 L 505 357 L 506 358 L 515 358 L 516 359 L 522 359 L 523 360 L 526 360 L 527 361 L 529 361 L 530 362 L 532 362 L 533 363 L 535 363 L 536 364 L 537 364 L 538 365 L 539 365 L 540 366 L 541 366 L 543 368 L 544 368 L 547 371 L 548 371 L 552 375 L 553 375 L 562 384 L 562 385 L 564 387 L 564 388 L 565 389 L 565 391 L 566 392 L 566 393 L 569 396 L 569 397 L 572 400 L 572 401 L 573 402 L 573 405 L 574 406 L 574 413 L 575 414 L 575 416 L 576 417 L 576 418 L 577 419 L 577 420 L 578 421 L 578 422 L 580 424 L 580 425 L 581 426 L 581 429 L 582 430 L 582 433 L 581 434 L 581 436 L 580 437 L 580 438 L 579 439 L 579 440 L 580 441 L 580 448 L 579 449 L 579 450 L 580 451 L 580 452 L 581 453 L 581 454 L 582 455 L 583 455 L 585 453 L 585 452 L 586 451 L 586 437 L 585 436 L 585 428 L 584 427 L 584 423 L 583 422 L 583 417 L 582 416 L 582 414 L 581 413 L 581 412 L 580 411 L 580 409 L 579 408 L 579 407 L 578 406 L 578 404 L 577 403 L 577 402 L 576 401 L 576 399 L 575 398 L 575 395 L 574 394 L 574 391 L 573 390 L 573 387 L 572 386 L 572 385 L 571 384 L 571 383 L 570 382 L 570 381 L 568 379 L 568 378 L 556 366 L 555 366 L 553 364 L 552 364 L 550 362 L 549 362 L 546 359 L 545 359 L 544 358 L 543 358 L 542 357 L 541 357 L 540 356 L 539 356 L 538 355 L 534 355 L 533 354 L 530 354 L 529 353 L 526 353 L 525 352 L 523 352 L 522 351 L 514 351 L 513 350 L 508 350 L 507 349 L 503 349 L 502 348 L 500 348 L 497 345 L 497 344 L 494 341 L 493 341 L 492 340 L 491 340 L 490 339 "></path>
        <path fill="none" stroke="#fa00fa" stroke-width="3" d="M 540 321 L 539 322 L 536 322 L 535 323 L 527 323 L 526 322 L 524 322 L 523 323 L 520 323 L 519 324 L 518 324 L 515 327 L 515 328 L 513 330 L 513 332 L 512 333 L 512 338 L 513 339 L 513 341 L 516 344 L 517 344 L 518 345 L 522 345 L 523 344 L 523 342 L 522 341 L 522 340 L 521 339 L 521 337 L 520 336 L 520 335 L 521 334 L 521 333 L 523 331 L 524 331 L 525 330 L 529 330 L 530 329 L 542 329 L 543 330 L 544 330 L 546 332 L 546 333 L 547 334 L 547 336 L 546 337 L 546 338 L 544 340 L 542 340 L 541 341 L 539 341 L 538 342 L 537 342 L 536 343 L 536 345 L 539 348 L 547 348 L 548 347 L 549 347 L 553 343 L 553 342 L 554 341 L 554 337 L 555 336 L 555 334 L 554 333 L 554 330 L 553 329 L 553 328 L 552 327 L 552 326 L 549 323 L 548 323 L 547 322 L 545 322 L 544 321 "></path>
        <path fill="none" stroke="#fa00fa" stroke-width="3" d="M 453 467 L 452 468 L 450 468 L 449 469 L 447 469 L 446 470 L 445 470 L 444 471 L 443 471 L 442 472 L 442 473 L 440 475 L 440 484 L 441 485 L 441 486 L 444 489 L 445 489 L 446 490 L 448 490 L 449 491 L 450 491 L 452 493 L 452 495 L 453 496 L 453 497 L 455 499 L 456 499 L 457 500 L 458 500 L 459 501 L 467 501 L 468 500 L 469 500 L 470 499 L 471 499 L 473 497 L 473 496 L 474 495 L 474 490 L 470 490 L 468 492 L 467 492 L 466 493 L 465 493 L 464 494 L 462 494 L 461 493 L 460 493 L 459 492 L 458 492 L 457 491 L 455 491 L 451 487 L 451 486 L 449 484 L 449 483 L 448 482 L 448 481 L 447 480 L 447 478 L 448 477 L 448 475 L 450 473 L 455 473 L 456 474 L 461 474 L 461 473 L 462 472 L 461 471 L 461 470 L 459 468 L 458 468 L 457 467 "></path>
        <path fill="none" stroke="#fa00fa" stroke-width="3" d="M 583 343 L 582 344 L 580 344 L 579 345 L 578 345 L 574 349 L 574 350 L 573 351 L 573 353 L 572 354 L 572 361 L 573 362 L 573 363 L 574 364 L 574 365 L 577 368 L 579 368 L 580 369 L 581 369 L 582 368 L 583 368 L 584 367 L 584 364 L 583 363 L 583 362 L 581 360 L 581 359 L 580 358 L 580 356 L 581 355 L 581 354 L 583 352 L 584 352 L 585 351 L 587 351 L 588 352 L 589 352 L 591 354 L 591 355 L 593 357 L 594 357 L 595 358 L 596 358 L 597 357 L 598 357 L 598 356 L 599 355 L 599 352 L 598 351 L 598 349 L 594 345 L 593 345 L 592 344 L 589 344 L 588 343 "></path>
        <path fill="none" stroke="#fa00fa" stroke-width="3" d="M 601 363 L 599 365 L 599 366 L 600 367 L 600 369 L 602 371 L 602 372 L 603 373 L 603 375 L 602 376 L 602 377 L 600 379 L 599 379 L 598 380 L 596 380 L 595 379 L 594 379 L 592 377 L 592 376 L 588 372 L 586 372 L 584 374 L 584 380 L 585 381 L 585 382 L 589 386 L 590 386 L 591 387 L 594 387 L 595 388 L 599 388 L 600 387 L 603 387 L 604 386 L 605 386 L 609 382 L 609 381 L 610 380 L 610 376 L 611 375 L 611 373 L 610 372 L 610 368 L 609 367 L 609 366 L 606 363 "></path>
        <path fill="none" stroke="#fa00fa" stroke-width="3" d="M 607 406 L 606 407 L 604 407 L 603 408 L 602 408 L 598 412 L 598 413 L 597 414 L 597 416 L 596 417 L 596 422 L 597 423 L 597 425 L 599 427 L 602 427 L 604 425 L 604 419 L 605 418 L 605 417 L 607 415 L 608 415 L 609 414 L 611 414 L 612 415 L 613 415 L 615 417 L 615 420 L 616 421 L 616 425 L 618 427 L 620 427 L 621 426 L 622 426 L 622 425 L 623 424 L 623 422 L 624 421 L 624 418 L 623 417 L 623 415 L 622 414 L 622 413 L 621 412 L 621 411 L 618 408 L 617 408 L 616 407 L 614 407 L 613 406 "></path>
        <path fill="none" stroke="#fa00fa" stroke-width="3" d="M 559 492 L 558 493 L 557 493 L 555 495 L 554 495 L 553 496 L 551 496 L 550 497 L 547 497 L 546 498 L 543 498 L 542 499 L 540 499 L 539 500 L 528 500 L 528 501 L 527 502 L 528 503 L 528 504 L 531 507 L 538 507 L 539 506 L 540 506 L 544 502 L 549 502 L 550 503 L 558 503 L 559 502 L 560 502 L 562 500 L 562 499 L 563 498 L 563 494 L 561 492 "></path>
        <path fill="none" stroke="#fa00fa" stroke-width="3" d="M 504 447 L 503 448 L 502 448 L 501 449 L 501 450 L 500 451 L 500 455 L 501 456 L 501 457 L 502 458 L 502 459 L 501 460 L 497 460 L 496 461 L 495 461 L 493 463 L 493 466 L 495 468 L 500 468 L 501 467 L 502 467 L 502 466 L 503 465 L 503 463 L 502 462 L 502 460 L 503 459 L 509 459 L 510 458 L 513 458 L 515 456 L 515 454 L 516 453 L 516 452 L 515 451 L 515 450 L 512 447 "></path>
        <path fill="none" stroke="#fa00fa" stroke-width="3" d="M 493 368 L 492 369 L 490 369 L 489 370 L 488 370 L 487 371 L 486 371 L 484 373 L 483 373 L 482 374 L 481 374 L 478 377 L 477 377 L 475 379 L 475 380 L 474 381 L 474 385 L 475 386 L 479 386 L 480 385 L 481 385 L 486 380 L 487 380 L 488 379 L 489 379 L 490 378 L 494 378 L 495 377 L 496 377 L 497 376 L 498 376 L 498 375 L 499 374 L 499 372 L 498 371 L 498 370 L 497 369 L 495 369 L 494 368 "></path>
        <path fill="none" stroke="#fa00fa" stroke-width="3" d="M 445 387 L 444 388 L 443 388 L 442 389 L 441 389 L 440 390 L 440 391 L 439 392 L 439 393 L 438 394 L 438 396 L 437 397 L 437 401 L 438 402 L 438 404 L 439 405 L 439 406 L 442 409 L 443 409 L 444 410 L 446 410 L 447 411 L 448 411 L 450 409 L 450 407 L 449 406 L 449 405 L 446 402 L 446 397 L 447 396 L 447 395 L 450 392 L 450 390 L 449 389 L 449 388 L 448 388 L 447 387 "></path>
        <path fill="none" stroke="#fa00fa" stroke-width="3" d="M 433 446 L 432 447 L 431 447 L 431 448 L 430 449 L 430 457 L 431 458 L 431 459 L 435 463 L 436 463 L 437 464 L 443 464 L 444 463 L 447 463 L 448 462 L 450 462 L 452 460 L 452 459 L 453 458 L 453 456 L 452 455 L 449 455 L 448 456 L 447 456 L 445 458 L 442 458 L 441 457 L 440 457 L 438 455 L 438 454 L 437 453 L 437 449 L 436 448 L 436 447 L 435 446 "></path>
        <path fill="none" stroke="#fa00fa" stroke-width="3" d="M 575 490 L 573 492 L 573 495 L 574 496 L 574 497 L 576 499 L 577 499 L 578 500 L 582 500 L 583 501 L 585 501 L 586 500 L 590 500 L 592 498 L 593 498 L 593 497 L 594 496 L 594 495 L 595 494 L 595 492 L 594 491 L 588 491 L 587 492 L 582 492 L 581 491 L 580 491 L 579 490 "></path>
        <path fill="none" stroke="#fa00fa" stroke-width="3" d="M 524 372 L 522 374 L 522 377 L 523 378 L 523 379 L 525 381 L 526 381 L 527 382 L 528 382 L 530 384 L 531 384 L 532 385 L 533 385 L 534 386 L 535 386 L 536 387 L 538 387 L 539 388 L 541 388 L 542 387 L 542 385 L 541 384 L 541 383 L 540 382 L 540 381 L 536 377 L 535 377 L 531 373 L 530 373 L 529 372 "></path>
        <path fill="none" stroke="#fa00fa" stroke-width="3" d="M 438 421 L 437 422 L 436 422 L 435 423 L 434 423 L 433 424 L 433 425 L 431 427 L 431 428 L 430 429 L 430 432 L 429 433 L 429 434 L 430 435 L 430 437 L 431 438 L 431 439 L 432 440 L 433 440 L 434 441 L 435 440 L 436 440 L 436 439 L 437 438 L 437 433 L 438 432 L 438 431 L 440 429 L 441 429 L 442 428 L 443 428 L 444 427 L 444 426 L 445 425 L 445 424 L 442 421 "></path>
        <path fill="none" stroke="#fa00fa" stroke-width="3" d="M 509 375 L 508 376 L 506 376 L 505 377 L 505 378 L 504 379 L 504 386 L 505 387 L 505 391 L 506 392 L 506 394 L 507 395 L 510 395 L 510 394 L 512 392 L 512 390 L 513 389 L 513 378 L 511 376 L 510 376 "></path>
        <path fill="none" stroke="#fa00fa" stroke-width="3" d="M 611 458 L 611 459 L 610 460 L 610 469 L 609 470 L 609 476 L 610 477 L 611 477 L 612 476 L 614 476 L 617 473 L 617 472 L 618 471 L 618 469 L 619 468 L 619 465 L 618 464 L 618 462 L 617 461 L 617 460 L 615 458 "></path>
        <path fill="none" stroke="#fa00fa" stroke-width="3" d="M 617 433 L 617 434 L 616 435 L 616 437 L 615 438 L 615 443 L 614 444 L 614 445 L 613 446 L 613 449 L 614 450 L 619 450 L 620 449 L 621 449 L 621 448 L 623 446 L 623 443 L 624 442 L 624 439 L 623 438 L 623 436 L 622 435 L 622 434 L 621 434 L 620 433 "></path>
        <path fill="none" stroke="#fa00fa" stroke-width="3" d="M 486 494 L 485 495 L 485 502 L 486 503 L 486 504 L 490 508 L 493 508 L 494 509 L 495 509 L 496 508 L 498 508 L 499 507 L 500 507 L 501 506 L 501 504 L 500 504 L 499 503 L 498 503 L 497 502 L 495 502 L 490 497 L 490 496 L 488 494 "></path>
        <path fill="none" stroke="#fa00fa" stroke-width="3" d="M 605 479 L 604 480 L 603 480 L 598 485 L 598 486 L 597 487 L 597 490 L 598 491 L 605 491 L 609 487 L 609 484 L 610 483 L 609 482 L 609 480 L 608 479 "></path>
        <path fill="none" stroke="#fa00fa" stroke-width="3" d="M 599 433 L 598 434 L 598 435 L 597 436 L 597 437 L 596 438 L 596 442 L 597 443 L 597 445 L 599 447 L 600 447 L 601 448 L 603 448 L 605 446 L 605 439 L 604 438 L 604 435 L 603 434 L 603 433 "></path>
        <path fill="none" stroke="#fa00fa" stroke-width="3" d="M 470 392 L 468 394 L 468 395 L 467 396 L 467 404 L 469 406 L 472 406 L 475 403 L 475 401 L 476 400 L 476 395 L 475 394 L 475 393 L 474 392 "></path>
        <path fill="none" stroke="#fa00fa" stroke-width="3" d="M 459 446 L 458 447 L 458 450 L 459 451 L 459 452 L 460 452 L 462 454 L 462 455 L 464 457 L 464 458 L 465 459 L 465 460 L 467 462 L 467 463 L 468 463 L 469 464 L 470 464 L 471 463 L 471 458 L 469 456 L 469 455 L 466 452 L 466 451 L 464 449 L 464 448 L 462 446 "></path>
        <path fill="none" stroke="#fa00fa" stroke-width="3" d="M 490 435 L 488 437 L 488 438 L 487 439 L 487 441 L 486 442 L 486 444 L 485 445 L 485 447 L 484 448 L 484 452 L 485 453 L 486 453 L 489 450 L 489 449 L 490 448 L 490 445 L 491 444 L 491 440 L 492 439 L 492 436 L 491 435 "></path>
        <path fill="none" stroke="#fa00fa" stroke-width="3" d="M 598 455 L 597 456 L 596 456 L 594 458 L 594 459 L 593 460 L 593 463 L 595 465 L 598 465 L 599 464 L 600 464 L 601 463 L 601 462 L 602 461 L 602 460 L 603 459 L 603 457 L 601 455 "></path>
        <path fill="none" stroke="#fa00fa" stroke-width="3" d="M 515 467 L 514 468 L 513 468 L 511 470 L 511 473 L 512 474 L 512 475 L 513 475 L 514 476 L 519 476 L 520 475 L 520 470 L 518 468 L 517 468 L 516 467 "></path>
        <path fill="none" stroke="#fa00fa" stroke-width="3" d="M 516 501 L 515 502 L 512 502 L 511 503 L 510 503 L 508 505 L 510 507 L 511 507 L 512 508 L 515 508 L 516 507 L 517 507 L 518 506 L 518 505 L 519 504 L 519 502 L 518 502 L 517 501 "></path>
        <path fill="none" stroke="#fa00fa" stroke-width="3" d="M 551 389 L 550 390 L 549 390 L 549 392 L 550 392 L 551 393 L 552 393 L 553 394 L 558 394 L 559 393 L 559 392 L 557 390 L 555 390 L 554 389 "></path>
        <path fill="none" stroke="#fa00fa" stroke-width="3" d="M 528 401 L 527 402 L 526 402 L 525 403 L 524 403 L 522 405 L 521 405 L 516 410 L 505 410 L 504 409 L 502 409 L 501 408 L 500 408 L 498 406 L 497 406 L 496 405 L 490 405 L 489 406 L 488 406 L 484 410 L 484 411 L 480 415 L 480 417 L 482 417 L 485 414 L 486 414 L 487 413 L 489 413 L 490 412 L 499 412 L 503 416 L 503 417 L 505 419 L 505 420 L 506 421 L 506 425 L 503 428 L 501 428 L 499 430 L 498 430 L 498 433 L 500 435 L 501 435 L 502 436 L 509 436 L 510 437 L 513 437 L 514 438 L 515 438 L 516 439 L 517 439 L 518 440 L 522 440 L 523 441 L 534 441 L 535 440 L 537 440 L 538 439 L 539 439 L 541 441 L 541 442 L 542 443 L 542 447 L 541 448 L 541 450 L 540 451 L 540 457 L 541 458 L 541 461 L 540 462 L 540 463 L 538 465 L 538 466 L 537 467 L 537 471 L 538 472 L 541 472 L 542 471 L 542 470 L 544 468 L 544 466 L 545 465 L 545 464 L 546 463 L 546 462 L 547 461 L 547 456 L 548 455 L 548 452 L 547 451 L 547 445 L 548 444 L 548 438 L 547 437 L 547 433 L 546 432 L 546 430 L 547 429 L 547 427 L 548 426 L 548 424 L 549 423 L 549 413 L 548 412 L 548 410 L 546 408 L 546 407 L 541 402 L 540 402 L 539 401 "></path>
        <path fill="none" stroke="#fa00fa" stroke-width="3" d="M 484 339 L 483 340 L 481 340 L 479 342 L 478 342 L 476 344 L 476 345 L 475 346 L 475 349 L 474 350 L 474 352 L 473 353 L 473 354 L 471 356 L 470 356 L 463 363 L 462 363 L 461 364 L 458 364 L 457 365 L 456 365 L 452 369 L 452 370 L 451 371 L 451 377 L 454 380 L 456 380 L 458 378 L 458 377 L 459 376 L 459 375 L 460 374 L 460 373 L 463 370 L 464 370 L 466 368 L 467 368 L 468 367 L 469 367 L 470 366 L 471 366 L 473 364 L 474 364 L 476 362 L 476 361 L 478 359 L 478 357 L 479 356 L 479 355 L 480 354 L 480 353 L 485 348 L 490 348 L 493 351 L 494 351 L 499 356 L 501 356 L 502 357 L 505 357 L 506 358 L 515 358 L 516 359 L 522 359 L 523 360 L 525 360 L 526 361 L 529 361 L 530 362 L 532 362 L 533 363 L 535 363 L 536 364 L 537 364 L 538 365 L 539 365 L 540 366 L 541 366 L 543 368 L 544 368 L 547 371 L 548 371 L 552 375 L 553 375 L 562 384 L 562 385 L 564 387 L 564 388 L 565 389 L 565 390 L 566 391 L 566 392 L 567 393 L 567 394 L 570 397 L 570 398 L 572 400 L 572 401 L 573 402 L 573 404 L 574 405 L 574 413 L 575 414 L 575 416 L 576 417 L 576 418 L 577 419 L 577 420 L 579 422 L 579 423 L 580 424 L 580 425 L 581 426 L 581 428 L 582 429 L 582 433 L 581 434 L 581 436 L 580 437 L 580 452 L 581 453 L 581 454 L 584 454 L 585 453 L 585 452 L 586 451 L 586 438 L 585 437 L 585 429 L 584 428 L 584 423 L 583 422 L 583 417 L 582 416 L 582 414 L 581 413 L 581 412 L 580 411 L 580 409 L 579 408 L 579 407 L 578 406 L 578 404 L 577 403 L 577 402 L 576 401 L 576 399 L 575 398 L 575 395 L 574 394 L 574 391 L 573 390 L 573 387 L 572 386 L 572 385 L 571 384 L 571 383 L 570 382 L 570 381 L 568 379 L 568 378 L 556 366 L 555 366 L 553 364 L 552 364 L 550 362 L 549 362 L 546 359 L 545 359 L 544 358 L 543 358 L 542 357 L 541 357 L 540 356 L 539 356 L 538 355 L 534 355 L 533 354 L 530 354 L 529 353 L 526 353 L 525 352 L 522 352 L 521 351 L 514 351 L 513 350 L 508 350 L 507 349 L 503 349 L 502 348 L 501 348 L 500 347 L 499 347 L 497 345 L 497 344 L 494 341 L 493 341 L 492 340 L 491 340 L 490 339 "></path>
        <path fill="none" stroke="#fa00fa" stroke-width="3" d="M 539 321 L 538 322 L 536 322 L 535 323 L 527 323 L 526 322 L 523 322 L 522 323 L 520 323 L 519 324 L 518 324 L 515 327 L 515 328 L 513 330 L 513 332 L 512 333 L 512 338 L 513 339 L 513 341 L 516 344 L 517 344 L 518 345 L 522 345 L 523 344 L 523 342 L 522 341 L 522 340 L 521 339 L 521 337 L 520 336 L 520 335 L 521 334 L 521 333 L 523 331 L 524 331 L 525 330 L 529 330 L 530 329 L 542 329 L 543 330 L 544 330 L 546 332 L 546 333 L 547 334 L 547 336 L 546 337 L 546 338 L 544 340 L 542 340 L 541 341 L 539 341 L 538 342 L 537 342 L 536 343 L 536 345 L 539 348 L 547 348 L 548 347 L 549 347 L 553 343 L 553 342 L 554 341 L 554 338 L 555 337 L 555 334 L 554 333 L 554 329 L 552 327 L 552 326 L 549 323 L 548 323 L 547 322 L 545 322 L 544 321 "></path>
        <path fill="none" stroke="#fa00fa" stroke-width="3" d="M 453 467 L 452 468 L 450 468 L 449 469 L 447 469 L 446 470 L 445 470 L 444 471 L 443 471 L 442 472 L 442 473 L 440 475 L 440 484 L 441 485 L 441 486 L 444 489 L 445 489 L 446 490 L 447 490 L 448 491 L 450 491 L 452 493 L 452 495 L 453 496 L 453 497 L 455 499 L 456 499 L 457 500 L 458 500 L 459 501 L 467 501 L 468 500 L 470 500 L 473 497 L 473 496 L 474 495 L 474 490 L 470 490 L 468 492 L 467 492 L 466 493 L 465 493 L 464 494 L 462 494 L 461 493 L 460 493 L 459 492 L 458 492 L 457 491 L 456 491 L 455 490 L 454 490 L 451 487 L 451 486 L 449 484 L 449 483 L 448 482 L 448 481 L 447 480 L 447 478 L 448 477 L 448 475 L 450 473 L 455 473 L 456 474 L 461 474 L 461 473 L 462 472 L 461 471 L 461 470 L 459 468 L 458 468 L 457 467 "></path>
        <path fill="none" stroke="#fa00fa" stroke-width="3" d="M 583 343 L 582 344 L 580 344 L 579 345 L 578 345 L 574 349 L 574 350 L 573 351 L 573 353 L 572 354 L 572 361 L 573 362 L 573 363 L 574 364 L 574 365 L 577 368 L 579 368 L 580 369 L 581 369 L 582 368 L 583 368 L 584 367 L 584 364 L 583 363 L 583 362 L 581 360 L 581 359 L 580 358 L 580 356 L 581 355 L 581 354 L 583 352 L 584 352 L 585 351 L 587 351 L 588 352 L 589 352 L 591 354 L 591 355 L 593 357 L 594 357 L 595 358 L 596 358 L 597 357 L 598 357 L 598 356 L 599 355 L 599 351 L 598 350 L 598 349 L 594 345 L 593 345 L 592 344 L 589 344 L 588 343 "></path>
        <path fill="none" stroke="#fa00fa" stroke-width="3" d="M 601 363 L 599 365 L 599 366 L 600 367 L 600 369 L 602 371 L 602 372 L 603 373 L 603 375 L 602 376 L 602 377 L 600 379 L 599 379 L 598 380 L 596 380 L 595 379 L 594 379 L 592 377 L 592 376 L 588 372 L 586 372 L 584 374 L 584 380 L 585 381 L 585 382 L 589 386 L 590 386 L 591 387 L 594 387 L 595 388 L 599 388 L 600 387 L 603 387 L 604 386 L 605 386 L 609 382 L 609 381 L 610 380 L 610 376 L 611 375 L 611 373 L 610 372 L 610 368 L 609 367 L 609 366 L 606 363 "></path>
        <path fill="none" stroke="#fa00fa" stroke-width="3" d="M 607 406 L 606 407 L 604 407 L 603 408 L 602 408 L 598 412 L 598 413 L 597 414 L 597 416 L 596 417 L 596 423 L 597 424 L 597 425 L 599 427 L 602 427 L 604 425 L 604 419 L 605 418 L 605 417 L 608 414 L 611 414 L 612 415 L 613 415 L 615 417 L 615 420 L 616 421 L 616 425 L 618 427 L 620 427 L 621 426 L 622 426 L 622 425 L 623 424 L 623 422 L 624 421 L 624 418 L 623 417 L 623 414 L 621 412 L 621 411 L 618 408 L 617 408 L 616 407 L 614 407 L 613 406 "></path>
        <path fill="none" stroke="#fa00fa" stroke-width="3" d="M 559 492 L 558 493 L 557 493 L 555 495 L 554 495 L 553 496 L 551 496 L 550 497 L 547 497 L 546 498 L 543 498 L 542 499 L 540 499 L 539 500 L 528 500 L 528 504 L 531 507 L 538 507 L 539 506 L 540 506 L 544 502 L 549 502 L 550 503 L 558 503 L 559 502 L 560 502 L 562 500 L 562 499 L 563 498 L 563 494 L 561 492 "></path>
        <path fill="none" stroke="#fa00fa" stroke-width="3" d="M 508 446 L 507 447 L 504 447 L 503 448 L 502 448 L 501 449 L 501 450 L 500 451 L 500 455 L 501 456 L 501 457 L 502 458 L 502 459 L 501 460 L 497 460 L 496 461 L 495 461 L 493 463 L 493 466 L 495 468 L 501 468 L 502 467 L 502 466 L 503 465 L 503 463 L 502 462 L 502 460 L 503 459 L 509 459 L 510 458 L 513 458 L 515 456 L 515 455 L 516 454 L 516 452 L 515 451 L 515 450 L 512 447 L 509 447 "></path>
        <path fill="none" stroke="#fa00fa" stroke-width="3" d="M 493 368 L 492 369 L 490 369 L 489 370 L 488 370 L 487 371 L 486 371 L 484 373 L 483 373 L 482 374 L 481 374 L 478 377 L 477 377 L 475 379 L 475 380 L 474 381 L 474 385 L 475 386 L 479 386 L 480 385 L 481 385 L 486 380 L 487 380 L 488 379 L 490 379 L 491 378 L 494 378 L 495 377 L 497 377 L 498 376 L 498 375 L 499 374 L 499 372 L 498 371 L 498 370 L 497 369 L 496 369 L 495 368 "></path>
        <path fill="none" stroke="#fa00fa" stroke-width="3" d="M 445 387 L 444 388 L 443 388 L 442 389 L 441 389 L 440 390 L 440 391 L 439 392 L 439 393 L 438 394 L 438 396 L 437 397 L 437 401 L 438 402 L 438 404 L 439 405 L 439 406 L 442 409 L 443 409 L 444 410 L 446 410 L 447 411 L 448 411 L 450 409 L 450 407 L 449 406 L 449 405 L 446 402 L 446 397 L 447 396 L 447 395 L 450 392 L 450 390 L 449 389 L 449 388 L 448 388 L 447 387 "></path>
        <path fill="none" stroke="#fa00fa" stroke-width="3" d="M 433 446 L 432 447 L 431 447 L 431 448 L 430 449 L 430 457 L 431 458 L 431 459 L 435 463 L 436 463 L 437 464 L 443 464 L 444 463 L 447 463 L 448 462 L 450 462 L 452 460 L 452 459 L 453 458 L 453 456 L 452 455 L 449 455 L 448 456 L 447 456 L 445 458 L 442 458 L 441 457 L 440 457 L 438 455 L 438 454 L 437 453 L 437 449 L 436 448 L 436 447 L 435 446 "></path>
        <path fill="none" stroke="#fa00fa" stroke-width="3" d="M 575 490 L 573 492 L 573 495 L 574 496 L 574 497 L 576 499 L 577 499 L 578 500 L 582 500 L 583 501 L 585 501 L 586 500 L 590 500 L 592 498 L 593 498 L 593 497 L 594 496 L 594 495 L 595 494 L 595 492 L 594 491 L 588 491 L 587 492 L 582 492 L 581 491 L 580 491 L 579 490 "></path>
        <path fill="none" stroke="#fa00fa" stroke-width="3" d="M 524 372 L 522 374 L 522 377 L 523 378 L 523 379 L 525 381 L 526 381 L 527 382 L 528 382 L 530 384 L 531 384 L 532 385 L 534 385 L 535 386 L 536 386 L 537 387 L 539 387 L 540 388 L 541 388 L 542 387 L 542 385 L 541 384 L 541 383 L 540 382 L 540 381 L 536 377 L 535 377 L 531 373 L 530 373 L 529 372 "></path>
        <path fill="none" stroke="#fa00fa" stroke-width="3" d="M 438 421 L 437 422 L 436 422 L 435 423 L 434 423 L 432 425 L 432 426 L 431 427 L 431 428 L 430 429 L 430 432 L 429 433 L 429 434 L 430 435 L 430 437 L 431 438 L 431 439 L 432 440 L 433 440 L 434 441 L 435 440 L 436 440 L 436 439 L 437 438 L 437 433 L 438 432 L 438 431 L 440 429 L 441 429 L 442 428 L 443 428 L 444 427 L 444 426 L 445 425 L 445 424 L 444 423 L 444 422 L 443 422 L 442 421 "></path>
        <path fill="none" stroke="#fa00fa" stroke-width="3" d="M 508 375 L 507 376 L 506 376 L 505 377 L 505 378 L 504 379 L 504 387 L 505 388 L 505 391 L 506 392 L 506 393 L 507 394 L 507 395 L 509 395 L 512 392 L 512 389 L 513 388 L 513 378 L 511 376 L 510 376 L 509 375 "></path>
        <path fill="none" stroke="#fa00fa" stroke-width="3" d="M 612 458 L 610 460 L 610 469 L 609 470 L 609 476 L 610 477 L 612 477 L 613 476 L 614 476 L 618 472 L 618 469 L 619 468 L 619 465 L 618 464 L 618 462 L 617 461 L 617 460 L 615 458 "></path>
        <path fill="none" stroke="#fa00fa" stroke-width="3" d="M 617 433 L 616 434 L 616 437 L 615 438 L 615 443 L 614 444 L 614 445 L 613 446 L 613 449 L 614 450 L 619 450 L 620 449 L 621 449 L 621 448 L 623 446 L 623 443 L 624 442 L 624 439 L 623 438 L 623 436 L 622 435 L 622 434 L 621 433 "></path>
        <path fill="none" stroke="#fa00fa" stroke-width="3" d="M 486 494 L 485 495 L 485 503 L 490 508 L 492 508 L 493 509 L 495 509 L 496 508 L 498 508 L 501 505 L 499 503 L 498 503 L 497 502 L 495 502 L 490 497 L 490 496 L 488 494 "></path>
        <path fill="none" stroke="#fa00fa" stroke-width="3" d="M 605 479 L 604 480 L 603 480 L 598 485 L 598 486 L 597 487 L 597 490 L 598 491 L 600 491 L 601 492 L 602 491 L 605 491 L 609 487 L 609 485 L 610 484 L 610 483 L 609 482 L 609 480 L 608 479 "></path>
        <path fill="none" stroke="#fa00fa" stroke-width="3" d="M 599 433 L 597 435 L 597 437 L 596 438 L 596 442 L 597 443 L 597 445 L 599 447 L 600 447 L 601 448 L 603 448 L 605 446 L 605 438 L 604 437 L 604 435 L 603 434 L 603 433 "></path>
        <path fill="none" stroke="#fa00fa" stroke-width="3" d="M 470 392 L 467 395 L 467 399 L 466 400 L 466 401 L 467 402 L 467 404 L 469 406 L 472 406 L 475 403 L 475 401 L 476 400 L 476 395 L 475 394 L 475 393 L 474 392 "></path>
        <path fill="none" stroke="#fa00fa" stroke-width="3" d="M 459 446 L 458 447 L 458 450 L 459 451 L 459 452 L 460 452 L 462 454 L 462 455 L 464 457 L 464 458 L 465 459 L 465 460 L 469 464 L 470 464 L 471 463 L 471 458 L 469 456 L 469 455 L 466 452 L 466 451 L 464 449 L 464 448 L 462 446 "></path>
        <path fill="none" stroke="#fa00fa" stroke-width="3" d="M 598 455 L 597 456 L 596 456 L 593 459 L 593 463 L 595 465 L 599 465 L 601 463 L 601 462 L 602 461 L 602 460 L 603 459 L 603 457 L 601 455 "></path>
        <path fill="none" stroke="#fa00fa" stroke-width="3" d="M 489 436 L 488 437 L 488 438 L 487 439 L 487 441 L 486 442 L 486 444 L 485 445 L 485 447 L 484 448 L 484 452 L 485 453 L 486 453 L 489 450 L 489 449 L 490 448 L 490 445 L 491 444 L 491 440 L 492 439 L 492 437 L 491 436 "></path>
        <path fill="none" stroke="#fa00fa" stroke-width="3" d="M 515 467 L 514 468 L 513 468 L 511 470 L 511 473 L 512 474 L 512 475 L 513 475 L 514 476 L 519 476 L 520 475 L 520 470 L 518 468 L 517 468 L 516 467 "></path>
        <path fill="none" stroke="#fa00fa" stroke-width="3" d="M 516 501 L 515 502 L 512 502 L 511 503 L 510 503 L 509 504 L 509 506 L 510 507 L 511 507 L 512 508 L 515 508 L 516 507 L 517 507 L 518 506 L 518 505 L 519 504 L 519 503 L 517 501 "></path>
        <path fill="none" stroke="#fa00fa" stroke-width="3" d="M 552 389 L 551 390 L 550 390 L 549 391 L 551 393 L 552 393 L 553 394 L 558 394 L 558 391 L 557 391 L 556 390 L 554 390 L 553 389 "></path>
        <path fill="none" stroke="#fa00fa" stroke-width="3" d="M 581 341 L 580 342 L 577 342 L 576 343 L 575 343 L 574 344 L 573 344 L 570 347 L 570 348 L 569 349 L 569 350 L 568 351 L 568 360 L 569 361 L 569 362 L 570 363 L 570 364 L 573 367 L 574 367 L 581 374 L 581 375 L 582 376 L 582 379 L 583 380 L 583 382 L 584 383 L 584 384 L 585 385 L 585 386 L 590 391 L 591 391 L 592 392 L 602 392 L 603 391 L 604 391 L 605 390 L 606 390 L 607 389 L 608 389 L 612 385 L 612 384 L 613 383 L 613 382 L 614 381 L 614 372 L 613 371 L 613 369 L 612 368 L 612 367 L 604 359 L 604 358 L 603 357 L 603 356 L 602 355 L 602 354 L 601 353 L 601 350 L 600 349 L 600 348 L 599 347 L 599 346 L 596 343 L 595 343 L 594 342 L 592 342 L 591 341 "></path>
        <path fill="none" stroke="#fa00fa" stroke-width="3" d="M 495 343 L 494 344 L 493 344 L 490 347 L 490 352 L 493 355 L 498 355 L 499 356 L 501 356 L 502 357 L 503 357 L 504 358 L 505 358 L 506 359 L 507 359 L 508 360 L 511 360 L 512 361 L 527 361 L 528 362 L 531 362 L 532 363 L 534 363 L 535 364 L 537 364 L 538 365 L 540 365 L 541 366 L 543 366 L 544 367 L 545 367 L 546 368 L 547 368 L 549 370 L 550 370 L 564 384 L 564 385 L 566 387 L 566 388 L 567 389 L 567 390 L 568 391 L 568 392 L 569 393 L 569 394 L 570 395 L 570 396 L 571 397 L 571 398 L 572 399 L 572 400 L 575 403 L 575 404 L 577 406 L 577 408 L 578 409 L 578 424 L 579 425 L 579 426 L 580 426 L 581 427 L 585 427 L 587 425 L 587 419 L 586 418 L 586 405 L 585 404 L 585 403 L 584 402 L 584 401 L 581 398 L 581 397 L 579 395 L 579 394 L 577 392 L 577 391 L 576 390 L 576 388 L 575 387 L 575 386 L 574 385 L 574 384 L 572 382 L 572 381 L 570 379 L 570 378 L 558 366 L 557 366 L 553 362 L 552 362 L 551 361 L 550 361 L 549 360 L 548 360 L 547 359 L 545 359 L 544 358 L 541 358 L 540 357 L 538 357 L 537 356 L 534 356 L 533 355 L 531 355 L 530 354 L 519 354 L 518 353 L 512 353 L 511 352 L 508 352 L 507 351 L 506 351 L 504 349 L 503 349 L 502 348 L 502 347 L 499 344 L 498 344 L 497 343 "></path>
        <path fill="none" stroke="#fa00fa" stroke-width="3" d="M 605 402 L 604 403 L 602 403 L 601 404 L 600 404 L 596 408 L 596 410 L 595 411 L 595 423 L 596 424 L 596 429 L 597 430 L 597 441 L 596 442 L 596 447 L 597 448 L 597 449 L 598 449 L 599 450 L 603 450 L 604 449 L 605 449 L 605 448 L 606 447 L 606 442 L 605 441 L 605 437 L 604 436 L 604 425 L 603 424 L 603 420 L 602 419 L 602 415 L 603 414 L 603 413 L 606 410 L 611 410 L 612 411 L 613 411 L 616 414 L 616 415 L 617 416 L 617 422 L 616 423 L 616 427 L 615 428 L 615 435 L 616 436 L 616 440 L 615 441 L 615 443 L 614 444 L 614 446 L 613 447 L 613 449 L 614 450 L 614 451 L 616 453 L 620 453 L 621 452 L 622 452 L 622 451 L 623 450 L 623 441 L 622 440 L 622 439 L 623 438 L 623 425 L 624 424 L 624 421 L 625 420 L 625 416 L 624 415 L 624 413 L 623 412 L 623 411 L 621 409 L 621 408 L 618 405 L 617 405 L 615 403 L 614 403 L 613 402 "></path>
        <path fill="none" stroke="#fa00fa" stroke-width="3" d="M 542 318 L 541 319 L 538 319 L 537 320 L 524 320 L 523 319 L 522 319 L 521 320 L 519 320 L 518 321 L 517 321 L 515 323 L 515 324 L 514 325 L 514 326 L 513 327 L 513 330 L 512 331 L 512 339 L 513 340 L 513 341 L 514 342 L 514 343 L 517 346 L 518 346 L 519 347 L 522 347 L 523 346 L 524 346 L 524 345 L 525 344 L 525 341 L 519 335 L 519 332 L 520 331 L 520 330 L 522 328 L 524 328 L 525 327 L 526 327 L 527 328 L 537 328 L 538 327 L 540 327 L 541 326 L 545 326 L 546 327 L 547 327 L 550 330 L 550 331 L 551 332 L 551 339 L 549 341 L 548 341 L 547 342 L 544 342 L 543 341 L 542 341 L 541 340 L 540 340 L 538 338 L 536 338 L 535 337 L 534 337 L 533 338 L 532 338 L 530 340 L 530 341 L 529 342 L 530 343 L 530 344 L 532 346 L 533 346 L 534 347 L 537 347 L 538 348 L 542 348 L 543 349 L 546 349 L 547 350 L 551 350 L 552 349 L 554 349 L 557 346 L 557 345 L 558 344 L 558 342 L 559 341 L 559 332 L 558 331 L 558 329 L 557 328 L 557 327 L 556 326 L 556 325 L 554 323 L 554 322 L 553 321 L 552 321 L 551 320 L 550 320 L 549 319 L 548 319 L 547 318 "></path>
        <path fill="none" stroke="#fa00fa" stroke-width="3" d="M 467 356 L 466 357 L 465 357 L 463 359 L 462 359 L 461 360 L 460 360 L 459 361 L 458 361 L 457 362 L 456 362 L 454 364 L 453 364 L 450 367 L 450 368 L 449 369 L 449 375 L 450 376 L 450 381 L 449 382 L 449 383 L 446 386 L 444 386 L 443 387 L 441 387 L 440 388 L 439 388 L 438 389 L 437 389 L 437 390 L 435 392 L 435 394 L 434 395 L 434 400 L 435 401 L 435 403 L 437 405 L 437 406 L 439 408 L 440 408 L 442 410 L 443 410 L 445 412 L 446 412 L 448 414 L 449 414 L 450 415 L 455 415 L 458 412 L 458 408 L 457 407 L 457 406 L 456 406 L 455 405 L 454 405 L 453 404 L 446 404 L 442 400 L 442 397 L 445 394 L 446 394 L 447 393 L 450 393 L 451 392 L 452 392 L 455 389 L 455 388 L 456 387 L 456 386 L 457 385 L 457 383 L 458 382 L 458 378 L 457 377 L 457 373 L 458 372 L 458 371 L 461 368 L 462 368 L 463 367 L 464 367 L 465 366 L 468 366 L 469 367 L 473 367 L 476 364 L 476 360 L 475 359 L 475 358 L 474 357 L 473 357 L 472 356 "></path>
        <path fill="none" stroke="#fa00fa" stroke-width="3" d="M 577 305 L 576 306 L 575 306 L 574 307 L 573 307 L 568 312 L 568 313 L 567 314 L 567 318 L 566 319 L 566 320 L 567 321 L 567 325 L 568 326 L 568 327 L 569 328 L 569 329 L 572 332 L 573 332 L 574 333 L 577 333 L 578 334 L 581 334 L 582 333 L 588 333 L 589 332 L 591 332 L 592 331 L 593 331 L 595 329 L 595 328 L 596 327 L 596 326 L 597 325 L 597 316 L 596 315 L 596 313 L 595 312 L 595 311 L 591 307 L 590 307 L 589 306 L 587 306 L 586 305 "></path>
        <path fill="none" stroke="#fa00fa" stroke-width="3" d="M 627 336 L 626 337 L 624 337 L 622 339 L 621 339 L 618 342 L 618 343 L 617 344 L 617 345 L 616 346 L 616 354 L 617 355 L 617 357 L 618 358 L 618 359 L 623 364 L 624 364 L 625 365 L 626 365 L 627 366 L 635 366 L 636 365 L 638 365 L 640 363 L 641 363 L 643 361 L 643 360 L 644 359 L 644 358 L 645 357 L 645 354 L 646 353 L 646 349 L 645 348 L 645 345 L 644 344 L 644 343 L 639 338 L 638 338 L 637 337 L 635 337 L 634 336 "></path>
        <path fill="none" stroke="#fa00fa" stroke-width="3" d="M 633 381 L 632 382 L 631 382 L 630 383 L 629 383 L 625 387 L 625 388 L 624 389 L 624 390 L 623 391 L 623 397 L 624 398 L 624 399 L 625 400 L 625 401 L 626 402 L 626 403 L 632 409 L 633 409 L 634 410 L 637 410 L 638 411 L 640 411 L 641 410 L 644 410 L 645 409 L 646 409 L 647 408 L 648 408 L 650 406 L 650 405 L 651 404 L 651 403 L 652 402 L 652 400 L 653 399 L 653 393 L 652 392 L 652 390 L 651 389 L 651 388 L 650 387 L 650 386 L 648 384 L 647 384 L 645 382 L 643 382 L 642 381 "></path>
        <path fill="none" stroke="#fa00fa" stroke-width="3" d="M 485 308 L 484 309 L 482 309 L 481 310 L 480 310 L 479 311 L 478 311 L 474 315 L 474 316 L 473 317 L 473 319 L 472 320 L 472 336 L 471 337 L 471 338 L 470 339 L 470 341 L 469 342 L 469 345 L 470 346 L 470 347 L 471 348 L 472 348 L 473 349 L 479 349 L 482 346 L 482 341 L 481 340 L 481 339 L 480 338 L 480 336 L 479 335 L 479 325 L 480 324 L 480 321 L 485 316 L 495 316 L 499 320 L 499 323 L 498 324 L 498 325 L 494 329 L 494 330 L 493 331 L 493 334 L 494 335 L 494 336 L 495 337 L 496 337 L 497 338 L 500 338 L 501 337 L 502 337 L 503 336 L 503 335 L 504 334 L 504 327 L 505 326 L 505 324 L 506 323 L 506 320 L 507 319 L 507 317 L 506 316 L 506 314 L 503 311 L 502 311 L 501 310 L 500 310 L 499 309 L 495 309 L 494 308 "></path>
        <path fill="none" stroke="#fa00fa" stroke-width="3" d="M 575 523 L 574 524 L 572 524 L 571 525 L 570 525 L 565 530 L 565 531 L 564 532 L 564 533 L 563 534 L 563 535 L 562 536 L 562 539 L 561 540 L 561 541 L 562 542 L 562 545 L 563 546 L 563 547 L 566 550 L 567 550 L 568 551 L 570 551 L 571 552 L 579 552 L 580 551 L 582 551 L 584 549 L 585 549 L 587 547 L 587 546 L 588 545 L 588 544 L 589 543 L 589 533 L 588 532 L 588 531 L 587 530 L 587 529 L 583 525 L 582 525 L 581 524 L 579 524 L 578 523 "></path>
        <path fill="none" stroke="#fa00fa" stroke-width="3" d="M 430 521 L 429 522 L 427 522 L 422 527 L 422 528 L 421 529 L 421 530 L 420 531 L 420 538 L 421 539 L 421 541 L 422 542 L 422 543 L 426 547 L 427 547 L 428 548 L 431 548 L 432 549 L 436 549 L 437 548 L 440 548 L 441 547 L 442 547 L 446 543 L 446 542 L 447 541 L 447 534 L 446 533 L 446 531 L 445 530 L 445 529 L 442 526 L 442 525 L 441 524 L 440 524 L 438 522 L 437 522 L 436 521 "></path>
        <path fill="none" stroke="#fa00fa" stroke-width="3" d="M 395 495 L 394 496 L 392 496 L 390 498 L 389 498 L 383 504 L 383 505 L 382 506 L 382 509 L 381 510 L 382 511 L 382 514 L 383 515 L 383 516 L 384 517 L 384 518 L 386 520 L 387 520 L 388 521 L 389 521 L 390 522 L 393 522 L 394 523 L 397 523 L 398 522 L 401 522 L 402 521 L 403 521 L 407 517 L 407 516 L 408 515 L 408 513 L 409 512 L 409 505 L 408 504 L 408 502 L 406 500 L 406 499 L 405 498 L 404 498 L 402 496 L 400 496 L 399 495 "></path>
        <path fill="none" stroke="#00fafa" stroke-width="3" d="M 582 349 L 583 348 L 587 348 L 588 349 L 590 349 L 593 352 L 593 353 L 594 354 L 594 356 L 595 357 L 595 359 L 596 360 L 596 361 L 597 362 L 597 363 L 605 371 L 605 372 L 606 373 L 606 379 L 601 384 L 595 384 L 594 383 L 593 383 L 592 382 L 592 381 L 590 379 L 590 376 L 589 375 L 589 372 L 588 371 L 588 370 L 587 369 L 587 368 L 583 364 L 582 364 L 576 358 L 576 353 L 580 349 "></path>
        <path fill="none" stroke="#fa00fa" stroke-width="3" d="M 558 489 L 556 491 L 556 492 L 554 494 L 553 494 L 552 495 L 546 495 L 545 494 L 536 494 L 535 495 L 533 495 L 532 496 L 530 496 L 526 500 L 526 503 L 527 504 L 527 505 L 530 508 L 530 516 L 531 517 L 531 518 L 532 518 L 534 520 L 537 520 L 538 521 L 542 521 L 543 520 L 545 520 L 546 519 L 546 518 L 547 517 L 547 515 L 546 514 L 546 513 L 545 513 L 544 512 L 539 512 L 538 511 L 537 511 L 536 510 L 535 510 L 533 508 L 533 506 L 534 505 L 534 504 L 536 502 L 538 502 L 539 501 L 542 501 L 543 502 L 548 502 L 549 503 L 550 502 L 555 502 L 556 501 L 558 501 L 559 500 L 561 500 L 565 496 L 565 491 L 563 489 "></path>
        <path fill="none" stroke="#fa00fa" stroke-width="3" d="M 607 474 L 605 476 L 605 477 L 604 478 L 604 479 L 603 480 L 603 481 L 598 486 L 597 486 L 594 489 L 593 489 L 588 494 L 583 494 L 580 491 L 580 488 L 579 487 L 579 485 L 578 484 L 578 483 L 577 483 L 576 482 L 573 482 L 570 485 L 570 490 L 572 492 L 572 493 L 574 495 L 574 496 L 576 498 L 576 499 L 578 501 L 579 501 L 580 502 L 582 502 L 583 503 L 585 503 L 586 502 L 589 502 L 590 501 L 591 501 L 594 498 L 595 498 L 599 494 L 600 494 L 609 485 L 610 485 L 611 484 L 612 484 L 614 482 L 614 481 L 615 480 L 615 477 L 614 476 L 614 475 L 613 475 L 612 474 "></path>
        <path fill="none" stroke="#fa00fa" stroke-width="3" d="M 487 400 L 484 403 L 484 408 L 485 409 L 485 410 L 486 410 L 487 411 L 493 411 L 496 414 L 496 419 L 497 420 L 497 421 L 498 422 L 498 423 L 499 423 L 501 425 L 501 426 L 496 431 L 496 434 L 497 435 L 497 436 L 499 438 L 508 438 L 509 437 L 510 437 L 512 435 L 512 430 L 510 428 L 509 428 L 508 427 L 506 427 L 504 425 L 504 424 L 505 423 L 505 422 L 506 421 L 506 420 L 507 419 L 507 416 L 506 415 L 506 414 L 505 413 L 505 412 L 503 410 L 503 409 L 502 408 L 502 407 L 501 406 L 501 405 L 497 401 L 496 401 L 495 400 "></path>
        <path fill="none" stroke="#fa00fa" stroke-width="3" d="M 366 408 L 365 409 L 362 409 L 361 410 L 360 410 L 359 411 L 358 411 L 357 412 L 356 412 L 352 416 L 352 417 L 350 419 L 350 420 L 347 423 L 347 424 L 345 426 L 345 430 L 346 431 L 346 432 L 347 433 L 352 433 L 353 432 L 354 432 L 354 431 L 355 430 L 355 424 L 356 423 L 356 422 L 359 419 L 360 419 L 362 417 L 363 417 L 364 416 L 370 416 L 372 418 L 372 419 L 373 420 L 373 423 L 372 424 L 372 426 L 371 427 L 371 432 L 373 434 L 378 434 L 380 432 L 380 431 L 381 430 L 381 429 L 380 428 L 380 425 L 379 424 L 379 419 L 378 418 L 378 414 L 377 413 L 377 412 L 374 409 L 372 409 L 371 408 "></path>
        <path fill="none" stroke="#fa00fa" stroke-width="3" d="M 562 446 L 560 448 L 560 449 L 559 450 L 559 451 L 560 452 L 560 453 L 561 454 L 561 455 L 562 455 L 563 456 L 564 456 L 568 460 L 568 466 L 564 470 L 563 470 L 562 471 L 560 471 L 559 472 L 558 472 L 557 471 L 551 471 L 548 474 L 548 477 L 549 478 L 549 479 L 550 480 L 551 480 L 552 481 L 556 481 L 557 480 L 560 480 L 561 479 L 562 479 L 563 478 L 565 478 L 566 477 L 567 477 L 568 476 L 569 476 L 571 474 L 572 474 L 575 471 L 575 469 L 576 468 L 576 463 L 575 462 L 575 458 L 574 457 L 574 455 L 573 454 L 573 452 L 572 451 L 572 450 L 568 446 "></path>
        <path fill="none" stroke="#fa00fa" stroke-width="3" d="M 634 422 L 633 423 L 632 423 L 631 424 L 631 425 L 630 426 L 630 429 L 632 431 L 633 431 L 634 432 L 635 432 L 636 431 L 637 431 L 638 430 L 639 430 L 640 429 L 642 429 L 643 430 L 644 430 L 647 433 L 647 437 L 646 438 L 646 439 L 645 440 L 644 440 L 643 441 L 640 441 L 639 440 L 637 440 L 636 439 L 633 439 L 632 440 L 631 440 L 631 441 L 630 442 L 630 445 L 631 446 L 631 447 L 632 447 L 633 448 L 637 448 L 638 447 L 648 447 L 649 446 L 650 446 L 651 445 L 652 445 L 653 444 L 653 443 L 654 442 L 654 439 L 655 438 L 655 434 L 654 433 L 654 430 L 653 429 L 653 428 L 652 427 L 652 426 L 651 425 L 650 425 L 648 423 L 646 423 L 645 422 "></path>
        <path fill="none" stroke="#fa00fa" stroke-width="3" d="M 473 537 L 469 541 L 469 543 L 468 544 L 468 546 L 467 547 L 467 553 L 468 554 L 468 556 L 469 557 L 469 558 L 473 562 L 474 562 L 475 563 L 477 563 L 478 564 L 484 564 L 485 563 L 487 563 L 488 562 L 489 562 L 492 559 L 492 558 L 494 556 L 494 555 L 495 554 L 495 552 L 496 551 L 496 547 L 495 546 L 495 545 L 494 544 L 489 544 L 487 546 L 487 553 L 484 556 L 483 556 L 482 557 L 480 557 L 479 556 L 478 556 L 474 552 L 474 549 L 475 548 L 475 547 L 479 543 L 479 539 L 477 537 "></path>
        <path fill="none" stroke="#fa00fa" stroke-width="3" d="M 472 372 L 470 374 L 470 375 L 469 376 L 469 382 L 470 383 L 470 385 L 469 386 L 469 388 L 468 389 L 468 390 L 467 391 L 467 392 L 466 393 L 466 394 L 465 395 L 465 396 L 464 397 L 464 406 L 465 407 L 465 410 L 466 411 L 466 413 L 467 414 L 467 415 L 469 417 L 474 417 L 475 416 L 476 416 L 476 415 L 477 414 L 477 409 L 472 404 L 472 399 L 473 398 L 473 397 L 474 396 L 474 395 L 475 394 L 475 393 L 476 392 L 476 388 L 477 387 L 477 382 L 478 381 L 478 380 L 479 379 L 479 375 L 478 374 L 478 373 L 477 373 L 476 372 "></path>
        <path fill="none" stroke="#fa00fa" stroke-width="3" d="M 491 363 L 488 366 L 488 371 L 491 374 L 497 374 L 498 375 L 501 375 L 506 380 L 507 380 L 508 381 L 512 381 L 517 376 L 518 376 L 519 377 L 520 377 L 522 379 L 528 379 L 530 377 L 530 376 L 531 375 L 531 372 L 530 371 L 530 370 L 528 368 L 526 368 L 525 367 L 524 367 L 523 368 L 521 368 L 516 373 L 515 372 L 514 372 L 513 371 L 512 371 L 511 370 L 506 370 L 505 369 L 503 369 L 501 367 L 500 367 L 496 363 "></path>
        <path fill="none" stroke="#fa00fa" stroke-width="3" d="M 397 403 L 396 404 L 395 404 L 394 405 L 393 405 L 391 407 L 390 407 L 389 408 L 389 409 L 388 410 L 388 411 L 387 412 L 387 421 L 388 422 L 388 424 L 389 425 L 389 426 L 390 427 L 390 428 L 392 430 L 393 430 L 394 431 L 395 431 L 396 432 L 398 432 L 399 433 L 403 433 L 404 432 L 405 432 L 407 430 L 407 429 L 408 428 L 408 427 L 405 424 L 397 424 L 395 422 L 395 421 L 394 420 L 394 415 L 397 412 L 403 412 L 404 411 L 405 411 L 407 409 L 407 406 L 404 403 "></path>
        <path fill="none" stroke="#fa00fa" stroke-width="3" d="M 427 469 L 425 471 L 425 472 L 424 473 L 424 475 L 423 476 L 423 480 L 424 481 L 424 488 L 425 489 L 425 494 L 426 495 L 426 497 L 427 498 L 427 499 L 429 501 L 430 501 L 432 503 L 434 503 L 435 504 L 437 504 L 438 505 L 442 505 L 443 504 L 444 504 L 445 503 L 445 502 L 446 501 L 446 499 L 443 496 L 436 496 L 433 493 L 433 492 L 432 491 L 432 487 L 431 486 L 431 480 L 433 478 L 433 477 L 434 476 L 434 471 L 432 469 "></path>
        <path fill="none" stroke="#fa00fa" stroke-width="3" d="M 602 503 L 599 506 L 599 507 L 598 508 L 598 509 L 597 510 L 597 512 L 596 513 L 596 521 L 597 522 L 597 523 L 598 524 L 598 525 L 601 528 L 602 528 L 603 529 L 605 529 L 606 530 L 610 530 L 611 529 L 617 529 L 618 528 L 620 528 L 621 527 L 622 527 L 622 526 L 623 525 L 623 520 L 622 519 L 621 519 L 620 518 L 619 518 L 618 519 L 616 519 L 613 522 L 611 522 L 610 523 L 609 523 L 608 522 L 606 522 L 604 520 L 604 519 L 603 518 L 603 516 L 604 515 L 604 514 L 607 511 L 607 510 L 608 509 L 608 505 L 606 503 "></path>
        <path fill="none" stroke="#fa00fa" stroke-width="3" d="M 560 508 L 559 509 L 557 509 L 556 510 L 556 511 L 555 512 L 555 518 L 554 519 L 554 520 L 553 521 L 553 522 L 551 524 L 551 525 L 544 532 L 543 532 L 542 533 L 540 533 L 539 534 L 538 534 L 536 536 L 536 541 L 538 543 L 542 543 L 543 542 L 544 542 L 551 535 L 552 535 L 553 534 L 553 533 L 557 529 L 557 528 L 558 527 L 558 526 L 560 524 L 560 523 L 561 522 L 561 521 L 564 518 L 564 517 L 565 516 L 565 511 L 563 509 L 562 509 L 561 508 "></path>
        <path fill="none" stroke="#fa00fa" stroke-width="3" d="M 660 470 L 659 471 L 658 471 L 658 472 L 657 473 L 657 477 L 663 483 L 663 485 L 664 486 L 664 487 L 663 488 L 663 490 L 660 493 L 659 493 L 658 494 L 651 494 L 650 495 L 650 496 L 649 497 L 649 499 L 650 500 L 650 501 L 652 503 L 658 503 L 659 502 L 660 502 L 662 500 L 663 500 L 665 498 L 666 498 L 667 497 L 667 496 L 669 494 L 669 493 L 670 492 L 670 489 L 671 488 L 671 486 L 670 485 L 670 481 L 669 480 L 669 478 L 668 477 L 668 475 L 667 474 L 667 473 L 665 471 L 664 471 L 663 470 "></path>
        <path fill="none" stroke="#fa00fa" stroke-width="3" d="M 510 518 L 509 519 L 508 519 L 508 520 L 507 521 L 507 523 L 508 524 L 508 525 L 510 527 L 511 527 L 514 530 L 514 533 L 511 536 L 504 536 L 503 537 L 502 537 L 501 538 L 501 544 L 502 545 L 503 545 L 504 546 L 508 546 L 509 545 L 510 545 L 510 544 L 515 539 L 518 539 L 519 538 L 520 538 L 522 536 L 522 534 L 523 533 L 522 532 L 522 529 L 521 528 L 521 526 L 520 525 L 520 524 L 519 523 L 519 522 L 515 518 "></path>
        <path fill="none" stroke="#fa00fa" stroke-width="3" d="M 517 546 L 515 548 L 515 549 L 514 550 L 514 552 L 515 553 L 515 555 L 523 563 L 525 563 L 526 564 L 531 564 L 532 563 L 534 563 L 535 562 L 536 562 L 538 560 L 539 560 L 541 558 L 542 558 L 543 557 L 543 556 L 544 555 L 544 551 L 543 550 L 543 549 L 542 548 L 538 548 L 536 550 L 536 551 L 535 552 L 535 553 L 532 556 L 526 556 L 524 554 L 524 553 L 523 552 L 523 549 L 520 546 "></path>
        <path fill="none" stroke="#fa00fa" stroke-width="3" d="M 575 269 L 574 270 L 573 270 L 573 271 L 572 272 L 572 278 L 573 279 L 573 282 L 574 283 L 574 285 L 575 286 L 575 287 L 578 290 L 579 290 L 580 291 L 583 291 L 584 292 L 594 292 L 595 291 L 596 291 L 597 290 L 597 289 L 598 288 L 598 285 L 595 282 L 593 282 L 592 283 L 590 283 L 589 284 L 588 284 L 587 285 L 586 285 L 585 284 L 583 284 L 581 282 L 581 281 L 580 280 L 580 277 L 581 276 L 581 271 L 579 269 "></path>
        <path fill="none" stroke="#fa00fa" stroke-width="3" d="M 381 475 L 380 476 L 380 478 L 379 479 L 379 481 L 380 482 L 380 485 L 379 486 L 379 487 L 377 489 L 376 489 L 375 490 L 371 490 L 370 489 L 369 489 L 367 487 L 366 487 L 365 486 L 363 486 L 362 487 L 361 487 L 361 488 L 360 489 L 360 492 L 361 493 L 361 494 L 362 495 L 363 495 L 364 496 L 367 496 L 368 497 L 377 497 L 378 496 L 379 496 L 380 495 L 381 495 L 383 493 L 383 492 L 385 490 L 385 489 L 386 488 L 386 487 L 387 486 L 387 485 L 388 484 L 388 477 L 386 475 "></path>
        <path fill="none" stroke="#fa00fa" stroke-width="3" d="M 497 444 L 494 447 L 494 451 L 497 454 L 510 454 L 511 455 L 512 455 L 514 457 L 515 457 L 517 459 L 522 459 L 523 458 L 524 458 L 524 457 L 525 456 L 525 451 L 524 450 L 524 449 L 523 449 L 522 448 L 520 448 L 519 447 L 517 447 L 516 448 L 513 448 L 512 447 L 508 447 L 507 446 L 506 446 L 505 445 L 504 445 L 503 444 "></path>
        <path fill="none" stroke="#fa00fa" stroke-width="3" d="M 616 264 L 613 267 L 613 270 L 614 271 L 614 272 L 615 273 L 615 277 L 614 278 L 614 279 L 613 280 L 612 280 L 611 281 L 606 281 L 605 282 L 604 282 L 602 284 L 602 287 L 605 290 L 610 290 L 611 289 L 612 289 L 613 288 L 614 288 L 615 287 L 616 287 L 620 283 L 620 282 L 621 281 L 621 279 L 622 278 L 622 276 L 623 275 L 623 267 L 620 264 "></path>
        <path fill="none" stroke="#fa00fa" stroke-width="3" d="M 590 238 L 589 239 L 587 239 L 585 241 L 585 243 L 584 244 L 585 245 L 585 246 L 587 248 L 590 248 L 591 247 L 592 247 L 593 246 L 594 246 L 595 245 L 596 245 L 597 244 L 600 244 L 601 245 L 602 245 L 608 251 L 612 251 L 613 250 L 614 250 L 614 249 L 615 248 L 615 245 L 614 244 L 614 243 L 612 241 L 610 241 L 609 240 L 607 240 L 606 239 L 604 239 L 603 238 "></path>
        <path fill="none" stroke="#fa00fa" stroke-width="3" d="M 457 440 L 455 442 L 455 443 L 454 444 L 454 445 L 455 446 L 455 448 L 458 451 L 459 451 L 462 454 L 462 455 L 464 457 L 464 458 L 465 459 L 465 460 L 466 461 L 466 462 L 468 464 L 469 464 L 470 465 L 473 465 L 474 464 L 475 464 L 475 463 L 476 462 L 476 458 L 475 457 L 475 456 L 474 456 L 473 455 L 472 455 L 471 454 L 470 454 L 466 450 L 466 449 L 465 448 L 465 445 L 464 444 L 464 443 L 463 442 L 463 441 L 462 441 L 461 440 "></path>
        <path fill="none" stroke="#fa00fa" stroke-width="3" d="M 471 488 L 465 494 L 461 494 L 459 492 L 458 492 L 456 490 L 453 490 L 452 491 L 451 491 L 450 492 L 450 497 L 452 499 L 453 499 L 454 500 L 457 500 L 458 501 L 467 501 L 468 500 L 470 500 L 471 499 L 472 499 L 477 494 L 477 490 L 475 488 "></path>
        <path fill="none" stroke="#fa00fa" stroke-width="3" d="M 543 441 L 542 442 L 541 442 L 539 444 L 539 445 L 538 446 L 538 451 L 537 452 L 537 461 L 538 462 L 538 463 L 539 464 L 543 464 L 546 461 L 546 457 L 547 456 L 547 453 L 549 451 L 549 450 L 550 449 L 550 444 L 547 441 "></path>
        <path fill="none" stroke="#fa00fa" stroke-width="3" d="M 463 509 L 462 510 L 462 511 L 461 512 L 461 514 L 462 515 L 462 517 L 463 518 L 463 521 L 460 524 L 458 524 L 457 525 L 456 525 L 455 526 L 454 526 L 454 527 L 453 528 L 453 530 L 454 531 L 454 532 L 455 533 L 456 533 L 457 534 L 459 534 L 460 533 L 461 533 L 462 532 L 463 532 L 466 529 L 466 528 L 468 526 L 468 524 L 469 523 L 469 521 L 470 520 L 470 512 L 469 511 L 469 510 L 468 510 L 467 509 "></path>
        <path fill="none" stroke="#fa00fa" stroke-width="3" d="M 584 455 L 581 458 L 581 462 L 585 466 L 586 466 L 587 467 L 588 467 L 592 471 L 593 471 L 594 472 L 599 472 L 600 471 L 601 471 L 601 470 L 603 468 L 603 465 L 602 464 L 602 463 L 601 462 L 600 462 L 599 461 L 593 461 L 587 455 "></path>
        <path fill="none" stroke="#fa00fa" stroke-width="3" d="M 413 402 L 410 405 L 410 408 L 413 411 L 421 411 L 424 414 L 424 415 L 425 416 L 425 417 L 426 418 L 427 418 L 428 419 L 430 419 L 431 418 L 432 418 L 433 417 L 433 415 L 434 414 L 433 413 L 433 411 L 431 409 L 430 409 L 428 407 L 427 407 L 425 405 L 424 405 L 422 403 L 421 403 L 420 402 "></path>
        <path fill="none" stroke="#fa00fa" stroke-width="3" d="M 632 454 L 630 456 L 630 460 L 631 461 L 631 462 L 632 462 L 633 463 L 638 463 L 639 462 L 640 462 L 641 463 L 642 463 L 645 466 L 646 466 L 647 467 L 648 467 L 649 468 L 650 468 L 651 467 L 652 467 L 654 465 L 654 460 L 653 459 L 653 458 L 652 458 L 651 457 L 644 457 L 643 456 L 641 456 L 640 455 L 639 455 L 638 454 "></path>
        <path fill="none" stroke="#fa00fa" stroke-width="3" d="M 518 465 L 516 467 L 515 467 L 513 469 L 513 470 L 512 471 L 512 472 L 511 473 L 511 477 L 512 478 L 512 479 L 513 480 L 513 481 L 514 482 L 515 482 L 516 483 L 520 483 L 521 482 L 522 482 L 523 481 L 523 479 L 524 478 L 524 467 L 523 466 L 522 466 L 521 465 "></path>
        <path fill="none" stroke="#fa00fa" stroke-width="3" d="M 426 445 L 422 449 L 422 453 L 423 454 L 423 456 L 424 457 L 424 459 L 425 460 L 425 461 L 428 464 L 432 464 L 435 461 L 435 457 L 434 456 L 434 455 L 433 454 L 433 449 L 432 448 L 432 447 L 431 446 L 430 446 L 429 445 "></path>
        <path fill="none" stroke="#00fafa" stroke-width="3" d="M 580 313 L 581 312 L 583 312 L 584 313 L 586 313 L 589 316 L 589 318 L 590 319 L 590 321 L 589 322 L 589 323 L 586 326 L 583 326 L 582 327 L 581 327 L 580 326 L 578 326 L 574 322 L 574 318 L 575 317 L 575 316 L 578 313 "></path>
        <path fill="none" stroke="#fa00fa" stroke-width="3" d="M 449 468 L 448 469 L 447 469 L 446 470 L 446 475 L 448 477 L 449 477 L 450 478 L 453 478 L 454 477 L 456 477 L 457 478 L 459 478 L 460 479 L 464 479 L 465 478 L 466 478 L 466 477 L 467 476 L 467 473 L 464 470 L 457 470 L 456 469 L 454 469 L 453 468 "></path>
        <path fill="none" stroke="#00fafa" stroke-width="3" d="M 630 344 L 631 343 L 632 344 L 634 344 L 638 348 L 638 354 L 634 358 L 628 358 L 624 354 L 624 352 L 623 351 L 623 350 L 624 349 L 624 348 L 625 347 L 625 346 L 626 345 L 627 345 L 628 344 "></path>
        <path fill="none" stroke="#fa00fa" stroke-width="3" d="M 631 497 L 630 498 L 629 498 L 629 499 L 628 500 L 628 506 L 627 507 L 627 508 L 625 510 L 625 512 L 624 513 L 624 514 L 625 515 L 625 516 L 626 517 L 631 517 L 633 515 L 633 514 L 634 513 L 634 510 L 635 509 L 635 508 L 636 507 L 636 506 L 637 505 L 637 499 L 635 497 "></path>
        <path fill="none" stroke="#00fafa" stroke-width="3" d="M 636 389 L 637 388 L 639 388 L 640 389 L 641 389 L 645 393 L 645 399 L 641 403 L 637 403 L 636 402 L 635 402 L 632 399 L 632 398 L 631 397 L 631 393 L 632 392 L 632 391 L 634 389 "></path>
        <path fill="none" stroke="#fa00fa" stroke-width="3" d="M 473 432 L 470 435 L 470 442 L 471 443 L 471 444 L 474 447 L 475 447 L 476 448 L 478 448 L 479 447 L 480 447 L 481 446 L 481 445 L 482 444 L 482 437 L 481 436 L 481 435 L 478 432 "></path>
        <path fill="none" stroke="#fa00fa" stroke-width="3" d="M 497 477 L 495 479 L 495 480 L 494 481 L 494 483 L 495 484 L 495 486 L 496 487 L 496 489 L 497 490 L 497 492 L 498 493 L 498 494 L 499 495 L 504 495 L 506 493 L 506 488 L 505 487 L 505 485 L 504 484 L 504 482 L 503 481 L 503 480 L 502 479 L 502 478 L 501 478 L 500 477 "></path>
        <path fill="none" stroke="#fa00fa" stroke-width="3" d="M 541 375 L 540 376 L 539 376 L 537 378 L 537 383 L 538 384 L 538 385 L 540 387 L 541 387 L 542 388 L 544 388 L 545 389 L 546 389 L 547 388 L 549 388 L 551 386 L 551 381 L 550 380 L 550 379 L 548 377 L 547 377 L 546 376 L 544 376 L 543 375 "></path>
        <path fill="none" stroke="#fa00fa" stroke-width="3" d="M 478 468 L 477 469 L 476 469 L 475 470 L 475 471 L 474 472 L 474 475 L 475 476 L 475 480 L 476 481 L 476 482 L 477 483 L 477 484 L 478 484 L 479 485 L 481 485 L 482 484 L 483 484 L 485 482 L 485 475 L 484 474 L 484 472 L 483 471 L 483 470 L 482 469 L 481 469 L 480 468 "></path>
        <path fill="none" stroke="#fa00fa" stroke-width="3" d="M 525 430 L 524 431 L 523 431 L 522 432 L 522 433 L 521 434 L 521 439 L 524 442 L 525 442 L 526 443 L 529 443 L 530 442 L 531 442 L 532 441 L 533 441 L 533 440 L 534 439 L 534 438 L 535 437 L 535 435 L 534 434 L 534 433 L 531 430 "></path>
        <path fill="none" stroke="#00fafa" stroke-width="3" d="M 574 532 L 575 531 L 578 531 L 581 534 L 581 535 L 582 536 L 582 540 L 581 541 L 581 542 L 579 544 L 578 544 L 577 545 L 573 545 L 572 544 L 571 544 L 570 543 L 570 542 L 569 541 L 569 537 L 570 536 L 570 535 L 573 532 "></path>
        <path fill="none" stroke="#fa00fa" stroke-width="3" d="M 535 467 L 534 468 L 533 468 L 532 469 L 532 470 L 531 471 L 531 475 L 532 476 L 532 478 L 536 482 L 539 482 L 540 481 L 541 481 L 542 480 L 542 479 L 543 478 L 543 474 L 542 473 L 542 472 L 541 471 L 541 470 L 538 467 "></path>
        <path fill="none" stroke="#fa00fa" stroke-width="3" d="M 513 495 L 512 496 L 511 496 L 509 498 L 509 499 L 508 500 L 508 504 L 509 505 L 509 506 L 512 509 L 517 509 L 519 507 L 519 506 L 520 505 L 520 500 L 519 499 L 519 498 L 517 496 L 516 496 L 515 495 "></path>
        <path fill="none" stroke="#fa00fa" stroke-width="3" d="M 567 426 L 566 427 L 565 427 L 562 430 L 562 432 L 561 433 L 561 435 L 562 436 L 562 437 L 564 439 L 565 439 L 566 440 L 567 440 L 568 439 L 570 439 L 574 435 L 574 431 L 573 430 L 573 429 L 571 427 L 570 427 L 569 426 "></path>
        <path fill="none" stroke="#fa00fa" stroke-width="3" d="M 491 380 L 490 381 L 489 381 L 483 387 L 483 391 L 485 393 L 490 393 L 491 392 L 492 392 L 493 391 L 494 391 L 496 389 L 496 388 L 497 387 L 497 384 L 496 383 L 496 382 L 495 381 L 494 381 L 493 380 "></path>
        <path fill="none" stroke="#00fafa" stroke-width="3" d="M 432 529 L 433 528 L 434 529 L 435 529 L 436 530 L 437 530 L 438 531 L 438 532 L 439 533 L 439 534 L 440 535 L 440 538 L 437 541 L 436 541 L 435 542 L 433 542 L 432 541 L 431 541 L 427 537 L 427 533 L 428 532 L 428 531 L 430 529 "></path>
        <path fill="none" stroke="#00fafa" stroke-width="3" d="M 393 504 L 394 503 L 398 503 L 399 504 L 400 504 L 401 505 L 401 506 L 402 507 L 402 511 L 398 515 L 397 515 L 396 516 L 394 516 L 393 515 L 392 515 L 389 512 L 389 508 L 390 507 L 390 506 L 392 504 "></path>
        <path fill="none" stroke="#fa00fa" stroke-width="3" d="M 350 444 L 349 445 L 347 445 L 346 446 L 346 448 L 345 449 L 345 451 L 346 452 L 346 454 L 347 455 L 347 456 L 348 457 L 348 458 L 349 459 L 350 459 L 351 460 L 354 460 L 356 458 L 356 452 L 355 451 L 355 449 L 354 448 L 354 447 L 352 445 L 351 445 "></path>
        <path fill="none" stroke="#fa00fa" stroke-width="3" d="M 582 433 L 581 434 L 580 434 L 577 437 L 577 439 L 576 440 L 577 441 L 577 443 L 578 444 L 578 445 L 579 445 L 580 446 L 584 446 L 585 445 L 586 445 L 587 444 L 587 443 L 588 442 L 588 440 L 589 439 L 589 437 L 588 436 L 588 435 L 586 433 "></path>
        <path fill="none" stroke="#fa00fa" stroke-width="3" d="M 494 460 L 493 461 L 492 461 L 491 462 L 491 464 L 490 465 L 490 466 L 491 467 L 491 468 L 492 469 L 492 470 L 493 470 L 494 471 L 496 471 L 497 472 L 498 472 L 499 471 L 501 471 L 503 469 L 503 468 L 504 467 L 504 465 L 503 464 L 503 463 L 501 461 L 500 461 L 499 460 "></path>
        <path fill="none" stroke="#fa00fa" stroke-width="3" d="M 482 519 L 478 523 L 478 524 L 477 525 L 477 526 L 476 527 L 476 529 L 477 530 L 477 531 L 478 532 L 479 532 L 480 533 L 481 533 L 482 532 L 483 532 L 488 527 L 488 525 L 489 524 L 489 523 L 488 522 L 488 521 L 486 519 "></path>
        <path fill="none" stroke="#fa00fa" stroke-width="3" d="M 504 387 L 503 388 L 502 388 L 501 389 L 501 390 L 500 391 L 500 394 L 501 395 L 501 397 L 502 398 L 503 398 L 504 399 L 509 399 L 512 396 L 512 390 L 509 387 "></path>
        <path fill="none" stroke="#fa00fa" stroke-width="3" d="M 418 421 L 417 422 L 415 422 L 414 423 L 413 423 L 413 424 L 412 425 L 412 429 L 415 432 L 416 432 L 417 433 L 421 433 L 422 432 L 423 432 L 424 431 L 424 430 L 425 429 L 425 425 L 422 422 L 420 422 L 419 421 "></path>
        <path fill="none" stroke="#fa00fa" stroke-width="3" d="M 367 442 L 364 445 L 364 450 L 367 453 L 368 453 L 369 454 L 371 454 L 372 453 L 373 453 L 375 451 L 375 450 L 376 449 L 376 446 L 375 445 L 375 444 L 373 442 "></path>
        <path fill="none" stroke="#fa00fa" stroke-width="3" d="M 355 467 L 353 469 L 353 470 L 352 471 L 352 475 L 353 476 L 353 478 L 355 480 L 356 480 L 357 481 L 359 481 L 362 478 L 362 471 L 361 470 L 361 469 L 360 468 L 359 468 L 358 467 "></path>
        <path fill="none" stroke="#fa00fa" stroke-width="3" d="M 617 490 L 616 491 L 615 491 L 612 494 L 612 495 L 611 496 L 611 500 L 613 502 L 618 502 L 623 497 L 623 492 L 622 491 L 621 491 L 620 490 "></path>
        <path fill="none" stroke="#fa00fa" stroke-width="3" d="M 487 494 L 486 495 L 485 495 L 481 499 L 481 504 L 482 505 L 482 506 L 483 506 L 484 507 L 487 507 L 488 506 L 489 506 L 491 504 L 491 503 L 492 502 L 492 497 L 490 495 L 489 495 L 488 494 "></path>
        <path fill="none" stroke="#fa00fa" stroke-width="3" d="M 447 451 L 446 452 L 445 452 L 444 453 L 444 454 L 443 455 L 443 458 L 444 459 L 444 460 L 446 462 L 447 462 L 448 463 L 450 463 L 451 462 L 452 462 L 454 460 L 454 454 L 452 452 L 451 452 L 450 451 "></path>
        <path fill="none" stroke="#fa00fa" stroke-width="3" d="M 495 508 L 494 509 L 493 509 L 492 510 L 492 512 L 491 513 L 491 514 L 492 515 L 492 517 L 494 519 L 495 519 L 496 520 L 498 520 L 499 519 L 500 519 L 502 517 L 502 511 L 500 509 L 499 509 L 498 508 "></path>
        <path fill="none" stroke="#fa00fa" stroke-width="3" d="M 579 252 L 576 255 L 576 260 L 577 261 L 577 262 L 578 263 L 579 263 L 580 264 L 582 264 L 583 263 L 584 263 L 586 261 L 586 260 L 587 259 L 587 258 L 586 257 L 586 255 L 585 254 L 585 253 L 584 253 L 583 252 "></path>
        <path fill="none" stroke="#fa00fa" stroke-width="3" d="M 374 460 L 373 461 L 372 461 L 370 463 L 370 468 L 373 471 L 378 471 L 380 469 L 380 468 L 381 467 L 381 464 L 378 461 L 377 461 L 376 460 "></path>
        <path fill="none" stroke="#fa00fa" stroke-width="3" d="M 449 508 L 448 509 L 447 509 L 444 512 L 444 518 L 445 519 L 450 519 L 451 518 L 452 518 L 453 517 L 453 516 L 454 515 L 454 514 L 455 513 L 455 511 L 454 510 L 454 509 L 453 509 L 452 508 "></path>
        <path fill="none" stroke="#fa00fa" stroke-width="3" d="M 581 341 L 580 342 L 577 342 L 576 343 L 575 343 L 574 344 L 573 344 L 570 347 L 570 348 L 569 349 L 569 350 L 568 351 L 568 360 L 569 361 L 569 362 L 570 363 L 570 364 L 573 367 L 574 367 L 581 374 L 581 375 L 582 376 L 582 379 L 583 380 L 583 382 L 584 383 L 584 384 L 585 385 L 585 386 L 587 388 L 587 389 L 588 389 L 590 391 L 591 391 L 592 392 L 602 392 L 603 391 L 604 391 L 605 390 L 606 390 L 607 389 L 608 389 L 612 385 L 612 384 L 613 383 L 613 382 L 614 381 L 614 372 L 613 371 L 613 369 L 612 368 L 612 367 L 604 359 L 604 358 L 603 357 L 603 356 L 602 355 L 602 354 L 601 353 L 601 350 L 600 349 L 600 348 L 599 347 L 599 346 L 596 343 L 595 343 L 594 342 L 592 342 L 591 341 "></path>
        <path fill="none" stroke="#fa00fa" stroke-width="3" d="M 495 343 L 494 344 L 493 344 L 490 347 L 490 352 L 493 355 L 498 355 L 499 356 L 501 356 L 502 357 L 503 357 L 504 358 L 505 358 L 506 359 L 507 359 L 508 360 L 511 360 L 512 361 L 527 361 L 528 362 L 531 362 L 532 363 L 534 363 L 535 364 L 537 364 L 538 365 L 540 365 L 541 366 L 543 366 L 544 367 L 545 367 L 546 368 L 547 368 L 549 370 L 550 370 L 564 384 L 564 385 L 566 387 L 566 388 L 567 389 L 567 390 L 568 391 L 568 392 L 569 393 L 569 394 L 570 395 L 570 396 L 571 397 L 571 398 L 572 399 L 572 400 L 575 403 L 575 404 L 577 406 L 577 408 L 578 409 L 578 424 L 579 425 L 579 426 L 580 426 L 581 427 L 585 427 L 587 425 L 587 419 L 586 418 L 586 405 L 585 404 L 585 403 L 584 402 L 584 401 L 581 398 L 581 397 L 578 394 L 578 393 L 577 392 L 577 391 L 576 390 L 576 389 L 575 388 L 575 386 L 574 385 L 574 384 L 572 382 L 572 381 L 570 379 L 570 378 L 558 366 L 557 366 L 553 362 L 552 362 L 551 361 L 550 361 L 549 360 L 548 360 L 547 359 L 545 359 L 544 358 L 541 358 L 540 357 L 538 357 L 537 356 L 534 356 L 533 355 L 531 355 L 530 354 L 519 354 L 518 353 L 512 353 L 511 352 L 508 352 L 507 351 L 506 351 L 504 349 L 503 349 L 502 348 L 502 347 L 499 344 L 498 344 L 497 343 "></path>
        <path fill="none" stroke="#fa00fa" stroke-width="3" d="M 605 402 L 604 403 L 602 403 L 601 404 L 600 404 L 596 408 L 596 410 L 595 411 L 595 423 L 596 424 L 596 429 L 597 430 L 597 441 L 596 442 L 596 447 L 597 448 L 597 449 L 598 449 L 599 450 L 603 450 L 604 449 L 605 449 L 605 448 L 606 447 L 606 442 L 605 441 L 605 437 L 604 436 L 604 425 L 603 424 L 603 420 L 602 419 L 602 415 L 603 414 L 603 413 L 606 410 L 611 410 L 612 411 L 613 411 L 616 414 L 616 415 L 617 416 L 617 422 L 616 423 L 616 427 L 615 428 L 615 435 L 616 436 L 616 440 L 615 441 L 615 443 L 614 444 L 614 446 L 613 447 L 613 449 L 614 450 L 614 451 L 616 453 L 620 453 L 621 452 L 622 452 L 622 451 L 623 450 L 623 441 L 622 440 L 622 439 L 623 438 L 623 425 L 624 424 L 624 421 L 625 420 L 625 416 L 624 415 L 624 413 L 623 412 L 623 411 L 621 409 L 621 408 L 618 405 L 617 405 L 615 403 L 614 403 L 613 402 "></path>
        <path fill="none" stroke="#fa00fa" stroke-width="3" d="M 542 318 L 541 319 L 538 319 L 537 320 L 524 320 L 523 319 L 522 319 L 521 320 L 519 320 L 518 321 L 517 321 L 515 323 L 515 324 L 514 325 L 514 326 L 513 327 L 513 330 L 512 331 L 512 339 L 513 340 L 513 341 L 514 342 L 514 343 L 517 346 L 518 346 L 519 347 L 522 347 L 523 346 L 524 346 L 524 345 L 525 344 L 525 341 L 519 335 L 519 332 L 520 331 L 520 330 L 522 328 L 524 328 L 525 327 L 526 327 L 527 328 L 537 328 L 538 327 L 540 327 L 541 326 L 545 326 L 546 327 L 547 327 L 550 330 L 550 331 L 551 332 L 551 339 L 549 341 L 548 341 L 547 342 L 544 342 L 543 341 L 542 341 L 541 340 L 540 340 L 538 338 L 536 338 L 535 337 L 534 337 L 533 338 L 532 338 L 530 340 L 530 341 L 529 342 L 530 343 L 530 344 L 532 346 L 533 346 L 534 347 L 537 347 L 538 348 L 542 348 L 543 349 L 546 349 L 547 350 L 551 350 L 552 349 L 554 349 L 557 346 L 557 345 L 558 344 L 558 342 L 559 341 L 559 332 L 558 331 L 558 329 L 557 328 L 557 326 L 554 323 L 554 322 L 553 321 L 552 321 L 550 319 L 548 319 L 547 318 "></path>
        <path fill="none" stroke="#fa00fa" stroke-width="3" d="M 467 356 L 466 357 L 465 357 L 463 359 L 462 359 L 461 360 L 460 360 L 459 361 L 458 361 L 457 362 L 456 362 L 455 363 L 454 363 L 450 367 L 450 368 L 449 369 L 449 375 L 450 376 L 450 381 L 449 382 L 449 383 L 446 386 L 444 386 L 443 387 L 441 387 L 440 388 L 439 388 L 438 389 L 437 389 L 437 390 L 435 392 L 435 393 L 434 394 L 434 400 L 435 401 L 435 403 L 437 405 L 437 406 L 439 408 L 440 408 L 442 410 L 443 410 L 445 412 L 446 412 L 448 414 L 449 414 L 450 415 L 455 415 L 458 412 L 458 408 L 457 407 L 457 406 L 456 406 L 455 405 L 454 405 L 453 404 L 446 404 L 442 400 L 442 397 L 445 394 L 446 394 L 447 393 L 450 393 L 451 392 L 452 392 L 455 389 L 455 388 L 456 387 L 456 386 L 457 385 L 457 383 L 458 382 L 458 378 L 457 377 L 457 373 L 458 372 L 458 371 L 461 368 L 462 368 L 463 367 L 464 367 L 465 366 L 468 366 L 469 367 L 473 367 L 476 364 L 476 360 L 475 359 L 475 358 L 474 357 L 473 357 L 472 356 "></path>
        <path fill="none" stroke="#fa00fa" stroke-width="3" d="M 577 305 L 576 306 L 575 306 L 574 307 L 573 307 L 568 312 L 568 313 L 567 314 L 567 318 L 566 319 L 566 320 L 567 321 L 567 325 L 568 326 L 568 327 L 569 328 L 569 329 L 572 332 L 573 332 L 574 333 L 577 333 L 578 334 L 581 334 L 582 333 L 588 333 L 589 332 L 591 332 L 592 331 L 593 331 L 595 329 L 595 328 L 596 327 L 596 326 L 597 325 L 597 316 L 596 315 L 596 313 L 595 312 L 595 311 L 591 307 L 590 307 L 589 306 L 587 306 L 586 305 "></path>
        <path fill="none" stroke="#fa00fa" stroke-width="3" d="M 627 336 L 626 337 L 624 337 L 622 339 L 621 339 L 618 342 L 618 343 L 617 344 L 617 345 L 616 346 L 616 354 L 617 355 L 617 357 L 618 358 L 618 359 L 623 364 L 624 364 L 625 365 L 626 365 L 627 366 L 635 366 L 636 365 L 638 365 L 640 363 L 641 363 L 643 361 L 643 360 L 644 359 L 644 358 L 645 357 L 645 354 L 646 353 L 646 349 L 645 348 L 645 345 L 644 344 L 644 343 L 639 338 L 638 338 L 637 337 L 635 337 L 634 336 "></path>
        <path fill="none" stroke="#fa00fa" stroke-width="3" d="M 633 381 L 632 382 L 631 382 L 630 383 L 629 383 L 625 387 L 625 388 L 624 389 L 624 390 L 623 391 L 623 397 L 624 398 L 624 399 L 625 400 L 625 401 L 626 402 L 626 403 L 632 409 L 633 409 L 634 410 L 637 410 L 638 411 L 640 411 L 641 410 L 644 410 L 645 409 L 646 409 L 647 408 L 648 408 L 650 406 L 650 405 L 651 404 L 651 403 L 652 402 L 652 400 L 653 399 L 653 393 L 652 392 L 652 390 L 651 389 L 651 388 L 650 387 L 650 386 L 648 384 L 647 384 L 645 382 L 643 382 L 642 381 "></path>
        <path fill="none" stroke="#fa00fa" stroke-width="3" d="M 485 308 L 484 309 L 482 309 L 481 310 L 480 310 L 479 311 L 478 311 L 474 315 L 474 316 L 473 317 L 473 319 L 472 320 L 472 336 L 471 337 L 471 338 L 470 339 L 470 341 L 469 342 L 469 345 L 470 346 L 470 347 L 471 348 L 472 348 L 473 349 L 479 349 L 482 346 L 482 341 L 481 340 L 481 339 L 480 338 L 480 336 L 479 335 L 479 325 L 480 324 L 480 321 L 481 320 L 481 319 L 482 318 L 483 318 L 485 316 L 495 316 L 499 320 L 499 323 L 498 324 L 498 325 L 494 329 L 494 330 L 493 331 L 493 334 L 494 335 L 494 336 L 495 337 L 496 337 L 497 338 L 500 338 L 501 337 L 502 337 L 502 336 L 503 335 L 503 334 L 504 333 L 504 327 L 505 326 L 505 324 L 506 323 L 506 320 L 507 319 L 507 317 L 506 316 L 506 314 L 503 311 L 502 311 L 501 310 L 500 310 L 499 309 L 496 309 L 495 308 "></path>
        <path fill="none" stroke="#fa00fa" stroke-width="3" d="M 575 523 L 574 524 L 572 524 L 571 525 L 570 525 L 565 530 L 565 531 L 564 532 L 564 533 L 563 534 L 563 535 L 562 536 L 562 539 L 561 540 L 561 541 L 562 542 L 562 545 L 563 546 L 563 547 L 566 550 L 567 550 L 568 551 L 570 551 L 571 552 L 579 552 L 580 551 L 582 551 L 583 550 L 584 550 L 587 547 L 587 546 L 588 545 L 588 544 L 589 543 L 589 533 L 588 532 L 588 531 L 587 530 L 587 529 L 583 525 L 582 525 L 581 524 L 579 524 L 578 523 "></path>
        <path fill="none" stroke="#fa00fa" stroke-width="3" d="M 430 521 L 429 522 L 427 522 L 422 527 L 422 528 L 421 529 L 421 530 L 420 531 L 420 538 L 421 539 L 421 541 L 422 542 L 422 543 L 426 547 L 427 547 L 428 548 L 431 548 L 432 549 L 436 549 L 437 548 L 440 548 L 441 547 L 442 547 L 446 543 L 446 542 L 447 541 L 447 534 L 446 533 L 446 531 L 445 530 L 445 529 L 442 526 L 442 525 L 441 524 L 440 524 L 438 522 L 437 522 L 436 521 "></path>
        <path fill="none" stroke="#fa00fa" stroke-width="3" d="M 395 495 L 394 496 L 392 496 L 390 498 L 389 498 L 383 504 L 383 505 L 382 506 L 382 509 L 381 510 L 382 511 L 382 514 L 383 515 L 383 516 L 384 517 L 384 518 L 386 520 L 387 520 L 388 521 L 389 521 L 390 522 L 393 522 L 394 523 L 397 523 L 398 522 L 401 522 L 402 521 L 403 521 L 407 517 L 407 516 L 408 515 L 408 513 L 409 512 L 409 505 L 408 504 L 408 502 L 406 500 L 406 499 L 405 498 L 404 498 L 402 496 L 400 496 L 399 495 "></path>
        <path fill="none" stroke="#00fafa" stroke-width="3" d="M 582 349 L 583 348 L 587 348 L 588 349 L 590 349 L 593 352 L 593 353 L 594 354 L 594 356 L 595 357 L 595 359 L 596 360 L 596 361 L 597 362 L 597 363 L 605 371 L 605 372 L 606 373 L 606 379 L 601 384 L 595 384 L 594 383 L 593 383 L 592 382 L 592 381 L 590 379 L 590 376 L 589 375 L 589 372 L 588 371 L 588 370 L 587 369 L 587 368 L 583 364 L 582 364 L 576 358 L 576 353 L 580 349 "></path>
        <path fill="none" stroke="#fa00fa" stroke-width="3" d="M 558 489 L 556 491 L 556 492 L 554 494 L 553 494 L 552 495 L 546 495 L 545 494 L 536 494 L 535 495 L 533 495 L 532 496 L 530 496 L 526 500 L 526 503 L 527 504 L 527 505 L 530 508 L 530 516 L 531 517 L 531 518 L 532 518 L 534 520 L 537 520 L 538 521 L 542 521 L 543 520 L 545 520 L 546 519 L 546 518 L 547 517 L 547 515 L 546 514 L 546 513 L 545 513 L 544 512 L 539 512 L 538 511 L 537 511 L 536 510 L 535 510 L 533 508 L 533 506 L 534 505 L 534 504 L 536 502 L 538 502 L 539 501 L 542 501 L 543 502 L 548 502 L 549 503 L 550 502 L 555 502 L 556 501 L 558 501 L 559 500 L 561 500 L 565 496 L 565 491 L 563 489 "></path>
        <path fill="none" stroke="#fa00fa" stroke-width="3" d="M 610 473 L 609 474 L 607 474 L 605 476 L 605 477 L 604 478 L 604 479 L 603 480 L 603 481 L 599 485 L 598 485 L 594 489 L 593 489 L 588 494 L 583 494 L 580 491 L 580 488 L 579 487 L 579 485 L 578 484 L 578 483 L 577 483 L 576 482 L 573 482 L 570 485 L 570 490 L 572 492 L 572 493 L 574 495 L 574 496 L 576 498 L 576 499 L 578 501 L 579 501 L 580 502 L 582 502 L 583 503 L 585 503 L 586 502 L 589 502 L 590 501 L 591 501 L 594 498 L 595 498 L 599 494 L 600 494 L 609 485 L 610 485 L 611 484 L 612 484 L 614 482 L 614 481 L 615 480 L 615 477 L 614 476 L 614 475 L 613 475 L 612 474 L 611 474 "></path>
        <path fill="none" stroke="#fa00fa" stroke-width="3" d="M 487 400 L 484 403 L 484 408 L 485 409 L 485 410 L 486 410 L 487 411 L 494 411 L 495 412 L 495 413 L 496 414 L 496 419 L 497 420 L 497 421 L 498 422 L 498 423 L 501 426 L 496 431 L 496 434 L 497 435 L 497 436 L 499 438 L 508 438 L 509 437 L 510 437 L 512 435 L 512 430 L 510 428 L 509 428 L 508 427 L 506 427 L 504 425 L 504 424 L 505 423 L 505 422 L 506 421 L 506 420 L 507 419 L 507 416 L 506 415 L 506 414 L 505 413 L 505 412 L 503 410 L 503 409 L 502 408 L 502 407 L 501 406 L 501 405 L 497 401 L 496 401 L 495 400 "></path>
        <path fill="none" stroke="#fa00fa" stroke-width="3" d="M 366 408 L 365 409 L 362 409 L 361 410 L 360 410 L 359 411 L 358 411 L 357 412 L 356 412 L 352 416 L 352 417 L 350 419 L 350 420 L 347 423 L 347 424 L 345 426 L 345 430 L 346 431 L 346 432 L 347 433 L 353 433 L 354 432 L 354 431 L 355 430 L 355 424 L 356 423 L 356 422 L 359 419 L 360 419 L 362 417 L 363 417 L 364 416 L 370 416 L 372 418 L 372 419 L 373 420 L 373 423 L 372 424 L 372 426 L 371 427 L 371 432 L 373 434 L 378 434 L 380 432 L 380 431 L 381 430 L 381 429 L 380 428 L 380 425 L 379 424 L 379 419 L 378 418 L 378 414 L 377 413 L 377 412 L 374 409 L 372 409 L 371 408 "></path>
        <path fill="none" stroke="#fa00fa" stroke-width="3" d="M 562 446 L 560 448 L 560 449 L 559 450 L 559 451 L 560 452 L 560 454 L 561 455 L 562 455 L 563 456 L 564 456 L 568 460 L 568 466 L 564 470 L 563 470 L 562 471 L 560 471 L 559 472 L 558 472 L 557 471 L 551 471 L 548 474 L 548 477 L 549 478 L 549 479 L 550 480 L 551 480 L 552 481 L 556 481 L 557 480 L 560 480 L 561 479 L 562 479 L 563 478 L 565 478 L 566 477 L 567 477 L 568 476 L 569 476 L 571 474 L 572 474 L 575 471 L 575 469 L 576 468 L 576 463 L 575 462 L 575 458 L 574 457 L 574 455 L 573 454 L 573 452 L 572 451 L 572 450 L 568 446 "></path>
        <path fill="none" stroke="#fa00fa" stroke-width="3" d="M 634 422 L 633 423 L 632 423 L 631 424 L 631 425 L 630 426 L 630 429 L 632 431 L 633 431 L 634 432 L 635 432 L 636 431 L 637 431 L 638 430 L 639 430 L 640 429 L 642 429 L 643 430 L 644 430 L 647 433 L 647 437 L 646 438 L 646 439 L 645 440 L 644 440 L 643 441 L 640 441 L 639 440 L 637 440 L 636 439 L 633 439 L 632 440 L 631 440 L 631 441 L 630 442 L 630 445 L 631 446 L 631 447 L 632 447 L 633 448 L 637 448 L 638 447 L 648 447 L 649 446 L 650 446 L 651 445 L 652 445 L 653 444 L 653 443 L 654 442 L 654 439 L 655 438 L 655 434 L 654 433 L 654 430 L 653 429 L 653 428 L 652 427 L 652 426 L 651 425 L 650 425 L 648 423 L 646 423 L 645 422 "></path>
        <path fill="none" stroke="#fa00fa" stroke-width="3" d="M 473 537 L 469 541 L 469 543 L 468 544 L 468 546 L 467 547 L 467 553 L 468 554 L 468 556 L 469 557 L 469 558 L 473 562 L 474 562 L 475 563 L 477 563 L 478 564 L 484 564 L 485 563 L 487 563 L 488 562 L 489 562 L 492 559 L 492 558 L 494 556 L 494 555 L 495 554 L 495 552 L 496 551 L 496 547 L 495 546 L 495 545 L 494 544 L 492 544 L 491 543 L 490 544 L 489 544 L 487 546 L 487 553 L 484 556 L 483 556 L 482 557 L 480 557 L 479 556 L 478 556 L 474 552 L 474 549 L 475 548 L 475 547 L 479 543 L 479 539 L 477 537 "></path>
        <path fill="none" stroke="#fa00fa" stroke-width="3" d="M 472 372 L 470 374 L 470 375 L 469 376 L 469 382 L 470 383 L 470 385 L 469 386 L 469 388 L 468 389 L 468 390 L 467 391 L 467 392 L 466 393 L 466 394 L 465 395 L 465 396 L 464 397 L 464 406 L 465 407 L 465 410 L 466 411 L 466 413 L 467 414 L 467 415 L 469 417 L 475 417 L 476 416 L 476 415 L 477 414 L 477 409 L 472 404 L 472 399 L 473 398 L 473 397 L 474 396 L 474 395 L 475 394 L 475 393 L 476 392 L 476 388 L 477 387 L 477 382 L 478 381 L 478 380 L 479 379 L 479 375 L 478 374 L 478 373 L 477 373 L 476 372 "></path>
        <path fill="none" stroke="#fa00fa" stroke-width="3" d="M 491 363 L 488 366 L 488 371 L 491 374 L 498 374 L 499 375 L 501 375 L 506 380 L 507 380 L 508 381 L 512 381 L 517 376 L 518 376 L 520 378 L 521 378 L 522 379 L 528 379 L 530 377 L 530 376 L 531 375 L 531 372 L 530 371 L 530 370 L 528 368 L 526 368 L 525 367 L 524 367 L 523 368 L 521 368 L 516 373 L 515 372 L 514 372 L 513 371 L 512 371 L 511 370 L 506 370 L 505 369 L 503 369 L 501 367 L 500 367 L 496 363 "></path>
        <path fill="none" stroke="#fa00fa" stroke-width="3" d="M 397 403 L 396 404 L 395 404 L 394 405 L 393 405 L 391 407 L 390 407 L 389 408 L 389 409 L 388 410 L 388 411 L 387 412 L 387 421 L 388 422 L 388 424 L 389 425 L 389 426 L 390 427 L 390 428 L 392 430 L 393 430 L 394 431 L 395 431 L 396 432 L 398 432 L 399 433 L 403 433 L 404 432 L 405 432 L 407 430 L 407 429 L 408 428 L 408 427 L 405 424 L 397 424 L 395 422 L 395 421 L 394 420 L 394 415 L 397 412 L 403 412 L 404 411 L 405 411 L 407 409 L 407 406 L 404 403 "></path>
        <path fill="none" stroke="#fa00fa" stroke-width="3" d="M 427 469 L 425 471 L 425 472 L 424 473 L 424 476 L 423 477 L 423 480 L 424 481 L 424 488 L 425 489 L 425 494 L 426 495 L 426 497 L 427 498 L 427 499 L 429 501 L 430 501 L 432 503 L 434 503 L 435 504 L 437 504 L 438 505 L 442 505 L 443 504 L 444 504 L 445 503 L 445 502 L 446 501 L 446 499 L 443 496 L 436 496 L 433 493 L 433 492 L 432 491 L 432 487 L 431 486 L 431 480 L 433 478 L 433 477 L 434 476 L 434 471 L 432 469 "></path>
        <path fill="none" stroke="#fa00fa" stroke-width="3" d="M 602 503 L 599 506 L 599 507 L 598 508 L 598 509 L 597 510 L 597 512 L 596 513 L 596 521 L 597 522 L 597 523 L 598 524 L 598 525 L 601 528 L 602 528 L 603 529 L 605 529 L 606 530 L 610 530 L 611 529 L 617 529 L 618 528 L 620 528 L 621 527 L 622 527 L 622 526 L 623 525 L 623 520 L 622 519 L 621 519 L 620 518 L 619 518 L 618 519 L 616 519 L 613 522 L 611 522 L 610 523 L 609 523 L 608 522 L 606 522 L 604 520 L 604 519 L 603 518 L 603 516 L 604 515 L 604 514 L 607 511 L 607 510 L 608 509 L 608 505 L 606 503 "></path>
        <path fill="none" stroke="#fa00fa" stroke-width="3" d="M 660 470 L 659 471 L 658 471 L 657 472 L 657 477 L 663 483 L 663 485 L 664 486 L 664 487 L 663 488 L 663 490 L 660 493 L 659 493 L 658 494 L 651 494 L 650 495 L 650 496 L 649 497 L 649 500 L 652 503 L 658 503 L 659 502 L 660 502 L 662 500 L 663 500 L 665 498 L 666 498 L 668 496 L 668 495 L 669 494 L 669 493 L 670 492 L 670 489 L 671 488 L 671 486 L 670 485 L 670 481 L 669 480 L 669 478 L 668 477 L 668 475 L 667 474 L 667 473 L 665 471 L 664 471 L 663 470 "></path>
        <path fill="none" stroke="#fa00fa" stroke-width="3" d="M 560 508 L 559 509 L 557 509 L 556 510 L 556 511 L 555 512 L 555 519 L 553 521 L 553 522 L 551 524 L 551 525 L 544 532 L 543 532 L 542 533 L 540 533 L 539 534 L 538 534 L 536 536 L 536 541 L 538 543 L 542 543 L 543 542 L 544 542 L 551 535 L 552 535 L 553 534 L 553 533 L 557 529 L 557 528 L 558 527 L 558 526 L 560 524 L 560 523 L 561 522 L 561 521 L 564 518 L 564 517 L 565 516 L 565 511 L 563 509 L 562 509 L 561 508 "></path>
        <path fill="none" stroke="#fa00fa" stroke-width="3" d="M 510 518 L 509 519 L 508 519 L 508 520 L 507 521 L 507 523 L 508 524 L 508 525 L 510 527 L 511 527 L 514 530 L 514 533 L 511 536 L 504 536 L 503 537 L 502 537 L 501 538 L 501 540 L 500 541 L 501 542 L 501 544 L 502 545 L 503 545 L 504 546 L 508 546 L 515 539 L 518 539 L 519 538 L 520 538 L 522 536 L 522 534 L 523 533 L 522 532 L 522 529 L 521 528 L 521 526 L 520 525 L 520 524 L 519 523 L 519 522 L 515 518 "></path>
        <path fill="none" stroke="#fa00fa" stroke-width="3" d="M 517 546 L 515 548 L 515 549 L 514 550 L 514 552 L 515 553 L 515 555 L 519 559 L 519 560 L 520 560 L 523 563 L 525 563 L 526 564 L 531 564 L 532 563 L 534 563 L 535 562 L 536 562 L 538 560 L 539 560 L 541 558 L 542 558 L 543 557 L 543 556 L 544 555 L 544 551 L 543 550 L 543 549 L 542 548 L 538 548 L 536 550 L 536 551 L 535 552 L 535 553 L 532 556 L 526 556 L 524 554 L 524 553 L 523 552 L 523 549 L 520 546 "></path>
        <path fill="none" stroke="#fa00fa" stroke-width="3" d="M 575 269 L 574 270 L 573 270 L 573 271 L 572 272 L 572 278 L 573 279 L 573 282 L 574 283 L 574 285 L 575 286 L 575 287 L 578 290 L 579 290 L 580 291 L 583 291 L 584 292 L 594 292 L 595 291 L 596 291 L 597 290 L 597 289 L 598 288 L 598 285 L 595 282 L 593 282 L 592 283 L 590 283 L 589 284 L 588 284 L 587 285 L 585 285 L 584 284 L 583 284 L 581 282 L 581 281 L 580 280 L 580 277 L 581 276 L 581 271 L 579 269 "></path>
        <path fill="none" stroke="#fa00fa" stroke-width="3" d="M 381 475 L 380 476 L 380 478 L 379 479 L 379 481 L 380 482 L 380 485 L 379 486 L 379 487 L 377 489 L 376 489 L 375 490 L 371 490 L 370 489 L 369 489 L 367 487 L 366 487 L 365 486 L 363 486 L 362 487 L 361 487 L 361 488 L 360 489 L 360 492 L 361 493 L 361 494 L 362 495 L 363 495 L 364 496 L 367 496 L 368 497 L 377 497 L 378 496 L 379 496 L 380 495 L 381 495 L 383 493 L 383 492 L 385 490 L 385 489 L 386 488 L 386 487 L 387 486 L 387 485 L 388 484 L 388 477 L 386 475 "></path>
        <path fill="none" stroke="#fa00fa" stroke-width="3" d="M 497 444 L 494 447 L 494 451 L 497 454 L 510 454 L 511 455 L 512 455 L 514 457 L 515 457 L 517 459 L 522 459 L 523 458 L 524 458 L 524 457 L 525 456 L 525 451 L 524 450 L 524 449 L 523 449 L 522 448 L 520 448 L 519 447 L 517 447 L 516 448 L 513 448 L 512 447 L 508 447 L 507 446 L 506 446 L 505 445 L 504 445 L 503 444 "></path>
        <path fill="none" stroke="#fa00fa" stroke-width="3" d="M 616 264 L 613 267 L 613 270 L 614 271 L 614 272 L 615 273 L 615 277 L 614 278 L 614 279 L 613 280 L 612 280 L 611 281 L 606 281 L 605 282 L 604 282 L 602 284 L 602 287 L 605 290 L 610 290 L 611 289 L 612 289 L 613 288 L 614 288 L 615 287 L 616 287 L 620 283 L 620 282 L 621 281 L 621 279 L 622 278 L 622 276 L 623 275 L 623 271 L 624 270 L 623 269 L 623 267 L 620 264 "></path>
        <path fill="none" stroke="#fa00fa" stroke-width="3" d="M 590 238 L 589 239 L 587 239 L 585 241 L 585 242 L 584 243 L 584 244 L 585 245 L 585 246 L 587 248 L 590 248 L 591 247 L 592 247 L 593 246 L 594 246 L 595 245 L 596 245 L 597 244 L 600 244 L 601 245 L 602 245 L 608 251 L 612 251 L 613 250 L 614 250 L 614 249 L 615 248 L 615 245 L 614 244 L 614 243 L 612 241 L 610 241 L 609 240 L 607 240 L 606 239 L 604 239 L 603 238 "></path>
        <path fill="none" stroke="#fa00fa" stroke-width="3" d="M 457 440 L 455 442 L 455 443 L 454 444 L 454 445 L 455 446 L 455 448 L 458 451 L 459 451 L 462 454 L 462 455 L 464 457 L 464 458 L 465 459 L 465 460 L 466 461 L 466 462 L 468 464 L 469 464 L 470 465 L 473 465 L 474 464 L 475 464 L 476 463 L 476 458 L 475 457 L 475 456 L 474 456 L 473 455 L 472 455 L 471 454 L 470 454 L 466 450 L 466 449 L 465 448 L 465 445 L 464 444 L 464 443 L 463 442 L 463 441 L 462 441 L 461 440 "></path>
        <path fill="none" stroke="#fa00fa" stroke-width="3" d="M 471 488 L 465 494 L 461 494 L 459 492 L 458 492 L 456 490 L 453 490 L 452 491 L 451 491 L 450 492 L 450 497 L 452 499 L 453 499 L 454 500 L 457 500 L 458 501 L 467 501 L 468 500 L 470 500 L 471 499 L 472 499 L 477 494 L 477 490 L 475 488 "></path>
        <path fill="none" stroke="#fa00fa" stroke-width="3" d="M 543 441 L 542 442 L 541 442 L 539 444 L 539 445 L 538 446 L 538 451 L 537 452 L 537 461 L 538 462 L 538 463 L 539 464 L 543 464 L 546 461 L 546 457 L 547 456 L 547 453 L 549 451 L 549 450 L 550 449 L 550 444 L 547 441 "></path>
        <path fill="none" stroke="#fa00fa" stroke-width="3" d="M 463 509 L 462 510 L 462 511 L 461 512 L 461 514 L 462 515 L 462 517 L 463 518 L 463 521 L 460 524 L 459 524 L 458 525 L 456 525 L 455 526 L 454 526 L 454 527 L 453 528 L 453 531 L 455 533 L 456 533 L 457 534 L 459 534 L 460 533 L 461 533 L 462 532 L 463 532 L 466 529 L 466 528 L 468 526 L 468 524 L 469 523 L 469 521 L 470 520 L 470 512 L 469 511 L 469 510 L 468 510 L 467 509 "></path>
        <path fill="none" stroke="#fa00fa" stroke-width="3" d="M 584 455 L 581 458 L 581 462 L 585 466 L 586 466 L 587 467 L 588 467 L 592 471 L 593 471 L 594 472 L 599 472 L 600 471 L 601 471 L 601 470 L 603 468 L 603 465 L 602 464 L 602 463 L 601 462 L 600 462 L 599 461 L 593 461 L 587 455 "></path>
        <path fill="none" stroke="#fa00fa" stroke-width="3" d="M 413 402 L 410 405 L 410 408 L 413 411 L 421 411 L 424 414 L 424 415 L 425 416 L 425 417 L 426 418 L 427 418 L 428 419 L 430 419 L 431 418 L 432 418 L 433 417 L 433 415 L 434 414 L 433 413 L 433 411 L 431 409 L 430 409 L 428 407 L 427 407 L 425 405 L 424 405 L 422 403 L 421 403 L 420 402 "></path>
        <path fill="none" stroke="#fa00fa" stroke-width="3" d="M 632 454 L 630 456 L 630 460 L 631 461 L 631 462 L 632 462 L 633 463 L 638 463 L 639 462 L 640 462 L 641 463 L 642 463 L 645 466 L 646 466 L 647 467 L 648 467 L 649 468 L 650 468 L 651 467 L 652 467 L 654 465 L 654 460 L 653 459 L 653 458 L 652 458 L 651 457 L 644 457 L 643 456 L 641 456 L 640 455 L 639 455 L 638 454 "></path>
        <path fill="none" stroke="#fa00fa" stroke-width="3" d="M 518 465 L 516 467 L 515 467 L 513 469 L 513 470 L 512 471 L 512 472 L 511 473 L 511 477 L 512 478 L 512 479 L 513 480 L 513 481 L 514 482 L 515 482 L 516 483 L 520 483 L 521 482 L 522 482 L 523 481 L 523 479 L 524 478 L 524 467 L 523 466 L 522 466 L 521 465 "></path>
        <path fill="none" stroke="#fa00fa" stroke-width="3" d="M 426 445 L 425 446 L 424 446 L 423 447 L 423 448 L 422 449 L 422 453 L 423 454 L 423 456 L 424 457 L 424 458 L 425 459 L 425 461 L 428 464 L 432 464 L 435 461 L 435 458 L 434 457 L 434 455 L 433 454 L 433 449 L 432 448 L 432 447 L 431 446 L 430 446 L 429 445 "></path>
        <path fill="none" stroke="#00fafa" stroke-width="3" d="M 580 313 L 581 312 L 583 312 L 584 313 L 586 313 L 589 316 L 589 318 L 590 319 L 590 321 L 589 322 L 589 323 L 586 326 L 583 326 L 582 327 L 581 327 L 580 326 L 578 326 L 574 322 L 574 318 L 575 317 L 575 316 L 578 313 "></path>
        <path fill="none" stroke="#fa00fa" stroke-width="3" d="M 449 468 L 448 469 L 447 469 L 446 470 L 446 475 L 448 477 L 449 477 L 450 478 L 453 478 L 454 477 L 456 477 L 457 478 L 459 478 L 460 479 L 464 479 L 465 478 L 466 478 L 466 477 L 467 476 L 467 473 L 464 470 L 457 470 L 456 469 L 454 469 L 453 468 "></path>
        <path fill="none" stroke="#00fafa" stroke-width="3" d="M 629 344 L 630 343 L 631 343 L 632 344 L 634 344 L 638 348 L 638 354 L 634 358 L 632 358 L 631 359 L 630 358 L 628 358 L 624 354 L 624 352 L 623 351 L 623 350 L 624 349 L 624 348 L 625 347 L 625 346 L 626 345 L 627 345 L 628 344 "></path>
        <path fill="none" stroke="#fa00fa" stroke-width="3" d="M 631 497 L 630 498 L 629 498 L 629 499 L 628 500 L 628 506 L 627 507 L 627 508 L 625 510 L 625 512 L 624 513 L 624 514 L 625 515 L 625 516 L 626 517 L 631 517 L 633 515 L 633 514 L 634 513 L 634 510 L 635 509 L 635 508 L 636 507 L 636 506 L 637 505 L 637 499 L 635 497 "></path>
        <path fill="none" stroke="#00fafa" stroke-width="3" d="M 636 389 L 637 388 L 639 388 L 640 389 L 641 389 L 645 393 L 645 399 L 641 403 L 637 403 L 636 402 L 635 402 L 632 399 L 632 398 L 631 397 L 631 393 L 632 392 L 632 391 L 634 389 "></path>
        <path fill="none" stroke="#fa00fa" stroke-width="3" d="M 473 432 L 472 433 L 471 433 L 471 434 L 470 435 L 470 442 L 471 443 L 471 444 L 474 447 L 475 447 L 476 448 L 478 448 L 479 447 L 480 447 L 481 446 L 481 445 L 482 444 L 482 442 L 483 441 L 482 440 L 482 437 L 481 436 L 481 435 L 478 432 "></path>
        <path fill="none" stroke="#fa00fa" stroke-width="3" d="M 497 477 L 495 479 L 495 480 L 494 481 L 494 483 L 495 484 L 495 486 L 496 487 L 496 489 L 497 490 L 497 492 L 498 493 L 498 494 L 499 495 L 504 495 L 506 493 L 506 488 L 505 487 L 505 485 L 504 484 L 504 482 L 503 481 L 503 480 L 502 479 L 502 478 L 501 478 L 500 477 "></path>
        <path fill="none" stroke="#fa00fa" stroke-width="3" d="M 541 375 L 540 376 L 539 376 L 537 378 L 537 384 L 540 387 L 541 387 L 542 388 L 544 388 L 545 389 L 546 389 L 547 388 L 549 388 L 551 386 L 551 381 L 550 380 L 550 379 L 548 377 L 547 377 L 546 376 L 544 376 L 543 375 "></path>
        <path fill="none" stroke="#fa00fa" stroke-width="3" d="M 477 468 L 475 470 L 475 471 L 474 472 L 474 475 L 475 476 L 475 479 L 476 480 L 476 482 L 477 483 L 477 484 L 478 484 L 479 485 L 481 485 L 482 484 L 483 484 L 485 482 L 485 475 L 484 474 L 484 472 L 483 471 L 483 470 L 482 469 L 481 469 L 480 468 "></path>
        <path fill="none" stroke="#fa00fa" stroke-width="3" d="M 525 430 L 524 431 L 523 431 L 522 432 L 522 433 L 521 434 L 521 439 L 524 442 L 525 442 L 526 443 L 529 443 L 530 442 L 531 442 L 532 441 L 533 441 L 533 440 L 534 439 L 534 438 L 535 437 L 535 435 L 534 434 L 534 433 L 531 430 "></path>
        <path fill="none" stroke="#00fafa" stroke-width="3" d="M 574 532 L 575 531 L 578 531 L 581 534 L 581 535 L 582 536 L 582 540 L 581 541 L 581 542 L 579 544 L 578 544 L 577 545 L 573 545 L 572 544 L 571 544 L 570 543 L 570 542 L 569 541 L 569 537 L 570 536 L 570 535 L 573 532 "></path>
        <path fill="none" stroke="#fa00fa" stroke-width="3" d="M 535 467 L 534 468 L 533 468 L 532 469 L 532 470 L 531 471 L 531 475 L 532 476 L 532 478 L 536 482 L 539 482 L 540 481 L 541 481 L 542 480 L 542 479 L 543 478 L 543 474 L 542 473 L 542 472 L 541 471 L 541 470 L 538 467 "></path>
        <path fill="none" stroke="#fa00fa" stroke-width="3" d="M 513 495 L 512 496 L 511 496 L 509 498 L 509 499 L 508 500 L 508 504 L 509 505 L 509 506 L 512 509 L 517 509 L 519 507 L 519 506 L 520 505 L 520 500 L 519 499 L 519 498 L 517 496 L 516 496 L 515 495 "></path>
        <path fill="none" stroke="#fa00fa" stroke-width="3" d="M 567 426 L 566 427 L 565 427 L 562 430 L 562 431 L 561 432 L 561 435 L 562 436 L 562 437 L 564 439 L 565 439 L 566 440 L 567 440 L 568 439 L 570 439 L 574 435 L 574 431 L 573 430 L 573 429 L 571 427 L 570 427 L 569 426 "></path>
        <path fill="none" stroke="#fa00fa" stroke-width="3" d="M 491 380 L 490 381 L 489 381 L 483 387 L 483 391 L 485 393 L 490 393 L 491 392 L 492 392 L 493 391 L 494 391 L 496 389 L 496 388 L 497 387 L 497 384 L 496 383 L 496 382 L 495 381 L 494 381 L 493 380 "></path>
        <path fill="none" stroke="#00fafa" stroke-width="3" d="M 432 529 L 433 528 L 434 529 L 435 529 L 436 530 L 437 530 L 438 531 L 438 532 L 440 534 L 440 538 L 437 541 L 436 541 L 435 542 L 433 542 L 432 541 L 431 541 L 427 537 L 427 533 L 428 532 L 428 531 L 430 529 "></path>
        <path fill="none" stroke="#00fafa" stroke-width="3" d="M 393 504 L 394 503 L 398 503 L 399 504 L 400 504 L 401 505 L 401 506 L 402 507 L 402 511 L 398 515 L 397 515 L 396 516 L 394 516 L 393 515 L 392 515 L 389 512 L 389 508 L 390 507 L 390 506 L 392 504 "></path>
        <path fill="none" stroke="#fa00fa" stroke-width="3" d="M 350 444 L 349 445 L 347 445 L 346 446 L 346 447 L 345 448 L 345 451 L 346 452 L 346 454 L 347 455 L 347 456 L 348 457 L 348 458 L 349 459 L 350 459 L 351 460 L 354 460 L 356 458 L 356 452 L 355 451 L 355 449 L 354 448 L 354 447 L 352 445 L 351 445 "></path>
        <path fill="none" stroke="#fa00fa" stroke-width="3" d="M 582 433 L 581 434 L 580 434 L 577 437 L 577 443 L 578 444 L 578 445 L 579 445 L 580 446 L 584 446 L 585 445 L 586 445 L 587 444 L 587 443 L 588 442 L 588 440 L 589 439 L 589 437 L 588 436 L 588 435 L 586 433 "></path>
        <path fill="none" stroke="#fa00fa" stroke-width="3" d="M 494 460 L 493 461 L 492 461 L 491 462 L 491 464 L 490 465 L 490 466 L 491 467 L 491 468 L 492 469 L 492 470 L 493 470 L 494 471 L 496 471 L 497 472 L 498 472 L 499 471 L 501 471 L 503 469 L 503 468 L 504 467 L 504 465 L 503 464 L 503 463 L 501 461 L 500 461 L 499 460 "></path>
        <path fill="none" stroke="#fa00fa" stroke-width="3" d="M 504 387 L 503 388 L 502 388 L 501 389 L 501 390 L 500 391 L 500 395 L 501 396 L 501 397 L 502 398 L 503 398 L 504 399 L 509 399 L 512 396 L 512 394 L 513 393 L 512 392 L 512 390 L 509 387 "></path>
        <path fill="none" stroke="#fa00fa" stroke-width="3" d="M 482 519 L 478 523 L 478 524 L 477 525 L 477 526 L 476 527 L 476 529 L 477 530 L 477 531 L 478 532 L 479 532 L 480 533 L 481 533 L 482 532 L 483 532 L 488 527 L 488 525 L 489 524 L 489 523 L 488 522 L 488 521 L 486 519 "></path>
        <path fill="none" stroke="#fa00fa" stroke-width="3" d="M 418 421 L 417 422 L 415 422 L 414 423 L 413 423 L 413 424 L 412 425 L 412 429 L 415 432 L 416 432 L 417 433 L 421 433 L 422 432 L 423 432 L 424 431 L 424 430 L 425 429 L 425 425 L 422 422 L 420 422 L 419 421 "></path>
        <path fill="none" stroke="#fa00fa" stroke-width="3" d="M 367 442 L 364 445 L 364 449 L 365 450 L 365 451 L 367 453 L 368 453 L 369 454 L 371 454 L 372 453 L 373 453 L 375 451 L 375 450 L 376 449 L 376 446 L 375 445 L 375 444 L 373 442 "></path>
        <path fill="none" stroke="#fa00fa" stroke-width="3" d="M 617 490 L 616 491 L 615 491 L 612 494 L 612 495 L 611 496 L 611 500 L 613 502 L 618 502 L 623 497 L 623 492 L 621 490 "></path>
        <path fill="none" stroke="#fa00fa" stroke-width="3" d="M 355 467 L 353 469 L 353 470 L 352 471 L 352 475 L 353 476 L 353 478 L 355 480 L 356 480 L 357 481 L 359 481 L 362 478 L 362 471 L 361 470 L 361 469 L 360 468 L 359 468 L 358 467 "></path>
        <path fill="none" stroke="#fa00fa" stroke-width="3" d="M 487 494 L 486 495 L 485 495 L 481 499 L 481 505 L 482 506 L 483 506 L 484 507 L 487 507 L 488 506 L 489 506 L 491 504 L 491 503 L 492 502 L 492 497 L 490 495 L 489 495 L 488 494 "></path>
        <path fill="none" stroke="#fa00fa" stroke-width="3" d="M 447 451 L 446 452 L 445 452 L 444 453 L 444 454 L 443 455 L 443 459 L 446 462 L 447 462 L 448 463 L 450 463 L 451 462 L 452 462 L 454 460 L 454 454 L 452 452 L 451 452 L 450 451 "></path>
        <path fill="none" stroke="#fa00fa" stroke-width="3" d="M 495 508 L 494 509 L 493 509 L 492 510 L 492 512 L 491 513 L 491 514 L 492 515 L 492 517 L 494 519 L 495 519 L 496 520 L 498 520 L 499 519 L 500 519 L 502 517 L 502 515 L 503 514 L 502 513 L 502 511 L 500 509 L 499 509 L 498 508 "></path>
        <path fill="none" stroke="#fa00fa" stroke-width="3" d="M 579 252 L 576 255 L 576 260 L 577 261 L 577 262 L 578 263 L 579 263 L 580 264 L 582 264 L 583 263 L 584 263 L 586 261 L 586 260 L 587 259 L 587 258 L 586 257 L 586 255 L 585 254 L 585 253 L 584 253 L 583 252 "></path>
        <path fill="none" stroke="#fa00fa" stroke-width="3" d="M 374 460 L 373 461 L 372 461 L 370 463 L 370 468 L 373 471 L 378 471 L 380 469 L 380 468 L 381 467 L 381 464 L 378 461 L 377 461 L 376 460 "></path>
        <path fill="none" stroke="#fa00fa" stroke-width="3" d="M 449 508 L 448 509 L 447 509 L 444 512 L 444 518 L 445 519 L 450 519 L 451 518 L 452 518 L 453 517 L 453 516 L 454 515 L 454 514 L 455 513 L 455 511 L 454 510 L 454 509 L 453 509 L 452 508 "></path>
    </g>
</svg>
