<svg xmlns="http://www.w3.org/2000/svg" xmlns:xlink="http://www.w3.org/1999/xlink" version="1.1" x="0" y="0" width="1056px" height="816px">
    <g id="rootLayer" transform="translate(0.000000, 0.000000)">
        <path fill="none" stroke="#00fafa" stroke-width="3" d="M 581 426 L 582 425 L 583 425 L 584 426 L 583 427 L 585 429 L 584 428 L 585 427 L 586 427 L 588 429 L 588 430 L 589 431 L 588 432 L 588 433 L 587 434 L 588 435 L 587 436 L 586 436 L 587 437 L 586 438 L 583 438 L 581 436 L 580 436 L 579 435 L 577 435 L 576 434 L 577 435 L 576 436 L 575 436 L 574 435 L 573 436 L 572 435 L 571 436 L 572 437 L 572 438 L 571 439 L 572 440 L 572 441 L 570 443 L 572 445 L 572 446 L 573 445 L 574 446 L 575 446 L 576 447 L 577 447 L 577 446 L 576 447 L 575 446 L 575 445 L 576 444 L 578 444 L 579 445 L 579 446 L 579 445 L 578 444 L 580 442 L 581 443 L 582 443 L 583 442 L 584 442 L 585 443 L 585 444 L 586 444 L 588 446 L 588 447 L 589 448 L 588 449 L 587 449 L 587 450 L 586 451 L 586 452 L 585 453 L 585 455 L 586 456 L 585 457 L 586 458 L 586 459 L 587 460 L 588 460 L 589 461 L 592 461 L 594 459 L 594 458 L 595 457 L 595 455 L 596 454 L 595 453 L 596 452 L 593 449 L 593 447 L 592 446 L 594 444 L 594 443 L 595 442 L 595 441 L 596 440 L 596 439 L 598 437 L 600 439 L 599 440 L 599 441 L 600 442 L 600 443 L 601 443 L 603 445 L 602 446 L 603 445 L 605 447 L 606 447 L 607 446 L 607 445 L 608 444 L 608 443 L 611 440 L 610 439 L 610 438 L 609 438 L 608 437 L 608 435 L 607 434 L 608 433 L 607 432 L 607 431 L 608 430 L 607 429 L 609 427 L 610 428 L 611 428 L 612 429 L 613 428 L 614 428 L 615 429 L 615 430 L 616 431 L 616 433 L 617 432 L 619 434 L 618 435 L 617 435 L 617 437 L 616 438 L 615 437 L 615 436 L 614 437 L 614 439 L 615 440 L 615 442 L 617 442 L 618 443 L 617 444 L 618 444 L 619 445 L 618 446 L 619 446 L 620 445 L 622 445 L 623 444 L 624 444 L 623 443 L 625 441 L 626 442 L 629 442 L 630 443 L 629 444 L 630 445 L 631 444 L 632 445 L 634 445 L 636 447 L 636 449 L 635 450 L 633 448 L 633 449 L 630 452 L 625 452 L 624 451 L 624 450 L 625 449 L 622 449 L 621 448 L 620 448 L 619 449 L 618 449 L 617 450 L 617 451 L 616 452 L 615 452 L 616 453 L 614 455 L 614 458 L 616 460 L 620 460 L 621 459 L 621 458 L 622 457 L 623 457 L 624 458 L 625 457 L 626 457 L 628 459 L 627 458 L 628 457 L 629 457 L 631 459 L 632 459 L 633 460 L 634 460 L 635 459 L 636 460 L 636 461 L 637 461 L 637 458 L 638 457 L 639 457 L 640 458 L 639 459 L 642 456 L 644 456 L 645 455 L 646 456 L 646 457 L 647 458 L 646 459 L 648 461 L 648 462 L 649 463 L 646 466 L 647 467 L 646 468 L 646 469 L 645 470 L 644 469 L 643 469 L 643 470 L 645 472 L 644 473 L 643 473 L 645 473 L 646 474 L 646 473 L 647 472 L 648 473 L 649 472 L 650 473 L 650 474 L 649 475 L 650 474 L 651 474 L 653 472 L 653 471 L 654 470 L 655 471 L 655 470 L 654 470 L 653 469 L 655 467 L 656 467 L 655 467 L 654 466 L 655 465 L 654 464 L 653 464 L 652 463 L 652 461 L 653 460 L 652 459 L 653 458 L 654 458 L 655 457 L 656 458 L 656 457 L 657 456 L 658 456 L 660 458 L 660 459 L 662 459 L 664 461 L 665 461 L 666 460 L 667 461 L 667 463 L 666 464 L 665 464 L 664 463 L 662 463 L 664 463 L 665 464 L 666 464 L 667 465 L 666 466 L 665 466 L 664 467 L 663 466 L 661 468 L 661 469 L 660 470 L 659 469 L 658 470 L 659 470 L 660 471 L 660 472 L 661 473 L 662 473 L 663 474 L 663 475 L 664 476 L 664 477 L 665 478 L 664 479 L 662 479 L 660 481 L 659 481 L 659 484 L 658 485 L 656 483 L 656 482 L 655 482 L 653 480 L 650 480 L 649 479 L 649 478 L 648 478 L 648 479 L 646 481 L 645 480 L 646 481 L 644 483 L 644 484 L 646 486 L 644 488 L 645 488 L 646 489 L 647 489 L 648 490 L 649 490 L 651 492 L 651 490 L 652 489 L 653 490 L 653 491 L 653 490 L 654 489 L 654 487 L 653 486 L 654 485 L 655 485 L 656 484 L 657 484 L 658 485 L 657 486 L 659 484 L 660 485 L 660 486 L 659 487 L 661 489 L 660 490 L 662 492 L 663 492 L 664 493 L 663 494 L 663 495 L 662 496 L 662 497 L 661 498 L 660 498 L 660 499 L 659 500 L 658 499 L 658 498 L 657 497 L 656 498 L 654 496 L 654 495 L 650 495 L 649 496 L 648 496 L 647 497 L 646 497 L 646 500 L 645 501 L 644 500 L 644 499 L 642 501 L 640 499 L 640 498 L 639 498 L 638 497 L 639 496 L 638 495 L 635 495 L 634 494 L 635 493 L 634 494 L 634 495 L 633 496 L 632 495 L 631 496 L 631 497 L 629 499 L 628 499 L 626 501 L 624 499 L 625 498 L 624 497 L 624 496 L 623 495 L 626 492 L 628 492 L 628 490 L 629 489 L 630 490 L 631 489 L 633 489 L 634 490 L 635 489 L 636 489 L 637 490 L 638 489 L 640 489 L 640 488 L 641 487 L 640 486 L 640 484 L 639 483 L 640 482 L 639 481 L 638 481 L 636 483 L 635 482 L 635 481 L 634 480 L 632 480 L 632 481 L 633 482 L 633 483 L 632 484 L 631 483 L 631 484 L 629 486 L 628 486 L 627 485 L 627 484 L 626 483 L 626 482 L 624 482 L 623 481 L 623 480 L 622 479 L 620 481 L 619 480 L 619 479 L 617 481 L 616 481 L 614 483 L 615 483 L 616 484 L 617 484 L 618 485 L 618 486 L 617 487 L 616 486 L 615 486 L 614 487 L 616 489 L 617 489 L 618 490 L 618 491 L 619 492 L 618 493 L 617 493 L 617 494 L 614 497 L 612 497 L 611 498 L 609 496 L 608 496 L 608 497 L 607 498 L 604 495 L 602 495 L 601 496 L 600 496 L 600 497 L 599 498 L 600 499 L 599 500 L 598 500 L 598 501 L 597 502 L 594 499 L 594 498 L 593 497 L 593 496 L 594 495 L 592 495 L 591 494 L 592 493 L 592 492 L 593 491 L 594 491 L 592 491 L 591 490 L 592 489 L 592 488 L 593 487 L 594 487 L 595 486 L 596 487 L 596 489 L 597 488 L 598 488 L 599 487 L 600 488 L 601 488 L 602 489 L 601 490 L 600 490 L 601 490 L 602 491 L 602 492 L 603 491 L 605 491 L 606 490 L 607 491 L 607 492 L 606 493 L 606 494 L 607 493 L 607 490 L 608 489 L 609 489 L 610 488 L 611 489 L 610 488 L 611 487 L 611 485 L 610 484 L 610 483 L 611 482 L 610 482 L 609 481 L 609 480 L 608 480 L 607 481 L 605 479 L 606 478 L 605 477 L 606 476 L 608 476 L 608 475 L 607 474 L 609 472 L 610 472 L 611 471 L 612 472 L 613 472 L 614 473 L 615 472 L 617 474 L 617 475 L 618 475 L 619 474 L 620 475 L 620 476 L 619 477 L 620 477 L 620 476 L 621 475 L 622 475 L 623 474 L 624 474 L 624 473 L 625 472 L 626 472 L 627 471 L 629 473 L 630 472 L 632 474 L 634 474 L 635 475 L 637 473 L 638 474 L 639 474 L 640 473 L 639 472 L 641 470 L 640 469 L 641 468 L 640 468 L 639 467 L 639 466 L 638 465 L 637 465 L 636 466 L 635 465 L 635 464 L 634 465 L 633 464 L 632 465 L 631 465 L 631 466 L 628 469 L 627 468 L 626 468 L 625 467 L 624 467 L 623 466 L 622 466 L 621 465 L 620 466 L 619 465 L 619 464 L 618 464 L 617 463 L 616 464 L 616 466 L 615 467 L 611 467 L 610 466 L 609 466 L 608 465 L 608 463 L 607 462 L 607 461 L 608 460 L 610 460 L 612 458 L 612 457 L 611 456 L 612 455 L 611 454 L 611 453 L 611 455 L 610 456 L 609 455 L 609 454 L 608 453 L 610 451 L 609 451 L 608 450 L 609 449 L 610 449 L 609 449 L 608 448 L 607 449 L 606 449 L 605 450 L 603 448 L 602 448 L 603 448 L 604 449 L 603 450 L 600 450 L 599 451 L 600 452 L 599 453 L 599 454 L 600 455 L 599 456 L 600 457 L 601 457 L 604 460 L 604 462 L 606 462 L 607 463 L 606 464 L 605 464 L 604 465 L 602 465 L 602 466 L 601 467 L 601 468 L 602 469 L 600 471 L 599 470 L 598 470 L 600 472 L 601 471 L 602 472 L 602 473 L 603 473 L 604 474 L 605 474 L 606 475 L 605 476 L 604 476 L 606 478 L 604 480 L 603 480 L 602 479 L 602 478 L 602 480 L 603 481 L 601 483 L 600 482 L 600 481 L 599 482 L 598 482 L 594 478 L 593 479 L 592 478 L 592 477 L 591 476 L 591 475 L 592 474 L 593 475 L 594 474 L 595 474 L 596 473 L 596 470 L 595 470 L 594 469 L 594 468 L 595 467 L 594 467 L 592 465 L 593 464 L 592 463 L 593 464 L 592 465 L 591 465 L 590 466 L 589 466 L 588 465 L 587 465 L 586 466 L 587 467 L 585 469 L 586 468 L 587 469 L 587 470 L 585 472 L 586 473 L 587 472 L 588 473 L 588 475 L 589 476 L 588 477 L 589 476 L 591 478 L 590 479 L 586 479 L 586 480 L 584 482 L 585 483 L 585 485 L 586 486 L 586 487 L 585 488 L 584 487 L 584 488 L 586 490 L 586 491 L 587 492 L 587 495 L 586 496 L 586 498 L 585 499 L 584 498 L 583 498 L 582 499 L 581 498 L 581 499 L 580 500 L 579 499 L 579 496 L 578 496 L 577 495 L 577 492 L 578 491 L 578 490 L 580 488 L 579 487 L 580 486 L 577 483 L 578 482 L 578 480 L 577 479 L 576 479 L 573 476 L 573 475 L 575 473 L 576 474 L 576 475 L 578 473 L 577 472 L 579 470 L 580 471 L 581 470 L 580 469 L 580 467 L 581 466 L 582 467 L 579 464 L 579 462 L 578 461 L 579 460 L 579 459 L 582 456 L 583 456 L 581 454 L 581 453 L 580 452 L 579 453 L 578 452 L 577 453 L 575 451 L 574 451 L 573 450 L 572 450 L 571 451 L 571 452 L 570 453 L 569 453 L 568 454 L 566 452 L 565 452 L 564 451 L 563 451 L 562 450 L 561 451 L 560 451 L 559 452 L 556 449 L 557 450 L 556 451 L 555 451 L 554 450 L 552 452 L 550 450 L 548 450 L 547 449 L 548 448 L 547 449 L 546 448 L 546 447 L 548 445 L 548 444 L 547 444 L 546 443 L 548 441 L 549 442 L 550 442 L 551 443 L 551 442 L 550 442 L 549 441 L 550 440 L 551 440 L 552 439 L 554 441 L 553 442 L 553 443 L 555 443 L 556 444 L 556 447 L 559 447 L 560 448 L 561 448 L 561 447 L 563 445 L 563 444 L 564 443 L 564 441 L 566 439 L 566 438 L 563 435 L 563 434 L 562 434 L 561 433 L 562 432 L 561 432 L 560 431 L 561 430 L 563 430 L 564 429 L 565 430 L 566 429 L 565 428 L 566 427 L 567 427 L 568 426 L 571 429 L 570 430 L 571 429 L 572 429 L 573 430 L 572 431 L 573 431 L 573 430 L 574 429 L 576 431 L 576 432 L 578 430 L 579 431 L 578 430 L 579 429 L 578 428 L 580 426 L 581 427 "></path>
        <path fill="none" stroke="#00fafa" stroke-width="3" d="M 537 437 L 538 438 L 538 439 L 539 440 L 539 441 L 538 442 L 539 441 L 540 442 L 540 444 L 541 444 L 542 445 L 542 446 L 543 445 L 544 446 L 544 447 L 543 448 L 544 448 L 545 449 L 545 450 L 544 451 L 543 450 L 542 451 L 542 453 L 541 454 L 540 453 L 540 452 L 540 453 L 539 454 L 539 456 L 541 458 L 541 459 L 542 459 L 543 460 L 542 461 L 541 461 L 541 463 L 540 464 L 541 465 L 541 467 L 540 468 L 541 469 L 540 470 L 539 470 L 538 469 L 538 468 L 537 467 L 538 466 L 537 467 L 537 468 L 536 469 L 535 469 L 534 468 L 534 466 L 533 466 L 531 464 L 530 464 L 529 465 L 528 464 L 526 466 L 525 466 L 526 467 L 526 468 L 525 469 L 524 469 L 523 470 L 524 471 L 522 473 L 521 472 L 520 472 L 519 471 L 519 470 L 518 469 L 519 468 L 519 467 L 518 466 L 517 466 L 515 464 L 513 464 L 512 463 L 512 464 L 511 465 L 511 466 L 510 467 L 510 468 L 511 469 L 511 471 L 510 472 L 512 474 L 513 474 L 514 475 L 514 476 L 515 475 L 517 475 L 520 472 L 521 472 L 522 473 L 523 473 L 525 475 L 526 474 L 528 476 L 528 477 L 530 477 L 529 476 L 529 475 L 530 474 L 533 474 L 534 475 L 534 474 L 536 472 L 537 472 L 538 471 L 540 471 L 541 472 L 540 473 L 541 472 L 542 473 L 542 474 L 545 477 L 546 477 L 545 476 L 546 475 L 550 475 L 551 474 L 550 473 L 551 472 L 553 472 L 553 471 L 554 470 L 555 471 L 555 472 L 556 473 L 556 475 L 555 476 L 555 478 L 556 479 L 556 480 L 553 483 L 553 484 L 554 485 L 554 487 L 553 488 L 554 487 L 555 488 L 555 489 L 554 490 L 554 492 L 557 495 L 557 496 L 556 497 L 555 497 L 553 499 L 550 499 L 549 498 L 549 496 L 550 495 L 549 495 L 548 494 L 547 495 L 546 494 L 545 495 L 544 494 L 544 493 L 544 494 L 543 495 L 542 494 L 542 493 L 541 492 L 542 493 L 542 495 L 541 496 L 540 495 L 540 494 L 540 496 L 538 498 L 539 497 L 540 498 L 540 500 L 541 501 L 540 502 L 540 506 L 541 506 L 543 508 L 543 510 L 542 511 L 543 512 L 543 513 L 542 514 L 541 513 L 540 514 L 541 515 L 540 516 L 540 517 L 539 518 L 541 518 L 542 519 L 542 518 L 543 517 L 545 519 L 545 520 L 545 519 L 546 518 L 547 519 L 547 520 L 548 519 L 549 519 L 550 518 L 550 517 L 552 515 L 554 517 L 553 518 L 556 521 L 555 522 L 556 522 L 557 523 L 557 524 L 558 525 L 557 526 L 556 526 L 556 527 L 555 528 L 554 527 L 553 528 L 551 526 L 550 526 L 548 524 L 547 525 L 545 525 L 544 524 L 544 523 L 541 526 L 541 527 L 540 528 L 539 528 L 540 529 L 538 531 L 537 530 L 536 530 L 533 527 L 533 525 L 531 525 L 530 524 L 528 524 L 527 525 L 526 525 L 525 524 L 525 523 L 526 522 L 528 522 L 529 521 L 531 521 L 532 520 L 532 518 L 531 517 L 532 516 L 534 516 L 534 514 L 535 513 L 534 512 L 534 511 L 533 512 L 531 510 L 531 507 L 532 506 L 533 507 L 534 506 L 534 505 L 536 503 L 537 504 L 535 502 L 535 497 L 536 496 L 535 495 L 533 495 L 532 494 L 530 494 L 529 493 L 529 494 L 528 495 L 527 495 L 526 496 L 525 496 L 524 497 L 523 496 L 522 497 L 521 497 L 520 496 L 520 495 L 519 495 L 518 496 L 517 496 L 516 495 L 516 494 L 515 493 L 514 494 L 513 494 L 509 498 L 508 498 L 507 497 L 506 498 L 504 496 L 503 496 L 502 495 L 503 494 L 501 492 L 499 494 L 498 493 L 498 492 L 500 490 L 502 490 L 504 488 L 505 489 L 505 488 L 506 487 L 507 488 L 506 487 L 507 486 L 508 486 L 510 488 L 512 488 L 513 489 L 513 491 L 514 491 L 515 490 L 516 491 L 517 491 L 517 490 L 519 488 L 521 488 L 522 487 L 523 487 L 524 488 L 524 489 L 525 488 L 526 488 L 527 489 L 528 489 L 529 488 L 530 489 L 531 488 L 532 489 L 534 489 L 535 488 L 535 487 L 536 486 L 534 486 L 533 485 L 534 484 L 535 484 L 535 483 L 536 482 L 535 481 L 534 482 L 533 482 L 532 481 L 531 482 L 530 481 L 530 480 L 525 480 L 524 481 L 523 481 L 523 482 L 522 483 L 521 483 L 520 482 L 521 481 L 520 480 L 519 480 L 518 479 L 517 479 L 516 478 L 517 477 L 518 477 L 516 477 L 516 479 L 515 480 L 514 479 L 515 480 L 514 481 L 510 481 L 510 483 L 509 484 L 508 483 L 508 481 L 506 483 L 504 481 L 505 480 L 504 479 L 503 480 L 501 480 L 499 478 L 499 477 L 500 476 L 501 477 L 500 476 L 501 475 L 502 475 L 501 474 L 502 473 L 504 473 L 503 472 L 504 471 L 505 471 L 507 469 L 505 467 L 506 466 L 505 465 L 505 464 L 504 464 L 502 462 L 502 461 L 505 458 L 506 458 L 507 457 L 508 458 L 508 459 L 508 458 L 509 457 L 514 462 L 515 462 L 516 461 L 517 462 L 518 461 L 519 462 L 520 462 L 519 461 L 520 460 L 518 458 L 519 457 L 519 456 L 520 455 L 522 455 L 523 454 L 524 455 L 524 457 L 524 455 L 525 454 L 526 455 L 526 458 L 527 458 L 528 459 L 528 461 L 529 460 L 529 459 L 530 458 L 532 460 L 534 458 L 535 458 L 534 457 L 535 456 L 537 456 L 537 455 L 536 455 L 535 454 L 536 453 L 536 451 L 535 450 L 534 450 L 533 451 L 532 450 L 532 449 L 533 448 L 532 448 L 531 447 L 531 446 L 532 445 L 533 446 L 534 446 L 534 445 L 535 444 L 535 443 L 536 442 L 535 441 L 536 440 L 535 439 "></path>
        <path fill="none" stroke="#00fafa" stroke-width="3" d="M 568 368 L 569 367 L 570 368 L 570 369 L 569 370 L 570 371 L 571 371 L 572 372 L 573 371 L 575 373 L 574 374 L 573 374 L 572 375 L 572 376 L 570 378 L 571 379 L 570 380 L 572 382 L 572 383 L 573 384 L 572 385 L 571 385 L 572 386 L 574 386 L 575 387 L 574 388 L 573 388 L 574 388 L 575 389 L 573 391 L 572 391 L 570 393 L 569 393 L 570 394 L 570 395 L 571 396 L 571 399 L 572 400 L 573 400 L 574 401 L 574 403 L 576 401 L 577 402 L 577 401 L 578 400 L 579 400 L 579 397 L 578 396 L 579 395 L 579 393 L 580 392 L 580 391 L 578 389 L 579 388 L 578 389 L 577 388 L 577 387 L 578 386 L 577 385 L 578 384 L 581 384 L 582 383 L 582 382 L 583 381 L 585 383 L 586 383 L 587 384 L 587 385 L 588 385 L 589 386 L 589 385 L 590 384 L 593 387 L 592 388 L 591 388 L 592 389 L 591 390 L 587 390 L 588 391 L 584 395 L 585 396 L 584 397 L 586 397 L 587 398 L 586 399 L 588 401 L 588 400 L 589 399 L 590 399 L 591 400 L 591 399 L 593 397 L 594 398 L 595 397 L 596 397 L 597 396 L 599 396 L 602 399 L 602 400 L 603 399 L 605 399 L 607 401 L 607 402 L 606 403 L 605 403 L 604 402 L 605 403 L 604 404 L 603 404 L 602 405 L 601 405 L 600 406 L 598 406 L 598 407 L 597 408 L 596 407 L 596 406 L 595 407 L 594 406 L 592 406 L 591 405 L 588 405 L 588 406 L 587 407 L 586 407 L 587 408 L 585 410 L 586 409 L 587 410 L 587 411 L 586 412 L 587 413 L 586 414 L 587 414 L 588 415 L 587 416 L 586 416 L 586 421 L 587 422 L 584 425 L 582 425 L 581 424 L 580 424 L 579 423 L 579 422 L 580 421 L 579 421 L 578 420 L 578 419 L 576 419 L 575 418 L 576 417 L 577 417 L 578 416 L 579 416 L 579 413 L 580 412 L 581 413 L 581 412 L 580 412 L 579 411 L 580 410 L 580 408 L 579 407 L 579 406 L 577 404 L 576 404 L 574 406 L 572 406 L 571 405 L 570 405 L 569 406 L 568 405 L 567 406 L 562 406 L 561 405 L 560 406 L 557 406 L 558 407 L 557 408 L 557 409 L 556 410 L 555 409 L 555 408 L 555 409 L 554 410 L 553 410 L 552 409 L 552 408 L 550 406 L 550 405 L 548 405 L 547 404 L 547 403 L 546 402 L 544 404 L 543 404 L 541 406 L 538 406 L 537 407 L 537 408 L 536 409 L 535 408 L 535 407 L 534 406 L 534 405 L 533 405 L 531 403 L 532 402 L 533 402 L 532 402 L 531 401 L 532 400 L 533 400 L 535 398 L 536 398 L 536 397 L 535 397 L 534 396 L 535 395 L 536 395 L 536 394 L 535 393 L 535 390 L 533 388 L 533 387 L 535 385 L 537 385 L 537 384 L 536 383 L 536 382 L 535 382 L 534 381 L 535 380 L 535 378 L 534 377 L 535 376 L 535 375 L 534 374 L 534 372 L 533 372 L 532 371 L 534 369 L 536 369 L 537 368 L 538 369 L 539 369 L 540 370 L 541 369 L 543 369 L 544 370 L 543 371 L 542 371 L 544 371 L 546 373 L 543 376 L 542 376 L 541 377 L 539 377 L 540 377 L 541 378 L 540 379 L 540 382 L 541 383 L 541 385 L 542 384 L 543 385 L 543 386 L 544 387 L 544 388 L 544 387 L 543 386 L 544 385 L 545 385 L 546 386 L 546 385 L 547 384 L 548 385 L 549 385 L 552 382 L 552 380 L 554 378 L 555 379 L 555 381 L 554 382 L 554 383 L 555 384 L 555 385 L 558 385 L 559 386 L 560 385 L 562 385 L 563 384 L 564 385 L 565 384 L 566 384 L 565 383 L 566 382 L 566 381 L 565 380 L 565 378 L 564 377 L 564 375 L 563 376 L 561 374 L 563 372 L 563 371 L 566 368 "></path>
        <path fill="none" stroke="#00fafa" stroke-width="3" d="M 477 384 L 478 383 L 480 383 L 482 385 L 482 386 L 483 387 L 484 386 L 485 387 L 485 388 L 484 389 L 483 389 L 482 390 L 481 389 L 481 390 L 479 392 L 479 395 L 478 396 L 477 395 L 478 396 L 478 397 L 479 398 L 478 399 L 478 401 L 479 400 L 480 400 L 481 401 L 482 400 L 484 402 L 482 404 L 481 403 L 482 404 L 481 405 L 480 405 L 481 406 L 481 407 L 480 408 L 481 409 L 480 410 L 481 410 L 482 411 L 481 412 L 483 412 L 484 413 L 484 415 L 485 415 L 486 416 L 487 415 L 488 415 L 488 414 L 490 412 L 492 412 L 493 413 L 494 413 L 495 414 L 497 414 L 498 415 L 497 416 L 498 417 L 499 416 L 500 417 L 500 418 L 497 421 L 496 421 L 496 423 L 495 424 L 496 425 L 496 426 L 495 427 L 495 429 L 496 429 L 497 430 L 497 431 L 498 432 L 496 434 L 496 435 L 497 436 L 494 439 L 492 439 L 489 436 L 489 435 L 486 435 L 485 434 L 487 432 L 488 432 L 488 431 L 489 430 L 489 429 L 491 427 L 492 427 L 491 427 L 490 426 L 490 425 L 491 424 L 490 423 L 491 422 L 490 421 L 488 421 L 487 420 L 485 420 L 484 419 L 483 420 L 483 421 L 482 422 L 481 421 L 481 422 L 480 423 L 479 422 L 480 423 L 479 424 L 477 424 L 474 421 L 473 422 L 472 421 L 472 420 L 471 420 L 470 421 L 469 420 L 468 421 L 467 421 L 466 420 L 465 421 L 465 422 L 464 423 L 463 422 L 462 423 L 463 422 L 465 424 L 464 425 L 465 426 L 464 427 L 464 428 L 465 428 L 466 429 L 465 430 L 466 431 L 468 431 L 469 432 L 469 433 L 468 434 L 468 435 L 466 437 L 464 437 L 462 435 L 461 435 L 460 434 L 460 436 L 459 437 L 458 436 L 458 435 L 457 434 L 458 433 L 457 432 L 458 431 L 458 430 L 459 429 L 460 429 L 462 427 L 462 426 L 460 424 L 460 422 L 459 421 L 453 421 L 452 420 L 451 420 L 450 419 L 449 420 L 447 418 L 446 419 L 445 419 L 444 418 L 445 417 L 445 416 L 445 417 L 444 418 L 443 417 L 443 415 L 445 413 L 446 414 L 447 413 L 447 409 L 448 408 L 447 407 L 447 405 L 445 403 L 445 402 L 444 401 L 444 400 L 445 399 L 445 396 L 446 395 L 447 395 L 448 394 L 450 396 L 450 397 L 451 397 L 452 398 L 451 399 L 453 401 L 453 402 L 457 402 L 458 403 L 457 404 L 458 403 L 459 403 L 460 402 L 461 402 L 462 401 L 464 401 L 465 402 L 467 402 L 468 403 L 468 404 L 467 405 L 466 405 L 464 407 L 463 407 L 462 406 L 457 406 L 456 407 L 455 407 L 454 406 L 454 404 L 453 405 L 452 405 L 453 406 L 452 407 L 450 407 L 452 409 L 452 410 L 451 411 L 451 412 L 453 414 L 454 414 L 455 415 L 456 415 L 457 416 L 459 414 L 461 414 L 463 412 L 464 413 L 465 412 L 468 415 L 472 415 L 473 414 L 474 414 L 476 412 L 475 411 L 476 410 L 477 410 L 476 410 L 474 408 L 474 407 L 475 406 L 474 407 L 470 403 L 471 402 L 472 402 L 473 401 L 474 401 L 474 400 L 473 400 L 472 399 L 474 397 L 476 397 L 474 395 L 475 394 L 475 393 L 474 393 L 473 392 L 473 391 L 471 389 L 470 389 L 469 388 L 470 387 L 471 387 L 472 386 L 474 386 L 474 385 L 475 384 "></path>
        <path fill="none" stroke="#00fafa" stroke-width="3" d="M 612 501 L 613 500 L 614 501 L 614 502 L 615 501 L 616 502 L 616 504 L 617 505 L 618 505 L 617 504 L 618 503 L 619 503 L 621 505 L 621 506 L 622 506 L 623 505 L 624 505 L 624 503 L 626 501 L 627 501 L 628 500 L 631 503 L 632 503 L 635 506 L 634 507 L 633 507 L 632 506 L 632 509 L 630 511 L 630 513 L 629 514 L 628 514 L 629 514 L 630 513 L 631 514 L 631 515 L 630 516 L 627 516 L 628 516 L 629 517 L 628 518 L 629 517 L 630 518 L 630 519 L 631 519 L 633 521 L 634 521 L 637 524 L 636 525 L 635 525 L 633 523 L 633 524 L 634 525 L 633 526 L 632 526 L 631 525 L 632 526 L 631 527 L 630 527 L 630 528 L 629 529 L 628 528 L 629 529 L 628 530 L 629 531 L 629 533 L 630 533 L 631 532 L 632 533 L 632 534 L 631 535 L 632 536 L 631 537 L 631 538 L 630 539 L 630 540 L 631 541 L 631 542 L 630 543 L 627 543 L 626 542 L 625 543 L 624 542 L 624 541 L 623 540 L 622 541 L 619 538 L 620 537 L 620 536 L 621 535 L 622 535 L 623 534 L 625 534 L 625 532 L 624 531 L 626 529 L 626 526 L 625 525 L 624 525 L 623 524 L 623 523 L 624 522 L 624 521 L 623 520 L 624 519 L 625 519 L 624 518 L 625 517 L 624 516 L 625 515 L 624 514 L 625 513 L 622 510 L 621 511 L 620 510 L 619 510 L 618 509 L 619 508 L 617 508 L 616 507 L 615 508 L 615 509 L 617 511 L 616 512 L 615 512 L 615 513 L 616 514 L 617 514 L 618 515 L 617 516 L 616 516 L 615 517 L 614 516 L 614 515 L 614 516 L 615 517 L 615 519 L 617 521 L 618 521 L 619 522 L 619 523 L 620 524 L 619 525 L 618 525 L 617 524 L 616 525 L 617 526 L 616 527 L 615 527 L 615 528 L 614 529 L 614 531 L 616 533 L 616 535 L 617 536 L 617 537 L 618 538 L 617 539 L 617 541 L 615 543 L 614 543 L 615 544 L 615 545 L 614 546 L 613 545 L 611 545 L 610 544 L 611 543 L 610 543 L 607 540 L 607 539 L 604 542 L 603 542 L 602 541 L 597 541 L 596 542 L 595 541 L 595 540 L 594 541 L 593 540 L 593 539 L 592 538 L 593 537 L 592 537 L 591 536 L 592 535 L 594 535 L 593 534 L 593 532 L 594 531 L 594 530 L 595 529 L 595 528 L 596 527 L 597 528 L 597 530 L 598 530 L 599 529 L 600 530 L 600 534 L 601 533 L 603 535 L 604 535 L 605 534 L 606 535 L 607 534 L 608 534 L 608 533 L 607 532 L 609 530 L 609 529 L 608 528 L 609 527 L 608 527 L 607 526 L 606 527 L 605 526 L 605 525 L 607 523 L 606 522 L 606 521 L 607 520 L 608 521 L 609 520 L 609 518 L 610 517 L 610 516 L 609 515 L 610 514 L 609 513 L 609 511 L 608 511 L 607 510 L 605 510 L 604 511 L 602 509 L 603 508 L 604 508 L 603 508 L 602 507 L 603 508 L 601 510 L 601 511 L 602 512 L 601 513 L 600 513 L 599 514 L 600 515 L 599 516 L 598 516 L 597 515 L 596 516 L 595 516 L 594 515 L 595 514 L 594 513 L 594 512 L 593 511 L 592 511 L 591 510 L 592 509 L 593 509 L 592 508 L 594 506 L 595 506 L 595 505 L 594 505 L 593 504 L 594 503 L 600 503 L 601 504 L 600 505 L 601 504 L 602 505 L 603 505 L 604 506 L 605 505 L 606 506 L 607 506 L 606 505 L 606 504 L 607 503 L 609 505 L 609 504 L 610 503 L 611 504 L 611 503 L 610 502 L 611 501 "></path>
        <path fill="none" stroke="#00fafa" stroke-width="3" d="M 416 396 L 417 395 L 419 397 L 419 398 L 421 398 L 424 401 L 424 402 L 425 402 L 427 400 L 428 401 L 427 400 L 428 399 L 429 399 L 430 400 L 431 399 L 432 399 L 433 398 L 434 398 L 435 399 L 434 400 L 436 402 L 437 401 L 438 402 L 439 401 L 440 402 L 440 403 L 439 404 L 438 404 L 438 407 L 437 408 L 438 409 L 435 412 L 436 413 L 436 414 L 438 414 L 439 415 L 439 417 L 438 418 L 438 419 L 437 420 L 436 420 L 437 421 L 436 422 L 435 422 L 436 422 L 437 423 L 436 424 L 435 424 L 435 426 L 436 427 L 436 431 L 437 432 L 436 433 L 436 434 L 437 435 L 436 436 L 435 436 L 434 435 L 433 435 L 432 434 L 430 434 L 430 435 L 429 436 L 427 434 L 426 435 L 425 434 L 423 434 L 421 436 L 420 436 L 420 437 L 418 439 L 417 439 L 416 438 L 417 437 L 416 436 L 414 436 L 413 437 L 412 436 L 412 434 L 413 433 L 412 434 L 410 432 L 411 431 L 412 431 L 413 430 L 413 429 L 415 427 L 416 427 L 417 426 L 420 426 L 422 428 L 422 429 L 423 429 L 424 428 L 425 429 L 426 429 L 427 430 L 427 431 L 429 429 L 429 428 L 430 427 L 431 428 L 431 427 L 432 426 L 431 426 L 430 425 L 432 423 L 432 422 L 431 422 L 430 421 L 431 420 L 430 419 L 430 420 L 429 421 L 428 420 L 428 419 L 424 419 L 424 420 L 423 421 L 422 420 L 421 420 L 419 422 L 419 424 L 418 425 L 417 425 L 416 424 L 416 422 L 415 422 L 414 421 L 414 420 L 412 420 L 410 418 L 411 417 L 410 416 L 411 415 L 412 415 L 413 416 L 415 414 L 416 414 L 415 413 L 415 412 L 416 411 L 417 412 L 416 411 L 417 410 L 416 410 L 415 409 L 415 407 L 414 406 L 413 407 L 412 407 L 411 406 L 412 405 L 411 404 L 411 402 L 410 401 L 411 400 L 413 400 L 413 399 L 415 397 L 416 397 "></path>
        <path fill="none" stroke="#00fafa" stroke-width="3" d="M 476 289 L 477 288 L 478 289 L 478 290 L 479 291 L 479 292 L 480 293 L 480 294 L 481 295 L 480 296 L 481 295 L 483 295 L 484 296 L 483 297 L 483 298 L 483 297 L 484 296 L 485 296 L 486 295 L 489 295 L 489 294 L 491 292 L 493 292 L 494 293 L 494 295 L 496 297 L 496 299 L 495 300 L 496 301 L 496 303 L 494 305 L 493 304 L 494 305 L 494 306 L 495 307 L 496 307 L 497 308 L 497 309 L 498 309 L 499 310 L 498 311 L 499 311 L 500 312 L 497 315 L 496 315 L 496 316 L 495 317 L 494 317 L 493 318 L 492 317 L 493 318 L 492 319 L 491 319 L 489 317 L 489 316 L 488 315 L 487 315 L 486 314 L 486 313 L 486 314 L 485 315 L 485 316 L 484 317 L 483 316 L 483 317 L 482 318 L 481 317 L 481 318 L 480 319 L 480 320 L 481 320 L 482 321 L 481 322 L 480 322 L 481 323 L 482 323 L 484 325 L 484 326 L 483 327 L 484 326 L 485 326 L 486 325 L 485 324 L 486 323 L 487 323 L 488 322 L 489 322 L 489 321 L 490 320 L 491 321 L 492 320 L 494 320 L 495 321 L 495 322 L 494 323 L 493 322 L 493 323 L 494 323 L 495 322 L 497 324 L 498 324 L 499 325 L 498 326 L 497 326 L 499 328 L 497 330 L 496 330 L 496 331 L 495 332 L 494 332 L 495 333 L 493 335 L 491 333 L 490 333 L 489 332 L 489 331 L 488 331 L 487 330 L 486 330 L 485 329 L 485 328 L 484 329 L 483 329 L 481 331 L 480 330 L 480 331 L 479 332 L 474 332 L 473 331 L 474 330 L 475 330 L 474 329 L 473 329 L 473 330 L 472 331 L 471 330 L 471 329 L 470 328 L 471 327 L 472 327 L 474 325 L 474 324 L 476 322 L 475 322 L 474 321 L 474 320 L 475 319 L 476 320 L 475 319 L 476 318 L 475 318 L 473 316 L 473 315 L 472 314 L 473 313 L 474 313 L 473 312 L 474 311 L 474 310 L 475 309 L 475 308 L 476 307 L 476 306 L 477 305 L 478 306 L 478 307 L 480 309 L 481 309 L 482 310 L 483 310 L 484 311 L 484 312 L 485 311 L 486 311 L 486 310 L 487 309 L 488 310 L 488 308 L 489 307 L 490 308 L 490 307 L 489 306 L 489 303 L 488 303 L 487 302 L 487 300 L 486 301 L 485 300 L 484 301 L 483 300 L 484 301 L 483 302 L 482 302 L 482 303 L 481 304 L 480 303 L 479 303 L 479 304 L 478 305 L 477 304 L 477 301 L 476 302 L 474 300 L 475 299 L 474 300 L 473 299 L 473 297 L 472 296 L 474 294 L 475 294 L 475 293 L 476 292 "></path>
        <path fill="none" stroke="#00fafa" stroke-width="3" d="M 521 367 L 522 366 L 523 366 L 527 370 L 526 371 L 527 372 L 527 375 L 526 376 L 525 376 L 526 377 L 526 378 L 525 379 L 524 378 L 525 379 L 524 380 L 525 381 L 525 382 L 524 383 L 523 382 L 523 383 L 526 386 L 526 388 L 527 389 L 526 390 L 526 391 L 523 394 L 525 396 L 524 397 L 524 398 L 525 399 L 525 400 L 526 401 L 527 401 L 530 404 L 529 405 L 528 405 L 527 404 L 526 405 L 526 406 L 525 407 L 524 407 L 525 408 L 524 409 L 525 410 L 524 411 L 525 412 L 525 413 L 527 415 L 527 417 L 526 418 L 526 419 L 523 422 L 523 423 L 524 424 L 523 425 L 524 426 L 524 429 L 526 429 L 527 430 L 526 431 L 528 433 L 528 435 L 527 436 L 525 434 L 525 433 L 524 434 L 523 433 L 523 432 L 522 432 L 521 431 L 521 430 L 522 429 L 522 428 L 520 426 L 520 425 L 521 424 L 521 423 L 520 422 L 519 422 L 518 421 L 518 420 L 517 420 L 515 418 L 519 414 L 521 414 L 520 413 L 521 412 L 521 411 L 520 410 L 521 409 L 520 408 L 520 406 L 518 406 L 517 405 L 516 406 L 515 405 L 514 405 L 513 404 L 510 407 L 509 407 L 510 408 L 510 409 L 509 410 L 510 411 L 508 413 L 504 409 L 505 408 L 506 408 L 504 406 L 504 405 L 502 403 L 505 400 L 505 399 L 504 398 L 507 395 L 509 395 L 511 397 L 511 398 L 512 398 L 513 399 L 517 399 L 518 398 L 519 398 L 520 397 L 519 397 L 518 396 L 519 395 L 520 395 L 521 394 L 521 393 L 520 393 L 518 391 L 518 390 L 517 390 L 516 389 L 517 388 L 518 388 L 517 387 L 517 386 L 518 385 L 518 384 L 520 382 L 519 381 L 519 380 L 518 379 L 519 378 L 519 376 L 518 375 L 518 374 L 517 375 L 515 373 L 516 372 L 515 371 L 516 370 L 518 370 L 520 368 L 521 369 L 522 368 "></path>
        <path fill="none" stroke="#00fafa" stroke-width="3" d="M 583 516 L 584 516 L 585 517 L 586 517 L 587 518 L 589 518 L 590 519 L 590 521 L 591 522 L 590 523 L 590 524 L 591 525 L 590 526 L 589 526 L 588 525 L 588 524 L 588 525 L 587 526 L 586 525 L 585 526 L 585 527 L 584 528 L 585 529 L 585 530 L 584 531 L 585 532 L 584 533 L 584 534 L 586 534 L 587 535 L 586 536 L 587 536 L 588 537 L 587 538 L 588 539 L 587 540 L 586 540 L 584 542 L 583 542 L 582 541 L 583 542 L 581 544 L 580 543 L 580 542 L 578 540 L 577 541 L 576 540 L 576 539 L 576 540 L 575 541 L 574 540 L 575 541 L 574 542 L 573 542 L 572 541 L 571 541 L 569 543 L 568 542 L 569 543 L 568 544 L 567 544 L 566 543 L 566 542 L 566 543 L 565 544 L 564 544 L 563 543 L 564 542 L 563 541 L 562 541 L 561 540 L 561 539 L 560 538 L 562 536 L 563 537 L 563 535 L 565 533 L 565 532 L 564 531 L 566 529 L 564 527 L 564 526 L 565 525 L 564 524 L 565 523 L 565 521 L 564 520 L 565 519 L 566 519 L 567 520 L 567 522 L 568 521 L 568 520 L 569 519 L 570 519 L 571 518 L 572 518 L 573 519 L 573 520 L 575 520 L 577 518 L 581 518 "></path>
        <path fill="none" stroke="#00fafa" stroke-width="3" d="M 491 440 L 492 439 L 494 439 L 495 440 L 495 441 L 494 442 L 495 443 L 496 443 L 497 444 L 497 445 L 499 447 L 499 448 L 500 448 L 499 447 L 499 446 L 500 445 L 502 447 L 502 446 L 503 445 L 506 448 L 504 450 L 502 450 L 501 451 L 500 450 L 499 451 L 498 451 L 498 452 L 497 453 L 497 454 L 496 455 L 494 455 L 494 456 L 496 458 L 495 459 L 496 458 L 497 458 L 498 459 L 497 460 L 498 460 L 499 461 L 498 462 L 497 462 L 498 463 L 497 464 L 497 466 L 496 467 L 495 466 L 495 468 L 494 469 L 493 469 L 492 468 L 492 470 L 493 469 L 495 471 L 495 473 L 496 474 L 496 476 L 497 477 L 498 477 L 499 478 L 499 479 L 498 480 L 498 481 L 497 482 L 496 481 L 496 480 L 496 481 L 495 482 L 494 482 L 494 484 L 495 485 L 494 486 L 494 487 L 496 489 L 496 490 L 497 491 L 497 492 L 495 494 L 496 495 L 495 496 L 494 496 L 494 498 L 493 499 L 493 500 L 494 501 L 492 503 L 490 501 L 490 499 L 489 498 L 490 497 L 489 497 L 488 496 L 489 495 L 488 495 L 487 494 L 487 493 L 488 492 L 488 490 L 489 489 L 489 488 L 488 488 L 487 487 L 488 486 L 488 485 L 490 483 L 489 482 L 490 481 L 489 480 L 489 479 L 487 479 L 485 477 L 484 477 L 483 476 L 484 475 L 488 475 L 490 473 L 490 472 L 489 471 L 490 470 L 490 468 L 488 466 L 489 465 L 489 464 L 488 464 L 487 463 L 488 462 L 487 461 L 489 459 L 490 459 L 491 458 L 490 458 L 489 457 L 490 456 L 491 456 L 490 455 L 492 453 L 492 452 L 490 452 L 489 451 L 490 450 L 491 450 L 491 449 L 490 449 L 489 448 L 489 447 L 488 446 L 488 445 L 489 444 L 491 444 L 490 443 L 491 442 L 492 442 L 491 441 "></path>
        <path fill="none" stroke="#00fafa" stroke-width="3" d="M 616 365 L 617 366 L 617 367 L 616 368 L 617 368 L 618 369 L 617 370 L 616 370 L 616 371 L 617 372 L 619 372 L 620 373 L 619 374 L 618 374 L 617 375 L 617 376 L 616 377 L 615 376 L 616 377 L 616 378 L 614 380 L 614 382 L 615 383 L 616 382 L 617 383 L 617 384 L 618 385 L 619 384 L 620 385 L 622 385 L 623 384 L 625 384 L 626 383 L 627 383 L 626 383 L 625 382 L 626 381 L 626 380 L 627 379 L 628 379 L 629 380 L 628 381 L 629 382 L 629 384 L 634 384 L 635 385 L 636 385 L 637 384 L 638 385 L 641 382 L 642 383 L 643 382 L 645 384 L 645 386 L 646 387 L 645 388 L 644 388 L 643 389 L 641 389 L 640 390 L 638 390 L 637 389 L 636 389 L 633 386 L 634 387 L 634 388 L 635 389 L 637 389 L 638 390 L 637 391 L 633 391 L 632 392 L 631 392 L 630 391 L 630 393 L 629 394 L 629 395 L 628 396 L 627 395 L 626 395 L 625 396 L 624 395 L 624 394 L 625 393 L 623 391 L 623 390 L 621 390 L 620 389 L 618 391 L 617 391 L 616 392 L 615 392 L 615 393 L 614 394 L 613 393 L 613 392 L 613 394 L 614 395 L 613 396 L 612 396 L 611 395 L 611 393 L 609 393 L 608 392 L 609 391 L 608 392 L 607 391 L 607 390 L 605 390 L 604 389 L 602 389 L 601 388 L 601 386 L 603 384 L 604 384 L 605 385 L 605 386 L 604 387 L 605 387 L 605 386 L 607 384 L 608 384 L 608 382 L 609 381 L 610 382 L 611 381 L 612 381 L 611 381 L 610 380 L 611 379 L 612 379 L 611 379 L 610 378 L 610 377 L 609 376 L 609 374 L 608 375 L 607 374 L 607 373 L 609 371 L 608 370 L 608 368 L 610 366 L 611 366 L 612 367 L 613 366 L 614 367 "></path>
        <path fill="none" stroke="#00fafa" stroke-width="3" d="M 504 501 L 505 500 L 507 500 L 508 501 L 509 501 L 510 502 L 510 503 L 509 504 L 510 504 L 511 505 L 511 507 L 512 508 L 512 510 L 511 511 L 510 511 L 510 512 L 509 513 L 510 514 L 508 516 L 510 518 L 510 519 L 511 519 L 512 518 L 513 519 L 513 520 L 514 519 L 516 519 L 517 518 L 518 518 L 519 519 L 519 518 L 520 517 L 521 518 L 524 518 L 525 519 L 523 521 L 524 521 L 525 522 L 523 524 L 522 523 L 521 524 L 520 524 L 519 525 L 518 525 L 517 524 L 515 526 L 513 526 L 510 529 L 509 528 L 508 529 L 507 529 L 506 528 L 506 527 L 505 526 L 504 526 L 502 524 L 501 524 L 500 525 L 498 525 L 497 524 L 496 524 L 496 525 L 495 526 L 493 526 L 492 525 L 490 527 L 485 522 L 486 521 L 487 521 L 489 519 L 488 518 L 489 517 L 490 517 L 490 516 L 491 515 L 491 514 L 490 514 L 489 513 L 489 511 L 488 510 L 489 509 L 490 509 L 491 510 L 491 509 L 492 508 L 494 510 L 492 512 L 493 511 L 494 512 L 494 513 L 495 514 L 494 515 L 493 515 L 495 515 L 497 517 L 497 519 L 496 520 L 498 520 L 499 521 L 498 522 L 499 523 L 502 520 L 503 521 L 504 520 L 505 520 L 504 519 L 505 518 L 507 518 L 506 518 L 505 517 L 506 516 L 506 515 L 505 514 L 505 513 L 504 513 L 503 512 L 503 510 L 502 509 L 502 510 L 501 511 L 500 510 L 500 509 L 499 508 L 497 508 L 496 509 L 495 508 L 495 507 L 496 506 L 498 506 L 499 505 L 500 505 L 499 504 L 499 503 L 500 502 L 502 504 L 502 505 L 502 504 L 503 503 L 504 503 L 505 502 "></path>
        <path fill="none" stroke="#00fafa" stroke-width="3" d="M 595 412 L 600 412 L 602 414 L 602 415 L 603 416 L 603 417 L 606 414 L 607 414 L 607 413 L 608 412 L 609 412 L 610 413 L 609 414 L 611 412 L 612 412 L 613 413 L 614 413 L 615 414 L 615 415 L 616 415 L 617 416 L 618 416 L 618 415 L 619 414 L 620 415 L 620 416 L 621 416 L 622 417 L 622 418 L 621 419 L 619 419 L 618 418 L 617 419 L 617 420 L 613 424 L 612 424 L 611 423 L 609 423 L 608 422 L 608 421 L 607 420 L 606 420 L 606 421 L 605 422 L 603 420 L 603 419 L 602 420 L 602 421 L 601 422 L 600 422 L 600 423 L 599 424 L 600 424 L 602 426 L 601 427 L 600 427 L 600 429 L 599 430 L 598 429 L 598 430 L 599 430 L 600 431 L 600 433 L 599 434 L 600 434 L 601 435 L 599 437 L 598 437 L 597 436 L 594 436 L 593 435 L 594 434 L 595 434 L 594 433 L 593 434 L 592 433 L 592 432 L 591 431 L 591 430 L 592 429 L 592 428 L 593 427 L 594 427 L 595 426 L 594 426 L 593 425 L 594 424 L 596 424 L 592 420 L 593 419 L 591 419 L 590 418 L 593 415 L 593 414 "></path>
        <path fill="none" stroke="#00fafa" stroke-width="3" d="M 354 576 L 355 575 L 356 575 L 357 576 L 357 577 L 358 577 L 359 578 L 358 579 L 360 579 L 363 582 L 363 583 L 362 584 L 360 584 L 361 585 L 361 586 L 360 587 L 361 588 L 361 589 L 360 590 L 361 591 L 361 592 L 364 595 L 366 595 L 367 596 L 362 601 L 363 602 L 363 604 L 362 605 L 361 604 L 361 605 L 360 606 L 359 606 L 356 603 L 357 602 L 356 603 L 354 601 L 354 600 L 353 600 L 352 599 L 353 598 L 352 597 L 351 598 L 350 597 L 350 596 L 351 595 L 352 595 L 352 594 L 353 593 L 354 593 L 353 592 L 354 591 L 354 589 L 355 588 L 354 589 L 353 589 L 352 588 L 353 587 L 353 586 L 351 584 L 354 581 "></path>
        <path fill="none" stroke="#00fafa" stroke-width="3" d="M 537 260 L 538 259 L 539 260 L 540 260 L 541 261 L 540 262 L 540 263 L 541 264 L 544 264 L 545 265 L 546 264 L 548 264 L 550 262 L 551 263 L 551 260 L 552 259 L 553 260 L 553 262 L 554 261 L 555 262 L 555 263 L 556 263 L 557 264 L 556 265 L 557 265 L 558 266 L 558 267 L 559 268 L 559 269 L 558 270 L 557 270 L 556 271 L 555 271 L 555 274 L 554 275 L 553 274 L 553 272 L 552 271 L 548 271 L 547 270 L 547 268 L 546 267 L 545 267 L 546 268 L 546 270 L 545 271 L 544 270 L 543 271 L 542 270 L 541 271 L 541 272 L 540 273 L 539 272 L 539 274 L 538 275 L 537 275 L 536 274 L 537 273 L 533 269 L 532 269 L 531 268 L 532 267 L 531 267 L 530 266 L 531 265 L 531 264 L 534 261 L 535 261 L 536 262 L 537 261 "></path>
        <path fill="none" stroke="#00fafa" stroke-width="3" d="M 570 336 L 571 337 L 571 338 L 572 339 L 572 340 L 573 341 L 573 342 L 574 343 L 573 344 L 573 345 L 572 346 L 571 346 L 572 347 L 570 349 L 570 350 L 571 350 L 572 351 L 571 352 L 570 352 L 571 352 L 572 353 L 572 355 L 571 356 L 572 357 L 571 358 L 571 363 L 570 364 L 571 365 L 571 366 L 570 367 L 568 367 L 567 368 L 566 368 L 565 367 L 565 365 L 566 364 L 567 365 L 565 363 L 565 362 L 564 362 L 563 361 L 564 360 L 563 359 L 564 358 L 563 357 L 563 352 L 564 351 L 565 352 L 565 353 L 565 352 L 566 351 L 565 350 L 565 348 L 564 347 L 563 347 L 562 346 L 563 345 L 564 345 L 562 343 L 562 340 L 563 339 L 565 339 L 567 337 L 568 338 "></path>
        <path fill="none" stroke="#00fafa" stroke-width="3" d="M 642 408 L 643 409 L 643 410 L 644 410 L 645 411 L 644 412 L 645 411 L 646 412 L 646 414 L 645 415 L 647 415 L 648 416 L 648 417 L 649 418 L 649 419 L 643 425 L 642 424 L 640 424 L 638 422 L 639 421 L 637 421 L 636 420 L 634 422 L 633 422 L 632 421 L 632 420 L 631 420 L 630 421 L 629 421 L 630 422 L 630 423 L 631 424 L 630 425 L 629 425 L 628 424 L 628 423 L 626 421 L 625 421 L 624 420 L 623 420 L 622 419 L 622 417 L 621 416 L 621 415 L 622 414 L 623 415 L 624 415 L 624 414 L 625 413 L 626 414 L 625 413 L 626 412 L 627 412 L 628 413 L 628 414 L 629 415 L 628 416 L 629 415 L 630 415 L 631 416 L 633 416 L 634 415 L 635 416 L 635 418 L 634 419 L 633 418 L 634 419 L 635 418 L 635 417 L 636 416 L 637 417 L 636 416 L 637 415 L 638 415 L 638 413 L 639 412 L 639 411 "></path>
        <path fill="none" stroke="#00fafa" stroke-width="3" d="M 550 321 L 551 320 L 552 320 L 553 321 L 554 321 L 555 322 L 554 323 L 555 324 L 556 323 L 557 324 L 557 328 L 558 329 L 557 330 L 557 331 L 556 332 L 555 332 L 557 334 L 557 336 L 556 337 L 557 337 L 559 339 L 559 340 L 560 341 L 560 342 L 558 344 L 557 343 L 557 344 L 556 345 L 557 346 L 556 347 L 555 347 L 555 348 L 554 349 L 553 349 L 552 350 L 550 348 L 550 347 L 549 346 L 550 345 L 551 345 L 550 345 L 549 344 L 549 342 L 551 340 L 551 337 L 550 336 L 551 335 L 551 333 L 549 333 L 547 331 L 547 329 L 546 328 L 548 326 L 547 325 L 548 324 L 549 324 L 549 323 L 550 322 "></path>
        <path fill="none" stroke="#00fafa" stroke-width="3" d="M 565 500 L 566 499 L 567 499 L 572 504 L 572 506 L 573 507 L 573 508 L 572 509 L 572 510 L 570 512 L 570 514 L 569 515 L 568 515 L 564 511 L 564 510 L 563 510 L 562 509 L 561 509 L 560 508 L 558 508 L 557 509 L 557 510 L 556 511 L 555 510 L 556 511 L 554 513 L 555 514 L 553 516 L 552 515 L 552 514 L 551 513 L 552 512 L 551 512 L 550 511 L 550 510 L 549 509 L 549 508 L 549 509 L 548 510 L 546 510 L 545 509 L 549 505 L 550 505 L 553 502 L 555 504 L 555 505 L 556 506 L 556 507 L 556 505 L 557 504 L 561 504 L 562 503 L 561 502 L 562 501 L 563 501 L 564 502 L 564 503 L 565 504 L 565 503 L 566 502 L 565 501 "></path>
        <path fill="none" stroke="#00fafa" stroke-width="3" d="M 549 412 L 550 411 L 551 412 L 552 412 L 553 411 L 555 413 L 555 414 L 556 415 L 556 416 L 558 418 L 557 419 L 556 419 L 556 420 L 555 421 L 555 422 L 554 423 L 555 424 L 555 426 L 556 426 L 557 427 L 556 428 L 557 428 L 558 429 L 558 432 L 559 431 L 560 431 L 561 432 L 560 433 L 560 434 L 558 436 L 557 435 L 557 434 L 557 435 L 556 436 L 555 436 L 556 437 L 555 438 L 552 438 L 549 435 L 548 436 L 545 433 L 546 432 L 546 431 L 548 429 L 549 430 L 550 429 L 550 426 L 551 425 L 550 424 L 551 423 L 550 423 L 549 422 L 550 421 L 549 420 L 548 420 L 546 418 L 546 416 L 547 415 L 548 416 L 549 415 L 550 415 L 549 414 "></path>
        <path fill="none" stroke="#00fafa" stroke-width="3" d="M 642 501 L 643 502 L 644 502 L 646 504 L 646 505 L 647 506 L 648 506 L 649 505 L 651 505 L 652 504 L 653 505 L 654 505 L 654 504 L 655 503 L 656 503 L 656 502 L 657 501 L 659 503 L 660 503 L 661 504 L 660 505 L 659 505 L 660 505 L 661 504 L 662 505 L 663 505 L 664 506 L 664 507 L 662 509 L 661 509 L 659 511 L 660 512 L 658 514 L 656 512 L 657 511 L 656 512 L 655 512 L 652 509 L 651 510 L 650 509 L 649 509 L 648 510 L 647 510 L 646 511 L 646 512 L 645 513 L 644 512 L 644 513 L 643 514 L 642 514 L 641 513 L 640 514 L 639 513 L 639 511 L 638 510 L 638 509 L 636 507 L 636 506 L 635 506 L 634 505 L 635 504 L 637 504 L 636 503 L 637 502 L 638 502 L 639 503 L 640 503 "></path>
        <path fill="none" stroke="#00fafa" stroke-width="3" d="M 460 98 L 461 97 L 464 100 L 465 100 L 466 101 L 467 100 L 469 100 L 470 101 L 469 102 L 470 103 L 469 104 L 468 104 L 468 105 L 466 107 L 466 108 L 465 109 L 465 111 L 464 112 L 463 112 L 462 113 L 463 112 L 465 112 L 466 113 L 466 114 L 465 115 L 468 115 L 470 117 L 470 118 L 468 120 L 466 120 L 467 121 L 463 125 L 461 123 L 461 122 L 460 123 L 459 123 L 458 122 L 459 121 L 457 119 L 457 118 L 456 117 L 458 115 L 459 115 L 459 114 L 460 113 L 459 112 L 460 111 L 461 111 L 462 110 L 463 110 L 462 110 L 458 106 L 459 105 L 460 105 L 459 104 L 460 103 L 459 104 L 458 104 L 457 103 L 459 101 L 460 101 L 461 100 L 462 101 L 462 102 L 462 101 L 460 99 "></path>
        <path fill="none" stroke="#00fafa" stroke-width="3" d="M 432 380 L 433 380 L 435 382 L 435 384 L 436 385 L 437 385 L 438 384 L 439 385 L 440 384 L 441 385 L 443 385 L 443 384 L 444 383 L 445 384 L 446 384 L 446 383 L 447 382 L 450 382 L 451 383 L 450 384 L 451 383 L 454 386 L 453 387 L 454 388 L 453 389 L 452 389 L 452 391 L 450 393 L 450 394 L 449 395 L 448 394 L 448 393 L 446 393 L 445 392 L 446 391 L 442 391 L 440 389 L 438 391 L 437 390 L 437 391 L 436 392 L 435 391 L 435 389 L 434 389 L 434 390 L 432 392 L 431 391 L 431 390 L 429 390 L 427 388 L 427 387 L 428 386 L 429 386 L 430 387 L 429 386 L 429 385 L 428 384 L 429 383 L 430 383 L 430 382 "></path>
        <path fill="none" stroke="#00fafa" stroke-width="3" d="M 582 351 L 583 350 L 584 351 L 584 353 L 585 354 L 585 355 L 586 355 L 587 356 L 588 355 L 589 355 L 590 356 L 589 357 L 589 360 L 588 361 L 587 361 L 586 362 L 585 362 L 586 363 L 586 366 L 585 367 L 586 368 L 586 370 L 587 369 L 588 369 L 589 370 L 588 371 L 590 373 L 588 375 L 587 375 L 586 376 L 585 376 L 584 377 L 583 377 L 584 378 L 583 379 L 582 379 L 580 377 L 580 376 L 579 376 L 578 377 L 577 376 L 577 375 L 578 374 L 577 373 L 577 372 L 578 371 L 579 371 L 578 370 L 579 369 L 580 369 L 580 368 L 583 365 L 583 364 L 583 365 L 582 366 L 581 365 L 581 363 L 580 362 L 581 361 L 579 363 L 578 362 L 578 361 L 580 359 L 580 355 L 581 354 L 582 354 L 580 352 L 581 351 "></path>
        <path fill="none" stroke="#00fafa" stroke-width="3" d="M 492 547 L 493 548 L 494 548 L 496 550 L 496 551 L 497 551 L 500 554 L 499 555 L 500 556 L 499 557 L 499 558 L 498 559 L 496 559 L 494 561 L 495 562 L 495 563 L 496 564 L 495 565 L 495 568 L 496 569 L 495 570 L 496 571 L 494 573 L 493 572 L 492 573 L 491 573 L 490 572 L 490 571 L 489 570 L 489 569 L 490 568 L 489 569 L 488 568 L 488 567 L 490 565 L 491 565 L 491 564 L 489 562 L 489 561 L 490 560 L 490 559 L 489 558 L 489 557 L 488 556 L 488 555 L 487 554 L 488 553 L 487 552 L 486 553 L 485 552 L 485 551 L 486 550 L 488 550 L 489 549 L 490 549 "></path>
        <path fill="none" stroke="#00fafa" stroke-width="3" d="M 628 353 L 629 354 L 629 355 L 630 355 L 631 356 L 631 359 L 628 362 L 629 363 L 630 363 L 631 364 L 631 365 L 632 366 L 631 367 L 633 369 L 632 370 L 632 372 L 633 373 L 631 375 L 631 377 L 630 378 L 629 378 L 628 379 L 627 378 L 626 379 L 625 378 L 625 377 L 626 376 L 625 377 L 623 375 L 624 374 L 623 375 L 622 374 L 621 374 L 620 373 L 623 370 L 624 371 L 624 369 L 625 368 L 625 367 L 626 366 L 629 366 L 629 365 L 628 366 L 625 363 L 625 361 L 626 360 L 625 359 L 622 359 L 621 358 L 622 357 L 624 357 L 625 356 L 626 356 L 626 355 "></path>
        <path fill="none" stroke="#00fafa" stroke-width="3" d="M 687 378 L 688 377 L 689 377 L 690 378 L 690 379 L 691 380 L 691 382 L 692 383 L 692 385 L 693 385 L 694 386 L 693 387 L 694 386 L 695 386 L 696 387 L 693 390 L 694 391 L 694 392 L 693 393 L 691 391 L 690 392 L 690 394 L 689 395 L 688 395 L 687 394 L 688 393 L 688 392 L 687 391 L 684 391 L 682 389 L 683 388 L 682 388 L 681 387 L 680 387 L 679 386 L 680 385 L 683 385 L 684 384 L 685 384 L 685 383 L 684 382 L 685 381 L 685 380 L 687 378 L 688 379 "></path>
        <path fill="none" stroke="#00fafa" stroke-width="3" d="M 672 501 L 673 500 L 674 500 L 675 501 L 675 502 L 676 502 L 677 503 L 676 504 L 677 503 L 678 503 L 679 504 L 678 505 L 678 506 L 679 506 L 680 507 L 680 508 L 679 509 L 679 510 L 678 511 L 678 512 L 677 513 L 676 512 L 672 516 L 671 515 L 670 515 L 669 514 L 669 513 L 668 512 L 668 511 L 667 510 L 668 509 L 666 507 L 666 506 L 668 504 L 670 504 L 670 503 L 671 502 L 673 502 "></path>
        <path fill="none" stroke="#00fafa" stroke-width="3" d="M 551 532 L 552 531 L 553 532 L 553 533 L 554 532 L 555 532 L 556 533 L 557 532 L 558 533 L 558 534 L 559 535 L 559 536 L 560 537 L 559 538 L 559 539 L 557 541 L 557 542 L 556 543 L 555 542 L 556 543 L 555 544 L 556 545 L 555 546 L 556 546 L 557 547 L 556 548 L 557 549 L 556 550 L 554 550 L 552 548 L 552 547 L 551 547 L 550 546 L 551 545 L 550 545 L 549 544 L 550 543 L 550 541 L 549 540 L 549 539 L 548 539 L 547 538 L 548 537 L 549 537 L 551 535 L 552 535 L 551 535 L 550 534 L 551 533 "></path>
        <path fill="none" stroke="#00fafa" stroke-width="3" d="M 656 381 L 657 380 L 658 381 L 658 382 L 659 383 L 659 384 L 660 385 L 660 386 L 660 385 L 661 384 L 662 385 L 662 387 L 663 386 L 664 387 L 665 387 L 666 388 L 665 389 L 665 390 L 664 391 L 662 389 L 662 390 L 663 391 L 662 392 L 661 392 L 658 395 L 657 395 L 656 394 L 656 393 L 655 393 L 653 391 L 653 390 L 652 389 L 651 390 L 650 389 L 650 386 L 651 385 L 650 384 L 652 382 L 653 382 L 654 383 L 655 382 L 656 382 "></path>
        <path fill="none" stroke="#00fafa" stroke-width="3" d="M 521 547 L 522 546 L 524 548 L 524 549 L 526 551 L 527 550 L 528 551 L 529 550 L 530 550 L 531 549 L 533 549 L 534 550 L 536 550 L 537 551 L 536 552 L 534 552 L 535 552 L 536 553 L 536 556 L 535 557 L 533 555 L 532 556 L 531 555 L 530 556 L 529 555 L 528 555 L 527 554 L 525 556 L 526 557 L 525 558 L 523 558 L 522 559 L 521 559 L 520 558 L 521 557 L 520 558 L 519 557 L 519 556 L 518 556 L 517 555 L 518 554 L 518 553 L 520 551 L 520 549 L 521 548 "></path>
        <path fill="none" stroke="#00fafa" stroke-width="3" d="M 643 366 L 644 367 L 644 368 L 647 368 L 648 369 L 647 370 L 646 370 L 647 370 L 649 372 L 650 371 L 650 369 L 651 368 L 652 369 L 652 375 L 651 376 L 650 375 L 650 374 L 650 376 L 649 377 L 648 377 L 647 376 L 648 375 L 647 374 L 645 376 L 644 375 L 645 376 L 645 378 L 644 379 L 643 379 L 643 380 L 642 381 L 641 380 L 640 381 L 639 381 L 638 380 L 640 378 L 641 378 L 642 377 L 643 377 L 642 377 L 641 378 L 640 377 L 640 376 L 638 374 L 638 372 L 637 372 L 636 371 L 637 370 L 638 370 L 640 368 L 641 368 "></path>
        <path fill="none" stroke="#00fafa" stroke-width="3" d="M 675 200 L 676 201 L 676 203 L 677 203 L 678 204 L 677 205 L 678 204 L 679 205 L 679 207 L 678 208 L 678 209 L 677 210 L 675 210 L 675 211 L 676 212 L 676 213 L 675 214 L 674 213 L 672 213 L 670 215 L 668 213 L 669 212 L 668 213 L 666 211 L 666 209 L 665 208 L 665 207 L 666 206 L 666 205 L 669 202 L 670 203 L 671 203 L 672 204 L 673 203 L 673 202 "></path>
        <path fill="none" stroke="#00fafa" stroke-width="3" d="M 685 203 L 686 202 L 688 202 L 689 203 L 689 204 L 690 203 L 691 204 L 692 204 L 693 205 L 693 209 L 692 210 L 691 210 L 692 211 L 691 212 L 692 213 L 691 214 L 689 214 L 689 217 L 688 218 L 687 218 L 686 217 L 687 216 L 687 215 L 686 215 L 685 214 L 685 212 L 682 209 L 680 209 L 679 208 L 679 206 L 680 205 L 681 206 L 682 205 L 682 204 L 683 203 "></path>
        <path fill="none" stroke="#00fafa" stroke-width="3" d="M 549 307 L 550 306 L 554 306 L 556 308 L 555 309 L 556 309 L 557 310 L 558 310 L 559 311 L 557 313 L 558 314 L 557 315 L 556 315 L 555 316 L 556 317 L 556 318 L 555 319 L 554 318 L 554 319 L 555 320 L 554 321 L 553 321 L 552 320 L 550 320 L 549 319 L 550 318 L 546 314 L 546 312 L 545 311 L 547 309 L 549 309 "></path>
        <path fill="none" stroke="#00fafa" stroke-width="3" d="M 507 351 L 509 353 L 509 354 L 510 355 L 511 354 L 512 354 L 514 356 L 513 357 L 513 359 L 511 361 L 511 364 L 510 365 L 510 366 L 511 367 L 510 368 L 509 368 L 508 367 L 507 367 L 506 368 L 505 367 L 505 365 L 504 364 L 505 363 L 504 362 L 505 361 L 504 360 L 502 360 L 501 359 L 502 358 L 502 357 L 503 356 L 502 355 L 502 354 L 503 353 L 505 355 L 505 353 "></path>
        <path fill="none" stroke="#00fafa" stroke-width="3" d="M 507 380 L 508 380 L 509 381 L 509 382 L 510 383 L 511 382 L 512 383 L 512 384 L 513 384 L 515 386 L 514 387 L 513 387 L 513 388 L 512 389 L 513 389 L 514 390 L 513 391 L 511 391 L 511 392 L 510 393 L 508 393 L 509 394 L 508 395 L 507 395 L 506 396 L 505 395 L 505 393 L 504 393 L 503 392 L 505 390 L 504 390 L 504 391 L 503 392 L 502 391 L 502 387 L 504 385 L 504 383 "></path>
        <path fill="none" stroke="#00fafa" stroke-width="3" d="M 447 425 L 449 425 L 450 426 L 450 428 L 451 429 L 452 429 L 453 430 L 454 430 L 455 431 L 454 432 L 455 431 L 456 431 L 457 432 L 456 433 L 456 434 L 455 435 L 454 434 L 451 437 L 450 436 L 449 436 L 450 436 L 451 437 L 450 438 L 449 438 L 447 440 L 446 439 L 446 438 L 445 438 L 444 437 L 444 436 L 443 435 L 444 434 L 445 434 L 444 434 L 442 432 L 442 431 L 445 428 L 445 427 "></path>
        <path fill="none" stroke="#00fafa" stroke-width="3" d="M 521 352 L 522 351 L 524 353 L 523 354 L 524 354 L 525 355 L 526 354 L 527 355 L 529 355 L 530 356 L 529 357 L 530 358 L 529 359 L 527 359 L 527 362 L 526 363 L 525 362 L 525 363 L 524 364 L 523 363 L 520 363 L 519 362 L 520 361 L 519 360 L 518 361 L 517 360 L 517 359 L 516 358 L 515 359 L 513 357 L 514 356 L 515 356 L 515 353 L 516 352 L 517 353 L 517 354 L 519 354 L 519 353 L 520 352 "></path>
        <path fill="none" stroke="#00fafa" stroke-width="3" d="M 553 351 L 554 350 L 555 351 L 555 353 L 556 354 L 557 354 L 558 355 L 558 356 L 561 356 L 562 357 L 562 359 L 561 360 L 558 360 L 557 361 L 556 360 L 555 361 L 554 361 L 554 362 L 553 363 L 552 362 L 551 363 L 550 362 L 550 361 L 549 360 L 548 360 L 547 359 L 546 359 L 545 358 L 547 356 L 548 357 L 547 356 L 550 353 L 549 352 L 550 351 L 552 351 L 553 352 "></path>
        <path fill="none" stroke="#00fafa" stroke-width="3" d="M 579 501 L 580 500 L 582 500 L 583 501 L 584 501 L 585 502 L 583 504 L 582 504 L 583 505 L 582 506 L 583 507 L 583 508 L 584 509 L 585 509 L 586 510 L 586 514 L 584 516 L 581 513 L 580 513 L 579 512 L 578 513 L 576 511 L 577 510 L 576 511 L 575 510 L 575 509 L 576 508 L 575 509 L 574 509 L 573 508 L 573 507 L 572 506 L 573 505 L 575 505 L 576 504 L 577 505 L 579 503 "></path>
        <path fill="none" stroke="#00fafa" stroke-width="3" d="M 325 516 L 326 515 L 327 515 L 329 517 L 330 517 L 333 520 L 333 522 L 334 522 L 335 523 L 334 524 L 334 525 L 332 527 L 331 526 L 331 527 L 332 528 L 330 530 L 329 530 L 329 531 L 328 532 L 326 530 L 326 529 L 325 528 L 325 526 L 326 525 L 327 525 L 326 524 L 325 524 L 324 523 L 324 522 L 325 521 L 324 520 L 325 519 L 324 518 L 325 517 "></path>
        <path fill="none" stroke="#00fafa" stroke-width="3" d="M 491 363 L 492 362 L 493 363 L 493 365 L 494 366 L 494 367 L 496 369 L 495 370 L 497 370 L 498 371 L 498 373 L 496 375 L 496 376 L 494 378 L 492 378 L 491 379 L 490 378 L 490 377 L 489 376 L 489 374 L 486 374 L 485 373 L 484 373 L 483 372 L 484 371 L 487 371 L 488 370 L 489 370 L 490 369 L 489 368 L 489 367 L 491 365 "></path>
        <path fill="none" stroke="#00fafa" stroke-width="3" d="M 551 366 L 552 365 L 555 368 L 556 368 L 559 371 L 559 372 L 558 373 L 557 372 L 556 372 L 557 373 L 557 377 L 556 378 L 555 377 L 553 379 L 552 378 L 551 378 L 549 376 L 548 376 L 546 374 L 546 373 L 545 372 L 545 371 L 546 370 L 547 371 L 548 370 L 549 371 L 549 370 L 548 369 L 550 367 L 551 368 "></path>
        <path fill="none" stroke="#00fafa" stroke-width="3" d="M 639 394 L 640 393 L 641 393 L 642 394 L 642 395 L 643 395 L 644 396 L 644 397 L 645 397 L 646 398 L 645 399 L 646 399 L 647 400 L 647 404 L 648 405 L 646 407 L 645 406 L 644 407 L 644 408 L 643 409 L 642 408 L 641 409 L 640 408 L 640 406 L 639 405 L 638 405 L 637 404 L 637 403 L 635 401 L 636 400 L 637 400 L 637 399 L 638 398 L 639 399 L 640 399 L 640 395 "></path>
        <path fill="none" stroke="#00fafa" stroke-width="3" d="M 416 545 L 417 544 L 420 547 L 419 548 L 420 549 L 422 549 L 423 550 L 422 551 L 422 552 L 423 552 L 424 553 L 422 555 L 421 554 L 421 555 L 420 556 L 419 556 L 419 558 L 418 559 L 417 559 L 416 560 L 415 559 L 415 558 L 416 557 L 415 556 L 414 556 L 413 555 L 412 555 L 411 554 L 411 553 L 410 554 L 409 553 L 409 552 L 411 550 L 412 551 L 413 550 L 413 549 L 414 548 L 415 549 L 415 548 L 416 547 "></path>
        <path fill="none" stroke="#00fafa" stroke-width="3" d="M 340 335 L 341 334 L 342 335 L 346 335 L 348 337 L 347 338 L 346 338 L 347 339 L 347 340 L 349 342 L 348 343 L 347 343 L 347 344 L 344 347 L 344 348 L 342 350 L 341 349 L 341 348 L 340 348 L 339 347 L 339 346 L 337 344 L 338 343 L 338 342 L 337 341 L 338 340 L 340 340 L 341 341 L 341 340 L 342 339 L 342 338 L 341 338 L 340 339 L 339 338 L 339 337 L 340 336 "></path>
        <path fill="none" stroke="#00fafa" stroke-width="3" d="M 566 469 L 567 468 L 568 469 L 568 470 L 570 472 L 570 473 L 571 474 L 572 473 L 573 474 L 573 476 L 574 477 L 573 478 L 572 478 L 572 480 L 571 481 L 570 481 L 571 482 L 570 483 L 569 483 L 568 484 L 566 482 L 565 483 L 564 482 L 564 481 L 561 478 L 561 477 L 562 476 L 563 476 L 564 475 L 564 474 L 566 472 L 565 471 L 566 470 "></path>
        <path fill="none" stroke="#00fafa" stroke-width="3" d="M 536 422 L 537 421 L 539 423 L 539 425 L 542 428 L 542 429 L 541 430 L 541 431 L 542 431 L 543 432 L 541 434 L 542 435 L 541 436 L 540 436 L 538 438 L 536 436 L 535 437 L 534 436 L 534 434 L 535 433 L 534 433 L 533 434 L 531 432 L 532 431 L 534 431 L 533 431 L 532 430 L 533 429 L 534 429 L 535 428 L 535 427 L 536 426 L 535 425 L 535 424 L 534 423 L 535 422 "></path>
        <path fill="none" stroke="#00fafa" stroke-width="3" d="M 569 412 L 570 413 L 571 413 L 572 414 L 571 415 L 572 414 L 573 414 L 576 417 L 574 419 L 572 417 L 573 418 L 572 419 L 571 419 L 570 418 L 570 420 L 571 419 L 572 420 L 572 422 L 571 423 L 569 423 L 568 424 L 567 423 L 566 424 L 565 423 L 565 421 L 564 421 L 562 419 L 562 417 L 561 416 L 563 414 L 564 415 L 565 415 L 564 415 L 563 414 L 564 413 L 566 413 L 567 414 "></path>
        <path fill="none" stroke="#00fafa" stroke-width="3" d="M 446 456 L 447 457 L 448 457 L 449 456 L 450 457 L 450 458 L 451 459 L 452 459 L 454 461 L 454 462 L 455 463 L 454 464 L 453 464 L 451 462 L 451 463 L 452 463 L 453 464 L 452 465 L 450 465 L 449 466 L 447 464 L 446 465 L 446 466 L 445 467 L 442 464 L 441 465 L 440 465 L 439 464 L 440 463 L 440 462 L 439 461 L 441 459 L 442 460 L 441 459 L 442 458 L 444 458 "></path>
        <path fill="none" stroke="#00fafa" stroke-width="3" d="M 506 320 L 507 319 L 508 319 L 509 320 L 509 324 L 510 325 L 512 325 L 513 326 L 512 327 L 511 327 L 512 327 L 513 328 L 512 329 L 510 329 L 509 330 L 511 332 L 511 333 L 510 334 L 509 333 L 510 334 L 509 335 L 507 335 L 506 334 L 506 332 L 505 331 L 504 331 L 503 330 L 504 329 L 503 330 L 500 330 L 499 329 L 499 328 L 498 327 L 499 326 L 501 326 L 502 325 L 503 325 L 504 326 L 505 326 L 505 324 L 507 322 L 507 321 "></path>
        <path fill="none" stroke="#00fafa" stroke-width="3" d="M 595 339 L 596 338 L 597 338 L 598 339 L 599 339 L 600 338 L 601 339 L 601 340 L 602 339 L 603 339 L 604 340 L 603 341 L 604 342 L 603 341 L 604 340 L 606 340 L 607 341 L 608 341 L 609 342 L 609 343 L 608 344 L 607 343 L 606 343 L 604 345 L 603 345 L 602 344 L 603 345 L 602 346 L 601 346 L 600 347 L 598 347 L 599 348 L 597 350 L 595 348 L 596 347 L 595 346 L 595 345 L 595 346 L 594 347 L 593 346 L 593 345 L 592 344 L 593 343 L 594 343 L 595 342 L 595 341 L 596 340 L 597 341 "></path>
        <path fill="none" stroke="#00fafa" stroke-width="3" d="M 551 169 L 552 168 L 553 169 L 553 170 L 555 172 L 555 173 L 556 173 L 557 174 L 557 173 L 558 172 L 559 173 L 559 174 L 560 174 L 561 175 L 560 176 L 559 176 L 559 177 L 557 179 L 556 178 L 556 179 L 555 180 L 554 179 L 553 180 L 552 180 L 551 181 L 550 181 L 549 180 L 549 178 L 548 179 L 546 177 L 545 177 L 544 176 L 545 175 L 546 175 L 547 174 L 549 174 L 550 173 L 550 172 L 551 171 "></path>
        <path fill="none" stroke="#00fafa" stroke-width="3" d="M 448 472 L 449 473 L 450 472 L 451 472 L 452 473 L 451 474 L 452 475 L 453 475 L 454 476 L 453 477 L 454 478 L 455 477 L 456 477 L 457 478 L 457 479 L 456 480 L 453 480 L 452 479 L 453 480 L 452 481 L 451 481 L 451 482 L 452 483 L 451 484 L 449 484 L 447 482 L 446 482 L 445 481 L 445 479 L 444 479 L 442 477 L 444 475 L 443 474 L 444 473 L 445 473 L 446 474 "></path>
        <path fill="none" stroke="#00fafa" stroke-width="3" d="M 475 274 L 476 273 L 477 273 L 478 274 L 478 275 L 479 276 L 479 277 L 480 278 L 480 279 L 482 281 L 481 282 L 480 282 L 481 283 L 481 284 L 480 285 L 480 287 L 478 289 L 477 288 L 476 288 L 475 287 L 476 286 L 473 286 L 471 284 L 471 283 L 470 282 L 472 280 L 473 280 L 474 281 L 474 280 L 473 279 L 474 278 L 473 277 L 474 276 L 475 276 L 476 277 L 476 278 L 477 277 L 476 276 L 476 275 "></path>
        <path fill="none" stroke="#00fafa" stroke-width="3" d="M 522 440 L 523 440 L 524 441 L 523 442 L 525 444 L 526 444 L 527 445 L 527 446 L 528 446 L 529 447 L 527 449 L 527 450 L 526 451 L 524 451 L 523 452 L 524 453 L 523 454 L 522 454 L 520 452 L 519 452 L 518 451 L 519 450 L 517 448 L 516 448 L 515 447 L 515 446 L 516 445 L 517 446 L 518 446 L 517 445 L 518 444 L 520 444 L 520 442 "></path>
        <path fill="none" stroke="#00fafa" stroke-width="3" d="M 552 458 L 553 457 L 554 458 L 556 458 L 558 460 L 557 461 L 559 463 L 558 464 L 557 464 L 557 465 L 556 466 L 555 465 L 554 465 L 552 467 L 549 464 L 548 464 L 547 465 L 545 465 L 544 464 L 544 463 L 543 464 L 542 463 L 542 462 L 543 461 L 544 461 L 546 459 L 547 460 L 547 461 L 550 458 "></path>
        <path fill="none" stroke="#00fafa" stroke-width="3" d="M 504 368 L 505 367 L 506 368 L 509 368 L 510 369 L 510 370 L 511 369 L 513 371 L 512 372 L 513 373 L 513 374 L 512 375 L 512 376 L 511 377 L 510 377 L 509 378 L 509 379 L 508 380 L 507 379 L 506 379 L 505 378 L 506 377 L 505 376 L 502 376 L 501 375 L 502 374 L 502 372 L 503 371 L 503 370 L 504 369 "></path>
        <path fill="none" stroke="#00fafa" stroke-width="3" d="M 535 533 L 536 532 L 537 533 L 538 532 L 539 533 L 540 532 L 542 534 L 542 535 L 541 536 L 542 537 L 541 538 L 541 540 L 539 542 L 539 543 L 540 544 L 539 545 L 538 545 L 537 544 L 536 545 L 535 544 L 535 540 L 534 540 L 533 539 L 532 539 L 531 540 L 530 539 L 530 538 L 531 537 L 532 537 L 533 536 L 532 536 L 531 535 L 532 534 L 535 534 "></path>
        <path fill="none" stroke="#00fafa" stroke-width="3" d="M 658 396 L 659 397 L 660 397 L 661 396 L 662 397 L 662 398 L 663 399 L 664 398 L 665 399 L 665 403 L 663 405 L 662 405 L 662 406 L 661 407 L 660 406 L 659 407 L 657 407 L 656 406 L 655 406 L 654 405 L 654 402 L 653 401 L 654 400 L 655 400 L 656 399 L 656 398 "></path>
        <path fill="none" stroke="#00fafa" stroke-width="3" d="M 419 366 L 421 368 L 420 369 L 420 371 L 421 372 L 421 373 L 419 375 L 420 376 L 419 377 L 418 377 L 417 378 L 418 379 L 417 380 L 417 381 L 416 382 L 415 381 L 415 380 L 414 379 L 414 378 L 415 377 L 413 377 L 412 376 L 412 375 L 411 375 L 410 374 L 411 373 L 412 373 L 412 370 L 413 369 L 414 370 L 415 369 L 415 368 L 416 367 L 417 368 "></path>
        <path fill="none" stroke="#00fafa" stroke-width="3" d="M 344 468 L 345 467 L 346 468 L 348 468 L 349 469 L 349 468 L 350 467 L 351 468 L 352 468 L 353 469 L 354 469 L 355 470 L 355 471 L 357 473 L 357 474 L 355 476 L 354 476 L 353 475 L 354 476 L 352 478 L 353 479 L 350 482 L 349 481 L 348 481 L 347 480 L 348 479 L 347 479 L 346 478 L 345 479 L 344 479 L 342 477 L 344 475 L 344 474 L 345 473 L 343 471 L 344 470 L 345 470 L 346 471 L 346 470 L 345 470 L 344 469 "></path>
        <path fill="none" stroke="#00fafa" stroke-width="3" d="M 225 460 L 226 459 L 227 459 L 229 461 L 228 462 L 228 464 L 230 464 L 231 465 L 230 466 L 228 466 L 229 467 L 228 468 L 227 468 L 225 470 L 224 469 L 223 470 L 222 469 L 221 469 L 219 467 L 221 465 L 220 464 L 221 463 L 222 463 L 223 462 L 224 463 L 225 463 L 226 462 L 226 461 "></path>
        <path fill="none" stroke="#00fafa" stroke-width="3" d="M 417 425 L 418 424 L 419 424 L 421 426 L 422 425 L 423 426 L 423 427 L 424 428 L 423 429 L 423 430 L 426 430 L 427 431 L 426 432 L 419 432 L 418 431 L 418 430 L 417 431 L 416 430 L 416 428 L 417 427 "></path>
        <path fill="none" stroke="#00fafa" stroke-width="3" d="M 535 625 L 536 624 L 539 624 L 540 625 L 540 626 L 540 625 L 541 624 L 542 624 L 544 626 L 543 627 L 542 627 L 542 628 L 541 629 L 540 628 L 539 628 L 540 629 L 539 630 L 539 631 L 538 632 L 536 632 L 535 631 L 536 630 L 536 628 L 535 628 L 534 627 L 535 626 L 537 626 L 536 626 "></path>
        <path fill="none" stroke="#00fafa" stroke-width="3" d="M 259 594 L 260 593 L 261 594 L 261 595 L 262 596 L 261 597 L 261 599 L 260 600 L 261 599 L 263 601 L 262 602 L 261 602 L 260 603 L 259 602 L 258 602 L 257 603 L 256 602 L 254 602 L 253 603 L 252 602 L 252 601 L 253 600 L 258 600 L 257 600 L 256 599 L 257 598 L 259 598 "></path>
        <path fill="none" stroke="#00fafa" stroke-width="3" d="M 546 624 L 548 626 L 547 627 L 546 627 L 548 629 L 548 630 L 547 631 L 547 632 L 546 633 L 545 633 L 544 632 L 545 631 L 544 630 L 544 629 L 543 628 L 544 627 L 544 626 "></path>
        <path fill="none" stroke="#00fafa" stroke-width="3" d="M 414 413 L 415 412 L 418 415 L 417 416 L 415 416 L 415 417 L 416 418 L 415 419 L 414 419 L 413 418 L 413 417 L 412 416 L 414 414 "></path>
        <path fill="none" stroke="#00fafa" stroke-width="3" d="M 538 368 L 539 367 L 540 368 L 540 369 L 541 370 L 540 371 L 539 371 L 538 372 L 537 371 L 535 371 L 534 370 L 535 369 L 536 369 L 537 368 L 538 369 "></path>
        <path fill="none" stroke="#00fafa" stroke-width="3" d="M 174 532 L 175 532 L 176 533 L 176 536 L 174 538 L 173 538 L 172 537 L 173 536 L 173 535 L 172 534 "></path>
        <path fill="none" stroke="#00fafa" stroke-width="3" d="M 540 621 L 541 620 L 542 620 L 544 622 L 544 624 L 543 625 L 542 624 L 542 623 L 541 624 L 540 623 L 539 623 L 538 622 L 539 621 "></path>
        <path fill="none" stroke="#00fafa" stroke-width="3" d="M 252 593 L 253 592 L 254 593 L 255 593 L 257 595 L 256 596 L 254 596 L 253 595 L 251 595 L 250 594 L 251 593 "></path>
        <path fill="none" stroke="#00fafa" stroke-width="3" d="M 541 615 L 542 614 L 543 615 L 543 617 L 542 618 L 542 619 L 541 620 L 540 619 L 540 618 L 539 617 L 540 616 L 541 616 "></path>
        <path fill="none" stroke="#00fafa" stroke-width="3" d="M 541 632 L 542 631 L 543 632 L 544 632 L 545 633 L 544 634 L 543 634 L 542 635 L 540 635 L 539 634 L 540 633 L 541 633 "></path>
        <path fill="none" stroke="#00fafa" stroke-width="3" d="M 414 419 L 415 419 L 416 420 L 415 421 L 415 422 L 413 424 L 411 422 "></path>
        <path fill="none" stroke="#00fafa" stroke-width="3" d="M 538 613 L 539 612 L 541 614 L 541 615 L 540 616 L 539 615 L 538 615 L 537 616 L 536 615 L 536 614 L 537 613 "></path>
        <path fill="none" stroke="#00fafa" stroke-width="3" d="M 289 523 L 290 522 L 291 523 L 292 522 L 294 524 L 292 526 L 291 525 L 290 525 L 289 524 "></path>
        <path fill="none" stroke="#00fafa" stroke-width="3" d="M 824 266 L 825 267 L 826 267 L 827 268 L 825 270 L 824 270 L 822 268 "></path>
        <path fill="none" stroke="#00fafa" stroke-width="3" d="M 617 400 L 618 399 L 619 400 L 619 401 L 618 402 L 616 402 L 615 403 L 614 402 L 614 401 L 615 400 "></path>
        <path fill="none" stroke="#00fafa" stroke-width="3" d="M 182 530 L 183 529 L 185 531 L 184 532 L 185 533 L 184 534 L 183 534 L 182 533 "></path>
        <path fill="none" stroke="#00fafa" stroke-width="3" d="M 509 397 L 510 396 L 511 397 L 511 398 L 513 400 L 515 400 L 517 398 L 518 398 L 521 401 L 519 403 L 518 403 L 521 406 L 520 407 L 521 407 L 522 408 L 521 409 L 522 408 L 524 410 L 526 410 L 527 409 L 528 410 L 528 412 L 529 413 L 529 414 L 528 415 L 527 414 L 526 415 L 525 414 L 525 413 L 526 412 L 525 412 L 525 413 L 524 414 L 521 414 L 520 413 L 521 414 L 524 414 L 526 416 L 526 415 L 527 414 L 529 416 L 530 416 L 531 417 L 530 418 L 529 418 L 529 419 L 527 421 L 526 420 L 525 421 L 529 421 L 530 422 L 530 425 L 529 426 L 528 426 L 526 424 L 527 423 L 528 423 L 527 423 L 526 424 L 525 423 L 522 426 L 521 425 L 521 424 L 523 422 L 523 421 L 522 420 L 523 419 L 522 420 L 520 420 L 519 421 L 520 421 L 521 420 L 523 422 L 522 423 L 521 423 L 520 424 L 519 424 L 521 426 L 520 427 L 520 428 L 519 429 L 518 428 L 516 428 L 515 427 L 516 426 L 515 427 L 514 426 L 514 425 L 513 426 L 511 424 L 511 422 L 512 421 L 512 420 L 513 419 L 514 419 L 515 420 L 515 421 L 516 422 L 517 422 L 515 420 L 516 419 L 517 419 L 517 417 L 516 418 L 515 417 L 511 417 L 508 414 L 510 412 L 511 413 L 511 414 L 512 415 L 513 414 L 514 415 L 513 414 L 514 413 L 513 414 L 512 413 L 512 412 L 511 413 L 510 412 L 510 411 L 510 412 L 509 413 L 508 412 L 508 411 L 507 412 L 505 410 L 506 409 L 508 409 L 508 408 L 505 405 L 504 405 L 503 404 L 504 403 L 503 402 L 503 401 L 502 402 L 500 400 L 502 398 L 507 398 L 508 399 L 509 399 "></path>
        <path fill="none" stroke="#00fafa" stroke-width="3" d="M 560 402 L 561 401 L 563 401 L 564 402 L 563 403 L 564 404 L 563 405 L 564 404 L 565 405 L 565 407 L 566 408 L 565 409 L 564 409 L 563 408 L 562 409 L 560 407 L 561 406 L 560 407 L 559 406 L 559 405 L 560 404 L 561 404 L 560 403 "></path>
        <path fill="none" stroke="#00fafa" stroke-width="3" d="M 480 413 L 481 412 L 482 413 L 482 416 L 485 419 L 484 420 L 483 420 L 482 419 L 482 420 L 481 421 L 480 421 L 479 420 L 480 419 L 478 417 L 479 416 L 480 416 L 478 414 L 479 413 "></path>
        <path fill="none" stroke="#00fafa" stroke-width="3" d="M 515 431 L 516 430 L 519 430 L 520 431 L 519 432 L 518 432 L 518 433 L 519 432 L 520 433 L 520 435 L 518 437 L 517 436 L 517 435 L 515 433 "></path>
        <path fill="none" stroke="#00fafa" stroke-width="3" d="M 545 365 L 546 365 L 548 367 L 547 368 L 545 368 L 544 369 L 543 369 L 543 370 L 542 371 L 541 370 L 540 370 L 539 369 L 539 368 L 540 367 L 541 368 L 542 367 L 543 367 "></path>
        <path fill="none" stroke="#00fafa" stroke-width="3" d="M 497 411 L 498 410 L 500 410 L 502 412 L 502 413 L 503 414 L 502 415 L 500 415 L 499 414 L 500 413 L 499 414 L 497 412 "></path>
        <path fill="none" stroke="#00fafa" stroke-width="3" d="M 524 424 L 526 424 L 527 425 L 527 426 L 526 427 L 525 426 L 525 428 L 524 429 L 523 428 L 523 427 L 522 426 "></path>
        <path fill="none" stroke="#00fafa" stroke-width="3" d="M 554 377 L 555 376 L 556 377 L 556 378 L 554 380 L 553 380 L 552 379 L 551 379 L 550 378 L 551 377 "></path>
        <path fill="none" stroke="#00fafa" stroke-width="3" d="M 529 426 L 530 425 L 531 426 L 531 427 L 532 428 L 531 429 L 532 430 L 531 431 L 530 431 L 528 429 L 529 428 "></path>
        <path fill="none" stroke="#00fafa" stroke-width="3" d="M 503 421 L 504 420 L 505 421 L 505 423 L 506 424 L 506 425 L 505 426 L 502 423 L 503 422 "></path>
        <path fill="none" stroke="#00fafa" stroke-width="3" d="M 518 437 L 520 437 L 521 438 L 521 439 L 520 440 L 519 439 L 518 440 L 517 440 L 516 439 "></path>
    </g>
</svg>
