<svg xmlns="http://www.w3.org/2000/svg" xmlns:xlink="http://www.w3.org/1999/xlink" version="1.1" x="0" y="0" width="1056px" height="816px">
    <g id="rootLayer" transform="translate(0.000000, 0.000000)">
        <path fill="none" stroke="#fa00fa" stroke-width="3" d="M 562 190 L 561 191 L 526 191 L 523 194 L 523 232 L 522 233 L 522 237 L 521 238 L 521 240 L 520 241 L 520 242 L 519 243 L 519 244 L 518 245 L 518 246 L 507 257 L 506 257 L 501 262 L 501 263 L 494 270 L 493 270 L 492 271 L 486 271 L 485 270 L 484 270 L 480 266 L 480 265 L 469 254 L 468 254 L 446 232 L 446 231 L 444 229 L 443 229 L 441 227 L 440 227 L 439 226 L 437 226 L 436 225 L 433 225 L 432 226 L 429 226 L 428 227 L 427 227 L 426 228 L 425 228 L 414 239 L 414 240 L 411 243 L 411 246 L 410 247 L 410 248 L 411 249 L 411 255 L 412 256 L 412 279 L 411 280 L 411 285 L 410 286 L 410 288 L 409 289 L 409 290 L 408 291 L 408 292 L 402 298 L 401 298 L 400 299 L 399 299 L 398 300 L 396 300 L 395 301 L 391 301 L 390 302 L 367 302 L 366 301 L 359 301 L 358 302 L 357 302 L 357 303 L 356 304 L 356 315 L 357 316 L 357 331 L 356 332 L 356 340 L 355 341 L 355 348 L 356 349 L 356 350 L 357 351 L 357 352 L 372 367 L 372 368 L 375 371 L 376 371 L 378 373 L 380 373 L 381 374 L 388 374 L 389 373 L 393 373 L 394 372 L 396 372 L 397 371 L 407 371 L 408 372 L 410 372 L 411 373 L 412 373 L 414 375 L 416 375 L 417 376 L 418 376 L 419 377 L 421 377 L 422 378 L 423 378 L 424 379 L 425 379 L 429 383 L 429 384 L 430 385 L 430 387 L 431 388 L 431 394 L 432 395 L 432 398 L 433 399 L 433 401 L 434 402 L 434 403 L 435 404 L 435 405 L 436 406 L 436 407 L 437 408 L 437 409 L 438 410 L 438 411 L 439 412 L 439 413 L 440 414 L 440 415 L 441 416 L 441 417 L 442 418 L 442 419 L 445 422 L 445 423 L 446 423 L 449 426 L 450 426 L 452 428 L 453 428 L 454 429 L 455 429 L 456 430 L 457 430 L 458 431 L 459 431 L 461 433 L 462 433 L 463 434 L 464 434 L 465 435 L 466 435 L 467 436 L 468 436 L 469 437 L 471 437 L 472 438 L 473 438 L 475 440 L 476 440 L 478 442 L 479 442 L 482 445 L 482 446 L 484 448 L 484 449 L 486 451 L 486 453 L 487 454 L 487 455 L 488 456 L 488 457 L 489 458 L 489 460 L 490 461 L 490 463 L 489 464 L 489 465 L 487 467 L 486 467 L 485 466 L 484 466 L 483 465 L 483 464 L 481 462 L 481 461 L 480 460 L 480 459 L 479 458 L 479 457 L 478 456 L 478 455 L 470 447 L 469 447 L 467 445 L 466 445 L 465 444 L 464 444 L 462 442 L 460 442 L 459 441 L 458 441 L 457 440 L 456 440 L 455 439 L 454 439 L 453 438 L 452 438 L 451 437 L 449 437 L 448 436 L 445 436 L 444 435 L 440 435 L 439 434 L 438 434 L 437 433 L 436 433 L 434 431 L 434 430 L 433 429 L 433 428 L 432 427 L 432 423 L 431 422 L 431 419 L 430 418 L 430 417 L 429 416 L 429 415 L 428 414 L 428 413 L 427 412 L 427 411 L 426 410 L 426 409 L 425 408 L 425 407 L 424 406 L 424 405 L 421 402 L 421 401 L 415 395 L 414 395 L 412 393 L 411 393 L 409 391 L 408 391 L 407 390 L 406 390 L 405 389 L 404 389 L 403 388 L 401 388 L 400 387 L 397 387 L 396 386 L 392 386 L 391 385 L 381 385 L 380 386 L 378 386 L 376 388 L 375 388 L 372 391 L 372 392 L 357 407 L 357 408 L 356 409 L 356 410 L 355 411 L 355 413 L 354 414 L 354 418 L 355 419 L 355 422 L 356 423 L 356 449 L 355 450 L 355 460 L 356 461 L 356 462 L 368 474 L 368 475 L 374 481 L 376 481 L 377 482 L 379 482 L 380 483 L 381 483 L 385 487 L 385 489 L 386 490 L 386 502 L 387 503 L 387 505 L 388 506 L 388 507 L 389 508 L 389 510 L 390 511 L 390 512 L 392 514 L 392 515 L 393 516 L 393 517 L 395 519 L 395 520 L 405 530 L 406 530 L 408 532 L 409 532 L 411 534 L 412 534 L 413 535 L 414 535 L 415 536 L 416 536 L 417 537 L 419 537 L 420 538 L 421 538 L 422 539 L 427 539 L 428 540 L 436 540 L 437 541 L 438 541 L 440 543 L 440 544 L 441 545 L 441 547 L 442 548 L 442 557 L 443 558 L 443 560 L 444 561 L 444 563 L 445 564 L 445 565 L 447 567 L 447 568 L 448 568 L 450 570 L 464 570 L 465 571 L 466 571 L 467 572 L 467 577 L 465 579 L 464 579 L 463 580 L 454 580 L 453 581 L 452 581 L 451 582 L 450 582 L 449 583 L 449 584 L 448 585 L 448 588 L 447 589 L 447 600 L 448 601 L 448 606 L 449 607 L 449 608 L 450 609 L 450 610 L 451 611 L 451 612 L 462 623 L 463 623 L 464 624 L 465 624 L 466 625 L 471 625 L 472 624 L 479 624 L 480 623 L 489 623 L 490 624 L 508 624 L 509 623 L 510 623 L 511 622 L 511 621 L 512 620 L 512 619 L 515 616 L 519 616 L 521 618 L 521 619 L 522 620 L 522 627 L 523 628 L 523 629 L 530 636 L 531 636 L 533 638 L 534 638 L 535 639 L 536 639 L 537 640 L 554 640 L 555 639 L 558 639 L 559 638 L 561 638 L 562 637 L 563 637 L 564 636 L 565 636 L 566 635 L 566 634 L 567 633 L 567 632 L 568 631 L 568 618 L 567 617 L 567 607 L 568 606 L 568 602 L 567 601 L 567 595 L 568 594 L 568 585 L 569 584 L 569 581 L 570 580 L 570 579 L 572 577 L 572 576 L 574 574 L 575 574 L 577 572 L 578 572 L 579 571 L 580 571 L 581 570 L 583 570 L 584 569 L 589 569 L 590 568 L 591 569 L 593 569 L 596 572 L 596 576 L 594 578 L 593 578 L 592 579 L 587 579 L 586 580 L 583 580 L 579 584 L 579 586 L 578 587 L 578 631 L 579 632 L 579 633 L 582 636 L 583 636 L 584 637 L 586 637 L 587 638 L 591 638 L 592 639 L 604 639 L 605 638 L 609 638 L 610 637 L 612 637 L 613 636 L 614 636 L 615 635 L 616 635 L 623 628 L 623 626 L 624 625 L 624 622 L 623 621 L 623 578 L 624 577 L 624 576 L 625 575 L 625 574 L 628 571 L 629 571 L 630 570 L 631 570 L 632 569 L 639 569 L 640 568 L 667 568 L 668 569 L 677 569 L 679 567 L 679 559 L 678 558 L 678 528 L 679 527 L 679 523 L 680 522 L 680 521 L 682 519 L 682 518 L 684 516 L 685 516 L 686 515 L 687 515 L 688 514 L 690 514 L 691 513 L 726 513 L 727 514 L 731 514 L 732 513 L 733 513 L 734 512 L 734 501 L 733 500 L 733 480 L 734 479 L 734 473 L 735 472 L 735 467 L 734 466 L 734 465 L 733 464 L 733 463 L 719 449 L 718 449 L 716 447 L 714 447 L 713 446 L 697 446 L 696 447 L 695 447 L 694 448 L 693 448 L 691 450 L 691 451 L 688 454 L 687 454 L 686 455 L 685 455 L 684 454 L 683 454 L 680 451 L 680 449 L 679 448 L 679 447 L 676 444 L 675 444 L 674 443 L 672 443 L 671 442 L 664 442 L 663 441 L 661 441 L 659 439 L 659 438 L 658 437 L 658 434 L 661 431 L 662 431 L 663 430 L 668 430 L 669 429 L 672 429 L 673 428 L 675 428 L 676 427 L 677 427 L 679 425 L 680 425 L 682 423 L 683 423 L 693 413 L 693 412 L 696 409 L 696 408 L 697 407 L 697 406 L 698 405 L 698 404 L 699 403 L 699 402 L 700 401 L 700 399 L 701 398 L 701 396 L 702 395 L 702 393 L 703 392 L 703 388 L 704 387 L 704 380 L 703 379 L 703 377 L 701 375 L 701 374 L 697 370 L 696 370 L 688 362 L 688 361 L 685 358 L 685 357 L 683 355 L 683 354 L 682 353 L 682 351 L 681 350 L 681 348 L 680 347 L 680 344 L 679 343 L 679 331 L 678 330 L 678 319 L 679 318 L 679 296 L 680 295 L 680 289 L 679 288 L 679 286 L 676 283 L 675 283 L 674 282 L 673 282 L 672 281 L 670 281 L 669 280 L 667 280 L 666 279 L 654 279 L 653 278 L 651 278 L 647 274 L 647 272 L 646 271 L 646 266 L 645 265 L 645 263 L 637 255 L 636 255 L 627 246 L 626 246 L 625 245 L 617 245 L 616 246 L 585 246 L 584 245 L 581 245 L 580 244 L 579 244 L 578 243 L 577 243 L 571 237 L 571 236 L 570 235 L 570 234 L 569 233 L 569 231 L 568 230 L 568 193 L 567 192 L 567 191 L 565 191 L 564 190 L 562 190 L 561 191 "></path>
        <path fill="none" stroke="#fa00fa" stroke-width="3" d="M 485 175 L 484 176 L 480 176 L 479 177 L 477 177 L 476 178 L 474 178 L 473 179 L 472 179 L 471 180 L 470 180 L 469 181 L 468 181 L 466 183 L 465 183 L 455 193 L 455 194 L 454 195 L 454 196 L 452 198 L 452 199 L 451 200 L 451 202 L 450 203 L 450 204 L 449 205 L 449 208 L 448 209 L 448 218 L 449 219 L 449 220 L 451 222 L 451 223 L 486 258 L 488 258 L 489 259 L 490 259 L 491 258 L 492 258 L 493 257 L 494 257 L 507 244 L 507 243 L 510 240 L 510 239 L 511 238 L 511 236 L 512 235 L 512 231 L 513 230 L 513 223 L 512 222 L 512 199 L 513 198 L 513 189 L 512 188 L 512 187 L 511 186 L 511 185 L 507 181 L 506 181 L 502 177 L 501 177 L 500 176 L 497 176 L 496 175 L 485 175 L 484 176 "></path>
        <path fill="none" stroke="#fa00fa" stroke-width="3" d="M 375 561 L 374 562 L 372 562 L 371 563 L 370 563 L 368 565 L 367 565 L 357 575 L 357 576 L 356 577 L 356 585 L 357 586 L 357 615 L 356 616 L 356 620 L 357 621 L 357 622 L 358 623 L 359 623 L 360 624 L 366 624 L 367 623 L 393 623 L 394 624 L 403 624 L 404 623 L 405 623 L 406 622 L 407 622 L 411 618 L 411 617 L 415 613 L 415 612 L 416 611 L 416 610 L 417 609 L 417 607 L 418 606 L 418 602 L 419 601 L 419 594 L 418 593 L 418 588 L 417 587 L 417 585 L 416 584 L 416 583 L 415 582 L 415 581 L 414 580 L 414 579 L 413 578 L 413 577 L 411 575 L 411 574 L 406 569 L 405 569 L 402 566 L 401 566 L 400 565 L 399 565 L 398 564 L 397 564 L 396 563 L 394 563 L 393 562 L 390 562 L 389 561 L 375 561 L 374 562 "></path>
        <path fill="none" stroke="#fa00fa" stroke-width="3" d="M 697 284 L 696 285 L 694 285 L 690 289 L 690 292 L 689 293 L 689 341 L 690 342 L 690 345 L 691 346 L 691 348 L 692 349 L 692 350 L 693 351 L 693 352 L 695 354 L 695 355 L 706 366 L 707 366 L 709 368 L 711 368 L 712 369 L 713 369 L 714 368 L 716 368 L 717 367 L 718 367 L 733 352 L 733 351 L 734 350 L 734 349 L 735 348 L 735 343 L 734 342 L 734 336 L 733 335 L 733 313 L 734 312 L 734 305 L 735 304 L 735 301 L 734 300 L 734 298 L 724 288 L 723 288 L 721 286 L 719 286 L 718 285 L 715 285 L 714 284 L 697 284 L 696 285 "></path>
        <path fill="none" stroke="#fa00fa" stroke-width="3" d="M 338 467 L 337 468 L 298 468 L 297 469 L 296 469 L 292 473 L 292 474 L 290 476 L 290 478 L 289 479 L 289 482 L 288 483 L 288 494 L 289 495 L 289 499 L 290 500 L 290 502 L 291 503 L 291 505 L 292 506 L 292 507 L 294 509 L 294 510 L 295 511 L 296 511 L 298 513 L 348 513 L 349 514 L 357 514 L 358 513 L 360 513 L 363 510 L 363 509 L 364 508 L 364 507 L 365 506 L 365 505 L 366 504 L 366 502 L 367 501 L 367 499 L 368 498 L 368 491 L 367 490 L 367 488 L 364 485 L 364 484 L 353 473 L 353 472 L 349 468 L 348 468 L 347 467 L 338 467 L 337 468 "></path>
        <path fill="none" stroke="#fa00fa" stroke-width="3" d="M 636 191 L 633 194 L 633 200 L 634 201 L 634 224 L 633 225 L 633 238 L 641 246 L 642 246 L 650 254 L 651 254 L 652 255 L 654 255 L 655 256 L 660 256 L 661 255 L 664 255 L 665 254 L 666 254 L 667 253 L 669 253 L 670 252 L 671 252 L 672 251 L 673 251 L 675 249 L 676 249 L 684 241 L 684 240 L 686 238 L 686 237 L 687 236 L 687 235 L 688 234 L 688 233 L 689 232 L 689 230 L 690 229 L 690 227 L 691 226 L 691 220 L 692 219 L 692 216 L 691 215 L 691 209 L 690 208 L 690 205 L 689 204 L 689 203 L 688 202 L 688 200 L 687 199 L 687 198 L 685 196 L 685 195 L 683 193 L 682 193 L 681 192 L 680 192 L 679 191 L 670 191 L 669 192 L 645 192 L 644 191 L 636 191 L 633 194 "></path>
        <path fill="none" stroke="#fa00fa" stroke-width="3" d="M 359 191 L 358 192 L 356 192 L 355 193 L 354 193 L 352 195 L 352 196 L 350 198 L 350 199 L 349 200 L 349 201 L 348 202 L 348 204 L 347 205 L 347 207 L 346 208 L 346 212 L 345 213 L 345 222 L 346 223 L 346 226 L 347 227 L 347 229 L 349 231 L 349 232 L 352 235 L 353 235 L 354 236 L 394 236 L 395 237 L 401 237 L 402 236 L 404 236 L 410 230 L 410 229 L 416 223 L 416 222 L 417 221 L 417 220 L 418 219 L 418 209 L 417 208 L 417 206 L 416 205 L 416 203 L 415 202 L 415 201 L 414 200 L 414 199 L 413 198 L 413 197 L 408 192 L 407 192 L 406 191 L 395 191 L 394 192 L 366 192 L 365 191 L 359 191 L 358 192 "></path>
        <path fill="none" stroke="#fa00fa" stroke-width="3" d="M 340 356 L 339 357 L 303 357 L 302 358 L 301 358 L 301 360 L 300 361 L 300 362 L 301 363 L 301 374 L 302 375 L 302 385 L 301 386 L 301 401 L 302 402 L 303 402 L 304 403 L 309 403 L 310 402 L 334 402 L 335 403 L 341 403 L 342 404 L 345 404 L 346 403 L 348 403 L 350 401 L 351 401 L 352 400 L 352 399 L 359 392 L 359 391 L 361 389 L 362 389 L 366 385 L 366 384 L 368 382 L 368 377 L 366 375 L 366 374 L 364 372 L 363 372 L 356 365 L 356 364 L 349 357 L 348 357 L 347 356 L 340 356 L 339 357 "></path>
        <path fill="none" stroke="#fa00fa" stroke-width="3" d="M 737 412 L 736 413 L 733 413 L 732 414 L 731 414 L 728 417 L 728 418 L 727 419 L 727 421 L 726 422 L 726 425 L 725 426 L 725 432 L 724 433 L 724 434 L 725 435 L 725 439 L 726 440 L 726 441 L 728 443 L 728 444 L 742 458 L 754 458 L 755 457 L 778 457 L 779 458 L 786 458 L 787 457 L 788 457 L 789 456 L 789 445 L 788 444 L 788 427 L 789 426 L 789 415 L 788 414 L 788 413 L 786 413 L 785 412 L 783 412 L 782 413 L 740 413 L 739 412 L 737 412 L 736 413 "></path>
        <path fill="none" stroke="#fa00fa" stroke-width="3" d="M 742 357 L 739 360 L 738 360 L 738 361 L 728 371 L 728 372 L 726 374 L 726 375 L 725 376 L 725 379 L 724 380 L 724 383 L 725 384 L 725 390 L 726 391 L 726 393 L 727 394 L 727 396 L 728 397 L 728 398 L 731 401 L 732 401 L 733 402 L 783 402 L 784 403 L 785 402 L 787 402 L 789 400 L 789 389 L 788 388 L 788 372 L 789 371 L 789 359 L 788 358 L 787 358 L 786 357 L 780 357 L 779 358 L 755 358 L 754 357 L 742 357 L 739 360 "></path>
        <path fill="none" stroke="#fa00fa" stroke-width="3" d="M 305 523 L 304 524 L 303 524 L 301 526 L 301 535 L 302 536 L 302 557 L 301 558 L 301 565 L 302 566 L 302 567 L 303 568 L 305 568 L 306 569 L 308 569 L 309 568 L 339 568 L 340 569 L 347 569 L 348 568 L 349 568 L 350 567 L 351 567 L 357 561 L 357 560 L 361 556 L 361 555 L 362 554 L 362 553 L 363 552 L 363 549 L 364 548 L 364 536 L 363 535 L 363 532 L 362 531 L 362 529 L 360 527 L 360 526 L 359 526 L 358 525 L 357 525 L 356 524 L 314 524 L 313 523 L 305 523 L 304 524 "></path>
        <path fill="none" stroke="#fa00fa" stroke-width="3" d="M 434 618 L 433 619 L 429 619 L 428 620 L 426 620 L 425 621 L 424 621 L 423 622 L 422 622 L 419 625 L 418 625 L 413 630 L 413 631 L 412 632 L 412 646 L 413 647 L 413 662 L 412 663 L 412 674 L 413 675 L 413 676 L 415 678 L 416 678 L 417 679 L 425 679 L 426 678 L 443 678 L 444 679 L 454 679 L 456 677 L 456 676 L 457 675 L 457 668 L 456 667 L 456 646 L 457 645 L 457 633 L 456 632 L 456 631 L 449 624 L 448 624 L 445 621 L 444 621 L 443 620 L 442 620 L 441 619 L 438 619 L 437 618 L 434 618 L 433 619 "></path>
        <path fill="none" stroke="#fa00fa" stroke-width="3" d="M 472 634 L 471 635 L 470 635 L 468 637 L 468 638 L 467 639 L 467 648 L 468 649 L 468 667 L 467 668 L 467 676 L 470 679 L 481 679 L 482 678 L 499 678 L 500 679 L 512 679 L 513 678 L 514 678 L 515 677 L 516 677 L 520 673 L 520 672 L 521 671 L 521 670 L 522 669 L 522 668 L 523 667 L 523 666 L 524 665 L 524 663 L 525 662 L 525 658 L 526 657 L 526 649 L 525 648 L 525 646 L 523 644 L 523 643 L 518 638 L 518 637 L 517 636 L 516 636 L 515 635 L 514 635 L 513 634 L 472 634 L 471 635 "></path>
        <path fill="none" stroke="#fa00fa" stroke-width="3" d="M 523 136 L 522 137 L 521 137 L 520 138 L 519 138 L 516 141 L 516 142 L 514 144 L 514 145 L 513 146 L 513 147 L 512 148 L 512 150 L 511 151 L 511 153 L 510 154 L 510 158 L 509 159 L 509 166 L 510 167 L 510 169 L 512 171 L 512 172 L 515 175 L 515 176 L 518 179 L 519 179 L 521 181 L 533 181 L 534 180 L 539 180 L 540 181 L 565 181 L 566 180 L 567 180 L 567 179 L 568 178 L 568 170 L 567 169 L 567 147 L 568 146 L 568 139 L 565 136 L 554 136 L 553 137 L 534 137 L 533 136 L 523 136 L 522 137 "></path>
        <path fill="none" stroke="#fa00fa" stroke-width="3" d="M 743 247 L 742 248 L 741 248 L 740 249 L 739 249 L 737 251 L 737 252 L 735 254 L 735 255 L 734 256 L 734 257 L 733 258 L 733 259 L 732 260 L 732 262 L 731 263 L 731 268 L 730 269 L 730 273 L 731 274 L 731 278 L 732 279 L 732 280 L 734 282 L 734 283 L 738 287 L 738 288 L 739 289 L 740 289 L 742 291 L 743 291 L 744 292 L 751 292 L 752 291 L 786 291 L 789 288 L 789 280 L 788 279 L 788 259 L 789 258 L 789 257 L 788 256 L 788 252 L 787 251 L 787 250 L 786 249 L 785 249 L 784 248 L 783 248 L 782 247 L 743 247 L 742 248 "></path>
        <path fill="none" stroke="#fa00fa" stroke-width="3" d="M 326 235 L 325 236 L 320 236 L 319 237 L 316 237 L 315 238 L 313 238 L 312 239 L 311 239 L 310 240 L 309 240 L 308 241 L 307 241 L 303 245 L 303 246 L 302 247 L 302 249 L 301 250 L 301 256 L 302 257 L 302 280 L 301 281 L 301 289 L 303 291 L 304 291 L 305 292 L 309 292 L 310 291 L 335 291 L 336 292 L 344 292 L 346 290 L 346 289 L 347 288 L 347 284 L 346 283 L 346 244 L 345 243 L 345 242 L 342 239 L 341 239 L 340 238 L 339 238 L 338 237 L 337 237 L 336 236 L 331 236 L 330 235 L 326 235 L 325 236 "></path>
        <path fill="none" stroke="#fa00fa" stroke-width="3" d="M 377 132 L 376 133 L 373 133 L 372 134 L 370 134 L 369 135 L 368 135 L 367 136 L 366 136 L 365 137 L 364 137 L 359 142 L 359 143 L 358 144 L 358 147 L 357 148 L 357 158 L 358 159 L 358 161 L 357 162 L 357 177 L 358 178 L 358 179 L 359 180 L 361 180 L 362 181 L 398 181 L 399 180 L 404 180 L 405 179 L 406 179 L 409 176 L 409 175 L 410 174 L 410 172 L 411 171 L 411 165 L 412 164 L 412 161 L 411 160 L 411 155 L 410 154 L 410 152 L 409 151 L 409 150 L 408 149 L 408 148 L 407 147 L 407 146 L 405 144 L 405 143 L 401 139 L 400 139 L 397 136 L 396 136 L 395 135 L 394 135 L 393 134 L 391 134 L 390 133 L 387 133 L 386 132 L 377 132 L 376 133 "></path>
        <path fill="none" stroke="#fa00fa" stroke-width="3" d="M 284 412 L 283 413 L 249 413 L 248 414 L 247 414 L 247 415 L 246 416 L 246 427 L 247 428 L 247 443 L 246 444 L 246 454 L 247 455 L 247 457 L 248 458 L 248 459 L 251 462 L 252 462 L 254 464 L 255 464 L 256 465 L 257 465 L 258 466 L 259 466 L 260 467 L 262 467 L 263 468 L 267 468 L 268 469 L 278 469 L 279 468 L 281 468 L 282 467 L 283 467 L 284 466 L 285 466 L 290 461 L 290 459 L 291 458 L 291 451 L 290 450 L 290 424 L 291 423 L 291 416 L 290 415 L 290 414 L 289 413 L 287 413 L 286 412 L 284 412 L 283 413 "></path>
        <path fill="none" stroke="#fa00fa" stroke-width="3" d="M 633 634 L 632 635 L 631 635 L 630 636 L 629 636 L 628 637 L 628 638 L 625 641 L 625 642 L 624 643 L 624 644 L 623 645 L 623 647 L 622 648 L 622 657 L 623 658 L 623 661 L 624 662 L 624 664 L 625 665 L 625 666 L 626 667 L 626 668 L 627 669 L 627 670 L 629 672 L 629 673 L 632 676 L 633 676 L 634 677 L 635 677 L 636 678 L 672 678 L 673 677 L 674 677 L 677 674 L 677 672 L 678 671 L 678 637 L 676 635 L 675 635 L 674 634 L 665 634 L 664 635 L 663 634 L 652 634 L 651 635 L 643 635 L 642 634 L 633 634 L 632 635 "></path>
        <path fill="none" stroke="#fa00fa" stroke-width="3" d="M 598 680 L 597 681 L 592 681 L 591 682 L 590 682 L 589 683 L 587 683 L 585 685 L 584 685 L 577 692 L 577 693 L 575 695 L 575 697 L 574 698 L 574 700 L 573 701 L 573 706 L 572 707 L 572 708 L 573 709 L 573 715 L 574 716 L 574 717 L 575 718 L 575 720 L 577 722 L 577 723 L 580 726 L 580 727 L 581 727 L 585 731 L 586 731 L 587 732 L 588 732 L 589 733 L 591 733 L 592 734 L 596 734 L 597 735 L 602 735 L 603 734 L 607 734 L 608 733 L 610 733 L 611 732 L 612 732 L 613 731 L 614 731 L 617 728 L 618 728 L 619 727 L 619 726 L 621 724 L 621 722 L 622 721 L 622 694 L 621 693 L 621 691 L 618 688 L 618 687 L 617 687 L 615 685 L 614 685 L 612 683 L 611 683 L 610 682 L 608 682 L 607 681 L 602 681 L 601 680 L 598 680 L 597 681 "></path>
        <path fill="none" stroke="#fa00fa" stroke-width="3" d="M 268 514 L 267 515 L 264 515 L 263 516 L 261 516 L 260 517 L 259 517 L 258 518 L 257 518 L 255 520 L 254 520 L 249 525 L 249 526 L 248 527 L 248 528 L 247 529 L 247 558 L 248 559 L 248 561 L 249 562 L 249 563 L 251 565 L 252 565 L 253 566 L 254 566 L 255 567 L 258 567 L 259 568 L 266 568 L 267 567 L 274 567 L 275 568 L 287 568 L 288 567 L 289 567 L 289 566 L 290 565 L 290 563 L 291 562 L 291 557 L 290 556 L 290 551 L 291 550 L 291 544 L 290 543 L 290 531 L 291 530 L 291 525 L 290 524 L 290 522 L 289 521 L 289 520 L 287 518 L 286 518 L 284 516 L 282 516 L 281 515 L 278 515 L 277 514 L 268 514 L 267 515 "></path>
        <path fill="none" stroke="#fa00fa" stroke-width="3" d="M 758 189 L 757 190 L 754 190 L 753 191 L 752 191 L 751 192 L 750 192 L 749 193 L 748 193 L 746 195 L 745 195 L 741 199 L 741 200 L 739 202 L 739 203 L 738 204 L 738 205 L 737 206 L 737 208 L 736 209 L 736 213 L 735 214 L 735 220 L 736 221 L 736 225 L 737 226 L 737 228 L 738 229 L 738 230 L 743 235 L 745 235 L 746 236 L 780 236 L 781 235 L 783 235 L 787 231 L 787 229 L 788 228 L 788 206 L 787 205 L 787 203 L 786 202 L 786 201 L 785 200 L 785 199 L 780 194 L 779 194 L 777 192 L 776 192 L 775 191 L 773 191 L 772 190 L 770 190 L 769 189 L 758 189 L 757 190 "></path>
        <path fill="none" stroke="#fa00fa" stroke-width="3" d="M 480 82 L 479 83 L 477 83 L 476 84 L 475 84 L 474 85 L 473 85 L 470 88 L 470 89 L 469 90 L 469 92 L 468 93 L 468 123 L 469 124 L 469 125 L 470 126 L 470 127 L 473 130 L 474 130 L 476 132 L 477 132 L 478 133 L 480 133 L 481 134 L 483 134 L 484 135 L 497 135 L 498 134 L 500 134 L 501 133 L 502 133 L 503 132 L 504 132 L 505 131 L 506 131 L 510 127 L 510 126 L 511 125 L 511 123 L 512 122 L 512 94 L 511 93 L 511 90 L 510 89 L 510 88 L 506 84 L 505 84 L 504 83 L 502 83 L 501 82 L 480 82 L 479 83 "></path>
        <path fill="none" stroke="#fa00fa" stroke-width="3" d="M 698 137 L 697 138 L 695 138 L 694 139 L 693 139 L 691 141 L 691 142 L 690 143 L 690 144 L 689 145 L 689 179 L 690 180 L 690 182 L 694 186 L 695 186 L 696 187 L 697 187 L 698 188 L 700 188 L 701 189 L 705 189 L 706 190 L 710 190 L 711 189 L 716 189 L 717 188 L 719 188 L 720 187 L 721 187 L 723 185 L 724 185 L 727 182 L 728 182 L 729 181 L 729 180 L 732 177 L 732 176 L 733 175 L 733 174 L 734 173 L 734 171 L 735 170 L 735 167 L 736 166 L 736 158 L 735 157 L 735 154 L 734 153 L 734 151 L 733 150 L 733 149 L 732 148 L 732 147 L 728 143 L 728 142 L 727 142 L 724 139 L 722 139 L 721 138 L 718 138 L 717 137 L 698 137 L 697 138 "></path>
        <path fill="none" stroke="#fa00fa" stroke-width="3" d="M 430 82 L 429 83 L 426 83 L 425 84 L 424 84 L 423 85 L 422 85 L 421 86 L 420 86 L 414 92 L 414 93 L 413 94 L 413 95 L 412 96 L 412 97 L 411 98 L 411 100 L 410 101 L 410 114 L 411 115 L 411 117 L 412 118 L 412 119 L 413 120 L 413 121 L 415 123 L 415 124 L 419 128 L 420 128 L 422 130 L 423 130 L 424 131 L 425 131 L 426 132 L 428 132 L 429 133 L 434 133 L 435 134 L 437 134 L 438 133 L 443 133 L 444 132 L 446 132 L 447 131 L 448 131 L 449 130 L 450 130 L 455 125 L 455 124 L 456 123 L 456 92 L 455 91 L 455 90 L 453 88 L 453 87 L 452 87 L 450 85 L 449 85 L 448 84 L 447 84 L 446 83 L 443 83 L 442 82 L 430 82 L 429 83 "></path>
        <path fill="none" stroke="#fa00fa" stroke-width="3" d="M 303 412 L 301 414 L 301 415 L 300 416 L 300 419 L 301 420 L 301 455 L 303 457 L 304 457 L 305 458 L 339 458 L 340 457 L 342 457 L 343 456 L 344 456 L 344 455 L 345 454 L 345 453 L 346 452 L 346 418 L 345 417 L 345 416 L 342 413 L 310 413 L 309 412 L 303 412 L 301 414 "></path>
        <path fill="none" stroke="#fa00fa" stroke-width="3" d="M 266 242 L 265 243 L 263 243 L 262 244 L 260 244 L 259 245 L 258 245 L 257 246 L 256 246 L 253 249 L 252 249 L 251 250 L 251 251 L 249 253 L 249 254 L 248 255 L 248 256 L 247 257 L 247 287 L 250 290 L 251 290 L 252 291 L 281 291 L 282 292 L 287 292 L 288 291 L 289 291 L 290 290 L 290 289 L 291 288 L 291 280 L 290 279 L 290 273 L 291 272 L 291 255 L 290 254 L 290 249 L 288 247 L 288 246 L 287 245 L 286 245 L 285 244 L 284 244 L 283 243 L 280 243 L 279 242 L 266 242 L 265 243 "></path>
        <path fill="none" stroke="#fa00fa" stroke-width="3" d="M 636 579 L 633 582 L 633 619 L 634 620 L 634 622 L 635 623 L 636 623 L 637 624 L 647 624 L 648 623 L 666 623 L 667 624 L 676 624 L 679 621 L 679 617 L 678 616 L 678 587 L 679 586 L 679 582 L 678 581 L 678 580 L 677 579 L 636 579 L 633 582 "></path>
        <path fill="none" stroke="#fa00fa" stroke-width="3" d="M 305 301 L 304 302 L 302 302 L 301 303 L 301 314 L 302 315 L 302 334 L 301 335 L 301 345 L 303 347 L 341 347 L 342 346 L 343 346 L 345 344 L 345 343 L 346 342 L 346 310 L 347 309 L 347 306 L 346 305 L 346 304 L 344 302 L 343 302 L 342 301 L 340 301 L 339 302 L 308 302 L 307 301 L 305 301 L 304 302 "></path>
        <path fill="none" stroke="#fa00fa" stroke-width="3" d="M 694 523 L 693 524 L 691 524 L 690 525 L 690 526 L 689 527 L 689 529 L 688 530 L 688 534 L 689 535 L 689 561 L 688 562 L 688 564 L 689 565 L 689 567 L 690 568 L 691 568 L 692 569 L 697 569 L 698 568 L 725 568 L 726 569 L 730 569 L 731 568 L 732 568 L 734 566 L 734 559 L 733 558 L 733 534 L 734 533 L 734 526 L 731 523 L 724 523 L 723 524 L 708 524 L 707 523 L 694 523 L 693 524 "></path>
        <path fill="none" stroke="#fa00fa" stroke-width="3" d="M 618 190 L 617 191 L 608 191 L 607 192 L 595 192 L 594 191 L 580 191 L 578 193 L 578 228 L 579 229 L 579 231 L 583 235 L 585 235 L 586 236 L 618 236 L 619 235 L 620 235 L 623 232 L 623 198 L 624 197 L 624 194 L 623 193 L 623 192 L 622 191 L 620 191 L 619 190 L 618 190 L 617 191 "></path>
        <path fill="none" stroke="#fa00fa" stroke-width="3" d="M 748 468 L 745 471 L 745 472 L 744 473 L 744 511 L 746 513 L 762 513 L 763 512 L 771 512 L 772 513 L 786 513 L 789 510 L 789 501 L 788 500 L 788 481 L 789 480 L 789 470 L 788 469 L 787 469 L 786 468 L 748 468 L 745 471 "></path>
        <path fill="none" stroke="#fa00fa" stroke-width="3" d="M 748 302 L 747 303 L 746 303 L 745 304 L 745 305 L 744 306 L 744 342 L 745 343 L 745 344 L 748 347 L 786 347 L 787 346 L 788 346 L 789 345 L 789 334 L 788 333 L 788 316 L 789 315 L 789 305 L 786 302 L 774 302 L 773 303 L 766 303 L 765 302 L 748 302 L 747 303 "></path>
        <path fill="none" stroke="#fa00fa" stroke-width="3" d="M 360 246 L 359 247 L 358 247 L 357 248 L 357 249 L 356 250 L 356 256 L 357 257 L 357 281 L 356 282 L 356 289 L 359 292 L 368 292 L 369 291 L 377 291 L 378 292 L 388 292 L 389 291 L 394 291 L 395 290 L 396 290 L 400 286 L 400 285 L 401 284 L 401 278 L 402 277 L 402 267 L 401 266 L 401 250 L 400 249 L 400 248 L 399 248 L 398 247 L 397 247 L 396 246 L 391 246 L 390 247 L 367 247 L 366 246 L 360 246 L 359 247 "></path>
        <path fill="none" stroke="#fa00fa" stroke-width="3" d="M 581 136 L 578 139 L 578 179 L 580 181 L 608 181 L 609 180 L 610 180 L 611 181 L 620 181 L 621 180 L 622 180 L 622 179 L 623 178 L 623 168 L 622 167 L 622 151 L 623 150 L 623 140 L 622 139 L 622 138 L 621 137 L 620 137 L 619 136 L 610 136 L 609 137 L 592 137 L 591 136 L 581 136 L 578 139 "></path>
        <path fill="none" stroke="#fa00fa" stroke-width="3" d="M 251 357 L 250 358 L 248 358 L 247 359 L 247 360 L 246 361 L 246 370 L 247 371 L 247 388 L 246 389 L 246 399 L 249 402 L 282 402 L 283 403 L 288 403 L 291 400 L 291 374 L 290 373 L 290 370 L 291 369 L 291 360 L 288 357 L 281 357 L 280 358 L 257 358 L 256 357 L 251 357 L 250 358 "></path>
        <path fill="none" stroke="#fa00fa" stroke-width="3" d="M 471 690 L 468 693 L 468 695 L 467 696 L 467 698 L 468 699 L 468 723 L 469 724 L 469 725 L 470 726 L 470 727 L 473 730 L 474 730 L 475 731 L 476 731 L 477 732 L 479 732 L 480 733 L 500 733 L 501 732 L 504 732 L 505 731 L 506 731 L 514 723 L 514 722 L 515 721 L 515 720 L 516 719 L 516 717 L 517 716 L 517 714 L 518 713 L 518 701 L 517 700 L 517 697 L 516 696 L 516 695 L 512 691 L 511 691 L 510 690 L 471 690 L 468 693 "></path>
        <path fill="none" stroke="#fa00fa" stroke-width="3" d="M 693 578 L 692 579 L 690 579 L 689 580 L 689 581 L 688 582 L 688 586 L 689 587 L 689 621 L 690 622 L 690 623 L 691 623 L 692 624 L 698 624 L 699 623 L 729 623 L 730 622 L 731 622 L 732 621 L 732 620 L 733 619 L 733 589 L 734 588 L 734 582 L 733 581 L 733 580 L 732 580 L 731 579 L 696 579 L 695 578 L 693 578 L 692 579 "></path>
        <path fill="none" stroke="#fa00fa" stroke-width="3" d="M 747 523 L 746 524 L 745 524 L 745 525 L 744 526 L 744 565 L 745 566 L 745 567 L 746 568 L 747 568 L 748 569 L 751 569 L 752 568 L 782 568 L 783 567 L 785 567 L 787 565 L 787 564 L 788 563 L 788 535 L 789 534 L 789 528 L 788 527 L 788 526 L 786 524 L 754 524 L 753 523 L 747 523 L 746 524 "></path>
        <path fill="none" stroke="#fa00fa" stroke-width="3" d="M 323 136 L 322 137 L 319 137 L 318 138 L 316 138 L 315 139 L 314 139 L 312 141 L 311 141 L 305 147 L 305 148 L 304 149 L 304 150 L 303 151 L 303 152 L 302 153 L 302 156 L 301 157 L 301 167 L 302 168 L 302 171 L 303 172 L 303 173 L 304 174 L 304 175 L 306 177 L 306 178 L 310 182 L 311 182 L 313 184 L 314 184 L 315 185 L 316 185 L 317 186 L 319 186 L 320 187 L 324 187 L 325 188 L 328 188 L 329 187 L 334 187 L 335 186 L 337 186 L 338 185 L 339 185 L 341 183 L 342 183 L 343 182 L 343 181 L 345 179 L 345 176 L 346 175 L 346 148 L 345 147 L 345 145 L 344 144 L 344 143 L 341 140 L 340 140 L 339 139 L 338 139 L 337 138 L 336 138 L 335 137 L 331 137 L 330 136 L 323 136 L 322 137 "></path>
        <path fill="none" stroke="#fa00fa" stroke-width="3" d="M 254 302 L 253 303 L 250 303 L 247 306 L 247 308 L 246 309 L 246 314 L 247 315 L 247 334 L 246 335 L 246 343 L 249 346 L 250 346 L 251 347 L 260 347 L 261 346 L 276 346 L 277 347 L 289 347 L 290 346 L 290 345 L 291 344 L 291 318 L 290 317 L 290 314 L 291 313 L 291 306 L 290 305 L 290 304 L 288 302 L 278 302 L 277 303 L 260 303 L 259 302 L 254 302 L 253 303 "></path>
        <path fill="none" stroke="#fa00fa" stroke-width="3" d="M 802 413 L 800 415 L 800 455 L 802 457 L 803 457 L 804 458 L 808 458 L 809 457 L 835 457 L 836 456 L 837 456 L 838 455 L 839 455 L 842 452 L 842 451 L 843 450 L 843 449 L 844 448 L 844 447 L 845 446 L 845 444 L 846 443 L 846 440 L 847 439 L 847 431 L 846 430 L 846 426 L 845 425 L 845 423 L 844 422 L 844 421 L 843 420 L 843 419 L 839 415 L 838 415 L 837 414 L 835 414 L 834 413 L 802 413 L 800 415 "></path>
        <path fill="none" stroke="#fa00fa" stroke-width="3" d="M 305 579 L 304 580 L 303 580 L 302 581 L 302 583 L 301 584 L 301 588 L 302 589 L 302 617 L 303 618 L 303 619 L 306 622 L 307 622 L 308 623 L 337 623 L 338 624 L 341 624 L 342 623 L 344 623 L 345 622 L 345 621 L 346 620 L 346 583 L 345 582 L 345 581 L 344 580 L 343 580 L 342 579 L 305 579 L 304 580 "></path>
        <path fill="none" stroke="#fa00fa" stroke-width="3" d="M 639 136 L 638 137 L 636 137 L 635 138 L 635 139 L 634 140 L 634 170 L 633 171 L 633 178 L 634 179 L 634 180 L 635 180 L 636 181 L 674 181 L 675 180 L 676 180 L 678 178 L 678 163 L 677 162 L 677 156 L 678 155 L 678 144 L 677 143 L 677 141 L 674 138 L 673 138 L 672 137 L 645 137 L 644 136 L 639 136 L 638 137 "></path>
        <path fill="none" stroke="#fa00fa" stroke-width="3" d="M 747 579 L 745 581 L 745 582 L 744 583 L 744 614 L 745 615 L 745 618 L 746 619 L 746 620 L 749 623 L 750 623 L 751 624 L 752 624 L 753 625 L 755 625 L 756 626 L 769 626 L 770 625 L 772 625 L 773 624 L 775 624 L 776 623 L 777 623 L 779 621 L 780 621 L 785 616 L 785 615 L 786 614 L 786 613 L 787 612 L 787 609 L 788 608 L 788 587 L 787 586 L 787 584 L 783 580 L 781 580 L 780 579 L 747 579 L 745 581 "></path>
        <path fill="none" stroke="#fa00fa" stroke-width="3" d="M 362 634 L 361 635 L 359 635 L 357 637 L 357 651 L 358 652 L 358 658 L 357 659 L 357 668 L 358 669 L 358 671 L 359 672 L 359 673 L 363 677 L 365 677 L 366 678 L 391 678 L 392 679 L 394 679 L 395 678 L 398 678 L 400 676 L 400 675 L 401 674 L 401 643 L 402 642 L 402 640 L 401 639 L 401 637 L 399 635 L 398 635 L 397 634 L 362 634 L 361 635 "></path>
        <path fill="none" stroke="#fa00fa" stroke-width="3" d="M 693 634 L 692 635 L 691 635 L 689 637 L 689 670 L 690 671 L 690 672 L 691 673 L 691 674 L 693 676 L 694 676 L 695 677 L 697 677 L 698 678 L 717 678 L 718 677 L 722 677 L 723 676 L 724 676 L 726 674 L 727 674 L 730 671 L 730 670 L 732 668 L 732 667 L 733 666 L 733 665 L 734 664 L 734 663 L 735 662 L 735 659 L 736 658 L 736 647 L 735 646 L 735 643 L 734 642 L 734 641 L 733 640 L 733 639 L 730 636 L 729 636 L 728 635 L 725 635 L 724 634 L 693 634 L 692 635 "></path>
        <path fill="none" stroke="#fa00fa" stroke-width="3" d="M 804 357 L 803 358 L 802 358 L 800 360 L 800 394 L 799 395 L 799 397 L 800 398 L 800 400 L 802 402 L 835 402 L 836 401 L 838 401 L 842 397 L 842 396 L 843 395 L 843 366 L 842 365 L 842 364 L 841 363 L 841 362 L 839 360 L 838 360 L 837 359 L 836 359 L 835 358 L 809 358 L 808 357 L 804 357 L 803 358 "></path>
        <path fill="none" stroke="#fa00fa" stroke-width="3" d="M 204 469 L 203 470 L 201 470 L 196 475 L 196 476 L 195 477 L 195 478 L 194 479 L 194 481 L 193 482 L 193 487 L 192 488 L 192 491 L 193 492 L 193 497 L 194 498 L 194 500 L 195 501 L 195 502 L 196 503 L 196 504 L 201 509 L 202 509 L 203 510 L 204 510 L 205 511 L 207 511 L 208 512 L 227 512 L 228 511 L 230 511 L 231 510 L 232 510 L 239 503 L 239 502 L 240 501 L 240 500 L 241 499 L 241 497 L 242 496 L 242 483 L 241 482 L 241 480 L 240 479 L 240 478 L 239 477 L 239 476 L 237 474 L 237 473 L 236 472 L 235 472 L 233 470 L 232 470 L 231 469 L 204 469 L 203 470 "></path>
        <path fill="none" stroke="#fa00fa" stroke-width="3" d="M 534 82 L 533 83 L 531 83 L 530 84 L 529 84 L 525 88 L 525 89 L 524 90 L 524 92 L 523 93 L 523 122 L 524 123 L 524 124 L 525 124 L 526 125 L 529 125 L 530 126 L 531 125 L 564 125 L 565 124 L 566 124 L 566 123 L 567 122 L 567 93 L 566 92 L 566 90 L 565 89 L 565 88 L 561 84 L 560 84 L 559 83 L 557 83 L 556 82 L 534 82 L 533 83 "></path>
        <path fill="none" stroke="#fa00fa" stroke-width="3" d="M 805 302 L 804 303 L 803 303 L 802 304 L 801 304 L 801 305 L 800 306 L 800 344 L 802 346 L 803 346 L 804 347 L 812 347 L 813 346 L 827 346 L 828 347 L 830 347 L 831 346 L 836 346 L 837 345 L 838 345 L 841 342 L 841 341 L 842 340 L 842 338 L 843 337 L 843 315 L 842 314 L 842 312 L 841 311 L 841 310 L 840 309 L 840 308 L 837 305 L 836 305 L 835 304 L 834 304 L 833 303 L 812 303 L 811 302 L 805 302 L 804 303 "></path>
        <path fill="none" stroke="#fa00fa" stroke-width="3" d="M 803 468 L 800 471 L 800 509 L 801 510 L 801 511 L 802 511 L 803 512 L 804 512 L 805 513 L 810 513 L 811 512 L 833 512 L 834 511 L 835 511 L 836 510 L 837 510 L 840 507 L 840 506 L 841 505 L 841 504 L 842 503 L 842 501 L 843 500 L 843 478 L 842 477 L 842 475 L 841 474 L 841 473 L 838 470 L 837 470 L 836 469 L 831 469 L 830 468 L 828 468 L 827 469 L 812 469 L 811 468 L 803 468 L 800 471 "></path>
        <path fill="none" stroke="#fa00fa" stroke-width="3" d="M 206 413 L 205 414 L 202 414 L 201 415 L 200 415 L 198 417 L 197 417 L 197 418 L 195 420 L 195 421 L 194 422 L 194 423 L 193 424 L 193 427 L 192 428 L 192 442 L 193 443 L 193 445 L 194 446 L 194 448 L 195 449 L 195 450 L 200 455 L 201 455 L 202 456 L 204 456 L 205 457 L 231 457 L 235 453 L 235 417 L 231 413 L 206 413 L 205 414 "></path>
        <path fill="none" stroke="#fa00fa" stroke-width="3" d="M 591 82 L 590 83 L 588 83 L 587 84 L 585 84 L 580 89 L 580 90 L 579 91 L 579 112 L 578 113 L 578 120 L 579 121 L 579 123 L 580 124 L 581 124 L 582 125 L 618 125 L 619 124 L 620 124 L 621 123 L 621 122 L 622 121 L 622 94 L 621 93 L 621 91 L 618 88 L 618 87 L 617 87 L 615 85 L 614 85 L 613 84 L 612 84 L 611 83 L 609 83 L 608 82 L 591 82 L 590 83 "></path>
        <path fill="none" stroke="#fa00fa" stroke-width="3" d="M 205 358 L 204 359 L 202 359 L 201 360 L 200 360 L 195 365 L 195 366 L 194 367 L 194 369 L 193 370 L 193 373 L 192 374 L 192 387 L 193 388 L 193 391 L 194 392 L 194 393 L 195 394 L 195 395 L 200 400 L 201 400 L 202 401 L 206 401 L 207 402 L 230 402 L 231 401 L 232 401 L 235 398 L 235 362 L 233 360 L 233 359 L 232 359 L 231 358 L 205 358 L 204 359 "></path>
        <path fill="none" stroke="#fa00fa" stroke-width="3" d="M 316 634 L 315 635 L 310 635 L 309 636 L 308 636 L 304 640 L 304 641 L 303 642 L 303 643 L 302 644 L 302 646 L 301 647 L 301 659 L 302 660 L 302 662 L 303 663 L 303 664 L 304 665 L 304 666 L 305 667 L 305 668 L 311 674 L 312 674 L 314 676 L 316 676 L 317 677 L 321 677 L 322 678 L 332 678 L 333 677 L 337 677 L 338 676 L 339 676 L 340 675 L 341 675 L 344 672 L 344 671 L 345 670 L 345 668 L 346 667 L 346 639 L 345 638 L 345 637 L 343 635 L 341 635 L 340 634 L 333 634 L 332 635 L 322 635 L 321 634 L 316 634 L 315 635 "></path>
        <path fill="none" stroke="#fa00fa" stroke-width="3" d="M 419 690 L 418 691 L 416 691 L 414 693 L 414 694 L 413 695 L 413 720 L 414 721 L 414 722 L 415 723 L 415 724 L 416 725 L 416 726 L 418 728 L 419 728 L 421 730 L 422 730 L 423 731 L 424 731 L 425 732 L 428 732 L 429 733 L 442 733 L 443 732 L 446 732 L 447 731 L 449 731 L 451 729 L 452 729 L 454 727 L 454 726 L 455 725 L 455 724 L 456 723 L 456 699 L 457 698 L 457 697 L 456 696 L 456 693 L 454 691 L 453 691 L 452 690 L 419 690 L 418 691 "></path>
        <path fill="none" stroke="#fa00fa" stroke-width="3" d="M 259 579 L 258 580 L 255 580 L 250 585 L 250 586 L 249 587 L 249 589 L 248 590 L 248 595 L 247 596 L 247 601 L 248 602 L 248 607 L 249 608 L 249 610 L 250 611 L 250 612 L 252 614 L 252 615 L 256 619 L 257 619 L 259 621 L 260 621 L 261 622 L 262 622 L 263 623 L 266 623 L 267 624 L 278 624 L 279 623 L 281 623 L 282 622 L 283 622 L 284 621 L 285 621 L 289 617 L 289 616 L 290 615 L 290 610 L 291 609 L 291 605 L 290 604 L 290 592 L 291 591 L 291 586 L 290 585 L 290 582 L 288 580 L 287 580 L 286 579 L 259 579 L 258 580 "></path>
        <path fill="none" stroke="#fa00fa" stroke-width="3" d="M 804 524 L 803 525 L 802 525 L 801 526 L 801 527 L 800 528 L 800 560 L 801 561 L 801 562 L 802 563 L 802 564 L 803 565 L 804 565 L 805 566 L 806 566 L 807 567 L 827 567 L 828 566 L 830 566 L 831 565 L 832 565 L 833 564 L 834 564 L 839 559 L 839 558 L 840 557 L 840 556 L 841 555 L 841 554 L 842 553 L 842 551 L 843 550 L 843 538 L 842 537 L 842 535 L 841 534 L 841 533 L 840 532 L 840 531 L 839 530 L 839 529 L 836 526 L 835 526 L 834 525 L 832 525 L 831 524 L 804 524 L 803 525 "></path>
        <path fill="none" stroke="#fa00fa" stroke-width="3" d="M 807 248 L 806 249 L 805 249 L 801 253 L 801 254 L 800 255 L 800 287 L 801 288 L 801 289 L 802 290 L 803 290 L 804 291 L 831 291 L 832 290 L 834 290 L 835 289 L 836 289 L 839 286 L 839 285 L 840 284 L 840 283 L 841 282 L 841 281 L 842 280 L 842 278 L 843 277 L 843 265 L 842 264 L 842 262 L 841 261 L 841 260 L 840 259 L 840 258 L 838 256 L 838 255 L 834 251 L 833 251 L 832 250 L 831 250 L 830 249 L 828 249 L 827 248 L 807 248 L 806 249 "></path>
        <path fill="none" stroke="#fa00fa" stroke-width="3" d="M 208 303 L 207 304 L 205 304 L 204 305 L 203 305 L 202 306 L 201 306 L 197 310 L 197 311 L 195 313 L 195 314 L 194 315 L 194 317 L 193 318 L 193 333 L 194 334 L 194 336 L 195 337 L 195 338 L 196 339 L 196 340 L 200 344 L 201 344 L 202 345 L 203 345 L 204 346 L 231 346 L 234 343 L 234 342 L 235 341 L 235 310 L 234 309 L 234 307 L 232 305 L 231 305 L 230 304 L 229 304 L 228 303 L 208 303 L 207 304 "></path>
        <path fill="none" stroke="#fa00fa" stroke-width="3" d="M 639 690 L 638 691 L 637 691 L 635 693 L 635 694 L 634 695 L 634 720 L 635 721 L 635 723 L 637 725 L 637 726 L 639 728 L 640 728 L 641 729 L 642 729 L 643 730 L 644 730 L 645 731 L 647 731 L 648 732 L 653 732 L 654 733 L 655 732 L 661 732 L 662 731 L 663 731 L 664 730 L 666 730 L 668 728 L 669 728 L 674 723 L 674 722 L 675 721 L 675 720 L 676 719 L 676 717 L 677 716 L 677 699 L 676 698 L 676 696 L 675 695 L 675 694 L 672 691 L 670 691 L 669 690 L 639 690 L 638 691 "></path>
        <path fill="none" stroke="#fa00fa" stroke-width="3" d="M 649 83 L 648 84 L 645 84 L 644 85 L 643 85 L 642 86 L 641 86 L 639 88 L 638 88 L 637 89 L 637 90 L 635 92 L 635 94 L 634 95 L 634 120 L 635 121 L 635 122 L 637 124 L 638 124 L 639 125 L 669 125 L 670 124 L 671 124 L 672 123 L 673 123 L 675 121 L 675 120 L 676 119 L 676 117 L 677 116 L 677 99 L 676 98 L 676 96 L 675 95 L 675 94 L 674 93 L 674 92 L 669 87 L 668 87 L 667 86 L 666 86 L 665 85 L 664 85 L 663 84 L 660 84 L 659 83 L 649 83 L 648 84 "></path>
        <path fill="none" stroke="#fa00fa" stroke-width="3" d="M 367 690 L 366 691 L 365 691 L 360 696 L 360 698 L 359 699 L 359 701 L 358 702 L 358 713 L 359 714 L 359 717 L 360 718 L 360 719 L 361 720 L 361 721 L 368 728 L 369 728 L 370 729 L 371 729 L 372 730 L 374 730 L 375 731 L 387 731 L 388 730 L 390 730 L 391 729 L 392 729 L 393 728 L 394 728 L 399 723 L 399 722 L 400 721 L 400 719 L 401 718 L 401 697 L 400 696 L 400 694 L 397 691 L 395 691 L 394 690 L 367 690 L 366 691 "></path>
        <path fill="none" stroke="#fa00fa" stroke-width="3" d="M 208 524 L 207 525 L 205 525 L 204 526 L 203 526 L 198 531 L 198 532 L 197 533 L 197 534 L 196 535 L 196 536 L 195 537 L 195 541 L 194 542 L 194 546 L 195 547 L 195 551 L 196 552 L 196 553 L 197 554 L 197 555 L 198 556 L 198 557 L 204 563 L 205 563 L 206 564 L 207 564 L 208 565 L 210 565 L 211 566 L 224 566 L 225 565 L 227 565 L 228 564 L 229 564 L 234 559 L 234 557 L 235 556 L 235 532 L 234 531 L 234 529 L 231 526 L 230 526 L 229 525 L 228 525 L 227 524 L 208 524 L 207 525 "></path>
        <path fill="none" stroke="#fa00fa" stroke-width="3" d="M 210 249 L 209 250 L 208 250 L 207 251 L 206 251 L 205 252 L 204 252 L 198 258 L 198 259 L 197 260 L 197 261 L 196 262 L 196 263 L 195 264 L 195 269 L 194 270 L 194 272 L 195 273 L 195 277 L 196 278 L 196 280 L 197 281 L 197 282 L 198 283 L 198 284 L 203 289 L 204 289 L 205 290 L 208 290 L 209 291 L 226 291 L 227 290 L 229 290 L 230 289 L 231 289 L 233 287 L 233 286 L 234 285 L 234 284 L 235 283 L 235 259 L 234 258 L 234 256 L 229 251 L 228 251 L 227 250 L 225 250 L 224 249 L 210 249 L 209 250 "></path>
        <path fill="none" stroke="#fa00fa" stroke-width="3" d="M 867 359 L 866 360 L 864 360 L 863 361 L 862 361 L 861 362 L 860 362 L 857 365 L 857 366 L 856 367 L 856 369 L 855 370 L 855 390 L 856 391 L 856 393 L 857 394 L 857 395 L 861 399 L 862 399 L 863 400 L 864 400 L 865 401 L 867 401 L 868 402 L 877 402 L 878 401 L 880 401 L 881 400 L 882 400 L 883 399 L 884 399 L 885 398 L 886 398 L 891 393 L 891 392 L 892 391 L 892 390 L 893 389 L 893 388 L 894 387 L 894 383 L 895 382 L 895 378 L 894 377 L 894 374 L 893 373 L 893 371 L 892 370 L 892 369 L 890 367 L 890 366 L 887 363 L 886 363 L 884 361 L 883 361 L 882 360 L 880 360 L 879 359 L 867 359 L 866 360 "></path>
        <path fill="none" stroke="#fa00fa" stroke-width="3" d="M 812 579 L 811 580 L 808 580 L 807 581 L 806 581 L 805 582 L 804 582 L 802 584 L 802 585 L 801 586 L 801 587 L 800 588 L 800 609 L 801 610 L 801 612 L 806 617 L 807 617 L 808 618 L 809 618 L 810 619 L 811 619 L 812 620 L 824 620 L 825 619 L 827 619 L 828 618 L 829 618 L 831 616 L 832 616 L 835 613 L 835 612 L 837 610 L 837 609 L 838 608 L 838 607 L 839 606 L 839 603 L 840 602 L 840 595 L 839 594 L 839 592 L 838 591 L 838 589 L 837 588 L 837 587 L 832 582 L 831 582 L 830 581 L 829 581 L 828 580 L 825 580 L 824 579 L 812 579 L 811 580 "></path>
        <path fill="none" stroke="#fa00fa" stroke-width="3" d="M 812 195 L 811 196 L 810 196 L 809 197 L 808 197 L 807 198 L 806 198 L 802 202 L 802 203 L 801 204 L 801 205 L 800 206 L 800 226 L 801 227 L 801 229 L 803 231 L 803 232 L 804 232 L 806 234 L 807 234 L 808 235 L 812 235 L 813 236 L 823 236 L 824 235 L 828 235 L 829 234 L 830 234 L 831 233 L 832 233 L 836 229 L 836 228 L 837 227 L 837 226 L 838 225 L 838 224 L 839 223 L 839 220 L 840 219 L 840 213 L 839 212 L 839 209 L 838 208 L 838 207 L 837 206 L 837 205 L 836 204 L 836 203 L 832 199 L 831 199 L 829 197 L 828 197 L 827 196 L 825 196 L 824 195 L 812 195 L 811 196 "></path>
        <path fill="none" stroke="#fa00fa" stroke-width="3" d="M 699 690 L 698 691 L 697 691 L 696 692 L 695 692 L 692 695 L 692 696 L 691 697 L 691 698 L 690 699 L 690 703 L 689 704 L 689 712 L 690 713 L 690 717 L 691 718 L 691 719 L 692 720 L 692 721 L 697 726 L 698 726 L 700 728 L 702 728 L 703 729 L 715 729 L 716 728 L 718 728 L 720 726 L 721 726 L 727 720 L 727 719 L 728 718 L 728 717 L 729 716 L 729 714 L 730 713 L 730 703 L 729 702 L 729 700 L 728 699 L 728 698 L 727 697 L 727 696 L 723 692 L 722 692 L 721 691 L 719 691 L 718 690 L 699 690 L 698 691 "></path>
        <path fill="none" stroke="#fa00fa" stroke-width="3" d="M 703 86 L 702 87 L 701 87 L 700 88 L 699 88 L 698 89 L 697 89 L 692 94 L 692 95 L 691 96 L 691 97 L 690 98 L 690 102 L 689 103 L 689 111 L 690 112 L 690 116 L 691 117 L 691 118 L 692 119 L 692 120 L 695 123 L 696 123 L 697 124 L 699 124 L 700 125 L 718 125 L 719 124 L 721 124 L 723 122 L 724 122 L 726 120 L 726 119 L 728 117 L 728 115 L 729 114 L 729 112 L 730 111 L 730 103 L 729 102 L 729 99 L 728 98 L 728 97 L 727 96 L 727 95 L 721 89 L 720 89 L 719 88 L 718 88 L 717 87 L 716 87 L 715 86 L 703 86 L 702 87 "></path>
        <path fill="none" stroke="#fa00fa" stroke-width="3" d="M 543 742 L 542 743 L 539 743 L 538 744 L 536 744 L 535 745 L 534 745 L 527 752 L 527 753 L 526 754 L 526 756 L 525 757 L 525 769 L 526 770 L 526 772 L 527 773 L 527 774 L 534 781 L 535 781 L 536 782 L 538 782 L 539 783 L 542 783 L 543 784 L 547 784 L 548 783 L 551 783 L 552 782 L 554 782 L 556 780 L 557 780 L 562 775 L 562 774 L 563 773 L 563 772 L 564 771 L 564 770 L 565 769 L 565 757 L 564 756 L 564 755 L 563 754 L 563 753 L 562 752 L 562 751 L 557 746 L 556 746 L 555 745 L 554 745 L 553 744 L 552 744 L 551 743 L 547 743 L 546 742 L 543 742 L 542 743 "></path>
        <path fill="none" stroke="#fa00fa" stroke-width="3" d="M 868 469 L 867 470 L 865 470 L 864 471 L 863 471 L 862 472 L 861 472 L 857 476 L 857 477 L 856 478 L 856 480 L 855 481 L 855 498 L 856 499 L 856 501 L 857 502 L 857 503 L 861 507 L 862 507 L 863 508 L 864 508 L 865 509 L 867 509 L 868 510 L 878 510 L 879 509 L 881 509 L 882 508 L 883 508 L 884 507 L 885 507 L 890 502 L 890 501 L 891 500 L 891 499 L 892 498 L 892 497 L 893 496 L 893 493 L 894 492 L 894 487 L 893 486 L 893 483 L 892 482 L 892 481 L 891 480 L 891 479 L 890 478 L 890 477 L 886 473 L 885 473 L 883 471 L 882 471 L 881 470 L 879 470 L 878 469 L 868 469 L 867 470 "></path>
        <path fill="none" stroke="#fa00fa" stroke-width="3" d="M 868 305 L 867 306 L 865 306 L 864 307 L 863 307 L 862 308 L 861 308 L 858 311 L 858 312 L 856 314 L 856 317 L 855 318 L 855 333 L 856 334 L 856 336 L 857 337 L 857 338 L 858 339 L 858 340 L 860 342 L 861 342 L 862 343 L 863 343 L 864 344 L 865 344 L 866 345 L 871 345 L 872 346 L 874 346 L 875 345 L 880 345 L 881 344 L 882 344 L 883 343 L 884 343 L 885 342 L 886 342 L 890 338 L 890 337 L 891 336 L 891 335 L 892 334 L 892 333 L 893 332 L 893 329 L 894 328 L 894 322 L 893 321 L 893 319 L 892 318 L 892 316 L 890 314 L 890 313 L 885 308 L 884 308 L 883 307 L 882 307 L 881 306 L 879 306 L 878 305 L 868 305 L 867 306 "></path>
        <path fill="none" stroke="#fa00fa" stroke-width="3" d="M 539 32 L 538 33 L 536 33 L 534 35 L 533 35 L 528 40 L 528 41 L 526 43 L 526 45 L 525 46 L 525 58 L 526 59 L 526 61 L 527 62 L 527 63 L 532 68 L 533 68 L 534 69 L 536 69 L 537 70 L 552 70 L 553 69 L 556 69 L 558 67 L 559 67 L 562 64 L 562 63 L 563 62 L 563 61 L 564 60 L 564 58 L 565 57 L 565 47 L 564 46 L 564 44 L 563 43 L 563 42 L 561 40 L 561 39 L 557 35 L 556 35 L 555 34 L 554 34 L 553 33 L 552 33 L 551 32 L 539 32 L 538 33 "></path>
        <path fill="none" stroke="#fa00fa" stroke-width="3" d="M 483 745 L 482 746 L 480 746 L 479 747 L 478 747 L 477 748 L 476 748 L 474 750 L 474 751 L 472 753 L 472 754 L 471 755 L 471 758 L 470 759 L 470 767 L 471 768 L 471 770 L 472 771 L 472 773 L 474 775 L 474 776 L 477 779 L 478 779 L 480 781 L 481 781 L 482 782 L 484 782 L 485 783 L 495 783 L 496 782 L 498 782 L 499 781 L 500 781 L 501 780 L 502 780 L 507 775 L 507 774 L 508 773 L 508 772 L 509 771 L 509 769 L 510 768 L 510 757 L 509 756 L 509 754 L 508 753 L 508 752 L 503 747 L 502 747 L 501 746 L 499 746 L 498 745 L 483 745 L 482 746 "></path>
        <path fill="none" stroke="#fa00fa" stroke-width="3" d="M 485 32 L 484 33 L 482 33 L 481 34 L 480 34 L 478 36 L 477 36 L 474 39 L 474 40 L 473 41 L 473 42 L 472 43 L 472 44 L 471 45 L 471 47 L 470 48 L 470 56 L 471 57 L 471 60 L 472 61 L 472 62 L 474 64 L 474 65 L 476 67 L 477 67 L 478 68 L 479 68 L 480 69 L 482 69 L 483 70 L 497 70 L 498 69 L 501 69 L 503 67 L 504 67 L 507 64 L 507 63 L 508 62 L 508 61 L 509 60 L 509 58 L 510 57 L 510 47 L 509 46 L 509 44 L 508 43 L 508 42 L 507 41 L 507 40 L 502 35 L 501 35 L 500 34 L 499 34 L 498 33 L 496 33 L 495 32 L 485 32 L 484 33 "></path>
        <path fill="none" stroke="#fa00fa" stroke-width="3" d="M 321 690 L 320 691 L 317 691 L 316 692 L 315 692 L 313 694 L 312 694 L 311 695 L 311 696 L 309 698 L 309 699 L 308 700 L 308 701 L 307 702 L 307 705 L 306 706 L 306 711 L 307 712 L 307 715 L 308 716 L 308 717 L 309 718 L 309 719 L 311 721 L 311 722 L 312 723 L 313 723 L 316 726 L 317 726 L 318 727 L 320 727 L 321 728 L 331 728 L 332 727 L 334 727 L 335 726 L 336 726 L 339 723 L 340 723 L 341 722 L 341 721 L 343 719 L 343 718 L 344 717 L 344 715 L 345 714 L 345 703 L 344 702 L 344 700 L 343 699 L 343 698 L 341 696 L 341 695 L 340 694 L 339 694 L 337 692 L 336 692 L 335 691 L 332 691 L 331 690 L 321 690 L 320 691 "></path>
        <path fill="none" stroke="#fa00fa" stroke-width="3" d="M 597 32 L 596 33 L 593 33 L 592 34 L 591 34 L 590 35 L 589 35 L 583 41 L 583 42 L 582 43 L 582 44 L 581 45 L 581 48 L 580 49 L 580 55 L 581 56 L 581 59 L 582 60 L 582 61 L 583 62 L 583 63 L 587 67 L 588 67 L 589 68 L 590 68 L 591 69 L 594 69 L 595 70 L 604 70 L 605 69 L 608 69 L 609 68 L 610 68 L 611 67 L 612 67 L 616 63 L 616 62 L 617 61 L 617 60 L 618 59 L 618 57 L 619 56 L 619 48 L 618 47 L 618 45 L 617 44 L 617 43 L 616 42 L 616 41 L 614 39 L 614 38 L 613 38 L 610 35 L 609 35 L 608 34 L 607 34 L 606 33 L 603 33 L 602 32 L 597 32 L 596 33 "></path>
        <path fill="none" stroke="#fa00fa" stroke-width="3" d="M 212 197 L 211 198 L 209 198 L 208 199 L 207 199 L 205 201 L 204 201 L 202 203 L 202 204 L 200 206 L 200 207 L 199 208 L 199 209 L 198 210 L 198 214 L 197 215 L 197 218 L 198 219 L 198 222 L 199 223 L 199 224 L 200 225 L 200 226 L 201 227 L 201 228 L 204 231 L 205 231 L 207 233 L 208 233 L 209 234 L 212 234 L 213 235 L 221 235 L 222 234 L 224 234 L 225 233 L 226 233 L 227 232 L 228 232 L 233 227 L 233 226 L 234 225 L 234 224 L 235 223 L 235 220 L 236 219 L 236 213 L 235 212 L 235 210 L 234 209 L 234 207 L 232 205 L 232 204 L 229 201 L 228 201 L 226 199 L 225 199 L 224 198 L 222 198 L 221 197 L 212 197 L 211 198 "></path>
        <path fill="none" stroke="#fa00fa" stroke-width="3" d="M 213 580 L 212 581 L 209 581 L 208 582 L 207 582 L 206 583 L 205 583 L 201 587 L 201 588 L 199 590 L 199 592 L 198 593 L 198 596 L 197 597 L 197 601 L 198 602 L 198 605 L 199 606 L 199 607 L 200 608 L 200 609 L 201 610 L 201 611 L 204 614 L 205 614 L 207 616 L 208 616 L 209 617 L 211 617 L 212 618 L 221 618 L 222 617 L 224 617 L 225 616 L 226 616 L 227 615 L 228 615 L 232 611 L 232 610 L 233 609 L 233 608 L 234 607 L 234 604 L 235 603 L 235 594 L 234 593 L 234 591 L 233 590 L 233 589 L 232 588 L 232 587 L 228 583 L 227 583 L 226 582 L 225 582 L 224 581 L 222 581 L 221 580 L 213 580 L 212 581 "></path>
        <path fill="none" stroke="#fa00fa" stroke-width="3" d="M 159 361 L 158 362 L 155 362 L 154 363 L 153 363 L 152 364 L 151 364 L 146 369 L 146 370 L 145 371 L 145 372 L 144 373 L 144 375 L 143 376 L 143 385 L 144 386 L 144 387 L 145 388 L 145 389 L 146 390 L 146 391 L 151 396 L 152 396 L 153 397 L 154 397 L 155 398 L 156 398 L 157 399 L 166 399 L 167 398 L 169 398 L 170 397 L 171 397 L 172 396 L 173 396 L 177 392 L 177 391 L 178 390 L 178 389 L 179 388 L 179 385 L 180 384 L 180 377 L 179 376 L 179 372 L 178 371 L 178 370 L 177 369 L 177 368 L 174 365 L 173 365 L 171 363 L 170 363 L 169 362 L 166 362 L 165 361 L 159 361 L 158 362 "></path>
        <path fill="none" stroke="#fa00fa" stroke-width="3" d="M 432 745 L 431 746 L 428 746 L 427 747 L 426 747 L 425 748 L 424 748 L 419 753 L 419 754 L 418 755 L 418 757 L 417 758 L 417 769 L 418 770 L 418 771 L 419 772 L 419 773 L 421 775 L 421 776 L 423 778 L 424 778 L 426 780 L 427 780 L 428 781 L 430 781 L 431 782 L 440 782 L 441 781 L 443 781 L 444 780 L 445 780 L 446 779 L 447 779 L 451 775 L 451 774 L 453 772 L 453 770 L 454 769 L 454 765 L 455 764 L 455 762 L 454 761 L 454 757 L 453 756 L 453 755 L 452 754 L 452 753 L 450 751 L 450 750 L 449 749 L 448 749 L 446 747 L 444 747 L 443 746 L 440 746 L 439 745 L 432 745 L 431 746 "></path>
        <path fill="none" stroke="#fa00fa" stroke-width="3" d="M 157 416 L 156 417 L 155 417 L 154 418 L 153 418 L 152 419 L 151 419 L 146 424 L 146 425 L 145 426 L 145 427 L 144 428 L 144 429 L 143 430 L 143 439 L 144 440 L 144 442 L 145 443 L 145 444 L 146 445 L 146 446 L 151 451 L 152 451 L 153 452 L 154 452 L 155 453 L 158 453 L 159 454 L 165 454 L 166 453 L 169 453 L 170 452 L 171 452 L 173 450 L 174 450 L 177 447 L 177 446 L 178 445 L 178 444 L 179 443 L 179 439 L 180 438 L 180 432 L 179 431 L 179 427 L 178 426 L 178 425 L 177 424 L 177 423 L 173 419 L 172 419 L 171 418 L 170 418 L 169 417 L 167 417 L 166 416 L 157 416 L 156 417 "></path>
        <path fill="none" stroke="#fa00fa" stroke-width="3" d="M 431 33 L 430 34 L 428 34 L 427 35 L 426 35 L 424 37 L 423 37 L 421 39 L 421 40 L 419 42 L 419 43 L 418 44 L 418 45 L 417 46 L 417 57 L 418 58 L 418 60 L 420 62 L 420 63 L 424 67 L 425 67 L 426 68 L 427 68 L 428 69 L 432 69 L 433 70 L 438 70 L 439 69 L 443 69 L 444 68 L 445 68 L 446 67 L 447 67 L 451 63 L 451 62 L 453 60 L 453 58 L 454 57 L 454 47 L 453 46 L 453 44 L 452 43 L 452 42 L 450 40 L 450 39 L 448 37 L 447 37 L 445 35 L 444 35 L 443 34 L 441 34 L 440 33 L 431 33 L 430 34 "></path>
        <path fill="none" stroke="#fa00fa" stroke-width="3" d="M 160 307 L 159 308 L 156 308 L 155 309 L 154 309 L 153 310 L 152 310 L 150 312 L 149 312 L 148 313 L 148 314 L 146 316 L 146 317 L 145 318 L 145 320 L 144 321 L 144 330 L 145 331 L 145 333 L 147 335 L 147 336 L 151 340 L 152 340 L 154 342 L 156 342 L 157 343 L 166 343 L 167 342 L 169 342 L 170 341 L 171 341 L 173 339 L 174 339 L 175 338 L 175 337 L 177 335 L 177 334 L 178 333 L 178 331 L 179 330 L 179 320 L 178 319 L 178 317 L 176 315 L 176 314 L 172 310 L 171 310 L 170 309 L 169 309 L 168 308 L 164 308 L 163 307 L 160 307 L 159 308 "></path>
        <path fill="none" stroke="#fa00fa" stroke-width="3" d="M 157 472 L 156 473 L 154 473 L 153 474 L 152 474 L 146 480 L 146 481 L 145 482 L 145 484 L 144 485 L 144 494 L 145 495 L 145 497 L 146 498 L 146 499 L 152 505 L 153 505 L 154 506 L 155 506 L 156 507 L 161 507 L 162 508 L 163 507 L 167 507 L 168 506 L 170 506 L 172 504 L 173 504 L 176 501 L 176 500 L 177 499 L 177 498 L 178 497 L 178 496 L 179 495 L 179 484 L 178 483 L 178 482 L 177 481 L 177 480 L 176 479 L 176 478 L 173 475 L 172 475 L 171 474 L 170 474 L 169 473 L 168 473 L 167 472 L 157 472 L 156 473 "></path>
        <path fill="none" stroke="#fa00fa" stroke-width="3" d="M 651 34 L 650 35 L 648 35 L 647 36 L 646 36 L 645 37 L 644 37 L 640 41 L 640 42 L 639 43 L 639 44 L 638 45 L 638 47 L 637 48 L 637 56 L 638 57 L 638 59 L 639 60 L 639 61 L 645 67 L 646 67 L 647 68 L 649 68 L 650 69 L 658 69 L 659 68 L 662 68 L 663 67 L 664 67 L 670 61 L 670 60 L 671 59 L 671 57 L 672 56 L 672 48 L 671 47 L 671 45 L 670 44 L 670 43 L 669 42 L 669 41 L 665 37 L 664 37 L 663 36 L 662 36 L 661 35 L 659 35 L 658 34 L 651 34 L 650 35 "></path>
        <path fill="none" stroke="#fa00fa" stroke-width="3" d="M 814 637 L 813 638 L 811 638 L 809 640 L 808 640 L 805 643 L 805 644 L 803 646 L 803 648 L 802 649 L 802 659 L 803 660 L 803 661 L 804 662 L 804 663 L 805 664 L 805 665 L 807 667 L 808 667 L 810 669 L 811 669 L 812 670 L 814 670 L 815 671 L 823 671 L 824 670 L 826 670 L 827 669 L 828 669 L 834 663 L 834 662 L 835 661 L 835 659 L 836 658 L 836 650 L 835 649 L 835 647 L 834 646 L 834 645 L 828 639 L 827 639 L 826 638 L 824 638 L 823 637 L 814 637 L 813 638 "></path>
        <path fill="none" stroke="#fa00fa" stroke-width="3" d="M 759 692 L 758 693 L 756 693 L 754 695 L 753 695 L 750 698 L 750 699 L 749 700 L 749 701 L 748 702 L 748 703 L 747 704 L 747 713 L 748 714 L 748 716 L 750 718 L 750 719 L 754 723 L 755 723 L 756 724 L 757 724 L 758 725 L 761 725 L 762 726 L 766 726 L 767 725 L 770 725 L 771 724 L 772 724 L 773 723 L 774 723 L 778 719 L 778 718 L 779 717 L 779 716 L 780 715 L 780 713 L 781 712 L 781 705 L 780 704 L 780 702 L 779 701 L 779 700 L 777 698 L 777 697 L 776 696 L 775 696 L 773 694 L 772 694 L 771 693 L 770 693 L 769 692 L 759 692 L 758 693 "></path>
        <path fill="none" stroke="#fa00fa" stroke-width="3" d="M 763 89 L 762 90 L 758 90 L 757 91 L 756 91 L 754 93 L 753 93 L 750 96 L 750 97 L 749 98 L 749 99 L 748 100 L 748 102 L 747 103 L 747 110 L 748 111 L 748 113 L 749 114 L 749 115 L 751 117 L 751 118 L 753 120 L 754 120 L 756 122 L 758 122 L 759 123 L 769 123 L 770 122 L 771 122 L 772 121 L 773 121 L 775 119 L 776 119 L 777 118 L 777 117 L 779 115 L 779 114 L 780 113 L 780 111 L 781 110 L 781 103 L 780 102 L 780 100 L 779 99 L 779 98 L 778 97 L 778 96 L 775 93 L 774 93 L 772 91 L 771 91 L 770 90 L 766 90 L 765 89 L 763 89 L 762 90 "></path>
        <path fill="none" stroke="#fa00fa" stroke-width="3" d="M 376 747 L 375 748 L 374 748 L 373 749 L 372 749 L 371 750 L 370 750 L 367 753 L 367 754 L 366 755 L 366 756 L 365 757 L 365 758 L 364 759 L 364 768 L 365 769 L 365 770 L 366 771 L 366 772 L 367 773 L 367 774 L 370 777 L 371 777 L 372 778 L 373 778 L 374 779 L 375 779 L 376 780 L 385 780 L 386 779 L 388 779 L 390 777 L 391 777 L 394 774 L 394 773 L 396 771 L 396 769 L 397 768 L 397 759 L 396 758 L 396 756 L 395 755 L 395 754 L 391 750 L 390 750 L 388 748 L 386 748 L 385 747 L 376 747 L 375 748 "></path>
        <path fill="none" stroke="#fa00fa" stroke-width="3" d="M 377 35 L 376 36 L 374 36 L 373 37 L 372 37 L 366 43 L 366 44 L 365 45 L 365 47 L 364 48 L 364 55 L 365 56 L 365 58 L 366 59 L 366 60 L 368 62 L 368 63 L 370 65 L 371 65 L 372 66 L 373 66 L 374 67 L 375 67 L 376 68 L 385 68 L 386 67 L 388 67 L 389 66 L 390 66 L 395 61 L 395 60 L 396 59 L 396 57 L 397 56 L 397 47 L 396 46 L 396 45 L 395 44 L 395 43 L 394 42 L 394 41 L 392 39 L 391 39 L 389 37 L 388 37 L 387 36 L 385 36 L 384 35 L 377 35 L 376 36 "></path>
        <path fill="none" stroke="#fa00fa" stroke-width="3" d="M 157 529 L 156 530 L 154 530 L 152 532 L 151 532 L 149 534 L 149 535 L 147 537 L 147 539 L 146 540 L 146 549 L 147 550 L 147 552 L 149 554 L 149 555 L 151 557 L 152 557 L 154 559 L 155 559 L 156 560 L 167 560 L 168 559 L 169 559 L 171 557 L 172 557 L 174 555 L 174 554 L 176 552 L 176 551 L 177 550 L 177 539 L 176 538 L 176 537 L 174 535 L 174 534 L 172 532 L 171 532 L 169 530 L 168 530 L 167 529 L 157 529 L 156 530 "></path>
        <path fill="none" stroke="#fa00fa" stroke-width="3" d="M 157 255 L 156 256 L 155 256 L 154 257 L 153 257 L 151 259 L 150 259 L 150 260 L 148 262 L 148 263 L 147 264 L 147 265 L 146 266 L 146 275 L 147 276 L 147 277 L 148 278 L 148 279 L 149 280 L 149 281 L 151 283 L 152 283 L 154 285 L 156 285 L 157 286 L 167 286 L 168 285 L 169 285 L 170 284 L 171 284 L 175 280 L 175 279 L 176 278 L 176 277 L 177 276 L 177 265 L 176 264 L 176 263 L 174 261 L 174 260 L 172 258 L 171 258 L 169 256 L 167 256 L 166 255 L 157 255 L 156 256 "></path>
        <path fill="none" stroke="#fa00fa" stroke-width="3" d="M 870 584 L 869 585 L 867 585 L 866 586 L 865 586 L 860 591 L 860 592 L 859 593 L 859 595 L 858 596 L 858 602 L 859 603 L 859 605 L 860 606 L 860 607 L 861 608 L 861 609 L 864 612 L 865 612 L 866 613 L 867 613 L 868 614 L 870 614 L 871 615 L 876 615 L 877 614 L 879 614 L 880 613 L 881 613 L 882 612 L 883 612 L 886 609 L 886 608 L 888 606 L 888 604 L 889 603 L 889 596 L 888 595 L 888 593 L 887 592 L 887 591 L 882 586 L 881 586 L 880 585 L 878 585 L 877 584 L 870 584 L 869 585 "></path>
        <path fill="none" stroke="#fa00fa" stroke-width="3" d="M 873 200 L 872 201 L 868 201 L 867 202 L 866 202 L 864 204 L 863 204 L 862 205 L 862 206 L 860 208 L 860 209 L 859 210 L 859 212 L 858 213 L 858 219 L 859 220 L 859 222 L 860 223 L 860 224 L 865 229 L 866 229 L 867 230 L 868 230 L 869 231 L 878 231 L 879 230 L 880 230 L 881 229 L 882 229 L 887 224 L 887 223 L 888 222 L 888 220 L 889 219 L 889 213 L 888 212 L 888 210 L 887 209 L 887 208 L 886 207 L 886 206 L 884 204 L 883 204 L 881 202 L 880 202 L 879 201 L 875 201 L 874 200 L 873 200 L 872 201 "></path>
        <path fill="none" stroke="#fa00fa" stroke-width="3" d="M 212 146 L 211 147 L 210 147 L 209 148 L 208 148 L 203 153 L 203 154 L 202 155 L 202 157 L 201 158 L 201 164 L 202 165 L 202 167 L 203 168 L 203 169 L 208 174 L 209 174 L 210 175 L 212 175 L 213 176 L 220 176 L 221 175 L 223 175 L 225 173 L 226 173 L 228 171 L 228 170 L 230 168 L 230 166 L 231 165 L 231 156 L 230 155 L 230 154 L 228 152 L 228 151 L 226 149 L 225 149 L 223 147 L 221 147 L 220 146 L 212 146 L 211 147 "></path>
        <path fill="none" stroke="#fa00fa" stroke-width="3" d="M 705 749 L 704 750 L 703 750 L 702 751 L 701 751 L 696 756 L 696 758 L 695 759 L 695 762 L 694 763 L 694 764 L 695 765 L 695 769 L 696 770 L 696 771 L 702 777 L 703 777 L 704 778 L 708 778 L 709 779 L 710 779 L 711 778 L 714 778 L 715 777 L 717 777 L 722 772 L 722 771 L 723 770 L 723 769 L 724 768 L 724 759 L 723 758 L 723 757 L 722 756 L 722 755 L 718 751 L 717 751 L 716 750 L 715 750 L 714 749 L 705 749 L 704 750 "></path>
        <path fill="none" stroke="#fa00fa" stroke-width="3" d="M 705 37 L 704 38 L 703 38 L 702 39 L 701 39 L 696 44 L 696 45 L 695 46 L 695 49 L 694 50 L 694 54 L 695 55 L 695 57 L 696 58 L 696 59 L 698 61 L 698 62 L 699 63 L 700 63 L 702 65 L 703 65 L 704 66 L 714 66 L 715 65 L 716 65 L 717 64 L 718 64 L 722 60 L 722 59 L 723 58 L 723 56 L 724 55 L 724 48 L 723 47 L 723 45 L 721 43 L 721 42 L 719 40 L 718 40 L 716 38 L 715 38 L 714 37 L 705 37 L 704 38 "></path>
        <path fill="none" stroke="#fa00fa" stroke-width="3" d="M 926 420 L 925 421 L 923 421 L 922 422 L 921 422 L 919 424 L 918 424 L 917 425 L 917 426 L 915 428 L 915 430 L 914 431 L 914 439 L 915 440 L 915 442 L 921 448 L 922 448 L 923 449 L 926 449 L 927 450 L 930 450 L 931 449 L 934 449 L 935 448 L 936 448 L 941 443 L 941 442 L 942 441 L 942 440 L 943 439 L 943 431 L 942 430 L 942 429 L 941 428 L 941 427 L 936 422 L 935 422 L 934 421 L 932 421 L 931 420 L 926 420 L 925 421 "></path>
        <path fill="none" stroke="#fa00fa" stroke-width="3" d="M 927 365 L 926 366 L 923 366 L 922 367 L 921 367 L 919 369 L 918 369 L 918 370 L 915 373 L 915 375 L 914 376 L 914 384 L 915 385 L 915 387 L 917 389 L 917 390 L 918 391 L 919 391 L 921 393 L 922 393 L 923 394 L 925 394 L 926 395 L 930 395 L 931 394 L 934 394 L 935 393 L 936 393 L 941 388 L 941 387 L 942 386 L 942 385 L 943 384 L 943 376 L 942 375 L 942 374 L 941 373 L 941 372 L 936 367 L 935 367 L 934 366 L 931 366 L 930 365 L 927 365 L 926 366 "></path>
        <path fill="none" stroke="#fa00fa" stroke-width="3" d="M 322 750 L 321 751 L 320 751 L 319 752 L 318 752 L 314 756 L 314 757 L 313 758 L 313 760 L 312 761 L 312 767 L 313 768 L 313 769 L 314 770 L 314 771 L 319 776 L 320 776 L 321 777 L 330 777 L 331 776 L 332 776 L 333 775 L 334 775 L 337 772 L 337 771 L 338 770 L 338 769 L 339 768 L 339 765 L 340 764 L 340 763 L 339 762 L 339 759 L 338 758 L 338 757 L 337 756 L 337 755 L 334 752 L 333 752 L 332 751 L 330 751 L 329 750 L 322 750 L 321 751 "></path>
        <path fill="none" stroke="#fa00fa" stroke-width="3" d="M 322 38 L 321 39 L 319 39 L 314 44 L 314 45 L 313 46 L 313 48 L 312 49 L 312 54 L 313 55 L 313 57 L 314 58 L 314 59 L 318 63 L 319 63 L 320 64 L 322 64 L 323 65 L 329 65 L 330 64 L 331 64 L 332 63 L 333 63 L 335 61 L 336 61 L 336 60 L 338 58 L 338 57 L 339 56 L 339 47 L 338 46 L 338 45 L 337 44 L 337 43 L 334 40 L 333 40 L 332 39 L 331 39 L 330 38 L 322 38 L 321 39 "></path>
        <path fill="none" stroke="#fa00fa" stroke-width="3" d="M 160 202 L 159 203 L 156 203 L 155 204 L 154 204 L 150 208 L 150 209 L 149 210 L 149 212 L 148 213 L 148 218 L 149 219 L 149 221 L 150 222 L 150 223 L 154 227 L 155 227 L 156 228 L 159 228 L 160 229 L 163 229 L 164 228 L 166 228 L 167 227 L 168 227 L 169 226 L 170 226 L 171 225 L 171 224 L 173 222 L 173 221 L 174 220 L 174 211 L 173 210 L 173 209 L 171 207 L 171 206 L 170 206 L 168 204 L 167 204 L 166 203 L 163 203 L 162 202 L 160 202 L 159 203 "></path>
        <path fill="none" stroke="#fa00fa" stroke-width="3" d="M 817 696 L 816 697 L 814 697 L 813 698 L 812 698 L 808 702 L 808 703 L 807 704 L 807 706 L 806 707 L 806 710 L 807 711 L 807 714 L 808 715 L 808 716 L 812 720 L 813 720 L 814 721 L 817 721 L 818 722 L 820 722 L 821 721 L 824 721 L 825 720 L 826 720 L 830 716 L 830 715 L 831 714 L 831 711 L 832 710 L 832 708 L 831 707 L 831 704 L 830 703 L 830 702 L 826 698 L 825 698 L 824 697 L 822 697 L 821 696 L 817 696 L 816 697 "></path>
        <path fill="none" stroke="#fa00fa" stroke-width="3" d="M 818 93 L 817 94 L 814 94 L 813 95 L 812 95 L 809 98 L 809 99 L 808 100 L 808 101 L 807 102 L 807 110 L 808 111 L 808 112 L 809 113 L 809 114 L 811 116 L 812 116 L 813 117 L 814 117 L 815 118 L 818 118 L 819 119 L 820 118 L 824 118 L 826 116 L 827 116 L 829 114 L 829 113 L 831 111 L 831 107 L 832 106 L 832 105 L 831 104 L 831 101 L 830 100 L 830 99 L 826 95 L 825 95 L 824 94 L 821 94 L 820 93 L 818 93 L 817 94 "></path>
        <path fill="none" stroke="#fa00fa" stroke-width="3" d="M 103 368 L 102 369 L 101 369 L 100 370 L 99 370 L 96 373 L 96 374 L 95 375 L 95 377 L 94 378 L 94 382 L 95 383 L 95 385 L 96 386 L 96 387 L 100 391 L 102 391 L 103 392 L 110 392 L 111 391 L 112 391 L 113 390 L 114 390 L 117 387 L 117 386 L 118 385 L 118 382 L 119 381 L 119 379 L 118 378 L 118 375 L 116 373 L 116 372 L 114 370 L 113 370 L 112 369 L 111 369 L 110 368 L 103 368 L 102 369 "></path>
        <path fill="none" stroke="#fa00fa" stroke-width="3" d="M 102 423 L 101 424 L 100 424 L 96 428 L 96 429 L 95 430 L 95 431 L 94 432 L 94 437 L 95 438 L 95 440 L 96 441 L 96 442 L 99 445 L 100 445 L 101 446 L 102 446 L 103 447 L 109 447 L 110 446 L 112 446 L 114 444 L 115 444 L 116 443 L 116 442 L 117 441 L 117 440 L 118 439 L 118 430 L 116 428 L 116 427 L 114 425 L 113 425 L 112 424 L 111 424 L 110 423 L 102 423 L 101 424 "></path>
        <path fill="none" stroke="#fa00fa" stroke-width="3" d="M 871 149 L 870 150 L 869 150 L 868 151 L 867 151 L 864 154 L 864 155 L 863 156 L 863 157 L 862 158 L 862 164 L 863 165 L 863 166 L 864 167 L 864 168 L 867 171 L 868 171 L 869 172 L 871 172 L 872 173 L 876 173 L 877 172 L 879 172 L 880 171 L 881 171 L 884 168 L 884 167 L 885 166 L 885 164 L 886 163 L 886 158 L 885 157 L 885 156 L 884 155 L 884 154 L 881 151 L 880 151 L 879 150 L 878 150 L 877 149 L 871 149 L 870 150 "></path>
        <path fill="none" stroke="#fa00fa" stroke-width="3" d="M 103 314 L 102 315 L 101 315 L 100 316 L 99 316 L 97 318 L 97 319 L 96 320 L 96 321 L 95 322 L 95 328 L 96 329 L 96 330 L 97 331 L 97 332 L 100 335 L 101 335 L 102 336 L 105 336 L 106 337 L 107 337 L 108 336 L 111 336 L 112 335 L 113 335 L 116 332 L 116 331 L 117 330 L 117 328 L 118 327 L 118 323 L 117 322 L 117 320 L 112 315 L 111 315 L 110 314 L 103 314 L 102 315 "></path>
        <path fill="none" stroke="#fa00fa" stroke-width="3" d="M 214 698 L 213 699 L 211 699 L 210 700 L 209 700 L 207 702 L 207 703 L 206 704 L 206 705 L 205 706 L 205 712 L 206 713 L 206 714 L 207 715 L 207 716 L 209 718 L 210 718 L 211 719 L 212 719 L 213 720 L 219 720 L 220 719 L 221 719 L 222 718 L 223 718 L 225 716 L 225 715 L 226 714 L 226 713 L 227 712 L 227 707 L 226 706 L 226 704 L 224 702 L 224 701 L 223 701 L 221 699 L 219 699 L 218 698 L 214 698 L 213 699 "></path>
        <path fill="none" stroke="#fa00fa" stroke-width="3" d="M 213 95 L 212 96 L 211 96 L 210 97 L 209 97 L 207 99 L 207 100 L 206 101 L 206 102 L 205 103 L 205 109 L 206 110 L 206 111 L 208 113 L 208 114 L 209 114 L 211 116 L 213 116 L 214 117 L 218 117 L 219 116 L 221 116 L 226 111 L 226 109 L 227 108 L 227 104 L 226 103 L 226 101 L 224 99 L 224 98 L 223 97 L 222 97 L 221 96 L 220 96 L 219 95 L 213 95 L 212 96 "></path>
        <path fill="none" stroke="#fa00fa" stroke-width="3" d="M 267 754 L 266 755 L 265 755 L 262 758 L 262 759 L 261 760 L 261 768 L 262 769 L 262 770 L 265 773 L 266 773 L 267 774 L 275 774 L 277 772 L 278 772 L 279 771 L 279 770 L 280 769 L 280 768 L 281 767 L 281 760 L 279 758 L 279 757 L 277 755 L 276 755 L 275 754 L 267 754 L 266 755 "></path>
        <path fill="none" stroke="#fa00fa" stroke-width="3" d="M 267 41 L 266 42 L 265 42 L 262 45 L 262 46 L 261 47 L 261 50 L 260 51 L 261 52 L 261 55 L 262 56 L 262 57 L 265 60 L 266 60 L 267 61 L 275 61 L 277 59 L 278 59 L 279 58 L 279 57 L 280 56 L 280 55 L 281 54 L 281 48 L 280 47 L 280 46 L 276 42 L 275 42 L 274 41 L 267 41 L 266 42 "></path>
        <path fill="none" stroke="#fa00fa" stroke-width="3" d="M 157 151 L 155 153 L 154 153 L 153 154 L 153 155 L 152 156 L 152 157 L 151 158 L 151 164 L 152 165 L 152 166 L 156 170 L 158 170 L 159 171 L 163 171 L 164 170 L 165 170 L 166 169 L 167 169 L 170 166 L 170 164 L 171 163 L 171 158 L 170 157 L 170 156 L 169 155 L 169 154 L 168 153 L 167 153 L 165 151 L 157 151 L 155 153 "></path>
        <path fill="none" stroke="#fa00fa" stroke-width="3" d="M 103 535 L 102 536 L 101 536 L 97 540 L 97 542 L 96 543 L 96 546 L 97 547 L 97 549 L 98 550 L 98 551 L 100 553 L 101 553 L 102 554 L 104 554 L 105 555 L 107 555 L 108 554 L 110 554 L 111 553 L 112 553 L 115 550 L 115 549 L 116 548 L 116 542 L 115 541 L 115 540 L 114 539 L 114 538 L 112 536 L 111 536 L 110 535 L 103 535 L 102 536 "></path>
        <path fill="none" stroke="#fa00fa" stroke-width="3" d="M 106 260 L 105 261 L 102 261 L 101 262 L 100 262 L 98 264 L 98 265 L 97 266 L 97 267 L 96 268 L 96 272 L 97 273 L 97 275 L 101 279 L 102 279 L 103 280 L 110 280 L 112 278 L 113 278 L 114 277 L 114 276 L 115 275 L 115 274 L 116 273 L 116 267 L 115 266 L 115 265 L 112 262 L 111 262 L 110 261 L 108 261 L 107 260 L 106 260 L 105 261 "></path>
        <path fill="none" stroke="#fa00fa" stroke-width="3" d="M 925 590 L 923 592 L 922 592 L 921 593 L 921 594 L 920 595 L 920 596 L 919 597 L 919 602 L 920 603 L 920 604 L 921 605 L 921 606 L 923 608 L 924 608 L 925 609 L 933 609 L 935 607 L 936 607 L 937 606 L 937 605 L 938 604 L 938 602 L 939 601 L 939 598 L 938 597 L 938 595 L 934 591 L 933 591 L 932 590 L 925 590 L 923 592 "></path>
        <path fill="none" stroke="#fa00fa" stroke-width="3" d="M 925 206 L 923 208 L 922 208 L 921 209 L 921 210 L 920 211 L 920 212 L 919 213 L 919 218 L 920 219 L 920 220 L 921 221 L 921 222 L 922 223 L 923 223 L 925 225 L 932 225 L 933 224 L 934 224 L 938 220 L 938 218 L 939 217 L 939 214 L 938 213 L 938 211 L 936 209 L 936 208 L 935 208 L 933 206 L 925 206 L 923 208 "></path>
        <path fill="none" stroke="#fa00fa" stroke-width="3" d="M 499 222 L 497 224 L 497 225 L 494 228 L 491 228 L 490 229 L 486 229 L 485 230 L 483 230 L 482 229 L 479 229 L 478 228 L 476 228 L 475 227 L 475 228 L 476 229 L 476 230 L 479 233 L 479 234 L 483 238 L 483 239 L 486 242 L 486 243 L 488 245 L 491 245 L 495 241 L 495 240 L 498 237 L 498 236 L 499 235 L 499 234 L 500 233 L 500 224 L 499 223 L 499 222 L 497 224 "></path>
        <path fill="none" stroke="#fa00fa" stroke-width="3" d="M 982 426 L 981 427 L 980 427 L 979 428 L 978 428 L 977 429 L 977 430 L 976 431 L 976 432 L 975 433 L 975 437 L 976 438 L 976 439 L 980 443 L 983 443 L 984 444 L 985 443 L 988 443 L 992 439 L 992 436 L 993 435 L 992 434 L 992 431 L 988 427 L 986 427 L 985 426 L 982 426 L 981 427 "></path>
        <path fill="none" stroke="#fa00fa" stroke-width="3" d="M 871 701 L 870 702 L 869 702 L 867 704 L 867 705 L 866 706 L 866 712 L 867 713 L 867 714 L 870 717 L 872 717 L 873 718 L 875 718 L 876 717 L 878 717 L 879 716 L 880 716 L 881 715 L 881 714 L 882 713 L 882 711 L 883 710 L 883 708 L 882 707 L 882 705 L 879 702 L 878 702 L 877 701 L 871 701 L 870 702 "></path>
        <path fill="none" stroke="#fa00fa" stroke-width="3" d="M 874 97 L 873 98 L 871 98 L 870 99 L 869 99 L 867 101 L 867 102 L 866 103 L 866 109 L 868 111 L 868 112 L 869 112 L 871 114 L 877 114 L 878 113 L 879 113 L 881 111 L 881 110 L 882 109 L 882 107 L 883 106 L 883 105 L 882 104 L 882 102 L 878 98 L 876 98 L 875 97 L 874 97 L 873 98 "></path>
        <path fill="none" stroke="#fa00fa" stroke-width="3" d="M 817 756 L 816 757 L 815 757 L 812 760 L 812 761 L 811 762 L 811 766 L 812 767 L 812 768 L 813 769 L 813 770 L 814 771 L 815 771 L 816 772 L 823 772 L 827 768 L 827 766 L 828 765 L 828 763 L 827 762 L 827 760 L 824 757 L 823 757 L 822 756 L 817 756 L 816 757 "></path>
        <path fill="none" stroke="#fa00fa" stroke-width="3" d="M 816 43 L 814 45 L 813 45 L 813 46 L 812 47 L 812 48 L 811 49 L 811 53 L 812 54 L 812 55 L 815 58 L 816 58 L 817 59 L 822 59 L 823 58 L 824 58 L 827 55 L 827 53 L 828 52 L 828 50 L 827 49 L 827 47 L 823 43 L 816 43 L 814 45 "></path>
        <path fill="none" stroke="#fa00fa" stroke-width="3" d="M 981 482 L 980 483 L 979 483 L 977 485 L 977 486 L 976 487 L 976 493 L 980 497 L 981 497 L 982 498 L 986 498 L 987 497 L 988 497 L 991 494 L 991 493 L 992 492 L 992 488 L 991 487 L 991 486 L 987 482 L 981 482 L 980 483 "></path>
        <path fill="none" stroke="#fa00fa" stroke-width="3" d="M 983 317 L 982 318 L 980 318 L 977 321 L 977 322 L 976 323 L 976 328 L 977 329 L 977 330 L 979 332 L 980 332 L 981 333 L 987 333 L 989 331 L 990 331 L 990 330 L 991 329 L 991 328 L 992 327 L 992 323 L 991 322 L 991 321 L 988 318 L 986 318 L 985 317 L 983 317 L 982 318 "></path>
        <path fill="none" stroke="#fa00fa" stroke-width="3" d="M 103 208 L 102 209 L 101 209 L 99 211 L 99 213 L 98 214 L 98 217 L 99 218 L 99 220 L 101 222 L 102 222 L 103 223 L 109 223 L 110 222 L 111 222 L 113 220 L 113 219 L 114 218 L 114 213 L 113 212 L 113 211 L 110 208 L 103 208 L 102 209 "></path>
        <path fill="none" stroke="#fa00fa" stroke-width="3" d="M 928 647 L 927 648 L 925 648 L 923 650 L 923 651 L 922 652 L 922 657 L 923 658 L 923 659 L 924 660 L 925 660 L 926 661 L 927 661 L 928 662 L 930 662 L 931 661 L 933 661 L 936 658 L 936 652 L 935 651 L 935 650 L 933 648 L 931 648 L 930 647 L 928 647 L 927 648 "></path>
        <path fill="none" stroke="#fa00fa" stroke-width="3" d="M 161 702 L 160 703 L 158 703 L 157 704 L 156 704 L 155 705 L 155 706 L 154 707 L 154 711 L 155 712 L 155 713 L 158 716 L 163 716 L 164 715 L 165 715 L 166 714 L 166 713 L 167 712 L 167 706 L 164 703 L 162 703 L 161 702 L 160 703 "></path>
        <path fill="none" stroke="#fa00fa" stroke-width="3" d="M 983 538 L 982 539 L 980 539 L 978 541 L 978 543 L 977 544 L 977 546 L 978 547 L 978 548 L 981 551 L 987 551 L 990 548 L 990 547 L 991 546 L 991 544 L 990 543 L 990 541 L 988 539 L 986 539 L 985 538 L 983 538 L 982 539 "></path>
        <path fill="none" stroke="#fa00fa" stroke-width="3" d="M 159 99 L 158 100 L 157 100 L 155 102 L 155 103 L 154 104 L 154 107 L 155 108 L 155 109 L 158 112 L 164 112 L 167 109 L 167 103 L 166 102 L 166 101 L 165 100 L 164 100 L 163 99 L 159 99 L 158 100 "></path>
        <path fill="none" stroke="#fa00fa" stroke-width="3" d="M 981 264 L 978 267 L 978 273 L 979 274 L 979 275 L 980 276 L 981 276 L 982 277 L 986 277 L 987 276 L 988 276 L 990 274 L 990 272 L 991 271 L 991 269 L 990 268 L 990 267 L 987 264 L 981 264 L 978 267 "></path>
        <path fill="none" stroke="#fa00fa" stroke-width="3" d="M 48 374 L 45 377 L 45 378 L 44 379 L 44 381 L 45 382 L 45 383 L 48 386 L 54 386 L 57 383 L 57 377 L 54 374 L 48 374 L 45 377 "></path>
        <path fill="none" stroke="#fa00fa" stroke-width="3" d="M 48 429 L 45 432 L 45 434 L 44 435 L 45 436 L 45 438 L 48 441 L 54 441 L 57 438 L 57 432 L 54 429 L 48 429 L 45 432 "></path>
        <path fill="none" stroke="#fa00fa" stroke-width="3" d="M 341 370 L 341 371 L 345 375 L 345 376 L 346 377 L 346 382 L 344 384 L 344 385 L 341 388 L 340 388 L 339 389 L 339 390 L 344 390 L 351 383 L 352 383 L 354 381 L 354 378 L 353 377 L 352 377 L 350 375 L 349 375 L 344 370 L 341 370 L 341 371 "></path>
        <path fill="none" stroke="#fa00fa" stroke-width="3" d="M 49 484 L 45 488 L 45 492 L 48 495 L 49 495 L 50 496 L 52 496 L 53 495 L 54 495 L 56 493 L 56 492 L 57 491 L 57 489 L 56 488 L 56 487 L 55 486 L 55 485 L 54 485 L 53 484 L 49 484 L 45 488 "></path>
        <path fill="none" stroke="#fa00fa" stroke-width="3" d="M 50 319 L 49 320 L 48 320 L 45 323 L 45 327 L 46 328 L 46 329 L 47 330 L 48 330 L 49 331 L 52 331 L 53 330 L 54 330 L 56 328 L 56 327 L 57 326 L 57 325 L 56 324 L 56 322 L 54 320 L 53 320 L 52 319 L 50 319 L 49 320 "></path>
        <path fill="none" stroke="#fa00fa" stroke-width="3" d="M 702 458 L 701 459 L 700 459 L 699 460 L 698 460 L 695 463 L 695 464 L 701 470 L 701 471 L 702 472 L 702 468 L 703 467 L 703 465 L 706 462 L 712 462 L 712 461 L 711 460 L 710 460 L 709 459 L 708 459 L 707 458 L 702 458 L 701 459 "></path>
        <path fill="none" stroke="#fa00fa" stroke-width="3" d="M 104 649 L 103 650 L 102 650 L 101 651 L 101 653 L 100 654 L 100 655 L 101 656 L 101 657 L 102 658 L 102 659 L 103 659 L 104 660 L 108 660 L 110 658 L 110 657 L 111 656 L 111 653 L 110 652 L 110 651 L 109 650 L 108 650 L 107 649 L 104 649 L 103 650 "></path>
        <path fill="none" stroke="#fa00fa" stroke-width="3" d="M 983 210 L 982 211 L 981 211 L 980 212 L 980 213 L 979 214 L 979 217 L 982 220 L 987 220 L 988 219 L 988 218 L 989 217 L 989 213 L 987 211 L 986 211 L 985 210 L 983 210 L 982 211 "></path>
        <path fill="none" stroke="#fa00fa" stroke-width="3" d="M 982 595 L 980 597 L 980 598 L 979 599 L 979 600 L 980 601 L 980 603 L 981 604 L 982 604 L 983 605 L 986 605 L 989 602 L 989 598 L 988 597 L 988 596 L 987 595 L 982 595 L 980 597 "></path>
        <path fill="none" stroke="#fa00fa" stroke-width="3" d="M 49 540 L 46 543 L 46 547 L 48 549 L 49 549 L 50 550 L 52 550 L 53 549 L 54 549 L 55 548 L 55 546 L 56 545 L 56 544 L 55 543 L 55 542 L 53 540 L 49 540 L 46 543 "></path>
        <path fill="none" stroke="#fa00fa" stroke-width="3" d="M 872 46 L 870 48 L 870 53 L 872 55 L 877 55 L 879 53 L 879 48 L 877 46 L 872 46 L 870 48 "></path>
        <path fill="none" stroke="#fa00fa" stroke-width="3" d="M 872 760 L 870 762 L 870 767 L 872 769 L 877 769 L 879 767 L 879 762 L 877 760 L 872 760 L 870 762 "></path>
        <path fill="none" stroke="#fa00fa" stroke-width="3" d="M 928 705 L 927 706 L 926 706 L 925 707 L 925 712 L 927 714 L 932 714 L 933 713 L 933 712 L 934 711 L 934 708 L 931 705 L 928 705 L 927 706 "></path>
        <path fill="none" stroke="#fa00fa" stroke-width="3" d="M 159 760 L 156 763 L 156 766 L 159 769 L 162 769 L 165 766 L 165 763 L 162 760 L 159 760 L 156 763 "></path>
        <path fill="none" stroke="#fa00fa" stroke-width="3" d="M 159 46 L 156 49 L 156 52 L 159 55 L 162 55 L 165 52 L 165 49 L 162 46 L 159 46 L 156 49 "></path>
        <path fill="none" stroke="#fa00fa" stroke-width="3" d="M 983 156 L 980 159 L 980 162 L 982 164 L 983 164 L 984 165 L 985 165 L 986 164 L 987 164 L 988 163 L 988 161 L 989 160 L 988 159 L 988 158 L 986 156 L 983 156 L 980 159 "></path>
        <path fill="none" stroke="#fa00fa" stroke-width="3" d="M 105 705 L 104 706 L 103 706 L 102 707 L 102 708 L 101 709 L 101 710 L 102 711 L 102 712 L 104 714 L 107 714 L 110 711 L 110 709 L 109 708 L 109 707 L 108 706 L 107 706 L 106 705 L 105 705 L 104 706 "></path>
        <path fill="none" stroke="#fa00fa" stroke-width="3" d="M 984 650 L 983 651 L 982 651 L 980 653 L 980 656 L 983 659 L 986 659 L 988 657 L 988 656 L 989 655 L 989 654 L 988 653 L 988 652 L 987 651 L 985 651 L 984 650 L 983 651 "></path>
        <path fill="none" stroke="#fa00fa" stroke-width="3" d="M 104 101 L 101 104 L 101 106 L 102 107 L 102 108 L 103 109 L 108 109 L 109 108 L 109 107 L 110 106 L 110 104 L 107 101 L 104 101 L 101 104 "></path>
        <path fill="none" stroke="#fa00fa" stroke-width="3" d="M 50 156 L 49 157 L 48 157 L 47 158 L 47 162 L 49 164 L 53 164 L 54 163 L 54 161 L 55 160 L 54 159 L 54 158 L 53 157 L 52 157 L 51 156 L 50 156 L 49 157 "></path>
        <path fill="none" stroke="#fa00fa" stroke-width="3" d="M 927 47 L 926 48 L 926 53 L 927 54 L 932 54 L 933 53 L 933 48 L 932 47 L 927 47 L 926 48 "></path>
        <path fill="none" stroke="#fa00fa" stroke-width="3" d="M 49 651 L 47 653 L 47 657 L 48 658 L 49 658 L 50 659 L 51 659 L 52 658 L 53 658 L 54 657 L 54 652 L 53 652 L 52 651 L 49 651 L 47 653 "></path>
        <path fill="none" stroke="#fa00fa" stroke-width="3" d="M 982 102 L 981 103 L 981 108 L 982 109 L 986 109 L 988 107 L 988 104 L 986 102 L 982 102 L 981 103 "></path>
        <path fill="none" stroke="#fa00fa" stroke-width="3" d="M 982 706 L 981 707 L 981 712 L 982 713 L 986 713 L 988 711 L 988 708 L 986 706 L 982 706 L 981 707 "></path>
        <path fill="none" stroke="#fa00fa" stroke-width="3" d="M 983 761 L 981 763 L 981 766 L 983 768 L 986 768 L 988 766 L 988 763 L 986 761 L 983 761 L 981 763 "></path>
        <path fill="none" stroke="#fa00fa" stroke-width="3" d="M 104 47 L 102 49 L 102 52 L 104 54 L 107 54 L 109 52 L 109 49 L 107 47 L 104 47 L 102 49 "></path>
        <path fill="none" stroke="#fa00fa" stroke-width="3" d="M 49 706 L 47 708 L 47 711 L 49 713 L 52 713 L 54 711 L 54 708 L 52 706 L 49 706 L 47 708 "></path>
        <path fill="none" stroke="#fa00fa" stroke-width="3" d="M 104 761 L 102 763 L 102 766 L 104 768 L 107 768 L 109 766 L 109 763 L 107 761 L 104 761 L 102 763 "></path>
        <path fill="none" stroke="#fa00fa" stroke-width="3" d="M 983 47 L 981 49 L 981 52 L 982 53 L 983 53 L 984 54 L 985 54 L 986 53 L 987 53 L 988 52 L 988 49 L 986 47 L 983 47 L 981 49 "></path>
        <path fill="none" stroke="#fa00fa" stroke-width="3" d="M 49 47 L 47 49 L 47 51 L 48 52 L 48 53 L 49 53 L 50 54 L 51 54 L 52 53 L 53 53 L 54 52 L 54 49 L 52 47 L 49 47 L 47 49 "></path>
        <path fill="none" stroke="#fa00fa" stroke-width="3" d="M 50 761 L 49 762 L 48 762 L 47 763 L 47 766 L 49 768 L 52 768 L 54 766 L 54 764 L 53 763 L 53 762 L 52 762 L 51 761 L 50 761 L 49 762 "></path>
        <path fill="none" stroke="#fa00fa" stroke-width="3" d="M 702 335 L 702 341 L 703 342 L 703 343 L 704 344 L 704 345 L 707 348 L 707 347 L 706 346 L 706 345 L 705 344 L 705 342 L 704 341 L 704 339 L 703 338 L 703 336 L 702 335 L 702 341 "></path>
        <path fill="none" stroke="#fa00fa" stroke-width="3" d="M 710 351 L 710 352 L 712 354 L 713 353 L 713 352 L 712 351 L 710 351 L 710 352 "></path>
        <path fill="none" stroke="#fa00fa" stroke-width="3" d="M 388 276 L 386 278 L 387 279 L 389 277 L 388 276 L 386 278 "></path>
    </g>
</svg>
