<svg xmlns="http://www.w3.org/2000/svg" xmlns:xlink="http://www.w3.org/1999/xlink" version="1.1" x="0" y="0" width="1056px" height="816px">
    <g id="rootLayer" transform="translate(0.000000, 0.000000)">
        <path fill="none" stroke="#fa00fa" stroke-width="3" d="M 486 172 L 485 173 L 480 173 L 479 174 L 477 174 L 476 175 L 474 175 L 473 176 L 472 176 L 471 177 L 470 177 L 469 178 L 468 178 L 467 179 L 466 179 L 464 181 L 463 181 L 453 191 L 453 192 L 451 194 L 451 195 L 450 196 L 450 197 L 449 198 L 449 199 L 448 200 L 448 201 L 447 202 L 447 203 L 446 204 L 446 206 L 445 207 L 445 215 L 446 216 L 446 217 L 465 236 L 465 237 L 468 240 L 469 240 L 477 248 L 477 249 L 483 255 L 484 255 L 485 256 L 486 256 L 487 257 L 488 257 L 489 258 L 490 258 L 492 260 L 492 261 L 493 262 L 493 264 L 492 265 L 492 266 L 491 267 L 490 267 L 489 268 L 485 268 L 484 267 L 483 267 L 482 266 L 481 266 L 472 257 L 471 257 L 443 229 L 443 228 L 440 225 L 439 225 L 437 223 L 435 223 L 434 222 L 433 222 L 432 223 L 430 223 L 421 232 L 421 233 L 411 243 L 411 245 L 410 246 L 410 250 L 411 251 L 411 256 L 412 257 L 412 277 L 411 278 L 411 283 L 410 284 L 410 286 L 409 287 L 409 289 L 407 291 L 407 292 L 402 297 L 401 297 L 399 299 L 397 299 L 396 300 L 394 300 L 393 301 L 389 301 L 388 302 L 374 302 L 370 298 L 370 295 L 373 292 L 374 292 L 375 291 L 391 291 L 392 290 L 394 290 L 396 288 L 397 288 L 398 287 L 398 286 L 400 284 L 400 282 L 401 281 L 401 251 L 400 250 L 400 249 L 398 247 L 366 247 L 365 246 L 362 246 L 361 247 L 359 247 L 357 249 L 357 251 L 356 252 L 356 255 L 357 256 L 357 291 L 358 292 L 358 299 L 357 300 L 357 304 L 356 305 L 356 314 L 357 315 L 357 330 L 356 331 L 356 339 L 355 340 L 355 349 L 357 351 L 357 352 L 363 358 L 364 358 L 366 360 L 366 361 L 371 366 L 371 367 L 378 374 L 381 374 L 382 375 L 387 375 L 388 374 L 404 374 L 405 375 L 407 375 L 408 376 L 410 376 L 411 377 L 412 377 L 413 378 L 415 378 L 416 379 L 417 379 L 419 381 L 420 381 L 427 388 L 427 389 L 428 390 L 428 391 L 429 392 L 429 393 L 430 394 L 430 396 L 431 397 L 431 398 L 432 399 L 432 402 L 433 403 L 433 404 L 432 405 L 432 406 L 430 408 L 429 408 L 428 407 L 427 407 L 423 403 L 423 402 L 422 401 L 422 400 L 421 399 L 421 398 L 419 396 L 419 395 L 414 390 L 413 390 L 412 389 L 411 389 L 410 388 L 409 388 L 408 387 L 407 387 L 406 386 L 404 386 L 403 385 L 399 385 L 398 384 L 381 384 L 380 385 L 378 385 L 376 387 L 375 387 L 373 389 L 373 390 L 370 393 L 370 394 L 367 397 L 367 398 L 363 402 L 362 402 L 360 404 L 360 405 L 351 414 L 348 414 L 347 415 L 345 415 L 344 414 L 339 414 L 338 413 L 310 413 L 309 412 L 303 412 L 301 414 L 301 415 L 300 416 L 300 418 L 301 419 L 301 454 L 302 455 L 302 456 L 303 457 L 305 457 L 306 458 L 318 458 L 319 457 L 342 457 L 345 454 L 345 451 L 346 450 L 346 441 L 345 440 L 345 436 L 346 435 L 346 433 L 349 430 L 353 430 L 356 433 L 356 435 L 357 436 L 357 439 L 356 440 L 356 448 L 355 449 L 355 454 L 354 455 L 354 457 L 355 458 L 355 460 L 356 461 L 356 462 L 369 475 L 369 476 L 380 487 L 380 488 L 381 489 L 381 490 L 382 491 L 382 495 L 383 496 L 383 504 L 384 505 L 384 507 L 385 508 L 385 510 L 386 511 L 386 512 L 387 513 L 387 514 L 388 515 L 388 516 L 390 518 L 390 519 L 392 521 L 392 522 L 403 533 L 404 533 L 406 535 L 407 535 L 409 537 L 410 537 L 411 538 L 412 538 L 413 539 L 414 539 L 415 540 L 416 540 L 417 541 L 419 541 L 420 542 L 424 542 L 425 543 L 430 543 L 431 544 L 433 544 L 437 548 L 437 549 L 438 550 L 438 552 L 439 553 L 439 559 L 440 560 L 440 563 L 441 564 L 441 565 L 442 566 L 442 567 L 444 569 L 445 569 L 446 570 L 448 570 L 449 571 L 450 571 L 452 573 L 452 574 L 453 575 L 453 577 L 447 583 L 446 583 L 446 584 L 445 585 L 445 586 L 444 587 L 444 602 L 445 603 L 445 605 L 446 606 L 446 607 L 448 609 L 448 610 L 450 612 L 451 612 L 462 623 L 463 623 L 464 624 L 465 624 L 466 625 L 471 625 L 472 624 L 480 624 L 481 623 L 490 623 L 491 624 L 503 624 L 504 623 L 510 623 L 511 622 L 515 622 L 516 623 L 518 623 L 528 633 L 528 634 L 534 640 L 535 640 L 537 642 L 538 642 L 539 643 L 554 643 L 555 642 L 559 642 L 560 641 L 562 641 L 563 640 L 564 640 L 567 637 L 567 635 L 568 634 L 568 624 L 567 623 L 567 595 L 568 594 L 568 587 L 569 586 L 569 584 L 570 583 L 570 581 L 571 580 L 571 579 L 577 573 L 582 573 L 584 575 L 584 576 L 585 577 L 585 578 L 584 579 L 584 581 L 580 585 L 580 586 L 579 587 L 579 589 L 578 590 L 578 634 L 579 635 L 579 636 L 583 640 L 585 640 L 586 641 L 592 641 L 593 642 L 603 642 L 604 641 L 608 641 L 609 640 L 610 640 L 611 639 L 612 639 L 623 628 L 623 626 L 624 625 L 624 620 L 623 619 L 623 582 L 624 581 L 624 579 L 625 578 L 625 577 L 631 571 L 632 571 L 633 570 L 635 570 L 636 569 L 640 569 L 641 568 L 667 568 L 668 569 L 677 569 L 679 567 L 679 560 L 678 559 L 678 531 L 679 530 L 679 526 L 680 525 L 680 524 L 681 523 L 681 522 L 683 520 L 683 519 L 685 517 L 686 517 L 688 515 L 690 515 L 691 514 L 693 514 L 694 513 L 727 513 L 728 514 L 731 514 L 732 513 L 733 513 L 734 512 L 734 501 L 733 500 L 733 481 L 734 480 L 734 474 L 735 473 L 735 467 L 734 466 L 734 465 L 733 464 L 733 463 L 714 444 L 713 444 L 712 443 L 710 443 L 709 442 L 699 442 L 698 443 L 696 443 L 695 444 L 694 444 L 693 445 L 692 445 L 691 446 L 690 446 L 689 447 L 685 447 L 684 446 L 683 446 L 682 445 L 681 445 L 679 443 L 678 443 L 677 442 L 676 442 L 675 441 L 673 441 L 670 438 L 670 433 L 672 431 L 673 431 L 674 430 L 677 430 L 678 429 L 680 429 L 681 428 L 682 428 L 683 427 L 684 427 L 687 424 L 688 424 L 693 419 L 693 418 L 697 414 L 697 413 L 699 411 L 699 410 L 700 409 L 700 408 L 701 407 L 701 406 L 702 405 L 702 404 L 703 403 L 703 402 L 704 401 L 704 399 L 705 398 L 705 396 L 706 395 L 706 392 L 707 391 L 707 381 L 706 380 L 706 379 L 699 372 L 698 372 L 689 363 L 689 362 L 686 359 L 686 358 L 685 357 L 685 356 L 683 354 L 683 353 L 682 352 L 682 350 L 681 349 L 681 347 L 680 346 L 680 342 L 679 341 L 679 330 L 678 329 L 678 317 L 679 316 L 679 294 L 680 293 L 680 284 L 679 283 L 679 282 L 676 279 L 675 279 L 674 278 L 673 278 L 672 277 L 669 277 L 668 276 L 660 276 L 659 275 L 656 275 L 655 274 L 654 274 L 649 269 L 649 268 L 648 267 L 648 266 L 638 256 L 637 256 L 627 246 L 626 246 L 625 245 L 616 245 L 615 246 L 587 246 L 586 245 L 583 245 L 582 244 L 581 244 L 580 243 L 579 243 L 578 242 L 577 242 L 572 237 L 572 236 L 571 235 L 571 234 L 570 233 L 570 232 L 569 231 L 569 228 L 568 227 L 568 192 L 567 191 L 565 191 L 564 190 L 562 190 L 561 191 L 527 191 L 526 192 L 525 192 L 524 193 L 524 194 L 523 195 L 523 230 L 522 231 L 522 235 L 521 236 L 521 239 L 520 240 L 520 242 L 515 247 L 512 247 L 509 244 L 509 238 L 510 237 L 510 236 L 511 235 L 511 233 L 512 232 L 512 199 L 513 198 L 513 189 L 512 188 L 512 187 L 503 178 L 503 177 L 502 177 L 499 174 L 498 174 L 497 173 L 495 173 L 494 172 L 486 172 L 485 173 "></path>
        <path fill="none" stroke="#fa00fa" stroke-width="3" d="M 524 334 L 523 335 L 516 335 L 515 336 L 511 336 L 510 337 L 507 337 L 506 338 L 504 338 L 503 339 L 501 339 L 500 340 L 499 340 L 498 341 L 497 341 L 496 342 L 495 342 L 494 343 L 493 343 L 492 344 L 491 344 L 490 345 L 489 345 L 487 347 L 486 347 L 483 350 L 482 350 L 470 362 L 470 363 L 467 366 L 467 367 L 465 369 L 465 370 L 464 371 L 464 372 L 463 373 L 463 374 L 462 375 L 462 376 L 461 377 L 461 378 L 460 379 L 460 380 L 459 381 L 459 383 L 458 384 L 458 386 L 457 387 L 457 390 L 456 391 L 456 395 L 455 396 L 455 404 L 452 407 L 450 407 L 451 408 L 451 409 L 452 410 L 452 411 L 453 412 L 453 413 L 454 414 L 454 415 L 455 416 L 455 417 L 456 418 L 456 420 L 457 421 L 457 424 L 458 425 L 458 435 L 459 436 L 459 437 L 462 440 L 462 441 L 463 442 L 463 443 L 464 444 L 464 445 L 465 446 L 465 447 L 467 449 L 467 450 L 470 453 L 470 454 L 482 466 L 483 466 L 486 469 L 487 469 L 489 471 L 490 471 L 491 472 L 492 472 L 493 473 L 494 473 L 495 474 L 496 474 L 497 475 L 498 475 L 499 476 L 500 476 L 501 477 L 503 477 L 504 478 L 506 478 L 507 479 L 510 479 L 511 480 L 515 480 L 516 481 L 523 481 L 524 482 L 532 482 L 533 481 L 540 481 L 541 480 L 545 480 L 546 479 L 549 479 L 550 478 L 552 478 L 553 477 L 555 477 L 556 476 L 557 476 L 558 475 L 559 475 L 560 474 L 561 474 L 562 473 L 563 473 L 564 472 L 565 472 L 566 471 L 567 471 L 569 469 L 570 469 L 573 466 L 574 466 L 586 454 L 586 453 L 589 450 L 589 449 L 591 447 L 591 446 L 592 445 L 592 444 L 593 443 L 593 442 L 594 441 L 594 440 L 595 439 L 595 438 L 596 437 L 596 436 L 597 435 L 597 433 L 598 432 L 598 430 L 599 429 L 599 426 L 600 425 L 600 421 L 601 420 L 601 413 L 602 412 L 602 404 L 601 403 L 601 396 L 600 395 L 600 391 L 599 390 L 599 387 L 598 386 L 598 384 L 597 383 L 597 381 L 596 380 L 596 379 L 595 378 L 595 377 L 594 376 L 594 375 L 593 374 L 593 373 L 592 372 L 592 371 L 591 370 L 591 369 L 589 367 L 589 366 L 586 363 L 586 362 L 574 350 L 573 350 L 570 347 L 569 347 L 567 345 L 566 345 L 565 344 L 564 344 L 563 343 L 562 343 L 561 342 L 560 342 L 559 341 L 558 341 L 557 340 L 556 340 L 555 339 L 553 339 L 552 338 L 550 338 L 549 337 L 546 337 L 545 336 L 541 336 L 540 335 L 533 335 L 532 334 L 524 334 L 523 335 "></path>
        <path fill="none" stroke="#fa00fa" stroke-width="3" d="M 380 557 L 379 558 L 376 558 L 375 559 L 374 559 L 372 561 L 371 561 L 357 575 L 357 576 L 356 577 L 356 586 L 357 587 L 357 616 L 356 617 L 356 621 L 357 622 L 357 623 L 358 623 L 359 624 L 366 624 L 367 623 L 393 623 L 394 624 L 404 624 L 406 622 L 407 622 L 417 612 L 417 611 L 419 609 L 419 608 L 420 607 L 420 606 L 421 605 L 421 602 L 422 601 L 422 593 L 421 592 L 421 587 L 420 586 L 420 584 L 419 583 L 419 581 L 418 580 L 418 579 L 417 578 L 417 577 L 415 575 L 415 574 L 405 564 L 404 564 L 403 563 L 402 563 L 401 562 L 400 562 L 399 561 L 398 561 L 397 560 L 396 560 L 395 559 L 392 559 L 391 558 L 386 558 L 385 557 L 380 557 L 379 558 "></path>
        <path fill="none" stroke="#fa00fa" stroke-width="3" d="M 636 191 L 634 193 L 634 194 L 633 195 L 633 198 L 634 199 L 634 224 L 633 225 L 633 231 L 632 232 L 632 235 L 633 236 L 633 238 L 639 244 L 640 244 L 652 256 L 653 256 L 655 258 L 657 258 L 658 259 L 662 259 L 663 258 L 665 258 L 666 257 L 668 257 L 669 256 L 670 256 L 671 255 L 672 255 L 673 254 L 674 254 L 676 252 L 677 252 L 687 242 L 687 241 L 688 240 L 688 239 L 690 237 L 690 236 L 691 235 L 691 233 L 692 232 L 692 230 L 693 229 L 693 226 L 694 225 L 694 211 L 693 210 L 693 207 L 692 206 L 692 204 L 691 203 L 691 202 L 690 201 L 690 200 L 689 199 L 689 198 L 683 192 L 682 192 L 681 191 L 671 191 L 670 192 L 645 192 L 644 191 L 636 191 L 634 193 "></path>
        <path fill="none" stroke="#fa00fa" stroke-width="3" d="M 301 467 L 300 468 L 298 468 L 297 469 L 296 469 L 290 475 L 290 476 L 287 479 L 287 480 L 286 481 L 286 485 L 285 486 L 285 491 L 286 492 L 286 498 L 287 499 L 287 501 L 288 502 L 288 503 L 289 504 L 289 505 L 296 512 L 297 512 L 298 513 L 300 513 L 301 514 L 303 514 L 304 513 L 312 513 L 313 512 L 318 512 L 319 513 L 350 513 L 351 514 L 362 514 L 363 513 L 364 513 L 367 510 L 367 509 L 368 508 L 368 507 L 369 506 L 369 505 L 370 504 L 370 500 L 371 499 L 371 495 L 370 494 L 370 492 L 369 491 L 369 490 L 358 479 L 358 478 L 352 472 L 352 471 L 350 469 L 349 469 L 347 467 L 338 467 L 337 468 L 304 468 L 303 467 L 301 467 L 300 468 "></path>
        <path fill="none" stroke="#fa00fa" stroke-width="3" d="M 701 280 L 700 281 L 696 281 L 695 282 L 694 282 L 693 283 L 692 283 L 692 284 L 691 285 L 691 286 L 690 287 L 690 300 L 689 301 L 689 339 L 690 340 L 690 343 L 691 344 L 691 346 L 692 347 L 692 349 L 693 350 L 693 351 L 695 353 L 695 354 L 699 358 L 699 359 L 708 368 L 709 368 L 711 370 L 715 370 L 716 369 L 717 369 L 720 366 L 720 365 L 733 352 L 733 351 L 734 350 L 734 349 L 735 348 L 735 342 L 734 341 L 734 335 L 733 334 L 733 313 L 734 312 L 734 306 L 735 305 L 735 301 L 734 300 L 734 298 L 726 290 L 726 289 L 722 285 L 721 285 L 719 283 L 718 283 L 717 282 L 715 282 L 714 281 L 706 281 L 705 280 L 701 280 L 700 281 "></path>
        <path fill="none" stroke="#fa00fa" stroke-width="3" d="M 355 191 L 354 192 L 353 192 L 348 197 L 348 198 L 347 199 L 347 200 L 346 201 L 346 202 L 345 203 L 345 205 L 344 206 L 344 210 L 343 211 L 343 223 L 344 224 L 344 226 L 346 228 L 346 229 L 352 235 L 353 235 L 354 236 L 356 236 L 357 237 L 359 237 L 360 236 L 394 236 L 395 237 L 401 237 L 402 236 L 403 236 L 404 235 L 405 235 L 408 232 L 408 231 L 417 222 L 417 221 L 420 218 L 420 216 L 421 215 L 421 209 L 420 208 L 420 205 L 419 204 L 419 203 L 418 202 L 418 200 L 417 199 L 417 198 L 415 196 L 415 195 L 412 192 L 411 192 L 410 191 L 396 191 L 395 192 L 364 192 L 363 191 L 355 191 L 354 192 "></path>
        <path fill="none" stroke="#fa00fa" stroke-width="3" d="M 783 412 L 782 413 L 729 413 L 728 414 L 727 414 L 725 416 L 725 417 L 724 418 L 724 419 L 723 420 L 723 422 L 722 423 L 722 427 L 721 428 L 721 433 L 722 434 L 722 436 L 723 437 L 723 438 L 725 440 L 725 441 L 742 458 L 745 458 L 746 459 L 747 458 L 754 458 L 755 457 L 780 457 L 781 458 L 787 458 L 789 456 L 789 445 L 788 444 L 788 426 L 789 425 L 789 414 L 788 413 L 786 413 L 785 412 L 783 412 L 782 413 "></path>
        <path fill="none" stroke="#fa00fa" stroke-width="3" d="M 746 356 L 745 357 L 742 357 L 727 372 L 727 373 L 723 377 L 723 378 L 722 379 L 722 381 L 721 382 L 721 387 L 722 388 L 722 392 L 723 393 L 723 395 L 724 396 L 724 397 L 725 398 L 725 399 L 727 401 L 728 401 L 729 402 L 787 402 L 789 400 L 789 390 L 788 389 L 788 372 L 789 371 L 789 363 L 790 362 L 789 361 L 789 359 L 787 357 L 781 357 L 780 358 L 755 358 L 754 357 L 748 357 L 747 356 L 746 356 L 745 357 "></path>
        <path fill="none" stroke="#fa00fa" stroke-width="3" d="M 308 523 L 307 524 L 304 524 L 301 527 L 301 535 L 302 536 L 302 558 L 301 559 L 301 566 L 302 567 L 302 568 L 303 568 L 304 569 L 308 569 L 309 568 L 339 568 L 340 569 L 348 569 L 350 567 L 351 567 L 354 564 L 354 563 L 365 552 L 365 551 L 366 550 L 366 549 L 367 548 L 367 534 L 366 533 L 366 530 L 365 529 L 365 528 L 362 525 L 360 525 L 359 524 L 310 524 L 309 523 L 308 523 L 307 524 "></path>
        <path fill="none" stroke="#fa00fa" stroke-width="3" d="M 339 356 L 338 357 L 322 357 L 321 358 L 316 358 L 315 357 L 302 357 L 301 358 L 301 360 L 300 361 L 300 362 L 301 363 L 301 373 L 302 374 L 302 386 L 301 387 L 301 400 L 302 401 L 302 402 L 304 402 L 305 403 L 308 403 L 309 402 L 333 402 L 334 403 L 341 403 L 342 404 L 344 404 L 345 403 L 347 403 L 348 402 L 349 402 L 356 395 L 356 394 L 363 387 L 364 387 L 367 384 L 367 383 L 368 382 L 368 378 L 367 377 L 367 376 L 366 375 L 366 374 L 365 373 L 364 373 L 354 363 L 354 362 L 349 357 L 348 357 L 347 356 L 339 356 L 338 357 "></path>
        <path fill="none" stroke="#fa00fa" stroke-width="3" d="M 430 616 L 429 617 L 428 617 L 427 618 L 426 618 L 419 625 L 418 625 L 413 630 L 413 631 L 412 632 L 412 635 L 411 636 L 412 637 L 412 645 L 413 646 L 413 665 L 412 666 L 412 676 L 413 677 L 413 678 L 414 678 L 415 679 L 424 679 L 425 678 L 443 678 L 444 679 L 455 679 L 456 678 L 456 677 L 457 676 L 457 671 L 456 670 L 456 645 L 457 644 L 457 633 L 456 632 L 456 631 L 452 627 L 451 627 L 442 618 L 441 618 L 440 617 L 439 617 L 438 616 L 430 616 L 429 617 "></path>
        <path fill="none" stroke="#fa00fa" stroke-width="3" d="M 475 634 L 474 635 L 470 635 L 468 637 L 468 639 L 467 640 L 467 645 L 468 646 L 468 669 L 467 670 L 467 677 L 469 679 L 480 679 L 481 678 L 501 678 L 502 679 L 516 679 L 517 678 L 518 678 L 523 673 L 523 672 L 524 671 L 524 670 L 525 669 L 525 668 L 526 667 L 526 665 L 527 664 L 527 662 L 528 661 L 528 657 L 529 656 L 529 653 L 528 652 L 528 650 L 527 649 L 527 648 L 524 645 L 524 644 L 515 635 L 514 635 L 513 634 L 500 634 L 499 635 L 491 635 L 490 634 L 475 634 L 474 635 "></path>
        <path fill="none" stroke="#fa00fa" stroke-width="3" d="M 739 247 L 738 248 L 737 248 L 733 252 L 733 253 L 732 254 L 732 255 L 731 256 L 731 257 L 730 258 L 730 260 L 729 261 L 729 263 L 728 264 L 728 274 L 729 275 L 729 277 L 732 280 L 732 281 L 742 291 L 743 291 L 744 292 L 751 292 L 752 291 L 787 291 L 789 289 L 789 281 L 788 280 L 788 259 L 789 258 L 789 251 L 788 250 L 788 249 L 787 248 L 786 248 L 785 247 L 739 247 L 738 248 "></path>
        <path fill="none" stroke="#fa00fa" stroke-width="3" d="M 379 130 L 378 131 L 373 131 L 372 132 L 370 132 L 369 133 L 368 133 L 367 134 L 366 134 L 365 135 L 364 135 L 363 136 L 362 136 L 360 138 L 360 139 L 358 141 L 358 144 L 357 145 L 357 153 L 358 154 L 358 163 L 357 164 L 357 178 L 359 180 L 361 180 L 362 181 L 365 181 L 366 180 L 406 180 L 407 179 L 409 179 L 412 176 L 412 174 L 413 173 L 413 171 L 414 170 L 414 158 L 413 157 L 413 154 L 412 153 L 412 151 L 411 150 L 411 149 L 410 148 L 410 147 L 409 146 L 409 145 L 406 142 L 406 141 L 403 138 L 402 138 L 399 135 L 398 135 L 397 134 L 396 134 L 395 133 L 394 133 L 393 132 L 391 132 L 390 131 L 386 131 L 385 130 L 379 130 L 378 131 "></path>
        <path fill="none" stroke="#fa00fa" stroke-width="3" d="M 595 678 L 594 679 L 591 679 L 590 680 L 588 680 L 587 681 L 586 681 L 584 683 L 583 683 L 581 685 L 580 685 L 578 687 L 578 688 L 575 691 L 575 692 L 574 693 L 574 694 L 573 695 L 573 696 L 572 697 L 572 699 L 571 700 L 571 706 L 570 707 L 570 708 L 571 709 L 571 714 L 572 715 L 572 717 L 573 718 L 573 720 L 574 721 L 574 722 L 576 724 L 576 725 L 581 730 L 582 730 L 584 732 L 585 732 L 586 733 L 587 733 L 588 734 L 589 734 L 590 735 L 593 735 L 594 736 L 605 736 L 606 735 L 609 735 L 610 734 L 611 734 L 612 733 L 613 733 L 614 732 L 615 732 L 616 731 L 617 731 L 620 728 L 620 727 L 621 726 L 621 725 L 622 724 L 622 690 L 621 689 L 621 688 L 616 683 L 615 683 L 613 681 L 611 681 L 610 680 L 609 680 L 608 679 L 604 679 L 603 678 L 595 678 L 594 679 "></path>
        <path fill="none" stroke="#fa00fa" stroke-width="3" d="M 563 135 L 562 136 L 555 136 L 554 137 L 532 137 L 531 136 L 520 136 L 519 137 L 518 137 L 513 142 L 513 143 L 511 145 L 511 146 L 510 147 L 510 148 L 509 149 L 509 151 L 508 152 L 508 154 L 507 155 L 507 165 L 508 166 L 508 167 L 510 169 L 510 170 L 521 181 L 532 181 L 533 180 L 558 180 L 559 181 L 565 181 L 568 178 L 568 171 L 567 170 L 567 145 L 568 144 L 568 139 L 567 138 L 567 137 L 566 136 L 564 136 L 563 135 L 562 136 "></path>
        <path fill="none" stroke="#fa00fa" stroke-width="3" d="M 322 233 L 321 234 L 318 234 L 317 235 L 314 235 L 313 236 L 312 236 L 311 237 L 309 237 L 307 239 L 306 239 L 302 243 L 302 245 L 301 246 L 301 254 L 302 255 L 302 281 L 301 282 L 301 289 L 303 291 L 304 291 L 305 292 L 307 292 L 308 291 L 336 291 L 337 292 L 344 292 L 346 290 L 346 289 L 347 288 L 347 285 L 346 284 L 346 249 L 347 248 L 346 247 L 346 244 L 345 243 L 345 242 L 341 238 L 340 238 L 337 235 L 336 235 L 335 234 L 333 234 L 332 233 L 322 233 L 321 234 "></path>
        <path fill="none" stroke="#fa00fa" stroke-width="3" d="M 248 413 L 246 415 L 246 417 L 245 418 L 246 419 L 246 426 L 247 427 L 247 446 L 246 447 L 246 458 L 247 459 L 247 460 L 248 461 L 248 462 L 250 464 L 251 464 L 253 466 L 254 466 L 255 467 L 256 467 L 257 468 L 258 468 L 259 469 L 261 469 L 262 470 L 264 470 L 265 471 L 271 471 L 272 472 L 273 472 L 274 471 L 278 471 L 279 470 L 280 470 L 283 467 L 284 467 L 290 461 L 290 459 L 291 458 L 291 451 L 290 450 L 290 421 L 291 420 L 291 416 L 290 415 L 290 414 L 289 413 L 248 413 L 246 415 "></path>
        <path fill="none" stroke="#fa00fa" stroke-width="3" d="M 633 634 L 632 635 L 631 635 L 623 643 L 623 644 L 621 646 L 621 647 L 620 648 L 620 659 L 621 660 L 621 663 L 622 664 L 622 665 L 623 666 L 623 668 L 625 670 L 625 671 L 627 673 L 627 674 L 629 676 L 630 676 L 632 678 L 634 678 L 635 679 L 641 679 L 642 678 L 667 678 L 668 679 L 672 679 L 673 678 L 675 678 L 677 676 L 677 675 L 678 674 L 678 660 L 677 659 L 677 653 L 678 652 L 678 636 L 677 635 L 676 635 L 675 634 L 671 634 L 670 635 L 642 635 L 641 634 L 633 634 L 632 635 "></path>
        <path fill="none" stroke="#fa00fa" stroke-width="3" d="M 759 187 L 758 188 L 754 188 L 753 189 L 752 189 L 751 190 L 749 190 L 747 192 L 746 192 L 743 195 L 742 195 L 741 196 L 741 197 L 738 200 L 738 201 L 736 203 L 736 204 L 735 205 L 735 207 L 734 208 L 734 211 L 733 212 L 733 222 L 734 223 L 734 227 L 735 228 L 735 229 L 736 230 L 736 231 L 739 234 L 740 234 L 741 235 L 743 235 L 744 236 L 782 236 L 783 235 L 785 235 L 788 232 L 788 203 L 787 202 L 787 200 L 786 199 L 786 198 L 780 192 L 779 192 L 778 191 L 777 191 L 776 190 L 775 190 L 774 189 L 772 189 L 771 188 L 768 188 L 767 187 L 759 187 L 758 188 "></path>
        <path fill="none" stroke="#fa00fa" stroke-width="3" d="M 694 137 L 693 138 L 692 138 L 690 140 L 690 142 L 689 143 L 689 181 L 690 182 L 690 183 L 691 184 L 691 185 L 692 186 L 693 186 L 696 189 L 697 189 L 698 190 L 699 190 L 700 191 L 703 191 L 704 192 L 712 192 L 713 191 L 716 191 L 717 190 L 719 190 L 720 189 L 721 189 L 722 188 L 723 188 L 724 187 L 725 187 L 733 179 L 733 178 L 734 177 L 734 176 L 735 175 L 735 174 L 736 173 L 736 171 L 737 170 L 737 166 L 738 165 L 738 160 L 737 159 L 737 155 L 736 154 L 736 152 L 735 151 L 735 150 L 734 149 L 734 148 L 733 147 L 733 146 L 731 144 L 731 143 L 728 140 L 727 140 L 726 139 L 725 139 L 724 138 L 722 138 L 721 137 L 694 137 L 693 138 "></path>
        <path fill="none" stroke="#fa00fa" stroke-width="3" d="M 476 82 L 475 83 L 474 83 L 473 84 L 472 84 L 470 86 L 470 87 L 469 88 L 469 89 L 468 90 L 468 126 L 469 127 L 469 128 L 470 129 L 470 130 L 473 133 L 474 133 L 475 134 L 476 134 L 477 135 L 478 135 L 479 136 L 481 136 L 482 137 L 486 137 L 487 138 L 494 138 L 495 137 L 498 137 L 499 136 L 501 136 L 502 135 L 503 135 L 505 133 L 506 133 L 511 128 L 511 126 L 512 125 L 512 116 L 511 115 L 511 99 L 512 98 L 512 91 L 511 90 L 511 87 L 507 83 L 506 83 L 505 82 L 476 82 L 475 83 "></path>
        <path fill="none" stroke="#fa00fa" stroke-width="3" d="M 266 512 L 265 513 L 263 513 L 262 514 L 260 514 L 259 515 L 258 515 L 257 516 L 256 516 L 254 518 L 253 518 L 249 522 L 249 523 L 248 524 L 248 525 L 247 526 L 247 562 L 248 563 L 248 564 L 250 566 L 251 566 L 252 567 L 254 567 L 255 568 L 262 568 L 263 567 L 276 567 L 277 568 L 288 568 L 290 566 L 290 530 L 291 529 L 291 524 L 290 523 L 290 521 L 284 515 L 283 515 L 282 514 L 281 514 L 280 513 L 279 513 L 278 512 L 266 512 L 265 513 "></path>
        <path fill="none" stroke="#fa00fa" stroke-width="3" d="M 426 82 L 425 83 L 423 83 L 422 84 L 421 84 L 420 85 L 419 85 L 413 91 L 413 92 L 411 94 L 411 95 L 410 96 L 410 98 L 409 99 L 409 101 L 408 102 L 408 113 L 409 114 L 409 117 L 410 118 L 410 119 L 411 120 L 411 121 L 412 122 L 412 123 L 415 126 L 415 127 L 417 129 L 418 129 L 421 132 L 422 132 L 423 133 L 424 133 L 425 134 L 427 134 L 428 135 L 432 135 L 433 136 L 439 136 L 440 135 L 444 135 L 445 134 L 447 134 L 448 133 L 449 133 L 450 132 L 451 132 L 455 128 L 455 127 L 456 126 L 456 90 L 455 89 L 455 88 L 454 87 L 454 86 L 453 85 L 452 85 L 450 83 L 448 83 L 447 82 L 426 82 L 425 83 "></path>
        <path fill="none" stroke="#fa00fa" stroke-width="3" d="M 321 135 L 320 136 L 317 136 L 316 137 L 315 137 L 314 138 L 313 138 L 311 140 L 310 140 L 304 146 L 304 147 L 303 148 L 303 149 L 302 150 L 302 151 L 301 152 L 301 154 L 300 155 L 300 158 L 299 159 L 299 165 L 300 166 L 300 170 L 301 171 L 301 172 L 302 173 L 302 175 L 304 177 L 304 178 L 311 185 L 312 185 L 314 187 L 316 187 L 317 188 L 318 188 L 319 189 L 323 189 L 324 190 L 329 190 L 330 189 L 335 189 L 336 188 L 337 188 L 338 187 L 339 187 L 340 186 L 341 186 L 344 183 L 344 182 L 345 181 L 345 179 L 346 178 L 346 170 L 345 169 L 345 163 L 346 162 L 346 147 L 345 146 L 345 143 L 344 142 L 344 141 L 341 138 L 340 138 L 339 137 L 338 137 L 337 136 L 334 136 L 333 135 L 321 135 L 320 136 "></path>
        <path fill="none" stroke="#fa00fa" stroke-width="3" d="M 267 240 L 266 241 L 263 241 L 262 242 L 260 242 L 259 243 L 258 243 L 257 244 L 256 244 L 254 246 L 253 246 L 249 250 L 249 251 L 248 252 L 248 253 L 247 254 L 247 280 L 246 281 L 246 287 L 247 288 L 247 289 L 248 290 L 249 290 L 250 291 L 282 291 L 283 292 L 287 292 L 288 291 L 289 291 L 290 290 L 290 289 L 291 288 L 291 283 L 290 282 L 290 247 L 289 246 L 289 245 L 286 242 L 285 242 L 284 241 L 281 241 L 280 240 L 267 240 L 266 241 "></path>
        <path fill="none" stroke="#fa00fa" stroke-width="3" d="M 470 690 L 468 692 L 468 693 L 467 694 L 467 698 L 468 699 L 468 725 L 469 726 L 469 728 L 473 732 L 475 732 L 476 733 L 504 733 L 505 732 L 507 732 L 508 731 L 509 731 L 514 726 L 514 725 L 516 723 L 516 722 L 517 721 L 517 720 L 518 719 L 518 717 L 519 716 L 519 714 L 520 713 L 520 700 L 519 699 L 519 696 L 518 695 L 518 694 L 516 692 L 515 692 L 514 691 L 512 691 L 511 690 L 470 690 L 468 692 "></path>
        <path fill="none" stroke="#fa00fa" stroke-width="3" d="M 201 469 L 200 470 L 199 470 L 194 475 L 194 477 L 193 478 L 193 480 L 192 481 L 192 497 L 193 498 L 193 501 L 194 502 L 194 503 L 195 504 L 195 505 L 200 510 L 201 510 L 202 511 L 204 511 L 205 512 L 230 512 L 231 511 L 233 511 L 234 510 L 235 510 L 240 505 L 240 504 L 241 503 L 241 502 L 242 501 L 242 500 L 243 499 L 243 497 L 244 496 L 244 482 L 243 481 L 243 479 L 242 478 L 242 477 L 241 476 L 241 475 L 236 470 L 235 470 L 234 469 L 201 469 L 200 470 "></path>
        <path fill="none" stroke="#fa00fa" stroke-width="3" d="M 802 413 L 800 415 L 800 455 L 801 456 L 801 457 L 802 457 L 803 458 L 807 458 L 808 457 L 837 457 L 838 456 L 840 456 L 845 451 L 845 450 L 846 449 L 846 447 L 847 446 L 847 444 L 848 443 L 848 437 L 849 436 L 849 433 L 848 432 L 848 427 L 847 426 L 847 423 L 846 422 L 846 421 L 845 420 L 845 419 L 843 417 L 843 416 L 842 416 L 840 414 L 837 414 L 836 413 L 825 413 L 824 414 L 817 414 L 816 413 L 802 413 L 800 415 "></path>
        <path fill="none" stroke="#fa00fa" stroke-width="3" d="M 305 301 L 304 302 L 302 302 L 301 303 L 301 314 L 302 315 L 302 334 L 301 335 L 301 345 L 302 346 L 303 346 L 304 347 L 314 347 L 315 346 L 316 346 L 317 347 L 339 347 L 340 346 L 342 346 L 343 345 L 344 345 L 344 344 L 345 343 L 345 341 L 346 340 L 346 309 L 347 308 L 347 307 L 346 306 L 346 304 L 344 302 L 307 302 L 306 301 L 305 301 L 304 302 "></path>
        <path fill="none" stroke="#fa00fa" stroke-width="3" d="M 639 579 L 638 580 L 637 580 L 634 583 L 634 585 L 633 586 L 633 598 L 634 599 L 634 614 L 633 615 L 633 617 L 634 618 L 634 621 L 636 623 L 637 623 L 638 624 L 646 624 L 647 623 L 667 623 L 668 624 L 677 624 L 678 623 L 678 622 L 679 621 L 679 617 L 678 616 L 678 587 L 679 586 L 679 583 L 678 582 L 678 580 L 677 580 L 676 579 L 639 579 L 638 580 "></path>
        <path fill="none" stroke="#fa00fa" stroke-width="3" d="M 747 579 L 745 581 L 745 582 L 744 583 L 744 588 L 745 589 L 745 620 L 746 621 L 746 622 L 750 626 L 752 626 L 753 627 L 756 627 L 757 628 L 768 628 L 769 627 L 772 627 L 773 626 L 774 626 L 775 625 L 776 625 L 777 624 L 778 624 L 779 623 L 780 623 L 786 617 L 786 616 L 787 615 L 787 613 L 788 612 L 788 583 L 785 580 L 783 580 L 782 579 L 747 579 L 745 581 "></path>
        <path fill="none" stroke="#fa00fa" stroke-width="3" d="M 750 468 L 749 469 L 747 469 L 745 471 L 745 474 L 744 475 L 744 510 L 745 511 L 745 512 L 746 513 L 758 513 L 759 512 L 775 512 L 776 513 L 787 513 L 789 511 L 789 502 L 788 501 L 788 481 L 789 480 L 789 470 L 787 468 L 777 468 L 776 469 L 772 469 L 771 468 L 750 468 L 749 469 "></path>
        <path fill="none" stroke="#fa00fa" stroke-width="3" d="M 698 523 L 697 524 L 694 524 L 693 525 L 692 525 L 690 527 L 690 529 L 689 530 L 689 567 L 690 568 L 691 568 L 692 569 L 696 569 L 697 568 L 726 568 L 727 569 L 731 569 L 732 568 L 733 568 L 733 567 L 734 566 L 734 560 L 733 559 L 733 534 L 734 533 L 734 526 L 732 524 L 731 524 L 730 523 L 726 523 L 725 524 L 706 524 L 705 523 L 698 523 L 697 524 "></path>
        <path fill="none" stroke="#fa00fa" stroke-width="3" d="M 748 302 L 745 305 L 745 307 L 744 308 L 744 340 L 745 341 L 745 344 L 747 346 L 749 346 L 750 347 L 772 347 L 773 346 L 775 346 L 776 347 L 787 347 L 789 345 L 789 335 L 788 334 L 788 315 L 789 314 L 789 304 L 787 302 L 777 302 L 776 303 L 764 303 L 763 302 L 748 302 L 745 305 "></path>
        <path fill="none" stroke="#fa00fa" stroke-width="3" d="M 618 190 L 617 191 L 609 191 L 608 192 L 593 192 L 592 191 L 580 191 L 578 193 L 578 224 L 579 225 L 579 228 L 580 229 L 580 230 L 584 234 L 585 234 L 586 235 L 589 235 L 590 236 L 617 236 L 618 235 L 620 235 L 622 233 L 622 232 L 623 231 L 623 198 L 624 197 L 624 194 L 623 193 L 623 192 L 622 191 L 621 191 L 620 190 L 618 190 L 617 191 "></path>
        <path fill="none" stroke="#fa00fa" stroke-width="3" d="M 693 578 L 692 579 L 690 579 L 689 580 L 689 581 L 688 582 L 688 585 L 689 586 L 689 621 L 690 622 L 690 623 L 691 623 L 692 624 L 697 624 L 698 623 L 725 623 L 726 624 L 729 624 L 730 623 L 731 623 L 733 621 L 733 620 L 734 619 L 734 616 L 733 615 L 733 588 L 734 587 L 734 582 L 733 581 L 733 580 L 732 579 L 695 579 L 694 578 L 693 578 L 692 579 "></path>
        <path fill="none" stroke="#fa00fa" stroke-width="3" d="M 692 634 L 689 637 L 689 672 L 690 673 L 690 675 L 692 677 L 693 677 L 694 678 L 721 678 L 722 677 L 724 677 L 725 676 L 726 676 L 727 675 L 728 675 L 732 671 L 732 670 L 734 668 L 734 667 L 735 666 L 735 665 L 736 664 L 736 662 L 737 661 L 737 657 L 738 656 L 738 648 L 737 647 L 737 643 L 736 642 L 736 641 L 735 640 L 735 639 L 732 636 L 731 636 L 730 635 L 699 635 L 698 634 L 692 634 L 689 637 "></path>
        <path fill="none" stroke="#fa00fa" stroke-width="3" d="M 747 523 L 746 524 L 745 524 L 744 525 L 744 553 L 745 554 L 745 555 L 744 556 L 744 566 L 746 568 L 747 568 L 748 569 L 751 569 L 752 568 L 785 568 L 786 567 L 787 567 L 788 566 L 788 564 L 789 563 L 789 558 L 788 557 L 788 534 L 789 533 L 789 526 L 787 524 L 753 524 L 752 523 L 747 523 L 746 524 "></path>
        <path fill="none" stroke="#fa00fa" stroke-width="3" d="M 249 357 L 248 358 L 247 358 L 247 359 L 246 360 L 246 369 L 247 370 L 247 389 L 246 390 L 246 400 L 248 402 L 283 402 L 284 403 L 288 403 L 291 400 L 291 393 L 290 392 L 290 367 L 291 366 L 291 361 L 290 360 L 290 359 L 288 357 L 282 357 L 281 358 L 255 358 L 254 357 L 249 357 L 248 358 "></path>
        <path fill="none" stroke="#fa00fa" stroke-width="3" d="M 304 579 L 301 582 L 301 587 L 302 588 L 302 620 L 305 623 L 337 623 L 338 624 L 342 624 L 343 623 L 344 623 L 346 621 L 346 584 L 345 583 L 345 582 L 343 580 L 342 580 L 341 579 L 304 579 L 301 582 "></path>
        <path fill="none" stroke="#fa00fa" stroke-width="3" d="M 580 136 L 579 137 L 579 138 L 578 139 L 578 146 L 579 147 L 579 166 L 578 167 L 578 179 L 580 181 L 588 181 L 589 180 L 614 180 L 615 181 L 619 181 L 620 180 L 621 180 L 623 178 L 623 169 L 622 168 L 622 148 L 623 147 L 623 139 L 622 138 L 622 137 L 621 136 L 611 136 L 610 137 L 591 137 L 590 136 L 580 136 L 579 137 "></path>
        <path fill="none" stroke="#fa00fa" stroke-width="3" d="M 250 302 L 249 303 L 248 303 L 247 304 L 247 305 L 246 306 L 246 314 L 247 315 L 247 334 L 246 335 L 246 344 L 248 346 L 249 346 L 250 347 L 255 347 L 256 346 L 279 346 L 280 347 L 289 347 L 291 345 L 291 337 L 290 336 L 290 311 L 291 310 L 291 306 L 290 305 L 290 304 L 288 302 L 280 302 L 279 303 L 257 303 L 256 302 L 250 302 L 249 303 "></path>
        <path fill="none" stroke="#fa00fa" stroke-width="3" d="M 637 136 L 636 137 L 635 137 L 634 138 L 634 171 L 633 172 L 633 178 L 634 179 L 634 180 L 635 180 L 636 181 L 643 181 L 644 180 L 668 180 L 669 181 L 673 181 L 674 180 L 676 180 L 678 178 L 678 164 L 677 163 L 677 153 L 678 152 L 678 141 L 677 140 L 677 139 L 675 137 L 673 137 L 672 136 L 668 136 L 667 137 L 645 137 L 644 136 L 637 136 L 636 137 "></path>
        <path fill="none" stroke="#fa00fa" stroke-width="3" d="M 361 634 L 360 635 L 359 635 L 357 637 L 357 649 L 358 650 L 358 661 L 357 662 L 357 672 L 358 673 L 358 674 L 359 675 L 359 676 L 360 677 L 361 677 L 362 678 L 390 678 L 391 679 L 397 679 L 398 678 L 399 678 L 401 676 L 401 638 L 400 637 L 400 636 L 399 635 L 397 635 L 396 634 L 379 634 L 378 635 L 366 635 L 365 634 L 361 634 L 360 635 "></path>
        <path fill="none" stroke="#fa00fa" stroke-width="3" d="M 804 357 L 803 358 L 802 358 L 800 360 L 800 400 L 802 402 L 838 402 L 839 401 L 840 401 L 841 400 L 842 400 L 842 399 L 843 398 L 843 396 L 844 395 L 844 390 L 843 389 L 843 369 L 844 368 L 844 367 L 843 366 L 843 362 L 840 359 L 839 359 L 838 358 L 808 358 L 807 357 L 804 357 L 803 358 "></path>
        <path fill="none" stroke="#fa00fa" stroke-width="3" d="M 530 82 L 529 83 L 528 83 L 527 84 L 526 84 L 525 85 L 525 86 L 524 87 L 524 89 L 523 90 L 523 122 L 524 123 L 524 124 L 525 124 L 526 125 L 565 125 L 567 123 L 567 122 L 568 121 L 568 119 L 567 118 L 567 90 L 566 89 L 566 87 L 562 83 L 561 83 L 560 82 L 530 82 L 529 83 "></path>
        <path fill="none" stroke="#fa00fa" stroke-width="3" d="M 338 634 L 337 635 L 308 635 L 307 636 L 306 636 L 305 637 L 304 637 L 303 638 L 303 639 L 302 640 L 302 641 L 301 642 L 301 643 L 300 644 L 300 648 L 299 649 L 299 656 L 300 657 L 300 661 L 301 662 L 301 663 L 302 664 L 302 666 L 304 668 L 304 669 L 310 675 L 311 675 L 312 676 L 313 676 L 314 677 L 317 677 L 318 678 L 338 678 L 339 677 L 341 677 L 344 674 L 344 673 L 345 672 L 345 670 L 346 669 L 346 638 L 345 637 L 345 636 L 344 635 L 343 635 L 342 634 L 338 634 L 337 635 "></path>
        <path fill="none" stroke="#fa00fa" stroke-width="3" d="M 803 468 L 802 469 L 801 469 L 800 470 L 800 510 L 803 513 L 809 513 L 810 512 L 836 512 L 837 511 L 838 511 L 842 507 L 842 505 L 843 504 L 843 474 L 842 473 L 842 472 L 840 470 L 839 470 L 838 469 L 810 469 L 809 468 L 803 468 L 802 469 "></path>
        <path fill="none" stroke="#fa00fa" stroke-width="3" d="M 803 302 L 800 305 L 800 344 L 801 345 L 801 346 L 802 346 L 803 347 L 809 347 L 810 346 L 838 346 L 839 345 L 840 345 L 842 343 L 842 342 L 843 341 L 843 311 L 842 310 L 842 308 L 838 304 L 837 304 L 836 303 L 811 303 L 810 302 L 803 302 L 800 305 "></path>
        <path fill="none" stroke="#fa00fa" stroke-width="3" d="M 257 579 L 256 580 L 253 580 L 251 582 L 250 582 L 250 583 L 248 585 L 248 588 L 247 589 L 247 606 L 248 607 L 248 610 L 249 611 L 249 613 L 251 615 L 251 616 L 255 620 L 256 620 L 258 622 L 259 622 L 260 623 L 261 623 L 262 624 L 264 624 L 265 625 L 269 625 L 270 626 L 275 626 L 276 625 L 281 625 L 282 624 L 283 624 L 284 623 L 285 623 L 286 622 L 287 622 L 288 621 L 288 620 L 289 619 L 289 618 L 290 617 L 290 587 L 291 586 L 291 584 L 290 583 L 290 581 L 289 580 L 288 580 L 287 579 L 257 579 L 256 580 "></path>
        <path fill="none" stroke="#fa00fa" stroke-width="3" d="M 203 413 L 202 414 L 199 414 L 198 415 L 197 415 L 195 417 L 195 418 L 193 420 L 193 422 L 192 423 L 192 446 L 193 447 L 193 449 L 194 450 L 194 451 L 198 455 L 199 455 L 200 456 L 202 456 L 203 457 L 232 457 L 235 454 L 235 416 L 232 413 L 219 413 L 218 414 L 214 414 L 213 413 L 203 413 L 202 414 "></path>
        <path fill="none" stroke="#fa00fa" stroke-width="3" d="M 587 82 L 586 83 L 584 83 L 582 85 L 581 85 L 581 86 L 580 87 L 580 88 L 579 89 L 579 115 L 578 116 L 578 121 L 579 122 L 579 123 L 581 125 L 619 125 L 620 124 L 621 124 L 622 123 L 622 122 L 623 121 L 623 116 L 622 115 L 622 91 L 621 90 L 621 89 L 620 88 L 620 87 L 618 85 L 617 85 L 615 83 L 613 83 L 612 82 L 587 82 L 586 83 "></path>
        <path fill="none" stroke="#fa00fa" stroke-width="3" d="M 202 358 L 201 359 L 199 359 L 194 364 L 194 365 L 193 366 L 193 368 L 192 369 L 192 391 L 193 392 L 193 394 L 194 395 L 194 396 L 195 397 L 195 398 L 196 399 L 197 399 L 198 400 L 199 400 L 200 401 L 204 401 L 205 402 L 208 402 L 209 401 L 221 401 L 222 402 L 232 402 L 235 399 L 235 361 L 234 360 L 234 359 L 233 359 L 232 358 L 202 358 L 201 359 "></path>
        <path fill="none" stroke="#fa00fa" stroke-width="3" d="M 417 690 L 416 691 L 415 691 L 413 693 L 413 695 L 412 696 L 412 699 L 413 700 L 413 723 L 414 724 L 414 725 L 415 726 L 415 727 L 418 730 L 419 730 L 420 731 L 421 731 L 422 732 L 424 732 L 425 733 L 447 733 L 448 732 L 450 732 L 451 731 L 452 731 L 455 728 L 455 726 L 456 725 L 456 698 L 457 697 L 457 695 L 456 694 L 456 692 L 455 691 L 454 691 L 453 690 L 417 690 L 416 691 "></path>
        <path fill="none" stroke="#fa00fa" stroke-width="3" d="M 803 524 L 802 525 L 801 525 L 801 526 L 800 527 L 800 562 L 801 563 L 801 564 L 804 567 L 807 567 L 808 568 L 810 568 L 811 567 L 830 567 L 831 566 L 833 566 L 834 565 L 835 565 L 840 560 L 840 559 L 841 558 L 841 557 L 842 556 L 842 555 L 843 554 L 843 552 L 844 551 L 844 547 L 845 546 L 845 542 L 844 541 L 844 536 L 843 535 L 843 533 L 842 532 L 842 531 L 841 530 L 841 529 L 838 526 L 837 526 L 836 525 L 834 525 L 833 524 L 803 524 L 802 525 "></path>
        <path fill="none" stroke="#fa00fa" stroke-width="3" d="M 808 247 L 807 248 L 804 248 L 801 251 L 801 252 L 800 253 L 800 288 L 801 289 L 801 290 L 802 290 L 803 291 L 833 291 L 834 290 L 836 290 L 837 289 L 838 289 L 840 287 L 840 286 L 842 284 L 842 283 L 843 282 L 843 280 L 844 279 L 844 274 L 845 273 L 845 269 L 844 268 L 844 264 L 843 263 L 843 261 L 842 260 L 842 259 L 841 258 L 841 257 L 839 255 L 839 254 L 835 250 L 834 250 L 833 249 L 831 249 L 830 248 L 812 248 L 811 247 L 808 247 L 807 248 "></path>
        <path fill="none" stroke="#fa00fa" stroke-width="3" d="M 205 303 L 204 304 L 202 304 L 201 305 L 200 305 L 196 309 L 196 310 L 194 312 L 194 314 L 193 315 L 193 318 L 192 319 L 192 333 L 193 334 L 193 337 L 194 338 L 194 339 L 195 340 L 195 341 L 199 345 L 201 345 L 202 346 L 227 346 L 228 347 L 229 347 L 230 346 L 232 346 L 233 345 L 234 345 L 234 344 L 235 343 L 235 308 L 234 307 L 234 306 L 233 305 L 233 304 L 232 304 L 231 303 L 205 303 L 204 304 "></path>
        <path fill="none" stroke="#fa00fa" stroke-width="3" d="M 637 690 L 634 693 L 634 722 L 635 723 L 635 725 L 636 726 L 636 727 L 638 729 L 639 729 L 641 731 L 642 731 L 643 732 L 645 732 L 646 733 L 649 733 L 650 734 L 658 734 L 659 733 L 662 733 L 663 732 L 665 732 L 666 731 L 667 731 L 669 729 L 670 729 L 675 724 L 675 723 L 676 722 L 676 720 L 677 719 L 677 695 L 676 694 L 676 693 L 674 691 L 672 691 L 671 690 L 637 690 L 634 693 "></path>
        <path fill="none" stroke="#fa00fa" stroke-width="3" d="M 649 82 L 648 83 L 644 83 L 643 84 L 642 84 L 641 85 L 640 85 L 639 86 L 638 86 L 637 87 L 637 88 L 635 90 L 635 92 L 634 93 L 634 122 L 637 125 L 671 125 L 672 124 L 673 124 L 674 123 L 675 123 L 676 122 L 676 121 L 677 120 L 677 97 L 676 96 L 676 94 L 675 93 L 675 92 L 674 91 L 674 90 L 671 87 L 670 87 L 668 85 L 667 85 L 666 84 L 664 84 L 663 83 L 659 83 L 658 82 L 649 82 L 648 83 "></path>
        <path fill="none" stroke="#fa00fa" stroke-width="3" d="M 366 690 L 365 691 L 363 691 L 359 695 L 359 697 L 358 698 L 358 716 L 359 717 L 359 719 L 360 720 L 360 721 L 361 722 L 361 723 L 366 728 L 367 728 L 369 730 L 371 730 L 372 731 L 374 731 L 375 732 L 388 732 L 389 731 L 391 731 L 392 730 L 393 730 L 394 729 L 395 729 L 399 725 L 399 724 L 400 723 L 400 721 L 401 720 L 401 694 L 398 691 L 397 691 L 396 690 L 366 690 L 365 691 "></path>
        <path fill="none" stroke="#fa00fa" stroke-width="3" d="M 206 524 L 205 525 L 203 525 L 202 526 L 201 526 L 197 530 L 197 531 L 196 532 L 196 533 L 195 534 L 195 536 L 194 537 L 194 541 L 193 542 L 193 546 L 194 547 L 194 551 L 195 552 L 195 554 L 196 555 L 196 556 L 198 558 L 198 559 L 202 563 L 203 563 L 205 565 L 207 565 L 208 566 L 211 566 L 212 567 L 225 567 L 226 566 L 228 566 L 229 565 L 230 565 L 234 561 L 234 559 L 235 558 L 235 529 L 234 528 L 234 527 L 232 525 L 231 525 L 230 524 L 206 524 L 205 525 "></path>
        <path fill="none" stroke="#fa00fa" stroke-width="3" d="M 211 248 L 210 249 L 207 249 L 206 250 L 205 250 L 203 252 L 202 252 L 198 256 L 198 257 L 196 259 L 196 260 L 195 261 L 195 263 L 194 264 L 194 268 L 193 269 L 193 273 L 194 274 L 194 278 L 195 279 L 195 281 L 196 282 L 196 283 L 197 284 L 197 285 L 201 289 L 202 289 L 203 290 L 206 290 L 207 291 L 229 291 L 230 290 L 232 290 L 233 289 L 233 288 L 234 287 L 234 286 L 235 285 L 235 257 L 234 256 L 234 254 L 230 250 L 229 250 L 228 249 L 226 249 L 225 248 L 211 248 L 210 249 "></path>
        <path fill="none" stroke="#fa00fa" stroke-width="3" d="M 868 358 L 867 359 L 863 359 L 862 360 L 860 360 L 857 363 L 857 364 L 856 365 L 856 367 L 855 368 L 855 392 L 856 393 L 856 395 L 857 396 L 857 397 L 861 401 L 862 401 L 863 402 L 865 402 L 866 403 L 878 403 L 879 402 L 881 402 L 882 401 L 883 401 L 884 400 L 885 400 L 887 398 L 888 398 L 891 395 L 891 394 L 893 392 L 893 391 L 894 390 L 894 388 L 895 387 L 895 384 L 896 383 L 896 378 L 895 377 L 895 373 L 894 372 L 894 371 L 893 370 L 893 369 L 892 368 L 892 367 L 886 361 L 885 361 L 884 360 L 883 360 L 882 359 L 876 359 L 875 358 L 868 358 L 867 359 "></path>
        <path fill="none" stroke="#fa00fa" stroke-width="3" d="M 540 741 L 539 742 L 537 742 L 536 743 L 535 743 L 534 744 L 533 744 L 531 746 L 530 746 L 529 747 L 529 748 L 526 751 L 526 752 L 525 753 L 525 756 L 524 757 L 524 769 L 525 770 L 525 772 L 526 773 L 526 774 L 527 775 L 527 776 L 532 781 L 533 781 L 534 782 L 535 782 L 536 783 L 537 783 L 538 784 L 542 784 L 543 785 L 547 785 L 548 784 L 551 784 L 552 783 L 554 783 L 555 782 L 556 782 L 558 780 L 559 780 L 562 777 L 562 776 L 564 774 L 564 773 L 565 772 L 565 771 L 566 770 L 566 766 L 567 765 L 567 760 L 566 759 L 566 756 L 565 755 L 565 754 L 564 753 L 564 752 L 563 751 L 563 750 L 557 744 L 556 744 L 555 743 L 554 743 L 553 742 L 551 742 L 550 741 L 540 741 L 539 742 "></path>
        <path fill="none" stroke="#fa00fa" stroke-width="3" d="M 809 579 L 808 580 L 805 580 L 804 581 L 803 581 L 802 582 L 802 583 L 801 584 L 801 585 L 800 586 L 800 611 L 801 612 L 801 614 L 806 619 L 807 619 L 808 620 L 810 620 L 811 621 L 824 621 L 825 620 L 827 620 L 828 619 L 829 619 L 830 618 L 831 618 L 837 612 L 837 611 L 839 609 L 839 607 L 840 606 L 840 603 L 841 602 L 841 595 L 840 594 L 840 591 L 839 590 L 839 588 L 837 586 L 837 585 L 833 581 L 831 581 L 830 580 L 826 580 L 825 579 L 809 579 L 808 580 "></path>
        <path fill="none" stroke="#fa00fa" stroke-width="3" d="M 816 193 L 815 194 L 811 194 L 810 195 L 808 195 L 806 197 L 805 197 L 802 200 L 802 201 L 801 202 L 801 203 L 800 204 L 800 228 L 801 229 L 801 231 L 805 235 L 809 235 L 810 236 L 824 236 L 825 235 L 830 235 L 831 234 L 832 234 L 833 233 L 834 233 L 837 230 L 837 229 L 838 228 L 838 227 L 839 226 L 839 225 L 840 224 L 840 221 L 841 220 L 841 213 L 840 212 L 840 209 L 839 208 L 839 206 L 837 204 L 837 203 L 831 197 L 830 197 L 829 196 L 828 196 L 827 195 L 826 195 L 825 194 L 821 194 L 820 193 L 816 193 L 815 194 "></path>
        <path fill="none" stroke="#fa00fa" stroke-width="3" d="M 697 690 L 696 691 L 694 691 L 691 694 L 691 695 L 690 696 L 690 701 L 689 702 L 689 713 L 690 714 L 690 719 L 691 720 L 691 722 L 696 727 L 697 727 L 698 728 L 699 728 L 700 729 L 701 729 L 702 730 L 708 730 L 709 731 L 710 730 L 715 730 L 716 729 L 718 729 L 719 728 L 720 728 L 722 726 L 723 726 L 727 722 L 727 721 L 729 719 L 729 717 L 730 716 L 730 714 L 731 713 L 731 702 L 730 701 L 730 699 L 729 698 L 729 697 L 728 696 L 728 695 L 725 692 L 724 692 L 723 691 L 721 691 L 720 690 L 697 690 L 696 691 "></path>
        <path fill="none" stroke="#fa00fa" stroke-width="3" d="M 703 85 L 702 86 L 700 86 L 699 87 L 698 87 L 697 88 L 696 88 L 692 92 L 692 93 L 691 94 L 691 95 L 690 96 L 690 100 L 689 101 L 689 114 L 690 115 L 690 119 L 691 120 L 691 121 L 693 123 L 694 123 L 695 124 L 697 124 L 698 125 L 720 125 L 721 124 L 723 124 L 725 122 L 726 122 L 727 121 L 727 120 L 729 118 L 729 116 L 730 115 L 730 113 L 731 112 L 731 102 L 730 101 L 730 99 L 729 98 L 729 97 L 728 96 L 728 95 L 726 93 L 726 92 L 723 89 L 722 89 L 720 87 L 719 87 L 718 86 L 716 86 L 715 85 L 703 85 L 702 86 "></path>
        <path fill="none" stroke="#fa00fa" stroke-width="3" d="M 866 468 L 865 469 L 863 469 L 861 471 L 860 471 L 857 474 L 857 475 L 856 476 L 856 479 L 855 480 L 855 499 L 856 500 L 856 503 L 857 504 L 857 505 L 860 508 L 861 508 L 862 509 L 863 509 L 864 510 L 865 510 L 866 511 L 879 511 L 880 510 L 881 510 L 882 509 L 883 509 L 884 508 L 885 508 L 892 501 L 892 500 L 893 499 L 893 497 L 894 496 L 894 493 L 895 492 L 895 487 L 894 486 L 894 483 L 893 482 L 893 480 L 891 478 L 891 477 L 885 471 L 884 471 L 883 470 L 882 470 L 881 469 L 880 469 L 879 468 L 866 468 L 865 469 "></path>
        <path fill="none" stroke="#fa00fa" stroke-width="3" d="M 866 304 L 865 305 L 864 305 L 863 306 L 862 306 L 861 307 L 860 307 L 858 309 L 858 310 L 856 312 L 856 315 L 855 316 L 855 334 L 856 335 L 856 339 L 858 341 L 858 342 L 859 343 L 860 343 L 861 344 L 862 344 L 863 345 L 865 345 L 866 346 L 879 346 L 880 345 L 883 345 L 884 344 L 885 344 L 888 341 L 889 341 L 889 340 L 892 337 L 892 336 L 893 335 L 893 333 L 894 332 L 894 330 L 895 329 L 895 322 L 894 321 L 894 319 L 893 318 L 893 316 L 892 315 L 892 314 L 889 311 L 889 310 L 888 309 L 887 309 L 885 307 L 884 307 L 883 306 L 882 306 L 881 305 L 880 305 L 879 304 L 866 304 L 865 305 "></path>
        <path fill="none" stroke="#fa00fa" stroke-width="3" d="M 539 31 L 538 32 L 536 32 L 535 33 L 534 33 L 532 35 L 531 35 L 528 38 L 528 39 L 526 41 L 526 42 L 525 43 L 525 46 L 524 47 L 524 58 L 525 59 L 525 62 L 526 63 L 526 64 L 530 68 L 531 68 L 532 69 L 535 69 L 536 70 L 553 70 L 554 69 L 558 69 L 560 67 L 561 67 L 563 65 L 563 64 L 564 63 L 564 62 L 565 61 L 565 58 L 566 57 L 566 48 L 565 47 L 565 44 L 564 43 L 564 42 L 563 41 L 563 40 L 557 34 L 556 34 L 555 33 L 554 33 L 553 32 L 552 32 L 551 31 L 539 31 L 538 32 "></path>
        <path fill="none" stroke="#fa00fa" stroke-width="3" d="M 481 745 L 480 746 L 477 746 L 475 748 L 474 748 L 472 750 L 472 751 L 471 752 L 471 753 L 470 754 L 470 757 L 469 758 L 469 767 L 470 768 L 470 771 L 471 772 L 471 773 L 472 774 L 472 775 L 478 781 L 479 781 L 480 782 L 481 782 L 482 783 L 484 783 L 485 784 L 496 784 L 497 783 L 498 783 L 499 782 L 500 782 L 501 781 L 502 781 L 504 779 L 505 779 L 507 777 L 507 776 L 509 774 L 509 772 L 510 771 L 510 769 L 511 768 L 511 757 L 510 756 L 510 753 L 509 752 L 509 751 L 505 747 L 504 747 L 503 746 L 500 746 L 499 745 L 481 745 L 480 746 "></path>
        <path fill="none" stroke="#fa00fa" stroke-width="3" d="M 485 31 L 484 32 L 482 32 L 481 33 L 480 33 L 479 34 L 478 34 L 472 40 L 472 41 L 471 42 L 471 43 L 470 44 L 470 47 L 469 48 L 469 57 L 470 58 L 470 61 L 471 62 L 471 63 L 473 65 L 473 66 L 474 67 L 475 67 L 476 68 L 477 68 L 478 69 L 481 69 L 482 70 L 498 70 L 499 69 L 503 69 L 504 68 L 505 68 L 508 65 L 508 64 L 509 63 L 509 62 L 510 61 L 510 58 L 511 57 L 511 48 L 510 47 L 510 44 L 509 43 L 509 42 L 508 41 L 508 40 L 502 34 L 501 34 L 500 33 L 499 33 L 498 32 L 496 32 L 495 31 L 485 31 L 484 32 "></path>
        <path fill="none" stroke="#fa00fa" stroke-width="3" d="M 318 690 L 317 691 L 315 691 L 314 692 L 313 692 L 308 697 L 308 698 L 307 699 L 307 701 L 306 702 L 306 705 L 305 706 L 305 711 L 306 712 L 306 715 L 307 716 L 307 717 L 308 718 L 308 719 L 309 720 L 309 721 L 313 725 L 314 725 L 316 727 L 317 727 L 318 728 L 320 728 L 321 729 L 331 729 L 332 728 L 334 728 L 335 727 L 336 727 L 337 726 L 338 726 L 343 721 L 343 720 L 344 719 L 344 717 L 345 716 L 345 700 L 344 699 L 344 697 L 342 695 L 342 694 L 341 693 L 340 693 L 339 692 L 338 692 L 337 691 L 335 691 L 334 690 L 318 690 L 317 691 "></path>
        <path fill="none" stroke="#fa00fa" stroke-width="3" d="M 598 31 L 597 32 L 593 32 L 592 33 L 591 33 L 590 34 L 589 34 L 588 35 L 587 35 L 583 39 L 583 40 L 581 42 L 581 44 L 580 45 L 580 49 L 579 50 L 579 55 L 580 56 L 580 60 L 581 61 L 581 62 L 582 63 L 582 64 L 586 68 L 588 68 L 589 69 L 593 69 L 594 70 L 606 70 L 607 69 L 610 69 L 611 68 L 613 68 L 617 64 L 617 63 L 618 62 L 618 61 L 619 60 L 619 58 L 620 57 L 620 48 L 619 47 L 619 44 L 618 43 L 618 42 L 616 40 L 616 39 L 612 35 L 611 35 L 610 34 L 609 34 L 608 33 L 607 33 L 606 32 L 602 32 L 601 31 L 598 31 L 597 32 "></path>
        <path fill="none" stroke="#fa00fa" stroke-width="3" d="M 212 196 L 211 197 L 209 197 L 208 198 L 207 198 L 205 200 L 204 200 L 200 204 L 200 205 L 199 206 L 199 207 L 198 208 L 198 209 L 197 210 L 197 215 L 196 216 L 197 217 L 197 222 L 198 223 L 198 225 L 199 226 L 199 227 L 205 233 L 206 233 L 207 234 L 209 234 L 210 235 L 224 235 L 225 234 L 227 234 L 228 233 L 229 233 L 234 228 L 234 227 L 235 226 L 235 225 L 236 224 L 236 222 L 237 221 L 237 211 L 236 210 L 236 208 L 235 207 L 235 206 L 232 203 L 232 202 L 231 201 L 230 201 L 228 199 L 227 199 L 226 198 L 225 198 L 224 197 L 222 197 L 221 196 L 212 196 L 211 197 "></path>
        <path fill="none" stroke="#fa00fa" stroke-width="3" d="M 210 580 L 209 581 L 207 581 L 206 582 L 205 582 L 199 588 L 199 589 L 198 590 L 198 592 L 197 593 L 197 596 L 196 597 L 196 600 L 197 601 L 197 605 L 198 606 L 198 607 L 199 608 L 199 609 L 200 610 L 200 611 L 205 616 L 206 616 L 207 617 L 208 617 L 209 618 L 211 618 L 212 619 L 222 619 L 223 618 L 225 618 L 226 617 L 227 617 L 229 615 L 230 615 L 232 613 L 232 612 L 233 611 L 233 610 L 234 609 L 234 607 L 235 606 L 235 592 L 234 591 L 234 588 L 233 587 L 233 586 L 229 582 L 228 582 L 227 581 L 225 581 L 224 580 L 210 580 L 209 581 "></path>
        <path fill="none" stroke="#fa00fa" stroke-width="3" d="M 159 360 L 158 361 L 155 361 L 154 362 L 153 362 L 152 363 L 151 363 L 145 369 L 145 370 L 144 371 L 144 372 L 143 373 L 143 375 L 142 376 L 142 384 L 143 385 L 143 387 L 144 388 L 144 390 L 146 392 L 146 393 L 149 396 L 150 396 L 152 398 L 153 398 L 154 399 L 156 399 L 157 400 L 167 400 L 168 399 L 170 399 L 171 398 L 172 398 L 173 397 L 174 397 L 177 394 L 177 393 L 178 392 L 178 391 L 179 390 L 179 386 L 180 385 L 180 375 L 179 374 L 179 370 L 178 369 L 178 368 L 177 367 L 177 366 L 175 364 L 174 364 L 172 362 L 170 362 L 169 361 L 167 361 L 166 360 L 159 360 L 158 361 "></path>
        <path fill="none" stroke="#fa00fa" stroke-width="3" d="M 157 415 L 156 416 L 154 416 L 153 417 L 152 417 L 150 419 L 149 419 L 146 422 L 146 423 L 144 425 L 144 427 L 143 428 L 143 430 L 142 431 L 142 439 L 143 440 L 143 442 L 144 443 L 144 444 L 145 445 L 145 446 L 151 452 L 152 452 L 153 453 L 154 453 L 155 454 L 158 454 L 159 455 L 166 455 L 167 454 L 169 454 L 170 453 L 172 453 L 174 451 L 175 451 L 176 450 L 176 449 L 178 447 L 178 446 L 179 445 L 179 441 L 180 440 L 180 430 L 179 429 L 179 425 L 178 424 L 178 423 L 177 422 L 177 421 L 174 418 L 173 418 L 172 417 L 171 417 L 170 416 L 168 416 L 167 415 L 157 415 L 156 416 "></path>
        <path fill="none" stroke="#fa00fa" stroke-width="3" d="M 431 745 L 430 746 L 426 746 L 425 747 L 424 747 L 423 748 L 422 748 L 419 751 L 419 752 L 417 754 L 417 756 L 416 757 L 416 769 L 417 770 L 417 771 L 418 772 L 418 773 L 419 774 L 419 775 L 423 779 L 424 779 L 426 781 L 427 781 L 428 782 L 430 782 L 431 783 L 440 783 L 441 782 L 443 782 L 444 781 L 445 781 L 446 780 L 447 780 L 453 774 L 453 773 L 454 772 L 454 770 L 455 769 L 455 757 L 454 756 L 454 754 L 453 753 L 453 752 L 448 747 L 447 747 L 446 746 L 442 746 L 441 745 L 431 745 L 430 746 "></path>
        <path fill="none" stroke="#fa00fa" stroke-width="3" d="M 431 32 L 430 33 L 428 33 L 427 34 L 426 34 L 424 36 L 423 36 L 419 40 L 419 41 L 418 42 L 418 43 L 417 44 L 417 45 L 416 46 L 416 58 L 417 59 L 417 60 L 418 61 L 418 62 L 419 63 L 419 64 L 422 67 L 423 67 L 424 68 L 425 68 L 426 69 L 430 69 L 431 70 L 440 70 L 441 69 L 445 69 L 446 68 L 447 68 L 448 67 L 449 67 L 452 64 L 452 63 L 453 62 L 453 61 L 454 60 L 454 58 L 455 57 L 455 47 L 454 46 L 454 44 L 453 43 L 453 42 L 452 41 L 452 40 L 447 35 L 446 35 L 445 34 L 444 34 L 443 33 L 441 33 L 440 32 L 431 32 L 430 33 "></path>
        <path fill="none" stroke="#fa00fa" stroke-width="3" d="M 161 306 L 160 307 L 156 307 L 155 308 L 154 308 L 153 309 L 152 309 L 150 311 L 149 311 L 147 313 L 147 314 L 145 316 L 145 317 L 144 318 L 144 320 L 143 321 L 143 329 L 144 330 L 144 332 L 145 333 L 145 334 L 146 335 L 146 336 L 152 342 L 153 342 L 154 343 L 156 343 L 157 344 L 167 344 L 168 343 L 170 343 L 171 342 L 172 342 L 177 337 L 177 336 L 178 335 L 178 334 L 179 333 L 179 328 L 180 327 L 180 324 L 179 323 L 179 318 L 178 317 L 178 315 L 176 313 L 176 312 L 175 311 L 174 311 L 172 309 L 171 309 L 170 308 L 169 308 L 168 307 L 164 307 L 163 306 L 161 306 L 160 307 "></path>
        <path fill="none" stroke="#fa00fa" stroke-width="3" d="M 157 471 L 156 472 L 154 472 L 153 473 L 152 473 L 150 475 L 149 475 L 148 476 L 148 477 L 145 480 L 145 481 L 144 482 L 144 484 L 143 485 L 143 494 L 144 495 L 144 497 L 145 498 L 145 499 L 147 501 L 147 502 L 149 504 L 150 504 L 152 506 L 153 506 L 154 507 L 155 507 L 156 508 L 168 508 L 169 507 L 170 507 L 171 506 L 172 506 L 174 504 L 175 504 L 175 503 L 178 500 L 178 498 L 179 497 L 179 482 L 178 481 L 178 479 L 175 476 L 175 475 L 174 475 L 172 473 L 171 473 L 170 472 L 168 472 L 167 471 L 157 471 L 156 472 "></path>
        <path fill="none" stroke="#fa00fa" stroke-width="3" d="M 652 33 L 651 34 L 648 34 L 647 35 L 646 35 L 645 36 L 644 36 L 639 41 L 639 42 L 638 43 L 638 44 L 637 45 L 637 47 L 636 48 L 636 56 L 637 57 L 637 59 L 638 60 L 638 61 L 639 62 L 639 63 L 643 67 L 644 67 L 645 68 L 646 68 L 647 69 L 661 69 L 662 68 L 664 68 L 666 66 L 667 66 L 669 64 L 669 63 L 671 61 L 671 60 L 672 59 L 672 57 L 673 56 L 673 48 L 672 47 L 672 45 L 671 44 L 671 43 L 670 42 L 670 41 L 666 37 L 665 37 L 663 35 L 661 35 L 660 34 L 657 34 L 656 33 L 652 33 L 651 34 "></path>
        <path fill="none" stroke="#fa00fa" stroke-width="3" d="M 814 636 L 813 637 L 811 637 L 810 638 L 809 638 L 807 640 L 806 640 L 804 642 L 804 643 L 802 645 L 802 647 L 801 648 L 801 651 L 800 652 L 800 655 L 801 656 L 801 660 L 802 661 L 802 662 L 803 663 L 803 664 L 808 669 L 809 669 L 810 670 L 811 670 L 812 671 L 814 671 L 815 672 L 822 672 L 823 671 L 825 671 L 826 670 L 827 670 L 828 669 L 829 669 L 834 664 L 834 663 L 835 662 L 835 661 L 836 660 L 836 658 L 837 657 L 837 651 L 836 650 L 836 647 L 835 646 L 835 645 L 833 643 L 833 642 L 830 639 L 829 639 L 828 638 L 827 638 L 826 637 L 824 637 L 823 636 L 814 636 L 813 637 "></path>
        <path fill="none" stroke="#fa00fa" stroke-width="3" d="M 763 690 L 762 691 L 758 691 L 757 692 L 756 692 L 755 693 L 754 693 L 752 695 L 751 695 L 750 696 L 750 697 L 748 699 L 748 700 L 747 701 L 747 703 L 746 704 L 746 713 L 747 714 L 747 716 L 748 717 L 748 718 L 754 724 L 755 724 L 756 725 L 757 725 L 758 726 L 769 726 L 770 725 L 772 725 L 774 723 L 775 723 L 779 719 L 779 718 L 780 717 L 780 716 L 781 715 L 781 712 L 782 711 L 782 706 L 781 705 L 781 702 L 780 701 L 780 700 L 779 699 L 779 698 L 775 694 L 774 694 L 772 692 L 770 692 L 769 691 L 766 691 L 765 690 L 763 690 L 762 691 "></path>
        <path fill="none" stroke="#fa00fa" stroke-width="3" d="M 759 89 L 758 90 L 756 90 L 754 92 L 753 92 L 749 96 L 749 97 L 748 98 L 748 99 L 747 100 L 747 102 L 746 103 L 746 110 L 747 111 L 747 114 L 748 115 L 748 116 L 754 122 L 755 122 L 756 123 L 757 123 L 758 124 L 762 124 L 763 125 L 765 125 L 766 124 L 769 124 L 770 123 L 772 123 L 774 121 L 775 121 L 779 117 L 779 116 L 780 115 L 780 114 L 781 113 L 781 110 L 782 109 L 782 104 L 781 103 L 781 100 L 780 99 L 780 98 L 778 96 L 778 95 L 775 92 L 774 92 L 773 91 L 772 91 L 771 90 L 770 90 L 769 89 L 759 89 L 758 90 "></path>
        <path fill="none" stroke="#fa00fa" stroke-width="3" d="M 377 746 L 376 747 L 374 747 L 373 748 L 372 748 L 371 749 L 370 749 L 366 753 L 366 754 L 365 755 L 365 756 L 364 757 L 364 759 L 363 760 L 363 767 L 364 768 L 364 770 L 365 771 L 365 772 L 367 774 L 367 775 L 369 777 L 370 777 L 372 779 L 373 779 L 374 780 L 376 780 L 377 781 L 384 781 L 385 780 L 387 780 L 388 779 L 389 779 L 390 778 L 391 778 L 396 773 L 396 772 L 397 771 L 397 769 L 398 768 L 398 758 L 397 757 L 397 756 L 396 755 L 396 754 L 395 753 L 395 752 L 393 750 L 392 750 L 390 748 L 389 748 L 388 747 L 386 747 L 385 746 L 377 746 L 376 747 "></path>
        <path fill="none" stroke="#fa00fa" stroke-width="3" d="M 379 34 L 378 35 L 375 35 L 374 36 L 373 36 L 372 37 L 371 37 L 366 42 L 366 43 L 365 44 L 365 45 L 364 46 L 364 48 L 363 49 L 363 55 L 364 56 L 364 58 L 365 59 L 365 60 L 366 61 L 366 62 L 371 67 L 372 67 L 373 68 L 375 68 L 376 69 L 386 69 L 387 68 L 389 68 L 391 66 L 392 66 L 395 63 L 395 62 L 396 61 L 396 60 L 397 59 L 397 58 L 398 57 L 398 47 L 397 46 L 397 45 L 396 44 L 396 43 L 395 42 L 395 41 L 392 38 L 391 38 L 389 36 L 388 36 L 387 35 L 383 35 L 382 34 L 379 34 L 378 35 "></path>
        <path fill="none" stroke="#fa00fa" stroke-width="3" d="M 157 528 L 156 529 L 154 529 L 152 531 L 151 531 L 148 534 L 148 535 L 147 536 L 147 537 L 146 538 L 146 540 L 145 541 L 145 548 L 146 549 L 146 551 L 147 552 L 147 553 L 149 555 L 149 556 L 150 557 L 151 557 L 153 559 L 154 559 L 155 560 L 156 560 L 157 561 L 166 561 L 167 560 L 169 560 L 170 559 L 171 559 L 176 554 L 176 553 L 177 552 L 177 550 L 178 549 L 178 539 L 177 538 L 177 537 L 176 536 L 176 535 L 171 530 L 170 530 L 169 529 L 168 529 L 167 528 L 157 528 L 156 529 "></path>
        <path fill="none" stroke="#fa00fa" stroke-width="3" d="M 158 254 L 157 255 L 155 255 L 154 256 L 153 256 L 147 262 L 147 263 L 146 264 L 146 266 L 145 267 L 145 274 L 146 275 L 146 277 L 147 278 L 147 279 L 149 281 L 149 282 L 151 284 L 152 284 L 153 285 L 154 285 L 155 286 L 156 286 L 157 287 L 167 287 L 168 286 L 169 286 L 170 285 L 171 285 L 176 280 L 176 279 L 177 278 L 177 277 L 178 276 L 178 265 L 177 264 L 177 263 L 176 262 L 176 261 L 172 257 L 171 257 L 169 255 L 167 255 L 166 254 L 158 254 L 157 255 "></path>
        <path fill="none" stroke="#fa00fa" stroke-width="3" d="M 870 583 L 869 584 L 867 584 L 866 585 L 865 585 L 863 587 L 862 587 L 861 588 L 861 589 L 859 591 L 859 592 L 858 593 L 858 595 L 857 596 L 857 602 L 858 603 L 858 605 L 859 606 L 859 607 L 860 608 L 860 609 L 864 613 L 865 613 L 866 614 L 867 614 L 868 615 L 878 615 L 879 614 L 881 614 L 883 612 L 884 612 L 886 610 L 886 609 L 888 607 L 888 606 L 889 605 L 889 602 L 890 601 L 890 598 L 889 597 L 889 594 L 888 593 L 888 592 L 887 591 L 887 590 L 882 585 L 881 585 L 880 584 L 878 584 L 877 583 L 870 583 L 869 584 "></path>
        <path fill="none" stroke="#fa00fa" stroke-width="3" d="M 869 200 L 868 201 L 866 201 L 864 203 L 863 203 L 860 206 L 860 207 L 859 208 L 859 209 L 858 210 L 858 213 L 857 214 L 857 218 L 858 219 L 858 222 L 859 223 L 859 224 L 861 226 L 861 227 L 863 229 L 864 229 L 865 230 L 866 230 L 867 231 L 868 231 L 869 232 L 877 232 L 878 231 L 880 231 L 881 230 L 882 230 L 887 225 L 887 224 L 888 223 L 888 222 L 889 221 L 889 218 L 890 217 L 890 215 L 889 214 L 889 211 L 888 210 L 888 208 L 885 205 L 885 204 L 884 204 L 882 202 L 881 202 L 880 201 L 879 201 L 878 200 L 869 200 L 868 201 "></path>
        <path fill="none" stroke="#fa00fa" stroke-width="3" d="M 214 145 L 213 146 L 211 146 L 210 147 L 209 147 L 208 148 L 207 148 L 203 152 L 203 153 L 202 154 L 202 155 L 201 156 L 201 160 L 200 161 L 201 162 L 201 166 L 202 167 L 202 168 L 203 169 L 203 170 L 208 175 L 209 175 L 210 176 L 212 176 L 213 177 L 220 177 L 221 176 L 223 176 L 224 175 L 225 175 L 230 170 L 230 169 L 231 168 L 231 167 L 232 166 L 232 157 L 231 156 L 231 154 L 229 152 L 229 151 L 226 148 L 225 148 L 224 147 L 223 147 L 222 146 L 220 146 L 219 145 L 214 145 L 213 146 "></path>
        <path fill="none" stroke="#fa00fa" stroke-width="3" d="M 705 748 L 704 749 L 702 749 L 700 751 L 699 751 L 697 753 L 697 754 L 695 756 L 695 758 L 694 759 L 694 768 L 695 769 L 695 770 L 696 771 L 696 772 L 701 777 L 702 777 L 703 778 L 705 778 L 706 779 L 713 779 L 714 778 L 716 778 L 717 777 L 718 777 L 722 773 L 722 772 L 724 770 L 724 768 L 725 767 L 725 760 L 724 759 L 724 757 L 723 756 L 723 755 L 718 750 L 717 750 L 716 749 L 715 749 L 714 748 L 705 748 L 704 749 "></path>
        <path fill="none" stroke="#fa00fa" stroke-width="3" d="M 706 36 L 705 37 L 703 37 L 702 38 L 701 38 L 695 44 L 695 46 L 694 47 L 694 50 L 693 51 L 693 53 L 694 54 L 694 57 L 695 58 L 695 59 L 696 60 L 696 61 L 700 65 L 701 65 L 702 66 L 703 66 L 704 67 L 714 67 L 715 66 L 716 66 L 717 65 L 718 65 L 722 61 L 722 60 L 723 59 L 723 58 L 724 57 L 724 55 L 725 54 L 725 50 L 724 49 L 724 46 L 723 45 L 723 44 L 721 42 L 721 41 L 720 40 L 719 40 L 717 38 L 716 38 L 715 37 L 713 37 L 712 36 L 706 36 L 705 37 "></path>
        <path fill="none" stroke="#fa00fa" stroke-width="3" d="M 923 420 L 922 421 L 921 421 L 920 422 L 919 422 L 916 425 L 916 426 L 914 428 L 914 430 L 913 431 L 913 439 L 914 440 L 914 442 L 916 444 L 916 445 L 918 447 L 919 447 L 921 449 L 923 449 L 924 450 L 933 450 L 934 449 L 935 449 L 936 448 L 937 448 L 941 444 L 941 443 L 942 442 L 942 441 L 943 440 L 943 437 L 944 436 L 944 433 L 943 432 L 943 430 L 942 429 L 942 427 L 937 422 L 936 422 L 935 421 L 934 421 L 933 420 L 923 420 L 922 421 "></path>
        <path fill="none" stroke="#fa00fa" stroke-width="3" d="M 924 365 L 923 366 L 921 366 L 919 368 L 918 368 L 916 370 L 916 371 L 914 373 L 914 375 L 913 376 L 913 384 L 914 385 L 914 387 L 916 389 L 916 390 L 919 393 L 920 393 L 921 394 L 922 394 L 923 395 L 933 395 L 934 394 L 935 394 L 936 393 L 937 393 L 941 389 L 941 388 L 942 387 L 942 386 L 943 385 L 943 382 L 944 381 L 944 379 L 943 378 L 943 375 L 942 374 L 942 373 L 941 372 L 941 371 L 937 367 L 936 367 L 935 366 L 934 366 L 933 365 L 924 365 L 923 366 "></path>
        <path fill="none" stroke="#fa00fa" stroke-width="3" d="M 323 749 L 322 750 L 320 750 L 319 751 L 318 751 L 314 755 L 314 756 L 313 757 L 313 758 L 312 759 L 312 768 L 313 769 L 313 770 L 314 771 L 314 772 L 318 776 L 319 776 L 320 777 L 322 777 L 323 778 L 328 778 L 329 777 L 331 777 L 332 776 L 333 776 L 334 775 L 335 775 L 338 772 L 338 771 L 339 770 L 339 769 L 340 768 L 340 759 L 339 758 L 339 757 L 338 756 L 338 755 L 334 751 L 333 751 L 332 750 L 330 750 L 329 749 L 323 749 L 322 750 "></path>
        <path fill="none" stroke="#fa00fa" stroke-width="3" d="M 324 37 L 323 38 L 320 38 L 319 39 L 318 39 L 314 43 L 314 44 L 313 45 L 313 46 L 312 47 L 312 56 L 313 57 L 313 58 L 314 59 L 314 60 L 317 63 L 318 63 L 320 65 L 323 65 L 324 66 L 328 66 L 329 65 L 331 65 L 332 64 L 333 64 L 334 63 L 335 63 L 337 61 L 337 60 L 339 58 L 339 56 L 340 55 L 340 48 L 339 47 L 339 45 L 337 43 L 337 42 L 335 40 L 334 40 L 333 39 L 332 39 L 331 38 L 329 38 L 328 37 L 324 37 L 323 38 "></path>
        <path fill="none" stroke="#fa00fa" stroke-width="3" d="M 158 202 L 157 203 L 155 203 L 153 205 L 152 205 L 151 206 L 151 207 L 149 209 L 149 211 L 148 212 L 148 220 L 149 221 L 149 222 L 151 224 L 151 225 L 153 227 L 154 227 L 155 228 L 156 228 L 157 229 L 166 229 L 167 228 L 168 228 L 169 227 L 170 227 L 172 225 L 172 224 L 174 222 L 174 220 L 175 219 L 175 212 L 174 211 L 174 209 L 169 204 L 168 204 L 167 203 L 166 203 L 165 202 L 158 202 L 157 203 "></path>
        <path fill="none" stroke="#fa00fa" stroke-width="3" d="M 815 696 L 814 697 L 812 697 L 807 702 L 807 704 L 806 705 L 806 713 L 807 714 L 807 715 L 808 716 L 808 717 L 810 719 L 811 719 L 813 721 L 815 721 L 816 722 L 822 722 L 823 721 L 825 721 L 831 715 L 831 713 L 832 712 L 832 706 L 831 705 L 831 703 L 830 702 L 830 701 L 827 698 L 826 698 L 825 697 L 824 697 L 823 696 L 815 696 L 814 697 "></path>
        <path fill="none" stroke="#fa00fa" stroke-width="3" d="M 816 93 L 815 94 L 813 94 L 811 96 L 810 96 L 809 97 L 809 98 L 807 100 L 807 102 L 806 103 L 806 110 L 807 111 L 807 112 L 808 113 L 808 114 L 811 117 L 812 117 L 813 118 L 814 118 L 815 119 L 823 119 L 824 118 L 825 118 L 827 116 L 828 116 L 829 115 L 829 114 L 831 112 L 831 110 L 832 109 L 832 103 L 831 102 L 831 101 L 830 100 L 830 99 L 825 94 L 823 94 L 822 93 L 816 93 L 815 94 "></path>
        <path fill="none" stroke="#fa00fa" stroke-width="3" d="M 106 367 L 105 368 L 102 368 L 101 369 L 100 369 L 95 374 L 95 376 L 94 377 L 94 384 L 95 385 L 95 386 L 97 388 L 97 389 L 98 390 L 99 390 L 101 392 L 104 392 L 105 393 L 109 393 L 110 392 L 112 392 L 114 390 L 115 390 L 117 388 L 117 387 L 118 386 L 118 385 L 119 384 L 119 376 L 118 375 L 118 374 L 116 372 L 116 371 L 115 370 L 114 370 L 113 369 L 112 369 L 111 368 L 108 368 L 107 367 L 106 367 L 105 368 "></path>
        <path fill="none" stroke="#fa00fa" stroke-width="3" d="M 104 422 L 103 423 L 101 423 L 99 425 L 98 425 L 96 427 L 96 428 L 95 429 L 95 430 L 94 431 L 94 439 L 95 440 L 95 441 L 100 446 L 101 446 L 102 447 L 111 447 L 112 446 L 113 446 L 118 441 L 118 439 L 119 438 L 119 431 L 118 430 L 118 429 L 117 428 L 117 427 L 115 425 L 114 425 L 112 423 L 110 423 L 109 422 L 104 422 L 103 423 "></path>
        <path fill="none" stroke="#fa00fa" stroke-width="3" d="M 870 149 L 869 150 L 868 150 L 867 151 L 866 151 L 864 153 L 864 154 L 862 156 L 862 159 L 861 160 L 861 162 L 862 163 L 862 166 L 864 168 L 864 169 L 866 171 L 867 171 L 868 172 L 869 172 L 870 173 L 878 173 L 879 172 L 880 172 L 885 167 L 885 166 L 886 165 L 886 157 L 885 156 L 885 155 L 883 153 L 883 152 L 882 152 L 880 150 L 879 150 L 878 149 L 870 149 L 869 150 "></path>
        <path fill="none" stroke="#fa00fa" stroke-width="3" d="M 106 313 L 105 314 L 102 314 L 101 315 L 100 315 L 96 319 L 96 320 L 95 321 L 95 329 L 96 330 L 96 331 L 98 333 L 98 334 L 99 334 L 101 336 L 103 336 L 104 337 L 110 337 L 111 336 L 112 336 L 113 335 L 114 335 L 116 333 L 116 332 L 117 331 L 117 330 L 118 329 L 118 321 L 117 320 L 117 319 L 113 315 L 112 315 L 111 314 L 108 314 L 107 313 L 106 313 L 105 314 "></path>
        <path fill="none" stroke="#fa00fa" stroke-width="3" d="M 212 698 L 211 699 L 210 699 L 206 703 L 206 704 L 205 705 L 205 713 L 206 714 L 206 715 L 210 719 L 211 719 L 212 720 L 220 720 L 221 719 L 222 719 L 226 715 L 226 714 L 227 713 L 227 705 L 226 704 L 226 703 L 222 699 L 221 699 L 220 698 L 212 698 L 211 699 "></path>
        <path fill="none" stroke="#fa00fa" stroke-width="3" d="M 212 95 L 211 96 L 210 96 L 206 100 L 206 101 L 205 102 L 205 109 L 206 110 L 206 112 L 210 116 L 211 116 L 212 117 L 220 117 L 221 116 L 222 116 L 226 112 L 226 111 L 227 110 L 227 102 L 226 101 L 226 100 L 222 96 L 221 96 L 220 95 L 212 95 L 211 96 "></path>
        <path fill="none" stroke="#fa00fa" stroke-width="3" d="M 269 753 L 268 754 L 266 754 L 264 756 L 263 756 L 263 757 L 261 759 L 261 761 L 260 762 L 260 766 L 261 767 L 261 768 L 262 769 L 262 770 L 265 773 L 266 773 L 267 774 L 269 774 L 270 775 L 272 775 L 273 774 L 275 774 L 276 773 L 277 773 L 280 770 L 280 769 L 281 768 L 281 766 L 282 765 L 282 762 L 281 761 L 281 759 L 276 754 L 274 754 L 273 753 L 269 753 L 268 754 "></path>
        <path fill="none" stroke="#fa00fa" stroke-width="3" d="M 267 41 L 266 42 L 265 42 L 262 45 L 262 46 L 261 47 L 261 48 L 260 49 L 260 53 L 261 54 L 261 56 L 263 58 L 263 59 L 264 59 L 266 61 L 268 61 L 269 62 L 273 62 L 274 61 L 276 61 L 280 57 L 280 56 L 281 55 L 281 47 L 280 46 L 280 45 L 277 42 L 276 42 L 275 41 L 267 41 L 266 42 "></path>
        <path fill="none" stroke="#fa00fa" stroke-width="3" d="M 161 150 L 160 151 L 157 151 L 156 152 L 155 152 L 152 155 L 152 156 L 151 157 L 151 164 L 152 165 L 152 166 L 153 167 L 153 168 L 154 169 L 155 169 L 156 170 L 157 170 L 158 171 L 164 171 L 165 170 L 166 170 L 167 169 L 168 169 L 169 168 L 169 167 L 171 165 L 171 157 L 170 156 L 170 155 L 167 152 L 166 152 L 165 151 L 163 151 L 162 150 L 161 150 L 160 151 "></path>
        <path fill="none" stroke="#fa00fa" stroke-width="3" d="M 105 534 L 104 535 L 102 535 L 101 536 L 100 536 L 98 538 L 98 539 L 97 540 L 97 541 L 96 542 L 96 547 L 97 548 L 97 549 L 98 550 L 98 551 L 100 553 L 101 553 L 102 554 L 103 554 L 104 555 L 109 555 L 110 554 L 111 554 L 112 553 L 113 553 L 114 552 L 114 551 L 116 549 L 116 546 L 117 545 L 117 544 L 116 543 L 116 540 L 111 535 L 109 535 L 108 534 L 105 534 L 104 535 "></path>
        <path fill="none" stroke="#fa00fa" stroke-width="3" d="M 104 260 L 103 261 L 102 261 L 101 262 L 100 262 L 98 264 L 98 265 L 97 266 L 97 267 L 96 268 L 96 273 L 97 274 L 97 275 L 98 276 L 98 277 L 100 279 L 101 279 L 102 280 L 105 280 L 106 281 L 107 281 L 108 280 L 110 280 L 111 279 L 112 279 L 115 276 L 115 275 L 116 274 L 116 266 L 111 261 L 109 261 L 108 260 L 104 260 L 103 261 "></path>
        <path fill="none" stroke="#fa00fa" stroke-width="3" d="M 927 589 L 926 590 L 924 590 L 920 594 L 920 595 L 919 596 L 919 603 L 920 604 L 920 605 L 923 608 L 924 608 L 925 609 L 927 609 L 928 610 L 930 610 L 931 609 L 933 609 L 934 608 L 935 608 L 937 606 L 937 605 L 938 604 L 938 603 L 939 602 L 939 597 L 938 596 L 938 595 L 937 594 L 937 593 L 935 591 L 934 591 L 933 590 L 931 590 L 930 589 L 927 589 L 926 590 "></path>
        <path fill="none" stroke="#fa00fa" stroke-width="3" d="M 928 205 L 927 206 L 925 206 L 924 207 L 923 207 L 920 210 L 920 211 L 919 212 L 919 219 L 920 220 L 920 221 L 924 225 L 926 225 L 927 226 L 930 226 L 931 225 L 933 225 L 934 224 L 935 224 L 937 222 L 937 221 L 938 220 L 938 219 L 939 218 L 939 213 L 938 212 L 938 211 L 937 210 L 937 209 L 935 207 L 934 207 L 933 206 L 931 206 L 930 205 L 928 205 L 927 206 "></path>
        <path fill="none" stroke="#fa00fa" stroke-width="3" d="M 981 426 L 980 427 L 979 427 L 976 430 L 976 431 L 975 432 L 975 438 L 976 439 L 976 440 L 978 442 L 979 442 L 980 443 L 981 443 L 982 444 L 985 444 L 986 443 L 988 443 L 992 439 L 992 437 L 993 436 L 993 434 L 992 433 L 992 431 L 991 430 L 991 429 L 990 428 L 989 428 L 988 427 L 987 427 L 986 426 L 981 426 L 980 427 "></path>
        <path fill="none" stroke="#fa00fa" stroke-width="3" d="M 871 701 L 870 702 L 869 702 L 866 705 L 866 713 L 870 717 L 872 717 L 873 718 L 876 718 L 877 717 L 878 717 L 879 716 L 880 716 L 881 715 L 881 714 L 882 713 L 882 712 L 883 711 L 883 708 L 882 707 L 882 705 L 878 701 L 871 701 L 870 702 "></path>
        <path fill="none" stroke="#fa00fa" stroke-width="3" d="M 873 97 L 872 98 L 870 98 L 866 102 L 866 109 L 867 110 L 867 111 L 869 113 L 870 113 L 871 114 L 878 114 L 882 110 L 882 108 L 883 107 L 883 105 L 882 104 L 882 102 L 878 98 L 876 98 L 875 97 L 873 97 L 872 98 "></path>
        <path fill="none" stroke="#fa00fa" stroke-width="3" d="M 816 756 L 815 757 L 814 757 L 812 759 L 812 760 L 811 761 L 811 767 L 812 768 L 812 769 L 814 771 L 815 771 L 816 772 L 818 772 L 819 773 L 820 773 L 821 772 L 823 772 L 827 768 L 827 767 L 828 766 L 828 763 L 827 762 L 827 760 L 823 756 L 816 756 L 815 757 "></path>
        <path fill="none" stroke="#fa00fa" stroke-width="3" d="M 816 43 L 815 44 L 814 44 L 812 46 L 812 47 L 811 48 L 811 54 L 812 55 L 812 56 L 814 58 L 815 58 L 816 59 L 822 59 L 823 58 L 824 58 L 827 55 L 827 53 L 828 52 L 828 49 L 827 48 L 827 47 L 823 43 L 816 43 L 815 44 "></path>
        <path fill="none" stroke="#fa00fa" stroke-width="3" d="M 982 317 L 981 318 L 980 318 L 979 319 L 978 319 L 977 320 L 977 321 L 976 322 L 976 329 L 980 333 L 987 333 L 988 332 L 989 332 L 991 330 L 991 328 L 992 327 L 992 323 L 991 322 L 991 321 L 988 318 L 987 318 L 986 317 L 982 317 L 981 318 "></path>
        <path fill="none" stroke="#fa00fa" stroke-width="3" d="M 981 482 L 980 483 L 979 483 L 976 486 L 976 493 L 977 494 L 977 495 L 979 497 L 980 497 L 981 498 L 986 498 L 987 497 L 988 497 L 991 494 L 991 493 L 992 492 L 992 488 L 991 487 L 991 486 L 990 485 L 990 484 L 989 483 L 988 483 L 987 482 L 981 482 L 980 483 "></path>
        <path fill="none" stroke="#fa00fa" stroke-width="3" d="M 106 207 L 105 208 L 103 208 L 102 209 L 101 209 L 99 211 L 99 212 L 98 213 L 98 218 L 99 219 L 99 220 L 102 223 L 105 223 L 106 224 L 107 224 L 108 223 L 110 223 L 114 219 L 114 212 L 110 208 L 108 208 L 107 207 L 106 207 L 105 208 "></path>
        <path fill="none" stroke="#fa00fa" stroke-width="3" d="M 927 647 L 926 648 L 925 648 L 922 651 L 922 657 L 923 658 L 923 659 L 925 661 L 927 661 L 928 662 L 931 662 L 932 661 L 933 661 L 936 658 L 936 652 L 935 651 L 935 650 L 933 648 L 932 648 L 931 647 L 927 647 L 926 648 "></path>
        <path fill="none" stroke="#fa00fa" stroke-width="3" d="M 160 702 L 159 703 L 157 703 L 155 705 L 155 706 L 154 707 L 154 711 L 155 712 L 155 713 L 158 716 L 163 716 L 164 715 L 165 715 L 167 713 L 167 711 L 168 710 L 168 708 L 167 707 L 167 706 L 166 705 L 166 704 L 165 704 L 164 703 L 163 703 L 162 702 L 160 702 L 159 703 "></path>
        <path fill="none" stroke="#fa00fa" stroke-width="3" d="M 982 538 L 981 539 L 980 539 L 978 541 L 978 542 L 977 543 L 977 547 L 979 549 L 979 550 L 980 550 L 981 551 L 987 551 L 990 548 L 990 547 L 991 546 L 991 544 L 990 543 L 990 541 L 988 539 L 987 539 L 986 538 L 982 538 L 981 539 "></path>
        <path fill="none" stroke="#fa00fa" stroke-width="3" d="M 159 99 L 158 100 L 157 100 L 155 102 L 155 103 L 154 104 L 154 108 L 156 110 L 156 111 L 157 111 L 158 112 L 164 112 L 167 109 L 167 107 L 168 106 L 168 105 L 167 104 L 167 102 L 165 100 L 164 100 L 163 99 L 159 99 L 158 100 "></path>
        <path fill="none" stroke="#fa00fa" stroke-width="3" d="M 981 264 L 978 267 L 978 268 L 977 269 L 977 271 L 978 272 L 978 274 L 980 276 L 981 276 L 982 277 L 986 277 L 987 276 L 988 276 L 990 274 L 990 272 L 991 271 L 991 269 L 990 268 L 990 267 L 987 264 L 981 264 L 978 267 "></path>
        <path fill="none" stroke="#fa00fa" stroke-width="3" d="M 48 374 L 45 377 L 45 378 L 44 379 L 44 381 L 45 382 L 45 383 L 48 386 L 54 386 L 57 383 L 57 381 L 58 380 L 57 379 L 57 377 L 54 374 L 48 374 L 45 377 "></path>
        <path fill="none" stroke="#fa00fa" stroke-width="3" d="M 51 428 L 50 429 L 48 429 L 45 432 L 45 434 L 44 435 L 45 436 L 45 438 L 48 441 L 54 441 L 57 438 L 57 432 L 54 429 L 53 429 L 52 428 L 51 428 L 50 429 "></path>
        <path fill="none" stroke="#fa00fa" stroke-width="3" d="M 49 484 L 46 487 L 46 488 L 45 489 L 45 492 L 48 495 L 49 495 L 50 496 L 52 496 L 53 495 L 54 495 L 56 493 L 56 492 L 57 491 L 57 488 L 56 487 L 56 486 L 55 485 L 54 485 L 53 484 L 49 484 L 46 487 "></path>
        <path fill="none" stroke="#fa00fa" stroke-width="3" d="M 50 319 L 49 320 L 48 320 L 45 323 L 45 327 L 46 328 L 46 329 L 47 330 L 48 330 L 49 331 L 53 331 L 56 328 L 56 327 L 57 326 L 57 324 L 56 323 L 56 322 L 54 320 L 53 320 L 52 319 L 50 319 L 49 320 "></path>
        <path fill="none" stroke="#fa00fa" stroke-width="3" d="M 104 649 L 103 650 L 102 650 L 102 651 L 101 652 L 101 657 L 102 658 L 102 659 L 103 659 L 104 660 L 108 660 L 110 658 L 110 657 L 111 656 L 111 653 L 110 652 L 110 651 L 108 649 L 104 649 L 103 650 "></path>
        <path fill="none" stroke="#fa00fa" stroke-width="3" d="M 984 210 L 983 211 L 981 211 L 980 212 L 980 213 L 979 214 L 979 217 L 980 218 L 980 219 L 981 219 L 982 220 L 986 220 L 987 219 L 988 219 L 988 218 L 989 217 L 989 214 L 988 213 L 988 212 L 987 211 L 986 211 L 985 210 L 984 210 L 983 211 "></path>
        <path fill="none" stroke="#fa00fa" stroke-width="3" d="M 982 595 L 980 597 L 980 598 L 979 599 L 979 600 L 980 601 L 980 603 L 981 604 L 982 604 L 983 605 L 985 605 L 986 604 L 987 604 L 989 602 L 989 598 L 988 597 L 988 596 L 987 596 L 986 595 L 982 595 L 980 597 "></path>
        <path fill="none" stroke="#fa00fa" stroke-width="3" d="M 49 540 L 46 543 L 46 547 L 48 549 L 49 549 L 50 550 L 51 550 L 52 549 L 53 549 L 55 547 L 55 546 L 56 545 L 56 543 L 53 540 L 49 540 L 46 543 "></path>
        <path fill="none" stroke="#fa00fa" stroke-width="3" d="M 872 760 L 870 762 L 870 767 L 872 769 L 877 769 L 878 768 L 878 767 L 879 766 L 879 762 L 877 760 L 872 760 L 870 762 "></path>
        <path fill="none" stroke="#fa00fa" stroke-width="3" d="M 873 46 L 872 47 L 871 47 L 870 48 L 870 53 L 872 55 L 877 55 L 879 53 L 879 48 L 878 47 L 877 47 L 876 46 L 873 46 L 872 47 "></path>
        <path fill="none" stroke="#fa00fa" stroke-width="3" d="M 928 705 L 927 706 L 926 706 L 925 707 L 925 712 L 927 714 L 931 714 L 932 713 L 933 713 L 933 712 L 934 711 L 934 708 L 931 705 L 928 705 L 927 706 "></path>
        <path fill="none" stroke="#fa00fa" stroke-width="3" d="M 159 46 L 156 49 L 156 52 L 159 55 L 162 55 L 165 52 L 165 49 L 162 46 L 159 46 L 156 49 "></path>
        <path fill="none" stroke="#fa00fa" stroke-width="3" d="M 159 760 L 157 762 L 157 763 L 156 764 L 156 765 L 157 766 L 157 767 L 158 768 L 159 768 L 160 769 L 162 769 L 165 766 L 165 763 L 164 762 L 164 761 L 163 761 L 162 760 L 159 760 L 157 762 "></path>
        <path fill="none" stroke="#fa00fa" stroke-width="3" d="M 105 705 L 104 706 L 103 706 L 102 707 L 102 708 L 101 709 L 101 710 L 102 711 L 102 712 L 103 713 L 104 713 L 105 714 L 107 714 L 110 711 L 110 709 L 109 708 L 109 707 L 108 706 L 107 706 L 106 705 L 105 705 L 104 706 "></path>
        <path fill="none" stroke="#fa00fa" stroke-width="3" d="M 104 101 L 102 103 L 102 104 L 101 105 L 101 106 L 102 107 L 102 108 L 103 109 L 108 109 L 109 108 L 109 107 L 110 106 L 110 104 L 107 101 L 104 101 L 102 103 "></path>
        <path fill="none" stroke="#fa00fa" stroke-width="3" d="M 983 156 L 980 159 L 980 162 L 982 164 L 983 164 L 984 165 L 985 164 L 987 164 L 988 163 L 988 158 L 987 157 L 986 157 L 985 156 L 983 156 L 980 159 "></path>
        <path fill="none" stroke="#fa00fa" stroke-width="3" d="M 982 651 L 980 653 L 980 656 L 983 659 L 985 659 L 986 658 L 987 658 L 988 657 L 988 652 L 987 651 L 982 651 L 980 653 "></path>
        <path fill="none" stroke="#fa00fa" stroke-width="3" d="M 927 47 L 926 48 L 926 53 L 927 54 L 932 54 L 933 53 L 933 48 L 932 47 L 927 47 L 926 48 "></path>
        <path fill="none" stroke="#fa00fa" stroke-width="3" d="M 48 157 L 48 158 L 47 159 L 47 162 L 49 164 L 53 164 L 54 163 L 54 161 L 55 160 L 54 159 L 54 158 L 53 157 L 48 157 L 48 158 "></path>
        <path fill="none" stroke="#fa00fa" stroke-width="3" d="M 49 651 L 47 653 L 47 657 L 48 658 L 53 658 L 54 657 L 54 652 L 53 652 L 52 651 L 49 651 L 47 653 "></path>
        <path fill="none" stroke="#fa00fa" stroke-width="3" d="M 982 706 L 981 707 L 981 712 L 982 713 L 986 713 L 988 711 L 988 708 L 986 706 L 982 706 L 981 707 "></path>
        <path fill="none" stroke="#fa00fa" stroke-width="3" d="M 982 102 L 981 103 L 981 108 L 982 108 L 983 109 L 986 109 L 988 107 L 988 104 L 986 102 L 982 102 L 981 103 "></path>
        <path fill="none" stroke="#fa00fa" stroke-width="3" d="M 104 47 L 102 49 L 102 52 L 104 54 L 107 54 L 109 52 L 109 49 L 107 47 L 104 47 L 102 49 "></path>
        <path fill="none" stroke="#fa00fa" stroke-width="3" d="M 49 706 L 47 708 L 47 711 L 49 713 L 52 713 L 54 711 L 54 708 L 52 706 L 49 706 L 47 708 "></path>
        <path fill="none" stroke="#fa00fa" stroke-width="3" d="M 104 761 L 102 763 L 102 766 L 104 768 L 107 768 L 109 766 L 109 763 L 107 761 L 104 761 L 102 763 "></path>
        <path fill="none" stroke="#fa00fa" stroke-width="3" d="M 983 761 L 981 763 L 981 766 L 983 768 L 986 768 L 988 766 L 988 763 L 986 761 L 983 761 L 981 763 "></path>
        <path fill="none" stroke="#fa00fa" stroke-width="3" d="M 983 47 L 981 49 L 981 52 L 982 53 L 983 53 L 984 54 L 985 54 L 986 53 L 987 53 L 988 52 L 988 49 L 986 47 L 983 47 L 981 49 "></path>
        <path fill="none" stroke="#fa00fa" stroke-width="3" d="M 50 761 L 49 762 L 48 762 L 47 763 L 47 766 L 49 768 L 52 768 L 54 766 L 54 764 L 53 763 L 53 762 L 52 762 L 51 761 L 50 761 L 49 762 "></path>
        <path fill="none" stroke="#fa00fa" stroke-width="3" d="M 49 47 L 48 48 L 48 49 L 47 50 L 47 51 L 48 52 L 48 53 L 49 53 L 50 54 L 51 54 L 52 53 L 53 53 L 54 52 L 54 49 L 52 47 L 49 47 L 48 48 "></path>
    </g>
</svg>
