<svg xmlns="http://www.w3.org/2000/svg" xmlns:xlink="http://www.w3.org/1999/xlink" version="1.1" x="0" y="0" width="1056px" height="816px">
    <g id="rootLayer" transform="translate(0.000000, 0.000000)">
        <path fill="none" stroke="#00fafa" stroke-width="3" d="M 538 344 L 539 343 L 540 344 L 542 344 L 543 343 L 544 344 L 546 344 L 547 343 L 548 344 L 550 344 L 551 343 L 552 344 L 554 344 L 555 343 L 556 344 L 558 344 L 559 343 L 560 343 L 561 344 L 562 344 L 563 343 L 564 343 L 565 344 L 566 344 L 567 343 L 568 344 L 571 344 L 572 345 L 572 347 L 571 348 L 569 348 L 568 349 L 556 349 L 555 350 L 554 350 L 553 349 L 552 350 L 543 350 L 542 349 L 534 349 L 533 348 L 534 347 L 534 346 L 533 345 L 534 344 "></path>
        <path fill="none" stroke="#00fafa" stroke-width="3" d="M 586 436 L 587 435 L 589 435 L 590 436 L 591 435 L 592 435 L 593 436 L 594 436 L 595 435 L 596 436 L 598 436 L 599 435 L 600 436 L 604 436 L 605 437 L 604 438 L 604 439 L 606 439 L 606 437 L 607 436 L 608 436 L 609 437 L 608 438 L 608 439 L 610 439 L 611 438 L 612 439 L 612 442 L 611 443 L 610 442 L 608 442 L 607 443 L 606 443 L 605 442 L 603 442 L 602 441 L 601 441 L 599 443 L 596 443 L 595 444 L 594 443 L 592 443 L 591 444 L 590 443 L 588 443 L 587 444 L 586 443 L 584 443 L 583 444 L 582 444 L 581 443 L 580 444 L 579 444 L 578 443 L 578 442 L 576 442 L 575 443 L 573 441 L 573 440 L 574 439 L 580 439 L 581 440 L 583 438 L 586 438 L 584 438 L 583 437 L 584 436 "></path>
        <path fill="none" stroke="#00fafa" stroke-width="3" d="M 590 467 L 591 466 L 593 468 L 595 466 L 597 468 L 599 466 L 601 468 L 602 468 L 603 467 L 604 467 L 605 468 L 606 468 L 607 467 L 608 467 L 609 468 L 610 468 L 611 467 L 612 468 L 612 470 L 611 471 L 610 470 L 608 470 L 607 471 L 606 470 L 604 470 L 603 471 L 602 470 L 600 470 L 599 471 L 598 471 L 597 470 L 596 471 L 594 471 L 593 470 L 591 470 L 590 469 "></path>
        <path fill="none" stroke="#00fafa" stroke-width="3" d="M 603 499 L 604 500 L 606 500 L 607 499 L 608 500 L 610 500 L 611 499 L 613 501 L 613 502 L 611 504 L 610 503 L 608 503 L 607 504 L 606 503 L 604 503 L 603 504 L 602 503 L 602 502 L 601 501 "></path>
    </g>
</svg>
