<svg xmlns="http://www.w3.org/2000/svg" xmlns:xlink="http://www.w3.org/1999/xlink" version="1.1" x="0" y="0" width="1056px" height="816px">
    <g id="rootLayer" transform="translate(0.000000, 0.000000)">
        <path fill="none" stroke="#fa00fa" stroke-width="3" d="M 556 532 L 555 533 L 552 533 L 551 534 L 550 534 L 549 535 L 548 535 L 544 539 L 544 542 L 543 543 L 543 552 L 544 553 L 544 555 L 547 558 L 548 558 L 549 559 L 549 560 L 552 563 L 552 564 L 549 567 L 545 567 L 544 568 L 541 568 L 540 569 L 538 569 L 536 571 L 536 572 L 535 573 L 535 574 L 534 575 L 534 576 L 532 578 L 532 582 L 531 583 L 531 584 L 527 588 L 526 588 L 524 590 L 522 590 L 519 593 L 519 594 L 518 595 L 518 597 L 517 598 L 517 604 L 518 605 L 518 607 L 520 609 L 520 610 L 521 611 L 521 613 L 522 614 L 523 614 L 525 616 L 525 620 L 521 624 L 521 626 L 520 627 L 520 629 L 516 633 L 516 634 L 515 635 L 514 635 L 513 636 L 513 637 L 512 638 L 512 643 L 511 644 L 511 649 L 512 650 L 512 651 L 513 652 L 513 653 L 514 654 L 515 654 L 516 655 L 517 655 L 518 656 L 525 656 L 526 657 L 527 656 L 535 656 L 536 655 L 538 655 L 541 652 L 541 650 L 542 649 L 542 646 L 545 643 L 546 643 L 547 642 L 547 641 L 548 640 L 548 639 L 549 638 L 549 636 L 551 634 L 555 634 L 556 635 L 559 635 L 560 636 L 561 635 L 562 636 L 563 635 L 567 635 L 568 634 L 570 634 L 571 633 L 573 633 L 574 634 L 575 633 L 576 633 L 577 634 L 579 634 L 580 633 L 581 634 L 582 634 L 583 633 L 586 633 L 587 632 L 588 632 L 589 631 L 590 631 L 591 630 L 591 629 L 592 628 L 592 626 L 593 625 L 593 615 L 592 614 L 592 611 L 591 610 L 591 609 L 590 608 L 589 608 L 587 606 L 587 605 L 586 604 L 586 601 L 585 600 L 585 593 L 584 592 L 584 590 L 583 589 L 583 588 L 582 587 L 582 586 L 581 585 L 581 578 L 580 577 L 580 573 L 579 572 L 579 571 L 578 570 L 578 569 L 577 568 L 577 567 L 576 566 L 576 562 L 577 561 L 577 552 L 570 545 L 570 544 L 569 543 L 569 542 L 566 539 L 566 538 L 564 536 L 564 535 L 563 534 L 562 534 L 561 533 L 558 533 L 557 532 L 556 532 L 555 533 "></path>
        <path fill="none" stroke="#fa00fa" stroke-width="3" d="M 564 272 L 563 273 L 562 273 L 561 274 L 560 274 L 559 275 L 558 275 L 557 276 L 557 277 L 556 278 L 556 281 L 555 282 L 555 289 L 553 291 L 553 292 L 552 293 L 552 294 L 550 296 L 550 299 L 549 300 L 549 302 L 548 303 L 548 305 L 547 306 L 547 309 L 546 310 L 547 311 L 547 314 L 548 315 L 548 320 L 547 321 L 546 320 L 545 321 L 538 321 L 537 322 L 534 322 L 532 324 L 529 324 L 525 320 L 524 320 L 523 319 L 522 319 L 521 318 L 519 318 L 518 317 L 514 317 L 513 318 L 510 318 L 509 319 L 508 319 L 505 322 L 504 322 L 498 328 L 498 330 L 497 331 L 497 338 L 498 339 L 498 340 L 499 341 L 499 347 L 500 348 L 500 349 L 501 350 L 501 351 L 503 351 L 504 352 L 509 352 L 510 353 L 511 352 L 516 352 L 517 351 L 518 352 L 520 350 L 521 350 L 522 351 L 523 351 L 529 357 L 530 357 L 531 358 L 533 358 L 534 359 L 535 359 L 536 358 L 537 359 L 538 359 L 539 358 L 540 358 L 541 357 L 542 357 L 544 355 L 546 355 L 548 353 L 550 353 L 551 354 L 552 354 L 554 356 L 556 356 L 557 357 L 560 357 L 561 358 L 562 358 L 563 357 L 566 357 L 567 356 L 568 356 L 569 355 L 570 355 L 571 354 L 571 353 L 577 347 L 577 346 L 578 345 L 578 344 L 579 343 L 579 338 L 580 337 L 580 335 L 583 332 L 583 331 L 587 327 L 587 325 L 588 324 L 588 320 L 589 319 L 589 317 L 590 316 L 590 315 L 589 314 L 589 313 L 588 312 L 588 309 L 587 308 L 587 307 L 586 307 L 585 306 L 584 306 L 582 304 L 582 303 L 581 302 L 581 300 L 580 299 L 580 290 L 581 289 L 581 287 L 580 286 L 580 278 L 579 277 L 579 276 L 578 275 L 577 275 L 575 273 L 573 273 L 572 272 L 564 272 L 563 273 "></path>
        <path fill="none" stroke="#fa00fa" stroke-width="3" d="M 621 298 L 620 299 L 618 299 L 617 300 L 616 300 L 612 304 L 612 305 L 609 308 L 609 311 L 608 312 L 608 316 L 609 317 L 609 319 L 610 320 L 610 321 L 611 322 L 611 326 L 609 328 L 609 329 L 607 331 L 606 331 L 606 332 L 603 335 L 603 338 L 602 339 L 602 344 L 603 345 L 603 348 L 605 350 L 605 351 L 606 352 L 607 352 L 611 356 L 613 356 L 614 357 L 623 357 L 624 356 L 626 356 L 626 355 L 629 352 L 630 352 L 630 351 L 631 350 L 631 349 L 632 348 L 632 347 L 633 346 L 633 340 L 632 339 L 632 335 L 631 334 L 631 331 L 634 328 L 634 327 L 637 324 L 637 323 L 638 322 L 638 321 L 637 320 L 637 318 L 638 317 L 638 316 L 639 315 L 639 309 L 630 300 L 629 300 L 628 299 L 626 299 L 625 298 L 621 298 L 620 299 "></path>
        <path fill="none" stroke="#fa00fa" stroke-width="3" d="M 485 598 L 484 599 L 482 599 L 481 600 L 480 600 L 477 603 L 477 604 L 475 606 L 475 607 L 474 608 L 474 611 L 473 612 L 473 613 L 472 614 L 470 614 L 469 615 L 468 615 L 465 618 L 465 619 L 464 620 L 463 620 L 461 622 L 461 630 L 462 631 L 462 638 L 464 640 L 465 640 L 466 641 L 468 641 L 469 642 L 472 642 L 473 643 L 474 643 L 475 642 L 476 642 L 477 643 L 479 643 L 480 642 L 481 643 L 482 643 L 484 641 L 486 641 L 490 637 L 490 634 L 491 633 L 491 631 L 492 630 L 492 629 L 494 627 L 495 627 L 496 626 L 498 626 L 502 622 L 502 616 L 503 615 L 503 609 L 502 608 L 502 607 L 499 604 L 499 603 L 497 601 L 496 601 L 494 599 L 492 599 L 491 598 L 485 598 L 484 599 "></path>
        <path fill="none" stroke="#fa00fa" stroke-width="3" d="M 605 412 L 604 413 L 602 413 L 601 414 L 600 414 L 600 415 L 590 425 L 590 426 L 587 429 L 587 440 L 588 441 L 588 443 L 593 448 L 594 448 L 596 450 L 599 450 L 600 451 L 606 451 L 607 450 L 608 450 L 609 449 L 610 449 L 612 447 L 613 447 L 616 444 L 617 444 L 618 443 L 619 443 L 621 441 L 622 441 L 625 438 L 625 437 L 626 436 L 626 435 L 625 434 L 626 433 L 626 428 L 625 427 L 625 425 L 626 424 L 626 419 L 624 417 L 624 416 L 623 415 L 622 415 L 621 414 L 619 414 L 618 413 L 615 413 L 614 412 L 613 413 L 611 413 L 610 412 L 605 412 L 604 413 "></path>
        <path fill="none" stroke="#fa00fa" stroke-width="3" d="M 990 349 L 989 350 L 986 350 L 984 352 L 982 352 L 980 354 L 980 355 L 978 357 L 978 358 L 977 359 L 977 360 L 976 361 L 974 361 L 972 359 L 972 358 L 971 357 L 971 356 L 969 354 L 968 354 L 967 353 L 964 353 L 963 352 L 956 352 L 955 353 L 953 353 L 952 354 L 951 354 L 949 356 L 949 357 L 948 358 L 948 359 L 947 360 L 947 361 L 946 362 L 946 363 L 947 364 L 947 365 L 948 366 L 948 367 L 950 369 L 951 369 L 953 371 L 955 371 L 956 372 L 964 372 L 965 371 L 967 371 L 969 369 L 970 369 L 973 366 L 973 365 L 974 364 L 975 364 L 978 367 L 979 367 L 980 368 L 980 369 L 981 369 L 982 370 L 984 370 L 985 371 L 992 371 L 993 370 L 996 370 L 997 369 L 999 369 L 999 368 L 1001 366 L 1001 365 L 1002 364 L 1002 363 L 1001 362 L 1001 355 L 999 353 L 999 352 L 998 351 L 997 351 L 996 350 L 995 350 L 994 349 L 990 349 L 989 350 "></path>
        <path fill="none" stroke="#fa00fa" stroke-width="3" d="M 1 134 L 1 165 L 2 166 L 3 166 L 4 165 L 5 165 L 6 164 L 7 164 L 8 163 L 8 162 L 11 159 L 11 157 L 12 156 L 12 154 L 15 151 L 16 151 L 17 152 L 17 153 L 20 156 L 20 157 L 21 158 L 21 160 L 22 161 L 24 161 L 26 163 L 34 163 L 36 161 L 37 161 L 38 160 L 39 160 L 39 159 L 44 154 L 44 148 L 43 147 L 43 146 L 41 144 L 40 144 L 39 143 L 39 142 L 35 138 L 33 138 L 32 137 L 27 137 L 26 138 L 25 138 L 24 139 L 23 139 L 20 142 L 20 143 L 17 146 L 17 148 L 16 149 L 12 145 L 12 144 L 10 142 L 10 141 L 9 140 L 9 139 L 8 138 L 8 137 L 6 135 L 5 135 L 4 134 L 1 134 L 1 165 "></path>
        <path fill="none" stroke="#fa00fa" stroke-width="3" d="M 1052 257 L 1051 258 L 1049 258 L 1048 259 L 1047 259 L 1046 260 L 1045 260 L 1044 261 L 1042 261 L 1038 265 L 1038 266 L 1037 267 L 1037 268 L 1036 269 L 1036 272 L 1037 273 L 1037 274 L 1038 275 L 1038 276 L 1042 280 L 1043 280 L 1044 281 L 1045 281 L 1046 282 L 1047 282 L 1049 284 L 1049 285 L 1047 287 L 1046 287 L 1044 289 L 1043 289 L 1037 295 L 1037 296 L 1036 297 L 1036 301 L 1037 302 L 1037 303 L 1038 304 L 1038 305 L 1039 306 L 1039 307 L 1040 308 L 1040 309 L 1041 309 L 1043 311 L 1044 311 L 1046 313 L 1047 313 L 1048 314 L 1049 314 L 1050 315 L 1053 315 L 1054 314 L 1054 258 L 1053 257 L 1052 257 L 1051 258 "></path>
        <path fill="none" stroke="#fa00fa" stroke-width="3" d="M 502 453 L 501 454 L 500 454 L 499 455 L 498 455 L 498 456 L 496 458 L 496 463 L 495 464 L 495 471 L 496 472 L 496 474 L 497 475 L 497 477 L 502 482 L 504 482 L 505 483 L 515 483 L 516 482 L 518 482 L 520 480 L 520 479 L 522 477 L 522 474 L 523 473 L 523 470 L 524 469 L 524 465 L 525 464 L 525 461 L 524 460 L 524 458 L 523 457 L 523 456 L 521 456 L 519 454 L 515 454 L 514 453 L 513 454 L 507 454 L 506 453 L 504 453 L 503 454 L 502 453 L 501 454 "></path>
        <path fill="none" stroke="#fa00fa" stroke-width="3" d="M 486 383 L 485 384 L 482 384 L 481 385 L 480 385 L 479 386 L 478 386 L 474 390 L 474 391 L 472 393 L 472 398 L 473 399 L 473 400 L 472 401 L 472 404 L 473 405 L 473 408 L 474 409 L 474 410 L 475 411 L 476 411 L 478 413 L 481 413 L 482 414 L 483 413 L 495 413 L 496 412 L 497 412 L 500 409 L 500 407 L 501 406 L 501 401 L 500 400 L 501 399 L 501 393 L 500 392 L 500 390 L 497 387 L 496 387 L 494 385 L 493 385 L 492 384 L 489 384 L 488 383 L 486 383 L 485 384 "></path>
        <path fill="none" stroke="#fa00fa" stroke-width="3" d="M 2 194 L 1 195 L 1 225 L 2 226 L 3 226 L 4 225 L 6 225 L 7 224 L 7 223 L 8 222 L 8 221 L 9 220 L 9 219 L 11 217 L 11 216 L 13 214 L 16 214 L 17 215 L 17 216 L 18 216 L 19 217 L 20 217 L 21 218 L 36 218 L 37 219 L 38 219 L 39 218 L 40 218 L 41 217 L 42 217 L 43 216 L 43 215 L 44 214 L 44 207 L 42 205 L 41 205 L 39 203 L 37 203 L 36 202 L 35 202 L 34 201 L 33 201 L 32 202 L 26 202 L 24 204 L 23 204 L 21 206 L 20 206 L 19 207 L 15 207 L 12 204 L 12 203 L 11 202 L 11 201 L 10 200 L 10 199 L 7 196 L 6 196 L 5 195 L 3 195 L 2 194 L 1 195 "></path>
        <path fill="none" stroke="#fa00fa" stroke-width="3" d="M 428 1 L 428 3 L 431 6 L 432 6 L 434 8 L 435 8 L 436 9 L 437 9 L 439 11 L 440 11 L 441 12 L 443 12 L 444 13 L 450 13 L 451 12 L 456 12 L 457 11 L 459 11 L 460 10 L 462 10 L 463 9 L 466 9 L 467 10 L 468 10 L 469 11 L 472 11 L 473 12 L 477 12 L 478 13 L 479 12 L 481 12 L 482 13 L 483 12 L 487 12 L 488 11 L 491 11 L 492 10 L 494 10 L 496 8 L 497 8 L 502 3 L 502 1 L 428 1 L 428 3 "></path>
        <path fill="none" stroke="#fa00fa" stroke-width="3" d="M 564 450 L 563 451 L 561 451 L 560 452 L 557 452 L 555 454 L 554 454 L 552 456 L 552 460 L 551 461 L 551 463 L 552 464 L 552 466 L 551 467 L 551 470 L 555 474 L 556 474 L 558 476 L 560 476 L 561 477 L 563 477 L 564 478 L 570 478 L 571 477 L 572 477 L 573 476 L 575 476 L 576 475 L 577 475 L 581 471 L 581 470 L 582 469 L 582 467 L 581 466 L 581 461 L 580 460 L 580 459 L 579 458 L 579 456 L 577 454 L 576 454 L 573 451 L 572 451 L 571 450 L 564 450 L 563 451 "></path>
        <path fill="none" stroke="#fa00fa" stroke-width="3" d="M 985 799 L 984 800 L 982 800 L 980 802 L 980 804 L 979 805 L 979 809 L 981 811 L 981 812 L 982 813 L 984 813 L 985 814 L 986 814 L 987 813 L 989 813 L 990 814 L 991 813 L 992 813 L 993 814 L 994 814 L 995 813 L 1001 813 L 1002 814 L 1004 812 L 1005 812 L 1006 813 L 1008 813 L 1009 814 L 1031 814 L 1032 813 L 1033 813 L 1034 812 L 1034 811 L 1035 810 L 1035 807 L 1034 806 L 1034 805 L 1032 803 L 1031 803 L 1030 802 L 1024 802 L 1023 801 L 1014 801 L 1013 802 L 1012 802 L 1011 803 L 1010 803 L 1007 806 L 1004 806 L 1001 803 L 1001 802 L 999 800 L 998 800 L 997 799 L 985 799 L 984 800 "></path>
        <path fill="none" stroke="#fa00fa" stroke-width="3" d="M 701 1 L 700 2 L 701 3 L 701 5 L 703 7 L 704 7 L 706 9 L 709 9 L 710 10 L 712 10 L 713 11 L 716 11 L 717 12 L 723 12 L 724 11 L 726 11 L 727 10 L 728 10 L 729 9 L 730 9 L 731 8 L 737 8 L 738 9 L 740 9 L 741 10 L 743 10 L 744 11 L 745 11 L 746 12 L 756 12 L 757 11 L 758 11 L 759 10 L 760 10 L 761 9 L 762 9 L 765 6 L 765 5 L 766 4 L 766 1 L 701 1 L 700 2 "></path>
        <path fill="none" stroke="#fa00fa" stroke-width="3" d="M 2 434 L 1 435 L 1 492 L 2 493 L 4 493 L 5 492 L 6 492 L 10 488 L 10 485 L 11 484 L 11 483 L 12 482 L 12 476 L 11 475 L 11 472 L 10 471 L 10 470 L 8 468 L 8 467 L 7 467 L 6 466 L 6 463 L 8 461 L 8 460 L 10 458 L 10 457 L 13 454 L 13 447 L 12 446 L 12 442 L 11 441 L 11 440 L 6 435 L 5 435 L 4 434 L 2 434 L 1 435 "></path>
        <path fill="none" stroke="#fa00fa" stroke-width="3" d="M 1014 229 L 1011 232 L 1010 232 L 1010 233 L 1009 234 L 1009 235 L 1008 236 L 1008 239 L 1007 240 L 1007 242 L 1009 244 L 1009 245 L 1010 246 L 1011 246 L 1014 249 L 1014 250 L 1015 250 L 1017 252 L 1020 252 L 1021 253 L 1023 253 L 1024 252 L 1026 252 L 1032 246 L 1032 244 L 1033 243 L 1033 242 L 1034 241 L 1034 239 L 1035 238 L 1035 234 L 1031 230 L 1029 230 L 1028 229 L 1025 229 L 1024 230 L 1023 229 L 1014 229 L 1011 232 "></path>
        <path fill="none" stroke="#fa00fa" stroke-width="3" d="M 87 18 L 86 19 L 85 19 L 82 22 L 82 23 L 81 24 L 81 25 L 80 26 L 80 27 L 78 29 L 78 30 L 77 31 L 77 32 L 76 33 L 76 34 L 77 35 L 77 37 L 78 38 L 78 39 L 79 40 L 80 40 L 82 42 L 84 42 L 85 43 L 94 43 L 95 42 L 96 42 L 100 38 L 100 37 L 103 34 L 103 32 L 102 31 L 102 28 L 101 27 L 101 23 L 98 20 L 96 20 L 95 19 L 93 19 L 92 18 L 87 18 L 86 19 "></path>
        <path fill="none" stroke="#fa00fa" stroke-width="3" d="M 6 1 L 6 3 L 10 7 L 11 7 L 14 10 L 15 10 L 16 11 L 17 11 L 20 14 L 21 14 L 22 15 L 23 15 L 24 16 L 34 16 L 35 15 L 36 15 L 37 14 L 38 14 L 40 12 L 41 12 L 42 11 L 43 11 L 44 10 L 45 10 L 46 9 L 47 9 L 48 8 L 49 8 L 51 6 L 52 6 L 54 4 L 54 1 L 6 1 L 6 3 "></path>
        <path fill="none" stroke="#fa00fa" stroke-width="3" d="M 56 18 L 55 19 L 54 19 L 51 22 L 50 22 L 50 23 L 48 25 L 48 32 L 49 33 L 49 35 L 50 36 L 50 38 L 52 40 L 52 41 L 53 42 L 55 42 L 56 43 L 59 43 L 60 42 L 62 42 L 63 41 L 64 41 L 65 40 L 68 40 L 69 39 L 70 39 L 72 37 L 72 36 L 74 34 L 74 30 L 73 29 L 73 28 L 72 27 L 72 26 L 71 25 L 71 24 L 70 23 L 69 23 L 66 20 L 65 20 L 64 19 L 62 19 L 61 18 L 56 18 L 55 19 "></path>
        <path fill="none" stroke="#fa00fa" stroke-width="3" d="M 29 618 L 28 619 L 26 619 L 25 620 L 24 620 L 23 621 L 22 621 L 20 623 L 20 624 L 18 626 L 18 629 L 17 630 L 18 631 L 18 633 L 19 634 L 19 635 L 20 636 L 20 638 L 22 640 L 23 640 L 24 641 L 25 641 L 26 642 L 29 642 L 30 643 L 31 643 L 32 642 L 35 642 L 37 640 L 38 640 L 38 639 L 39 638 L 39 637 L 40 636 L 40 635 L 43 632 L 43 631 L 44 630 L 44 625 L 43 624 L 43 623 L 41 623 L 39 621 L 39 620 L 38 620 L 37 619 L 35 619 L 34 618 L 29 618 L 28 619 "></path>
        <path fill="none" stroke="#fa00fa" stroke-width="3" d="M 986 528 L 985 529 L 984 529 L 978 535 L 978 536 L 977 537 L 976 537 L 976 543 L 980 547 L 981 547 L 984 550 L 985 550 L 986 551 L 989 551 L 990 552 L 991 552 L 992 551 L 994 551 L 995 550 L 996 550 L 997 549 L 998 549 L 1004 543 L 1004 542 L 1005 541 L 1005 538 L 1002 535 L 1002 534 L 1001 534 L 998 531 L 997 531 L 996 530 L 995 530 L 994 529 L 991 529 L 990 528 L 986 528 L 985 529 "></path>
        <path fill="none" stroke="#fa00fa" stroke-width="3" d="M 957 46 L 956 47 L 954 47 L 953 48 L 952 48 L 949 51 L 949 52 L 948 53 L 948 55 L 947 56 L 947 57 L 948 58 L 948 62 L 949 63 L 949 65 L 952 68 L 953 68 L 954 69 L 955 69 L 956 70 L 965 70 L 966 69 L 967 69 L 970 66 L 970 64 L 971 63 L 971 61 L 972 60 L 972 59 L 973 58 L 973 55 L 972 54 L 972 53 L 970 51 L 969 51 L 968 50 L 968 49 L 967 49 L 966 48 L 965 48 L 964 47 L 963 47 L 962 46 L 957 46 L 956 47 "></path>
        <path fill="none" stroke="#fa00fa" stroke-width="3" d="M 956 78 L 955 79 L 953 79 L 950 82 L 950 84 L 949 85 L 949 89 L 948 90 L 948 91 L 947 92 L 947 95 L 948 96 L 948 97 L 949 98 L 949 99 L 950 100 L 951 100 L 953 102 L 963 102 L 964 101 L 966 101 L 970 97 L 970 96 L 971 95 L 971 91 L 970 90 L 970 82 L 966 78 L 956 78 L 955 79 "></path>
        <path fill="none" stroke="#fa00fa" stroke-width="3" d="M 926 19 L 925 20 L 922 20 L 918 24 L 918 30 L 919 31 L 919 34 L 920 35 L 920 37 L 921 38 L 921 39 L 922 39 L 923 40 L 924 40 L 925 41 L 935 41 L 936 40 L 938 40 L 941 37 L 941 35 L 942 34 L 942 30 L 943 29 L 943 24 L 942 23 L 942 21 L 940 19 L 933 19 L 932 20 L 931 20 L 930 19 L 929 20 L 927 20 L 926 19 L 925 20 "></path>
        <path fill="none" stroke="#fa00fa" stroke-width="3" d="M 177 48 L 176 49 L 174 49 L 173 50 L 172 50 L 169 53 L 169 54 L 168 55 L 168 56 L 167 57 L 167 63 L 168 64 L 168 67 L 170 69 L 171 69 L 172 70 L 173 70 L 174 71 L 176 71 L 177 72 L 180 72 L 181 71 L 182 71 L 183 70 L 184 70 L 188 66 L 190 66 L 192 64 L 192 58 L 191 57 L 191 54 L 190 53 L 190 52 L 187 49 L 185 49 L 184 48 L 177 48 L 176 49 "></path>
        <path fill="none" stroke="#fa00fa" stroke-width="3" d="M 25 289 L 24 290 L 22 290 L 20 292 L 20 293 L 18 295 L 18 297 L 17 298 L 17 303 L 18 304 L 18 306 L 20 308 L 21 308 L 22 309 L 23 309 L 24 310 L 25 310 L 26 311 L 29 311 L 30 312 L 31 312 L 32 311 L 35 311 L 36 310 L 38 310 L 42 306 L 42 296 L 41 295 L 41 294 L 40 293 L 40 292 L 39 291 L 37 291 L 36 290 L 31 290 L 30 289 L 25 289 L 24 290 "></path>
        <path fill="none" stroke="#fa00fa" stroke-width="3" d="M 118 617 L 117 618 L 116 618 L 115 619 L 114 619 L 112 621 L 112 622 L 111 623 L 111 624 L 110 625 L 110 627 L 108 629 L 108 630 L 107 631 L 107 634 L 108 635 L 108 636 L 110 638 L 113 638 L 114 639 L 116 639 L 117 640 L 118 640 L 119 641 L 125 641 L 129 637 L 130 637 L 132 635 L 132 634 L 133 633 L 133 629 L 132 628 L 132 627 L 131 626 L 131 624 L 129 622 L 129 621 L 126 618 L 124 618 L 123 617 L 118 617 L 117 618 "></path>
        <path fill="none" stroke="#fa00fa" stroke-width="3" d="M 837 49 L 836 50 L 833 50 L 831 52 L 830 52 L 830 53 L 828 55 L 828 61 L 829 62 L 829 64 L 830 65 L 830 66 L 831 66 L 832 67 L 832 68 L 833 69 L 833 70 L 834 71 L 835 71 L 836 72 L 837 72 L 838 73 L 843 73 L 845 71 L 846 71 L 847 70 L 847 69 L 848 68 L 849 68 L 851 66 L 851 65 L 852 64 L 852 55 L 851 54 L 851 53 L 849 51 L 848 51 L 846 49 L 837 49 L 836 50 "></path>
        <path fill="none" stroke="#fa00fa" stroke-width="3" d="M 986 258 L 984 260 L 983 260 L 980 263 L 980 264 L 978 266 L 978 270 L 977 271 L 977 272 L 978 273 L 978 276 L 982 280 L 983 280 L 984 281 L 985 281 L 986 282 L 987 281 L 988 281 L 989 282 L 990 282 L 991 281 L 994 281 L 995 280 L 996 280 L 1000 276 L 1000 275 L 1001 274 L 1001 273 L 1002 272 L 1002 266 L 1000 264 L 1000 263 L 997 260 L 996 260 L 994 258 L 986 258 L 984 260 "></path>
        <path fill="none" stroke="#fa00fa" stroke-width="3" d="M 1018 47 L 1017 48 L 1014 48 L 1012 50 L 1011 50 L 1010 51 L 1010 52 L 1008 54 L 1008 60 L 1009 61 L 1009 65 L 1011 67 L 1011 68 L 1012 68 L 1014 70 L 1017 70 L 1018 71 L 1024 71 L 1025 70 L 1027 70 L 1029 68 L 1030 68 L 1032 66 L 1032 64 L 1033 63 L 1032 62 L 1032 60 L 1031 59 L 1031 58 L 1030 57 L 1030 55 L 1029 54 L 1029 53 L 1024 48 L 1023 48 L 1022 47 L 1018 47 L 1017 48 "></path>
        <path fill="none" stroke="#fa00fa" stroke-width="3" d="M 86 169 L 85 170 L 84 170 L 83 171 L 82 171 L 78 175 L 78 178 L 77 179 L 77 180 L 78 181 L 78 183 L 79 184 L 79 185 L 82 188 L 84 188 L 85 189 L 86 189 L 87 190 L 89 190 L 90 191 L 92 191 L 93 190 L 95 190 L 96 189 L 98 189 L 100 187 L 101 187 L 103 185 L 103 176 L 102 175 L 102 174 L 98 170 L 96 170 L 95 169 L 86 169 L 85 170 "></path>
        <path fill="none" stroke="#fa00fa" stroke-width="3" d="M 181 137 L 180 138 L 177 138 L 176 139 L 174 139 L 173 140 L 172 140 L 170 142 L 170 143 L 169 144 L 169 147 L 170 148 L 170 155 L 172 157 L 172 158 L 173 159 L 174 159 L 175 160 L 177 160 L 178 161 L 184 161 L 185 160 L 187 160 L 188 159 L 189 159 L 190 158 L 191 158 L 191 157 L 193 155 L 193 152 L 192 151 L 192 149 L 191 148 L 191 144 L 190 143 L 190 142 L 187 139 L 186 139 L 185 138 L 184 138 L 183 137 L 181 137 L 180 138 "></path>
        <path fill="none" stroke="#fa00fa" stroke-width="3" d="M 150 47 L 149 48 L 144 48 L 143 49 L 141 49 L 138 52 L 138 53 L 137 54 L 137 63 L 138 64 L 138 65 L 142 69 L 147 69 L 149 67 L 150 67 L 151 66 L 153 66 L 154 67 L 158 67 L 159 66 L 160 66 L 162 64 L 162 55 L 161 54 L 161 53 L 160 52 L 160 51 L 158 49 L 157 49 L 156 48 L 151 48 L 150 47 L 149 48 "></path>
        <path fill="none" stroke="#fa00fa" stroke-width="3" d="M 929 288 L 928 289 L 926 289 L 923 292 L 922 292 L 922 293 L 921 294 L 921 295 L 919 297 L 919 298 L 918 299 L 918 300 L 917 301 L 917 303 L 918 304 L 918 306 L 920 308 L 920 309 L 921 310 L 922 310 L 923 311 L 924 311 L 925 312 L 934 312 L 935 311 L 937 311 L 941 307 L 941 303 L 940 302 L 940 298 L 939 297 L 939 294 L 938 293 L 938 292 L 934 288 L 929 288 L 928 289 "></path>
        <path fill="none" stroke="#fa00fa" stroke-width="3" d="M 870 48 L 869 49 L 864 49 L 863 50 L 862 50 L 860 52 L 860 53 L 859 54 L 859 55 L 858 56 L 858 62 L 859 63 L 859 65 L 861 67 L 861 68 L 863 68 L 865 70 L 868 70 L 869 71 L 872 71 L 873 70 L 875 70 L 876 69 L 878 69 L 881 66 L 881 65 L 882 64 L 882 57 L 881 56 L 881 55 L 880 54 L 880 52 L 879 51 L 878 51 L 877 50 L 876 50 L 875 49 L 871 49 L 870 48 L 869 49 "></path>
        <path fill="none" stroke="#fa00fa" stroke-width="3" d="M 150 588 L 149 589 L 148 589 L 147 590 L 146 589 L 145 590 L 144 590 L 143 591 L 142 591 L 141 592 L 141 593 L 138 596 L 138 606 L 140 608 L 141 608 L 142 609 L 143 609 L 144 610 L 146 610 L 147 611 L 149 611 L 150 612 L 151 612 L 152 611 L 154 611 L 159 606 L 159 603 L 162 600 L 162 599 L 163 598 L 163 597 L 162 596 L 162 595 L 158 591 L 157 591 L 155 589 L 151 589 L 150 588 L 149 589 "></path>
        <path fill="none" stroke="#fa00fa" stroke-width="3" d="M 28 379 L 27 380 L 25 380 L 21 384 L 21 385 L 20 386 L 20 387 L 19 388 L 19 389 L 18 390 L 19 391 L 19 392 L 20 393 L 20 395 L 21 396 L 21 397 L 22 398 L 22 399 L 24 401 L 25 401 L 26 402 L 29 402 L 30 403 L 31 403 L 32 402 L 35 402 L 36 401 L 37 401 L 38 400 L 39 400 L 39 399 L 40 398 L 40 397 L 41 396 L 41 395 L 43 393 L 43 391 L 44 390 L 44 389 L 43 388 L 43 387 L 40 384 L 39 384 L 38 383 L 37 383 L 36 382 L 35 382 L 33 380 L 31 380 L 30 379 L 28 379 L 27 380 "></path>
        <path fill="none" stroke="#fa00fa" stroke-width="3" d="M 990 287 L 989 288 L 985 288 L 983 290 L 982 290 L 981 291 L 981 292 L 980 293 L 980 303 L 981 304 L 981 306 L 982 307 L 982 308 L 983 309 L 984 309 L 986 311 L 994 311 L 995 310 L 996 310 L 997 309 L 998 309 L 999 308 L 999 307 L 1000 306 L 1000 301 L 1001 300 L 1001 295 L 1000 294 L 1000 292 L 998 290 L 997 290 L 995 288 L 992 288 L 991 287 L 990 287 L 989 288 "></path>
        <path fill="none" stroke="#fa00fa" stroke-width="3" d="M 958 679 L 957 680 L 954 680 L 953 681 L 952 681 L 951 682 L 950 682 L 946 686 L 946 691 L 947 691 L 950 694 L 951 694 L 952 695 L 952 696 L 954 698 L 955 698 L 956 699 L 963 699 L 964 698 L 965 698 L 967 696 L 967 695 L 969 693 L 971 693 L 972 692 L 973 692 L 975 690 L 975 687 L 974 686 L 973 686 L 971 684 L 971 683 L 968 680 L 967 680 L 966 679 L 958 679 L 957 680 "></path>
        <path fill="none" stroke="#fa00fa" stroke-width="3" d="M 270 769 L 269 770 L 262 770 L 258 774 L 258 775 L 257 776 L 257 780 L 260 783 L 260 784 L 261 785 L 261 786 L 266 791 L 274 791 L 276 789 L 277 789 L 279 787 L 279 786 L 280 785 L 280 780 L 281 779 L 281 774 L 279 772 L 279 771 L 278 771 L 277 770 L 275 770 L 274 769 L 273 770 L 271 770 L 270 769 L 269 770 "></path>
        <path fill="none" stroke="#fa00fa" stroke-width="3" d="M 150 258 L 149 259 L 145 259 L 140 264 L 140 266 L 139 267 L 139 272 L 140 273 L 140 274 L 142 276 L 142 277 L 146 281 L 154 281 L 155 280 L 156 280 L 157 279 L 158 279 L 160 277 L 160 276 L 161 275 L 161 274 L 162 273 L 162 269 L 161 269 L 160 268 L 160 264 L 159 263 L 159 262 L 157 260 L 156 260 L 155 259 L 152 259 L 151 258 L 150 258 L 149 259 "></path>
        <path fill="none" stroke="#fa00fa" stroke-width="3" d="M 929 110 L 928 111 L 924 111 L 923 112 L 921 112 L 919 114 L 919 115 L 918 116 L 919 117 L 919 119 L 920 120 L 920 127 L 922 129 L 923 129 L 924 130 L 925 130 L 926 131 L 927 130 L 928 130 L 929 131 L 934 131 L 935 130 L 938 130 L 941 127 L 941 124 L 940 123 L 940 121 L 941 120 L 941 114 L 938 111 L 937 111 L 936 110 L 929 110 L 928 111 "></path>
        <path fill="none" stroke="#fa00fa" stroke-width="3" d="M 806 738 L 804 740 L 803 740 L 800 743 L 800 746 L 799 747 L 799 748 L 798 749 L 798 750 L 797 751 L 797 753 L 798 754 L 798 755 L 802 759 L 804 759 L 805 760 L 814 760 L 815 759 L 816 759 L 817 758 L 818 758 L 819 757 L 819 756 L 820 755 L 820 754 L 821 753 L 820 752 L 820 750 L 819 749 L 819 744 L 815 740 L 815 739 L 812 739 L 811 738 L 806 738 L 804 740 "></path>
        <path fill="none" stroke="#fa00fa" stroke-width="3" d="M 686 768 L 685 769 L 684 769 L 681 772 L 681 773 L 680 774 L 680 779 L 679 780 L 679 781 L 678 782 L 678 783 L 679 784 L 679 785 L 681 787 L 683 787 L 684 788 L 685 788 L 686 789 L 688 789 L 689 790 L 694 790 L 695 789 L 696 789 L 697 788 L 698 788 L 702 784 L 702 780 L 701 779 L 701 778 L 700 778 L 699 777 L 699 773 L 698 772 L 698 771 L 697 770 L 696 770 L 695 769 L 694 769 L 693 768 L 686 768 L 685 769 "></path>
        <path fill="none" stroke="#fa00fa" stroke-width="3" d="M 57 319 L 56 320 L 55 320 L 54 321 L 53 321 L 53 322 L 50 325 L 49 325 L 49 326 L 48 327 L 48 330 L 49 331 L 49 333 L 50 334 L 50 335 L 52 337 L 52 339 L 53 340 L 53 341 L 55 341 L 56 342 L 64 342 L 65 341 L 66 341 L 68 339 L 68 334 L 69 333 L 69 331 L 70 330 L 70 325 L 68 323 L 68 322 L 66 320 L 63 320 L 62 319 L 57 319 L 56 320 "></path>
        <path fill="none" stroke="#fa00fa" stroke-width="3" d="M 840 258 L 839 259 L 837 259 L 836 260 L 835 260 L 834 261 L 833 261 L 832 262 L 832 263 L 831 264 L 831 267 L 832 268 L 832 269 L 829 272 L 829 275 L 830 276 L 830 277 L 831 277 L 832 278 L 832 279 L 833 280 L 834 280 L 835 281 L 837 281 L 838 282 L 839 281 L 846 281 L 848 279 L 849 279 L 851 277 L 851 276 L 852 275 L 852 273 L 851 272 L 851 271 L 850 270 L 850 269 L 849 268 L 849 265 L 848 264 L 848 263 L 847 262 L 847 261 L 846 260 L 845 260 L 844 259 L 843 259 L 842 258 L 840 258 L 839 259 "></path>
        <path fill="none" stroke="#fa00fa" stroke-width="3" d="M 218 1 L 218 3 L 221 6 L 222 6 L 223 7 L 225 7 L 226 8 L 227 8 L 228 9 L 229 9 L 230 10 L 231 10 L 232 11 L 233 11 L 234 12 L 237 12 L 238 13 L 243 13 L 244 12 L 248 12 L 249 11 L 251 11 L 252 10 L 254 10 L 255 9 L 258 9 L 260 7 L 261 7 L 264 4 L 264 1 L 218 1 L 218 3 "></path>
        <path fill="none" stroke="#fa00fa" stroke-width="3" d="M 1050 645 L 1049 646 L 1048 646 L 1045 649 L 1045 651 L 1044 652 L 1043 652 L 1042 653 L 1041 653 L 1040 654 L 1038 654 L 1036 656 L 1036 657 L 1035 658 L 1035 661 L 1036 662 L 1036 663 L 1038 665 L 1039 665 L 1040 666 L 1040 667 L 1041 668 L 1041 669 L 1043 671 L 1044 671 L 1046 673 L 1047 673 L 1049 675 L 1050 675 L 1051 676 L 1054 676 L 1054 645 L 1050 645 L 1049 646 "></path>
        <path fill="none" stroke="#fa00fa" stroke-width="3" d="M 1020 169 L 1019 170 L 1017 170 L 1016 171 L 1016 172 L 1013 175 L 1013 176 L 1012 177 L 1012 178 L 1010 180 L 1009 180 L 1009 181 L 1008 182 L 1008 185 L 1009 186 L 1009 188 L 1014 193 L 1017 193 L 1018 194 L 1019 194 L 1020 193 L 1021 193 L 1022 194 L 1023 193 L 1024 193 L 1025 192 L 1027 192 L 1031 188 L 1031 184 L 1030 183 L 1030 182 L 1029 181 L 1029 180 L 1028 179 L 1028 178 L 1027 177 L 1027 176 L 1026 175 L 1026 174 L 1024 172 L 1024 171 L 1023 170 L 1021 170 L 1020 169 L 1019 170 "></path>
        <path fill="none" stroke="#fa00fa" stroke-width="3" d="M 896 561 L 895 562 L 893 562 L 891 564 L 890 564 L 890 565 L 889 566 L 889 567 L 888 568 L 888 572 L 889 573 L 889 575 L 892 578 L 892 579 L 893 579 L 895 581 L 897 581 L 898 582 L 899 581 L 900 581 L 901 582 L 902 582 L 903 581 L 905 581 L 906 580 L 907 580 L 909 578 L 910 578 L 910 577 L 912 575 L 912 574 L 913 573 L 913 568 L 910 565 L 909 565 L 908 564 L 905 564 L 904 563 L 902 563 L 901 562 L 899 562 L 898 561 L 896 561 L 895 562 "></path>
        <path fill="none" stroke="#fa00fa" stroke-width="3" d="M 929 228 L 928 229 L 926 229 L 925 230 L 924 230 L 922 232 L 922 233 L 919 236 L 919 237 L 918 238 L 918 240 L 917 241 L 917 245 L 920 248 L 921 248 L 922 249 L 935 249 L 936 248 L 938 248 L 940 246 L 940 244 L 941 243 L 941 241 L 939 239 L 939 237 L 938 236 L 938 234 L 937 233 L 937 232 L 936 231 L 936 230 L 935 230 L 934 229 L 931 229 L 930 228 L 929 228 L 928 229 "></path>
        <path fill="none" stroke="#fa00fa" stroke-width="3" d="M 297 79 L 296 80 L 294 80 L 293 81 L 293 82 L 292 83 L 292 85 L 291 86 L 291 87 L 289 89 L 289 91 L 288 92 L 289 93 L 289 94 L 290 95 L 290 96 L 294 100 L 297 100 L 298 101 L 303 101 L 304 100 L 306 100 L 308 98 L 308 97 L 311 94 L 311 92 L 312 91 L 312 90 L 310 88 L 310 87 L 308 85 L 308 83 L 305 80 L 304 80 L 303 79 L 297 79 L 296 80 "></path>
        <path fill="none" stroke="#fa00fa" stroke-width="3" d="M 180 588 L 179 589 L 177 589 L 176 590 L 174 590 L 170 594 L 170 599 L 171 600 L 171 604 L 172 605 L 172 607 L 176 611 L 177 611 L 178 612 L 181 612 L 182 611 L 183 611 L 185 609 L 186 609 L 188 607 L 188 605 L 189 604 L 189 601 L 190 600 L 190 599 L 191 598 L 191 595 L 190 594 L 190 593 L 186 589 L 183 589 L 182 588 L 180 588 L 179 589 "></path>
        <path fill="none" stroke="#fa00fa" stroke-width="3" d="M 781 709 L 780 710 L 778 710 L 775 713 L 770 713 L 767 716 L 767 719 L 768 720 L 768 722 L 769 723 L 769 724 L 774 729 L 776 729 L 777 730 L 783 730 L 785 728 L 786 728 L 788 726 L 790 726 L 791 725 L 791 724 L 792 723 L 792 721 L 791 720 L 791 718 L 790 717 L 790 715 L 789 714 L 789 713 L 786 710 L 783 710 L 782 709 L 781 709 L 780 710 "></path>
        <path fill="none" stroke="#fa00fa" stroke-width="3" d="M 929 529 L 928 530 L 926 530 L 921 535 L 921 536 L 920 537 L 920 543 L 921 544 L 921 547 L 922 548 L 922 549 L 924 551 L 925 551 L 926 552 L 932 552 L 933 551 L 935 551 L 940 546 L 940 544 L 941 543 L 941 539 L 940 538 L 940 536 L 934 530 L 931 530 L 930 529 L 929 529 L 928 530 "></path>
        <path fill="none" stroke="#fa00fa" stroke-width="3" d="M 204 109 L 202 111 L 202 112 L 201 113 L 201 116 L 198 119 L 198 124 L 199 125 L 199 126 L 200 126 L 202 128 L 204 128 L 205 129 L 206 129 L 207 130 L 214 130 L 215 129 L 216 129 L 217 128 L 218 128 L 221 125 L 221 124 L 220 123 L 220 121 L 219 120 L 219 118 L 218 117 L 218 113 L 217 112 L 217 111 L 216 110 L 212 110 L 211 109 L 204 109 L 202 111 "></path>
        <path fill="none" stroke="#fa00fa" stroke-width="3" d="M 146 561 L 144 563 L 142 563 L 141 564 L 141 565 L 140 566 L 140 567 L 139 568 L 139 570 L 140 571 L 140 574 L 141 575 L 141 577 L 144 580 L 144 581 L 145 581 L 146 582 L 148 582 L 149 583 L 151 583 L 152 582 L 154 582 L 155 581 L 156 581 L 157 580 L 158 580 L 158 579 L 160 577 L 160 574 L 161 573 L 160 572 L 161 571 L 161 568 L 159 566 L 159 565 L 157 563 L 156 563 L 154 561 L 146 561 L 144 563 "></path>
        <path fill="none" stroke="#fa00fa" stroke-width="3" d="M 986 649 L 984 651 L 983 651 L 979 655 L 979 661 L 981 663 L 981 664 L 982 665 L 982 667 L 983 668 L 983 669 L 984 670 L 985 670 L 986 671 L 994 671 L 996 669 L 996 668 L 997 667 L 997 665 L 998 664 L 998 663 L 1002 659 L 1002 656 L 998 652 L 996 652 L 995 651 L 993 651 L 992 650 L 991 650 L 990 649 L 986 649 L 984 651 "></path>
        <path fill="none" stroke="#fa00fa" stroke-width="3" d="M 866 167 L 864 169 L 863 169 L 862 170 L 862 171 L 861 172 L 861 173 L 860 174 L 860 182 L 861 183 L 861 184 L 866 189 L 869 189 L 870 190 L 871 189 L 873 189 L 876 186 L 876 185 L 879 182 L 879 181 L 880 180 L 880 179 L 881 178 L 881 174 L 880 173 L 880 172 L 879 171 L 879 170 L 878 170 L 876 168 L 874 168 L 873 167 L 872 168 L 871 167 L 866 167 L 864 169 "></path>
        <path fill="none" stroke="#fa00fa" stroke-width="3" d="M 866 379 L 865 380 L 864 380 L 863 381 L 862 381 L 861 382 L 861 383 L 860 384 L 860 385 L 859 386 L 859 389 L 858 390 L 858 393 L 861 396 L 864 396 L 865 397 L 869 397 L 870 398 L 871 398 L 872 397 L 873 398 L 874 398 L 875 397 L 879 397 L 882 394 L 882 388 L 881 387 L 881 386 L 880 385 L 880 384 L 876 380 L 875 380 L 874 379 L 866 379 L 865 380 "></path>
        <path fill="none" stroke="#fa00fa" stroke-width="3" d="M 122 589 L 121 590 L 120 590 L 119 591 L 118 591 L 117 592 L 114 592 L 113 593 L 112 593 L 111 594 L 111 607 L 114 610 L 119 610 L 120 611 L 124 611 L 125 610 L 127 610 L 129 608 L 130 608 L 131 607 L 131 606 L 132 605 L 132 601 L 131 600 L 131 599 L 130 598 L 130 597 L 129 596 L 129 594 L 128 593 L 128 592 L 126 590 L 123 590 L 122 589 L 121 590 "></path>
        <path fill="none" stroke="#fa00fa" stroke-width="3" d="M 958 500 L 954 504 L 954 505 L 953 506 L 953 507 L 952 508 L 952 509 L 951 510 L 951 511 L 950 512 L 950 517 L 952 519 L 953 519 L 955 521 L 956 521 L 957 522 L 962 522 L 963 521 L 964 521 L 965 520 L 966 520 L 967 519 L 968 519 L 969 518 L 970 518 L 972 516 L 972 515 L 973 514 L 973 513 L 972 512 L 972 510 L 969 507 L 969 506 L 968 505 L 968 504 L 965 501 L 964 501 L 963 500 L 958 500 L 954 504 "></path>
        <path fill="none" stroke="#fa00fa" stroke-width="3" d="M 838 770 L 837 771 L 836 771 L 835 772 L 834 772 L 832 774 L 832 776 L 831 777 L 831 778 L 829 780 L 829 781 L 828 782 L 828 784 L 830 786 L 830 787 L 833 790 L 834 790 L 835 791 L 837 791 L 838 792 L 839 791 L 840 791 L 841 792 L 842 792 L 846 788 L 846 787 L 847 786 L 847 785 L 848 784 L 848 783 L 849 782 L 849 780 L 850 779 L 850 777 L 851 776 L 851 775 L 850 774 L 850 773 L 849 772 L 848 772 L 847 771 L 846 771 L 845 770 L 838 770 L 837 771 "></path>
        <path fill="none" stroke="#fa00fa" stroke-width="3" d="M 150 708 L 149 709 L 146 709 L 144 711 L 143 711 L 140 714 L 140 715 L 139 716 L 139 717 L 138 718 L 138 720 L 139 721 L 139 723 L 142 726 L 149 726 L 150 727 L 151 726 L 152 727 L 153 727 L 154 728 L 155 728 L 156 727 L 159 727 L 160 726 L 162 726 L 163 725 L 163 724 L 164 723 L 164 721 L 159 716 L 159 714 L 157 712 L 157 711 L 155 709 L 151 709 L 150 708 L 149 709 "></path>
        <path fill="none" stroke="#fa00fa" stroke-width="3" d="M 26 54 L 25 55 L 22 55 L 21 56 L 20 56 L 18 58 L 18 59 L 17 60 L 17 62 L 16 63 L 16 64 L 18 66 L 18 67 L 19 67 L 22 70 L 23 70 L 24 71 L 29 71 L 30 70 L 31 70 L 32 69 L 33 69 L 34 70 L 35 69 L 38 69 L 40 67 L 41 67 L 43 65 L 43 63 L 44 62 L 43 61 L 43 58 L 41 56 L 40 56 L 39 55 L 35 55 L 34 54 L 33 55 L 31 55 L 30 54 L 29 55 L 27 55 L 26 54 L 25 55 "></path>
        <path fill="none" stroke="#fa00fa" stroke-width="3" d="M 57 409 L 56 410 L 55 410 L 50 415 L 50 416 L 48 418 L 47 418 L 47 419 L 46 420 L 46 422 L 49 425 L 52 425 L 53 426 L 54 426 L 55 425 L 56 425 L 57 426 L 58 426 L 59 425 L 60 425 L 61 426 L 62 426 L 63 425 L 67 425 L 68 424 L 69 424 L 70 425 L 72 423 L 73 423 L 75 421 L 75 419 L 74 418 L 74 417 L 73 417 L 72 416 L 72 415 L 68 411 L 67 411 L 66 410 L 65 410 L 64 409 L 57 409 L 56 410 "></path>
        <path fill="none" stroke="#fa00fa" stroke-width="3" d="M 1050 76 L 1048 78 L 1047 78 L 1046 79 L 1045 79 L 1043 81 L 1041 81 L 1040 82 L 1039 82 L 1037 84 L 1037 86 L 1038 87 L 1038 88 L 1039 89 L 1039 91 L 1040 92 L 1040 95 L 1041 96 L 1041 97 L 1047 103 L 1048 103 L 1049 104 L 1049 105 L 1050 105 L 1051 106 L 1053 106 L 1054 105 L 1054 76 L 1050 76 L 1048 78 "></path>
        <path fill="none" stroke="#fa00fa" stroke-width="3" d="M 866 81 L 862 85 L 862 87 L 860 89 L 858 89 L 856 91 L 856 94 L 858 96 L 859 96 L 860 97 L 861 97 L 862 98 L 863 98 L 864 99 L 865 99 L 866 100 L 869 100 L 870 101 L 871 100 L 874 100 L 876 98 L 878 98 L 879 97 L 880 97 L 881 96 L 882 96 L 882 95 L 883 94 L 882 93 L 882 92 L 880 90 L 880 89 L 879 88 L 879 86 L 875 82 L 873 82 L 872 81 L 866 81 L 862 85 "></path>
        <path fill="none" stroke="#fa00fa" stroke-width="3" d="M 896 410 L 895 411 L 894 411 L 893 412 L 893 413 L 892 414 L 892 418 L 891 419 L 890 419 L 890 420 L 889 421 L 889 423 L 890 424 L 890 425 L 891 426 L 891 427 L 894 430 L 897 430 L 898 431 L 899 430 L 901 430 L 902 431 L 903 431 L 904 430 L 905 431 L 906 431 L 908 429 L 909 429 L 911 427 L 911 421 L 908 418 L 908 415 L 907 414 L 907 413 L 906 412 L 905 412 L 904 411 L 903 411 L 902 410 L 896 410 L 895 411 "></path>
        <path fill="none" stroke="#fa00fa" stroke-width="3" d="M 982 772 L 981 773 L 978 773 L 976 775 L 976 776 L 975 777 L 975 779 L 978 782 L 979 782 L 980 783 L 981 783 L 982 784 L 982 785 L 984 787 L 984 788 L 986 790 L 987 790 L 988 791 L 992 791 L 993 790 L 994 790 L 995 789 L 995 788 L 996 787 L 996 784 L 1001 779 L 1002 779 L 1003 778 L 1003 775 L 1002 774 L 1001 774 L 999 772 L 997 772 L 996 773 L 995 773 L 994 772 L 993 773 L 992 773 L 991 772 L 985 772 L 984 773 L 983 773 L 982 772 L 981 773 "></path>
        <path fill="none" stroke="#fa00fa" stroke-width="3" d="M 210 768 L 209 769 L 205 769 L 204 770 L 202 770 L 200 772 L 200 773 L 199 774 L 199 775 L 198 776 L 198 780 L 199 781 L 199 783 L 201 785 L 201 786 L 203 786 L 204 787 L 206 787 L 208 785 L 218 785 L 222 781 L 222 776 L 221 775 L 221 773 L 220 772 L 220 771 L 219 771 L 218 770 L 217 770 L 216 769 L 212 769 L 211 768 L 210 768 L 209 769 "></path>
        <path fill="none" stroke="#fa00fa" stroke-width="3" d="M 912 1 L 912 5 L 913 6 L 913 7 L 914 7 L 915 8 L 916 8 L 917 9 L 918 9 L 919 10 L 921 10 L 922 11 L 925 11 L 926 12 L 938 12 L 939 11 L 942 11 L 944 9 L 946 9 L 950 5 L 950 1 L 912 1 L 912 5 "></path>
        <path fill="none" stroke="#fa00fa" stroke-width="3" d="M 236 319 L 233 322 L 233 323 L 232 324 L 232 325 L 231 326 L 231 327 L 230 328 L 230 329 L 229 330 L 229 333 L 230 334 L 230 335 L 231 335 L 233 337 L 233 338 L 234 339 L 235 339 L 236 340 L 237 340 L 238 341 L 239 340 L 240 340 L 241 341 L 242 341 L 243 340 L 244 340 L 245 339 L 246 339 L 247 338 L 247 337 L 249 335 L 249 331 L 248 330 L 248 328 L 249 327 L 249 324 L 248 323 L 248 322 L 246 320 L 244 320 L 243 319 L 236 319 L 233 322 "></path>
        <path fill="none" stroke="#fa00fa" stroke-width="3" d="M 237 79 L 236 80 L 235 80 L 232 83 L 232 84 L 228 88 L 227 88 L 225 90 L 225 92 L 227 94 L 228 94 L 229 95 L 233 95 L 234 96 L 238 96 L 239 95 L 250 95 L 251 94 L 252 94 L 254 92 L 254 89 L 253 89 L 252 88 L 252 87 L 245 80 L 244 80 L 243 79 L 237 79 L 236 80 "></path>
        <path fill="none" stroke="#fa00fa" stroke-width="3" d="M 414 52 L 413 53 L 411 53 L 408 56 L 408 57 L 407 58 L 407 61 L 408 62 L 408 63 L 410 65 L 411 65 L 413 67 L 413 68 L 414 68 L 416 70 L 420 70 L 421 69 L 423 69 L 424 68 L 426 68 L 430 64 L 430 63 L 431 62 L 431 56 L 428 53 L 427 53 L 426 52 L 414 52 L 413 53 "></path>
        <path fill="none" stroke="#fa00fa" stroke-width="3" d="M 118 108 L 117 109 L 116 109 L 115 110 L 114 110 L 113 111 L 113 119 L 112 120 L 112 121 L 111 122 L 111 124 L 112 125 L 112 126 L 114 128 L 116 128 L 118 130 L 125 130 L 126 129 L 127 129 L 129 127 L 130 127 L 131 126 L 131 125 L 133 123 L 133 121 L 127 115 L 127 113 L 126 112 L 126 111 L 124 109 L 120 109 L 119 108 L 118 108 L 117 109 "></path>
        <path fill="none" stroke="#fa00fa" stroke-width="3" d="M 146 379 L 142 383 L 142 387 L 141 388 L 141 394 L 142 395 L 142 396 L 143 396 L 144 397 L 144 398 L 146 400 L 148 400 L 150 402 L 152 402 L 153 401 L 155 401 L 156 400 L 156 399 L 157 398 L 157 397 L 158 396 L 158 393 L 159 392 L 159 383 L 158 382 L 158 381 L 157 381 L 156 380 L 155 380 L 154 379 L 146 379 L 142 383 "></path>
        <path fill="none" stroke="#fa00fa" stroke-width="3" d="M 985 79 L 984 80 L 981 80 L 978 83 L 978 86 L 979 87 L 979 88 L 980 88 L 982 90 L 983 89 L 984 90 L 985 90 L 986 91 L 986 98 L 987 98 L 989 100 L 994 100 L 995 99 L 996 99 L 999 96 L 999 95 L 1000 94 L 1000 89 L 1002 87 L 1002 86 L 1003 85 L 1002 84 L 1002 83 L 1001 82 L 1000 82 L 999 81 L 997 81 L 996 82 L 995 82 L 994 81 L 992 81 L 991 80 L 989 80 L 988 79 L 985 79 L 984 80 "></path>
        <path fill="none" stroke="#fa00fa" stroke-width="3" d="M 118 499 L 117 500 L 116 500 L 115 501 L 114 501 L 112 503 L 112 504 L 110 506 L 110 512 L 111 513 L 111 514 L 112 515 L 112 516 L 113 517 L 113 518 L 114 519 L 115 519 L 116 520 L 117 520 L 118 521 L 119 520 L 120 520 L 121 521 L 122 521 L 123 520 L 124 520 L 125 519 L 126 519 L 128 517 L 128 516 L 129 515 L 129 513 L 130 512 L 130 510 L 131 509 L 130 508 L 130 506 L 127 503 L 127 502 L 126 502 L 125 501 L 124 501 L 123 500 L 119 500 L 118 499 L 117 500 "></path>
        <path fill="none" stroke="#fa00fa" stroke-width="3" d="M 300 169 L 299 170 L 296 170 L 295 171 L 294 171 L 293 172 L 293 173 L 291 175 L 291 176 L 290 177 L 290 178 L 291 179 L 291 184 L 292 185 L 292 186 L 293 187 L 293 188 L 294 188 L 296 190 L 297 190 L 298 191 L 301 191 L 302 190 L 303 190 L 304 189 L 305 189 L 309 185 L 309 183 L 310 182 L 310 176 L 308 174 L 308 173 L 306 171 L 305 171 L 304 170 L 303 170 L 302 169 L 300 169 L 299 170 "></path>
        <path fill="none" stroke="#fa00fa" stroke-width="3" d="M 809 82 L 808 83 L 805 83 L 804 84 L 802 84 L 799 87 L 799 88 L 798 89 L 798 93 L 799 94 L 799 95 L 801 97 L 802 97 L 803 98 L 804 98 L 805 99 L 808 99 L 809 100 L 813 100 L 814 99 L 815 99 L 817 97 L 819 97 L 820 96 L 820 95 L 821 94 L 821 87 L 820 86 L 820 85 L 819 84 L 817 84 L 816 83 L 812 83 L 811 82 L 809 82 L 808 83 "></path>
        <path fill="none" stroke="#fa00fa" stroke-width="3" d="M 838 109 L 837 110 L 836 110 L 833 113 L 833 114 L 832 115 L 832 118 L 831 119 L 831 120 L 830 121 L 830 125 L 831 126 L 831 127 L 834 130 L 836 130 L 837 131 L 843 131 L 844 130 L 845 130 L 848 127 L 848 125 L 849 124 L 848 123 L 848 119 L 847 118 L 847 114 L 846 113 L 846 112 L 844 110 L 843 110 L 842 109 L 838 109 L 837 110 "></path>
        <path fill="none" stroke="#fa00fa" stroke-width="3" d="M 805 799 L 804 800 L 802 800 L 800 802 L 800 803 L 799 804 L 799 805 L 800 806 L 800 809 L 799 810 L 799 811 L 800 812 L 800 813 L 801 814 L 823 814 L 825 812 L 825 810 L 824 809 L 824 808 L 823 807 L 822 807 L 820 805 L 820 804 L 819 803 L 819 802 L 818 801 L 817 801 L 816 800 L 815 800 L 814 799 L 805 799 L 804 800 "></path>
        <path fill="none" stroke="#fa00fa" stroke-width="3" d="M 658 680 L 657 681 L 656 681 L 656 682 L 653 685 L 653 686 L 651 688 L 650 688 L 648 690 L 648 693 L 654 699 L 656 699 L 657 700 L 662 700 L 665 697 L 666 697 L 667 696 L 668 696 L 669 695 L 670 695 L 670 694 L 672 692 L 672 691 L 671 690 L 671 689 L 670 688 L 669 688 L 668 687 L 668 685 L 666 683 L 666 682 L 665 682 L 664 681 L 663 681 L 662 680 L 658 680 L 657 681 "></path>
        <path fill="none" stroke="#fa00fa" stroke-width="3" d="M 778 141 L 777 142 L 776 142 L 775 143 L 773 143 L 772 144 L 772 147 L 771 148 L 772 149 L 772 150 L 771 151 L 771 158 L 774 161 L 777 161 L 778 162 L 779 162 L 780 161 L 783 161 L 784 160 L 786 160 L 787 159 L 788 159 L 790 157 L 790 152 L 787 149 L 787 145 L 786 144 L 786 143 L 785 143 L 783 141 L 778 141 L 777 142 "></path>
        <path fill="none" stroke="#fa00fa" stroke-width="3" d="M 718 200 L 717 201 L 716 201 L 715 202 L 714 202 L 710 206 L 710 211 L 711 212 L 711 213 L 712 214 L 712 215 L 717 220 L 721 220 L 722 221 L 723 220 L 724 220 L 728 216 L 728 214 L 729 213 L 729 212 L 730 211 L 730 207 L 729 206 L 729 205 L 728 205 L 727 204 L 727 203 L 726 202 L 725 202 L 724 201 L 723 201 L 722 200 L 720 200 L 719 201 L 718 200 L 717 201 "></path>
        <path fill="none" stroke="#fa00fa" stroke-width="3" d="M 86 441 L 84 443 L 83 443 L 82 444 L 81 444 L 81 445 L 80 446 L 79 446 L 79 453 L 82 456 L 85 456 L 87 458 L 89 458 L 90 459 L 91 458 L 95 458 L 96 457 L 97 457 L 98 456 L 99 456 L 100 455 L 101 455 L 102 454 L 102 453 L 103 452 L 103 451 L 102 450 L 102 449 L 101 448 L 100 448 L 99 447 L 99 446 L 98 445 L 97 445 L 94 442 L 93 442 L 92 441 L 86 441 L 84 443 "></path>
        <path fill="none" stroke="#fa00fa" stroke-width="3" d="M 34 81 L 33 82 L 25 82 L 24 83 L 22 83 L 21 84 L 21 89 L 22 90 L 22 91 L 21 92 L 21 94 L 23 96 L 23 97 L 24 98 L 32 98 L 33 99 L 38 99 L 40 97 L 40 96 L 41 95 L 41 90 L 40 89 L 40 87 L 39 86 L 39 85 L 37 83 L 36 83 L 34 81 L 33 82 "></path>
        <path fill="none" stroke="#fa00fa" stroke-width="3" d="M 2 44 L 1 45 L 1 73 L 2 74 L 5 74 L 6 73 L 7 73 L 12 68 L 12 67 L 13 66 L 13 65 L 14 64 L 14 63 L 13 62 L 13 59 L 12 58 L 12 53 L 11 52 L 11 50 L 6 45 L 4 45 L 3 44 L 2 44 L 1 45 "></path>
        <path fill="none" stroke="#fa00fa" stroke-width="3" d="M 749 198 L 748 199 L 745 199 L 744 200 L 744 201 L 743 202 L 743 205 L 742 206 L 742 212 L 743 213 L 743 215 L 745 217 L 745 218 L 746 219 L 747 219 L 748 220 L 753 220 L 756 217 L 756 214 L 757 213 L 756 212 L 756 211 L 757 210 L 758 210 L 758 209 L 759 208 L 759 203 L 755 199 L 752 199 L 751 198 L 749 198 L 748 199 "></path>
        <path fill="none" stroke="#fa00fa" stroke-width="3" d="M 297 799 L 295 801 L 294 801 L 293 802 L 293 803 L 292 804 L 292 806 L 289 809 L 289 810 L 288 811 L 288 813 L 289 814 L 316 814 L 316 812 L 314 810 L 313 810 L 308 805 L 308 803 L 307 802 L 307 801 L 306 800 L 304 800 L 303 799 L 297 799 L 295 801 "></path>
        <path fill="none" stroke="#fa00fa" stroke-width="3" d="M 688 651 L 687 652 L 686 652 L 685 653 L 684 653 L 681 656 L 681 657 L 680 658 L 680 659 L 679 660 L 679 661 L 678 662 L 679 663 L 679 664 L 682 667 L 685 667 L 686 668 L 687 668 L 688 667 L 689 667 L 690 668 L 691 668 L 692 667 L 693 667 L 694 668 L 695 668 L 696 667 L 698 667 L 700 665 L 700 664 L 701 663 L 701 661 L 700 660 L 700 659 L 699 658 L 699 657 L 698 656 L 698 655 L 697 654 L 696 654 L 695 653 L 695 652 L 694 652 L 693 651 L 688 651 L 687 652 "></path>
        <path fill="none" stroke="#fa00fa" stroke-width="3" d="M 866 801 L 864 803 L 863 803 L 861 805 L 861 806 L 860 807 L 858 807 L 857 808 L 856 808 L 856 809 L 855 810 L 855 814 L 884 814 L 884 810 L 882 808 L 881 808 L 875 802 L 874 802 L 873 801 L 866 801 L 864 803 "></path>
        <path fill="none" stroke="#fa00fa" stroke-width="3" d="M 777 799 L 776 800 L 774 800 L 773 801 L 772 801 L 770 803 L 770 810 L 769 811 L 769 812 L 770 813 L 770 814 L 789 814 L 790 813 L 790 812 L 791 811 L 791 809 L 790 808 L 790 805 L 789 804 L 789 803 L 787 801 L 786 801 L 785 800 L 783 800 L 782 799 L 777 799 L 776 800 "></path>
        <path fill="none" stroke="#fa00fa" stroke-width="3" d="M 422 80 L 421 81 L 416 81 L 415 82 L 414 82 L 412 84 L 412 86 L 411 87 L 411 88 L 410 89 L 410 93 L 411 94 L 411 95 L 414 98 L 418 98 L 419 97 L 420 97 L 421 96 L 422 96 L 423 95 L 427 95 L 428 94 L 429 94 L 432 91 L 432 90 L 431 89 L 431 87 L 430 86 L 429 86 L 426 83 L 426 82 L 425 82 L 424 81 L 423 81 L 422 80 L 421 81 "></path>
        <path fill="none" stroke="#fa00fa" stroke-width="3" d="M 625 804 L 624 805 L 621 805 L 620 806 L 619 806 L 616 809 L 616 810 L 615 811 L 615 813 L 616 814 L 649 814 L 649 812 L 648 811 L 648 810 L 646 808 L 645 808 L 644 807 L 643 807 L 642 806 L 639 806 L 638 805 L 632 805 L 631 804 L 625 804 L 624 805 "></path>
        <path fill="none" stroke="#fa00fa" stroke-width="3" d="M 87 80 L 85 82 L 84 82 L 83 83 L 82 83 L 82 84 L 81 85 L 81 89 L 82 90 L 82 92 L 84 94 L 84 97 L 87 100 L 92 100 L 95 97 L 95 95 L 96 94 L 96 92 L 98 90 L 98 89 L 99 88 L 99 84 L 98 83 L 97 83 L 95 81 L 92 81 L 91 80 L 87 80 L 85 82 "></path>
        <path fill="none" stroke="#fa00fa" stroke-width="3" d="M 866 471 L 865 472 L 864 472 L 861 475 L 861 476 L 860 477 L 860 479 L 861 480 L 861 481 L 862 482 L 862 483 L 866 487 L 869 487 L 870 488 L 871 488 L 872 487 L 873 487 L 880 480 L 880 479 L 881 478 L 881 477 L 880 476 L 880 475 L 877 472 L 876 472 L 875 471 L 866 471 L 865 472 "></path>
        <path fill="none" stroke="#fa00fa" stroke-width="3" d="M 1 586 L 1 612 L 2 613 L 3 613 L 4 612 L 5 612 L 6 611 L 7 611 L 7 610 L 8 609 L 8 608 L 9 607 L 9 606 L 10 605 L 10 604 L 13 601 L 13 600 L 14 599 L 13 598 L 13 597 L 12 596 L 12 595 L 11 594 L 11 593 L 10 592 L 10 591 L 5 586 L 1 586 L 1 612 "></path>
        <path fill="none" stroke="#fa00fa" stroke-width="3" d="M 329 81 L 328 82 L 327 82 L 325 84 L 325 88 L 322 91 L 322 96 L 324 98 L 325 98 L 326 99 L 334 99 L 335 98 L 336 98 L 338 96 L 338 95 L 339 94 L 339 90 L 338 89 L 338 88 L 337 88 L 336 87 L 336 85 L 335 84 L 335 83 L 334 82 L 333 82 L 332 81 L 329 81 L 328 82 "></path>
        <path fill="none" stroke="#fa00fa" stroke-width="3" d="M 478 802 L 476 804 L 475 804 L 468 811 L 468 813 L 469 814 L 490 814 L 490 813 L 491 812 L 490 811 L 490 810 L 489 809 L 489 807 L 488 806 L 488 805 L 487 804 L 487 803 L 483 803 L 482 802 L 481 803 L 479 803 L 478 802 L 476 804 "></path>
        <path fill="none" stroke="#fa00fa" stroke-width="3" d="M 1 794 L 1 814 L 14 814 L 15 813 L 15 808 L 14 807 L 14 806 L 13 806 L 8 801 L 8 800 L 7 799 L 7 798 L 3 794 L 1 794 L 1 814 "></path>
        <path fill="none" stroke="#fa00fa" stroke-width="3" d="M 86 805 L 85 806 L 84 806 L 83 807 L 81 807 L 81 808 L 80 809 L 80 810 L 79 811 L 79 814 L 100 814 L 101 813 L 101 809 L 98 806 L 95 806 L 94 805 L 93 806 L 91 806 L 90 805 L 89 806 L 87 806 L 86 805 L 85 806 "></path>
    </g>
</svg>
