<svg xmlns="http://www.w3.org/2000/svg" xmlns:xlink="http://www.w3.org/1999/xlink" version="1.1" x="0" y="0" width="1056px" height="816px">
    <g id="rootLayer" transform="translate(0.000000, 0.000000)">
        <path fill="none" stroke="#fa00fa" stroke-width="3" d="M 551 310 L 550 311 L 534 311 L 533 312 L 527 312 L 526 313 L 523 313 L 522 314 L 521 314 L 518 317 L 518 318 L 517 319 L 517 320 L 514 323 L 507 323 L 506 324 L 505 324 L 504 325 L 503 325 L 502 326 L 502 327 L 500 329 L 500 331 L 499 332 L 499 339 L 500 340 L 500 341 L 505 346 L 506 346 L 507 347 L 517 347 L 518 346 L 519 346 L 521 344 L 521 343 L 522 342 L 522 341 L 523 340 L 523 339 L 525 337 L 533 337 L 534 336 L 536 336 L 537 335 L 551 335 L 552 336 L 554 336 L 555 337 L 557 337 L 558 338 L 561 338 L 562 339 L 564 339 L 568 343 L 568 345 L 569 346 L 569 347 L 573 351 L 575 351 L 576 352 L 585 352 L 586 351 L 587 351 L 591 347 L 591 346 L 592 345 L 592 335 L 591 334 L 591 333 L 590 332 L 590 331 L 589 330 L 589 329 L 588 328 L 588 327 L 582 321 L 581 321 L 578 318 L 577 318 L 576 317 L 574 317 L 573 316 L 570 316 L 569 315 L 568 315 L 567 314 L 563 314 L 562 313 L 559 313 L 558 312 L 557 312 L 556 311 L 553 311 L 552 310 "></path>
        <path fill="none" stroke="#fa00fa" stroke-width="3" d="M 595 439 L 594 440 L 593 440 L 590 443 L 590 448 L 591 449 L 591 450 L 592 451 L 593 451 L 594 452 L 596 452 L 597 453 L 598 453 L 600 455 L 600 457 L 601 458 L 601 459 L 602 460 L 602 461 L 603 462 L 603 474 L 604 475 L 604 494 L 605 495 L 605 497 L 610 502 L 611 502 L 612 503 L 622 503 L 623 502 L 624 502 L 625 501 L 626 501 L 628 499 L 628 498 L 629 497 L 629 495 L 630 494 L 630 481 L 629 480 L 629 478 L 628 477 L 628 474 L 627 473 L 627 466 L 626 465 L 626 464 L 625 463 L 625 462 L 624 461 L 624 448 L 623 447 L 623 446 L 619 442 L 618 442 L 617 441 L 615 441 L 614 440 L 610 440 L 609 441 L 607 441 L 606 442 L 605 442 L 604 443 L 601 443 L 598 440 L 597 440 L 596 439 "></path>
        <path fill="none" stroke="#fa00fa" stroke-width="3" d="M 492 436 L 491 437 L 490 437 L 489 438 L 488 438 L 487 439 L 486 439 L 483 442 L 483 443 L 482 444 L 482 445 L 481 446 L 481 448 L 480 449 L 480 456 L 481 457 L 481 459 L 482 460 L 482 462 L 483 463 L 483 464 L 487 468 L 488 468 L 489 469 L 491 469 L 492 470 L 498 470 L 499 469 L 501 469 L 502 468 L 504 468 L 506 466 L 507 466 L 509 464 L 509 463 L 511 461 L 511 459 L 512 458 L 512 450 L 511 449 L 511 447 L 510 446 L 510 445 L 508 443 L 508 442 L 504 438 L 503 438 L 502 437 L 501 437 L 500 436 "></path>
        <path fill="none" stroke="#00fafa" stroke-width="3" d="M 535 318 L 536 317 L 549 317 L 550 318 L 555 318 L 556 319 L 558 319 L 559 320 L 561 320 L 562 321 L 564 321 L 565 322 L 567 322 L 568 323 L 569 323 L 570 324 L 571 324 L 572 325 L 573 325 L 575 327 L 576 327 L 578 329 L 578 330 L 580 332 L 580 333 L 581 334 L 581 335 L 582 336 L 582 340 L 580 342 L 578 342 L 577 341 L 576 341 L 569 334 L 568 334 L 567 333 L 566 333 L 565 332 L 563 332 L 562 331 L 560 331 L 559 330 L 556 330 L 555 329 L 537 329 L 536 330 L 532 330 L 531 331 L 527 331 L 526 332 L 524 332 L 522 334 L 521 334 L 519 336 L 518 336 L 515 339 L 514 339 L 513 340 L 509 340 L 508 339 L 507 339 L 506 338 L 506 337 L 505 336 L 505 334 L 506 333 L 506 332 L 508 330 L 509 330 L 510 329 L 511 329 L 512 328 L 514 328 L 515 327 L 516 327 L 518 325 L 519 325 L 521 323 L 522 323 L 525 320 L 526 320 L 527 319 L 529 319 L 530 318 "></path>
        <path fill="none" stroke="#fa00fa" stroke-width="3" d="M 582 407 L 582 408 L 581 409 L 581 411 L 582 412 L 582 413 L 583 414 L 583 415 L 584 416 L 584 418 L 585 419 L 585 424 L 584 425 L 584 429 L 587 432 L 592 432 L 593 431 L 594 432 L 596 432 L 598 434 L 599 434 L 600 435 L 609 435 L 611 433 L 612 433 L 615 430 L 616 430 L 617 429 L 619 429 L 620 428 L 621 428 L 622 427 L 622 420 L 621 419 L 621 415 L 619 413 L 611 413 L 610 412 L 609 412 L 608 411 L 606 411 L 605 410 L 602 410 L 601 411 L 599 411 L 597 413 L 596 413 L 593 416 L 592 416 L 590 414 L 590 411 L 589 410 L 589 409 L 587 407 "></path>
        <path fill="none" stroke="#fa00fa" stroke-width="3" d="M 588 362 L 587 363 L 585 363 L 583 365 L 578 365 L 577 364 L 572 364 L 570 366 L 570 368 L 569 369 L 569 376 L 571 378 L 577 378 L 587 388 L 587 394 L 588 395 L 588 396 L 589 397 L 590 397 L 591 398 L 594 398 L 595 397 L 596 397 L 597 396 L 597 395 L 598 394 L 598 392 L 597 391 L 597 386 L 601 382 L 601 381 L 602 380 L 602 376 L 603 375 L 602 374 L 602 370 L 601 369 L 601 368 L 597 364 L 596 364 L 595 363 L 593 363 L 592 362 "></path>
        <path fill="none" stroke="#fa00fa" stroke-width="3" d="M 490 407 L 489 408 L 488 408 L 488 409 L 487 410 L 487 411 L 486 412 L 486 413 L 485 414 L 485 415 L 484 416 L 481 416 L 480 417 L 473 417 L 470 420 L 470 423 L 468 425 L 468 426 L 466 428 L 466 429 L 463 432 L 462 432 L 461 433 L 458 433 L 455 430 L 455 429 L 454 428 L 454 425 L 455 424 L 455 423 L 456 422 L 456 421 L 457 420 L 457 419 L 460 416 L 463 416 L 464 415 L 466 415 L 466 414 L 467 413 L 467 411 L 466 410 L 466 409 L 465 408 L 460 408 L 458 410 L 458 413 L 457 414 L 457 415 L 455 417 L 454 417 L 453 418 L 452 418 L 451 419 L 450 419 L 449 420 L 449 421 L 448 422 L 448 423 L 447 424 L 447 430 L 448 431 L 448 432 L 449 433 L 449 434 L 451 436 L 452 436 L 453 437 L 454 437 L 455 438 L 467 438 L 471 434 L 471 432 L 472 431 L 472 430 L 471 429 L 471 425 L 472 424 L 480 424 L 481 423 L 483 423 L 484 422 L 485 422 L 486 421 L 487 421 L 488 420 L 491 420 L 492 419 L 493 419 L 496 416 L 496 415 L 497 414 L 497 411 L 496 410 L 496 409 L 495 408 L 494 408 L 493 407 "></path>
        <path fill="none" stroke="#fa00fa" stroke-width="3" d="M 533 401 L 532 402 L 531 402 L 526 407 L 526 408 L 524 410 L 524 411 L 522 413 L 522 414 L 518 418 L 517 418 L 515 420 L 515 421 L 514 422 L 514 428 L 515 429 L 515 431 L 516 432 L 516 441 L 517 442 L 517 443 L 518 443 L 519 444 L 522 444 L 523 443 L 524 443 L 525 442 L 525 436 L 524 435 L 524 434 L 523 433 L 523 432 L 522 431 L 522 425 L 523 424 L 523 423 L 530 416 L 530 415 L 532 413 L 532 412 L 534 410 L 535 410 L 536 409 L 537 409 L 538 408 L 541 408 L 542 409 L 544 409 L 547 412 L 548 412 L 549 413 L 551 413 L 553 411 L 553 407 L 550 404 L 548 404 L 547 403 L 545 403 L 544 402 L 542 402 L 541 401 "></path>
        <path fill="none" stroke="#fa00fa" stroke-width="3" d="M 540 356 L 539 357 L 538 357 L 536 359 L 535 359 L 532 362 L 531 362 L 530 363 L 529 363 L 527 365 L 526 365 L 523 368 L 523 369 L 522 370 L 522 372 L 521 373 L 521 377 L 522 378 L 522 379 L 523 380 L 523 381 L 524 382 L 524 383 L 526 385 L 526 386 L 529 389 L 530 389 L 531 390 L 545 390 L 546 389 L 547 389 L 550 386 L 550 384 L 549 383 L 549 382 L 547 380 L 544 380 L 543 381 L 542 381 L 541 382 L 540 382 L 539 383 L 534 383 L 529 378 L 529 373 L 533 369 L 534 369 L 535 368 L 536 368 L 537 367 L 540 367 L 541 366 L 543 366 L 545 364 L 545 363 L 546 362 L 546 361 L 545 360 L 545 359 L 543 357 L 542 357 L 541 356 "></path>
        <path fill="none" stroke="#fa00fa" stroke-width="3" d="M 469 356 L 467 358 L 467 362 L 468 363 L 468 364 L 469 365 L 469 366 L 468 367 L 468 368 L 467 369 L 467 373 L 468 374 L 469 374 L 470 375 L 473 375 L 474 374 L 477 374 L 480 377 L 480 380 L 479 381 L 479 382 L 478 383 L 478 387 L 479 388 L 479 389 L 480 389 L 481 390 L 483 390 L 484 391 L 486 391 L 487 392 L 488 392 L 489 393 L 494 393 L 496 391 L 496 387 L 495 386 L 495 385 L 494 385 L 493 384 L 492 384 L 491 383 L 489 383 L 486 380 L 486 377 L 484 375 L 482 375 L 481 374 L 479 374 L 471 366 L 472 365 L 472 364 L 474 362 L 475 362 L 476 361 L 476 359 L 474 357 L 473 357 L 472 356 "></path>
        <path fill="none" stroke="#00fafa" stroke-width="3" d="M 492 444 L 499 444 L 504 449 L 504 451 L 505 452 L 505 456 L 504 457 L 504 458 L 500 462 L 498 462 L 497 463 L 494 463 L 493 462 L 492 462 L 488 458 L 488 456 L 487 455 L 487 451 L 488 450 L 488 448 "></path>
        <path fill="none" stroke="#fa00fa" stroke-width="3" d="M 452 443 L 449 446 L 449 453 L 446 456 L 445 456 L 444 457 L 444 458 L 443 459 L 443 466 L 444 467 L 444 472 L 443 473 L 443 480 L 445 482 L 445 483 L 447 485 L 447 487 L 448 488 L 448 492 L 451 495 L 452 495 L 453 496 L 453 492 L 452 491 L 452 490 L 451 489 L 451 488 L 450 487 L 450 486 L 449 485 L 449 481 L 448 480 L 448 474 L 447 473 L 447 467 L 448 466 L 448 462 L 449 461 L 449 458 L 450 457 L 450 454 L 451 453 L 452 453 L 457 448 L 457 447 L 456 446 L 456 445 L 454 443 "></path>
        <path fill="none" stroke="#fa00fa" stroke-width="3" d="M 507 383 L 506 384 L 505 384 L 502 387 L 502 390 L 503 391 L 503 392 L 504 392 L 505 393 L 512 393 L 515 396 L 515 397 L 518 400 L 522 400 L 524 398 L 524 393 L 522 391 L 521 391 L 520 390 L 518 390 L 513 385 L 512 385 L 511 384 L 510 384 L 509 383 "></path>
        <path fill="none" stroke="#fa00fa" stroke-width="3" d="M 556 353 L 554 355 L 554 357 L 553 358 L 553 359 L 554 360 L 554 364 L 553 365 L 553 366 L 551 368 L 551 369 L 550 370 L 550 372 L 551 373 L 551 374 L 553 376 L 557 376 L 559 374 L 559 373 L 560 372 L 560 368 L 559 367 L 560 366 L 560 364 L 563 361 L 563 359 L 564 358 L 564 357 L 563 356 L 563 355 L 561 353 "></path>
        <path fill="none" stroke="#fa00fa" stroke-width="3" d="M 517 474 L 516 475 L 515 475 L 512 478 L 511 478 L 510 479 L 504 479 L 503 480 L 502 480 L 502 481 L 501 482 L 501 485 L 502 486 L 502 487 L 503 487 L 504 488 L 508 488 L 510 486 L 511 486 L 513 484 L 521 484 L 523 482 L 523 481 L 524 480 L 524 479 L 523 478 L 523 477 L 522 476 L 522 475 L 521 475 L 520 474 "></path>
        <path fill="none" stroke="#fa00fa" stroke-width="3" d="M 527 494 L 523 498 L 523 500 L 522 501 L 522 502 L 523 503 L 523 506 L 522 507 L 522 513 L 523 514 L 523 515 L 525 517 L 527 517 L 528 518 L 536 518 L 537 517 L 539 517 L 541 515 L 541 514 L 542 513 L 542 510 L 541 510 L 540 509 L 539 510 L 538 510 L 536 512 L 535 512 L 534 513 L 530 513 L 529 512 L 528 512 L 523 507 L 523 504 L 526 501 L 527 501 L 529 499 L 531 499 L 532 498 L 533 498 L 534 497 L 534 496 L 532 494 "></path>
        <path fill="none" stroke="#fa00fa" stroke-width="3" d="M 450 384 L 449 385 L 448 385 L 448 386 L 447 387 L 447 393 L 448 394 L 448 396 L 447 397 L 447 399 L 448 400 L 448 402 L 449 403 L 450 403 L 451 404 L 453 404 L 454 403 L 455 403 L 457 401 L 457 397 L 456 396 L 456 391 L 457 390 L 457 388 L 456 387 L 456 386 L 454 384 "></path>
        <path fill="none" stroke="#fa00fa" stroke-width="3" d="M 510 359 L 509 360 L 507 360 L 506 361 L 506 362 L 505 363 L 505 364 L 504 365 L 504 366 L 501 369 L 497 369 L 496 370 L 493 370 L 493 372 L 494 373 L 496 373 L 497 374 L 504 374 L 505 373 L 507 373 L 508 372 L 509 372 L 510 371 L 511 371 L 514 368 L 514 367 L 515 366 L 515 363 L 514 362 L 514 361 L 513 360 L 511 360 "></path>
        <path fill="none" stroke="#fa00fa" stroke-width="3" d="M 449 357 L 448 358 L 447 358 L 447 359 L 446 360 L 446 371 L 449 374 L 453 374 L 454 373 L 455 373 L 455 371 L 456 370 L 456 368 L 455 367 L 455 360 L 454 359 L 454 358 L 453 358 L 452 357 "></path>
        <path fill="none" stroke="#fa00fa" stroke-width="3" d="M 468 335 L 464 339 L 464 344 L 467 347 L 468 347 L 469 348 L 472 348 L 473 347 L 474 347 L 476 345 L 476 344 L 477 343 L 477 339 L 476 338 L 476 337 L 475 336 L 474 336 L 473 335 "></path>
        <path fill="none" stroke="#fa00fa" stroke-width="3" d="M 609 344 L 608 345 L 607 345 L 604 348 L 604 350 L 603 351 L 603 356 L 604 357 L 604 359 L 606 361 L 606 362 L 607 362 L 608 363 L 610 363 L 611 364 L 618 364 L 619 363 L 620 363 L 621 362 L 622 362 L 622 361 L 623 360 L 623 357 L 622 356 L 620 358 L 619 358 L 617 360 L 616 360 L 615 361 L 613 361 L 612 360 L 611 360 L 607 356 L 607 355 L 606 354 L 606 351 L 607 350 L 607 349 L 611 345 L 611 344 "></path>
        <path fill="none" stroke="#fa00fa" stroke-width="3" d="M 562 447 L 561 448 L 560 448 L 559 449 L 559 450 L 558 451 L 558 453 L 557 454 L 557 455 L 556 456 L 556 457 L 554 459 L 554 463 L 557 463 L 562 458 L 563 458 L 564 457 L 565 457 L 568 454 L 568 450 L 565 447 "></path>
        <path fill="none" stroke="#fa00fa" stroke-width="3" d="M 584 460 L 581 463 L 581 466 L 584 469 L 587 469 L 588 470 L 593 470 L 596 467 L 596 465 L 595 464 L 595 463 L 593 461 L 591 461 L 590 460 "></path>
        <path fill="none" stroke="#fa00fa" stroke-width="3" d="M 505 402 L 504 403 L 503 403 L 502 404 L 502 406 L 501 407 L 502 408 L 502 410 L 504 412 L 505 412 L 506 413 L 512 413 L 513 412 L 514 412 L 514 411 L 515 410 L 515 407 L 511 403 L 510 403 L 509 402 "></path>
        <path fill="none" stroke="#fa00fa" stroke-width="3" d="M 574 504 L 572 506 L 572 507 L 568 511 L 567 511 L 566 512 L 563 512 L 562 511 L 560 511 L 559 510 L 558 510 L 557 511 L 557 514 L 558 515 L 559 515 L 560 516 L 569 516 L 570 515 L 571 515 L 572 514 L 573 514 L 575 512 L 575 511 L 576 510 L 576 505 L 575 504 "></path>
        <path fill="none" stroke="#fa00fa" stroke-width="3" d="M 523 453 L 521 455 L 521 460 L 523 462 L 523 463 L 524 464 L 525 464 L 526 465 L 528 465 L 529 466 L 530 466 L 531 465 L 532 465 L 532 463 L 531 462 L 531 460 L 530 459 L 530 456 L 529 455 L 529 454 L 528 453 "></path>
        <path fill="none" stroke="#fa00fa" stroke-width="3" d="M 536 439 L 535 440 L 534 440 L 533 441 L 533 442 L 532 443 L 532 445 L 533 446 L 533 447 L 536 450 L 540 450 L 541 449 L 542 449 L 543 448 L 543 446 L 544 445 L 544 444 L 543 443 L 543 442 L 540 439 "></path>
        <path fill="none" stroke="#fa00fa" stroke-width="3" d="M 572 435 L 570 437 L 570 442 L 571 443 L 571 444 L 572 445 L 573 445 L 574 446 L 577 446 L 578 445 L 579 445 L 580 444 L 580 438 L 577 435 "></path>
        <path fill="none" stroke="#fa00fa" stroke-width="3" d="M 492 346 L 491 347 L 490 347 L 488 349 L 488 351 L 487 352 L 487 357 L 492 357 L 493 356 L 494 356 L 495 355 L 496 355 L 497 354 L 497 353 L 498 352 L 498 349 L 496 347 L 495 347 L 494 346 "></path>
        <path fill="none" stroke="#fa00fa" stroke-width="3" d="M 576 474 L 574 476 L 574 481 L 576 483 L 581 483 L 583 481 L 583 476 L 581 474 "></path>
        <path fill="none" stroke="#fa00fa" stroke-width="3" d="M 503 515 L 501 517 L 500 517 L 499 518 L 498 518 L 497 519 L 495 519 L 494 520 L 494 521 L 495 522 L 497 522 L 498 523 L 501 523 L 502 522 L 503 522 L 504 521 L 505 521 L 506 520 L 506 519 L 507 518 L 507 516 L 506 515 "></path>
        <path fill="none" stroke="#fa00fa" stroke-width="3" d="M 465 514 L 465 517 L 467 519 L 468 519 L 469 520 L 470 520 L 471 521 L 473 521 L 474 522 L 476 522 L 477 523 L 481 523 L 482 522 L 483 522 L 483 521 L 482 520 L 474 520 L 473 519 L 472 519 L 468 515 L 467 515 L 466 514 "></path>
        <path fill="none" stroke="#fa00fa" stroke-width="3" d="M 465 449 L 464 450 L 463 450 L 463 455 L 465 457 L 467 457 L 468 456 L 469 456 L 470 455 L 470 450 L 469 450 L 468 449 "></path>
        <path fill="none" stroke="#fa00fa" stroke-width="3" d="M 554 433 L 553 434 L 552 434 L 551 435 L 550 435 L 550 437 L 551 438 L 552 438 L 553 439 L 556 439 L 559 436 L 559 434 L 558 433 "></path>
    </g>
</svg>
