<svg xmlns="http://www.w3.org/2000/svg" xmlns:xlink="http://www.w3.org/1999/xlink" version="1.1" x="0" y="0" width="1056px" height="816px">
    <g id="rootLayer" transform="translate(0.000000, 0.000000)">
        <path fill="none" stroke="#00fafa" stroke-width="3" d="M 553 247 L 554 246 L 557 246 L 560 249 L 560 254 L 557 257 L 557 258 L 554 261 L 553 261 L 552 262 L 551 262 L 548 265 L 548 270 L 547 271 L 547 272 L 546 273 L 541 273 L 540 272 L 532 272 L 531 273 L 529 273 L 528 274 L 527 274 L 526 275 L 523 275 L 522 274 L 521 274 L 519 272 L 519 267 L 520 266 L 520 261 L 521 260 L 521 258 L 522 257 L 522 256 L 523 255 L 523 251 L 526 248 L 527 249 L 528 249 L 529 250 L 530 250 L 531 251 L 532 251 L 533 252 L 535 252 L 536 253 L 539 253 L 540 252 L 542 252 L 543 251 L 544 251 L 545 250 L 546 250 L 547 249 L 548 249 L 549 248 L 550 248 L 551 247 "></path>
        <path fill="none" stroke="#00fafa" stroke-width="3" d="M 708 576 L 712 576 L 714 578 L 714 596 L 715 597 L 715 599 L 712 602 L 709 602 L 708 601 L 706 601 L 705 600 L 704 600 L 703 599 L 700 599 L 699 600 L 698 600 L 697 601 L 696 601 L 694 603 L 693 603 L 692 604 L 691 604 L 690 605 L 689 605 L 687 603 L 687 598 L 688 597 L 688 596 L 689 595 L 689 594 L 690 593 L 690 589 L 689 588 L 689 586 L 688 585 L 688 583 L 687 582 L 687 581 L 689 579 L 693 579 L 694 580 L 695 580 L 696 581 L 702 581 L 703 580 L 704 580 "></path>
        <path fill="none" stroke="#00fafa" stroke-width="3" d="M 765 354 L 766 353 L 768 353 L 769 354 L 770 354 L 773 357 L 773 358 L 776 361 L 777 361 L 778 362 L 779 362 L 781 364 L 782 364 L 784 366 L 784 368 L 785 369 L 784 370 L 784 372 L 781 375 L 780 375 L 779 376 L 776 376 L 775 375 L 766 375 L 764 377 L 763 377 L 763 378 L 761 380 L 760 380 L 759 381 L 754 381 L 750 377 L 750 376 L 749 375 L 749 370 L 753 366 L 754 366 L 755 365 L 756 365 L 761 360 L 761 359 L 762 358 L 762 357 L 763 356 L 763 355 L 764 354 "></path>
        <path fill="none" stroke="#00fafa" stroke-width="3" d="M 764 301 L 765 300 L 768 303 L 768 304 L 767 305 L 767 307 L 766 308 L 766 309 L 765 310 L 765 316 L 766 317 L 766 318 L 769 321 L 769 323 L 770 324 L 767 327 L 755 327 L 754 328 L 751 328 L 750 329 L 747 329 L 746 330 L 745 329 L 744 329 L 743 328 L 743 327 L 742 326 L 742 325 L 743 324 L 743 323 L 744 322 L 744 321 L 745 320 L 745 319 L 746 318 L 746 314 L 745 313 L 745 312 L 744 311 L 744 309 L 743 308 L 743 306 L 745 304 L 748 304 L 749 305 L 751 305 L 752 306 L 755 306 L 756 305 L 757 305 L 758 304 L 759 304 L 762 301 "></path>
        <path fill="none" stroke="#00fafa" stroke-width="3" d="M 432 191 L 436 191 L 438 193 L 438 194 L 437 195 L 437 197 L 436 198 L 436 199 L 435 200 L 435 206 L 437 208 L 437 209 L 438 210 L 438 211 L 439 212 L 439 214 L 437 216 L 427 216 L 426 217 L 422 217 L 421 218 L 415 218 L 412 215 L 412 213 L 413 212 L 413 211 L 414 210 L 414 209 L 415 208 L 415 201 L 414 200 L 414 198 L 413 197 L 413 196 L 416 193 L 417 193 L 418 194 L 420 194 L 421 195 L 427 195 L 429 193 L 430 193 "></path>
        <path fill="none" stroke="#00fafa" stroke-width="3" d="M 156 413 L 157 412 L 161 412 L 163 414 L 163 416 L 162 417 L 162 418 L 161 419 L 161 420 L 160 421 L 160 422 L 159 423 L 159 428 L 160 429 L 160 430 L 161 431 L 161 436 L 159 438 L 158 438 L 157 439 L 155 439 L 154 440 L 153 440 L 152 441 L 149 441 L 148 440 L 142 440 L 141 439 L 140 439 L 138 437 L 138 435 L 139 434 L 139 432 L 141 430 L 141 428 L 142 427 L 142 425 L 141 424 L 141 422 L 140 421 L 140 420 L 139 419 L 139 418 L 138 417 L 139 416 L 139 415 L 140 414 L 143 414 L 144 415 L 147 415 L 148 416 L 149 416 L 150 415 L 153 415 L 155 413 "></path>
        <path fill="none" stroke="#00fafa" stroke-width="3" d="M 267 303 L 268 302 L 269 302 L 271 304 L 271 308 L 270 309 L 270 312 L 269 313 L 269 314 L 270 315 L 270 317 L 271 318 L 271 319 L 273 321 L 273 322 L 274 323 L 274 326 L 272 328 L 269 328 L 268 327 L 267 327 L 266 326 L 265 326 L 264 325 L 257 325 L 256 326 L 255 326 L 253 328 L 251 328 L 250 329 L 247 326 L 247 324 L 248 323 L 248 322 L 249 321 L 249 320 L 250 319 L 250 312 L 249 311 L 249 310 L 248 309 L 248 308 L 247 307 L 247 304 L 248 303 L 252 303 L 253 304 L 254 304 L 255 305 L 257 305 L 258 306 L 260 306 L 261 305 L 263 305 L 264 304 L 265 304 L 266 303 "></path>
        <path fill="none" stroke="#00fafa" stroke-width="3" d="M 707 519 L 708 518 L 713 518 L 714 519 L 715 519 L 719 523 L 719 528 L 718 529 L 718 541 L 719 542 L 719 547 L 716 550 L 715 550 L 714 551 L 712 551 L 711 552 L 710 552 L 709 551 L 707 551 L 706 550 L 705 550 L 702 547 L 702 543 L 703 542 L 703 539 L 704 538 L 704 532 L 703 531 L 703 528 L 702 527 L 702 523 L 706 519 "></path>
        <path fill="none" stroke="#00fafa" stroke-width="3" d="M 610 76 L 616 76 L 617 77 L 618 77 L 620 79 L 620 80 L 621 81 L 621 85 L 622 86 L 622 89 L 623 90 L 623 92 L 624 93 L 624 95 L 625 96 L 625 97 L 626 98 L 626 99 L 628 101 L 628 106 L 627 107 L 627 108 L 626 109 L 626 110 L 625 111 L 624 111 L 623 112 L 618 112 L 614 108 L 614 107 L 613 106 L 613 100 L 612 99 L 612 98 L 611 97 L 611 95 L 610 94 L 610 92 L 609 91 L 609 90 L 607 88 L 607 87 L 606 86 L 606 81 L 607 80 L 607 79 "></path>
        <path fill="none" stroke="#00fafa" stroke-width="3" d="M 314 75 L 321 75 L 324 78 L 324 79 L 325 80 L 325 81 L 327 83 L 332 83 L 333 82 L 335 82 L 336 83 L 336 84 L 339 87 L 341 87 L 342 88 L 345 88 L 347 90 L 347 95 L 345 97 L 345 98 L 343 100 L 342 100 L 341 101 L 340 101 L 339 102 L 335 102 L 332 99 L 332 97 L 331 96 L 331 94 L 329 92 L 328 92 L 327 91 L 326 92 L 324 92 L 323 93 L 321 93 L 319 91 L 319 90 L 318 89 L 317 89 L 316 88 L 315 88 L 311 84 L 311 83 L 310 82 L 310 80 L 311 79 L 311 78 "></path>
        <path fill="none" stroke="#00fafa" stroke-width="3" d="M 605 217 L 606 216 L 612 216 L 613 217 L 614 217 L 618 221 L 618 222 L 619 223 L 619 225 L 618 226 L 618 227 L 616 229 L 616 230 L 615 231 L 615 232 L 614 233 L 614 235 L 613 236 L 613 238 L 612 239 L 612 242 L 611 243 L 611 244 L 609 246 L 608 246 L 607 247 L 602 247 L 601 246 L 600 246 L 596 242 L 596 241 L 595 240 L 595 239 L 596 238 L 596 237 L 597 236 L 597 235 L 599 233 L 599 232 L 600 231 L 600 229 L 601 228 L 601 225 L 602 224 L 602 219 L 604 217 "></path>
        <path fill="none" stroke="#00fafa" stroke-width="3" d="M 889 133 L 890 132 L 895 132 L 896 133 L 897 133 L 900 136 L 900 137 L 901 138 L 901 141 L 900 142 L 900 143 L 898 145 L 898 146 L 897 147 L 897 149 L 896 150 L 896 151 L 894 153 L 894 154 L 893 155 L 893 157 L 892 158 L 892 159 L 888 163 L 882 163 L 878 159 L 878 158 L 877 157 L 877 155 L 878 154 L 878 153 L 879 152 L 879 151 L 880 150 L 880 149 L 881 148 L 881 146 L 882 145 L 882 144 L 883 143 L 883 142 L 884 141 L 884 140 L 885 139 L 885 137 L 886 136 L 886 135 L 888 133 "></path>
        <path fill="none" stroke="#00fafa" stroke-width="3" d="M 844 344 L 845 343 L 849 343 L 850 344 L 851 344 L 853 346 L 853 347 L 854 348 L 854 352 L 853 353 L 853 354 L 854 355 L 854 357 L 855 358 L 855 359 L 856 360 L 856 361 L 855 362 L 855 367 L 858 370 L 858 371 L 859 372 L 859 376 L 858 377 L 858 378 L 857 379 L 856 379 L 855 380 L 853 380 L 852 379 L 850 379 L 846 375 L 846 372 L 845 371 L 845 368 L 843 366 L 843 365 L 842 364 L 842 357 L 841 356 L 841 355 L 839 353 L 839 348 L 843 344 "></path>
        <path fill="none" stroke="#00fafa" stroke-width="3" d="M 803 197 L 804 196 L 807 196 L 808 197 L 810 197 L 813 200 L 813 201 L 814 202 L 814 207 L 811 210 L 810 210 L 809 211 L 808 211 L 807 212 L 806 212 L 804 214 L 803 214 L 801 216 L 800 216 L 793 223 L 788 223 L 785 220 L 785 219 L 784 218 L 784 214 L 785 213 L 785 211 L 789 207 L 790 207 L 792 205 L 793 205 L 795 203 L 796 203 L 802 197 "></path>
        <path fill="none" stroke="#00fafa" stroke-width="3" d="M 629 767 L 630 766 L 632 766 L 633 767 L 634 767 L 636 769 L 636 770 L 638 772 L 639 772 L 640 773 L 641 773 L 642 774 L 642 775 L 643 776 L 643 779 L 644 780 L 644 781 L 645 782 L 645 785 L 644 786 L 644 787 L 640 791 L 639 791 L 638 792 L 634 792 L 632 790 L 631 790 L 630 789 L 629 789 L 628 788 L 627 788 L 625 786 L 625 784 L 624 783 L 624 782 L 621 779 L 621 778 L 620 777 L 620 775 L 621 774 L 621 773 L 626 768 L 627 768 L 628 767 "></path>
        <path fill="none" stroke="#00fafa" stroke-width="3" d="M 607 706 L 608 705 L 612 705 L 616 709 L 617 709 L 618 710 L 619 710 L 621 712 L 621 713 L 622 714 L 622 715 L 623 716 L 623 717 L 626 720 L 626 723 L 625 724 L 625 725 L 620 730 L 615 730 L 612 727 L 610 727 L 609 726 L 608 726 L 606 724 L 606 723 L 605 722 L 605 721 L 600 716 L 600 714 L 601 713 L 601 712 L 603 710 L 603 709 L 606 706 "></path>
        <path fill="none" stroke="#00fafa" stroke-width="3" d="M 522 469 L 523 468 L 526 468 L 527 469 L 528 469 L 532 473 L 533 473 L 534 474 L 536 474 L 538 476 L 539 476 L 541 478 L 541 479 L 542 480 L 542 482 L 543 483 L 543 485 L 544 486 L 544 487 L 545 488 L 545 490 L 543 492 L 539 492 L 538 491 L 531 491 L 530 492 L 529 492 L 528 493 L 527 493 L 526 494 L 522 494 L 520 492 L 520 489 L 522 487 L 522 486 L 524 484 L 524 483 L 525 482 L 525 478 L 524 477 L 524 476 L 523 475 L 523 474 L 522 473 "></path>
        <path fill="none" stroke="#00fafa" stroke-width="3" d="M 483 660 L 484 659 L 485 659 L 486 660 L 487 660 L 490 663 L 490 671 L 487 674 L 487 675 L 479 683 L 478 683 L 476 685 L 473 685 L 467 679 L 467 678 L 466 677 L 466 673 L 470 669 L 471 669 L 476 664 L 477 664 L 478 663 L 479 663 L 482 660 "></path>
        <path fill="none" stroke="#00fafa" stroke-width="3" d="M 518 404 L 519 403 L 524 403 L 529 408 L 529 409 L 530 410 L 530 411 L 531 412 L 531 419 L 526 424 L 520 424 L 519 423 L 518 423 L 515 420 L 515 419 L 514 418 L 514 416 L 513 415 L 513 411 L 514 410 L 514 408 L 515 407 L 515 406 L 517 404 "></path>
        <path fill="none" stroke="#00fafa" stroke-width="3" d="M 347 368 L 348 367 L 352 367 L 356 371 L 356 377 L 355 378 L 355 379 L 354 380 L 353 380 L 351 382 L 350 382 L 349 383 L 347 383 L 346 384 L 345 384 L 344 385 L 337 385 L 334 382 L 334 381 L 333 380 L 333 378 L 338 373 L 339 373 L 340 372 L 341 372 L 343 370 L 344 370 L 346 368 "></path>
        <path fill="none" stroke="#00fafa" stroke-width="3" d="M 518 527 L 519 526 L 524 526 L 525 527 L 526 527 L 529 530 L 529 531 L 530 532 L 530 536 L 529 537 L 529 538 L 523 544 L 521 544 L 520 545 L 516 545 L 515 544 L 514 544 L 512 542 L 512 541 L 511 540 L 511 533 L 513 531 L 513 530 L 514 529 L 515 529 L 517 527 "></path>
        <path fill="none" stroke="#00fafa" stroke-width="3" d="M 504 356 L 505 355 L 506 355 L 507 356 L 509 356 L 510 357 L 511 357 L 514 360 L 514 361 L 515 362 L 515 368 L 514 369 L 514 370 L 511 373 L 510 373 L 509 374 L 502 374 L 497 369 L 497 367 L 496 366 L 496 364 L 497 363 L 497 361 L 502 356 "></path>
        <path fill="none" stroke="#00fafa" stroke-width="3" d="M 459 482 L 460 481 L 461 481 L 462 482 L 464 482 L 465 483 L 466 483 L 469 486 L 469 487 L 470 488 L 470 494 L 469 495 L 469 496 L 465 500 L 463 500 L 462 501 L 461 501 L 460 500 L 458 500 L 457 499 L 456 499 L 453 496 L 453 495 L 452 494 L 452 488 L 453 487 L 453 486 L 457 482 "></path>
        <path fill="none" stroke="#00fafa" stroke-width="3" d="M 505 304 L 512 304 L 513 305 L 514 305 L 517 308 L 517 309 L 518 310 L 518 315 L 517 316 L 517 317 L 514 320 L 513 320 L 512 321 L 505 321 L 504 320 L 503 320 L 499 316 L 499 310 L 500 309 L 500 308 L 502 306 L 503 306 "></path>
        <path fill="none" stroke="#00fafa" stroke-width="3" d="M 431 335 L 432 334 L 438 334 L 443 339 L 443 341 L 444 342 L 444 345 L 443 346 L 443 347 L 442 348 L 442 349 L 439 352 L 437 352 L 436 353 L 433 353 L 432 352 L 431 352 L 427 348 L 427 347 L 426 346 L 426 340 L 427 339 L 427 338 L 430 335 "></path>
        <path fill="none" stroke="#00fafa" stroke-width="3" d="M 372 410 L 373 409 L 375 409 L 376 410 L 378 410 L 383 415 L 383 416 L 384 417 L 384 421 L 383 422 L 383 423 L 379 427 L 371 427 L 366 422 L 366 421 L 365 420 L 365 415 L 370 410 "></path>
        <path fill="none" stroke="#00fafa" stroke-width="3" d="M 644 435 L 645 434 L 653 434 L 654 435 L 655 435 L 658 438 L 658 439 L 659 440 L 659 443 L 658 444 L 658 445 L 654 449 L 644 449 L 643 448 L 642 448 L 641 447 L 640 447 L 638 445 L 638 439 L 642 435 "></path>
        <path fill="none" stroke="#00fafa" stroke-width="3" d="M 663 373 L 664 372 L 667 372 L 668 373 L 670 373 L 671 374 L 672 374 L 674 376 L 675 376 L 677 378 L 677 379 L 678 380 L 678 381 L 679 382 L 679 384 L 678 385 L 678 386 L 674 390 L 669 390 L 668 389 L 667 389 L 666 388 L 665 388 L 660 383 L 660 382 L 659 381 L 659 376 L 662 373 "></path>
        <path fill="none" stroke="#00fafa" stroke-width="3" d="M 623 389 L 624 388 L 627 388 L 630 391 L 630 395 L 629 396 L 629 400 L 628 401 L 628 405 L 627 406 L 627 407 L 625 409 L 624 409 L 623 410 L 620 410 L 619 409 L 618 409 L 615 406 L 615 404 L 614 403 L 614 402 L 615 401 L 615 397 L 616 396 L 616 395 L 617 394 L 617 393 L 620 390 L 621 390 L 622 389 "></path>
        <path fill="none" stroke="#00fafa" stroke-width="3" d="M 682 456 L 689 456 L 693 460 L 693 461 L 694 462 L 694 467 L 693 468 L 693 469 L 690 472 L 689 472 L 688 473 L 681 473 L 676 468 L 676 463 L 677 462 L 677 461 L 678 460 L 678 459 L 679 458 L 680 458 "></path>
        <path fill="none" stroke="#00fafa" stroke-width="3" d="M 650 209 L 651 208 L 659 208 L 663 212 L 663 213 L 664 214 L 664 216 L 663 217 L 663 218 L 662 219 L 662 220 L 660 222 L 659 222 L 658 223 L 657 223 L 656 224 L 650 224 L 649 223 L 648 223 L 645 220 L 645 219 L 644 218 L 644 216 L 645 215 L 645 213 L 649 209 "></path>
        <path fill="none" stroke="#00fafa" stroke-width="3" d="M 633 256 L 634 255 L 638 255 L 639 256 L 640 256 L 643 259 L 643 261 L 644 262 L 644 263 L 643 264 L 643 266 L 642 267 L 642 268 L 639 271 L 638 271 L 637 272 L 636 272 L 635 273 L 631 273 L 630 272 L 629 272 L 626 269 L 626 268 L 625 267 L 625 264 L 626 263 L 626 262 L 632 256 "></path>
        <path fill="none" stroke="#00fafa" stroke-width="3" d="M 285 261 L 286 260 L 289 260 L 290 261 L 291 261 L 295 265 L 295 267 L 296 268 L 296 271 L 295 272 L 295 274 L 291 278 L 289 278 L 288 279 L 287 279 L 286 278 L 284 278 L 280 274 L 280 273 L 279 272 L 279 267 L 280 266 L 280 265 L 284 261 "></path>
        <path fill="none" stroke="#00fafa" stroke-width="3" d="M 555 127 L 556 126 L 560 126 L 561 127 L 562 127 L 566 131 L 566 132 L 567 133 L 567 137 L 566 138 L 566 139 L 563 142 L 562 142 L 561 143 L 555 143 L 554 142 L 553 142 L 550 139 L 550 137 L 549 136 L 549 133 L 550 132 L 550 131 L 554 127 "></path>
        <path fill="none" stroke="#00fafa" stroke-width="3" d="M 780 408 L 787 408 L 788 409 L 789 409 L 791 411 L 791 412 L 792 413 L 792 415 L 793 416 L 793 417 L 792 418 L 792 420 L 787 425 L 782 425 L 781 424 L 780 424 L 776 420 L 776 419 L 775 418 L 775 414 L 776 413 L 776 412 "></path>
        <path fill="none" stroke="#00fafa" stroke-width="3" d="M 276 380 L 277 379 L 282 379 L 283 380 L 284 380 L 287 383 L 287 384 L 288 385 L 288 390 L 287 391 L 287 392 L 283 396 L 276 396 L 272 392 L 272 391 L 271 390 L 271 385 L 272 384 L 272 383 L 275 380 "></path>
        <path fill="none" stroke="#00fafa" stroke-width="3" d="M 816 300 L 817 299 L 819 299 L 820 300 L 822 300 L 826 304 L 826 305 L 827 306 L 827 307 L 826 308 L 826 310 L 821 315 L 820 315 L 819 316 L 815 316 L 814 315 L 813 315 L 809 311 L 809 310 L 808 309 L 808 306 L 809 305 L 809 304 L 813 300 "></path>
        <path fill="none" stroke="#00fafa" stroke-width="3" d="M 932 439 L 933 438 L 935 438 L 936 439 L 937 439 L 938 440 L 938 441 L 940 443 L 940 445 L 941 446 L 941 450 L 942 451 L 942 453 L 941 454 L 941 456 L 937 460 L 932 460 L 929 457 L 929 441 L 931 439 "></path>
        <path fill="none" stroke="#00fafa" stroke-width="3" d="M 326 689 L 327 688 L 330 688 L 331 689 L 332 689 L 334 691 L 334 697 L 333 698 L 333 699 L 332 700 L 332 701 L 326 707 L 321 707 L 318 704 L 318 703 L 317 702 L 317 699 L 318 698 L 318 697 L 319 696 L 319 695 L 325 689 "></path>
        <path fill="none" stroke="#00fafa" stroke-width="3" d="M 571 746 L 572 745 L 576 745 L 577 746 L 578 746 L 581 749 L 581 751 L 582 752 L 582 753 L 581 754 L 581 756 L 580 757 L 580 758 L 578 760 L 577 760 L 575 762 L 569 762 L 565 758 L 565 757 L 564 756 L 564 754 L 565 753 L 565 751 L 566 750 L 566 749 L 568 747 L 569 747 L 570 746 "></path>
        <path fill="none" stroke="#00fafa" stroke-width="3" d="M 361 171 L 362 170 L 366 170 L 367 171 L 368 171 L 371 174 L 371 175 L 372 176 L 372 182 L 367 187 L 361 187 L 360 186 L 359 186 L 356 183 L 356 181 L 355 180 L 355 178 L 356 177 L 356 175 L 360 171 "></path>
        <path fill="none" stroke="#00fafa" stroke-width="3" d="M 609 356 L 610 355 L 612 355 L 613 356 L 615 356 L 616 357 L 617 357 L 620 360 L 620 361 L 621 362 L 621 365 L 617 369 L 616 369 L 615 370 L 614 370 L 613 371 L 606 371 L 603 368 L 603 366 L 602 365 L 602 364 L 603 363 L 603 361 L 604 360 L 604 359 L 606 357 L 607 357 L 608 356 "></path>
        <path fill="none" stroke="#00fafa" stroke-width="3" d="M 463 61 L 464 60 L 467 60 L 468 61 L 469 61 L 472 64 L 472 65 L 473 66 L 473 71 L 472 72 L 472 73 L 469 76 L 468 76 L 467 77 L 463 77 L 462 76 L 461 76 L 460 75 L 459 75 L 458 74 L 458 73 L 456 71 L 456 67 L 457 66 L 457 65 L 461 61 "></path>
        <path fill="none" stroke="#00fafa" stroke-width="3" d="M 343 597 L 344 596 L 346 596 L 347 597 L 349 597 L 352 600 L 352 601 L 353 602 L 353 608 L 352 609 L 352 610 L 350 612 L 349 612 L 348 613 L 342 613 L 341 612 L 340 612 L 338 610 L 338 609 L 337 608 L 337 602 L 338 601 L 338 600 L 341 597 "></path>
        <path fill="none" stroke="#00fafa" stroke-width="3" d="M 503 719 L 504 718 L 508 718 L 509 719 L 510 719 L 511 720 L 512 720 L 513 721 L 513 722 L 514 723 L 514 724 L 515 725 L 515 727 L 514 728 L 514 730 L 511 733 L 510 733 L 509 734 L 503 734 L 502 733 L 501 733 L 498 730 L 498 729 L 497 728 L 497 725 L 498 724 L 498 723 L 502 719 "></path>
        <path fill="none" stroke="#00fafa" stroke-width="3" d="M 425 636 L 426 635 L 431 635 L 432 636 L 433 636 L 436 639 L 436 640 L 437 641 L 437 647 L 436 648 L 436 649 L 435 650 L 434 650 L 433 651 L 432 651 L 431 652 L 429 652 L 428 651 L 426 651 L 421 646 L 421 645 L 420 644 L 420 642 L 421 641 L 421 640 L 422 639 L 422 638 L 424 636 "></path>
        <path fill="none" stroke="#00fafa" stroke-width="3" d="M 188 443 L 189 442 L 192 442 L 193 443 L 194 443 L 195 444 L 196 444 L 197 445 L 197 446 L 199 448 L 199 454 L 198 455 L 198 456 L 195 459 L 188 459 L 184 455 L 184 454 L 183 453 L 183 448 L 184 447 L 184 446 L 187 443 "></path>
        <path fill="none" stroke="#00fafa" stroke-width="3" d="M 367 681 L 368 680 L 371 680 L 372 681 L 373 681 L 376 684 L 376 685 L 377 686 L 377 691 L 376 692 L 376 693 L 372 697 L 371 697 L 370 698 L 368 698 L 367 697 L 365 697 L 362 694 L 362 693 L 361 692 L 361 688 L 362 687 L 362 685 L 366 681 "></path>
        <path fill="none" stroke="#00fafa" stroke-width="3" d="M 386 100 L 393 100 L 397 104 L 397 105 L 398 106 L 398 109 L 397 110 L 397 112 L 393 116 L 390 116 L 389 117 L 388 116 L 386 116 L 382 112 L 382 110 L 381 109 L 381 107 L 382 106 L 382 104 "></path>
        <path fill="none" stroke="#00fafa" stroke-width="3" d="M 10 647 L 11 646 L 12 646 L 13 647 L 18 647 L 19 648 L 20 648 L 24 652 L 24 657 L 20 661 L 12 661 L 11 662 L 10 661 L 9 661 L 8 660 L 8 658 L 7 657 L 7 651 L 8 650 L 8 648 L 9 647 "></path>
        <path fill="none" stroke="#00fafa" stroke-width="3" d="M 241 458 L 242 457 L 247 457 L 248 458 L 249 458 L 251 460 L 251 461 L 252 462 L 252 463 L 253 464 L 253 467 L 252 468 L 252 469 L 250 471 L 249 471 L 248 472 L 246 472 L 245 473 L 244 473 L 243 472 L 240 472 L 236 468 L 236 462 L 240 458 "></path>
        <path fill="none" stroke="#00fafa" stroke-width="3" d="M 350 123 L 351 122 L 355 122 L 356 123 L 357 123 L 360 126 L 360 127 L 361 128 L 361 132 L 360 133 L 360 134 L 357 137 L 356 137 L 355 138 L 350 138 L 349 137 L 348 137 L 345 134 L 345 133 L 344 132 L 344 129 L 345 128 L 345 127 L 349 123 "></path>
        <path fill="none" stroke="#00fafa" stroke-width="3" d="M 755 139 L 756 138 L 761 138 L 762 139 L 763 139 L 766 142 L 766 143 L 767 144 L 767 148 L 766 149 L 766 150 L 762 154 L 756 154 L 755 153 L 754 153 L 752 151 L 752 150 L 751 149 L 751 143 L 752 142 L 752 141 L 754 139 "></path>
        <path fill="none" stroke="#00fafa" stroke-width="3" d="M 780 700 L 786 700 L 790 704 L 790 706 L 791 707 L 791 709 L 790 710 L 790 712 L 785 717 L 781 717 L 780 716 L 779 716 L 776 713 L 776 711 L 775 710 L 775 707 L 776 706 L 776 704 "></path>
        <path fill="none" stroke="#00fafa" stroke-width="3" d="M 282 122 L 283 121 L 287 121 L 288 122 L 289 122 L 292 125 L 292 126 L 293 127 L 293 134 L 290 137 L 289 137 L 288 138 L 284 138 L 283 137 L 282 137 L 279 134 L 279 133 L 278 132 L 278 126 L 279 125 L 279 124 L 281 122 "></path>
        <path fill="none" stroke="#00fafa" stroke-width="3" d="M 129 163 L 134 163 L 135 164 L 136 164 L 137 165 L 138 165 L 140 167 L 141 167 L 144 170 L 144 171 L 145 172 L 145 174 L 140 179 L 136 179 L 135 178 L 134 178 L 132 176 L 131 176 L 129 174 L 129 173 L 127 171 L 127 170 L 126 169 L 126 166 "></path>
        <path fill="none" stroke="#00fafa" stroke-width="3" d="M 411 670 L 412 669 L 413 669 L 414 670 L 416 670 L 417 671 L 418 671 L 421 674 L 421 676 L 422 677 L 422 679 L 421 680 L 421 681 L 417 685 L 410 685 L 406 681 L 406 680 L 405 679 L 405 674 L 409 670 "></path>
        <path fill="none" stroke="#00fafa" stroke-width="3" d="M 355 721 L 356 720 L 358 720 L 359 721 L 360 721 L 361 722 L 362 722 L 364 724 L 364 725 L 365 726 L 365 731 L 360 736 L 354 736 L 353 735 L 352 735 L 350 733 L 350 732 L 349 731 L 349 725 L 353 721 "></path>
        <path fill="none" stroke="#00fafa" stroke-width="3" d="M 556 29 L 560 29 L 561 30 L 562 30 L 566 34 L 566 35 L 567 36 L 567 43 L 564 46 L 563 46 L 562 47 L 560 47 L 559 46 L 558 46 L 554 42 L 554 41 L 553 40 L 553 38 L 552 37 L 552 34 L 553 33 L 553 32 "></path>
        <path fill="none" stroke="#00fafa" stroke-width="3" d="M 60 245 L 61 244 L 65 244 L 66 245 L 67 245 L 69 247 L 70 247 L 74 251 L 74 254 L 73 255 L 73 256 L 71 258 L 69 258 L 68 259 L 67 259 L 66 258 L 65 258 L 64 257 L 62 257 L 60 255 L 59 255 L 58 254 L 57 254 L 55 252 L 55 251 L 54 250 L 54 248 L 56 246 L 57 246 L 58 245 "></path>
        <path fill="none" stroke="#00fafa" stroke-width="3" d="M 677 741 L 682 741 L 683 742 L 684 742 L 689 747 L 689 749 L 690 750 L 690 752 L 689 753 L 689 754 L 688 755 L 688 756 L 686 758 L 684 758 L 683 759 L 682 758 L 681 758 L 677 754 L 677 753 L 676 752 L 676 751 L 675 750 L 675 749 L 674 748 L 674 744 "></path>
        <path fill="none" stroke="#00fafa" stroke-width="3" d="M 169 588 L 170 587 L 172 587 L 173 588 L 175 588 L 178 591 L 178 592 L 179 593 L 179 598 L 174 603 L 168 603 L 164 599 L 164 598 L 163 597 L 163 593 L 164 592 L 164 591 L 167 588 "></path>
        <path fill="none" stroke="#00fafa" stroke-width="3" d="M 129 245 L 130 244 L 133 244 L 134 245 L 135 245 L 136 246 L 137 246 L 138 247 L 138 248 L 140 250 L 140 255 L 139 256 L 139 257 L 136 260 L 130 260 L 129 259 L 128 259 L 126 257 L 126 256 L 125 255 L 125 254 L 124 253 L 124 250 L 125 249 L 125 248 L 128 245 "></path>
        <path fill="none" stroke="#00fafa" stroke-width="3" d="M 104 441 L 110 441 L 111 442 L 112 442 L 114 444 L 114 445 L 115 446 L 115 451 L 114 452 L 114 453 L 112 455 L 111 455 L 110 456 L 109 456 L 108 457 L 106 457 L 105 456 L 103 456 L 100 453 L 100 451 L 99 450 L 99 448 L 100 447 L 100 445 "></path>
        <path fill="none" stroke="#00fafa" stroke-width="3" d="M 664 45 L 670 45 L 675 50 L 675 52 L 676 53 L 676 55 L 675 56 L 675 58 L 673 60 L 672 60 L 671 61 L 666 61 L 664 59 L 663 59 L 662 58 L 662 57 L 661 56 L 661 55 L 660 54 L 660 50 L 661 49 L 661 48 "></path>
        <path fill="none" stroke="#00fafa" stroke-width="3" d="M 91 512 L 96 512 L 100 516 L 100 524 L 99 525 L 99 526 L 98 527 L 98 528 L 96 530 L 94 530 L 93 531 L 92 530 L 91 530 L 88 527 L 88 526 L 87 525 L 87 517 L 88 516 L 88 515 "></path>
        <path fill="none" stroke="#00fafa" stroke-width="3" d="M 377 57 L 378 56 L 381 56 L 382 57 L 383 57 L 387 61 L 387 67 L 386 68 L 386 69 L 384 71 L 383 71 L 382 72 L 376 72 L 372 68 L 372 66 L 371 65 L 371 63 L 372 62 L 372 61 L 376 57 "></path>
        <path fill="none" stroke="#00fafa" stroke-width="3" d="M 449 22 L 450 21 L 451 21 L 452 22 L 454 22 L 458 26 L 458 27 L 459 28 L 459 31 L 458 32 L 458 33 L 455 36 L 454 36 L 453 37 L 448 37 L 447 36 L 446 36 L 443 33 L 443 26 L 447 22 "></path>
        <path fill="none" stroke="#00fafa" stroke-width="3" d="M 189 346 L 190 345 L 191 345 L 192 346 L 194 346 L 198 350 L 198 351 L 199 352 L 199 355 L 198 356 L 198 357 L 194 361 L 188 361 L 187 360 L 186 360 L 184 358 L 184 357 L 183 356 L 183 350 L 187 346 "></path>
        <path fill="none" stroke="#00fafa" stroke-width="3" d="M 396 454 L 400 454 L 401 455 L 402 455 L 404 457 L 405 457 L 407 459 L 408 459 L 409 460 L 409 461 L 410 462 L 410 466 L 407 469 L 406 469 L 405 470 L 401 470 L 400 469 L 399 469 L 394 464 L 394 463 L 393 462 L 393 458 L 394 457 L 394 456 "></path>
        <path fill="none" stroke="#00fafa" stroke-width="3" d="M 710 765 L 711 764 L 714 764 L 715 765 L 716 765 L 718 767 L 718 768 L 719 769 L 719 770 L 720 771 L 720 773 L 719 774 L 719 776 L 716 779 L 715 779 L 714 780 L 709 780 L 708 779 L 707 779 L 705 777 L 705 776 L 704 775 L 704 771 L 705 770 L 705 769 L 706 768 L 706 767 L 707 766 L 708 766 L 709 765 "></path>
        <path fill="none" stroke="#00fafa" stroke-width="3" d="M 940 633 L 941 632 L 948 632 L 949 633 L 950 633 L 953 636 L 953 642 L 950 645 L 949 645 L 948 646 L 942 646 L 941 645 L 940 645 L 937 642 L 937 641 L 936 640 L 936 637 L 937 636 L 937 635 L 939 633 "></path>
        <path fill="none" stroke="#00fafa" stroke-width="3" d="M 193 642 L 194 641 L 199 641 L 200 642 L 201 642 L 204 645 L 204 647 L 205 648 L 205 650 L 204 651 L 204 652 L 200 656 L 194 656 L 193 655 L 192 655 L 189 652 L 189 650 L 188 649 L 188 648 L 189 647 L 189 645 L 192 642 "></path>
        <path fill="none" stroke="#00fafa" stroke-width="3" d="M 864 746 L 865 745 L 870 745 L 874 749 L 874 751 L 875 752 L 874 753 L 874 756 L 870 760 L 869 760 L 868 761 L 864 761 L 863 760 L 862 760 L 860 758 L 860 757 L 859 756 L 859 751 L 861 749 L 861 748 L 863 746 "></path>
        <path fill="none" stroke="#00fafa" stroke-width="3" d="M 190 681 L 191 680 L 194 680 L 195 681 L 196 681 L 197 682 L 198 682 L 199 683 L 199 684 L 200 685 L 200 691 L 196 695 L 195 695 L 194 696 L 190 696 L 188 694 L 187 694 L 186 693 L 186 692 L 185 691 L 185 685 L 189 681 "></path>
        <path fill="none" stroke="#00fafa" stroke-width="3" d="M 814 734 L 824 734 L 825 735 L 826 735 L 830 739 L 830 742 L 829 743 L 829 744 L 827 746 L 825 746 L 824 747 L 823 746 L 818 746 L 817 745 L 816 745 L 815 744 L 814 744 L 811 741 L 811 737 "></path>
        <path fill="none" stroke="#00fafa" stroke-width="3" d="M 532 593 L 533 592 L 538 592 L 541 595 L 541 598 L 540 599 L 540 600 L 532 608 L 528 608 L 525 605 L 525 604 L 524 603 L 524 600 L 525 599 L 525 598 L 530 593 "></path>
        <path fill="none" stroke="#00fafa" stroke-width="3" d="M 827 391 L 828 390 L 829 391 L 831 391 L 832 392 L 833 392 L 834 393 L 835 393 L 837 395 L 838 395 L 840 397 L 840 398 L 841 399 L 841 401 L 840 402 L 840 403 L 839 404 L 838 404 L 837 405 L 834 405 L 833 404 L 830 404 L 829 403 L 828 403 L 827 402 L 826 402 L 823 399 L 823 398 L 822 397 L 822 395 L 823 394 L 823 393 L 825 391 "></path>
        <path fill="none" stroke="#00fafa" stroke-width="3" d="M 146 368 L 147 367 L 152 367 L 157 372 L 157 377 L 156 378 L 156 379 L 154 381 L 153 381 L 152 382 L 146 382 L 142 378 L 142 377 L 141 376 L 141 374 L 142 373 L 142 371 L 145 368 "></path>
        <path fill="none" stroke="#00fafa" stroke-width="3" d="M 963 248 L 964 247 L 970 247 L 971 248 L 972 248 L 974 250 L 974 251 L 975 252 L 975 255 L 974 256 L 974 257 L 973 258 L 973 259 L 972 260 L 971 260 L 970 261 L 969 261 L 968 262 L 965 262 L 964 261 L 963 261 L 959 257 L 959 252 L 960 251 L 960 250 L 962 248 "></path>
        <path fill="none" stroke="#00fafa" stroke-width="3" d="M 205 496 L 206 495 L 208 495 L 209 496 L 210 496 L 212 498 L 212 499 L 213 500 L 213 502 L 214 503 L 214 508 L 213 509 L 213 510 L 211 512 L 210 512 L 209 513 L 208 513 L 207 512 L 205 512 L 201 508 L 201 506 L 200 505 L 200 501 L 201 500 L 201 499 L 204 496 "></path>
        <path fill="none" stroke="#00fafa" stroke-width="3" d="M 754 207 L 755 206 L 760 206 L 762 208 L 762 209 L 763 210 L 763 218 L 762 219 L 762 220 L 760 222 L 759 222 L 758 223 L 755 223 L 754 222 L 753 222 L 751 220 L 751 219 L 750 218 L 750 216 L 749 215 L 749 214 L 750 213 L 750 211 L 751 210 L 751 209 L 753 207 "></path>
        <path fill="none" stroke="#00fafa" stroke-width="3" d="M 768 646 L 769 645 L 774 645 L 775 646 L 776 646 L 778 648 L 778 649 L 779 650 L 779 655 L 778 656 L 778 657 L 776 659 L 775 659 L 774 660 L 769 660 L 768 659 L 767 659 L 765 657 L 765 656 L 764 655 L 764 650 L 765 649 L 765 648 L 767 646 "></path>
        <path fill="none" stroke="#00fafa" stroke-width="3" d="M 960 171 L 961 170 L 964 170 L 965 171 L 966 171 L 969 174 L 969 176 L 970 177 L 970 179 L 969 180 L 969 182 L 965 186 L 963 186 L 962 187 L 961 186 L 959 186 L 956 183 L 956 181 L 955 180 L 955 177 L 956 176 L 956 175 L 957 174 L 957 173 L 959 171 "></path>
        <path fill="none" stroke="#00fafa" stroke-width="3" d="M 905 317 L 906 316 L 907 316 L 908 317 L 910 317 L 911 318 L 912 318 L 913 319 L 913 320 L 915 322 L 915 325 L 914 326 L 914 327 L 913 328 L 912 328 L 910 330 L 906 330 L 905 331 L 904 330 L 902 330 L 901 329 L 900 329 L 899 328 L 899 327 L 898 326 L 898 323 L 899 322 L 899 321 L 903 317 "></path>
        <path fill="none" stroke="#00fafa" stroke-width="3" d="M 125 58 L 126 57 L 129 57 L 130 58 L 131 58 L 134 61 L 134 63 L 135 64 L 135 65 L 134 66 L 134 67 L 133 68 L 133 69 L 131 71 L 130 71 L 129 72 L 124 72 L 123 71 L 122 71 L 120 69 L 120 68 L 119 67 L 119 63 L 120 62 L 120 61 L 122 59 L 123 59 L 124 58 "></path>
        <path fill="none" stroke="#00fafa" stroke-width="3" d="M 80 594 L 86 594 L 90 598 L 90 600 L 91 601 L 90 602 L 90 604 L 86 608 L 85 608 L 84 609 L 80 609 L 79 608 L 78 608 L 76 606 L 76 605 L 75 604 L 75 600 L 76 599 L 76 598 "></path>
        <path fill="none" stroke="#00fafa" stroke-width="3" d="M 558 611 L 561 611 L 565 615 L 565 620 L 564 621 L 564 622 L 563 623 L 563 624 L 561 626 L 560 626 L 559 627 L 553 627 L 550 624 L 550 620 L 551 619 L 551 618 L 554 615 L 554 614 L 555 613 L 556 613 "></path>
        <path fill="none" stroke="#00fafa" stroke-width="3" d="M 568 475 L 572 475 L 576 479 L 576 480 L 577 481 L 577 489 L 573 493 L 569 493 L 567 491 L 567 490 L 566 489 L 566 487 L 565 486 L 565 478 "></path>
        <path fill="none" stroke="#00fafa" stroke-width="3" d="M 161 750 L 162 749 L 165 749 L 166 750 L 167 750 L 171 754 L 171 759 L 170 760 L 170 761 L 168 763 L 167 763 L 166 764 L 161 764 L 160 763 L 159 763 L 157 761 L 157 760 L 156 759 L 156 755 L 157 754 L 157 753 L 160 750 "></path>
        <path fill="none" stroke="#00fafa" stroke-width="3" d="M 911 351 L 912 350 L 918 350 L 919 351 L 920 351 L 921 352 L 921 353 L 922 354 L 922 359 L 918 363 L 916 363 L 915 364 L 914 364 L 913 363 L 911 363 L 910 362 L 909 362 L 906 359 L 906 354 L 909 351 "></path>
        <path fill="none" stroke="#00fafa" stroke-width="3" d="M 84 90 L 88 90 L 89 91 L 90 91 L 93 94 L 93 95 L 94 96 L 94 99 L 93 100 L 93 101 L 90 104 L 89 104 L 88 105 L 84 105 L 79 100 L 79 96 L 80 95 L 80 94 "></path>
        <path fill="none" stroke="#00fafa" stroke-width="3" d="M 299 184 L 300 183 L 301 184 L 303 184 L 306 187 L 306 191 L 305 192 L 305 193 L 304 194 L 304 195 L 300 199 L 296 199 L 295 198 L 294 198 L 293 197 L 293 196 L 292 195 L 292 189 L 293 188 L 293 187 L 295 185 L 296 185 L 297 184 "></path>
        <path fill="none" stroke="#00fafa" stroke-width="3" d="M 824 524 L 825 523 L 831 523 L 835 527 L 835 529 L 836 530 L 836 532 L 835 533 L 835 535 L 833 537 L 831 537 L 830 538 L 829 537 L 827 537 L 821 531 L 821 526 L 823 524 "></path>
        <path fill="none" stroke="#00fafa" stroke-width="3" d="M 804 548 L 809 548 L 812 551 L 813 551 L 815 553 L 815 554 L 816 555 L 816 556 L 817 557 L 816 558 L 816 559 L 813 562 L 807 562 L 806 561 L 805 561 L 801 557 L 801 551 "></path>
        <path fill="none" stroke="#00fafa" stroke-width="3" d="M 969 129 L 970 128 L 971 128 L 972 129 L 973 129 L 976 132 L 976 133 L 977 134 L 977 138 L 976 139 L 976 140 L 973 143 L 972 143 L 971 144 L 969 144 L 968 143 L 967 143 L 966 142 L 965 142 L 964 141 L 964 140 L 963 139 L 963 134 L 965 132 L 965 131 L 966 130 L 967 130 L 968 129 "></path>
        <path fill="none" stroke="#00fafa" stroke-width="3" d="M 544 67 L 545 66 L 547 66 L 548 67 L 549 67 L 552 70 L 552 78 L 548 82 L 544 82 L 539 77 L 539 71 L 543 67 "></path>
        <path fill="none" stroke="#00fafa" stroke-width="3" d="M 47 737 L 53 737 L 56 740 L 56 741 L 57 742 L 57 745 L 56 746 L 56 747 L 52 751 L 47 751 L 46 750 L 45 750 L 43 748 L 43 747 L 42 746 L 42 743 L 43 742 L 43 741 "></path>
        <path fill="none" stroke="#00fafa" stroke-width="3" d="M 955 72 L 958 72 L 962 76 L 962 81 L 961 82 L 961 84 L 957 88 L 952 88 L 949 85 L 949 79 L 950 78 L 950 77 "></path>
        <path fill="none" stroke="#00fafa" stroke-width="3" d="M 238 494 L 239 493 L 240 494 L 243 494 L 247 498 L 247 504 L 243 508 L 242 508 L 241 509 L 239 509 L 238 508 L 237 508 L 235 506 L 235 505 L 234 504 L 234 497 L 235 496 L 235 495 L 236 494 "></path>
        <path fill="none" stroke="#00fafa" stroke-width="3" d="M 284 581 L 285 580 L 290 580 L 291 581 L 292 581 L 295 584 L 295 585 L 296 586 L 296 588 L 292 592 L 289 592 L 288 593 L 286 593 L 285 592 L 283 592 L 280 589 L 280 584 L 283 581 "></path>
        <path fill="none" stroke="#00fafa" stroke-width="3" d="M 937 108 L 943 108 L 944 109 L 945 109 L 946 110 L 946 111 L 947 112 L 947 113 L 948 114 L 948 115 L 947 116 L 947 117 L 946 118 L 946 119 L 944 121 L 942 121 L 941 122 L 939 122 L 938 121 L 937 121 L 934 118 L 934 117 L 933 116 L 933 113 L 934 112 L 934 111 "></path>
        <path fill="none" stroke="#00fafa" stroke-width="3" d="M 876 59 L 879 59 L 880 60 L 881 60 L 883 62 L 884 62 L 885 63 L 885 64 L 886 65 L 886 66 L 887 67 L 887 68 L 886 69 L 886 70 L 883 73 L 877 73 L 873 69 L 873 68 L 872 67 L 872 63 "></path>
        <path fill="none" stroke="#00fafa" stroke-width="3" d="M 577 70 L 578 69 L 579 69 L 580 70 L 581 70 L 584 73 L 584 80 L 583 81 L 583 82 L 580 85 L 575 85 L 573 83 L 573 82 L 572 81 L 572 76 L 573 75 L 573 73 L 576 70 "></path>
        <path fill="none" stroke="#00fafa" stroke-width="3" d="M 26 793 L 32 793 L 33 794 L 34 794 L 35 795 L 35 796 L 36 797 L 36 801 L 35 802 L 35 803 L 33 805 L 32 805 L 31 806 L 30 806 L 29 807 L 27 807 L 26 806 L 25 806 L 23 804 L 23 802 L 22 801 L 22 798 L 23 797 L 23 796 "></path>
        <path fill="none" stroke="#00fafa" stroke-width="3" d="M 896 34 L 897 33 L 898 33 L 899 34 L 901 34 L 904 37 L 904 38 L 905 39 L 905 42 L 904 43 L 904 44 L 901 47 L 898 47 L 897 46 L 896 46 L 891 41 L 891 37 L 894 34 "></path>
        <path fill="none" stroke="#00fafa" stroke-width="3" d="M 696 30 L 703 30 L 707 34 L 707 37 L 703 41 L 702 41 L 701 42 L 697 42 L 696 41 L 695 41 L 694 40 L 694 39 L 693 38 L 693 33 "></path>
        <path fill="none" stroke="#00fafa" stroke-width="3" d="M 291 613 L 292 612 L 297 612 L 300 615 L 300 618 L 299 619 L 299 620 L 295 624 L 291 624 L 290 623 L 289 623 L 288 622 L 288 621 L 287 620 L 287 617 L 288 616 L 288 615 L 290 613 "></path>
        <path fill="none" stroke="#00fafa" stroke-width="3" d="M 610 207 L 611 206 L 614 206 L 617 209 L 617 211 L 618 212 L 618 218 L 619 219 L 619 222 L 620 223 L 620 229 L 614 235 L 614 236 L 612 238 L 612 239 L 610 241 L 610 242 L 609 243 L 609 244 L 607 246 L 607 247 L 605 249 L 605 250 L 604 251 L 604 252 L 600 256 L 598 256 L 597 255 L 596 255 L 595 254 L 595 253 L 594 252 L 594 251 L 593 250 L 593 248 L 592 247 L 592 246 L 591 245 L 591 244 L 590 243 L 590 242 L 589 241 L 589 240 L 588 239 L 588 237 L 587 236 L 587 235 L 586 234 L 586 230 L 585 229 L 585 222 L 587 220 L 587 212 L 589 210 L 601 210 L 602 209 L 604 209 L 605 208 L 607 208 L 608 207 "></path>
        <path fill="none" stroke="#00fafa" stroke-width="3" d="M 966 691 L 967 690 L 970 690 L 971 691 L 974 691 L 975 692 L 976 692 L 977 693 L 978 693 L 981 696 L 981 697 L 982 698 L 982 699 L 981 700 L 981 701 L 978 704 L 977 704 L 973 708 L 973 714 L 974 715 L 974 716 L 975 717 L 975 718 L 976 719 L 976 720 L 979 723 L 980 723 L 981 724 L 989 724 L 990 725 L 991 725 L 993 727 L 993 728 L 994 729 L 994 731 L 993 732 L 993 735 L 992 736 L 992 737 L 991 738 L 991 739 L 987 743 L 986 743 L 984 745 L 982 745 L 981 746 L 973 746 L 972 745 L 971 745 L 970 744 L 969 744 L 965 740 L 965 735 L 966 734 L 966 733 L 967 732 L 967 731 L 968 730 L 968 729 L 969 728 L 969 723 L 968 722 L 968 721 L 967 720 L 967 719 L 964 716 L 963 716 L 962 715 L 959 715 L 958 714 L 956 714 L 955 713 L 954 713 L 952 711 L 952 705 L 953 704 L 953 702 L 954 701 L 954 700 L 955 699 L 955 698 L 961 692 L 962 692 L 963 691 "></path>
        <path fill="none" stroke="#00fafa" stroke-width="3" d="M 50 130 L 51 129 L 54 129 L 58 133 L 58 134 L 59 135 L 59 137 L 60 138 L 60 139 L 61 140 L 61 141 L 63 143 L 64 143 L 66 145 L 68 145 L 69 146 L 73 146 L 74 145 L 75 145 L 80 140 L 81 140 L 82 139 L 86 139 L 90 143 L 90 144 L 91 145 L 91 146 L 92 147 L 92 155 L 91 156 L 91 158 L 90 159 L 90 160 L 89 161 L 89 162 L 85 166 L 84 166 L 82 168 L 80 168 L 79 169 L 76 169 L 75 170 L 74 169 L 73 169 L 70 166 L 70 157 L 69 156 L 69 155 L 68 154 L 67 154 L 66 153 L 65 153 L 64 152 L 62 152 L 61 151 L 56 151 L 55 152 L 54 152 L 53 153 L 52 153 L 47 158 L 43 158 L 38 153 L 38 152 L 37 151 L 37 149 L 36 148 L 36 141 L 37 140 L 37 139 L 38 138 L 38 137 L 42 133 L 43 133 L 45 131 L 47 131 L 48 130 "></path>
        <path fill="none" stroke="#00fafa" stroke-width="3" d="M 429 325 L 430 324 L 440 324 L 441 325 L 442 325 L 443 326 L 444 326 L 450 332 L 450 333 L 451 334 L 451 335 L 452 336 L 452 339 L 453 340 L 453 347 L 452 348 L 452 351 L 451 352 L 451 353 L 450 354 L 450 355 L 444 361 L 443 361 L 442 362 L 440 362 L 439 363 L 432 363 L 431 362 L 428 362 L 427 361 L 426 361 L 420 355 L 420 354 L 419 353 L 419 352 L 418 351 L 418 348 L 417 347 L 417 340 L 418 339 L 418 336 L 419 335 L 419 334 L 420 333 L 420 332 L 422 330 L 422 329 L 424 327 L 425 327 L 427 325 "></path>
        <path fill="none" stroke="#00fafa" stroke-width="3" d="M 458 472 L 459 471 L 462 471 L 463 472 L 466 472 L 467 473 L 469 473 L 472 476 L 473 476 L 474 477 L 474 478 L 476 480 L 476 481 L 477 482 L 477 483 L 478 484 L 478 488 L 479 489 L 479 495 L 478 496 L 478 500 L 477 501 L 477 502 L 471 508 L 470 508 L 469 509 L 468 509 L 467 510 L 457 510 L 456 509 L 454 509 L 452 507 L 451 507 L 446 502 L 446 501 L 445 500 L 445 499 L 444 498 L 444 497 L 443 496 L 443 487 L 444 486 L 444 484 L 445 483 L 445 482 L 446 481 L 446 480 L 453 473 L 454 473 L 455 472 "></path>
        <path fill="none" stroke="#00fafa" stroke-width="3" d="M 275 371 L 276 370 L 284 370 L 285 371 L 287 371 L 288 372 L 289 372 L 294 377 L 294 378 L 295 379 L 295 381 L 296 382 L 296 386 L 297 387 L 297 390 L 296 391 L 296 395 L 295 396 L 295 397 L 289 403 L 288 403 L 287 404 L 286 404 L 285 405 L 283 405 L 282 406 L 277 406 L 276 405 L 274 405 L 273 404 L 272 404 L 271 403 L 270 403 L 264 397 L 264 396 L 263 395 L 263 392 L 262 391 L 262 385 L 263 384 L 263 381 L 264 380 L 264 379 L 271 372 L 272 372 L 273 371 "></path>
        <path fill="none" stroke="#00fafa" stroke-width="3" d="M 551 120 L 552 119 L 562 119 L 563 120 L 565 120 L 566 121 L 568 121 L 570 123 L 571 123 L 572 124 L 572 125 L 574 127 L 574 128 L 575 129 L 575 131 L 576 132 L 576 138 L 575 139 L 575 141 L 574 142 L 574 143 L 573 144 L 573 145 L 569 149 L 568 149 L 566 151 L 564 151 L 563 152 L 553 152 L 552 151 L 551 151 L 550 150 L 549 150 L 548 149 L 547 149 L 543 145 L 543 144 L 542 143 L 542 142 L 541 141 L 541 139 L 540 138 L 540 131 L 541 130 L 541 128 L 543 126 L 543 125 L 546 122 L 547 122 L 549 120 "></path>
        <path fill="none" stroke="#00fafa" stroke-width="3" d="M 526 524 L 527 523 L 532 523 L 533 524 L 534 524 L 539 529 L 539 530 L 540 531 L 540 538 L 532 546 L 531 546 L 527 550 L 526 550 L 524 552 L 523 552 L 521 554 L 519 554 L 518 555 L 513 555 L 512 554 L 510 554 L 508 552 L 507 552 L 504 549 L 504 548 L 503 547 L 503 546 L 502 545 L 502 544 L 501 543 L 501 535 L 502 534 L 502 531 L 503 530 L 503 529 L 504 528 L 504 527 L 506 525 L 507 525 L 508 524 L 514 524 L 515 525 L 522 525 L 523 524 "></path>
        <path fill="none" stroke="#00fafa" stroke-width="3" d="M 848 335 L 849 334 L 850 334 L 851 335 L 853 335 L 855 337 L 856 337 L 859 340 L 860 340 L 865 345 L 865 348 L 863 350 L 861 350 L 860 351 L 855 351 L 854 352 L 853 352 L 850 355 L 850 360 L 851 361 L 851 362 L 852 363 L 852 364 L 854 366 L 855 366 L 857 368 L 858 368 L 859 369 L 863 369 L 864 370 L 869 370 L 870 371 L 870 372 L 871 373 L 871 374 L 870 375 L 870 377 L 869 378 L 869 379 L 868 380 L 868 382 L 867 383 L 867 385 L 866 386 L 865 386 L 864 387 L 863 387 L 854 378 L 853 378 L 851 376 L 850 376 L 845 371 L 845 370 L 844 369 L 844 368 L 843 367 L 843 358 L 841 356 L 840 356 L 839 355 L 836 355 L 835 356 L 833 356 L 832 357 L 829 357 L 826 354 L 826 353 L 827 352 L 827 351 L 838 340 L 839 340 L 841 338 L 842 338 L 844 336 L 845 336 L 846 335 "></path>
        <path fill="none" stroke="#00fafa" stroke-width="3" d="M 659 362 L 660 361 L 663 361 L 664 362 L 665 362 L 666 363 L 667 363 L 672 368 L 673 368 L 675 370 L 676 370 L 677 371 L 678 371 L 679 372 L 681 372 L 682 373 L 683 373 L 684 374 L 685 374 L 689 378 L 689 380 L 690 381 L 690 383 L 689 384 L 689 387 L 688 388 L 688 389 L 687 390 L 687 391 L 686 392 L 686 393 L 680 399 L 679 399 L 678 400 L 675 400 L 674 401 L 673 400 L 670 400 L 669 399 L 668 399 L 666 397 L 665 397 L 661 393 L 661 392 L 660 391 L 660 389 L 659 388 L 659 385 L 658 384 L 658 381 L 657 380 L 657 378 L 656 377 L 656 375 L 655 374 L 655 372 L 654 371 L 654 367 L 655 366 L 655 365 L 658 362 "></path>
        <path fill="none" stroke="#00fafa" stroke-width="3" d="M 495 351 L 496 350 L 497 350 L 498 351 L 503 351 L 504 352 L 511 352 L 512 351 L 517 351 L 518 352 L 520 352 L 523 355 L 523 356 L 524 357 L 524 359 L 525 360 L 525 364 L 526 365 L 526 368 L 525 369 L 525 370 L 523 372 L 522 372 L 521 373 L 518 373 L 517 374 L 510 374 L 509 375 L 508 375 L 507 376 L 506 376 L 504 378 L 503 378 L 501 380 L 500 380 L 499 381 L 498 381 L 497 382 L 495 382 L 494 381 L 493 381 L 490 378 L 490 377 L 489 376 L 489 375 L 488 374 L 488 371 L 487 370 L 487 359 L 488 358 L 488 356 L 490 354 L 490 353 L 491 352 L 492 352 L 493 351 "></path>
        <path fill="none" stroke="#00fafa" stroke-width="3" d="M 349 352 L 352 352 L 353 353 L 354 353 L 358 357 L 358 358 L 359 359 L 359 360 L 361 362 L 361 364 L 363 366 L 363 367 L 364 368 L 364 369 L 365 370 L 365 371 L 366 372 L 366 373 L 367 374 L 367 378 L 364 381 L 363 381 L 362 382 L 350 382 L 349 383 L 347 383 L 343 387 L 343 388 L 342 389 L 342 390 L 341 391 L 341 392 L 337 396 L 336 396 L 335 397 L 334 397 L 333 396 L 332 396 L 329 393 L 329 392 L 328 391 L 328 390 L 327 389 L 327 388 L 326 387 L 326 386 L 325 385 L 325 384 L 324 383 L 324 382 L 323 381 L 323 380 L 322 379 L 322 377 L 321 376 L 321 371 L 323 369 L 328 369 L 329 370 L 330 370 L 331 371 L 332 371 L 337 376 L 338 376 L 339 377 L 343 377 L 344 376 L 345 376 L 347 374 L 347 373 L 348 372 L 348 369 L 347 368 L 347 366 L 346 365 L 346 355 "></path>
        <path fill="none" stroke="#00fafa" stroke-width="3" d="M 341 588 L 342 587 L 348 587 L 349 588 L 352 588 L 353 589 L 354 589 L 360 595 L 360 596 L 361 597 L 361 598 L 362 599 L 362 602 L 363 603 L 363 606 L 362 607 L 362 610 L 361 611 L 361 612 L 360 613 L 360 614 L 354 620 L 353 620 L 352 621 L 351 621 L 350 622 L 339 622 L 338 621 L 337 621 L 334 618 L 334 617 L 333 616 L 333 614 L 332 613 L 332 608 L 331 607 L 331 597 L 332 596 L 332 594 L 337 589 L 338 589 L 339 588 "></path>
        <path fill="none" stroke="#00fafa" stroke-width="3" d="M 925 430 L 926 429 L 940 429 L 941 430 L 942 430 L 944 432 L 944 433 L 945 434 L 945 440 L 944 441 L 944 447 L 945 448 L 945 450 L 947 452 L 947 453 L 949 455 L 949 457 L 950 458 L 950 461 L 945 466 L 944 466 L 943 467 L 939 467 L 938 468 L 933 468 L 932 469 L 924 469 L 923 468 L 921 468 L 919 466 L 919 462 L 921 460 L 921 459 L 922 458 L 923 458 L 926 455 L 927 455 L 929 453 L 929 452 L 930 451 L 930 447 L 929 446 L 929 445 L 928 444 L 927 444 L 925 442 L 924 442 L 920 438 L 920 437 L 919 436 L 919 433 L 921 431 L 922 431 L 923 430 "></path>
        <path fill="none" stroke="#00fafa" stroke-width="3" d="M 280 113 L 281 112 L 285 112 L 286 113 L 288 113 L 289 114 L 290 114 L 293 117 L 294 117 L 297 120 L 297 121 L 300 124 L 300 125 L 301 126 L 301 128 L 302 129 L 302 134 L 301 135 L 301 138 L 300 139 L 300 140 L 295 145 L 294 145 L 293 146 L 291 146 L 290 147 L 282 147 L 281 146 L 280 146 L 279 145 L 278 145 L 274 141 L 274 140 L 272 138 L 272 137 L 271 136 L 271 134 L 270 133 L 270 123 L 271 122 L 271 120 L 277 114 L 278 114 L 279 113 "></path>
        <path fill="none" stroke="#00fafa" stroke-width="3" d="M 766 637 L 767 636 L 776 636 L 777 637 L 778 637 L 779 638 L 780 638 L 786 644 L 786 645 L 787 646 L 787 647 L 788 648 L 788 657 L 787 658 L 787 659 L 786 660 L 786 661 L 783 664 L 782 664 L 780 666 L 778 666 L 777 667 L 774 667 L 773 668 L 766 668 L 765 667 L 763 667 L 761 665 L 760 665 L 759 664 L 759 663 L 757 661 L 757 660 L 756 659 L 756 658 L 755 657 L 755 648 L 756 647 L 756 645 L 758 643 L 758 642 L 761 639 L 762 639 L 764 637 "></path>
        <path fill="none" stroke="#00fafa" stroke-width="3" d="M 528 396 L 529 395 L 531 395 L 532 396 L 533 396 L 534 397 L 534 398 L 535 399 L 535 405 L 536 406 L 536 407 L 537 408 L 537 409 L 541 413 L 541 414 L 542 415 L 542 416 L 541 417 L 541 418 L 540 419 L 539 419 L 538 420 L 535 420 L 534 421 L 530 421 L 529 422 L 528 422 L 527 423 L 526 423 L 520 429 L 519 429 L 517 431 L 511 431 L 508 428 L 508 427 L 507 426 L 507 424 L 506 423 L 506 417 L 505 416 L 505 413 L 504 412 L 504 407 L 508 403 L 512 403 L 513 402 L 517 402 L 518 401 L 520 401 L 521 400 L 522 400 L 525 397 L 526 397 L 527 396 "></path>
        <path fill="none" stroke="#00fafa" stroke-width="3" d="M 166 580 L 167 579 L 175 579 L 176 580 L 178 580 L 179 581 L 180 581 L 185 586 L 185 587 L 187 589 L 187 592 L 188 593 L 188 598 L 187 599 L 187 601 L 186 602 L 186 603 L 180 609 L 179 609 L 178 610 L 176 610 L 175 611 L 166 611 L 165 610 L 164 610 L 163 609 L 162 609 L 157 604 L 157 603 L 156 602 L 156 601 L 155 600 L 155 590 L 156 589 L 156 588 L 158 586 L 158 585 L 161 582 L 162 582 L 164 580 "></path>
        <path fill="none" stroke="#00fafa" stroke-width="3" d="M 928 729 L 929 728 L 930 729 L 931 729 L 934 732 L 934 733 L 935 734 L 935 736 L 936 737 L 936 740 L 937 741 L 937 746 L 938 747 L 938 751 L 939 752 L 939 755 L 940 756 L 940 762 L 939 763 L 938 763 L 937 764 L 936 763 L 935 763 L 931 759 L 930 759 L 929 758 L 926 758 L 923 761 L 923 767 L 922 768 L 922 769 L 920 771 L 919 771 L 918 770 L 917 770 L 915 768 L 915 767 L 913 765 L 913 764 L 912 763 L 912 762 L 909 759 L 909 758 L 907 756 L 907 755 L 906 754 L 906 753 L 905 752 L 905 750 L 904 749 L 904 747 L 903 746 L 903 743 L 905 741 L 910 741 L 911 742 L 912 742 L 913 743 L 914 743 L 915 744 L 919 744 L 920 743 L 921 743 L 922 742 L 922 741 L 923 740 L 923 736 L 924 735 L 924 733 L 925 732 L 925 731 L 927 729 "></path>
        <path fill="none" stroke="#00fafa" stroke-width="3" d="M 688 445 L 691 445 L 692 446 L 693 446 L 700 453 L 700 454 L 701 455 L 701 456 L 702 457 L 702 458 L 703 459 L 703 469 L 702 470 L 702 471 L 701 472 L 701 473 L 700 474 L 700 475 L 697 478 L 696 478 L 694 480 L 693 480 L 692 481 L 691 481 L 690 482 L 686 482 L 685 483 L 682 483 L 681 482 L 677 482 L 676 481 L 675 481 L 674 480 L 672 480 L 667 475 L 667 472 L 671 468 L 672 468 L 673 467 L 674 467 L 676 465 L 677 465 L 680 462 L 680 461 L 681 460 L 681 459 L 682 458 L 682 457 L 683 456 L 683 453 L 684 452 L 684 450 L 685 449 L 685 448 "></path>
        <path fill="none" stroke="#00fafa" stroke-width="3" d="M 125 153 L 126 152 L 129 152 L 130 153 L 131 153 L 134 156 L 134 157 L 135 158 L 135 159 L 139 163 L 140 163 L 141 164 L 149 164 L 150 165 L 152 165 L 155 168 L 155 169 L 156 170 L 156 171 L 155 172 L 155 174 L 154 175 L 154 176 L 153 177 L 153 178 L 151 180 L 151 181 L 146 186 L 145 186 L 144 187 L 143 187 L 142 188 L 137 188 L 136 187 L 135 187 L 124 176 L 123 176 L 118 171 L 118 169 L 117 168 L 117 164 L 118 163 L 118 161 L 119 160 L 119 159 L 121 157 L 121 156 L 124 153 "></path>
        <path fill="none" stroke="#00fafa" stroke-width="3" d="M 568 738 L 569 737 L 572 737 L 573 738 L 574 738 L 575 739 L 576 739 L 577 740 L 578 740 L 581 743 L 582 743 L 587 748 L 587 749 L 588 750 L 588 751 L 589 752 L 589 757 L 588 758 L 588 759 L 587 760 L 587 761 L 581 767 L 580 767 L 578 769 L 577 769 L 576 770 L 574 770 L 573 771 L 567 771 L 566 770 L 564 770 L 557 763 L 557 761 L 556 760 L 556 751 L 557 750 L 557 748 L 559 746 L 559 745 L 565 739 L 566 739 L 567 738 "></path>
        <path fill="none" stroke="#00fafa" stroke-width="3" d="M 961 240 L 962 239 L 973 239 L 974 240 L 975 240 L 977 242 L 978 242 L 981 245 L 981 246 L 982 247 L 982 248 L 983 249 L 983 258 L 982 259 L 982 260 L 981 261 L 981 262 L 976 267 L 975 267 L 974 268 L 973 268 L 972 269 L 970 269 L 969 270 L 962 270 L 961 269 L 959 269 L 958 268 L 957 268 L 952 263 L 952 262 L 951 261 L 951 259 L 950 258 L 950 252 L 951 251 L 951 249 L 952 248 L 952 247 L 958 241 L 959 241 L 960 240 "></path>
        <path fill="none" stroke="#00fafa" stroke-width="3" d="M 129 236 L 130 235 L 131 235 L 132 236 L 136 236 L 137 237 L 138 237 L 140 239 L 141 239 L 145 243 L 145 244 L 147 246 L 147 247 L 148 248 L 148 251 L 149 252 L 149 254 L 148 255 L 148 257 L 147 258 L 147 259 L 140 266 L 139 266 L 138 267 L 136 267 L 135 268 L 129 268 L 128 267 L 126 267 L 125 266 L 124 266 L 119 261 L 119 260 L 118 259 L 118 258 L 117 257 L 117 254 L 116 253 L 116 247 L 117 246 L 117 244 L 118 243 L 118 242 L 122 238 L 123 238 L 124 237 L 125 237 L 126 236 "></path>
        <path fill="none" stroke="#00fafa" stroke-width="3" d="M 753 130 L 754 129 L 762 129 L 763 130 L 765 130 L 766 131 L 767 131 L 773 137 L 773 138 L 774 139 L 774 140 L 775 141 L 775 152 L 774 153 L 774 154 L 772 156 L 772 157 L 769 160 L 768 160 L 766 162 L 764 162 L 763 163 L 755 163 L 754 162 L 753 162 L 749 158 L 749 157 L 748 156 L 748 154 L 747 153 L 747 151 L 746 150 L 746 146 L 745 145 L 745 144 L 746 143 L 746 139 L 747 138 L 747 136 L 748 135 L 748 134 L 752 130 "></path>
        <path fill="none" stroke="#00fafa" stroke-width="3" d="M 53 233 L 55 233 L 59 237 L 59 240 L 60 241 L 60 243 L 63 246 L 67 246 L 68 245 L 69 245 L 71 243 L 71 242 L 75 238 L 79 238 L 81 240 L 81 241 L 82 242 L 82 253 L 81 254 L 81 257 L 80 258 L 80 260 L 79 261 L 79 263 L 78 264 L 78 265 L 74 269 L 69 269 L 66 266 L 66 265 L 64 263 L 64 262 L 60 258 L 58 258 L 57 257 L 53 257 L 52 258 L 49 258 L 48 257 L 46 257 L 44 255 L 44 254 L 43 253 L 43 251 L 44 250 L 44 248 L 45 247 L 45 246 L 46 245 L 46 244 L 47 243 L 47 242 L 48 241 L 48 240 L 49 239 L 49 237 "></path>
        <path fill="none" stroke="#00fafa" stroke-width="3" d="M 282 252 L 283 251 L 292 251 L 293 252 L 294 252 L 296 254 L 297 254 L 300 257 L 300 258 L 302 260 L 302 262 L 303 263 L 303 266 L 304 267 L 304 276 L 303 277 L 303 280 L 302 281 L 302 282 L 300 284 L 299 284 L 298 285 L 296 285 L 295 284 L 294 284 L 290 280 L 289 280 L 286 277 L 285 277 L 284 276 L 282 276 L 281 275 L 275 275 L 274 274 L 272 274 L 270 272 L 270 266 L 271 265 L 271 264 L 272 263 L 272 262 L 273 261 L 273 260 L 274 259 L 274 258 L 279 253 L 280 253 L 281 252 "></path>
        <path fill="none" stroke="#00fafa" stroke-width="3" d="M 941 625 L 942 624 L 944 624 L 945 625 L 950 625 L 951 626 L 953 626 L 954 627 L 955 627 L 957 629 L 958 629 L 960 631 L 960 632 L 962 634 L 962 637 L 963 638 L 963 640 L 962 641 L 962 644 L 961 645 L 961 646 L 957 650 L 956 650 L 955 651 L 954 651 L 953 652 L 951 652 L 950 653 L 940 653 L 939 652 L 936 652 L 935 651 L 934 651 L 929 646 L 929 645 L 928 644 L 928 642 L 927 641 L 927 638 L 928 637 L 928 635 L 929 634 L 929 633 L 936 626 L 937 626 L 938 625 "></path>
        <path fill="none" stroke="#00fafa" stroke-width="3" d="M 497 716 L 498 715 L 501 715 L 502 716 L 510 716 L 511 717 L 519 717 L 520 718 L 521 718 L 524 721 L 524 730 L 523 731 L 523 732 L 522 733 L 522 734 L 517 739 L 516 739 L 514 741 L 512 741 L 511 742 L 506 742 L 505 743 L 504 742 L 499 742 L 498 741 L 497 741 L 495 739 L 494 739 L 491 736 L 491 735 L 489 733 L 489 731 L 488 730 L 488 723 L 489 722 L 489 721 L 493 717 L 494 717 L 495 716 "></path>
        <path fill="none" stroke="#00fafa" stroke-width="3" d="M 783 405 L 784 404 L 791 404 L 794 407 L 794 408 L 795 409 L 795 410 L 796 411 L 796 413 L 797 414 L 797 415 L 798 416 L 798 417 L 799 418 L 799 419 L 800 420 L 800 425 L 799 426 L 799 427 L 795 431 L 794 431 L 792 433 L 790 433 L 789 434 L 780 434 L 779 433 L 778 433 L 777 432 L 776 432 L 775 431 L 774 431 L 769 426 L 769 425 L 767 423 L 767 422 L 766 421 L 766 418 L 765 417 L 766 416 L 766 414 L 771 409 L 772 409 L 773 408 L 774 408 L 775 407 L 776 407 L 777 406 L 779 406 L 780 405 "></path>
        <path fill="none" stroke="#00fafa" stroke-width="3" d="M 159 742 L 160 741 L 168 741 L 169 742 L 170 742 L 171 743 L 172 743 L 178 749 L 178 751 L 179 752 L 179 762 L 178 763 L 178 764 L 176 766 L 176 767 L 174 769 L 173 769 L 171 771 L 170 771 L 169 772 L 159 772 L 158 771 L 157 771 L 156 770 L 155 770 L 149 764 L 149 762 L 148 761 L 148 753 L 149 752 L 149 750 L 151 748 L 151 747 L 153 745 L 154 745 L 156 743 L 157 743 L 158 742 "></path>
        <path fill="none" stroke="#00fafa" stroke-width="3" d="M 785 692 L 786 691 L 787 692 L 790 692 L 791 693 L 792 693 L 797 698 L 797 699 L 798 700 L 798 702 L 799 703 L 799 704 L 798 705 L 798 707 L 797 708 L 797 709 L 788 718 L 788 719 L 787 720 L 787 721 L 782 726 L 777 726 L 776 725 L 775 725 L 771 721 L 771 720 L 769 718 L 769 716 L 768 715 L 768 702 L 769 701 L 769 700 L 770 699 L 770 698 L 774 694 L 775 694 L 776 693 L 778 693 L 779 692 "></path>
        <path fill="none" stroke="#00fafa" stroke-width="3" d="M 473 56 L 474 55 L 476 55 L 477 56 L 478 56 L 480 58 L 480 59 L 481 60 L 481 62 L 482 63 L 482 72 L 481 73 L 481 75 L 480 76 L 480 77 L 473 84 L 471 84 L 470 85 L 466 85 L 465 86 L 464 85 L 460 85 L 459 84 L 457 84 L 456 83 L 455 83 L 449 77 L 449 76 L 447 74 L 447 72 L 446 71 L 446 68 L 447 67 L 447 66 L 448 65 L 449 65 L 450 64 L 452 64 L 453 63 L 460 63 L 461 62 L 463 62 L 464 61 L 465 61 L 466 60 L 467 60 L 470 57 L 471 57 L 472 56 "></path>
        <path fill="none" stroke="#00fafa" stroke-width="3" d="M 653 427 L 654 426 L 662 426 L 663 427 L 664 427 L 667 430 L 667 434 L 659 442 L 658 442 L 658 443 L 655 446 L 655 447 L 654 448 L 654 449 L 653 450 L 653 451 L 652 452 L 652 453 L 649 456 L 648 456 L 647 457 L 643 457 L 642 456 L 636 456 L 635 455 L 633 455 L 632 454 L 631 454 L 627 450 L 627 449 L 626 448 L 626 445 L 625 444 L 626 443 L 626 441 L 628 439 L 629 439 L 630 438 L 631 438 L 632 437 L 635 437 L 636 436 L 639 436 L 640 435 L 642 435 L 644 433 L 645 433 L 648 430 L 649 430 L 652 427 "></path>
        <path fill="none" stroke="#00fafa" stroke-width="3" d="M 636 250 L 641 250 L 642 251 L 644 251 L 645 252 L 646 252 L 647 253 L 649 253 L 653 257 L 653 258 L 654 259 L 654 263 L 653 264 L 653 266 L 652 267 L 652 268 L 649 271 L 649 272 L 644 277 L 643 277 L 640 280 L 639 280 L 638 281 L 637 281 L 636 282 L 634 282 L 633 283 L 629 283 L 628 282 L 625 282 L 624 281 L 623 281 L 622 280 L 621 280 L 620 279 L 619 279 L 616 276 L 616 275 L 615 274 L 616 273 L 616 272 L 619 269 L 620 269 L 621 268 L 622 268 L 623 267 L 624 267 L 625 266 L 626 266 L 627 265 L 628 265 L 631 262 L 631 261 L 632 260 L 632 258 L 633 257 L 633 254 L 634 253 L 634 252 "></path>
        <path fill="none" stroke="#00fafa" stroke-width="3" d="M 810 294 L 811 293 L 818 293 L 819 294 L 820 294 L 821 295 L 822 295 L 823 296 L 824 296 L 826 298 L 827 298 L 828 299 L 829 299 L 831 301 L 832 301 L 836 305 L 836 309 L 835 310 L 835 311 L 832 314 L 831 314 L 830 315 L 829 315 L 827 317 L 826 317 L 825 318 L 824 318 L 821 321 L 820 321 L 818 323 L 817 323 L 816 324 L 810 324 L 807 321 L 807 320 L 805 318 L 805 317 L 804 316 L 804 314 L 803 313 L 803 312 L 802 311 L 802 302 L 803 301 L 803 300 L 809 294 "></path>
        <path fill="none" stroke="#00fafa" stroke-width="3" d="M 122 51 L 123 50 L 133 50 L 134 51 L 135 51 L 136 52 L 137 52 L 141 56 L 141 57 L 142 58 L 142 59 L 143 60 L 143 68 L 142 69 L 142 70 L 141 71 L 141 72 L 136 77 L 135 77 L 134 78 L 133 78 L 132 79 L 130 79 L 129 80 L 125 80 L 124 79 L 122 79 L 119 76 L 118 76 L 116 74 L 116 73 L 113 70 L 113 69 L 112 68 L 112 67 L 111 66 L 111 61 L 112 60 L 112 59 L 113 58 L 113 57 L 117 53 L 118 53 L 119 52 L 120 52 L 121 51 "></path>
        <path fill="none" stroke="#00fafa" stroke-width="3" d="M 377 402 L 378 401 L 382 401 L 385 404 L 385 405 L 386 406 L 386 409 L 385 410 L 385 419 L 384 420 L 384 422 L 383 423 L 383 424 L 382 425 L 382 426 L 375 433 L 374 433 L 372 435 L 366 435 L 364 433 L 363 433 L 360 430 L 360 429 L 357 426 L 357 425 L 356 424 L 356 422 L 355 421 L 355 416 L 356 415 L 356 414 L 361 409 L 362 409 L 363 408 L 365 408 L 366 407 L 367 407 L 368 406 L 369 406 L 370 405 L 371 405 L 372 404 L 373 404 L 374 403 L 375 403 L 376 402 "></path>
        <path fill="none" stroke="#00fafa" stroke-width="3" d="M 45 730 L 46 729 L 55 729 L 56 730 L 57 730 L 58 731 L 59 731 L 63 735 L 63 736 L 64 737 L 64 738 L 65 739 L 65 747 L 64 748 L 64 749 L 63 750 L 63 751 L 57 757 L 56 757 L 55 758 L 53 758 L 52 759 L 46 759 L 45 758 L 43 758 L 42 757 L 41 757 L 36 752 L 36 751 L 35 750 L 35 748 L 34 747 L 34 742 L 35 741 L 35 739 L 36 738 L 36 737 L 42 731 L 43 731 L 44 730 "></path>
        <path fill="none" stroke="#00fafa" stroke-width="3" d="M 90 503 L 91 502 L 93 502 L 94 503 L 98 503 L 99 504 L 101 504 L 102 505 L 103 505 L 106 508 L 106 509 L 107 510 L 107 512 L 108 513 L 108 519 L 107 520 L 107 522 L 106 523 L 106 524 L 102 528 L 101 528 L 99 530 L 98 530 L 95 533 L 94 533 L 91 536 L 90 536 L 89 537 L 87 537 L 86 538 L 85 537 L 83 537 L 82 536 L 82 535 L 81 534 L 81 526 L 82 525 L 82 516 L 81 515 L 81 508 L 86 503 "></path>
        <path fill="none" stroke="#00fafa" stroke-width="3" d="M 605 347 L 606 346 L 614 346 L 615 347 L 618 347 L 619 348 L 620 348 L 621 349 L 622 349 L 624 351 L 625 351 L 631 357 L 631 361 L 628 364 L 614 364 L 613 365 L 611 365 L 610 366 L 609 366 L 606 369 L 606 370 L 603 373 L 603 374 L 598 379 L 597 379 L 596 380 L 593 377 L 593 359 L 594 358 L 594 356 L 595 355 L 595 354 L 601 348 L 602 348 L 603 347 "></path>
        <path fill="none" stroke="#00fafa" stroke-width="3" d="M 81 83 L 82 82 L 88 82 L 89 83 L 90 83 L 91 84 L 92 84 L 97 89 L 97 90 L 100 93 L 100 94 L 101 95 L 101 97 L 102 98 L 102 101 L 101 102 L 101 104 L 100 105 L 100 106 L 96 110 L 95 110 L 93 112 L 89 112 L 88 113 L 86 113 L 85 112 L 81 112 L 80 111 L 79 111 L 77 109 L 76 109 L 74 107 L 74 106 L 73 105 L 73 104 L 72 103 L 72 102 L 71 101 L 71 95 L 72 94 L 72 92 L 73 91 L 73 90 L 74 89 L 74 88 L 78 84 L 79 84 L 80 83 "></path>
        <path fill="none" stroke="#00fafa" stroke-width="3" d="M 190 338 L 191 337 L 196 337 L 197 338 L 198 338 L 199 339 L 200 339 L 205 344 L 205 345 L 206 346 L 206 347 L 207 348 L 207 351 L 208 352 L 208 356 L 207 357 L 207 359 L 206 360 L 206 361 L 205 362 L 205 363 L 200 368 L 199 368 L 197 370 L 195 370 L 194 371 L 190 371 L 189 370 L 188 370 L 185 367 L 185 366 L 184 365 L 184 364 L 183 363 L 183 362 L 182 361 L 182 360 L 181 359 L 181 358 L 180 357 L 180 355 L 179 354 L 179 352 L 180 351 L 180 350 L 181 349 L 181 348 L 184 345 L 184 344 L 186 342 L 186 341 L 189 338 "></path>
        <path fill="none" stroke="#00fafa" stroke-width="3" d="M 329 677 L 330 676 L 331 677 L 333 677 L 335 679 L 335 681 L 336 682 L 336 691 L 335 692 L 335 697 L 334 698 L 334 699 L 333 700 L 333 701 L 329 705 L 329 706 L 328 707 L 328 708 L 327 709 L 327 710 L 326 711 L 326 712 L 322 716 L 321 716 L 320 717 L 319 717 L 318 716 L 317 716 L 314 713 L 313 713 L 312 712 L 312 711 L 308 707 L 308 706 L 307 705 L 307 701 L 308 700 L 308 699 L 314 693 L 315 693 L 318 690 L 318 689 L 320 687 L 320 685 L 321 684 L 321 683 L 323 681 L 323 680 L 325 678 L 326 678 L 327 677 "></path>
        <path fill="none" stroke="#00fafa" stroke-width="3" d="M 75 587 L 81 587 L 82 588 L 83 588 L 88 593 L 89 593 L 92 596 L 93 596 L 98 601 L 98 607 L 97 608 L 97 609 L 92 614 L 91 614 L 90 615 L 89 615 L 88 616 L 86 616 L 85 617 L 77 617 L 76 616 L 75 616 L 74 615 L 73 615 L 69 611 L 69 610 L 68 609 L 68 608 L 67 607 L 67 598 L 68 597 L 68 595 L 70 593 L 70 592 "></path>
        <path fill="none" stroke="#00fafa" stroke-width="3" d="M 864 737 L 865 736 L 871 736 L 872 737 L 874 737 L 878 741 L 878 742 L 879 743 L 879 746 L 880 747 L 880 759 L 879 760 L 879 762 L 874 767 L 873 767 L 872 768 L 870 768 L 869 769 L 860 769 L 859 768 L 858 768 L 857 767 L 856 767 L 855 766 L 855 765 L 854 764 L 854 758 L 855 757 L 855 756 L 856 755 L 856 753 L 857 752 L 857 750 L 858 749 L 858 746 L 859 745 L 859 742 L 860 741 L 860 740 L 863 737 "></path>
        <path fill="none" stroke="#00fafa" stroke-width="3" d="M 104 432 L 105 431 L 108 431 L 109 432 L 110 432 L 112 434 L 112 435 L 113 436 L 113 445 L 114 446 L 114 448 L 115 449 L 115 450 L 116 451 L 116 452 L 117 453 L 117 454 L 118 455 L 118 456 L 119 457 L 119 460 L 115 464 L 114 464 L 113 465 L 103 465 L 102 464 L 100 464 L 99 463 L 98 463 L 93 458 L 93 457 L 92 456 L 92 454 L 91 453 L 91 446 L 92 445 L 92 443 L 93 442 L 93 441 L 96 438 L 96 437 L 98 435 L 99 435 L 101 433 L 102 433 L 103 432 "></path>
        <path fill="none" stroke="#00fafa" stroke-width="3" d="M 952 167 L 956 167 L 957 168 L 959 168 L 960 169 L 964 169 L 965 170 L 973 170 L 974 171 L 975 171 L 977 173 L 977 174 L 978 175 L 978 179 L 977 180 L 977 182 L 976 183 L 976 185 L 975 186 L 975 187 L 974 188 L 974 189 L 969 194 L 968 194 L 967 195 L 964 195 L 963 196 L 961 196 L 960 195 L 957 195 L 956 194 L 955 194 L 950 189 L 950 188 L 949 187 L 949 186 L 948 185 L 948 181 L 947 180 L 947 175 L 948 174 L 948 171 "></path>
        <path fill="none" stroke="#00fafa" stroke-width="3" d="M 191 634 L 192 633 L 202 633 L 203 634 L 205 634 L 211 640 L 211 641 L 212 642 L 212 643 L 213 644 L 213 646 L 214 647 L 214 654 L 213 655 L 213 656 L 211 658 L 206 658 L 205 657 L 203 657 L 202 656 L 201 656 L 200 655 L 186 655 L 185 656 L 184 656 L 183 655 L 182 655 L 179 652 L 179 646 L 180 645 L 180 643 L 182 641 L 182 640 L 185 637 L 186 637 L 188 635 L 189 635 L 190 634 "></path>
        <path fill="none" stroke="#00fafa" stroke-width="3" d="M 507 301 L 511 301 L 512 302 L 513 302 L 514 303 L 515 303 L 516 304 L 517 304 L 518 305 L 521 305 L 522 306 L 525 306 L 529 310 L 529 316 L 528 317 L 528 319 L 527 320 L 527 321 L 526 322 L 526 323 L 524 325 L 523 325 L 522 326 L 515 326 L 514 325 L 511 325 L 510 324 L 504 324 L 503 325 L 499 325 L 498 326 L 493 326 L 492 325 L 491 325 L 490 324 L 490 323 L 489 322 L 489 321 L 495 315 L 496 315 L 497 314 L 498 314 L 501 311 L 501 310 L 502 309 L 502 308 L 503 307 L 503 306 L 504 305 L 504 304 "></path>
        <path fill="none" stroke="#00fafa" stroke-width="3" d="M 369 165 L 370 164 L 373 164 L 374 165 L 375 165 L 379 169 L 379 178 L 378 179 L 378 183 L 377 184 L 377 188 L 376 189 L 376 191 L 374 193 L 374 194 L 373 195 L 372 195 L 371 196 L 367 196 L 353 182 L 353 181 L 351 179 L 351 178 L 350 177 L 350 176 L 349 175 L 349 171 L 352 168 L 354 168 L 355 167 L 362 167 L 363 166 L 365 166 L 366 165 "></path>
        <path fill="none" stroke="#00fafa" stroke-width="3" d="M 189 433 L 190 432 L 193 432 L 194 433 L 196 433 L 199 436 L 200 436 L 203 439 L 203 440 L 205 442 L 205 443 L 206 444 L 206 453 L 205 454 L 205 457 L 204 458 L 204 459 L 199 464 L 198 464 L 197 465 L 195 465 L 194 466 L 192 466 L 191 467 L 184 467 L 183 466 L 181 466 L 179 464 L 179 463 L 178 462 L 178 460 L 179 459 L 179 458 L 180 457 L 180 456 L 183 453 L 183 452 L 184 451 L 184 450 L 185 449 L 185 446 L 186 445 L 186 436 L 187 435 L 187 434 L 188 433 "></path>
        <path fill="none" stroke="#00fafa" stroke-width="3" d="M 423 627 L 424 626 L 433 626 L 434 627 L 436 627 L 438 629 L 439 629 L 443 633 L 443 634 L 444 635 L 444 636 L 445 637 L 445 638 L 446 639 L 446 642 L 445 643 L 445 645 L 444 646 L 444 648 L 443 649 L 443 650 L 439 654 L 435 654 L 429 648 L 428 648 L 427 647 L 426 647 L 425 646 L 421 646 L 420 645 L 415 645 L 414 644 L 412 644 L 410 642 L 410 638 L 411 637 L 411 636 L 419 628 L 420 628 L 421 627 "></path>
        <path fill="none" stroke="#00fafa" stroke-width="3" d="M 444 16 L 445 15 L 456 15 L 457 16 L 459 16 L 460 17 L 461 17 L 462 18 L 463 18 L 466 21 L 466 22 L 467 23 L 467 24 L 468 25 L 468 27 L 469 28 L 469 29 L 468 30 L 468 31 L 465 34 L 462 34 L 461 35 L 456 35 L 455 36 L 453 36 L 452 37 L 450 37 L 448 39 L 447 39 L 445 41 L 444 41 L 443 42 L 439 42 L 438 41 L 437 41 L 436 40 L 436 39 L 435 38 L 435 37 L 434 36 L 434 27 L 435 26 L 435 25 L 437 23 L 437 22 L 443 16 "></path>
        <path fill="none" stroke="#00fafa" stroke-width="3" d="M 814 729 L 815 728 L 822 728 L 823 729 L 827 729 L 828 728 L 832 728 L 833 729 L 834 729 L 836 731 L 836 732 L 837 733 L 837 734 L 836 735 L 836 737 L 835 738 L 835 739 L 834 740 L 834 741 L 833 742 L 833 745 L 832 746 L 832 751 L 831 752 L 831 753 L 829 755 L 826 755 L 825 754 L 824 754 L 821 751 L 820 751 L 819 750 L 818 750 L 817 749 L 810 749 L 809 750 L 807 750 L 806 749 L 804 749 L 801 746 L 801 742 L 802 741 L 802 740 L 809 733 L 809 732 L 810 731 L 811 731 L 813 729 "></path>
        <path fill="none" stroke="#00fafa" stroke-width="3" d="M 179 679 L 185 679 L 186 680 L 188 680 L 189 681 L 192 681 L 193 682 L 198 682 L 199 681 L 207 681 L 210 684 L 210 689 L 209 690 L 209 692 L 208 693 L 208 694 L 207 695 L 207 696 L 201 702 L 200 702 L 199 703 L 198 703 L 197 704 L 188 704 L 187 703 L 185 703 L 178 696 L 178 695 L 177 694 L 177 692 L 176 691 L 176 682 "></path>
        <path fill="none" stroke="#00fafa" stroke-width="3" d="M 241 449 L 242 448 L 248 448 L 249 449 L 251 449 L 252 450 L 253 450 L 254 451 L 255 451 L 259 455 L 259 456 L 261 458 L 261 460 L 262 461 L 262 463 L 263 464 L 263 472 L 261 474 L 257 474 L 256 473 L 255 473 L 254 472 L 253 472 L 252 471 L 251 471 L 250 470 L 248 470 L 247 469 L 243 469 L 242 468 L 241 469 L 236 469 L 235 470 L 231 470 L 230 469 L 229 469 L 228 468 L 228 462 L 229 461 L 229 460 L 230 459 L 230 458 L 231 457 L 231 456 L 233 454 L 233 453 L 235 451 L 236 451 L 237 450 L 238 450 L 239 449 "></path>
        <path fill="none" stroke="#00fafa" stroke-width="3" d="M 350 721 L 351 720 L 357 720 L 358 721 L 359 721 L 360 722 L 362 722 L 363 723 L 370 723 L 371 724 L 372 724 L 375 727 L 375 731 L 374 732 L 374 733 L 373 734 L 373 735 L 371 737 L 371 738 L 368 741 L 367 741 L 365 743 L 364 743 L 363 744 L 360 744 L 359 745 L 354 745 L 353 744 L 350 744 L 349 743 L 348 743 L 347 742 L 346 742 L 342 738 L 342 737 L 341 736 L 341 731 L 343 729 L 343 728 L 347 724 L 347 723 L 349 721 "></path>
        <path fill="none" stroke="#00fafa" stroke-width="3" d="M 396 96 L 397 95 L 402 95 L 405 98 L 405 99 L 406 100 L 406 112 L 405 113 L 405 115 L 404 116 L 404 117 L 401 120 L 401 121 L 398 124 L 397 124 L 395 126 L 390 126 L 387 123 L 387 122 L 386 121 L 386 120 L 385 119 L 385 117 L 384 116 L 384 115 L 383 114 L 383 113 L 381 111 L 381 110 L 378 107 L 378 106 L 377 105 L 377 102 L 379 100 L 380 100 L 381 99 L 385 99 L 386 98 L 390 98 L 391 97 L 393 97 L 394 96 "></path>
        <path fill="none" stroke="#00fafa" stroke-width="3" d="M 629 388 L 630 387 L 632 387 L 634 389 L 634 396 L 633 397 L 633 403 L 634 404 L 634 407 L 633 408 L 633 409 L 631 411 L 630 411 L 629 412 L 627 412 L 626 413 L 624 413 L 623 414 L 622 414 L 621 415 L 620 415 L 618 417 L 616 417 L 615 418 L 609 418 L 608 417 L 607 417 L 604 414 L 604 413 L 603 412 L 603 407 L 604 406 L 604 405 L 605 404 L 605 403 L 608 400 L 609 400 L 611 398 L 612 398 L 613 397 L 615 397 L 616 396 L 617 396 L 618 395 L 619 395 L 621 393 L 622 393 L 625 390 L 626 390 L 628 388 "></path>
        <path fill="none" stroke="#00fafa" stroke-width="3" d="M 663 36 L 664 35 L 665 36 L 666 36 L 668 38 L 668 40 L 669 41 L 669 45 L 670 46 L 670 48 L 671 49 L 671 50 L 674 53 L 674 54 L 677 57 L 677 58 L 678 59 L 678 60 L 679 61 L 679 65 L 678 66 L 678 67 L 675 70 L 673 70 L 672 71 L 669 71 L 668 70 L 666 70 L 665 69 L 663 69 L 661 67 L 660 67 L 656 63 L 656 62 L 654 60 L 654 59 L 653 58 L 653 57 L 652 56 L 652 48 L 653 47 L 653 46 L 654 45 L 654 44 L 662 36 "></path>
        <path fill="none" stroke="#00fafa" stroke-width="3" d="M 902 309 L 903 308 L 909 308 L 910 309 L 913 309 L 914 310 L 915 310 L 916 311 L 917 311 L 923 317 L 923 318 L 925 320 L 925 321 L 926 322 L 926 324 L 923 327 L 918 327 L 917 326 L 908 326 L 907 327 L 904 327 L 903 328 L 902 328 L 901 329 L 900 329 L 899 330 L 898 330 L 897 331 L 896 331 L 895 332 L 894 332 L 893 333 L 891 333 L 888 330 L 888 324 L 889 323 L 889 321 L 890 320 L 890 318 L 892 316 L 892 315 L 895 312 L 896 312 L 898 310 L 899 310 L 900 309 "></path>
        <path fill="none" stroke="#00fafa" stroke-width="3" d="M 925 349 L 926 348 L 930 348 L 932 350 L 932 358 L 931 359 L 931 361 L 930 362 L 930 363 L 928 365 L 928 366 L 926 368 L 925 368 L 923 370 L 922 370 L 921 371 L 918 371 L 917 372 L 912 372 L 911 371 L 908 371 L 907 370 L 906 370 L 905 369 L 904 369 L 902 367 L 901 367 L 898 364 L 898 363 L 896 361 L 896 360 L 895 359 L 895 355 L 896 354 L 914 354 L 915 353 L 917 353 L 918 352 L 919 352 L 920 351 L 921 351 L 922 350 L 923 350 L 924 349 "></path>
        <path fill="none" stroke="#00fafa" stroke-width="3" d="M 300 175 L 301 174 L 307 174 L 308 175 L 309 175 L 311 177 L 311 181 L 307 185 L 307 186 L 304 189 L 304 190 L 302 192 L 302 193 L 301 194 L 301 195 L 300 196 L 300 198 L 299 199 L 299 200 L 298 201 L 298 202 L 295 205 L 295 206 L 294 207 L 293 207 L 292 208 L 289 208 L 286 205 L 286 204 L 285 203 L 285 202 L 284 201 L 284 199 L 283 198 L 283 188 L 284 187 L 284 185 L 285 184 L 285 183 L 290 178 L 291 178 L 293 176 L 295 176 L 296 175 "></path>
        <path fill="none" stroke="#00fafa" stroke-width="3" d="M 952 64 L 953 63 L 960 63 L 961 64 L 962 64 L 963 65 L 964 65 L 969 70 L 969 72 L 970 73 L 970 76 L 969 77 L 969 81 L 968 82 L 968 87 L 967 88 L 967 90 L 965 92 L 961 92 L 959 90 L 958 90 L 956 88 L 955 88 L 954 87 L 953 87 L 952 86 L 950 86 L 949 85 L 946 85 L 945 84 L 944 84 L 941 81 L 941 78 L 942 77 L 942 76 L 944 74 L 944 73 L 946 71 L 946 70 L 947 69 L 947 68 L 951 64 "></path>
        <path fill="none" stroke="#00fafa" stroke-width="3" d="M 819 381 L 822 381 L 825 384 L 825 385 L 826 386 L 826 387 L 827 388 L 827 389 L 828 390 L 828 391 L 829 392 L 829 393 L 833 397 L 834 397 L 835 398 L 836 398 L 837 399 L 838 399 L 839 400 L 841 400 L 842 401 L 843 401 L 844 402 L 847 402 L 848 403 L 849 403 L 850 404 L 851 404 L 852 405 L 852 408 L 848 412 L 847 412 L 846 413 L 845 413 L 844 414 L 837 414 L 836 413 L 835 413 L 834 412 L 833 412 L 832 411 L 831 411 L 830 410 L 829 410 L 828 409 L 827 409 L 826 408 L 825 408 L 824 407 L 823 407 L 819 403 L 819 402 L 818 401 L 818 400 L 816 398 L 816 397 L 815 396 L 815 394 L 814 393 L 814 388 L 815 387 L 815 385 "></path>
        <path fill="none" stroke="#00fafa" stroke-width="3" d="M 204 488 L 205 487 L 209 487 L 211 489 L 211 494 L 210 495 L 210 500 L 209 501 L 209 503 L 210 504 L 210 508 L 211 509 L 211 510 L 212 511 L 212 513 L 213 514 L 213 515 L 214 516 L 214 517 L 216 519 L 216 522 L 214 524 L 211 524 L 210 523 L 207 523 L 206 522 L 205 522 L 204 521 L 203 521 L 202 520 L 201 520 L 196 515 L 196 514 L 194 512 L 194 511 L 193 510 L 193 508 L 192 507 L 192 497 L 193 496 L 193 495 L 197 491 L 198 491 L 199 490 L 200 490 L 201 489 L 202 489 L 203 488 "></path>
        <path fill="none" stroke="#00fafa" stroke-width="3" d="M 642 205 L 646 205 L 647 206 L 648 206 L 649 207 L 650 207 L 651 208 L 652 208 L 653 209 L 655 209 L 656 210 L 669 210 L 670 211 L 671 211 L 674 214 L 674 219 L 673 220 L 673 221 L 665 229 L 663 229 L 662 230 L 654 230 L 653 229 L 651 229 L 650 228 L 649 228 L 645 224 L 645 222 L 644 221 L 644 217 L 643 216 L 643 214 L 642 213 L 642 212 L 641 211 L 641 210 L 640 209 L 640 207 "></path>
        <path fill="none" stroke="#00fafa" stroke-width="3" d="M 145 362 L 146 361 L 152 361 L 153 362 L 154 362 L 157 365 L 157 366 L 158 367 L 158 368 L 159 369 L 159 370 L 160 371 L 160 372 L 162 374 L 162 375 L 163 376 L 163 377 L 164 378 L 164 379 L 160 383 L 157 383 L 156 384 L 152 384 L 151 385 L 144 385 L 143 384 L 140 384 L 139 383 L 138 383 L 137 382 L 136 382 L 133 379 L 133 378 L 132 377 L 132 372 L 133 371 L 133 369 L 138 364 L 139 364 L 140 363 L 141 363 L 142 362 "></path>
        <path fill="none" stroke="#00fafa" stroke-width="3" d="M 253 598 L 254 597 L 255 597 L 260 602 L 260 603 L 263 606 L 263 607 L 265 609 L 265 610 L 266 611 L 266 617 L 265 618 L 265 621 L 264 622 L 264 625 L 265 626 L 265 628 L 266 629 L 266 631 L 268 633 L 268 634 L 269 635 L 269 638 L 267 640 L 263 640 L 262 639 L 259 639 L 258 638 L 257 638 L 256 637 L 254 637 L 250 633 L 250 632 L 249 631 L 249 627 L 250 626 L 250 624 L 251 623 L 251 621 L 252 620 L 252 614 L 251 613 L 251 610 L 250 609 L 250 601 L 251 600 L 251 599 L 252 598 "></path>
        <path fill="none" stroke="#00fafa" stroke-width="3" d="M 399 665 L 400 664 L 404 664 L 409 669 L 410 669 L 414 673 L 415 673 L 416 674 L 418 674 L 419 675 L 423 675 L 424 676 L 428 676 L 429 677 L 430 677 L 431 678 L 431 679 L 432 680 L 432 682 L 431 683 L 431 684 L 429 686 L 429 687 L 428 688 L 427 688 L 424 691 L 423 691 L 422 692 L 421 692 L 420 693 L 419 693 L 418 694 L 415 694 L 414 695 L 411 695 L 410 694 L 409 694 L 405 690 L 405 686 L 404 685 L 404 680 L 403 679 L 403 678 L 402 677 L 402 675 L 401 674 L 401 673 L 400 672 L 400 671 L 399 670 "></path>
        <path fill="none" stroke="#00fafa" stroke-width="3" d="M 764 352 L 765 351 L 769 351 L 770 352 L 771 352 L 773 354 L 773 355 L 774 356 L 774 358 L 775 359 L 775 361 L 776 362 L 776 363 L 777 364 L 783 364 L 784 363 L 785 363 L 787 361 L 788 361 L 789 360 L 790 360 L 791 359 L 796 359 L 797 360 L 797 361 L 798 362 L 798 364 L 797 365 L 797 367 L 795 369 L 795 370 L 793 372 L 793 373 L 791 375 L 791 376 L 788 379 L 787 379 L 786 380 L 783 380 L 782 379 L 781 379 L 775 373 L 775 372 L 771 368 L 770 368 L 769 367 L 763 367 L 760 364 L 760 356 L 761 355 L 761 354 L 763 352 "></path>
        <path fill="none" stroke="#00fafa" stroke-width="3" d="M 549 25 L 550 24 L 553 24 L 554 25 L 562 25 L 563 26 L 566 26 L 567 27 L 568 27 L 569 28 L 570 28 L 573 31 L 573 32 L 575 34 L 575 35 L 576 36 L 576 40 L 575 41 L 575 42 L 574 43 L 573 43 L 572 44 L 571 44 L 570 45 L 569 45 L 568 46 L 561 46 L 560 45 L 558 45 L 556 43 L 554 43 L 553 42 L 552 42 L 551 41 L 550 41 L 549 40 L 548 40 L 547 39 L 546 39 L 544 37 L 544 36 L 543 35 L 543 29 L 547 25 "></path>
        <path fill="none" stroke="#00fafa" stroke-width="3" d="M 389 54 L 390 53 L 391 53 L 392 54 L 393 54 L 396 57 L 396 59 L 397 60 L 397 67 L 396 68 L 396 69 L 394 71 L 393 71 L 392 72 L 387 72 L 386 73 L 382 73 L 381 74 L 379 74 L 378 75 L 374 75 L 373 74 L 372 74 L 367 69 L 367 68 L 364 65 L 364 64 L 363 63 L 363 60 L 365 58 L 366 58 L 367 57 L 380 57 L 381 56 L 383 56 L 384 55 L 385 55 L 386 54 "></path>
        <path fill="none" stroke="#00fafa" stroke-width="3" d="M 364 671 L 365 670 L 373 670 L 376 673 L 376 674 L 377 675 L 377 684 L 378 685 L 378 688 L 379 689 L 379 690 L 380 691 L 380 692 L 381 693 L 381 694 L 382 695 L 382 697 L 383 698 L 383 699 L 382 700 L 382 701 L 381 702 L 377 702 L 376 701 L 375 701 L 374 700 L 373 700 L 372 699 L 370 699 L 369 698 L 367 698 L 366 697 L 364 697 L 361 694 L 361 693 L 360 692 L 360 683 L 359 682 L 359 675 L 363 671 "></path>
        <path fill="none" stroke="#00fafa" stroke-width="3" d="M 282 572 L 283 571 L 292 571 L 293 572 L 295 572 L 297 574 L 298 574 L 304 580 L 304 581 L 306 583 L 306 585 L 307 586 L 307 587 L 306 588 L 306 589 L 305 590 L 302 590 L 301 589 L 290 589 L 289 590 L 281 590 L 280 589 L 279 589 L 277 587 L 276 587 L 271 582 L 271 579 L 272 578 L 272 577 L 274 575 L 275 575 L 276 574 L 277 574 L 278 573 L 279 573 L 280 572 "></path>
        <path fill="none" stroke="#00fafa" stroke-width="3" d="M 354 121 L 357 121 L 358 122 L 359 122 L 360 123 L 360 124 L 361 125 L 361 126 L 362 127 L 362 128 L 363 129 L 363 130 L 366 133 L 366 134 L 367 135 L 367 136 L 368 137 L 367 138 L 367 139 L 365 141 L 359 141 L 358 142 L 353 142 L 352 143 L 349 143 L 348 144 L 343 144 L 342 143 L 341 143 L 336 138 L 336 137 L 335 136 L 335 135 L 334 134 L 334 133 L 335 132 L 335 131 L 338 128 L 340 128 L 341 127 L 344 127 L 345 126 L 347 126 L 348 125 L 349 125 L 351 123 L 352 123 "></path>
        <path fill="none" stroke="#00fafa" stroke-width="3" d="M 869 52 L 870 52 L 874 56 L 874 57 L 878 61 L 878 62 L 879 62 L 882 65 L 883 65 L 884 66 L 885 66 L 886 67 L 887 67 L 888 68 L 890 68 L 891 69 L 892 69 L 893 70 L 894 70 L 896 72 L 896 74 L 891 79 L 890 79 L 889 80 L 888 80 L 887 81 L 884 81 L 883 82 L 878 82 L 877 81 L 874 81 L 873 80 L 872 80 L 868 76 L 868 75 L 867 74 L 867 69 L 866 68 L 866 56 L 867 55 L 867 54 "></path>
        <path fill="none" stroke="#00fafa" stroke-width="3" d="M 716 755 L 719 755 L 725 761 L 725 762 L 727 764 L 727 765 L 728 766 L 728 771 L 724 775 L 723 775 L 721 777 L 720 777 L 711 786 L 710 786 L 709 787 L 702 787 L 701 786 L 700 786 L 698 784 L 698 780 L 709 769 L 709 768 L 710 767 L 710 766 L 711 765 L 711 763 L 712 762 L 712 760 L 713 759 L 713 758 "></path>
        <path fill="none" stroke="#00fafa" stroke-width="3" d="M 724 53 L 725 52 L 728 52 L 730 54 L 730 55 L 731 56 L 731 61 L 730 62 L 730 65 L 729 66 L 729 67 L 728 68 L 728 69 L 722 75 L 721 75 L 720 76 L 718 76 L 717 77 L 706 77 L 705 76 L 704 76 L 702 74 L 702 73 L 701 72 L 701 68 L 702 67 L 702 66 L 709 59 L 716 59 L 717 58 L 718 58 L 719 57 L 720 57 L 722 55 L 722 54 L 723 53 "></path>
        <path fill="none" stroke="#00fafa" stroke-width="3" d="M 534 61 L 538 61 L 539 62 L 540 62 L 541 63 L 542 63 L 544 65 L 545 65 L 550 70 L 550 75 L 549 76 L 549 86 L 550 87 L 550 90 L 547 93 L 544 93 L 543 92 L 542 92 L 541 91 L 540 91 L 533 84 L 533 83 L 532 82 L 532 81 L 531 80 L 531 78 L 530 77 L 530 68 L 531 67 L 531 64 "></path>
        <path fill="none" stroke="#00fafa" stroke-width="3" d="M 757 195 L 758 194 L 761 194 L 762 195 L 763 195 L 765 197 L 765 198 L 763 200 L 763 201 L 762 202 L 762 203 L 761 204 L 761 217 L 760 218 L 760 220 L 757 223 L 755 223 L 754 224 L 753 224 L 752 223 L 750 223 L 749 222 L 748 222 L 747 221 L 746 221 L 745 220 L 744 220 L 741 217 L 741 215 L 740 214 L 740 213 L 741 212 L 741 210 L 742 209 L 742 208 L 743 207 L 743 206 L 744 205 L 744 204 L 751 197 L 752 197 L 753 196 L 754 196 L 755 195 "></path>
        <path fill="none" stroke="#00fafa" stroke-width="3" d="M 974 120 L 977 120 L 982 125 L 982 126 L 983 127 L 983 128 L 984 129 L 984 132 L 985 133 L 985 141 L 984 142 L 984 144 L 982 146 L 981 146 L 980 147 L 976 147 L 975 146 L 971 146 L 970 145 L 959 145 L 957 143 L 957 141 L 960 138 L 961 138 L 967 132 L 967 131 L 968 130 L 968 129 L 969 128 L 969 127 L 970 126 L 970 124 "></path>
        <path fill="none" stroke="#00fafa" stroke-width="3" d="M 890 28 L 891 27 L 903 27 L 904 28 L 905 28 L 906 29 L 907 29 L 911 33 L 911 34 L 912 35 L 912 36 L 913 37 L 913 48 L 912 49 L 912 51 L 909 54 L 908 54 L 902 48 L 902 47 L 899 44 L 898 44 L 896 42 L 895 42 L 893 40 L 892 40 L 891 39 L 889 39 L 888 38 L 887 38 L 883 34 L 884 33 L 884 32 L 887 29 L 888 29 L 889 28 "></path>
        <path fill="none" stroke="#00fafa" stroke-width="3" d="M 237 494 L 239 494 L 240 495 L 243 495 L 244 496 L 256 496 L 258 498 L 258 503 L 257 504 L 257 505 L 255 507 L 255 508 L 254 509 L 254 510 L 247 517 L 246 517 L 244 519 L 243 519 L 242 520 L 238 520 L 236 518 L 236 515 L 237 514 L 237 504 L 236 503 L 236 500 L 235 499 L 235 496 "></path>
        <path fill="none" stroke="#00fafa" stroke-width="3" d="M 928 103 L 932 103 L 933 104 L 934 104 L 937 107 L 938 107 L 939 108 L 940 108 L 941 109 L 943 109 L 944 110 L 947 110 L 950 113 L 949 114 L 949 115 L 943 121 L 943 122 L 942 123 L 942 124 L 941 125 L 941 126 L 937 130 L 935 130 L 934 129 L 933 129 L 931 127 L 931 126 L 929 124 L 929 123 L 928 122 L 928 120 L 927 119 L 927 118 L 926 117 L 926 115 L 925 114 L 925 106 "></path>
        <path fill="none" stroke="#00fafa" stroke-width="3" d="M 583 63 L 584 62 L 586 62 L 587 63 L 587 67 L 586 68 L 586 70 L 585 71 L 585 73 L 584 74 L 584 78 L 583 79 L 583 89 L 584 90 L 584 92 L 583 93 L 583 94 L 580 97 L 574 97 L 571 94 L 571 91 L 572 90 L 572 88 L 573 87 L 573 83 L 574 82 L 574 72 L 575 71 L 575 69 L 580 64 L 581 64 L 582 63 "></path>
        <path fill="none" stroke="#00fafa" stroke-width="3" d="M 298 613 L 299 612 L 306 612 L 308 614 L 308 622 L 307 623 L 307 625 L 305 627 L 305 628 L 302 631 L 301 631 L 298 634 L 297 634 L 296 635 L 295 635 L 294 636 L 292 636 L 290 634 L 290 618 L 291 617 L 291 616 L 292 615 L 293 615 L 294 614 L 295 614 L 296 613 "></path>
    </g>
</svg>
