<svg xmlns="http://www.w3.org/2000/svg" xmlns:xlink="http://www.w3.org/1999/xlink" version="1.1" x="0" y="0" width="1056px" height="816px">
    <g id="rootLayer" transform="translate(0.000000, 0.000000)">
        <path fill="none" stroke="#fa00fa" stroke-width="3" d="M 562 190 L 561 191 L 525 191 L 523 193 L 523 194 L 522 195 L 522 202 L 523 203 L 523 238 L 522 239 L 522 241 L 521 242 L 521 243 L 504 260 L 503 260 L 503 261 L 501 263 L 501 264 L 500 265 L 500 268 L 499 269 L 499 272 L 495 276 L 494 276 L 493 277 L 484 277 L 483 276 L 482 276 L 480 274 L 480 273 L 479 272 L 479 268 L 478 267 L 478 264 L 477 263 L 477 262 L 467 252 L 466 252 L 445 231 L 444 231 L 443 230 L 440 230 L 439 229 L 434 229 L 433 230 L 428 230 L 427 231 L 425 231 L 424 232 L 423 232 L 422 233 L 421 233 L 418 236 L 417 236 L 413 240 L 413 241 L 412 242 L 412 243 L 411 244 L 411 254 L 412 255 L 412 282 L 411 283 L 411 288 L 410 289 L 410 291 L 409 292 L 409 293 L 408 294 L 408 295 L 405 298 L 404 298 L 403 299 L 402 299 L 401 300 L 399 300 L 398 301 L 392 301 L 391 302 L 367 302 L 366 301 L 359 301 L 358 302 L 357 302 L 356 303 L 356 315 L 357 316 L 357 332 L 356 333 L 356 341 L 355 342 L 355 348 L 356 349 L 356 350 L 357 351 L 357 352 L 372 367 L 373 367 L 374 368 L 376 368 L 377 369 L 390 369 L 391 368 L 394 368 L 395 367 L 396 367 L 397 366 L 399 366 L 400 365 L 408 365 L 409 366 L 410 366 L 411 367 L 412 367 L 414 369 L 415 369 L 417 371 L 418 371 L 419 372 L 421 372 L 422 373 L 426 373 L 427 374 L 430 374 L 432 376 L 433 376 L 434 377 L 434 378 L 435 379 L 435 380 L 436 381 L 436 394 L 437 395 L 437 397 L 438 398 L 438 400 L 439 401 L 439 403 L 440 404 L 440 405 L 441 406 L 441 407 L 442 408 L 442 409 L 443 410 L 443 411 L 445 413 L 445 414 L 447 416 L 447 417 L 457 427 L 458 427 L 460 429 L 461 429 L 463 431 L 464 431 L 465 432 L 466 432 L 467 433 L 468 433 L 469 434 L 471 434 L 472 435 L 474 435 L 475 436 L 477 436 L 478 437 L 480 437 L 481 438 L 482 438 L 485 441 L 485 442 L 486 443 L 486 444 L 487 445 L 487 447 L 488 448 L 488 450 L 489 451 L 489 453 L 490 454 L 490 455 L 491 456 L 491 458 L 492 459 L 492 460 L 493 461 L 493 463 L 494 464 L 494 479 L 493 480 L 493 484 L 494 485 L 494 490 L 493 491 L 493 493 L 491 495 L 489 495 L 488 496 L 487 495 L 486 495 L 484 493 L 484 491 L 483 490 L 483 488 L 484 487 L 484 475 L 483 474 L 483 470 L 482 469 L 482 467 L 481 466 L 481 465 L 480 464 L 480 463 L 478 461 L 478 460 L 476 458 L 476 457 L 468 449 L 467 449 L 465 447 L 464 447 L 462 445 L 461 445 L 460 444 L 459 444 L 458 443 L 456 443 L 455 442 L 453 442 L 452 441 L 450 441 L 449 440 L 445 440 L 444 439 L 440 439 L 439 440 L 431 440 L 428 437 L 428 436 L 427 435 L 427 431 L 428 430 L 428 425 L 427 424 L 427 421 L 426 420 L 426 419 L 425 418 L 425 416 L 424 415 L 424 414 L 422 412 L 422 411 L 421 410 L 421 409 L 418 406 L 418 405 L 413 400 L 412 400 L 409 397 L 408 397 L 407 396 L 406 396 L 405 395 L 404 395 L 403 394 L 402 394 L 401 393 L 400 393 L 399 392 L 397 392 L 396 391 L 393 391 L 392 390 L 384 390 L 383 389 L 382 390 L 376 390 L 375 391 L 374 391 L 373 392 L 372 392 L 357 407 L 357 408 L 356 409 L 356 410 L 355 411 L 355 420 L 356 421 L 356 450 L 355 451 L 355 460 L 356 461 L 356 462 L 371 477 L 372 477 L 373 478 L 374 478 L 375 479 L 381 479 L 382 478 L 383 478 L 384 477 L 389 477 L 391 479 L 391 480 L 392 481 L 392 483 L 391 484 L 391 486 L 390 487 L 390 489 L 389 490 L 389 495 L 390 496 L 390 499 L 391 500 L 391 503 L 392 504 L 392 505 L 393 506 L 393 508 L 394 509 L 394 510 L 395 511 L 395 512 L 397 514 L 397 515 L 399 517 L 399 518 L 407 526 L 408 526 L 410 528 L 411 528 L 413 530 L 414 530 L 415 531 L 416 531 L 417 532 L 418 532 L 419 533 L 421 533 L 422 534 L 424 534 L 425 535 L 428 535 L 429 536 L 435 536 L 436 535 L 439 535 L 440 534 L 441 534 L 442 535 L 443 535 L 446 538 L 446 546 L 445 547 L 445 550 L 446 551 L 446 554 L 447 555 L 447 558 L 448 559 L 448 560 L 449 561 L 449 563 L 450 564 L 450 565 L 454 569 L 456 569 L 457 570 L 466 570 L 467 569 L 480 569 L 483 572 L 483 575 L 482 576 L 482 577 L 481 578 L 480 578 L 479 579 L 460 579 L 459 580 L 457 580 L 455 582 L 454 582 L 454 583 L 453 584 L 453 585 L 452 586 L 452 590 L 451 591 L 451 601 L 452 602 L 452 606 L 453 607 L 453 610 L 454 611 L 454 612 L 455 613 L 455 614 L 456 615 L 456 616 L 458 618 L 458 619 L 461 622 L 462 622 L 464 624 L 480 624 L 481 623 L 491 623 L 492 624 L 510 624 L 512 622 L 512 620 L 513 619 L 513 616 L 512 615 L 512 606 L 513 605 L 513 604 L 515 602 L 520 602 L 522 604 L 522 605 L 523 606 L 523 615 L 522 616 L 522 626 L 523 627 L 523 628 L 525 630 L 525 631 L 526 631 L 528 633 L 529 633 L 530 634 L 531 634 L 532 635 L 533 635 L 534 636 L 538 636 L 539 637 L 550 637 L 551 636 L 555 636 L 556 635 L 559 635 L 560 634 L 561 634 L 562 633 L 563 633 L 564 632 L 565 632 L 566 631 L 566 630 L 567 629 L 567 627 L 568 626 L 568 581 L 569 580 L 569 578 L 570 577 L 570 576 L 574 572 L 575 572 L 576 571 L 577 571 L 578 570 L 580 570 L 581 569 L 598 569 L 599 568 L 605 568 L 606 569 L 608 569 L 611 572 L 611 575 L 608 578 L 607 578 L 606 579 L 582 579 L 581 580 L 580 580 L 579 581 L 579 582 L 578 583 L 578 586 L 577 587 L 577 589 L 578 590 L 578 627 L 579 628 L 579 629 L 583 633 L 585 633 L 586 634 L 588 634 L 589 635 L 596 635 L 597 636 L 601 636 L 602 635 L 608 635 L 609 634 L 612 634 L 613 633 L 614 633 L 615 632 L 616 632 L 617 631 L 618 631 L 622 627 L 622 626 L 623 625 L 623 581 L 622 580 L 622 579 L 621 578 L 621 577 L 620 576 L 620 572 L 624 568 L 625 568 L 626 567 L 630 567 L 631 568 L 635 568 L 636 569 L 646 569 L 647 568 L 666 568 L 667 569 L 676 569 L 677 568 L 678 568 L 678 567 L 679 566 L 679 559 L 678 558 L 678 518 L 679 517 L 679 516 L 682 513 L 683 513 L 684 512 L 689 512 L 690 513 L 726 513 L 727 514 L 730 514 L 731 513 L 732 513 L 734 511 L 734 500 L 733 499 L 733 480 L 734 479 L 734 465 L 733 464 L 733 463 L 726 456 L 725 456 L 723 454 L 722 454 L 720 452 L 718 452 L 717 451 L 713 451 L 712 450 L 700 450 L 699 451 L 696 451 L 695 452 L 694 452 L 693 453 L 692 453 L 691 454 L 691 455 L 690 456 L 690 457 L 689 458 L 689 491 L 688 492 L 688 493 L 686 495 L 685 495 L 684 496 L 683 496 L 682 495 L 681 495 L 679 493 L 679 491 L 678 490 L 678 484 L 679 483 L 679 467 L 680 466 L 680 456 L 679 455 L 679 453 L 675 449 L 674 449 L 673 448 L 672 448 L 671 447 L 670 447 L 669 446 L 666 446 L 665 445 L 657 445 L 656 444 L 654 444 L 650 440 L 650 438 L 649 437 L 649 435 L 650 434 L 650 432 L 654 428 L 656 428 L 657 427 L 662 427 L 663 426 L 667 426 L 668 425 L 670 425 L 671 424 L 672 424 L 673 423 L 674 423 L 675 422 L 676 422 L 678 420 L 679 420 L 682 417 L 683 417 L 689 411 L 689 410 L 691 408 L 691 407 L 693 405 L 693 404 L 694 403 L 694 402 L 695 401 L 695 400 L 696 399 L 696 398 L 697 397 L 697 395 L 698 394 L 698 390 L 699 389 L 699 382 L 700 381 L 700 380 L 699 379 L 699 375 L 698 374 L 698 373 L 697 372 L 697 371 L 685 359 L 685 358 L 683 356 L 683 355 L 682 354 L 682 353 L 681 352 L 681 350 L 680 349 L 680 346 L 679 345 L 679 331 L 678 330 L 678 319 L 679 318 L 679 292 L 678 291 L 678 290 L 675 287 L 674 287 L 673 286 L 671 286 L 670 285 L 669 285 L 668 284 L 665 284 L 664 283 L 661 283 L 660 282 L 654 282 L 653 283 L 646 283 L 645 282 L 644 282 L 643 281 L 643 280 L 642 279 L 642 270 L 643 269 L 643 267 L 642 266 L 642 263 L 641 262 L 641 261 L 640 260 L 640 259 L 636 255 L 636 254 L 630 248 L 629 248 L 627 246 L 625 246 L 624 245 L 619 245 L 618 246 L 582 246 L 581 245 L 578 245 L 577 244 L 576 244 L 575 243 L 574 243 L 570 239 L 570 238 L 569 237 L 569 235 L 568 234 L 568 193 L 566 191 L 565 191 L 564 190 L 562 190 L 561 191 "></path>
        <path fill="none" stroke="#fa00fa" stroke-width="3" d="M 490 178 L 489 179 L 482 179 L 481 180 L 478 180 L 477 181 L 476 181 L 475 182 L 474 182 L 473 183 L 472 183 L 471 184 L 470 184 L 469 185 L 468 185 L 458 195 L 458 196 L 457 197 L 457 198 L 455 200 L 455 202 L 454 203 L 454 204 L 453 205 L 453 207 L 452 208 L 452 213 L 451 214 L 451 219 L 452 220 L 452 222 L 453 223 L 453 224 L 454 225 L 454 226 L 482 254 L 483 254 L 485 256 L 486 256 L 487 257 L 491 257 L 492 256 L 494 256 L 497 253 L 498 253 L 511 240 L 511 239 L 512 238 L 512 236 L 513 235 L 513 222 L 512 221 L 512 199 L 513 198 L 513 190 L 512 189 L 512 187 L 507 182 L 506 182 L 505 181 L 504 181 L 503 180 L 500 180 L 499 179 L 492 179 L 491 178 L 490 178 L 489 179 "></path>
        <path fill="none" stroke="#fa00fa" stroke-width="3" d="M 705 287 L 704 288 L 697 288 L 696 289 L 694 289 L 690 293 L 690 294 L 689 295 L 689 327 L 688 328 L 688 336 L 689 337 L 689 345 L 690 346 L 690 348 L 691 349 L 691 350 L 692 351 L 692 352 L 695 355 L 695 356 L 700 361 L 701 361 L 703 363 L 704 363 L 705 364 L 706 364 L 707 365 L 714 365 L 715 364 L 717 364 L 718 363 L 720 363 L 721 362 L 722 362 L 725 359 L 726 359 L 733 352 L 733 351 L 734 350 L 734 336 L 733 335 L 733 314 L 734 313 L 734 300 L 733 299 L 733 298 L 728 293 L 727 293 L 726 292 L 725 292 L 724 291 L 723 291 L 722 290 L 720 290 L 719 289 L 717 289 L 716 288 L 709 288 L 708 287 L 705 287 L 704 288 "></path>
        <path fill="none" stroke="#fa00fa" stroke-width="3" d="M 380 564 L 379 565 L 374 565 L 373 566 L 371 566 L 370 567 L 368 567 L 367 568 L 366 568 L 364 570 L 363 570 L 358 575 L 358 576 L 357 577 L 357 579 L 356 580 L 356 585 L 357 586 L 357 619 L 358 620 L 358 621 L 360 623 L 363 623 L 364 624 L 367 624 L 368 623 L 393 623 L 394 624 L 400 624 L 401 623 L 403 623 L 405 621 L 406 621 L 408 619 L 408 618 L 410 616 L 410 615 L 411 614 L 411 613 L 412 612 L 412 611 L 413 610 L 413 608 L 414 607 L 414 604 L 415 603 L 415 592 L 414 591 L 414 588 L 413 587 L 413 585 L 412 584 L 412 583 L 411 582 L 411 581 L 409 579 L 409 578 L 401 570 L 400 570 L 399 569 L 398 569 L 397 568 L 396 568 L 395 567 L 394 567 L 393 566 L 391 566 L 390 565 L 384 565 L 383 564 L 380 564 L 379 565 "></path>
        <path fill="none" stroke="#fa00fa" stroke-width="3" d="M 339 467 L 338 468 L 300 468 L 299 469 L 298 469 L 295 472 L 295 473 L 294 474 L 294 475 L 293 476 L 293 478 L 292 479 L 292 483 L 291 484 L 291 493 L 292 494 L 292 498 L 293 499 L 293 502 L 294 503 L 294 504 L 295 505 L 295 506 L 296 507 L 296 508 L 300 512 L 301 512 L 302 513 L 346 513 L 347 514 L 350 514 L 351 513 L 354 513 L 355 512 L 356 512 L 359 509 L 359 508 L 360 507 L 360 506 L 361 505 L 361 504 L 362 503 L 362 501 L 363 500 L 363 497 L 364 496 L 364 486 L 363 485 L 363 484 L 362 483 L 362 482 L 356 476 L 356 475 L 349 468 L 347 468 L 346 467 L 339 467 L 338 468 "></path>
        <path fill="none" stroke="#fa00fa" stroke-width="3" d="M 636 191 L 633 194 L 633 204 L 634 205 L 634 211 L 633 212 L 633 215 L 634 216 L 634 223 L 633 224 L 633 237 L 634 238 L 634 239 L 643 248 L 644 248 L 646 250 L 647 250 L 648 251 L 649 251 L 650 252 L 659 252 L 660 251 L 663 251 L 664 250 L 666 250 L 667 249 L 668 249 L 669 248 L 670 248 L 671 247 L 672 247 L 674 245 L 675 245 L 682 238 L 682 237 L 683 236 L 683 235 L 685 233 L 685 232 L 686 231 L 686 229 L 687 228 L 687 225 L 688 224 L 688 210 L 687 209 L 687 206 L 686 205 L 686 203 L 685 202 L 685 201 L 684 200 L 684 199 L 682 197 L 682 196 L 679 193 L 678 193 L 677 192 L 675 192 L 674 191 L 668 191 L 667 192 L 646 192 L 645 191 L 636 191 L 633 194 "></path>
        <path fill="none" stroke="#fa00fa" stroke-width="3" d="M 366 191 L 365 192 L 360 192 L 359 193 L 358 193 L 354 197 L 354 198 L 353 199 L 353 200 L 352 201 L 352 202 L 351 203 L 351 204 L 350 205 L 350 207 L 349 208 L 349 212 L 348 213 L 348 222 L 349 223 L 349 227 L 350 228 L 350 230 L 352 232 L 352 233 L 354 235 L 355 235 L 356 236 L 395 236 L 396 237 L 401 237 L 402 236 L 403 236 L 404 235 L 405 235 L 411 229 L 411 228 L 413 226 L 413 225 L 414 224 L 414 221 L 415 220 L 415 213 L 414 212 L 414 208 L 413 207 L 413 205 L 412 204 L 412 203 L 411 202 L 411 201 L 410 200 L 410 199 L 408 197 L 408 196 L 405 193 L 404 193 L 403 192 L 401 192 L 400 191 L 393 191 L 392 192 L 367 192 L 366 191 L 365 192 "></path>
        <path fill="none" stroke="#fa00fa" stroke-width="3" d="M 341 356 L 340 357 L 303 357 L 301 359 L 301 361 L 300 362 L 301 363 L 301 373 L 302 374 L 302 385 L 301 386 L 301 401 L 302 402 L 303 402 L 304 403 L 310 403 L 311 402 L 334 402 L 335 403 L 348 403 L 350 401 L 351 401 L 354 398 L 354 397 L 362 389 L 362 388 L 365 385 L 365 383 L 366 382 L 366 377 L 365 376 L 365 375 L 364 374 L 364 373 L 361 370 L 361 369 L 349 357 L 347 357 L 346 356 L 341 356 L 340 357 "></path>
        <path fill="none" stroke="#fa00fa" stroke-width="3" d="M 743 357 L 742 358 L 741 358 L 740 359 L 739 359 L 736 362 L 736 363 L 732 367 L 732 368 L 731 369 L 731 370 L 730 371 L 730 372 L 729 373 L 729 377 L 728 378 L 728 383 L 729 384 L 729 389 L 730 390 L 730 392 L 731 393 L 731 395 L 732 396 L 732 397 L 736 401 L 737 401 L 738 402 L 742 402 L 743 403 L 744 403 L 745 402 L 786 402 L 789 399 L 789 388 L 788 387 L 788 373 L 789 372 L 789 361 L 788 360 L 788 359 L 787 359 L 786 358 L 785 358 L 784 357 L 777 357 L 776 358 L 755 358 L 754 357 L 743 357 L 742 358 "></path>
        <path fill="none" stroke="#fa00fa" stroke-width="3" d="M 742 412 L 741 413 L 738 413 L 737 414 L 736 414 L 732 418 L 732 419 L 731 420 L 731 422 L 730 423 L 730 426 L 729 427 L 729 433 L 728 434 L 728 435 L 729 436 L 729 442 L 730 443 L 730 444 L 731 445 L 731 446 L 732 447 L 732 448 L 737 453 L 737 454 L 739 456 L 740 456 L 741 457 L 742 457 L 743 458 L 754 458 L 755 457 L 776 457 L 777 458 L 784 458 L 785 457 L 786 457 L 787 456 L 788 456 L 788 455 L 789 454 L 789 444 L 788 443 L 788 428 L 789 427 L 789 416 L 788 415 L 788 414 L 787 414 L 786 413 L 783 413 L 782 412 L 781 413 L 747 413 L 746 412 L 742 412 L 741 413 "></path>
        <path fill="none" stroke="#fa00fa" stroke-width="3" d="M 305 523 L 304 524 L 303 524 L 302 525 L 302 526 L 301 527 L 301 535 L 302 536 L 302 556 L 301 557 L 301 561 L 302 562 L 302 565 L 304 567 L 305 567 L 306 568 L 340 568 L 341 569 L 344 569 L 345 568 L 348 568 L 349 567 L 350 567 L 354 563 L 354 562 L 356 560 L 356 559 L 357 558 L 357 557 L 358 556 L 358 554 L 359 553 L 359 551 L 360 550 L 360 536 L 359 535 L 359 532 L 358 531 L 358 530 L 357 529 L 357 528 L 354 525 L 353 525 L 352 524 L 349 524 L 348 523 L 305 523 L 304 524 "></path>
        <path fill="none" stroke="#fa00fa" stroke-width="3" d="M 431 622 L 430 623 L 427 623 L 426 624 L 424 624 L 423 625 L 422 625 L 421 626 L 420 626 L 418 628 L 417 628 L 414 631 L 414 632 L 413 633 L 413 634 L 412 635 L 412 652 L 413 653 L 413 656 L 412 657 L 412 669 L 413 670 L 413 673 L 417 677 L 418 677 L 419 678 L 423 678 L 424 679 L 425 679 L 426 678 L 442 678 L 443 679 L 450 679 L 451 678 L 453 678 L 456 675 L 456 673 L 457 672 L 457 634 L 456 633 L 456 632 L 455 631 L 455 630 L 452 627 L 451 627 L 449 625 L 448 625 L 447 624 L 446 624 L 445 623 L 442 623 L 441 622 L 431 622 L 430 623 "></path>
        <path fill="none" stroke="#fa00fa" stroke-width="3" d="M 471 634 L 470 635 L 469 635 L 468 636 L 468 637 L 467 638 L 467 649 L 468 650 L 468 663 L 467 664 L 467 673 L 468 674 L 468 675 L 469 676 L 469 677 L 470 677 L 471 678 L 472 678 L 473 679 L 482 679 L 483 678 L 498 678 L 499 679 L 506 679 L 507 678 L 510 678 L 511 677 L 512 677 L 516 673 L 516 672 L 518 670 L 518 669 L 519 668 L 519 667 L 520 666 L 520 665 L 521 664 L 521 662 L 522 661 L 522 656 L 523 655 L 523 649 L 522 648 L 522 645 L 521 644 L 521 642 L 520 641 L 520 640 L 515 635 L 514 635 L 513 634 L 471 634 L 470 635 "></path>
        <path fill="none" stroke="#fa00fa" stroke-width="3" d="M 529 136 L 528 137 L 525 137 L 524 138 L 523 138 L 519 142 L 519 143 L 517 145 L 517 146 L 516 147 L 516 148 L 515 149 L 515 151 L 514 152 L 514 154 L 513 155 L 513 160 L 512 161 L 512 165 L 513 166 L 513 170 L 514 171 L 514 173 L 515 174 L 515 175 L 517 177 L 517 178 L 518 178 L 520 180 L 521 180 L 522 181 L 565 181 L 566 180 L 567 180 L 567 179 L 568 178 L 568 169 L 567 168 L 567 150 L 568 149 L 568 143 L 567 142 L 567 139 L 565 137 L 564 137 L 563 136 L 553 136 L 552 137 L 536 137 L 535 136 L 529 136 L 528 137 "></path>
        <path fill="none" stroke="#fa00fa" stroke-width="3" d="M 326 238 L 325 239 L 319 239 L 318 240 L 316 240 L 315 241 L 313 241 L 312 242 L 311 242 L 309 244 L 308 244 L 303 249 L 303 250 L 302 251 L 302 279 L 301 280 L 301 288 L 302 289 L 302 290 L 303 291 L 305 291 L 306 292 L 312 292 L 313 291 L 333 291 L 334 292 L 344 292 L 346 290 L 346 289 L 347 288 L 347 284 L 346 283 L 346 247 L 345 246 L 345 245 L 344 244 L 344 243 L 343 242 L 342 242 L 341 241 L 340 241 L 339 240 L 337 240 L 336 239 L 330 239 L 329 238 L 326 238 L 325 239 "></path>
        <path fill="none" stroke="#fa00fa" stroke-width="3" d="M 748 247 L 747 248 L 745 248 L 743 250 L 742 250 L 740 252 L 740 253 L 738 255 L 738 256 L 737 257 L 737 258 L 736 259 L 736 260 L 735 261 L 735 264 L 734 265 L 734 278 L 735 279 L 735 281 L 736 282 L 736 283 L 737 284 L 737 285 L 738 286 L 738 287 L 741 290 L 742 290 L 743 291 L 746 291 L 747 292 L 751 292 L 752 291 L 774 291 L 775 292 L 778 292 L 779 291 L 783 291 L 784 290 L 785 290 L 787 288 L 787 287 L 788 286 L 788 257 L 787 256 L 787 254 L 786 253 L 786 252 L 784 250 L 783 250 L 781 248 L 778 248 L 777 247 L 748 247 L 747 248 "></path>
        <path fill="none" stroke="#fa00fa" stroke-width="3" d="M 284 412 L 283 413 L 251 413 L 250 414 L 249 414 L 248 415 L 248 416 L 247 417 L 247 418 L 246 419 L 246 428 L 247 429 L 247 442 L 246 443 L 246 448 L 247 449 L 247 453 L 249 455 L 249 456 L 253 460 L 254 460 L 256 462 L 257 462 L 258 463 L 260 463 L 261 464 L 262 464 L 263 465 L 266 465 L 267 466 L 278 466 L 279 465 L 282 465 L 283 464 L 285 464 L 287 462 L 288 462 L 288 461 L 290 459 L 290 457 L 291 456 L 291 416 L 290 415 L 290 414 L 289 413 L 287 413 L 286 412 L 284 412 L 283 413 "></path>
        <path fill="none" stroke="#fa00fa" stroke-width="3" d="M 636 634 L 635 635 L 633 635 L 632 636 L 631 636 L 628 639 L 628 640 L 627 641 L 627 643 L 626 644 L 626 647 L 625 648 L 625 657 L 626 658 L 626 661 L 627 662 L 627 664 L 628 665 L 628 666 L 629 667 L 629 668 L 631 670 L 631 671 L 636 676 L 637 676 L 638 677 L 640 677 L 641 678 L 667 678 L 668 677 L 670 677 L 671 676 L 672 676 L 676 672 L 676 671 L 677 670 L 677 667 L 678 666 L 678 638 L 675 635 L 674 635 L 673 634 L 636 634 L 635 635 "></path>
        <path fill="none" stroke="#fa00fa" stroke-width="3" d="M 379 134 L 378 135 L 374 135 L 373 136 L 371 136 L 370 137 L 369 137 L 368 138 L 367 138 L 366 139 L 365 139 L 360 144 L 360 145 L 359 146 L 359 147 L 358 148 L 358 151 L 357 152 L 357 174 L 358 175 L 358 177 L 360 179 L 361 179 L 362 180 L 364 180 L 365 181 L 398 181 L 399 180 L 401 180 L 403 178 L 404 178 L 404 177 L 406 175 L 406 174 L 407 173 L 407 171 L 408 170 L 408 166 L 409 165 L 409 159 L 408 158 L 408 154 L 407 153 L 407 152 L 406 151 L 406 149 L 404 147 L 404 146 L 397 139 L 396 139 L 394 137 L 392 137 L 391 136 L 390 136 L 389 135 L 385 135 L 384 134 L 379 134 L 378 135 "></path>
        <path fill="none" stroke="#fa00fa" stroke-width="3" d="M 359 246 L 356 249 L 356 257 L 357 258 L 357 280 L 356 281 L 356 289 L 357 290 L 357 291 L 358 291 L 359 292 L 395 292 L 396 291 L 397 291 L 401 287 L 401 285 L 402 284 L 402 251 L 401 250 L 401 249 L 399 247 L 398 247 L 397 246 L 389 246 L 388 247 L 368 247 L 367 246 L 359 246 L 356 249 "></path>
        <path fill="none" stroke="#fa00fa" stroke-width="3" d="M 304 412 L 303 413 L 302 413 L 301 414 L 301 415 L 300 416 L 300 419 L 301 420 L 301 456 L 303 458 L 341 458 L 342 457 L 343 457 L 346 454 L 346 417 L 345 416 L 345 415 L 343 413 L 341 413 L 340 412 L 334 412 L 333 413 L 311 413 L 310 412 L 304 412 L 303 413 "></path>
        <path fill="none" stroke="#fa00fa" stroke-width="3" d="M 691 523 L 690 524 L 689 524 L 689 525 L 688 526 L 688 535 L 689 536 L 689 559 L 688 560 L 688 565 L 689 566 L 689 567 L 690 568 L 691 568 L 692 569 L 697 569 L 698 568 L 725 568 L 726 569 L 728 569 L 729 568 L 731 568 L 733 566 L 733 565 L 734 564 L 734 558 L 733 557 L 733 535 L 734 534 L 734 526 L 731 523 L 691 523 L 690 524 "></path>
        <path fill="none" stroke="#fa00fa" stroke-width="3" d="M 637 578 L 636 579 L 635 579 L 633 581 L 633 621 L 636 624 L 646 624 L 647 623 L 665 623 L 666 624 L 675 624 L 678 621 L 678 619 L 679 618 L 679 617 L 678 616 L 678 588 L 679 587 L 679 582 L 678 581 L 678 580 L 677 579 L 675 579 L 674 578 L 672 578 L 671 579 L 643 579 L 642 578 L 637 578 L 636 579 "></path>
        <path fill="none" stroke="#fa00fa" stroke-width="3" d="M 339 301 L 338 302 L 303 302 L 301 304 L 301 315 L 302 316 L 302 333 L 301 334 L 301 345 L 303 347 L 342 347 L 343 346 L 344 346 L 345 345 L 345 344 L 346 343 L 346 311 L 347 310 L 347 306 L 346 305 L 346 303 L 345 302 L 343 302 L 342 301 L 339 301 L 338 302 "></path>
        <path fill="none" stroke="#fa00fa" stroke-width="3" d="M 580 191 L 578 193 L 578 232 L 582 236 L 620 236 L 623 233 L 623 198 L 624 197 L 624 195 L 623 194 L 623 193 L 621 191 L 608 191 L 607 192 L 595 192 L 594 191 L 580 191 L 578 193 "></path>
        <path fill="none" stroke="#fa00fa" stroke-width="3" d="M 267 517 L 266 518 L 263 518 L 262 519 L 261 519 L 260 520 L 259 520 L 258 521 L 257 521 L 255 523 L 254 523 L 251 526 L 251 527 L 249 529 L 249 530 L 248 531 L 248 533 L 247 534 L 247 553 L 248 554 L 248 557 L 249 558 L 249 559 L 251 561 L 251 562 L 253 564 L 254 564 L 256 566 L 257 566 L 258 567 L 263 567 L 264 568 L 283 568 L 284 567 L 286 567 L 287 566 L 288 566 L 289 565 L 289 564 L 290 563 L 290 561 L 291 560 L 291 529 L 290 528 L 290 525 L 289 524 L 289 523 L 287 521 L 286 521 L 284 519 L 282 519 L 281 518 L 279 518 L 278 517 L 267 517 L 266 518 "></path>
        <path fill="none" stroke="#fa00fa" stroke-width="3" d="M 747 468 L 744 471 L 744 510 L 745 511 L 745 512 L 746 513 L 783 513 L 784 512 L 785 512 L 788 509 L 788 507 L 789 506 L 789 500 L 788 499 L 788 482 L 789 481 L 789 472 L 788 471 L 788 470 L 787 469 L 786 469 L 785 468 L 747 468 L 744 471 "></path>
        <path fill="none" stroke="#fa00fa" stroke-width="3" d="M 747 302 L 744 305 L 744 344 L 747 347 L 785 347 L 786 346 L 787 346 L 788 345 L 788 344 L 789 343 L 789 333 L 788 332 L 788 316 L 789 315 L 789 309 L 788 308 L 788 306 L 785 303 L 783 303 L 782 302 L 747 302 L 744 305 "></path>
        <path fill="none" stroke="#fa00fa" stroke-width="3" d="M 584 136 L 583 137 L 581 137 L 579 139 L 579 141 L 578 142 L 578 179 L 579 180 L 580 180 L 581 181 L 620 181 L 623 178 L 623 166 L 622 165 L 622 156 L 623 155 L 623 144 L 622 143 L 622 141 L 618 137 L 615 137 L 614 136 L 609 136 L 608 137 L 593 137 L 592 136 L 584 136 L 583 137 "></path>
        <path fill="none" stroke="#fa00fa" stroke-width="3" d="M 256 357 L 255 358 L 251 358 L 247 362 L 247 365 L 246 366 L 246 371 L 247 372 L 247 388 L 246 389 L 246 395 L 247 396 L 247 398 L 250 401 L 251 401 L 252 402 L 282 402 L 283 403 L 287 403 L 288 402 L 289 402 L 291 400 L 291 360 L 288 357 L 279 357 L 278 358 L 260 358 L 259 357 L 256 357 L 255 358 "></path>
        <path fill="none" stroke="#fa00fa" stroke-width="3" d="M 693 578 L 692 579 L 690 579 L 689 580 L 689 582 L 688 583 L 688 587 L 689 588 L 689 620 L 692 623 L 694 623 L 695 624 L 698 624 L 699 623 L 725 623 L 726 622 L 728 622 L 732 618 L 732 616 L 733 615 L 733 589 L 734 588 L 734 585 L 733 584 L 733 582 L 730 579 L 697 579 L 696 578 L 693 578 L 692 579 "></path>
        <path fill="none" stroke="#fa00fa" stroke-width="3" d="M 260 302 L 259 303 L 254 303 L 253 304 L 252 304 L 248 308 L 248 310 L 247 311 L 247 341 L 248 342 L 248 343 L 251 346 L 254 346 L 255 347 L 288 347 L 291 344 L 291 306 L 290 305 L 290 304 L 289 303 L 288 303 L 287 302 L 277 302 L 276 303 L 263 303 L 262 302 L 260 302 L 259 303 "></path>
        <path fill="none" stroke="#fa00fa" stroke-width="3" d="M 596 683 L 595 684 L 592 684 L 591 685 L 589 685 L 588 686 L 587 686 L 584 689 L 583 689 L 580 692 L 580 693 L 578 695 L 578 696 L 577 697 L 577 698 L 576 699 L 576 702 L 575 703 L 575 713 L 576 714 L 576 716 L 577 717 L 577 719 L 578 720 L 578 721 L 581 724 L 581 725 L 583 727 L 584 727 L 586 729 L 587 729 L 588 730 L 589 730 L 590 731 L 591 731 L 592 732 L 595 732 L 596 733 L 603 733 L 604 732 L 607 732 L 608 731 L 610 731 L 611 730 L 612 730 L 614 728 L 615 728 L 619 724 L 619 723 L 620 722 L 620 721 L 621 720 L 621 718 L 622 717 L 622 698 L 621 697 L 621 696 L 620 695 L 620 694 L 619 693 L 619 692 L 615 688 L 614 688 L 612 686 L 611 686 L 610 685 L 608 685 L 607 684 L 604 684 L 603 683 L 596 683 L 595 684 "></path>
        <path fill="none" stroke="#fa00fa" stroke-width="3" d="M 487 82 L 486 83 L 482 83 L 481 84 L 479 84 L 478 85 L 477 85 L 475 87 L 474 87 L 471 90 L 471 91 L 470 92 L 470 93 L 469 94 L 469 96 L 468 97 L 468 118 L 469 119 L 469 121 L 470 122 L 470 123 L 475 128 L 476 128 L 478 130 L 479 130 L 480 131 L 482 131 L 483 132 L 487 132 L 488 133 L 492 133 L 493 132 L 497 132 L 498 131 L 500 131 L 501 130 L 502 130 L 503 129 L 504 129 L 506 127 L 507 127 L 509 125 L 509 124 L 510 123 L 510 122 L 511 121 L 511 119 L 512 118 L 512 97 L 511 96 L 511 93 L 510 92 L 510 91 L 505 86 L 504 86 L 503 85 L 502 85 L 501 84 L 500 84 L 499 83 L 495 83 L 494 82 L 487 82 L 486 83 "></path>
        <path fill="none" stroke="#fa00fa" stroke-width="3" d="M 747 523 L 744 526 L 744 564 L 745 565 L 745 566 L 746 567 L 747 567 L 748 568 L 778 568 L 779 567 L 781 567 L 783 565 L 784 565 L 786 563 L 786 562 L 787 561 L 787 559 L 788 558 L 788 529 L 787 528 L 787 527 L 785 525 L 784 525 L 783 524 L 756 524 L 755 523 L 747 523 L 744 526 "></path>
        <path fill="none" stroke="#fa00fa" stroke-width="3" d="M 758 191 L 757 192 L 755 192 L 754 193 L 753 193 L 752 194 L 751 194 L 750 195 L 749 195 L 742 202 L 742 203 L 741 204 L 741 205 L 740 206 L 740 207 L 739 208 L 739 211 L 738 212 L 738 221 L 739 222 L 739 225 L 740 226 L 740 227 L 741 228 L 741 229 L 742 230 L 742 231 L 745 234 L 746 234 L 747 235 L 749 235 L 750 236 L 777 236 L 778 235 L 780 235 L 781 234 L 782 234 L 784 232 L 784 231 L 786 229 L 786 227 L 787 226 L 787 223 L 788 222 L 788 212 L 787 211 L 787 207 L 786 206 L 786 204 L 784 202 L 784 201 L 778 195 L 777 195 L 776 194 L 775 194 L 774 193 L 773 193 L 772 192 L 769 192 L 768 191 L 758 191 L 757 192 "></path>
        <path fill="none" stroke="#fa00fa" stroke-width="3" d="M 640 137 L 639 138 L 638 138 L 635 141 L 635 142 L 634 143 L 634 148 L 633 149 L 633 150 L 634 151 L 634 168 L 633 169 L 633 177 L 634 178 L 634 179 L 636 181 L 673 181 L 674 180 L 675 180 L 677 178 L 677 177 L 678 176 L 678 149 L 677 148 L 677 145 L 676 144 L 676 143 L 672 139 L 671 139 L 670 138 L 668 138 L 667 137 L 640 137 L 639 138 "></path>
        <path fill="none" stroke="#fa00fa" stroke-width="3" d="M 308 579 L 307 580 L 305 580 L 303 582 L 303 583 L 302 584 L 302 612 L 303 613 L 303 615 L 304 616 L 304 617 L 308 621 L 309 621 L 310 622 L 312 622 L 313 623 L 341 623 L 342 622 L 343 622 L 345 620 L 345 618 L 346 617 L 346 582 L 343 579 L 308 579 L 307 580 "></path>
        <path fill="none" stroke="#fa00fa" stroke-width="3" d="M 268 244 L 267 245 L 264 245 L 263 246 L 261 246 L 260 247 L 259 247 L 258 248 L 257 248 L 249 256 L 249 258 L 248 259 L 248 261 L 247 262 L 247 281 L 248 282 L 248 284 L 249 285 L 249 286 L 253 290 L 254 290 L 255 291 L 279 291 L 280 292 L 285 292 L 286 291 L 288 291 L 290 289 L 290 288 L 291 287 L 291 256 L 290 255 L 290 252 L 288 250 L 288 249 L 287 249 L 285 247 L 284 247 L 283 246 L 281 246 L 280 245 L 277 245 L 276 244 L 268 244 L 267 245 "></path>
        <path fill="none" stroke="#fa00fa" stroke-width="3" d="M 706 137 L 705 138 L 700 138 L 699 139 L 697 139 L 696 140 L 695 140 L 691 144 L 691 145 L 690 146 L 690 147 L 689 148 L 689 176 L 690 177 L 690 178 L 691 179 L 691 180 L 693 182 L 694 182 L 696 184 L 697 184 L 698 185 L 700 185 L 701 186 L 703 186 L 704 187 L 713 187 L 714 186 L 717 186 L 718 185 L 719 185 L 720 184 L 721 184 L 722 183 L 723 183 L 730 176 L 730 175 L 731 174 L 731 173 L 732 172 L 732 170 L 733 169 L 733 166 L 734 165 L 734 158 L 733 157 L 733 154 L 732 153 L 732 151 L 730 149 L 730 148 L 728 146 L 728 145 L 725 142 L 724 142 L 722 140 L 721 140 L 720 139 L 718 139 L 717 138 L 712 138 L 711 137 L 706 137 L 705 138 "></path>
        <path fill="none" stroke="#fa00fa" stroke-width="3" d="M 364 634 L 363 635 L 361 635 L 358 638 L 358 640 L 357 641 L 357 663 L 358 664 L 358 667 L 359 668 L 359 670 L 365 676 L 366 676 L 367 677 L 370 677 L 371 678 L 393 678 L 394 677 L 395 677 L 396 676 L 397 676 L 400 673 L 400 672 L 401 671 L 401 646 L 402 645 L 402 639 L 401 638 L 401 637 L 398 634 L 364 634 L 363 635 "></path>
        <path fill="none" stroke="#fa00fa" stroke-width="3" d="M 804 413 L 803 414 L 802 414 L 800 416 L 800 419 L 799 420 L 799 449 L 800 450 L 800 453 L 801 454 L 801 455 L 802 456 L 803 456 L 804 457 L 831 457 L 832 456 L 834 456 L 835 455 L 836 455 L 840 451 L 840 450 L 841 449 L 841 448 L 842 447 L 842 446 L 843 445 L 843 444 L 844 443 L 844 439 L 845 438 L 845 431 L 844 430 L 844 427 L 843 426 L 843 424 L 842 423 L 842 422 L 841 421 L 841 420 L 836 415 L 835 415 L 834 414 L 832 414 L 831 413 L 804 413 L 803 414 "></path>
        <path fill="none" stroke="#fa00fa" stroke-width="3" d="M 804 358 L 803 359 L 802 359 L 801 360 L 801 361 L 800 362 L 800 366 L 799 367 L 799 395 L 800 396 L 800 399 L 802 401 L 803 401 L 804 402 L 832 402 L 833 401 L 834 401 L 835 400 L 836 400 L 841 395 L 841 394 L 842 393 L 842 390 L 843 389 L 843 372 L 842 371 L 842 368 L 841 367 L 841 366 L 840 365 L 840 364 L 836 360 L 835 360 L 834 359 L 832 359 L 831 358 L 804 358 L 803 359 "></path>
        <path fill="none" stroke="#fa00fa" stroke-width="3" d="M 494 689 L 493 690 L 474 690 L 473 691 L 472 691 L 471 692 L 470 692 L 470 693 L 469 694 L 469 695 L 468 696 L 468 719 L 469 720 L 469 722 L 470 723 L 470 724 L 475 729 L 476 729 L 477 730 L 478 730 L 479 731 L 480 731 L 481 732 L 485 732 L 486 733 L 494 733 L 495 732 L 499 732 L 500 731 L 502 731 L 504 729 L 505 729 L 512 722 L 512 721 L 513 720 L 513 719 L 514 718 L 514 716 L 515 715 L 515 712 L 516 711 L 516 705 L 515 704 L 515 700 L 514 699 L 514 697 L 513 696 L 513 695 L 509 691 L 508 691 L 507 690 L 502 690 L 501 689 L 494 689 L 493 690 "></path>
        <path fill="none" stroke="#fa00fa" stroke-width="3" d="M 432 83 L 431 84 L 428 84 L 427 85 L 425 85 L 424 86 L 423 86 L 420 89 L 419 89 L 418 90 L 418 91 L 415 94 L 415 95 L 414 96 L 414 97 L 413 98 L 413 100 L 412 101 L 412 113 L 413 114 L 413 116 L 414 117 L 414 118 L 415 119 L 415 120 L 418 123 L 418 124 L 419 124 L 422 127 L 423 127 L 425 129 L 427 129 L 428 130 L 430 130 L 431 131 L 440 131 L 441 130 L 443 130 L 444 129 L 446 129 L 447 128 L 448 128 L 450 126 L 451 126 L 453 124 L 453 123 L 455 121 L 455 120 L 456 119 L 456 112 L 457 111 L 457 106 L 456 105 L 456 95 L 455 94 L 455 93 L 454 92 L 454 91 L 451 88 L 450 88 L 448 86 L 447 86 L 446 85 L 445 85 L 444 84 L 441 84 L 440 83 L 432 83 L 431 84 "></path>
        <path fill="none" stroke="#fa00fa" stroke-width="3" d="M 806 468 L 805 469 L 803 469 L 801 471 L 801 472 L 800 473 L 800 476 L 799 477 L 799 502 L 800 503 L 800 506 L 801 507 L 801 508 L 804 511 L 805 511 L 806 512 L 829 512 L 830 511 L 832 511 L 833 510 L 834 510 L 839 505 L 839 504 L 840 503 L 840 502 L 841 501 L 841 500 L 842 499 L 842 495 L 843 494 L 843 484 L 842 483 L 842 480 L 841 479 L 841 477 L 839 475 L 839 474 L 835 470 L 834 470 L 833 469 L 829 469 L 828 468 L 806 468 L 805 469 "></path>
        <path fill="none" stroke="#fa00fa" stroke-width="3" d="M 749 579 L 748 580 L 747 580 L 745 582 L 745 584 L 744 585 L 744 612 L 745 613 L 745 615 L 746 616 L 746 617 L 750 621 L 751 621 L 752 622 L 753 622 L 754 623 L 757 623 L 758 624 L 769 624 L 770 623 L 772 623 L 773 622 L 774 622 L 775 621 L 776 621 L 777 620 L 778 620 L 784 614 L 784 613 L 786 611 L 786 609 L 787 608 L 787 604 L 788 603 L 788 595 L 787 594 L 787 589 L 786 588 L 786 587 L 785 586 L 785 585 L 784 584 L 784 583 L 783 582 L 782 582 L 780 580 L 778 580 L 777 579 L 749 579 L 748 580 "></path>
        <path fill="none" stroke="#fa00fa" stroke-width="3" d="M 540 82 L 539 83 L 536 83 L 535 84 L 533 84 L 532 85 L 531 85 L 528 88 L 527 88 L 527 89 L 525 91 L 525 92 L 524 93 L 524 95 L 523 96 L 523 120 L 524 121 L 524 122 L 526 124 L 527 124 L 528 125 L 531 125 L 532 126 L 555 126 L 556 125 L 562 125 L 563 124 L 564 124 L 566 122 L 566 120 L 567 119 L 567 96 L 566 95 L 566 93 L 565 92 L 565 91 L 560 86 L 559 86 L 558 85 L 557 85 L 556 84 L 555 84 L 554 83 L 550 83 L 549 82 L 540 82 L 539 83 "></path>
        <path fill="none" stroke="#fa00fa" stroke-width="3" d="M 806 303 L 805 304 L 804 304 L 801 307 L 801 308 L 800 309 L 800 313 L 799 314 L 799 327 L 800 328 L 800 342 L 801 343 L 801 344 L 803 346 L 805 346 L 806 347 L 828 347 L 829 346 L 832 346 L 833 345 L 834 345 L 835 344 L 836 344 L 839 341 L 839 340 L 841 338 L 841 336 L 842 335 L 842 332 L 843 331 L 843 320 L 842 319 L 842 316 L 841 315 L 841 314 L 840 313 L 840 312 L 839 311 L 839 310 L 834 305 L 833 305 L 832 304 L 830 304 L 829 303 L 806 303 L 805 304 "></path>
        <path fill="none" stroke="#fa00fa" stroke-width="3" d="M 695 634 L 694 635 L 692 635 L 690 637 L 690 638 L 689 639 L 689 667 L 690 668 L 690 669 L 691 670 L 691 671 L 695 675 L 696 675 L 697 676 L 699 676 L 700 677 L 705 677 L 706 678 L 711 678 L 712 677 L 717 677 L 718 676 L 720 676 L 721 675 L 722 675 L 724 673 L 725 673 L 729 669 L 729 668 L 731 666 L 731 665 L 732 664 L 732 663 L 733 662 L 733 659 L 734 658 L 734 648 L 733 647 L 733 645 L 732 644 L 732 642 L 731 641 L 731 640 L 727 636 L 726 636 L 725 635 L 723 635 L 722 634 L 695 634 L 694 635 "></path>
        <path fill="none" stroke="#fa00fa" stroke-width="3" d="M 322 138 L 321 139 L 318 139 L 317 140 L 316 140 L 315 141 L 314 141 L 312 143 L 311 143 L 308 146 L 308 147 L 306 149 L 306 150 L 305 151 L 305 152 L 304 153 L 304 155 L 303 156 L 303 167 L 304 168 L 304 170 L 305 171 L 305 172 L 306 173 L 306 174 L 308 176 L 308 177 L 311 180 L 312 180 L 314 182 L 315 182 L 316 183 L 317 183 L 318 184 L 320 184 L 321 185 L 331 185 L 332 184 L 335 184 L 336 183 L 337 183 L 338 182 L 339 182 L 344 177 L 344 176 L 345 175 L 345 173 L 346 172 L 346 151 L 345 150 L 345 148 L 344 147 L 344 146 L 340 142 L 339 142 L 337 140 L 335 140 L 334 139 L 332 139 L 331 138 L 322 138 L 321 139 "></path>
        <path fill="none" stroke="#fa00fa" stroke-width="3" d="M 593 83 L 592 84 L 590 84 L 589 85 L 588 85 L 587 86 L 586 86 L 584 88 L 583 88 L 582 89 L 582 90 L 580 92 L 580 93 L 579 94 L 579 99 L 578 100 L 578 116 L 579 117 L 579 120 L 580 121 L 580 122 L 582 124 L 583 124 L 584 125 L 604 125 L 605 126 L 608 126 L 609 125 L 615 125 L 616 124 L 617 124 L 621 120 L 621 118 L 622 117 L 622 98 L 621 97 L 621 95 L 620 94 L 620 93 L 619 92 L 619 91 L 615 87 L 614 87 L 613 86 L 612 86 L 611 85 L 610 85 L 609 84 L 607 84 L 606 83 L 593 83 L 592 84 "></path>
        <path fill="none" stroke="#fa00fa" stroke-width="3" d="M 207 469 L 206 470 L 204 470 L 202 472 L 201 472 L 199 474 L 199 475 L 197 477 L 197 478 L 196 479 L 196 480 L 195 481 L 195 483 L 194 484 L 194 495 L 195 496 L 195 498 L 196 499 L 196 500 L 197 501 L 197 502 L 199 504 L 199 505 L 201 507 L 202 507 L 204 509 L 205 509 L 206 510 L 207 510 L 208 511 L 211 511 L 212 512 L 221 512 L 222 511 L 225 511 L 226 510 L 228 510 L 229 509 L 230 509 L 236 503 L 236 502 L 237 501 L 237 500 L 238 499 L 238 498 L 239 497 L 239 495 L 240 494 L 240 485 L 239 484 L 239 482 L 238 481 L 238 479 L 236 477 L 236 476 L 231 471 L 230 471 L 229 470 L 228 470 L 227 469 L 207 469 L 206 470 "></path>
        <path fill="none" stroke="#fa00fa" stroke-width="3" d="M 209 413 L 208 414 L 205 414 L 204 415 L 203 415 L 202 416 L 201 416 L 198 419 L 198 420 L 196 422 L 196 423 L 195 424 L 195 425 L 194 426 L 194 429 L 193 430 L 193 440 L 194 441 L 194 443 L 195 444 L 195 446 L 196 447 L 196 448 L 203 455 L 204 455 L 205 456 L 208 456 L 209 457 L 226 457 L 227 456 L 229 456 L 230 455 L 231 455 L 234 452 L 234 451 L 235 450 L 235 420 L 234 419 L 234 418 L 231 415 L 230 415 L 229 414 L 227 414 L 226 413 L 209 413 L 208 414 "></path>
        <path fill="none" stroke="#fa00fa" stroke-width="3" d="M 209 358 L 208 359 L 205 359 L 204 360 L 203 360 L 196 367 L 196 368 L 195 369 L 195 371 L 194 372 L 194 374 L 193 375 L 193 385 L 194 386 L 194 389 L 195 390 L 195 391 L 196 392 L 196 393 L 198 395 L 198 396 L 200 398 L 201 398 L 203 400 L 204 400 L 205 401 L 209 401 L 210 402 L 225 402 L 226 401 L 229 401 L 230 400 L 231 400 L 234 397 L 234 396 L 235 395 L 235 375 L 236 374 L 236 373 L 235 372 L 235 365 L 234 364 L 234 363 L 231 360 L 230 360 L 229 359 L 227 359 L 226 358 L 209 358 L 208 359 "></path>
        <path fill="none" stroke="#fa00fa" stroke-width="3" d="M 421 690 L 420 691 L 419 691 L 415 695 L 415 696 L 414 697 L 414 699 L 413 700 L 413 716 L 414 717 L 414 719 L 415 720 L 415 721 L 416 722 L 416 723 L 421 728 L 422 728 L 423 729 L 424 729 L 425 730 L 426 730 L 427 731 L 429 731 L 430 732 L 441 732 L 442 731 L 444 731 L 445 730 L 446 730 L 447 729 L 448 729 L 449 728 L 450 728 L 454 724 L 454 723 L 455 722 L 455 721 L 456 720 L 456 696 L 455 695 L 455 694 L 452 691 L 451 691 L 450 690 L 421 690 L 420 691 "></path>
        <path fill="none" stroke="#fa00fa" stroke-width="3" d="M 317 634 L 316 635 L 313 635 L 312 636 L 311 636 L 310 637 L 309 637 L 307 639 L 307 640 L 305 642 L 305 644 L 304 645 L 304 647 L 303 648 L 303 659 L 304 660 L 304 662 L 305 663 L 305 664 L 306 665 L 306 666 L 307 667 L 307 668 L 311 672 L 312 672 L 314 674 L 315 674 L 316 675 L 317 675 L 318 676 L 321 676 L 322 677 L 330 677 L 331 676 L 334 676 L 335 675 L 337 675 L 338 674 L 339 674 L 344 669 L 344 668 L 345 667 L 345 665 L 346 664 L 346 642 L 345 641 L 345 639 L 342 636 L 341 636 L 340 635 L 338 635 L 337 634 L 317 634 L 316 635 "></path>
        <path fill="none" stroke="#fa00fa" stroke-width="3" d="M 261 579 L 260 580 L 258 580 L 256 582 L 255 582 L 253 584 L 253 585 L 251 587 L 251 588 L 250 589 L 250 591 L 249 592 L 249 597 L 248 598 L 248 600 L 249 601 L 249 606 L 250 607 L 250 608 L 251 609 L 251 610 L 252 611 L 252 612 L 255 615 L 255 616 L 256 616 L 259 619 L 260 619 L 261 620 L 262 620 L 263 621 L 265 621 L 266 622 L 277 622 L 278 621 L 280 621 L 281 620 L 283 620 L 285 618 L 286 618 L 288 616 L 288 615 L 289 614 L 289 613 L 290 612 L 290 609 L 291 608 L 291 589 L 290 588 L 290 585 L 289 584 L 289 583 L 287 581 L 286 581 L 285 580 L 284 580 L 283 579 L 261 579 L 260 580 "></path>
        <path fill="none" stroke="#fa00fa" stroke-width="3" d="M 808 524 L 807 525 L 805 525 L 803 527 L 802 527 L 802 528 L 801 529 L 801 530 L 800 531 L 800 535 L 799 536 L 799 552 L 800 553 L 800 557 L 801 558 L 801 559 L 802 560 L 802 561 L 804 563 L 805 563 L 807 565 L 809 565 L 810 566 L 813 566 L 814 567 L 823 567 L 824 566 L 827 566 L 828 565 L 829 565 L 830 564 L 831 564 L 834 561 L 835 561 L 836 560 L 836 559 L 838 557 L 838 556 L 839 555 L 839 554 L 840 553 L 840 552 L 841 551 L 841 545 L 842 544 L 841 543 L 841 538 L 840 537 L 840 535 L 839 534 L 839 533 L 838 532 L 838 531 L 833 526 L 832 526 L 831 525 L 829 525 L 828 524 L 808 524 L 807 525 "></path>
        <path fill="none" stroke="#fa00fa" stroke-width="3" d="M 814 248 L 813 249 L 810 249 L 809 250 L 807 250 L 805 252 L 804 252 L 802 254 L 802 255 L 801 256 L 801 257 L 800 258 L 800 264 L 799 265 L 799 269 L 800 270 L 800 284 L 801 285 L 801 286 L 805 290 L 807 290 L 808 291 L 828 291 L 829 290 L 831 290 L 832 289 L 833 289 L 838 284 L 838 283 L 839 282 L 839 281 L 840 280 L 840 278 L 841 277 L 841 265 L 840 264 L 840 262 L 839 261 L 839 260 L 838 259 L 838 258 L 831 251 L 830 251 L 829 250 L 828 250 L 827 249 L 823 249 L 822 248 L 814 248 L 813 249 "></path>
        <path fill="none" stroke="#fa00fa" stroke-width="3" d="M 212 303 L 211 304 L 208 304 L 207 305 L 206 305 L 205 306 L 204 306 L 202 308 L 201 308 L 200 309 L 200 310 L 197 313 L 197 314 L 196 315 L 196 316 L 195 317 L 195 319 L 194 320 L 194 331 L 195 332 L 195 334 L 196 335 L 196 336 L 197 337 L 197 338 L 203 344 L 204 344 L 205 345 L 206 345 L 207 346 L 227 346 L 228 345 L 229 345 L 230 344 L 231 344 L 234 341 L 234 339 L 235 338 L 235 323 L 236 322 L 236 320 L 235 319 L 235 312 L 234 311 L 234 310 L 230 306 L 229 306 L 228 305 L 227 305 L 226 304 L 223 304 L 222 303 L 212 303 L 211 304 "></path>
        <path fill="none" stroke="#fa00fa" stroke-width="3" d="M 647 689 L 646 690 L 642 690 L 641 691 L 640 691 L 639 692 L 638 692 L 637 693 L 637 694 L 635 696 L 635 698 L 634 699 L 634 717 L 635 718 L 635 720 L 636 721 L 636 722 L 641 727 L 642 727 L 643 728 L 644 728 L 645 729 L 646 729 L 647 730 L 650 730 L 651 731 L 658 731 L 659 730 L 662 730 L 663 729 L 664 729 L 665 728 L 666 728 L 668 726 L 669 726 L 672 723 L 672 722 L 674 720 L 674 719 L 675 718 L 675 716 L 676 715 L 676 711 L 677 710 L 677 706 L 676 705 L 676 701 L 675 700 L 675 698 L 674 697 L 674 696 L 669 691 L 668 691 L 667 690 L 662 690 L 661 689 L 647 689 L 646 690 "></path>
        <path fill="none" stroke="#fa00fa" stroke-width="3" d="M 652 84 L 651 85 L 647 85 L 646 86 L 645 86 L 644 87 L 643 87 L 642 88 L 641 88 L 637 92 L 637 93 L 635 95 L 635 97 L 634 98 L 634 116 L 635 117 L 635 118 L 636 119 L 636 120 L 640 124 L 641 124 L 642 125 L 648 125 L 649 126 L 660 126 L 661 125 L 666 125 L 667 124 L 668 124 L 669 123 L 670 123 L 673 120 L 673 119 L 674 118 L 674 117 L 675 116 L 675 115 L 676 114 L 676 100 L 675 99 L 675 97 L 674 96 L 674 95 L 671 92 L 671 91 L 670 90 L 669 90 L 666 87 L 665 87 L 664 86 L 662 86 L 661 85 L 658 85 L 657 84 L 652 84 L 651 85 "></path>
        <path fill="none" stroke="#fa00fa" stroke-width="3" d="M 376 689 L 375 690 L 370 690 L 369 691 L 368 691 L 367 692 L 366 692 L 363 695 L 363 696 L 362 697 L 362 698 L 361 699 L 361 700 L 360 701 L 360 704 L 359 705 L 359 711 L 360 712 L 360 715 L 361 716 L 361 718 L 363 720 L 363 721 L 368 726 L 369 726 L 371 728 L 373 728 L 374 729 L 376 729 L 377 730 L 384 730 L 385 729 L 388 729 L 389 728 L 390 728 L 391 727 L 392 727 L 394 725 L 395 725 L 397 723 L 397 722 L 399 720 L 399 719 L 400 718 L 400 715 L 401 714 L 401 702 L 400 701 L 400 698 L 399 697 L 399 696 L 394 691 L 392 691 L 391 690 L 385 690 L 384 689 L 376 689 L 375 690 "></path>
        <path fill="none" stroke="#fa00fa" stroke-width="3" d="M 378 574 L 377 575 L 375 575 L 374 576 L 372 576 L 370 578 L 369 578 L 368 579 L 368 580 L 367 581 L 367 582 L 366 583 L 366 593 L 367 594 L 367 611 L 369 613 L 388 613 L 389 614 L 395 614 L 396 613 L 398 613 L 400 611 L 401 611 L 401 610 L 403 608 L 403 607 L 404 606 L 404 604 L 405 603 L 405 591 L 404 590 L 404 588 L 403 587 L 403 586 L 401 584 L 401 583 L 396 578 L 395 578 L 393 576 L 391 576 L 390 575 L 388 575 L 387 574 L 378 574 L 377 575 "></path>
        <path fill="none" stroke="#fa00fa" stroke-width="3" d="M 212 524 L 211 525 L 208 525 L 207 526 L 206 526 L 204 528 L 203 528 L 200 531 L 200 532 L 198 534 L 198 535 L 197 536 L 197 538 L 196 539 L 196 549 L 197 550 L 197 552 L 198 553 L 198 554 L 199 555 L 199 556 L 205 562 L 206 562 L 207 563 L 208 563 L 209 564 L 211 564 L 212 565 L 221 565 L 222 564 L 225 564 L 226 563 L 227 563 L 229 561 L 230 561 L 232 559 L 232 558 L 234 556 L 234 554 L 235 553 L 235 535 L 234 534 L 234 533 L 233 532 L 233 531 L 229 527 L 228 527 L 227 526 L 226 526 L 225 525 L 223 525 L 222 524 L 212 524 L 211 525 "></path>
        <path fill="none" stroke="#fa00fa" stroke-width="3" d="M 212 250 L 211 251 L 209 251 L 208 252 L 207 252 L 206 253 L 205 253 L 199 259 L 199 260 L 198 261 L 198 262 L 197 263 L 197 265 L 196 266 L 196 275 L 197 276 L 197 278 L 198 279 L 198 281 L 200 283 L 200 284 L 203 287 L 204 287 L 206 289 L 208 289 L 209 290 L 212 290 L 213 291 L 221 291 L 222 290 L 225 290 L 226 289 L 227 289 L 228 288 L 229 288 L 233 284 L 233 283 L 234 282 L 234 281 L 235 280 L 235 262 L 234 261 L 234 259 L 232 257 L 232 256 L 230 254 L 229 254 L 227 252 L 226 252 L 225 251 L 223 251 L 222 250 L 212 250 L 211 251 "></path>
        <path fill="none" stroke="#fa00fa" stroke-width="3" d="M 869 360 L 868 361 L 866 361 L 865 362 L 864 362 L 863 363 L 862 363 L 857 368 L 857 369 L 856 370 L 856 372 L 855 373 L 855 388 L 856 389 L 856 390 L 857 391 L 857 392 L 858 393 L 858 394 L 860 396 L 861 396 L 863 398 L 864 398 L 865 399 L 867 399 L 868 400 L 878 400 L 879 399 L 881 399 L 882 398 L 883 398 L 885 396 L 886 396 L 890 392 L 890 391 L 891 390 L 891 389 L 892 388 L 892 386 L 893 385 L 893 375 L 892 374 L 892 372 L 891 371 L 891 370 L 889 368 L 889 367 L 886 364 L 885 364 L 883 362 L 881 362 L 880 361 L 878 361 L 877 360 L 869 360 L 868 361 "></path>
        <path fill="none" stroke="#fa00fa" stroke-width="3" d="M 812 580 L 811 581 L 809 581 L 808 582 L 807 582 L 802 587 L 802 588 L 801 589 L 801 591 L 800 592 L 800 606 L 801 607 L 801 609 L 803 611 L 803 612 L 806 615 L 807 615 L 809 617 L 810 617 L 811 618 L 814 618 L 815 619 L 822 619 L 823 618 L 825 618 L 826 617 L 828 617 L 830 615 L 831 615 L 835 611 L 835 610 L 836 609 L 836 608 L 837 607 L 837 606 L 838 605 L 838 593 L 837 592 L 837 591 L 836 590 L 836 589 L 835 588 L 835 587 L 831 583 L 830 583 L 828 581 L 826 581 L 825 580 L 812 580 L 811 581 "></path>
        <path fill="none" stroke="#fa00fa" stroke-width="3" d="M 815 196 L 814 197 L 811 197 L 810 198 L 809 198 L 807 200 L 806 200 L 803 203 L 803 204 L 802 205 L 802 206 L 801 207 L 801 208 L 800 209 L 800 222 L 801 223 L 801 225 L 802 226 L 802 227 L 803 228 L 803 229 L 806 232 L 807 232 L 808 233 L 809 233 L 810 234 L 812 234 L 813 235 L 824 235 L 825 234 L 827 234 L 828 233 L 829 233 L 830 232 L 831 232 L 834 229 L 834 228 L 836 226 L 836 225 L 837 224 L 837 222 L 838 221 L 838 210 L 837 209 L 837 208 L 836 207 L 836 206 L 835 205 L 835 204 L 831 200 L 830 200 L 828 198 L 827 198 L 826 197 L 823 197 L 822 196 L 815 196 L 814 197 "></path>
        <path fill="none" stroke="#fa00fa" stroke-width="3" d="M 703 690 L 702 691 L 700 691 L 699 692 L 698 692 L 693 697 L 693 698 L 692 699 L 692 700 L 691 701 L 691 703 L 690 704 L 690 713 L 691 714 L 691 716 L 692 717 L 692 718 L 693 719 L 693 720 L 698 725 L 699 725 L 700 726 L 701 726 L 702 727 L 704 727 L 705 728 L 714 728 L 715 727 L 717 727 L 718 726 L 719 726 L 722 723 L 723 723 L 724 722 L 724 721 L 726 719 L 726 718 L 727 717 L 727 716 L 728 715 L 728 712 L 729 711 L 729 706 L 728 705 L 728 702 L 727 701 L 727 700 L 726 699 L 726 698 L 724 696 L 724 695 L 723 694 L 722 694 L 720 692 L 719 692 L 718 691 L 716 691 L 715 690 L 703 690 L 702 691 "></path>
        <path fill="none" stroke="#fa00fa" stroke-width="3" d="M 705 87 L 704 88 L 702 88 L 701 89 L 700 89 L 699 90 L 698 90 L 693 95 L 693 96 L 692 97 L 692 98 L 691 99 L 691 101 L 690 102 L 690 111 L 691 112 L 691 114 L 692 115 L 692 116 L 693 117 L 693 118 L 697 122 L 698 122 L 700 124 L 703 124 L 704 125 L 715 125 L 716 124 L 718 124 L 719 123 L 720 123 L 726 117 L 726 116 L 727 115 L 727 114 L 728 113 L 728 109 L 729 108 L 729 105 L 728 104 L 728 100 L 727 99 L 727 98 L 726 97 L 726 96 L 720 90 L 719 90 L 718 89 L 717 89 L 716 88 L 714 88 L 713 87 L 705 87 L 704 88 "></path>
        <path fill="none" stroke="#fa00fa" stroke-width="3" d="M 868 471 L 867 472 L 865 472 L 864 473 L 863 473 L 857 479 L 857 480 L 856 481 L 856 484 L 855 485 L 855 495 L 856 496 L 856 498 L 857 499 L 857 500 L 859 502 L 859 503 L 861 505 L 862 505 L 863 506 L 864 506 L 865 507 L 866 507 L 867 508 L 869 508 L 870 509 L 876 509 L 877 508 L 880 508 L 881 507 L 882 507 L 883 506 L 884 506 L 889 501 L 889 500 L 891 498 L 891 496 L 892 495 L 892 484 L 891 483 L 891 482 L 890 481 L 890 480 L 889 479 L 889 478 L 885 474 L 884 474 L 883 473 L 882 473 L 881 472 L 880 472 L 879 471 L 868 471 L 867 472 "></path>
        <path fill="none" stroke="#fa00fa" stroke-width="3" d="M 543 744 L 542 745 L 539 745 L 538 746 L 536 746 L 534 748 L 533 748 L 530 751 L 530 752 L 528 754 L 528 755 L 527 756 L 527 758 L 526 759 L 526 768 L 527 769 L 527 771 L 528 772 L 528 773 L 531 776 L 531 777 L 532 777 L 535 780 L 536 780 L 537 781 L 539 781 L 540 782 L 550 782 L 551 781 L 553 781 L 554 780 L 555 780 L 561 774 L 561 773 L 562 772 L 562 771 L 563 770 L 563 768 L 564 767 L 564 760 L 563 759 L 563 757 L 562 756 L 562 754 L 560 752 L 560 751 L 558 749 L 557 749 L 555 747 L 554 747 L 553 746 L 552 746 L 551 745 L 548 745 L 547 744 L 543 744 L 542 745 "></path>
        <path fill="none" stroke="#fa00fa" stroke-width="3" d="M 871 306 L 870 307 L 867 307 L 866 308 L 865 308 L 864 309 L 863 309 L 857 315 L 857 316 L 856 317 L 856 320 L 855 321 L 855 330 L 856 331 L 856 333 L 857 334 L 857 335 L 858 336 L 858 337 L 862 341 L 863 341 L 865 343 L 867 343 L 868 344 L 879 344 L 880 343 L 881 343 L 882 342 L 883 342 L 884 341 L 885 341 L 889 337 L 889 336 L 891 334 L 891 332 L 892 331 L 892 327 L 893 326 L 893 325 L 892 324 L 892 320 L 891 319 L 891 317 L 890 316 L 890 315 L 884 309 L 883 309 L 882 308 L 881 308 L 880 307 L 877 307 L 876 306 L 871 306 L 870 307 "></path>
        <path fill="none" stroke="#fa00fa" stroke-width="3" d="M 540 33 L 539 34 L 537 34 L 536 35 L 535 35 L 529 41 L 529 42 L 528 43 L 528 44 L 527 45 L 527 47 L 526 48 L 526 56 L 527 57 L 527 59 L 528 60 L 528 61 L 530 63 L 530 64 L 532 66 L 533 66 L 535 68 L 536 68 L 537 69 L 540 69 L 541 70 L 549 70 L 550 69 L 552 69 L 553 68 L 555 68 L 561 62 L 561 61 L 562 60 L 562 59 L 563 58 L 563 55 L 564 54 L 564 49 L 563 48 L 563 45 L 562 44 L 562 43 L 561 42 L 561 41 L 556 36 L 555 36 L 554 35 L 553 35 L 552 34 L 551 34 L 550 33 L 540 33 L 539 34 "></path>
        <path fill="none" stroke="#fa00fa" stroke-width="3" d="M 486 745 L 485 746 L 483 746 L 482 747 L 480 747 L 474 753 L 474 754 L 473 755 L 473 756 L 472 757 L 472 760 L 471 761 L 471 765 L 472 766 L 472 769 L 473 770 L 473 772 L 475 774 L 475 775 L 479 779 L 480 779 L 481 780 L 482 780 L 483 781 L 485 781 L 486 782 L 494 782 L 495 781 L 497 781 L 498 780 L 499 780 L 500 779 L 501 779 L 506 774 L 506 773 L 507 772 L 507 771 L 508 770 L 508 768 L 509 767 L 509 759 L 508 758 L 508 756 L 507 755 L 507 754 L 505 752 L 505 751 L 502 748 L 501 748 L 500 747 L 499 747 L 498 746 L 495 746 L 494 745 L 486 745 L 485 746 "></path>
        <path fill="none" stroke="#fa00fa" stroke-width="3" d="M 486 33 L 485 34 L 483 34 L 482 35 L 481 35 L 480 36 L 479 36 L 475 40 L 475 41 L 473 43 L 473 45 L 472 46 L 472 49 L 471 50 L 471 53 L 472 54 L 472 58 L 473 59 L 473 60 L 474 61 L 474 62 L 479 67 L 480 67 L 481 68 L 482 68 L 483 69 L 486 69 L 487 70 L 493 70 L 494 69 L 497 69 L 498 68 L 500 68 L 506 62 L 506 61 L 507 60 L 507 59 L 508 58 L 508 56 L 509 55 L 509 49 L 508 48 L 508 45 L 507 44 L 507 43 L 506 42 L 506 41 L 501 36 L 500 36 L 499 35 L 498 35 L 497 34 L 495 34 L 494 33 L 486 33 L 485 34 "></path>
        <path fill="none" stroke="#fa00fa" stroke-width="3" d="M 321 691 L 320 692 L 318 692 L 317 693 L 316 693 L 310 699 L 310 700 L 309 701 L 309 703 L 308 704 L 308 714 L 309 715 L 309 716 L 310 717 L 310 718 L 311 719 L 311 720 L 315 724 L 316 724 L 317 725 L 318 725 L 319 726 L 321 726 L 322 727 L 330 727 L 331 726 L 333 726 L 334 725 L 335 725 L 337 723 L 338 723 L 340 721 L 340 720 L 342 718 L 342 717 L 343 716 L 343 714 L 344 713 L 344 705 L 343 704 L 343 702 L 342 701 L 342 700 L 341 699 L 341 698 L 337 694 L 336 694 L 334 692 L 332 692 L 331 691 L 321 691 L 320 692 "></path>
        <path fill="none" stroke="#fa00fa" stroke-width="3" d="M 599 33 L 598 34 L 594 34 L 593 35 L 592 35 L 591 36 L 590 36 L 589 37 L 588 37 L 586 39 L 586 40 L 584 42 L 584 43 L 583 44 L 583 45 L 582 46 L 582 57 L 583 58 L 583 59 L 584 60 L 584 61 L 585 62 L 585 63 L 588 66 L 589 66 L 590 67 L 591 67 L 592 68 L 593 68 L 594 69 L 605 69 L 606 68 L 608 68 L 610 66 L 611 66 L 615 62 L 615 61 L 616 60 L 616 59 L 617 58 L 617 55 L 618 54 L 618 49 L 617 48 L 617 45 L 616 44 L 616 43 L 614 41 L 614 40 L 611 37 L 610 37 L 608 35 L 606 35 L 605 34 L 602 34 L 601 33 L 599 33 L 598 34 "></path>
        <path fill="none" stroke="#fa00fa" stroke-width="3" d="M 214 581 L 213 582 L 210 582 L 209 583 L 208 583 L 207 584 L 206 584 L 202 588 L 202 589 L 200 591 L 200 593 L 199 594 L 199 597 L 198 598 L 198 600 L 199 601 L 199 605 L 200 606 L 200 607 L 201 608 L 201 609 L 206 614 L 207 614 L 208 615 L 209 615 L 210 616 L 212 616 L 213 617 L 220 617 L 221 616 L 223 616 L 224 615 L 225 615 L 226 614 L 227 614 L 231 610 L 231 609 L 232 608 L 232 607 L 233 606 L 233 604 L 234 603 L 234 595 L 233 594 L 233 592 L 232 591 L 232 590 L 230 588 L 230 587 L 228 585 L 227 585 L 225 583 L 223 583 L 222 582 L 220 582 L 219 581 L 214 581 L 213 582 "></path>
        <path fill="none" stroke="#fa00fa" stroke-width="3" d="M 213 198 L 212 199 L 210 199 L 209 200 L 208 200 L 207 201 L 206 201 L 201 206 L 201 207 L 200 208 L 200 210 L 199 211 L 199 221 L 200 222 L 200 224 L 202 226 L 202 227 L 206 231 L 207 231 L 208 232 L 209 232 L 210 233 L 213 233 L 214 234 L 218 234 L 219 233 L 222 233 L 223 232 L 225 232 L 227 230 L 228 230 L 230 228 L 230 227 L 232 225 L 232 224 L 233 223 L 233 221 L 234 220 L 234 212 L 233 211 L 233 209 L 232 208 L 232 207 L 231 206 L 231 205 L 228 202 L 227 202 L 225 200 L 224 200 L 223 199 L 221 199 L 220 198 L 213 198 L 212 199 "></path>
        <path fill="none" stroke="#fa00fa" stroke-width="3" d="M 159 417 L 158 418 L 155 418 L 154 419 L 153 419 L 151 421 L 150 421 L 148 423 L 148 424 L 146 426 L 146 427 L 145 428 L 145 430 L 144 431 L 144 439 L 145 440 L 145 442 L 146 443 L 146 444 L 152 450 L 153 450 L 154 451 L 155 451 L 156 452 L 161 452 L 162 453 L 163 452 L 167 452 L 168 451 L 169 451 L 170 450 L 171 450 L 173 448 L 174 448 L 175 447 L 175 446 L 177 444 L 177 443 L 178 442 L 178 440 L 179 439 L 179 431 L 178 430 L 178 428 L 177 427 L 177 426 L 176 425 L 176 424 L 173 421 L 172 421 L 170 419 L 169 419 L 168 418 L 165 418 L 164 417 L 159 417 L 158 418 "></path>
        <path fill="none" stroke="#fa00fa" stroke-width="3" d="M 432 746 L 431 747 L 429 747 L 428 748 L 427 748 L 426 749 L 425 749 L 421 753 L 421 754 L 419 756 L 419 758 L 418 759 L 418 768 L 419 769 L 419 770 L 420 771 L 420 772 L 421 773 L 421 774 L 425 778 L 426 778 L 427 779 L 428 779 L 429 780 L 430 780 L 431 781 L 440 781 L 441 780 L 443 780 L 445 778 L 446 778 L 450 774 L 450 773 L 452 771 L 452 769 L 453 768 L 453 759 L 452 758 L 452 756 L 451 755 L 451 754 L 446 749 L 445 749 L 444 748 L 443 748 L 442 747 L 440 747 L 439 746 L 432 746 L 431 747 "></path>
        <path fill="none" stroke="#fa00fa" stroke-width="3" d="M 156 363 L 155 364 L 154 364 L 153 365 L 152 365 L 146 371 L 146 372 L 145 373 L 145 375 L 144 376 L 144 384 L 145 385 L 145 387 L 146 388 L 146 389 L 148 391 L 148 392 L 150 394 L 151 394 L 153 396 L 154 396 L 155 397 L 158 397 L 159 398 L 164 398 L 165 397 L 168 397 L 169 396 L 170 396 L 172 394 L 173 394 L 176 391 L 176 390 L 177 389 L 177 388 L 178 387 L 178 385 L 179 384 L 179 376 L 178 375 L 178 373 L 177 372 L 177 371 L 175 369 L 175 368 L 174 367 L 173 367 L 171 365 L 170 365 L 169 364 L 168 364 L 167 363 L 156 363 L 155 364 "></path>
        <path fill="none" stroke="#fa00fa" stroke-width="3" d="M 431 34 L 430 35 L 428 35 L 426 37 L 425 37 L 421 41 L 421 42 L 419 44 L 419 46 L 418 47 L 418 56 L 419 57 L 419 58 L 420 59 L 420 60 L 421 61 L 421 62 L 425 66 L 426 66 L 427 67 L 428 67 L 429 68 L 432 68 L 433 69 L 438 69 L 439 68 L 442 68 L 443 67 L 444 67 L 446 65 L 447 65 L 450 62 L 450 61 L 451 60 L 451 59 L 452 58 L 452 56 L 453 55 L 453 48 L 452 47 L 452 45 L 451 44 L 451 43 L 450 42 L 450 41 L 446 37 L 445 37 L 444 36 L 443 36 L 442 35 L 441 35 L 440 34 L 431 34 L 430 35 "></path>
        <path fill="none" stroke="#fa00fa" stroke-width="3" d="M 158 473 L 157 474 L 155 474 L 154 475 L 153 475 L 152 476 L 151 476 L 148 479 L 148 480 L 146 482 L 146 484 L 145 485 L 145 494 L 146 495 L 146 497 L 147 498 L 147 499 L 152 504 L 153 504 L 154 505 L 156 505 L 157 506 L 166 506 L 167 505 L 169 505 L 171 503 L 172 503 L 175 500 L 175 499 L 176 498 L 176 497 L 177 496 L 177 495 L 178 494 L 178 486 L 177 485 L 177 483 L 176 482 L 176 481 L 174 479 L 174 478 L 173 477 L 172 477 L 170 475 L 169 475 L 168 474 L 166 474 L 165 473 L 158 473 L 157 474 "></path>
        <path fill="none" stroke="#fa00fa" stroke-width="3" d="M 156 309 L 155 310 L 154 310 L 153 311 L 152 311 L 147 316 L 147 317 L 146 318 L 146 320 L 145 321 L 145 330 L 146 331 L 146 332 L 147 333 L 147 334 L 149 336 L 149 337 L 150 338 L 151 338 L 153 340 L 154 340 L 155 341 L 157 341 L 158 342 L 165 342 L 166 341 L 168 341 L 169 340 L 170 340 L 172 338 L 173 338 L 174 337 L 174 336 L 176 334 L 176 333 L 177 332 L 177 330 L 178 329 L 178 321 L 177 320 L 177 319 L 176 318 L 176 317 L 175 316 L 175 315 L 171 311 L 170 311 L 169 310 L 168 310 L 167 309 L 156 309 L 155 310 "></path>
        <path fill="none" stroke="#fa00fa" stroke-width="3" d="M 651 35 L 650 36 L 648 36 L 647 37 L 646 37 L 640 43 L 640 44 L 639 45 L 639 48 L 638 49 L 638 54 L 639 55 L 639 58 L 641 60 L 641 61 L 645 65 L 646 65 L 647 66 L 648 66 L 649 67 L 651 67 L 652 68 L 657 68 L 658 67 L 660 67 L 661 66 L 663 66 L 669 60 L 669 59 L 670 58 L 670 56 L 671 55 L 671 48 L 670 47 L 670 45 L 669 44 L 669 43 L 667 41 L 667 40 L 666 39 L 665 39 L 663 37 L 662 37 L 661 36 L 659 36 L 658 35 L 651 35 L 650 36 "></path>
        <path fill="none" stroke="#fa00fa" stroke-width="3" d="M 816 638 L 815 639 L 813 639 L 812 640 L 811 640 L 810 641 L 809 641 L 806 644 L 806 645 L 805 646 L 805 647 L 804 648 L 804 649 L 803 650 L 803 658 L 804 659 L 804 661 L 806 663 L 806 664 L 809 667 L 810 667 L 812 669 L 814 669 L 815 670 L 823 670 L 824 669 L 826 669 L 828 667 L 829 667 L 832 664 L 832 663 L 834 661 L 834 659 L 835 658 L 835 650 L 834 649 L 834 648 L 833 647 L 833 646 L 832 645 L 832 644 L 829 641 L 828 641 L 827 640 L 826 640 L 825 639 L 823 639 L 822 638 L 816 638 L 815 639 "></path>
        <path fill="none" stroke="#fa00fa" stroke-width="3" d="M 480 643 L 479 644 L 478 644 L 477 645 L 477 654 L 478 655 L 478 666 L 480 668 L 503 668 L 504 667 L 506 667 L 509 664 L 509 663 L 510 662 L 510 661 L 511 660 L 511 658 L 512 657 L 512 648 L 511 647 L 511 646 L 509 644 L 507 644 L 506 643 L 480 643 L 479 644 "></path>
        <path fill="none" stroke="#fa00fa" stroke-width="3" d="M 760 693 L 759 694 L 758 694 L 757 695 L 756 695 L 755 696 L 754 696 L 751 699 L 751 700 L 750 701 L 750 702 L 749 703 L 749 705 L 748 706 L 748 712 L 749 713 L 749 715 L 750 716 L 750 717 L 752 719 L 752 720 L 753 720 L 756 723 L 757 723 L 758 724 L 761 724 L 762 725 L 767 725 L 768 724 L 770 724 L 771 723 L 772 723 L 774 721 L 775 721 L 777 719 L 777 718 L 778 717 L 778 716 L 779 715 L 779 713 L 780 712 L 780 705 L 779 704 L 779 703 L 778 702 L 778 701 L 777 700 L 777 699 L 774 696 L 773 696 L 772 695 L 771 695 L 770 694 L 769 694 L 768 693 L 760 693 L 759 694 "></path>
        <path fill="none" stroke="#fa00fa" stroke-width="3" d="M 762 90 L 761 91 L 759 91 L 758 92 L 757 92 L 756 93 L 755 93 L 751 97 L 751 98 L 750 99 L 750 100 L 749 101 L 749 103 L 748 104 L 748 108 L 749 109 L 749 112 L 750 113 L 750 114 L 752 116 L 752 117 L 754 119 L 755 119 L 756 120 L 757 120 L 758 121 L 759 121 L 760 122 L 768 122 L 769 121 L 771 121 L 773 119 L 774 119 L 777 116 L 777 115 L 778 114 L 778 113 L 779 112 L 779 111 L 780 110 L 780 103 L 779 102 L 779 100 L 778 99 L 778 98 L 776 96 L 776 95 L 775 94 L 774 94 L 772 92 L 771 92 L 770 91 L 767 91 L 766 90 L 762 90 L 761 91 "></path>
        <path fill="none" stroke="#fa00fa" stroke-width="3" d="M 434 632 L 433 633 L 430 633 L 429 634 L 428 634 L 427 635 L 426 635 L 423 638 L 423 641 L 422 642 L 422 644 L 423 645 L 423 663 L 424 664 L 424 666 L 425 666 L 426 667 L 440 667 L 441 668 L 443 668 L 444 667 L 445 667 L 446 666 L 446 651 L 447 650 L 447 638 L 446 637 L 446 636 L 444 634 L 443 634 L 442 633 L 439 633 L 438 632 L 434 632 L 433 633 "></path>
        <path fill="none" stroke="#fa00fa" stroke-width="3" d="M 378 748 L 377 749 L 375 749 L 374 750 L 373 750 L 372 751 L 371 751 L 367 755 L 367 756 L 366 757 L 366 759 L 365 760 L 365 768 L 366 769 L 366 770 L 367 771 L 367 772 L 372 777 L 373 777 L 374 778 L 375 778 L 376 779 L 385 779 L 386 778 L 387 778 L 388 777 L 389 777 L 391 775 L 392 775 L 392 774 L 394 772 L 394 771 L 395 770 L 395 769 L 396 768 L 396 760 L 395 759 L 395 757 L 394 756 L 394 755 L 390 751 L 389 751 L 387 749 L 385 749 L 384 748 L 378 748 L 377 749 "></path>
        <path fill="none" stroke="#fa00fa" stroke-width="3" d="M 377 36 L 376 37 L 374 37 L 373 38 L 372 38 L 367 43 L 367 44 L 366 45 L 366 47 L 365 48 L 365 55 L 366 56 L 366 58 L 368 60 L 368 61 L 371 64 L 372 64 L 374 66 L 376 66 L 377 67 L 384 67 L 385 66 L 387 66 L 388 65 L 389 65 L 394 60 L 394 59 L 395 58 L 395 56 L 396 55 L 396 48 L 395 47 L 395 45 L 394 44 L 394 43 L 389 38 L 388 38 L 387 37 L 385 37 L 384 36 L 377 36 L 376 37 "></path>
        <path fill="none" stroke="#fa00fa" stroke-width="3" d="M 157 530 L 156 531 L 155 531 L 154 532 L 153 532 L 148 537 L 148 538 L 147 539 L 147 542 L 146 543 L 146 546 L 147 547 L 147 550 L 148 551 L 148 552 L 150 554 L 150 555 L 151 556 L 152 556 L 154 558 L 155 558 L 156 559 L 160 559 L 161 560 L 162 559 L 166 559 L 167 558 L 168 558 L 169 557 L 170 557 L 174 553 L 174 552 L 175 551 L 175 550 L 176 549 L 176 541 L 175 540 L 175 538 L 174 537 L 174 536 L 170 532 L 169 532 L 168 531 L 167 531 L 166 530 L 157 530 L 156 531 "></path>
        <path fill="none" stroke="#fa00fa" stroke-width="3" d="M 277 422 L 276 423 L 261 423 L 260 424 L 258 424 L 258 425 L 257 426 L 257 430 L 258 431 L 258 447 L 259 448 L 259 449 L 262 452 L 263 452 L 264 453 L 265 453 L 266 454 L 269 454 L 270 455 L 277 455 L 278 454 L 279 454 L 280 453 L 280 452 L 281 451 L 281 424 L 280 423 L 278 423 L 277 422 L 276 423 "></path>
        <path fill="none" stroke="#fa00fa" stroke-width="3" d="M 157 256 L 156 257 L 154 257 L 148 263 L 148 264 L 147 265 L 147 275 L 148 276 L 148 278 L 153 283 L 154 283 L 155 284 L 156 284 L 157 285 L 166 285 L 167 284 L 168 284 L 169 283 L 170 283 L 174 279 L 174 278 L 175 277 L 175 276 L 176 275 L 176 266 L 175 265 L 175 264 L 174 263 L 174 262 L 170 258 L 169 258 L 168 257 L 167 257 L 166 256 L 157 256 L 156 257 "></path>
        <path fill="none" stroke="#fa00fa" stroke-width="3" d="M 870 585 L 869 586 L 868 586 L 867 587 L 866 587 L 861 592 L 861 593 L 860 594 L 860 597 L 859 598 L 859 601 L 860 602 L 860 605 L 861 606 L 861 607 L 866 612 L 867 612 L 868 613 L 870 613 L 871 614 L 877 614 L 878 613 L 880 613 L 882 611 L 883 611 L 886 608 L 886 607 L 887 606 L 887 605 L 888 604 L 888 595 L 887 594 L 887 593 L 886 592 L 886 591 L 882 587 L 881 587 L 880 586 L 878 586 L 877 585 L 870 585 L 869 586 "></path>
        <path fill="none" stroke="#fa00fa" stroke-width="3" d="M 872 201 L 871 202 L 868 202 L 867 203 L 866 203 L 862 207 L 862 208 L 861 209 L 861 210 L 860 211 L 860 213 L 859 214 L 859 217 L 860 218 L 860 221 L 861 222 L 861 223 L 863 225 L 863 226 L 864 226 L 867 229 L 869 229 L 870 230 L 878 230 L 879 229 L 880 229 L 881 228 L 882 228 L 886 224 L 886 223 L 887 222 L 887 221 L 888 220 L 888 212 L 887 211 L 887 209 L 885 207 L 885 206 L 883 204 L 882 204 L 881 203 L 880 203 L 879 202 L 877 202 L 876 201 L 872 201 L 871 202 "></path>
        <path fill="none" stroke="#fa00fa" stroke-width="3" d="M 752 258 L 751 259 L 750 259 L 747 262 L 747 263 L 746 264 L 746 265 L 745 266 L 745 277 L 747 279 L 747 280 L 748 280 L 749 281 L 764 281 L 765 280 L 776 280 L 776 279 L 777 278 L 777 274 L 776 273 L 776 261 L 775 260 L 774 260 L 773 259 L 760 259 L 759 258 L 752 258 L 751 259 "></path>
        <path fill="none" stroke="#fa00fa" stroke-width="3" d="M 212 147 L 211 148 L 209 148 L 204 153 L 204 154 L 203 155 L 203 156 L 202 157 L 202 165 L 203 166 L 203 167 L 204 168 L 204 169 L 208 173 L 209 173 L 210 174 L 212 174 L 213 175 L 219 175 L 220 174 L 222 174 L 223 173 L 224 173 L 228 169 L 228 168 L 229 167 L 229 166 L 230 165 L 230 157 L 229 156 L 229 155 L 228 154 L 228 153 L 223 148 L 221 148 L 220 147 L 212 147 L 211 148 "></path>
        <path fill="none" stroke="#fa00fa" stroke-width="3" d="M 706 750 L 705 751 L 703 751 L 701 753 L 700 753 L 698 755 L 698 756 L 697 757 L 697 758 L 696 759 L 696 769 L 697 770 L 697 771 L 702 776 L 703 776 L 704 777 L 706 777 L 707 778 L 712 778 L 713 777 L 715 777 L 716 776 L 717 776 L 722 771 L 722 770 L 723 769 L 723 759 L 722 758 L 722 757 L 721 756 L 721 755 L 719 753 L 718 753 L 716 751 L 714 751 L 713 750 L 706 750 L 705 751 "></path>
        <path fill="none" stroke="#fa00fa" stroke-width="3" d="M 708 37 L 707 38 L 704 38 L 703 39 L 702 39 L 697 44 L 697 45 L 696 46 L 696 49 L 695 50 L 695 53 L 696 54 L 696 57 L 697 58 L 697 59 L 701 63 L 702 63 L 703 64 L 704 64 L 705 65 L 713 65 L 714 64 L 716 64 L 718 62 L 719 62 L 720 61 L 720 60 L 722 58 L 722 56 L 723 55 L 723 47 L 722 46 L 722 45 L 721 44 L 721 43 L 718 40 L 717 40 L 716 39 L 715 39 L 714 38 L 711 38 L 710 37 L 708 37 L 707 38 "></path>
        <path fill="none" stroke="#fa00fa" stroke-width="3" d="M 755 312 L 754 313 L 754 314 L 753 315 L 753 335 L 756 338 L 761 338 L 762 337 L 776 337 L 778 335 L 778 315 L 776 313 L 765 313 L 764 312 L 755 312 L 754 313 "></path>
        <path fill="none" stroke="#fa00fa" stroke-width="3" d="M 926 421 L 925 422 L 923 422 L 922 423 L 921 423 L 917 427 L 917 428 L 916 429 L 916 430 L 915 431 L 915 439 L 916 440 L 916 441 L 917 442 L 917 443 L 920 446 L 921 446 L 923 448 L 926 448 L 927 449 L 931 449 L 932 448 L 934 448 L 935 447 L 936 447 L 941 442 L 941 441 L 942 440 L 942 430 L 941 429 L 941 428 L 936 423 L 935 423 L 934 422 L 932 422 L 931 421 L 926 421 L 925 422 "></path>
        <path fill="none" stroke="#fa00fa" stroke-width="3" d="M 927 366 L 926 367 L 923 367 L 922 368 L 921 368 L 917 372 L 917 373 L 916 374 L 916 375 L 915 376 L 915 384 L 916 385 L 916 386 L 917 387 L 917 388 L 921 392 L 922 392 L 923 393 L 925 393 L 926 394 L 931 394 L 932 393 L 934 393 L 935 392 L 936 392 L 941 387 L 941 386 L 942 385 L 942 376 L 941 375 L 941 373 L 936 368 L 935 368 L 934 367 L 932 367 L 931 366 L 927 366 L 926 367 "></path>
        <path fill="none" stroke="#fa00fa" stroke-width="3" d="M 639 645 L 637 647 L 637 650 L 636 651 L 636 652 L 637 653 L 637 657 L 638 658 L 638 660 L 640 662 L 640 663 L 642 665 L 643 665 L 644 666 L 662 666 L 663 665 L 664 665 L 665 664 L 665 663 L 666 662 L 666 651 L 667 650 L 667 647 L 665 645 L 639 645 L 637 647 "></path>
        <path fill="none" stroke="#fa00fa" stroke-width="3" d="M 276 367 L 275 368 L 260 368 L 258 370 L 258 371 L 257 372 L 257 373 L 258 374 L 258 385 L 257 386 L 257 389 L 259 391 L 260 391 L 261 392 L 264 392 L 265 391 L 266 391 L 267 392 L 276 392 L 277 393 L 278 393 L 279 392 L 280 392 L 281 391 L 281 390 L 282 389 L 282 388 L 281 387 L 281 369 L 280 368 L 279 368 L 278 367 L 276 367 L 275 368 "></path>
        <path fill="none" stroke="#fa00fa" stroke-width="3" d="M 591 147 L 589 149 L 589 158 L 588 159 L 588 170 L 589 171 L 590 171 L 591 172 L 594 172 L 595 171 L 611 171 L 613 169 L 613 165 L 612 164 L 612 150 L 610 148 L 609 148 L 608 147 L 607 147 L 606 148 L 597 148 L 596 147 L 591 147 L 589 149 "></path>
        <path fill="none" stroke="#fa00fa" stroke-width="3" d="M 701 588 L 698 591 L 698 594 L 699 595 L 699 611 L 700 612 L 701 612 L 702 613 L 703 613 L 704 612 L 718 612 L 719 611 L 720 611 L 721 610 L 721 609 L 722 608 L 722 594 L 723 593 L 723 592 L 722 591 L 722 590 L 721 589 L 705 589 L 704 588 L 701 588 L 698 591 "></path>
        <path fill="none" stroke="#fa00fa" stroke-width="3" d="M 322 751 L 321 752 L 320 752 L 319 753 L 318 753 L 315 756 L 315 757 L 314 758 L 314 759 L 313 760 L 313 768 L 314 769 L 314 770 L 316 772 L 316 773 L 317 774 L 318 774 L 319 775 L 320 775 L 321 776 L 323 776 L 324 777 L 328 777 L 329 776 L 331 776 L 332 775 L 333 775 L 337 771 L 337 770 L 338 769 L 338 766 L 339 765 L 339 763 L 338 762 L 338 759 L 337 758 L 337 757 L 332 752 L 330 752 L 329 751 L 322 751 L 321 752 "></path>
        <path fill="none" stroke="#fa00fa" stroke-width="3" d="M 324 38 L 323 39 L 321 39 L 320 40 L 319 40 L 318 41 L 317 41 L 316 42 L 316 43 L 314 45 L 314 46 L 313 47 L 313 55 L 314 56 L 314 57 L 315 58 L 315 59 L 318 62 L 319 62 L 320 63 L 322 63 L 323 64 L 329 64 L 330 63 L 331 63 L 332 62 L 333 62 L 337 58 L 337 57 L 338 56 L 338 47 L 337 46 L 337 45 L 336 44 L 336 43 L 334 41 L 333 41 L 331 39 L 329 39 L 328 38 L 324 38 L 323 39 "></path>
        <path fill="none" stroke="#fa00fa" stroke-width="3" d="M 158 203 L 157 204 L 156 204 L 155 205 L 154 205 L 150 209 L 150 210 L 149 211 L 149 219 L 150 220 L 150 221 L 151 222 L 151 223 L 154 226 L 155 226 L 156 227 L 158 227 L 159 228 L 164 228 L 165 227 L 166 227 L 167 226 L 168 226 L 172 222 L 172 221 L 173 220 L 173 211 L 172 210 L 172 209 L 167 204 L 165 204 L 164 203 L 158 203 L 157 204 "></path>
        <path fill="none" stroke="#fa00fa" stroke-width="3" d="M 274 313 L 273 314 L 261 314 L 259 316 L 259 328 L 258 329 L 258 334 L 259 335 L 260 335 L 261 336 L 275 336 L 276 337 L 278 337 L 279 336 L 280 336 L 280 335 L 281 334 L 281 329 L 280 328 L 280 319 L 281 318 L 281 316 L 280 315 L 280 314 L 279 313 L 274 313 L 273 314 "></path>
        <path fill="none" stroke="#fa00fa" stroke-width="3" d="M 755 534 L 755 535 L 754 536 L 754 541 L 755 542 L 755 556 L 756 557 L 761 557 L 762 556 L 773 556 L 774 555 L 775 555 L 776 554 L 776 541 L 777 540 L 777 537 L 776 536 L 776 535 L 765 535 L 764 534 L 755 534 L 755 535 "></path>
        <path fill="none" stroke="#fa00fa" stroke-width="3" d="M 817 697 L 816 698 L 814 698 L 813 699 L 812 699 L 809 702 L 809 703 L 808 704 L 808 706 L 807 707 L 807 711 L 808 712 L 808 714 L 809 715 L 809 716 L 812 719 L 813 719 L 814 720 L 815 720 L 816 721 L 822 721 L 823 720 L 825 720 L 830 715 L 830 713 L 831 712 L 831 706 L 830 705 L 830 704 L 829 703 L 829 702 L 826 699 L 825 699 L 824 698 L 823 698 L 822 697 L 817 697 L 816 698 "></path>
        <path fill="none" stroke="#fa00fa" stroke-width="3" d="M 816 94 L 815 95 L 814 95 L 813 96 L 812 96 L 809 99 L 809 100 L 808 101 L 808 103 L 807 104 L 807 107 L 808 108 L 808 111 L 810 113 L 810 114 L 811 115 L 812 115 L 814 117 L 817 117 L 818 118 L 821 118 L 822 117 L 824 117 L 825 116 L 826 116 L 829 113 L 829 112 L 830 111 L 830 110 L 831 109 L 831 103 L 830 102 L 830 100 L 825 95 L 824 95 L 823 94 L 816 94 L 815 95 "></path>
        <path fill="none" stroke="#fa00fa" stroke-width="3" d="M 646 149 L 645 150 L 645 163 L 644 164 L 644 169 L 645 170 L 665 170 L 667 168 L 667 166 L 666 165 L 666 160 L 665 159 L 665 151 L 664 150 L 663 150 L 662 149 L 646 149 L 645 150 "></path>
        <path fill="none" stroke="#fa00fa" stroke-width="3" d="M 331 589 L 330 590 L 315 590 L 314 591 L 314 592 L 313 593 L 314 594 L 314 599 L 315 600 L 315 609 L 316 610 L 324 610 L 325 611 L 330 611 L 331 612 L 332 612 L 333 611 L 334 611 L 335 610 L 335 595 L 336 594 L 336 592 L 335 591 L 335 590 L 334 590 L 333 589 L 331 589 L 330 590 "></path>
        <path fill="none" stroke="#fa00fa" stroke-width="3" d="M 104 423 L 103 424 L 101 424 L 99 426 L 98 426 L 97 427 L 97 428 L 96 429 L 96 430 L 95 431 L 95 439 L 96 440 L 96 441 L 100 445 L 101 445 L 102 446 L 110 446 L 111 445 L 112 445 L 114 443 L 115 443 L 115 442 L 117 440 L 117 437 L 118 436 L 118 433 L 117 432 L 117 430 L 116 429 L 116 428 L 113 425 L 112 425 L 111 424 L 109 424 L 108 423 L 104 423 L 103 424 "></path>
        <path fill="none" stroke="#fa00fa" stroke-width="3" d="M 102 369 L 101 370 L 100 370 L 96 374 L 96 375 L 95 376 L 95 384 L 96 385 L 96 386 L 100 390 L 101 390 L 102 391 L 104 391 L 105 392 L 107 392 L 108 391 L 111 391 L 112 390 L 113 390 L 116 387 L 116 386 L 117 385 L 117 383 L 118 382 L 118 378 L 117 377 L 117 375 L 115 373 L 115 372 L 114 371 L 113 371 L 112 370 L 111 370 L 110 369 L 102 369 L 101 370 "></path>
        <path fill="none" stroke="#fa00fa" stroke-width="3" d="M 874 149 L 873 150 L 870 150 L 869 151 L 868 151 L 864 155 L 864 156 L 863 157 L 863 164 L 864 165 L 864 166 L 865 167 L 865 168 L 867 170 L 868 170 L 869 171 L 870 171 L 871 172 L 877 172 L 878 171 L 879 171 L 880 170 L 881 170 L 884 167 L 884 166 L 885 165 L 885 157 L 884 156 L 884 155 L 883 154 L 883 153 L 882 152 L 881 152 L 880 151 L 879 151 L 878 150 L 875 150 L 874 149 L 873 150 "></path>
        <path fill="none" stroke="#fa00fa" stroke-width="3" d="M 105 314 L 104 315 L 102 315 L 101 316 L 100 316 L 97 319 L 97 320 L 96 321 L 96 323 L 95 324 L 95 327 L 96 328 L 96 330 L 98 332 L 98 333 L 99 333 L 101 335 L 102 335 L 103 336 L 109 336 L 110 335 L 111 335 L 112 334 L 113 334 L 115 332 L 115 331 L 116 330 L 116 329 L 117 328 L 117 322 L 116 321 L 116 320 L 114 318 L 114 317 L 113 317 L 111 315 L 109 315 L 108 314 L 105 314 L 104 315 "></path>
        <path fill="none" stroke="#fa00fa" stroke-width="3" d="M 212 699 L 211 700 L 210 700 L 207 703 L 207 704 L 206 705 L 206 707 L 205 708 L 205 711 L 206 712 L 206 714 L 211 719 L 213 719 L 214 720 L 217 720 L 218 719 L 220 719 L 221 718 L 222 718 L 225 715 L 225 714 L 226 713 L 226 706 L 225 705 L 225 704 L 224 703 L 224 702 L 223 701 L 222 701 L 221 700 L 220 700 L 219 699 L 212 699 L 211 700 "></path>
        <path fill="none" stroke="#fa00fa" stroke-width="3" d="M 214 95 L 213 96 L 211 96 L 206 101 L 206 104 L 205 105 L 205 107 L 206 108 L 206 110 L 207 111 L 207 112 L 209 114 L 210 114 L 211 115 L 212 115 L 213 116 L 219 116 L 220 115 L 221 115 L 225 111 L 225 110 L 226 109 L 226 103 L 225 102 L 225 100 L 222 97 L 221 97 L 220 96 L 218 96 L 217 95 L 214 95 L 213 96 "></path>
        <path fill="none" stroke="#fa00fa" stroke-width="3" d="M 269 754 L 268 755 L 266 755 L 262 759 L 262 760 L 261 761 L 261 767 L 262 768 L 262 769 L 263 770 L 263 771 L 264 772 L 265 772 L 266 773 L 267 773 L 268 774 L 274 774 L 275 773 L 276 773 L 280 769 L 280 767 L 281 766 L 281 762 L 280 761 L 280 760 L 279 759 L 279 758 L 277 756 L 276 756 L 275 755 L 274 755 L 273 754 L 269 754 L 268 755 "></path>
        <path fill="none" stroke="#fa00fa" stroke-width="3" d="M 268 41 L 267 42 L 266 42 L 265 43 L 264 43 L 263 44 L 263 45 L 262 46 L 262 47 L 261 48 L 261 54 L 262 55 L 262 56 L 266 60 L 268 60 L 269 61 L 273 61 L 274 60 L 275 60 L 276 59 L 277 59 L 279 57 L 279 56 L 280 55 L 280 53 L 281 52 L 281 50 L 280 49 L 280 47 L 279 46 L 279 45 L 277 43 L 276 43 L 275 42 L 274 42 L 273 41 L 268 41 L 267 42 "></path>
        <path fill="none" stroke="#fa00fa" stroke-width="3" d="M 382 149 L 383 149 L 388 154 L 388 158 L 387 159 L 385 159 L 384 160 L 382 160 L 380 162 L 379 162 L 378 163 L 377 163 L 376 164 L 375 163 L 374 163 L 371 160 L 371 162 L 370 163 L 370 164 L 369 165 L 369 168 L 370 169 L 387 169 L 388 170 L 393 170 L 394 169 L 395 169 L 396 168 L 396 167 L 397 166 L 397 161 L 396 160 L 396 158 L 395 157 L 395 156 L 394 155 L 394 154 L 390 150 L 389 150 L 388 149 L 382 149 L 383 149 "></path>
        <path fill="none" stroke="#fa00fa" stroke-width="3" d="M 158 151 L 157 152 L 156 152 L 152 156 L 152 158 L 151 159 L 151 163 L 152 164 L 152 165 L 153 166 L 153 167 L 154 168 L 155 168 L 157 170 L 164 170 L 165 169 L 166 169 L 169 166 L 169 165 L 170 164 L 170 157 L 169 156 L 169 155 L 166 152 L 165 152 L 164 151 L 158 151 L 157 152 "></path>
        <path fill="none" stroke="#fa00fa" stroke-width="3" d="M 104 535 L 103 536 L 101 536 L 98 539 L 98 540 L 97 541 L 97 549 L 101 553 L 102 553 L 103 554 L 109 554 L 110 553 L 111 553 L 115 549 L 115 546 L 116 545 L 116 544 L 115 543 L 115 541 L 114 540 L 114 539 L 111 536 L 109 536 L 108 535 L 104 535 L 103 536 "></path>
        <path fill="none" stroke="#fa00fa" stroke-width="3" d="M 103 261 L 102 262 L 101 262 L 97 266 L 97 269 L 96 270 L 96 271 L 97 272 L 97 274 L 98 275 L 98 276 L 100 278 L 101 278 L 102 279 L 103 279 L 104 280 L 108 280 L 109 279 L 110 279 L 111 278 L 112 278 L 114 276 L 114 275 L 115 274 L 115 271 L 116 270 L 115 269 L 115 266 L 111 262 L 110 262 L 109 261 L 103 261 L 102 262 "></path>
        <path fill="none" stroke="#fa00fa" stroke-width="3" d="M 926 206 L 925 207 L 924 207 L 921 210 L 921 211 L 920 212 L 920 219 L 921 220 L 921 221 L 923 223 L 924 223 L 925 224 L 926 224 L 927 225 L 931 225 L 932 224 L 934 224 L 937 221 L 937 220 L 938 219 L 938 212 L 937 211 L 937 210 L 934 207 L 933 207 L 932 206 L 926 206 L 925 207 "></path>
        <path fill="none" stroke="#fa00fa" stroke-width="3" d="M 927 590 L 926 591 L 925 591 L 924 592 L 923 592 L 921 594 L 921 595 L 920 596 L 920 603 L 921 604 L 921 605 L 924 608 L 925 608 L 926 609 L 932 609 L 933 608 L 934 608 L 938 604 L 938 596 L 937 595 L 937 594 L 935 592 L 934 592 L 933 591 L 932 591 L 931 590 L 927 590 L 926 591 "></path>
        <path fill="none" stroke="#fa00fa" stroke-width="3" d="M 384 645 L 383 646 L 370 646 L 369 647 L 369 650 L 370 651 L 370 653 L 371 654 L 371 662 L 373 664 L 375 664 L 375 663 L 372 660 L 372 658 L 371 657 L 372 656 L 372 655 L 375 652 L 377 652 L 378 653 L 379 653 L 380 654 L 381 654 L 385 658 L 385 661 L 383 663 L 383 664 L 384 665 L 388 665 L 389 664 L 389 654 L 390 653 L 390 646 L 389 645 L 384 645 L 383 646 "></path>
        <path fill="none" stroke="#fa00fa" stroke-width="3" d="M 981 427 L 980 428 L 979 428 L 977 430 L 977 431 L 976 432 L 976 438 L 977 439 L 977 440 L 979 442 L 980 442 L 981 443 L 987 443 L 988 442 L 989 442 L 991 440 L 991 439 L 992 438 L 992 432 L 991 431 L 991 430 L 988 427 L 981 427 L 980 428 "></path>
        <path fill="none" stroke="#fa00fa" stroke-width="3" d="M 873 701 L 872 702 L 870 702 L 867 705 L 867 707 L 866 708 L 866 711 L 867 712 L 867 713 L 868 714 L 868 715 L 869 716 L 870 716 L 871 717 L 878 717 L 882 713 L 882 706 L 881 705 L 881 704 L 880 703 L 879 703 L 878 702 L 877 702 L 876 701 L 873 701 L 872 702 "></path>
        <path fill="none" stroke="#fa00fa" stroke-width="3" d="M 871 98 L 869 100 L 868 100 L 868 101 L 867 102 L 867 103 L 866 104 L 866 107 L 867 108 L 867 110 L 870 113 L 872 113 L 873 114 L 876 114 L 877 113 L 878 113 L 879 112 L 880 112 L 881 111 L 881 110 L 882 109 L 882 102 L 878 98 L 871 98 L 869 100 "></path>
        <path fill="none" stroke="#fa00fa" stroke-width="3" d="M 270 529 L 269 530 L 267 530 L 266 531 L 265 531 L 262 534 L 262 535 L 261 536 L 261 539 L 262 538 L 263 538 L 266 535 L 270 535 L 273 538 L 273 543 L 274 544 L 274 546 L 275 547 L 275 550 L 274 551 L 274 552 L 273 553 L 273 554 L 274 555 L 278 555 L 279 554 L 279 531 L 278 530 L 277 530 L 276 529 L 270 529 L 269 530 "></path>
        <path fill="none" stroke="#fa00fa" stroke-width="3" d="M 818 756 L 817 757 L 815 757 L 813 759 L 813 760 L 812 761 L 812 763 L 811 764 L 811 765 L 812 766 L 812 768 L 816 772 L 822 772 L 823 771 L 824 771 L 827 768 L 827 761 L 826 760 L 826 759 L 825 758 L 824 758 L 823 757 L 822 757 L 821 756 L 818 756 L 817 757 "></path>
        <path fill="none" stroke="#fa00fa" stroke-width="3" d="M 817 43 L 816 44 L 815 44 L 812 47 L 812 54 L 813 55 L 813 56 L 814 57 L 815 57 L 816 58 L 818 58 L 819 59 L 820 59 L 821 58 L 823 58 L 824 57 L 825 57 L 826 56 L 826 55 L 827 54 L 827 47 L 824 44 L 823 44 L 822 43 L 817 43 L 816 44 "></path>
        <path fill="none" stroke="#fa00fa" stroke-width="3" d="M 982 482 L 981 483 L 980 483 L 977 486 L 977 487 L 976 488 L 976 491 L 977 492 L 977 494 L 980 497 L 982 497 L 983 498 L 985 498 L 986 497 L 988 497 L 991 494 L 991 492 L 992 491 L 992 488 L 991 487 L 991 486 L 988 483 L 987 483 L 986 482 L 982 482 L 981 483 "></path>
        <path fill="none" stroke="#fa00fa" stroke-width="3" d="M 981 318 L 980 319 L 979 319 L 977 321 L 977 323 L 976 324 L 976 326 L 977 327 L 977 329 L 980 332 L 981 332 L 982 333 L 986 333 L 987 332 L 988 332 L 991 329 L 991 328 L 992 327 L 992 324 L 991 323 L 991 321 L 989 319 L 988 319 L 987 318 L 981 318 L 980 319 "></path>
        <path fill="none" stroke="#fa00fa" stroke-width="3" d="M 103 208 L 102 209 L 101 209 L 100 210 L 100 211 L 99 212 L 99 213 L 98 214 L 98 217 L 99 218 L 99 219 L 100 220 L 100 221 L 101 221 L 103 223 L 108 223 L 109 222 L 110 222 L 113 219 L 113 217 L 114 216 L 114 215 L 113 214 L 113 212 L 112 211 L 112 210 L 111 209 L 110 209 L 109 208 L 103 208 L 102 209 "></path>
        <path fill="none" stroke="#fa00fa" stroke-width="3" d="M 926 648 L 923 651 L 923 652 L 922 653 L 922 656 L 923 657 L 923 658 L 926 661 L 928 661 L 929 662 L 930 662 L 931 661 L 933 661 L 935 659 L 935 658 L 936 657 L 936 652 L 935 651 L 935 650 L 934 649 L 933 649 L 932 648 L 926 648 L 923 651 "></path>
        <path fill="none" stroke="#fa00fa" stroke-width="3" d="M 274 257 L 273 258 L 271 258 L 271 259 L 272 259 L 275 262 L 275 269 L 274 270 L 274 272 L 273 273 L 273 274 L 272 275 L 271 275 L 270 276 L 269 276 L 268 277 L 265 277 L 264 276 L 263 276 L 262 275 L 261 275 L 260 276 L 260 277 L 262 279 L 266 279 L 267 278 L 268 279 L 273 279 L 274 280 L 279 280 L 279 279 L 280 278 L 280 277 L 279 276 L 279 269 L 278 268 L 278 265 L 279 264 L 279 260 L 277 258 L 276 258 L 275 257 L 274 257 L 273 258 "></path>
        <path fill="none" stroke="#fa00fa" stroke-width="3" d="M 158 703 L 155 706 L 155 707 L 154 708 L 154 711 L 155 712 L 155 713 L 157 715 L 158 715 L 159 716 L 163 716 L 167 712 L 167 707 L 166 706 L 166 705 L 165 704 L 164 704 L 163 703 L 158 703 L 155 706 "></path>
        <path fill="none" stroke="#fa00fa" stroke-width="3" d="M 159 99 L 158 100 L 157 100 L 155 102 L 155 103 L 154 104 L 154 107 L 155 108 L 155 109 L 158 112 L 163 112 L 164 111 L 165 111 L 166 110 L 166 109 L 167 108 L 167 103 L 163 99 L 159 99 L 158 100 "></path>
        <path fill="none" stroke="#fa00fa" stroke-width="3" d="M 984 538 L 983 539 L 981 539 L 978 542 L 978 548 L 981 551 L 987 551 L 990 548 L 990 547 L 991 546 L 991 544 L 990 543 L 990 542 L 989 541 L 989 540 L 988 540 L 987 539 L 985 539 L 984 538 L 983 539 "></path>
        <path fill="none" stroke="#fa00fa" stroke-width="3" d="M 982 264 L 981 265 L 980 265 L 979 266 L 979 267 L 978 268 L 978 273 L 981 276 L 982 276 L 983 277 L 985 277 L 986 276 L 987 276 L 988 275 L 989 275 L 989 274 L 990 273 L 990 272 L 991 271 L 991 269 L 990 268 L 990 267 L 987 264 L 982 264 L 981 265 "></path>
        <path fill="none" stroke="#fa00fa" stroke-width="3" d="M 48 429 L 45 432 L 45 434 L 44 435 L 45 436 L 45 438 L 48 441 L 53 441 L 54 440 L 55 440 L 56 439 L 56 438 L 57 437 L 57 433 L 56 432 L 56 431 L 54 429 L 48 429 L 45 432 "></path>
        <path fill="none" stroke="#fa00fa" stroke-width="3" d="M 48 374 L 45 377 L 45 379 L 44 380 L 45 381 L 45 383 L 48 386 L 53 386 L 54 385 L 55 385 L 56 384 L 56 383 L 57 382 L 57 378 L 56 377 L 56 376 L 55 375 L 54 375 L 53 374 L 48 374 L 45 377 "></path>
        <path fill="none" stroke="#fa00fa" stroke-width="3" d="M 812 425 L 811 426 L 811 432 L 812 433 L 812 438 L 811 439 L 811 444 L 812 445 L 816 445 L 817 444 L 818 444 L 819 443 L 816 440 L 816 431 L 820 427 L 819 426 L 817 426 L 816 425 L 812 425 L 811 426 "></path>
        <path fill="none" stroke="#fa00fa" stroke-width="3" d="M 812 370 L 811 371 L 811 376 L 812 377 L 812 383 L 811 384 L 811 389 L 812 390 L 816 390 L 817 389 L 819 389 L 820 388 L 819 387 L 818 387 L 817 386 L 817 385 L 816 384 L 816 379 L 815 378 L 816 377 L 816 375 L 818 373 L 818 371 L 817 371 L 816 370 L 812 370 L 811 371 "></path>
        <path fill="none" stroke="#fa00fa" stroke-width="3" d="M 49 484 L 45 488 L 45 492 L 46 493 L 46 494 L 47 494 L 48 495 L 49 495 L 50 496 L 51 496 L 52 495 L 54 495 L 56 493 L 56 491 L 57 490 L 57 489 L 56 488 L 56 487 L 54 485 L 53 485 L 52 484 L 49 484 L 45 488 "></path>
        <path fill="none" stroke="#fa00fa" stroke-width="3" d="M 50 319 L 49 320 L 48 320 L 45 323 L 45 327 L 46 328 L 46 329 L 47 330 L 48 330 L 49 331 L 52 331 L 53 330 L 54 330 L 56 328 L 56 322 L 54 320 L 52 320 L 51 319 L 50 319 L 49 320 "></path>
        <path fill="none" stroke="#fa00fa" stroke-width="3" d="M 104 649 L 103 650 L 102 650 L 101 651 L 101 653 L 100 654 L 100 655 L 101 656 L 101 658 L 102 659 L 103 659 L 104 660 L 108 660 L 110 658 L 110 657 L 111 656 L 111 653 L 110 652 L 110 651 L 109 650 L 108 650 L 107 649 L 104 649 L 103 650 "></path>
        <path fill="none" stroke="#fa00fa" stroke-width="3" d="M 983 210 L 982 211 L 981 211 L 980 212 L 980 213 L 979 214 L 979 216 L 980 217 L 980 218 L 982 220 L 987 220 L 989 218 L 989 213 L 987 211 L 986 211 L 985 210 L 983 210 L 982 211 "></path>
        <path fill="none" stroke="#fa00fa" stroke-width="3" d="M 982 595 L 980 597 L 980 598 L 979 599 L 979 600 L 980 601 L 980 603 L 981 604 L 982 604 L 983 605 L 986 605 L 989 602 L 989 597 L 987 595 L 982 595 L 980 597 "></path>
        <path fill="none" stroke="#fa00fa" stroke-width="3" d="M 49 540 L 48 541 L 47 541 L 47 542 L 46 543 L 46 547 L 48 549 L 49 549 L 50 550 L 52 550 L 53 549 L 54 549 L 55 548 L 55 546 L 56 545 L 56 544 L 55 543 L 55 542 L 53 540 L 49 540 L 48 541 "></path>
        <path fill="none" stroke="#fa00fa" stroke-width="3" d="M 872 760 L 870 762 L 870 767 L 872 769 L 877 769 L 879 767 L 879 762 L 877 760 L 872 760 L 870 762 "></path>
        <path fill="none" stroke="#fa00fa" stroke-width="3" d="M 872 46 L 870 48 L 870 53 L 872 55 L 877 55 L 879 53 L 879 48 L 877 46 L 872 46 L 870 48 "></path>
        <path fill="none" stroke="#fa00fa" stroke-width="3" d="M 928 705 L 927 706 L 926 706 L 925 707 L 925 712 L 927 714 L 932 714 L 934 712 L 934 708 L 933 707 L 933 706 L 932 706 L 931 705 L 928 705 L 927 706 "></path>
        <path fill="none" stroke="#fa00fa" stroke-width="3" d="M 159 760 L 156 763 L 156 766 L 159 769 L 162 769 L 163 768 L 164 768 L 164 767 L 165 766 L 165 763 L 162 760 L 159 760 L 156 763 "></path>
        <path fill="none" stroke="#fa00fa" stroke-width="3" d="M 159 46 L 158 47 L 157 47 L 157 48 L 156 49 L 156 52 L 159 55 L 162 55 L 165 52 L 165 49 L 162 46 L 159 46 L 158 47 "></path>
        <path fill="none" stroke="#fa00fa" stroke-width="3" d="M 984 650 L 983 651 L 982 651 L 980 653 L 980 656 L 981 657 L 981 658 L 982 658 L 983 659 L 986 659 L 989 656 L 989 654 L 988 653 L 988 652 L 987 651 L 986 651 L 985 650 L 984 650 L 983 651 "></path>
        <path fill="none" stroke="#fa00fa" stroke-width="3" d="M 983 156 L 982 157 L 981 157 L 981 158 L 980 159 L 980 162 L 982 164 L 983 164 L 984 165 L 985 165 L 986 164 L 987 164 L 988 163 L 988 162 L 989 161 L 989 160 L 988 159 L 988 158 L 986 156 L 983 156 L 982 157 "></path>
        <path fill="none" stroke="#fa00fa" stroke-width="3" d="M 105 705 L 104 706 L 103 706 L 102 707 L 102 708 L 101 709 L 101 711 L 104 714 L 107 714 L 110 711 L 110 709 L 109 708 L 109 707 L 108 706 L 107 706 L 106 705 L 105 705 L 104 706 "></path>
        <path fill="none" stroke="#fa00fa" stroke-width="3" d="M 104 101 L 103 102 L 102 102 L 102 103 L 101 104 L 101 106 L 102 107 L 102 108 L 103 109 L 108 109 L 109 108 L 109 107 L 110 106 L 110 104 L 107 101 L 104 101 L 103 102 "></path>
        <path fill="none" stroke="#fa00fa" stroke-width="3" d="M 482 113 L 482 116 L 484 118 L 485 118 L 486 119 L 488 119 L 489 120 L 492 120 L 493 119 L 495 119 L 496 118 L 497 118 L 498 117 L 498 116 L 499 115 L 499 114 L 498 113 L 497 113 L 494 116 L 493 116 L 492 117 L 488 117 L 487 116 L 486 116 L 485 115 L 484 115 L 482 113 L 482 116 "></path>
        <path fill="none" stroke="#fa00fa" stroke-width="3" d="M 929 46 L 928 47 L 927 47 L 926 48 L 926 53 L 927 54 L 932 54 L 933 53 L 933 52 L 934 51 L 934 50 L 933 49 L 933 48 L 932 47 L 931 47 L 930 46 L 929 46 L 928 47 "></path>
        <path fill="none" stroke="#fa00fa" stroke-width="3" d="M 50 156 L 49 157 L 48 157 L 47 158 L 47 163 L 48 163 L 49 164 L 53 164 L 54 163 L 54 161 L 55 160 L 54 159 L 54 158 L 53 157 L 52 157 L 51 156 L 50 156 L 49 157 "></path>
        <path fill="none" stroke="#fa00fa" stroke-width="3" d="M 48 651 L 47 652 L 47 657 L 48 658 L 49 658 L 50 659 L 51 659 L 52 658 L 53 658 L 54 657 L 54 652 L 53 652 L 52 651 L 48 651 L 47 652 "></path>
        <path fill="none" stroke="#fa00fa" stroke-width="3" d="M 982 706 L 981 707 L 981 712 L 982 713 L 987 713 L 988 712 L 988 708 L 986 706 L 982 706 L 981 707 "></path>
        <path fill="none" stroke="#fa00fa" stroke-width="3" d="M 982 102 L 981 103 L 981 108 L 982 108 L 983 109 L 986 109 L 988 107 L 988 103 L 987 102 L 982 102 L 981 103 "></path>
        <path fill="none" stroke="#fa00fa" stroke-width="3" d="M 103 47 L 102 48 L 102 52 L 104 54 L 107 54 L 109 52 L 109 48 L 108 47 L 103 47 L 102 48 "></path>
        <path fill="none" stroke="#fa00fa" stroke-width="3" d="M 104 761 L 103 762 L 102 762 L 102 767 L 103 768 L 108 768 L 108 767 L 109 766 L 109 763 L 107 761 L 104 761 L 103 762 "></path>
        <path fill="none" stroke="#fa00fa" stroke-width="3" d="M 983 761 L 981 763 L 981 766 L 983 768 L 986 768 L 988 766 L 988 763 L 986 761 L 983 761 L 981 763 "></path>
        <path fill="none" stroke="#fa00fa" stroke-width="3" d="M 49 706 L 47 708 L 47 711 L 49 713 L 52 713 L 54 711 L 54 708 L 52 706 L 49 706 L 47 708 "></path>
        <path fill="none" stroke="#fa00fa" stroke-width="3" d="M 983 47 L 981 49 L 981 52 L 982 53 L 983 53 L 984 54 L 986 54 L 988 52 L 988 49 L 987 48 L 987 47 L 983 47 L 981 49 "></path>
        <path fill="none" stroke="#fa00fa" stroke-width="3" d="M 49 47 L 47 49 L 47 52 L 48 53 L 49 53 L 50 54 L 51 54 L 52 53 L 53 53 L 54 52 L 54 49 L 52 47 L 49 47 L 47 49 "></path>
        <path fill="none" stroke="#fa00fa" stroke-width="3" d="M 50 761 L 49 762 L 48 762 L 47 763 L 47 766 L 49 768 L 52 768 L 54 766 L 54 764 L 53 763 L 53 762 L 52 762 L 51 761 L 50 761 L 49 762 "></path>
        <path fill="none" stroke="#fa00fa" stroke-width="3" d="M 753 212 L 752 213 L 752 215 L 751 216 L 751 220 L 752 221 L 752 222 L 753 223 L 758 223 L 754 219 L 754 218 L 753 217 L 753 212 L 752 213 "></path>
        <path fill="none" stroke="#fa00fa" stroke-width="3" d="M 702 168 L 702 172 L 703 173 L 705 173 L 706 174 L 707 174 L 708 173 L 711 173 L 710 173 L 709 172 L 707 172 L 703 168 L 702 168 L 702 172 "></path>
        <path fill="none" stroke="#fa00fa" stroke-width="3" d="M 498 702 L 498 704 L 499 704 L 501 706 L 502 706 L 502 704 L 500 702 L 498 702 L 498 704 "></path>
        <path fill="none" stroke="#fa00fa" stroke-width="3" d="M 812 481 L 812 484 L 813 485 L 815 483 L 815 481 L 812 481 L 812 484 "></path>
        <path fill="none" stroke="#fa00fa" stroke-width="3" d="M 813 330 L 812 331 L 812 334 L 815 334 L 815 332 L 813 330 L 812 331 "></path>
        <path fill="none" stroke="#fa00fa" stroke-width="3" d="M 758 591 L 757 592 L 757 595 L 758 595 L 760 593 L 760 592 L 759 592 L 758 591 L 757 592 "></path>
        <path fill="none" stroke="#fa00fa" stroke-width="3" d="M 536 110 L 536 113 L 539 113 L 539 111 L 538 111 L 537 110 L 536 110 L 536 113 "></path>
        <path fill="none" stroke="#fa00fa" stroke-width="3" d="M 553 110 L 551 112 L 552 113 L 554 113 L 554 111 L 553 110 L 551 112 "></path>
        <path fill="none" stroke="#fa00fa" stroke-width="3" d="M 813 496 L 812 497 L 812 498 L 813 499 L 814 499 L 814 497 L 813 496 L 812 497 "></path>
        <path fill="none" stroke="#fa00fa" stroke-width="3" d="M 373 151 L 372 152 L 372 153 L 371 154 L 371 155 L 372 155 L 372 154 L 373 153 L 373 152 L 374 151 L 373 151 L 372 152 "></path>
        <path fill="none" stroke="#fa00fa" stroke-width="3" d="M 702 647 L 702 649 L 704 649 L 704 647 L 702 647 L 702 649 "></path>
        <path fill="none" stroke="#fa00fa" stroke-width="3" d="M 596 697 L 595 698 L 594 698 L 593 699 L 594 699 L 595 698 L 598 698 L 599 697 L 601 697 L 596 697 L 595 698 "></path>
        <path fill="none" stroke="#fa00fa" stroke-width="3" d="M 813 316 L 812 317 L 812 318 L 814 318 L 814 316 L 813 316 L 812 317 "></path>
        <path fill="none" stroke="#fa00fa" stroke-width="3" d="M 482 702 L 481 703 L 481 704 L 483 704 L 483 702 L 482 702 L 481 703 "></path>
    </g>
</svg>
