<svg xmlns="http://www.w3.org/2000/svg" xmlns:xlink="http://www.w3.org/1999/xlink" version="1.1" x="0" y="0" width="1056px" height="816px">
    <g id="rootLayer" transform="translate(0.000000, 0.000000)">
        <path fill="none" stroke="#00fafa" stroke-width="3" d="M 538 344 L 539 343 L 540 344 L 542 344 L 543 343 L 544 344 L 546 344 L 547 343 L 548 344 L 550 344 L 551 343 L 552 344 L 554 344 L 555 343 L 556 344 L 558 344 L 559 343 L 560 343 L 561 344 L 562 344 L 563 343 L 564 343 L 565 344 L 566 344 L 567 343 L 568 344 L 571 344 L 572 345 L 572 347 L 571 348 L 569 348 L 568 349 L 556 349 L 555 350 L 554 350 L 553 349 L 552 350 L 543 350 L 542 349 L 534 349 L 533 348 L 534 347 L 534 346 L 533 345 L 534 344 "></path>
        <path fill="none" stroke="#00fafa" stroke-width="3" d="M 586 436 L 587 435 L 589 435 L 590 436 L 591 435 L 592 435 L 593 436 L 594 436 L 595 435 L 596 436 L 598 436 L 599 435 L 600 436 L 604 436 L 605 437 L 604 438 L 604 439 L 606 439 L 606 437 L 607 436 L 608 436 L 609 437 L 608 438 L 608 439 L 610 439 L 611 438 L 612 439 L 612 442 L 611 443 L 610 442 L 608 442 L 607 443 L 606 443 L 605 442 L 603 442 L 602 441 L 601 441 L 599 443 L 596 443 L 595 444 L 594 443 L 592 443 L 591 444 L 590 443 L 588 443 L 587 444 L 586 443 L 584 443 L 583 444 L 582 444 L 581 443 L 580 444 L 579 444 L 578 443 L 578 442 L 576 442 L 575 443 L 573 441 L 573 440 L 574 439 L 580 439 L 581 440 L 583 438 L 586 438 L 584 438 L 583 437 L 584 436 "></path>
        <path fill="none" stroke="#00fafa" stroke-width="3" d="M 590 467 L 591 466 L 593 468 L 595 466 L 597 468 L 599 466 L 601 468 L 602 468 L 603 467 L 604 467 L 605 468 L 606 468 L 607 467 L 608 467 L 609 468 L 610 468 L 611 467 L 612 468 L 612 470 L 611 471 L 610 470 L 608 470 L 607 471 L 606 470 L 604 470 L 603 471 L 602 470 L 600 470 L 599 471 L 598 471 L 597 470 L 596 471 L 594 471 L 593 470 L 591 470 L 590 469 "></path>
        <path fill="none" stroke="#00fafa" stroke-width="3" d="M 603 499 L 604 500 L 606 500 L 607 499 L 608 500 L 610 500 L 611 499 L 613 501 L 613 502 L 611 504 L 610 503 L 608 503 L 607 504 L 606 503 L 604 503 L 603 504 L 602 503 L 602 502 L 601 501 "></path>
        <path fill="none" stroke="#00fafa" stroke-width="3" d="M 379 415 L 396 415 L 397 416 L 398 416 L 399 415 L 400 416 L 402 416 L 403 415 L 404 416 L 406 416 L 407 415 L 408 416 L 424 416 L 425 417 L 424 418 L 424 420 L 423 421 L 421 421 L 420 422 L 418 422 L 417 421 L 416 422 L 415 422 L 414 421 L 408 421 L 405 418 L 403 420 L 401 418 L 399 420 L 398 419 L 398 418 L 397 418 L 395 420 L 394 419 L 392 419 L 392 420 L 391 421 L 389 419 L 387 421 L 386 420 L 384 420 L 384 423 L 383 424 L 382 423 L 382 420 L 380 420 L 380 422 L 381 423 L 379 425 L 378 424 L 378 420 L 377 419 L 378 418 L 377 417 "></path>
        <path fill="none" stroke="#00fafa" stroke-width="3" d="M 386 550 L 387 549 L 388 550 L 390 550 L 391 549 L 392 549 L 393 550 L 394 550 L 395 549 L 398 552 L 398 551 L 399 550 L 400 551 L 402 551 L 403 550 L 404 551 L 405 551 L 406 552 L 407 551 L 408 551 L 409 552 L 410 552 L 411 551 L 412 551 L 413 552 L 414 552 L 415 551 L 416 551 L 417 552 L 418 552 L 419 551 L 420 552 L 423 552 L 424 553 L 424 554 L 423 555 L 404 555 L 403 556 L 402 555 L 400 555 L 399 556 L 397 556 L 396 557 L 394 557 L 393 556 L 392 557 L 383 557 L 382 556 L 382 554 L 381 553 L 382 552 L 382 551 L 383 550 "></path>
        <path fill="none" stroke="#00fafa" stroke-width="3" d="M 422 437 L 423 436 L 424 437 L 426 437 L 427 436 L 432 436 L 434 438 L 433 439 L 433 441 L 431 443 L 430 442 L 429 442 L 427 444 L 426 443 L 426 442 L 425 442 L 423 444 L 422 443 L 422 442 L 421 442 L 420 443 L 419 443 L 418 442 L 417 442 L 415 444 L 413 442 L 412 443 L 411 443 L 410 442 L 410 440 L 411 439 L 414 439 L 415 438 L 416 439 L 418 439 L 418 438 L 419 437 "></path>
        <path fill="none" stroke="#00fafa" stroke-width="3" d="M 419 582 L 420 581 L 432 581 L 434 583 L 432 585 L 430 585 L 429 584 L 427 586 L 426 585 L 424 585 L 423 586 L 422 585 L 420 585 L 419 586 L 418 585 L 418 584 L 417 583 L 418 582 "></path>
        <path fill="none" stroke="#00fafa" stroke-width="3" d="M 415 486 L 416 487 L 418 487 L 419 486 L 420 487 L 422 487 L 423 486 L 424 487 L 426 487 L 427 486 L 428 487 L 431 487 L 432 488 L 432 489 L 431 490 L 430 489 L 428 489 L 427 490 L 426 489 L 424 489 L 423 490 L 422 489 L 421 489 L 420 490 L 419 490 L 418 489 L 417 489 L 415 491 L 414 490 L 414 489 L 413 488 "></path>
        <path fill="none" stroke="#00fafa" stroke-width="3" d="M 358 540 L 359 539 L 360 540 L 362 540 L 363 539 L 364 540 L 366 540 L 367 539 L 368 540 L 370 540 L 371 539 L 373 541 L 371 543 L 370 542 L 368 542 L 367 543 L 366 542 L 364 542 L 363 543 L 362 542 L 360 542 L 359 543 L 358 542 "></path>
        <path fill="none" stroke="#00fafa" stroke-width="3" d="M 358 415 L 359 414 L 365 414 L 366 415 L 365 416 L 364 416 L 367 416 L 368 417 L 367 418 L 358 418 L 357 417 L 358 416 "></path>
        <path fill="none" stroke="#00fafa" stroke-width="3" d="M 546 542 L 547 541 L 548 542 L 576 542 L 577 543 L 575 545 L 574 544 L 572 544 L 571 545 L 570 544 L 569 544 L 567 546 L 566 545 L 566 544 L 565 544 L 565 545 L 563 547 L 540 547 L 539 548 L 538 547 L 537 547 L 536 546 L 536 545 L 537 544 L 538 544 L 538 543 L 539 542 L 541 544 L 542 544 L 542 543 L 543 542 "></path>
    </g>
</svg>
