<svg xmlns="http://www.w3.org/2000/svg" xmlns:xlink="http://www.w3.org/1999/xlink" version="1.1" x="0" y="0" width="1056px" height="816px">
    <g id="rootLayer" transform="translate(0.000000, 0.000000)">
        <path fill="none" stroke="#00fafa" stroke-width="3" d="M 522 443 L 523 442 L 524 443 L 525 443 L 527 445 L 528 445 L 529 446 L 529 448 L 528 449 L 528 451 L 527 452 L 526 452 L 524 454 L 524 455 L 523 456 L 522 455 L 522 456 L 521 457 L 520 456 L 520 453 L 517 450 L 517 448 L 516 447 L 517 446 L 518 446 L 518 444 L 519 443 "></path>
        <path fill="none" stroke="#00fafa" stroke-width="3" d="M 553 397 L 554 396 L 555 397 L 557 397 L 559 399 L 559 400 L 558 401 L 558 403 L 557 404 L 557 406 L 556 407 L 555 406 L 554 407 L 553 407 L 552 406 L 549 406 L 548 405 L 549 406 L 548 407 L 547 407 L 546 406 L 546 402 L 548 400 L 548 399 L 549 398 L 550 399 L 552 397 "></path>
    </g>
</svg>
