<svg xmlns="http://www.w3.org/2000/svg" xmlns:xlink="http://www.w3.org/1999/xlink" version="1.1" x="0" y="0" width="1056px" height="816px">
    <g id="rootLayer" transform="translate(0.000000, 0.000000)">
        <path fill="none" stroke="#fa00fa" stroke-width="3" d="M 654 17 L 654 56 L 653 57 L 653 61 L 652 62 L 634 62 L 633 61 L 632 62 L 616 62 L 615 63 L 614 62 L 612 62 L 611 63 L 610 62 L 609 62 L 608 63 L 605 63 L 604 64 L 597 64 L 596 63 L 585 63 L 584 64 L 582 64 L 581 63 L 572 63 L 571 64 L 568 64 L 567 65 L 566 64 L 564 64 L 563 65 L 562 64 L 560 64 L 560 65 L 559 66 L 557 66 L 556 67 L 555 67 L 554 66 L 543 66 L 542 65 L 532 65 L 531 66 L 529 66 L 528 65 L 527 65 L 526 64 L 510 64 L 509 63 L 508 64 L 507 64 L 506 63 L 489 63 L 488 64 L 486 64 L 486 66 L 487 66 L 489 68 L 491 68 L 492 69 L 494 69 L 495 70 L 496 70 L 497 71 L 520 71 L 521 72 L 522 72 L 523 71 L 524 72 L 527 72 L 529 74 L 529 75 L 528 76 L 516 76 L 515 77 L 514 76 L 512 76 L 511 77 L 510 76 L 508 76 L 507 77 L 506 76 L 504 76 L 503 77 L 502 76 L 501 76 L 500 77 L 486 77 L 485 78 L 485 80 L 486 81 L 486 83 L 484 85 L 484 87 L 485 88 L 494 88 L 495 87 L 498 87 L 498 83 L 499 82 L 500 82 L 501 83 L 501 84 L 500 85 L 500 86 L 501 87 L 502 87 L 502 83 L 503 82 L 504 82 L 505 83 L 506 83 L 507 82 L 510 82 L 511 81 L 513 81 L 514 80 L 520 80 L 521 81 L 522 81 L 523 80 L 524 81 L 528 81 L 529 82 L 530 81 L 532 81 L 533 82 L 534 82 L 535 81 L 536 81 L 537 82 L 538 82 L 539 81 L 540 82 L 542 82 L 543 81 L 544 82 L 550 82 L 551 81 L 559 81 L 560 80 L 567 80 L 568 81 L 568 83 L 567 84 L 564 84 L 564 86 L 566 86 L 567 85 L 568 86 L 570 86 L 571 85 L 572 86 L 574 86 L 575 85 L 576 86 L 582 86 L 583 85 L 584 85 L 585 86 L 586 85 L 588 85 L 589 86 L 591 84 L 592 85 L 594 85 L 595 84 L 598 84 L 599 83 L 610 83 L 611 82 L 612 83 L 614 83 L 615 82 L 618 82 L 619 81 L 620 82 L 622 82 L 623 81 L 624 82 L 629 82 L 630 83 L 631 82 L 632 82 L 633 83 L 634 83 L 635 82 L 636 83 L 645 83 L 646 84 L 647 83 L 648 83 L 649 84 L 650 84 L 651 83 L 653 85 L 653 89 L 652 90 L 650 90 L 649 89 L 648 90 L 632 90 L 631 91 L 630 90 L 629 90 L 628 91 L 628 92 L 629 93 L 630 93 L 631 92 L 633 94 L 633 97 L 632 98 L 632 99 L 634 99 L 634 94 L 635 93 L 636 93 L 637 94 L 638 93 L 640 93 L 641 94 L 642 93 L 644 93 L 645 94 L 646 93 L 648 93 L 649 94 L 650 93 L 652 93 L 653 94 L 653 97 L 652 98 L 652 99 L 653 100 L 653 230 L 654 231 L 730 231 L 731 232 L 731 248 L 729 250 L 709 250 L 708 251 L 708 334 L 707 335 L 704 335 L 703 336 L 702 335 L 701 335 L 700 336 L 699 336 L 698 335 L 697 335 L 696 336 L 695 336 L 694 335 L 693 335 L 692 336 L 691 336 L 690 335 L 689 335 L 688 336 L 687 336 L 686 335 L 685 335 L 684 336 L 683 336 L 682 335 L 681 335 L 680 336 L 679 336 L 678 335 L 677 335 L 676 336 L 675 336 L 674 335 L 673 335 L 672 336 L 671 336 L 670 335 L 668 335 L 667 336 L 666 335 L 664 335 L 663 336 L 662 335 L 660 335 L 659 336 L 658 335 L 656 335 L 655 336 L 654 335 L 628 335 L 627 336 L 626 335 L 624 335 L 623 336 L 622 335 L 620 335 L 619 336 L 617 336 L 616 337 L 616 344 L 617 345 L 617 349 L 614 352 L 602 352 L 601 351 L 599 351 L 595 347 L 595 342 L 597 340 L 597 337 L 595 335 L 595 333 L 594 332 L 594 330 L 593 330 L 592 329 L 591 330 L 584 330 L 583 331 L 577 331 L 576 332 L 575 332 L 574 333 L 573 333 L 572 334 L 572 336 L 571 337 L 569 337 L 568 338 L 564 338 L 563 339 L 562 338 L 560 338 L 559 339 L 558 338 L 557 338 L 556 339 L 555 339 L 554 338 L 553 338 L 552 339 L 551 339 L 550 338 L 549 338 L 548 339 L 547 339 L 546 338 L 545 338 L 544 339 L 536 339 L 535 340 L 534 339 L 532 339 L 531 340 L 530 339 L 528 339 L 527 340 L 526 339 L 525 339 L 524 340 L 523 340 L 522 339 L 521 339 L 520 340 L 516 340 L 515 341 L 512 341 L 511 342 L 510 341 L 508 341 L 507 342 L 506 341 L 504 341 L 503 342 L 500 342 L 499 343 L 498 342 L 496 342 L 495 343 L 494 342 L 492 342 L 491 343 L 490 342 L 489 342 L 487 344 L 486 343 L 484 343 L 484 345 L 483 346 L 482 345 L 482 343 L 481 343 L 480 344 L 480 346 L 481 347 L 481 348 L 482 348 L 482 347 L 483 346 L 484 347 L 484 348 L 486 348 L 487 347 L 488 348 L 490 348 L 491 347 L 492 348 L 492 351 L 493 352 L 493 353 L 494 354 L 494 355 L 495 356 L 495 359 L 494 360 L 494 361 L 493 362 L 493 365 L 495 367 L 493 369 L 494 370 L 494 373 L 493 374 L 493 375 L 492 376 L 492 378 L 493 379 L 492 380 L 493 380 L 495 382 L 494 383 L 495 384 L 495 385 L 496 386 L 496 388 L 493 391 L 493 392 L 492 393 L 493 394 L 493 397 L 492 398 L 492 402 L 493 403 L 493 404 L 494 405 L 494 406 L 496 408 L 496 409 L 494 411 L 494 412 L 493 413 L 493 414 L 495 416 L 495 417 L 494 418 L 494 419 L 495 419 L 496 420 L 496 426 L 495 427 L 495 430 L 494 431 L 495 432 L 494 433 L 493 433 L 493 434 L 494 435 L 494 437 L 491 440 L 490 439 L 488 439 L 488 441 L 489 442 L 490 442 L 490 441 L 491 440 L 494 443 L 494 446 L 496 448 L 496 449 L 495 450 L 494 450 L 492 452 L 492 453 L 493 454 L 493 455 L 494 455 L 496 457 L 493 460 L 492 460 L 492 462 L 493 463 L 495 463 L 496 464 L 496 470 L 495 471 L 494 471 L 493 472 L 493 475 L 495 475 L 496 476 L 496 478 L 495 479 L 493 479 L 493 480 L 491 482 L 490 481 L 488 481 L 487 482 L 486 481 L 484 481 L 483 482 L 482 481 L 480 481 L 479 482 L 478 481 L 478 480 L 477 479 L 476 479 L 476 480 L 475 481 L 473 479 L 472 479 L 473 480 L 471 482 L 470 481 L 468 481 L 467 482 L 466 481 L 464 481 L 463 482 L 462 481 L 460 481 L 459 482 L 458 481 L 457 481 L 456 482 L 456 483 L 457 484 L 458 484 L 459 483 L 460 484 L 462 484 L 463 483 L 464 484 L 466 484 L 467 483 L 468 484 L 470 484 L 471 483 L 472 484 L 474 484 L 475 483 L 476 484 L 478 484 L 479 483 L 481 485 L 482 485 L 482 484 L 483 483 L 485 485 L 486 485 L 487 484 L 488 484 L 489 485 L 489 486 L 488 487 L 489 487 L 490 486 L 490 485 L 491 484 L 492 485 L 492 487 L 493 488 L 495 488 L 496 489 L 496 490 L 497 491 L 497 493 L 498 494 L 498 495 L 497 496 L 497 497 L 496 498 L 496 500 L 494 502 L 493 502 L 492 503 L 492 504 L 493 505 L 495 505 L 496 506 L 496 507 L 497 508 L 497 514 L 498 515 L 498 517 L 497 518 L 497 519 L 498 520 L 498 522 L 497 523 L 497 528 L 496 529 L 497 530 L 497 531 L 498 532 L 498 534 L 497 535 L 497 541 L 498 542 L 498 545 L 497 546 L 497 547 L 498 548 L 498 551 L 499 552 L 499 553 L 498 554 L 498 555 L 497 556 L 497 557 L 496 558 L 497 559 L 497 560 L 519 560 L 520 561 L 527 561 L 528 562 L 530 562 L 531 561 L 532 562 L 534 562 L 535 561 L 536 562 L 538 562 L 539 561 L 540 562 L 542 562 L 543 561 L 544 562 L 578 562 L 579 561 L 580 562 L 582 562 L 583 561 L 584 562 L 586 562 L 587 561 L 588 562 L 589 562 L 590 561 L 593 561 L 594 562 L 595 561 L 596 561 L 597 562 L 598 562 L 599 561 L 600 561 L 601 562 L 602 562 L 603 561 L 604 562 L 639 562 L 640 563 L 641 563 L 642 562 L 643 562 L 644 563 L 645 563 L 646 562 L 647 562 L 648 563 L 649 563 L 650 562 L 651 562 L 652 563 L 653 563 L 654 562 L 655 562 L 656 563 L 657 563 L 658 562 L 659 562 L 660 563 L 661 563 L 662 562 L 663 562 L 664 563 L 666 563 L 667 562 L 668 563 L 670 563 L 671 562 L 672 563 L 674 563 L 675 562 L 676 563 L 678 563 L 679 562 L 680 563 L 682 563 L 683 562 L 684 563 L 686 563 L 687 562 L 688 563 L 690 563 L 691 562 L 692 563 L 694 563 L 695 562 L 696 563 L 697 563 L 698 562 L 699 562 L 700 563 L 701 563 L 702 562 L 705 562 L 706 561 L 706 553 L 708 551 L 709 551 L 709 550 L 711 548 L 712 548 L 713 549 L 714 549 L 715 548 L 716 548 L 717 549 L 718 549 L 719 548 L 720 548 L 721 549 L 722 549 L 723 548 L 724 548 L 725 549 L 726 549 L 727 548 L 745 548 L 746 549 L 747 548 L 749 548 L 750 549 L 751 548 L 827 548 L 828 547 L 829 547 L 829 546 L 830 545 L 830 539 L 829 538 L 829 537 L 830 536 L 830 533 L 829 532 L 829 526 L 830 525 L 830 499 L 829 498 L 829 496 L 830 495 L 830 493 L 829 492 L 830 491 L 830 486 L 829 485 L 830 484 L 830 466 L 831 465 L 833 465 L 834 464 L 836 464 L 837 465 L 838 464 L 840 464 L 841 465 L 842 464 L 844 464 L 845 465 L 846 464 L 922 464 L 922 349 L 924 347 L 925 347 L 926 346 L 945 346 L 945 345 L 946 344 L 945 343 L 945 341 L 946 340 L 946 338 L 945 337 L 946 336 L 945 335 L 945 332 L 946 331 L 945 330 L 945 328 L 946 327 L 946 326 L 945 325 L 945 324 L 946 323 L 945 322 L 945 320 L 946 319 L 945 318 L 945 316 L 946 315 L 945 314 L 945 313 L 946 312 L 945 311 L 946 310 L 945 309 L 945 307 L 946 306 L 945 305 L 945 303 L 946 302 L 945 301 L 945 298 L 946 297 L 946 294 L 945 293 L 945 290 L 946 289 L 945 288 L 945 286 L 946 285 L 945 284 L 945 278 L 946 277 L 946 275 L 945 274 L 946 273 L 945 272 L 945 271 L 946 270 L 945 269 L 945 261 L 946 260 L 945 259 L 945 257 L 946 256 L 946 254 L 945 253 L 946 252 L 945 251 L 945 250 L 946 249 L 945 248 L 945 247 L 946 246 L 945 245 L 945 236 L 946 235 L 946 233 L 945 232 L 946 231 L 945 230 L 945 229 L 946 228 L 946 225 L 945 224 L 945 223 L 946 222 L 945 221 L 946 220 L 946 217 L 945 216 L 945 215 L 946 214 L 945 213 L 946 212 L 945 211 L 945 208 L 946 207 L 946 201 L 945 200 L 946 199 L 946 196 L 945 195 L 946 194 L 945 193 L 945 192 L 946 191 L 946 188 L 945 187 L 946 186 L 945 185 L 946 184 L 946 180 L 945 179 L 946 178 L 946 175 L 945 174 L 946 173 L 946 171 L 945 170 L 945 169 L 946 168 L 946 167 L 945 166 L 946 165 L 946 158 L 945 157 L 946 156 L 946 154 L 945 153 L 946 152 L 946 150 L 945 149 L 946 148 L 946 146 L 945 145 L 945 143 L 946 142 L 945 141 L 945 140 L 946 139 L 946 137 L 945 136 L 946 135 L 946 134 L 945 133 L 943 133 L 942 132 L 940 132 L 939 133 L 938 132 L 936 132 L 935 133 L 934 132 L 932 132 L 931 133 L 930 132 L 928 132 L 927 133 L 926 132 L 924 132 L 923 133 L 922 132 L 921 132 L 920 133 L 919 133 L 918 132 L 917 132 L 916 133 L 903 133 L 902 132 L 901 132 L 900 133 L 899 133 L 898 132 L 897 132 L 896 133 L 895 133 L 894 132 L 893 132 L 892 133 L 891 133 L 890 132 L 889 132 L 888 133 L 887 133 L 886 132 L 885 132 L 884 133 L 883 133 L 882 132 L 881 132 L 880 133 L 879 133 L 878 132 L 877 132 L 876 133 L 875 133 L 874 132 L 873 132 L 872 133 L 871 133 L 870 132 L 868 132 L 867 131 L 867 17 "></path>
        <path fill="none" stroke="#fa00fa" stroke-width="3" d="M 545 296 L 544 297 L 536 297 L 534 299 L 537 302 L 547 302 L 549 304 L 549 305 L 550 305 L 550 304 L 551 303 L 552 304 L 552 305 L 553 306 L 554 306 L 555 305 L 557 307 L 558 307 L 559 306 L 562 306 L 563 305 L 564 306 L 566 306 L 567 305 L 571 305 L 572 306 L 573 306 L 574 307 L 575 307 L 576 308 L 576 310 L 573 313 L 576 313 L 578 315 L 577 316 L 572 316 L 571 317 L 570 316 L 567 316 L 566 315 L 564 315 L 563 316 L 562 315 L 560 315 L 559 316 L 558 315 L 557 315 L 556 316 L 555 316 L 554 315 L 553 316 L 552 316 L 551 317 L 550 316 L 550 315 L 549 316 L 548 316 L 547 317 L 546 316 L 545 316 L 544 317 L 532 317 L 531 318 L 530 317 L 529 317 L 528 318 L 527 318 L 526 317 L 525 317 L 523 319 L 522 318 L 520 320 L 500 320 L 499 321 L 498 320 L 497 320 L 495 322 L 492 322 L 492 325 L 491 326 L 490 325 L 487 325 L 486 324 L 487 323 L 490 323 L 490 322 L 487 322 L 485 320 L 484 321 L 483 321 L 482 320 L 481 320 L 480 321 L 479 321 L 478 320 L 476 320 L 475 321 L 474 320 L 472 320 L 471 321 L 470 320 L 468 320 L 467 321 L 466 320 L 465 320 L 464 321 L 464 330 L 465 331 L 466 331 L 466 330 L 467 329 L 469 331 L 470 331 L 471 330 L 472 331 L 474 331 L 474 330 L 475 329 L 477 331 L 478 331 L 478 329 L 476 329 L 475 328 L 476 327 L 478 327 L 478 326 L 479 325 L 480 326 L 480 327 L 481 327 L 482 328 L 480 330 L 481 331 L 482 331 L 483 330 L 485 332 L 486 332 L 487 331 L 488 331 L 489 332 L 490 332 L 491 331 L 498 331 L 499 330 L 502 330 L 502 329 L 500 329 L 498 327 L 498 325 L 499 324 L 510 324 L 511 323 L 514 323 L 515 322 L 518 322 L 519 321 L 520 322 L 524 322 L 525 323 L 526 323 L 527 322 L 528 323 L 530 323 L 531 322 L 532 323 L 548 323 L 549 324 L 549 325 L 548 326 L 547 326 L 546 325 L 545 325 L 543 327 L 542 326 L 541 326 L 540 327 L 539 327 L 538 326 L 537 326 L 536 327 L 535 327 L 534 326 L 533 327 L 532 327 L 531 328 L 530 327 L 530 326 L 529 327 L 528 327 L 527 328 L 526 327 L 525 327 L 523 329 L 520 329 L 520 330 L 521 331 L 524 331 L 525 332 L 526 332 L 527 331 L 528 332 L 530 332 L 531 331 L 540 331 L 541 332 L 542 332 L 543 331 L 544 332 L 546 332 L 547 331 L 548 332 L 550 332 L 551 331 L 552 332 L 554 332 L 555 331 L 562 331 L 562 329 L 561 328 L 562 327 L 562 324 L 563 323 L 565 325 L 564 326 L 564 327 L 566 327 L 566 324 L 567 323 L 568 323 L 569 324 L 570 324 L 571 323 L 572 324 L 573 324 L 574 325 L 575 324 L 576 325 L 577 325 L 578 326 L 579 325 L 580 325 L 581 326 L 582 326 L 583 325 L 584 325 L 585 326 L 586 326 L 587 325 L 589 327 L 590 327 L 591 326 L 592 327 L 594 327 L 594 325 L 596 323 L 597 323 L 598 322 L 598 318 L 597 317 L 598 316 L 598 312 L 597 312 L 594 309 L 594 308 L 596 306 L 596 303 L 598 301 L 598 298 L 597 298 L 596 297 L 559 297 L 558 296 L 557 296 L 556 297 L 555 297 L 554 296 L 553 296 L 552 297 L 551 297 L 550 296 L 549 296 L 548 297 L 547 297 L 546 296 "></path>
        <path fill="none" stroke="#fa00fa" stroke-width="3" d="M 485 299 L 484 300 L 480 300 L 479 301 L 478 300 L 477 300 L 476 301 L 476 302 L 479 302 L 480 303 L 480 304 L 479 305 L 478 304 L 477 304 L 476 305 L 472 305 L 471 306 L 470 305 L 469 305 L 468 306 L 467 306 L 466 305 L 465 305 L 464 306 L 463 306 L 462 305 L 461 305 L 460 306 L 459 306 L 458 305 L 457 305 L 456 306 L 455 306 L 454 305 L 453 305 L 452 306 L 450 306 L 449 305 L 448 306 L 447 306 L 446 305 L 444 305 L 443 306 L 442 305 L 441 305 L 440 306 L 439 306 L 438 305 L 437 305 L 436 306 L 428 306 L 428 307 L 429 308 L 430 308 L 431 307 L 432 308 L 440 308 L 441 309 L 442 309 L 443 308 L 444 308 L 445 309 L 446 309 L 447 308 L 448 308 L 449 309 L 450 309 L 451 308 L 452 308 L 453 309 L 454 309 L 455 308 L 456 308 L 457 309 L 460 309 L 461 310 L 462 310 L 463 309 L 464 310 L 466 310 L 467 309 L 468 310 L 470 310 L 471 309 L 472 310 L 474 310 L 475 309 L 476 310 L 478 310 L 479 309 L 480 309 L 481 310 L 482 310 L 483 309 L 484 309 L 485 310 L 486 310 L 487 309 L 488 310 L 490 310 L 491 309 L 492 310 L 494 310 L 495 309 L 496 310 L 498 310 L 499 309 L 500 310 L 502 310 L 503 309 L 504 310 L 512 310 L 513 311 L 514 311 L 515 310 L 516 311 L 518 311 L 520 309 L 522 309 L 520 309 L 518 307 L 508 307 L 507 308 L 506 307 L 505 307 L 504 308 L 503 308 L 502 307 L 499 307 L 498 306 L 498 305 L 497 305 L 495 307 L 494 306 L 494 303 L 495 302 L 506 302 L 507 301 L 508 302 L 510 302 L 510 301 L 511 300 L 514 300 L 514 299 L 488 299 L 487 300 L 486 299 "></path>
        <path fill="none" stroke="#fa00fa" stroke-width="3" d="M 588 119 L 588 120 L 589 121 L 593 121 L 594 122 L 593 123 L 592 123 L 591 124 L 590 123 L 589 124 L 588 124 L 587 125 L 586 124 L 585 124 L 583 126 L 582 125 L 582 124 L 581 124 L 581 125 L 580 126 L 581 127 L 580 128 L 581 129 L 584 129 L 585 130 L 592 130 L 593 131 L 593 132 L 594 132 L 594 131 L 595 130 L 596 131 L 596 132 L 598 132 L 599 131 L 601 133 L 602 133 L 603 132 L 604 133 L 606 133 L 607 132 L 608 133 L 609 133 L 609 131 L 610 130 L 610 129 L 611 128 L 610 127 L 610 124 L 609 123 L 609 120 L 607 120 L 606 119 L 604 119 L 603 120 L 602 119 L 600 119 L 599 120 L 598 119 L 596 119 L 595 120 L 594 119 L 592 119 L 591 120 L 590 119 "></path>
        <path fill="none" stroke="#fa00fa" stroke-width="3" d="M 581 89 L 580 90 L 544 90 L 544 92 L 545 93 L 546 93 L 547 92 L 548 92 L 549 93 L 550 93 L 551 92 L 552 93 L 554 93 L 555 92 L 556 93 L 558 93 L 559 92 L 560 93 L 562 93 L 563 92 L 564 93 L 566 93 L 567 92 L 568 93 L 570 93 L 571 92 L 572 93 L 574 93 L 575 92 L 576 93 L 578 93 L 579 92 L 580 93 L 588 93 L 589 94 L 589 96 L 588 97 L 585 97 L 584 98 L 580 98 L 580 99 L 581 100 L 582 100 L 583 99 L 584 100 L 585 100 L 586 101 L 587 100 L 588 100 L 589 101 L 590 101 L 591 100 L 594 100 L 594 97 L 591 97 L 590 96 L 590 94 L 591 93 L 594 93 L 595 92 L 598 92 L 598 90 L 594 90 L 593 89 L 584 89 L 583 90 L 582 89 "></path>
        <path fill="none" stroke="#fa00fa" stroke-width="3" d="M 544 228 L 544 231 L 546 231 L 546 230 L 547 229 L 548 230 L 548 231 L 550 231 L 551 230 L 552 231 L 554 231 L 555 230 L 556 231 L 558 231 L 559 230 L 560 231 L 562 231 L 563 230 L 564 231 L 566 231 L 567 230 L 568 231 L 569 231 L 570 230 L 570 228 L 568 228 L 567 229 L 566 228 L 564 228 L 563 229 L 562 228 L 560 228 L 559 229 L 558 228 L 556 228 L 555 229 L 554 228 L 552 228 L 551 229 L 550 228 L 548 228 L 547 229 L 546 228 "></path>
        <path fill="none" stroke="#fa00fa" stroke-width="3" d="M 473 132 L 471 134 L 469 134 L 469 135 L 468 136 L 468 137 L 472 137 L 473 138 L 474 138 L 475 137 L 476 138 L 478 138 L 479 137 L 482 137 L 482 134 L 481 133 L 480 134 L 479 134 L 477 132 L 476 133 L 475 133 L 474 132 "></path>
        <path fill="none" stroke="#fa00fa" stroke-width="3" d="M 497 132 L 496 133 L 496 136 L 497 137 L 498 137 L 499 136 L 500 137 L 501 137 L 502 138 L 502 137 L 503 136 L 505 138 L 506 138 L 506 137 L 507 136 L 508 137 L 510 137 L 510 133 L 509 134 L 507 134 L 506 133 L 506 132 L 505 132 L 503 134 L 502 133 L 502 132 L 501 132 L 499 134 L 498 133 L 498 132 "></path>
        <path fill="none" stroke="#fa00fa" stroke-width="3" d="M 477 123 L 476 124 L 464 124 L 463 125 L 462 124 L 461 124 L 460 125 L 461 126 L 461 127 L 463 125 L 465 127 L 466 127 L 467 126 L 468 127 L 470 127 L 471 126 L 472 127 L 478 127 L 479 126 L 480 126 L 481 125 L 482 125 L 482 124 L 478 124 "></path>
        <path fill="none" stroke="#fa00fa" stroke-width="3" d="M 457 164 L 456 165 L 456 166 L 457 166 L 458 167 L 458 166 L 459 165 L 460 166 L 461 166 L 462 167 L 462 166 L 463 165 L 465 167 L 466 167 L 467 166 L 468 166 L 469 167 L 470 167 L 471 166 L 472 166 L 473 167 L 474 167 L 475 166 L 478 166 L 478 164 L 476 164 L 475 165 L 474 164 L 472 164 L 471 165 L 470 164 L 468 164 L 467 165 L 466 164 L 464 164 L 463 165 L 462 164 L 460 164 L 459 165 L 458 164 "></path>
        <path fill="none" stroke="#fa00fa" stroke-width="3" d="M 509 91 L 508 92 L 425 92 L 424 93 L 424 96 L 422 98 L 384 98 L 383 99 L 382 98 L 380 98 L 379 99 L 378 98 L 376 98 L 375 99 L 374 98 L 372 98 L 371 99 L 370 98 L 368 98 L 367 99 L 366 98 L 364 98 L 363 99 L 362 98 L 360 98 L 359 99 L 358 98 L 356 98 L 355 99 L 354 98 L 352 98 L 351 99 L 350 98 L 348 98 L 347 99 L 346 98 L 344 98 L 343 99 L 342 98 L 340 98 L 339 99 L 338 98 L 336 98 L 335 99 L 334 98 L 332 98 L 331 99 L 330 98 L 328 98 L 327 99 L 326 98 L 324 98 L 323 99 L 322 98 L 321 98 L 320 99 L 319 99 L 318 98 L 317 98 L 316 99 L 315 99 L 314 98 L 313 98 L 312 99 L 310 99 L 309 100 L 309 101 L 310 102 L 310 105 L 309 106 L 309 108 L 310 109 L 310 110 L 309 111 L 310 112 L 310 113 L 309 114 L 309 115 L 310 116 L 310 118 L 309 119 L 310 120 L 309 121 L 310 122 L 309 123 L 309 125 L 310 126 L 309 127 L 310 128 L 310 130 L 308 132 L 271 132 L 271 345 L 484 345 L 484 337 L 486 335 L 494 335 L 495 334 L 499 334 L 500 335 L 501 335 L 502 336 L 503 336 L 504 337 L 504 341 L 502 343 L 502 344 L 503 345 L 502 346 L 503 347 L 503 348 L 504 349 L 504 375 L 503 376 L 503 380 L 504 381 L 504 399 L 502 401 L 503 402 L 503 403 L 502 404 L 502 405 L 501 406 L 501 407 L 502 408 L 502 409 L 500 411 L 500 412 L 502 414 L 502 415 L 503 416 L 500 419 L 500 420 L 502 422 L 502 424 L 501 425 L 501 427 L 502 428 L 501 429 L 502 430 L 502 431 L 503 432 L 502 433 L 503 433 L 505 435 L 506 435 L 507 434 L 508 435 L 512 435 L 513 436 L 514 436 L 515 435 L 516 435 L 517 436 L 518 436 L 519 435 L 520 435 L 521 436 L 522 436 L 523 435 L 524 435 L 525 436 L 526 436 L 527 435 L 528 435 L 529 436 L 530 436 L 531 435 L 532 436 L 534 436 L 535 435 L 536 435 L 537 436 L 538 436 L 539 435 L 540 435 L 541 436 L 542 436 L 543 435 L 544 436 L 544 437 L 542 439 L 540 439 L 539 440 L 538 439 L 535 439 L 534 438 L 532 438 L 531 439 L 530 438 L 529 438 L 528 439 L 527 439 L 526 438 L 525 438 L 524 439 L 523 439 L 522 438 L 521 438 L 520 439 L 519 439 L 518 438 L 517 438 L 516 439 L 514 439 L 513 438 L 511 440 L 510 439 L 508 439 L 507 440 L 506 439 L 505 439 L 504 440 L 504 441 L 505 442 L 506 442 L 506 441 L 507 440 L 509 442 L 510 442 L 511 441 L 512 441 L 513 442 L 514 442 L 515 441 L 516 442 L 518 442 L 519 441 L 520 442 L 522 442 L 523 441 L 524 442 L 526 442 L 527 441 L 528 442 L 531 442 L 532 443 L 532 444 L 531 445 L 530 444 L 529 444 L 528 445 L 528 447 L 530 447 L 531 446 L 532 447 L 535 447 L 536 448 L 536 449 L 535 450 L 534 449 L 532 449 L 531 450 L 530 450 L 529 449 L 528 449 L 527 450 L 526 450 L 525 449 L 524 450 L 520 450 L 520 454 L 522 454 L 523 453 L 524 454 L 526 454 L 527 453 L 528 454 L 530 454 L 531 453 L 532 454 L 534 454 L 535 453 L 536 454 L 538 454 L 539 453 L 540 454 L 542 454 L 543 453 L 544 454 L 546 454 L 547 453 L 548 454 L 550 454 L 551 453 L 552 454 L 554 454 L 555 453 L 556 454 L 558 454 L 559 453 L 560 454 L 562 454 L 562 453 L 563 452 L 566 452 L 567 451 L 568 451 L 569 452 L 571 450 L 573 452 L 575 450 L 577 452 L 577 451 L 579 449 L 580 450 L 579 449 L 579 448 L 580 447 L 582 447 L 583 446 L 584 447 L 587 447 L 588 448 L 588 450 L 590 450 L 590 448 L 591 447 L 592 448 L 594 448 L 595 447 L 596 447 L 597 448 L 598 448 L 599 447 L 600 448 L 602 448 L 603 447 L 604 448 L 606 448 L 607 447 L 610 447 L 611 446 L 612 447 L 628 447 L 629 448 L 629 449 L 628 450 L 627 450 L 626 449 L 625 449 L 624 450 L 623 450 L 622 449 L 621 450 L 620 450 L 619 451 L 618 450 L 616 450 L 615 451 L 614 450 L 613 450 L 612 451 L 608 451 L 607 452 L 606 451 L 605 451 L 604 452 L 602 452 L 601 451 L 600 452 L 596 452 L 596 453 L 598 453 L 600 455 L 612 455 L 613 456 L 614 456 L 615 455 L 616 455 L 617 456 L 618 456 L 619 455 L 620 455 L 621 456 L 622 456 L 623 455 L 624 455 L 625 456 L 626 456 L 627 455 L 628 456 L 643 456 L 644 457 L 644 458 L 645 459 L 647 459 L 648 460 L 649 460 L 650 461 L 648 463 L 631 463 L 630 462 L 628 462 L 627 463 L 626 462 L 624 462 L 623 463 L 622 462 L 620 462 L 619 463 L 618 462 L 616 462 L 615 463 L 614 462 L 612 462 L 611 463 L 610 462 L 609 462 L 608 463 L 606 463 L 605 462 L 604 463 L 603 463 L 602 462 L 600 462 L 599 463 L 598 462 L 597 462 L 596 463 L 595 463 L 594 462 L 593 462 L 591 464 L 589 462 L 587 464 L 586 463 L 585 463 L 584 464 L 584 467 L 585 468 L 585 469 L 584 470 L 581 470 L 580 471 L 580 476 L 581 477 L 583 477 L 584 478 L 586 478 L 587 477 L 588 478 L 588 479 L 589 479 L 590 478 L 594 478 L 595 477 L 597 477 L 598 476 L 600 476 L 601 477 L 602 476 L 604 476 L 605 477 L 606 476 L 608 476 L 609 477 L 610 477 L 611 476 L 612 476 L 613 477 L 614 477 L 615 476 L 616 476 L 617 477 L 618 477 L 619 476 L 620 477 L 622 477 L 623 476 L 624 477 L 649 477 L 650 478 L 651 477 L 652 477 L 653 478 L 655 478 L 656 479 L 656 481 L 657 482 L 657 486 L 658 486 L 658 482 L 659 481 L 660 482 L 660 483 L 661 484 L 661 487 L 660 488 L 660 489 L 659 490 L 658 489 L 658 488 L 657 488 L 657 489 L 656 490 L 655 490 L 654 489 L 653 489 L 653 490 L 652 491 L 650 491 L 649 490 L 649 489 L 649 490 L 648 491 L 643 491 L 641 489 L 639 491 L 637 489 L 635 491 L 634 490 L 634 489 L 633 489 L 631 491 L 630 490 L 630 489 L 629 489 L 627 491 L 626 490 L 626 489 L 625 489 L 623 491 L 622 490 L 622 489 L 621 489 L 619 491 L 617 489 L 617 490 L 615 492 L 612 492 L 611 493 L 608 493 L 607 494 L 606 493 L 604 493 L 603 494 L 602 493 L 600 493 L 599 494 L 598 493 L 597 493 L 596 494 L 595 494 L 594 493 L 593 493 L 592 494 L 591 494 L 590 493 L 589 493 L 588 494 L 587 494 L 586 493 L 585 493 L 584 494 L 580 494 L 579 495 L 578 494 L 577 494 L 576 495 L 576 497 L 578 499 L 577 500 L 578 499 L 578 498 L 579 497 L 580 498 L 580 500 L 581 501 L 581 503 L 580 504 L 581 505 L 582 505 L 582 501 L 583 500 L 584 501 L 584 505 L 585 506 L 586 506 L 586 505 L 587 504 L 589 506 L 590 506 L 590 505 L 591 504 L 593 506 L 594 506 L 595 505 L 596 505 L 597 506 L 598 506 L 599 505 L 600 505 L 601 506 L 602 506 L 603 505 L 604 505 L 605 506 L 606 506 L 607 505 L 608 505 L 609 506 L 610 506 L 611 505 L 612 506 L 614 506 L 615 505 L 616 505 L 617 506 L 618 506 L 618 505 L 619 504 L 620 504 L 621 505 L 622 505 L 622 502 L 623 501 L 624 502 L 624 504 L 625 505 L 626 505 L 626 504 L 627 503 L 629 505 L 630 505 L 630 504 L 631 503 L 633 505 L 634 504 L 634 502 L 635 501 L 636 501 L 637 502 L 639 500 L 641 502 L 643 500 L 645 502 L 646 502 L 647 501 L 648 501 L 649 502 L 650 502 L 651 501 L 652 501 L 653 502 L 654 502 L 655 501 L 657 503 L 657 505 L 658 505 L 658 503 L 659 502 L 660 503 L 660 504 L 661 505 L 661 507 L 659 509 L 658 508 L 656 510 L 656 513 L 657 513 L 658 512 L 658 511 L 659 510 L 660 511 L 660 513 L 661 513 L 663 511 L 666 511 L 667 510 L 668 511 L 674 511 L 675 510 L 677 510 L 678 509 L 676 507 L 675 507 L 674 506 L 674 505 L 675 504 L 676 504 L 676 503 L 677 502 L 677 501 L 678 500 L 678 487 L 677 486 L 677 481 L 678 480 L 678 479 L 676 477 L 677 476 L 677 475 L 678 474 L 678 473 L 677 472 L 677 471 L 678 470 L 678 468 L 679 467 L 679 465 L 678 464 L 678 461 L 680 459 L 678 457 L 678 451 L 677 450 L 677 448 L 678 447 L 678 441 L 679 440 L 679 439 L 680 438 L 680 436 L 683 433 L 698 433 L 699 432 L 713 432 L 714 431 L 714 430 L 713 429 L 713 427 L 714 426 L 713 425 L 713 420 L 714 419 L 714 401 L 713 400 L 714 399 L 714 393 L 713 392 L 714 391 L 714 373 L 713 372 L 713 371 L 714 370 L 714 314 L 715 313 L 715 312 L 714 311 L 714 294 L 715 293 L 715 291 L 714 290 L 714 271 L 715 270 L 714 269 L 714 246 L 715 245 L 715 240 L 714 239 L 714 236 L 715 235 L 715 234 L 714 233 L 714 229 L 715 228 L 715 223 L 714 222 L 714 221 L 713 220 L 712 220 L 711 221 L 710 220 L 708 220 L 707 221 L 706 220 L 704 220 L 703 221 L 702 220 L 700 220 L 699 221 L 698 220 L 696 220 L 695 221 L 694 220 L 692 220 L 691 221 L 690 220 L 686 220 L 684 218 L 684 217 L 683 216 L 683 213 L 684 212 L 683 211 L 683 200 L 684 199 L 684 198 L 683 197 L 683 192 L 684 191 L 684 190 L 683 189 L 683 182 L 684 181 L 684 177 L 683 176 L 683 173 L 684 172 L 684 170 L 683 169 L 683 163 L 684 162 L 683 161 L 684 160 L 684 147 L 683 146 L 684 145 L 683 144 L 684 143 L 684 141 L 683 140 L 683 139 L 684 138 L 684 125 L 683 124 L 683 123 L 682 122 L 682 121 L 642 121 L 641 120 L 640 120 L 639 119 L 639 93 L 637 91 L 636 91 L 635 92 L 634 91 L 632 91 L 631 92 L 630 91 L 628 91 L 627 92 L 603 92 L 602 91 L 601 91 L 600 92 L 599 92 L 598 91 L 596 91 L 595 92 L 594 91 L 592 91 L 591 92 L 590 91 L 588 91 L 587 92 L 586 91 L 584 91 L 583 92 L 582 91 L 580 91 L 579 92 L 578 91 L 576 91 L 575 92 L 574 91 L 572 91 L 571 92 L 570 91 L 568 91 L 567 92 L 566 91 L 564 91 L 563 92 L 562 91 L 560 91 L 559 92 L 558 91 L 556 91 L 555 92 L 554 91 L 552 91 L 551 92 L 550 91 L 548 91 L 547 92 L 546 91 L 544 91 L 543 92 L 542 91 L 541 91 L 540 92 L 539 92 L 538 91 L 537 91 L 536 92 L 535 92 L 534 91 L 533 91 L 532 92 L 530 92 L 529 91 L 528 92 L 526 92 L 525 91 L 524 92 L 522 92 L 521 91 L 520 92 L 519 92 L 518 91 L 517 91 L 516 92 L 515 92 L 514 91 L 513 91 L 512 92 L 511 92 L 510 91 "></path>
        <path fill="none" stroke="#fa00fa" stroke-width="3" d="M 649 510 L 649 512 L 648 513 L 649 514 L 649 515 L 648 516 L 647 516 L 646 515 L 645 515 L 644 516 L 643 516 L 642 515 L 641 515 L 639 517 L 638 516 L 636 516 L 635 517 L 634 516 L 634 515 L 633 516 L 632 516 L 631 517 L 630 516 L 628 516 L 627 517 L 626 516 L 625 516 L 624 517 L 623 517 L 622 516 L 621 516 L 620 517 L 619 517 L 618 516 L 616 516 L 615 517 L 614 516 L 613 516 L 612 517 L 611 517 L 610 516 L 609 516 L 608 517 L 606 517 L 605 516 L 603 518 L 601 516 L 599 518 L 598 517 L 596 517 L 595 518 L 594 517 L 592 517 L 592 522 L 593 523 L 595 521 L 597 523 L 599 521 L 601 523 L 603 521 L 605 523 L 607 521 L 609 523 L 611 521 L 613 523 L 615 521 L 617 523 L 618 523 L 618 522 L 619 521 L 621 523 L 623 521 L 624 522 L 626 522 L 627 521 L 628 522 L 630 522 L 631 521 L 632 522 L 634 522 L 635 521 L 636 522 L 638 522 L 639 521 L 640 521 L 641 522 L 642 521 L 648 521 L 649 522 L 650 521 L 652 521 L 653 522 L 654 521 L 655 521 L 656 522 L 657 522 L 658 521 L 658 519 L 656 519 L 655 520 L 653 518 L 652 519 L 650 517 L 650 515 L 649 514 L 650 513 L 650 510 "></path>
        <path fill="none" stroke="#fa00fa" stroke-width="3" d="M 637 527 L 635 529 L 634 528 L 632 528 L 631 529 L 630 528 L 628 528 L 627 529 L 626 528 L 624 528 L 623 529 L 622 528 L 621 528 L 620 529 L 619 529 L 618 528 L 617 528 L 616 529 L 616 532 L 617 533 L 618 533 L 618 531 L 619 530 L 620 531 L 620 533 L 622 533 L 622 532 L 623 531 L 624 532 L 624 533 L 626 533 L 627 532 L 628 533 L 630 533 L 630 532 L 631 531 L 632 532 L 634 532 L 635 531 L 636 532 L 638 532 L 639 531 L 640 532 L 641 532 L 643 530 L 645 532 L 647 530 L 649 532 L 650 531 L 651 531 L 652 532 L 654 532 L 655 531 L 656 532 L 658 532 L 659 531 L 660 532 L 662 532 L 663 531 L 664 532 L 666 532 L 666 530 L 663 530 L 662 529 L 662 528 L 656 528 L 655 529 L 654 528 L 652 528 L 651 529 L 650 528 L 648 528 L 647 529 L 646 528 L 644 528 L 643 529 L 641 527 L 639 529 L 638 528 L 638 527 "></path>
        <path fill="none" stroke="#fa00fa" stroke-width="3" d="M 640 538 L 641 539 L 641 540 L 640 541 L 640 543 L 642 543 L 643 542 L 645 544 L 647 542 L 649 544 L 650 544 L 650 543 L 651 542 L 653 544 L 654 544 L 654 543 L 655 542 L 657 544 L 658 544 L 658 543 L 659 542 L 660 543 L 660 544 L 662 544 L 663 543 L 665 545 L 666 545 L 666 544 L 667 543 L 669 545 L 670 545 L 670 544 L 671 543 L 673 545 L 674 545 L 674 544 L 675 543 L 676 544 L 677 544 L 677 541 L 676 541 L 675 542 L 674 541 L 672 541 L 671 542 L 670 541 L 668 541 L 667 542 L 666 541 L 664 541 L 663 542 L 662 541 L 660 541 L 659 542 L 658 541 L 656 541 L 655 542 L 653 540 L 653 538 L 653 539 L 651 541 L 650 540 L 650 538 L 649 538 L 649 539 L 648 540 L 648 541 L 647 542 L 646 541 L 646 540 L 645 539 L 646 538 L 645 538 L 645 540 L 643 542 L 641 540 L 641 539 L 642 538 "></path>
        <path fill="none" stroke="#fa00fa" stroke-width="3" d="M 669 547 L 668 548 L 668 549 L 667 550 L 666 549 L 666 548 L 665 548 L 663 550 L 662 549 L 660 549 L 659 550 L 658 549 L 658 548 L 657 548 L 655 550 L 654 549 L 652 549 L 651 550 L 650 549 L 648 549 L 647 550 L 646 549 L 644 549 L 644 551 L 645 552 L 646 552 L 646 551 L 647 550 L 648 551 L 648 552 L 650 552 L 650 551 L 651 550 L 653 552 L 654 552 L 654 551 L 655 550 L 657 552 L 658 552 L 658 551 L 659 550 L 661 552 L 662 552 L 662 551 L 663 550 L 665 552 L 666 552 L 667 551 L 668 552 L 671 552 L 672 553 L 674 553 L 675 552 L 676 553 L 677 552 L 678 552 L 678 550 L 676 548 L 675 549 L 674 548 L 674 547 L 673 547 L 671 549 L 670 548 L 670 547 "></path>
        <path fill="none" stroke="#fa00fa" stroke-width="3" d="M 673 518 L 671 520 L 670 519 L 668 519 L 668 521 L 671 521 L 672 522 L 672 523 L 671 524 L 669 524 L 668 525 L 668 526 L 670 528 L 670 527 L 671 526 L 672 527 L 673 527 L 674 528 L 674 527 L 675 526 L 677 526 L 677 519 L 675 519 L 674 518 "></path>
        <path fill="none" stroke="#fa00fa" stroke-width="3" d="M 584 529 L 584 531 L 583 532 L 582 531 L 581 531 L 580 532 L 580 533 L 581 533 L 582 534 L 582 533 L 583 532 L 585 534 L 586 534 L 587 533 L 588 533 L 589 534 L 590 534 L 590 533 L 591 532 L 592 533 L 594 533 L 594 529 L 592 529 L 592 531 L 591 532 L 590 531 L 590 529 L 588 529 L 588 531 L 587 532 L 586 531 L 586 529 "></path>
        <path fill="none" stroke="#fa00fa" stroke-width="3" d="M 503 248 L 502 249 L 502 354 L 503 355 L 503 359 L 502 360 L 502 385 L 503 386 L 503 388 L 502 389 L 502 390 L 500 392 L 500 398 L 501 399 L 500 400 L 500 402 L 501 403 L 500 404 L 500 409 L 499 410 L 498 410 L 497 411 L 491 411 L 490 410 L 483 410 L 482 409 L 468 409 L 467 410 L 466 409 L 464 409 L 463 410 L 462 409 L 460 409 L 459 410 L 458 409 L 457 409 L 456 410 L 412 410 L 411 411 L 410 410 L 402 410 L 401 409 L 400 410 L 399 410 L 398 409 L 397 409 L 396 410 L 395 410 L 394 409 L 393 409 L 392 410 L 391 410 L 390 409 L 388 409 L 387 410 L 386 409 L 386 408 L 384 408 L 383 409 L 382 408 L 382 407 L 381 407 L 379 409 L 378 408 L 378 407 L 377 407 L 375 409 L 373 407 L 371 409 L 370 408 L 368 408 L 367 409 L 366 408 L 364 408 L 363 409 L 362 408 L 360 408 L 359 409 L 358 408 L 356 408 L 355 409 L 354 408 L 353 408 L 352 409 L 352 410 L 351 411 L 350 410 L 350 409 L 349 409 L 349 414 L 351 414 L 352 415 L 352 416 L 353 417 L 352 418 L 349 418 L 348 419 L 348 420 L 350 422 L 351 421 L 352 422 L 356 422 L 357 423 L 357 425 L 355 427 L 354 426 L 352 426 L 352 427 L 360 427 L 361 428 L 363 428 L 364 429 L 376 429 L 377 430 L 378 430 L 379 429 L 381 431 L 381 432 L 380 433 L 376 433 L 376 434 L 377 435 L 376 436 L 376 441 L 377 442 L 378 442 L 378 440 L 379 439 L 380 440 L 380 441 L 381 442 L 382 442 L 383 441 L 384 441 L 385 442 L 387 442 L 388 443 L 388 444 L 387 445 L 384 445 L 383 446 L 380 446 L 379 447 L 378 446 L 376 446 L 375 447 L 374 446 L 372 446 L 371 447 L 370 446 L 368 446 L 367 447 L 366 446 L 365 446 L 364 447 L 363 447 L 362 446 L 361 446 L 360 447 L 358 447 L 357 446 L 356 447 L 354 447 L 353 446 L 352 447 L 349 447 L 348 448 L 349 449 L 349 450 L 350 450 L 351 449 L 352 450 L 354 450 L 355 449 L 356 450 L 358 450 L 359 449 L 360 450 L 362 450 L 363 449 L 364 450 L 366 450 L 367 449 L 368 450 L 376 450 L 377 451 L 377 452 L 376 453 L 376 454 L 378 454 L 379 453 L 380 454 L 381 454 L 382 455 L 383 454 L 384 455 L 387 455 L 389 457 L 387 459 L 380 459 L 379 460 L 378 459 L 376 459 L 375 460 L 373 458 L 371 460 L 369 458 L 367 460 L 366 459 L 364 459 L 363 460 L 362 459 L 360 459 L 359 460 L 358 459 L 357 459 L 355 461 L 354 460 L 354 459 L 353 459 L 352 460 L 352 462 L 353 463 L 355 461 L 357 463 L 358 463 L 358 462 L 359 461 L 361 463 L 361 465 L 360 466 L 361 467 L 360 468 L 348 468 L 348 470 L 349 471 L 350 471 L 351 470 L 352 471 L 354 471 L 355 470 L 356 471 L 358 471 L 359 470 L 360 471 L 366 471 L 367 470 L 368 470 L 369 471 L 370 471 L 371 470 L 372 470 L 373 471 L 374 471 L 375 470 L 376 470 L 377 471 L 378 471 L 378 470 L 379 469 L 381 471 L 382 471 L 382 468 L 380 468 L 379 469 L 377 467 L 376 468 L 375 468 L 374 467 L 373 467 L 372 468 L 366 468 L 365 467 L 365 466 L 366 465 L 365 464 L 367 462 L 368 462 L 369 463 L 370 463 L 371 462 L 372 462 L 373 463 L 374 463 L 375 462 L 377 464 L 379 462 L 381 464 L 382 464 L 383 463 L 384 464 L 384 466 L 386 466 L 386 464 L 387 463 L 388 464 L 388 466 L 389 466 L 391 464 L 392 465 L 392 466 L 394 466 L 394 465 L 395 464 L 396 465 L 396 466 L 398 466 L 398 465 L 400 463 L 408 463 L 409 464 L 410 463 L 412 463 L 413 464 L 414 464 L 415 463 L 416 463 L 417 464 L 418 464 L 419 463 L 421 465 L 422 465 L 423 464 L 424 465 L 424 467 L 423 468 L 420 468 L 419 469 L 418 468 L 416 468 L 415 469 L 414 468 L 412 468 L 412 469 L 413 470 L 413 471 L 412 472 L 412 473 L 411 474 L 410 473 L 409 473 L 407 475 L 406 474 L 404 474 L 404 475 L 405 476 L 406 476 L 407 475 L 408 476 L 408 478 L 409 479 L 410 479 L 410 478 L 411 477 L 413 479 L 414 479 L 414 478 L 415 477 L 416 478 L 418 478 L 419 477 L 421 479 L 422 479 L 422 478 L 423 477 L 424 478 L 424 479 L 425 480 L 423 482 L 420 482 L 419 483 L 416 483 L 415 484 L 414 483 L 411 483 L 410 482 L 410 481 L 409 481 L 408 482 L 408 483 L 407 484 L 404 484 L 403 485 L 402 484 L 402 481 L 401 481 L 400 482 L 400 484 L 399 485 L 398 484 L 398 481 L 397 481 L 396 482 L 396 483 L 395 484 L 394 483 L 394 481 L 393 481 L 392 482 L 392 483 L 391 484 L 390 483 L 390 481 L 389 481 L 388 482 L 388 483 L 387 484 L 386 483 L 386 481 L 385 481 L 384 482 L 384 488 L 383 489 L 382 488 L 382 487 L 380 487 L 381 488 L 380 489 L 378 489 L 377 488 L 377 487 L 376 487 L 375 488 L 373 486 L 372 487 L 371 487 L 370 486 L 368 486 L 367 487 L 366 486 L 364 486 L 363 487 L 362 486 L 361 486 L 359 488 L 358 487 L 358 486 L 357 486 L 355 488 L 354 487 L 354 486 L 353 486 L 351 488 L 350 487 L 348 487 L 348 489 L 347 490 L 346 489 L 345 490 L 345 491 L 346 492 L 347 491 L 349 493 L 350 493 L 351 492 L 353 494 L 353 495 L 354 494 L 354 493 L 355 492 L 357 494 L 356 495 L 357 495 L 358 494 L 358 493 L 359 492 L 361 494 L 360 495 L 361 495 L 362 494 L 362 493 L 363 492 L 364 493 L 364 495 L 365 495 L 367 493 L 368 494 L 368 495 L 369 495 L 371 493 L 372 494 L 372 495 L 373 495 L 375 493 L 376 494 L 376 495 L 377 495 L 379 493 L 380 494 L 380 495 L 381 495 L 382 494 L 382 493 L 383 492 L 384 493 L 384 495 L 385 495 L 386 494 L 386 493 L 387 492 L 388 493 L 388 495 L 389 496 L 390 496 L 391 495 L 393 497 L 394 497 L 394 496 L 395 495 L 397 497 L 398 497 L 398 495 L 399 494 L 400 495 L 400 496 L 401 497 L 401 496 L 402 495 L 402 493 L 403 492 L 404 492 L 405 493 L 405 494 L 404 495 L 405 495 L 405 493 L 406 492 L 410 492 L 411 491 L 412 492 L 414 492 L 415 491 L 416 492 L 418 492 L 419 491 L 420 492 L 423 492 L 425 494 L 426 494 L 427 493 L 428 494 L 430 494 L 431 493 L 433 495 L 431 497 L 430 496 L 428 496 L 427 497 L 426 496 L 424 496 L 424 499 L 426 499 L 427 498 L 429 500 L 429 501 L 427 503 L 426 502 L 425 502 L 423 504 L 422 503 L 420 503 L 419 504 L 418 503 L 416 503 L 415 504 L 414 503 L 414 502 L 413 503 L 412 503 L 411 504 L 410 503 L 410 502 L 409 503 L 408 503 L 408 505 L 410 505 L 411 504 L 412 505 L 412 509 L 414 509 L 415 508 L 416 509 L 418 509 L 419 508 L 420 509 L 422 509 L 423 508 L 425 510 L 426 510 L 427 509 L 429 511 L 429 512 L 428 513 L 428 514 L 427 515 L 426 514 L 426 513 L 425 513 L 424 514 L 424 515 L 423 516 L 422 515 L 422 514 L 421 513 L 420 514 L 420 520 L 421 521 L 422 521 L 422 517 L 423 516 L 424 517 L 424 520 L 425 521 L 426 521 L 426 517 L 427 516 L 428 517 L 428 520 L 429 521 L 430 521 L 430 518 L 431 517 L 432 518 L 432 520 L 434 522 L 434 524 L 433 525 L 432 525 L 432 526 L 434 528 L 434 530 L 433 531 L 433 532 L 431 534 L 430 533 L 429 533 L 427 535 L 426 534 L 425 534 L 424 535 L 419 535 L 418 534 L 408 534 L 407 535 L 406 534 L 404 534 L 403 535 L 402 534 L 400 534 L 399 535 L 398 534 L 395 534 L 394 533 L 394 532 L 392 532 L 391 533 L 390 532 L 388 532 L 387 533 L 386 532 L 384 532 L 383 533 L 382 532 L 380 532 L 379 533 L 378 532 L 376 532 L 375 533 L 374 532 L 372 532 L 371 533 L 370 532 L 368 532 L 367 533 L 366 532 L 364 532 L 363 533 L 362 532 L 360 532 L 359 533 L 358 532 L 356 532 L 355 533 L 354 532 L 354 531 L 353 531 L 352 532 L 352 533 L 351 534 L 350 533 L 350 534 L 351 534 L 352 535 L 351 536 L 351 537 L 352 538 L 352 539 L 355 539 L 357 541 L 355 543 L 353 543 L 351 545 L 350 544 L 349 545 L 350 546 L 351 546 L 352 547 L 352 550 L 353 551 L 353 552 L 354 552 L 354 550 L 355 549 L 356 550 L 356 551 L 357 552 L 358 552 L 358 550 L 359 549 L 360 550 L 362 550 L 363 549 L 364 550 L 366 550 L 367 549 L 369 551 L 369 553 L 368 554 L 356 554 L 356 558 L 357 559 L 358 558 L 358 556 L 359 555 L 360 556 L 360 558 L 361 559 L 362 559 L 362 556 L 363 555 L 364 556 L 364 559 L 366 559 L 367 558 L 369 560 L 370 560 L 370 559 L 371 558 L 373 560 L 374 560 L 374 559 L 375 558 L 377 560 L 379 558 L 381 560 L 383 558 L 385 560 L 386 560 L 387 559 L 388 559 L 389 560 L 390 560 L 391 559 L 392 560 L 394 560 L 395 559 L 396 560 L 400 560 L 401 561 L 402 561 L 403 560 L 404 561 L 406 561 L 407 562 L 406 563 L 404 563 L 403 564 L 402 563 L 400 563 L 399 564 L 398 563 L 396 563 L 395 564 L 394 563 L 393 563 L 392 564 L 386 564 L 385 563 L 384 564 L 379 564 L 378 563 L 377 563 L 376 564 L 375 564 L 374 563 L 372 563 L 371 564 L 370 563 L 368 563 L 367 564 L 366 563 L 364 563 L 364 564 L 363 565 L 362 564 L 362 563 L 361 563 L 359 565 L 358 564 L 358 563 L 357 563 L 355 565 L 354 564 L 354 563 L 353 563 L 352 564 L 352 566 L 364 566 L 365 567 L 366 566 L 368 566 L 369 567 L 369 568 L 370 568 L 371 567 L 372 568 L 372 569 L 374 569 L 375 568 L 376 569 L 378 569 L 379 568 L 380 569 L 388 569 L 389 570 L 390 569 L 392 569 L 393 570 L 394 570 L 395 569 L 396 570 L 398 570 L 399 569 L 406 569 L 407 568 L 408 569 L 410 569 L 411 568 L 412 569 L 419 569 L 420 570 L 420 571 L 419 572 L 418 571 L 417 571 L 415 573 L 414 572 L 414 571 L 413 571 L 413 572 L 412 573 L 404 573 L 403 574 L 402 573 L 400 573 L 399 574 L 398 573 L 396 573 L 396 574 L 397 575 L 396 576 L 396 577 L 395 578 L 394 577 L 394 576 L 393 575 L 394 574 L 394 573 L 392 573 L 392 574 L 393 575 L 393 576 L 391 578 L 390 577 L 390 576 L 389 575 L 390 574 L 390 573 L 388 573 L 387 574 L 386 573 L 376 573 L 375 574 L 374 573 L 372 573 L 371 574 L 370 573 L 368 573 L 367 574 L 366 573 L 364 573 L 363 574 L 362 573 L 360 573 L 359 574 L 358 573 L 357 573 L 356 574 L 352 574 L 352 576 L 353 577 L 353 579 L 354 578 L 354 577 L 355 576 L 357 578 L 357 579 L 358 579 L 358 577 L 359 576 L 361 578 L 360 579 L 362 579 L 362 577 L 363 576 L 364 577 L 364 579 L 365 580 L 366 579 L 366 577 L 367 576 L 368 577 L 368 579 L 369 580 L 370 580 L 370 577 L 371 576 L 372 577 L 372 579 L 373 580 L 374 580 L 374 578 L 375 577 L 376 578 L 376 579 L 377 580 L 378 580 L 378 578 L 379 577 L 380 578 L 380 579 L 381 580 L 382 580 L 383 579 L 384 580 L 386 580 L 387 579 L 389 581 L 390 581 L 390 580 L 391 579 L 393 581 L 394 581 L 395 580 L 396 581 L 399 581 L 400 582 L 402 582 L 403 581 L 411 581 L 413 583 L 413 584 L 412 585 L 411 585 L 410 584 L 409 584 L 408 585 L 407 585 L 406 584 L 405 584 L 404 585 L 403 585 L 402 584 L 401 584 L 400 585 L 399 585 L 398 584 L 397 584 L 396 585 L 395 585 L 394 584 L 393 584 L 391 586 L 390 585 L 390 584 L 389 584 L 387 586 L 386 585 L 384 585 L 383 586 L 382 585 L 380 585 L 379 586 L 378 585 L 376 585 L 375 586 L 374 585 L 372 585 L 371 586 L 370 585 L 368 585 L 367 586 L 366 585 L 365 585 L 364 586 L 364 590 L 365 591 L 365 593 L 364 594 L 364 596 L 366 596 L 366 592 L 365 591 L 366 590 L 366 589 L 365 588 L 366 587 L 376 587 L 377 588 L 378 587 L 380 587 L 381 588 L 382 587 L 396 587 L 397 588 L 398 587 L 399 587 L 400 588 L 402 588 L 403 587 L 404 588 L 411 588 L 412 589 L 412 591 L 411 592 L 408 592 L 407 593 L 406 592 L 404 592 L 403 593 L 402 592 L 401 592 L 400 593 L 399 593 L 398 592 L 397 592 L 395 594 L 394 593 L 394 592 L 393 592 L 391 594 L 390 593 L 390 592 L 387 595 L 386 594 L 386 593 L 384 595 L 384 596 L 386 598 L 386 599 L 385 600 L 386 599 L 386 597 L 387 596 L 389 598 L 389 600 L 390 600 L 390 597 L 391 596 L 393 598 L 393 599 L 392 600 L 394 600 L 394 597 L 395 596 L 396 597 L 396 598 L 397 599 L 396 600 L 396 603 L 398 603 L 398 598 L 399 597 L 400 598 L 400 600 L 401 601 L 401 603 L 402 602 L 402 599 L 403 598 L 404 599 L 404 601 L 405 602 L 405 603 L 406 602 L 406 600 L 407 599 L 408 600 L 408 601 L 409 602 L 410 602 L 410 601 L 411 600 L 413 602 L 414 602 L 415 601 L 416 602 L 418 602 L 419 601 L 420 602 L 422 602 L 423 601 L 424 602 L 426 602 L 427 601 L 428 602 L 428 603 L 430 603 L 431 604 L 430 605 L 431 604 L 435 608 L 435 612 L 434 613 L 433 613 L 431 615 L 430 614 L 430 613 L 429 614 L 428 614 L 427 615 L 426 614 L 425 614 L 424 615 L 423 615 L 422 614 L 421 614 L 419 616 L 416 616 L 418 616 L 420 618 L 422 618 L 423 617 L 424 618 L 426 618 L 427 617 L 428 618 L 432 618 L 433 619 L 434 619 L 436 621 L 436 622 L 437 623 L 437 631 L 438 632 L 438 642 L 437 643 L 437 644 L 438 645 L 438 648 L 439 648 L 440 649 L 440 650 L 441 650 L 443 648 L 444 649 L 446 649 L 447 648 L 632 648 L 633 649 L 634 649 L 635 648 L 636 648 L 637 649 L 638 649 L 639 648 L 640 648 L 641 649 L 642 649 L 643 648 L 644 648 L 645 649 L 646 648 L 647 648 L 648 647 L 648 644 L 647 643 L 647 640 L 648 639 L 648 635 L 649 634 L 648 633 L 648 630 L 647 629 L 647 625 L 648 624 L 648 622 L 649 621 L 648 620 L 648 616 L 649 615 L 648 614 L 649 613 L 649 610 L 648 609 L 649 608 L 649 606 L 651 604 L 656 604 L 657 605 L 658 604 L 660 604 L 661 605 L 662 604 L 664 604 L 665 605 L 666 604 L 668 604 L 669 605 L 670 604 L 672 604 L 673 605 L 674 604 L 714 604 L 714 533 L 715 532 L 717 532 L 718 531 L 728 531 L 729 532 L 730 531 L 732 531 L 733 532 L 734 531 L 735 531 L 735 522 L 736 521 L 735 520 L 735 514 L 736 513 L 735 512 L 735 510 L 736 509 L 736 508 L 735 507 L 735 506 L 736 505 L 735 504 L 735 497 L 736 496 L 735 495 L 735 489 L 736 488 L 736 487 L 735 486 L 735 485 L 736 484 L 735 483 L 735 468 L 736 467 L 736 466 L 735 465 L 735 464 L 736 463 L 735 462 L 735 459 L 736 458 L 735 457 L 735 452 L 736 451 L 735 450 L 735 446 L 736 445 L 735 444 L 735 439 L 736 438 L 735 437 L 735 435 L 736 434 L 735 433 L 735 431 L 736 430 L 735 429 L 735 425 L 736 424 L 735 423 L 735 420 L 736 419 L 735 418 L 736 417 L 736 416 L 735 415 L 735 414 L 736 413 L 735 412 L 736 411 L 735 410 L 736 409 L 735 408 L 735 407 L 736 406 L 735 405 L 735 399 L 736 398 L 735 397 L 736 396 L 736 395 L 735 394 L 735 391 L 736 390 L 735 389 L 736 388 L 735 387 L 735 386 L 736 385 L 735 384 L 735 383 L 736 382 L 735 381 L 735 380 L 736 379 L 735 378 L 736 377 L 735 376 L 735 375 L 736 374 L 736 373 L 735 372 L 735 370 L 736 369 L 735 368 L 736 367 L 735 366 L 735 365 L 736 364 L 736 361 L 735 360 L 735 359 L 736 358 L 736 356 L 735 355 L 735 354 L 736 353 L 736 352 L 735 351 L 735 350 L 736 349 L 736 348 L 735 347 L 736 346 L 736 345 L 735 344 L 736 343 L 735 342 L 735 341 L 736 340 L 735 339 L 735 338 L 736 337 L 736 325 L 735 324 L 736 323 L 735 322 L 735 320 L 736 319 L 734 317 L 732 317 L 731 318 L 730 317 L 718 317 L 716 315 L 716 249 L 670 249 L 669 248 L 662 248 L 661 249 L 600 249 L 599 248 "></path>
        <path fill="none" stroke="#fa00fa" stroke-width="3" d="M 464 321 L 464 330 L 465 331 L 466 331 L 466 330 L 467 329 L 469 331 L 470 331 L 471 330 L 472 331 L 474 331 L 474 330 L 475 329 L 477 331 L 478 331 L 478 330 L 477 329 L 476 329 L 475 328 L 476 327 L 478 327 L 478 326 L 479 325 L 480 326 L 480 327 L 481 327 L 482 328 L 480 330 L 481 331 L 482 331 L 483 330 L 485 332 L 487 330 L 489 330 L 490 329 L 490 328 L 489 327 L 488 327 L 486 325 L 486 321 L 484 321 L 483 322 L 482 321 L 480 321 L 479 322 L 478 321 L 468 321 L 467 322 L 466 321 "></path>
        <path fill="none" stroke="#fa00fa" stroke-width="3" d="M 377 509 L 375 511 L 374 510 L 372 510 L 371 511 L 370 510 L 368 510 L 367 511 L 366 510 L 364 510 L 363 511 L 362 510 L 360 510 L 359 511 L 358 510 L 356 510 L 355 511 L 354 510 L 352 510 L 351 511 L 350 510 L 349 510 L 348 511 L 348 514 L 349 515 L 348 516 L 350 516 L 350 514 L 351 513 L 352 514 L 352 516 L 354 516 L 354 514 L 355 513 L 356 514 L 356 516 L 358 516 L 358 514 L 359 513 L 360 514 L 360 516 L 362 516 L 362 515 L 363 514 L 364 515 L 364 516 L 366 516 L 366 515 L 367 514 L 368 515 L 368 516 L 370 516 L 370 515 L 371 514 L 372 515 L 372 516 L 374 516 L 374 515 L 375 514 L 376 515 L 376 516 L 378 516 L 378 514 L 379 513 L 380 514 L 382 514 L 382 513 L 383 512 L 384 513 L 384 514 L 386 514 L 386 512 L 385 511 L 383 511 L 381 509 L 379 511 "></path>
        <path fill="none" stroke="#fa00fa" stroke-width="3" d="M 477 343 L 477 344 L 476 345 L 476 346 L 477 347 L 477 348 L 479 346 L 481 348 L 482 348 L 482 347 L 483 346 L 484 347 L 484 348 L 486 348 L 486 347 L 487 346 L 489 346 L 489 343 L 488 343 L 487 344 L 486 343 L 484 343 L 484 344 L 483 345 L 482 344 L 482 343 L 480 343 L 480 345 L 479 346 L 478 345 L 478 343 "></path>
        <path fill="none" stroke="#fa00fa" stroke-width="3" d="M 497 215 L 496 216 L 496 217 L 495 218 L 495 227 L 494 228 L 494 229 L 495 230 L 494 231 L 494 273 L 492 275 L 372 275 L 370 277 L 370 376 L 368 378 L 322 378 L 322 591 L 401 591 L 402 592 L 535 592 L 536 591 L 536 561 L 537 560 L 538 560 L 539 559 L 540 560 L 542 560 L 543 559 L 544 560 L 546 560 L 547 559 L 548 560 L 582 560 L 583 559 L 584 560 L 586 560 L 587 559 L 588 560 L 590 560 L 591 559 L 592 560 L 594 560 L 595 559 L 596 560 L 598 560 L 599 559 L 600 560 L 610 560 L 611 559 L 614 559 L 615 558 L 616 559 L 618 559 L 619 558 L 620 559 L 621 559 L 622 558 L 624 558 L 625 559 L 626 558 L 628 558 L 629 559 L 630 558 L 632 558 L 633 559 L 635 557 L 650 557 L 651 556 L 660 556 L 661 557 L 662 557 L 663 556 L 664 557 L 702 557 L 703 556 L 703 555 L 704 554 L 704 553 L 705 552 L 705 550 L 704 549 L 704 548 L 703 547 L 703 545 L 704 544 L 704 543 L 705 542 L 703 540 L 703 535 L 704 534 L 703 533 L 704 532 L 704 530 L 703 529 L 703 528 L 704 527 L 704 526 L 705 525 L 705 523 L 704 522 L 705 521 L 704 520 L 704 515 L 705 514 L 705 508 L 704 507 L 704 504 L 705 503 L 704 502 L 704 501 L 703 500 L 704 499 L 704 498 L 705 497 L 705 496 L 704 495 L 704 492 L 705 491 L 705 490 L 706 489 L 706 487 L 705 486 L 705 484 L 707 482 L 710 482 L 711 481 L 712 481 L 713 482 L 714 482 L 715 481 L 716 481 L 717 482 L 718 482 L 719 481 L 720 481 L 721 482 L 722 481 L 726 481 L 727 480 L 728 481 L 730 481 L 730 480 L 731 479 L 731 469 L 732 468 L 732 465 L 731 464 L 732 463 L 731 462 L 731 459 L 732 458 L 731 457 L 731 447 L 732 446 L 732 445 L 731 444 L 731 418 L 732 417 L 732 416 L 731 415 L 731 414 L 732 413 L 731 412 L 731 410 L 732 409 L 731 408 L 731 407 L 732 406 L 731 405 L 731 399 L 732 398 L 732 395 L 731 394 L 731 389 L 732 388 L 731 387 L 732 386 L 732 384 L 731 383 L 731 380 L 732 379 L 732 376 L 731 375 L 731 370 L 732 369 L 731 368 L 732 367 L 731 366 L 731 365 L 732 364 L 732 362 L 731 361 L 731 359 L 732 358 L 731 357 L 731 354 L 732 353 L 731 352 L 731 349 L 732 348 L 732 345 L 731 344 L 731 338 L 732 337 L 732 325 L 731 324 L 731 315 L 733 313 L 733 312 L 731 310 L 731 308 L 732 307 L 732 304 L 731 303 L 731 299 L 732 298 L 731 297 L 731 295 L 732 294 L 732 292 L 731 291 L 731 288 L 732 287 L 732 286 L 731 285 L 731 278 L 732 277 L 731 276 L 731 270 L 730 269 L 730 268 L 729 268 L 728 269 L 727 269 L 726 268 L 724 268 L 723 269 L 722 268 L 720 268 L 719 269 L 718 268 L 716 268 L 715 269 L 714 268 L 711 268 L 709 266 L 709 265 L 708 264 L 708 245 L 709 244 L 708 243 L 709 242 L 709 241 L 708 240 L 708 224 L 709 223 L 708 222 L 709 221 L 709 220 L 708 219 L 708 217 L 707 216 L 551 216 L 550 215 L 549 215 L 548 216 L 547 216 L 546 215 L 545 215 L 544 216 L 543 216 L 542 215 L 541 215 L 540 216 L 539 216 L 538 215 L 537 215 L 536 216 L 535 216 L 534 215 L 533 215 L 532 216 L 531 216 L 530 215 L 529 215 L 528 216 L 527 216 L 526 215 L 525 215 L 524 216 L 523 216 L 522 215 L 521 215 L 520 216 L 519 216 L 518 215 L 517 215 L 516 216 L 515 216 L 514 215 L 513 215 L 512 216 L 511 216 L 510 215 L 509 215 L 508 216 L 507 216 L 506 215 L 505 215 L 504 216 L 503 216 L 502 215 L 500 215 L 499 216 L 498 215 "></path>
    </g>
</svg>
