<svg xmlns="http://www.w3.org/2000/svg" xmlns:xlink="http://www.w3.org/1999/xlink" version="1.1" x="0" y="0" width="1056px" height="816px">
    <g id="rootLayer" transform="translate(0.000000, 0.000000)">
        <path fill="none" stroke="#00fafa" stroke-width="3" d="M 463 118 L 468 118 L 469 119 L 470 119 L 471 120 L 472 120 L 473 121 L 474 121 L 475 122 L 476 122 L 477 123 L 478 123 L 480 125 L 481 125 L 482 126 L 483 126 L 484 127 L 485 127 L 488 130 L 488 137 L 484 141 L 482 141 L 481 140 L 479 140 L 478 139 L 477 139 L 476 138 L 475 138 L 474 137 L 473 137 L 472 136 L 471 136 L 461 126 L 461 125 L 460 124 L 460 121 "></path>
        <path fill="none" stroke="#00fafa" stroke-width="3" d="M 691 183 L 696 183 L 698 185 L 698 186 L 699 187 L 699 195 L 700 196 L 700 197 L 702 199 L 702 200 L 704 202 L 704 208 L 701 211 L 696 211 L 687 202 L 687 201 L 685 199 L 685 190 L 686 189 L 686 188 "></path>
        <path fill="none" stroke="#00fafa" stroke-width="3" d="M 671 702 L 672 701 L 674 701 L 677 704 L 678 704 L 684 710 L 684 711 L 685 712 L 685 719 L 684 720 L 684 721 L 683 722 L 683 723 L 680 726 L 679 726 L 678 727 L 676 727 L 675 726 L 673 726 L 670 723 L 669 723 L 665 719 L 665 716 L 670 711 L 670 710 L 671 709 "></path>
    </g>
</svg>
