<svg xmlns="http://www.w3.org/2000/svg" xmlns:xlink="http://www.w3.org/1999/xlink" version="1.1" x="0" y="0" width="1056px" height="816px">
    <g id="rootLayer" transform="translate(0.000000, 0.000000)">
        <path fill="none" stroke="#00fafa" stroke-width="3" d="M 409 394 L 410 393 L 412 395 L 412 398 L 411 399 L 409 397 L 410 396 L 409 395 "></path>
        <path fill="none" stroke="#00fafa" stroke-width="3" d="M 472 384 L 473 383 L 475 383 L 476 384 L 477 383 L 478 384 L 478 385 L 479 384 L 481 384 L 482 385 L 482 386 L 484 388 L 483 389 L 482 389 L 483 390 L 481 392 L 480 392 L 480 394 L 481 395 L 480 396 L 481 397 L 481 398 L 482 399 L 481 400 L 482 400 L 483 401 L 483 402 L 482 403 L 481 402 L 482 403 L 481 404 L 481 405 L 480 406 L 479 406 L 479 407 L 478 408 L 477 407 L 476 407 L 475 406 L 474 406 L 473 405 L 473 404 L 471 404 L 470 403 L 470 404 L 469 405 L 468 404 L 463 409 L 462 409 L 463 409 L 464 410 L 464 411 L 465 412 L 466 411 L 468 413 L 467 414 L 468 415 L 470 415 L 471 416 L 471 417 L 471 416 L 472 415 L 473 415 L 474 414 L 476 414 L 477 415 L 477 414 L 478 413 L 480 415 L 480 416 L 481 415 L 482 416 L 483 415 L 484 415 L 485 416 L 483 418 L 483 420 L 482 421 L 481 421 L 479 423 L 480 424 L 480 425 L 479 426 L 480 427 L 481 426 L 482 427 L 482 429 L 483 430 L 485 430 L 486 431 L 486 432 L 485 433 L 484 432 L 483 432 L 484 433 L 484 434 L 482 436 L 482 437 L 481 438 L 480 438 L 479 439 L 479 442 L 480 443 L 479 444 L 480 444 L 481 445 L 480 446 L 480 447 L 481 446 L 482 447 L 484 447 L 485 448 L 484 449 L 484 451 L 483 452 L 482 451 L 481 452 L 480 452 L 481 452 L 482 453 L 481 454 L 480 454 L 481 455 L 479 457 L 479 458 L 480 458 L 481 459 L 483 459 L 484 460 L 486 460 L 487 461 L 486 460 L 487 459 L 487 458 L 488 457 L 490 459 L 490 457 L 491 456 L 492 456 L 493 455 L 494 456 L 495 456 L 496 457 L 496 458 L 499 461 L 500 461 L 502 459 L 503 460 L 504 459 L 504 457 L 505 456 L 506 456 L 507 455 L 508 455 L 509 454 L 510 454 L 511 455 L 509 457 L 510 457 L 513 460 L 513 463 L 514 464 L 514 465 L 513 466 L 512 465 L 512 466 L 511 467 L 510 467 L 509 468 L 509 470 L 508 471 L 511 474 L 511 476 L 512 477 L 512 478 L 509 481 L 509 482 L 508 483 L 506 481 L 507 480 L 506 481 L 505 480 L 505 479 L 504 478 L 504 477 L 503 476 L 503 475 L 502 474 L 502 473 L 503 472 L 504 473 L 505 473 L 505 471 L 506 470 L 505 469 L 505 468 L 504 467 L 505 466 L 504 466 L 503 465 L 502 466 L 501 465 L 501 464 L 500 464 L 499 465 L 500 466 L 499 467 L 498 467 L 496 465 L 495 466 L 496 467 L 496 468 L 494 470 L 494 472 L 495 473 L 495 474 L 496 474 L 498 476 L 497 477 L 496 477 L 497 478 L 496 479 L 496 480 L 492 484 L 491 483 L 491 482 L 490 483 L 489 482 L 489 481 L 488 480 L 486 482 L 485 481 L 482 481 L 483 482 L 482 483 L 481 483 L 480 484 L 479 484 L 478 483 L 478 482 L 478 483 L 479 484 L 478 485 L 479 486 L 478 487 L 477 487 L 476 486 L 476 483 L 475 483 L 474 482 L 474 481 L 475 480 L 474 480 L 471 477 L 472 476 L 472 475 L 473 474 L 474 475 L 473 474 L 475 472 L 476 473 L 476 472 L 475 471 L 476 470 L 477 470 L 477 469 L 475 467 L 474 467 L 473 466 L 471 466 L 470 465 L 470 464 L 469 463 L 465 467 L 464 467 L 463 468 L 462 467 L 462 466 L 461 465 L 460 465 L 459 466 L 458 465 L 456 465 L 455 464 L 456 463 L 457 463 L 457 462 L 458 461 L 459 461 L 460 460 L 460 458 L 461 457 L 461 452 L 460 452 L 458 450 L 456 450 L 455 451 L 453 451 L 452 450 L 452 451 L 451 452 L 451 454 L 449 456 L 450 457 L 450 459 L 455 464 L 454 465 L 453 465 L 453 466 L 452 467 L 450 467 L 450 472 L 451 471 L 452 472 L 452 473 L 451 474 L 452 475 L 452 476 L 451 477 L 452 478 L 452 479 L 448 483 L 448 487 L 449 488 L 450 488 L 451 489 L 452 489 L 453 490 L 454 490 L 455 491 L 454 492 L 454 493 L 453 494 L 451 492 L 452 493 L 451 494 L 450 494 L 448 492 L 447 493 L 447 494 L 446 495 L 443 495 L 442 494 L 441 494 L 440 493 L 441 492 L 443 492 L 442 491 L 445 488 L 445 487 L 446 486 L 446 483 L 446 486 L 445 487 L 444 486 L 444 484 L 443 483 L 442 483 L 441 482 L 441 480 L 440 479 L 440 478 L 441 477 L 442 478 L 441 477 L 441 475 L 442 474 L 443 475 L 443 476 L 444 475 L 443 474 L 444 473 L 446 473 L 447 474 L 446 473 L 447 472 L 448 472 L 447 472 L 445 470 L 447 468 L 446 468 L 445 467 L 446 466 L 445 465 L 444 465 L 443 464 L 442 464 L 441 463 L 442 462 L 442 461 L 443 460 L 445 460 L 445 459 L 444 458 L 446 456 L 445 455 L 446 454 L 447 454 L 446 454 L 445 453 L 446 452 L 446 451 L 447 450 L 445 448 L 444 448 L 443 447 L 442 447 L 441 446 L 442 445 L 445 445 L 446 444 L 446 443 L 448 441 L 450 443 L 450 444 L 451 445 L 452 445 L 453 446 L 454 445 L 455 446 L 456 445 L 459 445 L 458 444 L 458 443 L 459 442 L 460 442 L 461 441 L 462 441 L 463 442 L 464 441 L 466 441 L 467 442 L 466 443 L 467 443 L 468 444 L 469 444 L 470 445 L 472 445 L 473 444 L 474 444 L 475 443 L 474 442 L 475 441 L 476 441 L 476 439 L 473 436 L 472 437 L 470 437 L 469 436 L 470 435 L 471 435 L 470 435 L 469 434 L 470 433 L 471 433 L 470 433 L 468 435 L 465 435 L 464 434 L 463 434 L 463 435 L 462 436 L 461 435 L 461 431 L 460 430 L 461 429 L 461 428 L 462 427 L 463 427 L 463 426 L 464 425 L 465 426 L 465 427 L 466 428 L 466 429 L 468 429 L 469 430 L 471 430 L 472 431 L 472 430 L 474 428 L 475 428 L 475 427 L 476 426 L 477 426 L 476 425 L 477 424 L 476 425 L 474 423 L 474 422 L 473 421 L 473 419 L 472 420 L 471 419 L 470 420 L 469 420 L 468 421 L 466 421 L 465 422 L 465 424 L 464 425 L 462 425 L 461 424 L 461 422 L 460 422 L 459 421 L 458 421 L 457 420 L 458 419 L 454 419 L 453 420 L 452 419 L 453 420 L 452 421 L 451 421 L 451 422 L 450 423 L 450 424 L 451 425 L 451 426 L 450 427 L 449 427 L 450 428 L 450 430 L 452 432 L 452 433 L 453 434 L 453 435 L 452 436 L 451 436 L 450 437 L 449 436 L 449 437 L 448 438 L 447 437 L 446 438 L 445 437 L 445 436 L 446 435 L 445 435 L 442 432 L 442 431 L 443 430 L 443 428 L 444 427 L 445 427 L 445 426 L 446 425 L 446 423 L 444 421 L 444 420 L 443 420 L 442 419 L 442 418 L 442 419 L 441 420 L 439 418 L 440 419 L 439 420 L 438 420 L 436 422 L 434 422 L 435 423 L 434 424 L 434 426 L 435 427 L 434 428 L 432 428 L 431 429 L 430 429 L 429 428 L 429 426 L 430 425 L 430 421 L 429 422 L 428 421 L 428 422 L 427 423 L 426 422 L 425 423 L 424 423 L 423 424 L 422 423 L 422 424 L 421 425 L 420 424 L 420 423 L 419 424 L 417 424 L 416 423 L 415 423 L 414 422 L 415 421 L 414 420 L 413 420 L 411 418 L 412 419 L 411 420 L 411 421 L 410 422 L 409 421 L 409 420 L 408 419 L 409 420 L 408 421 L 407 421 L 407 422 L 406 423 L 404 423 L 403 424 L 401 422 L 400 423 L 398 421 L 398 420 L 397 420 L 395 418 L 397 416 L 397 415 L 399 413 L 400 414 L 399 413 L 400 412 L 404 412 L 405 413 L 405 414 L 406 415 L 410 415 L 411 416 L 412 415 L 413 415 L 413 414 L 415 412 L 414 413 L 413 412 L 413 411 L 414 410 L 416 410 L 417 411 L 418 410 L 419 410 L 421 412 L 421 415 L 422 416 L 423 416 L 423 415 L 424 414 L 425 415 L 425 416 L 426 415 L 427 416 L 430 413 L 431 413 L 432 412 L 433 413 L 436 413 L 437 414 L 438 414 L 439 413 L 442 416 L 443 415 L 444 415 L 445 416 L 446 416 L 445 415 L 448 412 L 449 412 L 450 413 L 450 414 L 451 415 L 454 415 L 455 416 L 454 417 L 455 417 L 455 416 L 456 415 L 457 416 L 458 415 L 460 415 L 460 414 L 459 413 L 461 411 L 462 412 L 462 411 L 461 411 L 459 409 L 460 408 L 460 407 L 458 407 L 457 406 L 457 405 L 456 404 L 454 404 L 453 405 L 452 405 L 451 406 L 452 407 L 449 410 L 448 410 L 447 409 L 447 408 L 446 409 L 445 408 L 443 408 L 442 407 L 443 406 L 446 406 L 444 406 L 442 404 L 442 403 L 442 404 L 441 405 L 440 404 L 440 403 L 440 405 L 439 406 L 437 404 L 436 405 L 437 405 L 439 407 L 438 408 L 437 408 L 436 407 L 435 407 L 433 405 L 432 405 L 431 406 L 429 404 L 428 405 L 427 405 L 426 404 L 426 402 L 425 401 L 426 400 L 425 399 L 427 397 L 428 398 L 429 397 L 432 397 L 433 396 L 434 396 L 435 397 L 434 398 L 435 398 L 436 399 L 436 400 L 439 400 L 440 401 L 441 401 L 442 400 L 443 400 L 444 399 L 450 399 L 451 400 L 452 399 L 453 400 L 454 399 L 455 400 L 456 399 L 457 399 L 458 400 L 457 401 L 458 400 L 458 399 L 459 398 L 459 396 L 460 395 L 460 394 L 461 393 L 462 394 L 462 395 L 463 395 L 464 396 L 464 397 L 465 398 L 466 398 L 467 399 L 468 398 L 470 400 L 471 400 L 471 399 L 472 398 L 473 399 L 474 398 L 474 394 L 475 393 L 476 393 L 476 392 L 475 393 L 474 392 L 474 391 L 473 390 L 474 389 L 474 388 L 474 389 L 473 390 L 471 388 L 472 387 L 472 386 L 473 385 "></path>
        <path fill="none" stroke="#00fafa" stroke-width="3" d="M 507 385 L 508 384 L 509 385 L 510 384 L 512 386 L 512 388 L 513 389 L 513 390 L 512 391 L 512 392 L 511 393 L 510 392 L 511 393 L 510 394 L 511 395 L 511 397 L 512 397 L 513 398 L 512 399 L 512 400 L 514 400 L 515 401 L 514 402 L 515 401 L 516 402 L 516 403 L 516 402 L 517 401 L 517 400 L 518 399 L 521 399 L 521 398 L 522 397 L 523 398 L 524 398 L 525 399 L 526 399 L 527 400 L 527 401 L 528 400 L 529 401 L 532 401 L 534 399 L 534 398 L 535 397 L 536 397 L 537 396 L 540 399 L 540 400 L 541 401 L 541 402 L 540 403 L 541 404 L 540 405 L 540 408 L 539 409 L 538 408 L 540 410 L 539 411 L 539 412 L 541 414 L 541 415 L 542 414 L 543 415 L 547 415 L 548 414 L 549 415 L 551 413 L 553 413 L 554 414 L 554 415 L 555 415 L 556 416 L 556 418 L 555 419 L 553 419 L 554 419 L 555 420 L 553 422 L 554 423 L 553 424 L 552 424 L 551 425 L 550 424 L 550 423 L 549 422 L 549 421 L 546 421 L 544 419 L 544 418 L 542 420 L 541 419 L 540 420 L 539 419 L 537 419 L 536 420 L 535 420 L 534 421 L 533 420 L 533 414 L 534 413 L 535 414 L 534 413 L 535 412 L 535 409 L 534 409 L 533 408 L 532 408 L 531 407 L 533 405 L 534 406 L 533 405 L 532 405 L 531 404 L 530 404 L 529 403 L 528 403 L 529 404 L 528 405 L 526 405 L 527 406 L 526 407 L 526 408 L 525 409 L 525 410 L 524 411 L 524 412 L 526 414 L 527 414 L 528 415 L 527 416 L 528 416 L 529 417 L 529 418 L 528 419 L 528 420 L 527 421 L 526 420 L 525 420 L 525 422 L 524 423 L 525 424 L 524 425 L 525 426 L 524 427 L 525 427 L 527 429 L 529 429 L 530 428 L 531 429 L 533 429 L 534 428 L 535 428 L 537 426 L 538 427 L 538 428 L 539 428 L 540 429 L 541 428 L 542 429 L 542 430 L 543 430 L 545 432 L 546 432 L 547 431 L 548 432 L 548 433 L 549 432 L 550 432 L 549 431 L 550 430 L 549 429 L 550 428 L 550 427 L 551 426 L 552 426 L 551 425 L 552 424 L 553 424 L 554 425 L 554 427 L 555 428 L 556 427 L 557 428 L 557 430 L 557 429 L 558 428 L 559 429 L 559 431 L 558 432 L 558 433 L 559 434 L 559 435 L 558 436 L 557 436 L 556 435 L 555 435 L 554 436 L 555 437 L 554 438 L 553 438 L 552 439 L 551 438 L 551 437 L 552 436 L 551 437 L 550 436 L 549 436 L 548 435 L 547 436 L 546 435 L 546 434 L 544 434 L 544 435 L 543 436 L 542 435 L 541 435 L 541 436 L 539 438 L 538 438 L 537 439 L 536 439 L 535 438 L 536 437 L 535 436 L 534 437 L 533 436 L 533 435 L 532 434 L 531 435 L 530 435 L 529 436 L 528 435 L 526 437 L 525 437 L 526 438 L 524 440 L 523 440 L 522 439 L 522 440 L 521 441 L 519 439 L 520 438 L 520 436 L 519 436 L 518 437 L 517 436 L 516 436 L 515 435 L 514 435 L 513 434 L 513 435 L 512 436 L 511 435 L 512 436 L 511 437 L 511 438 L 510 439 L 509 439 L 508 440 L 507 439 L 507 437 L 508 436 L 509 436 L 508 436 L 507 437 L 506 436 L 505 437 L 504 436 L 504 434 L 502 432 L 502 431 L 503 430 L 504 430 L 504 429 L 505 428 L 505 427 L 506 426 L 507 427 L 508 427 L 509 428 L 510 427 L 511 428 L 511 431 L 512 432 L 513 431 L 514 431 L 516 433 L 517 433 L 517 432 L 518 431 L 519 431 L 520 432 L 521 431 L 520 430 L 521 429 L 520 428 L 520 427 L 521 426 L 521 425 L 522 424 L 521 424 L 520 423 L 520 421 L 517 421 L 516 420 L 517 419 L 517 418 L 516 417 L 518 415 L 520 415 L 521 414 L 520 413 L 520 412 L 521 411 L 522 411 L 521 410 L 521 408 L 522 407 L 521 408 L 520 407 L 519 408 L 517 406 L 517 405 L 514 405 L 513 406 L 512 406 L 511 407 L 512 407 L 513 408 L 513 409 L 512 410 L 511 409 L 510 409 L 509 410 L 510 411 L 510 412 L 511 413 L 510 414 L 510 415 L 512 415 L 513 416 L 512 417 L 511 417 L 511 419 L 510 420 L 509 419 L 507 421 L 504 421 L 503 420 L 502 421 L 501 421 L 499 419 L 500 418 L 499 417 L 499 416 L 500 415 L 501 416 L 500 415 L 501 414 L 502 414 L 504 412 L 505 413 L 506 412 L 505 413 L 504 412 L 504 410 L 505 409 L 506 410 L 506 407 L 505 407 L 503 405 L 500 405 L 499 404 L 500 403 L 501 403 L 503 401 L 503 398 L 504 397 L 504 396 L 503 395 L 504 394 L 505 394 L 506 393 L 505 394 L 502 391 L 502 390 L 503 389 L 502 388 L 504 386 L 505 387 L 506 387 L 507 386 "></path>
        <path fill="none" stroke="#00fafa" stroke-width="3" d="M 520 484 L 521 483 L 522 483 L 524 485 L 524 486 L 526 488 L 526 490 L 527 489 L 530 492 L 530 493 L 530 492 L 532 490 L 532 489 L 533 488 L 534 489 L 534 488 L 535 487 L 534 486 L 535 485 L 536 485 L 537 486 L 537 487 L 539 487 L 540 488 L 539 489 L 541 489 L 542 490 L 542 491 L 543 492 L 542 493 L 542 494 L 541 495 L 541 497 L 540 498 L 539 497 L 539 496 L 538 496 L 538 498 L 539 499 L 538 500 L 537 500 L 534 497 L 535 496 L 534 496 L 533 495 L 532 496 L 531 496 L 530 495 L 527 495 L 527 498 L 526 499 L 525 498 L 525 499 L 526 500 L 525 501 L 526 502 L 525 503 L 525 504 L 526 504 L 528 506 L 527 507 L 528 507 L 529 508 L 529 509 L 527 511 L 526 510 L 525 511 L 525 512 L 522 515 L 521 515 L 520 514 L 520 512 L 518 512 L 516 510 L 515 511 L 514 510 L 513 511 L 512 511 L 511 510 L 510 510 L 507 513 L 505 511 L 502 511 L 500 509 L 499 510 L 498 509 L 498 510 L 497 511 L 496 510 L 495 511 L 494 511 L 496 513 L 495 514 L 494 514 L 493 515 L 492 514 L 491 514 L 489 512 L 490 511 L 489 510 L 487 512 L 486 511 L 483 511 L 482 512 L 480 512 L 480 513 L 477 516 L 475 514 L 475 513 L 473 511 L 473 510 L 471 510 L 470 509 L 471 508 L 473 508 L 473 506 L 474 505 L 475 506 L 475 505 L 474 504 L 475 503 L 476 503 L 477 504 L 479 502 L 480 502 L 482 504 L 484 504 L 485 505 L 484 506 L 483 506 L 484 507 L 484 506 L 485 505 L 486 506 L 487 505 L 488 505 L 487 504 L 489 502 L 490 502 L 492 500 L 494 500 L 495 501 L 495 502 L 496 503 L 496 504 L 497 505 L 497 506 L 498 507 L 501 507 L 503 505 L 505 505 L 505 503 L 507 501 L 508 502 L 509 501 L 511 501 L 512 502 L 511 503 L 512 503 L 513 504 L 513 505 L 514 504 L 515 504 L 516 505 L 517 505 L 518 504 L 519 504 L 519 502 L 520 501 L 520 500 L 522 498 L 522 497 L 520 497 L 519 496 L 520 495 L 519 495 L 518 494 L 519 493 L 519 491 L 520 490 L 520 487 L 521 486 L 521 485 "></path>
        <path fill="none" stroke="#00fafa" stroke-width="3" d="M 552 439 L 553 438 L 554 439 L 554 441 L 555 441 L 556 442 L 555 443 L 557 443 L 558 444 L 558 445 L 559 445 L 560 446 L 558 448 L 558 451 L 557 452 L 556 452 L 555 453 L 555 454 L 554 455 L 551 455 L 549 453 L 550 452 L 551 452 L 548 449 L 547 450 L 545 450 L 544 449 L 543 449 L 543 452 L 541 454 L 542 454 L 543 455 L 542 456 L 542 457 L 541 458 L 540 457 L 540 456 L 540 459 L 541 460 L 541 461 L 542 462 L 542 463 L 543 464 L 540 467 L 539 467 L 539 468 L 538 469 L 537 469 L 536 468 L 536 467 L 534 465 L 533 465 L 531 463 L 530 464 L 529 464 L 528 465 L 527 465 L 526 466 L 525 465 L 525 466 L 524 467 L 523 466 L 521 466 L 520 465 L 521 464 L 522 464 L 521 463 L 520 463 L 519 462 L 519 461 L 520 460 L 519 461 L 518 461 L 517 460 L 518 459 L 518 457 L 519 456 L 520 456 L 520 454 L 519 455 L 518 455 L 517 454 L 519 452 L 520 452 L 519 452 L 518 453 L 517 452 L 517 451 L 516 451 L 515 450 L 515 447 L 516 446 L 517 446 L 518 447 L 519 446 L 519 445 L 520 444 L 521 444 L 520 443 L 522 441 L 525 441 L 526 442 L 525 443 L 525 444 L 526 445 L 528 445 L 529 446 L 531 446 L 532 445 L 533 445 L 532 444 L 534 442 L 535 443 L 535 444 L 535 443 L 536 442 L 537 443 L 539 441 L 540 442 L 540 444 L 541 445 L 541 446 L 542 445 L 543 446 L 544 446 L 544 445 L 545 444 L 546 445 L 547 445 L 548 446 L 548 445 L 549 444 L 550 445 L 550 444 L 549 443 L 550 442 L 551 442 L 551 441 L 552 440 "></path>
        <path fill="none" stroke="#00fafa" stroke-width="3" d="M 433 438 L 434 437 L 435 438 L 435 439 L 434 440 L 434 441 L 435 442 L 436 442 L 437 443 L 436 444 L 437 445 L 436 446 L 436 447 L 435 448 L 434 448 L 433 449 L 432 448 L 431 449 L 430 448 L 431 449 L 430 450 L 428 450 L 427 449 L 428 448 L 425 451 L 424 450 L 423 450 L 422 449 L 421 450 L 421 451 L 420 452 L 420 454 L 419 455 L 420 455 L 422 457 L 422 458 L 423 458 L 424 459 L 423 460 L 424 461 L 424 462 L 425 461 L 426 462 L 427 461 L 427 460 L 428 459 L 429 459 L 430 458 L 431 458 L 432 457 L 434 457 L 436 459 L 436 458 L 437 457 L 438 458 L 438 461 L 437 462 L 438 463 L 438 464 L 437 465 L 436 465 L 436 466 L 435 467 L 434 467 L 435 468 L 435 469 L 434 470 L 434 471 L 435 471 L 436 472 L 436 474 L 437 475 L 439 475 L 440 476 L 439 477 L 439 478 L 438 479 L 438 480 L 437 481 L 437 483 L 436 484 L 435 483 L 434 484 L 431 484 L 430 483 L 429 483 L 428 482 L 428 480 L 427 479 L 427 475 L 428 474 L 430 474 L 429 473 L 432 470 L 432 469 L 431 469 L 430 468 L 429 469 L 427 467 L 428 466 L 427 466 L 425 464 L 424 465 L 423 465 L 422 464 L 420 466 L 419 466 L 419 467 L 418 468 L 417 467 L 416 467 L 411 462 L 412 461 L 411 462 L 410 461 L 410 460 L 412 458 L 413 459 L 412 458 L 412 457 L 414 455 L 415 456 L 415 455 L 414 454 L 414 453 L 413 452 L 413 451 L 410 448 L 410 447 L 411 446 L 412 447 L 411 446 L 412 445 L 413 445 L 413 444 L 414 443 L 415 443 L 415 442 L 416 441 L 415 440 L 416 439 L 418 439 L 419 440 L 419 441 L 419 439 L 420 438 L 421 438 L 422 439 L 421 440 L 421 443 L 422 444 L 424 444 L 425 445 L 426 445 L 427 446 L 427 445 L 428 444 L 428 443 L 429 442 L 430 443 L 430 441 L 431 440 L 432 440 L 431 439 L 432 438 "></path>
        <path fill="none" stroke="#00fafa" stroke-width="3" d="M 627 443 L 628 442 L 630 444 L 631 444 L 632 445 L 632 447 L 631 448 L 632 447 L 633 448 L 633 449 L 632 450 L 631 450 L 631 451 L 632 452 L 631 453 L 630 453 L 631 454 L 630 455 L 631 456 L 630 457 L 631 456 L 632 457 L 632 459 L 634 461 L 633 462 L 634 463 L 628 469 L 627 469 L 624 466 L 623 466 L 622 465 L 621 466 L 620 465 L 620 463 L 620 466 L 619 467 L 617 465 L 617 466 L 616 467 L 615 467 L 615 471 L 616 472 L 616 473 L 617 474 L 616 475 L 617 475 L 618 474 L 619 474 L 620 475 L 620 476 L 619 477 L 619 480 L 617 482 L 616 481 L 617 482 L 616 483 L 616 484 L 617 485 L 615 487 L 613 485 L 613 484 L 611 484 L 610 483 L 611 482 L 611 480 L 609 478 L 610 477 L 611 477 L 611 476 L 610 476 L 608 474 L 610 472 L 609 471 L 609 470 L 610 469 L 610 468 L 608 466 L 609 465 L 608 466 L 606 464 L 607 463 L 607 462 L 610 459 L 610 458 L 611 457 L 610 456 L 611 455 L 615 455 L 616 456 L 615 457 L 616 457 L 617 458 L 618 458 L 620 460 L 621 459 L 622 460 L 622 459 L 623 458 L 624 458 L 625 457 L 626 457 L 627 458 L 628 457 L 628 456 L 628 457 L 627 458 L 626 457 L 626 453 L 625 453 L 623 451 L 624 450 L 623 450 L 622 449 L 622 448 L 623 447 L 623 446 L 626 443 "></path>
        <path fill="none" stroke="#00fafa" stroke-width="3" d="M 595 411 L 596 410 L 597 411 L 597 413 L 598 414 L 602 414 L 603 415 L 604 414 L 606 414 L 607 413 L 608 414 L 609 414 L 610 413 L 612 413 L 615 416 L 616 416 L 617 417 L 616 418 L 616 423 L 615 424 L 613 422 L 613 423 L 615 425 L 615 426 L 614 427 L 613 426 L 612 426 L 610 424 L 610 423 L 611 422 L 610 422 L 608 420 L 607 420 L 606 421 L 604 419 L 603 419 L 601 421 L 601 423 L 600 424 L 601 425 L 600 426 L 601 427 L 601 428 L 602 429 L 601 430 L 603 432 L 601 434 L 601 435 L 599 437 L 597 437 L 597 438 L 598 437 L 599 438 L 599 439 L 600 439 L 601 440 L 599 442 L 600 443 L 601 443 L 602 444 L 602 445 L 603 446 L 604 446 L 606 448 L 602 452 L 601 451 L 600 451 L 601 452 L 600 453 L 598 453 L 597 452 L 596 452 L 595 451 L 593 451 L 592 450 L 590 450 L 589 449 L 589 448 L 591 446 L 592 446 L 593 445 L 594 446 L 593 445 L 596 442 L 595 442 L 594 441 L 595 440 L 596 440 L 594 438 L 595 437 L 594 437 L 592 435 L 592 434 L 591 435 L 590 435 L 589 434 L 590 433 L 590 430 L 593 427 L 594 427 L 594 425 L 596 423 L 594 421 L 594 420 L 592 420 L 591 419 L 591 416 L 592 415 L 592 414 L 593 413 L 595 413 "></path>
        <path fill="none" stroke="#00fafa" stroke-width="3" d="M 550 456 L 551 455 L 552 455 L 553 456 L 552 457 L 554 457 L 555 458 L 554 459 L 555 460 L 558 460 L 559 461 L 560 460 L 561 460 L 562 459 L 564 459 L 565 458 L 565 456 L 566 455 L 567 456 L 568 455 L 570 457 L 570 458 L 571 457 L 572 457 L 573 458 L 572 459 L 573 459 L 574 458 L 575 459 L 575 460 L 576 461 L 576 462 L 577 463 L 575 465 L 573 465 L 573 466 L 572 467 L 571 467 L 573 469 L 572 470 L 571 470 L 570 469 L 569 470 L 570 469 L 571 470 L 571 471 L 570 472 L 569 472 L 568 473 L 566 473 L 565 472 L 566 471 L 567 471 L 566 471 L 565 470 L 566 469 L 565 468 L 565 467 L 564 467 L 563 466 L 562 467 L 561 466 L 561 465 L 562 464 L 559 464 L 559 465 L 558 466 L 557 465 L 555 467 L 555 468 L 554 469 L 553 469 L 555 471 L 554 472 L 555 472 L 556 473 L 556 476 L 558 478 L 558 479 L 557 480 L 556 479 L 552 483 L 551 482 L 551 481 L 550 481 L 549 482 L 548 481 L 548 479 L 548 480 L 547 481 L 546 480 L 546 479 L 545 478 L 549 474 L 550 474 L 549 473 L 549 472 L 550 471 L 550 469 L 549 468 L 549 467 L 548 467 L 546 465 L 546 464 L 545 463 L 546 462 L 546 461 L 549 458 L 550 458 "></path>
        <path fill="none" stroke="#00fafa" stroke-width="3" d="M 642 352 L 643 351 L 644 352 L 644 354 L 646 354 L 647 355 L 646 356 L 647 356 L 648 357 L 648 358 L 649 359 L 647 361 L 646 360 L 645 361 L 646 362 L 646 365 L 645 366 L 646 367 L 646 368 L 645 369 L 645 370 L 646 370 L 647 371 L 646 372 L 649 372 L 650 373 L 650 374 L 650 373 L 651 372 L 652 373 L 651 372 L 653 370 L 654 370 L 654 369 L 655 368 L 655 367 L 656 366 L 655 365 L 655 364 L 656 363 L 655 362 L 655 360 L 654 360 L 652 358 L 654 356 L 653 355 L 654 354 L 655 354 L 656 355 L 658 355 L 660 357 L 660 358 L 662 360 L 661 361 L 660 361 L 660 362 L 659 363 L 659 365 L 658 366 L 659 365 L 660 366 L 660 367 L 662 369 L 661 370 L 662 371 L 661 372 L 661 373 L 660 374 L 661 375 L 660 376 L 659 376 L 660 377 L 658 379 L 657 378 L 657 377 L 656 378 L 655 378 L 654 377 L 654 376 L 653 375 L 652 375 L 651 376 L 649 376 L 648 375 L 648 374 L 648 375 L 647 376 L 646 376 L 644 378 L 643 378 L 644 379 L 643 380 L 642 380 L 641 379 L 641 378 L 640 377 L 639 377 L 636 374 L 637 373 L 636 372 L 636 371 L 640 367 L 640 366 L 639 365 L 640 364 L 639 365 L 638 364 L 638 363 L 639 362 L 639 361 L 638 360 L 638 359 L 637 358 L 637 357 L 638 356 L 638 355 L 637 354 L 638 353 L 639 353 L 640 354 L 640 353 L 641 352 L 642 353 "></path>
        <path fill="none" stroke="#00fafa" stroke-width="3" d="M 627 621 L 630 624 L 631 624 L 633 626 L 633 627 L 632 628 L 632 629 L 633 630 L 633 631 L 632 632 L 631 632 L 630 633 L 631 634 L 630 635 L 631 635 L 632 636 L 632 638 L 629 641 L 630 642 L 630 643 L 628 645 L 629 646 L 628 647 L 628 648 L 627 649 L 626 649 L 625 648 L 626 647 L 625 647 L 624 646 L 624 645 L 623 645 L 622 646 L 621 645 L 620 646 L 619 645 L 618 646 L 617 646 L 616 647 L 617 648 L 614 651 L 611 648 L 608 648 L 607 647 L 607 645 L 606 644 L 606 643 L 605 642 L 605 641 L 604 640 L 605 639 L 607 639 L 608 640 L 609 640 L 609 639 L 611 637 L 610 636 L 612 634 L 613 634 L 614 633 L 615 633 L 616 634 L 615 635 L 615 636 L 616 636 L 617 637 L 617 638 L 618 637 L 619 637 L 621 639 L 621 640 L 622 639 L 622 638 L 624 636 L 625 636 L 625 635 L 626 634 L 626 633 L 623 633 L 622 632 L 623 631 L 623 630 L 621 630 L 620 629 L 620 627 L 622 625 L 624 625 L 625 624 L 625 623 "></path>
        <path fill="none" stroke="#00fafa" stroke-width="3" d="M 626 485 L 627 484 L 629 484 L 630 485 L 630 486 L 629 487 L 630 486 L 631 486 L 633 488 L 632 489 L 632 490 L 634 490 L 635 491 L 636 491 L 637 490 L 637 489 L 638 488 L 639 489 L 639 488 L 640 487 L 641 488 L 641 487 L 640 486 L 641 485 L 642 485 L 643 484 L 644 484 L 645 485 L 645 488 L 646 488 L 647 489 L 650 489 L 651 490 L 650 491 L 649 491 L 648 492 L 647 492 L 648 492 L 649 493 L 646 496 L 646 498 L 645 499 L 644 498 L 645 499 L 644 500 L 642 500 L 641 499 L 640 499 L 638 497 L 640 495 L 641 496 L 641 497 L 641 496 L 640 495 L 639 496 L 637 494 L 636 494 L 635 495 L 634 495 L 633 494 L 633 495 L 632 496 L 631 495 L 631 496 L 630 497 L 630 498 L 629 499 L 627 499 L 623 495 L 622 496 L 621 495 L 621 494 L 620 495 L 618 495 L 618 496 L 617 497 L 616 496 L 615 497 L 615 499 L 614 500 L 613 499 L 612 499 L 611 498 L 611 496 L 610 495 L 610 494 L 609 493 L 610 492 L 608 490 L 610 488 L 611 488 L 610 487 L 612 485 L 613 485 L 615 487 L 615 488 L 616 489 L 617 488 L 618 489 L 618 490 L 619 491 L 618 490 L 619 489 L 620 489 L 621 490 L 621 489 L 622 488 L 623 489 L 624 488 L 626 488 L 625 488 L 624 487 L 625 486 L 626 486 "></path>
        <path fill="none" stroke="#00fafa" stroke-width="3" d="M 519 352 L 520 351 L 521 352 L 522 351 L 524 353 L 523 354 L 522 354 L 523 354 L 524 355 L 527 355 L 528 356 L 532 356 L 532 355 L 533 354 L 535 354 L 536 355 L 535 354 L 536 353 L 537 353 L 538 354 L 539 353 L 540 354 L 540 355 L 539 356 L 538 356 L 538 358 L 537 359 L 536 359 L 537 360 L 539 360 L 540 361 L 539 362 L 539 367 L 541 367 L 542 368 L 541 369 L 541 370 L 542 370 L 544 372 L 542 374 L 541 373 L 542 374 L 542 376 L 541 377 L 539 377 L 537 379 L 536 378 L 536 377 L 535 377 L 531 373 L 530 374 L 529 373 L 529 372 L 530 371 L 533 371 L 532 370 L 533 369 L 535 369 L 535 367 L 534 366 L 534 365 L 535 364 L 535 361 L 534 361 L 533 360 L 532 360 L 531 361 L 530 361 L 529 360 L 530 361 L 529 362 L 528 362 L 527 361 L 523 361 L 523 362 L 522 363 L 521 363 L 520 364 L 519 363 L 519 362 L 520 361 L 519 360 L 520 359 L 520 357 L 521 356 L 520 357 L 519 356 "></path>
        <path fill="none" stroke="#00fafa" stroke-width="3" d="M 551 353 L 552 352 L 554 352 L 555 353 L 556 353 L 557 354 L 558 354 L 559 355 L 559 356 L 559 355 L 560 354 L 563 354 L 564 355 L 565 355 L 564 354 L 565 353 L 566 353 L 567 354 L 568 354 L 569 355 L 569 356 L 570 355 L 573 358 L 573 360 L 572 361 L 571 361 L 569 363 L 568 362 L 566 362 L 565 361 L 565 360 L 563 360 L 562 359 L 563 358 L 562 359 L 561 359 L 560 358 L 561 357 L 560 358 L 559 358 L 557 360 L 556 360 L 556 361 L 554 363 L 555 364 L 554 365 L 554 367 L 554 365 L 555 364 L 556 365 L 556 366 L 557 367 L 556 368 L 556 372 L 555 373 L 555 374 L 554 375 L 552 375 L 552 376 L 553 377 L 552 378 L 551 378 L 547 374 L 547 372 L 548 371 L 549 371 L 548 370 L 549 369 L 550 369 L 552 367 L 552 365 L 551 365 L 550 364 L 551 363 L 552 363 L 552 362 L 554 360 L 551 363 L 550 362 L 550 361 L 548 361 L 546 359 L 547 358 L 547 356 L 550 353 "></path>
        <path fill="none" stroke="#00fafa" stroke-width="3" d="M 490 426 L 491 425 L 493 427 L 494 427 L 496 429 L 497 429 L 498 430 L 498 431 L 499 431 L 502 434 L 501 435 L 500 435 L 499 434 L 499 435 L 497 437 L 496 436 L 497 437 L 496 438 L 495 438 L 496 439 L 495 440 L 494 440 L 494 441 L 495 442 L 494 443 L 495 443 L 496 444 L 495 445 L 496 444 L 497 445 L 497 446 L 499 444 L 500 445 L 499 444 L 500 443 L 501 443 L 502 444 L 502 445 L 503 446 L 503 447 L 501 449 L 499 447 L 499 448 L 498 449 L 497 448 L 496 449 L 495 449 L 495 452 L 494 453 L 492 451 L 493 450 L 492 451 L 491 450 L 486 450 L 485 451 L 484 450 L 484 449 L 485 448 L 484 447 L 485 446 L 486 446 L 486 445 L 488 443 L 489 443 L 488 442 L 489 441 L 489 440 L 488 439 L 490 437 L 489 436 L 489 434 L 488 435 L 487 435 L 486 434 L 487 433 L 486 432 L 487 431 L 487 429 L 488 428 L 488 427 L 489 426 "></path>
        <path fill="none" stroke="#00fafa" stroke-width="3" d="M 507 483 L 509 485 L 509 486 L 511 488 L 512 488 L 513 489 L 514 489 L 516 491 L 516 492 L 515 493 L 514 493 L 514 494 L 512 496 L 511 495 L 512 496 L 512 497 L 510 499 L 509 498 L 509 497 L 509 498 L 510 499 L 509 500 L 509 501 L 508 502 L 507 501 L 507 498 L 506 498 L 505 497 L 504 497 L 503 496 L 503 494 L 497 494 L 496 495 L 495 495 L 494 496 L 494 499 L 493 500 L 492 500 L 491 499 L 492 498 L 492 497 L 491 498 L 490 498 L 489 497 L 490 496 L 490 495 L 489 495 L 488 496 L 487 495 L 487 494 L 484 491 L 485 490 L 486 490 L 487 491 L 488 491 L 489 490 L 489 487 L 490 486 L 492 486 L 493 485 L 494 486 L 494 487 L 495 487 L 496 488 L 497 488 L 499 490 L 498 491 L 499 492 L 500 491 L 500 490 L 501 489 L 502 490 L 503 489 L 505 489 L 506 488 L 505 487 L 506 486 L 507 486 L 506 486 L 505 485 "></path>
        <path fill="none" stroke="#00fafa" stroke-width="3" d="M 521 471 L 522 470 L 525 470 L 526 471 L 526 473 L 527 473 L 529 475 L 529 476 L 530 475 L 531 475 L 532 474 L 535 474 L 536 473 L 537 473 L 536 472 L 537 471 L 538 471 L 539 472 L 539 473 L 540 473 L 541 474 L 542 474 L 543 475 L 543 476 L 544 477 L 544 478 L 543 479 L 543 481 L 542 482 L 541 481 L 540 481 L 540 482 L 538 484 L 539 485 L 538 486 L 537 486 L 536 485 L 536 484 L 535 483 L 536 482 L 536 480 L 534 480 L 533 479 L 532 480 L 531 479 L 529 479 L 528 478 L 529 479 L 528 480 L 527 480 L 526 481 L 527 480 L 528 481 L 528 482 L 526 484 L 526 486 L 525 487 L 524 486 L 524 485 L 523 484 L 524 483 L 523 484 L 520 481 L 521 482 L 520 483 L 519 483 L 518 482 L 518 481 L 516 479 L 516 476 L 520 472 L 521 472 "></path>
        <path fill="none" stroke="#00fafa" stroke-width="3" d="M 592 622 L 593 621 L 595 621 L 596 622 L 597 621 L 598 621 L 600 623 L 601 622 L 602 623 L 603 623 L 605 625 L 607 623 L 608 624 L 608 623 L 609 622 L 610 622 L 611 623 L 610 624 L 613 621 L 615 623 L 615 624 L 616 625 L 615 626 L 614 626 L 615 627 L 616 626 L 618 628 L 618 629 L 617 630 L 617 631 L 615 633 L 614 633 L 613 634 L 612 634 L 611 633 L 611 632 L 609 632 L 608 631 L 609 630 L 608 631 L 604 631 L 604 634 L 603 635 L 602 634 L 599 637 L 598 636 L 597 636 L 596 635 L 597 634 L 597 633 L 596 634 L 595 633 L 595 632 L 593 632 L 592 631 L 592 629 L 593 628 L 594 629 L 595 629 L 594 628 L 595 627 L 595 624 L 594 623 L 593 623 "></path>
        <path fill="none" stroke="#00fafa" stroke-width="3" d="M 568 427 L 569 427 L 570 428 L 569 429 L 570 428 L 572 430 L 571 431 L 572 430 L 574 432 L 575 432 L 576 433 L 575 434 L 574 434 L 573 435 L 574 436 L 573 437 L 572 437 L 572 439 L 571 440 L 570 439 L 570 441 L 571 442 L 570 443 L 569 443 L 569 444 L 572 444 L 573 445 L 573 446 L 574 447 L 574 448 L 573 449 L 572 449 L 572 450 L 571 451 L 571 452 L 570 453 L 569 453 L 570 454 L 570 455 L 569 456 L 568 455 L 567 455 L 566 454 L 566 451 L 565 450 L 565 449 L 563 449 L 562 448 L 562 446 L 564 444 L 565 444 L 565 443 L 566 442 L 565 441 L 566 440 L 565 441 L 564 440 L 564 439 L 563 439 L 562 438 L 563 437 L 562 436 L 562 435 L 560 433 L 559 434 L 558 433 L 558 432 L 559 431 L 560 431 L 561 430 L 563 430 L 564 429 L 566 429 "></path>
        <path fill="none" stroke="#00fafa" stroke-width="3" d="M 534 336 L 535 335 L 536 335 L 539 338 L 540 338 L 541 339 L 541 340 L 542 340 L 544 342 L 544 343 L 541 346 L 541 348 L 540 349 L 539 348 L 538 348 L 537 349 L 536 348 L 536 347 L 536 348 L 535 349 L 534 348 L 534 346 L 531 346 L 530 345 L 530 344 L 529 345 L 528 345 L 527 346 L 525 346 L 525 347 L 523 349 L 521 349 L 520 348 L 520 347 L 517 347 L 516 346 L 516 345 L 517 344 L 515 342 L 515 341 L 516 340 L 517 341 L 517 337 L 518 336 L 519 337 L 520 336 L 521 337 L 522 336 L 523 337 L 523 338 L 524 338 L 525 339 L 525 340 L 526 341 L 527 340 L 530 340 L 531 341 L 530 342 L 529 342 L 530 342 L 531 341 L 532 341 L 533 340 L 535 340 L 534 339 L 535 338 L 534 337 "></path>
        <path fill="none" stroke="#00fafa" stroke-width="3" d="M 583 428 L 584 427 L 586 429 L 585 430 L 586 429 L 588 431 L 589 431 L 590 432 L 589 433 L 589 434 L 588 435 L 587 434 L 588 435 L 586 437 L 585 437 L 584 438 L 584 440 L 585 441 L 585 442 L 586 443 L 587 442 L 588 443 L 588 444 L 587 445 L 589 447 L 589 448 L 588 449 L 589 450 L 588 451 L 587 451 L 586 450 L 586 451 L 585 452 L 586 453 L 584 455 L 582 455 L 581 454 L 582 453 L 583 453 L 582 453 L 581 452 L 580 452 L 579 451 L 579 450 L 578 451 L 577 451 L 576 450 L 574 450 L 573 449 L 574 448 L 574 446 L 575 445 L 576 446 L 577 446 L 578 445 L 579 445 L 580 444 L 580 442 L 582 440 L 582 439 L 581 440 L 580 440 L 579 439 L 581 437 L 580 436 L 580 435 L 579 434 L 578 434 L 577 433 L 576 433 L 575 432 L 576 431 L 576 430 L 577 429 L 579 429 L 580 428 L 581 429 L 582 428 "></path>
        <path fill="none" stroke="#00fafa" stroke-width="3" d="M 566 395 L 567 395 L 568 396 L 568 397 L 569 396 L 570 396 L 571 397 L 571 398 L 570 399 L 572 399 L 573 400 L 572 401 L 573 400 L 575 402 L 575 403 L 574 404 L 572 404 L 571 405 L 571 409 L 570 410 L 569 409 L 570 410 L 570 411 L 571 412 L 570 413 L 571 413 L 573 415 L 572 416 L 572 417 L 571 418 L 572 419 L 572 421 L 571 422 L 569 422 L 568 423 L 567 423 L 565 421 L 566 420 L 565 420 L 564 419 L 562 419 L 561 418 L 560 418 L 559 417 L 560 416 L 561 416 L 562 415 L 562 414 L 563 413 L 564 414 L 566 412 L 565 411 L 566 410 L 564 408 L 563 408 L 562 407 L 563 406 L 563 400 L 565 398 L 566 398 L 565 398 L 564 397 "></path>
        <path fill="none" stroke="#00fafa" stroke-width="3" d="M 462 487 L 463 486 L 464 487 L 465 487 L 468 490 L 468 491 L 468 490 L 469 489 L 474 489 L 475 488 L 476 488 L 477 487 L 478 487 L 479 488 L 481 488 L 482 489 L 482 490 L 481 491 L 480 490 L 481 491 L 482 490 L 483 490 L 484 491 L 483 492 L 484 493 L 483 494 L 482 494 L 482 495 L 478 499 L 476 497 L 475 498 L 473 496 L 472 497 L 471 496 L 470 496 L 469 495 L 470 494 L 470 493 L 470 494 L 469 495 L 468 494 L 468 493 L 466 493 L 463 496 L 463 498 L 462 499 L 461 498 L 460 499 L 459 499 L 458 498 L 460 496 L 459 497 L 457 495 L 457 494 L 456 495 L 454 495 L 453 494 L 454 493 L 455 493 L 457 491 L 457 490 L 458 489 L 462 489 "></path>
        <path fill="none" stroke="#00fafa" stroke-width="3" d="M 719 319 L 720 320 L 720 321 L 719 322 L 720 323 L 719 324 L 718 324 L 719 324 L 720 325 L 720 326 L 721 326 L 722 327 L 723 326 L 724 327 L 724 326 L 725 325 L 726 326 L 726 327 L 727 327 L 728 326 L 729 326 L 729 325 L 731 323 L 732 323 L 732 322 L 734 320 L 736 322 L 734 324 L 735 324 L 736 325 L 735 326 L 735 327 L 738 327 L 739 328 L 739 329 L 738 330 L 737 330 L 736 329 L 735 330 L 734 330 L 734 331 L 735 332 L 734 333 L 733 333 L 732 334 L 730 332 L 729 333 L 728 332 L 728 330 L 727 329 L 726 330 L 726 331 L 725 332 L 724 332 L 723 331 L 724 330 L 723 331 L 721 331 L 721 332 L 720 333 L 719 333 L 718 334 L 716 334 L 715 333 L 715 332 L 714 331 L 715 330 L 714 330 L 713 329 L 712 330 L 711 329 L 711 328 L 712 327 L 712 326 L 711 325 L 712 324 L 713 324 L 715 322 L 716 322 "></path>
        <path fill="none" stroke="#00fafa" stroke-width="3" d="M 478 144 L 479 143 L 480 144 L 481 144 L 482 143 L 484 145 L 483 146 L 484 146 L 485 147 L 485 148 L 484 149 L 483 148 L 484 149 L 484 150 L 483 151 L 482 150 L 481 151 L 480 151 L 479 152 L 480 153 L 479 154 L 480 155 L 479 156 L 479 157 L 480 157 L 480 156 L 481 155 L 483 157 L 482 158 L 482 159 L 484 161 L 484 162 L 483 163 L 482 163 L 482 165 L 481 166 L 480 166 L 480 167 L 477 170 L 476 169 L 476 167 L 475 167 L 474 166 L 474 165 L 472 163 L 474 161 L 473 160 L 475 158 L 475 157 L 476 156 L 475 155 L 475 154 L 476 153 L 475 152 L 475 151 L 474 152 L 473 152 L 472 151 L 472 149 L 475 146 L 476 147 L 477 146 L 479 146 L 476 146 L 475 145 L 476 144 "></path>
        <path fill="none" stroke="#00fafa" stroke-width="3" d="M 523 516 L 524 516 L 526 518 L 526 519 L 530 523 L 529 524 L 528 524 L 527 525 L 526 524 L 525 525 L 524 525 L 524 526 L 523 527 L 524 527 L 525 528 L 524 529 L 523 529 L 522 530 L 519 530 L 518 529 L 519 528 L 518 527 L 518 526 L 516 524 L 514 524 L 514 525 L 513 526 L 511 524 L 511 525 L 510 526 L 510 527 L 509 528 L 507 526 L 506 526 L 505 525 L 506 524 L 507 524 L 506 524 L 505 525 L 504 524 L 504 520 L 505 519 L 506 520 L 507 519 L 507 518 L 508 517 L 511 520 L 512 520 L 513 521 L 513 520 L 514 519 L 515 520 L 517 520 L 518 519 L 519 519 L 520 518 L 521 518 "></path>
        <path fill="none" stroke="#00fafa" stroke-width="3" d="M 502 353 L 503 352 L 505 352 L 506 353 L 507 352 L 510 352 L 511 353 L 512 353 L 513 354 L 512 355 L 513 355 L 514 356 L 514 358 L 513 359 L 512 358 L 513 359 L 513 360 L 512 361 L 511 361 L 512 361 L 513 362 L 512 363 L 510 363 L 511 364 L 510 365 L 510 366 L 509 367 L 505 363 L 506 362 L 505 363 L 504 362 L 504 360 L 503 361 L 502 360 L 500 360 L 499 359 L 498 360 L 497 360 L 499 360 L 500 361 L 499 362 L 498 362 L 497 363 L 496 363 L 494 361 L 495 360 L 494 359 L 496 357 L 497 358 L 496 357 L 496 355 L 497 354 L 499 356 L 500 356 L 499 356 L 498 355 L 499 354 L 501 354 L 502 353 L 503 354 "></path>
        <path fill="none" stroke="#00fafa" stroke-width="3" d="M 597 527 L 598 526 L 599 526 L 601 528 L 600 529 L 599 529 L 600 530 L 599 531 L 600 530 L 602 532 L 601 533 L 602 532 L 603 533 L 603 534 L 604 534 L 605 535 L 605 537 L 606 538 L 605 539 L 604 539 L 604 540 L 603 541 L 602 540 L 603 541 L 602 542 L 600 542 L 598 544 L 598 545 L 597 546 L 596 545 L 596 544 L 594 542 L 594 541 L 591 538 L 592 537 L 591 537 L 590 536 L 592 534 L 593 535 L 593 532 L 595 530 L 596 531 L 596 530 L 594 528 L 595 527 "></path>
        <path fill="none" stroke="#00fafa" stroke-width="3" d="M 639 278 L 640 277 L 641 278 L 641 280 L 642 281 L 642 282 L 643 283 L 646 283 L 647 284 L 646 285 L 647 286 L 646 287 L 646 288 L 645 289 L 644 288 L 645 289 L 644 290 L 644 295 L 645 296 L 644 297 L 644 299 L 645 300 L 644 301 L 643 301 L 642 302 L 641 301 L 640 302 L 636 302 L 635 301 L 635 299 L 636 298 L 638 300 L 638 299 L 637 298 L 637 297 L 638 296 L 638 294 L 639 293 L 640 293 L 640 292 L 641 291 L 641 290 L 640 290 L 639 289 L 640 288 L 639 288 L 637 286 L 636 286 L 635 285 L 637 283 L 638 284 L 637 283 L 638 282 L 637 281 L 637 280 L 638 279 L 639 280 "></path>
        <path fill="none" stroke="#00fafa" stroke-width="3" d="M 715 335 L 716 334 L 718 334 L 722 338 L 724 338 L 725 339 L 725 340 L 726 340 L 728 342 L 727 343 L 726 343 L 723 346 L 722 346 L 719 349 L 718 349 L 718 351 L 717 352 L 716 351 L 716 348 L 715 347 L 713 347 L 712 346 L 712 345 L 711 344 L 711 342 L 710 341 L 711 340 L 712 340 L 713 339 L 715 339 L 714 338 L 716 336 "></path>
        <path fill="none" stroke="#00fafa" stroke-width="3" d="M 717 499 L 718 500 L 720 500 L 721 501 L 721 503 L 722 503 L 724 505 L 725 504 L 726 505 L 726 506 L 725 507 L 726 508 L 724 510 L 723 510 L 722 511 L 723 512 L 721 514 L 721 516 L 720 517 L 719 517 L 718 516 L 718 515 L 716 513 L 715 513 L 714 512 L 714 511 L 712 509 L 711 510 L 709 508 L 710 507 L 712 507 L 715 504 L 714 503 L 715 502 L 715 501 "></path>
        <path fill="none" stroke="#00fafa" stroke-width="3" d="M 553 488 L 554 487 L 555 487 L 556 488 L 556 489 L 558 491 L 559 491 L 560 490 L 561 491 L 562 491 L 563 492 L 562 493 L 562 494 L 563 493 L 564 494 L 564 495 L 563 496 L 560 496 L 559 495 L 558 496 L 556 496 L 556 498 L 555 499 L 555 500 L 556 501 L 555 502 L 552 502 L 551 501 L 552 500 L 553 500 L 550 500 L 549 499 L 549 496 L 550 495 L 549 496 L 547 494 L 547 493 L 546 492 L 546 490 L 547 489 L 548 490 L 548 491 L 548 490 L 549 489 L 550 489 L 551 488 "></path>
        <path fill="none" stroke="#00fafa" stroke-width="3" d="M 612 218 L 613 217 L 615 217 L 616 218 L 617 217 L 618 218 L 618 219 L 620 219 L 621 220 L 620 221 L 620 222 L 620 221 L 621 220 L 622 221 L 622 223 L 621 224 L 619 224 L 618 225 L 617 225 L 616 226 L 616 227 L 615 228 L 613 228 L 614 229 L 614 230 L 613 231 L 612 230 L 611 231 L 610 230 L 610 228 L 608 226 L 606 226 L 605 225 L 606 224 L 605 223 L 605 222 L 607 220 L 608 221 L 611 218 "></path>
        <path fill="none" stroke="#00fafa" stroke-width="3" d="M 537 517 L 539 517 L 540 518 L 539 519 L 540 518 L 541 519 L 541 521 L 542 520 L 543 521 L 544 520 L 545 521 L 546 521 L 547 522 L 547 523 L 546 524 L 546 525 L 545 526 L 544 525 L 544 524 L 543 524 L 543 525 L 542 526 L 541 525 L 542 526 L 541 527 L 540 527 L 540 528 L 539 529 L 539 531 L 538 532 L 537 532 L 535 530 L 534 530 L 533 529 L 534 528 L 535 528 L 534 528 L 533 527 L 534 526 L 532 526 L 531 525 L 530 525 L 529 524 L 532 521 L 533 522 L 532 521 L 533 520 L 535 520 L 535 519 "></path>
        <path fill="none" stroke="#00fafa" stroke-width="3" d="M 613 440 L 614 441 L 615 441 L 616 442 L 616 444 L 617 443 L 618 443 L 619 444 L 619 445 L 618 446 L 619 445 L 620 446 L 622 446 L 623 447 L 622 448 L 622 450 L 621 451 L 620 450 L 619 450 L 617 452 L 616 452 L 615 451 L 614 452 L 616 454 L 615 455 L 614 455 L 612 453 L 608 453 L 607 452 L 608 451 L 609 451 L 607 449 L 607 448 L 606 448 L 605 447 L 606 446 L 608 446 L 609 445 L 610 445 L 612 443 L 611 442 "></path>
        <path fill="none" stroke="#00fafa" stroke-width="3" d="M 460 695 L 461 694 L 463 694 L 465 696 L 465 697 L 466 697 L 468 699 L 468 701 L 469 702 L 468 703 L 468 704 L 466 706 L 466 707 L 465 708 L 465 709 L 464 710 L 463 709 L 462 710 L 459 707 L 459 706 L 456 703 L 456 702 L 457 701 L 457 699 L 458 698 L 459 699 L 460 698 L 459 698 L 458 697 L 459 696 L 461 696 "></path>
        <path fill="none" stroke="#00fafa" stroke-width="3" d="M 611 366 L 612 365 L 614 367 L 615 366 L 616 366 L 617 367 L 616 368 L 617 369 L 617 370 L 618 370 L 619 371 L 619 373 L 617 375 L 616 375 L 616 376 L 613 379 L 612 379 L 613 380 L 613 381 L 612 382 L 610 380 L 610 378 L 609 377 L 609 376 L 608 376 L 607 377 L 605 375 L 605 374 L 606 373 L 607 373 L 606 373 L 605 372 L 606 371 L 607 371 L 609 369 L 610 370 L 610 368 L 611 367 "></path>
        <path fill="none" stroke="#00fafa" stroke-width="3" d="M 578 384 L 579 383 L 584 383 L 585 384 L 586 384 L 587 383 L 589 385 L 589 386 L 587 388 L 586 388 L 587 388 L 588 389 L 587 390 L 585 390 L 584 391 L 583 391 L 582 392 L 581 392 L 581 393 L 580 394 L 579 393 L 579 391 L 578 390 L 577 391 L 575 391 L 574 392 L 573 391 L 573 390 L 572 389 L 572 387 L 573 386 L 574 386 L 575 387 L 574 388 L 575 387 L 574 386 L 576 384 L 578 384 L 579 385 L 578 386 L 577 386 L 578 386 L 579 385 L 580 385 L 579 385 "></path>
        <path fill="none" stroke="#00fafa" stroke-width="3" d="M 659 381 L 660 380 L 661 381 L 661 383 L 662 383 L 663 384 L 665 384 L 666 385 L 665 386 L 664 386 L 664 389 L 662 391 L 660 391 L 659 392 L 658 392 L 657 393 L 657 394 L 656 395 L 655 395 L 654 394 L 654 393 L 653 392 L 654 391 L 656 391 L 654 389 L 653 390 L 652 389 L 652 388 L 653 387 L 653 386 L 652 385 L 653 384 L 654 384 L 656 382 L 659 382 "></path>
        <path fill="none" stroke="#00fafa" stroke-width="3" d="M 449 366 L 451 368 L 449 370 L 450 369 L 451 369 L 452 370 L 453 370 L 454 371 L 454 374 L 453 375 L 452 374 L 451 374 L 450 375 L 450 378 L 449 379 L 448 378 L 447 378 L 448 378 L 449 379 L 448 380 L 447 380 L 448 380 L 449 381 L 448 382 L 446 382 L 445 381 L 445 378 L 444 377 L 445 376 L 444 375 L 444 373 L 443 372 L 442 372 L 441 371 L 441 370 L 443 368 L 444 369 L 444 370 L 444 369 L 446 367 L 447 368 "></path>
        <path fill="none" stroke="#00fafa" stroke-width="3" d="M 489 397 L 490 396 L 491 397 L 493 397 L 494 396 L 495 396 L 496 397 L 496 398 L 497 399 L 497 400 L 499 402 L 498 403 L 499 404 L 497 406 L 495 406 L 495 407 L 494 408 L 493 407 L 491 409 L 488 406 L 489 405 L 488 406 L 487 405 L 487 400 L 488 399 L 489 400 L 488 399 L 489 398 "></path>
        <path fill="none" stroke="#00fafa" stroke-width="3" d="M 508 530 L 509 529 L 511 531 L 510 532 L 510 533 L 511 533 L 512 534 L 511 535 L 511 536 L 512 537 L 512 539 L 513 540 L 512 541 L 510 541 L 511 542 L 510 543 L 509 543 L 510 544 L 509 545 L 508 545 L 507 544 L 507 543 L 506 543 L 505 542 L 506 541 L 505 541 L 504 540 L 505 539 L 504 538 L 503 539 L 502 539 L 501 538 L 501 536 L 502 535 L 503 535 L 504 534 L 503 533 L 504 532 L 504 531 L 505 530 L 506 531 L 506 532 L 508 532 L 507 532 L 506 531 L 507 530 "></path>
        <path fill="none" stroke="#00fafa" stroke-width="3" d="M 401 398 L 402 397 L 403 397 L 404 398 L 404 399 L 405 398 L 406 398 L 408 400 L 408 401 L 410 401 L 411 402 L 410 403 L 409 403 L 408 404 L 408 406 L 407 407 L 406 407 L 406 409 L 405 410 L 404 409 L 404 408 L 403 409 L 402 408 L 402 407 L 401 407 L 400 406 L 400 405 L 399 405 L 398 404 L 397 405 L 395 403 L 395 402 L 396 401 L 397 401 L 399 399 L 400 399 L 401 398 L 402 399 L 402 400 L 402 399 "></path>
        <path fill="none" stroke="#00fafa" stroke-width="3" d="M 568 334 L 569 335 L 569 336 L 571 338 L 570 339 L 571 340 L 571 341 L 573 341 L 572 341 L 571 340 L 571 337 L 572 336 L 573 337 L 573 338 L 574 339 L 576 339 L 577 340 L 576 339 L 578 337 L 579 337 L 578 336 L 579 335 L 580 335 L 581 336 L 581 335 L 582 334 L 584 336 L 584 337 L 585 338 L 585 339 L 587 339 L 588 340 L 588 341 L 589 342 L 588 343 L 588 345 L 587 346 L 586 346 L 587 346 L 588 347 L 587 348 L 586 348 L 584 350 L 585 351 L 586 351 L 587 352 L 587 354 L 588 353 L 589 353 L 590 354 L 589 355 L 589 356 L 590 357 L 590 360 L 589 361 L 588 360 L 588 359 L 585 362 L 586 363 L 585 364 L 585 365 L 584 366 L 581 363 L 580 363 L 579 362 L 578 362 L 576 360 L 575 361 L 573 359 L 571 359 L 571 362 L 570 363 L 570 364 L 569 365 L 568 364 L 568 363 L 567 362 L 566 363 L 564 363 L 563 362 L 563 361 L 562 360 L 563 359 L 562 360 L 560 360 L 559 361 L 558 360 L 558 361 L 559 362 L 559 363 L 558 364 L 557 363 L 555 365 L 556 366 L 558 366 L 559 367 L 558 368 L 558 369 L 558 368 L 559 367 L 561 369 L 560 370 L 561 369 L 562 370 L 561 369 L 563 367 L 564 368 L 565 368 L 566 367 L 567 368 L 567 367 L 568 366 L 569 367 L 569 368 L 570 369 L 570 370 L 571 371 L 572 371 L 573 370 L 574 371 L 575 371 L 577 369 L 579 369 L 580 368 L 580 367 L 579 366 L 580 365 L 581 365 L 582 364 L 584 366 L 584 367 L 585 367 L 586 366 L 587 367 L 587 368 L 588 369 L 587 370 L 588 371 L 590 371 L 591 370 L 592 371 L 593 371 L 593 370 L 594 369 L 594 367 L 595 366 L 594 365 L 595 364 L 594 363 L 595 362 L 594 361 L 593 361 L 592 362 L 591 361 L 591 360 L 590 359 L 590 356 L 589 355 L 591 353 L 592 353 L 593 354 L 594 354 L 595 353 L 597 353 L 598 352 L 599 353 L 599 354 L 600 355 L 600 357 L 600 356 L 601 355 L 603 357 L 603 358 L 602 359 L 602 361 L 601 362 L 600 361 L 600 360 L 600 364 L 599 365 L 600 366 L 599 367 L 600 367 L 601 368 L 601 369 L 602 370 L 603 370 L 604 371 L 603 372 L 604 373 L 604 374 L 603 375 L 603 378 L 602 379 L 601 379 L 603 381 L 603 382 L 602 383 L 602 385 L 601 386 L 602 386 L 603 387 L 602 388 L 602 389 L 603 390 L 602 391 L 601 391 L 599 393 L 598 392 L 596 392 L 595 393 L 594 392 L 594 390 L 595 389 L 595 387 L 594 388 L 593 387 L 591 387 L 590 386 L 591 385 L 592 385 L 593 384 L 594 385 L 595 384 L 595 383 L 596 382 L 597 383 L 596 382 L 596 380 L 594 378 L 594 376 L 592 374 L 591 375 L 590 374 L 590 373 L 590 374 L 589 375 L 587 375 L 586 374 L 587 373 L 586 374 L 586 375 L 587 375 L 588 376 L 587 377 L 583 377 L 582 378 L 581 377 L 581 376 L 580 376 L 579 377 L 578 377 L 577 376 L 578 375 L 578 374 L 578 375 L 577 376 L 575 376 L 574 377 L 573 377 L 572 376 L 572 378 L 571 379 L 570 378 L 570 377 L 570 381 L 569 382 L 567 382 L 566 381 L 567 380 L 567 379 L 566 380 L 565 380 L 564 379 L 563 379 L 561 377 L 561 372 L 561 375 L 560 376 L 559 375 L 559 374 L 558 373 L 558 372 L 556 372 L 555 373 L 555 375 L 554 376 L 551 376 L 549 374 L 550 373 L 551 373 L 549 373 L 548 372 L 550 370 L 551 371 L 551 369 L 552 368 L 551 367 L 552 366 L 553 366 L 552 366 L 550 364 L 551 363 L 550 362 L 550 361 L 549 362 L 548 362 L 547 363 L 546 362 L 546 361 L 547 360 L 546 359 L 546 358 L 545 357 L 547 355 L 546 354 L 546 353 L 547 352 L 549 354 L 549 355 L 549 354 L 550 353 L 551 354 L 551 355 L 551 351 L 552 350 L 553 351 L 553 352 L 554 353 L 557 353 L 558 354 L 560 354 L 562 356 L 561 355 L 562 354 L 563 354 L 565 356 L 566 355 L 567 355 L 567 354 L 568 353 L 570 355 L 570 356 L 571 357 L 573 355 L 575 357 L 576 357 L 575 357 L 574 356 L 575 355 L 575 354 L 576 353 L 577 353 L 578 354 L 579 353 L 580 353 L 580 352 L 579 351 L 579 350 L 580 349 L 579 348 L 580 347 L 578 345 L 577 346 L 576 345 L 575 345 L 574 346 L 573 346 L 573 347 L 572 348 L 571 347 L 571 346 L 570 346 L 569 347 L 568 347 L 567 348 L 566 347 L 565 347 L 564 348 L 563 348 L 562 347 L 561 347 L 560 346 L 560 344 L 560 345 L 559 346 L 558 346 L 556 344 L 554 346 L 553 346 L 552 347 L 551 347 L 550 346 L 549 347 L 548 347 L 547 346 L 547 345 L 546 346 L 545 345 L 545 344 L 544 344 L 543 343 L 545 341 L 546 341 L 547 340 L 548 340 L 549 339 L 550 339 L 551 338 L 552 338 L 551 337 L 552 336 L 553 336 L 557 340 L 557 341 L 558 340 L 559 340 L 560 341 L 560 342 L 561 341 L 562 341 L 562 340 "></path>
        <path fill="none" stroke="#00fafa" stroke-width="3" d="M 552 427 L 553 426 L 554 427 L 555 426 L 556 426 L 557 427 L 557 429 L 559 431 L 559 432 L 560 433 L 557 436 L 556 435 L 555 436 L 553 436 L 552 437 L 553 436 L 554 436 L 555 437 L 553 439 L 552 439 L 553 440 L 553 442 L 554 443 L 557 443 L 558 444 L 557 445 L 558 445 L 559 446 L 561 444 L 562 445 L 562 446 L 561 447 L 561 448 L 560 449 L 559 448 L 557 450 L 557 451 L 556 452 L 556 454 L 553 457 L 553 458 L 553 457 L 554 456 L 556 456 L 557 457 L 556 458 L 555 458 L 556 459 L 559 459 L 560 460 L 561 459 L 562 459 L 563 458 L 564 459 L 564 458 L 565 457 L 564 456 L 566 454 L 567 454 L 571 458 L 572 458 L 573 459 L 572 460 L 574 462 L 573 463 L 574 462 L 575 463 L 575 464 L 574 465 L 573 465 L 573 466 L 571 468 L 572 469 L 571 470 L 570 470 L 569 469 L 569 470 L 568 471 L 566 469 L 565 469 L 564 468 L 564 467 L 563 468 L 562 467 L 562 466 L 563 465 L 562 465 L 561 466 L 560 465 L 560 464 L 559 464 L 560 465 L 558 467 L 557 466 L 555 468 L 555 469 L 554 470 L 553 469 L 553 470 L 555 472 L 555 473 L 558 473 L 559 474 L 558 475 L 559 474 L 560 475 L 561 475 L 562 476 L 562 477 L 562 476 L 561 475 L 562 474 L 562 472 L 563 471 L 564 472 L 564 475 L 565 476 L 566 475 L 568 475 L 570 477 L 573 477 L 572 476 L 573 475 L 573 474 L 574 473 L 575 474 L 575 475 L 576 475 L 577 476 L 578 476 L 578 475 L 579 474 L 581 474 L 581 473 L 582 472 L 583 472 L 585 474 L 586 474 L 587 475 L 586 476 L 587 477 L 586 478 L 587 479 L 587 482 L 586 483 L 587 483 L 588 484 L 588 487 L 586 489 L 585 488 L 585 487 L 585 488 L 586 489 L 586 490 L 587 491 L 586 492 L 587 493 L 587 494 L 588 494 L 589 495 L 589 496 L 586 499 L 586 500 L 585 501 L 586 502 L 586 504 L 587 505 L 587 506 L 586 507 L 587 506 L 588 506 L 589 507 L 589 508 L 587 510 L 586 509 L 586 510 L 585 511 L 584 510 L 584 514 L 589 514 L 590 515 L 589 516 L 587 516 L 586 517 L 585 516 L 583 516 L 581 514 L 581 513 L 582 512 L 581 513 L 575 507 L 576 506 L 577 506 L 578 505 L 578 504 L 579 503 L 580 503 L 579 503 L 578 502 L 579 501 L 579 499 L 578 498 L 578 497 L 577 496 L 578 495 L 576 493 L 577 492 L 578 492 L 580 490 L 579 491 L 578 491 L 577 490 L 579 488 L 581 488 L 580 488 L 579 487 L 580 486 L 581 486 L 580 485 L 579 485 L 577 483 L 577 482 L 578 481 L 577 482 L 576 481 L 575 481 L 574 480 L 573 480 L 572 481 L 572 482 L 571 483 L 570 482 L 570 481 L 569 482 L 568 481 L 567 482 L 565 480 L 562 480 L 560 478 L 560 480 L 559 481 L 558 480 L 555 480 L 554 481 L 553 481 L 551 483 L 551 484 L 550 485 L 548 485 L 547 484 L 548 483 L 549 483 L 549 481 L 545 481 L 544 480 L 545 479 L 544 480 L 543 479 L 542 480 L 543 481 L 542 482 L 541 482 L 540 483 L 539 482 L 537 484 L 533 480 L 531 480 L 530 479 L 531 478 L 531 477 L 530 478 L 529 478 L 526 481 L 525 481 L 524 482 L 525 483 L 524 484 L 523 484 L 521 482 L 520 482 L 519 481 L 518 481 L 517 480 L 517 479 L 516 478 L 517 477 L 516 476 L 517 475 L 517 473 L 518 472 L 522 472 L 523 471 L 527 471 L 529 473 L 528 474 L 532 474 L 534 472 L 535 473 L 535 474 L 535 473 L 536 472 L 537 472 L 538 473 L 539 472 L 540 473 L 541 473 L 543 475 L 543 476 L 544 477 L 546 477 L 546 476 L 547 475 L 548 475 L 549 476 L 549 473 L 548 472 L 549 471 L 548 470 L 548 469 L 547 468 L 548 467 L 547 466 L 547 465 L 546 464 L 545 464 L 544 463 L 546 461 L 547 461 L 546 460 L 547 459 L 547 458 L 548 457 L 549 458 L 550 458 L 550 456 L 551 455 L 551 454 L 552 453 L 553 454 L 554 453 L 553 452 L 552 453 L 548 449 L 549 448 L 549 447 L 547 447 L 546 446 L 547 445 L 548 445 L 549 444 L 549 442 L 550 441 L 551 441 L 550 440 L 550 437 L 547 434 L 549 432 L 549 431 L 550 430 L 550 429 L 551 428 L 552 428 "></path>
        <path fill="none" stroke="#00fafa" stroke-width="3" d="M 523 486 L 524 485 L 525 486 L 525 488 L 526 487 L 527 488 L 527 489 L 528 490 L 528 491 L 529 491 L 530 492 L 530 490 L 532 488 L 532 487 L 533 486 L 534 487 L 535 487 L 536 486 L 537 486 L 538 487 L 539 487 L 540 486 L 541 487 L 541 488 L 540 489 L 540 491 L 544 495 L 543 496 L 542 496 L 541 495 L 540 495 L 540 497 L 539 498 L 538 497 L 537 497 L 535 495 L 535 497 L 534 498 L 532 496 L 530 496 L 529 495 L 529 494 L 528 494 L 528 495 L 527 496 L 527 497 L 528 498 L 527 499 L 527 500 L 526 501 L 526 502 L 525 503 L 525 504 L 526 504 L 528 506 L 528 508 L 527 509 L 527 510 L 526 511 L 526 514 L 525 515 L 524 514 L 524 513 L 523 513 L 522 514 L 521 514 L 519 512 L 518 512 L 517 511 L 516 511 L 515 510 L 514 511 L 512 509 L 512 510 L 510 512 L 509 511 L 508 512 L 507 511 L 507 510 L 505 510 L 506 511 L 504 513 L 503 512 L 503 510 L 502 509 L 502 510 L 501 511 L 501 512 L 500 513 L 499 512 L 498 513 L 496 511 L 497 512 L 496 513 L 498 515 L 497 516 L 495 516 L 496 517 L 496 518 L 495 519 L 494 518 L 493 519 L 495 521 L 496 521 L 497 522 L 497 523 L 495 525 L 494 524 L 493 525 L 492 525 L 491 526 L 490 525 L 488 527 L 487 526 L 486 527 L 485 526 L 484 526 L 482 524 L 481 525 L 482 526 L 480 528 L 479 528 L 479 529 L 480 528 L 481 529 L 481 530 L 482 531 L 482 532 L 483 532 L 484 533 L 483 534 L 483 535 L 484 536 L 484 537 L 483 538 L 482 537 L 483 538 L 482 539 L 481 539 L 480 538 L 480 537 L 479 536 L 478 537 L 477 537 L 476 536 L 476 537 L 475 538 L 473 536 L 474 535 L 473 534 L 473 533 L 474 532 L 476 532 L 476 530 L 477 529 L 477 528 L 474 528 L 473 527 L 474 526 L 475 526 L 474 525 L 473 526 L 472 525 L 472 524 L 471 523 L 471 522 L 472 521 L 473 521 L 473 519 L 474 518 L 475 518 L 475 517 L 476 516 L 478 516 L 476 516 L 475 515 L 474 515 L 473 514 L 474 513 L 475 513 L 474 512 L 474 510 L 473 510 L 472 509 L 472 508 L 473 507 L 474 507 L 473 507 L 471 505 L 471 504 L 472 503 L 474 505 L 475 505 L 475 504 L 476 503 L 476 502 L 477 501 L 479 503 L 480 503 L 480 502 L 481 501 L 483 503 L 482 504 L 483 505 L 484 505 L 485 506 L 485 507 L 486 508 L 485 507 L 485 505 L 486 504 L 487 504 L 487 501 L 488 500 L 490 500 L 491 501 L 491 502 L 492 501 L 493 501 L 494 502 L 494 503 L 495 502 L 496 503 L 496 505 L 497 506 L 496 507 L 498 507 L 499 506 L 500 507 L 501 506 L 502 507 L 502 506 L 503 505 L 504 505 L 505 504 L 506 504 L 510 500 L 511 500 L 512 501 L 511 502 L 511 504 L 514 504 L 515 503 L 516 504 L 517 503 L 518 503 L 519 504 L 519 503 L 520 502 L 521 503 L 521 501 L 522 500 L 521 500 L 520 499 L 521 498 L 520 497 L 518 497 L 517 496 L 518 495 L 519 495 L 520 494 L 519 494 L 518 493 L 519 492 L 521 492 L 520 491 L 521 490 L 521 489 L 522 488 L 523 488 "></path>
        <path fill="none" stroke="#00fafa" stroke-width="3" d="M 477 350 L 478 349 L 479 350 L 479 352 L 479 351 L 480 350 L 482 352 L 481 353 L 482 353 L 483 354 L 484 354 L 485 355 L 486 354 L 487 354 L 488 355 L 487 356 L 487 357 L 486 358 L 485 357 L 483 359 L 483 360 L 482 361 L 482 362 L 481 363 L 481 367 L 482 367 L 483 368 L 482 369 L 484 369 L 485 368 L 486 368 L 487 369 L 486 370 L 487 369 L 488 370 L 489 370 L 490 369 L 491 369 L 491 368 L 492 367 L 494 369 L 495 369 L 496 370 L 495 371 L 497 371 L 498 372 L 497 373 L 496 373 L 497 373 L 498 372 L 499 373 L 500 373 L 499 372 L 499 371 L 500 370 L 501 371 L 502 370 L 504 370 L 505 369 L 507 371 L 506 372 L 503 372 L 504 373 L 504 374 L 503 375 L 502 375 L 501 376 L 500 375 L 499 376 L 498 375 L 497 376 L 496 375 L 495 375 L 495 377 L 497 379 L 496 380 L 497 381 L 496 382 L 495 382 L 496 382 L 497 383 L 496 384 L 497 383 L 498 384 L 498 387 L 496 389 L 496 390 L 495 391 L 494 390 L 494 391 L 493 392 L 492 392 L 490 390 L 489 390 L 488 389 L 489 388 L 490 388 L 488 386 L 489 385 L 489 384 L 491 382 L 491 381 L 490 380 L 491 379 L 492 379 L 493 380 L 493 379 L 492 379 L 491 378 L 491 377 L 489 375 L 488 376 L 487 375 L 486 376 L 485 375 L 485 376 L 484 377 L 483 376 L 482 377 L 482 380 L 481 381 L 480 380 L 479 380 L 477 382 L 475 380 L 475 379 L 474 378 L 474 376 L 473 376 L 472 375 L 471 375 L 470 376 L 470 377 L 469 378 L 468 377 L 468 375 L 467 376 L 466 376 L 466 379 L 465 380 L 464 380 L 462 382 L 460 380 L 460 379 L 461 378 L 462 379 L 461 378 L 460 379 L 458 377 L 459 376 L 459 375 L 458 376 L 457 376 L 456 375 L 458 373 L 459 373 L 458 372 L 458 371 L 459 370 L 460 371 L 461 371 L 462 370 L 462 369 L 463 368 L 465 370 L 468 370 L 468 369 L 469 368 L 470 369 L 471 369 L 472 370 L 472 369 L 475 366 L 474 365 L 477 362 L 479 362 L 477 362 L 475 360 L 475 361 L 474 362 L 473 361 L 473 360 L 472 361 L 471 361 L 469 359 L 470 360 L 470 361 L 469 362 L 468 361 L 466 363 L 465 362 L 464 363 L 463 363 L 463 364 L 462 365 L 461 365 L 460 364 L 459 364 L 458 363 L 458 361 L 457 360 L 458 359 L 457 360 L 456 359 L 456 358 L 455 357 L 455 355 L 456 354 L 459 354 L 460 353 L 461 354 L 462 353 L 463 354 L 464 354 L 465 353 L 467 355 L 467 356 L 468 356 L 469 355 L 472 358 L 472 356 L 471 357 L 470 356 L 470 355 L 471 354 L 473 354 L 474 353 L 475 353 L 475 352 L 476 351 L 477 351 "></path>
        <path fill="none" stroke="#00fafa" stroke-width="3" d="M 476 383 L 477 382 L 478 382 L 479 383 L 478 384 L 479 383 L 481 383 L 482 384 L 482 385 L 483 386 L 484 386 L 485 387 L 484 388 L 483 388 L 481 390 L 482 391 L 481 392 L 481 393 L 483 393 L 484 394 L 483 395 L 482 395 L 481 396 L 482 397 L 481 398 L 482 399 L 482 401 L 483 402 L 483 403 L 484 404 L 486 404 L 487 405 L 486 406 L 480 406 L 479 407 L 479 408 L 480 409 L 480 410 L 479 411 L 477 409 L 477 408 L 474 405 L 474 404 L 473 404 L 472 403 L 471 404 L 470 403 L 469 404 L 467 404 L 466 403 L 466 406 L 467 407 L 466 408 L 465 408 L 464 407 L 463 408 L 462 407 L 461 407 L 457 403 L 456 403 L 455 402 L 456 401 L 456 399 L 457 398 L 458 399 L 459 399 L 460 398 L 460 397 L 459 396 L 460 395 L 462 395 L 463 396 L 463 397 L 464 397 L 465 398 L 468 398 L 469 399 L 469 400 L 470 399 L 471 399 L 471 398 L 472 397 L 473 397 L 473 395 L 474 394 L 475 395 L 475 394 L 474 393 L 474 392 L 476 390 L 475 391 L 474 390 L 471 390 L 469 388 L 470 387 L 470 386 L 471 385 L 475 385 L 476 384 "></path>
        <path fill="none" stroke="#00fafa" stroke-width="3" d="M 579 426 L 580 425 L 581 426 L 581 427 L 582 427 L 584 429 L 584 430 L 585 429 L 587 431 L 587 432 L 588 432 L 589 431 L 590 431 L 591 432 L 588 435 L 588 436 L 586 438 L 585 438 L 584 439 L 582 437 L 580 437 L 577 434 L 577 433 L 574 433 L 573 432 L 573 431 L 573 434 L 572 435 L 572 436 L 573 437 L 571 439 L 570 439 L 571 439 L 572 440 L 571 441 L 571 443 L 572 444 L 572 445 L 573 446 L 574 446 L 575 447 L 573 449 L 573 450 L 572 451 L 571 450 L 571 449 L 571 452 L 569 454 L 568 454 L 567 453 L 567 452 L 566 451 L 567 450 L 566 451 L 565 450 L 565 449 L 564 448 L 564 446 L 565 445 L 566 445 L 566 443 L 567 442 L 568 443 L 566 441 L 566 440 L 566 442 L 564 444 L 562 444 L 561 443 L 562 442 L 563 442 L 564 441 L 564 439 L 563 438 L 563 437 L 562 437 L 561 436 L 561 435 L 560 435 L 559 434 L 560 433 L 561 433 L 559 431 L 560 430 L 561 430 L 562 431 L 564 431 L 565 430 L 566 430 L 566 429 L 567 428 L 568 428 L 569 429 L 568 430 L 569 429 L 570 429 L 569 428 L 570 427 L 571 427 L 572 428 L 572 429 L 573 428 L 574 428 L 576 430 L 575 431 L 576 430 L 577 430 L 577 429 L 576 429 L 575 428 L 575 427 L 576 426 L 577 427 L 578 427 L 579 428 "></path>
        <path fill="none" stroke="#00fafa" stroke-width="3" d="M 507 386 L 508 385 L 509 386 L 511 386 L 512 387 L 512 388 L 511 389 L 512 390 L 511 391 L 512 392 L 511 393 L 511 394 L 509 396 L 510 397 L 511 397 L 512 398 L 511 399 L 510 399 L 513 399 L 514 400 L 514 401 L 516 403 L 516 406 L 515 407 L 514 407 L 513 406 L 514 405 L 511 408 L 510 408 L 510 409 L 508 411 L 508 412 L 510 412 L 511 413 L 510 414 L 511 415 L 510 416 L 511 417 L 508 420 L 507 419 L 506 419 L 506 420 L 507 419 L 508 420 L 508 421 L 505 424 L 504 423 L 504 421 L 503 422 L 502 421 L 501 421 L 500 420 L 501 419 L 501 418 L 502 417 L 500 415 L 501 414 L 501 413 L 502 412 L 503 413 L 504 412 L 505 412 L 506 411 L 506 410 L 508 408 L 507 407 L 506 407 L 504 405 L 504 404 L 503 403 L 503 400 L 504 399 L 505 399 L 503 399 L 502 398 L 503 397 L 505 397 L 505 395 L 504 394 L 504 393 L 503 393 L 502 392 L 504 390 L 503 391 L 502 391 L 501 390 L 501 387 L 502 386 L 503 386 L 504 387 L 503 388 L 504 387 L 505 387 L 506 388 L 507 387 "></path>
        <path fill="none" stroke="#00fafa" stroke-width="3" d="M 531 363 L 532 362 L 534 364 L 533 365 L 533 368 L 534 368 L 535 369 L 534 370 L 533 370 L 534 370 L 535 369 L 536 370 L 537 369 L 539 369 L 540 368 L 541 368 L 543 370 L 542 371 L 543 371 L 545 373 L 544 374 L 542 374 L 541 375 L 541 379 L 542 380 L 541 381 L 540 381 L 540 384 L 539 385 L 538 384 L 538 385 L 540 385 L 541 384 L 543 384 L 544 385 L 543 386 L 542 386 L 544 386 L 545 387 L 545 390 L 544 391 L 542 389 L 543 388 L 542 388 L 542 389 L 541 390 L 543 390 L 544 391 L 542 393 L 541 393 L 539 391 L 536 391 L 535 392 L 534 391 L 534 389 L 533 388 L 531 388 L 531 389 L 530 390 L 528 390 L 527 391 L 526 391 L 525 390 L 526 391 L 525 392 L 524 392 L 523 391 L 523 390 L 522 389 L 522 388 L 521 388 L 520 387 L 522 385 L 525 385 L 525 384 L 526 383 L 527 384 L 527 385 L 528 385 L 529 386 L 528 387 L 528 388 L 528 387 L 530 385 L 531 386 L 533 386 L 533 384 L 534 383 L 533 382 L 533 381 L 534 380 L 535 380 L 536 381 L 536 384 L 536 383 L 537 382 L 538 382 L 538 381 L 537 382 L 535 380 L 535 379 L 534 378 L 535 377 L 535 376 L 534 375 L 533 375 L 532 374 L 533 373 L 531 371 L 531 369 L 531 370 L 529 372 L 527 370 L 528 369 L 529 369 L 529 368 L 530 367 L 531 367 "></path>
        <path fill="none" stroke="#00fafa" stroke-width="3" d="M 492 530 L 493 529 L 494 530 L 494 532 L 495 532 L 496 533 L 496 532 L 495 531 L 496 530 L 497 530 L 498 531 L 498 534 L 499 535 L 500 534 L 502 534 L 504 532 L 505 533 L 504 532 L 506 530 L 507 531 L 508 531 L 509 532 L 511 532 L 512 533 L 512 534 L 513 535 L 513 536 L 512 537 L 512 539 L 511 540 L 511 541 L 510 542 L 510 543 L 509 544 L 508 543 L 508 542 L 508 543 L 506 545 L 505 545 L 504 544 L 506 542 L 505 543 L 504 542 L 504 541 L 503 542 L 501 542 L 500 543 L 497 540 L 496 541 L 495 541 L 494 540 L 495 541 L 492 544 L 491 543 L 491 545 L 490 546 L 489 546 L 488 545 L 489 544 L 489 543 L 487 541 L 488 540 L 487 539 L 486 539 L 485 540 L 484 539 L 484 536 L 485 535 L 486 536 L 486 537 L 486 534 L 487 533 L 488 533 L 489 534 L 489 533 L 490 532 L 491 533 L 490 532 L 490 531 L 491 530 L 492 531 "></path>
        <path fill="none" stroke="#00fafa" stroke-width="3" d="M 569 396 L 570 397 L 570 399 L 572 401 L 572 405 L 571 406 L 571 407 L 569 409 L 568 408 L 571 411 L 570 412 L 569 412 L 570 413 L 571 413 L 572 414 L 574 412 L 576 414 L 577 413 L 578 414 L 578 415 L 579 416 L 579 417 L 580 418 L 579 419 L 578 419 L 577 418 L 576 418 L 575 417 L 574 418 L 573 417 L 572 418 L 573 419 L 573 422 L 572 423 L 571 423 L 572 424 L 571 425 L 567 425 L 566 424 L 566 422 L 565 422 L 564 423 L 563 422 L 563 421 L 562 422 L 561 421 L 561 420 L 562 419 L 562 418 L 561 417 L 560 417 L 559 416 L 559 414 L 560 413 L 561 414 L 561 415 L 562 414 L 563 414 L 564 413 L 563 414 L 561 414 L 560 413 L 561 412 L 562 412 L 564 410 L 564 409 L 566 407 L 565 408 L 564 408 L 563 407 L 564 406 L 563 407 L 562 406 L 562 402 L 563 401 L 563 400 L 564 399 L 564 398 L 565 397 L 566 398 L 567 398 "></path>
        <path fill="none" stroke="#00fafa" stroke-width="3" d="M 436 367 L 437 368 L 438 367 L 439 368 L 440 368 L 441 369 L 441 370 L 441 369 L 442 368 L 444 368 L 445 367 L 446 367 L 447 368 L 448 367 L 450 367 L 451 368 L 452 367 L 453 368 L 453 369 L 454 370 L 453 371 L 453 373 L 454 373 L 455 374 L 453 376 L 452 375 L 453 376 L 452 377 L 451 377 L 450 376 L 450 375 L 450 380 L 449 381 L 448 381 L 446 379 L 447 378 L 446 377 L 444 377 L 443 376 L 441 376 L 440 377 L 439 377 L 438 376 L 439 375 L 436 375 L 435 376 L 436 377 L 435 378 L 433 378 L 432 379 L 430 379 L 428 377 L 428 376 L 426 376 L 423 373 L 424 372 L 425 372 L 426 373 L 425 372 L 426 371 L 428 371 L 428 370 L 429 369 L 430 370 L 431 369 L 432 369 L 433 368 L 434 369 "></path>
        <path fill="none" stroke="#00fafa" stroke-width="3" d="M 428 280 L 429 279 L 431 279 L 432 280 L 433 279 L 434 279 L 435 280 L 436 280 L 437 279 L 438 279 L 440 281 L 438 283 L 436 283 L 435 284 L 436 283 L 438 283 L 439 284 L 438 285 L 437 285 L 436 286 L 434 286 L 434 288 L 435 289 L 436 289 L 437 290 L 436 291 L 436 292 L 438 294 L 437 295 L 438 295 L 439 296 L 439 297 L 440 298 L 439 299 L 438 299 L 438 300 L 437 301 L 437 302 L 436 303 L 435 302 L 434 303 L 433 303 L 434 303 L 435 304 L 435 305 L 434 306 L 432 306 L 431 305 L 431 304 L 429 304 L 427 302 L 428 301 L 430 301 L 429 300 L 428 300 L 427 299 L 427 296 L 429 294 L 428 295 L 427 294 L 427 293 L 428 292 L 428 290 L 429 289 L 428 290 L 426 288 L 426 287 L 427 286 L 428 287 L 428 285 L 427 286 L 426 286 L 425 285 L 426 284 L 425 283 L 427 281 L 428 281 "></path>
        <path fill="none" stroke="#00fafa" stroke-width="3" d="M 519 352 L 520 351 L 521 352 L 521 353 L 522 354 L 523 354 L 522 354 L 521 353 L 521 352 L 522 351 L 523 351 L 525 353 L 525 354 L 526 355 L 527 355 L 528 354 L 529 355 L 529 356 L 530 356 L 531 357 L 533 355 L 534 355 L 535 354 L 536 355 L 537 354 L 539 354 L 540 355 L 537 358 L 538 357 L 539 358 L 539 360 L 538 361 L 539 362 L 538 363 L 539 362 L 541 364 L 541 365 L 540 366 L 539 366 L 539 367 L 537 369 L 535 367 L 536 366 L 537 366 L 536 366 L 535 365 L 536 364 L 534 362 L 534 361 L 535 360 L 534 359 L 533 359 L 533 360 L 532 361 L 530 361 L 531 362 L 528 365 L 527 364 L 527 363 L 526 362 L 525 363 L 524 363 L 524 364 L 525 365 L 524 366 L 524 369 L 523 370 L 521 368 L 522 367 L 519 370 L 517 368 L 517 367 L 518 366 L 519 367 L 519 366 L 520 365 L 519 365 L 518 364 L 519 363 L 520 363 L 519 363 L 518 362 L 517 362 L 516 361 L 516 358 L 517 357 L 518 358 L 518 360 L 520 360 L 519 359 "></path>
        <path fill="none" stroke="#00fafa" stroke-width="3" d="M 532 443 L 533 442 L 534 442 L 536 444 L 537 443 L 539 443 L 540 444 L 543 444 L 544 445 L 543 446 L 542 446 L 542 447 L 543 446 L 544 447 L 544 449 L 543 450 L 542 450 L 541 451 L 543 453 L 541 455 L 540 454 L 541 455 L 541 456 L 539 458 L 540 459 L 540 460 L 542 462 L 543 462 L 544 463 L 543 464 L 541 464 L 540 465 L 539 465 L 539 467 L 538 468 L 535 468 L 534 467 L 534 466 L 532 464 L 530 466 L 529 466 L 528 465 L 528 464 L 527 463 L 529 461 L 530 462 L 530 463 L 530 462 L 532 460 L 533 460 L 533 458 L 532 457 L 532 456 L 534 454 L 535 454 L 534 453 L 534 451 L 532 449 L 532 448 L 533 447 L 532 446 L 533 445 L 533 444 "></path>
        <path fill="none" stroke="#00fafa" stroke-width="3" d="M 519 336 L 520 335 L 521 335 L 522 336 L 522 337 L 523 337 L 524 338 L 523 339 L 524 339 L 527 342 L 528 342 L 529 341 L 530 342 L 531 341 L 533 341 L 535 339 L 535 338 L 536 337 L 537 338 L 538 337 L 539 338 L 540 338 L 541 339 L 540 340 L 540 341 L 540 340 L 541 339 L 542 340 L 542 341 L 543 340 L 544 341 L 544 342 L 543 343 L 544 344 L 542 346 L 542 347 L 540 349 L 539 349 L 538 350 L 537 349 L 537 348 L 536 349 L 535 348 L 535 347 L 534 347 L 533 348 L 531 346 L 531 345 L 528 345 L 527 346 L 526 346 L 525 347 L 524 347 L 525 348 L 523 350 L 522 349 L 522 347 L 521 347 L 520 348 L 519 347 L 518 347 L 517 346 L 517 345 L 516 344 L 517 343 L 516 343 L 515 342 L 515 340 L 516 339 L 517 340 L 519 338 L 517 340 L 516 339 L 516 338 L 518 336 "></path>
        <path fill="none" stroke="#00fafa" stroke-width="3" d="M 522 515 L 523 514 L 524 514 L 525 515 L 525 518 L 527 520 L 527 523 L 525 525 L 524 525 L 525 526 L 524 527 L 523 527 L 524 528 L 523 529 L 521 529 L 520 528 L 520 527 L 519 527 L 518 528 L 517 527 L 517 526 L 516 525 L 514 525 L 513 526 L 512 526 L 511 527 L 511 528 L 510 529 L 509 528 L 508 529 L 507 528 L 508 529 L 507 530 L 506 530 L 504 532 L 503 531 L 503 529 L 504 528 L 505 528 L 505 527 L 504 526 L 504 524 L 502 524 L 501 523 L 502 522 L 501 521 L 502 520 L 503 520 L 504 521 L 505 520 L 506 520 L 506 519 L 507 518 L 508 519 L 509 519 L 510 518 L 510 517 L 511 516 L 512 517 L 512 518 L 513 518 L 514 519 L 513 520 L 514 519 L 515 520 L 517 520 L 518 519 L 519 520 L 520 519 L 521 519 L 521 518 L 520 517 L 521 516 L 523 516 "></path>
        <path fill="none" stroke="#00fafa" stroke-width="3" d="M 522 441 L 523 440 L 525 442 L 524 443 L 526 445 L 526 444 L 527 443 L 528 443 L 529 444 L 528 445 L 528 446 L 529 446 L 530 447 L 529 448 L 528 448 L 529 449 L 525 453 L 525 454 L 524 455 L 525 456 L 525 457 L 526 458 L 525 459 L 524 459 L 526 459 L 527 460 L 528 460 L 529 461 L 527 463 L 527 467 L 526 468 L 525 467 L 523 467 L 522 468 L 520 466 L 519 466 L 518 465 L 519 464 L 519 463 L 517 461 L 517 460 L 519 458 L 519 457 L 518 456 L 519 455 L 521 455 L 519 453 L 518 453 L 517 452 L 517 451 L 518 450 L 517 451 L 516 450 L 516 449 L 515 448 L 516 447 L 518 447 L 518 446 L 520 444 L 520 443 L 521 442 L 522 443 "></path>
        <path fill="none" stroke="#00fafa" stroke-width="3" d="M 596 394 L 597 393 L 600 393 L 601 394 L 600 395 L 600 397 L 601 398 L 602 397 L 603 398 L 603 399 L 602 400 L 603 399 L 606 399 L 607 400 L 606 401 L 607 400 L 608 400 L 609 399 L 609 398 L 611 396 L 612 396 L 611 395 L 612 394 L 615 394 L 616 395 L 616 396 L 615 397 L 616 398 L 616 399 L 617 400 L 619 398 L 620 399 L 620 400 L 618 402 L 616 402 L 614 400 L 613 401 L 615 403 L 614 404 L 614 405 L 613 406 L 612 406 L 611 405 L 610 405 L 609 404 L 608 405 L 607 405 L 606 404 L 604 406 L 602 404 L 601 404 L 600 403 L 600 402 L 600 404 L 599 405 L 598 404 L 598 403 L 598 404 L 597 405 L 596 405 L 595 404 L 596 403 L 595 404 L 595 405 L 594 406 L 593 406 L 592 405 L 593 404 L 592 405 L 591 405 L 590 404 L 591 403 L 591 402 L 591 403 L 589 405 L 587 403 L 587 401 L 588 400 L 589 401 L 589 402 L 589 401 L 590 400 L 591 400 L 592 399 L 593 399 L 594 398 L 595 398 L 597 396 L 596 395 "></path>
        <path fill="none" stroke="#00fafa" stroke-width="3" d="M 535 398 L 536 397 L 537 397 L 538 398 L 538 399 L 539 399 L 540 398 L 541 399 L 541 400 L 540 401 L 542 401 L 543 402 L 542 403 L 543 404 L 542 405 L 541 405 L 539 407 L 539 408 L 540 408 L 541 409 L 540 410 L 540 413 L 541 413 L 542 414 L 542 415 L 544 417 L 544 418 L 543 419 L 542 419 L 541 420 L 538 420 L 537 421 L 536 421 L 535 420 L 535 419 L 532 419 L 531 418 L 531 417 L 533 415 L 533 411 L 534 410 L 533 410 L 532 409 L 534 407 L 533 407 L 532 406 L 532 405 L 530 405 L 529 404 L 528 405 L 527 404 L 527 403 L 528 402 L 528 401 L 529 400 L 530 401 L 530 402 L 531 402 L 532 401 L 533 402 L 532 401 L 533 400 L 535 400 "></path>
        <path fill="none" stroke="#00fafa" stroke-width="3" d="M 523 427 L 524 428 L 525 427 L 526 428 L 526 429 L 525 430 L 527 430 L 528 431 L 530 431 L 532 429 L 534 429 L 534 428 L 535 427 L 536 428 L 537 427 L 538 428 L 539 427 L 540 427 L 541 428 L 540 429 L 541 430 L 542 429 L 543 430 L 543 432 L 543 431 L 544 430 L 546 432 L 545 433 L 545 435 L 544 436 L 543 435 L 543 434 L 543 436 L 541 438 L 540 438 L 539 439 L 538 438 L 538 437 L 537 438 L 535 436 L 534 437 L 533 437 L 532 436 L 531 436 L 530 435 L 530 434 L 528 436 L 526 436 L 524 438 L 523 438 L 522 439 L 521 439 L 520 438 L 521 437 L 518 434 L 519 433 L 519 432 L 520 431 L 519 430 L 520 429 L 521 429 "></path>
        <path fill="none" stroke="#00fafa" stroke-width="3" d="M 597 461 L 598 460 L 599 460 L 601 462 L 602 462 L 601 461 L 602 460 L 604 460 L 606 462 L 605 463 L 605 465 L 603 467 L 602 467 L 603 468 L 602 469 L 603 470 L 602 471 L 602 472 L 601 473 L 601 474 L 600 475 L 602 477 L 603 477 L 604 478 L 604 479 L 603 480 L 603 481 L 602 482 L 600 482 L 601 483 L 600 484 L 599 484 L 597 482 L 597 481 L 597 483 L 596 484 L 595 483 L 595 482 L 593 480 L 593 477 L 592 477 L 591 476 L 592 475 L 594 475 L 595 474 L 596 474 L 597 473 L 596 472 L 597 471 L 600 471 L 598 471 L 597 470 L 598 469 L 597 468 L 598 467 L 597 468 L 596 467 L 595 468 L 594 467 L 594 466 L 595 465 L 596 465 L 595 464 L 597 462 "></path>
        <path fill="none" stroke="#00fafa" stroke-width="3" d="M 565 489 L 566 488 L 571 488 L 572 489 L 572 490 L 573 491 L 573 493 L 574 494 L 572 496 L 571 496 L 570 497 L 569 497 L 569 498 L 568 499 L 569 499 L 570 500 L 571 500 L 572 501 L 570 503 L 571 504 L 571 506 L 571 505 L 572 504 L 573 505 L 573 507 L 574 508 L 573 509 L 572 509 L 571 510 L 570 510 L 569 509 L 567 511 L 565 511 L 564 512 L 563 511 L 563 509 L 562 508 L 563 507 L 563 505 L 564 504 L 562 502 L 564 500 L 566 502 L 566 503 L 566 502 L 565 501 L 565 500 L 566 499 L 565 500 L 564 499 L 564 498 L 563 497 L 565 495 L 565 494 L 566 493 L 566 492 L 568 490 L 567 490 L 566 491 L 565 490 "></path>
        <path fill="none" stroke="#00fafa" stroke-width="3" d="M 553 484 L 555 486 L 555 487 L 556 488 L 557 487 L 559 489 L 561 489 L 562 490 L 561 491 L 559 491 L 559 492 L 560 492 L 561 493 L 558 496 L 557 496 L 556 497 L 556 499 L 555 500 L 554 499 L 554 500 L 552 502 L 550 500 L 550 499 L 549 499 L 548 498 L 550 496 L 549 497 L 547 495 L 548 494 L 547 493 L 547 491 L 546 492 L 545 491 L 544 492 L 543 491 L 543 490 L 544 489 L 547 489 L 548 488 L 550 488 L 550 487 "></path>
        <path fill="none" stroke="#00fafa" stroke-width="3" d="M 509 350 L 510 350 L 511 351 L 511 352 L 510 353 L 509 353 L 511 353 L 512 354 L 512 355 L 514 357 L 512 359 L 513 359 L 514 360 L 514 361 L 513 362 L 511 362 L 512 363 L 511 364 L 510 364 L 509 363 L 508 364 L 508 368 L 507 369 L 506 368 L 505 368 L 504 367 L 505 366 L 506 366 L 506 365 L 505 365 L 504 364 L 505 363 L 505 362 L 504 361 L 504 360 L 502 360 L 501 361 L 500 360 L 499 360 L 498 359 L 498 357 L 499 356 L 500 357 L 499 356 L 500 355 L 502 355 L 504 353 L 503 352 L 504 351 L 505 351 L 506 352 L 507 352 "></path>
        <path fill="none" stroke="#00fafa" stroke-width="3" d="M 460 408 L 461 407 L 462 407 L 463 408 L 464 407 L 465 408 L 466 408 L 467 409 L 467 410 L 466 411 L 465 410 L 466 411 L 466 415 L 467 415 L 468 414 L 469 415 L 469 417 L 470 418 L 470 419 L 469 420 L 468 420 L 466 422 L 465 421 L 466 422 L 466 424 L 465 425 L 464 424 L 464 423 L 464 424 L 462 426 L 461 426 L 460 425 L 462 423 L 460 425 L 458 423 L 459 422 L 460 422 L 458 420 L 459 419 L 459 418 L 458 417 L 458 416 L 459 415 L 459 414 L 458 414 L 456 412 L 457 411 L 458 411 L 459 412 L 459 411 L 460 410 L 461 410 L 460 409 "></path>
        <path fill="none" stroke="#00fafa" stroke-width="3" d="M 432 351 L 434 351 L 435 352 L 434 353 L 435 353 L 436 354 L 437 354 L 438 355 L 438 356 L 440 354 L 441 355 L 443 355 L 444 356 L 443 357 L 443 358 L 442 359 L 441 358 L 441 357 L 440 358 L 439 358 L 438 359 L 437 359 L 438 360 L 436 362 L 434 362 L 433 363 L 433 364 L 434 365 L 433 366 L 432 366 L 430 364 L 428 364 L 427 363 L 428 362 L 424 358 L 424 356 L 426 354 L 427 354 L 428 353 L 430 353 "></path>
        <path fill="none" stroke="#00fafa" stroke-width="3" d="M 459 472 L 460 472 L 463 475 L 463 476 L 463 473 L 464 472 L 465 473 L 465 474 L 466 473 L 468 473 L 469 472 L 470 473 L 470 475 L 469 476 L 469 477 L 468 478 L 467 477 L 467 476 L 467 478 L 469 478 L 471 480 L 470 481 L 468 481 L 467 482 L 466 482 L 467 482 L 468 483 L 467 484 L 466 484 L 464 486 L 462 484 L 462 483 L 461 484 L 459 482 L 458 482 L 457 483 L 456 482 L 456 481 L 454 479 L 456 477 L 456 476 L 457 475 L 457 474 "></path>
        <path fill="none" stroke="#00fafa" stroke-width="3" d="M 641 488 L 642 487 L 643 488 L 644 487 L 645 487 L 647 489 L 648 488 L 649 489 L 649 490 L 651 490 L 652 491 L 651 492 L 648 492 L 647 493 L 648 492 L 649 493 L 649 494 L 648 495 L 647 495 L 647 496 L 648 497 L 645 500 L 644 499 L 643 500 L 642 499 L 640 499 L 639 500 L 638 499 L 638 497 L 637 496 L 637 495 L 636 495 L 635 494 L 635 493 L 634 493 L 633 492 L 635 490 L 636 491 L 638 489 L 639 489 L 640 490 L 641 489 "></path>
        <path fill="none" stroke="#00fafa" stroke-width="3" d="M 547 503 L 548 502 L 549 503 L 549 504 L 550 503 L 551 504 L 553 502 L 554 503 L 555 503 L 556 504 L 557 504 L 556 504 L 555 503 L 556 502 L 558 502 L 559 503 L 559 505 L 559 504 L 560 503 L 561 504 L 561 507 L 560 508 L 559 508 L 558 509 L 558 510 L 557 511 L 556 510 L 556 511 L 555 512 L 555 513 L 554 514 L 552 514 L 550 512 L 550 511 L 548 511 L 547 510 L 546 511 L 545 511 L 544 510 L 543 510 L 542 509 L 543 508 L 544 508 L 544 506 L 545 505 L 546 505 L 547 504 "></path>
        <path fill="none" stroke="#00fafa" stroke-width="3" d="M 402 396 L 403 397 L 403 398 L 403 397 L 404 396 L 405 397 L 405 398 L 406 398 L 408 400 L 408 401 L 410 403 L 409 404 L 409 406 L 408 407 L 407 407 L 405 409 L 405 410 L 404 411 L 403 411 L 402 410 L 403 409 L 403 408 L 402 408 L 400 410 L 399 409 L 399 408 L 400 407 L 399 406 L 399 405 L 398 404 L 396 406 L 394 404 L 395 403 L 395 401 L 396 400 L 398 400 "></path>
        <path fill="none" stroke="#00fafa" stroke-width="3" d="M 582 441 L 583 440 L 584 441 L 584 442 L 587 445 L 587 447 L 588 446 L 589 446 L 590 447 L 589 448 L 589 450 L 588 451 L 587 451 L 586 452 L 585 451 L 584 452 L 584 453 L 583 454 L 582 454 L 580 452 L 579 452 L 578 451 L 577 452 L 575 450 L 575 449 L 574 448 L 575 447 L 575 446 L 573 446 L 572 445 L 572 444 L 573 443 L 574 444 L 576 444 L 577 445 L 577 446 L 577 445 L 580 442 L 582 442 "></path>
        <path fill="none" stroke="#00fafa" stroke-width="3" d="M 428 458 L 429 457 L 430 457 L 431 458 L 432 458 L 433 457 L 434 458 L 435 458 L 436 457 L 437 458 L 437 459 L 438 459 L 439 460 L 439 461 L 438 462 L 439 462 L 441 464 L 440 465 L 439 465 L 438 464 L 437 464 L 438 465 L 437 466 L 436 466 L 435 467 L 436 468 L 435 469 L 434 469 L 433 470 L 432 469 L 433 470 L 432 471 L 431 471 L 430 470 L 430 469 L 429 468 L 429 467 L 428 467 L 427 466 L 427 464 L 426 463 L 426 462 L 428 460 "></path>
        <path fill="none" stroke="#00fafa" stroke-width="3" d="M 493 393 L 494 393 L 495 394 L 493 396 L 493 397 L 494 396 L 495 396 L 497 398 L 497 401 L 498 401 L 499 402 L 499 403 L 498 404 L 497 403 L 498 404 L 495 407 L 494 406 L 495 407 L 495 408 L 493 410 L 492 410 L 491 409 L 491 408 L 489 408 L 488 407 L 489 406 L 489 403 L 486 403 L 485 402 L 486 401 L 489 401 L 488 400 L 488 398 "></path>
        <path fill="none" stroke="#00fafa" stroke-width="3" d="M 612 349 L 613 350 L 613 351 L 614 352 L 613 353 L 614 352 L 616 354 L 616 356 L 617 357 L 618 356 L 619 357 L 619 360 L 618 361 L 617 361 L 616 360 L 616 361 L 615 362 L 615 364 L 614 365 L 612 365 L 611 364 L 610 364 L 609 363 L 610 362 L 609 363 L 608 363 L 607 364 L 606 363 L 606 362 L 607 361 L 608 361 L 607 361 L 606 360 L 606 359 L 607 358 L 608 358 L 608 357 L 609 356 L 608 356 L 607 355 L 609 353 L 610 353 L 611 352 L 610 351 "></path>
        <path fill="none" stroke="#00fafa" stroke-width="3" d="M 582 384 L 583 383 L 584 384 L 585 383 L 586 383 L 587 384 L 588 384 L 589 385 L 588 386 L 588 387 L 587 388 L 586 388 L 587 388 L 589 390 L 587 392 L 584 392 L 583 391 L 585 393 L 584 394 L 584 395 L 583 396 L 581 394 L 582 393 L 580 393 L 579 392 L 578 392 L 577 391 L 578 390 L 577 391 L 574 388 L 573 388 L 572 387 L 572 386 L 573 385 L 574 386 L 575 385 L 578 385 L 579 384 "></path>
        <path fill="none" stroke="#00fafa" stroke-width="3" d="M 665 410 L 666 409 L 667 409 L 668 410 L 669 410 L 670 411 L 670 412 L 671 412 L 672 411 L 673 412 L 673 413 L 674 413 L 675 414 L 677 414 L 678 415 L 679 415 L 680 416 L 678 418 L 677 417 L 678 418 L 671 425 L 669 423 L 668 423 L 667 422 L 668 421 L 667 421 L 666 420 L 667 419 L 666 418 L 666 417 L 668 415 L 667 414 L 667 413 L 668 412 L 667 412 "></path>
        <path fill="none" stroke="#00fafa" stroke-width="3" d="M 507 456 L 508 456 L 509 457 L 510 457 L 511 458 L 511 459 L 512 459 L 513 460 L 513 462 L 515 464 L 513 466 L 510 466 L 511 467 L 510 468 L 509 468 L 507 466 L 506 467 L 505 466 L 504 467 L 503 467 L 502 466 L 503 465 L 501 465 L 500 464 L 501 463 L 500 462 L 500 461 L 502 459 L 503 459 L 503 458 L 504 457 L 505 458 "></path>
        <path fill="none" stroke="#00fafa" stroke-width="3" d="M 608 367 L 609 366 L 612 366 L 615 369 L 616 368 L 617 369 L 617 371 L 618 371 L 620 373 L 618 375 L 617 375 L 618 376 L 617 377 L 616 377 L 615 378 L 613 378 L 612 379 L 610 377 L 609 377 L 608 376 L 607 376 L 606 375 L 608 373 L 607 373 L 606 372 L 609 369 L 610 369 "></path>
        <path fill="none" stroke="#00fafa" stroke-width="3" d="M 536 303 L 537 302 L 538 303 L 539 303 L 540 304 L 539 305 L 542 308 L 542 310 L 544 312 L 542 314 L 541 314 L 540 315 L 540 317 L 537 320 L 536 319 L 536 315 L 535 316 L 534 315 L 533 315 L 532 314 L 535 311 L 535 308 L 534 308 L 533 307 L 533 306 L 534 305 L 534 304 L 535 303 "></path>
        <path fill="none" stroke="#00fafa" stroke-width="3" d="M 504 427 L 505 426 L 506 427 L 507 426 L 508 427 L 508 428 L 509 429 L 510 429 L 511 428 L 512 429 L 512 431 L 513 430 L 514 431 L 514 432 L 512 434 L 513 435 L 511 437 L 510 436 L 509 437 L 509 438 L 508 439 L 508 440 L 507 441 L 506 441 L 505 440 L 506 439 L 506 438 L 505 438 L 504 437 L 504 436 L 502 434 L 502 433 L 501 432 L 502 431 L 502 430 L 504 428 "></path>
        <path fill="none" stroke="#00fafa" stroke-width="3" d="M 492 425 L 493 424 L 494 425 L 494 426 L 495 427 L 495 428 L 494 429 L 493 428 L 493 429 L 495 429 L 497 431 L 497 434 L 499 436 L 498 437 L 495 437 L 496 438 L 495 439 L 494 439 L 492 441 L 490 439 L 491 438 L 492 438 L 490 436 L 491 435 L 490 434 L 490 433 L 489 433 L 486 430 L 487 429 L 488 429 L 488 428 L 487 427 L 489 425 L 491 427 L 492 426 "></path>
        <path fill="none" stroke="#00fafa" stroke-width="3" d="M 523 411 L 524 411 L 525 412 L 524 413 L 525 412 L 526 413 L 526 414 L 527 414 L 528 415 L 527 416 L 527 417 L 526 418 L 527 419 L 526 420 L 526 421 L 524 423 L 524 424 L 523 425 L 519 425 L 518 424 L 519 423 L 517 421 L 517 419 L 516 418 L 518 416 L 519 416 L 519 415 "></path>
        <path fill="none" stroke="#00fafa" stroke-width="3" d="M 535 502 L 536 501 L 538 501 L 540 503 L 540 505 L 541 505 L 542 506 L 541 507 L 542 508 L 542 509 L 539 512 L 540 513 L 540 514 L 539 515 L 538 514 L 539 515 L 538 516 L 539 517 L 538 518 L 538 519 L 537 520 L 536 519 L 536 518 L 535 518 L 534 517 L 535 516 L 535 514 L 536 513 L 535 512 L 536 511 L 535 511 L 534 510 L 533 510 L 532 509 L 533 508 L 534 508 L 534 505 L 533 504 L 534 503 L 536 503 "></path>
        <path fill="none" stroke="#00fafa" stroke-width="3" d="M 533 321 L 534 320 L 535 320 L 536 321 L 537 320 L 538 321 L 539 321 L 540 322 L 539 323 L 537 323 L 537 324 L 539 324 L 542 327 L 542 330 L 541 331 L 541 332 L 543 334 L 543 335 L 542 336 L 541 335 L 540 336 L 539 336 L 538 337 L 537 336 L 537 335 L 536 334 L 538 332 L 536 330 L 534 330 L 533 329 L 534 328 L 534 326 L 535 325 L 534 326 L 532 324 L 533 323 "></path>
        <path fill="none" stroke="#00fafa" stroke-width="3" d="M 550 412 L 551 411 L 553 411 L 554 412 L 554 413 L 555 414 L 556 414 L 557 415 L 558 415 L 559 416 L 558 417 L 555 417 L 554 416 L 554 419 L 552 421 L 552 422 L 553 422 L 554 423 L 553 424 L 554 425 L 553 426 L 552 426 L 551 427 L 550 427 L 549 426 L 549 425 L 550 424 L 550 422 L 549 421 L 549 420 L 548 420 L 547 421 L 546 420 L 546 419 L 545 418 L 545 416 L 546 415 L 548 415 L 549 414 L 550 414 L 551 413 "></path>
        <path fill="none" stroke="#00fafa" stroke-width="3" d="M 568 292 L 569 291 L 570 291 L 571 292 L 571 293 L 574 296 L 573 297 L 574 297 L 575 298 L 575 299 L 574 300 L 573 299 L 573 300 L 572 301 L 571 301 L 570 300 L 569 301 L 568 300 L 569 301 L 568 302 L 567 302 L 566 301 L 565 301 L 565 302 L 564 303 L 563 302 L 563 299 L 562 299 L 561 298 L 561 297 L 562 296 L 562 295 L 563 294 L 564 294 L 565 295 L 567 293 L 569 293 "></path>
        <path fill="none" stroke="#00fafa" stroke-width="3" d="M 583 396 L 584 395 L 585 396 L 585 397 L 586 398 L 585 399 L 586 400 L 586 401 L 587 402 L 587 403 L 588 404 L 588 405 L 587 406 L 586 405 L 587 406 L 586 407 L 585 407 L 585 408 L 584 409 L 582 407 L 580 407 L 579 406 L 579 404 L 578 403 L 578 401 L 577 400 L 577 399 L 578 398 L 579 398 L 580 397 L 581 398 L 581 397 L 582 396 "></path>
        <path fill="none" stroke="#00fafa" stroke-width="3" d="M 520 399 L 521 398 L 523 398 L 524 399 L 525 398 L 526 399 L 528 399 L 529 400 L 528 401 L 528 402 L 527 403 L 527 404 L 526 405 L 526 406 L 525 407 L 525 409 L 524 410 L 520 406 L 521 405 L 518 405 L 517 404 L 517 403 L 516 403 L 515 402 L 516 401 L 516 400 L 517 399 "></path>
        <path fill="none" stroke="#00fafa" stroke-width="3" d="M 597 486 L 598 487 L 599 486 L 600 487 L 600 488 L 601 489 L 601 491 L 599 493 L 600 492 L 601 493 L 601 494 L 602 495 L 600 497 L 601 498 L 601 499 L 599 501 L 598 501 L 597 500 L 597 499 L 596 498 L 596 497 L 597 496 L 598 496 L 597 496 L 596 495 L 595 495 L 594 494 L 594 493 L 593 493 L 592 494 L 591 493 L 591 492 L 592 491 L 593 491 L 593 490 "></path>
        <path fill="none" stroke="#00fafa" stroke-width="3" d="M 506 470 L 507 469 L 511 473 L 511 474 L 512 475 L 511 476 L 512 476 L 513 477 L 512 478 L 511 478 L 512 478 L 513 479 L 512 480 L 512 481 L 511 482 L 509 480 L 509 479 L 508 478 L 507 479 L 505 479 L 504 478 L 503 479 L 501 477 L 500 478 L 499 477 L 499 476 L 500 475 L 503 475 L 506 472 L 507 472 L 506 471 "></path>
        <path fill="none" stroke="#00fafa" stroke-width="3" d="M 469 415 L 470 414 L 471 415 L 472 415 L 473 416 L 475 414 L 477 414 L 478 415 L 477 416 L 476 416 L 477 416 L 478 417 L 478 415 L 479 414 L 480 414 L 481 415 L 481 416 L 483 418 L 482 419 L 483 418 L 484 419 L 484 420 L 483 421 L 482 421 L 481 422 L 480 421 L 479 422 L 478 421 L 477 422 L 476 421 L 477 422 L 476 423 L 475 423 L 474 422 L 474 420 L 475 419 L 475 418 L 474 418 L 473 419 L 472 419 L 471 418 L 471 417 L 470 418 L 469 417 "></path>
        <path fill="none" stroke="#00fafa" stroke-width="3" d="M 551 380 L 552 379 L 553 380 L 553 382 L 554 383 L 554 384 L 555 385 L 555 386 L 554 387 L 555 386 L 557 388 L 557 389 L 556 390 L 555 389 L 554 390 L 553 390 L 554 391 L 553 392 L 551 392 L 550 393 L 549 393 L 548 392 L 548 391 L 547 390 L 547 389 L 548 388 L 549 389 L 549 388 L 550 387 L 549 386 L 548 386 L 547 385 L 547 384 L 548 383 L 549 384 L 548 383 L 548 382 L 549 381 L 552 384 L 551 385 L 552 384 L 550 382 L 551 381 "></path>
        <path fill="none" stroke="#00fafa" stroke-width="3" d="M 459 531 L 460 530 L 462 532 L 461 533 L 462 533 L 463 532 L 465 532 L 466 533 L 465 534 L 464 534 L 465 534 L 466 533 L 468 533 L 469 534 L 467 536 L 466 536 L 466 540 L 463 543 L 462 542 L 462 540 L 461 540 L 460 539 L 460 538 L 461 537 L 458 534 L 459 533 "></path>
        <path fill="none" stroke="#00fafa" stroke-width="3" d="M 507 443 L 508 442 L 512 446 L 511 447 L 512 448 L 512 449 L 511 450 L 509 450 L 508 451 L 507 450 L 506 451 L 504 451 L 503 450 L 503 448 L 502 448 L 501 447 L 502 446 L 502 445 L 504 443 "></path>
        <path fill="none" stroke="#00fafa" stroke-width="3" d="M 432 487 L 433 487 L 434 488 L 433 489 L 435 489 L 439 493 L 440 492 L 442 492 L 443 493 L 442 494 L 441 494 L 441 495 L 442 496 L 442 497 L 441 498 L 441 499 L 440 500 L 439 500 L 438 499 L 437 499 L 436 498 L 437 497 L 438 497 L 438 495 L 436 495 L 435 494 L 434 495 L 433 494 L 433 493 L 434 492 L 435 492 L 434 491 L 434 492 L 433 493 L 431 491 L 431 490 L 430 489 "></path>
        <path fill="none" stroke="#00fafa" stroke-width="3" d="M 449 352 L 450 351 L 452 353 L 452 354 L 451 355 L 450 355 L 451 355 L 453 357 L 453 359 L 452 360 L 450 358 L 446 362 L 445 361 L 445 360 L 444 359 L 444 358 L 443 357 L 444 356 L 444 355 L 445 354 L 445 353 L 446 352 "></path>
        <path fill="none" stroke="#00fafa" stroke-width="3" d="M 537 294 L 538 293 L 539 293 L 540 294 L 541 294 L 542 293 L 545 296 L 544 297 L 544 298 L 543 299 L 542 298 L 542 299 L 540 301 L 539 301 L 538 302 L 537 302 L 536 303 L 534 301 L 534 300 L 535 299 L 535 297 L 537 295 L 538 295 "></path>
        <path fill="none" stroke="#00fafa" stroke-width="3" d="M 491 414 L 492 413 L 493 413 L 494 414 L 493 415 L 494 414 L 495 415 L 496 415 L 496 414 L 497 413 L 498 414 L 498 415 L 499 416 L 499 417 L 500 418 L 499 419 L 497 419 L 496 420 L 496 421 L 495 422 L 494 422 L 493 421 L 494 420 L 493 421 L 491 419 L 489 419 L 488 418 L 489 417 L 491 417 L 489 415 L 490 414 "></path>
    </g>
</svg>
