<svg xmlns="http://www.w3.org/2000/svg" xmlns:xlink="http://www.w3.org/1999/xlink" version="1.1" x="0" y="0" width="1056px" height="816px">
    <g id="rootLayer" transform="translate(0.000000, 0.000000)">
        <path fill="none" stroke="#00fafa" stroke-width="3" d="M 522 443 L 523 442 L 524 443 L 525 443 L 527 445 L 528 445 L 529 446 L 529 448 L 528 449 L 528 451 L 527 452 L 526 452 L 524 454 L 524 455 L 523 456 L 522 455 L 522 456 L 521 457 L 520 456 L 520 453 L 517 450 L 517 448 L 516 447 L 517 446 L 518 446 L 518 444 L 519 443 "></path>
        <path fill="none" stroke="#00fafa" stroke-width="3" d="M 553 397 L 554 396 L 555 397 L 557 397 L 559 399 L 559 400 L 558 401 L 558 403 L 557 404 L 557 406 L 556 407 L 555 406 L 554 407 L 553 407 L 552 406 L 549 406 L 548 405 L 549 406 L 548 407 L 547 407 L 546 406 L 546 402 L 548 400 L 548 399 L 549 398 L 550 399 L 552 397 "></path>
        <path fill="none" stroke="#00fafa" stroke-width="3" d="M 522 470 L 523 469 L 525 469 L 526 470 L 526 471 L 527 471 L 528 472 L 528 473 L 527 474 L 528 474 L 529 475 L 528 476 L 529 477 L 529 479 L 527 481 L 525 481 L 524 480 L 523 480 L 521 478 L 521 477 L 521 478 L 520 479 L 518 477 L 519 476 L 518 475 L 517 476 L 516 475 L 516 474 L 517 473 L 517 472 L 518 471 L 519 472 L 520 471 L 521 472 L 520 471 L 521 470 "></path>
        <path fill="none" stroke="#00fafa" stroke-width="3" d="M 535 301 L 536 301 L 537 302 L 537 303 L 536 304 L 537 303 L 540 303 L 541 304 L 541 305 L 542 304 L 541 303 L 542 302 L 544 302 L 546 304 L 546 305 L 545 306 L 543 306 L 542 307 L 543 306 L 544 306 L 545 307 L 546 307 L 548 309 L 547 310 L 546 310 L 545 309 L 544 310 L 541 310 L 540 311 L 539 311 L 539 313 L 540 312 L 542 314 L 541 315 L 539 315 L 539 316 L 538 317 L 537 316 L 539 318 L 537 320 L 536 320 L 535 319 L 536 318 L 534 318 L 533 317 L 534 316 L 533 317 L 532 316 L 532 315 L 534 313 L 535 313 L 534 312 L 534 310 L 535 309 L 534 308 L 534 307 L 534 309 L 533 310 L 531 308 L 532 307 L 531 306 L 532 305 L 533 305 L 533 303 "></path>
        <path fill="none" stroke="#00fafa" stroke-width="3" d="M 544 284 L 545 283 L 546 284 L 547 283 L 548 283 L 549 284 L 549 286 L 548 287 L 547 286 L 546 287 L 545 287 L 544 288 L 544 290 L 543 291 L 542 291 L 543 292 L 542 293 L 541 293 L 542 294 L 540 296 L 539 296 L 538 297 L 537 297 L 536 298 L 536 300 L 535 301 L 534 300 L 532 300 L 531 301 L 530 301 L 529 300 L 530 299 L 529 299 L 528 298 L 529 297 L 529 296 L 530 295 L 531 296 L 531 297 L 532 298 L 532 297 L 534 295 L 535 296 L 534 295 L 533 296 L 531 294 L 533 292 L 534 292 L 531 292 L 530 291 L 531 290 L 532 290 L 533 289 L 534 290 L 535 289 L 536 289 L 537 290 L 536 289 L 536 286 L 537 285 L 538 286 L 538 287 L 539 286 L 540 286 L 541 285 L 542 285 L 543 284 L 544 285 "></path>
        <path fill="none" stroke="#00fafa" stroke-width="3" d="M 510 315 L 511 316 L 511 318 L 510 319 L 511 320 L 511 323 L 511 320 L 512 319 L 513 320 L 513 321 L 514 320 L 515 321 L 515 322 L 516 322 L 517 323 L 516 324 L 515 324 L 516 324 L 517 323 L 518 324 L 520 324 L 521 325 L 518 328 L 517 328 L 516 329 L 517 330 L 516 331 L 515 331 L 515 336 L 514 337 L 513 337 L 512 336 L 513 337 L 513 338 L 512 339 L 511 339 L 510 338 L 510 334 L 511 333 L 510 332 L 511 331 L 513 331 L 512 330 L 511 330 L 510 329 L 510 326 L 511 325 L 510 325 L 508 323 L 509 322 L 508 323 L 507 323 L 506 322 L 508 320 L 508 317 "></path>
        <path fill="none" stroke="#00fafa" stroke-width="3" d="M 541 315 L 542 314 L 544 314 L 545 315 L 544 316 L 543 316 L 543 317 L 544 318 L 545 317 L 547 319 L 546 320 L 545 320 L 546 321 L 545 322 L 544 322 L 543 321 L 542 321 L 544 323 L 545 322 L 546 322 L 547 323 L 545 325 L 544 325 L 543 326 L 543 327 L 542 328 L 541 328 L 540 329 L 539 328 L 539 327 L 540 326 L 541 326 L 540 325 L 540 324 L 541 323 L 540 323 L 539 322 L 540 321 L 538 323 L 537 323 L 536 322 L 537 321 L 537 320 L 539 318 L 540 319 L 542 319 L 540 317 L 541 316 "></path>
        <path fill="none" stroke="#00fafa" stroke-width="3" d="M 522 292 L 524 294 L 524 295 L 525 294 L 527 294 L 528 295 L 527 296 L 526 296 L 527 297 L 526 298 L 525 298 L 525 299 L 524 300 L 522 300 L 520 298 L 519 299 L 519 300 L 521 302 L 520 303 L 514 303 L 513 302 L 518 297 L 518 296 L 519 295 L 520 296 L 519 295 "></path>
        <path fill="none" stroke="#00fafa" stroke-width="3" d="M 552 295 L 554 297 L 555 297 L 555 296 L 556 295 L 557 296 L 558 296 L 559 297 L 558 298 L 559 299 L 558 300 L 561 300 L 562 301 L 561 302 L 561 304 L 560 305 L 559 304 L 558 305 L 557 304 L 555 304 L 554 303 L 555 302 L 556 302 L 552 302 L 551 301 L 552 300 L 552 298 L 552 299 L 551 300 L 550 299 L 550 297 "></path>
        <path fill="none" stroke="#00fafa" stroke-width="3" d="M 529 277 L 530 276 L 532 278 L 533 277 L 534 278 L 534 279 L 532 281 L 531 281 L 530 282 L 529 282 L 528 283 L 527 282 L 525 284 L 523 282 L 523 281 L 524 280 L 525 281 L 525 280 L 523 278 L 524 277 L 525 277 L 527 279 L 527 280 L 528 279 L 527 279 L 526 278 L 527 277 "></path>
        <path fill="none" stroke="#00fafa" stroke-width="3" d="M 508 291 L 509 290 L 510 290 L 512 292 L 512 293 L 511 294 L 512 294 L 513 295 L 514 294 L 515 295 L 515 296 L 514 297 L 512 297 L 512 300 L 510 302 L 509 301 L 509 300 L 508 299 L 509 298 L 510 298 L 508 296 L 508 294 L 509 293 L 509 292 "></path>
        <path fill="none" stroke="#00fafa" stroke-width="3" d="M 527 298 L 528 298 L 529 299 L 529 300 L 528 301 L 528 303 L 526 305 L 525 304 L 524 304 L 522 306 L 521 305 L 521 304 L 520 303 L 521 302 L 519 300 L 520 299 L 521 299 L 522 300 L 525 300 L 526 301 L 525 302 L 523 302 L 526 302 L 526 301 L 525 300 "></path>
        <path fill="none" stroke="#00fafa" stroke-width="3" d="M 534 279 L 535 278 L 536 278 L 538 280 L 539 280 L 540 281 L 538 283 L 537 283 L 537 284 L 536 285 L 534 285 L 533 284 L 534 285 L 533 286 L 532 286 L 531 285 L 531 282 L 532 281 L 533 282 L 534 282 L 535 281 L 535 280 "></path>
        <path fill="none" stroke="#00fafa" stroke-width="3" d="M 510 304 L 511 303 L 513 303 L 514 304 L 514 305 L 516 303 L 518 305 L 517 306 L 518 307 L 518 308 L 516 310 L 515 309 L 514 310 L 513 309 L 513 308 L 512 308 L 511 307 L 512 306 L 512 305 L 511 305 "></path>
        <path fill="none" stroke="#00fafa" stroke-width="3" d="M 520 314 L 521 314 L 522 315 L 521 316 L 522 316 L 523 315 L 525 317 L 524 318 L 523 318 L 524 319 L 524 320 L 523 321 L 524 322 L 523 323 L 522 323 L 521 322 L 521 321 L 520 321 L 519 320 L 520 319 L 520 318 L 518 316 "></path>
        <path fill="none" stroke="#00fafa" stroke-width="3" d="M 560 322 L 561 323 L 561 324 L 559 326 L 561 324 L 562 325 L 562 327 L 561 328 L 559 328 L 558 329 L 557 328 L 557 326 L 557 327 L 556 328 L 554 326 L 557 323 L 558 324 "></path>
        <path fill="none" stroke="#00fafa" stroke-width="3" d="M 517 293 L 518 294 L 518 297 L 514 301 L 512 299 L 512 298 L 513 297 L 514 297 L 515 296 L 515 295 "></path>
        <path fill="none" stroke="#00fafa" stroke-width="3" d="M 521 307 L 522 308 L 522 309 L 521 310 L 521 312 L 520 313 L 519 312 L 519 311 L 518 312 L 517 312 L 516 311 L 517 310 L 517 309 L 518 308 L 519 309 "></path>
        <path fill="none" stroke="#00fafa" stroke-width="3" d="M 519 271 L 520 270 L 521 271 L 522 270 L 523 270 L 524 271 L 524 272 L 523 273 L 523 274 L 521 276 L 520 275 L 520 273 L 519 272 "></path>
        <path fill="none" stroke="#00fafa" stroke-width="3" d="M 549 308 L 550 307 L 551 307 L 552 308 L 552 309 L 553 310 L 553 311 L 552 312 L 551 311 L 549 313 L 548 312 L 548 311 L 549 310 "></path>
        <path fill="none" stroke="#00fafa" stroke-width="3" d="M 534 323 L 535 322 L 536 323 L 536 324 L 537 325 L 536 326 L 537 327 L 536 328 L 533 328 L 532 327 L 533 326 L 533 325 L 534 324 "></path>
        <path fill="none" stroke="#00fafa" stroke-width="3" d="M 557 311 L 558 311 L 559 312 L 560 312 L 561 313 L 561 315 L 560 316 L 559 315 L 559 314 L 558 314 L 557 315 L 555 313 "></path>
        <path fill="none" stroke="#00fafa" stroke-width="3" d="M 554 303 L 555 304 L 557 304 L 558 305 L 557 306 L 556 306 L 556 307 L 555 308 L 554 308 L 553 307 L 553 306 L 552 305 "></path>
        <path fill="none" stroke="#00fafa" stroke-width="3" d="M 545 312 L 546 311 L 548 313 L 547 314 L 548 314 L 549 315 L 548 316 L 546 316 L 545 315 L 545 314 L 544 314 L 543 313 L 544 312 "></path>
        <path fill="none" stroke="#00fafa" stroke-width="3" d="M 550 277 L 551 276 L 552 277 L 552 278 L 551 279 L 552 280 L 551 281 L 550 281 L 549 282 L 548 281 L 548 280 L 549 279 L 548 278 L 549 277 "></path>
        <path fill="none" stroke="#00fafa" stroke-width="3" d="M 520 278 L 521 277 L 522 277 L 524 279 L 524 280 L 521 283 L 520 282 L 520 281 L 521 280 L 521 279 "></path>
        <path fill="none" stroke="#00fafa" stroke-width="3" d="M 525 312 L 526 311 L 527 312 L 527 314 L 528 315 L 526 317 L 525 317 L 524 316 L 525 315 L 524 314 L 525 313 "></path>
        <path fill="none" stroke="#00fafa" stroke-width="3" d="M 523 361 L 524 360 L 526 362 L 527 361 L 528 362 L 528 364 L 527 365 L 526 364 L 525 364 L 523 362 "></path>
        <path fill="none" stroke="#00fafa" stroke-width="3" d="M 551 314 L 552 313 L 554 315 L 553 316 L 551 316 L 549 318 L 548 317 L 548 316 L 550 314 "></path>
        <path fill="none" stroke="#00fafa" stroke-width="3" d="M 507 308 L 508 307 L 509 308 L 509 309 L 510 310 L 508 312 L 507 311 L 507 310 L 506 311 L 505 310 L 505 309 L 506 308 "></path>
        <path fill="none" stroke="#00fafa" stroke-width="3" d="M 518 330 L 519 331 L 520 331 L 522 333 L 521 334 L 520 334 L 519 333 L 517 333 L 516 332 "></path>
        <path fill="none" stroke="#00fafa" stroke-width="3" d="M 525 323 L 526 322 L 528 324 L 527 325 L 526 325 L 525 326 L 524 325 L 523 325 L 522 324 L 523 323 "></path>
        <path fill="none" stroke="#00fafa" stroke-width="3" d="M 556 307 L 557 306 L 558 306 L 560 308 L 560 310 L 559 311 L 558 311 L 557 310 L 558 309 "></path>
        <path fill="none" stroke="#00fafa" stroke-width="3" d="M 542 278 L 543 277 L 544 277 L 545 278 L 545 279 L 546 280 L 546 281 L 545 282 L 544 282 L 543 281 L 543 279 "></path>
        <path fill="none" stroke="#00fafa" stroke-width="3" d="M 506 315 L 507 316 L 507 318 L 508 319 L 507 320 L 506 320 L 504 318 L 504 317 "></path>
        <path fill="none" stroke="#00fafa" stroke-width="3" d="M 512 317 L 513 316 L 514 316 L 517 319 L 516 320 L 514 320 L 513 319 L 513 318 "></path>
        <path fill="none" stroke="#00fafa" stroke-width="3" d="M 543 299 L 544 298 L 547 298 L 548 299 L 547 300 L 547 301 L 546 302 "></path>
        <path fill="none" stroke="#00fafa" stroke-width="3" d="M 575 337 L 576 336 L 578 338 L 578 339 L 577 340 L 576 340 L 575 341 L 574 340 L 574 339 L 575 338 "></path>
        <path fill="none" stroke="#00fafa" stroke-width="3" d="M 504 302 L 505 301 L 506 301 L 507 302 L 506 303 L 506 306 L 505 307 L 504 306 "></path>
        <path fill="none" stroke="#00fafa" stroke-width="3" d="M 525 289 L 526 288 L 527 289 L 527 290 L 528 291 L 527 292 L 524 292 L 523 291 L 524 290 L 525 290 "></path>
        <path fill="none" stroke="#00fafa" stroke-width="3" d="M 538 323 L 539 322 L 540 323 L 540 324 L 539 325 L 539 326 L 538 327 L 537 326 L 537 325 L 536 324 L 537 323 "></path>
        <path fill="none" stroke="#00fafa" stroke-width="3" d="M 533 340 L 534 341 L 534 344 L 533 345 L 532 345 L 531 344 L 532 343 L 531 342 "></path>
        <path fill="none" stroke="#00fafa" stroke-width="3" d="M 521 264 L 522 263 L 523 264 L 524 263 L 525 264 L 525 265 L 524 266 L 523 266 L 522 267 L 521 266 "></path>
        <path fill="none" stroke="#00fafa" stroke-width="3" d="M 570 362 L 571 361 L 572 362 L 572 363 L 571 364 L 570 364 L 569 365 L 568 365 L 567 364 L 569 362 "></path>
    </g>
</svg>
