<svg xmlns="http://www.w3.org/2000/svg" xmlns:xlink="http://www.w3.org/1999/xlink" version="1.1" x="0" y="0" width="1056px" height="816px">
    <g id="rootLayer" transform="translate(0.000000, 0.000000)">
        <path fill="none" stroke="#00fafa" stroke-width="3" d="M 547 539 L 548 538 L 551 538 L 555 542 L 555 548 L 556 549 L 556 550 L 557 551 L 558 551 L 559 552 L 561 552 L 562 553 L 563 553 L 564 552 L 566 552 L 571 547 L 573 547 L 576 550 L 576 551 L 579 554 L 579 557 L 578 558 L 578 562 L 579 563 L 579 564 L 580 565 L 580 569 L 579 570 L 578 570 L 577 571 L 575 571 L 574 572 L 573 572 L 569 576 L 569 577 L 568 578 L 568 579 L 567 580 L 567 581 L 566 582 L 566 583 L 565 584 L 565 585 L 564 586 L 564 592 L 563 593 L 563 595 L 561 597 L 561 598 L 560 599 L 560 600 L 559 601 L 559 603 L 560 604 L 560 605 L 564 609 L 565 609 L 567 611 L 567 616 L 566 617 L 566 623 L 567 624 L 567 625 L 568 626 L 568 627 L 567 628 L 567 629 L 565 631 L 565 632 L 564 633 L 564 640 L 563 641 L 555 641 L 551 645 L 551 652 L 552 653 L 552 654 L 553 655 L 553 657 L 552 658 L 551 658 L 550 657 L 547 657 L 546 656 L 543 656 L 542 657 L 539 657 L 538 656 L 538 652 L 539 651 L 539 647 L 538 646 L 538 644 L 536 642 L 535 642 L 534 641 L 525 641 L 524 640 L 524 630 L 523 629 L 523 625 L 524 624 L 524 623 L 525 622 L 525 621 L 529 617 L 529 616 L 531 614 L 531 613 L 532 612 L 532 610 L 531 609 L 531 607 L 526 602 L 526 601 L 521 596 L 520 596 L 519 595 L 516 595 L 515 594 L 513 594 L 511 592 L 511 572 L 512 571 L 514 571 L 515 570 L 519 570 L 520 569 L 521 569 L 522 568 L 523 568 L 524 567 L 524 566 L 526 564 L 526 556 L 525 555 L 525 553 L 526 552 L 526 549 L 527 548 L 527 542 L 528 541 L 532 541 L 533 540 L 536 540 L 537 539 "></path>
        <path fill="none" stroke="#00fafa" stroke-width="3" d="M 684 481 L 685 480 L 688 480 L 692 484 L 693 484 L 694 485 L 700 485 L 701 484 L 702 484 L 705 481 L 707 481 L 708 480 L 713 480 L 715 482 L 715 487 L 716 488 L 716 490 L 717 491 L 717 494 L 716 495 L 716 497 L 715 498 L 715 504 L 714 505 L 712 505 L 709 502 L 709 497 L 708 496 L 708 494 L 705 491 L 704 491 L 703 490 L 699 490 L 698 491 L 697 491 L 695 493 L 695 495 L 694 496 L 694 498 L 692 500 L 689 500 L 688 501 L 687 501 L 684 504 L 684 505 L 683 506 L 683 509 L 684 510 L 684 511 L 685 512 L 685 513 L 686 514 L 687 514 L 688 515 L 689 515 L 690 516 L 697 516 L 702 521 L 702 525 L 701 526 L 701 527 L 700 528 L 700 529 L 698 531 L 697 531 L 693 527 L 692 527 L 691 526 L 686 526 L 685 527 L 684 527 L 682 529 L 682 530 L 681 531 L 681 532 L 680 533 L 680 536 L 681 537 L 681 538 L 686 543 L 687 543 L 688 544 L 692 544 L 693 543 L 694 543 L 697 540 L 697 538 L 698 537 L 698 536 L 699 535 L 700 535 L 702 537 L 702 538 L 703 539 L 703 540 L 700 543 L 699 543 L 699 544 L 698 545 L 698 547 L 697 548 L 698 549 L 698 552 L 699 553 L 699 554 L 700 555 L 700 561 L 701 562 L 701 564 L 702 565 L 702 571 L 701 572 L 701 578 L 702 579 L 702 581 L 701 582 L 693 582 L 692 583 L 688 583 L 687 582 L 687 579 L 688 578 L 688 577 L 689 576 L 689 573 L 688 572 L 688 570 L 687 569 L 687 567 L 688 566 L 688 565 L 689 564 L 689 563 L 691 561 L 691 560 L 692 559 L 692 558 L 693 557 L 693 554 L 691 552 L 690 552 L 689 551 L 683 551 L 682 550 L 674 550 L 672 552 L 671 552 L 670 553 L 670 554 L 669 555 L 669 561 L 670 562 L 670 563 L 672 565 L 672 566 L 673 567 L 673 570 L 672 571 L 672 573 L 671 574 L 671 577 L 672 578 L 672 580 L 670 582 L 669 581 L 668 581 L 667 580 L 666 580 L 665 579 L 660 579 L 659 580 L 658 580 L 657 581 L 657 582 L 656 583 L 656 584 L 655 585 L 655 589 L 656 590 L 656 592 L 657 593 L 657 594 L 658 595 L 658 596 L 656 598 L 655 597 L 653 597 L 652 596 L 651 596 L 648 593 L 648 589 L 647 588 L 647 586 L 646 585 L 646 584 L 645 583 L 645 574 L 646 573 L 646 572 L 647 571 L 649 571 L 650 570 L 654 570 L 655 569 L 656 569 L 660 565 L 660 564 L 661 563 L 661 556 L 660 555 L 660 554 L 659 553 L 659 549 L 660 548 L 660 543 L 662 541 L 664 543 L 665 543 L 667 545 L 669 545 L 670 546 L 671 546 L 672 545 L 674 545 L 676 543 L 676 542 L 677 541 L 677 536 L 676 535 L 676 534 L 672 530 L 672 529 L 671 528 L 671 525 L 674 522 L 674 521 L 675 520 L 675 519 L 676 518 L 676 512 L 675 511 L 675 510 L 674 509 L 674 508 L 671 505 L 669 505 L 668 504 L 664 504 L 662 502 L 662 498 L 663 497 L 665 497 L 666 496 L 669 496 L 670 495 L 671 495 L 674 492 L 674 491 L 675 490 L 675 488 L 676 487 L 676 486 L 678 484 L 679 484 L 680 483 L 681 483 L 683 481 "></path>
        <path fill="none" stroke="#00fafa" stroke-width="3" d="M 376 270 L 383 270 L 385 272 L 385 277 L 386 278 L 386 280 L 387 281 L 387 285 L 386 286 L 386 287 L 384 289 L 384 295 L 385 296 L 385 302 L 384 303 L 384 307 L 385 308 L 385 315 L 384 316 L 384 322 L 385 323 L 385 325 L 386 326 L 386 328 L 385 329 L 385 331 L 384 332 L 384 341 L 385 342 L 385 343 L 389 347 L 390 347 L 391 348 L 393 348 L 394 349 L 396 349 L 397 348 L 399 348 L 400 347 L 401 347 L 402 346 L 403 346 L 404 345 L 405 345 L 406 346 L 408 346 L 409 347 L 409 349 L 402 356 L 402 357 L 400 359 L 400 360 L 399 361 L 399 362 L 398 363 L 396 363 L 393 360 L 392 360 L 390 358 L 389 358 L 388 357 L 387 357 L 386 356 L 385 356 L 384 355 L 380 355 L 379 354 L 378 354 L 377 353 L 377 344 L 376 343 L 376 342 L 374 340 L 372 340 L 371 339 L 367 339 L 366 340 L 361 340 L 360 339 L 360 329 L 356 325 L 355 325 L 354 324 L 345 324 L 341 328 L 341 329 L 340 330 L 340 333 L 339 334 L 339 336 L 337 338 L 337 339 L 336 340 L 336 341 L 335 342 L 335 347 L 336 348 L 336 349 L 338 351 L 338 353 L 337 354 L 336 354 L 335 355 L 332 355 L 330 353 L 330 347 L 329 346 L 329 345 L 328 344 L 328 339 L 329 338 L 329 333 L 330 332 L 330 323 L 329 322 L 329 321 L 328 320 L 327 320 L 326 319 L 323 319 L 322 320 L 321 320 L 317 324 L 316 324 L 315 323 L 315 321 L 314 320 L 314 315 L 315 314 L 321 314 L 322 313 L 324 313 L 325 312 L 329 312 L 330 313 L 331 313 L 332 314 L 334 314 L 335 315 L 337 315 L 338 314 L 340 314 L 344 310 L 344 308 L 345 307 L 345 304 L 346 303 L 346 302 L 347 301 L 349 301 L 350 300 L 353 300 L 355 298 L 356 298 L 357 297 L 359 297 L 360 298 L 361 298 L 362 299 L 363 299 L 364 300 L 370 300 L 372 298 L 373 298 L 374 297 L 374 296 L 376 294 L 376 293 L 377 292 L 377 285 L 376 284 L 376 283 L 375 282 L 375 276 L 374 275 L 374 272 "></path>
        <path fill="none" stroke="#00fafa" stroke-width="3" d="M 735 271 L 736 270 L 740 270 L 741 271 L 742 271 L 745 274 L 745 277 L 746 278 L 746 279 L 747 280 L 747 281 L 749 283 L 750 283 L 751 284 L 760 284 L 761 285 L 761 292 L 762 293 L 762 294 L 763 295 L 763 296 L 766 299 L 771 299 L 772 298 L 773 298 L 774 297 L 775 297 L 776 296 L 781 296 L 782 297 L 788 297 L 789 296 L 790 296 L 792 294 L 794 294 L 796 296 L 796 298 L 795 299 L 795 300 L 793 302 L 793 309 L 794 310 L 794 312 L 790 316 L 790 317 L 789 318 L 789 322 L 790 323 L 790 324 L 792 326 L 793 326 L 794 327 L 795 327 L 796 328 L 806 328 L 808 330 L 808 332 L 807 333 L 807 340 L 806 341 L 798 341 L 797 342 L 796 342 L 795 343 L 794 343 L 793 344 L 792 344 L 791 343 L 790 343 L 789 342 L 787 342 L 786 341 L 785 341 L 784 342 L 782 342 L 781 343 L 780 343 L 779 344 L 776 344 L 773 341 L 771 341 L 770 340 L 767 340 L 766 339 L 766 338 L 765 337 L 765 334 L 764 333 L 764 331 L 763 330 L 763 329 L 762 328 L 762 327 L 763 326 L 763 323 L 764 322 L 764 320 L 763 319 L 763 316 L 769 310 L 769 305 L 768 304 L 768 303 L 766 301 L 762 301 L 761 302 L 758 302 L 757 303 L 756 303 L 755 304 L 754 304 L 753 305 L 750 305 L 748 303 L 748 301 L 747 300 L 747 297 L 746 296 L 746 294 L 745 293 L 745 292 L 743 290 L 742 290 L 741 289 L 738 289 L 737 290 L 736 290 L 733 293 L 733 294 L 732 295 L 732 298 L 731 299 L 731 301 L 730 302 L 730 306 L 729 307 L 729 308 L 728 309 L 727 309 L 726 310 L 722 310 L 720 308 L 720 304 L 719 303 L 719 301 L 717 299 L 717 298 L 716 297 L 715 297 L 714 296 L 713 296 L 712 295 L 711 295 L 709 293 L 709 291 L 710 290 L 710 289 L 711 288 L 711 287 L 712 286 L 712 285 L 714 283 L 715 283 L 716 282 L 718 282 L 719 283 L 720 283 L 721 284 L 723 284 L 724 285 L 727 285 L 728 284 L 729 284 L 730 283 L 731 283 L 733 281 L 733 280 L 734 279 L 734 275 L 735 274 "></path>
        <path fill="none" stroke="#00fafa" stroke-width="3" d="M 492 225 L 493 224 L 495 224 L 496 225 L 497 225 L 498 226 L 499 226 L 500 227 L 504 227 L 505 226 L 507 226 L 508 225 L 516 225 L 519 228 L 519 229 L 518 230 L 518 231 L 516 233 L 515 233 L 514 234 L 513 234 L 512 235 L 511 235 L 510 236 L 510 237 L 509 238 L 509 239 L 508 240 L 508 243 L 509 244 L 509 246 L 508 247 L 508 249 L 506 251 L 506 252 L 504 254 L 504 256 L 503 257 L 503 263 L 504 264 L 504 265 L 510 271 L 510 273 L 506 277 L 506 279 L 505 280 L 505 283 L 506 284 L 506 285 L 509 288 L 511 288 L 512 289 L 513 289 L 514 288 L 517 288 L 518 289 L 518 292 L 517 293 L 511 293 L 510 294 L 508 294 L 507 295 L 506 295 L 505 296 L 505 297 L 504 298 L 504 299 L 503 300 L 503 305 L 500 308 L 498 308 L 497 309 L 494 309 L 491 306 L 491 298 L 489 296 L 489 295 L 488 295 L 486 293 L 479 293 L 478 294 L 471 294 L 470 293 L 469 293 L 467 291 L 467 290 L 466 289 L 466 288 L 468 286 L 475 286 L 476 285 L 478 285 L 479 284 L 480 284 L 482 282 L 482 281 L 483 280 L 483 273 L 482 272 L 482 271 L 477 266 L 476 266 L 475 265 L 474 265 L 469 260 L 469 258 L 471 256 L 473 256 L 474 255 L 475 255 L 477 253 L 478 253 L 479 252 L 479 251 L 480 250 L 480 249 L 481 248 L 481 242 L 480 241 L 480 238 L 479 237 L 479 235 L 480 234 L 480 229 L 482 227 L 487 227 L 488 226 L 489 226 L 490 225 "></path>
        <path fill="none" stroke="#00fafa" stroke-width="3" d="M 302 330 L 304 330 L 307 333 L 307 334 L 308 335 L 308 336 L 309 337 L 309 338 L 312 341 L 312 345 L 311 346 L 311 347 L 310 348 L 310 355 L 311 356 L 311 360 L 310 361 L 310 368 L 311 369 L 311 370 L 314 373 L 315 373 L 316 374 L 324 374 L 326 376 L 326 386 L 327 387 L 327 388 L 331 392 L 338 392 L 340 394 L 340 395 L 341 396 L 341 400 L 342 401 L 342 402 L 341 403 L 341 406 L 340 407 L 340 412 L 338 414 L 333 414 L 331 412 L 331 409 L 330 408 L 330 406 L 329 405 L 329 404 L 326 401 L 325 401 L 324 400 L 318 400 L 317 401 L 316 401 L 315 402 L 314 402 L 313 403 L 311 403 L 310 402 L 309 402 L 308 401 L 306 401 L 305 400 L 300 400 L 299 399 L 299 393 L 298 392 L 298 390 L 297 389 L 297 388 L 298 387 L 298 386 L 300 384 L 300 383 L 301 382 L 301 377 L 299 375 L 299 374 L 297 372 L 297 371 L 298 370 L 298 368 L 299 367 L 299 360 L 295 356 L 288 356 L 287 357 L 285 357 L 284 358 L 283 358 L 282 357 L 282 354 L 283 353 L 283 345 L 284 344 L 289 344 L 290 345 L 291 345 L 292 344 L 294 344 L 295 343 L 296 343 L 297 342 L 297 341 L 298 340 L 298 339 L 299 338 L 299 334 L 300 333 L 300 332 "></path>
        <path fill="none" stroke="#00fafa" stroke-width="3" d="M 569 255 L 570 255 L 571 256 L 578 256 L 579 255 L 589 255 L 590 256 L 592 256 L 593 257 L 593 263 L 594 264 L 594 266 L 596 268 L 597 268 L 598 269 L 599 269 L 600 270 L 603 270 L 604 271 L 606 271 L 608 273 L 608 277 L 607 278 L 607 280 L 606 281 L 606 284 L 607 285 L 607 287 L 608 288 L 606 290 L 603 290 L 602 289 L 602 288 L 601 287 L 601 286 L 600 285 L 600 284 L 596 280 L 595 280 L 594 279 L 588 279 L 587 280 L 581 280 L 580 279 L 579 279 L 578 278 L 577 278 L 576 277 L 569 277 L 568 278 L 567 278 L 562 283 L 562 284 L 561 285 L 561 287 L 560 288 L 560 295 L 561 296 L 561 297 L 560 298 L 557 295 L 557 293 L 556 292 L 556 286 L 557 285 L 557 275 L 556 274 L 556 273 L 554 271 L 554 270 L 553 270 L 552 269 L 552 268 L 554 266 L 555 267 L 557 267 L 558 268 L 559 268 L 560 269 L 564 269 L 568 265 L 568 260 L 567 259 L 567 257 "></path>
        <path fill="none" stroke="#00fafa" stroke-width="3" d="M 657 450 L 659 450 L 660 451 L 663 451 L 664 452 L 667 452 L 669 454 L 669 455 L 670 456 L 670 459 L 671 460 L 671 462 L 670 463 L 670 468 L 669 469 L 669 472 L 667 474 L 661 474 L 660 475 L 659 475 L 656 478 L 656 479 L 653 482 L 652 482 L 651 483 L 648 483 L 646 485 L 645 485 L 645 486 L 643 488 L 643 489 L 642 490 L 642 491 L 639 494 L 638 494 L 636 492 L 636 491 L 635 490 L 635 489 L 633 487 L 633 486 L 632 485 L 632 483 L 631 482 L 631 480 L 630 479 L 630 476 L 631 475 L 631 473 L 632 472 L 632 470 L 634 468 L 635 468 L 636 469 L 637 469 L 638 470 L 639 470 L 640 471 L 644 471 L 645 470 L 646 470 L 647 469 L 647 468 L 648 467 L 648 461 L 647 460 L 647 457 L 648 456 L 648 455 L 649 454 L 651 454 L 652 453 L 653 453 L 654 452 L 655 452 "></path>
        <path fill="none" stroke="#00fafa" stroke-width="3" d="M 686 284 L 687 283 L 689 283 L 690 284 L 691 284 L 695 288 L 695 289 L 696 290 L 696 292 L 699 295 L 700 295 L 702 297 L 702 299 L 701 300 L 701 301 L 700 302 L 700 311 L 701 312 L 701 315 L 704 318 L 705 318 L 706 319 L 708 319 L 709 318 L 710 318 L 711 317 L 712 317 L 713 316 L 714 316 L 715 317 L 715 319 L 716 320 L 716 328 L 715 329 L 715 330 L 714 331 L 714 337 L 715 338 L 715 343 L 714 344 L 714 345 L 713 346 L 713 347 L 712 348 L 712 350 L 711 351 L 711 353 L 709 355 L 706 355 L 705 354 L 705 347 L 704 346 L 704 340 L 705 339 L 705 337 L 706 336 L 706 333 L 705 332 L 705 331 L 700 326 L 698 326 L 697 325 L 692 325 L 691 324 L 691 322 L 695 318 L 695 317 L 696 316 L 696 313 L 695 312 L 695 311 L 692 308 L 692 307 L 691 306 L 691 304 L 690 303 L 690 301 L 689 300 L 689 299 L 688 298 L 688 297 L 687 297 L 685 295 L 677 295 L 675 293 L 675 291 L 676 290 L 676 289 L 679 286 L 681 286 L 682 285 L 683 285 L 684 284 "></path>
        <path fill="none" stroke="#00fafa" stroke-width="3" d="M 652 353 L 653 353 L 655 355 L 655 357 L 648 364 L 648 365 L 647 366 L 647 372 L 649 374 L 649 375 L 650 376 L 650 379 L 649 380 L 649 385 L 650 386 L 650 387 L 654 391 L 655 391 L 658 394 L 655 397 L 654 397 L 653 398 L 652 398 L 651 399 L 651 400 L 650 401 L 650 402 L 649 403 L 649 405 L 648 406 L 648 407 L 646 409 L 646 410 L 644 412 L 644 413 L 643 414 L 642 414 L 641 415 L 640 414 L 637 414 L 636 413 L 635 413 L 634 412 L 634 411 L 637 408 L 637 406 L 638 405 L 638 402 L 637 401 L 637 400 L 635 398 L 635 397 L 634 396 L 634 392 L 639 387 L 639 386 L 640 385 L 640 381 L 636 377 L 635 377 L 634 376 L 633 376 L 632 375 L 632 374 L 631 373 L 631 371 L 632 370 L 632 369 L 634 367 L 635 367 L 637 365 L 638 365 L 638 364 L 639 363 L 639 361 L 642 358 L 646 358 L 647 357 L 648 357 "></path>
        <path fill="none" stroke="#00fafa" stroke-width="3" d="M 642 207 L 644 207 L 645 208 L 646 208 L 647 209 L 651 209 L 652 210 L 654 210 L 655 211 L 655 218 L 656 219 L 656 220 L 660 224 L 670 224 L 671 225 L 671 233 L 669 235 L 664 235 L 663 236 L 661 236 L 660 237 L 659 237 L 658 238 L 656 238 L 651 233 L 651 232 L 650 232 L 648 230 L 644 230 L 641 233 L 641 235 L 640 236 L 640 248 L 639 249 L 637 249 L 636 248 L 636 247 L 635 246 L 635 245 L 634 244 L 634 243 L 632 241 L 632 240 L 630 238 L 630 237 L 629 236 L 630 235 L 630 232 L 631 231 L 631 228 L 630 227 L 630 224 L 629 223 L 629 217 L 630 216 L 630 214 L 633 211 L 635 213 L 635 215 L 634 216 L 634 221 L 635 222 L 635 223 L 636 224 L 637 224 L 638 225 L 643 225 L 644 224 L 645 224 L 645 223 L 646 222 L 646 221 L 647 220 L 647 218 L 646 217 L 646 216 L 645 215 L 645 214 L 644 214 L 642 212 L 641 212 L 639 210 "></path>
        <path fill="none" stroke="#00fafa" stroke-width="3" d="M 362 227 L 364 227 L 366 229 L 366 231 L 363 234 L 363 240 L 365 242 L 366 242 L 369 245 L 369 246 L 370 247 L 370 248 L 371 248 L 375 252 L 375 255 L 370 260 L 370 261 L 365 266 L 363 266 L 362 265 L 361 265 L 360 264 L 359 264 L 357 262 L 354 262 L 353 261 L 349 261 L 348 260 L 345 260 L 344 259 L 342 259 L 341 258 L 341 257 L 344 254 L 345 254 L 346 253 L 347 253 L 349 251 L 349 250 L 350 249 L 350 240 L 349 239 L 349 237 L 345 233 L 345 232 L 347 230 L 359 230 "></path>
        <path fill="none" stroke="#00fafa" stroke-width="3" d="M 248 338 L 249 337 L 252 337 L 256 341 L 256 342 L 258 344 L 259 344 L 260 345 L 265 345 L 267 347 L 267 352 L 268 353 L 268 355 L 269 356 L 269 358 L 268 359 L 268 361 L 267 362 L 267 367 L 268 368 L 268 369 L 269 370 L 269 373 L 268 374 L 268 375 L 266 377 L 266 386 L 265 387 L 264 387 L 263 386 L 255 386 L 253 384 L 253 381 L 252 380 L 252 377 L 251 376 L 251 375 L 250 374 L 250 372 L 251 371 L 251 370 L 252 369 L 252 368 L 253 367 L 253 364 L 252 363 L 252 361 L 251 360 L 251 356 L 253 354 L 253 353 L 254 352 L 254 348 L 248 342 L 248 341 L 247 340 L 248 339 "></path>
        <path fill="none" stroke="#00fafa" stroke-width="3" d="M 652 270 L 653 269 L 656 269 L 657 270 L 659 270 L 660 271 L 661 271 L 662 272 L 663 272 L 665 274 L 666 274 L 668 276 L 668 277 L 669 278 L 667 280 L 662 280 L 661 281 L 660 281 L 659 282 L 658 282 L 656 284 L 656 285 L 655 286 L 655 294 L 656 295 L 656 301 L 655 302 L 655 308 L 656 309 L 656 311 L 657 312 L 657 313 L 656 314 L 656 315 L 655 316 L 650 316 L 649 315 L 648 315 L 647 314 L 646 314 L 642 310 L 641 310 L 639 308 L 639 307 L 636 304 L 636 302 L 637 301 L 638 301 L 639 300 L 640 300 L 644 296 L 644 295 L 645 294 L 645 287 L 644 286 L 644 281 L 646 279 L 646 278 L 647 277 L 647 276 L 648 275 L 648 273 L 651 270 "></path>
        <path fill="none" stroke="#00fafa" stroke-width="3" d="M 553 448 L 554 447 L 557 447 L 558 448 L 564 448 L 567 451 L 567 452 L 564 455 L 563 455 L 562 456 L 552 456 L 551 457 L 550 457 L 549 458 L 548 458 L 547 459 L 547 460 L 546 461 L 546 462 L 545 463 L 545 471 L 543 473 L 543 474 L 541 476 L 538 476 L 537 475 L 536 475 L 535 474 L 534 474 L 533 473 L 532 473 L 531 472 L 530 472 L 529 471 L 527 471 L 526 470 L 524 470 L 523 469 L 521 469 L 519 467 L 519 456 L 520 455 L 521 456 L 521 457 L 522 458 L 523 458 L 525 460 L 527 460 L 528 461 L 530 461 L 531 460 L 534 460 L 535 459 L 536 459 L 537 458 L 538 458 L 544 452 L 545 452 L 546 451 L 547 451 L 548 450 L 549 450 L 550 449 L 551 449 L 552 448 "></path>
        <path fill="none" stroke="#00fafa" stroke-width="3" d="M 653 156 L 654 155 L 662 155 L 663 156 L 664 156 L 665 157 L 665 158 L 666 159 L 666 167 L 663 170 L 662 170 L 661 171 L 660 171 L 659 172 L 658 172 L 657 173 L 657 174 L 656 175 L 655 175 L 651 171 L 651 169 L 650 168 L 650 165 L 649 164 L 649 163 L 648 162 L 647 163 L 646 163 L 643 166 L 643 167 L 642 168 L 642 173 L 643 174 L 643 175 L 644 176 L 644 178 L 643 179 L 641 179 L 640 178 L 639 178 L 638 177 L 632 177 L 631 178 L 630 178 L 629 179 L 627 179 L 626 178 L 626 174 L 627 173 L 627 172 L 628 171 L 628 168 L 627 167 L 627 164 L 626 163 L 626 162 L 627 161 L 628 161 L 629 162 L 630 162 L 631 163 L 632 163 L 633 164 L 636 164 L 637 163 L 638 163 L 641 160 L 642 160 L 643 159 L 646 159 L 647 158 L 648 158 L 650 156 "></path>
        <path fill="none" stroke="#00fafa" stroke-width="3" d="M 445 270 L 446 269 L 450 269 L 451 270 L 452 270 L 453 271 L 454 271 L 456 273 L 456 274 L 452 278 L 451 278 L 445 284 L 445 285 L 444 286 L 444 294 L 445 295 L 445 296 L 446 297 L 446 298 L 447 299 L 447 300 L 449 302 L 450 302 L 452 304 L 453 304 L 454 305 L 455 305 L 457 307 L 457 310 L 455 312 L 451 312 L 450 311 L 447 311 L 445 309 L 444 309 L 443 308 L 443 307 L 442 306 L 442 304 L 441 303 L 441 302 L 437 298 L 437 297 L 436 296 L 436 287 L 435 286 L 435 273 L 438 270 "></path>
        <path fill="none" stroke="#00fafa" stroke-width="3" d="M 340 268 L 341 267 L 343 267 L 346 270 L 347 270 L 348 271 L 349 271 L 350 272 L 353 272 L 354 273 L 355 273 L 356 274 L 356 278 L 354 280 L 345 280 L 341 284 L 341 286 L 340 287 L 340 292 L 337 295 L 334 295 L 333 296 L 329 296 L 328 295 L 328 293 L 329 292 L 329 288 L 328 287 L 328 285 L 327 284 L 327 280 L 328 279 L 328 277 L 329 276 L 329 273 L 330 272 L 330 271 L 331 270 L 332 270 L 333 269 L 337 269 L 338 268 "></path>
        <path fill="none" stroke="#00fafa" stroke-width="3" d="M 311 419 L 312 418 L 315 418 L 316 419 L 318 419 L 319 420 L 324 420 L 325 421 L 325 423 L 326 424 L 326 430 L 325 431 L 323 431 L 322 430 L 316 430 L 315 431 L 314 431 L 311 434 L 311 436 L 310 437 L 310 440 L 311 441 L 311 445 L 310 446 L 306 446 L 305 445 L 303 445 L 301 443 L 301 441 L 300 440 L 300 437 L 299 436 L 299 435 L 298 434 L 298 427 L 299 426 L 299 424 L 301 422 L 305 422 L 306 421 L 308 421 L 310 419 "></path>
        <path fill="none" stroke="#00fafa" stroke-width="3" d="M 249 320 L 250 320 L 251 321 L 256 321 L 257 322 L 262 322 L 263 323 L 265 323 L 266 324 L 267 324 L 268 325 L 269 325 L 270 326 L 271 326 L 272 327 L 273 327 L 274 328 L 279 328 L 280 327 L 281 327 L 283 329 L 282 330 L 282 341 L 281 342 L 270 342 L 269 341 L 269 339 L 268 338 L 268 334 L 267 333 L 267 332 L 265 330 L 265 329 L 264 329 L 263 328 L 262 328 L 260 330 L 260 331 L 257 334 L 254 334 L 253 335 L 249 335 L 247 333 L 247 332 L 246 331 L 246 324 L 247 323 L 247 322 "></path>
        <path fill="none" stroke="#00fafa" stroke-width="3" d="M 468 531 L 469 532 L 469 533 L 470 534 L 470 535 L 471 536 L 471 537 L 472 538 L 472 539 L 473 540 L 473 541 L 474 542 L 474 544 L 475 545 L 475 552 L 471 556 L 471 557 L 470 558 L 470 559 L 469 560 L 469 562 L 468 563 L 467 563 L 466 562 L 466 559 L 465 558 L 465 555 L 464 554 L 464 553 L 460 549 L 459 549 L 458 548 L 451 548 L 450 549 L 448 549 L 447 550 L 445 550 L 441 546 L 441 545 L 440 544 L 440 542 L 441 541 L 443 541 L 444 540 L 450 540 L 451 541 L 453 541 L 454 542 L 456 542 L 457 541 L 459 541 L 460 540 L 461 540 L 465 536 L 465 535 L 466 534 L 466 533 "></path>
        <path fill="none" stroke="#00fafa" stroke-width="3" d="M 392 467 L 393 466 L 395 466 L 397 468 L 397 469 L 398 470 L 398 472 L 399 473 L 399 474 L 400 475 L 400 476 L 402 478 L 402 479 L 406 483 L 406 484 L 408 486 L 408 487 L 406 489 L 405 489 L 403 491 L 402 491 L 400 493 L 400 494 L 398 496 L 397 496 L 396 497 L 395 497 L 394 498 L 393 498 L 392 499 L 391 499 L 388 502 L 386 500 L 386 499 L 385 498 L 385 496 L 386 495 L 386 494 L 387 493 L 388 493 L 390 491 L 390 490 L 391 489 L 391 481 L 390 480 L 390 477 L 391 476 L 391 469 L 392 468 "></path>
        <path fill="none" stroke="#00fafa" stroke-width="3" d="M 715 578 L 723 578 L 726 581 L 726 585 L 725 586 L 725 587 L 724 588 L 723 588 L 722 589 L 719 589 L 718 590 L 716 590 L 715 591 L 715 592 L 712 595 L 710 595 L 709 596 L 708 596 L 703 601 L 703 602 L 702 603 L 702 608 L 703 609 L 703 611 L 704 612 L 704 614 L 703 615 L 701 615 L 700 614 L 699 614 L 698 613 L 697 613 L 696 612 L 695 612 L 693 610 L 694 609 L 694 608 L 695 607 L 695 606 L 697 604 L 697 603 L 699 601 L 699 599 L 701 597 L 701 596 L 705 592 L 705 591 L 706 590 L 706 589 L 709 586 L 710 586 L 711 585 L 711 584 L 712 583 L 712 582 L 713 581 L 713 580 "></path>
        <path fill="none" stroke="#00fafa" stroke-width="3" d="M 583 171 L 584 170 L 588 170 L 590 172 L 590 174 L 591 175 L 591 178 L 592 179 L 592 180 L 593 181 L 593 184 L 591 186 L 590 186 L 589 187 L 587 187 L 586 186 L 585 186 L 584 185 L 582 185 L 582 186 L 583 186 L 585 188 L 585 193 L 582 196 L 577 196 L 576 197 L 575 197 L 574 198 L 573 198 L 571 196 L 572 195 L 572 194 L 574 192 L 574 191 L 575 190 L 575 188 L 576 187 L 576 185 L 578 183 L 578 173 L 579 172 L 580 172 L 581 171 "></path>
        <path fill="none" stroke="#00fafa" stroke-width="3" d="M 325 523 L 326 522 L 327 522 L 328 523 L 330 523 L 331 524 L 333 524 L 334 525 L 336 525 L 338 527 L 338 529 L 339 530 L 339 534 L 337 536 L 333 536 L 332 537 L 330 537 L 329 538 L 326 538 L 325 537 L 322 537 L 321 536 L 320 536 L 319 537 L 316 537 L 315 538 L 314 538 L 313 539 L 312 539 L 311 538 L 311 537 L 313 535 L 313 534 L 314 533 L 314 531 L 315 530 L 315 527 L 318 524 L 322 524 L 323 523 "></path>
        <path fill="none" stroke="#00fafa" stroke-width="3" d="M 453 398 L 454 398 L 458 402 L 458 403 L 460 405 L 460 414 L 461 415 L 461 416 L 462 417 L 463 417 L 464 418 L 465 418 L 466 419 L 466 420 L 467 421 L 466 422 L 466 424 L 465 425 L 465 426 L 463 428 L 461 428 L 457 424 L 457 423 L 450 416 L 449 416 L 446 413 L 446 412 L 447 411 L 447 410 L 449 408 L 449 406 L 450 405 L 450 403 L 451 402 L 451 400 "></path>
        <path fill="none" stroke="#00fafa" stroke-width="3" d="M 678 373 L 682 373 L 683 374 L 683 377 L 682 378 L 682 381 L 683 382 L 683 384 L 684 385 L 684 386 L 685 387 L 685 389 L 684 390 L 684 391 L 682 393 L 682 395 L 681 396 L 681 397 L 679 399 L 678 399 L 677 400 L 675 400 L 674 401 L 672 401 L 671 402 L 669 402 L 667 400 L 667 399 L 666 398 L 666 396 L 668 394 L 669 394 L 671 392 L 672 392 L 674 390 L 674 389 L 675 388 L 675 387 L 676 386 L 676 379 L 675 378 L 675 376 "></path>
        <path fill="none" stroke="#00fafa" stroke-width="3" d="M 395 418 L 398 418 L 399 419 L 400 419 L 403 422 L 403 423 L 407 427 L 407 428 L 406 429 L 405 429 L 400 434 L 400 435 L 399 436 L 399 442 L 396 445 L 395 445 L 394 444 L 393 444 L 392 443 L 392 440 L 391 439 L 391 435 L 390 434 L 390 430 L 391 429 L 391 427 L 392 426 L 392 424 L 393 423 L 393 420 "></path>
        <path fill="none" stroke="#00fafa" stroke-width="3" d="M 597 194 L 598 193 L 601 193 L 602 194 L 603 194 L 604 195 L 607 195 L 608 194 L 610 194 L 611 193 L 615 193 L 618 196 L 618 198 L 621 201 L 621 202 L 623 204 L 621 206 L 619 206 L 618 207 L 615 207 L 614 208 L 613 208 L 612 207 L 611 207 L 610 206 L 609 206 L 608 205 L 606 205 L 605 204 L 601 204 L 599 202 L 599 200 L 598 199 L 598 196 L 597 195 "></path>
        <path fill="none" stroke="#00fafa" stroke-width="3" d="M 666 409 L 667 409 L 668 410 L 668 411 L 669 412 L 669 425 L 667 427 L 663 427 L 662 428 L 660 428 L 659 429 L 658 429 L 657 430 L 654 430 L 653 429 L 652 429 L 648 425 L 648 422 L 649 421 L 655 421 L 656 420 L 657 420 L 660 417 L 660 416 L 661 415 L 661 414 "></path>
        <path fill="none" stroke="#00fafa" stroke-width="3" d="M 615 289 L 616 288 L 622 288 L 624 290 L 624 292 L 625 293 L 625 296 L 626 297 L 626 298 L 630 302 L 630 303 L 628 305 L 628 306 L 624 310 L 620 310 L 619 309 L 617 309 L 616 308 L 616 299 L 615 298 L 615 295 L 614 294 L 614 293 L 613 292 L 613 290 L 614 289 "></path>
        <path fill="none" stroke="#00fafa" stroke-width="3" d="M 479 675 L 480 674 L 489 674 L 491 676 L 491 679 L 492 680 L 492 682 L 497 687 L 497 692 L 494 695 L 492 695 L 491 694 L 491 693 L 490 692 L 490 691 L 486 687 L 483 687 L 482 686 L 480 686 L 479 685 "></path>
        <path fill="none" stroke="#00fafa" stroke-width="3" d="M 382 561 L 383 560 L 389 560 L 390 561 L 392 561 L 393 562 L 393 568 L 392 569 L 392 571 L 390 573 L 386 573 L 385 574 L 382 574 L 381 575 L 377 575 L 376 576 L 374 576 L 373 577 L 372 577 L 371 578 L 370 578 L 369 577 L 369 576 L 371 574 L 372 574 L 373 573 L 374 573 L 375 572 L 375 571 L 378 568 L 378 567 L 379 566 L 379 564 L 380 563 L 380 562 L 381 561 "></path>
        <path fill="none" stroke="#00fafa" stroke-width="3" d="M 431 599 L 432 598 L 434 598 L 435 599 L 437 599 L 438 600 L 439 600 L 441 602 L 441 603 L 442 604 L 442 609 L 441 610 L 440 610 L 439 611 L 437 611 L 436 612 L 435 612 L 434 613 L 430 613 L 429 612 L 428 612 L 423 607 L 423 606 L 421 604 L 421 603 L 422 602 L 423 602 L 424 601 L 426 601 L 427 600 L 428 600 L 429 599 "></path>
        <path fill="none" stroke="#00fafa" stroke-width="3" d="M 777 461 L 778 460 L 779 460 L 780 461 L 780 463 L 779 464 L 779 465 L 778 466 L 778 467 L 777 468 L 777 474 L 775 476 L 765 476 L 763 474 L 763 473 L 764 472 L 764 471 L 763 470 L 763 467 L 762 466 L 762 463 L 763 462 L 767 462 L 768 463 L 772 463 L 773 462 L 775 462 L 776 461 "></path>
        <path fill="none" stroke="#00fafa" stroke-width="3" d="M 677 588 L 679 588 L 682 591 L 682 594 L 686 594 L 688 596 L 685 599 L 683 599 L 681 597 L 681 600 L 680 601 L 679 601 L 678 602 L 677 602 L 676 603 L 671 603 L 670 604 L 668 604 L 667 603 L 667 599 L 668 598 L 668 595 L 669 594 L 669 593 L 670 592 L 671 592 L 672 591 L 673 591 L 674 590 L 675 590 "></path>
        <path fill="none" stroke="#00fafa" stroke-width="3" d="M 661 249 L 662 248 L 665 248 L 666 249 L 673 249 L 674 250 L 674 253 L 672 255 L 669 255 L 669 259 L 667 261 L 665 261 L 664 260 L 662 260 L 661 259 L 659 259 L 658 258 L 655 258 L 654 257 L 653 257 L 652 256 L 652 254 L 653 253 L 653 252 L 656 249 "></path>
        <path fill="none" stroke="#00fafa" stroke-width="3" d="M 489 655 L 490 654 L 492 654 L 495 657 L 496 657 L 497 658 L 499 658 L 500 659 L 501 659 L 502 658 L 505 658 L 506 657 L 507 658 L 507 661 L 506 662 L 506 664 L 505 665 L 505 670 L 503 672 L 499 672 L 498 671 L 496 671 L 494 669 L 494 665 L 493 664 L 493 663 L 492 662 L 492 661 L 489 658 "></path>
        <path fill="none" stroke="#00fafa" stroke-width="3" d="M 637 510 L 638 509 L 642 509 L 643 510 L 645 510 L 646 511 L 648 511 L 649 512 L 650 512 L 653 515 L 653 518 L 652 519 L 650 519 L 649 520 L 644 520 L 643 521 L 641 521 L 640 520 L 637 520 L 636 519 L 634 519 L 632 517 L 632 515 L 631 514 L 632 513 L 632 512 L 634 510 "></path>
        <path fill="none" stroke="#00fafa" stroke-width="3" d="M 447 160 L 448 159 L 450 161 L 450 163 L 449 164 L 449 165 L 447 167 L 447 168 L 446 169 L 446 173 L 444 175 L 438 175 L 437 174 L 436 174 L 435 173 L 435 172 L 434 171 L 434 169 L 433 168 L 433 167 L 432 166 L 432 165 L 431 164 L 431 163 L 433 161 L 434 161 L 435 162 L 438 162 L 439 163 L 440 163 L 441 162 L 443 162 L 444 161 L 445 161 L 446 160 "></path>
        <path fill="none" stroke="#00fafa" stroke-width="3" d="M 514 650 L 515 649 L 516 649 L 518 651 L 520 651 L 521 652 L 525 652 L 528 655 L 528 656 L 529 657 L 529 658 L 532 661 L 532 662 L 533 663 L 533 665 L 532 666 L 527 666 L 526 665 L 524 665 L 523 664 L 519 664 L 516 661 L 516 654 L 514 652 "></path>
        <path fill="none" stroke="#00fafa" stroke-width="3" d="M 436 506 L 438 506 L 440 508 L 440 509 L 441 510 L 441 511 L 442 512 L 442 513 L 443 514 L 443 516 L 441 518 L 438 518 L 437 519 L 429 519 L 428 518 L 427 518 L 426 517 L 424 517 L 421 514 L 421 513 L 423 511 L 427 511 L 428 510 L 430 510 L 431 509 L 432 509 L 433 508 L 434 508 "></path>
        <path fill="none" stroke="#00fafa" stroke-width="3" d="M 347 421 L 348 420 L 349 421 L 353 421 L 354 422 L 354 423 L 355 424 L 355 435 L 354 436 L 354 443 L 353 444 L 349 444 L 347 442 L 347 440 L 348 439 L 348 433 L 347 432 L 347 431 L 346 430 L 346 428 L 345 427 L 345 422 L 346 421 "></path>
        <path fill="none" stroke="#00fafa" stroke-width="3" d="M 638 188 L 639 187 L 646 187 L 647 188 L 647 195 L 646 196 L 645 196 L 644 197 L 639 197 L 638 198 L 634 198 L 629 193 L 629 192 L 628 191 L 628 189 L 629 188 "></path>
        <path fill="none" stroke="#00fafa" stroke-width="3" d="M 420 178 L 423 178 L 424 179 L 429 179 L 431 181 L 431 182 L 432 183 L 432 191 L 431 192 L 426 192 L 425 191 L 422 191 L 419 188 L 419 184 L 418 183 L 418 180 "></path>
        <path fill="none" stroke="#00fafa" stroke-width="3" d="M 279 364 L 281 364 L 283 366 L 284 366 L 287 369 L 287 370 L 288 371 L 288 376 L 289 377 L 289 380 L 287 382 L 286 382 L 285 381 L 284 381 L 283 380 L 282 380 L 281 379 L 280 379 L 277 376 L 277 366 "></path>
        <path fill="none" stroke="#00fafa" stroke-width="3" d="M 666 603 L 667 603 L 668 604 L 668 605 L 667 606 L 667 607 L 664 610 L 664 616 L 663 617 L 663 620 L 662 621 L 660 621 L 658 619 L 657 619 L 656 618 L 655 618 L 653 616 L 653 610 L 655 608 L 658 608 L 659 607 L 662 607 "></path>
        <path fill="none" stroke="#00fafa" stroke-width="3" d="M 497 629 L 502 629 L 503 630 L 504 630 L 506 632 L 506 635 L 507 636 L 507 637 L 508 638 L 508 642 L 507 643 L 506 643 L 505 642 L 502 642 L 501 641 L 496 641 L 495 640 L 495 631 "></path>
        <path fill="none" stroke="#00fafa" stroke-width="3" d="M 562 305 L 563 306 L 563 307 L 564 308 L 564 317 L 563 318 L 563 320 L 560 323 L 557 323 L 556 324 L 553 324 L 552 323 L 552 319 L 557 314 L 557 313 L 558 312 L 558 311 L 559 310 L 559 309 L 560 308 L 560 307 "></path>
        <path fill="none" stroke="#00fafa" stroke-width="3" d="M 566 208 L 569 208 L 570 209 L 572 209 L 573 210 L 577 210 L 578 209 L 580 209 L 581 210 L 581 213 L 580 214 L 580 215 L 576 219 L 573 219 L 572 218 L 571 218 L 569 216 L 568 216 L 564 212 L 564 210 "></path>
        <path fill="none" stroke="#00fafa" stroke-width="3" d="M 352 354 L 353 353 L 357 353 L 361 357 L 361 358 L 362 359 L 362 361 L 363 362 L 362 363 L 362 364 L 361 365 L 359 365 L 358 366 L 352 366 L 350 364 L 350 361 L 351 360 L 351 358 L 352 357 "></path>
        <path fill="none" stroke="#00fafa" stroke-width="3" d="M 401 284 L 405 284 L 406 285 L 409 285 L 410 286 L 411 286 L 412 287 L 412 291 L 408 295 L 406 295 L 405 296 L 403 296 L 400 293 L 400 292 L 399 291 L 399 286 "></path>
        <path fill="none" stroke="#00fafa" stroke-width="3" d="M 738 317 L 739 316 L 741 316 L 742 317 L 745 317 L 746 318 L 747 318 L 748 317 L 751 317 L 753 319 L 753 322 L 751 324 L 750 324 L 749 323 L 748 323 L 746 321 L 742 321 L 741 322 L 736 322 L 735 323 L 734 323 L 730 327 L 728 325 L 728 323 L 730 321 L 731 321 L 732 320 L 734 320 L 737 317 "></path>
        <path fill="none" stroke="#00fafa" stroke-width="3" d="M 605 429 L 606 429 L 608 431 L 608 432 L 609 433 L 609 434 L 608 435 L 608 444 L 609 445 L 608 446 L 608 448 L 607 449 L 607 450 L 606 451 L 605 451 L 602 448 L 602 445 L 603 444 L 603 437 L 602 436 L 602 432 "></path>
        <path fill="none" stroke="#00fafa" stroke-width="3" d="M 452 490 L 453 489 L 455 489 L 457 491 L 457 492 L 458 493 L 458 499 L 456 501 L 454 501 L 453 500 L 452 500 L 451 499 L 449 499 L 448 498 L 446 498 L 445 497 L 445 496 L 451 490 "></path>
        <path fill="none" stroke="#00fafa" stroke-width="3" d="M 692 254 L 693 255 L 696 255 L 697 256 L 698 256 L 699 257 L 699 259 L 700 260 L 700 264 L 698 266 L 691 266 L 689 264 L 689 263 L 690 262 L 690 258 L 689 257 "></path>
        <path fill="none" stroke="#00fafa" stroke-width="3" d="M 237 369 L 240 369 L 242 371 L 242 372 L 243 373 L 243 379 L 241 381 L 236 381 L 235 380 L 234 380 L 233 379 L 233 375 L 234 374 L 234 372 "></path>
        <path fill="none" stroke="#00fafa" stroke-width="3" d="M 397 368 L 398 368 L 400 370 L 400 375 L 399 376 L 399 380 L 398 381 L 398 382 L 397 383 L 394 383 L 392 381 L 392 380 L 391 379 L 391 374 "></path>
        <path fill="none" stroke="#00fafa" stroke-width="3" d="M 374 540 L 375 539 L 380 539 L 381 540 L 384 540 L 385 541 L 385 542 L 386 543 L 386 547 L 384 549 L 378 549 L 375 546 L 375 544 L 374 543 "></path>
        <path fill="none" stroke="#00fafa" stroke-width="3" d="M 498 601 L 499 600 L 502 600 L 505 603 L 505 606 L 506 607 L 506 610 L 505 611 L 498 611 L 495 608 L 495 605 L 496 604 L 496 602 L 497 601 "></path>
        <path fill="none" stroke="#00fafa" stroke-width="3" d="M 310 290 L 311 290 L 312 291 L 313 291 L 316 294 L 316 295 L 317 296 L 317 299 L 316 300 L 316 301 L 315 302 L 314 302 L 313 303 L 309 303 L 308 302 L 308 299 L 307 298 L 307 295 L 308 294 L 308 292 "></path>
        <path fill="none" stroke="#00fafa" stroke-width="3" d="M 758 483 L 760 483 L 762 485 L 762 487 L 763 488 L 763 489 L 764 490 L 764 493 L 763 494 L 761 494 L 759 492 L 758 492 L 757 491 L 751 491 L 749 489 L 751 487 L 752 487 L 753 486 L 754 486 L 755 485 L 756 485 "></path>
        <path fill="none" stroke="#00fafa" stroke-width="3" d="M 308 277 L 309 276 L 312 276 L 313 277 L 314 277 L 316 279 L 316 281 L 317 282 L 316 283 L 316 286 L 314 288 L 312 288 L 311 289 L 310 289 L 309 288 L 309 287 L 308 286 "></path>
        <path fill="none" stroke="#00fafa" stroke-width="3" d="M 589 225 L 593 225 L 595 227 L 595 231 L 594 232 L 594 233 L 593 234 L 592 234 L 591 235 L 587 235 L 585 233 L 585 229 "></path>
        <path fill="none" stroke="#00fafa" stroke-width="3" d="M 409 255 L 413 255 L 415 257 L 415 264 L 414 265 L 408 265 L 406 263 L 406 260 L 407 259 L 407 257 "></path>
        <path fill="none" stroke="#00fafa" stroke-width="3" d="M 449 184 L 450 183 L 452 183 L 453 184 L 453 185 L 450 188 L 450 189 L 449 190 L 449 191 L 445 195 L 444 195 L 442 193 L 442 188 L 443 187 L 443 186 L 444 185 L 446 185 L 447 184 "></path>
        <path fill="none" stroke="#00fafa" stroke-width="3" d="M 419 342 L 425 342 L 426 343 L 428 343 L 429 344 L 429 347 L 428 348 L 416 348 L 415 347 L 415 346 "></path>
        <path fill="none" stroke="#00fafa" stroke-width="3" d="M 603 241 L 607 241 L 609 243 L 609 248 L 608 249 L 607 249 L 606 250 L 602 250 L 600 248 L 600 244 "></path>
        <path fill="none" stroke="#00fafa" stroke-width="3" d="M 570 354 L 571 353 L 575 353 L 576 354 L 576 355 L 577 356 L 577 363 L 575 365 L 574 365 L 572 363 L 572 362 L 571 361 L 571 360 L 570 359 L 570 357 L 569 356 L 570 355 "></path>
        <path fill="none" stroke="#00fafa" stroke-width="3" d="M 560 662 L 563 662 L 566 665 L 566 668 L 563 671 L 559 671 L 557 669 L 557 665 "></path>
        <path fill="none" stroke="#00fafa" stroke-width="3" d="M 370 233 L 373 233 L 374 234 L 375 234 L 376 235 L 376 236 L 377 237 L 377 238 L 376 239 L 376 240 L 374 242 L 370 242 L 369 241 L 369 240 L 368 239 L 368 235 "></path>
        <path fill="none" stroke="#00fafa" stroke-width="3" d="M 484 333 L 494 333 L 495 334 L 495 337 L 493 339 L 491 339 L 490 338 L 485 338 L 484 337 L 483 337 L 482 336 L 482 335 "></path>
        <path fill="none" stroke="#00fafa" stroke-width="3" d="M 632 541 L 636 541 L 639 544 L 639 545 L 640 546 L 640 547 L 637 550 L 636 549 L 634 549 L 633 548 L 632 548 L 631 547 L 631 545 L 630 544 L 630 543 "></path>
        <path fill="none" stroke="#00fafa" stroke-width="3" d="M 360 377 L 361 376 L 362 377 L 363 377 L 364 378 L 364 380 L 358 386 L 357 385 L 356 385 L 355 384 L 355 383 L 354 382 L 354 381 L 355 380 L 355 379 L 356 378 L 357 378 L 358 377 "></path>
        <path fill="none" stroke="#00fafa" stroke-width="3" d="M 543 486 L 544 485 L 545 485 L 548 488 L 548 489 L 549 490 L 549 492 L 548 493 L 548 494 L 546 496 L 544 496 L 541 493 L 541 492 L 542 491 L 542 489 L 543 488 "></path>
        <path fill="none" stroke="#00fafa" stroke-width="3" d="M 747 459 L 750 459 L 752 461 L 752 465 L 751 466 L 751 467 L 750 468 L 747 468 L 744 465 L 744 462 "></path>
        <path fill="none" stroke="#00fafa" stroke-width="3" d="M 559 231 L 560 230 L 563 230 L 566 233 L 566 234 L 567 235 L 567 239 L 565 241 L 563 241 L 562 240 L 562 237 L 561 236 L 561 235 L 559 233 "></path>
        <path fill="none" stroke="#00fafa" stroke-width="3" d="M 724 465 L 725 464 L 726 464 L 727 465 L 728 465 L 729 466 L 729 467 L 730 468 L 729 469 L 729 472 L 728 473 L 725 473 L 722 470 L 722 469 L 721 468 L 721 467 L 723 465 "></path>
        <path fill="none" stroke="#00fafa" stroke-width="3" d="M 574 508 L 575 507 L 576 507 L 578 509 L 578 514 L 575 517 L 574 517 L 571 514 L 571 510 L 573 508 "></path>
        <path fill="none" stroke="#00fafa" stroke-width="3" d="M 505 204 L 510 204 L 512 206 L 512 207 L 511 208 L 511 209 L 509 211 L 508 211 L 507 212 L 506 212 L 503 209 L 503 206 "></path>
        <path fill="none" stroke="#00fafa" stroke-width="3" d="M 484 568 L 485 567 L 489 567 L 490 568 L 490 570 L 486 574 L 485 574 L 484 575 L 482 575 L 481 574 L 481 570 L 483 568 "></path>
        <path fill="none" stroke="#00fafa" stroke-width="3" d="M 333 499 L 334 498 L 336 498 L 339 501 L 339 503 L 337 505 L 330 505 L 329 504 L 330 503 L 330 502 L 331 501 L 331 500 L 332 499 "></path>
        <path fill="none" stroke="#00fafa" stroke-width="3" d="M 406 528 L 407 527 L 411 527 L 413 529 L 413 533 L 412 534 L 410 534 L 409 535 L 408 535 L 405 532 L 405 531 L 406 530 "></path>
        <path fill="none" stroke="#00fafa" stroke-width="3" d="M 362 408 L 363 407 L 366 407 L 367 408 L 368 408 L 369 409 L 370 409 L 373 412 L 372 413 L 363 413 L 362 412 "></path>
        <path fill="none" stroke="#00fafa" stroke-width="3" d="M 301 536 L 302 535 L 308 541 L 308 546 L 307 547 L 305 547 L 303 545 L 303 542 L 302 541 L 302 538 L 301 537 "></path>
        <path fill="none" stroke="#00fafa" stroke-width="3" d="M 604 511 L 606 511 L 607 512 L 608 512 L 609 513 L 609 517 L 608 518 L 607 518 L 606 519 L 605 519 L 604 518 L 603 518 L 602 517 L 602 516 L 601 515 L 602 514 L 602 513 "></path>
        <path fill="none" stroke="#00fafa" stroke-width="3" d="M 356 527 L 357 526 L 358 527 L 359 527 L 360 528 L 362 528 L 365 531 L 365 533 L 363 535 L 362 535 L 361 534 L 360 534 L 358 532 L 358 531 L 356 529 "></path>
        <path fill="none" stroke="#00fafa" stroke-width="3" d="M 591 541 L 594 541 L 595 542 L 595 547 L 593 549 L 591 549 L 589 547 L 589 546 L 588 545 L 588 544 "></path>
        <path fill="none" stroke="#00fafa" stroke-width="3" d="M 382 409 L 383 408 L 386 408 L 387 409 L 387 410 L 388 411 L 388 412 L 386 414 L 381 414 L 380 413 L 379 413 L 378 412 L 381 409 "></path>
        <path fill="none" stroke="#00fafa" stroke-width="3" d="M 728 330 L 729 330 L 731 332 L 731 338 L 730 339 L 729 339 L 728 340 L 726 338 L 726 332 "></path>
        <path fill="none" stroke="#00fafa" stroke-width="3" d="M 459 175 L 460 174 L 464 174 L 465 175 L 465 176 L 466 177 L 466 178 L 463 181 L 461 181 L 458 178 L 458 177 L 459 176 "></path>
        <path fill="none" stroke="#00fafa" stroke-width="3" d="M 517 202 L 518 201 L 522 201 L 524 203 L 524 206 L 523 207 L 520 207 L 519 206 L 518 206 L 515 203 L 516 202 "></path>
        <path fill="none" stroke="#00fafa" stroke-width="3" d="M 749 261 L 750 260 L 751 260 L 752 261 L 753 261 L 754 262 L 754 266 L 753 267 L 751 267 L 747 263 L 747 262 L 748 261 "></path>
        <path fill="none" stroke="#00fafa" stroke-width="3" d="M 630 269 L 631 268 L 632 268 L 633 269 L 633 273 L 632 274 L 627 274 L 626 273 L 626 272 L 629 269 "></path>
        <path fill="none" stroke="#00fafa" stroke-width="3" d="M 619 527 L 620 527 L 623 530 L 623 533 L 622 534 L 620 534 L 617 531 L 617 529 "></path>
        <path fill="none" stroke="#00fafa" stroke-width="3" d="M 467 351 L 468 350 L 470 350 L 472 352 L 472 353 L 471 354 L 471 356 L 469 358 L 467 356 "></path>
        <path fill="none" stroke="#00fafa" stroke-width="3" d="M 531 371 L 532 371 L 534 373 L 534 375 L 533 376 L 533 377 L 532 378 L 530 378 L 529 377 L 529 373 "></path>
        <path fill="none" stroke="#00fafa" stroke-width="3" d="M 738 343 L 739 342 L 741 342 L 743 344 L 743 347 L 744 348 L 744 352 L 745 353 L 745 354 L 747 356 L 749 356 L 750 357 L 752 357 L 753 358 L 754 358 L 760 364 L 760 365 L 761 366 L 762 366 L 763 367 L 770 367 L 771 366 L 774 366 L 775 365 L 776 366 L 778 366 L 780 368 L 780 369 L 781 370 L 781 371 L 782 372 L 782 373 L 783 374 L 784 374 L 787 377 L 787 386 L 788 387 L 788 391 L 792 395 L 794 395 L 795 396 L 797 396 L 798 397 L 799 397 L 801 399 L 801 400 L 802 401 L 802 403 L 803 404 L 803 409 L 804 410 L 804 411 L 803 412 L 803 414 L 801 416 L 800 416 L 799 417 L 798 417 L 797 418 L 795 418 L 791 422 L 791 423 L 789 425 L 789 426 L 788 427 L 787 427 L 786 428 L 784 428 L 781 425 L 781 420 L 780 419 L 780 417 L 777 414 L 776 414 L 775 413 L 774 413 L 770 409 L 770 408 L 765 403 L 764 403 L 762 401 L 762 398 L 763 397 L 763 396 L 764 395 L 764 394 L 765 393 L 765 391 L 766 390 L 766 387 L 769 384 L 771 384 L 772 385 L 772 386 L 773 387 L 773 388 L 772 389 L 772 392 L 771 393 L 771 400 L 772 401 L 772 402 L 774 404 L 775 404 L 778 407 L 779 407 L 782 410 L 782 411 L 785 414 L 787 414 L 788 415 L 789 415 L 790 414 L 792 414 L 795 411 L 795 410 L 796 409 L 796 405 L 795 404 L 795 403 L 794 403 L 793 402 L 786 402 L 785 401 L 784 401 L 782 399 L 782 398 L 781 397 L 781 396 L 780 395 L 780 392 L 781 391 L 781 381 L 780 380 L 780 379 L 779 378 L 779 377 L 778 376 L 777 376 L 776 375 L 775 375 L 774 374 L 773 374 L 772 373 L 767 373 L 766 374 L 765 374 L 764 375 L 763 375 L 761 377 L 761 378 L 760 379 L 760 380 L 759 381 L 759 383 L 758 384 L 758 386 L 757 387 L 757 388 L 754 391 L 751 388 L 751 386 L 752 385 L 752 384 L 753 383 L 753 382 L 754 381 L 754 380 L 755 379 L 755 378 L 756 377 L 756 373 L 757 372 L 756 371 L 756 368 L 753 365 L 752 365 L 751 364 L 750 364 L 749 363 L 748 363 L 747 362 L 746 362 L 745 361 L 743 361 L 742 360 L 741 360 L 737 356 L 737 345 L 738 344 "></path>
        <path fill="none" stroke="#00fafa" stroke-width="3" d="M 448 601 L 449 600 L 453 600 L 454 601 L 454 602 L 455 603 L 455 605 L 450 610 L 447 610 L 446 609 L 437 609 L 436 610 L 428 610 L 427 609 L 426 609 L 425 608 L 422 608 L 419 611 L 419 613 L 418 614 L 418 615 L 419 616 L 419 617 L 421 619 L 422 619 L 423 620 L 436 620 L 437 619 L 443 619 L 445 621 L 445 623 L 444 624 L 444 625 L 441 628 L 441 629 L 440 630 L 440 631 L 439 632 L 439 637 L 440 638 L 440 639 L 441 640 L 441 641 L 445 645 L 447 645 L 448 646 L 454 646 L 455 647 L 456 647 L 459 650 L 459 651 L 460 652 L 460 654 L 458 656 L 453 656 L 452 655 L 451 655 L 450 654 L 449 654 L 448 653 L 447 653 L 445 651 L 444 651 L 443 650 L 442 650 L 441 649 L 439 649 L 438 648 L 435 648 L 432 645 L 432 640 L 433 639 L 433 637 L 434 636 L 434 635 L 435 634 L 435 631 L 434 630 L 434 629 L 432 627 L 421 627 L 416 622 L 416 620 L 415 619 L 415 618 L 411 614 L 410 614 L 409 613 L 407 613 L 404 610 L 405 609 L 406 609 L 407 608 L 410 608 L 411 607 L 413 607 L 414 606 L 416 606 L 417 605 L 420 605 L 421 604 L 424 604 L 425 603 L 428 603 L 429 602 L 434 602 L 435 603 L 438 603 L 439 604 L 442 604 L 443 603 L 444 603 L 445 602 L 446 602 L 447 601 "></path>
        <path fill="none" stroke="#00fafa" stroke-width="3" d="M 735 271 L 736 270 L 740 270 L 743 273 L 743 295 L 744 296 L 744 298 L 745 299 L 745 301 L 746 302 L 746 303 L 748 305 L 748 306 L 751 309 L 751 310 L 753 312 L 753 315 L 752 316 L 752 317 L 749 320 L 749 321 L 748 322 L 748 324 L 747 325 L 747 326 L 746 327 L 740 327 L 739 328 L 738 328 L 737 329 L 736 329 L 734 331 L 734 332 L 731 335 L 731 336 L 730 337 L 730 338 L 729 339 L 729 340 L 728 341 L 728 344 L 727 345 L 727 361 L 726 362 L 726 363 L 725 364 L 725 365 L 723 367 L 722 367 L 721 368 L 718 368 L 716 366 L 716 364 L 718 362 L 718 361 L 720 359 L 720 358 L 721 357 L 721 356 L 722 355 L 722 340 L 723 339 L 723 337 L 725 335 L 725 334 L 726 333 L 726 332 L 727 331 L 727 330 L 728 329 L 728 328 L 731 325 L 732 325 L 733 324 L 736 324 L 737 323 L 738 323 L 739 322 L 740 322 L 743 319 L 743 311 L 742 310 L 742 309 L 741 308 L 741 307 L 740 306 L 740 305 L 739 304 L 739 302 L 738 301 L 738 299 L 737 298 L 737 289 L 736 288 L 736 287 L 735 286 L 735 284 L 734 283 L 734 273 L 735 272 "></path>
        <path fill="none" stroke="#00fafa" stroke-width="3" d="M 287 347 L 288 346 L 292 346 L 293 347 L 302 347 L 303 348 L 304 348 L 306 350 L 306 360 L 307 361 L 307 370 L 308 371 L 308 372 L 307 373 L 307 375 L 304 378 L 301 378 L 298 375 L 298 373 L 297 372 L 297 370 L 296 369 L 296 366 L 300 362 L 301 362 L 303 360 L 303 359 L 304 358 L 304 357 L 300 353 L 295 353 L 294 354 L 293 354 L 292 355 L 290 355 L 289 356 L 287 356 L 286 355 L 283 355 L 282 356 L 281 356 L 279 358 L 279 363 L 283 367 L 284 367 L 287 370 L 287 372 L 288 373 L 288 375 L 289 376 L 289 378 L 291 380 L 291 381 L 293 383 L 293 384 L 294 385 L 294 391 L 293 392 L 293 394 L 290 397 L 288 397 L 287 396 L 287 395 L 286 394 L 286 382 L 285 381 L 285 379 L 283 377 L 282 377 L 281 376 L 279 376 L 278 375 L 276 375 L 273 372 L 273 356 L 274 355 L 274 354 L 277 351 L 278 351 L 280 349 L 282 349 L 283 348 L 284 348 L 285 347 "></path>
        <path fill="none" stroke="#00fafa" stroke-width="3" d="M 754 485 L 755 484 L 760 484 L 762 486 L 763 486 L 765 488 L 765 490 L 766 491 L 766 493 L 767 494 L 767 495 L 768 496 L 770 496 L 771 497 L 773 497 L 774 498 L 775 498 L 778 501 L 778 505 L 775 508 L 773 508 L 772 509 L 770 509 L 769 510 L 768 510 L 767 511 L 766 511 L 759 518 L 759 519 L 758 520 L 758 521 L 757 522 L 757 533 L 758 534 L 758 537 L 759 538 L 759 539 L 760 540 L 760 542 L 761 543 L 761 545 L 760 546 L 760 547 L 759 548 L 758 548 L 757 549 L 756 549 L 755 548 L 754 548 L 752 546 L 752 545 L 751 544 L 751 542 L 750 541 L 750 524 L 747 521 L 746 521 L 743 518 L 743 517 L 745 515 L 749 515 L 750 514 L 753 514 L 755 512 L 756 512 L 761 507 L 762 507 L 764 505 L 764 504 L 765 503 L 765 499 L 764 498 L 764 497 L 763 496 L 762 496 L 760 494 L 759 494 L 756 491 L 756 490 L 754 488 "></path>
        <path fill="none" stroke="#00fafa" stroke-width="3" d="M 276 333 L 277 332 L 282 332 L 283 333 L 285 333 L 287 335 L 287 336 L 285 338 L 284 338 L 283 339 L 282 339 L 281 340 L 279 340 L 278 341 L 277 341 L 276 342 L 275 342 L 274 343 L 273 343 L 271 345 L 270 345 L 267 348 L 267 349 L 266 350 L 266 351 L 265 352 L 265 354 L 264 355 L 264 377 L 263 378 L 263 380 L 262 381 L 262 383 L 261 384 L 261 390 L 262 391 L 262 397 L 260 399 L 259 399 L 258 398 L 257 398 L 254 395 L 254 394 L 253 393 L 253 382 L 254 381 L 254 378 L 255 377 L 255 374 L 256 373 L 256 354 L 257 353 L 257 351 L 258 350 L 258 348 L 259 347 L 259 345 L 260 344 L 260 343 L 264 339 L 265 339 L 266 338 L 267 338 L 268 337 L 269 337 L 270 336 L 271 336 L 273 334 L 274 334 L 275 333 "></path>
        <path fill="none" stroke="#00fafa" stroke-width="3" d="M 714 510 L 715 510 L 716 511 L 716 512 L 715 513 L 715 519 L 716 520 L 716 521 L 718 523 L 718 524 L 719 525 L 719 526 L 720 527 L 720 530 L 716 534 L 713 534 L 712 535 L 709 535 L 708 536 L 707 536 L 705 538 L 705 539 L 702 542 L 702 543 L 700 545 L 700 547 L 699 548 L 699 569 L 700 570 L 700 572 L 701 573 L 701 574 L 702 575 L 702 576 L 703 577 L 703 581 L 698 586 L 697 586 L 696 587 L 694 587 L 692 585 L 692 584 L 691 583 L 691 581 L 692 580 L 692 577 L 693 576 L 693 573 L 694 572 L 694 564 L 693 563 L 693 559 L 692 558 L 692 552 L 693 551 L 693 549 L 694 548 L 694 546 L 695 545 L 695 541 L 696 540 L 696 539 L 699 536 L 700 536 L 701 535 L 704 535 L 705 534 L 706 534 L 709 531 L 709 530 L 710 529 L 710 528 L 711 527 L 711 520 L 710 519 L 710 514 "></path>
        <path fill="none" stroke="#00fafa" stroke-width="3" d="M 463 176 L 464 175 L 466 175 L 468 177 L 469 177 L 473 181 L 474 181 L 479 186 L 479 188 L 480 189 L 478 191 L 477 191 L 476 190 L 475 190 L 474 189 L 473 189 L 469 185 L 468 185 L 467 184 L 466 184 L 465 183 L 458 183 L 457 184 L 456 184 L 455 185 L 454 185 L 452 187 L 451 187 L 450 188 L 450 189 L 448 191 L 448 193 L 447 194 L 447 195 L 444 198 L 443 198 L 442 199 L 438 199 L 437 200 L 436 200 L 435 201 L 434 201 L 430 205 L 430 207 L 429 208 L 429 217 L 427 219 L 423 219 L 422 218 L 422 217 L 421 216 L 421 213 L 422 212 L 422 210 L 423 209 L 423 206 L 424 205 L 424 202 L 425 201 L 425 200 L 427 198 L 428 198 L 429 197 L 430 197 L 431 196 L 433 196 L 434 195 L 435 195 L 437 193 L 438 193 L 442 189 L 442 188 L 446 184 L 446 183 L 450 179 L 451 179 L 452 178 L 459 178 L 460 177 L 461 177 L 462 176 "></path>
        <path fill="none" stroke="#00fafa" stroke-width="3" d="M 497 633 L 498 632 L 501 632 L 502 633 L 503 633 L 505 635 L 505 636 L 508 639 L 508 640 L 509 640 L 511 642 L 512 642 L 513 643 L 514 643 L 516 645 L 517 645 L 519 647 L 520 647 L 521 648 L 522 648 L 523 649 L 524 649 L 526 651 L 526 652 L 527 653 L 527 655 L 528 656 L 528 658 L 531 661 L 532 661 L 533 662 L 541 662 L 542 663 L 543 663 L 544 664 L 544 668 L 542 670 L 541 670 L 540 671 L 535 671 L 534 672 L 533 672 L 532 673 L 530 673 L 529 674 L 528 674 L 525 671 L 525 664 L 524 663 L 524 661 L 523 660 L 523 659 L 522 658 L 521 658 L 520 657 L 519 657 L 518 656 L 507 656 L 505 654 L 505 653 L 507 651 L 507 650 L 508 649 L 508 644 L 506 642 L 504 642 L 503 641 L 501 641 L 497 637 "></path>
        <path fill="none" stroke="#00fafa" stroke-width="3" d="M 290 512 L 291 511 L 296 511 L 297 512 L 299 512 L 300 513 L 303 513 L 304 514 L 307 514 L 308 515 L 309 515 L 310 516 L 311 516 L 316 521 L 317 521 L 320 524 L 321 524 L 322 525 L 323 525 L 324 526 L 327 526 L 328 527 L 336 527 L 337 526 L 340 526 L 341 527 L 342 527 L 349 534 L 349 535 L 351 537 L 351 538 L 352 539 L 352 540 L 353 541 L 353 544 L 351 546 L 348 546 L 345 543 L 345 542 L 344 541 L 344 540 L 343 539 L 343 538 L 339 534 L 338 534 L 337 533 L 335 533 L 334 532 L 326 532 L 325 533 L 321 533 L 320 532 L 319 532 L 314 527 L 313 527 L 310 524 L 309 524 L 308 523 L 307 523 L 306 522 L 304 522 L 303 521 L 302 521 L 301 520 L 298 520 L 297 519 L 295 519 L 294 518 L 293 518 L 290 515 "></path>
        <path fill="none" stroke="#00fafa" stroke-width="3" d="M 531 169 L 535 169 L 536 170 L 537 170 L 538 171 L 539 171 L 542 174 L 543 174 L 545 176 L 549 176 L 550 175 L 551 175 L 553 173 L 553 172 L 555 170 L 556 170 L 557 169 L 560 172 L 560 173 L 561 174 L 561 175 L 565 179 L 566 179 L 569 182 L 569 183 L 567 185 L 564 185 L 563 184 L 561 184 L 560 183 L 559 183 L 558 182 L 550 182 L 549 181 L 546 181 L 545 180 L 544 180 L 543 179 L 542 179 L 541 178 L 539 178 L 538 177 L 536 177 L 535 178 L 533 178 L 530 181 L 530 182 L 528 184 L 528 185 L 527 186 L 526 186 L 525 187 L 524 187 L 523 188 L 521 188 L 519 190 L 518 190 L 515 193 L 510 193 L 506 189 L 506 188 L 505 187 L 505 186 L 507 184 L 519 184 L 521 182 L 522 182 L 525 179 L 525 178 L 526 177 L 526 176 L 527 175 L 527 174 L 528 173 L 528 172 "></path>
        <path fill="none" stroke="#00fafa" stroke-width="3" d="M 353 266 L 354 265 L 355 266 L 357 266 L 359 268 L 359 270 L 355 274 L 354 274 L 353 275 L 352 275 L 351 276 L 348 276 L 347 277 L 344 277 L 343 276 L 336 276 L 334 278 L 334 279 L 333 280 L 333 289 L 332 290 L 332 293 L 331 294 L 331 298 L 332 299 L 332 300 L 335 303 L 336 303 L 338 305 L 338 307 L 337 308 L 336 308 L 335 309 L 332 309 L 331 308 L 329 308 L 328 307 L 327 307 L 326 306 L 325 306 L 324 305 L 324 298 L 325 297 L 325 287 L 326 286 L 326 282 L 325 281 L 325 275 L 326 274 L 326 273 L 328 271 L 329 271 L 330 270 L 334 270 L 335 271 L 342 271 L 343 270 L 345 270 L 347 268 L 348 268 L 349 267 L 350 267 L 351 266 "></path>
        <path fill="none" stroke="#00fafa" stroke-width="3" d="M 384 562 L 385 561 L 388 561 L 389 562 L 390 562 L 394 566 L 394 567 L 395 568 L 395 569 L 396 570 L 396 573 L 397 574 L 397 575 L 398 576 L 398 577 L 399 578 L 399 583 L 398 584 L 396 584 L 393 581 L 393 578 L 392 577 L 392 574 L 391 573 L 391 572 L 389 570 L 388 570 L 387 569 L 383 569 L 382 570 L 380 570 L 379 571 L 378 571 L 377 572 L 376 572 L 372 576 L 372 577 L 370 579 L 370 580 L 369 581 L 369 583 L 368 584 L 368 586 L 369 587 L 369 590 L 370 591 L 370 592 L 371 593 L 371 594 L 373 596 L 373 597 L 374 598 L 374 599 L 375 600 L 373 602 L 372 602 L 371 603 L 370 602 L 367 602 L 365 600 L 364 600 L 363 599 L 363 598 L 362 597 L 362 588 L 363 587 L 363 579 L 362 578 L 362 573 L 364 571 L 370 571 L 371 570 L 375 570 L 378 567 L 378 566 L 382 562 "></path>
        <path fill="none" stroke="#00fafa" stroke-width="3" d="M 764 451 L 765 450 L 768 450 L 771 453 L 771 455 L 767 459 L 763 459 L 762 460 L 758 460 L 757 461 L 755 461 L 751 465 L 751 466 L 750 467 L 750 476 L 748 478 L 748 479 L 746 481 L 745 481 L 744 482 L 743 482 L 742 483 L 740 483 L 739 484 L 737 484 L 733 488 L 733 489 L 732 490 L 732 491 L 731 492 L 731 493 L 728 496 L 727 496 L 724 493 L 724 487 L 725 486 L 725 485 L 728 482 L 730 482 L 731 481 L 733 481 L 734 480 L 735 480 L 736 479 L 737 479 L 739 477 L 740 477 L 743 474 L 743 473 L 744 472 L 744 471 L 745 470 L 745 468 L 744 467 L 744 464 L 743 463 L 743 461 L 747 457 L 751 457 L 752 456 L 755 456 L 756 455 L 757 455 L 758 454 L 759 454 L 761 452 L 762 452 L 763 451 "></path>
        <path fill="none" stroke="#00fafa" stroke-width="3" d="M 650 207 L 651 206 L 657 206 L 658 207 L 662 207 L 663 206 L 664 206 L 665 207 L 667 207 L 668 208 L 668 209 L 669 210 L 669 218 L 667 220 L 664 220 L 661 217 L 661 216 L 660 215 L 660 214 L 659 213 L 658 213 L 657 212 L 654 212 L 653 213 L 652 213 L 650 215 L 650 217 L 649 218 L 650 219 L 650 220 L 651 221 L 651 222 L 654 225 L 654 226 L 656 228 L 656 229 L 657 230 L 658 230 L 659 231 L 664 231 L 665 230 L 668 230 L 670 232 L 670 236 L 669 237 L 669 238 L 667 240 L 664 240 L 663 239 L 661 239 L 660 238 L 659 238 L 658 237 L 657 237 L 656 236 L 654 236 L 648 230 L 648 229 L 647 228 L 647 226 L 646 225 L 646 218 L 645 217 L 645 211 L 646 210 L 646 209 L 647 208 L 648 208 L 649 207 "></path>
        <path fill="none" stroke="#00fafa" stroke-width="3" d="M 589 201 L 590 201 L 593 204 L 593 205 L 594 206 L 594 207 L 598 211 L 599 211 L 600 212 L 602 212 L 603 213 L 605 213 L 606 214 L 607 214 L 608 215 L 610 215 L 611 216 L 612 216 L 613 217 L 614 217 L 618 221 L 618 222 L 619 223 L 619 225 L 620 226 L 620 228 L 621 229 L 621 231 L 622 232 L 622 233 L 623 234 L 623 235 L 624 236 L 624 239 L 625 240 L 624 241 L 624 242 L 622 244 L 621 244 L 619 242 L 619 241 L 618 240 L 618 237 L 617 236 L 617 232 L 616 231 L 616 230 L 615 229 L 615 228 L 609 222 L 608 222 L 606 220 L 605 220 L 604 219 L 603 219 L 602 218 L 601 218 L 600 217 L 599 217 L 598 216 L 596 216 L 595 215 L 593 215 L 592 214 L 591 214 L 587 210 L 587 209 L 586 208 L 586 204 "></path>
        <path fill="none" stroke="#00fafa" stroke-width="3" d="M 590 181 L 591 180 L 594 180 L 595 181 L 596 181 L 598 183 L 598 184 L 599 185 L 599 186 L 596 189 L 586 189 L 582 193 L 582 194 L 577 199 L 572 199 L 571 198 L 569 198 L 568 199 L 567 199 L 562 204 L 561 204 L 560 205 L 559 205 L 556 202 L 556 196 L 559 193 L 560 193 L 561 194 L 564 194 L 565 195 L 566 195 L 567 196 L 570 196 L 572 194 L 573 194 L 578 189 L 578 188 L 583 183 L 585 183 L 586 182 L 587 182 L 588 181 "></path>
        <path fill="none" stroke="#00fafa" stroke-width="3" d="M 301 497 L 302 496 L 306 496 L 307 497 L 310 497 L 311 498 L 313 498 L 314 499 L 315 499 L 316 500 L 318 500 L 320 502 L 321 502 L 323 504 L 323 505 L 328 510 L 330 510 L 331 511 L 333 511 L 334 512 L 336 512 L 338 514 L 338 516 L 337 517 L 336 517 L 335 518 L 330 518 L 329 517 L 327 517 L 326 516 L 325 516 L 320 511 L 319 511 L 315 507 L 314 507 L 313 506 L 311 506 L 310 505 L 305 505 L 304 504 L 300 504 L 297 501 L 297 500 L 300 497 "></path>
        <path fill="none" stroke="#00fafa" stroke-width="3" d="M 529 616 L 532 619 L 532 626 L 531 627 L 531 628 L 532 629 L 532 632 L 533 633 L 533 634 L 536 637 L 537 637 L 538 638 L 541 638 L 542 639 L 543 639 L 545 641 L 545 642 L 546 643 L 546 644 L 547 645 L 547 651 L 544 654 L 540 654 L 537 651 L 537 643 L 536 642 L 536 641 L 535 641 L 534 640 L 527 640 L 524 637 L 524 634 L 525 633 L 525 630 L 526 629 L 526 619 "></path>
        <path fill="none" stroke="#00fafa" stroke-width="3" d="M 634 563 L 635 563 L 638 566 L 638 569 L 637 570 L 637 571 L 636 572 L 636 577 L 637 578 L 637 580 L 638 581 L 638 585 L 635 588 L 634 588 L 633 589 L 631 589 L 630 590 L 629 590 L 628 591 L 627 591 L 627 592 L 625 594 L 625 596 L 624 597 L 624 607 L 621 610 L 620 609 L 619 609 L 617 607 L 617 605 L 616 604 L 617 603 L 617 599 L 618 598 L 618 594 L 619 593 L 619 592 L 622 589 L 623 589 L 624 588 L 625 588 L 626 587 L 627 587 L 629 585 L 629 584 L 630 583 L 630 582 L 631 581 L 631 580 L 632 579 L 632 577 L 633 576 L 633 572 L 632 571 L 632 565 "></path>
        <path fill="none" stroke="#00fafa" stroke-width="3" d="M 544 120 L 545 119 L 547 119 L 548 120 L 551 120 L 552 121 L 557 121 L 558 120 L 560 120 L 563 123 L 563 126 L 562 127 L 562 137 L 561 138 L 561 139 L 560 140 L 557 140 L 555 138 L 555 136 L 554 135 L 554 131 L 553 130 L 553 129 L 552 129 L 551 128 L 546 128 L 545 129 L 541 129 L 539 127 L 539 124 L 540 123 L 540 122 L 542 120 "></path>
        <path fill="none" stroke="#00fafa" stroke-width="3" d="M 741 393 L 742 393 L 743 394 L 744 394 L 745 395 L 745 396 L 746 397 L 746 398 L 747 399 L 747 400 L 750 403 L 756 403 L 758 405 L 758 411 L 759 412 L 759 416 L 758 417 L 758 425 L 757 426 L 757 428 L 756 429 L 755 429 L 754 430 L 753 430 L 752 429 L 751 429 L 750 428 L 750 424 L 751 423 L 751 421 L 752 420 L 752 410 L 751 409 L 751 408 L 749 406 L 749 405 L 744 405 L 743 404 L 742 404 L 738 400 L 738 397 L 739 396 L 739 395 "></path>
        <path fill="none" stroke="#00fafa" stroke-width="3" d="M 649 573 L 650 573 L 652 575 L 652 577 L 653 578 L 653 580 L 654 581 L 654 582 L 659 587 L 659 588 L 660 589 L 660 590 L 656 594 L 655 594 L 654 595 L 653 595 L 652 596 L 651 596 L 649 598 L 648 598 L 641 605 L 640 605 L 639 606 L 636 606 L 634 604 L 634 600 L 636 598 L 637 598 L 638 597 L 639 597 L 640 596 L 641 596 L 642 595 L 644 595 L 645 594 L 646 594 L 649 591 L 649 589 L 650 588 L 650 586 L 649 585 L 649 583 L 648 582 L 648 580 L 647 579 L 647 575 "></path>
        <path fill="none" stroke="#00fafa" stroke-width="3" d="M 711 285 L 716 285 L 717 286 L 722 286 L 723 287 L 724 287 L 725 288 L 726 288 L 727 289 L 727 290 L 728 291 L 728 301 L 729 302 L 729 304 L 730 305 L 730 306 L 731 307 L 731 308 L 732 309 L 732 311 L 733 312 L 732 313 L 732 314 L 730 316 L 729 316 L 728 317 L 727 317 L 726 316 L 725 316 L 724 315 L 724 314 L 723 313 L 723 311 L 724 310 L 724 298 L 723 297 L 723 296 L 720 293 L 719 293 L 718 292 L 709 292 L 708 291 L 708 288 "></path>
        <path fill="none" stroke="#00fafa" stroke-width="3" d="M 631 209 L 632 208 L 633 208 L 636 211 L 636 217 L 635 218 L 635 219 L 636 220 L 636 225 L 637 226 L 637 229 L 638 230 L 638 232 L 639 233 L 639 234 L 640 235 L 640 236 L 642 238 L 642 240 L 643 241 L 643 242 L 642 243 L 642 244 L 641 245 L 641 246 L 640 247 L 639 247 L 638 248 L 635 245 L 635 237 L 634 236 L 634 233 L 633 232 L 633 231 L 632 230 L 632 229 L 631 228 L 631 226 L 630 225 L 630 224 L 629 223 L 629 221 L 628 220 L 628 218 L 627 217 L 627 213 L 628 212 L 628 211 L 630 209 "></path>
        <path fill="none" stroke="#00fafa" stroke-width="3" d="M 334 318 L 338 318 L 340 320 L 340 324 L 339 325 L 339 326 L 338 327 L 338 328 L 337 329 L 337 331 L 336 332 L 336 337 L 335 338 L 335 341 L 336 342 L 336 345 L 337 346 L 337 347 L 338 348 L 338 349 L 339 350 L 339 351 L 340 352 L 340 356 L 338 358 L 335 358 L 333 356 L 333 355 L 332 354 L 332 353 L 331 352 L 331 322 L 332 321 L 332 320 "></path>
        <path fill="none" stroke="#00fafa" stroke-width="3" d="M 315 404 L 316 403 L 320 403 L 322 405 L 322 406 L 323 407 L 323 408 L 320 411 L 319 411 L 318 412 L 308 412 L 307 413 L 304 413 L 303 414 L 293 414 L 292 413 L 291 413 L 288 410 L 288 406 L 290 404 L 293 404 L 294 405 L 295 405 L 296 406 L 298 406 L 299 407 L 301 407 L 302 408 L 307 408 L 308 407 L 310 407 L 311 406 L 312 406 L 314 404 "></path>
        <path fill="none" stroke="#00fafa" stroke-width="3" d="M 556 654 L 558 654 L 562 658 L 562 660 L 563 661 L 563 667 L 562 668 L 562 672 L 561 673 L 562 674 L 562 682 L 561 683 L 557 683 L 555 681 L 555 680 L 554 679 L 554 676 L 553 675 L 553 657 "></path>
        <path fill="none" stroke="#00fafa" stroke-width="3" d="M 710 259 L 711 259 L 713 261 L 713 262 L 714 263 L 714 265 L 715 266 L 715 267 L 718 270 L 719 270 L 720 271 L 721 271 L 722 272 L 723 272 L 724 273 L 724 274 L 725 275 L 723 277 L 719 277 L 718 276 L 717 276 L 716 275 L 715 275 L 714 274 L 708 274 L 704 278 L 704 279 L 702 281 L 701 281 L 700 282 L 699 282 L 698 281 L 697 281 L 696 280 L 696 276 L 698 274 L 699 274 L 700 273 L 703 273 L 706 270 L 706 269 L 707 268 L 707 263 L 708 262 L 708 261 "></path>
        <path fill="none" stroke="#00fafa" stroke-width="3" d="M 560 609 L 563 609 L 565 611 L 565 617 L 564 618 L 564 619 L 563 620 L 563 621 L 562 622 L 562 625 L 561 626 L 561 633 L 562 634 L 562 637 L 563 638 L 563 640 L 564 641 L 564 644 L 562 646 L 561 646 L 560 647 L 559 646 L 558 646 L 556 644 L 556 643 L 555 642 L 555 640 L 554 639 L 554 633 L 555 632 L 555 631 L 556 630 L 556 629 L 557 628 L 557 626 L 558 625 L 558 611 "></path>
        <path fill="none" stroke="#00fafa" stroke-width="3" d="M 466 609 L 467 608 L 469 610 L 469 614 L 463 620 L 463 621 L 462 622 L 462 623 L 461 624 L 461 626 L 460 627 L 460 629 L 459 630 L 459 633 L 458 634 L 458 635 L 455 638 L 453 638 L 452 637 L 451 637 L 450 636 L 450 635 L 449 634 L 450 633 L 450 632 L 451 631 L 451 630 L 453 628 L 453 627 L 454 626 L 454 625 L 455 624 L 455 622 L 456 621 L 456 619 L 458 617 L 458 616 L 465 609 "></path>
        <path fill="none" stroke="#00fafa" stroke-width="3" d="M 539 189 L 540 188 L 541 189 L 543 189 L 547 193 L 547 196 L 546 197 L 546 206 L 547 207 L 547 209 L 548 210 L 548 212 L 549 213 L 549 219 L 548 220 L 547 220 L 546 221 L 545 221 L 543 219 L 543 218 L 542 217 L 542 210 L 541 209 L 541 203 L 540 202 L 540 198 L 539 197 L 539 196 L 538 195 L 538 194 L 537 193 L 537 190 L 538 189 "></path>
        <path fill="none" stroke="#00fafa" stroke-width="3" d="M 665 637 L 667 637 L 669 639 L 669 642 L 668 643 L 668 645 L 667 646 L 667 649 L 668 650 L 668 652 L 666 654 L 658 654 L 657 653 L 656 653 L 652 649 L 652 646 L 655 643 L 656 643 L 657 642 L 658 642 L 659 641 L 660 641 L 662 639 L 663 639 "></path>
        <path fill="none" stroke="#00fafa" stroke-width="3" d="M 412 192 L 413 191 L 414 192 L 415 192 L 417 194 L 417 196 L 416 197 L 416 199 L 415 200 L 415 202 L 414 203 L 414 205 L 413 206 L 413 208 L 412 209 L 410 209 L 409 208 L 409 207 L 408 206 L 408 205 L 407 204 L 407 203 L 406 202 L 405 202 L 404 201 L 401 201 L 400 200 L 396 200 L 395 199 L 395 197 L 397 195 L 402 195 L 403 194 L 406 194 L 407 193 L 409 193 L 410 192 "></path>
        <path fill="none" stroke="#00fafa" stroke-width="3" d="M 711 224 L 717 224 L 718 225 L 722 225 L 723 226 L 727 226 L 728 227 L 730 227 L 733 230 L 733 232 L 731 234 L 720 234 L 719 233 L 712 233 L 711 232 L 710 232 L 708 230 L 708 227 "></path>
        <path fill="none" stroke="#00fafa" stroke-width="3" d="M 362 281 L 363 280 L 366 280 L 368 282 L 368 286 L 365 289 L 356 289 L 355 290 L 354 290 L 349 295 L 348 295 L 347 296 L 344 296 L 342 294 L 342 293 L 341 292 L 341 291 L 342 290 L 342 288 L 344 286 L 355 286 L 356 285 L 357 285 L 361 281 "></path>
        <path fill="none" stroke="#00fafa" stroke-width="3" d="M 587 165 L 588 164 L 591 164 L 593 166 L 593 168 L 592 169 L 592 170 L 591 171 L 590 171 L 589 172 L 587 172 L 586 173 L 584 173 L 583 174 L 580 174 L 579 175 L 576 175 L 575 174 L 574 174 L 569 169 L 569 167 L 571 165 L 577 165 L 578 166 L 583 166 L 584 165 "></path>
        <path fill="none" stroke="#00fafa" stroke-width="3" d="M 604 194 L 609 194 L 610 195 L 613 195 L 614 196 L 616 196 L 617 197 L 618 197 L 622 201 L 622 204 L 621 205 L 621 206 L 620 207 L 616 207 L 615 206 L 614 206 L 613 205 L 612 205 L 611 204 L 609 204 L 608 203 L 605 203 L 601 199 L 601 197 "></path>
        <path fill="none" stroke="#00fafa" stroke-width="3" d="M 653 247 L 655 247 L 656 248 L 657 248 L 658 249 L 660 249 L 661 250 L 671 250 L 675 254 L 675 257 L 673 259 L 670 259 L 669 258 L 668 258 L 667 257 L 666 257 L 665 256 L 664 256 L 663 255 L 658 255 L 657 256 L 652 256 L 650 254 L 650 250 "></path>
        <path fill="none" stroke="#00fafa" stroke-width="3" d="M 479 167 L 480 167 L 481 168 L 482 168 L 483 169 L 484 169 L 486 171 L 487 171 L 488 172 L 490 172 L 491 173 L 492 173 L 493 174 L 494 174 L 497 177 L 497 180 L 494 183 L 493 183 L 492 184 L 491 184 L 490 183 L 489 183 L 485 179 L 485 178 L 484 177 L 483 177 L 481 175 L 480 175 L 477 172 L 477 171 L 476 170 "></path>
        <path fill="none" stroke="#00fafa" stroke-width="3" d="M 710 457 L 711 456 L 714 456 L 716 458 L 716 459 L 718 461 L 718 462 L 720 464 L 721 464 L 722 465 L 728 465 L 729 466 L 731 466 L 733 468 L 733 469 L 731 471 L 730 471 L 729 472 L 727 472 L 726 473 L 725 473 L 724 472 L 722 472 L 721 471 L 720 471 L 718 469 L 717 469 L 711 463 L 711 462 L 710 461 "></path>
        <path fill="none" stroke="#00fafa" stroke-width="3" d="M 307 452 L 311 452 L 313 454 L 313 455 L 312 456 L 312 457 L 310 459 L 310 460 L 309 461 L 309 462 L 308 463 L 308 467 L 309 468 L 309 470 L 306 473 L 302 473 L 299 470 L 299 467 L 300 466 L 300 465 L 302 463 L 302 462 L 303 461 L 303 459 L 304 458 L 304 456 L 305 455 L 305 454 "></path>
        <path fill="none" stroke="#00fafa" stroke-width="3" d="M 376 257 L 377 257 L 381 261 L 381 263 L 382 264 L 382 268 L 381 269 L 381 272 L 382 273 L 382 276 L 383 277 L 383 280 L 384 281 L 382 283 L 380 283 L 378 281 L 378 280 L 377 279 L 377 277 L 376 276 L 376 271 L 375 270 L 375 267 L 374 266 L 374 264 L 373 263 L 373 260 "></path>
        <path fill="none" stroke="#00fafa" stroke-width="3" d="M 516 604 L 517 604 L 519 606 L 519 611 L 518 612 L 518 613 L 517 614 L 517 615 L 516 616 L 516 628 L 514 630 L 513 630 L 512 629 L 511 629 L 509 627 L 509 626 L 507 624 L 507 621 L 508 620 L 508 619 L 512 615 L 512 614 L 513 613 L 513 611 L 514 610 L 514 606 "></path>
        <path fill="none" stroke="#00fafa" stroke-width="3" d="M 480 604 L 481 603 L 483 603 L 485 605 L 485 606 L 486 607 L 486 612 L 487 613 L 487 614 L 488 615 L 488 616 L 489 617 L 490 617 L 492 619 L 493 619 L 495 621 L 495 624 L 494 625 L 493 625 L 492 626 L 491 625 L 489 625 L 484 620 L 484 619 L 481 616 L 481 615 L 480 614 L 480 612 L 479 611 L 479 606 L 480 605 "></path>
        <path fill="none" stroke="#00fafa" stroke-width="3" d="M 314 383 L 315 382 L 317 382 L 320 385 L 320 386 L 319 387 L 319 388 L 315 392 L 314 392 L 311 395 L 310 395 L 308 397 L 306 397 L 305 398 L 304 397 L 303 397 L 302 396 L 302 392 L 306 388 L 307 388 L 309 386 L 310 386 L 313 383 "></path>
        <path fill="none" stroke="#00fafa" stroke-width="3" d="M 574 600 L 576 600 L 578 602 L 579 602 L 581 604 L 587 604 L 588 603 L 589 603 L 590 602 L 593 602 L 595 604 L 595 607 L 594 608 L 593 608 L 592 609 L 585 609 L 584 610 L 578 610 L 577 609 L 576 609 L 573 606 L 573 605 L 572 604 L 572 602 "></path>
        <path fill="none" stroke="#00fafa" stroke-width="3" d="M 424 586 L 425 585 L 431 585 L 432 586 L 439 586 L 442 589 L 442 591 L 440 593 L 436 593 L 435 592 L 428 592 L 427 593 L 425 593 L 424 594 L 422 594 L 420 592 L 420 589 L 423 586 "></path>
        <path fill="none" stroke="#00fafa" stroke-width="3" d="M 700 240 L 707 240 L 708 241 L 713 241 L 714 242 L 715 242 L 717 244 L 712 249 L 711 249 L 710 250 L 709 250 L 708 251 L 707 251 L 706 250 L 704 250 L 703 249 L 702 249 L 698 245 L 698 242 "></path>
        <path fill="none" stroke="#00fafa" stroke-width="3" d="M 589 586 L 603 586 L 604 587 L 605 587 L 607 589 L 607 590 L 608 591 L 608 596 L 606 598 L 605 598 L 601 594 L 601 593 L 600 592 L 599 592 L 598 591 L 592 591 L 591 592 L 588 592 L 586 590 L 586 589 "></path>
        <path fill="none" stroke="#00fafa" stroke-width="3" d="M 494 194 L 495 193 L 497 193 L 501 197 L 501 198 L 509 206 L 509 210 L 507 212 L 503 212 L 501 210 L 501 209 L 499 207 L 499 206 L 498 205 L 498 204 L 497 203 L 497 202 L 496 201 L 496 200 L 494 198 "></path>
        <path fill="none" stroke="#00fafa" stroke-width="3" d="M 404 242 L 405 241 L 406 242 L 407 242 L 408 243 L 408 245 L 405 248 L 404 248 L 403 249 L 401 249 L 395 255 L 394 255 L 393 256 L 390 256 L 388 254 L 388 250 L 390 248 L 391 248 L 392 247 L 393 247 L 394 246 L 396 246 L 397 245 L 398 245 L 399 244 L 400 244 L 402 242 "></path>
        <path fill="none" stroke="#00fafa" stroke-width="3" d="M 742 493 L 746 493 L 752 499 L 752 502 L 749 505 L 747 505 L 746 506 L 741 506 L 738 503 L 738 499 L 739 498 L 739 497 L 740 496 L 740 495 "></path>
        <path fill="none" stroke="#00fafa" stroke-width="3" d="M 330 393 L 332 393 L 334 395 L 335 395 L 336 396 L 336 397 L 337 398 L 337 401 L 338 402 L 338 405 L 339 406 L 339 410 L 340 411 L 340 412 L 339 413 L 339 414 L 336 417 L 335 417 L 333 415 L 333 403 L 332 402 L 332 401 L 329 398 L 329 397 L 328 396 L 328 395 "></path>
        <path fill="none" stroke="#00fafa" stroke-width="3" d="M 545 606 L 547 606 L 548 607 L 548 625 L 547 626 L 547 627 L 545 629 L 544 629 L 541 626 L 541 615 L 542 614 L 542 610 L 543 609 L 543 608 "></path>
        <path fill="none" stroke="#00fafa" stroke-width="3" d="M 677 584 L 678 583 L 680 583 L 683 586 L 683 587 L 684 588 L 684 589 L 685 590 L 685 593 L 682 596 L 680 596 L 679 597 L 678 596 L 675 596 L 671 592 L 671 589 L 676 584 "></path>
        <path fill="none" stroke="#00fafa" stroke-width="3" d="M 698 319 L 700 319 L 701 320 L 702 320 L 703 321 L 704 321 L 705 322 L 706 322 L 707 323 L 710 323 L 711 322 L 716 322 L 718 324 L 718 327 L 715 330 L 713 330 L 712 329 L 711 329 L 710 328 L 708 328 L 707 327 L 700 327 L 699 326 L 698 326 L 696 324 L 696 321 "></path>
        <path fill="none" stroke="#00fafa" stroke-width="3" d="M 336 430 L 337 430 L 339 432 L 339 435 L 338 436 L 338 437 L 333 442 L 333 443 L 327 449 L 324 449 L 322 447 L 322 444 L 326 440 L 327 440 L 328 439 L 329 439 L 331 437 L 331 436 L 333 434 L 333 433 "></path>
        <path fill="none" stroke="#00fafa" stroke-width="3" d="M 300 327 L 304 327 L 307 330 L 307 335 L 306 336 L 306 337 L 305 338 L 304 338 L 303 339 L 301 339 L 300 338 L 295 338 L 294 337 L 292 337 L 291 336 L 291 335 L 295 331 L 296 331 "></path>
        <path fill="none" stroke="#00fafa" stroke-width="3" d="M 304 423 L 307 423 L 308 424 L 308 426 L 307 427 L 307 433 L 311 437 L 311 438 L 312 439 L 312 441 L 310 443 L 305 443 L 302 440 L 302 425 "></path>
        <path fill="none" stroke="#00fafa" stroke-width="3" d="M 524 198 L 528 198 L 529 199 L 529 201 L 530 202 L 530 209 L 531 210 L 531 212 L 528 215 L 527 214 L 526 214 L 523 211 L 523 210 L 521 208 L 521 207 L 520 206 L 520 202 "></path>
        <path fill="none" stroke="#00fafa" stroke-width="3" d="M 575 620 L 577 622 L 577 624 L 578 625 L 578 630 L 579 631 L 579 633 L 580 634 L 580 636 L 577 639 L 574 639 L 571 636 L 571 625 L 572 624 L 572 623 "></path>
        <path fill="none" stroke="#00fafa" stroke-width="3" d="M 710 479 L 711 478 L 712 479 L 713 479 L 715 481 L 715 484 L 714 485 L 714 492 L 715 493 L 715 495 L 713 497 L 711 497 L 709 495 L 709 494 L 708 493 L 708 492 L 707 491 L 707 487 L 706 486 L 706 485 L 707 484 L 707 482 L 708 481 L 708 480 L 709 479 "></path>
        <path fill="none" stroke="#00fafa" stroke-width="3" d="M 723 506 L 724 505 L 726 505 L 727 506 L 728 506 L 732 510 L 732 511 L 733 512 L 733 517 L 731 519 L 728 519 L 726 517 L 726 516 L 725 515 L 725 514 L 723 512 L 722 512 L 721 511 L 720 511 L 718 509 L 721 506 "></path>
        <path fill="none" stroke="#00fafa" stroke-width="3" d="M 632 614 L 636 614 L 637 615 L 638 615 L 639 616 L 640 616 L 643 619 L 643 621 L 640 624 L 639 624 L 638 625 L 633 625 L 628 620 L 628 618 "></path>
        <path fill="none" stroke="#00fafa" stroke-width="3" d="M 500 152 L 501 151 L 503 151 L 507 155 L 507 159 L 505 161 L 505 162 L 501 166 L 497 166 L 495 164 L 495 161 L 496 160 L 496 159 L 498 157 L 498 156 L 499 155 L 499 154 L 500 153 "></path>
        <path fill="none" stroke="#00fafa" stroke-width="3" d="M 765 468 L 766 467 L 769 467 L 770 468 L 771 468 L 772 469 L 772 470 L 773 471 L 773 475 L 772 476 L 772 477 L 771 478 L 770 478 L 769 479 L 767 479 L 766 478 L 765 478 L 764 477 L 763 477 L 760 474 L 760 471 L 763 468 "></path>
        <path fill="none" stroke="#00fafa" stroke-width="3" d="M 444 208 L 445 207 L 447 207 L 448 208 L 450 208 L 451 209 L 452 209 L 456 213 L 456 215 L 454 217 L 450 217 L 449 216 L 445 216 L 444 215 L 442 215 L 439 212 L 439 211 L 442 208 "></path>
        <path fill="none" stroke="#00fafa" stroke-width="3" d="M 350 513 L 352 513 L 353 514 L 355 514 L 356 515 L 357 515 L 358 516 L 361 516 L 364 519 L 363 520 L 363 521 L 361 523 L 360 523 L 359 524 L 355 524 L 354 523 L 353 523 L 349 519 L 349 518 L 348 517 L 348 515 "></path>
        <path fill="none" stroke="#00fafa" stroke-width="3" d="M 679 557 L 680 557 L 681 558 L 682 558 L 683 559 L 683 560 L 684 561 L 684 572 L 682 574 L 680 574 L 679 573 L 679 572 L 678 571 L 678 569 L 677 568 L 677 566 L 676 565 L 676 560 "></path>
        <path fill="none" stroke="#00fafa" stroke-width="3" d="M 734 370 L 735 369 L 740 369 L 741 370 L 742 370 L 746 374 L 746 377 L 745 378 L 745 379 L 742 382 L 741 382 L 737 378 L 737 377 L 734 374 "></path>
        <path fill="none" stroke="#00fafa" stroke-width="3" d="M 356 302 L 357 301 L 359 301 L 361 303 L 360 304 L 360 305 L 358 307 L 358 308 L 357 309 L 357 310 L 356 311 L 356 313 L 353 316 L 350 316 L 349 315 L 349 314 L 348 313 L 348 311 L 349 310 L 349 309 L 350 308 L 350 307 L 355 302 "></path>
        <path fill="none" stroke="#00fafa" stroke-width="3" d="M 739 416 L 740 415 L 742 417 L 742 422 L 741 423 L 741 426 L 740 427 L 740 428 L 737 431 L 736 431 L 735 432 L 734 431 L 733 431 L 732 430 L 732 429 L 731 428 L 732 427 L 732 426 L 733 425 L 733 424 L 735 422 L 735 421 L 736 420 L 736 419 L 737 418 L 737 417 L 738 416 "></path>
        <path fill="none" stroke="#00fafa" stroke-width="3" d="M 728 444 L 729 443 L 730 443 L 733 446 L 733 448 L 734 449 L 734 450 L 735 451 L 735 454 L 733 456 L 729 456 L 728 455 L 727 455 L 725 453 L 725 452 L 724 451 L 724 448 L 725 447 L 725 446 L 727 444 "></path>
        <path fill="none" stroke="#00fafa" stroke-width="3" d="M 408 224 L 409 223 L 412 223 L 413 224 L 414 224 L 415 225 L 416 225 L 419 228 L 419 229 L 420 230 L 418 232 L 417 232 L 416 233 L 413 233 L 412 232 L 409 232 L 408 231 L 407 231 L 405 229 L 405 227 L 406 226 L 406 225 L 407 224 "></path>
        <path fill="none" stroke="#00fafa" stroke-width="3" d="M 335 455 L 336 454 L 339 454 L 340 455 L 340 460 L 339 461 L 339 468 L 338 469 L 338 470 L 335 473 L 334 473 L 333 472 L 333 471 L 332 470 L 333 469 L 333 464 L 334 463 L 334 462 L 333 461 L 333 460 L 334 459 L 334 457 L 335 456 "></path>
        <path fill="none" stroke="#00fafa" stroke-width="3" d="M 459 194 L 460 193 L 463 193 L 464 194 L 465 194 L 468 197 L 468 201 L 465 204 L 462 204 L 461 203 L 460 203 L 459 202 L 458 202 L 456 200 L 456 197 L 457 196 L 457 195 L 458 194 "></path>
        <path fill="none" stroke="#00fafa" stroke-width="3" d="M 346 555 L 347 554 L 348 554 L 349 555 L 350 555 L 354 559 L 354 564 L 352 566 L 349 566 L 348 565 L 346 565 L 343 562 L 343 558 L 344 557 L 344 556 L 345 555 "></path>
        <path fill="none" stroke="#00fafa" stroke-width="3" d="M 605 611 L 606 610 L 607 611 L 608 611 L 613 616 L 613 617 L 614 618 L 614 620 L 612 622 L 607 622 L 606 621 L 605 621 L 603 619 L 603 618 L 602 617 L 602 613 L 604 611 "></path>
        <path fill="none" stroke="#00fafa" stroke-width="3" d="M 690 254 L 691 253 L 692 254 L 694 254 L 695 255 L 696 255 L 698 257 L 698 258 L 699 259 L 699 261 L 695 265 L 694 265 L 693 264 L 692 264 L 690 262 L 689 262 L 687 260 L 687 259 L 686 258 L 686 257 L 689 254 "></path>
        <path fill="none" stroke="#00fafa" stroke-width="3" d="M 479 195 L 480 194 L 481 194 L 484 197 L 484 199 L 485 200 L 485 201 L 486 202 L 486 203 L 487 204 L 487 207 L 485 209 L 482 209 L 481 208 L 480 208 L 479 207 L 479 206 L 478 205 L 478 203 L 477 202 L 478 201 L 478 197 L 479 196 "></path>
        <path fill="none" stroke="#00fafa" stroke-width="3" d="M 338 369 L 341 369 L 342 370 L 342 380 L 341 381 L 341 382 L 339 384 L 337 384 L 334 381 L 334 377 L 335 376 L 335 373 L 336 372 L 336 371 "></path>
        <path fill="none" stroke="#00fafa" stroke-width="3" d="M 394 209 L 395 208 L 396 209 L 398 209 L 401 212 L 401 213 L 402 214 L 402 216 L 398 220 L 396 220 L 395 219 L 394 219 L 392 217 L 392 216 L 391 215 L 391 212 L 392 211 L 392 210 L 393 209 "></path>
        <path fill="none" stroke="#00fafa" stroke-width="3" d="M 333 645 L 334 644 L 337 644 L 340 647 L 340 652 L 338 654 L 336 654 L 335 655 L 334 654 L 332 654 L 329 651 L 329 648 L 332 645 "></path>
        <path fill="none" stroke="#00fafa" stroke-width="3" d="M 332 496 L 333 495 L 340 495 L 341 496 L 343 496 L 346 499 L 346 500 L 343 503 L 337 503 L 336 502 L 335 502 L 334 501 L 333 501 L 332 500 L 332 499 L 331 498 L 332 497 "></path>
        <path fill="none" stroke="#00fafa" stroke-width="3" d="M 663 565 L 664 565 L 665 566 L 666 566 L 667 567 L 667 568 L 668 569 L 668 570 L 669 571 L 669 577 L 667 579 L 665 579 L 662 576 L 662 575 L 661 574 L 661 571 L 660 570 L 660 569 L 661 568 L 661 567 "></path>
        <path fill="none" stroke="#00fafa" stroke-width="3" d="M 380 538 L 382 538 L 385 541 L 385 542 L 386 543 L 386 544 L 387 545 L 387 549 L 385 551 L 382 551 L 379 548 L 379 547 L 378 546 L 378 540 "></path>
    </g>
</svg>
