<svg xmlns="http://www.w3.org/2000/svg" xmlns:xlink="http://www.w3.org/1999/xlink" version="1.1" x="0" y="0" width="1056px" height="816px">
    <g id="rootLayer" transform="translate(0.000000, 0.000000)">
        <path fill="none" stroke="#ffffff" stroke-width="3" d="M 443 112 L 442 113 L 439 113 L 438 114 L 437 114 L 435 116 L 434 116 L 433 117 L 432 117 L 432 118 L 431 119 L 429 119 L 428 120 L 425 120 L 424 121 L 423 121 L 421 123 L 420 123 L 418 125 L 417 125 L 417 126 L 416 127 L 416 128 L 415 129 L 415 131 L 416 132 L 413 135 L 410 135 L 409 136 L 408 136 L 407 137 L 407 138 L 406 139 L 406 140 L 405 141 L 405 142 L 402 145 L 402 146 L 400 148 L 400 150 L 399 151 L 399 159 L 398 160 L 398 163 L 396 165 L 396 167 L 394 169 L 394 171 L 393 172 L 393 174 L 392 175 L 392 176 L 391 177 L 391 178 L 390 179 L 390 180 L 389 181 L 389 182 L 388 183 L 388 184 L 387 185 L 387 186 L 386 187 L 386 189 L 387 190 L 386 191 L 386 193 L 387 194 L 387 200 L 388 201 L 388 204 L 389 205 L 389 206 L 390 207 L 390 208 L 392 210 L 392 214 L 391 215 L 389 215 L 388 214 L 387 214 L 385 212 L 383 212 L 382 211 L 379 211 L 378 210 L 367 210 L 366 211 L 365 211 L 364 212 L 364 213 L 363 214 L 362 214 L 361 215 L 360 215 L 360 216 L 359 217 L 358 217 L 357 218 L 356 218 L 355 219 L 354 219 L 354 221 L 355 222 L 354 223 L 354 225 L 352 227 L 344 227 L 343 228 L 342 228 L 341 229 L 340 229 L 339 230 L 338 230 L 336 232 L 336 234 L 334 236 L 334 237 L 331 240 L 331 241 L 329 243 L 329 246 L 328 247 L 328 248 L 327 249 L 327 250 L 326 251 L 326 255 L 325 256 L 326 257 L 326 259 L 325 260 L 325 262 L 324 263 L 324 265 L 325 266 L 324 267 L 324 268 L 325 269 L 325 271 L 326 272 L 326 273 L 327 274 L 327 277 L 328 278 L 327 279 L 327 280 L 330 283 L 331 283 L 332 284 L 333 284 L 334 283 L 335 283 L 336 282 L 345 282 L 346 283 L 360 283 L 361 282 L 363 282 L 364 281 L 365 281 L 366 280 L 370 280 L 371 281 L 373 281 L 374 282 L 406 282 L 407 281 L 408 281 L 410 279 L 410 278 L 412 276 L 412 275 L 413 274 L 413 273 L 414 272 L 414 268 L 415 267 L 415 263 L 414 262 L 414 255 L 418 251 L 418 250 L 419 249 L 419 248 L 420 247 L 420 245 L 422 243 L 422 241 L 423 240 L 423 239 L 425 237 L 425 236 L 426 235 L 426 231 L 427 230 L 427 226 L 428 225 L 428 222 L 429 221 L 429 220 L 430 219 L 449 219 L 452 222 L 452 231 L 453 232 L 453 234 L 456 237 L 456 238 L 457 239 L 458 239 L 460 241 L 461 241 L 462 242 L 464 242 L 465 243 L 472 243 L 473 242 L 476 242 L 477 241 L 478 241 L 479 240 L 480 240 L 481 239 L 482 239 L 482 238 L 483 237 L 484 237 L 487 234 L 488 234 L 489 233 L 490 233 L 491 232 L 492 232 L 493 231 L 494 231 L 496 229 L 497 229 L 498 228 L 501 228 L 504 225 L 504 223 L 506 221 L 505 220 L 505 217 L 504 216 L 504 214 L 505 213 L 504 212 L 505 211 L 512 211 L 513 210 L 515 210 L 516 209 L 515 208 L 515 207 L 519 203 L 521 203 L 522 204 L 524 204 L 525 203 L 526 203 L 526 134 L 523 134 L 521 136 L 503 136 L 502 135 L 502 134 L 500 132 L 499 132 L 498 131 L 497 131 L 496 130 L 495 130 L 494 129 L 493 129 L 492 128 L 491 128 L 490 127 L 483 127 L 482 126 L 481 126 L 478 123 L 469 123 L 468 124 L 463 124 L 462 123 L 462 122 L 461 121 L 461 120 L 460 119 L 460 118 L 459 117 L 459 116 L 458 115 L 457 115 L 454 112 "></path>
        <path fill="none" stroke="#ffffff" stroke-width="3" d="M 276 163 L 275 164 L 255 164 L 254 165 L 253 165 L 252 166 L 252 167 L 250 169 L 249 169 L 247 171 L 246 171 L 245 172 L 235 172 L 234 173 L 233 173 L 233 175 L 234 176 L 234 178 L 236 180 L 232 184 L 226 184 L 224 186 L 224 187 L 225 188 L 225 189 L 224 190 L 225 191 L 225 193 L 224 194 L 224 196 L 220 200 L 217 200 L 216 201 L 215 201 L 214 202 L 214 205 L 213 206 L 214 207 L 214 211 L 215 212 L 215 214 L 216 215 L 216 216 L 217 217 L 217 219 L 219 221 L 219 223 L 221 225 L 221 226 L 222 227 L 223 227 L 225 229 L 225 230 L 226 231 L 227 231 L 228 232 L 229 232 L 230 233 L 231 233 L 232 234 L 234 234 L 235 235 L 240 235 L 241 234 L 242 234 L 242 233 L 243 232 L 244 232 L 245 231 L 246 232 L 247 231 L 253 231 L 254 232 L 255 231 L 256 232 L 262 232 L 264 230 L 262 228 L 262 225 L 263 224 L 264 224 L 265 223 L 269 223 L 270 224 L 271 223 L 272 224 L 274 224 L 275 223 L 277 223 L 278 222 L 279 222 L 280 221 L 281 221 L 282 220 L 284 220 L 285 219 L 286 219 L 286 218 L 287 217 L 287 215 L 289 213 L 292 213 L 294 211 L 295 211 L 295 210 L 296 209 L 296 207 L 295 206 L 296 205 L 295 204 L 295 198 L 296 197 L 296 196 L 297 195 L 299 195 L 300 196 L 300 197 L 301 197 L 303 199 L 307 199 L 308 198 L 309 198 L 310 197 L 310 196 L 312 194 L 312 192 L 313 191 L 313 188 L 314 187 L 314 177 L 313 176 L 313 174 L 309 170 L 307 170 L 306 169 L 305 169 L 304 168 L 301 168 L 300 167 L 299 167 L 298 166 L 297 166 L 296 165 L 295 165 L 294 164 L 289 164 L 288 163 "></path>
        <path fill="none" stroke="#ffffff" stroke-width="3" d="M 391 252 L 392 253 L 394 253 L 395 254 L 395 255 L 396 256 L 393 259 L 392 259 L 391 260 L 389 258 L 389 257 L 388 256 L 388 255 "></path>
        <path fill="none" stroke="#ffffff" stroke-width="3" d="M 490 67 L 489 68 L 488 68 L 487 69 L 486 69 L 483 72 L 482 72 L 479 75 L 473 75 L 472 76 L 465 76 L 462 73 L 461 73 L 460 72 L 449 72 L 448 73 L 446 73 L 445 74 L 444 74 L 443 75 L 440 75 L 439 76 L 438 76 L 437 77 L 436 77 L 435 78 L 435 79 L 432 82 L 432 83 L 430 85 L 430 91 L 431 92 L 431 93 L 429 95 L 425 95 L 424 94 L 423 95 L 422 95 L 421 96 L 420 96 L 419 97 L 419 98 L 421 100 L 423 100 L 424 101 L 426 101 L 427 100 L 441 100 L 442 101 L 442 104 L 441 105 L 438 105 L 437 106 L 436 106 L 435 107 L 434 107 L 431 110 L 431 111 L 429 113 L 428 112 L 425 112 L 424 111 L 412 111 L 411 112 L 410 111 L 408 111 L 407 112 L 406 111 L 404 111 L 403 112 L 402 111 L 400 111 L 399 112 L 398 111 L 396 111 L 395 112 L 394 111 L 376 111 L 375 112 L 374 111 L 372 111 L 371 112 L 366 112 L 365 113 L 364 113 L 364 114 L 362 116 L 352 116 L 351 117 L 350 117 L 350 120 L 349 121 L 349 122 L 350 123 L 350 124 L 351 125 L 351 126 L 352 127 L 352 130 L 354 132 L 370 132 L 372 134 L 372 145 L 371 146 L 372 147 L 372 149 L 371 150 L 372 151 L 372 153 L 371 154 L 371 159 L 372 160 L 380 160 L 381 161 L 381 162 L 382 163 L 382 164 L 380 166 L 378 166 L 377 167 L 376 167 L 374 169 L 374 171 L 370 175 L 369 175 L 367 177 L 365 177 L 364 178 L 358 178 L 356 180 L 356 182 L 355 183 L 355 185 L 356 186 L 356 189 L 357 189 L 360 192 L 360 193 L 361 194 L 361 198 L 360 199 L 360 200 L 359 201 L 352 201 L 351 202 L 350 202 L 349 203 L 349 204 L 348 205 L 349 206 L 348 207 L 348 208 L 347 209 L 344 209 L 343 210 L 342 210 L 341 211 L 341 213 L 342 214 L 341 215 L 341 216 L 340 217 L 338 217 L 337 218 L 334 218 L 334 219 L 333 220 L 335 222 L 353 222 L 354 223 L 353 224 L 353 226 L 352 227 L 344 227 L 343 228 L 341 228 L 340 229 L 336 229 L 335 230 L 320 230 L 319 231 L 318 231 L 318 232 L 316 234 L 311 234 L 309 236 L 309 238 L 308 239 L 308 240 L 307 241 L 305 241 L 304 242 L 291 242 L 290 243 L 289 243 L 288 244 L 288 245 L 283 250 L 281 250 L 280 251 L 278 251 L 277 252 L 277 253 L 275 255 L 275 258 L 274 259 L 274 263 L 273 264 L 273 270 L 272 271 L 272 273 L 273 274 L 272 275 L 272 276 L 273 277 L 273 281 L 274 282 L 274 285 L 275 286 L 274 287 L 274 288 L 275 289 L 275 296 L 278 299 L 281 299 L 282 300 L 283 299 L 284 300 L 296 300 L 297 299 L 298 299 L 299 298 L 308 298 L 309 297 L 311 297 L 314 294 L 338 294 L 339 295 L 348 295 L 349 294 L 350 294 L 351 293 L 351 292 L 350 291 L 350 290 L 351 289 L 351 288 L 352 287 L 354 287 L 355 286 L 356 287 L 360 287 L 361 286 L 362 286 L 363 285 L 363 282 L 364 281 L 365 281 L 366 280 L 370 280 L 371 281 L 373 281 L 374 282 L 414 282 L 416 280 L 416 278 L 419 275 L 420 275 L 421 274 L 433 274 L 434 273 L 443 273 L 445 275 L 445 282 L 446 283 L 446 289 L 447 290 L 447 291 L 448 292 L 448 294 L 449 294 L 454 299 L 456 299 L 458 301 L 460 301 L 461 302 L 470 302 L 471 301 L 472 301 L 473 300 L 474 300 L 476 298 L 477 298 L 480 295 L 482 295 L 483 294 L 484 294 L 485 293 L 486 293 L 487 292 L 491 292 L 492 291 L 493 291 L 494 290 L 494 288 L 492 286 L 492 284 L 491 283 L 492 282 L 492 281 L 498 275 L 502 275 L 504 277 L 504 278 L 505 278 L 506 279 L 508 279 L 511 282 L 518 282 L 519 281 L 520 281 L 521 280 L 522 280 L 524 278 L 524 277 L 526 275 L 526 237 L 525 236 L 517 236 L 516 237 L 511 237 L 510 236 L 509 236 L 508 235 L 508 234 L 507 233 L 507 231 L 508 230 L 508 229 L 509 228 L 510 228 L 511 227 L 525 227 L 526 226 L 526 212 L 525 211 L 520 211 L 519 212 L 518 212 L 517 213 L 517 216 L 514 219 L 512 219 L 509 216 L 507 216 L 505 214 L 505 213 L 504 212 L 505 211 L 514 211 L 515 210 L 516 210 L 517 209 L 516 208 L 516 206 L 519 203 L 521 203 L 522 204 L 524 204 L 525 203 L 526 203 L 526 75 L 525 74 L 523 74 L 522 75 L 521 75 L 519 77 L 518 77 L 517 78 L 516 78 L 515 79 L 513 79 L 512 80 L 508 80 L 507 79 L 507 78 L 505 76 L 505 75 L 504 74 L 504 73 L 500 69 L 499 69 L 498 68 L 495 68 L 494 67 "></path>
        <path fill="none" stroke="#ffffff" stroke-width="3" d="M 295 148 L 294 149 L 292 149 L 289 152 L 274 152 L 272 154 L 273 155 L 273 157 L 272 158 L 272 159 L 271 160 L 235 160 L 234 161 L 232 161 L 229 164 L 214 164 L 213 165 L 212 165 L 212 170 L 211 171 L 210 171 L 209 172 L 199 172 L 197 174 L 197 175 L 198 176 L 199 176 L 200 177 L 201 177 L 202 178 L 203 177 L 204 178 L 205 177 L 209 177 L 210 176 L 231 176 L 232 177 L 232 178 L 233 179 L 233 181 L 232 182 L 232 183 L 231 184 L 174 184 L 172 186 L 172 187 L 174 189 L 173 190 L 174 191 L 174 192 L 173 193 L 172 193 L 169 196 L 166 196 L 165 197 L 164 197 L 164 200 L 162 202 L 162 204 L 161 205 L 161 209 L 160 210 L 161 211 L 161 212 L 160 213 L 160 221 L 159 222 L 160 223 L 160 227 L 161 228 L 161 230 L 164 233 L 164 235 L 165 236 L 165 237 L 164 238 L 165 239 L 165 241 L 164 242 L 166 244 L 168 244 L 169 245 L 206 245 L 207 244 L 208 244 L 209 245 L 210 244 L 213 244 L 214 245 L 215 244 L 217 244 L 218 245 L 219 244 L 221 244 L 222 245 L 223 244 L 225 244 L 226 245 L 227 244 L 229 244 L 230 245 L 231 244 L 252 244 L 253 243 L 254 243 L 254 238 L 256 236 L 266 236 L 267 235 L 268 235 L 269 234 L 269 232 L 270 231 L 270 229 L 269 229 L 268 228 L 261 228 L 260 227 L 261 226 L 261 225 L 263 223 L 265 223 L 266 224 L 267 223 L 268 224 L 270 224 L 271 223 L 272 224 L 274 224 L 275 223 L 277 223 L 278 222 L 279 222 L 280 221 L 281 221 L 282 220 L 284 220 L 285 219 L 286 219 L 286 218 L 287 217 L 287 215 L 289 213 L 292 213 L 294 211 L 295 211 L 295 210 L 299 206 L 307 206 L 308 205 L 310 205 L 311 204 L 321 204 L 323 202 L 323 194 L 322 193 L 322 192 L 321 191 L 320 191 L 318 189 L 318 188 L 319 187 L 320 187 L 322 185 L 323 185 L 324 184 L 324 182 L 326 180 L 326 179 L 327 178 L 334 178 L 335 177 L 337 177 L 345 169 L 345 168 L 346 167 L 346 166 L 345 165 L 345 163 L 344 162 L 344 161 L 342 159 L 342 158 L 340 156 L 339 156 L 338 155 L 337 155 L 334 152 L 331 152 L 330 151 L 321 151 L 320 150 L 319 151 L 318 150 L 317 150 L 316 149 L 315 149 L 314 148 "></path>
    </g>
</svg>
