<svg xmlns="http://www.w3.org/2000/svg" xmlns:xlink="http://www.w3.org/1999/xlink" version="1.1" x="0" y="0" width="1056px" height="816px">
    <g id="rootLayer" transform="translate(0.000000, 0.000000)">
        <path fill="none" stroke="#00fafa" stroke-width="3" d="M 381 391 L 390 391 L 391 392 L 395 392 L 396 393 L 398 393 L 399 394 L 401 394 L 402 395 L 403 395 L 405 397 L 406 397 L 407 398 L 408 398 L 416 406 L 416 407 L 415 408 L 410 403 L 409 403 L 407 401 L 406 401 L 405 400 L 404 400 L 403 399 L 402 399 L 401 398 L 400 398 L 399 397 L 396 397 L 395 396 L 391 396 L 390 395 L 386 395 L 385 396 L 383 396 L 382 397 L 381 397 L 379 399 L 378 399 L 377 400 L 377 401 L 370 408 L 370 409 L 367 412 L 367 413 L 366 414 L 366 416 L 365 417 L 365 419 L 366 420 L 366 427 L 367 428 L 367 446 L 366 447 L 366 455 L 367 456 L 367 457 L 368 458 L 368 459 L 374 465 L 374 466 L 378 470 L 379 470 L 381 472 L 382 472 L 383 473 L 384 473 L 386 475 L 387 475 L 392 480 L 392 481 L 393 482 L 393 483 L 394 484 L 394 485 L 395 486 L 395 488 L 396 489 L 396 494 L 397 495 L 397 499 L 398 500 L 398 502 L 399 503 L 399 505 L 400 506 L 400 507 L 402 509 L 402 510 L 404 512 L 404 513 L 413 522 L 414 522 L 416 524 L 417 524 L 418 525 L 419 525 L 420 526 L 421 526 L 422 527 L 424 527 L 425 528 L 428 528 L 429 529 L 433 529 L 434 530 L 437 530 L 438 531 L 439 531 L 440 532 L 441 532 L 442 533 L 443 533 L 448 538 L 448 539 L 450 541 L 450 542 L 451 543 L 451 545 L 452 546 L 452 549 L 453 550 L 453 554 L 454 555 L 454 557 L 456 559 L 459 559 L 460 560 L 465 560 L 466 561 L 468 561 L 470 563 L 471 563 L 475 567 L 475 568 L 477 570 L 477 571 L 478 572 L 478 576 L 479 577 L 479 578 L 478 579 L 478 584 L 477 585 L 477 586 L 484 586 L 485 587 L 488 587 L 489 588 L 493 588 L 494 589 L 499 589 L 500 590 L 506 590 L 507 591 L 520 591 L 521 592 L 537 592 L 538 591 L 546 591 L 547 590 L 549 590 L 553 594 L 554 594 L 554 593 L 555 592 L 555 589 L 556 588 L 556 585 L 557 584 L 557 582 L 558 581 L 558 579 L 559 578 L 559 577 L 560 576 L 560 575 L 562 573 L 562 572 L 569 565 L 570 565 L 572 563 L 573 563 L 574 562 L 575 562 L 576 561 L 578 561 L 579 560 L 581 560 L 582 559 L 595 559 L 596 560 L 598 560 L 599 561 L 600 561 L 603 564 L 604 564 L 605 565 L 605 566 L 608 569 L 608 571 L 609 572 L 609 576 L 610 577 L 611 576 L 611 574 L 612 573 L 612 572 L 613 571 L 613 570 L 615 568 L 615 567 L 619 563 L 620 563 L 623 560 L 624 560 L 625 559 L 627 559 L 628 558 L 629 558 L 630 557 L 634 557 L 635 556 L 641 556 L 642 555 L 646 555 L 647 554 L 645 552 L 645 550 L 650 545 L 651 545 L 660 536 L 661 536 L 663 538 L 664 538 L 665 537 L 665 532 L 666 531 L 666 526 L 667 525 L 667 522 L 668 521 L 668 519 L 669 518 L 669 517 L 670 516 L 670 515 L 672 513 L 672 512 L 679 505 L 680 505 L 681 504 L 682 504 L 683 503 L 684 503 L 685 502 L 686 502 L 687 501 L 688 501 L 689 500 L 691 500 L 692 499 L 692 498 L 691 497 L 691 495 L 692 494 L 692 493 L 691 492 L 690 493 L 686 493 L 685 492 L 682 492 L 681 491 L 680 491 L 679 490 L 678 490 L 674 486 L 674 485 L 675 484 L 677 486 L 678 486 L 679 487 L 687 487 L 688 486 L 689 486 L 693 482 L 693 481 L 694 480 L 694 478 L 695 477 L 695 473 L 694 472 L 694 470 L 693 469 L 693 468 L 691 466 L 690 466 L 689 465 L 686 465 L 685 464 L 677 464 L 676 463 L 676 460 L 670 454 L 669 454 L 667 452 L 666 452 L 665 451 L 663 451 L 661 449 L 662 448 L 671 448 L 675 452 L 675 454 L 676 455 L 676 456 L 677 457 L 677 458 L 678 458 L 679 459 L 680 459 L 681 460 L 689 460 L 690 459 L 691 459 L 695 455 L 695 454 L 696 453 L 697 453 L 699 451 L 711 451 L 712 452 L 713 452 L 714 453 L 715 453 L 725 463 L 726 463 L 728 465 L 728 466 L 729 467 L 729 468 L 730 469 L 730 472 L 729 473 L 729 482 L 728 483 L 728 493 L 729 494 L 729 504 L 730 505 L 730 506 L 729 507 L 729 508 L 728 509 L 724 509 L 723 508 L 689 508 L 688 509 L 686 509 L 685 510 L 684 510 L 683 511 L 682 511 L 680 513 L 679 513 L 678 514 L 678 515 L 676 517 L 676 518 L 675 519 L 675 521 L 674 522 L 674 525 L 673 526 L 673 557 L 674 558 L 674 563 L 673 564 L 666 564 L 665 563 L 636 563 L 635 564 L 631 564 L 630 565 L 628 565 L 627 566 L 626 566 L 624 568 L 623 568 L 622 569 L 622 570 L 620 572 L 620 573 L 619 574 L 619 576 L 618 577 L 618 618 L 619 619 L 619 624 L 618 625 L 618 626 L 613 631 L 612 631 L 611 632 L 610 632 L 609 633 L 606 633 L 605 634 L 591 634 L 590 633 L 587 633 L 586 632 L 585 632 L 584 631 L 584 630 L 583 629 L 583 588 L 586 585 L 587 585 L 588 584 L 594 584 L 595 583 L 596 583 L 597 582 L 598 582 L 601 579 L 601 578 L 602 577 L 602 570 L 601 569 L 601 568 L 597 564 L 596 564 L 595 563 L 585 563 L 584 564 L 581 564 L 580 565 L 578 565 L 577 566 L 576 566 L 575 567 L 574 567 L 573 568 L 572 568 L 567 573 L 567 574 L 566 575 L 566 576 L 565 577 L 565 578 L 564 579 L 564 581 L 563 582 L 563 588 L 562 589 L 562 607 L 563 608 L 563 630 L 560 633 L 559 633 L 558 634 L 555 634 L 554 635 L 538 635 L 537 634 L 536 634 L 534 632 L 533 632 L 528 627 L 528 626 L 527 625 L 527 621 L 526 620 L 526 617 L 525 616 L 525 615 L 524 614 L 524 613 L 523 613 L 521 611 L 519 611 L 518 610 L 516 610 L 515 611 L 513 611 L 508 616 L 508 617 L 506 619 L 473 619 L 472 620 L 467 620 L 466 619 L 465 619 L 456 610 L 456 609 L 454 607 L 454 605 L 453 604 L 453 599 L 452 598 L 452 591 L 453 590 L 453 588 L 456 585 L 464 585 L 465 584 L 467 584 L 468 583 L 469 583 L 472 580 L 472 579 L 473 578 L 473 577 L 474 576 L 474 571 L 473 570 L 473 569 L 469 565 L 467 565 L 466 564 L 459 564 L 458 565 L 453 565 L 449 561 L 449 559 L 448 558 L 448 553 L 447 552 L 447 543 L 446 542 L 446 541 L 445 540 L 445 539 L 442 536 L 441 536 L 440 535 L 439 535 L 438 534 L 426 534 L 425 533 L 422 533 L 421 532 L 420 532 L 419 531 L 418 531 L 417 530 L 416 530 L 415 529 L 414 529 L 413 528 L 412 528 L 409 525 L 408 525 L 400 517 L 400 516 L 398 514 L 398 513 L 396 511 L 396 510 L 395 509 L 395 508 L 394 507 L 394 506 L 393 505 L 393 503 L 392 502 L 392 500 L 391 499 L 391 485 L 390 484 L 390 483 L 386 479 L 385 479 L 384 478 L 383 478 L 382 477 L 380 477 L 379 476 L 377 476 L 372 471 L 372 470 L 361 459 L 361 458 L 360 457 L 360 452 L 361 451 L 361 446 L 362 445 L 362 426 L 361 425 L 361 421 L 360 420 L 360 413 L 361 412 L 361 411 L 365 407 L 366 407 L 373 400 L 373 399 L 381 391 L 390 391 "></path>
        <path fill="none" stroke="#00fafa" stroke-width="3" d="M 558 196 L 559 195 L 562 195 L 563 196 L 563 197 L 564 198 L 564 199 L 563 200 L 563 232 L 564 233 L 564 235 L 565 236 L 565 238 L 566 239 L 566 240 L 568 242 L 568 243 L 571 246 L 572 246 L 574 248 L 575 248 L 576 249 L 577 249 L 578 250 L 580 250 L 581 251 L 586 251 L 587 252 L 611 252 L 612 251 L 618 251 L 619 250 L 623 250 L 624 251 L 625 251 L 640 266 L 640 268 L 641 269 L 641 274 L 642 275 L 642 277 L 644 279 L 644 280 L 645 280 L 647 282 L 648 282 L 649 283 L 650 283 L 651 284 L 664 284 L 665 285 L 668 285 L 669 286 L 670 286 L 671 287 L 672 287 L 674 289 L 674 290 L 675 291 L 675 294 L 674 295 L 674 304 L 673 305 L 673 341 L 674 342 L 674 347 L 675 348 L 675 351 L 676 352 L 676 353 L 677 354 L 677 356 L 678 357 L 678 358 L 680 360 L 680 361 L 682 363 L 682 364 L 692 374 L 693 374 L 697 378 L 697 379 L 698 380 L 698 389 L 697 390 L 697 393 L 696 394 L 696 396 L 695 397 L 695 398 L 694 399 L 694 400 L 693 401 L 693 402 L 692 403 L 692 404 L 691 405 L 691 406 L 688 409 L 688 410 L 681 417 L 680 417 L 677 420 L 676 420 L 675 421 L 674 421 L 673 422 L 672 422 L 671 423 L 669 423 L 668 424 L 663 424 L 662 423 L 662 422 L 663 421 L 664 421 L 665 420 L 667 420 L 668 419 L 669 419 L 670 418 L 671 418 L 672 417 L 673 417 L 675 415 L 676 415 L 684 407 L 684 406 L 686 404 L 686 403 L 687 402 L 687 401 L 688 400 L 688 399 L 689 398 L 689 397 L 690 396 L 690 394 L 691 393 L 691 390 L 692 389 L 692 382 L 691 381 L 691 380 L 689 378 L 689 377 L 680 368 L 680 367 L 677 364 L 677 363 L 676 362 L 676 361 L 675 360 L 675 359 L 674 358 L 674 357 L 673 356 L 673 355 L 672 354 L 672 352 L 671 351 L 671 349 L 670 348 L 670 344 L 669 343 L 669 336 L 668 335 L 668 307 L 667 306 L 667 303 L 668 302 L 668 294 L 666 292 L 665 292 L 664 291 L 658 291 L 657 290 L 652 290 L 651 289 L 649 289 L 648 288 L 647 288 L 646 287 L 645 287 L 638 280 L 638 279 L 637 278 L 637 277 L 636 276 L 636 275 L 635 274 L 635 271 L 634 270 L 634 269 L 632 267 L 632 266 L 630 264 L 629 264 L 623 258 L 622 258 L 621 257 L 589 257 L 588 256 L 583 256 L 582 255 L 579 255 L 578 254 L 576 254 L 575 253 L 574 253 L 573 252 L 572 252 L 570 250 L 569 250 L 562 243 L 562 242 L 560 240 L 560 239 L 559 238 L 559 237 L 558 236 L 558 234 L 557 233 L 557 231 L 556 230 L 556 227 L 555 226 L 555 223 L 554 222 L 553 222 L 553 223 L 551 225 L 550 225 L 549 226 L 547 226 L 546 225 L 541 225 L 538 222 L 538 221 L 537 220 L 536 220 L 536 222 L 535 223 L 535 229 L 534 230 L 534 234 L 533 235 L 533 238 L 532 239 L 532 241 L 531 242 L 531 243 L 530 244 L 530 245 L 529 246 L 529 247 L 527 249 L 527 250 L 524 253 L 524 254 L 520 258 L 519 258 L 513 264 L 512 264 L 503 273 L 502 272 L 502 271 L 506 267 L 506 266 L 511 261 L 512 261 L 521 252 L 521 251 L 523 249 L 523 248 L 524 247 L 524 246 L 525 245 L 525 244 L 526 243 L 526 241 L 527 240 L 527 237 L 528 236 L 528 203 L 527 202 L 527 198 L 529 196 L 558 196 L 559 195 "></path>
        <path fill="none" stroke="#00fafa" stroke-width="3" d="M 484 181 L 485 180 L 496 180 L 497 181 L 498 181 L 499 182 L 500 182 L 503 185 L 504 185 L 506 187 L 506 188 L 508 190 L 508 199 L 507 200 L 507 233 L 506 234 L 506 236 L 503 239 L 503 240 L 490 253 L 489 253 L 488 252 L 487 252 L 486 251 L 486 250 L 454 218 L 454 217 L 453 216 L 453 210 L 454 209 L 454 207 L 455 206 L 455 204 L 456 203 L 456 202 L 457 201 L 457 200 L 458 199 L 458 198 L 460 196 L 460 195 L 467 188 L 468 188 L 471 185 L 472 185 L 473 184 L 474 184 L 475 183 L 476 183 L 477 182 L 479 182 L 480 181 L 484 181 L 485 180 "></path>
        <path fill="none" stroke="#00fafa" stroke-width="3" d="M 375 567 L 376 566 L 388 566 L 389 567 L 392 567 L 393 568 L 394 568 L 395 569 L 396 569 L 397 570 L 398 570 L 399 571 L 400 571 L 408 579 L 408 580 L 410 582 L 410 583 L 411 584 L 411 586 L 412 587 L 412 588 L 413 589 L 413 594 L 414 595 L 414 600 L 413 601 L 413 605 L 412 606 L 412 608 L 411 609 L 411 610 L 408 613 L 408 614 L 404 618 L 403 618 L 402 619 L 384 619 L 383 618 L 381 618 L 380 619 L 366 619 L 365 620 L 364 620 L 363 619 L 362 619 L 361 618 L 361 609 L 362 608 L 362 591 L 361 590 L 361 579 L 362 578 L 362 577 L 369 570 L 370 570 L 372 568 L 373 568 L 374 567 L 375 567 L 376 566 "></path>
        <path fill="none" stroke="#00fafa" stroke-width="3" d="M 640 196 L 641 195 L 642 195 L 643 196 L 678 196 L 683 201 L 683 202 L 684 203 L 684 204 L 685 205 L 685 208 L 686 209 L 686 213 L 687 214 L 687 221 L 686 222 L 686 226 L 685 227 L 685 229 L 684 230 L 684 231 L 683 232 L 683 233 L 682 234 L 682 235 L 679 238 L 679 239 L 675 243 L 674 243 L 671 246 L 670 246 L 669 247 L 668 247 L 667 248 L 666 248 L 665 249 L 663 249 L 662 250 L 659 250 L 658 251 L 657 251 L 656 250 L 654 250 L 653 249 L 652 249 L 644 241 L 643 241 L 639 237 L 639 236 L 638 235 L 638 197 L 639 196 L 640 196 L 641 195 "></path>
        <path fill="none" stroke="#00fafa" stroke-width="3" d="M 698 289 L 714 289 L 715 290 L 717 290 L 718 291 L 719 291 L 720 292 L 721 292 L 729 300 L 729 301 L 730 302 L 730 306 L 729 307 L 729 320 L 728 321 L 728 331 L 729 332 L 729 342 L 730 343 L 730 346 L 729 347 L 729 348 L 728 349 L 728 350 L 726 352 L 725 352 L 719 358 L 719 359 L 716 362 L 715 362 L 714 363 L 711 363 L 709 361 L 708 361 L 706 359 L 706 358 L 699 351 L 699 350 L 697 348 L 697 347 L 696 346 L 696 345 L 695 344 L 695 340 L 694 339 L 694 293 L 698 289 L 714 289 "></path>
        <path fill="none" stroke="#00fafa" stroke-width="3" d="M 301 473 L 302 472 L 305 472 L 306 473 L 337 473 L 338 472 L 345 472 L 352 479 L 352 480 L 362 490 L 362 492 L 363 493 L 363 496 L 362 497 L 362 499 L 361 500 L 361 502 L 360 503 L 360 505 L 357 508 L 356 508 L 355 509 L 348 509 L 347 508 L 307 508 L 306 509 L 302 509 L 301 508 L 300 508 L 296 504 L 296 503 L 295 502 L 295 500 L 294 499 L 294 496 L 293 495 L 293 482 L 294 481 L 294 479 L 296 477 L 296 476 L 299 473 L 301 473 L 302 472 "></path>
        <path fill="none" stroke="#00fafa" stroke-width="3" d="M 358 197 L 359 196 L 404 196 L 405 197 L 406 197 L 409 200 L 409 201 L 410 202 L 410 203 L 411 204 L 411 206 L 412 207 L 412 209 L 413 210 L 413 218 L 412 219 L 412 220 L 406 226 L 406 227 L 402 231 L 401 231 L 400 232 L 393 232 L 392 231 L 364 231 L 363 232 L 357 232 L 356 231 L 355 231 L 352 228 L 352 227 L 351 226 L 351 224 L 350 223 L 350 212 L 351 211 L 351 208 L 352 207 L 352 205 L 353 204 L 353 203 L 354 202 L 354 201 L 355 200 L 355 199 L 357 197 L 358 197 L 359 196 "></path>
        <path fill="none" stroke="#00fafa" stroke-width="3" d="M 736 418 L 737 417 L 744 417 L 745 418 L 775 418 L 776 417 L 783 417 L 785 419 L 785 423 L 784 424 L 784 447 L 785 448 L 785 451 L 783 453 L 744 453 L 733 442 L 733 441 L 731 439 L 731 438 L 730 437 L 730 427 L 731 426 L 731 423 L 732 422 L 732 421 L 735 418 L 736 418 L 737 417 "></path>
        <path fill="none" stroke="#00fafa" stroke-width="3" d="M 744 362 L 783 362 L 785 364 L 785 368 L 784 369 L 784 391 L 785 392 L 785 396 L 783 398 L 777 398 L 776 397 L 744 397 L 743 398 L 737 398 L 736 397 L 735 397 L 732 394 L 732 393 L 731 392 L 731 389 L 730 388 L 730 378 L 731 377 L 731 376 L 733 374 L 733 373 L 744 362 L 783 362 "></path>
        <path fill="none" stroke="#00fafa" stroke-width="3" d="M 306 529 L 307 528 L 342 528 L 343 529 L 347 529 L 348 528 L 351 528 L 352 529 L 354 529 L 355 530 L 356 530 L 357 531 L 357 532 L 358 533 L 358 536 L 359 537 L 359 547 L 358 548 L 358 551 L 357 552 L 357 553 L 353 557 L 353 558 L 348 563 L 347 563 L 346 564 L 336 564 L 335 563 L 316 563 L 315 564 L 307 564 L 306 563 L 306 562 L 305 561 L 305 559 L 306 558 L 306 533 L 305 532 L 305 531 L 306 530 L 306 529 L 307 528 "></path>
        <path fill="none" stroke="#00fafa" stroke-width="3" d="M 307 362 L 308 361 L 310 361 L 311 362 L 339 362 L 340 361 L 344 361 L 345 362 L 346 362 L 353 369 L 353 370 L 357 374 L 358 374 L 362 378 L 362 381 L 358 385 L 357 385 L 355 387 L 355 388 L 350 393 L 350 394 L 347 397 L 346 397 L 345 398 L 336 398 L 335 397 L 313 397 L 312 398 L 307 398 L 305 396 L 305 394 L 306 393 L 306 367 L 305 366 L 305 363 L 306 362 L 307 362 L 308 361 "></path>
        <path fill="none" stroke="#00fafa" stroke-width="3" d="M 432 624 L 433 623 L 437 623 L 438 624 L 440 624 L 441 625 L 442 625 L 444 627 L 445 627 L 452 634 L 452 636 L 453 637 L 453 639 L 452 640 L 452 673 L 450 675 L 446 675 L 445 674 L 424 674 L 423 675 L 420 675 L 419 674 L 418 674 L 417 673 L 417 672 L 416 671 L 416 668 L 417 667 L 417 641 L 416 640 L 416 636 L 417 635 L 417 633 L 422 628 L 423 628 L 425 626 L 426 626 L 427 625 L 428 625 L 429 624 L 432 624 L 433 623 "></path>
        <path fill="none" stroke="#00fafa" stroke-width="3" d="M 745 252 L 746 251 L 755 251 L 756 252 L 772 252 L 773 251 L 779 251 L 780 252 L 781 252 L 784 255 L 784 280 L 785 281 L 785 284 L 782 287 L 745 287 L 744 286 L 743 286 L 740 283 L 740 282 L 737 279 L 737 278 L 736 277 L 736 275 L 735 274 L 735 268 L 736 267 L 736 263 L 737 262 L 737 261 L 738 260 L 738 259 L 739 258 L 739 257 L 740 256 L 740 255 L 742 253 L 743 253 L 744 252 L 745 252 L 746 251 "></path>
        <path fill="none" stroke="#00fafa" stroke-width="3" d="M 474 639 L 512 639 L 514 641 L 515 641 L 516 642 L 516 643 L 519 646 L 519 647 L 520 648 L 520 649 L 521 650 L 521 658 L 520 659 L 520 662 L 519 663 L 519 664 L 518 665 L 518 666 L 517 667 L 517 668 L 516 669 L 516 670 L 513 673 L 512 673 L 511 674 L 509 674 L 508 675 L 506 675 L 505 674 L 479 674 L 478 675 L 474 675 L 471 672 L 471 670 L 472 669 L 472 641 L 474 639 L 512 639 "></path>
        <path fill="none" stroke="#00fafa" stroke-width="3" d="M 556 141 L 557 140 L 561 140 L 563 142 L 563 175 L 562 176 L 523 176 L 522 175 L 521 175 L 518 172 L 518 171 L 516 169 L 516 168 L 515 167 L 515 166 L 514 165 L 514 158 L 515 157 L 515 154 L 516 153 L 516 151 L 517 150 L 517 149 L 518 148 L 518 147 L 519 146 L 519 145 L 522 142 L 523 142 L 524 141 L 556 141 L 557 140 "></path>
        <path fill="none" stroke="#00fafa" stroke-width="3" d="M 430 232 L 431 231 L 437 231 L 438 232 L 439 232 L 447 240 L 447 241 L 469 263 L 470 263 L 472 265 L 472 266 L 476 270 L 476 271 L 479 274 L 479 275 L 478 276 L 477 275 L 476 275 L 465 264 L 464 264 L 460 260 L 459 260 L 453 254 L 452 254 L 447 249 L 446 249 L 442 245 L 441 245 L 436 240 L 435 240 L 434 239 L 433 240 L 432 240 L 432 242 L 434 242 L 435 243 L 436 243 L 438 245 L 438 248 L 436 250 L 435 250 L 434 251 L 433 251 L 431 253 L 429 253 L 427 251 L 427 247 L 425 247 L 425 248 L 424 249 L 424 265 L 423 266 L 423 277 L 422 278 L 422 283 L 421 284 L 421 287 L 420 288 L 420 290 L 419 291 L 419 292 L 418 293 L 418 294 L 417 295 L 417 296 L 416 297 L 416 298 L 408 306 L 407 306 L 405 308 L 404 308 L 403 309 L 401 309 L 400 310 L 399 310 L 398 311 L 395 311 L 394 312 L 389 312 L 388 313 L 380 313 L 379 314 L 369 314 L 368 315 L 368 316 L 369 317 L 369 325 L 368 326 L 368 336 L 367 337 L 367 345 L 368 346 L 368 347 L 370 349 L 370 350 L 376 356 L 376 357 L 380 361 L 381 361 L 382 362 L 383 362 L 384 363 L 391 363 L 392 362 L 402 362 L 403 363 L 402 364 L 399 364 L 398 365 L 396 365 L 395 366 L 393 366 L 392 367 L 389 367 L 388 368 L 381 368 L 361 348 L 361 347 L 360 346 L 360 342 L 361 341 L 361 336 L 362 335 L 362 314 L 361 313 L 361 307 L 362 306 L 367 306 L 368 307 L 394 307 L 395 306 L 399 306 L 400 305 L 401 305 L 402 304 L 403 304 L 404 303 L 405 303 L 406 302 L 407 302 L 412 297 L 412 296 L 413 295 L 413 294 L 414 293 L 414 292 L 415 291 L 415 290 L 416 289 L 416 285 L 417 284 L 417 255 L 416 254 L 416 245 L 429 232 L 430 232 L 431 231 "></path>
        <path fill="none" stroke="#00fafa" stroke-width="3" d="M 322 241 L 323 240 L 332 240 L 333 241 L 336 241 L 338 243 L 339 243 L 341 245 L 341 247 L 342 248 L 342 253 L 341 254 L 341 280 L 342 281 L 342 285 L 340 287 L 307 287 L 306 286 L 306 285 L 305 284 L 305 283 L 306 282 L 306 250 L 307 249 L 307 248 L 310 245 L 311 245 L 313 243 L 315 243 L 316 242 L 318 242 L 319 241 L 322 241 L 323 240 "></path>
        <path fill="none" stroke="#00fafa" stroke-width="3" d="M 374 138 L 375 137 L 388 137 L 389 138 L 391 138 L 392 139 L 393 139 L 395 141 L 396 141 L 403 148 L 403 149 L 404 150 L 404 151 L 405 152 L 405 153 L 406 154 L 406 157 L 407 158 L 407 168 L 406 169 L 406 171 L 405 172 L 405 173 L 403 175 L 402 175 L 401 176 L 367 176 L 366 177 L 365 176 L 363 176 L 361 174 L 361 167 L 362 166 L 362 146 L 364 144 L 364 143 L 365 142 L 366 142 L 368 140 L 369 140 L 370 139 L 371 139 L 372 138 L 374 138 L 375 137 "></path>
        <path fill="none" stroke="#00fafa" stroke-width="3" d="M 252 417 L 261 417 L 262 418 L 278 418 L 279 417 L 284 417 L 286 419 L 286 457 L 285 458 L 285 459 L 282 462 L 281 462 L 280 463 L 279 463 L 278 464 L 267 464 L 266 463 L 263 463 L 262 462 L 261 462 L 260 461 L 258 461 L 256 459 L 255 459 L 252 456 L 252 455 L 251 454 L 251 425 L 250 424 L 250 419 L 252 417 L 261 417 "></path>
        <path fill="none" stroke="#00fafa" stroke-width="3" d="M 594 686 L 595 685 L 604 685 L 605 686 L 607 686 L 608 687 L 609 687 L 610 688 L 611 688 L 612 689 L 613 689 L 616 692 L 616 693 L 617 694 L 617 695 L 618 696 L 618 719 L 617 720 L 617 721 L 616 722 L 616 723 L 612 727 L 611 727 L 610 728 L 609 728 L 608 729 L 606 729 L 605 730 L 594 730 L 593 729 L 591 729 L 590 728 L 589 728 L 587 726 L 586 726 L 581 721 L 581 720 L 579 718 L 579 717 L 578 716 L 578 713 L 577 712 L 577 703 L 578 702 L 578 700 L 579 699 L 579 698 L 580 697 L 580 696 L 582 694 L 582 693 L 585 690 L 586 690 L 588 688 L 589 688 L 590 687 L 591 687 L 592 686 L 594 686 L 595 685 "></path>
        <path fill="none" stroke="#00fafa" stroke-width="3" d="M 669 639 L 670 638 L 671 639 L 672 639 L 674 641 L 674 647 L 673 648 L 673 662 L 674 663 L 674 668 L 673 669 L 673 671 L 670 674 L 639 674 L 638 673 L 636 673 L 632 669 L 632 668 L 630 666 L 630 665 L 629 664 L 629 662 L 628 661 L 628 659 L 627 658 L 627 648 L 628 647 L 628 645 L 630 643 L 630 642 L 632 640 L 633 640 L 634 639 L 669 639 L 670 638 "></path>
        <path fill="none" stroke="#00fafa" stroke-width="3" d="M 759 194 L 760 193 L 767 193 L 768 194 L 770 194 L 771 195 L 773 195 L 774 196 L 775 196 L 778 199 L 779 199 L 780 200 L 780 201 L 782 203 L 782 204 L 783 205 L 783 207 L 784 208 L 784 226 L 783 227 L 783 228 L 780 231 L 779 231 L 778 232 L 750 232 L 749 231 L 746 231 L 742 227 L 742 226 L 741 225 L 741 223 L 740 222 L 740 212 L 741 211 L 741 208 L 742 207 L 742 206 L 744 204 L 744 203 L 750 197 L 751 197 L 752 196 L 753 196 L 754 195 L 755 195 L 756 194 L 759 194 L 760 193 "></path>
        <path fill="none" stroke="#00fafa" stroke-width="3" d="M 699 142 L 700 141 L 716 141 L 717 142 L 720 142 L 722 144 L 723 144 L 728 149 L 728 150 L 729 151 L 729 152 L 730 153 L 730 154 L 731 155 L 731 159 L 732 160 L 732 164 L 731 165 L 731 168 L 730 169 L 730 171 L 729 172 L 729 173 L 727 175 L 727 176 L 722 181 L 721 181 L 720 182 L 719 182 L 718 183 L 717 183 L 716 184 L 714 184 L 713 185 L 704 185 L 703 184 L 700 184 L 699 183 L 698 183 L 694 179 L 694 177 L 693 176 L 693 147 L 694 146 L 694 145 L 697 142 L 699 142 L 700 141 "></path>
        <path fill="none" stroke="#00fafa" stroke-width="3" d="M 265 520 L 266 519 L 278 519 L 279 520 L 281 520 L 282 521 L 283 521 L 285 523 L 285 524 L 286 525 L 286 562 L 285 563 L 284 563 L 283 564 L 278 564 L 277 563 L 257 563 L 256 562 L 255 562 L 252 559 L 252 557 L 251 556 L 251 532 L 252 531 L 252 529 L 259 522 L 260 522 L 261 521 L 262 521 L 263 520 L 265 520 L 266 519 "></path>
        <path fill="none" stroke="#00fafa" stroke-width="3" d="M 481 87 L 482 86 L 499 86 L 500 87 L 502 87 L 507 92 L 507 96 L 508 97 L 508 100 L 507 101 L 507 123 L 502 128 L 501 128 L 500 129 L 499 129 L 498 130 L 495 130 L 494 131 L 487 131 L 486 130 L 483 130 L 482 129 L 481 129 L 480 128 L 479 128 L 478 127 L 477 127 L 473 123 L 473 121 L 472 120 L 472 95 L 473 94 L 473 92 L 477 88 L 478 88 L 479 87 L 481 87 L 482 86 "></path>
        <path fill="none" stroke="#00fafa" stroke-width="3" d="M 431 87 L 432 86 L 440 86 L 441 87 L 444 87 L 445 88 L 446 88 L 447 89 L 448 89 L 451 92 L 451 93 L 452 94 L 452 120 L 451 121 L 451 122 L 446 127 L 444 127 L 443 128 L 441 128 L 440 129 L 431 129 L 430 128 L 428 128 L 427 127 L 426 127 L 425 126 L 424 126 L 417 119 L 417 118 L 416 117 L 416 116 L 415 115 L 415 113 L 414 112 L 414 103 L 415 102 L 415 100 L 416 99 L 416 97 L 418 95 L 418 94 L 422 90 L 423 90 L 425 88 L 427 88 L 428 87 L 431 87 L 432 86 "></path>
        <path fill="none" stroke="#00fafa" stroke-width="3" d="M 268 247 L 269 246 L 276 246 L 277 247 L 280 247 L 281 248 L 282 248 L 286 252 L 286 281 L 287 282 L 287 284 L 286 285 L 286 286 L 285 287 L 254 287 L 251 284 L 251 260 L 252 259 L 252 257 L 253 256 L 253 255 L 257 251 L 258 251 L 260 249 L 261 249 L 262 248 L 264 248 L 265 247 L 268 247 L 269 246 "></path>
        <path fill="none" stroke="#00fafa" stroke-width="3" d="M 474 694 L 507 694 L 508 695 L 509 695 L 512 698 L 512 699 L 513 700 L 513 703 L 514 704 L 514 710 L 513 711 L 513 714 L 512 715 L 512 717 L 511 718 L 511 719 L 509 721 L 509 722 L 505 726 L 504 726 L 502 728 L 500 728 L 499 729 L 482 729 L 481 728 L 479 728 L 478 727 L 477 727 L 473 723 L 473 721 L 472 720 L 472 696 L 474 694 L 507 694 "></path>
        <path fill="none" stroke="#00fafa" stroke-width="3" d="M 324 141 L 325 140 L 328 140 L 329 141 L 333 141 L 334 142 L 335 142 L 336 143 L 337 143 L 341 147 L 341 149 L 342 150 L 342 172 L 341 173 L 341 176 L 340 177 L 340 178 L 338 180 L 337 180 L 336 181 L 335 181 L 334 182 L 332 182 L 331 183 L 322 183 L 321 182 L 319 182 L 318 181 L 317 181 L 316 180 L 315 180 L 308 173 L 308 172 L 307 171 L 307 170 L 306 169 L 306 166 L 305 165 L 305 158 L 306 157 L 306 155 L 307 154 L 307 153 L 308 152 L 308 151 L 309 150 L 309 149 L 313 145 L 314 145 L 316 143 L 317 143 L 318 142 L 319 142 L 320 141 L 324 141 L 325 140 "></path>
        <path fill="none" stroke="#00fafa" stroke-width="3" d="M 806 417 L 812 417 L 813 418 L 825 418 L 826 417 L 831 417 L 832 418 L 835 418 L 840 423 L 840 424 L 841 425 L 841 427 L 842 428 L 842 433 L 843 434 L 843 436 L 842 437 L 842 442 L 841 443 L 841 444 L 840 445 L 840 446 L 839 447 L 839 448 L 835 452 L 833 452 L 832 453 L 806 453 L 804 451 L 804 419 L 806 417 L 812 417 "></path>
        <path fill="none" stroke="#00fafa" stroke-width="3" d="M 640 583 L 644 583 L 645 584 L 667 584 L 668 583 L 672 583 L 674 585 L 674 590 L 673 591 L 673 611 L 674 612 L 674 618 L 672 620 L 670 620 L 669 619 L 643 619 L 642 620 L 641 619 L 639 619 L 638 618 L 638 585 L 640 583 L 644 583 "></path>
        <path fill="none" stroke="#00fafa" stroke-width="3" d="M 585 140 L 589 140 L 590 141 L 611 141 L 612 140 L 615 140 L 616 141 L 617 141 L 618 142 L 618 143 L 619 144 L 619 146 L 618 147 L 618 170 L 619 171 L 619 174 L 617 176 L 588 176 L 587 177 L 585 177 L 582 174 L 582 171 L 583 170 L 583 147 L 582 146 L 582 143 L 585 140 L 589 140 "></path>
        <path fill="none" stroke="#00fafa" stroke-width="3" d="M 282 362 L 283 361 L 284 362 L 285 362 L 286 363 L 286 393 L 287 394 L 287 395 L 286 396 L 286 397 L 285 398 L 278 398 L 277 397 L 260 397 L 259 398 L 253 398 L 250 395 L 250 392 L 251 391 L 251 369 L 250 368 L 250 365 L 251 364 L 251 363 L 252 362 L 282 362 L 283 361 "></path>
        <path fill="none" stroke="#00fafa" stroke-width="3" d="M 695 583 L 701 583 L 702 584 L 720 584 L 721 583 L 727 583 L 729 585 L 729 597 L 728 598 L 728 602 L 729 603 L 729 616 L 726 619 L 713 619 L 712 618 L 709 618 L 708 619 L 695 619 L 693 617 L 693 610 L 694 609 L 694 606 L 693 605 L 693 600 L 694 599 L 694 593 L 693 592 L 693 585 L 695 583 L 701 583 "></path>
        <path fill="none" stroke="#00fafa" stroke-width="3" d="M 307 306 L 311 306 L 312 307 L 335 307 L 336 306 L 340 306 L 342 308 L 342 312 L 341 313 L 341 340 L 339 342 L 310 342 L 309 343 L 308 343 L 305 340 L 305 338 L 306 337 L 306 312 L 305 311 L 305 308 L 307 306 L 311 306 "></path>
        <path fill="none" stroke="#00fafa" stroke-width="3" d="M 750 528 L 782 528 L 784 530 L 784 531 L 785 532 L 785 533 L 784 534 L 784 560 L 781 563 L 780 563 L 779 564 L 772 564 L 771 563 L 759 563 L 758 564 L 750 564 L 749 563 L 749 562 L 748 561 L 748 558 L 749 557 L 749 535 L 748 534 L 748 530 L 750 528 L 782 528 "></path>
        <path fill="none" stroke="#00fafa" stroke-width="3" d="M 778 473 L 779 472 L 782 472 L 785 475 L 785 478 L 784 479 L 784 502 L 785 503 L 785 506 L 782 509 L 778 509 L 777 508 L 755 508 L 754 509 L 751 509 L 748 506 L 748 504 L 749 503 L 749 475 L 751 473 L 778 473 L 779 472 "></path>
        <path fill="none" stroke="#00fafa" stroke-width="3" d="M 205 474 L 206 473 L 228 473 L 229 474 L 230 474 L 231 475 L 232 475 L 235 478 L 235 479 L 236 480 L 236 481 L 237 482 L 237 485 L 238 486 L 238 493 L 237 494 L 237 497 L 236 498 L 236 499 L 234 501 L 234 502 L 230 506 L 229 506 L 228 507 L 226 507 L 225 508 L 209 508 L 208 507 L 206 507 L 204 505 L 203 505 L 200 502 L 200 501 L 199 500 L 199 499 L 198 498 L 198 497 L 197 496 L 197 483 L 198 482 L 198 480 L 200 478 L 200 477 L 202 475 L 203 475 L 204 474 L 205 474 L 206 473 "></path>
        <path fill="none" stroke="#00fafa" stroke-width="3" d="M 308 584 L 309 583 L 316 583 L 317 584 L 330 584 L 331 583 L 339 583 L 342 586 L 342 592 L 341 593 L 341 610 L 342 611 L 342 616 L 341 617 L 341 618 L 340 619 L 311 619 L 310 618 L 309 618 L 307 616 L 307 615 L 306 614 L 306 585 L 307 584 L 308 584 L 309 583 "></path>
        <path fill="none" stroke="#00fafa" stroke-width="3" d="M 751 307 L 752 306 L 755 306 L 756 307 L 778 307 L 779 306 L 782 306 L 785 309 L 785 312 L 784 313 L 784 336 L 785 337 L 785 340 L 782 343 L 779 343 L 778 342 L 751 342 L 749 340 L 749 308 L 750 307 L 751 307 L 752 306 "></path>
        <path fill="none" stroke="#00fafa" stroke-width="3" d="M 751 583 L 758 583 L 759 584 L 764 584 L 765 583 L 777 583 L 778 584 L 780 584 L 783 587 L 783 588 L 784 589 L 784 606 L 783 607 L 783 610 L 782 611 L 782 612 L 781 613 L 781 614 L 778 617 L 777 617 L 775 619 L 774 619 L 773 620 L 772 620 L 771 621 L 768 621 L 767 622 L 759 622 L 758 621 L 755 621 L 754 620 L 753 620 L 749 616 L 749 591 L 748 590 L 748 587 L 749 586 L 749 585 L 751 583 L 758 583 "></path>
        <path fill="none" stroke="#00fafa" stroke-width="3" d="M 694 529 L 695 528 L 728 528 L 729 529 L 729 539 L 728 540 L 728 551 L 729 552 L 729 563 L 728 564 L 721 564 L 720 563 L 702 563 L 701 564 L 695 564 L 693 562 L 693 557 L 694 556 L 694 538 L 693 537 L 693 531 L 694 530 L 694 529 L 695 528 "></path>
        <path fill="none" stroke="#00fafa" stroke-width="3" d="M 280 307 L 281 306 L 284 306 L 286 308 L 286 337 L 287 338 L 287 340 L 284 343 L 281 343 L 280 342 L 257 342 L 256 343 L 255 343 L 254 342 L 252 342 L 251 341 L 251 340 L 250 339 L 250 336 L 251 335 L 251 309 L 253 307 L 280 307 L 281 306 "></path>
        <path fill="none" stroke="#00fafa" stroke-width="3" d="M 696 639 L 697 638 L 699 638 L 700 639 L 726 639 L 730 643 L 730 644 L 731 645 L 731 648 L 732 649 L 732 656 L 731 657 L 731 660 L 730 661 L 730 662 L 729 663 L 729 664 L 728 665 L 728 666 L 722 672 L 721 672 L 720 673 L 716 673 L 715 674 L 700 674 L 699 673 L 697 673 L 694 670 L 694 668 L 693 667 L 693 641 L 695 639 L 696 639 L 697 638 "></path>
        <path fill="none" stroke="#00fafa" stroke-width="3" d="M 640 141 L 669 141 L 670 142 L 671 142 L 673 144 L 673 147 L 674 148 L 674 150 L 673 151 L 673 167 L 674 168 L 674 174 L 672 176 L 671 176 L 670 177 L 669 177 L 668 176 L 644 176 L 643 177 L 640 177 L 638 175 L 638 174 L 637 173 L 638 172 L 638 143 L 640 141 L 669 141 "></path>
        <path fill="none" stroke="#00fafa" stroke-width="3" d="M 307 417 L 312 417 L 313 418 L 339 418 L 341 420 L 341 450 L 338 453 L 307 453 L 306 452 L 306 451 L 305 450 L 305 448 L 306 447 L 306 423 L 305 422 L 305 419 L 307 417 L 312 417 "></path>
        <path fill="none" stroke="#00fafa" stroke-width="3" d="M 585 195 L 587 195 L 588 196 L 613 196 L 614 195 L 617 195 L 619 197 L 619 201 L 618 202 L 618 229 L 616 231 L 587 231 L 583 227 L 583 201 L 582 200 L 582 198 L 585 195 L 587 195 "></path>
        <path fill="none" stroke="#00fafa" stroke-width="3" d="M 806 362 L 833 362 L 834 363 L 835 363 L 838 366 L 838 367 L 839 368 L 839 393 L 835 397 L 834 397 L 833 398 L 820 398 L 819 397 L 816 397 L 815 398 L 806 398 L 804 396 L 804 364 L 806 362 L 833 362 "></path>
        <path fill="none" stroke="#00fafa" stroke-width="3" d="M 364 639 L 365 638 L 367 638 L 368 639 L 390 639 L 391 638 L 394 638 L 397 641 L 397 671 L 394 674 L 368 674 L 367 673 L 366 673 L 365 672 L 364 672 L 363 671 L 363 670 L 362 669 L 362 648 L 361 647 L 361 641 L 363 639 L 364 639 L 365 638 "></path>
        <path fill="none" stroke="#00fafa" stroke-width="3" d="M 535 87 L 536 86 L 554 86 L 555 87 L 557 87 L 562 92 L 562 94 L 563 95 L 563 119 L 561 121 L 529 121 L 527 119 L 527 95 L 528 94 L 528 92 L 529 91 L 529 90 L 531 88 L 532 88 L 533 87 L 535 87 L 536 86 "></path>
        <path fill="none" stroke="#00fafa" stroke-width="3" d="M 363 251 L 371 251 L 372 252 L 387 252 L 388 251 L 394 251 L 397 254 L 397 258 L 396 259 L 396 282 L 392 286 L 370 286 L 369 287 L 362 287 L 361 286 L 361 280 L 362 279 L 362 261 L 361 260 L 361 253 L 363 251 L 371 251 "></path>
        <path fill="none" stroke="#00fafa" stroke-width="3" d="M 808 307 L 809 306 L 810 307 L 831 307 L 832 308 L 833 308 L 837 312 L 837 313 L 838 314 L 838 316 L 839 317 L 839 335 L 838 336 L 838 338 L 835 341 L 834 341 L 833 342 L 811 342 L 810 343 L 807 343 L 804 340 L 804 309 L 806 307 L 808 307 L 809 306 "></path>
        <path fill="none" stroke="#00fafa" stroke-width="3" d="M 807 472 L 810 472 L 811 473 L 833 473 L 834 474 L 835 474 L 838 477 L 838 479 L 839 480 L 839 498 L 838 499 L 838 501 L 837 502 L 837 503 L 833 507 L 832 507 L 831 508 L 806 508 L 804 506 L 804 475 L 807 472 L 810 472 "></path>
        <path fill="none" stroke="#00fafa" stroke-width="3" d="M 207 418 L 208 417 L 227 417 L 228 418 L 229 418 L 231 420 L 231 450 L 228 453 L 207 453 L 206 452 L 204 452 L 202 450 L 201 450 L 200 449 L 200 448 L 198 446 L 198 445 L 197 444 L 197 441 L 196 440 L 196 430 L 197 429 L 197 426 L 198 425 L 198 424 L 199 423 L 199 422 L 202 419 L 203 419 L 204 418 L 207 418 L 208 417 "></path>
        <path fill="none" stroke="#00fafa" stroke-width="3" d="M 592 87 L 593 86 L 606 86 L 607 87 L 609 87 L 610 88 L 611 88 L 612 89 L 613 89 L 616 92 L 616 93 L 617 94 L 617 95 L 618 96 L 618 118 L 615 121 L 585 121 L 583 119 L 583 118 L 582 117 L 582 115 L 583 114 L 583 93 L 584 92 L 584 91 L 586 89 L 587 89 L 589 87 L 592 87 L 593 86 "></path>
        <path fill="none" stroke="#00fafa" stroke-width="3" d="M 206 363 L 207 362 L 228 362 L 231 365 L 231 395 L 229 397 L 228 397 L 227 398 L 220 398 L 219 397 L 213 397 L 212 398 L 210 398 L 209 397 L 204 397 L 203 396 L 202 396 L 199 393 L 199 392 L 198 391 L 198 390 L 197 389 L 197 386 L 196 385 L 196 375 L 197 374 L 197 371 L 198 370 L 198 369 L 200 367 L 200 366 L 202 364 L 203 364 L 204 363 L 206 363 L 207 362 "></path>
        <path fill="none" stroke="#00fafa" stroke-width="3" d="M 334 639 L 335 638 L 337 638 L 338 639 L 340 639 L 341 640 L 341 641 L 342 642 L 342 665 L 341 666 L 341 668 L 337 672 L 336 672 L 335 673 L 331 673 L 330 674 L 323 674 L 322 673 L 318 673 L 317 672 L 316 672 L 315 671 L 314 671 L 309 666 L 309 665 L 307 663 L 307 662 L 306 661 L 306 658 L 305 657 L 305 649 L 306 648 L 306 646 L 307 645 L 307 644 L 308 643 L 308 642 L 310 640 L 311 640 L 312 639 L 334 639 L 335 638 "></path>
        <path fill="none" stroke="#00fafa" stroke-width="3" d="M 420 695 L 421 694 L 449 694 L 450 695 L 451 695 L 452 696 L 452 721 L 451 722 L 451 723 L 447 727 L 446 727 L 445 728 L 442 728 L 441 729 L 431 729 L 430 728 L 427 728 L 426 727 L 425 727 L 424 726 L 423 726 L 418 721 L 418 719 L 417 718 L 417 698 L 418 697 L 418 696 L 419 695 L 420 695 L 421 694 "></path>
        <path fill="none" stroke="#00fafa" stroke-width="3" d="M 260 584 L 261 583 L 283 583 L 286 586 L 286 613 L 285 614 L 285 615 L 283 617 L 282 617 L 281 618 L 280 618 L 279 619 L 277 619 L 276 620 L 268 620 L 267 619 L 265 619 L 264 618 L 263 618 L 262 617 L 261 617 L 259 615 L 258 615 L 256 613 L 256 612 L 254 610 L 254 609 L 253 608 L 253 607 L 252 606 L 252 600 L 251 599 L 251 598 L 252 597 L 252 591 L 253 590 L 253 589 L 254 588 L 254 587 L 256 585 L 257 585 L 258 584 L 260 584 L 261 583 "></path>
        <path fill="none" stroke="#00fafa" stroke-width="3" d="M 807 528 L 829 528 L 830 529 L 832 529 L 837 534 L 837 536 L 838 537 L 838 539 L 839 540 L 839 548 L 838 549 L 838 551 L 837 552 L 837 554 L 835 556 L 835 557 L 832 560 L 831 560 L 829 562 L 827 562 L 826 563 L 809 563 L 808 562 L 807 562 L 805 560 L 805 559 L 804 558 L 804 531 L 807 528 L 829 528 "></path>
        <path fill="none" stroke="#00fafa" stroke-width="3" d="M 809 253 L 810 252 L 826 252 L 827 253 L 829 253 L 831 255 L 832 255 L 834 257 L 834 258 L 836 260 L 836 261 L 837 262 L 837 263 L 838 264 L 838 266 L 839 267 L 839 275 L 838 276 L 838 278 L 837 279 L 837 280 L 836 281 L 836 282 L 832 286 L 830 286 L 829 287 L 807 287 L 804 284 L 804 257 L 808 253 L 809 253 L 810 252 "></path>
        <path fill="none" stroke="#00fafa" stroke-width="3" d="M 208 308 L 209 307 L 226 307 L 227 308 L 228 308 L 230 310 L 230 311 L 231 312 L 231 339 L 228 342 L 206 342 L 205 341 L 204 341 L 203 340 L 202 340 L 200 338 L 200 337 L 199 336 L 199 335 L 198 334 L 198 333 L 197 332 L 197 320 L 198 319 L 198 317 L 199 316 L 199 315 L 201 313 L 201 312 L 203 310 L 204 310 L 206 308 L 208 308 L 209 307 "></path>
        <path fill="none" stroke="#00fafa" stroke-width="3" d="M 641 694 L 667 694 L 668 695 L 669 695 L 672 698 L 672 699 L 673 700 L 673 715 L 672 716 L 672 718 L 670 720 L 670 721 L 667 724 L 666 724 L 664 726 L 663 726 L 662 727 L 660 727 L 659 728 L 649 728 L 648 727 L 646 727 L 645 726 L 644 726 L 639 721 L 639 719 L 638 718 L 638 698 L 639 697 L 639 696 L 641 694 L 667 694 "></path>
        <path fill="none" stroke="#00fafa" stroke-width="3" d="M 649 88 L 650 87 L 658 87 L 659 88 L 662 88 L 663 89 L 664 89 L 666 91 L 667 91 L 669 93 L 669 94 L 671 96 L 671 97 L 672 98 L 672 100 L 673 101 L 673 114 L 672 115 L 672 117 L 669 120 L 668 120 L 667 121 L 642 121 L 641 120 L 640 120 L 639 119 L 639 118 L 638 117 L 638 97 L 639 96 L 639 94 L 643 90 L 644 90 L 645 89 L 646 89 L 647 88 L 649 88 L 650 87 "></path>
        <path fill="none" stroke="#00fafa" stroke-width="3" d="M 368 695 L 369 694 L 392 694 L 393 695 L 394 695 L 396 697 L 396 698 L 397 699 L 397 716 L 396 717 L 396 719 L 395 720 L 395 721 L 392 724 L 391 724 L 390 725 L 389 725 L 388 726 L 387 726 L 386 727 L 376 727 L 375 726 L 374 726 L 373 725 L 372 725 L 371 724 L 370 724 L 365 719 L 365 718 L 364 717 L 364 716 L 363 715 L 363 713 L 362 712 L 362 704 L 363 703 L 363 700 L 364 699 L 364 698 L 367 695 L 368 695 L 369 694 "></path>
        <path fill="none" stroke="#00fafa" stroke-width="3" d="M 209 529 L 210 528 L 225 528 L 226 529 L 227 529 L 230 532 L 230 533 L 231 534 L 231 554 L 230 555 L 230 557 L 227 560 L 226 560 L 225 561 L 224 561 L 223 562 L 212 562 L 211 561 L 209 561 L 208 560 L 207 560 L 201 554 L 201 553 L 200 552 L 200 550 L 199 549 L 199 539 L 200 538 L 200 536 L 202 534 L 202 533 L 205 530 L 206 530 L 207 529 L 209 529 L 210 528 "></path>
        <path fill="none" stroke="#00fafa" stroke-width="3" d="M 211 254 L 212 253 L 223 253 L 224 254 L 225 254 L 226 255 L 227 255 L 230 258 L 230 260 L 231 261 L 231 281 L 230 282 L 230 283 L 227 286 L 225 286 L 224 287 L 210 287 L 209 286 L 207 286 L 205 284 L 204 284 L 202 282 L 202 281 L 200 279 L 200 277 L 199 276 L 199 266 L 200 265 L 200 263 L 201 262 L 201 261 L 207 255 L 208 255 L 209 254 L 211 254 L 212 253 "></path>
        <path fill="none" stroke="#00fafa" stroke-width="3" d="M 867 364 L 868 363 L 877 363 L 878 364 L 880 364 L 881 365 L 882 365 L 884 367 L 885 367 L 886 368 L 886 369 L 889 372 L 889 374 L 890 375 L 890 378 L 891 379 L 891 381 L 890 382 L 890 386 L 889 387 L 889 388 L 887 390 L 887 391 L 884 394 L 883 394 L 881 396 L 880 396 L 879 397 L 876 397 L 875 398 L 870 398 L 869 397 L 867 397 L 866 396 L 865 396 L 864 395 L 863 395 L 861 393 L 861 392 L 860 391 L 860 390 L 859 389 L 859 371 L 860 370 L 860 369 L 865 364 L 867 364 L 868 363 "></path>
        <path fill="none" stroke="#00fafa" stroke-width="3" d="M 812 584 L 813 583 L 823 583 L 824 584 L 827 584 L 828 585 L 829 585 L 833 589 L 833 590 L 834 591 L 834 592 L 835 593 L 835 595 L 836 596 L 836 601 L 835 602 L 835 605 L 834 606 L 834 607 L 832 609 L 832 610 L 830 612 L 829 612 L 827 614 L 826 614 L 825 615 L 824 615 L 823 616 L 814 616 L 813 615 L 811 615 L 810 614 L 809 614 L 805 610 L 805 608 L 804 607 L 804 590 L 805 589 L 805 588 L 808 585 L 809 585 L 810 584 L 812 584 L 813 583 "></path>
        <path fill="none" stroke="#00fafa" stroke-width="3" d="M 813 200 L 814 199 L 823 199 L 824 200 L 825 200 L 826 201 L 827 201 L 828 202 L 829 202 L 832 205 L 832 206 L 834 208 L 834 209 L 835 210 L 835 213 L 836 214 L 836 218 L 835 219 L 835 222 L 834 223 L 834 224 L 832 226 L 832 227 L 830 229 L 829 229 L 828 230 L 827 230 L 826 231 L 823 231 L 822 232 L 814 232 L 813 231 L 810 231 L 809 230 L 808 230 L 805 227 L 805 225 L 804 224 L 804 208 L 805 207 L 805 206 L 806 205 L 806 204 L 809 201 L 810 201 L 811 200 L 813 200 L 814 199 "></path>
        <path fill="none" stroke="#00fafa" stroke-width="3" d="M 700 695 L 701 694 L 717 694 L 718 695 L 719 695 L 724 700 L 724 701 L 725 702 L 725 704 L 726 705 L 726 712 L 725 713 L 725 715 L 724 716 L 724 717 L 718 723 L 717 723 L 716 724 L 715 724 L 714 725 L 704 725 L 703 724 L 702 724 L 701 723 L 700 723 L 695 718 L 695 717 L 694 716 L 694 712 L 693 711 L 693 705 L 694 704 L 694 701 L 695 700 L 695 699 L 699 695 L 700 695 L 701 694 "></path>
        <path fill="none" stroke="#00fafa" stroke-width="3" d="M 703 91 L 704 90 L 714 90 L 715 91 L 716 91 L 717 92 L 718 92 L 723 97 L 723 98 L 725 100 L 725 103 L 726 104 L 726 110 L 725 111 L 725 113 L 724 114 L 724 115 L 719 120 L 717 120 L 716 121 L 701 121 L 700 120 L 699 120 L 695 116 L 695 115 L 694 114 L 694 111 L 693 110 L 693 104 L 694 103 L 694 99 L 695 98 L 695 97 L 700 92 L 701 92 L 702 91 L 703 91 L 704 90 "></path>
        <path fill="none" stroke="#00fafa" stroke-width="3" d="M 539 748 L 540 747 L 549 747 L 550 748 L 552 748 L 554 750 L 555 750 L 558 753 L 558 754 L 560 756 L 560 758 L 561 759 L 561 768 L 560 769 L 560 770 L 559 771 L 559 772 L 554 777 L 553 777 L 552 778 L 551 778 L 550 779 L 547 779 L 546 780 L 544 780 L 543 779 L 540 779 L 539 778 L 538 778 L 537 777 L 536 777 L 531 772 L 531 771 L 530 770 L 530 769 L 529 768 L 529 758 L 530 757 L 530 756 L 531 755 L 531 754 L 536 749 L 537 749 L 538 748 L 539 748 L 540 747 "></path>
        <path fill="none" stroke="#00fafa" stroke-width="3" d="M 869 474 L 870 473 L 876 473 L 877 474 L 879 474 L 880 475 L 881 475 L 883 477 L 884 477 L 886 479 L 886 480 L 888 482 L 888 483 L 889 484 L 889 487 L 890 488 L 890 491 L 889 492 L 889 495 L 888 496 L 888 497 L 887 498 L 887 499 L 883 503 L 882 503 L 880 505 L 878 505 L 877 506 L 869 506 L 868 505 L 866 505 L 864 503 L 863 503 L 861 501 L 861 500 L 860 499 L 860 497 L 859 496 L 859 483 L 860 482 L 860 480 L 865 475 L 866 475 L 867 474 L 869 474 L 870 473 "></path>
        <path fill="none" stroke="#00fafa" stroke-width="3" d="M 868 310 L 869 309 L 877 309 L 878 310 L 880 310 L 882 312 L 883 312 L 887 316 L 887 317 L 888 318 L 888 319 L 889 320 L 889 322 L 890 323 L 890 328 L 889 329 L 889 331 L 888 332 L 888 333 L 887 334 L 887 335 L 884 338 L 883 338 L 881 340 L 880 340 L 879 341 L 868 341 L 867 340 L 865 340 L 860 335 L 860 333 L 859 332 L 859 319 L 860 318 L 860 316 L 865 311 L 866 311 L 867 310 L 868 310 L 869 309 "></path>
        <path fill="none" stroke="#00fafa" stroke-width="3" d="M 539 37 L 540 36 L 550 36 L 551 37 L 552 37 L 554 39 L 555 39 L 558 42 L 558 43 L 559 44 L 559 45 L 560 46 L 560 47 L 561 48 L 561 56 L 560 57 L 560 58 L 559 59 L 559 60 L 554 65 L 552 65 L 551 66 L 539 66 L 538 65 L 536 65 L 535 64 L 534 64 L 531 61 L 531 60 L 530 59 L 530 58 L 529 57 L 529 47 L 530 46 L 530 45 L 531 44 L 531 43 L 536 38 L 537 38 L 538 37 L 539 37 L 540 36 "></path>
        <path fill="none" stroke="#00fafa" stroke-width="3" d="M 483 750 L 484 749 L 496 749 L 497 750 L 499 750 L 500 751 L 501 751 L 504 754 L 504 755 L 505 756 L 505 757 L 506 758 L 506 767 L 505 768 L 505 770 L 504 771 L 504 772 L 499 777 L 498 777 L 497 778 L 496 778 L 495 779 L 486 779 L 485 778 L 483 778 L 481 776 L 480 776 L 478 774 L 478 773 L 476 771 L 476 770 L 475 769 L 475 767 L 474 766 L 474 760 L 475 759 L 475 757 L 476 756 L 476 755 L 481 750 L 483 750 L 484 749 "></path>
        <path fill="none" stroke="#00fafa" stroke-width="3" d="M 485 37 L 486 36 L 494 36 L 495 37 L 497 37 L 499 39 L 500 39 L 503 42 L 503 43 L 505 45 L 505 47 L 506 48 L 506 56 L 505 57 L 505 59 L 499 65 L 497 65 L 496 66 L 484 66 L 483 65 L 481 65 L 476 60 L 476 59 L 475 58 L 475 56 L 474 55 L 474 49 L 475 48 L 475 46 L 476 45 L 476 44 L 478 42 L 478 41 L 479 40 L 480 40 L 482 38 L 483 38 L 484 37 L 485 37 L 486 36 "></path>
        <path fill="none" stroke="#00fafa" stroke-width="3" d="M 321 695 L 322 694 L 330 694 L 331 695 L 333 695 L 334 696 L 335 696 L 339 700 L 339 701 L 340 702 L 340 704 L 341 705 L 341 713 L 340 714 L 340 715 L 339 716 L 339 717 L 334 722 L 333 722 L 332 723 L 331 723 L 330 724 L 322 724 L 321 723 L 320 723 L 319 722 L 318 722 L 312 716 L 312 715 L 311 714 L 311 711 L 310 710 L 310 707 L 311 706 L 311 703 L 312 702 L 312 701 L 317 696 L 318 696 L 319 695 L 321 695 L 322 694 "></path>
        <path fill="none" stroke="#00fafa" stroke-width="3" d="M 597 37 L 598 36 L 601 36 L 602 37 L 605 37 L 606 38 L 607 38 L 613 44 L 613 45 L 614 46 L 614 48 L 615 49 L 615 55 L 614 56 L 614 58 L 613 59 L 613 60 L 609 64 L 608 64 L 607 65 L 604 65 L 603 66 L 596 66 L 595 65 L 592 65 L 590 63 L 589 63 L 587 61 L 587 60 L 586 59 L 586 58 L 585 57 L 585 55 L 584 54 L 584 50 L 585 49 L 585 46 L 586 45 L 586 44 L 592 38 L 593 38 L 594 37 L 597 37 L 598 36 "></path>
        <path fill="none" stroke="#00fafa" stroke-width="3" d="M 212 202 L 213 201 L 220 201 L 221 202 L 223 202 L 225 204 L 226 204 L 228 206 L 228 207 L 230 209 L 230 210 L 231 211 L 231 214 L 232 215 L 232 218 L 231 219 L 231 221 L 230 222 L 230 223 L 229 224 L 229 225 L 226 228 L 225 228 L 224 229 L 223 229 L 222 230 L 220 230 L 219 231 L 214 231 L 213 230 L 211 230 L 210 229 L 209 229 L 208 228 L 207 228 L 205 226 L 205 225 L 203 223 L 203 222 L 202 221 L 202 218 L 201 217 L 201 215 L 202 214 L 202 211 L 203 210 L 203 209 L 205 207 L 205 206 L 207 204 L 208 204 L 210 202 L 212 202 L 213 201 "></path>
        <path fill="none" stroke="#00fafa" stroke-width="3" d="M 213 585 L 214 584 L 220 584 L 221 585 L 223 585 L 225 587 L 226 587 L 229 590 L 229 591 L 230 592 L 230 594 L 231 595 L 231 603 L 230 604 L 230 606 L 228 608 L 228 609 L 226 611 L 225 611 L 223 613 L 221 613 L 220 614 L 213 614 L 212 613 L 210 613 L 208 611 L 207 611 L 204 608 L 204 607 L 203 606 L 203 605 L 202 604 L 202 602 L 201 601 L 201 597 L 202 596 L 202 594 L 203 593 L 203 592 L 204 591 L 204 590 L 207 587 L 208 587 L 209 586 L 210 586 L 211 585 L 213 585 L 214 584 "></path>
        <path fill="none" stroke="#00fafa" stroke-width="3" d="M 159 366 L 160 365 L 164 365 L 165 366 L 167 366 L 168 367 L 169 367 L 174 372 L 174 373 L 175 374 L 175 376 L 176 377 L 176 383 L 175 384 L 175 387 L 173 389 L 173 390 L 170 393 L 169 393 L 168 394 L 166 394 L 165 395 L 158 395 L 157 394 L 156 394 L 155 393 L 154 393 L 149 388 L 149 387 L 148 386 L 148 385 L 147 384 L 147 376 L 148 375 L 148 374 L 149 373 L 149 372 L 153 368 L 154 368 L 156 366 L 159 366 L 160 365 "></path>
        <path fill="none" stroke="#00fafa" stroke-width="3" d="M 157 421 L 158 420 L 165 420 L 166 421 L 168 421 L 169 422 L 170 422 L 173 425 L 173 426 L 175 428 L 175 431 L 176 432 L 176 438 L 175 439 L 175 441 L 174 442 L 174 443 L 169 448 L 168 448 L 167 449 L 165 449 L 164 450 L 160 450 L 159 449 L 156 449 L 154 447 L 153 447 L 149 443 L 149 442 L 148 441 L 148 440 L 147 439 L 147 431 L 148 430 L 148 429 L 149 428 L 149 427 L 154 422 L 155 422 L 156 421 L 157 421 L 158 420 "></path>
        <path fill="none" stroke="#00fafa" stroke-width="3" d="M 432 750 L 433 749 L 438 749 L 439 750 L 442 750 L 443 751 L 444 751 L 449 756 L 449 757 L 450 758 L 450 768 L 449 769 L 449 770 L 448 771 L 448 772 L 445 775 L 444 775 L 442 777 L 441 777 L 440 778 L 432 778 L 431 777 L 429 777 L 427 775 L 426 775 L 424 773 L 424 772 L 422 770 L 422 769 L 421 768 L 421 759 L 422 758 L 422 757 L 423 756 L 423 755 L 427 751 L 428 751 L 429 750 L 432 750 L 433 749 "></path>
        <path fill="none" stroke="#00fafa" stroke-width="3" d="M 431 38 L 432 37 L 439 37 L 440 38 L 442 38 L 444 40 L 445 40 L 447 42 L 447 43 L 449 45 L 449 47 L 450 48 L 450 56 L 449 57 L 449 58 L 448 59 L 448 60 L 445 63 L 444 63 L 443 64 L 442 64 L 441 65 L 438 65 L 437 66 L 434 66 L 433 65 L 430 65 L 429 64 L 428 64 L 427 63 L 426 63 L 423 60 L 423 59 L 422 58 L 422 57 L 421 56 L 421 47 L 422 46 L 422 45 L 424 43 L 424 42 L 426 40 L 427 40 L 429 38 L 431 38 L 432 37 "></path>
        <path fill="none" stroke="#00fafa" stroke-width="3" d="M 160 312 L 161 311 L 163 311 L 164 312 L 166 312 L 167 313 L 168 313 L 169 314 L 170 314 L 173 317 L 173 318 L 174 319 L 174 320 L 175 321 L 175 329 L 174 330 L 174 332 L 168 338 L 166 338 L 165 339 L 158 339 L 157 338 L 156 338 L 155 337 L 154 337 L 150 333 L 150 332 L 149 331 L 149 330 L 148 329 L 148 321 L 149 320 L 149 319 L 155 313 L 156 313 L 157 312 L 160 312 L 161 311 "></path>
        <path fill="none" stroke="#00fafa" stroke-width="3" d="M 157 477 L 158 476 L 166 476 L 167 477 L 168 477 L 174 483 L 174 485 L 175 486 L 175 494 L 174 495 L 174 496 L 172 498 L 172 499 L 170 501 L 169 501 L 168 502 L 167 502 L 166 503 L 157 503 L 156 502 L 155 502 L 149 496 L 149 495 L 148 494 L 148 486 L 149 485 L 149 483 L 155 477 L 157 477 L 158 476 "></path>
        <path fill="none" stroke="#00fafa" stroke-width="3" d="M 651 39 L 652 38 L 657 38 L 658 39 L 660 39 L 661 40 L 662 40 L 666 44 L 666 45 L 667 46 L 667 47 L 668 48 L 668 55 L 667 56 L 667 57 L 666 58 L 666 59 L 662 63 L 661 63 L 660 64 L 658 64 L 657 65 L 652 65 L 651 64 L 649 64 L 648 63 L 647 63 L 643 59 L 643 58 L 642 57 L 642 56 L 641 55 L 641 48 L 642 47 L 642 46 L 643 45 L 643 44 L 647 40 L 648 40 L 649 39 L 651 39 L 652 38 "></path>
        <path fill="none" stroke="#00fafa" stroke-width="3" d="M 814 642 L 815 641 L 822 641 L 823 642 L 825 642 L 831 648 L 831 650 L 832 651 L 832 657 L 831 658 L 831 660 L 825 666 L 823 666 L 822 667 L 815 667 L 814 666 L 813 666 L 811 664 L 810 664 L 809 663 L 809 662 L 807 660 L 807 659 L 806 658 L 806 650 L 807 649 L 807 648 L 808 647 L 808 646 L 811 643 L 812 643 L 813 642 L 814 642 L 815 641 "></path>
        <path fill="none" stroke="#00fafa" stroke-width="3" d="M 759 697 L 760 696 L 768 696 L 769 697 L 770 697 L 776 703 L 776 705 L 777 706 L 777 712 L 776 713 L 776 714 L 775 715 L 775 716 L 771 720 L 770 720 L 769 721 L 767 721 L 766 722 L 762 722 L 761 721 L 759 721 L 758 720 L 757 720 L 753 716 L 753 715 L 752 714 L 752 713 L 751 712 L 751 705 L 752 704 L 752 703 L 754 701 L 754 700 L 756 698 L 757 698 L 758 697 L 759 697 L 760 696 "></path>
        <path fill="none" stroke="#00fafa" stroke-width="3" d="M 762 94 L 763 93 L 765 93 L 766 94 L 769 94 L 771 96 L 772 96 L 775 99 L 775 100 L 776 101 L 776 102 L 777 103 L 777 109 L 776 110 L 776 112 L 770 118 L 769 118 L 768 119 L 760 119 L 759 118 L 758 118 L 752 112 L 752 110 L 751 109 L 751 104 L 752 103 L 752 101 L 753 100 L 753 99 L 756 96 L 757 96 L 759 94 L 762 94 L 763 93 "></path>
        <path fill="none" stroke="#00fafa" stroke-width="3" d="M 376 752 L 377 751 L 384 751 L 385 752 L 386 752 L 387 753 L 388 753 L 391 756 L 391 757 L 392 758 L 392 759 L 393 760 L 393 767 L 392 768 L 392 769 L 391 770 L 391 771 L 388 774 L 387 774 L 386 775 L 385 775 L 384 776 L 377 776 L 376 775 L 375 775 L 374 774 L 373 774 L 370 771 L 370 770 L 369 769 L 369 768 L 368 767 L 368 760 L 369 759 L 369 758 L 371 756 L 371 755 L 372 754 L 373 754 L 375 752 L 376 752 L 377 751 "></path>
        <path fill="none" stroke="#00fafa" stroke-width="3" d="M 377 40 L 378 39 L 384 39 L 385 40 L 386 40 L 388 42 L 389 42 L 391 44 L 391 45 L 392 46 L 392 47 L 393 48 L 393 55 L 392 56 L 392 57 L 391 58 L 391 59 L 388 62 L 387 62 L 386 63 L 385 63 L 384 64 L 377 64 L 376 63 L 375 63 L 373 61 L 372 61 L 371 60 L 371 59 L 369 57 L 369 55 L 368 54 L 368 49 L 369 48 L 369 46 L 375 40 L 377 40 L 378 39 "></path>
        <path fill="none" stroke="#00fafa" stroke-width="3" d="M 157 534 L 158 533 L 165 533 L 166 534 L 167 534 L 168 535 L 169 535 L 171 537 L 171 538 L 172 539 L 172 540 L 173 541 L 173 548 L 172 549 L 172 550 L 171 551 L 171 552 L 169 554 L 168 554 L 166 556 L 157 556 L 155 554 L 154 554 L 152 552 L 152 551 L 150 549 L 150 540 L 152 538 L 152 537 L 154 535 L 155 535 L 156 534 L 157 534 L 158 533 "></path>
        <path fill="none" stroke="#00fafa" stroke-width="3" d="M 157 260 L 158 259 L 165 259 L 166 260 L 167 260 L 168 261 L 169 261 L 171 263 L 171 264 L 172 265 L 172 266 L 173 267 L 173 275 L 171 277 L 171 278 L 169 280 L 168 280 L 166 282 L 158 282 L 157 281 L 156 281 L 155 280 L 154 280 L 152 278 L 152 277 L 151 276 L 151 275 L 150 274 L 150 267 L 151 266 L 151 265 L 152 264 L 152 263 L 154 261 L 155 261 L 156 260 L 157 260 L 158 259 "></path>
        <path fill="none" stroke="#00fafa" stroke-width="3" d="M 870 589 L 871 588 L 877 588 L 878 589 L 879 589 L 884 594 L 884 595 L 885 596 L 885 602 L 884 603 L 884 604 L 883 605 L 883 606 L 880 609 L 879 609 L 878 610 L 877 610 L 876 611 L 871 611 L 870 610 L 869 610 L 868 609 L 867 609 L 864 606 L 864 605 L 863 604 L 863 603 L 862 602 L 862 597 L 863 596 L 863 595 L 864 594 L 864 593 L 868 589 L 870 589 L 871 588 "></path>
        <path fill="none" stroke="#00fafa" stroke-width="3" d="M 872 205 L 873 204 L 874 204 L 875 205 L 878 205 L 879 206 L 880 206 L 883 209 L 883 210 L 884 211 L 884 212 L 885 213 L 885 219 L 884 220 L 884 221 L 879 226 L 878 226 L 877 227 L 870 227 L 869 226 L 868 226 L 864 222 L 864 221 L 863 220 L 863 219 L 862 218 L 862 214 L 863 213 L 863 211 L 869 205 L 872 205 L 873 204 "></path>
        <path fill="none" stroke="#00fafa" stroke-width="3" d="M 212 151 L 213 150 L 219 150 L 220 151 L 221 151 L 222 152 L 223 152 L 225 154 L 225 155 L 227 157 L 227 164 L 226 165 L 226 166 L 225 167 L 225 168 L 223 170 L 222 170 L 221 171 L 220 171 L 219 172 L 213 172 L 212 171 L 211 171 L 206 166 L 206 165 L 205 164 L 205 158 L 206 157 L 206 156 L 211 151 L 212 151 L 213 150 "></path>
        <path fill="none" stroke="#00fafa" stroke-width="3" d="M 705 754 L 706 753 L 713 753 L 714 754 L 715 754 L 719 758 L 719 759 L 720 760 L 720 767 L 719 768 L 719 769 L 714 774 L 711 774 L 710 775 L 709 775 L 708 774 L 705 774 L 699 768 L 699 765 L 698 764 L 699 763 L 699 760 L 700 759 L 700 758 L 704 754 L 705 754 L 706 753 "></path>
        <path fill="none" stroke="#00fafa" stroke-width="3" d="M 705 42 L 706 41 L 713 41 L 714 42 L 715 42 L 718 45 L 718 46 L 719 47 L 719 48 L 720 49 L 720 54 L 719 55 L 719 57 L 715 61 L 714 61 L 713 62 L 705 62 L 703 60 L 702 60 L 701 59 L 701 58 L 699 56 L 699 54 L 698 53 L 698 50 L 699 49 L 699 47 L 704 42 L 705 42 L 706 41 "></path>
        <path fill="none" stroke="#00fafa" stroke-width="3" d="M 926 370 L 927 369 L 929 369 L 930 370 L 933 370 L 938 375 L 938 376 L 939 377 L 939 383 L 938 384 L 938 385 L 933 390 L 931 390 L 930 391 L 927 391 L 926 390 L 924 390 L 922 388 L 921 388 L 920 387 L 920 386 L 919 385 L 919 384 L 918 383 L 918 377 L 919 376 L 919 375 L 924 370 L 926 370 L 927 369 "></path>
        <path fill="none" stroke="#00fafa" stroke-width="3" d="M 926 425 L 927 424 L 930 424 L 931 425 L 933 425 L 938 430 L 938 431 L 939 432 L 939 438 L 938 439 L 938 440 L 933 445 L 931 445 L 930 446 L 927 446 L 926 445 L 924 445 L 919 440 L 919 439 L 918 438 L 918 432 L 919 431 L 919 430 L 924 425 L 926 425 L 927 424 "></path>
        <path fill="none" stroke="#00fafa" stroke-width="3" d="M 322 755 L 323 754 L 329 754 L 331 756 L 332 756 L 334 758 L 334 759 L 335 760 L 335 762 L 336 763 L 336 764 L 335 765 L 335 767 L 334 768 L 334 769 L 331 772 L 330 772 L 329 773 L 322 773 L 320 771 L 319 771 L 318 770 L 318 769 L 317 768 L 317 767 L 316 766 L 316 761 L 317 760 L 317 759 L 321 755 L 322 755 L 323 754 "></path>
        <path fill="none" stroke="#00fafa" stroke-width="3" d="M 322 42 L 329 42 L 330 43 L 331 43 L 334 46 L 334 47 L 335 48 L 335 55 L 330 60 L 329 60 L 328 61 L 323 61 L 322 60 L 321 60 L 317 56 L 317 55 L 316 54 L 316 49 L 317 48 L 317 47 L 322 42 L 329 42 "></path>
        <path fill="none" stroke="#00fafa" stroke-width="3" d="M 159 207 L 160 206 L 162 206 L 163 207 L 165 207 L 170 212 L 170 219 L 168 221 L 168 222 L 167 223 L 166 223 L 165 224 L 164 224 L 163 225 L 160 225 L 159 224 L 157 224 L 153 220 L 153 219 L 152 218 L 152 213 L 153 212 L 153 211 L 157 207 L 159 207 L 160 206 "></path>
        <path fill="none" stroke="#00fafa" stroke-width="3" d="M 817 701 L 818 700 L 820 700 L 821 701 L 823 701 L 827 705 L 827 707 L 828 708 L 828 710 L 827 711 L 827 713 L 823 717 L 821 717 L 820 718 L 818 718 L 817 717 L 815 717 L 811 713 L 811 711 L 810 710 L 810 708 L 811 707 L 811 705 L 815 701 L 817 701 L 818 700 "></path>
        <path fill="none" stroke="#00fafa" stroke-width="3" d="M 817 98 L 818 97 L 820 97 L 821 98 L 823 98 L 827 102 L 827 104 L 828 105 L 828 107 L 827 108 L 827 110 L 823 114 L 820 114 L 819 115 L 818 114 L 816 114 L 815 113 L 814 113 L 812 111 L 812 110 L 811 109 L 811 103 L 812 102 L 812 101 L 815 98 L 817 98 L 818 97 "></path>
        <path fill="none" stroke="#00fafa" stroke-width="3" d="M 103 373 L 104 372 L 109 372 L 110 373 L 111 373 L 113 375 L 113 376 L 114 377 L 114 378 L 115 379 L 115 381 L 114 382 L 114 384 L 111 387 L 110 387 L 109 388 L 103 388 L 99 384 L 99 383 L 98 382 L 98 378 L 99 377 L 99 376 L 102 373 L 103 373 L 104 372 "></path>
        <path fill="none" stroke="#00fafa" stroke-width="3" d="M 103 427 L 109 427 L 110 428 L 111 428 L 113 430 L 113 431 L 114 432 L 114 438 L 113 439 L 113 440 L 112 441 L 111 441 L 109 443 L 104 443 L 103 442 L 102 442 L 99 439 L 99 438 L 98 437 L 98 433 L 99 432 L 99 431 L 103 427 L 109 427 "></path>
        <path fill="none" stroke="#00fafa" stroke-width="3" d="M 871 154 L 872 153 L 876 153 L 877 154 L 878 154 L 881 157 L 881 158 L 882 159 L 882 163 L 881 164 L 881 165 L 878 168 L 876 168 L 875 169 L 873 169 L 872 168 L 870 168 L 867 165 L 867 164 L 866 163 L 866 159 L 867 158 L 867 157 L 870 154 L 871 154 L 872 153 "></path>
        <path fill="none" stroke="#00fafa" stroke-width="3" d="M 103 319 L 104 318 L 109 318 L 113 322 L 113 323 L 114 324 L 114 327 L 113 328 L 113 329 L 110 332 L 108 332 L 107 333 L 106 333 L 105 332 L 103 332 L 99 328 L 99 323 L 100 322 L 100 321 L 102 319 L 103 319 L 104 318 "></path>
        <path fill="none" stroke="#00fafa" stroke-width="3" d="M 213 703 L 214 702 L 218 702 L 223 707 L 223 711 L 222 712 L 222 713 L 220 715 L 219 715 L 218 716 L 214 716 L 213 715 L 212 715 L 210 713 L 210 712 L 209 711 L 209 707 L 210 706 L 210 705 L 212 703 L 213 703 L 214 702 "></path>
        <path fill="none" stroke="#00fafa" stroke-width="3" d="M 213 100 L 214 99 L 218 99 L 219 100 L 220 100 L 222 102 L 222 103 L 223 104 L 223 107 L 222 108 L 222 109 L 219 112 L 218 112 L 217 113 L 215 113 L 214 112 L 213 112 L 212 111 L 211 111 L 210 110 L 210 109 L 209 108 L 209 104 L 210 103 L 210 102 L 212 100 L 213 100 L 214 99 "></path>
        <path fill="none" stroke="#00fafa" stroke-width="3" d="M 268 758 L 274 758 L 276 760 L 276 761 L 277 762 L 277 766 L 276 767 L 276 768 L 274 770 L 268 770 L 265 767 L 265 766 L 264 765 L 264 764 L 265 763 L 265 761 L 268 758 L 274 758 "></path>
        <path fill="none" stroke="#00fafa" stroke-width="3" d="M 268 45 L 273 45 L 274 46 L 275 46 L 276 47 L 276 48 L 277 49 L 277 53 L 276 54 L 276 55 L 275 56 L 274 56 L 273 57 L 268 57 L 265 54 L 265 53 L 264 52 L 264 50 L 265 49 L 265 48 L 268 45 L 273 45 "></path>
        <path fill="none" stroke="#00fafa" stroke-width="3" d="M 158 155 L 164 155 L 166 157 L 166 158 L 167 159 L 167 163 L 164 166 L 163 166 L 162 167 L 160 167 L 159 166 L 158 166 L 155 163 L 155 159 L 156 158 L 156 157 L 158 155 L 164 155 "></path>
        <path fill="none" stroke="#00fafa" stroke-width="3" d="M 104 539 L 109 539 L 111 541 L 111 542 L 112 543 L 112 547 L 109 550 L 108 550 L 107 551 L 105 551 L 104 550 L 103 550 L 101 548 L 101 547 L 100 546 L 100 543 L 104 539 L 109 539 "></path>
        <path fill="none" stroke="#00fafa" stroke-width="3" d="M 104 265 L 105 264 L 107 264 L 108 265 L 109 265 L 112 268 L 112 272 L 111 273 L 111 274 L 109 276 L 104 276 L 100 272 L 100 269 L 101 268 L 101 267 L 103 265 L 104 265 L 105 264 "></path>
        <path fill="none" stroke="#00fafa" stroke-width="3" d="M 926 594 L 931 594 L 935 598 L 935 601 L 934 602 L 934 603 L 932 605 L 930 605 L 929 606 L 928 605 L 926 605 L 924 603 L 924 602 L 923 601 L 923 598 L 924 597 L 924 596 L 926 594 L 931 594 "></path>
        <path fill="none" stroke="#00fafa" stroke-width="3" d="M 926 210 L 932 210 L 934 212 L 934 213 L 935 214 L 935 217 L 931 221 L 927 221 L 926 220 L 925 220 L 924 219 L 924 218 L 923 217 L 923 214 L 924 213 L 924 212 L 926 210 L 932 210 "></path>
        <path fill="none" stroke="#00fafa" stroke-width="3" d="M 682 470 L 686 470 L 689 473 L 689 478 L 686 481 L 682 481 L 679 478 L 679 473 L 682 470 L 686 470 "></path>
        <path fill="none" stroke="#00fafa" stroke-width="3" d="M 982 431 L 983 430 L 985 430 L 986 431 L 987 431 L 988 432 L 988 433 L 989 434 L 989 436 L 986 439 L 985 439 L 984 440 L 983 440 L 982 439 L 981 439 L 980 438 L 980 437 L 979 436 L 979 434 L 980 433 L 980 432 L 981 431 L 982 431 L 983 430 "></path>
        <path fill="none" stroke="#00fafa" stroke-width="3" d="M 873 101 L 875 101 L 876 102 L 877 102 L 878 103 L 878 104 L 879 105 L 879 107 L 876 110 L 872 110 L 870 108 L 870 104 L 873 101 L 875 101 "></path>
        <path fill="none" stroke="#00fafa" stroke-width="3" d="M 872 705 L 876 705 L 879 708 L 879 710 L 878 711 L 878 712 L 877 713 L 876 713 L 875 714 L 873 714 L 870 711 L 870 707 L 872 705 L 876 705 "></path>
        <path fill="none" stroke="#00fafa" stroke-width="3" d="M 818 760 L 821 760 L 824 763 L 824 765 L 823 766 L 823 767 L 822 768 L 821 768 L 820 769 L 819 769 L 818 768 L 817 768 L 815 766 L 815 763 L 818 760 L 821 760 "></path>
        <path fill="none" stroke="#00fafa" stroke-width="3" d="M 818 47 L 819 46 L 820 47 L 822 47 L 823 48 L 823 49 L 824 50 L 824 52 L 821 55 L 818 55 L 815 52 L 815 50 L 816 49 L 816 48 L 817 47 L 818 47 L 819 46 "></path>
        <path fill="none" stroke="#00fafa" stroke-width="3" d="M 982 486 L 986 486 L 988 488 L 988 491 L 985 494 L 983 494 L 982 493 L 981 493 L 980 492 L 980 488 L 982 486 L 986 486 "></path>
        <path fill="none" stroke="#00fafa" stroke-width="3" d="M 983 321 L 985 321 L 988 324 L 988 327 L 986 329 L 982 329 L 980 327 L 980 324 L 983 321 L 985 321 "></path>
        <path fill="none" stroke="#00fafa" stroke-width="3" d="M 105 212 L 106 211 L 107 212 L 108 212 L 110 214 L 110 217 L 108 219 L 104 219 L 102 217 L 102 214 L 104 212 L 105 212 L 106 211 "></path>
        <path fill="none" stroke="#00fafa" stroke-width="3" d="M 928 651 L 930 651 L 932 653 L 932 656 L 930 658 L 928 658 L 926 656 L 926 653 L 928 651 L 930 651 "></path>
        <path fill="none" stroke="#00fafa" stroke-width="3" d="M 158 708 L 159 707 L 162 707 L 163 708 L 163 711 L 162 712 L 160 712 L 158 710 L 158 708 L 159 707 "></path>
        <path fill="none" stroke="#00fafa" stroke-width="3" d="M 160 103 L 162 103 L 163 104 L 163 107 L 162 108 L 160 108 L 158 106 L 158 105 L 160 103 L 162 103 "></path>
        <path fill="none" stroke="#00fafa" stroke-width="3" d="M 982 269 L 983 268 L 985 268 L 987 270 L 986 271 L 986 272 L 985 273 L 984 273 L 982 271 L 982 269 L 983 268 "></path>
        <path fill="none" stroke="#00fafa" stroke-width="3" d="M 984 542 L 987 545 L 985 547 L 983 547 L 981 545 L 984 542 L 987 545 "></path>
        <path fill="none" stroke="#00fafa" stroke-width="3" d="M 49 379 L 50 378 L 52 378 L 53 379 L 53 381 L 52 382 L 50 382 L 49 381 L 49 379 L 50 378 "></path>
        <path fill="none" stroke="#00fafa" stroke-width="3" d="M 49 434 L 50 433 L 52 433 L 53 434 L 53 436 L 52 437 L 50 437 L 49 436 L 49 434 L 50 433 "></path>
        <path fill="none" stroke="#00fafa" stroke-width="3" d="M 417 368 L 418 367 L 419 367 L 420 368 L 419 369 L 418 369 L 417 368 L 418 367 "></path>
        <path fill="none" stroke="#00fafa" stroke-width="3" d="M 419 369 L 420 368 L 421 368 L 422 369 L 421 370 L 420 370 L 419 369 L 420 368 "></path>
        <path fill="none" stroke="#00fafa" stroke-width="3" d="M 415 367 L 416 366 L 417 366 L 418 367 L 417 368 L 416 368 L 415 367 L 416 366 "></path>
    </g>
</svg>
