<svg xmlns="http://www.w3.org/2000/svg" xmlns:xlink="http://www.w3.org/1999/xlink" version="1.1" x="0" y="0" width="1056px" height="816px">
    <g id="rootLayer" transform="translate(0.000000, 0.000000)">
        <path fill="none" stroke="#00fafa" stroke-width="3" d="M 659 693 L 660 692 L 663 692 L 664 693 L 668 693 L 669 694 L 671 694 L 672 695 L 673 695 L 675 697 L 676 697 L 683 704 L 683 705 L 684 706 L 684 714 L 683 715 L 683 716 L 682 717 L 682 718 L 681 719 L 681 720 L 679 722 L 679 723 L 678 724 L 678 726 L 677 727 L 677 733 L 676 734 L 676 738 L 675 739 L 675 740 L 670 745 L 669 745 L 668 746 L 665 746 L 664 747 L 658 747 L 657 746 L 654 746 L 653 745 L 651 745 L 650 744 L 649 744 L 648 743 L 647 743 L 646 742 L 645 742 L 643 740 L 642 740 L 638 736 L 638 735 L 636 733 L 636 732 L 635 731 L 635 730 L 634 729 L 634 720 L 635 719 L 635 718 L 645 708 L 645 707 L 646 706 L 646 705 L 648 703 L 648 702 L 649 701 L 649 700 L 651 698 L 651 697 L 653 695 L 654 695 L 655 694 L 656 694 L 657 693 L 659 693 L 660 692 "></path>
        <path fill="none" stroke="#00fafa" stroke-width="3" d="M 272 547 L 273 546 L 277 546 L 278 547 L 281 547 L 282 548 L 283 548 L 286 551 L 287 551 L 290 554 L 290 555 L 292 557 L 292 558 L 293 559 L 293 560 L 294 561 L 294 563 L 295 564 L 295 575 L 294 576 L 294 578 L 293 579 L 293 580 L 292 581 L 292 582 L 290 584 L 290 585 L 286 589 L 285 589 L 283 591 L 282 591 L 281 592 L 280 592 L 279 593 L 278 593 L 277 594 L 274 594 L 273 595 L 264 595 L 263 594 L 260 594 L 259 593 L 258 593 L 257 592 L 256 592 L 249 585 L 249 584 L 248 583 L 248 582 L 247 581 L 247 580 L 246 579 L 246 575 L 245 574 L 245 567 L 246 566 L 246 562 L 247 561 L 247 560 L 248 559 L 248 558 L 249 557 L 249 556 L 253 552 L 254 552 L 255 551 L 256 551 L 257 550 L 258 550 L 259 549 L 261 549 L 262 548 L 266 548 L 267 547 L 272 547 L 273 546 "></path>
        <path fill="none" stroke="#00fafa" stroke-width="3" d="M 563 125 L 564 124 L 568 124 L 569 125 L 572 125 L 573 126 L 574 126 L 575 127 L 576 127 L 577 128 L 578 128 L 581 131 L 582 131 L 585 134 L 586 134 L 588 136 L 589 136 L 592 139 L 593 139 L 594 140 L 594 141 L 595 142 L 595 148 L 594 149 L 594 150 L 592 152 L 592 153 L 590 155 L 590 156 L 589 157 L 589 158 L 588 159 L 588 161 L 587 162 L 587 164 L 586 165 L 586 168 L 585 169 L 585 170 L 580 175 L 571 175 L 570 174 L 566 174 L 565 173 L 562 173 L 561 172 L 560 172 L 559 171 L 558 171 L 557 170 L 556 170 L 550 164 L 550 163 L 548 161 L 548 159 L 547 158 L 547 157 L 546 156 L 546 153 L 545 152 L 545 143 L 546 142 L 546 139 L 547 138 L 547 137 L 548 136 L 548 135 L 550 133 L 550 132 L 553 129 L 554 129 L 556 127 L 557 127 L 558 126 L 559 126 L 560 125 L 563 125 L 564 124 "></path>
        <path fill="none" stroke="#00fafa" stroke-width="3" d="M 653 96 L 654 95 L 665 95 L 666 96 L 668 96 L 669 97 L 670 97 L 671 98 L 672 98 L 673 99 L 674 99 L 682 107 L 682 108 L 683 109 L 683 110 L 684 111 L 684 112 L 685 113 L 685 117 L 686 118 L 686 121 L 685 122 L 685 126 L 684 127 L 684 129 L 682 131 L 682 132 L 671 143 L 670 143 L 669 144 L 668 144 L 667 145 L 663 145 L 662 144 L 661 144 L 659 142 L 658 142 L 655 139 L 654 139 L 652 137 L 651 137 L 650 136 L 648 136 L 647 135 L 645 135 L 644 134 L 641 134 L 640 133 L 639 133 L 635 129 L 635 121 L 636 120 L 636 117 L 637 116 L 637 113 L 638 112 L 638 110 L 639 109 L 639 107 L 640 106 L 640 105 L 647 98 L 648 98 L 649 97 L 650 97 L 651 96 L 653 96 L 654 95 "></path>
        <path fill="none" stroke="#00fafa" stroke-width="3" d="M 415 63 L 416 62 L 423 62 L 424 63 L 428 63 L 429 64 L 431 64 L 432 65 L 433 65 L 438 70 L 438 71 L 439 72 L 439 81 L 438 82 L 438 89 L 439 90 L 439 92 L 440 93 L 440 95 L 441 96 L 441 98 L 442 99 L 442 104 L 441 105 L 441 107 L 440 108 L 440 109 L 435 114 L 433 114 L 432 115 L 430 115 L 429 114 L 426 114 L 425 113 L 424 113 L 423 112 L 422 112 L 421 111 L 419 111 L 418 110 L 416 110 L 415 109 L 412 109 L 411 108 L 405 108 L 404 107 L 402 107 L 401 106 L 400 106 L 397 103 L 397 99 L 399 97 L 399 96 L 403 92 L 403 90 L 404 89 L 404 85 L 403 84 L 403 82 L 402 81 L 402 80 L 401 79 L 401 77 L 400 76 L 400 72 L 401 71 L 401 70 L 406 65 L 407 65 L 408 64 L 410 64 L 411 63 L 415 63 L 416 62 "></path>
        <path fill="none" stroke="#00fafa" stroke-width="3" d="M 475 701 L 476 700 L 480 700 L 481 701 L 482 701 L 483 702 L 484 702 L 485 703 L 486 703 L 487 704 L 488 704 L 489 705 L 492 705 L 493 706 L 501 706 L 502 707 L 503 707 L 504 708 L 505 708 L 506 709 L 506 710 L 507 711 L 507 713 L 508 714 L 507 715 L 507 720 L 506 721 L 506 724 L 505 725 L 505 727 L 504 728 L 504 730 L 503 731 L 503 732 L 502 733 L 502 734 L 496 740 L 495 740 L 494 741 L 493 741 L 492 742 L 489 742 L 488 743 L 478 743 L 477 742 L 471 742 L 470 741 L 468 741 L 467 740 L 466 740 L 465 739 L 464 739 L 463 738 L 462 738 L 458 734 L 458 733 L 456 731 L 456 730 L 455 729 L 455 727 L 454 726 L 454 724 L 453 723 L 453 718 L 452 717 L 452 716 L 453 715 L 453 713 L 454 712 L 454 711 L 455 710 L 456 710 L 458 708 L 460 708 L 461 707 L 463 707 L 464 706 L 466 706 L 467 705 L 468 705 L 469 704 L 470 704 L 472 702 L 473 702 L 474 701 L 475 701 L 476 700 "></path>
        <path fill="none" stroke="#00fafa" stroke-width="3" d="M 621 153 L 625 153 L 626 154 L 627 154 L 632 159 L 633 159 L 636 162 L 637 162 L 638 163 L 640 163 L 641 164 L 644 164 L 645 165 L 647 165 L 648 166 L 650 166 L 654 170 L 654 180 L 653 181 L 653 186 L 652 187 L 652 190 L 651 191 L 651 192 L 650 193 L 650 194 L 649 195 L 649 196 L 643 202 L 642 202 L 641 203 L 640 203 L 639 204 L 638 204 L 637 205 L 634 205 L 633 206 L 624 206 L 623 205 L 621 205 L 620 204 L 618 204 L 616 202 L 615 202 L 609 196 L 609 195 L 607 193 L 607 192 L 606 191 L 606 185 L 607 184 L 607 183 L 608 182 L 608 181 L 610 179 L 610 178 L 613 175 L 613 174 L 614 173 L 614 172 L 615 171 L 615 169 L 616 168 L 616 163 L 617 162 L 617 158 L 618 157 L 618 156 L 621 153 L 625 153 "></path>
        <path fill="none" stroke="#00fafa" stroke-width="3" d="M 742 546 L 743 545 L 748 545 L 749 546 L 754 546 L 755 547 L 758 547 L 759 548 L 761 548 L 762 549 L 763 549 L 764 550 L 765 550 L 772 557 L 772 558 L 774 560 L 774 562 L 775 563 L 775 565 L 776 566 L 776 575 L 775 576 L 775 579 L 774 580 L 774 581 L 772 583 L 772 584 L 769 587 L 768 587 L 765 590 L 764 590 L 763 591 L 762 591 L 761 592 L 760 592 L 759 593 L 758 593 L 757 594 L 752 594 L 751 593 L 750 593 L 749 592 L 748 592 L 747 591 L 746 591 L 744 589 L 743 589 L 742 588 L 741 588 L 740 587 L 739 587 L 738 586 L 736 586 L 735 585 L 734 585 L 733 584 L 732 584 L 729 581 L 729 580 L 728 579 L 728 572 L 729 571 L 729 570 L 731 568 L 731 567 L 733 565 L 733 564 L 734 563 L 734 561 L 735 560 L 735 556 L 736 555 L 736 552 L 737 551 L 737 550 L 738 549 L 738 548 L 739 547 L 740 547 L 741 546 L 742 546 L 743 545 "></path>
        <path fill="none" stroke="#00fafa" stroke-width="3" d="M 715 607 L 721 607 L 722 608 L 723 608 L 725 610 L 726 610 L 728 612 L 729 612 L 730 613 L 731 613 L 732 614 L 734 614 L 735 615 L 736 615 L 741 620 L 741 622 L 742 623 L 742 627 L 743 628 L 743 632 L 744 633 L 744 642 L 743 643 L 743 645 L 741 647 L 741 648 L 738 651 L 737 651 L 735 653 L 734 653 L 733 654 L 732 654 L 731 655 L 730 655 L 729 656 L 725 656 L 724 657 L 720 657 L 719 656 L 716 656 L 715 655 L 714 655 L 713 654 L 712 654 L 705 647 L 705 646 L 702 643 L 702 642 L 696 636 L 696 635 L 695 634 L 695 629 L 699 625 L 700 625 L 701 624 L 702 624 L 703 623 L 704 623 L 708 619 L 708 618 L 709 617 L 709 616 L 710 615 L 710 614 L 711 613 L 711 611 L 715 607 L 721 607 "></path>
        <path fill="none" stroke="#00fafa" stroke-width="3" d="M 879 422 L 880 421 L 882 421 L 883 422 L 884 422 L 885 423 L 885 424 L 887 426 L 887 428 L 888 429 L 888 431 L 889 432 L 889 435 L 890 436 L 890 439 L 891 440 L 891 444 L 892 445 L 892 452 L 893 453 L 893 459 L 892 460 L 892 463 L 891 464 L 891 465 L 890 466 L 890 467 L 885 472 L 884 472 L 883 473 L 881 473 L 880 474 L 870 474 L 869 473 L 863 473 L 862 472 L 858 472 L 857 471 L 856 471 L 852 467 L 852 466 L 851 465 L 851 464 L 850 463 L 850 460 L 849 459 L 849 458 L 848 457 L 848 456 L 847 455 L 847 454 L 846 453 L 846 452 L 845 451 L 845 445 L 846 444 L 846 443 L 848 441 L 854 441 L 855 442 L 858 442 L 859 443 L 865 443 L 866 442 L 867 442 L 870 439 L 870 438 L 872 436 L 872 434 L 873 433 L 873 431 L 874 430 L 874 429 L 875 428 L 875 426 L 877 424 L 877 423 L 878 422 L 879 422 L 880 421 "></path>
        <path fill="none" stroke="#00fafa" stroke-width="3" d="M 836 274 L 845 274 L 846 275 L 850 275 L 851 276 L 853 276 L 854 277 L 855 277 L 856 278 L 857 278 L 861 282 L 861 283 L 862 284 L 862 285 L 863 286 L 863 292 L 862 293 L 862 296 L 861 297 L 861 299 L 860 300 L 860 315 L 859 316 L 859 318 L 858 319 L 858 320 L 853 325 L 852 325 L 851 326 L 846 326 L 845 325 L 842 325 L 841 324 L 838 324 L 837 323 L 833 323 L 832 324 L 824 324 L 822 322 L 822 318 L 823 317 L 823 316 L 824 315 L 824 314 L 828 310 L 828 309 L 830 307 L 830 306 L 831 305 L 831 299 L 830 298 L 830 296 L 829 295 L 829 294 L 828 293 L 828 286 L 829 285 L 829 284 L 830 283 L 830 282 L 831 281 L 831 280 L 832 279 L 832 278 L 836 274 L 845 274 "></path>
        <path fill="none" stroke="#00fafa" stroke-width="3" d="M 289 372 L 294 372 L 296 374 L 296 375 L 297 376 L 297 385 L 298 386 L 298 390 L 299 391 L 299 398 L 298 399 L 298 400 L 296 402 L 295 402 L 294 403 L 293 403 L 292 404 L 286 404 L 285 403 L 283 403 L 282 402 L 279 402 L 278 401 L 276 401 L 275 402 L 273 402 L 272 403 L 271 403 L 264 410 L 262 410 L 261 411 L 255 411 L 254 410 L 251 410 L 249 408 L 248 408 L 247 407 L 247 406 L 246 405 L 246 400 L 245 399 L 245 394 L 244 393 L 244 391 L 243 390 L 243 387 L 244 386 L 244 385 L 247 382 L 248 382 L 249 381 L 250 381 L 251 380 L 252 380 L 253 379 L 254 379 L 255 378 L 261 378 L 262 379 L 263 379 L 264 380 L 265 380 L 267 382 L 269 382 L 270 383 L 275 383 L 276 382 L 278 382 L 285 375 L 286 375 L 289 372 L 294 372 "></path>
        <path fill="none" stroke="#00fafa" stroke-width="3" d="M 831 350 L 836 350 L 837 351 L 839 351 L 840 352 L 842 352 L 843 353 L 845 353 L 846 354 L 848 354 L 849 355 L 850 355 L 853 358 L 853 359 L 854 360 L 854 361 L 853 362 L 853 363 L 852 364 L 851 364 L 850 365 L 849 365 L 848 366 L 846 366 L 845 367 L 844 367 L 841 370 L 841 376 L 842 377 L 842 378 L 843 379 L 843 380 L 845 382 L 845 383 L 848 386 L 849 386 L 850 387 L 851 387 L 852 388 L 853 388 L 854 389 L 855 389 L 857 391 L 857 392 L 858 393 L 858 395 L 859 396 L 859 398 L 860 399 L 860 401 L 861 402 L 861 407 L 859 409 L 859 410 L 855 414 L 854 414 L 853 415 L 849 415 L 848 414 L 847 414 L 845 412 L 844 412 L 843 411 L 842 411 L 841 410 L 837 410 L 836 411 L 834 411 L 833 412 L 832 412 L 831 413 L 830 413 L 826 417 L 826 418 L 825 419 L 825 423 L 826 424 L 826 427 L 827 428 L 827 431 L 826 432 L 826 433 L 824 435 L 821 435 L 819 433 L 819 432 L 817 430 L 817 429 L 816 428 L 816 427 L 814 425 L 814 424 L 813 423 L 813 417 L 815 415 L 815 414 L 816 413 L 817 413 L 822 408 L 823 408 L 825 406 L 826 406 L 827 405 L 828 405 L 829 404 L 830 404 L 831 403 L 833 403 L 834 402 L 844 402 L 846 400 L 846 395 L 843 392 L 842 392 L 839 389 L 839 388 L 837 386 L 837 385 L 836 384 L 836 383 L 834 381 L 834 380 L 832 378 L 832 377 L 831 376 L 831 375 L 830 374 L 830 372 L 829 371 L 829 367 L 828 366 L 828 354 L 829 353 L 829 352 L 831 350 L 836 350 "></path>
        <path fill="none" stroke="#00fafa" stroke-width="3" d="M 525 641 L 526 640 L 531 640 L 532 641 L 533 641 L 534 642 L 534 643 L 535 644 L 535 648 L 534 649 L 534 655 L 533 656 L 533 664 L 532 665 L 532 667 L 531 668 L 531 669 L 530 670 L 530 671 L 529 672 L 529 673 L 527 675 L 527 676 L 525 678 L 525 679 L 520 684 L 519 684 L 518 685 L 516 685 L 515 684 L 513 684 L 512 683 L 511 683 L 510 682 L 509 682 L 508 681 L 505 681 L 504 680 L 495 680 L 492 677 L 492 676 L 493 675 L 493 674 L 500 667 L 500 666 L 501 665 L 501 663 L 502 662 L 502 661 L 501 660 L 501 658 L 500 657 L 500 656 L 499 655 L 499 654 L 498 653 L 498 651 L 497 650 L 497 648 L 498 647 L 498 646 L 501 643 L 508 643 L 509 644 L 517 644 L 518 643 L 520 643 L 521 642 L 522 642 L 523 641 L 525 641 L 526 640 "></path>
        <path fill="none" stroke="#00fafa" stroke-width="3" d="M 272 214 L 273 213 L 278 213 L 279 214 L 280 214 L 282 216 L 283 216 L 287 220 L 288 220 L 291 223 L 291 224 L 293 226 L 293 227 L 294 228 L 294 231 L 293 232 L 293 233 L 292 234 L 292 235 L 288 239 L 288 240 L 287 241 L 287 242 L 286 243 L 286 249 L 287 250 L 287 251 L 288 252 L 288 253 L 290 255 L 290 256 L 292 258 L 292 259 L 293 260 L 293 261 L 294 262 L 294 265 L 293 266 L 293 267 L 291 269 L 288 269 L 287 268 L 286 268 L 278 260 L 278 259 L 276 257 L 276 255 L 275 254 L 275 249 L 276 248 L 276 238 L 275 237 L 275 236 L 274 235 L 273 235 L 272 234 L 265 234 L 264 235 L 263 235 L 262 236 L 260 236 L 259 237 L 257 237 L 256 238 L 255 238 L 254 237 L 252 237 L 248 233 L 247 233 L 244 230 L 243 230 L 238 225 L 238 224 L 241 221 L 242 221 L 243 220 L 246 220 L 247 221 L 249 221 L 250 222 L 251 222 L 252 223 L 253 223 L 254 224 L 257 224 L 258 225 L 260 225 L 261 224 L 263 224 L 267 220 L 267 219 L 269 217 L 269 216 L 271 214 L 272 214 L 273 213 "></path>
        <path fill="none" stroke="#00fafa" stroke-width="3" d="M 371 609 L 375 609 L 376 610 L 377 610 L 379 612 L 380 612 L 382 614 L 383 614 L 384 615 L 391 615 L 392 614 L 393 614 L 394 613 L 395 613 L 396 612 L 400 612 L 404 616 L 404 618 L 403 619 L 403 621 L 401 623 L 401 624 L 400 625 L 400 626 L 399 627 L 399 629 L 398 630 L 398 631 L 399 632 L 399 635 L 400 636 L 400 638 L 401 639 L 401 645 L 400 646 L 400 648 L 399 649 L 399 650 L 398 651 L 398 653 L 394 657 L 392 657 L 391 656 L 390 656 L 388 654 L 387 654 L 378 645 L 378 644 L 376 642 L 376 641 L 370 635 L 370 634 L 368 632 L 368 629 L 367 628 L 368 627 L 368 612 L 371 609 L 375 609 "></path>
        <path fill="none" stroke="#00fafa" stroke-width="3" d="M 380 125 L 381 124 L 384 124 L 385 125 L 386 125 L 389 128 L 389 129 L 395 135 L 396 135 L 397 136 L 403 136 L 404 135 L 412 135 L 415 138 L 415 139 L 414 140 L 414 141 L 409 146 L 408 146 L 407 147 L 399 147 L 398 146 L 389 146 L 386 149 L 386 150 L 385 151 L 385 157 L 386 158 L 386 166 L 385 167 L 385 168 L 383 170 L 383 171 L 374 180 L 371 180 L 369 178 L 369 172 L 370 171 L 370 170 L 371 169 L 371 168 L 372 167 L 372 166 L 373 165 L 373 164 L 374 163 L 374 157 L 373 156 L 373 155 L 370 152 L 369 152 L 364 147 L 364 146 L 363 145 L 363 144 L 364 143 L 364 141 L 376 129 L 376 128 L 379 125 L 380 125 L 381 124 "></path>
        <path fill="none" stroke="#00fafa" stroke-width="3" d="M 742 212 L 743 211 L 746 211 L 747 212 L 748 212 L 749 213 L 749 214 L 750 215 L 750 216 L 751 217 L 751 218 L 752 219 L 752 221 L 754 223 L 754 224 L 755 224 L 756 225 L 762 225 L 763 224 L 764 224 L 765 223 L 766 223 L 767 222 L 768 222 L 769 221 L 770 221 L 771 220 L 772 220 L 773 219 L 776 219 L 779 222 L 778 223 L 778 224 L 777 225 L 777 226 L 768 235 L 767 235 L 766 236 L 758 236 L 757 235 L 753 235 L 752 234 L 751 234 L 750 235 L 748 235 L 747 236 L 746 236 L 746 237 L 745 238 L 745 239 L 744 240 L 744 245 L 745 246 L 745 256 L 740 261 L 739 261 L 738 262 L 731 262 L 730 261 L 729 261 L 728 260 L 728 257 L 730 255 L 730 254 L 734 250 L 734 249 L 735 248 L 735 244 L 734 243 L 734 242 L 731 239 L 730 239 L 728 237 L 727 237 L 725 235 L 725 234 L 724 233 L 724 230 L 726 228 L 726 227 L 730 223 L 731 223 L 734 220 L 734 219 L 741 212 L 742 212 L 743 211 "></path>
        <path fill="none" stroke="#00fafa" stroke-width="3" d="M 487 156 L 488 155 L 489 155 L 490 156 L 492 156 L 506 170 L 506 171 L 507 172 L 507 173 L 508 174 L 508 176 L 507 177 L 507 178 L 504 181 L 503 181 L 502 182 L 501 182 L 500 183 L 499 183 L 496 186 L 496 187 L 495 188 L 495 193 L 496 194 L 496 196 L 497 197 L 497 198 L 498 199 L 498 200 L 499 201 L 499 202 L 500 203 L 500 208 L 498 210 L 495 210 L 484 199 L 484 198 L 483 197 L 483 192 L 484 191 L 484 189 L 485 188 L 485 186 L 486 185 L 486 183 L 487 182 L 487 179 L 486 178 L 486 176 L 484 174 L 482 174 L 481 173 L 477 173 L 476 174 L 474 174 L 473 175 L 470 175 L 469 176 L 465 176 L 461 172 L 461 159 L 462 158 L 463 158 L 464 157 L 465 157 L 466 158 L 467 158 L 469 160 L 470 160 L 471 161 L 472 161 L 473 162 L 478 162 L 479 161 L 480 161 L 484 157 L 485 157 L 486 156 L 487 156 L 488 155 "></path>
        <path fill="none" stroke="#00fafa" stroke-width="3" d="M 643 245 L 645 245 L 646 246 L 647 246 L 648 247 L 649 247 L 650 248 L 658 248 L 659 247 L 660 247 L 661 246 L 667 246 L 672 251 L 672 252 L 674 254 L 674 255 L 677 258 L 678 258 L 680 260 L 681 260 L 685 264 L 685 265 L 686 266 L 686 274 L 685 275 L 685 282 L 686 283 L 685 284 L 685 286 L 682 289 L 668 289 L 667 288 L 666 288 L 665 287 L 665 286 L 664 285 L 664 283 L 665 282 L 665 280 L 667 278 L 667 277 L 668 276 L 668 274 L 669 273 L 669 267 L 668 266 L 668 265 L 666 263 L 665 263 L 664 262 L 663 262 L 662 261 L 656 261 L 655 262 L 653 262 L 652 263 L 650 263 L 649 264 L 645 264 L 642 261 L 642 260 L 641 259 L 641 251 L 640 250 L 641 249 L 641 247 L 643 245 L 645 245 "></path>
        <path fill="none" stroke="#00fafa" stroke-width="3" d="M 308 687 L 309 686 L 312 686 L 313 687 L 316 687 L 317 688 L 318 688 L 322 692 L 322 693 L 327 698 L 333 698 L 341 690 L 342 690 L 344 688 L 346 688 L 347 687 L 356 687 L 357 688 L 359 688 L 362 691 L 362 692 L 363 693 L 363 695 L 362 696 L 362 697 L 359 700 L 353 700 L 352 699 L 347 699 L 346 700 L 344 700 L 342 702 L 341 702 L 341 703 L 339 705 L 339 708 L 338 709 L 338 715 L 337 716 L 337 717 L 334 720 L 333 720 L 332 721 L 327 721 L 326 720 L 325 720 L 324 719 L 323 719 L 322 718 L 322 717 L 321 716 L 321 706 L 320 705 L 320 704 L 319 703 L 319 702 L 317 700 L 316 700 L 315 699 L 305 699 L 304 700 L 302 700 L 301 699 L 300 699 L 298 697 L 298 691 L 301 688 L 302 688 L 303 687 L 308 687 L 309 686 "></path>
        <path fill="none" stroke="#00fafa" stroke-width="3" d="M 223 243 L 225 243 L 233 251 L 233 252 L 234 253 L 234 254 L 235 255 L 235 257 L 236 258 L 236 263 L 237 264 L 237 265 L 238 266 L 238 267 L 239 268 L 240 268 L 241 269 L 242 269 L 243 270 L 252 270 L 253 271 L 256 271 L 258 273 L 259 273 L 261 275 L 261 276 L 262 277 L 262 281 L 259 284 L 254 284 L 253 283 L 252 283 L 251 282 L 250 282 L 248 280 L 247 280 L 246 279 L 244 279 L 243 278 L 241 278 L 240 277 L 235 277 L 234 278 L 232 278 L 230 280 L 229 280 L 227 282 L 227 283 L 222 288 L 221 288 L 220 289 L 219 289 L 218 290 L 216 290 L 213 287 L 213 286 L 212 285 L 212 279 L 211 278 L 211 272 L 212 271 L 212 270 L 215 267 L 216 267 L 217 266 L 218 266 L 219 265 L 220 265 L 223 262 L 223 254 L 222 253 L 222 251 L 221 250 L 221 245 L 223 243 L 225 243 "></path>
        <path fill="none" stroke="#00fafa" stroke-width="3" d="M 233 446 L 234 446 L 235 447 L 237 447 L 242 452 L 242 453 L 243 454 L 243 461 L 242 462 L 242 463 L 241 464 L 241 465 L 233 473 L 233 474 L 231 476 L 231 477 L 230 478 L 230 481 L 231 482 L 231 483 L 232 484 L 232 485 L 233 485 L 236 488 L 237 488 L 239 490 L 240 490 L 243 493 L 243 494 L 244 495 L 244 501 L 243 502 L 243 507 L 242 508 L 242 509 L 241 510 L 241 511 L 240 512 L 239 512 L 238 513 L 234 513 L 233 512 L 232 512 L 231 511 L 231 510 L 230 509 L 230 504 L 231 503 L 231 498 L 230 497 L 230 495 L 226 491 L 225 491 L 224 490 L 223 490 L 222 489 L 219 489 L 218 488 L 215 488 L 211 484 L 211 483 L 210 482 L 210 478 L 211 477 L 211 476 L 212 475 L 212 474 L 213 473 L 214 473 L 215 472 L 217 472 L 218 471 L 221 471 L 222 470 L 223 470 L 224 469 L 225 469 L 229 465 L 229 464 L 230 463 L 230 449 L 233 446 L 234 446 "></path>
        <path fill="none" stroke="#00fafa" stroke-width="3" d="M 500 246 L 501 245 L 507 245 L 508 246 L 509 246 L 510 247 L 511 247 L 512 248 L 520 248 L 521 247 L 525 247 L 528 250 L 528 261 L 527 262 L 527 263 L 525 265 L 518 265 L 517 264 L 516 264 L 515 263 L 514 263 L 513 262 L 512 262 L 511 261 L 510 261 L 509 260 L 507 260 L 506 261 L 505 261 L 504 262 L 503 262 L 503 263 L 502 264 L 502 268 L 503 269 L 503 270 L 505 272 L 505 273 L 506 274 L 506 275 L 507 276 L 507 280 L 504 283 L 498 283 L 497 282 L 496 282 L 492 278 L 492 277 L 490 275 L 490 274 L 489 273 L 489 271 L 488 270 L 488 269 L 487 268 L 487 267 L 486 266 L 486 265 L 485 264 L 485 263 L 484 262 L 484 259 L 485 258 L 485 257 L 490 252 L 491 252 L 493 250 L 494 250 L 496 248 L 497 248 L 499 246 L 500 246 L 501 245 "></path>
        <path fill="none" stroke="#00fafa" stroke-width="3" d="M 238 306 L 239 305 L 242 305 L 245 308 L 245 315 L 244 316 L 244 317 L 242 319 L 241 319 L 240 320 L 239 320 L 238 321 L 237 321 L 236 322 L 235 322 L 233 324 L 232 324 L 231 325 L 231 326 L 230 327 L 230 329 L 229 330 L 229 331 L 230 332 L 230 334 L 231 335 L 231 336 L 234 339 L 235 339 L 242 346 L 242 347 L 243 348 L 243 350 L 244 351 L 244 355 L 243 356 L 243 357 L 238 362 L 236 362 L 235 363 L 233 363 L 230 360 L 230 351 L 229 350 L 229 348 L 225 344 L 224 344 L 223 343 L 221 343 L 220 342 L 219 342 L 218 341 L 216 341 L 213 338 L 213 336 L 212 335 L 212 334 L 213 333 L 213 332 L 214 331 L 214 330 L 220 324 L 220 323 L 221 322 L 221 321 L 222 320 L 222 319 L 223 318 L 223 317 L 224 316 L 224 315 L 228 311 L 229 311 L 230 310 L 231 310 L 232 309 L 233 309 L 235 307 L 236 307 L 237 306 L 238 306 L 239 305 "></path>
        <path fill="none" stroke="#00fafa" stroke-width="3" d="M 326 633 L 327 632 L 334 632 L 335 633 L 336 633 L 340 637 L 340 639 L 341 640 L 341 641 L 342 642 L 342 643 L 343 644 L 343 645 L 344 646 L 344 647 L 346 649 L 347 649 L 350 652 L 351 652 L 356 657 L 356 661 L 353 664 L 345 664 L 340 659 L 340 658 L 339 657 L 339 656 L 337 654 L 337 653 L 334 650 L 333 650 L 332 649 L 329 649 L 328 650 L 327 650 L 322 655 L 322 656 L 316 662 L 315 662 L 314 663 L 303 663 L 302 662 L 301 662 L 298 659 L 298 653 L 299 652 L 299 651 L 300 650 L 302 650 L 303 649 L 304 649 L 305 650 L 312 650 L 313 649 L 314 649 L 315 648 L 316 648 L 319 645 L 319 644 L 320 643 L 320 642 L 321 641 L 321 639 L 322 638 L 322 637 L 323 636 L 323 635 L 325 633 L 326 633 L 327 632 "></path>
        <path fill="none" stroke="#00fafa" stroke-width="3" d="M 304 425 L 305 424 L 306 424 L 309 427 L 309 429 L 310 430 L 310 432 L 311 433 L 311 436 L 312 437 L 312 456 L 313 457 L 313 459 L 314 460 L 314 461 L 315 462 L 315 463 L 316 464 L 316 465 L 320 469 L 320 470 L 322 472 L 322 477 L 319 480 L 317 480 L 316 479 L 315 479 L 306 470 L 306 469 L 304 467 L 304 466 L 303 465 L 303 448 L 302 447 L 302 446 L 300 444 L 299 444 L 298 443 L 294 443 L 293 444 L 283 444 L 279 440 L 279 439 L 278 438 L 278 433 L 281 430 L 284 430 L 285 431 L 286 431 L 287 432 L 288 432 L 289 433 L 296 433 L 301 428 L 301 427 L 303 425 L 304 425 L 305 424 "></path>
        <path fill="none" stroke="#00fafa" stroke-width="3" d="M 718 308 L 719 307 L 724 307 L 726 309 L 727 309 L 728 310 L 728 311 L 730 313 L 730 314 L 731 315 L 731 316 L 732 317 L 732 318 L 742 328 L 742 332 L 741 333 L 741 334 L 739 336 L 739 337 L 738 338 L 738 339 L 737 340 L 737 341 L 736 342 L 736 343 L 735 344 L 735 345 L 732 348 L 727 348 L 725 346 L 725 345 L 724 344 L 724 342 L 725 341 L 725 339 L 726 338 L 726 336 L 727 335 L 727 326 L 723 322 L 716 322 L 715 323 L 713 323 L 712 324 L 711 324 L 710 325 L 709 325 L 708 326 L 704 326 L 701 323 L 701 310 L 703 308 L 708 308 L 709 309 L 715 309 L 716 308 L 718 308 L 719 307 "></path>
        <path fill="none" stroke="#00fafa" stroke-width="3" d="M 275 303 L 276 302 L 277 302 L 278 303 L 280 303 L 282 305 L 282 306 L 283 307 L 283 308 L 282 309 L 282 315 L 283 316 L 283 317 L 287 321 L 288 321 L 289 322 L 291 322 L 294 325 L 294 326 L 295 327 L 295 330 L 294 331 L 294 333 L 293 334 L 293 335 L 292 336 L 292 337 L 291 338 L 291 339 L 290 340 L 290 341 L 289 342 L 289 343 L 283 349 L 282 349 L 281 350 L 280 350 L 279 351 L 278 351 L 277 352 L 276 352 L 275 353 L 274 353 L 273 354 L 269 354 L 266 351 L 266 349 L 265 348 L 265 346 L 266 345 L 266 343 L 268 341 L 269 341 L 270 340 L 271 340 L 272 339 L 273 339 L 274 338 L 276 338 L 277 337 L 278 337 L 279 336 L 279 335 L 280 334 L 280 332 L 281 331 L 280 330 L 280 328 L 278 326 L 278 325 L 268 315 L 268 313 L 267 312 L 267 308 L 268 307 L 268 306 L 270 304 L 271 304 L 272 303 L 275 303 L 276 302 "></path>
        <path fill="none" stroke="#00fafa" stroke-width="3" d="M 422 657 L 428 657 L 429 658 L 431 658 L 432 659 L 433 659 L 435 661 L 436 661 L 439 664 L 440 664 L 444 668 L 445 668 L 446 669 L 447 669 L 448 670 L 453 670 L 454 669 L 455 669 L 458 666 L 458 665 L 464 659 L 465 659 L 466 658 L 471 658 L 473 660 L 473 664 L 472 665 L 472 666 L 471 667 L 471 668 L 470 669 L 470 670 L 468 672 L 468 673 L 464 677 L 463 677 L 462 678 L 460 678 L 459 679 L 458 679 L 457 680 L 456 680 L 453 683 L 452 683 L 449 686 L 448 686 L 447 687 L 444 687 L 442 685 L 442 684 L 441 683 L 441 681 L 440 680 L 440 678 L 439 677 L 439 676 L 435 672 L 434 672 L 433 671 L 421 671 L 420 670 L 419 670 L 417 668 L 417 664 L 418 663 L 418 661 L 422 657 L 428 657 "></path>
        <path fill="none" stroke="#00fafa" stroke-width="3" d="M 382 401 L 383 400 L 385 400 L 386 401 L 387 401 L 389 403 L 389 405 L 385 409 L 384 409 L 382 411 L 381 411 L 376 416 L 376 417 L 371 422 L 369 422 L 368 421 L 367 421 L 364 418 L 364 417 L 361 414 L 360 414 L 359 413 L 352 413 L 351 414 L 350 414 L 340 424 L 339 424 L 338 425 L 334 425 L 330 421 L 330 420 L 329 419 L 329 417 L 328 416 L 328 414 L 329 413 L 329 412 L 330 411 L 331 411 L 332 410 L 333 410 L 334 409 L 337 409 L 338 408 L 339 408 L 340 407 L 341 407 L 343 405 L 344 405 L 345 404 L 346 404 L 347 403 L 348 403 L 349 402 L 354 402 L 355 403 L 358 403 L 359 404 L 362 404 L 363 405 L 371 405 L 372 404 L 374 404 L 375 403 L 376 403 L 377 402 L 378 402 L 379 401 L 382 401 L 383 400 "></path>
        <path fill="none" stroke="#00fafa" stroke-width="3" d="M 337 357 L 338 356 L 344 356 L 345 357 L 346 357 L 349 360 L 349 361 L 351 363 L 351 364 L 352 365 L 353 365 L 355 367 L 358 367 L 359 368 L 361 368 L 362 367 L 365 367 L 366 366 L 367 366 L 376 357 L 378 357 L 379 356 L 380 357 L 381 357 L 383 359 L 383 362 L 382 363 L 382 365 L 381 366 L 381 369 L 380 370 L 380 373 L 379 374 L 379 375 L 376 378 L 370 378 L 369 377 L 364 377 L 363 376 L 359 376 L 358 377 L 351 377 L 350 378 L 349 378 L 348 377 L 345 377 L 344 376 L 343 376 L 340 373 L 339 373 L 338 372 L 337 372 L 336 371 L 334 371 L 333 370 L 332 370 L 328 366 L 328 362 L 329 361 L 329 360 L 331 358 L 332 358 L 333 357 L 337 357 L 338 356 "></path>
        <path fill="none" stroke="#00fafa" stroke-width="3" d="M 447 195 L 453 195 L 455 197 L 455 198 L 456 199 L 456 203 L 455 204 L 455 206 L 454 207 L 454 209 L 453 210 L 453 213 L 454 214 L 454 215 L 456 217 L 466 217 L 467 218 L 470 218 L 471 219 L 472 219 L 473 220 L 474 220 L 479 225 L 479 227 L 477 229 L 469 229 L 468 228 L 466 228 L 465 229 L 463 229 L 462 230 L 461 230 L 457 234 L 454 234 L 453 233 L 452 233 L 451 232 L 451 231 L 446 226 L 445 226 L 444 225 L 437 225 L 436 224 L 434 224 L 431 221 L 431 217 L 433 215 L 434 215 L 435 214 L 441 214 L 442 213 L 443 213 L 444 212 L 444 211 L 445 210 L 445 205 L 444 204 L 444 199 L 445 198 L 445 197 L 447 195 L 453 195 "></path>
        <path fill="none" stroke="#00fafa" stroke-width="3" d="M 413 340 L 415 340 L 418 343 L 418 352 L 417 353 L 417 357 L 416 358 L 416 364 L 419 367 L 426 367 L 427 366 L 431 366 L 432 365 L 434 365 L 435 366 L 436 366 L 439 369 L 439 370 L 440 371 L 440 376 L 441 377 L 441 381 L 440 382 L 440 383 L 439 384 L 435 384 L 429 378 L 428 378 L 427 377 L 426 377 L 425 376 L 421 376 L 420 377 L 419 377 L 418 378 L 417 378 L 410 385 L 409 385 L 408 386 L 407 386 L 406 385 L 405 385 L 402 382 L 402 378 L 403 377 L 403 376 L 404 375 L 404 374 L 405 373 L 405 372 L 406 371 L 406 370 L 407 369 L 407 365 L 408 364 L 408 360 L 407 359 L 407 355 L 408 354 L 408 347 L 409 346 L 409 344 L 413 340 L 415 340 "></path>
        <path fill="none" stroke="#00fafa" stroke-width="3" d="M 672 461 L 674 461 L 675 462 L 676 462 L 677 463 L 678 463 L 680 465 L 681 465 L 682 466 L 683 466 L 684 467 L 685 467 L 686 468 L 689 468 L 690 469 L 707 469 L 708 470 L 709 470 L 713 474 L 713 477 L 712 478 L 712 479 L 708 483 L 708 489 L 709 490 L 709 491 L 712 494 L 712 495 L 713 496 L 713 499 L 712 500 L 711 500 L 710 501 L 708 501 L 707 500 L 699 500 L 698 499 L 697 499 L 695 497 L 695 496 L 694 495 L 694 493 L 695 492 L 695 490 L 696 489 L 696 487 L 697 486 L 697 481 L 696 480 L 696 479 L 695 479 L 694 478 L 693 478 L 692 477 L 685 477 L 684 476 L 676 476 L 675 475 L 674 475 L 671 472 L 671 471 L 670 470 L 670 463 L 672 461 L 674 461 "></path>
        <path fill="none" stroke="#00fafa" stroke-width="3" d="M 434 153 L 435 152 L 438 152 L 439 153 L 439 160 L 438 161 L 438 167 L 437 168 L 437 172 L 436 173 L 436 174 L 434 176 L 433 176 L 432 177 L 431 177 L 430 178 L 429 178 L 428 179 L 427 179 L 426 180 L 425 180 L 420 185 L 420 186 L 419 187 L 419 189 L 418 190 L 418 194 L 417 195 L 417 197 L 416 198 L 416 199 L 415 200 L 414 200 L 413 201 L 408 201 L 407 200 L 405 200 L 404 199 L 403 199 L 402 198 L 401 198 L 400 197 L 399 197 L 396 194 L 396 191 L 400 187 L 401 187 L 402 186 L 403 186 L 404 185 L 405 185 L 407 183 L 408 183 L 409 182 L 410 182 L 421 171 L 421 170 L 424 167 L 424 166 L 426 164 L 426 163 L 428 161 L 428 160 L 429 159 L 429 158 L 432 155 L 432 154 L 433 153 L 434 153 L 435 152 "></path>
        <path fill="none" stroke="#00fafa" stroke-width="3" d="M 517 580 L 518 579 L 519 580 L 521 580 L 525 584 L 525 586 L 526 587 L 526 591 L 527 592 L 527 594 L 528 595 L 528 596 L 529 597 L 529 598 L 531 600 L 531 601 L 534 604 L 534 605 L 535 606 L 535 612 L 534 613 L 534 614 L 532 616 L 530 616 L 529 617 L 527 617 L 526 616 L 523 616 L 522 615 L 519 615 L 518 614 L 511 614 L 510 615 L 508 615 L 507 616 L 506 616 L 505 617 L 504 617 L 503 618 L 499 618 L 496 615 L 496 613 L 495 612 L 495 609 L 496 608 L 496 607 L 499 604 L 509 604 L 510 605 L 512 605 L 513 606 L 516 606 L 517 605 L 518 605 L 519 604 L 519 602 L 520 601 L 520 600 L 519 599 L 519 598 L 518 597 L 518 596 L 515 593 L 515 592 L 514 591 L 514 589 L 513 588 L 513 582 L 515 580 L 517 580 L 518 579 "></path>
        <path fill="none" stroke="#00fafa" stroke-width="3" d="M 386 518 L 387 517 L 389 517 L 390 518 L 392 518 L 394 520 L 395 520 L 397 522 L 398 522 L 401 525 L 402 525 L 407 530 L 407 532 L 408 533 L 408 542 L 405 545 L 402 545 L 398 541 L 398 540 L 397 539 L 397 537 L 396 536 L 396 534 L 395 533 L 395 532 L 392 529 L 388 529 L 387 530 L 386 530 L 381 535 L 381 536 L 375 542 L 374 542 L 373 543 L 369 543 L 368 544 L 365 544 L 364 543 L 361 543 L 360 542 L 359 542 L 357 540 L 357 533 L 360 530 L 370 530 L 371 529 L 373 529 L 375 527 L 376 527 L 378 525 L 378 524 L 383 519 L 384 519 L 385 518 L 386 518 L 387 517 "></path>
        <path fill="none" stroke="#00fafa" stroke-width="3" d="M 701 523 L 702 522 L 704 522 L 705 523 L 709 523 L 713 527 L 713 529 L 714 530 L 714 539 L 713 540 L 713 541 L 712 542 L 712 543 L 711 544 L 711 545 L 710 546 L 710 547 L 709 548 L 709 553 L 708 554 L 708 558 L 705 561 L 702 561 L 701 560 L 700 560 L 698 558 L 698 557 L 697 556 L 697 555 L 696 554 L 696 552 L 695 551 L 695 549 L 694 548 L 694 547 L 693 546 L 692 546 L 691 545 L 690 545 L 688 543 L 687 543 L 685 541 L 685 537 L 693 529 L 693 528 L 698 523 L 701 523 L 702 522 "></path>
        <path fill="none" stroke="#00fafa" stroke-width="3" d="M 794 296 L 795 295 L 799 295 L 800 296 L 801 296 L 803 298 L 803 302 L 802 303 L 802 305 L 801 306 L 801 307 L 800 308 L 800 313 L 799 314 L 799 316 L 796 319 L 793 319 L 792 318 L 789 318 L 788 317 L 774 317 L 773 318 L 767 318 L 765 316 L 764 316 L 763 315 L 763 314 L 761 312 L 761 311 L 756 306 L 755 306 L 752 303 L 752 302 L 751 301 L 751 300 L 752 299 L 752 298 L 753 297 L 754 297 L 755 296 L 761 296 L 762 297 L 763 297 L 767 301 L 767 302 L 770 305 L 771 305 L 773 307 L 775 307 L 776 308 L 783 308 L 784 307 L 785 307 L 789 303 L 789 301 L 790 300 L 790 299 L 793 296 L 794 296 L 795 295 "></path>
        <path fill="none" stroke="#00fafa" stroke-width="3" d="M 766 343 L 767 342 L 773 342 L 774 343 L 784 343 L 785 344 L 801 344 L 802 345 L 803 345 L 805 347 L 805 348 L 806 349 L 806 356 L 805 357 L 805 359 L 802 362 L 801 362 L 800 363 L 796 363 L 795 362 L 794 362 L 793 361 L 792 361 L 790 359 L 790 358 L 786 354 L 785 354 L 784 353 L 781 353 L 780 352 L 778 352 L 777 353 L 775 353 L 774 354 L 773 354 L 771 356 L 770 356 L 770 357 L 765 362 L 764 362 L 763 363 L 758 363 L 755 360 L 755 356 L 758 353 L 758 352 L 761 349 L 761 348 L 762 347 L 762 346 L 765 343 L 766 343 L 767 342 "></path>
        <path fill="none" stroke="#00fafa" stroke-width="3" d="M 584 246 L 585 245 L 588 245 L 590 247 L 590 251 L 589 252 L 589 255 L 588 256 L 588 259 L 587 260 L 587 261 L 586 262 L 586 263 L 585 264 L 585 265 L 583 267 L 582 267 L 580 269 L 567 269 L 566 270 L 558 270 L 557 269 L 556 269 L 552 265 L 552 264 L 551 263 L 551 259 L 550 258 L 550 249 L 552 247 L 555 247 L 557 249 L 558 249 L 561 252 L 562 252 L 563 253 L 564 253 L 565 254 L 571 254 L 572 253 L 574 253 L 576 251 L 577 251 L 579 249 L 580 249 L 583 246 L 584 246 L 585 245 "></path>
        <path fill="none" stroke="#00fafa" stroke-width="3" d="M 382 218 L 383 217 L 385 217 L 386 218 L 387 218 L 388 219 L 389 219 L 391 221 L 392 221 L 394 223 L 395 223 L 396 224 L 398 224 L 399 225 L 405 225 L 406 226 L 407 226 L 410 229 L 410 230 L 411 231 L 411 232 L 410 233 L 410 235 L 408 237 L 408 238 L 407 239 L 406 239 L 404 241 L 401 241 L 399 239 L 398 239 L 397 238 L 397 237 L 391 231 L 384 231 L 382 233 L 381 233 L 374 240 L 373 240 L 372 241 L 369 241 L 368 242 L 365 242 L 364 241 L 362 241 L 361 240 L 360 240 L 359 239 L 359 238 L 358 237 L 358 235 L 357 234 L 357 231 L 358 230 L 358 229 L 359 228 L 372 228 L 373 227 L 374 227 L 378 223 L 378 222 L 379 221 L 379 220 L 381 218 L 382 218 L 383 217 "></path>
        <path fill="none" stroke="#00fafa" stroke-width="3" d="M 364 568 L 365 567 L 374 567 L 375 568 L 376 568 L 384 576 L 385 576 L 386 577 L 392 577 L 397 572 L 397 571 L 400 568 L 401 568 L 402 567 L 405 567 L 408 570 L 408 576 L 407 577 L 407 579 L 406 580 L 406 581 L 400 587 L 388 587 L 387 586 L 382 586 L 381 585 L 377 585 L 376 584 L 374 584 L 373 583 L 370 583 L 369 582 L 365 582 L 364 581 L 362 581 L 359 578 L 359 577 L 358 576 L 358 573 L 359 572 L 359 571 L 362 568 L 364 568 L 365 567 "></path>
        <path fill="none" stroke="#00fafa" stroke-width="3" d="M 428 249 L 433 249 L 434 250 L 435 250 L 437 252 L 438 252 L 441 255 L 442 255 L 446 259 L 446 263 L 441 268 L 440 268 L 436 272 L 436 274 L 435 275 L 435 286 L 430 291 L 427 291 L 426 290 L 425 290 L 421 286 L 421 285 L 420 284 L 420 280 L 421 279 L 421 277 L 422 276 L 422 275 L 423 274 L 423 272 L 424 271 L 424 269 L 423 268 L 423 265 L 422 264 L 422 261 L 421 260 L 421 259 L 422 258 L 422 256 L 423 255 L 423 254 L 428 249 L 433 249 "></path>
        <path fill="none" stroke="#00fafa" stroke-width="3" d="M 268 465 L 273 465 L 274 466 L 275 466 L 277 468 L 277 470 L 278 471 L 278 476 L 279 477 L 279 479 L 280 480 L 280 481 L 284 485 L 285 485 L 286 486 L 287 486 L 288 487 L 290 487 L 292 489 L 293 489 L 298 494 L 298 495 L 296 497 L 295 497 L 294 498 L 293 497 L 289 497 L 288 496 L 287 496 L 286 495 L 280 495 L 278 497 L 278 500 L 277 501 L 278 502 L 278 511 L 275 514 L 274 514 L 273 515 L 272 515 L 271 514 L 270 514 L 267 511 L 267 508 L 266 507 L 266 505 L 267 504 L 267 501 L 268 500 L 268 499 L 269 498 L 269 497 L 270 496 L 270 495 L 271 494 L 271 493 L 272 492 L 272 491 L 273 490 L 273 486 L 272 485 L 272 484 L 271 483 L 271 482 L 264 475 L 264 470 L 265 469 L 265 468 L 268 465 L 273 465 "></path>
        <path fill="none" stroke="#00fafa" stroke-width="3" d="M 794 240 L 795 239 L 797 239 L 798 240 L 798 242 L 799 243 L 798 244 L 798 247 L 797 248 L 797 250 L 796 251 L 796 252 L 794 254 L 794 255 L 793 256 L 793 260 L 796 263 L 803 263 L 804 262 L 810 262 L 811 263 L 812 263 L 813 264 L 813 267 L 812 268 L 812 269 L 811 270 L 811 271 L 809 273 L 808 273 L 807 274 L 803 274 L 802 273 L 800 273 L 799 272 L 798 272 L 797 271 L 796 271 L 795 270 L 794 270 L 793 269 L 791 269 L 790 268 L 785 268 L 784 269 L 783 269 L 777 275 L 776 275 L 775 276 L 772 276 L 771 275 L 769 275 L 766 272 L 766 271 L 765 270 L 766 269 L 766 267 L 767 266 L 767 265 L 768 264 L 769 264 L 770 263 L 771 263 L 772 262 L 777 262 L 778 261 L 780 261 L 784 257 L 784 256 L 785 255 L 785 254 L 786 253 L 786 251 L 787 250 L 787 249 L 788 248 L 788 247 L 789 246 L 789 245 L 791 243 L 791 242 L 793 240 L 794 240 L 795 239 "></path>
        <path fill="none" stroke="#00fafa" stroke-width="3" d="M 456 403 L 457 402 L 463 402 L 464 403 L 465 403 L 466 404 L 467 404 L 468 405 L 470 405 L 471 406 L 474 406 L 475 407 L 483 407 L 484 408 L 486 408 L 487 409 L 488 409 L 491 412 L 491 413 L 492 414 L 492 415 L 488 419 L 483 419 L 479 415 L 478 415 L 477 414 L 474 414 L 473 415 L 472 415 L 471 416 L 471 421 L 474 424 L 475 424 L 477 426 L 477 427 L 478 428 L 478 429 L 477 430 L 477 431 L 475 433 L 474 433 L 473 434 L 470 434 L 469 433 L 467 433 L 466 432 L 465 432 L 461 428 L 461 427 L 460 426 L 460 423 L 459 422 L 459 419 L 458 418 L 458 415 L 457 414 L 457 412 L 456 411 L 456 410 L 455 409 L 455 405 L 456 404 L 456 403 L 457 402 "></path>
        <path fill="none" stroke="#00fafa" stroke-width="3" d="M 567 554 L 568 553 L 569 554 L 570 554 L 573 557 L 573 563 L 572 564 L 572 565 L 571 566 L 571 567 L 569 569 L 569 570 L 568 571 L 568 572 L 567 573 L 567 574 L 566 575 L 566 576 L 565 577 L 565 582 L 566 583 L 566 584 L 569 587 L 569 588 L 572 591 L 572 592 L 573 593 L 573 598 L 572 599 L 572 600 L 567 605 L 564 605 L 562 603 L 562 602 L 561 601 L 561 596 L 560 595 L 560 593 L 559 592 L 559 591 L 556 588 L 555 588 L 550 583 L 550 579 L 554 575 L 555 575 L 559 571 L 559 570 L 560 569 L 560 567 L 561 566 L 561 564 L 562 563 L 562 560 L 563 559 L 563 558 L 564 557 L 564 556 L 566 554 L 567 554 L 568 553 "></path>
        <path fill="none" stroke="#00fafa" stroke-width="3" d="M 668 312 L 669 311 L 674 311 L 675 312 L 676 312 L 678 314 L 678 315 L 679 316 L 679 321 L 678 322 L 678 323 L 674 327 L 673 327 L 672 328 L 670 328 L 669 329 L 668 329 L 667 330 L 666 330 L 663 333 L 662 333 L 662 334 L 658 338 L 658 339 L 657 340 L 657 342 L 656 343 L 656 344 L 655 345 L 655 346 L 651 350 L 647 350 L 646 349 L 645 349 L 641 345 L 641 343 L 640 342 L 640 340 L 641 339 L 641 338 L 644 335 L 645 335 L 646 334 L 647 334 L 648 333 L 649 333 L 650 332 L 651 332 L 652 331 L 653 331 L 660 324 L 660 323 L 661 322 L 661 321 L 662 320 L 662 318 L 663 317 L 663 315 L 666 312 L 668 312 L 669 311 "></path>
        <path fill="none" stroke="#00fafa" stroke-width="3" d="M 344 309 L 349 309 L 350 310 L 351 310 L 353 312 L 353 313 L 355 315 L 355 316 L 356 317 L 356 318 L 361 323 L 362 323 L 363 324 L 365 324 L 366 325 L 368 325 L 369 326 L 371 326 L 375 330 L 375 332 L 372 335 L 371 335 L 370 336 L 364 336 L 363 335 L 362 335 L 358 331 L 357 331 L 355 329 L 354 329 L 353 328 L 348 328 L 347 329 L 345 329 L 344 330 L 343 330 L 341 332 L 339 332 L 338 333 L 331 333 L 330 332 L 329 332 L 328 331 L 328 330 L 327 329 L 327 327 L 331 323 L 339 323 L 340 322 L 341 322 L 342 321 L 342 320 L 343 319 L 343 316 L 342 315 L 342 311 L 344 309 L 349 309 "></path>
        <path fill="none" stroke="#00fafa" stroke-width="3" d="M 355 445 L 356 444 L 361 444 L 363 446 L 363 450 L 362 451 L 362 452 L 361 453 L 361 454 L 360 455 L 360 457 L 359 458 L 359 461 L 360 462 L 360 464 L 361 465 L 361 466 L 362 467 L 362 468 L 363 469 L 363 472 L 364 473 L 364 474 L 363 475 L 363 477 L 362 478 L 362 479 L 360 481 L 359 481 L 357 483 L 356 483 L 355 484 L 351 484 L 349 482 L 349 478 L 350 477 L 350 475 L 351 474 L 351 471 L 352 470 L 352 467 L 351 466 L 351 464 L 348 461 L 347 461 L 345 459 L 344 459 L 343 458 L 342 458 L 337 453 L 337 450 L 339 448 L 340 448 L 341 447 L 350 447 L 351 446 L 353 446 L 354 445 L 355 445 L 356 444 "></path>
        <path fill="none" stroke="#00fafa" stroke-width="3" d="M 679 596 L 680 595 L 687 595 L 690 598 L 690 601 L 686 605 L 685 605 L 684 606 L 681 606 L 680 607 L 675 607 L 674 608 L 672 608 L 671 609 L 670 609 L 668 611 L 668 612 L 667 613 L 667 619 L 668 620 L 668 622 L 669 623 L 669 625 L 670 626 L 670 631 L 668 633 L 661 633 L 658 630 L 658 628 L 657 627 L 657 612 L 658 611 L 658 604 L 662 600 L 669 600 L 670 599 L 672 599 L 673 598 L 675 598 L 676 597 L 677 597 L 678 596 L 679 596 L 680 595 "></path>
        <path fill="none" stroke="#00fafa" stroke-width="3" d="M 770 385 L 771 384 L 775 384 L 776 385 L 777 385 L 781 389 L 782 389 L 783 390 L 784 390 L 785 391 L 789 391 L 790 390 L 791 390 L 792 389 L 793 389 L 794 388 L 795 388 L 797 386 L 798 386 L 799 385 L 801 385 L 802 384 L 807 384 L 809 386 L 809 389 L 806 392 L 805 392 L 804 393 L 803 393 L 802 394 L 801 394 L 800 395 L 799 395 L 798 396 L 797 396 L 793 400 L 793 402 L 792 403 L 792 407 L 791 408 L 791 409 L 789 411 L 786 411 L 784 409 L 784 408 L 783 407 L 783 405 L 782 404 L 782 403 L 781 402 L 781 401 L 777 397 L 776 397 L 775 396 L 774 396 L 773 395 L 772 395 L 771 394 L 770 394 L 767 391 L 767 387 L 769 385 L 770 385 L 771 384 "></path>
        <path fill="none" stroke="#00fafa" stroke-width="3" d="M 547 519 L 550 519 L 552 521 L 552 522 L 553 523 L 553 527 L 552 528 L 552 531 L 551 532 L 551 534 L 550 535 L 550 536 L 541 545 L 541 546 L 540 547 L 540 548 L 539 549 L 539 551 L 538 552 L 538 555 L 537 556 L 537 558 L 535 560 L 534 560 L 533 561 L 532 561 L 531 560 L 529 560 L 528 559 L 527 559 L 523 555 L 523 553 L 522 552 L 522 550 L 523 549 L 523 548 L 528 543 L 529 543 L 530 542 L 531 542 L 532 541 L 533 541 L 539 535 L 539 534 L 540 533 L 540 531 L 541 530 L 541 528 L 542 527 L 542 525 L 543 524 L 543 523 L 547 519 L 550 519 "></path>
        <path fill="none" stroke="#00fafa" stroke-width="3" d="M 623 598 L 624 597 L 629 597 L 632 600 L 632 606 L 631 607 L 631 611 L 630 612 L 631 613 L 631 617 L 632 618 L 632 619 L 633 620 L 633 623 L 634 624 L 634 627 L 633 628 L 633 630 L 629 634 L 627 634 L 626 633 L 625 633 L 623 631 L 623 629 L 622 628 L 622 626 L 623 625 L 623 622 L 624 621 L 624 617 L 623 616 L 623 615 L 622 615 L 621 614 L 619 614 L 618 615 L 617 615 L 614 618 L 613 618 L 612 619 L 610 619 L 608 617 L 608 613 L 609 612 L 609 611 L 610 610 L 610 609 L 613 606 L 614 606 L 622 598 L 623 598 L 624 597 "></path>
        <path fill="none" stroke="#00fafa" stroke-width="3" d="M 404 422 L 405 421 L 407 421 L 409 423 L 409 436 L 408 437 L 408 439 L 406 441 L 406 442 L 404 444 L 403 444 L 399 448 L 399 449 L 397 451 L 397 453 L 396 454 L 396 456 L 395 457 L 395 458 L 394 459 L 394 460 L 392 462 L 391 462 L 390 463 L 389 463 L 386 460 L 386 458 L 385 457 L 385 456 L 386 455 L 386 451 L 387 450 L 387 446 L 388 445 L 388 442 L 390 440 L 390 439 L 397 432 L 397 431 L 399 429 L 399 428 L 400 427 L 400 426 L 402 424 L 402 423 L 403 422 L 404 422 L 405 421 "></path>
        <path fill="none" stroke="#00fafa" stroke-width="3" d="M 429 627 L 430 626 L 434 626 L 435 627 L 442 627 L 443 628 L 455 628 L 456 627 L 462 627 L 463 626 L 474 626 L 475 627 L 476 627 L 478 629 L 478 630 L 479 631 L 479 633 L 477 635 L 476 635 L 475 636 L 469 636 L 468 635 L 462 635 L 461 636 L 457 636 L 456 637 L 451 637 L 450 638 L 447 638 L 446 637 L 441 637 L 440 636 L 435 636 L 434 635 L 429 635 L 428 634 L 427 634 L 425 632 L 425 630 L 426 629 L 426 628 L 427 627 L 429 627 L 430 626 "></path>
        <path fill="none" stroke="#00fafa" stroke-width="3" d="M 417 468 L 419 468 L 422 471 L 422 475 L 421 476 L 421 478 L 419 480 L 419 481 L 418 482 L 418 483 L 417 484 L 417 485 L 416 486 L 416 490 L 417 491 L 417 492 L 421 496 L 421 497 L 423 499 L 423 500 L 424 501 L 424 504 L 423 505 L 423 506 L 421 508 L 418 508 L 414 504 L 414 503 L 410 499 L 409 499 L 408 498 L 407 498 L 406 497 L 404 497 L 400 493 L 400 491 L 401 490 L 401 489 L 402 488 L 402 487 L 410 479 L 410 478 L 411 477 L 411 476 L 412 475 L 412 473 L 417 468 L 419 468 "></path>
        <path fill="none" stroke="#00fafa" stroke-width="3" d="M 593 440 L 597 440 L 598 441 L 600 441 L 601 442 L 602 442 L 603 443 L 604 443 L 605 444 L 607 444 L 608 445 L 609 445 L 610 446 L 611 446 L 612 447 L 613 447 L 614 448 L 614 451 L 612 453 L 609 453 L 608 454 L 606 454 L 605 453 L 601 453 L 600 454 L 599 454 L 598 455 L 597 455 L 597 456 L 596 457 L 596 458 L 595 459 L 595 463 L 594 464 L 594 465 L 593 466 L 593 467 L 590 470 L 589 470 L 588 471 L 582 471 L 581 470 L 581 465 L 583 463 L 583 462 L 584 461 L 584 460 L 585 459 L 585 458 L 586 457 L 586 456 L 587 455 L 587 452 L 588 451 L 588 446 L 589 445 L 589 444 L 593 440 L 597 440 "></path>
        <path fill="none" stroke="#00fafa" stroke-width="3" d="M 550 449 L 551 448 L 557 448 L 561 452 L 561 455 L 557 459 L 556 459 L 554 461 L 553 461 L 550 464 L 550 465 L 549 466 L 549 469 L 550 470 L 550 473 L 551 474 L 551 475 L 550 476 L 550 477 L 549 478 L 544 478 L 543 477 L 542 477 L 539 474 L 539 473 L 538 472 L 538 470 L 537 469 L 537 453 L 540 450 L 541 450 L 542 449 L 550 449 L 551 448 "></path>
        <path fill="none" stroke="#00fafa" stroke-width="3" d="M 590 493 L 596 493 L 597 494 L 598 494 L 600 496 L 600 497 L 602 499 L 602 501 L 603 502 L 603 505 L 602 506 L 602 507 L 599 510 L 588 510 L 587 511 L 585 511 L 584 512 L 582 512 L 581 513 L 577 513 L 576 512 L 575 512 L 573 510 L 573 509 L 572 508 L 572 507 L 571 506 L 571 503 L 574 500 L 577 500 L 578 499 L 581 499 L 582 498 L 583 498 L 584 497 L 585 497 L 587 495 L 588 495 L 590 493 L 596 493 "></path>
        <path fill="none" stroke="#00fafa" stroke-width="3" d="M 446 307 L 450 307 L 451 308 L 451 310 L 452 311 L 451 312 L 451 314 L 450 315 L 450 316 L 447 319 L 447 320 L 446 321 L 446 327 L 447 328 L 447 329 L 449 331 L 449 332 L 451 334 L 451 335 L 453 337 L 453 339 L 454 340 L 454 341 L 453 342 L 453 343 L 451 345 L 446 345 L 442 341 L 442 339 L 441 338 L 441 336 L 440 335 L 440 333 L 438 331 L 438 330 L 433 325 L 433 324 L 432 323 L 432 320 L 433 319 L 433 318 L 438 313 L 439 313 L 443 309 L 444 309 L 446 307 L 450 307 "></path>
        <path fill="none" stroke="#00fafa" stroke-width="3" d="M 620 416 L 621 415 L 623 415 L 624 416 L 626 416 L 628 418 L 629 418 L 630 419 L 631 419 L 632 420 L 633 420 L 634 421 L 640 421 L 641 420 L 643 420 L 644 421 L 645 421 L 646 422 L 647 422 L 648 423 L 648 424 L 649 425 L 649 427 L 650 428 L 650 432 L 651 433 L 651 436 L 648 439 L 643 439 L 642 438 L 641 438 L 640 437 L 639 437 L 633 431 L 632 431 L 630 429 L 629 429 L 628 428 L 627 428 L 626 427 L 624 427 L 623 426 L 621 426 L 620 425 L 619 425 L 616 422 L 616 419 L 619 416 L 620 416 L 621 415 "></path>
        <path fill="none" stroke="#00fafa" stroke-width="3" d="M 639 462 L 640 461 L 645 461 L 647 463 L 647 464 L 648 465 L 648 472 L 647 473 L 647 474 L 646 475 L 646 476 L 644 478 L 643 478 L 642 479 L 641 479 L 640 480 L 638 480 L 637 481 L 633 481 L 632 482 L 629 482 L 628 483 L 625 483 L 624 484 L 620 484 L 619 483 L 618 483 L 616 481 L 616 480 L 615 479 L 615 478 L 618 475 L 619 475 L 620 474 L 623 474 L 624 473 L 628 473 L 629 472 L 630 472 L 634 468 L 634 467 L 637 464 L 637 463 L 638 462 L 639 462 L 640 461 "></path>
        <path fill="none" stroke="#00fafa" stroke-width="3" d="M 381 298 L 382 297 L 385 297 L 386 298 L 391 298 L 392 299 L 398 299 L 399 300 L 401 300 L 402 301 L 403 301 L 405 303 L 406 303 L 410 307 L 410 309 L 411 310 L 411 311 L 410 312 L 410 313 L 409 314 L 409 315 L 407 317 L 406 317 L 404 319 L 400 319 L 399 318 L 398 318 L 396 316 L 396 315 L 395 314 L 395 313 L 393 311 L 393 310 L 392 309 L 391 309 L 390 308 L 388 308 L 387 307 L 384 307 L 383 306 L 381 306 L 377 302 L 377 300 L 379 298 L 381 298 L 382 297 "></path>
        <path fill="none" stroke="#00fafa" stroke-width="3" d="M 718 409 L 719 408 L 722 408 L 725 411 L 725 438 L 726 439 L 726 448 L 723 451 L 721 451 L 720 450 L 719 450 L 718 449 L 718 448 L 717 447 L 717 446 L 716 445 L 716 425 L 715 424 L 715 420 L 714 419 L 714 413 L 715 412 L 715 411 L 717 409 L 718 409 L 719 408 "></path>
        <path fill="none" stroke="#00fafa" stroke-width="3" d="M 447 451 L 450 451 L 454 455 L 454 481 L 455 482 L 455 489 L 451 493 L 448 493 L 445 490 L 445 489 L 444 488 L 444 481 L 445 480 L 445 466 L 444 465 L 444 455 L 445 454 L 445 453 L 447 451 L 450 451 "></path>
        <path fill="none" stroke="#00fafa" stroke-width="3" d="M 474 357 L 475 356 L 478 356 L 481 359 L 481 361 L 480 362 L 480 371 L 481 372 L 481 377 L 480 378 L 480 379 L 479 380 L 478 380 L 477 381 L 471 381 L 470 380 L 468 380 L 467 379 L 466 379 L 463 376 L 463 374 L 462 373 L 462 370 L 463 369 L 463 366 L 465 364 L 465 363 L 469 359 L 470 359 L 472 357 L 474 357 L 475 356 "></path>
        <path fill="none" stroke="#00fafa" stroke-width="3" d="M 522 497 L 523 496 L 527 496 L 528 497 L 529 497 L 531 499 L 531 502 L 529 504 L 528 504 L 527 505 L 526 505 L 525 506 L 523 506 L 522 507 L 521 507 L 518 510 L 518 511 L 517 512 L 517 520 L 515 522 L 515 523 L 514 524 L 513 524 L 512 525 L 509 525 L 507 523 L 507 520 L 506 519 L 507 518 L 507 508 L 508 507 L 508 503 L 513 498 L 516 498 L 517 497 L 522 497 L 523 496 "></path>
        <path fill="none" stroke="#00fafa" stroke-width="3" d="M 388 263 L 389 262 L 392 262 L 393 263 L 394 263 L 395 264 L 396 264 L 397 265 L 397 266 L 398 267 L 398 272 L 395 275 L 390 275 L 389 274 L 376 274 L 375 275 L 368 275 L 367 274 L 366 274 L 365 273 L 364 273 L 363 272 L 363 271 L 362 270 L 362 268 L 365 265 L 379 265 L 380 264 L 383 264 L 384 263 L 388 263 L 389 262 "></path>
        <path fill="none" stroke="#00fafa" stroke-width="3" d="M 680 419 L 681 418 L 686 418 L 687 419 L 688 419 L 691 422 L 691 432 L 692 433 L 692 439 L 690 441 L 685 441 L 684 440 L 683 440 L 682 439 L 681 439 L 680 438 L 679 438 L 675 434 L 675 433 L 674 432 L 674 430 L 673 429 L 673 423 L 674 422 L 674 421 L 675 420 L 676 420 L 677 419 L 680 419 L 681 418 "></path>
        <path fill="none" stroke="#00fafa" stroke-width="3" d="M 599 284 L 603 284 L 605 286 L 605 288 L 606 289 L 606 294 L 605 295 L 605 308 L 606 309 L 606 320 L 603 323 L 601 323 L 600 322 L 599 322 L 598 321 L 598 320 L 597 319 L 597 318 L 596 317 L 596 308 L 597 307 L 597 299 L 596 298 L 596 294 L 595 293 L 595 288 L 599 284 L 603 284 "></path>
        <path fill="none" stroke="#00fafa" stroke-width="3" d="M 751 411 L 752 410 L 753 411 L 754 411 L 755 412 L 756 412 L 762 418 L 762 419 L 765 422 L 765 424 L 766 425 L 765 426 L 765 428 L 763 430 L 763 431 L 760 434 L 760 435 L 758 437 L 758 438 L 755 441 L 754 441 L 753 442 L 751 442 L 749 440 L 749 433 L 750 432 L 750 431 L 751 430 L 751 427 L 752 426 L 751 425 L 751 422 L 750 421 L 750 420 L 749 419 L 749 416 L 748 415 L 748 414 L 749 413 L 749 412 L 750 411 L 751 411 L 752 410 "></path>
        <path fill="none" stroke="#00fafa" stroke-width="3" d="M 482 559 L 483 558 L 491 558 L 492 559 L 494 559 L 495 560 L 496 560 L 498 562 L 498 564 L 495 567 L 494 567 L 492 569 L 491 569 L 490 570 L 490 571 L 489 572 L 489 573 L 488 574 L 488 580 L 487 581 L 487 582 L 484 585 L 481 585 L 478 582 L 478 581 L 477 580 L 477 574 L 478 573 L 478 564 L 479 563 L 479 561 L 481 559 L 482 559 L 483 558 "></path>
        <path fill="none" stroke="#00fafa" stroke-width="3" d="M 424 595 L 433 595 L 434 596 L 450 596 L 451 595 L 459 595 L 462 598 L 462 601 L 460 603 L 459 603 L 458 604 L 431 604 L 430 605 L 426 605 L 425 604 L 424 604 L 421 601 L 421 598 L 424 595 L 433 595 "></path>
        <path fill="none" stroke="#00fafa" stroke-width="3" d="M 592 349 L 593 348 L 603 348 L 604 349 L 607 349 L 608 350 L 613 350 L 614 351 L 616 351 L 619 354 L 619 356 L 618 357 L 618 358 L 617 359 L 616 359 L 615 360 L 614 360 L 613 361 L 609 361 L 608 360 L 604 360 L 603 359 L 600 359 L 599 360 L 595 360 L 594 361 L 591 361 L 590 360 L 589 360 L 588 359 L 588 358 L 587 357 L 587 354 L 588 353 L 588 352 L 591 349 L 592 349 L 593 348 "></path>
        <path fill="none" stroke="#00fafa" stroke-width="3" d="M 434 528 L 444 528 L 445 529 L 448 529 L 449 530 L 450 530 L 451 531 L 452 531 L 453 532 L 454 532 L 455 533 L 456 533 L 457 534 L 458 534 L 459 535 L 460 535 L 461 536 L 462 536 L 465 539 L 465 542 L 463 544 L 457 544 L 456 543 L 455 543 L 454 542 L 453 542 L 452 541 L 451 541 L 450 540 L 449 540 L 448 539 L 434 539 L 431 536 L 431 531 L 434 528 L 444 528 "></path>
        <path fill="none" stroke="#00fafa" stroke-width="3" d="M 673 384 L 679 384 L 680 385 L 684 385 L 685 386 L 691 386 L 692 385 L 702 385 L 704 387 L 704 391 L 700 395 L 698 395 L 697 396 L 692 396 L 691 395 L 678 395 L 677 394 L 675 394 L 674 393 L 673 393 L 671 391 L 671 390 L 670 389 L 670 387 L 673 384 L 679 384 "></path>
        <path fill="none" stroke="#00fafa" stroke-width="3" d="M 477 299 L 481 299 L 482 300 L 482 301 L 484 303 L 484 307 L 485 308 L 485 309 L 484 310 L 484 318 L 483 319 L 483 326 L 484 327 L 484 330 L 483 331 L 483 332 L 481 334 L 478 334 L 477 333 L 476 333 L 475 332 L 475 331 L 474 330 L 474 318 L 475 317 L 475 308 L 474 307 L 474 304 L 475 303 L 475 301 L 477 299 L 481 299 "></path>
        <path fill="none" stroke="#00fafa" stroke-width="3" d="M 630 287 L 631 286 L 636 286 L 637 287 L 638 287 L 641 290 L 641 291 L 642 292 L 642 295 L 643 296 L 643 301 L 642 302 L 642 305 L 641 306 L 641 307 L 636 312 L 635 312 L 634 313 L 633 313 L 632 312 L 631 312 L 630 311 L 630 310 L 629 309 L 629 301 L 630 300 L 630 298 L 629 297 L 629 289 L 630 288 L 630 287 L 631 286 "></path>
        <path fill="none" stroke="#00fafa" stroke-width="3" d="M 505 436 L 509 436 L 510 437 L 511 437 L 512 438 L 512 439 L 513 440 L 513 441 L 514 442 L 514 453 L 513 454 L 513 455 L 512 456 L 512 457 L 511 458 L 507 458 L 506 457 L 505 457 L 504 456 L 503 456 L 500 453 L 499 453 L 497 451 L 497 450 L 496 449 L 496 446 L 497 445 L 497 444 L 500 441 L 500 440 L 502 438 L 503 438 L 505 436 L 509 436 "></path>
        <path fill="none" stroke="#00fafa" stroke-width="3" d="M 634 373 L 635 372 L 636 372 L 639 375 L 639 377 L 640 378 L 640 380 L 641 381 L 641 382 L 644 385 L 644 386 L 647 389 L 647 390 L 648 391 L 648 393 L 645 396 L 638 396 L 637 395 L 636 395 L 635 394 L 634 394 L 629 389 L 629 386 L 628 385 L 628 381 L 629 380 L 629 378 L 630 377 L 630 376 L 633 373 L 634 373 L 635 372 "></path>
        <path fill="none" stroke="#00fafa" stroke-width="3" d="M 687 348 L 688 347 L 693 347 L 694 348 L 696 348 L 697 349 L 698 349 L 699 350 L 700 350 L 702 352 L 702 353 L 703 354 L 703 359 L 702 360 L 701 360 L 700 361 L 680 361 L 677 358 L 677 355 L 679 353 L 679 352 L 680 351 L 681 351 L 683 349 L 684 349 L 685 348 L 687 348 L 688 347 "></path>
        <path fill="none" stroke="#00fafa" stroke-width="3" d="M 659 496 L 660 495 L 663 495 L 664 496 L 665 496 L 670 501 L 670 502 L 672 504 L 672 505 L 673 506 L 673 507 L 674 508 L 674 513 L 672 515 L 672 516 L 671 517 L 670 517 L 669 518 L 668 518 L 667 519 L 664 519 L 663 518 L 662 518 L 661 517 L 661 516 L 660 515 L 660 512 L 659 511 L 659 508 L 658 507 L 658 506 L 657 505 L 657 503 L 656 502 L 656 499 L 657 498 L 657 497 L 658 496 L 659 496 L 660 495 "></path>
        <path fill="none" stroke="#00fafa" stroke-width="3" d="M 534 287 L 535 286 L 540 286 L 543 289 L 543 290 L 544 291 L 544 292 L 543 293 L 543 296 L 541 298 L 541 299 L 538 302 L 537 302 L 536 303 L 529 303 L 525 299 L 525 296 L 526 295 L 526 294 L 533 287 L 534 287 L 535 286 "></path>
        <path fill="none" stroke="#00fafa" stroke-width="3" d="M 544 416 L 545 415 L 548 415 L 549 416 L 550 416 L 553 419 L 553 422 L 551 424 L 550 424 L 549 425 L 545 425 L 544 426 L 539 426 L 538 427 L 533 427 L 532 426 L 531 426 L 529 424 L 529 423 L 528 422 L 528 420 L 531 417 L 537 417 L 538 416 L 544 416 L 545 415 "></path>
        <path fill="none" stroke="#00fafa" stroke-width="3" d="M 568 376 L 573 376 L 574 377 L 574 378 L 575 379 L 575 384 L 574 385 L 574 390 L 573 391 L 573 398 L 570 401 L 568 401 L 567 400 L 566 400 L 565 399 L 565 398 L 564 397 L 564 383 L 565 382 L 565 380 L 566 379 L 566 378 L 568 376 L 573 376 "></path>
        <path fill="none" stroke="#00fafa" stroke-width="3" d="M 594 535 L 595 534 L 606 534 L 607 535 L 608 535 L 610 537 L 610 538 L 611 539 L 611 541 L 610 542 L 610 543 L 609 544 L 608 544 L 607 545 L 605 545 L 604 546 L 596 546 L 595 545 L 593 545 L 592 544 L 591 544 L 589 542 L 589 538 L 592 535 L 594 535 L 595 534 "></path>
        <path fill="none" stroke="#00fafa" stroke-width="3" d="M 628 506 L 629 505 L 631 505 L 635 509 L 635 512 L 636 513 L 636 518 L 637 519 L 637 522 L 636 523 L 636 524 L 633 527 L 631 527 L 630 526 L 629 526 L 627 524 L 627 523 L 625 521 L 625 519 L 624 518 L 624 510 L 626 508 L 626 507 L 627 506 L 628 506 L 629 505 "></path>
        <path fill="none" stroke="#00fafa" stroke-width="3" d="M 478 471 L 479 470 L 483 470 L 484 471 L 485 471 L 487 473 L 488 473 L 490 475 L 491 475 L 496 480 L 496 482 L 492 486 L 486 486 L 485 485 L 484 485 L 483 484 L 482 484 L 477 479 L 477 473 L 478 472 L 478 471 L 479 470 "></path>
        <path fill="none" stroke="#00fafa" stroke-width="3" d="M 434 565 L 435 564 L 450 564 L 451 565 L 452 565 L 454 567 L 454 568 L 455 569 L 454 570 L 454 571 L 452 573 L 433 573 L 430 570 L 430 568 L 433 565 L 434 565 L 435 564 "></path>
        <path fill="none" stroke="#00fafa" stroke-width="3" d="M 662 559 L 665 559 L 666 560 L 668 560 L 670 562 L 671 562 L 672 563 L 672 564 L 673 565 L 673 566 L 674 567 L 674 570 L 673 571 L 673 572 L 672 573 L 671 573 L 670 574 L 669 574 L 668 575 L 664 575 L 663 574 L 662 574 L 659 571 L 659 569 L 658 568 L 658 564 L 659 563 L 659 562 L 662 559 L 665 559 "></path>
        <path fill="none" stroke="#00fafa" stroke-width="3" d="M 630 554 L 631 553 L 633 553 L 635 555 L 635 556 L 636 557 L 636 570 L 635 571 L 635 572 L 634 573 L 633 573 L 632 574 L 630 574 L 626 570 L 626 568 L 625 567 L 625 561 L 626 560 L 626 558 L 628 556 L 628 555 L 629 554 L 630 554 L 631 553 "></path>
        <path fill="none" stroke="#00fafa" stroke-width="3" d="M 471 506 L 472 505 L 475 505 L 476 506 L 479 506 L 481 508 L 482 508 L 483 509 L 483 510 L 484 511 L 484 516 L 483 517 L 483 518 L 482 519 L 477 519 L 476 518 L 475 518 L 474 517 L 473 517 L 472 516 L 471 516 L 470 515 L 469 515 L 466 512 L 466 509 L 468 507 L 469 507 L 470 506 L 471 506 L 472 505 "></path>
        <path fill="none" stroke="#00fafa" stroke-width="3" d="M 600 384 L 601 383 L 602 383 L 603 384 L 604 384 L 605 385 L 605 386 L 606 387 L 606 388 L 607 389 L 607 396 L 606 397 L 606 398 L 602 402 L 598 402 L 596 400 L 596 398 L 595 397 L 595 395 L 596 394 L 596 388 L 597 387 L 597 386 L 599 384 L 600 384 L 601 383 "></path>
        <path fill="none" stroke="#00fafa" stroke-width="3" d="M 597 569 L 598 568 L 600 568 L 601 569 L 602 569 L 604 571 L 604 572 L 605 573 L 605 576 L 606 577 L 606 578 L 605 579 L 605 581 L 601 585 L 597 585 L 594 582 L 594 581 L 593 580 L 593 573 L 594 572 L 594 571 L 596 569 L 597 569 L 598 568 "></path>
        <path fill="none" stroke="#00fafa" stroke-width="3" d="M 508 356 L 511 356 L 512 357 L 513 357 L 515 359 L 515 360 L 516 361 L 516 367 L 515 368 L 515 369 L 512 372 L 511 372 L 510 373 L 508 373 L 505 370 L 505 369 L 504 368 L 504 361 L 505 360 L 505 359 L 508 356 L 511 356 "></path>
        <path fill="none" stroke="#00fafa" stroke-width="3" d="M 566 295 L 567 294 L 571 294 L 574 297 L 574 306 L 573 307 L 573 309 L 570 312 L 569 312 L 568 311 L 567 311 L 564 308 L 564 306 L 563 305 L 563 303 L 564 302 L 564 299 L 565 298 L 565 297 L 566 296 L 566 295 L 567 294 "></path>
        <path fill="none" stroke="#00fafa" stroke-width="3" d="M 510 318 L 511 318 L 512 319 L 513 319 L 516 322 L 516 327 L 515 328 L 515 329 L 511 333 L 507 333 L 505 331 L 505 326 L 506 325 L 506 323 L 507 322 L 507 321 L 510 318 L 511 318 "></path>
        <path fill="none" stroke="#00fafa" stroke-width="3" d="M 532 385 L 533 384 L 535 384 L 536 385 L 538 385 L 541 388 L 541 392 L 539 394 L 538 394 L 537 395 L 531 395 L 530 394 L 529 394 L 527 392 L 527 389 L 531 385 L 532 385 L 533 384 "></path>
        <path fill="none" stroke="#00fafa" stroke-width="3" d="M 542 324 L 543 323 L 546 323 L 547 324 L 548 324 L 552 328 L 552 330 L 549 333 L 547 333 L 546 334 L 543 334 L 542 333 L 541 333 L 539 331 L 539 330 L 538 329 L 539 328 L 539 326 L 541 324 L 542 324 L 543 323 "></path>
        <path fill="none" stroke="#00fafa" stroke-width="3" d="M 543 356 L 544 355 L 548 355 L 549 356 L 550 356 L 552 358 L 552 360 L 551 361 L 551 362 L 548 365 L 543 365 L 542 364 L 541 364 L 540 363 L 540 362 L 539 361 L 539 360 L 540 359 L 540 358 L 542 356 L 543 356 L 544 355 "></path>
    </g>
</svg>
