<svg xmlns="http://www.w3.org/2000/svg" xmlns:xlink="http://www.w3.org/1999/xlink" version="1.1" x="0" y="0" width="1056px" height="816px">
    <g id="rootLayer" transform="translate(0.000000, 0.000000)">
        <path fill="none" stroke="#ffffff" stroke-width="3" d="M 448 106 L 447 107 L 445 107 L 444 108 L 443 108 L 442 109 L 440 109 L 439 110 L 438 110 L 437 111 L 435 111 L 433 113 L 432 113 L 429 116 L 428 116 L 427 117 L 426 117 L 425 118 L 424 118 L 423 119 L 422 118 L 421 119 L 420 118 L 419 119 L 418 119 L 417 120 L 416 120 L 415 121 L 414 121 L 414 122 L 411 125 L 411 126 L 410 127 L 410 128 L 406 132 L 405 132 L 400 137 L 400 140 L 399 141 L 399 143 L 397 145 L 397 146 L 396 147 L 396 148 L 395 149 L 395 155 L 394 156 L 394 160 L 393 161 L 394 162 L 394 167 L 393 168 L 393 171 L 392 172 L 392 175 L 391 176 L 391 179 L 390 180 L 390 182 L 389 183 L 389 184 L 388 185 L 388 197 L 389 198 L 389 201 L 390 202 L 390 203 L 391 204 L 391 205 L 393 207 L 393 209 L 394 209 L 395 210 L 395 212 L 396 213 L 396 214 L 397 215 L 397 217 L 399 219 L 399 220 L 401 222 L 402 222 L 404 224 L 404 225 L 407 228 L 408 228 L 409 229 L 410 229 L 411 230 L 422 230 L 425 227 L 426 227 L 426 225 L 427 224 L 427 222 L 428 221 L 428 220 L 429 219 L 449 219 L 451 221 L 451 222 L 452 223 L 452 232 L 453 233 L 453 234 L 454 235 L 454 236 L 458 240 L 459 240 L 461 242 L 463 242 L 464 243 L 474 243 L 475 242 L 477 242 L 478 241 L 479 241 L 480 240 L 481 240 L 484 237 L 485 237 L 487 235 L 489 235 L 491 233 L 492 233 L 495 230 L 496 230 L 497 229 L 499 229 L 500 228 L 502 228 L 503 227 L 504 227 L 506 225 L 506 223 L 507 222 L 507 220 L 506 219 L 506 217 L 504 215 L 504 214 L 505 213 L 505 212 L 506 211 L 513 211 L 514 210 L 515 210 L 516 209 L 515 208 L 516 207 L 516 206 L 519 203 L 520 203 L 521 204 L 525 204 L 526 203 L 526 136 L 525 135 L 523 135 L 522 136 L 504 136 L 502 134 L 502 133 L 501 133 L 500 132 L 499 132 L 497 130 L 496 130 L 495 129 L 494 129 L 493 128 L 491 128 L 490 127 L 485 127 L 484 126 L 482 126 L 479 123 L 478 123 L 477 122 L 472 122 L 471 123 L 470 122 L 469 122 L 466 119 L 466 117 L 464 115 L 464 113 L 462 111 L 462 110 L 460 108 L 459 108 L 457 106 "></path>
        <path fill="none" stroke="#ffffff" stroke-width="3" d="M 278 162 L 277 163 L 276 163 L 275 164 L 274 163 L 273 164 L 252 164 L 251 165 L 250 165 L 249 166 L 248 166 L 248 168 L 247 169 L 246 169 L 245 170 L 244 170 L 244 171 L 243 172 L 233 172 L 232 173 L 231 173 L 231 175 L 233 177 L 233 178 L 235 180 L 234 181 L 234 182 L 232 184 L 224 184 L 223 185 L 222 185 L 222 188 L 223 189 L 222 190 L 223 191 L 223 193 L 222 194 L 222 196 L 221 197 L 220 197 L 219 198 L 218 198 L 216 200 L 213 200 L 212 201 L 211 201 L 210 202 L 210 203 L 211 204 L 210 205 L 210 207 L 211 208 L 211 209 L 210 210 L 211 211 L 211 214 L 212 215 L 212 216 L 213 217 L 213 219 L 214 220 L 214 221 L 215 222 L 215 223 L 217 225 L 217 226 L 219 228 L 220 228 L 221 229 L 221 230 L 222 231 L 223 231 L 224 232 L 225 232 L 226 233 L 227 233 L 229 235 L 230 235 L 231 236 L 233 236 L 234 237 L 240 237 L 241 236 L 242 236 L 244 234 L 244 233 L 245 232 L 246 232 L 247 231 L 253 231 L 254 232 L 255 231 L 256 232 L 265 232 L 267 230 L 264 227 L 264 226 L 263 225 L 265 223 L 267 223 L 268 224 L 269 223 L 270 224 L 271 223 L 272 224 L 274 224 L 275 223 L 277 223 L 278 222 L 279 222 L 280 221 L 281 221 L 282 220 L 284 220 L 285 219 L 286 219 L 286 218 L 287 217 L 287 215 L 289 213 L 292 213 L 294 211 L 295 211 L 295 210 L 296 209 L 296 207 L 295 206 L 296 205 L 295 204 L 295 198 L 297 196 L 298 196 L 300 198 L 300 199 L 303 202 L 309 202 L 314 197 L 314 196 L 315 195 L 315 188 L 316 187 L 316 185 L 317 184 L 317 182 L 318 181 L 317 180 L 317 177 L 316 176 L 316 175 L 315 174 L 315 172 L 314 171 L 314 170 L 312 168 L 311 168 L 310 167 L 303 167 L 302 166 L 301 166 L 300 165 L 299 165 L 298 164 L 295 164 L 294 163 L 287 163 L 286 162 L 280 162 L 279 163 "></path>
    </g>
</svg>
