<svg xmlns="http://www.w3.org/2000/svg" xmlns:xlink="http://www.w3.org/1999/xlink" version="1.1" x="0" y="0" width="1056px" height="816px">
    <g id="rootLayer" transform="translate(0.000000, 0.000000)">
        <path fill="none" stroke="#00fafa" stroke-width="3" d="M 537 364 L 538 363 L 539 364 L 539 365 L 540 366 L 539 367 L 540 368 L 540 369 L 543 372 L 543 373 L 540 376 L 540 377 L 538 379 L 538 381 L 537 382 L 536 382 L 535 381 L 536 380 L 536 379 L 535 378 L 535 376 L 534 376 L 532 374 L 528 374 L 527 375 L 526 375 L 524 377 L 524 378 L 523 379 L 523 380 L 524 381 L 524 382 L 526 384 L 526 385 L 528 387 L 528 388 L 526 390 L 526 391 L 524 393 L 523 393 L 524 393 L 525 394 L 525 396 L 524 397 L 523 396 L 523 395 L 522 395 L 520 393 L 520 391 L 519 390 L 516 390 L 515 389 L 513 389 L 511 391 L 510 390 L 509 391 L 509 392 L 508 393 L 508 394 L 509 395 L 509 397 L 510 398 L 510 399 L 511 400 L 512 400 L 514 402 L 515 402 L 516 403 L 514 405 L 512 405 L 509 408 L 508 407 L 508 408 L 507 409 L 506 409 L 505 408 L 506 407 L 505 407 L 504 408 L 503 407 L 503 406 L 502 405 L 501 405 L 500 404 L 499 404 L 498 405 L 496 405 L 495 406 L 495 408 L 494 409 L 494 410 L 493 411 L 494 411 L 496 413 L 495 414 L 496 415 L 495 416 L 496 415 L 497 415 L 498 416 L 498 417 L 497 418 L 496 418 L 495 419 L 494 419 L 495 420 L 494 421 L 494 422 L 493 423 L 494 424 L 493 425 L 495 427 L 495 428 L 496 429 L 497 429 L 498 430 L 499 430 L 500 431 L 502 431 L 504 429 L 505 429 L 505 428 L 506 427 L 506 424 L 503 421 L 502 421 L 501 420 L 501 419 L 500 418 L 501 417 L 501 416 L 502 415 L 503 416 L 504 415 L 505 415 L 505 414 L 507 412 L 508 413 L 509 412 L 510 413 L 510 414 L 511 414 L 512 415 L 512 416 L 513 416 L 514 417 L 510 421 L 510 422 L 508 424 L 509 424 L 510 425 L 510 429 L 511 429 L 512 430 L 513 429 L 515 431 L 516 430 L 517 431 L 518 430 L 519 430 L 519 429 L 520 428 L 520 426 L 521 425 L 520 424 L 521 423 L 520 422 L 520 421 L 516 417 L 518 415 L 519 415 L 520 414 L 520 413 L 521 412 L 521 411 L 523 409 L 524 410 L 524 412 L 525 413 L 525 414 L 526 414 L 530 418 L 528 420 L 527 420 L 527 421 L 525 423 L 525 424 L 524 425 L 525 426 L 525 428 L 528 431 L 529 430 L 530 431 L 532 431 L 535 428 L 535 426 L 536 425 L 535 424 L 536 423 L 537 423 L 536 422 L 536 421 L 535 420 L 534 421 L 532 419 L 531 419 L 530 418 L 530 416 L 531 415 L 533 415 L 533 414 L 534 413 L 535 413 L 536 412 L 536 411 L 535 410 L 535 406 L 534 406 L 533 405 L 533 404 L 532 403 L 532 401 L 536 397 L 536 395 L 537 394 L 539 396 L 539 398 L 540 398 L 542 400 L 543 400 L 544 401 L 545 401 L 546 400 L 547 400 L 548 401 L 550 399 L 551 399 L 551 398 L 552 397 L 552 394 L 549 391 L 549 390 L 548 390 L 547 391 L 545 389 L 542 389 L 539 392 L 538 391 L 539 392 L 537 394 L 536 393 L 536 391 L 535 392 L 533 390 L 533 389 L 531 387 L 534 384 L 535 385 L 534 384 L 536 382 L 538 382 L 541 385 L 541 386 L 546 386 L 547 385 L 548 385 L 549 384 L 549 383 L 550 382 L 552 382 L 553 381 L 554 382 L 554 383 L 556 385 L 559 385 L 560 386 L 561 386 L 562 385 L 563 385 L 564 384 L 566 384 L 567 383 L 569 383 L 572 386 L 573 386 L 575 388 L 574 389 L 573 389 L 570 392 L 570 393 L 569 394 L 570 395 L 570 396 L 569 397 L 570 397 L 571 398 L 571 399 L 575 403 L 574 404 L 572 404 L 570 406 L 570 407 L 569 408 L 569 412 L 570 413 L 570 414 L 572 416 L 573 416 L 574 415 L 575 415 L 576 416 L 575 417 L 575 418 L 574 419 L 572 419 L 572 420 L 571 421 L 569 421 L 570 422 L 569 423 L 569 424 L 568 425 L 565 422 L 566 421 L 565 420 L 564 420 L 562 418 L 562 417 L 561 416 L 563 414 L 564 414 L 565 413 L 565 412 L 567 410 L 567 408 L 566 409 L 565 408 L 565 407 L 564 407 L 563 406 L 562 406 L 561 405 L 561 404 L 560 403 L 560 402 L 562 400 L 563 400 L 564 399 L 565 399 L 564 398 L 566 396 L 566 394 L 564 392 L 564 391 L 563 390 L 562 390 L 561 389 L 560 390 L 557 390 L 556 391 L 556 392 L 554 394 L 554 395 L 555 396 L 554 397 L 555 398 L 555 399 L 557 401 L 559 401 L 560 402 L 560 403 L 555 408 L 555 409 L 554 410 L 554 411 L 557 414 L 556 415 L 557 415 L 558 416 L 560 416 L 561 417 L 561 418 L 560 419 L 559 418 L 557 420 L 556 420 L 556 421 L 555 422 L 556 423 L 555 424 L 555 426 L 556 427 L 556 430 L 557 431 L 558 431 L 559 432 L 554 437 L 555 438 L 554 439 L 554 443 L 555 444 L 555 445 L 556 446 L 557 446 L 558 447 L 559 447 L 560 448 L 559 449 L 557 449 L 556 450 L 556 453 L 554 455 L 555 456 L 555 458 L 557 460 L 558 460 L 559 461 L 559 463 L 558 464 L 557 463 L 555 465 L 555 467 L 554 468 L 553 467 L 550 467 L 548 465 L 548 464 L 547 464 L 545 462 L 546 461 L 547 461 L 548 460 L 549 460 L 549 459 L 551 457 L 550 456 L 551 455 L 551 452 L 550 451 L 550 450 L 549 450 L 547 448 L 546 449 L 544 449 L 543 448 L 543 447 L 544 446 L 545 447 L 544 446 L 545 445 L 549 445 L 552 442 L 551 441 L 552 440 L 552 439 L 551 440 L 549 438 L 549 436 L 548 435 L 546 435 L 545 434 L 543 434 L 540 437 L 540 438 L 539 439 L 540 440 L 539 441 L 540 442 L 540 443 L 542 445 L 542 446 L 543 447 L 543 449 L 541 451 L 540 451 L 540 452 L 538 454 L 538 455 L 539 456 L 538 457 L 537 457 L 536 456 L 536 454 L 531 449 L 532 448 L 531 449 L 530 449 L 528 451 L 525 451 L 526 452 L 525 453 L 524 453 L 524 454 L 525 455 L 525 457 L 526 458 L 527 458 L 528 459 L 529 459 L 531 461 L 532 460 L 533 461 L 534 460 L 535 460 L 535 459 L 537 457 L 539 457 L 540 458 L 540 459 L 542 459 L 543 460 L 544 460 L 545 461 L 545 462 L 543 464 L 542 463 L 539 466 L 540 467 L 539 468 L 539 471 L 544 476 L 542 478 L 542 479 L 540 481 L 540 483 L 539 484 L 537 484 L 536 483 L 536 482 L 535 481 L 534 481 L 532 479 L 532 477 L 534 475 L 534 474 L 535 473 L 535 469 L 533 467 L 533 465 L 532 464 L 531 464 L 530 463 L 527 466 L 526 465 L 526 466 L 525 467 L 525 468 L 524 469 L 523 469 L 521 467 L 521 466 L 520 466 L 519 465 L 517 465 L 516 464 L 516 463 L 515 462 L 518 459 L 519 460 L 520 459 L 520 457 L 521 456 L 521 453 L 520 452 L 520 451 L 519 450 L 518 450 L 517 451 L 516 450 L 516 449 L 515 450 L 512 450 L 512 451 L 510 453 L 509 452 L 508 453 L 506 451 L 505 452 L 504 451 L 504 450 L 503 449 L 502 449 L 501 450 L 500 449 L 499 450 L 498 449 L 497 450 L 496 450 L 496 451 L 494 453 L 494 457 L 495 457 L 496 458 L 495 459 L 498 462 L 498 463 L 495 466 L 495 468 L 494 469 L 492 469 L 490 467 L 490 466 L 487 463 L 487 460 L 488 459 L 489 459 L 489 458 L 490 457 L 490 454 L 489 453 L 489 451 L 488 451 L 487 450 L 488 449 L 487 450 L 486 449 L 483 449 L 482 450 L 481 450 L 480 451 L 480 452 L 478 454 L 477 453 L 476 454 L 475 453 L 475 452 L 474 451 L 473 451 L 472 450 L 471 451 L 470 450 L 467 450 L 466 451 L 464 451 L 462 453 L 460 451 L 460 450 L 458 450 L 457 449 L 455 449 L 454 448 L 455 447 L 456 447 L 456 446 L 457 445 L 458 446 L 457 445 L 458 444 L 459 444 L 460 443 L 460 442 L 461 441 L 460 440 L 460 438 L 461 437 L 460 436 L 460 435 L 459 434 L 458 434 L 456 432 L 457 431 L 458 431 L 457 430 L 458 429 L 459 429 L 459 427 L 460 426 L 461 426 L 461 424 L 460 423 L 461 422 L 460 422 L 459 421 L 459 420 L 457 420 L 456 419 L 456 418 L 457 417 L 456 416 L 459 413 L 460 413 L 461 412 L 462 412 L 461 411 L 461 410 L 462 409 L 464 411 L 464 413 L 465 413 L 466 414 L 467 414 L 468 415 L 468 416 L 469 416 L 470 415 L 471 415 L 472 414 L 474 416 L 474 415 L 477 412 L 479 412 L 481 414 L 481 415 L 482 416 L 484 416 L 485 417 L 481 421 L 480 421 L 478 423 L 478 424 L 479 425 L 478 426 L 478 427 L 479 427 L 480 428 L 480 429 L 481 430 L 482 430 L 483 431 L 483 432 L 485 434 L 483 436 L 482 435 L 481 436 L 481 437 L 480 438 L 479 438 L 478 439 L 477 439 L 475 437 L 475 436 L 474 435 L 473 435 L 472 434 L 471 435 L 470 435 L 469 434 L 468 435 L 468 436 L 467 437 L 466 436 L 466 437 L 465 438 L 464 438 L 464 440 L 465 441 L 464 442 L 465 443 L 465 444 L 466 444 L 467 445 L 471 445 L 473 443 L 474 444 L 474 443 L 475 442 L 475 441 L 477 439 L 478 439 L 479 440 L 478 441 L 482 445 L 483 445 L 484 446 L 487 446 L 489 444 L 490 444 L 491 443 L 492 443 L 492 442 L 493 441 L 497 445 L 498 445 L 500 447 L 501 446 L 503 446 L 503 444 L 505 442 L 507 442 L 506 441 L 506 440 L 507 439 L 505 437 L 505 436 L 503 436 L 502 435 L 501 435 L 500 434 L 498 434 L 496 436 L 496 437 L 495 438 L 495 439 L 493 441 L 492 441 L 491 440 L 492 439 L 492 438 L 491 438 L 489 436 L 488 436 L 487 435 L 488 434 L 487 434 L 486 433 L 486 432 L 488 430 L 489 430 L 489 429 L 490 428 L 490 427 L 491 426 L 490 425 L 490 422 L 489 422 L 488 421 L 488 420 L 487 420 L 486 419 L 486 418 L 489 415 L 489 414 L 490 413 L 491 413 L 490 412 L 491 411 L 490 410 L 490 408 L 489 407 L 489 406 L 487 404 L 485 404 L 484 403 L 484 402 L 483 403 L 483 404 L 482 405 L 482 406 L 481 407 L 480 407 L 478 409 L 476 407 L 475 407 L 474 406 L 475 405 L 474 406 L 469 401 L 470 400 L 473 400 L 473 399 L 475 397 L 475 395 L 476 394 L 474 392 L 473 392 L 472 391 L 472 390 L 471 389 L 472 388 L 471 387 L 473 385 L 474 386 L 475 385 L 476 385 L 477 384 L 479 386 L 480 386 L 481 387 L 482 387 L 483 388 L 482 389 L 483 390 L 478 395 L 478 396 L 479 396 L 480 397 L 480 398 L 481 399 L 482 399 L 483 400 L 485 400 L 486 399 L 487 400 L 490 397 L 491 397 L 492 396 L 492 393 L 491 393 L 490 392 L 490 391 L 489 390 L 488 390 L 487 389 L 487 388 L 486 389 L 485 388 L 485 387 L 486 386 L 487 386 L 488 385 L 489 385 L 489 384 L 492 381 L 493 381 L 496 384 L 496 385 L 499 385 L 500 386 L 501 385 L 502 385 L 503 386 L 505 384 L 506 384 L 508 382 L 510 382 L 511 383 L 510 384 L 511 385 L 513 385 L 514 386 L 514 387 L 515 386 L 516 387 L 517 386 L 517 385 L 521 381 L 520 380 L 521 379 L 520 378 L 520 377 L 519 376 L 519 375 L 518 375 L 516 373 L 516 372 L 518 370 L 519 370 L 520 369 L 520 368 L 521 367 L 523 367 L 524 368 L 525 368 L 526 369 L 526 370 L 527 371 L 528 370 L 530 372 L 531 371 L 531 370 L 532 369 L 535 369 L 536 368 L 536 366 L 537 365 "></path>
        <path fill="none" stroke="#00fafa" stroke-width="3" d="M 537 484 L 538 485 L 539 484 L 540 485 L 540 486 L 541 487 L 541 489 L 543 491 L 546 491 L 547 490 L 548 490 L 550 488 L 551 488 L 552 487 L 553 487 L 556 490 L 558 490 L 559 491 L 562 491 L 563 492 L 563 491 L 564 490 L 565 490 L 566 489 L 565 488 L 567 486 L 568 487 L 569 487 L 571 489 L 571 490 L 572 489 L 574 491 L 574 493 L 571 496 L 570 496 L 569 497 L 568 497 L 569 497 L 570 498 L 569 499 L 568 499 L 569 500 L 569 502 L 570 502 L 573 505 L 573 506 L 574 505 L 575 505 L 576 506 L 575 507 L 576 506 L 576 505 L 577 504 L 578 505 L 581 502 L 581 501 L 582 500 L 585 503 L 585 504 L 586 505 L 588 505 L 590 507 L 590 508 L 588 510 L 587 510 L 587 511 L 584 514 L 584 515 L 585 516 L 585 517 L 586 518 L 586 519 L 588 521 L 588 524 L 587 525 L 586 525 L 586 526 L 584 528 L 583 527 L 581 527 L 580 526 L 580 525 L 579 524 L 578 524 L 577 523 L 577 522 L 576 521 L 577 520 L 578 520 L 580 518 L 579 517 L 580 516 L 579 515 L 580 514 L 580 513 L 579 513 L 578 512 L 579 511 L 578 511 L 576 509 L 575 510 L 573 510 L 572 511 L 571 511 L 569 513 L 568 513 L 567 514 L 566 513 L 566 512 L 565 512 L 564 511 L 564 510 L 563 510 L 562 511 L 560 509 L 561 508 L 561 507 L 563 505 L 563 504 L 564 503 L 565 503 L 564 502 L 565 501 L 566 501 L 566 500 L 565 500 L 564 499 L 565 498 L 566 498 L 565 498 L 564 497 L 565 496 L 564 496 L 563 495 L 563 494 L 562 495 L 560 493 L 558 493 L 556 495 L 556 496 L 554 498 L 554 500 L 553 501 L 552 500 L 552 499 L 551 498 L 551 497 L 550 496 L 549 496 L 547 494 L 547 493 L 545 495 L 544 494 L 542 496 L 541 496 L 540 497 L 539 497 L 539 498 L 538 499 L 537 499 L 533 495 L 532 495 L 531 494 L 531 493 L 529 491 L 530 490 L 531 490 L 532 489 L 534 489 L 535 488 L 535 486 "></path>
        <path fill="none" stroke="#00fafa" stroke-width="3" d="M 464 456 L 465 457 L 465 458 L 466 459 L 470 459 L 471 460 L 470 461 L 471 460 L 473 460 L 476 457 L 478 457 L 480 459 L 480 460 L 481 459 L 482 460 L 482 461 L 483 462 L 482 463 L 483 464 L 483 465 L 480 468 L 480 469 L 479 470 L 476 470 L 475 469 L 475 468 L 473 466 L 473 465 L 472 465 L 471 464 L 470 464 L 469 465 L 468 464 L 467 465 L 466 465 L 463 468 L 462 468 L 460 466 L 459 466 L 458 465 L 457 465 L 456 464 L 454 464 L 453 463 L 454 462 L 455 462 L 456 461 L 457 461 L 458 460 L 459 460 L 459 459 L 460 458 L 462 458 "></path>
        <path fill="none" stroke="#00fafa" stroke-width="3" d="M 491 352 L 492 351 L 493 351 L 495 353 L 494 354 L 495 354 L 496 355 L 497 355 L 498 356 L 498 357 L 499 358 L 498 359 L 497 359 L 496 360 L 496 362 L 495 363 L 495 369 L 496 369 L 498 371 L 498 373 L 497 374 L 496 374 L 496 375 L 495 376 L 494 376 L 494 377 L 492 379 L 491 378 L 491 377 L 490 377 L 489 376 L 489 375 L 488 375 L 487 374 L 487 373 L 485 371 L 486 370 L 489 370 L 490 369 L 490 368 L 491 367 L 491 365 L 492 364 L 491 364 L 490 363 L 491 362 L 490 361 L 488 361 L 487 360 L 487 357 L 488 356 L 489 356 L 489 355 L 491 353 L 492 353 "></path>
        <path fill="none" stroke="#00fafa" stroke-width="3" d="M 476 366 L 477 365 L 478 365 L 480 367 L 480 368 L 481 369 L 481 370 L 482 369 L 483 370 L 483 371 L 485 371 L 487 373 L 484 376 L 483 376 L 482 377 L 481 377 L 481 378 L 478 381 L 476 379 L 475 379 L 474 378 L 475 377 L 473 375 L 473 374 L 472 375 L 471 374 L 471 371 L 472 370 L 474 370 L 474 369 L 475 368 L 476 368 L 477 367 "></path>
        <path fill="none" stroke="#00fafa" stroke-width="3" d="M 626 456 L 627 455 L 628 455 L 629 456 L 629 457 L 630 458 L 630 459 L 633 459 L 634 460 L 635 460 L 636 461 L 635 462 L 636 463 L 635 464 L 633 464 L 630 467 L 631 468 L 629 470 L 628 470 L 627 471 L 626 470 L 626 467 L 625 466 L 624 466 L 622 464 L 620 464 L 619 463 L 621 461 L 621 460 L 622 459 L 623 460 L 625 458 L 626 458 "></path>
        <path fill="none" stroke="#00fafa" stroke-width="3" d="M 582 453 L 583 453 L 584 454 L 584 455 L 585 456 L 585 458 L 586 459 L 587 459 L 588 460 L 588 463 L 584 467 L 584 468 L 583 469 L 584 470 L 582 472 L 581 472 L 580 471 L 580 469 L 581 468 L 580 467 L 580 466 L 579 466 L 578 465 L 577 465 L 575 463 L 575 462 L 577 460 L 578 460 L 580 458 L 580 457 L 579 456 "></path>
        <path fill="none" stroke="#00fafa" stroke-width="3" d="M 565 441 L 566 440 L 568 442 L 569 442 L 571 444 L 570 445 L 572 447 L 572 449 L 570 451 L 570 452 L 569 453 L 569 455 L 568 456 L 567 456 L 566 455 L 566 454 L 566 455 L 565 456 L 564 455 L 564 452 L 563 453 L 562 452 L 562 450 L 560 450 L 559 449 L 561 447 L 561 446 L 562 445 L 563 445 L 565 443 "></path>
        <path fill="none" stroke="#00fafa" stroke-width="3" d="M 552 502 L 553 501 L 554 502 L 554 503 L 557 506 L 558 506 L 559 507 L 560 507 L 561 508 L 559 510 L 559 511 L 558 512 L 557 511 L 555 513 L 553 513 L 552 514 L 549 511 L 548 511 L 547 510 L 546 510 L 544 508 L 545 507 L 545 506 L 546 505 L 549 505 L 549 504 L 551 502 "></path>
        <path fill="none" stroke="#00fafa" stroke-width="3" d="M 447 380 L 448 379 L 449 380 L 449 381 L 450 382 L 450 383 L 451 384 L 451 385 L 452 385 L 453 386 L 456 386 L 457 387 L 454 390 L 453 390 L 452 391 L 451 391 L 450 392 L 448 392 L 448 393 L 447 394 L 446 393 L 446 392 L 445 392 L 444 391 L 443 391 L 441 389 L 441 388 L 442 387 L 442 386 L 444 384 L 445 384 L 445 383 L 447 381 "></path>
        <path fill="none" stroke="#00fafa" stroke-width="3" d="M 611 441 L 612 440 L 613 441 L 614 441 L 616 443 L 616 444 L 617 445 L 618 445 L 619 446 L 619 448 L 616 451 L 615 451 L 616 452 L 615 453 L 614 453 L 613 454 L 611 454 L 610 453 L 610 452 L 609 451 L 608 451 L 606 449 L 607 448 L 606 447 L 606 446 L 607 445 L 608 445 L 611 442 "></path>
        <path fill="none" stroke="#00fafa" stroke-width="3" d="M 626 307 L 627 306 L 633 312 L 633 313 L 631 315 L 631 316 L 630 317 L 630 318 L 629 319 L 628 319 L 628 320 L 627 321 L 626 320 L 626 319 L 622 315 L 621 315 L 619 313 L 620 312 L 620 311 L 621 310 L 622 310 L 623 309 L 624 309 L 624 308 L 625 307 "></path>
        <path fill="none" stroke="#00fafa" stroke-width="3" d="M 567 470 L 568 470 L 569 471 L 569 472 L 571 474 L 572 474 L 573 475 L 572 476 L 573 475 L 574 476 L 574 477 L 575 478 L 573 480 L 571 480 L 568 483 L 568 484 L 567 485 L 566 484 L 566 483 L 565 483 L 564 482 L 564 481 L 560 477 L 561 476 L 562 476 L 564 474 L 565 474 L 566 473 L 565 472 "></path>
        <path fill="none" stroke="#00fafa" stroke-width="3" d="M 567 426 L 568 425 L 570 427 L 569 428 L 570 429 L 571 429 L 572 430 L 573 430 L 574 431 L 574 432 L 573 433 L 574 434 L 573 435 L 571 435 L 570 436 L 569 436 L 569 437 L 567 439 L 566 438 L 566 437 L 565 437 L 562 434 L 560 434 L 559 433 L 562 430 L 563 430 L 563 429 L 566 426 "></path>
        <path fill="none" stroke="#00fafa" stroke-width="3" d="M 506 367 L 507 366 L 508 366 L 512 370 L 513 370 L 514 371 L 515 370 L 516 370 L 517 371 L 514 374 L 513 374 L 512 375 L 511 375 L 510 376 L 510 377 L 509 378 L 509 379 L 508 380 L 507 380 L 505 378 L 505 376 L 504 375 L 504 374 L 502 372 L 503 371 L 504 371 L 504 370 L 506 368 "></path>
        <path fill="none" stroke="#00fafa" stroke-width="3" d="M 462 381 L 463 380 L 464 381 L 464 383 L 465 384 L 467 384 L 468 385 L 468 386 L 470 386 L 471 387 L 469 389 L 466 389 L 465 390 L 465 391 L 463 393 L 461 393 L 460 392 L 460 391 L 459 390 L 457 390 L 456 389 L 456 388 L 457 387 L 457 386 L 458 385 L 459 385 L 459 384 L 461 382 L 462 382 "></path>
        <path fill="none" stroke="#00fafa" stroke-width="3" d="M 415 396 L 416 395 L 418 397 L 417 398 L 418 397 L 419 397 L 420 398 L 422 398 L 424 400 L 423 401 L 425 401 L 426 402 L 425 403 L 424 403 L 424 404 L 420 408 L 418 408 L 417 409 L 418 409 L 419 410 L 419 411 L 420 412 L 421 412 L 424 415 L 425 414 L 426 415 L 427 414 L 428 414 L 430 412 L 429 411 L 429 410 L 430 409 L 431 410 L 432 409 L 433 410 L 433 411 L 434 411 L 435 412 L 435 413 L 438 416 L 438 418 L 437 419 L 437 420 L 436 421 L 436 424 L 437 425 L 437 427 L 436 428 L 437 429 L 436 430 L 436 432 L 435 433 L 436 433 L 437 434 L 436 435 L 436 436 L 435 437 L 434 437 L 433 438 L 434 438 L 435 439 L 434 440 L 434 441 L 435 441 L 436 442 L 435 443 L 436 444 L 436 445 L 437 446 L 437 447 L 436 448 L 436 450 L 435 451 L 436 452 L 434 454 L 433 453 L 434 454 L 433 455 L 432 455 L 431 456 L 430 455 L 430 453 L 429 452 L 429 451 L 428 451 L 427 450 L 428 449 L 428 447 L 427 446 L 428 445 L 427 444 L 427 442 L 428 441 L 429 441 L 430 442 L 430 441 L 429 440 L 429 439 L 430 438 L 431 438 L 430 437 L 429 438 L 428 438 L 427 437 L 426 438 L 424 436 L 424 435 L 423 436 L 422 436 L 421 437 L 422 438 L 421 439 L 420 439 L 419 440 L 419 441 L 420 441 L 421 442 L 421 443 L 420 444 L 421 444 L 422 445 L 421 446 L 421 449 L 420 450 L 421 451 L 419 453 L 420 454 L 419 455 L 417 455 L 415 453 L 414 453 L 413 452 L 413 451 L 412 452 L 410 450 L 411 449 L 412 449 L 412 448 L 413 447 L 413 446 L 412 445 L 413 444 L 414 444 L 415 443 L 415 442 L 416 441 L 417 442 L 415 440 L 416 439 L 416 438 L 414 436 L 414 435 L 413 435 L 411 433 L 413 431 L 414 431 L 415 430 L 414 430 L 413 429 L 414 428 L 414 427 L 415 426 L 416 426 L 416 425 L 415 425 L 414 424 L 414 423 L 412 421 L 412 420 L 411 419 L 412 418 L 411 417 L 412 416 L 413 416 L 413 415 L 414 414 L 414 413 L 413 412 L 414 411 L 415 411 L 414 410 L 415 409 L 413 407 L 413 406 L 411 404 L 410 404 L 409 403 L 410 402 L 411 402 L 410 401 L 412 399 L 413 399 L 415 397 "></path>
        <path fill="none" stroke="#00fafa" stroke-width="3" d="M 505 459 L 506 458 L 507 458 L 508 459 L 509 459 L 510 458 L 511 458 L 512 459 L 512 460 L 513 461 L 513 462 L 512 463 L 513 464 L 512 465 L 512 467 L 511 468 L 510 467 L 511 468 L 510 469 L 510 472 L 511 473 L 511 477 L 512 477 L 513 478 L 513 479 L 511 481 L 512 482 L 510 484 L 509 484 L 511 486 L 510 487 L 511 487 L 512 488 L 512 489 L 513 490 L 513 491 L 514 490 L 515 490 L 516 491 L 516 492 L 515 493 L 514 493 L 515 493 L 516 494 L 515 495 L 513 495 L 512 494 L 511 495 L 510 495 L 510 496 L 511 497 L 510 498 L 507 498 L 506 497 L 505 497 L 504 496 L 503 496 L 502 495 L 501 496 L 500 495 L 499 495 L 498 494 L 498 495 L 496 497 L 493 497 L 492 496 L 491 496 L 490 495 L 489 496 L 488 495 L 488 494 L 487 494 L 486 495 L 485 495 L 484 494 L 481 494 L 481 496 L 480 497 L 481 498 L 479 500 L 478 499 L 476 499 L 475 498 L 475 496 L 474 496 L 473 495 L 473 494 L 472 493 L 472 492 L 474 490 L 474 487 L 475 486 L 477 486 L 478 485 L 479 485 L 480 486 L 479 487 L 479 488 L 480 488 L 482 490 L 482 489 L 483 488 L 484 489 L 484 490 L 485 489 L 486 490 L 487 489 L 488 489 L 489 488 L 489 487 L 490 486 L 491 487 L 493 487 L 494 488 L 494 489 L 495 489 L 497 487 L 498 488 L 499 488 L 500 489 L 500 490 L 501 490 L 501 489 L 502 488 L 503 488 L 504 487 L 505 488 L 505 487 L 507 485 L 507 484 L 506 483 L 506 482 L 505 482 L 504 481 L 503 482 L 501 480 L 500 481 L 499 480 L 498 480 L 497 479 L 498 478 L 499 478 L 498 477 L 499 476 L 499 475 L 500 474 L 501 474 L 502 475 L 503 474 L 504 474 L 505 473 L 506 473 L 507 472 L 507 470 L 508 469 L 507 468 L 507 467 L 506 467 L 504 465 L 504 463 L 503 462 L 504 461 L 503 460 L 504 459 "></path>
        <path fill="none" stroke="#00fafa" stroke-width="3" d="M 578 384 L 579 383 L 580 384 L 581 383 L 582 384 L 583 384 L 584 383 L 585 384 L 585 385 L 586 385 L 587 386 L 587 387 L 588 388 L 587 389 L 588 390 L 587 391 L 587 392 L 586 393 L 587 394 L 586 395 L 587 396 L 585 398 L 587 400 L 588 400 L 590 402 L 588 404 L 588 405 L 587 406 L 586 406 L 585 407 L 585 410 L 584 411 L 583 410 L 585 412 L 585 413 L 587 415 L 587 416 L 588 415 L 589 415 L 590 416 L 589 417 L 589 418 L 588 419 L 589 420 L 589 421 L 588 422 L 587 421 L 587 422 L 586 423 L 586 426 L 585 427 L 586 426 L 587 426 L 588 427 L 587 428 L 587 429 L 586 430 L 587 431 L 586 432 L 586 433 L 587 434 L 587 435 L 586 436 L 586 437 L 585 438 L 580 438 L 579 437 L 579 436 L 578 435 L 578 434 L 577 433 L 576 434 L 575 433 L 575 431 L 577 429 L 578 429 L 578 428 L 579 427 L 579 426 L 580 425 L 579 424 L 579 423 L 578 422 L 578 420 L 577 419 L 577 418 L 576 417 L 577 416 L 576 415 L 577 414 L 579 414 L 578 413 L 578 412 L 580 410 L 581 410 L 579 408 L 580 407 L 577 404 L 577 403 L 576 402 L 576 401 L 578 399 L 579 399 L 579 398 L 581 396 L 581 395 L 580 394 L 580 393 L 579 392 L 579 391 L 578 391 L 576 389 L 576 388 L 575 388 L 575 389 L 574 390 L 573 389 L 573 387 L 574 386 L 575 386 L 577 384 "></path>
        <path fill="none" stroke="#00fafa" stroke-width="3" d="M 492 382 L 493 381 L 494 381 L 495 382 L 495 383 L 496 384 L 497 383 L 499 385 L 498 386 L 497 386 L 500 389 L 498 391 L 497 390 L 494 393 L 491 393 L 490 392 L 490 391 L 489 390 L 490 389 L 489 390 L 488 389 L 488 388 L 487 388 L 486 389 L 486 390 L 485 391 L 484 390 L 484 388 L 483 387 L 484 388 L 481 391 L 480 391 L 481 392 L 481 393 L 480 394 L 479 394 L 480 395 L 480 397 L 481 398 L 481 399 L 482 400 L 486 400 L 487 401 L 486 402 L 487 403 L 486 404 L 483 404 L 483 405 L 482 406 L 482 407 L 481 408 L 481 409 L 482 410 L 481 411 L 480 411 L 475 406 L 475 405 L 473 403 L 474 404 L 473 405 L 471 405 L 470 406 L 468 406 L 466 408 L 464 408 L 463 409 L 462 409 L 461 408 L 461 406 L 460 407 L 457 404 L 456 405 L 455 404 L 455 403 L 456 402 L 458 402 L 457 401 L 461 397 L 462 397 L 463 398 L 464 397 L 465 397 L 466 398 L 465 399 L 466 398 L 468 400 L 469 399 L 471 399 L 472 400 L 472 398 L 474 396 L 475 397 L 475 395 L 470 390 L 471 389 L 470 389 L 469 388 L 471 386 L 472 387 L 473 386 L 474 386 L 474 383 L 475 382 L 476 383 L 478 383 L 479 384 L 480 383 L 482 385 L 483 384 L 485 386 L 486 386 L 488 384 L 489 384 L 491 382 "></path>
        <path fill="none" stroke="#00fafa" stroke-width="3" d="M 492 411 L 493 410 L 494 410 L 495 411 L 495 412 L 496 413 L 495 414 L 497 414 L 498 415 L 498 416 L 497 417 L 497 419 L 496 420 L 494 420 L 495 421 L 494 422 L 494 423 L 495 424 L 494 425 L 494 427 L 494 425 L 495 424 L 496 425 L 496 428 L 497 428 L 501 432 L 502 431 L 503 431 L 505 429 L 504 428 L 505 427 L 506 427 L 506 426 L 505 425 L 506 424 L 506 423 L 505 423 L 504 422 L 504 421 L 503 421 L 502 420 L 503 419 L 502 418 L 504 416 L 504 415 L 506 413 L 508 413 L 509 414 L 508 415 L 507 415 L 509 415 L 510 414 L 511 415 L 512 414 L 513 415 L 513 418 L 512 419 L 512 420 L 511 421 L 510 421 L 511 422 L 511 424 L 508 427 L 509 426 L 510 427 L 510 429 L 510 427 L 511 426 L 512 427 L 512 429 L 513 430 L 512 431 L 513 430 L 514 431 L 514 434 L 512 436 L 510 436 L 509 437 L 508 437 L 509 437 L 510 436 L 511 437 L 511 438 L 510 439 L 508 439 L 507 440 L 505 438 L 504 438 L 503 437 L 503 436 L 502 436 L 501 435 L 501 434 L 500 435 L 499 435 L 498 434 L 497 435 L 497 436 L 495 438 L 493 438 L 492 439 L 491 438 L 489 438 L 488 437 L 489 436 L 488 436 L 486 434 L 485 434 L 484 433 L 485 432 L 486 432 L 486 431 L 490 427 L 489 426 L 489 425 L 490 424 L 491 425 L 490 424 L 490 422 L 491 421 L 490 420 L 489 421 L 487 419 L 486 419 L 485 420 L 484 420 L 483 419 L 483 418 L 484 417 L 485 417 L 486 416 L 487 417 L 488 416 L 487 415 L 488 414 L 490 414 L 492 412 L 493 413 L 492 412 "></path>
        <path fill="none" stroke="#00fafa" stroke-width="3" d="M 597 456 L 598 455 L 599 456 L 599 457 L 601 459 L 601 460 L 602 461 L 602 463 L 600 465 L 602 467 L 601 468 L 599 468 L 599 469 L 601 471 L 601 472 L 603 474 L 603 475 L 604 475 L 605 476 L 605 477 L 606 478 L 605 479 L 604 479 L 603 480 L 602 480 L 601 481 L 600 481 L 600 482 L 598 484 L 597 483 L 596 483 L 595 484 L 594 483 L 594 481 L 593 481 L 592 480 L 591 481 L 590 480 L 590 479 L 588 479 L 587 480 L 586 480 L 587 481 L 585 483 L 583 483 L 582 484 L 580 484 L 580 485 L 579 486 L 578 485 L 578 483 L 577 483 L 576 482 L 576 481 L 577 480 L 578 480 L 577 479 L 577 478 L 576 477 L 577 476 L 577 475 L 579 473 L 580 473 L 579 472 L 580 471 L 579 471 L 578 470 L 578 469 L 579 468 L 580 469 L 581 469 L 583 471 L 584 471 L 585 472 L 585 473 L 586 474 L 587 474 L 588 473 L 590 475 L 589 476 L 591 474 L 592 475 L 593 474 L 594 474 L 596 472 L 595 471 L 595 470 L 596 469 L 597 470 L 594 467 L 594 466 L 593 465 L 593 464 L 591 464 L 589 462 L 589 461 L 591 459 L 591 458 L 592 457 L 594 457 L 595 456 L 596 456 L 597 457 "></path>
        <path fill="none" stroke="#00fafa" stroke-width="3" d="M 491 349 L 492 348 L 493 348 L 494 349 L 494 350 L 495 351 L 495 352 L 496 351 L 497 352 L 497 354 L 498 355 L 497 356 L 495 356 L 496 356 L 497 357 L 496 358 L 495 358 L 496 359 L 496 360 L 495 361 L 495 362 L 494 363 L 494 364 L 497 367 L 496 368 L 497 369 L 498 369 L 499 370 L 498 371 L 499 372 L 499 373 L 498 374 L 498 376 L 497 377 L 495 375 L 496 376 L 495 377 L 494 377 L 493 376 L 492 377 L 491 376 L 492 377 L 491 378 L 490 378 L 488 376 L 489 375 L 486 375 L 485 376 L 484 376 L 483 377 L 482 377 L 481 378 L 481 379 L 480 380 L 479 379 L 475 379 L 473 377 L 473 376 L 474 375 L 472 373 L 474 371 L 474 369 L 473 368 L 474 367 L 476 367 L 477 366 L 478 366 L 479 365 L 482 368 L 482 369 L 483 369 L 484 368 L 485 369 L 485 371 L 486 371 L 487 370 L 488 370 L 488 369 L 489 368 L 489 366 L 490 365 L 489 364 L 490 363 L 490 362 L 489 362 L 488 361 L 489 360 L 487 358 L 487 357 L 488 356 L 489 357 L 490 356 L 490 353 L 492 351 L 492 350 "></path>
        <path fill="none" stroke="#00fafa" stroke-width="3" d="M 479 410 L 481 412 L 480 413 L 479 413 L 481 413 L 483 415 L 482 416 L 483 415 L 484 416 L 484 417 L 483 418 L 483 419 L 482 420 L 483 421 L 482 422 L 480 422 L 480 424 L 479 425 L 478 424 L 478 423 L 477 422 L 476 422 L 475 421 L 475 420 L 474 419 L 469 419 L 469 420 L 468 421 L 467 421 L 467 422 L 465 424 L 466 425 L 465 426 L 467 428 L 467 429 L 468 429 L 469 430 L 469 431 L 468 432 L 468 436 L 467 437 L 467 438 L 466 439 L 465 438 L 464 438 L 463 439 L 463 440 L 461 442 L 460 441 L 460 440 L 459 439 L 459 438 L 460 437 L 457 434 L 457 433 L 458 432 L 459 432 L 460 431 L 460 428 L 461 427 L 460 426 L 460 424 L 461 423 L 460 422 L 459 422 L 458 421 L 458 420 L 456 418 L 457 417 L 457 416 L 459 414 L 459 413 L 461 411 L 462 412 L 463 411 L 464 411 L 465 412 L 464 413 L 465 412 L 467 414 L 467 415 L 468 416 L 467 415 L 468 414 L 469 414 L 470 415 L 470 416 L 471 417 L 472 417 L 471 416 L 472 415 L 474 415 L 475 414 L 477 414 L 477 412 "></path>
        <path fill="none" stroke="#00fafa" stroke-width="3" d="M 433 368 L 434 367 L 435 367 L 436 368 L 437 368 L 439 370 L 439 371 L 438 372 L 438 373 L 437 374 L 438 375 L 437 376 L 437 378 L 436 379 L 435 379 L 436 380 L 435 381 L 434 381 L 433 380 L 432 380 L 433 381 L 433 383 L 434 383 L 435 382 L 437 384 L 437 385 L 436 386 L 437 387 L 437 388 L 436 389 L 436 390 L 434 392 L 434 395 L 433 396 L 435 396 L 436 397 L 436 398 L 437 398 L 438 399 L 438 400 L 439 401 L 438 402 L 439 401 L 440 402 L 440 404 L 439 405 L 437 405 L 437 406 L 436 407 L 435 407 L 436 408 L 435 409 L 433 409 L 430 406 L 429 406 L 428 405 L 426 405 L 425 404 L 425 403 L 426 402 L 425 401 L 427 399 L 428 399 L 429 398 L 430 398 L 429 397 L 430 396 L 429 395 L 430 394 L 430 393 L 427 390 L 427 386 L 431 382 L 429 380 L 430 379 L 430 377 L 429 376 L 429 375 L 428 374 L 429 373 L 429 370 L 430 369 L 431 370 L 431 371 L 431 370 L 433 368 L 434 369 "></path>
        <path fill="none" stroke="#00fafa" stroke-width="3" d="M 475 429 L 476 428 L 479 428 L 482 431 L 482 435 L 483 436 L 481 438 L 481 444 L 482 445 L 483 445 L 484 444 L 485 445 L 485 446 L 486 447 L 485 448 L 484 448 L 484 451 L 482 453 L 481 453 L 480 452 L 478 452 L 477 453 L 476 453 L 475 454 L 471 450 L 470 450 L 470 451 L 469 452 L 468 451 L 468 448 L 469 447 L 469 446 L 470 445 L 471 446 L 472 445 L 473 445 L 477 441 L 476 440 L 476 439 L 475 438 L 476 437 L 475 436 L 473 436 L 472 435 L 473 434 L 471 434 L 470 433 L 472 431 L 473 432 L 473 430 L 474 429 "></path>
        <path fill="none" stroke="#00fafa" stroke-width="3" d="M 564 427 L 565 426 L 566 427 L 567 426 L 570 429 L 571 428 L 572 429 L 572 431 L 573 432 L 572 433 L 573 434 L 572 435 L 571 435 L 570 436 L 571 436 L 572 437 L 571 438 L 571 439 L 570 440 L 572 442 L 571 443 L 572 444 L 571 445 L 571 448 L 570 449 L 571 450 L 570 451 L 569 451 L 569 452 L 568 453 L 569 452 L 571 454 L 570 455 L 565 455 L 564 454 L 563 455 L 562 454 L 562 453 L 563 452 L 562 451 L 562 450 L 561 451 L 559 449 L 561 447 L 561 446 L 563 444 L 564 444 L 564 443 L 565 442 L 566 442 L 567 441 L 566 440 L 567 439 L 566 439 L 565 438 L 565 436 L 564 436 L 563 435 L 563 434 L 562 433 L 562 432 L 561 431 L 561 429 L 562 428 L 564 428 "></path>
        <path fill="none" stroke="#00fafa" stroke-width="3" d="M 523 443 L 524 442 L 525 443 L 525 444 L 526 443 L 527 444 L 527 445 L 531 445 L 532 446 L 532 447 L 531 448 L 530 447 L 529 448 L 528 447 L 529 448 L 529 449 L 528 450 L 527 450 L 528 451 L 527 452 L 526 452 L 525 453 L 525 454 L 526 455 L 525 456 L 525 457 L 526 457 L 527 458 L 527 460 L 528 461 L 529 460 L 530 460 L 531 461 L 531 462 L 529 464 L 527 464 L 526 465 L 526 468 L 525 469 L 524 469 L 523 468 L 524 467 L 522 469 L 520 469 L 519 470 L 518 469 L 518 468 L 519 467 L 518 466 L 518 465 L 517 464 L 517 462 L 516 461 L 520 457 L 520 456 L 521 455 L 522 456 L 521 455 L 522 454 L 521 453 L 521 452 L 519 450 L 519 448 L 518 447 L 519 446 L 520 446 L 520 444 L 521 443 "></path>
        <path fill="none" stroke="#00fafa" stroke-width="3" d="M 551 441 L 552 441 L 553 442 L 553 444 L 553 443 L 554 442 L 555 443 L 555 444 L 556 445 L 555 446 L 555 447 L 557 449 L 556 450 L 555 450 L 555 455 L 556 456 L 556 457 L 558 459 L 557 460 L 557 461 L 558 462 L 558 463 L 557 464 L 557 466 L 555 468 L 555 470 L 554 471 L 553 470 L 553 469 L 550 469 L 549 468 L 550 467 L 549 467 L 547 465 L 547 463 L 546 462 L 547 461 L 548 461 L 548 460 L 547 459 L 549 457 L 550 458 L 550 457 L 549 456 L 549 455 L 550 454 L 551 454 L 551 453 L 548 450 L 548 449 L 547 448 L 547 446 L 548 445 L 547 444 L 548 443 L 549 443 "></path>
        <path fill="none" stroke="#00fafa" stroke-width="3" d="M 461 366 L 462 366 L 463 367 L 464 367 L 465 368 L 464 369 L 465 368 L 467 370 L 467 372 L 469 374 L 468 375 L 467 375 L 465 377 L 462 377 L 461 378 L 459 376 L 459 375 L 459 376 L 458 377 L 456 377 L 455 376 L 456 375 L 457 375 L 456 375 L 455 376 L 454 376 L 453 375 L 453 374 L 453 376 L 452 377 L 451 377 L 448 380 L 447 379 L 447 378 L 446 378 L 445 377 L 445 376 L 444 376 L 442 374 L 442 373 L 443 372 L 442 371 L 444 369 L 445 369 L 445 368 L 446 367 L 447 368 L 449 368 L 451 370 L 453 370 L 455 368 L 457 370 L 458 370 L 458 369 "></path>
        <path fill="none" stroke="#00fafa" stroke-width="3" d="M 554 397 L 555 398 L 555 399 L 556 400 L 556 401 L 558 401 L 559 402 L 558 403 L 556 403 L 556 404 L 557 405 L 556 406 L 555 406 L 555 407 L 554 408 L 555 409 L 554 410 L 556 412 L 556 414 L 558 416 L 559 415 L 560 416 L 560 417 L 559 418 L 559 419 L 558 420 L 557 420 L 556 421 L 555 421 L 555 422 L 554 423 L 553 422 L 553 423 L 552 424 L 551 424 L 550 423 L 551 422 L 550 421 L 550 417 L 548 417 L 547 416 L 548 415 L 549 415 L 550 414 L 549 413 L 550 412 L 551 412 L 550 411 L 550 410 L 549 409 L 550 408 L 549 408 L 547 406 L 547 405 L 548 404 L 549 405 L 550 405 L 549 405 L 548 404 L 549 403 L 548 404 L 547 404 L 546 403 L 549 400 L 550 401 L 551 401 L 550 400 L 551 399 L 552 399 "></path>
        <path fill="none" stroke="#00fafa" stroke-width="3" d="M 522 412 L 523 411 L 524 411 L 526 413 L 526 415 L 528 417 L 526 419 L 527 419 L 528 420 L 527 421 L 526 421 L 527 422 L 525 424 L 524 423 L 523 424 L 523 425 L 525 427 L 525 430 L 526 430 L 527 431 L 527 432 L 528 433 L 526 435 L 526 437 L 525 438 L 524 437 L 523 437 L 521 435 L 520 435 L 519 436 L 517 434 L 517 433 L 516 434 L 514 432 L 515 431 L 517 431 L 518 430 L 519 430 L 521 428 L 522 428 L 521 427 L 521 423 L 520 423 L 519 422 L 519 420 L 518 419 L 518 418 L 519 417 L 519 416 L 520 415 L 520 414 L 521 413 L 522 413 "></path>
        <path fill="none" stroke="#00fafa" stroke-width="3" d="M 611 395 L 612 394 L 614 396 L 614 395 L 615 394 L 616 395 L 616 396 L 617 397 L 617 399 L 618 399 L 619 400 L 619 404 L 618 405 L 618 407 L 617 408 L 616 408 L 615 409 L 612 409 L 611 410 L 609 408 L 609 407 L 607 405 L 607 404 L 606 404 L 605 403 L 607 401 L 607 400 L 608 399 L 610 399 L 610 397 L 611 396 "></path>
        <path fill="none" stroke="#00fafa" stroke-width="3" d="M 610 440 L 612 440 L 613 441 L 615 441 L 617 443 L 617 444 L 618 445 L 619 445 L 620 446 L 619 447 L 620 447 L 621 448 L 621 449 L 620 450 L 619 449 L 618 449 L 614 453 L 613 453 L 612 454 L 611 453 L 610 454 L 609 453 L 609 452 L 610 451 L 609 452 L 607 450 L 608 449 L 607 450 L 606 449 L 605 449 L 604 448 L 605 447 L 606 447 L 606 444 L 607 443 L 608 443 L 608 442 "></path>
        <path fill="none" stroke="#00fafa" stroke-width="3" d="M 566 472 L 567 471 L 568 472 L 569 471 L 570 472 L 570 473 L 571 474 L 571 475 L 571 474 L 572 473 L 574 475 L 574 477 L 575 477 L 577 479 L 573 483 L 570 483 L 569 484 L 566 484 L 565 483 L 565 482 L 564 482 L 563 481 L 562 481 L 561 480 L 561 479 L 560 478 L 561 477 L 562 477 L 563 476 L 564 476 L 564 473 L 565 472 "></path>
        <path fill="none" stroke="#00fafa" stroke-width="3" d="M 507 440 L 508 439 L 511 442 L 511 444 L 512 444 L 513 445 L 513 446 L 512 447 L 513 447 L 515 449 L 515 450 L 513 452 L 512 451 L 512 452 L 510 454 L 510 455 L 509 456 L 507 456 L 506 455 L 507 454 L 508 454 L 507 454 L 504 451 L 504 450 L 502 448 L 502 447 L 501 446 L 502 445 L 504 445 L 504 444 L 505 443 L 505 442 L 506 441 L 507 442 "></path>
        <path fill="none" stroke="#00fafa" stroke-width="3" d="M 552 350 L 553 351 L 553 353 L 554 353 L 556 351 L 558 353 L 557 354 L 558 355 L 559 354 L 560 355 L 560 357 L 559 358 L 560 359 L 559 360 L 558 360 L 557 361 L 556 360 L 556 362 L 555 363 L 554 362 L 554 361 L 553 362 L 553 363 L 552 364 L 551 363 L 550 364 L 549 363 L 549 360 L 547 360 L 546 359 L 547 358 L 548 358 L 546 356 L 549 353 L 550 354 L 551 353 L 550 352 "></path>
        <path fill="none" stroke="#00fafa" stroke-width="3" d="M 446 380 L 447 379 L 448 380 L 448 381 L 448 380 L 449 379 L 451 381 L 451 383 L 450 384 L 451 384 L 452 385 L 452 386 L 454 388 L 454 390 L 453 391 L 452 391 L 451 390 L 449 392 L 448 392 L 449 393 L 448 394 L 447 394 L 446 393 L 446 392 L 445 393 L 444 392 L 444 391 L 443 391 L 442 390 L 443 389 L 441 387 L 443 385 L 445 385 L 444 385 L 443 384 L 444 383 L 443 382 L 444 381 L 445 381 L 446 382 "></path>
        <path fill="none" stroke="#00fafa" stroke-width="3" d="M 597 486 L 598 485 L 599 486 L 599 487 L 600 488 L 601 488 L 602 489 L 601 490 L 603 492 L 603 493 L 602 494 L 603 494 L 604 495 L 602 497 L 601 497 L 600 498 L 599 498 L 598 499 L 597 499 L 596 498 L 595 499 L 594 498 L 594 496 L 591 496 L 590 495 L 592 493 L 592 491 L 593 490 L 594 491 L 593 490 L 594 489 L 595 489 L 595 487 L 596 486 L 597 487 "></path>
        <path fill="none" stroke="#00fafa" stroke-width="3" d="M 566 367 L 567 366 L 568 367 L 569 366 L 570 367 L 571 367 L 572 368 L 571 369 L 572 369 L 574 371 L 574 372 L 575 373 L 574 374 L 575 375 L 574 376 L 573 376 L 572 375 L 572 376 L 571 377 L 570 376 L 570 378 L 569 379 L 568 378 L 568 377 L 567 378 L 566 378 L 565 377 L 565 376 L 564 375 L 564 374 L 563 374 L 562 373 L 563 372 L 562 372 L 561 371 L 561 370 L 563 368 L 564 369 L 565 369 L 564 368 L 565 367 "></path>
        <path fill="none" stroke="#00fafa" stroke-width="3" d="M 506 516 L 507 515 L 510 515 L 511 516 L 510 517 L 511 518 L 511 519 L 512 520 L 512 521 L 513 520 L 514 520 L 515 521 L 514 522 L 514 523 L 513 524 L 511 524 L 512 525 L 511 526 L 510 526 L 507 529 L 504 526 L 504 525 L 503 525 L 502 526 L 500 524 L 501 523 L 501 522 L 502 521 L 503 521 L 503 520 L 506 517 "></path>
        <path fill="none" stroke="#00fafa" stroke-width="3" d="M 552 382 L 554 384 L 555 383 L 558 383 L 560 385 L 560 387 L 559 388 L 559 389 L 558 390 L 558 392 L 557 393 L 556 392 L 555 392 L 553 394 L 552 394 L 550 392 L 549 392 L 547 390 L 547 388 L 546 387 L 547 386 L 549 386 L 549 385 "></path>
        <path fill="none" stroke="#00fafa" stroke-width="3" d="M 627 471 L 628 470 L 632 474 L 633 474 L 634 475 L 634 476 L 633 477 L 633 479 L 632 480 L 633 481 L 630 484 L 629 484 L 627 482 L 625 482 L 624 481 L 624 480 L 623 480 L 622 479 L 622 478 L 623 477 L 623 475 L 624 474 L 623 473 L 623 472 L 624 471 L 625 472 L 627 472 "></path>
        <path fill="none" stroke="#00fafa" stroke-width="3" d="M 537 397 L 538 398 L 540 398 L 542 400 L 543 400 L 545 402 L 544 403 L 544 406 L 543 407 L 541 407 L 540 408 L 539 407 L 539 408 L 537 410 L 536 409 L 536 408 L 535 409 L 534 408 L 534 407 L 531 404 L 532 403 L 532 402 L 533 401 L 534 401 L 534 400 "></path>
        <path fill="none" stroke="#00fafa" stroke-width="3" d="M 535 441 L 536 440 L 538 442 L 540 442 L 541 443 L 541 445 L 542 445 L 543 446 L 543 450 L 544 451 L 543 452 L 540 452 L 539 453 L 536 453 L 535 452 L 535 451 L 534 451 L 533 452 L 531 450 L 531 448 L 533 446 L 533 445 L 535 443 "></path>
        <path fill="none" stroke="#00fafa" stroke-width="3" d="M 523 471 L 524 470 L 525 471 L 525 473 L 527 475 L 527 476 L 528 477 L 528 479 L 526 481 L 526 482 L 525 483 L 524 482 L 523 482 L 524 483 L 522 485 L 521 484 L 521 483 L 518 480 L 518 479 L 515 479 L 514 478 L 515 477 L 516 477 L 516 476 L 517 475 L 518 475 L 522 471 "></path>
        <path fill="none" stroke="#00fafa" stroke-width="3" d="M 535 366 L 536 365 L 537 365 L 538 366 L 538 367 L 539 367 L 543 371 L 543 373 L 544 373 L 545 374 L 544 375 L 542 375 L 541 374 L 538 377 L 534 377 L 532 375 L 530 375 L 529 374 L 531 372 L 532 373 L 531 372 L 532 371 L 533 371 L 532 370 L 533 369 L 533 368 L 534 367 L 535 367 "></path>
        <path fill="none" stroke="#00fafa" stroke-width="3" d="M 519 395 L 520 394 L 522 396 L 525 396 L 529 400 L 528 401 L 528 402 L 527 403 L 527 404 L 528 405 L 527 406 L 526 406 L 525 405 L 523 407 L 521 407 L 520 406 L 520 405 L 519 404 L 518 405 L 517 404 L 515 404 L 514 403 L 515 402 L 517 402 L 517 401 L 519 399 L 520 399 L 519 398 L 520 397 L 519 396 "></path>
        <path fill="none" stroke="#00fafa" stroke-width="3" d="M 553 425 L 554 425 L 555 426 L 555 427 L 557 429 L 557 434 L 556 435 L 555 435 L 556 436 L 555 437 L 554 437 L 553 436 L 554 437 L 552 439 L 550 437 L 549 438 L 547 436 L 548 435 L 547 434 L 547 433 L 546 432 L 546 431 L 547 430 L 548 430 L 548 429 L 549 428 L 550 428 "></path>
        <path fill="none" stroke="#00fafa" stroke-width="3" d="M 534 458 L 535 457 L 536 458 L 538 458 L 539 457 L 540 458 L 540 459 L 541 460 L 543 460 L 544 461 L 543 462 L 543 463 L 542 464 L 542 466 L 540 468 L 539 468 L 537 470 L 536 469 L 536 468 L 535 469 L 533 467 L 534 466 L 532 464 L 532 463 L 531 462 L 531 461 L 532 460 L 533 460 L 534 459 "></path>
        <path fill="none" stroke="#00fafa" stroke-width="3" d="M 461 442 L 462 441 L 463 441 L 465 443 L 466 442 L 467 443 L 467 445 L 468 446 L 468 449 L 467 450 L 466 450 L 465 451 L 464 451 L 462 453 L 460 451 L 459 451 L 455 447 L 455 445 L 456 444 L 457 445 L 458 444 L 459 444 L 459 443 L 460 442 L 461 443 "></path>
        <path fill="none" stroke="#00fafa" stroke-width="3" d="M 565 384 L 566 383 L 567 384 L 570 384 L 571 385 L 573 385 L 574 386 L 573 387 L 573 390 L 571 392 L 570 392 L 569 391 L 570 392 L 568 394 L 567 393 L 566 393 L 565 394 L 563 392 L 563 391 L 560 388 L 560 387 L 561 386 L 562 387 L 562 386 L 564 384 "></path>
        <path fill="none" stroke="#00fafa" stroke-width="3" d="M 566 398 L 567 397 L 568 397 L 569 398 L 568 399 L 569 400 L 570 399 L 571 399 L 572 400 L 571 401 L 573 403 L 572 404 L 572 405 L 570 407 L 569 406 L 570 407 L 570 408 L 569 409 L 569 410 L 568 411 L 567 410 L 566 410 L 565 409 L 566 408 L 565 407 L 564 408 L 563 407 L 563 405 L 561 403 L 560 403 L 559 402 L 560 401 L 563 401 L 565 399 L 566 399 "></path>
        <path fill="none" stroke="#00fafa" stroke-width="3" d="M 492 443 L 493 442 L 494 443 L 495 443 L 496 444 L 496 445 L 498 447 L 497 448 L 497 449 L 496 450 L 495 450 L 495 451 L 494 452 L 494 453 L 492 455 L 491 455 L 490 454 L 490 453 L 489 453 L 488 452 L 488 451 L 487 450 L 488 449 L 487 450 L 486 450 L 485 451 L 484 450 L 484 449 L 486 447 L 488 447 L 489 446 L 489 445 L 491 443 "></path>
        <path fill="none" stroke="#00fafa" stroke-width="3" d="M 550 366 L 551 365 L 552 365 L 553 366 L 555 366 L 556 367 L 555 368 L 559 372 L 558 373 L 558 374 L 557 375 L 556 375 L 555 376 L 554 376 L 553 377 L 551 377 L 550 376 L 549 376 L 548 375 L 548 373 L 546 371 L 548 369 L 549 369 L 551 367 "></path>
        <path fill="none" stroke="#00fafa" stroke-width="3" d="M 490 398 L 491 397 L 493 397 L 494 398 L 493 399 L 494 398 L 497 401 L 497 402 L 499 402 L 500 403 L 499 404 L 498 404 L 496 406 L 495 406 L 495 407 L 494 408 L 492 408 L 490 406 L 489 406 L 488 405 L 487 405 L 486 404 L 487 403 L 486 402 L 488 400 L 487 399 L 488 398 "></path>
        <path fill="none" stroke="#00fafa" stroke-width="3" d="M 510 368 L 511 367 L 513 369 L 513 370 L 514 371 L 514 372 L 508 378 L 504 378 L 503 377 L 503 375 L 501 373 L 501 372 L 502 371 L 503 372 L 503 370 L 504 369 L 507 369 L 508 368 "></path>
        <path fill="none" stroke="#00fafa" stroke-width="3" d="M 522 367 L 523 366 L 525 368 L 525 370 L 527 370 L 528 371 L 528 373 L 526 375 L 525 375 L 524 376 L 524 381 L 523 382 L 522 381 L 522 378 L 521 379 L 520 378 L 520 377 L 519 377 L 518 376 L 518 375 L 519 374 L 518 373 L 518 370 L 519 369 L 519 368 L 520 367 "></path>
        <path fill="none" stroke="#00fafa" stroke-width="3" d="M 445 397 L 446 396 L 447 397 L 448 396 L 449 397 L 450 396 L 451 397 L 451 398 L 450 399 L 451 399 L 452 400 L 452 401 L 453 402 L 451 404 L 452 405 L 449 408 L 448 407 L 447 408 L 446 407 L 446 406 L 443 403 L 442 403 L 441 404 L 440 403 L 440 401 L 441 400 L 442 401 L 443 400 L 443 399 L 444 398 L 445 398 "></path>
        <path fill="none" stroke="#00fafa" stroke-width="3" d="M 551 473 L 552 472 L 553 473 L 554 473 L 555 474 L 554 475 L 555 474 L 556 474 L 558 476 L 558 478 L 556 480 L 555 480 L 555 482 L 554 483 L 553 483 L 552 484 L 550 484 L 549 483 L 548 483 L 547 482 L 548 481 L 550 481 L 549 480 L 549 479 L 548 479 L 547 478 L 547 477 L 548 476 L 549 476 L 548 475 L 550 473 "></path>
        <path fill="none" stroke="#00fafa" stroke-width="3" d="M 492 457 L 493 456 L 495 456 L 497 458 L 496 459 L 497 460 L 497 462 L 498 463 L 496 465 L 496 467 L 495 468 L 493 468 L 492 469 L 490 467 L 491 466 L 490 466 L 488 464 L 489 463 L 488 462 L 488 461 L 489 460 L 489 459 L 491 457 "></path>
        <path fill="none" stroke="#00fafa" stroke-width="3" d="M 461 383 L 462 382 L 464 382 L 465 383 L 465 384 L 467 384 L 468 385 L 467 386 L 467 388 L 466 389 L 465 389 L 465 390 L 463 392 L 463 394 L 462 395 L 461 394 L 461 392 L 459 392 L 456 389 L 456 386 L 457 385 L 458 386 L 461 383 L 462 384 L 463 384 L 462 384 "></path>
        <path fill="none" stroke="#00fafa" stroke-width="3" d="M 492 338 L 493 337 L 495 337 L 497 339 L 497 340 L 496 341 L 497 342 L 497 343 L 498 343 L 499 344 L 497 346 L 496 346 L 494 348 L 493 348 L 492 347 L 491 348 L 490 347 L 490 346 L 490 347 L 489 348 L 488 347 L 488 346 L 487 345 L 487 344 L 486 343 L 487 342 L 490 342 L 490 340 L 492 338 L 493 339 "></path>
        <path fill="none" stroke="#00fafa" stroke-width="3" d="M 521 382 L 522 381 L 523 382 L 523 383 L 524 383 L 525 384 L 526 383 L 527 384 L 527 385 L 528 386 L 528 388 L 529 389 L 528 390 L 527 390 L 527 391 L 526 392 L 525 392 L 524 391 L 524 390 L 523 391 L 522 391 L 521 390 L 521 389 L 520 389 L 520 390 L 519 391 L 518 390 L 518 389 L 517 388 L 517 387 L 516 386 L 518 384 L 519 385 L 520 384 L 521 384 L 520 384 L 519 383 L 520 382 "></path>
        <path fill="none" stroke="#00fafa" stroke-width="3" d="M 581 351 L 582 350 L 584 352 L 584 353 L 585 352 L 586 353 L 586 354 L 587 353 L 588 354 L 588 355 L 589 356 L 588 357 L 588 359 L 587 360 L 586 360 L 585 359 L 585 360 L 584 361 L 583 361 L 582 362 L 581 362 L 577 358 L 577 356 L 579 354 L 580 355 L 582 353 L 581 352 "></path>
        <path fill="none" stroke="#00fafa" stroke-width="3" d="M 565 413 L 566 412 L 567 413 L 568 412 L 570 412 L 571 413 L 571 414 L 572 415 L 571 416 L 572 415 L 574 417 L 574 418 L 573 419 L 572 418 L 571 419 L 570 418 L 571 419 L 570 420 L 569 420 L 568 421 L 569 422 L 568 423 L 567 423 L 566 422 L 565 423 L 564 422 L 564 421 L 563 420 L 564 419 L 563 418 L 563 417 L 562 416 L 564 414 L 565 414 "></path>
        <path fill="none" stroke="#00fafa" stroke-width="3" d="M 506 396 L 507 395 L 508 396 L 508 397 L 509 398 L 509 399 L 510 399 L 511 400 L 512 400 L 514 402 L 512 404 L 512 405 L 510 407 L 509 406 L 508 407 L 506 407 L 504 405 L 504 404 L 503 404 L 502 403 L 502 402 L 503 401 L 504 402 L 504 401 L 503 400 L 503 399 L 504 398 L 506 398 "></path>
        <path fill="none" stroke="#00fafa" stroke-width="3" d="M 536 383 L 539 383 L 541 385 L 540 386 L 541 386 L 542 385 L 544 387 L 544 388 L 542 390 L 543 391 L 542 392 L 541 392 L 540 393 L 539 392 L 535 392 L 534 391 L 534 390 L 533 390 L 532 389 L 533 388 L 533 386 "></path>
        <path fill="none" stroke="#00fafa" stroke-width="3" d="M 534 354 L 535 353 L 538 353 L 539 354 L 540 354 L 541 355 L 541 357 L 542 358 L 542 360 L 539 363 L 539 364 L 538 365 L 537 365 L 535 363 L 536 362 L 535 362 L 534 361 L 535 360 L 534 360 L 531 357 L 532 356 L 533 356 L 534 357 L 533 356 L 534 355 L 535 355 "></path>
        <path fill="none" stroke="#00fafa" stroke-width="3" d="M 537 427 L 538 427 L 539 428 L 540 428 L 541 429 L 540 430 L 539 430 L 540 430 L 542 432 L 541 433 L 542 434 L 540 436 L 539 436 L 540 437 L 539 438 L 538 438 L 537 439 L 536 439 L 535 438 L 536 437 L 535 437 L 534 436 L 533 436 L 532 435 L 533 434 L 532 433 L 533 432 L 532 431 L 533 430 L 534 430 "></path>
        <path fill="none" stroke="#00fafa" stroke-width="3" d="M 627 398 L 628 397 L 629 397 L 630 398 L 630 399 L 632 401 L 631 402 L 632 403 L 631 404 L 632 405 L 630 407 L 629 407 L 627 409 L 625 407 L 624 407 L 622 405 L 622 403 L 623 402 L 624 402 L 625 401 L 625 399 L 626 398 "></path>
        <path fill="none" stroke="#00fafa" stroke-width="3" d="M 596 398 L 597 397 L 598 397 L 601 400 L 601 402 L 602 403 L 601 404 L 601 405 L 600 406 L 598 406 L 597 407 L 596 406 L 594 406 L 593 407 L 591 405 L 592 404 L 592 403 L 591 402 L 593 400 L 593 399 L 594 398 "></path>
        <path fill="none" stroke="#00fafa" stroke-width="3" d="M 534 413 L 535 412 L 536 412 L 538 414 L 539 413 L 540 414 L 540 415 L 541 416 L 541 418 L 542 419 L 542 420 L 541 421 L 539 421 L 538 422 L 537 422 L 536 423 L 535 423 L 534 422 L 535 421 L 534 422 L 532 420 L 532 418 L 533 417 L 534 417 L 534 416 L 535 415 L 535 414 "></path>
        <path fill="none" stroke="#00fafa" stroke-width="3" d="M 505 384 L 506 385 L 507 384 L 509 384 L 510 385 L 510 387 L 511 388 L 511 389 L 507 393 L 506 392 L 506 391 L 502 391 L 501 392 L 500 391 L 500 389 "></path>
    </g>
</svg>
