<svg xmlns="http://www.w3.org/2000/svg" xmlns:xlink="http://www.w3.org/1999/xlink" version="1.1" x="0" y="0" width="1056px" height="816px">
    <g id="rootLayer" transform="translate(0.000000, 0.000000)">
        <path fill="none" stroke="#fa00fa" stroke-width="3" d="M 960 666 L 959 667 L 951 667 L 950 668 L 949 668 L 948 669 L 947 669 L 943 673 L 942 673 L 938 677 L 938 678 L 937 679 L 937 680 L 936 681 L 936 682 L 935 683 L 935 684 L 934 685 L 934 691 L 935 692 L 935 694 L 933 696 L 931 696 L 930 695 L 926 695 L 925 696 L 922 696 L 921 697 L 920 697 L 919 698 L 918 698 L 915 701 L 914 701 L 911 704 L 910 704 L 910 705 L 909 706 L 909 709 L 908 710 L 908 724 L 907 725 L 906 725 L 905 726 L 903 726 L 902 725 L 895 725 L 894 726 L 892 726 L 891 727 L 890 727 L 889 728 L 888 728 L 886 730 L 885 730 L 879 736 L 879 737 L 877 739 L 877 740 L 876 741 L 876 742 L 875 743 L 875 745 L 876 746 L 876 748 L 877 749 L 877 753 L 876 754 L 876 755 L 875 756 L 875 760 L 876 761 L 876 763 L 877 764 L 877 765 L 882 770 L 883 770 L 885 772 L 886 772 L 887 773 L 888 773 L 889 774 L 890 774 L 891 775 L 893 775 L 894 776 L 897 776 L 898 777 L 904 777 L 905 776 L 906 777 L 907 776 L 909 776 L 911 774 L 912 774 L 914 772 L 915 772 L 917 770 L 918 770 L 920 768 L 920 767 L 921 766 L 921 765 L 923 763 L 923 762 L 924 761 L 924 760 L 925 759 L 925 754 L 924 753 L 924 752 L 923 751 L 923 748 L 924 747 L 924 746 L 925 745 L 935 745 L 936 746 L 936 747 L 937 748 L 937 752 L 936 753 L 936 756 L 935 757 L 936 758 L 936 760 L 937 761 L 937 762 L 938 763 L 938 765 L 939 766 L 938 767 L 938 769 L 935 772 L 934 772 L 932 774 L 932 779 L 933 780 L 933 781 L 934 782 L 934 783 L 935 784 L 935 785 L 936 786 L 936 789 L 937 790 L 937 791 L 939 793 L 939 794 L 941 796 L 941 797 L 942 798 L 943 798 L 945 800 L 946 800 L 947 801 L 948 801 L 949 802 L 950 802 L 951 803 L 953 803 L 954 804 L 964 804 L 965 805 L 965 806 L 966 807 L 966 809 L 967 810 L 967 811 L 968 812 L 968 813 L 969 814 L 1015 814 L 1018 811 L 1018 810 L 1019 809 L 1020 809 L 1025 814 L 1054 814 L 1054 718 L 1050 718 L 1049 719 L 1046 719 L 1044 717 L 1044 716 L 1043 715 L 1043 713 L 1042 712 L 1042 711 L 1041 710 L 1041 709 L 1040 708 L 1040 707 L 1039 706 L 1039 705 L 1037 703 L 1037 702 L 1032 697 L 1031 697 L 1030 696 L 1028 696 L 1027 695 L 1017 695 L 1016 696 L 1013 696 L 1012 697 L 1009 697 L 1007 699 L 1006 699 L 1000 705 L 1000 706 L 996 710 L 996 711 L 995 712 L 994 712 L 994 713 L 993 714 L 993 718 L 994 719 L 994 722 L 996 724 L 996 726 L 997 727 L 997 729 L 998 730 L 998 731 L 999 732 L 999 733 L 1000 734 L 1000 735 L 1001 736 L 1001 737 L 1003 739 L 1004 739 L 1006 741 L 1007 741 L 1008 742 L 1009 742 L 1010 743 L 1012 743 L 1013 744 L 1017 744 L 1018 745 L 1020 745 L 1022 747 L 1022 750 L 1021 751 L 1021 752 L 1020 753 L 1018 753 L 1017 754 L 1013 754 L 1012 755 L 1011 755 L 1010 756 L 1009 756 L 1007 758 L 1006 758 L 1005 759 L 1001 759 L 1000 758 L 998 758 L 997 757 L 992 757 L 991 756 L 987 756 L 984 753 L 984 750 L 983 749 L 983 742 L 982 741 L 982 740 L 981 739 L 981 730 L 980 729 L 981 728 L 981 727 L 982 726 L 982 725 L 983 724 L 983 722 L 984 721 L 984 719 L 985 718 L 985 717 L 986 716 L 986 712 L 985 711 L 985 710 L 982 707 L 982 706 L 981 705 L 981 703 L 982 702 L 982 701 L 983 700 L 983 699 L 984 698 L 984 697 L 985 696 L 985 695 L 986 694 L 986 693 L 987 692 L 987 691 L 988 690 L 988 689 L 987 688 L 987 686 L 984 683 L 984 681 L 983 680 L 983 679 L 982 678 L 982 677 L 981 676 L 981 675 L 980 675 L 979 674 L 979 673 L 978 672 L 977 672 L 973 668 L 972 668 L 971 667 L 968 667 L 967 666 L 960 666 L 959 667 "></path>
        <path fill="none" stroke="#fa00fa" stroke-width="3" d="M 2 689 L 1 690 L 1 753 L 4 756 L 4 757 L 5 758 L 5 759 L 6 760 L 6 761 L 7 762 L 7 763 L 8 764 L 8 765 L 5 768 L 5 769 L 4 770 L 4 775 L 3 776 L 3 777 L 2 778 L 2 783 L 3 784 L 3 785 L 4 786 L 4 789 L 6 791 L 6 792 L 7 793 L 7 794 L 8 795 L 8 797 L 7 798 L 7 799 L 5 801 L 5 802 L 3 804 L 2 804 L 1 805 L 1 814 L 57 814 L 58 813 L 58 812 L 59 811 L 59 809 L 58 808 L 58 807 L 55 804 L 55 802 L 54 801 L 54 800 L 53 799 L 53 798 L 52 797 L 52 794 L 53 793 L 53 792 L 55 790 L 55 789 L 56 788 L 56 786 L 57 785 L 57 782 L 58 781 L 58 780 L 57 779 L 57 778 L 56 777 L 56 775 L 57 774 L 58 774 L 59 773 L 61 773 L 62 774 L 64 774 L 65 775 L 65 776 L 63 778 L 63 779 L 62 780 L 62 784 L 63 785 L 63 786 L 64 787 L 64 789 L 65 790 L 65 791 L 68 794 L 68 798 L 67 799 L 67 800 L 66 801 L 66 802 L 65 803 L 65 805 L 64 806 L 64 807 L 63 808 L 62 808 L 62 809 L 61 810 L 61 812 L 62 813 L 62 814 L 116 814 L 116 811 L 115 810 L 115 808 L 114 807 L 114 805 L 116 803 L 117 803 L 118 804 L 123 804 L 124 803 L 127 803 L 128 802 L 129 802 L 130 801 L 131 801 L 133 799 L 134 799 L 135 798 L 136 798 L 142 792 L 142 791 L 145 788 L 145 786 L 146 785 L 146 784 L 145 783 L 145 780 L 144 779 L 144 772 L 143 771 L 143 770 L 142 769 L 142 768 L 141 767 L 141 766 L 140 765 L 140 763 L 137 760 L 136 760 L 134 758 L 132 758 L 131 757 L 129 757 L 128 756 L 114 756 L 113 757 L 109 757 L 108 758 L 103 758 L 102 757 L 100 757 L 99 756 L 97 756 L 96 755 L 94 755 L 93 754 L 91 754 L 89 752 L 89 751 L 88 750 L 88 745 L 87 744 L 87 742 L 82 737 L 82 736 L 81 735 L 81 734 L 75 728 L 73 728 L 72 727 L 71 727 L 70 726 L 68 726 L 67 725 L 65 725 L 64 724 L 56 724 L 52 720 L 52 707 L 51 706 L 51 705 L 44 698 L 43 698 L 42 697 L 41 697 L 40 696 L 36 696 L 35 695 L 25 695 L 24 696 L 21 696 L 20 697 L 18 697 L 17 698 L 16 697 L 15 697 L 11 693 L 10 693 L 9 692 L 8 692 L 6 690 L 4 690 L 3 689 L 2 689 L 1 690 "></path>
        <path fill="none" stroke="#fa00fa" stroke-width="3" d="M 957 1 L 955 3 L 954 3 L 953 4 L 952 4 L 951 5 L 950 5 L 949 6 L 948 6 L 947 7 L 945 7 L 937 15 L 937 16 L 936 17 L 936 19 L 934 21 L 934 28 L 936 30 L 936 33 L 934 35 L 926 35 L 925 36 L 923 36 L 922 37 L 921 37 L 919 39 L 918 39 L 917 40 L 916 40 L 915 41 L 914 41 L 913 42 L 912 42 L 909 45 L 909 46 L 908 47 L 908 48 L 907 49 L 907 51 L 906 52 L 906 61 L 907 62 L 907 63 L 908 64 L 908 65 L 909 66 L 909 67 L 910 68 L 910 70 L 911 71 L 911 73 L 912 74 L 912 75 L 917 80 L 918 80 L 919 81 L 920 81 L 921 82 L 922 82 L 923 83 L 936 83 L 937 82 L 939 82 L 941 80 L 942 80 L 944 78 L 945 78 L 950 73 L 950 72 L 951 71 L 951 70 L 952 69 L 952 68 L 954 66 L 954 64 L 955 63 L 955 58 L 956 57 L 956 56 L 957 55 L 963 55 L 965 57 L 965 59 L 967 61 L 967 66 L 968 67 L 968 68 L 969 69 L 969 72 L 973 76 L 973 77 L 978 82 L 979 82 L 980 83 L 981 83 L 982 84 L 985 84 L 986 85 L 987 84 L 988 85 L 989 84 L 991 84 L 992 83 L 996 83 L 997 82 L 998 83 L 1000 81 L 1002 81 L 1007 76 L 1008 76 L 1010 74 L 1010 73 L 1012 71 L 1012 68 L 1013 67 L 1013 66 L 1014 65 L 1014 59 L 1016 57 L 1017 57 L 1018 56 L 1026 56 L 1027 55 L 1028 55 L 1029 54 L 1031 54 L 1032 53 L 1033 53 L 1034 52 L 1035 52 L 1039 48 L 1039 47 L 1040 46 L 1040 45 L 1042 43 L 1042 42 L 1043 41 L 1043 36 L 1044 35 L 1044 33 L 1045 32 L 1045 31 L 1046 30 L 1046 26 L 1045 25 L 1045 18 L 1044 17 L 1044 16 L 1042 14 L 1042 13 L 1041 13 L 1039 11 L 1039 10 L 1038 10 L 1036 8 L 1035 8 L 1034 7 L 1033 7 L 1031 5 L 1030 5 L 1029 4 L 1028 4 L 1027 3 L 1027 2 L 1026 1 L 957 1 L 955 3 "></path>
        <path fill="none" stroke="#fa00fa" stroke-width="3" d="M 867 1 L 867 4 L 866 5 L 866 6 L 865 7 L 862 7 L 861 8 L 860 8 L 859 9 L 857 9 L 853 13 L 853 14 L 852 15 L 852 16 L 849 19 L 849 20 L 846 23 L 846 25 L 845 26 L 845 29 L 844 30 L 844 31 L 845 32 L 845 36 L 844 37 L 842 37 L 841 38 L 840 37 L 838 37 L 837 38 L 834 38 L 833 39 L 830 39 L 824 45 L 824 46 L 821 49 L 820 49 L 819 50 L 818 50 L 818 51 L 817 52 L 817 53 L 816 54 L 816 59 L 817 60 L 817 64 L 818 65 L 818 67 L 819 68 L 819 69 L 820 70 L 820 72 L 821 73 L 821 74 L 822 75 L 822 78 L 821 79 L 821 80 L 820 81 L 820 82 L 818 84 L 818 85 L 817 86 L 817 92 L 818 93 L 818 95 L 819 96 L 819 97 L 820 98 L 820 102 L 822 104 L 823 104 L 827 108 L 828 108 L 830 110 L 831 110 L 832 111 L 833 111 L 834 112 L 847 112 L 848 111 L 850 111 L 852 109 L 853 109 L 860 102 L 860 101 L 866 95 L 866 94 L 867 93 L 866 92 L 866 90 L 865 90 L 863 88 L 863 87 L 862 86 L 862 83 L 863 82 L 876 82 L 877 81 L 879 81 L 880 80 L 883 80 L 885 78 L 886 78 L 888 76 L 888 75 L 890 73 L 890 71 L 891 70 L 891 68 L 892 67 L 892 66 L 893 65 L 893 64 L 894 63 L 894 55 L 893 54 L 893 52 L 892 51 L 892 50 L 891 49 L 891 47 L 890 46 L 890 43 L 891 42 L 891 41 L 892 40 L 893 40 L 894 39 L 894 38 L 895 37 L 895 35 L 896 34 L 896 31 L 895 30 L 896 29 L 896 28 L 898 26 L 902 26 L 903 25 L 907 25 L 908 24 L 910 24 L 911 23 L 912 23 L 913 22 L 915 22 L 916 21 L 918 21 L 919 20 L 920 20 L 921 19 L 922 19 L 936 5 L 936 3 L 937 2 L 936 1 L 867 1 L 867 4 "></path>
        <path fill="none" stroke="#fa00fa" stroke-width="3" d="M 270 37 L 269 38 L 262 38 L 261 39 L 258 39 L 256 41 L 255 41 L 254 42 L 253 42 L 253 43 L 249 47 L 249 49 L 248 50 L 248 52 L 247 53 L 247 57 L 248 58 L 248 62 L 249 63 L 249 65 L 250 66 L 250 68 L 251 69 L 251 70 L 253 72 L 253 73 L 254 74 L 255 74 L 259 78 L 260 78 L 262 80 L 264 80 L 265 81 L 269 81 L 270 82 L 274 82 L 275 81 L 278 81 L 280 83 L 280 86 L 278 88 L 278 89 L 277 90 L 277 98 L 278 99 L 278 100 L 277 101 L 276 101 L 275 100 L 272 100 L 271 99 L 264 99 L 263 100 L 261 100 L 260 101 L 259 101 L 257 103 L 256 103 L 256 104 L 252 108 L 252 109 L 249 112 L 249 114 L 248 115 L 248 118 L 247 119 L 247 122 L 246 123 L 246 124 L 247 125 L 247 126 L 248 127 L 248 128 L 249 129 L 249 130 L 250 131 L 251 131 L 253 133 L 254 133 L 257 136 L 259 136 L 261 138 L 263 138 L 264 139 L 265 139 L 266 140 L 275 140 L 276 139 L 279 139 L 280 138 L 281 138 L 283 136 L 284 136 L 286 134 L 286 133 L 288 131 L 289 131 L 291 129 L 291 127 L 292 126 L 292 118 L 291 117 L 291 114 L 293 112 L 305 112 L 306 111 L 307 111 L 308 110 L 310 110 L 311 109 L 312 109 L 313 108 L 314 108 L 318 104 L 318 102 L 319 101 L 319 100 L 320 99 L 320 98 L 322 96 L 322 92 L 321 91 L 321 90 L 320 89 L 320 84 L 321 83 L 320 82 L 320 81 L 319 80 L 319 79 L 318 78 L 318 76 L 314 72 L 312 72 L 310 70 L 309 70 L 308 69 L 307 69 L 306 68 L 303 68 L 302 67 L 297 67 L 296 68 L 292 68 L 291 67 L 291 64 L 292 63 L 292 58 L 293 57 L 293 52 L 292 51 L 292 49 L 291 48 L 291 47 L 290 46 L 290 45 L 288 43 L 288 42 L 286 40 L 284 40 L 282 38 L 279 38 L 278 37 L 270 37 L 269 38 "></path>
        <path fill="none" stroke="#fa00fa" stroke-width="3" d="M 56 426 L 55 427 L 53 427 L 52 428 L 51 428 L 50 429 L 49 429 L 47 431 L 45 431 L 40 436 L 40 437 L 39 438 L 39 444 L 40 445 L 40 451 L 39 452 L 40 453 L 40 456 L 37 459 L 35 459 L 34 458 L 25 458 L 24 459 L 22 459 L 20 461 L 19 461 L 17 463 L 16 463 L 15 464 L 14 464 L 12 466 L 11 466 L 8 469 L 8 471 L 7 472 L 7 475 L 6 476 L 6 477 L 4 479 L 2 479 L 1 480 L 1 543 L 4 543 L 5 542 L 6 542 L 17 531 L 17 530 L 20 527 L 20 526 L 21 525 L 21 522 L 22 521 L 22 520 L 24 518 L 24 505 L 25 504 L 26 504 L 27 503 L 29 503 L 30 504 L 31 503 L 38 503 L 39 502 L 40 502 L 41 501 L 43 501 L 45 499 L 46 499 L 47 498 L 47 497 L 49 495 L 50 495 L 51 494 L 51 493 L 53 491 L 53 483 L 54 482 L 54 478 L 53 477 L 53 475 L 52 474 L 52 472 L 51 471 L 51 470 L 53 468 L 55 468 L 56 469 L 57 469 L 58 470 L 61 470 L 62 471 L 63 470 L 67 470 L 68 469 L 69 469 L 70 468 L 71 468 L 74 465 L 75 465 L 78 462 L 78 461 L 79 460 L 79 457 L 82 454 L 82 453 L 83 452 L 83 447 L 82 446 L 82 445 L 81 444 L 81 443 L 80 442 L 80 441 L 81 440 L 80 439 L 80 437 L 75 432 L 74 432 L 70 428 L 68 428 L 67 427 L 65 427 L 64 426 L 56 426 L 55 427 "></path>
        <path fill="none" stroke="#fa00fa" stroke-width="3" d="M 325 1 L 324 2 L 325 3 L 325 5 L 326 6 L 327 6 L 328 7 L 328 8 L 329 8 L 331 10 L 332 10 L 334 12 L 335 12 L 338 15 L 338 16 L 341 19 L 343 19 L 345 21 L 346 21 L 347 22 L 349 22 L 350 23 L 353 23 L 354 24 L 368 24 L 370 26 L 370 29 L 371 30 L 371 34 L 370 35 L 370 36 L 369 37 L 368 37 L 367 38 L 366 37 L 354 37 L 353 38 L 352 38 L 351 39 L 350 39 L 347 42 L 346 42 L 343 45 L 342 45 L 342 46 L 340 48 L 340 49 L 339 50 L 339 51 L 338 52 L 338 59 L 337 60 L 337 64 L 338 65 L 338 66 L 339 67 L 339 68 L 340 69 L 340 70 L 342 72 L 342 73 L 346 77 L 347 77 L 348 78 L 349 78 L 350 79 L 352 79 L 353 80 L 357 80 L 358 81 L 366 81 L 367 80 L 368 80 L 369 79 L 371 79 L 373 77 L 374 77 L 374 76 L 375 75 L 376 75 L 378 73 L 378 72 L 381 69 L 381 68 L 382 67 L 382 66 L 383 65 L 383 59 L 381 57 L 381 55 L 380 54 L 382 52 L 385 52 L 386 53 L 396 53 L 397 52 L 400 52 L 401 51 L 402 51 L 403 50 L 404 50 L 407 47 L 407 46 L 408 45 L 408 44 L 409 43 L 409 42 L 411 40 L 411 38 L 412 37 L 412 30 L 413 29 L 413 23 L 412 22 L 412 21 L 411 20 L 411 19 L 410 18 L 410 17 L 409 16 L 409 15 L 405 11 L 404 11 L 402 9 L 401 9 L 400 8 L 399 8 L 398 7 L 396 7 L 394 5 L 394 2 L 393 1 L 325 1 L 324 2 "></path>
        <path fill="none" stroke="#fa00fa" stroke-width="3" d="M 750 756 L 749 757 L 744 757 L 743 758 L 741 758 L 740 759 L 739 759 L 738 760 L 737 760 L 735 762 L 734 762 L 731 765 L 731 766 L 730 767 L 730 768 L 728 770 L 728 771 L 727 772 L 727 774 L 728 775 L 728 778 L 727 779 L 727 780 L 726 781 L 726 782 L 725 783 L 725 786 L 726 787 L 726 788 L 727 789 L 727 791 L 728 792 L 728 793 L 730 795 L 730 798 L 729 799 L 729 800 L 725 804 L 725 805 L 724 806 L 724 807 L 723 808 L 722 808 L 721 809 L 720 809 L 720 810 L 719 811 L 719 813 L 720 814 L 772 814 L 773 813 L 773 811 L 772 810 L 772 803 L 774 801 L 777 801 L 778 802 L 786 802 L 787 801 L 788 801 L 789 800 L 790 800 L 792 798 L 793 798 L 794 797 L 795 797 L 797 795 L 798 795 L 803 790 L 803 789 L 804 788 L 804 781 L 803 780 L 803 779 L 802 778 L 802 777 L 803 776 L 803 775 L 802 774 L 802 772 L 801 771 L 801 770 L 800 769 L 800 767 L 799 766 L 799 765 L 798 764 L 798 763 L 794 759 L 792 759 L 791 758 L 789 758 L 788 757 L 774 757 L 772 759 L 769 759 L 768 760 L 761 760 L 759 758 L 757 758 L 756 757 L 751 757 L 750 756 L 749 757 "></path>
        <path fill="none" stroke="#fa00fa" stroke-width="3" d="M 958 216 L 957 217 L 954 217 L 953 218 L 952 218 L 951 219 L 950 219 L 947 222 L 946 222 L 937 231 L 937 234 L 936 235 L 936 237 L 937 238 L 937 240 L 936 241 L 936 242 L 937 243 L 936 244 L 936 245 L 935 246 L 934 246 L 933 247 L 931 247 L 930 246 L 929 247 L 924 247 L 923 248 L 922 247 L 921 248 L 920 248 L 919 249 L 918 249 L 917 250 L 916 250 L 910 256 L 910 258 L 909 259 L 909 265 L 908 266 L 908 268 L 909 269 L 909 270 L 910 271 L 910 275 L 911 276 L 910 277 L 911 278 L 911 281 L 913 283 L 913 285 L 918 290 L 919 290 L 920 291 L 921 291 L 923 293 L 925 293 L 926 294 L 934 294 L 935 293 L 936 293 L 937 292 L 939 292 L 941 290 L 942 290 L 947 285 L 947 284 L 949 282 L 949 281 L 950 280 L 950 279 L 951 278 L 951 277 L 952 276 L 952 275 L 953 274 L 953 266 L 954 265 L 954 263 L 955 262 L 957 262 L 958 263 L 959 263 L 960 262 L 961 263 L 962 263 L 963 262 L 967 262 L 968 261 L 970 261 L 971 260 L 972 260 L 976 256 L 976 255 L 977 254 L 977 252 L 978 251 L 978 250 L 979 249 L 979 248 L 980 247 L 980 246 L 982 244 L 982 242 L 983 241 L 983 236 L 984 235 L 984 234 L 983 233 L 983 232 L 982 231 L 982 230 L 981 229 L 981 228 L 980 227 L 980 226 L 974 220 L 973 220 L 972 219 L 971 219 L 970 218 L 969 218 L 968 217 L 965 217 L 964 216 L 958 216 L 957 217 "></path>
        <path fill="none" stroke="#fa00fa" stroke-width="3" d="M 146 36 L 145 37 L 141 37 L 140 38 L 138 38 L 137 39 L 136 39 L 135 40 L 134 40 L 132 42 L 132 43 L 130 45 L 130 46 L 125 51 L 125 53 L 124 54 L 124 57 L 125 58 L 125 63 L 126 64 L 126 67 L 128 69 L 128 70 L 129 71 L 129 72 L 130 73 L 130 77 L 129 78 L 129 79 L 128 80 L 128 81 L 126 83 L 126 84 L 125 85 L 125 87 L 124 88 L 124 91 L 125 92 L 125 94 L 126 95 L 126 100 L 132 106 L 133 106 L 136 109 L 137 109 L 139 111 L 141 111 L 142 112 L 145 112 L 146 113 L 156 113 L 157 112 L 159 112 L 160 111 L 161 111 L 162 110 L 163 110 L 169 104 L 170 104 L 170 103 L 172 101 L 172 100 L 173 99 L 173 96 L 175 94 L 175 92 L 176 91 L 176 89 L 175 88 L 175 85 L 174 84 L 174 83 L 173 82 L 173 81 L 172 80 L 172 79 L 170 77 L 170 76 L 169 75 L 170 74 L 170 73 L 172 71 L 172 69 L 174 67 L 174 66 L 175 65 L 175 54 L 174 53 L 174 52 L 173 51 L 173 50 L 161 38 L 160 38 L 159 37 L 156 37 L 155 36 L 146 36 L 145 37 "></path>
        <path fill="none" stroke="#fa00fa" stroke-width="3" d="M 116 128 L 115 129 L 113 129 L 112 130 L 110 130 L 108 132 L 107 132 L 106 133 L 106 134 L 101 139 L 101 140 L 99 142 L 99 143 L 98 144 L 98 146 L 97 147 L 97 148 L 95 150 L 95 153 L 94 154 L 94 155 L 95 156 L 95 158 L 96 159 L 96 161 L 97 162 L 97 163 L 100 166 L 100 168 L 97 171 L 97 172 L 96 173 L 96 174 L 95 175 L 95 185 L 96 186 L 96 187 L 98 189 L 98 190 L 99 191 L 99 192 L 100 193 L 100 194 L 101 195 L 101 196 L 102 196 L 107 201 L 108 201 L 109 202 L 111 202 L 112 203 L 115 203 L 116 204 L 127 204 L 128 203 L 129 203 L 130 202 L 131 202 L 132 201 L 133 201 L 139 195 L 139 194 L 140 193 L 140 189 L 143 186 L 143 185 L 144 184 L 144 183 L 146 181 L 146 177 L 145 176 L 145 175 L 143 173 L 143 171 L 141 169 L 141 168 L 140 167 L 140 165 L 141 164 L 141 161 L 142 160 L 142 159 L 143 158 L 143 156 L 144 155 L 144 149 L 142 147 L 142 145 L 141 144 L 141 141 L 130 130 L 129 130 L 128 129 L 127 129 L 126 128 L 116 128 L 115 129 "></path>
        <path fill="none" stroke="#fa00fa" stroke-width="3" d="M 175 126 L 174 127 L 173 127 L 172 128 L 170 128 L 168 130 L 167 130 L 164 133 L 164 134 L 161 137 L 161 138 L 157 142 L 157 146 L 158 147 L 158 148 L 157 149 L 157 154 L 158 155 L 158 156 L 159 157 L 159 158 L 160 159 L 160 160 L 161 161 L 161 166 L 160 167 L 160 169 L 159 170 L 159 171 L 158 172 L 158 180 L 159 181 L 159 186 L 160 187 L 160 188 L 162 190 L 162 191 L 164 193 L 164 194 L 168 198 L 169 198 L 170 199 L 171 199 L 172 200 L 173 200 L 174 201 L 177 201 L 178 202 L 186 202 L 187 201 L 188 201 L 189 200 L 190 200 L 195 195 L 195 194 L 196 193 L 196 190 L 199 187 L 199 186 L 200 185 L 200 182 L 201 181 L 201 172 L 200 171 L 200 168 L 199 167 L 199 162 L 202 159 L 202 158 L 204 156 L 204 143 L 202 141 L 202 140 L 201 139 L 201 138 L 200 137 L 200 136 L 199 135 L 199 134 L 198 133 L 197 133 L 195 131 L 194 131 L 191 128 L 189 128 L 188 127 L 187 127 L 186 126 L 175 126 L 174 127 "></path>
        <path fill="none" stroke="#fa00fa" stroke-width="3" d="M 896 129 L 895 130 L 893 130 L 892 131 L 890 131 L 888 133 L 886 133 L 884 135 L 883 135 L 882 136 L 882 137 L 881 138 L 881 139 L 880 140 L 880 141 L 879 142 L 878 142 L 874 146 L 874 150 L 875 151 L 875 154 L 876 155 L 876 156 L 877 157 L 877 159 L 882 164 L 883 164 L 886 167 L 887 167 L 889 169 L 891 169 L 892 170 L 893 170 L 894 171 L 896 171 L 897 172 L 901 172 L 902 173 L 903 172 L 906 172 L 908 170 L 910 170 L 913 167 L 914 168 L 915 168 L 916 169 L 917 169 L 921 173 L 924 173 L 925 174 L 927 174 L 928 175 L 934 175 L 935 174 L 938 174 L 939 173 L 940 173 L 941 172 L 942 172 L 945 169 L 946 169 L 946 168 L 948 166 L 948 165 L 949 164 L 949 163 L 950 162 L 950 161 L 951 160 L 951 158 L 952 157 L 952 144 L 951 143 L 951 140 L 950 139 L 950 136 L 948 134 L 947 134 L 945 132 L 943 132 L 942 131 L 940 131 L 939 130 L 935 130 L 934 129 L 930 129 L 929 130 L 927 130 L 926 129 L 925 130 L 922 130 L 921 131 L 920 131 L 919 132 L 918 132 L 917 133 L 912 133 L 910 131 L 908 131 L 907 130 L 904 130 L 903 129 L 896 129 L 895 130 "></path>
        <path fill="none" stroke="#fa00fa" stroke-width="3" d="M 686 37 L 685 38 L 683 38 L 682 39 L 681 39 L 673 47 L 673 48 L 672 49 L 672 50 L 671 51 L 671 53 L 670 54 L 670 59 L 669 60 L 669 65 L 670 66 L 670 69 L 673 72 L 673 74 L 678 79 L 679 79 L 680 80 L 681 80 L 682 81 L 683 81 L 684 82 L 688 82 L 689 83 L 691 83 L 692 82 L 696 82 L 697 81 L 701 81 L 702 82 L 702 83 L 700 85 L 700 86 L 699 87 L 699 89 L 700 90 L 700 95 L 701 96 L 701 98 L 702 99 L 702 101 L 703 102 L 703 103 L 706 106 L 707 106 L 710 109 L 711 109 L 712 110 L 713 110 L 714 111 L 717 111 L 718 112 L 719 111 L 720 111 L 721 112 L 722 112 L 723 111 L 726 111 L 727 110 L 728 110 L 729 109 L 731 109 L 737 103 L 737 102 L 738 101 L 738 95 L 740 93 L 740 88 L 739 87 L 739 86 L 738 85 L 738 84 L 737 83 L 737 80 L 736 79 L 736 78 L 734 76 L 732 76 L 730 74 L 730 73 L 729 73 L 727 71 L 725 71 L 724 70 L 717 70 L 716 71 L 714 71 L 711 74 L 709 74 L 708 73 L 709 72 L 709 71 L 712 68 L 712 59 L 710 57 L 709 57 L 708 56 L 708 49 L 707 48 L 707 47 L 705 45 L 705 44 L 703 42 L 703 41 L 702 40 L 701 40 L 700 39 L 699 39 L 698 38 L 695 38 L 694 37 L 686 37 L 685 38 "></path>
        <path fill="none" stroke="#fa00fa" stroke-width="3" d="M 388 672 L 387 673 L 383 673 L 382 674 L 380 674 L 379 675 L 378 675 L 376 677 L 376 678 L 375 679 L 374 679 L 371 682 L 370 682 L 368 684 L 368 688 L 370 690 L 370 691 L 371 692 L 371 694 L 370 695 L 370 697 L 371 698 L 371 700 L 369 702 L 368 701 L 367 701 L 366 700 L 354 700 L 353 701 L 352 701 L 351 702 L 350 702 L 347 705 L 346 705 L 343 708 L 342 708 L 339 711 L 338 711 L 338 712 L 337 713 L 337 715 L 338 716 L 338 718 L 339 719 L 339 720 L 340 721 L 340 723 L 341 724 L 341 728 L 342 729 L 342 730 L 344 732 L 344 733 L 345 734 L 345 735 L 346 736 L 347 736 L 350 739 L 353 739 L 354 740 L 357 740 L 358 741 L 359 741 L 360 740 L 361 740 L 362 741 L 363 740 L 366 740 L 367 739 L 369 739 L 371 737 L 372 737 L 373 736 L 373 735 L 375 733 L 375 732 L 376 731 L 377 731 L 382 726 L 382 723 L 383 722 L 383 720 L 382 719 L 382 717 L 380 715 L 380 714 L 379 713 L 379 711 L 380 710 L 389 710 L 390 711 L 391 710 L 397 710 L 398 709 L 399 709 L 403 705 L 403 704 L 407 700 L 407 699 L 408 698 L 408 695 L 409 694 L 409 692 L 410 691 L 410 689 L 411 688 L 411 685 L 407 681 L 407 680 L 403 676 L 402 676 L 401 675 L 400 675 L 399 674 L 397 674 L 396 673 L 391 673 L 390 672 L 389 673 L 388 672 L 387 673 "></path>
        <path fill="none" stroke="#fa00fa" stroke-width="3" d="M 354 639 L 353 640 L 352 640 L 351 641 L 350 641 L 346 645 L 345 645 L 344 646 L 343 645 L 341 645 L 339 643 L 337 643 L 336 642 L 331 642 L 330 641 L 326 641 L 325 640 L 324 641 L 321 641 L 320 642 L 318 642 L 316 644 L 316 647 L 313 650 L 313 651 L 311 653 L 311 655 L 310 656 L 310 661 L 309 662 L 309 663 L 308 664 L 308 669 L 310 671 L 311 671 L 314 674 L 315 674 L 318 677 L 319 677 L 321 679 L 324 679 L 325 680 L 329 680 L 330 681 L 336 681 L 337 680 L 339 680 L 340 679 L 341 679 L 342 678 L 343 678 L 344 677 L 345 677 L 346 678 L 347 678 L 348 679 L 349 679 L 350 680 L 352 680 L 353 681 L 365 681 L 366 680 L 368 680 L 369 679 L 370 679 L 374 675 L 374 674 L 376 672 L 376 671 L 379 668 L 379 662 L 380 661 L 380 660 L 381 659 L 381 655 L 380 654 L 380 652 L 379 651 L 379 649 L 378 648 L 378 647 L 376 645 L 375 645 L 374 644 L 372 644 L 371 643 L 369 643 L 368 642 L 367 642 L 366 641 L 364 641 L 363 640 L 361 640 L 360 639 L 354 639 L 353 640 "></path>
        <path fill="none" stroke="#fa00fa" stroke-width="3" d="M 386 788 L 385 789 L 383 789 L 382 790 L 381 790 L 379 792 L 378 792 L 377 793 L 377 794 L 371 800 L 370 800 L 369 801 L 368 801 L 368 802 L 366 804 L 366 809 L 367 810 L 367 811 L 368 812 L 368 814 L 473 814 L 474 813 L 474 811 L 472 809 L 472 806 L 471 805 L 471 804 L 470 803 L 470 799 L 469 798 L 469 797 L 468 796 L 468 795 L 466 793 L 465 793 L 463 791 L 462 791 L 461 790 L 459 790 L 458 789 L 445 789 L 444 790 L 442 790 L 441 791 L 440 791 L 439 792 L 438 792 L 437 793 L 436 793 L 435 794 L 434 793 L 432 793 L 431 792 L 429 792 L 428 791 L 427 791 L 426 790 L 423 790 L 422 789 L 421 790 L 419 790 L 418 789 L 417 790 L 413 790 L 412 791 L 410 791 L 408 793 L 405 793 L 404 794 L 403 793 L 401 793 L 398 790 L 396 790 L 395 789 L 391 789 L 390 788 L 386 788 L 385 789 "></path>
        <path fill="none" stroke="#fa00fa" stroke-width="3" d="M 20 1 L 19 2 L 20 3 L 20 4 L 21 5 L 21 6 L 23 8 L 24 8 L 25 9 L 25 10 L 26 11 L 27 11 L 30 14 L 31 14 L 38 21 L 40 21 L 42 23 L 44 23 L 45 24 L 47 24 L 48 25 L 49 25 L 50 26 L 52 26 L 53 27 L 63 27 L 64 26 L 67 26 L 68 25 L 71 25 L 72 24 L 77 24 L 78 25 L 80 25 L 81 26 L 84 26 L 85 27 L 99 27 L 100 26 L 102 26 L 104 24 L 105 24 L 106 23 L 107 23 L 109 21 L 110 21 L 113 18 L 114 18 L 117 15 L 118 15 L 123 10 L 123 9 L 128 4 L 128 1 L 20 1 L 19 2 "></path>
        <path fill="none" stroke="#fa00fa" stroke-width="3" d="M 30 634 L 29 635 L 24 635 L 23 636 L 21 636 L 20 637 L 18 637 L 17 638 L 16 638 L 8 646 L 8 647 L 7 648 L 7 649 L 6 650 L 6 651 L 5 652 L 5 654 L 4 655 L 4 656 L 3 657 L 3 658 L 2 659 L 2 663 L 4 665 L 4 666 L 5 667 L 5 670 L 6 671 L 6 672 L 8 674 L 9 674 L 10 675 L 10 676 L 11 676 L 17 682 L 18 682 L 20 684 L 21 684 L 22 685 L 25 685 L 26 686 L 35 686 L 36 685 L 39 685 L 40 684 L 41 684 L 44 681 L 45 681 L 47 679 L 47 678 L 48 677 L 49 677 L 51 675 L 51 674 L 52 673 L 52 672 L 53 671 L 53 670 L 54 669 L 54 668 L 55 667 L 55 666 L 56 665 L 56 664 L 58 662 L 58 661 L 57 660 L 57 658 L 55 656 L 55 655 L 54 654 L 54 651 L 53 650 L 53 648 L 46 641 L 46 640 L 44 638 L 43 638 L 42 637 L 40 637 L 39 636 L 38 636 L 37 635 L 31 635 L 30 634 L 29 635 "></path>
        <path fill="none" stroke="#fa00fa" stroke-width="3" d="M 62 124 L 61 125 L 54 125 L 53 126 L 50 126 L 49 127 L 48 127 L 47 128 L 46 128 L 44 130 L 44 131 L 43 132 L 42 132 L 42 133 L 38 137 L 38 138 L 37 139 L 37 141 L 36 142 L 36 144 L 34 146 L 34 147 L 33 148 L 33 155 L 34 156 L 34 158 L 35 159 L 35 160 L 36 161 L 36 162 L 37 163 L 37 164 L 44 171 L 45 171 L 46 172 L 47 172 L 48 173 L 49 173 L 50 174 L 53 174 L 54 175 L 65 175 L 66 174 L 68 174 L 69 173 L 70 173 L 71 172 L 72 172 L 73 171 L 74 171 L 77 168 L 78 168 L 84 162 L 84 161 L 85 160 L 85 159 L 86 158 L 86 156 L 87 155 L 87 154 L 86 153 L 86 150 L 84 148 L 84 146 L 83 145 L 83 144 L 82 143 L 82 142 L 81 141 L 81 140 L 80 139 L 80 138 L 79 137 L 79 135 L 78 134 L 78 133 L 76 131 L 76 130 L 75 129 L 74 129 L 73 128 L 72 128 L 70 126 L 68 126 L 67 125 L 63 125 L 62 124 L 61 125 "></path>
        <path fill="none" stroke="#fa00fa" stroke-width="3" d="M 986 95 L 985 96 L 982 96 L 980 98 L 978 98 L 976 100 L 974 100 L 970 104 L 970 105 L 969 106 L 969 110 L 968 111 L 968 113 L 967 114 L 967 115 L 968 116 L 968 119 L 967 120 L 967 124 L 968 125 L 968 127 L 969 128 L 969 130 L 970 131 L 970 132 L 971 133 L 971 134 L 972 135 L 972 137 L 977 142 L 978 142 L 979 143 L 981 143 L 982 144 L 985 144 L 986 145 L 991 145 L 992 144 L 996 144 L 997 143 L 999 143 L 1000 142 L 1001 142 L 1005 138 L 1005 137 L 1007 135 L 1007 134 L 1009 132 L 1010 132 L 1010 131 L 1012 129 L 1012 126 L 1013 125 L 1013 124 L 1014 123 L 1014 121 L 1015 120 L 1015 118 L 1014 117 L 1014 116 L 1013 115 L 1013 112 L 1012 111 L 1012 108 L 1011 107 L 1011 104 L 1010 103 L 1010 102 L 1009 102 L 1007 100 L 1006 100 L 1004 98 L 1003 98 L 1002 97 L 1001 97 L 1000 96 L 999 96 L 998 95 L 986 95 L 985 96 "></path>
        <path fill="none" stroke="#fa00fa" stroke-width="3" d="M 61 545 L 60 546 L 54 546 L 53 547 L 50 547 L 49 548 L 48 548 L 47 549 L 46 549 L 42 553 L 42 554 L 38 558 L 38 559 L 36 561 L 36 570 L 37 571 L 37 572 L 38 573 L 38 578 L 39 579 L 39 580 L 40 581 L 40 584 L 46 590 L 47 590 L 49 592 L 50 592 L 51 593 L 53 593 L 54 594 L 61 594 L 62 595 L 63 595 L 64 594 L 67 594 L 68 593 L 69 593 L 71 591 L 72 591 L 73 590 L 75 590 L 82 583 L 82 582 L 83 581 L 83 580 L 84 579 L 84 571 L 83 570 L 83 562 L 82 561 L 82 559 L 79 556 L 79 555 L 78 554 L 77 554 L 73 550 L 72 550 L 70 548 L 68 548 L 66 546 L 63 546 L 62 545 L 61 545 L 60 546 "></path>
        <path fill="none" stroke="#fa00fa" stroke-width="3" d="M 58 216 L 57 217 L 53 217 L 52 218 L 49 218 L 47 220 L 46 220 L 45 221 L 44 221 L 40 225 L 40 226 L 39 227 L 39 228 L 38 229 L 38 231 L 37 232 L 37 239 L 38 240 L 38 244 L 37 245 L 37 250 L 38 251 L 38 252 L 40 254 L 40 255 L 41 256 L 41 257 L 46 262 L 48 262 L 49 263 L 51 263 L 52 264 L 65 264 L 66 263 L 67 263 L 68 262 L 70 262 L 71 261 L 73 261 L 74 260 L 75 260 L 82 253 L 82 252 L 83 251 L 83 250 L 84 249 L 84 245 L 83 244 L 83 242 L 82 241 L 82 236 L 81 235 L 81 229 L 80 228 L 80 227 L 79 226 L 79 225 L 78 224 L 77 224 L 73 220 L 71 220 L 69 218 L 67 218 L 66 217 L 59 217 L 58 216 L 57 217 "></path>
        <path fill="none" stroke="#fa00fa" stroke-width="3" d="M 57 275 L 56 276 L 51 276 L 50 277 L 49 277 L 48 278 L 47 278 L 44 281 L 44 282 L 41 285 L 41 286 L 40 287 L 40 289 L 38 291 L 38 293 L 37 294 L 37 299 L 36 300 L 36 306 L 37 307 L 37 308 L 38 309 L 38 310 L 39 310 L 42 313 L 42 314 L 44 316 L 44 317 L 46 319 L 47 319 L 50 322 L 53 322 L 54 323 L 66 323 L 67 322 L 68 322 L 69 321 L 71 321 L 72 320 L 73 320 L 79 314 L 79 313 L 80 312 L 80 311 L 82 309 L 82 308 L 84 306 L 84 305 L 85 304 L 85 303 L 86 302 L 86 297 L 84 295 L 84 294 L 83 293 L 83 291 L 82 290 L 82 289 L 80 287 L 80 286 L 75 281 L 74 281 L 71 278 L 70 278 L 69 277 L 68 277 L 67 276 L 63 276 L 62 275 L 61 275 L 60 276 L 59 275 L 57 275 L 56 276 "></path>
        <path fill="none" stroke="#fa00fa" stroke-width="3" d="M 924 306 L 923 307 L 921 307 L 919 309 L 917 309 L 910 316 L 910 317 L 909 318 L 909 319 L 908 320 L 908 321 L 907 322 L 907 329 L 908 330 L 908 336 L 909 337 L 909 339 L 910 340 L 910 341 L 912 343 L 912 344 L 918 350 L 919 350 L 921 352 L 923 352 L 924 353 L 929 353 L 930 354 L 931 353 L 938 353 L 939 352 L 942 352 L 945 349 L 946 349 L 946 348 L 951 343 L 951 340 L 952 339 L 952 338 L 953 337 L 953 336 L 954 335 L 954 332 L 955 331 L 955 326 L 954 325 L 954 324 L 953 323 L 953 322 L 952 321 L 952 320 L 951 319 L 951 318 L 948 315 L 948 314 L 945 311 L 944 311 L 941 308 L 940 308 L 939 307 L 935 307 L 934 306 L 924 306 L 923 307 "></path>
        <path fill="none" stroke="#fa00fa" stroke-width="3" d="M 179 696 L 178 697 L 174 697 L 173 698 L 172 698 L 171 699 L 169 699 L 167 701 L 166 701 L 166 702 L 165 703 L 165 704 L 161 708 L 161 709 L 159 711 L 159 712 L 158 713 L 158 715 L 157 716 L 157 717 L 155 719 L 155 720 L 154 721 L 154 722 L 155 723 L 155 724 L 156 725 L 156 726 L 157 727 L 157 729 L 159 731 L 159 732 L 160 733 L 160 734 L 168 742 L 169 742 L 170 743 L 171 743 L 172 744 L 176 744 L 177 745 L 183 745 L 184 744 L 187 744 L 188 743 L 190 743 L 193 740 L 194 740 L 194 739 L 197 736 L 197 735 L 203 729 L 203 728 L 204 727 L 204 725 L 205 724 L 205 720 L 203 718 L 203 716 L 202 715 L 202 714 L 199 711 L 199 710 L 198 709 L 198 708 L 196 706 L 196 705 L 195 704 L 195 703 L 194 702 L 193 702 L 190 699 L 189 699 L 188 698 L 187 698 L 186 697 L 183 697 L 182 696 L 179 696 L 178 697 "></path>
        <path fill="none" stroke="#fa00fa" stroke-width="3" d="M 1014 427 L 1013 428 L 1011 428 L 1010 429 L 1009 429 L 1008 430 L 1007 430 L 1006 431 L 1005 431 L 1002 434 L 1002 435 L 1000 437 L 1000 439 L 999 440 L 999 441 L 998 442 L 998 444 L 997 445 L 997 455 L 998 456 L 998 458 L 999 459 L 999 460 L 1004 465 L 1004 466 L 1010 472 L 1016 472 L 1017 473 L 1020 473 L 1021 474 L 1028 474 L 1029 473 L 1030 473 L 1032 471 L 1033 471 L 1034 470 L 1035 470 L 1035 469 L 1036 468 L 1037 468 L 1038 467 L 1038 466 L 1042 462 L 1042 461 L 1044 459 L 1044 450 L 1045 449 L 1045 443 L 1044 442 L 1044 441 L 1043 440 L 1043 439 L 1042 439 L 1035 432 L 1033 432 L 1032 431 L 1031 431 L 1030 430 L 1028 430 L 1027 429 L 1025 429 L 1024 428 L 1023 428 L 1022 427 L 1014 427 L 1013 428 "></path>
        <path fill="none" stroke="#fa00fa" stroke-width="3" d="M 865 668 L 864 669 L 862 669 L 861 670 L 859 670 L 858 671 L 857 671 L 856 672 L 854 672 L 851 675 L 851 676 L 850 677 L 850 678 L 849 679 L 849 680 L 847 682 L 847 683 L 846 684 L 846 685 L 847 686 L 847 698 L 850 701 L 850 702 L 853 705 L 853 706 L 855 708 L 856 708 L 858 710 L 859 710 L 861 712 L 863 712 L 864 713 L 865 713 L 866 714 L 867 713 L 868 713 L 869 714 L 870 714 L 871 713 L 877 713 L 878 712 L 880 712 L 882 710 L 883 710 L 884 709 L 884 708 L 886 706 L 886 705 L 887 704 L 887 703 L 890 700 L 890 699 L 891 698 L 891 697 L 892 696 L 892 691 L 894 689 L 894 688 L 895 687 L 895 684 L 894 683 L 894 682 L 893 681 L 892 681 L 891 680 L 891 678 L 890 677 L 890 676 L 886 672 L 884 672 L 883 671 L 882 671 L 881 670 L 880 670 L 879 669 L 878 669 L 877 668 L 865 668 L 864 669 "></path>
        <path fill="none" stroke="#fa00fa" stroke-width="3" d="M 749 6 L 748 7 L 744 7 L 743 8 L 741 8 L 740 9 L 739 9 L 738 10 L 737 10 L 734 13 L 734 14 L 733 15 L 733 17 L 731 19 L 731 25 L 729 27 L 729 28 L 727 30 L 727 39 L 729 41 L 729 43 L 733 47 L 733 48 L 735 50 L 736 50 L 737 51 L 738 51 L 739 52 L 740 52 L 741 53 L 745 53 L 746 54 L 747 53 L 749 53 L 750 54 L 751 53 L 755 53 L 756 52 L 759 52 L 760 51 L 761 51 L 762 50 L 763 50 L 769 44 L 770 44 L 770 43 L 771 42 L 771 41 L 772 40 L 772 39 L 773 38 L 773 34 L 772 33 L 772 32 L 770 30 L 770 27 L 771 26 L 771 23 L 770 22 L 770 21 L 769 20 L 769 18 L 768 17 L 768 16 L 767 15 L 767 14 L 766 13 L 766 12 L 764 10 L 763 10 L 762 9 L 761 9 L 760 8 L 759 8 L 758 7 L 756 7 L 755 6 L 749 6 L 748 7 "></path>
        <path fill="none" stroke="#fa00fa" stroke-width="3" d="M 93 337 L 92 338 L 88 338 L 87 339 L 82 339 L 81 340 L 78 340 L 76 342 L 75 342 L 69 348 L 69 349 L 68 350 L 68 353 L 67 354 L 67 355 L 66 356 L 66 359 L 67 360 L 67 364 L 68 365 L 68 368 L 69 369 L 69 370 L 72 373 L 72 375 L 73 376 L 73 377 L 76 380 L 77 380 L 78 381 L 80 381 L 81 382 L 88 382 L 89 383 L 91 383 L 92 382 L 96 382 L 97 381 L 98 381 L 99 380 L 100 380 L 100 379 L 101 378 L 102 378 L 105 375 L 106 375 L 107 374 L 107 373 L 110 370 L 110 367 L 111 366 L 110 365 L 111 364 L 111 358 L 112 357 L 112 356 L 111 355 L 111 352 L 110 351 L 110 349 L 108 347 L 108 346 L 106 344 L 106 343 L 103 340 L 102 340 L 101 339 L 100 339 L 99 338 L 95 338 L 94 337 L 93 337 L 92 338 "></path>
        <path fill="none" stroke="#fa00fa" stroke-width="3" d="M 866 277 L 865 278 L 862 278 L 861 279 L 860 279 L 859 280 L 858 280 L 854 284 L 854 285 L 849 290 L 849 291 L 848 292 L 848 296 L 849 297 L 848 298 L 848 305 L 849 306 L 849 308 L 850 309 L 850 310 L 851 311 L 851 312 L 853 314 L 853 315 L 854 316 L 855 316 L 858 319 L 860 319 L 862 321 L 865 321 L 866 322 L 876 322 L 877 321 L 879 321 L 880 320 L 882 320 L 883 319 L 884 319 L 886 317 L 887 317 L 888 316 L 888 315 L 891 312 L 891 311 L 894 308 L 894 304 L 893 303 L 893 302 L 891 300 L 891 291 L 890 290 L 890 289 L 888 287 L 888 286 L 886 284 L 885 284 L 883 282 L 882 282 L 881 281 L 880 281 L 879 280 L 877 280 L 876 279 L 875 279 L 874 278 L 871 278 L 870 277 L 866 277 L 865 278 "></path>
        <path fill="none" stroke="#fa00fa" stroke-width="3" d="M 658 758 L 657 759 L 653 759 L 652 760 L 650 760 L 649 761 L 648 761 L 643 766 L 642 766 L 639 769 L 639 770 L 638 771 L 638 778 L 639 779 L 639 781 L 640 782 L 640 783 L 641 784 L 641 791 L 642 792 L 642 793 L 643 794 L 643 795 L 645 797 L 645 798 L 646 798 L 647 799 L 648 799 L 650 801 L 652 801 L 653 802 L 656 802 L 657 803 L 663 803 L 664 802 L 666 802 L 667 801 L 668 801 L 669 800 L 671 800 L 673 798 L 674 798 L 680 792 L 680 791 L 681 790 L 681 787 L 682 786 L 682 784 L 683 783 L 682 782 L 682 770 L 681 769 L 681 768 L 680 768 L 679 767 L 679 766 L 678 766 L 677 765 L 676 765 L 672 761 L 671 761 L 670 760 L 668 760 L 667 759 L 664 759 L 663 758 L 662 758 L 661 759 L 660 759 L 659 758 L 658 758 L 657 759 "></path>
        <path fill="none" stroke="#fa00fa" stroke-width="3" d="M 177 578 L 176 579 L 173 579 L 172 580 L 170 580 L 168 582 L 167 582 L 161 588 L 161 589 L 160 590 L 160 591 L 158 593 L 158 594 L 157 595 L 157 600 L 158 601 L 158 602 L 159 603 L 159 604 L 160 605 L 160 609 L 161 610 L 161 611 L 162 612 L 162 613 L 165 616 L 165 617 L 169 621 L 170 621 L 171 622 L 172 622 L 173 623 L 178 623 L 179 624 L 180 623 L 185 623 L 186 622 L 187 622 L 188 621 L 189 621 L 190 620 L 191 620 L 194 617 L 194 616 L 195 615 L 195 614 L 196 613 L 196 612 L 199 609 L 199 608 L 200 607 L 200 605 L 201 604 L 201 601 L 202 600 L 202 599 L 203 598 L 203 592 L 201 590 L 201 589 L 198 586 L 197 586 L 194 583 L 193 583 L 190 580 L 189 580 L 188 579 L 187 579 L 186 578 L 177 578 L 176 579 "></path>
        <path fill="none" stroke="#fa00fa" stroke-width="3" d="M 117 488 L 116 489 L 113 489 L 112 490 L 110 490 L 109 491 L 108 491 L 107 492 L 105 492 L 102 495 L 102 496 L 101 497 L 101 498 L 100 499 L 100 501 L 99 502 L 99 503 L 98 504 L 98 506 L 97 507 L 97 509 L 96 510 L 97 511 L 97 515 L 98 516 L 98 517 L 99 518 L 99 519 L 101 521 L 101 522 L 109 530 L 110 530 L 111 531 L 112 531 L 113 532 L 124 532 L 125 531 L 127 531 L 128 530 L 130 530 L 131 529 L 132 529 L 133 528 L 134 528 L 137 525 L 137 524 L 139 522 L 139 521 L 140 520 L 140 519 L 141 518 L 141 510 L 142 509 L 142 506 L 141 505 L 141 504 L 140 503 L 140 501 L 139 500 L 139 499 L 137 497 L 137 496 L 134 493 L 133 493 L 131 491 L 130 491 L 129 490 L 128 490 L 127 489 L 125 489 L 124 488 L 117 488 L 116 489 "></path>
        <path fill="none" stroke="#fa00fa" stroke-width="3" d="M 866 367 L 865 368 L 862 368 L 860 370 L 859 370 L 857 372 L 856 372 L 854 374 L 854 375 L 852 377 L 852 378 L 849 381 L 849 383 L 848 384 L 848 389 L 847 390 L 847 395 L 857 405 L 857 406 L 860 409 L 861 409 L 862 410 L 865 410 L 866 411 L 876 411 L 877 410 L 880 410 L 881 409 L 882 409 L 883 408 L 884 408 L 884 407 L 888 403 L 888 402 L 892 398 L 892 397 L 895 394 L 895 391 L 894 390 L 894 387 L 893 386 L 893 384 L 892 383 L 892 382 L 890 380 L 890 379 L 884 373 L 883 373 L 882 372 L 881 372 L 879 370 L 877 370 L 875 368 L 872 368 L 871 367 L 866 367 L 865 368 "></path>
        <path fill="none" stroke="#fa00fa" stroke-width="3" d="M 266 698 L 265 699 L 262 699 L 261 700 L 260 700 L 259 701 L 258 701 L 253 706 L 253 708 L 252 709 L 252 710 L 251 711 L 251 713 L 250 714 L 250 719 L 249 720 L 249 729 L 250 730 L 250 732 L 251 733 L 251 734 L 253 736 L 253 737 L 254 737 L 255 738 L 256 738 L 258 740 L 260 740 L 263 743 L 265 743 L 266 744 L 270 744 L 271 743 L 276 743 L 277 742 L 279 742 L 281 740 L 283 740 L 285 738 L 286 738 L 289 735 L 289 730 L 290 729 L 290 727 L 291 726 L 291 725 L 292 724 L 292 719 L 291 718 L 291 712 L 283 704 L 283 703 L 282 702 L 281 702 L 279 700 L 276 700 L 275 699 L 271 699 L 270 698 L 266 698 L 265 699 "></path>
        <path fill="none" stroke="#fa00fa" stroke-width="3" d="M 805 669 L 804 670 L 801 670 L 800 671 L 798 671 L 795 674 L 794 674 L 794 675 L 793 676 L 793 677 L 790 680 L 789 680 L 788 681 L 788 682 L 787 683 L 787 684 L 788 685 L 788 687 L 789 688 L 789 690 L 788 691 L 788 693 L 789 694 L 789 696 L 791 698 L 791 699 L 792 700 L 792 703 L 793 704 L 793 705 L 794 706 L 795 706 L 798 709 L 799 709 L 800 710 L 801 710 L 802 711 L 805 711 L 806 712 L 807 712 L 808 711 L 809 711 L 810 712 L 811 711 L 815 711 L 816 710 L 817 711 L 818 711 L 819 710 L 822 710 L 824 708 L 825 708 L 827 706 L 828 706 L 828 705 L 829 704 L 829 703 L 831 701 L 831 700 L 832 699 L 832 692 L 831 691 L 831 690 L 832 689 L 832 682 L 830 680 L 830 679 L 829 678 L 829 677 L 827 675 L 827 674 L 826 674 L 824 672 L 823 672 L 822 671 L 819 671 L 818 670 L 815 670 L 814 669 L 805 669 L 804 670 "></path>
        <path fill="none" stroke="#fa00fa" stroke-width="3" d="M 174 518 L 173 519 L 172 519 L 171 520 L 170 520 L 169 521 L 168 521 L 166 523 L 165 523 L 162 526 L 162 527 L 161 528 L 161 529 L 159 531 L 159 533 L 158 534 L 158 536 L 157 537 L 157 540 L 158 541 L 158 543 L 159 544 L 159 545 L 160 546 L 160 547 L 162 549 L 162 550 L 163 551 L 163 552 L 164 553 L 164 554 L 165 555 L 165 556 L 168 559 L 169 559 L 170 560 L 171 560 L 172 561 L 173 561 L 174 562 L 177 562 L 178 563 L 179 562 L 180 563 L 182 563 L 183 562 L 187 562 L 188 561 L 190 561 L 191 560 L 192 560 L 197 555 L 197 554 L 198 553 L 198 552 L 199 551 L 199 550 L 201 548 L 201 547 L 202 546 L 202 541 L 203 540 L 203 537 L 202 536 L 202 534 L 200 532 L 200 531 L 196 527 L 196 526 L 194 524 L 193 524 L 190 521 L 188 521 L 186 519 L 184 519 L 183 518 L 174 518 L 173 519 "></path>
        <path fill="none" stroke="#fa00fa" stroke-width="3" d="M 570 6 L 569 7 L 565 7 L 564 8 L 562 8 L 561 9 L 560 9 L 559 10 L 558 10 L 556 12 L 555 12 L 549 18 L 549 19 L 547 21 L 547 22 L 545 24 L 545 31 L 548 34 L 548 35 L 552 39 L 552 40 L 554 42 L 555 42 L 556 43 L 557 43 L 558 44 L 560 44 L 562 46 L 563 46 L 564 47 L 565 47 L 566 48 L 568 48 L 569 49 L 575 49 L 576 48 L 579 48 L 580 47 L 582 47 L 584 45 L 585 45 L 589 41 L 589 40 L 590 39 L 590 38 L 591 37 L 591 36 L 592 35 L 592 34 L 593 33 L 593 21 L 591 19 L 591 18 L 590 17 L 589 17 L 588 16 L 588 15 L 583 10 L 582 10 L 581 9 L 580 9 L 579 8 L 577 8 L 576 7 L 571 7 L 570 6 L 569 7 "></path>
        <path fill="none" stroke="#fa00fa" stroke-width="3" d="M 114 428 L 113 429 L 110 429 L 108 431 L 106 431 L 103 434 L 103 435 L 101 437 L 101 438 L 100 439 L 100 440 L 99 441 L 99 445 L 98 446 L 98 447 L 97 448 L 97 449 L 96 450 L 96 454 L 100 458 L 100 459 L 101 460 L 101 462 L 102 463 L 102 464 L 103 464 L 105 466 L 106 466 L 107 467 L 108 467 L 109 468 L 110 468 L 111 469 L 113 469 L 114 470 L 115 470 L 116 471 L 119 471 L 120 472 L 123 472 L 124 471 L 126 471 L 127 470 L 129 470 L 131 468 L 132 468 L 136 464 L 136 463 L 137 462 L 137 458 L 138 457 L 138 456 L 142 452 L 142 451 L 143 450 L 143 448 L 142 447 L 142 445 L 141 444 L 141 441 L 138 438 L 137 438 L 130 431 L 129 431 L 128 430 L 126 430 L 125 429 L 121 429 L 120 428 L 116 428 L 115 429 L 114 428 L 113 429 "></path>
        <path fill="none" stroke="#fa00fa" stroke-width="3" d="M 960 428 L 959 429 L 956 429 L 955 430 L 953 430 L 951 432 L 949 432 L 943 438 L 942 438 L 942 439 L 940 441 L 940 443 L 939 444 L 939 458 L 940 459 L 940 460 L 948 468 L 949 468 L 950 469 L 951 469 L 952 470 L 955 470 L 956 471 L 966 471 L 967 470 L 970 470 L 971 469 L 972 469 L 975 466 L 975 465 L 976 464 L 976 463 L 978 461 L 978 460 L 979 459 L 979 455 L 980 454 L 980 451 L 982 449 L 982 448 L 983 447 L 983 444 L 982 443 L 982 442 L 981 441 L 981 440 L 980 439 L 980 438 L 978 436 L 977 436 L 975 434 L 974 434 L 973 433 L 972 433 L 969 430 L 967 430 L 966 429 L 964 429 L 963 428 L 960 428 L 959 429 "></path>
        <path fill="none" stroke="#fa00fa" stroke-width="3" d="M 804 279 L 803 280 L 802 280 L 801 281 L 800 281 L 798 283 L 797 283 L 796 284 L 795 284 L 792 287 L 792 288 L 791 289 L 791 290 L 790 291 L 790 292 L 789 293 L 789 294 L 788 295 L 788 306 L 790 308 L 790 309 L 793 312 L 793 313 L 798 318 L 799 318 L 800 319 L 801 319 L 802 320 L 803 320 L 804 321 L 809 321 L 810 322 L 811 321 L 813 321 L 814 322 L 815 322 L 816 321 L 818 321 L 820 319 L 820 318 L 821 317 L 822 317 L 822 316 L 823 315 L 824 315 L 826 313 L 826 311 L 827 310 L 827 309 L 828 308 L 828 307 L 831 304 L 831 303 L 832 302 L 832 295 L 831 294 L 831 291 L 830 290 L 830 289 L 829 288 L 829 287 L 826 284 L 824 284 L 822 282 L 820 282 L 819 281 L 816 281 L 815 280 L 811 280 L 810 279 L 804 279 L 803 280 "></path>
        <path fill="none" stroke="#fa00fa" stroke-width="3" d="M 478 39 L 477 40 L 473 40 L 472 41 L 470 41 L 468 43 L 467 43 L 459 51 L 459 53 L 458 54 L 458 57 L 457 58 L 457 60 L 458 61 L 458 64 L 459 65 L 459 67 L 460 68 L 460 69 L 462 71 L 463 71 L 464 72 L 464 73 L 466 75 L 466 76 L 467 77 L 468 77 L 470 79 L 472 79 L 473 80 L 477 80 L 478 81 L 487 81 L 488 80 L 489 80 L 490 79 L 491 79 L 494 76 L 494 75 L 495 74 L 495 72 L 499 68 L 499 67 L 501 65 L 501 63 L 502 62 L 502 54 L 501 53 L 501 50 L 500 49 L 500 48 L 498 46 L 497 46 L 494 43 L 492 43 L 491 42 L 488 42 L 487 41 L 484 41 L 483 40 L 479 40 L 478 39 L 477 40 "></path>
        <path fill="none" stroke="#fa00fa" stroke-width="3" d="M 238 188 L 237 189 L 233 189 L 232 190 L 230 190 L 226 194 L 226 195 L 225 196 L 225 197 L 224 198 L 224 199 L 221 202 L 220 202 L 220 203 L 219 204 L 219 205 L 217 207 L 217 208 L 216 209 L 216 212 L 217 213 L 217 215 L 218 216 L 218 217 L 219 218 L 219 219 L 220 220 L 220 221 L 226 227 L 227 227 L 230 230 L 232 230 L 233 231 L 235 231 L 236 232 L 238 232 L 239 231 L 241 231 L 242 230 L 244 230 L 245 229 L 246 229 L 247 228 L 248 228 L 249 227 L 250 227 L 258 219 L 258 218 L 259 217 L 259 215 L 260 214 L 260 213 L 261 212 L 260 211 L 260 206 L 259 205 L 259 204 L 258 203 L 258 202 L 256 200 L 256 199 L 255 198 L 255 196 L 254 195 L 254 194 L 251 191 L 250 191 L 249 190 L 248 190 L 246 188 L 238 188 L 237 189 "></path>
        <path fill="none" stroke="#fa00fa" stroke-width="3" d="M 566 69 L 565 70 L 562 70 L 561 71 L 560 71 L 559 72 L 558 72 L 555 75 L 554 75 L 553 76 L 553 77 L 551 79 L 550 79 L 548 81 L 548 84 L 547 85 L 547 88 L 548 89 L 548 90 L 549 91 L 549 96 L 550 97 L 550 98 L 551 99 L 551 100 L 552 101 L 552 102 L 556 106 L 557 106 L 558 107 L 559 107 L 560 108 L 561 108 L 562 109 L 563 109 L 564 110 L 565 110 L 566 111 L 569 111 L 570 112 L 574 112 L 575 111 L 576 111 L 577 110 L 578 110 L 584 104 L 584 103 L 585 102 L 586 102 L 587 101 L 587 100 L 589 98 L 589 94 L 590 93 L 590 92 L 593 89 L 593 86 L 590 83 L 590 82 L 589 82 L 588 81 L 588 80 L 580 72 L 579 72 L 578 71 L 576 71 L 575 70 L 572 70 L 571 69 L 566 69 L 565 70 "></path>
        <path fill="none" stroke="#fa00fa" stroke-width="3" d="M 713 671 L 712 672 L 710 672 L 709 673 L 706 673 L 702 677 L 702 678 L 700 680 L 700 681 L 699 682 L 699 687 L 700 688 L 698 690 L 698 695 L 700 697 L 700 698 L 710 708 L 711 708 L 714 711 L 716 711 L 717 712 L 726 712 L 727 711 L 728 711 L 729 710 L 730 710 L 737 703 L 738 703 L 739 702 L 739 701 L 741 699 L 741 698 L 742 697 L 742 692 L 741 691 L 741 690 L 740 689 L 740 682 L 735 677 L 735 676 L 732 673 L 731 673 L 730 672 L 727 672 L 726 671 L 713 671 L 712 672 "></path>
        <path fill="none" stroke="#fa00fa" stroke-width="3" d="M 774 69 L 773 70 L 772 70 L 771 71 L 770 71 L 769 72 L 768 72 L 766 74 L 765 74 L 765 75 L 762 78 L 762 79 L 761 80 L 761 83 L 760 84 L 760 86 L 759 87 L 759 92 L 760 93 L 760 94 L 761 95 L 761 96 L 762 97 L 762 102 L 766 106 L 767 106 L 768 107 L 769 107 L 770 108 L 772 108 L 773 109 L 776 109 L 777 110 L 787 110 L 788 109 L 790 109 L 791 108 L 792 108 L 794 106 L 795 106 L 800 101 L 800 98 L 802 96 L 802 95 L 803 94 L 803 89 L 802 88 L 802 86 L 800 84 L 800 83 L 799 82 L 799 81 L 798 80 L 798 78 L 797 78 L 793 74 L 792 74 L 790 72 L 789 72 L 788 71 L 787 71 L 786 70 L 785 70 L 784 69 L 774 69 L 773 70 "></path>
        <path fill="none" stroke="#fa00fa" stroke-width="3" d="M 140 1 L 140 3 L 141 4 L 141 5 L 143 7 L 143 8 L 150 15 L 152 15 L 154 17 L 155 17 L 157 19 L 158 19 L 159 20 L 160 20 L 162 22 L 164 22 L 165 23 L 166 23 L 167 24 L 169 24 L 170 25 L 173 25 L 174 26 L 184 26 L 185 25 L 187 25 L 188 24 L 191 24 L 192 23 L 193 23 L 194 22 L 195 22 L 196 21 L 197 21 L 198 20 L 199 20 L 201 18 L 202 18 L 204 16 L 205 16 L 209 12 L 210 12 L 213 9 L 214 9 L 219 4 L 219 3 L 220 2 L 219 1 L 140 1 L 140 3 "></path>
        <path fill="none" stroke="#fa00fa" stroke-width="3" d="M 1050 602 L 1049 603 L 1048 603 L 1047 604 L 1044 604 L 1043 605 L 1041 605 L 1039 607 L 1038 607 L 1035 610 L 1034 610 L 1030 614 L 1029 614 L 1029 615 L 1028 616 L 1027 616 L 1027 617 L 1026 618 L 1026 619 L 1025 620 L 1025 621 L 1024 622 L 1025 623 L 1024 624 L 1024 628 L 1023 629 L 1023 632 L 1024 633 L 1024 635 L 1025 636 L 1025 637 L 1026 638 L 1026 640 L 1027 641 L 1027 642 L 1033 648 L 1033 649 L 1037 653 L 1039 653 L 1040 654 L 1041 654 L 1042 655 L 1044 655 L 1045 656 L 1046 656 L 1047 657 L 1048 657 L 1049 658 L 1050 658 L 1051 659 L 1052 659 L 1053 658 L 1054 658 L 1054 603 L 1053 602 L 1050 602 L 1049 603 "></path>
        <path fill="none" stroke="#fa00fa" stroke-width="3" d="M 270 519 L 269 520 L 266 520 L 265 521 L 264 521 L 263 522 L 261 522 L 259 524 L 258 524 L 255 527 L 255 528 L 254 529 L 254 530 L 253 531 L 253 532 L 251 534 L 251 535 L 250 536 L 250 544 L 251 545 L 251 547 L 252 548 L 252 549 L 254 551 L 254 552 L 257 555 L 257 556 L 258 557 L 259 557 L 261 559 L 263 559 L 264 560 L 267 560 L 268 561 L 270 561 L 271 560 L 274 560 L 275 559 L 278 559 L 279 558 L 280 558 L 281 557 L 282 557 L 286 553 L 286 552 L 287 551 L 287 550 L 288 549 L 288 546 L 290 544 L 290 535 L 289 534 L 289 531 L 288 530 L 288 529 L 284 525 L 283 525 L 281 523 L 280 523 L 278 521 L 277 521 L 276 520 L 275 520 L 274 519 L 270 519 L 269 520 "></path>
        <path fill="none" stroke="#fa00fa" stroke-width="3" d="M 1052 179 L 1051 180 L 1049 180 L 1047 182 L 1045 182 L 1043 184 L 1041 184 L 1039 186 L 1038 186 L 1033 191 L 1033 192 L 1032 193 L 1032 194 L 1031 195 L 1030 195 L 1030 196 L 1028 198 L 1028 199 L 1027 200 L 1027 201 L 1026 202 L 1026 211 L 1025 212 L 1026 213 L 1026 214 L 1028 216 L 1028 217 L 1029 218 L 1029 220 L 1031 222 L 1031 224 L 1032 225 L 1032 226 L 1035 229 L 1036 229 L 1038 231 L 1040 231 L 1045 236 L 1045 237 L 1046 238 L 1047 238 L 1049 240 L 1051 240 L 1052 241 L 1053 241 L 1054 240 L 1054 179 L 1052 179 L 1051 180 "></path>
        <path fill="none" stroke="#fa00fa" stroke-width="3" d="M 1 58 L 1 121 L 4 121 L 5 120 L 7 120 L 13 114 L 14 114 L 17 111 L 18 111 L 21 108 L 21 107 L 22 106 L 22 104 L 24 102 L 24 101 L 25 100 L 25 90 L 26 89 L 26 84 L 24 82 L 24 80 L 23 79 L 23 76 L 22 75 L 22 74 L 21 73 L 21 72 L 11 62 L 10 62 L 8 60 L 7 60 L 6 59 L 5 59 L 4 58 L 1 58 L 1 121 "></path>
        <path fill="none" stroke="#fa00fa" stroke-width="3" d="M 1051 332 L 1050 333 L 1049 333 L 1048 334 L 1046 334 L 1045 335 L 1044 335 L 1043 336 L 1041 336 L 1039 338 L 1038 338 L 1033 343 L 1033 344 L 1030 347 L 1030 349 L 1029 350 L 1029 351 L 1026 354 L 1026 360 L 1027 361 L 1027 362 L 1028 363 L 1028 366 L 1029 367 L 1029 368 L 1030 369 L 1030 371 L 1031 372 L 1031 373 L 1034 376 L 1034 377 L 1040 383 L 1041 383 L 1042 384 L 1043 384 L 1044 385 L 1045 385 L 1048 388 L 1049 388 L 1050 389 L 1051 389 L 1052 390 L 1053 390 L 1054 389 L 1054 332 L 1051 332 L 1050 333 "></path>
        <path fill="none" stroke="#fa00fa" stroke-width="3" d="M 2 210 L 1 211 L 1 269 L 2 270 L 4 270 L 5 269 L 7 269 L 9 267 L 10 267 L 14 263 L 15 263 L 17 261 L 18 261 L 20 259 L 20 258 L 21 257 L 21 256 L 22 255 L 22 254 L 23 253 L 23 252 L 24 251 L 24 249 L 25 248 L 25 245 L 24 244 L 24 241 L 25 240 L 25 238 L 26 237 L 26 234 L 25 233 L 25 232 L 24 231 L 24 230 L 23 229 L 23 227 L 22 226 L 22 225 L 21 224 L 21 223 L 17 219 L 16 219 L 13 216 L 12 216 L 11 215 L 11 214 L 10 214 L 8 212 L 7 212 L 5 210 L 2 210 L 1 211 "></path>
        <path fill="none" stroke="#fa00fa" stroke-width="3" d="M 266 787 L 265 788 L 264 788 L 263 789 L 261 789 L 260 790 L 258 790 L 257 791 L 256 791 L 253 794 L 253 795 L 252 796 L 252 797 L 250 799 L 250 801 L 249 802 L 249 803 L 243 809 L 242 809 L 242 810 L 241 811 L 241 812 L 243 814 L 298 814 L 299 813 L 298 812 L 298 810 L 294 806 L 294 805 L 290 801 L 290 800 L 289 799 L 289 798 L 287 796 L 287 795 L 282 790 L 280 790 L 279 789 L 278 789 L 277 788 L 274 788 L 273 787 L 266 787 L 265 788 "></path>
        <path fill="none" stroke="#fa00fa" stroke-width="3" d="M 810 430 L 809 431 L 806 431 L 805 432 L 803 432 L 796 439 L 794 439 L 792 441 L 792 446 L 793 447 L 792 448 L 793 449 L 793 454 L 794 455 L 794 457 L 797 460 L 797 461 L 798 462 L 798 463 L 802 467 L 804 467 L 805 468 L 808 468 L 809 469 L 815 469 L 816 468 L 818 468 L 823 463 L 823 462 L 824 461 L 824 460 L 826 458 L 826 457 L 827 456 L 827 454 L 828 453 L 828 452 L 827 451 L 827 449 L 826 448 L 826 444 L 824 442 L 824 441 L 823 440 L 823 439 L 822 438 L 822 437 L 820 435 L 820 434 L 818 432 L 817 432 L 816 431 L 813 431 L 812 430 L 811 431 L 810 430 L 809 431 "></path>
        <path fill="none" stroke="#fa00fa" stroke-width="3" d="M 598 788 L 597 789 L 594 789 L 593 790 L 592 790 L 588 794 L 587 794 L 586 795 L 585 795 L 581 799 L 581 801 L 579 803 L 578 803 L 576 805 L 576 806 L 575 807 L 575 808 L 574 809 L 574 814 L 628 814 L 628 811 L 627 810 L 627 809 L 626 808 L 626 807 L 625 807 L 619 801 L 619 799 L 618 798 L 618 797 L 617 796 L 617 795 L 615 793 L 615 792 L 614 791 L 613 791 L 612 790 L 611 790 L 610 789 L 604 789 L 603 788 L 598 788 L 597 789 "></path>
    </g>
</svg>
