<svg xmlns="http://www.w3.org/2000/svg" xmlns:xlink="http://www.w3.org/1999/xlink" version="1.1" x="0" y="0" width="1056px" height="816px">
    <g id="rootLayer" transform="translate(0.000000, 0.000000)">
        <path fill="none" stroke="#fa00fa" stroke-width="3" d="M 441 361 L 440 362 L 438 362 L 436 364 L 437 365 L 436 366 L 436 367 L 437 368 L 436 369 L 436 370 L 435 371 L 431 371 L 430 372 L 429 371 L 429 370 L 428 371 L 427 370 L 427 369 L 426 369 L 425 368 L 425 367 L 427 365 L 428 366 L 427 365 L 427 364 L 426 364 L 425 363 L 425 364 L 424 365 L 423 365 L 423 367 L 424 367 L 427 370 L 423 374 L 423 375 L 424 376 L 423 377 L 424 378 L 423 379 L 424 380 L 423 381 L 424 382 L 423 383 L 423 384 L 424 385 L 424 386 L 423 387 L 422 386 L 423 387 L 423 388 L 424 389 L 424 391 L 423 392 L 423 393 L 424 394 L 422 396 L 422 397 L 423 398 L 423 403 L 424 404 L 424 408 L 423 409 L 423 412 L 425 414 L 425 415 L 426 415 L 427 416 L 427 417 L 428 416 L 429 417 L 429 419 L 430 418 L 431 418 L 432 419 L 433 419 L 434 420 L 434 421 L 435 422 L 433 424 L 432 424 L 433 424 L 434 425 L 434 427 L 433 428 L 433 429 L 434 430 L 433 431 L 433 434 L 432 435 L 432 436 L 433 437 L 433 438 L 434 439 L 434 441 L 437 444 L 440 444 L 441 443 L 442 443 L 443 444 L 444 443 L 446 443 L 447 444 L 447 443 L 448 442 L 449 443 L 451 443 L 452 444 L 453 444 L 454 443 L 455 444 L 457 442 L 456 441 L 458 439 L 457 438 L 458 437 L 458 436 L 457 435 L 457 433 L 456 432 L 456 431 L 457 430 L 457 429 L 458 428 L 458 424 L 457 423 L 457 422 L 454 422 L 453 421 L 452 421 L 451 420 L 449 420 L 446 417 L 447 416 L 447 413 L 450 410 L 451 411 L 451 413 L 452 412 L 453 412 L 454 411 L 457 411 L 456 411 L 455 410 L 456 409 L 458 409 L 458 408 L 457 408 L 456 409 L 455 408 L 455 407 L 453 407 L 452 408 L 451 408 L 450 407 L 449 407 L 448 406 L 448 405 L 446 403 L 447 402 L 447 401 L 446 400 L 448 398 L 448 397 L 447 396 L 447 394 L 448 393 L 449 393 L 448 393 L 447 394 L 446 393 L 446 390 L 447 389 L 448 389 L 448 387 L 447 387 L 446 386 L 447 385 L 447 384 L 448 383 L 447 383 L 446 382 L 446 381 L 447 380 L 448 380 L 447 380 L 446 379 L 447 378 L 448 378 L 448 377 L 447 377 L 446 376 L 447 375 L 446 374 L 446 373 L 445 373 L 443 371 L 443 368 L 442 367 L 443 366 L 443 365 L 444 364 L 444 363 L 443 362 L 442 362 "></path>
        <path fill="none" stroke="#fa00fa" stroke-width="3" d="M 665 375 L 664 376 L 663 376 L 663 377 L 662 378 L 662 379 L 663 380 L 663 381 L 664 382 L 664 383 L 666 383 L 668 385 L 667 386 L 667 387 L 668 388 L 667 389 L 668 390 L 667 391 L 667 392 L 668 393 L 668 394 L 667 395 L 669 397 L 668 398 L 668 401 L 666 403 L 666 405 L 665 406 L 664 406 L 663 407 L 662 407 L 662 411 L 665 414 L 664 415 L 665 415 L 666 416 L 666 418 L 667 419 L 667 420 L 669 422 L 669 423 L 670 422 L 672 424 L 673 424 L 674 423 L 675 424 L 676 424 L 677 425 L 679 425 L 680 426 L 681 426 L 682 425 L 683 425 L 683 424 L 684 423 L 686 423 L 689 420 L 689 419 L 690 418 L 690 417 L 691 416 L 691 415 L 690 414 L 691 413 L 694 413 L 696 411 L 697 412 L 698 411 L 697 410 L 697 408 L 695 406 L 694 406 L 693 405 L 693 403 L 692 402 L 692 400 L 693 399 L 693 398 L 692 397 L 693 396 L 693 394 L 692 393 L 692 390 L 693 389 L 692 388 L 692 387 L 691 386 L 691 382 L 690 381 L 690 379 L 688 377 L 687 377 L 686 378 L 685 377 L 684 377 L 683 376 L 682 377 L 681 377 L 680 376 L 678 376 L 677 377 L 676 376 L 675 377 L 668 377 L 667 376 L 666 376 "></path>
        <path fill="none" stroke="#fa00fa" stroke-width="3" d="M 648 423 L 648 424 L 646 426 L 647 427 L 647 429 L 644 432 L 643 432 L 641 434 L 642 435 L 642 438 L 641 439 L 641 441 L 640 442 L 638 440 L 639 439 L 638 439 L 637 438 L 634 438 L 633 439 L 632 439 L 633 440 L 632 441 L 633 442 L 633 444 L 634 445 L 636 445 L 637 444 L 638 444 L 639 443 L 641 443 L 642 444 L 641 445 L 642 446 L 642 451 L 643 452 L 643 453 L 645 453 L 646 454 L 646 455 L 647 456 L 648 455 L 649 455 L 651 457 L 652 456 L 652 455 L 654 453 L 656 455 L 657 454 L 658 454 L 659 455 L 661 455 L 663 457 L 666 457 L 667 456 L 666 455 L 666 452 L 665 451 L 666 450 L 666 449 L 665 449 L 664 448 L 665 447 L 666 447 L 666 443 L 667 442 L 667 441 L 666 440 L 667 439 L 667 438 L 666 437 L 666 434 L 665 433 L 665 432 L 664 432 L 662 430 L 661 431 L 660 430 L 655 430 L 652 427 L 652 426 L 653 425 L 652 425 L 650 423 "></path>
        <path fill="none" stroke="#fa00fa" stroke-width="3" d="M 581 449 L 580 450 L 579 450 L 578 451 L 575 451 L 574 450 L 573 451 L 573 453 L 572 454 L 571 454 L 572 455 L 570 457 L 574 461 L 573 462 L 574 463 L 574 464 L 573 465 L 574 466 L 573 467 L 573 471 L 574 472 L 573 473 L 574 474 L 575 474 L 576 473 L 577 474 L 580 474 L 581 473 L 582 473 L 583 474 L 584 473 L 585 474 L 591 474 L 592 473 L 593 473 L 593 472 L 594 471 L 595 472 L 596 471 L 597 471 L 598 470 L 600 470 L 601 471 L 603 471 L 604 472 L 603 473 L 606 473 L 607 472 L 608 472 L 607 471 L 609 469 L 608 468 L 606 468 L 605 467 L 606 466 L 605 467 L 604 466 L 603 467 L 602 466 L 601 466 L 600 467 L 599 466 L 598 466 L 597 465 L 597 463 L 598 462 L 598 460 L 597 459 L 597 457 L 599 455 L 600 455 L 602 457 L 602 458 L 603 458 L 604 459 L 605 459 L 606 458 L 608 458 L 609 457 L 609 456 L 610 455 L 609 454 L 608 454 L 607 453 L 606 453 L 605 452 L 604 453 L 603 452 L 602 453 L 601 452 L 602 453 L 600 455 L 598 455 L 597 454 L 598 453 L 597 453 L 596 452 L 597 451 L 596 452 L 595 451 L 595 450 L 593 450 L 592 449 L 591 449 L 590 450 L 586 450 L 585 451 L 584 450 L 582 450 "></path>
        <path fill="none" stroke="#fa00fa" stroke-width="3" d="M 485 438 L 484 439 L 483 439 L 480 442 L 480 443 L 479 444 L 479 446 L 478 447 L 479 448 L 479 451 L 478 452 L 479 453 L 479 455 L 480 456 L 480 457 L 478 459 L 480 461 L 480 462 L 481 463 L 481 464 L 482 465 L 482 472 L 485 472 L 486 471 L 488 471 L 489 470 L 489 469 L 490 468 L 489 467 L 490 466 L 492 466 L 493 465 L 494 466 L 496 466 L 499 469 L 499 470 L 500 471 L 502 471 L 503 470 L 503 467 L 502 468 L 501 467 L 501 463 L 502 462 L 503 462 L 503 461 L 502 460 L 502 458 L 503 457 L 503 454 L 504 453 L 503 452 L 504 451 L 503 451 L 502 450 L 503 449 L 503 446 L 501 444 L 502 443 L 501 442 L 501 441 L 502 440 L 501 440 L 500 439 L 500 438 L 499 439 L 498 439 L 496 441 L 495 441 L 494 442 L 493 442 L 492 441 L 491 441 L 490 440 L 489 441 L 487 439 L 486 439 "></path>
        <path fill="none" stroke="#fa00fa" stroke-width="3" d="M 528 495 L 528 496 L 527 497 L 526 496 L 526 497 L 525 498 L 524 498 L 524 499 L 523 500 L 522 500 L 521 499 L 522 498 L 522 497 L 520 499 L 518 497 L 517 497 L 516 498 L 515 497 L 515 496 L 514 497 L 513 497 L 513 501 L 514 501 L 515 502 L 514 503 L 516 503 L 518 501 L 521 501 L 522 500 L 525 500 L 526 501 L 527 501 L 528 502 L 528 503 L 529 502 L 530 503 L 531 502 L 532 503 L 532 502 L 533 501 L 533 500 L 532 499 L 533 498 L 532 498 L 531 497 L 531 496 L 530 495 L 529 496 "></path>
        <path fill="none" stroke="#fa00fa" stroke-width="3" d="M 498 376 L 499 377 L 498 378 L 497 378 L 497 379 L 499 381 L 499 382 L 498 383 L 498 384 L 500 386 L 499 387 L 497 387 L 498 387 L 499 388 L 499 390 L 498 391 L 498 392 L 497 393 L 497 395 L 499 397 L 500 396 L 501 397 L 502 396 L 504 396 L 504 394 L 503 393 L 503 392 L 502 391 L 501 392 L 499 390 L 501 388 L 501 384 L 502 383 L 502 382 L 503 381 L 502 380 L 502 377 L 501 378 L 500 377 L 499 377 "></path>
        <path fill="none" stroke="#fa00fa" stroke-width="3" d="M 545 365 L 545 366 L 544 367 L 543 367 L 544 368 L 544 369 L 545 370 L 545 372 L 543 374 L 543 375 L 544 376 L 543 377 L 543 378 L 542 379 L 542 380 L 543 381 L 543 382 L 544 382 L 546 384 L 548 384 L 549 383 L 549 382 L 550 381 L 549 380 L 549 379 L 548 378 L 548 376 L 547 375 L 548 374 L 546 372 L 548 370 L 545 370 L 544 369 L 544 368 L 545 367 L 546 368 L 546 365 "></path>
        <path fill="none" stroke="#fa00fa" stroke-width="3" d="M 545 466 L 543 468 L 543 469 L 542 470 L 543 471 L 543 473 L 544 473 L 546 475 L 546 476 L 547 475 L 549 475 L 550 474 L 549 473 L 550 472 L 550 471 L 549 470 L 549 468 L 548 468 L 547 467 L 547 466 "></path>
        <path fill="none" stroke="#fa00fa" stroke-width="3" d="M 409 466 L 409 467 L 408 468 L 406 468 L 407 469 L 406 470 L 406 472 L 407 473 L 408 473 L 409 474 L 413 474 L 413 473 L 414 472 L 414 470 L 415 469 L 414 469 L 413 468 L 413 467 L 411 467 L 410 466 "></path>
        <path fill="none" stroke="#fa00fa" stroke-width="3" d="M 514 331 L 512 333 L 511 332 L 511 334 L 510 335 L 510 336 L 511 337 L 511 338 L 512 338 L 513 339 L 514 339 L 515 340 L 516 339 L 516 338 L 517 337 L 518 338 L 517 337 L 518 336 L 518 333 L 516 331 "></path>
        <path fill="none" stroke="#fa00fa" stroke-width="3" d="M 560 390 L 559 391 L 558 391 L 558 396 L 560 398 L 563 398 L 565 396 L 566 396 L 566 394 L 564 392 L 563 392 L 561 390 "></path>
        <path fill="none" stroke="#fa00fa" stroke-width="3" d="M 636 541 L 635 542 L 633 542 L 632 543 L 632 546 L 631 547 L 632 548 L 633 548 L 634 549 L 635 549 L 636 550 L 637 550 L 637 549 L 639 547 L 639 544 L 638 543 L 637 543 L 636 542 "></path>
        <path fill="none" stroke="#fa00fa" stroke-width="3" d="M 588 540 L 585 543 L 586 544 L 586 545 L 587 546 L 587 547 L 588 547 L 589 548 L 591 548 L 592 547 L 592 546 L 593 545 L 593 543 L 594 542 L 593 541 L 589 541 "></path>
        <path fill="none" stroke="#fa00fa" stroke-width="3" d="M 556 422 L 556 423 L 555 424 L 557 426 L 556 427 L 557 428 L 558 428 L 559 429 L 560 429 L 561 428 L 563 428 L 564 427 L 564 424 L 563 423 L 560 423 L 559 422 "></path>
        <path fill="none" stroke="#fa00fa" stroke-width="3" d="M 575 375 L 574 376 L 572 376 L 572 378 L 570 380 L 570 381 L 571 382 L 572 382 L 573 383 L 576 383 L 578 381 L 578 378 "></path>
        <path fill="none" stroke="#fa00fa" stroke-width="3" d="M 378 496 L 377 497 L 375 497 L 375 499 L 376 500 L 375 501 L 376 502 L 377 502 L 378 503 L 381 503 L 383 501 L 383 499 L 382 498 L 382 497 L 381 497 L 380 496 "></path>
        <path fill="none" stroke="#fa00fa" stroke-width="3" d="M 244 226 L 241 229 L 241 230 L 243 232 L 243 233 L 247 233 L 248 232 L 248 231 L 249 230 L 249 228 L 248 227 L 248 226 "></path>
        <path fill="none" stroke="#fa00fa" stroke-width="3" d="M 529 406 L 528 407 L 527 407 L 526 408 L 526 409 L 525 410 L 525 411 L 526 412 L 526 413 L 530 413 L 531 414 L 533 412 L 533 411 L 532 410 L 533 409 L 532 409 L 531 408 L 532 407 L 531 407 L 530 406 "></path>
        <path fill="none" stroke="#fa00fa" stroke-width="3" d="M 468 301 L 466 303 L 466 305 L 467 306 L 467 308 L 468 308 L 469 309 L 472 309 L 472 308 L 473 307 L 473 304 L 470 301 L 469 302 "></path>
        <path fill="none" stroke="#fa00fa" stroke-width="3" d="M 452 316 L 451 317 L 451 318 L 450 319 L 451 320 L 450 321 L 450 322 L 451 322 L 452 323 L 453 323 L 454 324 L 455 324 L 456 323 L 457 323 L 457 319 L 455 317 L 455 316 "></path>
        <path fill="none" stroke="#fa00fa" stroke-width="3" d="M 529 465 L 526 468 L 526 471 L 527 471 L 528 472 L 529 472 L 530 473 L 531 472 L 532 472 L 534 470 L 533 469 L 533 467 L 531 465 L 530 466 "></path>
        <path fill="none" stroke="#fa00fa" stroke-width="3" d="M 618 377 L 617 378 L 617 379 L 616 380 L 616 382 L 617 383 L 617 384 L 618 384 L 619 385 L 620 385 L 621 384 L 621 383 L 622 382 L 623 382 L 624 381 L 623 380 L 623 378 L 622 378 L 621 377 L 620 378 L 619 377 "></path>
        <path fill="none" stroke="#fa00fa" stroke-width="3" d="M 529 481 L 528 482 L 528 483 L 527 484 L 527 485 L 526 486 L 528 488 L 528 489 L 530 491 L 531 490 L 531 489 L 532 488 L 532 487 L 533 486 L 533 485 L 532 484 L 532 482 L 531 481 "></path>
        <path fill="none" stroke="#fa00fa" stroke-width="3" d="M 516 362 L 515 363 L 514 363 L 513 364 L 513 368 L 515 370 L 514 371 L 515 370 L 517 370 L 519 368 L 519 367 L 520 366 L 519 365 L 519 364 L 517 362 "></path>
        <path fill="none" stroke="#fa00fa" stroke-width="3" d="M 560 165 L 557 168 L 558 169 L 557 170 L 557 172 L 563 172 L 564 171 L 564 168 L 563 167 L 563 166 L 562 165 "></path>
        <path fill="none" stroke="#fa00fa" stroke-width="3" d="M 437 452 L 437 453 L 435 455 L 435 457 L 436 458 L 440 458 L 441 457 L 442 457 L 444 455 L 443 454 L 443 453 L 442 452 L 439 452 L 438 453 "></path>
        <path fill="none" stroke="#fa00fa" stroke-width="3" d="M 500 256 L 498 258 L 497 258 L 496 259 L 497 260 L 496 261 L 497 262 L 497 263 L 499 263 L 500 264 L 502 264 L 502 263 L 504 261 L 504 260 L 503 259 L 503 258 L 502 258 "></path>
        <path fill="none" stroke="#fa00fa" stroke-width="3" d="M 486 375 L 484 377 L 483 377 L 481 379 L 482 380 L 482 381 L 483 381 L 485 383 L 487 383 L 489 381 L 489 379 L 487 377 L 488 376 L 487 375 "></path>
        <path fill="none" stroke="#fa00fa" stroke-width="3" d="M 498 421 L 494 425 L 494 426 L 497 429 L 498 429 L 499 430 L 499 429 L 501 427 L 502 427 L 501 426 L 501 423 L 500 423 L 499 422 L 500 421 "></path>
        <path fill="none" stroke="#fa00fa" stroke-width="3" d="M 634 286 L 632 288 L 632 293 L 633 294 L 634 293 L 635 294 L 636 294 L 638 292 L 637 291 L 638 290 L 639 290 L 638 289 L 638 288 L 637 287 L 636 287 L 635 286 "></path>
        <path fill="none" stroke="#fa00fa" stroke-width="3" d="M 469 406 L 468 407 L 466 407 L 465 408 L 464 408 L 464 410 L 466 412 L 467 411 L 468 412 L 468 413 L 471 413 L 471 412 L 472 411 L 473 411 L 472 410 L 472 408 L 471 407 L 470 407 "></path>
        <path fill="none" stroke="#fa00fa" stroke-width="3" d="M 485 421 L 484 422 L 483 422 L 483 424 L 482 425 L 481 425 L 483 427 L 487 427 L 488 426 L 490 426 L 491 425 L 490 424 L 491 423 L 489 423 L 488 422 L 488 421 "></path>
        <path fill="none" stroke="#fa00fa" stroke-width="3" d="M 502 361 L 502 362 L 501 363 L 500 362 L 499 362 L 498 363 L 498 365 L 497 366 L 497 368 L 498 369 L 500 369 L 501 368 L 502 368 L 504 366 L 505 366 L 505 365 L 503 363 L 503 362 "></path>
        <path fill="none" stroke="#fa00fa" stroke-width="3" d="M 439 318 L 438 319 L 438 320 L 437 321 L 436 321 L 437 322 L 436 323 L 436 324 L 438 326 L 440 326 L 441 325 L 442 325 L 442 324 L 443 323 L 443 322 L 442 321 L 442 319 L 441 319 L 440 318 "></path>
        <path fill="none" stroke="#fa00fa" stroke-width="3" d="M 483 302 L 481 304 L 481 308 L 482 309 L 483 309 L 484 310 L 486 308 L 486 307 L 488 305 L 487 304 L 487 303 L 486 302 "></path>
        <path fill="none" stroke="#fa00fa" stroke-width="3" d="M 455 240 L 453 242 L 453 245 L 454 246 L 457 246 L 458 247 L 460 245 L 460 244 L 461 243 L 459 241 L 458 241 L 457 240 "></path>
        <path fill="none" stroke="#fa00fa" stroke-width="3" d="M 485 256 L 484 257 L 484 258 L 483 259 L 483 261 L 484 262 L 483 263 L 485 265 L 486 265 L 486 264 L 487 263 L 488 263 L 488 261 L 489 260 L 488 259 L 489 258 L 489 257 L 488 257 L 487 256 "></path>
        <path fill="none" stroke="#fa00fa" stroke-width="3" d="M 347 361 L 348 362 L 347 363 L 346 363 L 346 366 L 347 367 L 348 367 L 349 368 L 350 368 L 351 367 L 352 367 L 353 366 L 352 365 L 353 364 L 353 363 L 351 361 "></path>
        <path fill="none" stroke="#fa00fa" stroke-width="3" d="M 512 318 L 511 319 L 510 319 L 511 320 L 511 321 L 510 322 L 510 323 L 511 323 L 512 324 L 514 324 L 515 323 L 516 324 L 518 322 L 518 320 L 517 319 L 516 319 L 515 318 "></path>
        <path fill="none" stroke="#fa00fa" stroke-width="3" d="M 469 392 L 468 393 L 467 393 L 466 394 L 467 395 L 467 397 L 468 396 L 469 397 L 469 398 L 473 398 L 474 397 L 474 395 L 475 394 L 474 394 L 473 393 L 473 392 "></path>
        <path fill="none" stroke="#fa00fa" stroke-width="3" d="M 845 585 L 844 586 L 843 586 L 841 588 L 842 589 L 842 591 L 843 592 L 846 592 L 847 591 L 848 591 L 848 590 L 849 589 L 849 588 L 847 586 L 846 586 "></path>
        <path fill="none" stroke="#fa00fa" stroke-width="3" d="M 484 316 L 483 317 L 482 317 L 482 318 L 481 319 L 482 320 L 481 321 L 484 324 L 485 324 L 486 323 L 487 323 L 488 322 L 489 322 L 488 322 L 487 321 L 487 319 L 488 318 L 487 317 L 485 317 "></path>
        <path fill="none" stroke="#fa00fa" stroke-width="3" d="M 426 481 L 425 482 L 423 482 L 422 483 L 422 486 L 424 488 L 425 488 L 426 489 L 428 487 L 428 485 L 429 484 L 429 483 L 428 483 L 427 482 L 427 481 "></path>
        <path fill="none" stroke="#fa00fa" stroke-width="3" d="M 679 301 L 678 302 L 677 302 L 677 303 L 676 304 L 677 305 L 677 307 L 678 307 L 679 308 L 680 308 L 681 309 L 683 307 L 683 303 L 682 303 L 681 302 L 682 301 L 681 302 L 680 301 "></path>
        <path fill="none" stroke="#fa00fa" stroke-width="3" d="M 468 377 L 466 379 L 466 380 L 467 381 L 466 382 L 467 382 L 469 384 L 470 384 L 471 385 L 473 383 L 473 379 L 471 379 L 469 377 "></path>
        <path fill="none" stroke="#fa00fa" stroke-width="3" d="M 364 556 L 363 557 L 362 557 L 361 558 L 361 562 L 362 562 L 363 563 L 365 563 L 366 562 L 367 563 L 366 562 L 367 561 L 368 561 L 368 558 L 367 558 L 365 556 "></path>
        <path fill="none" stroke="#fa00fa" stroke-width="3" d="M 692 301 L 691 302 L 690 302 L 690 305 L 691 304 L 692 305 L 692 307 L 697 307 L 697 304 L 698 303 L 696 301 "></path>
        <path fill="none" stroke="#fa00fa" stroke-width="3" d="M 261 450 L 260 451 L 258 451 L 258 453 L 257 454 L 257 456 L 258 457 L 260 457 L 261 458 L 262 457 L 263 457 L 263 456 L 264 455 L 263 454 L 263 452 "></path>
        <path fill="none" stroke="#fa00fa" stroke-width="3" d="M 529 436 L 529 437 L 528 438 L 527 438 L 525 440 L 526 441 L 526 442 L 527 443 L 528 442 L 529 443 L 530 442 L 532 442 L 533 441 L 533 439 L 532 438 L 532 437 L 531 436 "></path>
        <path fill="none" stroke="#fa00fa" stroke-width="3" d="M 723 332 L 723 333 L 722 334 L 722 336 L 721 337 L 723 339 L 726 339 L 727 338 L 728 338 L 728 334 L 727 333 L 726 333 L 725 332 L 724 333 "></path>
        <path fill="none" stroke="#fa00fa" stroke-width="3" d="M 393 408 L 392 409 L 391 409 L 392 410 L 392 412 L 393 412 L 394 413 L 394 414 L 398 414 L 399 413 L 399 412 L 398 411 L 399 410 L 397 408 "></path>
        <path fill="none" stroke="#fa00fa" stroke-width="3" d="M 365 466 L 362 469 L 362 470 L 363 471 L 363 472 L 364 472 L 365 473 L 367 473 L 368 472 L 369 472 L 369 468 L 368 467 L 366 467 "></path>
        <path fill="none" stroke="#fa00fa" stroke-width="3" d="M 364 541 L 363 542 L 362 542 L 362 543 L 361 544 L 361 546 L 362 547 L 363 547 L 364 548 L 365 548 L 366 547 L 367 547 L 367 546 L 368 545 L 368 543 L 366 541 L 365 542 "></path>
        <path fill="none" stroke="#fa00fa" stroke-width="3" d="M 560 181 L 559 182 L 557 182 L 557 185 L 558 186 L 558 187 L 563 187 L 564 186 L 564 184 L 563 183 L 563 182 L 562 181 "></path>
        <path fill="none" stroke="#fa00fa" stroke-width="3" d="M 695 481 L 694 482 L 693 482 L 693 483 L 692 484 L 691 483 L 692 484 L 692 487 L 693 488 L 695 488 L 696 487 L 698 487 L 699 486 L 699 485 L 698 484 L 698 482 L 696 482 "></path>
        <path fill="none" stroke="#fa00fa" stroke-width="3" d="M 559 496 L 558 497 L 558 498 L 557 499 L 556 499 L 556 500 L 557 501 L 557 503 L 558 503 L 559 504 L 560 503 L 561 503 L 563 501 L 563 500 L 562 499 L 563 498 L 562 497 L 560 497 "></path>
        <path fill="none" stroke="#fa00fa" stroke-width="3" d="M 470 511 L 470 512 L 469 513 L 468 513 L 467 514 L 468 515 L 467 516 L 467 517 L 468 518 L 471 518 L 472 517 L 473 517 L 473 516 L 474 515 L 474 513 L 473 512 L 472 512 L 471 511 "></path>
        <path fill="none" stroke="#fa00fa" stroke-width="3" d="M 485 271 L 484 272 L 483 272 L 482 273 L 482 277 L 483 278 L 483 279 L 484 278 L 487 278 L 488 277 L 488 273 L 487 273 "></path>
        <path fill="none" stroke="#fa00fa" stroke-width="3" d="M 544 421 L 543 422 L 542 422 L 543 423 L 543 424 L 542 425 L 541 425 L 542 426 L 542 427 L 543 428 L 542 429 L 543 429 L 544 428 L 547 428 L 546 427 L 548 425 L 548 424 L 547 423 L 548 422 L 547 421 "></path>
        <path fill="none" stroke="#fa00fa" stroke-width="3" d="M 425 556 L 423 558 L 423 559 L 424 560 L 423 561 L 425 563 L 428 563 L 428 561 L 429 560 L 429 559 L 430 558 L 428 556 L 427 556 L 426 557 "></path>
        <path fill="none" stroke="#fa00fa" stroke-width="3" d="M 529 390 L 527 392 L 527 395 L 529 397 L 530 396 L 531 397 L 532 396 L 533 397 L 534 397 L 533 396 L 533 395 L 534 394 L 535 394 L 533 392 L 532 392 L 531 391 L 530 391 "></path>
        <path fill="none" stroke="#fa00fa" stroke-width="3" d="M 575 435 L 574 436 L 573 436 L 572 437 L 572 438 L 571 439 L 572 439 L 573 440 L 573 441 L 575 443 L 577 443 L 578 442 L 578 441 L 577 440 L 578 439 L 578 438 "></path>
        <path fill="none" stroke="#fa00fa" stroke-width="3" d="M 484 390 L 483 391 L 482 391 L 482 393 L 483 394 L 482 395 L 482 396 L 483 397 L 484 397 L 485 398 L 486 397 L 487 397 L 488 396 L 488 393 L 486 391 L 485 391 "></path>
        <path fill="none" stroke="#fa00fa" stroke-width="3" d="M 784 407 L 783 408 L 781 408 L 781 412 L 783 414 L 784 413 L 786 413 L 787 412 L 787 411 L 788 410 L 787 409 L 787 408 L 786 407 "></path>
        <path fill="none" stroke="#fa00fa" stroke-width="3" d="M 606 376 L 605 377 L 602 377 L 602 378 L 601 379 L 601 382 L 602 382 L 603 383 L 604 382 L 605 383 L 606 383 L 607 382 L 607 381 L 608 380 L 607 379 L 607 376 "></path>
        <path fill="none" stroke="#fa00fa" stroke-width="3" d="M 528 182 L 526 184 L 526 185 L 527 186 L 526 187 L 528 189 L 529 188 L 530 189 L 532 187 L 532 186 L 533 185 L 532 184 L 532 183 L 531 183 L 530 182 "></path>
        <path fill="none" stroke="#fa00fa" stroke-width="3" d="M 334 466 L 332 468 L 332 470 L 333 471 L 333 472 L 334 473 L 337 473 L 338 472 L 338 468 L 337 467 L 336 467 L 335 466 "></path>
        <path fill="none" stroke="#fa00fa" stroke-width="3" d="M 799 377 L 797 379 L 797 382 L 799 384 L 801 384 L 803 382 L 803 378 L 801 378 L 800 377 "></path>
        <path fill="none" stroke="#fa00fa" stroke-width="3" d="M 650 212 L 648 214 L 648 216 L 649 217 L 649 218 L 650 218 L 651 219 L 652 218 L 653 218 L 655 216 L 654 215 L 654 213 L 653 212 "></path>
        <path fill="none" stroke="#fa00fa" stroke-width="3" d="M 407 241 L 407 242 L 405 244 L 405 245 L 406 246 L 406 247 L 407 248 L 408 247 L 411 247 L 412 246 L 412 245 L 411 244 L 412 243 L 411 242 L 410 242 L 409 241 "></path>
        <path fill="none" stroke="#fa00fa" stroke-width="3" d="M 708 483 L 708 484 L 707 485 L 707 489 L 708 489 L 709 490 L 711 490 L 711 489 L 713 487 L 713 485 L 711 483 "></path>
        <path fill="none" stroke="#fa00fa" stroke-width="3" d="M 469 528 L 468 529 L 467 529 L 467 532 L 466 533 L 467 534 L 468 534 L 469 535 L 471 535 L 472 534 L 472 533 L 473 532 L 472 531 L 472 529 L 471 528 "></path>
        <path fill="none" stroke="#fa00fa" stroke-width="3" d="M 529 166 L 528 167 L 527 167 L 527 168 L 526 169 L 526 170 L 527 171 L 527 173 L 531 173 L 533 171 L 532 170 L 532 168 L 531 167 L 530 167 "></path>
        <path fill="none" stroke="#fa00fa" stroke-width="3" d="M 485 361 L 484 362 L 483 362 L 482 363 L 481 363 L 482 364 L 481 365 L 482 365 L 483 366 L 482 367 L 481 367 L 483 367 L 484 368 L 486 368 L 488 366 L 488 363 L 487 362 L 486 362 "></path>
        <path fill="none" stroke="#fa00fa" stroke-width="3" d="M 425 782 L 423 784 L 423 785 L 422 786 L 422 788 L 423 789 L 425 789 L 426 788 L 427 788 L 428 787 L 428 786 L 429 785 L 428 784 L 428 783 L 427 783 L 426 782 "></path>
        <path fill="none" stroke="#fa00fa" stroke-width="3" d="M 620 392 L 619 393 L 619 395 L 618 396 L 620 398 L 620 399 L 621 398 L 622 399 L 623 399 L 624 398 L 624 397 L 625 396 L 624 395 L 624 394 L 623 393 L 624 392 "></path>
        <path fill="none" stroke="#fa00fa" stroke-width="3" d="M 557 317 L 556 318 L 557 319 L 557 320 L 556 321 L 556 322 L 557 322 L 558 323 L 560 323 L 561 322 L 563 322 L 563 321 L 562 320 L 563 319 L 561 317 "></path>
        <path fill="none" stroke="#fa00fa" stroke-width="3" d="M 573 317 L 573 318 L 572 319 L 571 319 L 571 322 L 572 322 L 573 323 L 576 323 L 577 322 L 577 321 L 578 320 L 578 318 L 577 318 L 576 317 "></path>
        <path fill="none" stroke="#fa00fa" stroke-width="3" d="M 454 197 L 451 200 L 452 201 L 452 202 L 453 203 L 456 203 L 459 200 L 457 198 L 457 197 "></path>
        <path fill="none" stroke="#fa00fa" stroke-width="3" d="M 440 242 L 439 243 L 439 244 L 438 245 L 439 246 L 438 247 L 439 248 L 440 248 L 441 249 L 442 249 L 443 248 L 444 248 L 443 247 L 445 245 L 444 244 L 444 243 L 443 243 L 442 242 "></path>
        <path fill="none" stroke="#fa00fa" stroke-width="3" d="M 409 375 L 408 376 L 407 376 L 407 379 L 406 380 L 409 383 L 410 382 L 411 382 L 412 381 L 412 379 L 413 378 L 412 377 L 411 377 L 410 376 L 410 375 "></path>
        <path fill="none" stroke="#fa00fa" stroke-width="3" d="M 678 437 L 678 438 L 676 440 L 676 441 L 677 442 L 677 443 L 678 444 L 679 443 L 680 444 L 681 443 L 682 443 L 682 438 L 681 437 "></path>
        <path fill="none" stroke="#fa00fa" stroke-width="3" d="M 473 437 L 472 438 L 471 438 L 470 439 L 469 438 L 468 438 L 468 439 L 466 441 L 469 444 L 470 444 L 471 443 L 472 443 L 472 442 L 473 441 L 474 441 L 474 440 L 473 439 L 474 438 "></path>
        <path fill="none" stroke="#fa00fa" stroke-width="3" d="M 512 286 L 512 287 L 510 289 L 510 290 L 513 293 L 514 293 L 515 292 L 516 292 L 516 291 L 517 290 L 516 289 L 516 287 L 515 287 L 514 286 "></path>
        <path fill="none" stroke="#fa00fa" stroke-width="3" d="M 455 361 L 454 362 L 453 362 L 451 364 L 451 365 L 452 366 L 452 367 L 453 367 L 454 368 L 455 368 L 457 366 L 458 366 L 458 363 L 457 363 "></path>
        <path fill="none" stroke="#fa00fa" stroke-width="3" d="M 603 346 L 603 347 L 602 348 L 602 352 L 603 353 L 604 353 L 605 352 L 606 352 L 608 350 L 608 347 L 606 347 L 605 346 L 604 347 "></path>
        <path fill="none" stroke="#fa00fa" stroke-width="3" d="M 607 421 L 606 422 L 605 422 L 604 423 L 603 423 L 603 425 L 604 426 L 604 427 L 606 429 L 607 428 L 608 428 L 608 427 L 609 426 L 608 425 L 609 424 L 609 423 "></path>
        <path fill="none" stroke="#fa00fa" stroke-width="3" d="M 272 723 L 271 724 L 271 728 L 272 728 L 273 729 L 275 729 L 275 728 L 276 727 L 277 728 L 277 724 L 276 723 "></path>
        <path fill="none" stroke="#fa00fa" stroke-width="3" d="M 485 241 L 484 242 L 483 242 L 483 243 L 482 244 L 482 246 L 483 247 L 485 247 L 486 246 L 487 247 L 488 246 L 488 245 L 489 244 L 488 243 L 488 242 L 487 241 "></path>
        <path fill="none" stroke="#fa00fa" stroke-width="3" d="M 633 480 L 631 482 L 632 483 L 632 484 L 631 485 L 632 486 L 633 486 L 634 487 L 636 487 L 637 486 L 637 482 L 636 481 L 634 481 "></path>
        <path fill="none" stroke="#fa00fa" stroke-width="3" d="M 394 468 L 393 469 L 392 469 L 392 470 L 393 471 L 393 473 L 395 475 L 396 475 L 397 474 L 398 474 L 398 470 L 396 468 "></path>
        <path fill="none" stroke="#fa00fa" stroke-width="3" d="M 258 437 L 256 439 L 256 441 L 258 443 L 260 443 L 261 442 L 262 442 L 262 440 L 263 439 L 262 438 L 262 437 L 260 437 L 259 438 "></path>
        <path fill="none" stroke="#fa00fa" stroke-width="3" d="M 426 437 L 425 438 L 424 438 L 423 439 L 423 441 L 422 442 L 423 443 L 428 443 L 428 442 L 429 441 L 429 439 L 427 437 "></path>
        <path fill="none" stroke="#fa00fa" stroke-width="3" d="M 514 450 L 514 452 L 513 453 L 513 456 L 515 458 L 516 458 L 517 457 L 518 457 L 519 456 L 518 455 L 519 454 L 516 451 L 515 451 "></path>
        <path fill="none" stroke="#fa00fa" stroke-width="3" d="M 229 301 L 226 304 L 226 306 L 228 308 L 229 307 L 230 308 L 231 307 L 232 307 L 232 304 L 231 303 L 231 301 "></path>
        <path fill="none" stroke="#fa00fa" stroke-width="3" d="M 380 511 L 379 512 L 378 512 L 377 513 L 377 514 L 378 515 L 378 517 L 379 517 L 380 518 L 381 517 L 382 517 L 382 516 L 383 515 L 383 514 L 384 513 L 382 511 "></path>
        <path fill="none" stroke="#fa00fa" stroke-width="3" d="M 276 331 L 275 332 L 274 332 L 273 333 L 273 337 L 274 337 L 275 338 L 276 338 L 278 336 L 279 336 L 279 333 L 278 332 L 277 332 "></path>
        <path fill="none" stroke="#fa00fa" stroke-width="3" d="M 472 346 L 471 347 L 470 347 L 469 348 L 469 349 L 468 350 L 468 351 L 469 352 L 469 353 L 470 353 L 471 352 L 472 353 L 474 351 L 474 350 L 475 349 "></path>
        <path fill="none" stroke="#fa00fa" stroke-width="3" d="M 799 137 L 798 138 L 797 138 L 797 139 L 796 140 L 797 141 L 797 142 L 796 143 L 797 144 L 801 144 L 801 143 L 802 142 L 802 140 L 801 139 L 801 138 L 800 138 "></path>
        <path fill="none" stroke="#fa00fa" stroke-width="3" d="M 649 227 L 648 228 L 647 228 L 647 232 L 648 232 L 649 233 L 652 233 L 652 232 L 653 231 L 653 229 L 652 228 L 652 227 "></path>
        <path fill="none" stroke="#fa00fa" stroke-width="3" d="M 214 406 L 212 408 L 212 409 L 213 410 L 212 411 L 214 413 L 215 412 L 216 412 L 218 410 L 218 407 L 217 406 L 216 406 L 215 407 "></path>
        <path fill="none" stroke="#fa00fa" stroke-width="3" d="M 573 753 L 573 754 L 572 755 L 572 756 L 574 758 L 575 758 L 576 759 L 577 758 L 578 758 L 579 757 L 579 755 L 577 753 "></path>
        <path fill="none" stroke="#fa00fa" stroke-width="3" d="M 469 766 L 468 767 L 467 767 L 465 769 L 466 770 L 466 772 L 470 772 L 472 770 L 472 768 L 470 766 "></path>
        <path fill="none" stroke="#fa00fa" stroke-width="3" d="M 289 452 L 287 454 L 287 456 L 288 457 L 288 458 L 292 458 L 293 457 L 293 454 L 291 452 "></path>
        <path fill="none" stroke="#fa00fa" stroke-width="3" d="M 169 347 L 168 348 L 167 348 L 166 349 L 166 352 L 168 354 L 169 353 L 171 353 L 171 352 L 172 351 L 172 350 L 171 349 L 172 348 L 171 348 L 170 347 "></path>
        <path fill="none" stroke="#fa00fa" stroke-width="3" d="M 531 346 L 530 347 L 528 347 L 527 348 L 527 352 L 529 352 L 530 353 L 531 353 L 533 351 L 533 349 L 531 347 "></path>
        <path fill="none" stroke="#fa00fa" stroke-width="3" d="M 619 258 L 618 259 L 618 260 L 617 261 L 618 262 L 618 264 L 622 264 L 623 263 L 623 259 L 622 258 "></path>
        <path fill="none" stroke="#fa00fa" stroke-width="3" d="M 527 542 L 527 544 L 526 545 L 527 546 L 527 547 L 528 548 L 531 548 L 531 547 L 532 546 L 532 545 L 533 544 L 531 542 "></path>
        <path fill="none" stroke="#fa00fa" stroke-width="3" d="M 410 603 L 409 604 L 408 604 L 407 605 L 407 607 L 410 610 L 411 610 L 411 609 L 413 607 L 413 606 L 414 605 L 413 605 L 412 604 L 412 603 "></path>
        <path fill="none" stroke="#fa00fa" stroke-width="3" d="M 425 316 L 424 317 L 423 317 L 423 318 L 422 319 L 423 320 L 423 322 L 424 322 L 425 323 L 427 323 L 427 322 L 428 321 L 429 321 L 429 320 L 427 318 L 428 317 L 426 317 "></path>
        <path fill="none" stroke="#fa00fa" stroke-width="3" d="M 351 330 L 350 331 L 349 331 L 348 332 L 348 336 L 349 337 L 352 337 L 353 336 L 353 335 L 354 334 L 352 332 L 353 331 L 352 331 "></path>
        <path fill="none" stroke="#fa00fa" stroke-width="3" d="M 635 556 L 634 557 L 633 557 L 633 558 L 632 559 L 631 558 L 632 559 L 632 561 L 633 562 L 637 562 L 638 561 L 638 557 L 637 557 L 636 556 "></path>
        <path fill="none" stroke="#fa00fa" stroke-width="3" d="M 561 377 L 557 381 L 557 382 L 558 383 L 559 383 L 560 384 L 560 383 L 562 381 L 563 382 L 564 381 L 564 380 L 565 379 L 563 377 "></path>
        <path fill="none" stroke="#fa00fa" stroke-width="3" d="M 393 378 L 391 380 L 391 381 L 392 382 L 392 384 L 396 384 L 397 383 L 397 382 L 398 381 L 396 379 L 395 379 L 394 378 "></path>
        <path fill="none" stroke="#fa00fa" stroke-width="3" d="M 396 286 L 395 287 L 393 287 L 392 288 L 392 290 L 395 293 L 396 293 L 397 292 L 398 292 L 398 289 L 397 288 L 397 287 "></path>
        <path fill="none" stroke="#fa00fa" stroke-width="3" d="M 694 511 L 694 512 L 693 513 L 692 512 L 691 513 L 691 515 L 694 518 L 695 517 L 697 517 L 697 512 L 696 511 L 695 512 "></path>
        <path fill="none" stroke="#fa00fa" stroke-width="3" d="M 470 483 L 469 484 L 467 484 L 467 485 L 466 486 L 468 488 L 468 489 L 471 489 L 472 488 L 473 488 L 472 487 L 473 486 L 472 485 L 473 484 L 472 483 "></path>
        <path fill="none" stroke="#fa00fa" stroke-width="3" d="M 560 677 L 559 678 L 558 678 L 558 679 L 557 680 L 558 681 L 558 682 L 559 683 L 560 683 L 561 682 L 563 682 L 564 681 L 564 679 L 562 677 "></path>
        <path fill="none" stroke="#fa00fa" stroke-width="3" d="M 651 332 L 650 333 L 649 333 L 648 334 L 648 336 L 650 338 L 651 337 L 652 337 L 653 338 L 655 336 L 654 335 L 654 333 L 653 332 "></path>
        <path fill="none" stroke="#fa00fa" stroke-width="3" d="M 409 482 L 407 484 L 408 485 L 407 486 L 408 487 L 408 488 L 412 488 L 414 486 L 413 485 L 413 484 L 412 484 L 411 483 L 411 482 "></path>
        <path fill="none" stroke="#fa00fa" stroke-width="3" d="M 438 17 L 437 18 L 437 19 L 436 20 L 437 21 L 436 22 L 437 22 L 438 23 L 437 24 L 438 23 L 439 24 L 440 24 L 440 23 L 442 21 L 442 18 L 441 18 L 440 17 "></path>
        <path fill="none" stroke="#fa00fa" stroke-width="3" d="M 678 783 L 678 784 L 676 786 L 677 787 L 677 788 L 679 788 L 680 789 L 683 786 L 683 783 "></path>
        <path fill="none" stroke="#fa00fa" stroke-width="3" d="M 365 137 L 364 138 L 362 138 L 361 139 L 361 140 L 362 141 L 362 143 L 365 143 L 366 144 L 366 143 L 367 142 L 368 142 L 368 140 L 367 140 L 366 139 L 366 138 "></path>
        <path fill="none" stroke="#fa00fa" stroke-width="3" d="M 559 557 L 558 558 L 557 558 L 556 559 L 557 560 L 556 561 L 557 562 L 557 563 L 559 563 L 560 564 L 561 564 L 561 563 L 562 562 L 563 562 L 563 561 "></path>
        <path fill="none" stroke="#fa00fa" stroke-width="3" d="M 468 332 L 468 336 L 469 337 L 469 338 L 472 338 L 472 337 L 473 336 L 474 336 L 474 333 L 473 333 L 472 332 L 471 332 L 470 333 L 469 332 "></path>
        <path fill="none" stroke="#fa00fa" stroke-width="3" d="M 590 362 L 589 363 L 588 363 L 587 364 L 588 365 L 588 367 L 589 368 L 590 368 L 591 369 L 592 369 L 592 368 L 594 366 L 593 365 L 594 364 L 592 364 L 591 363 L 591 362 "></path>
        <path fill="none" stroke="#fa00fa" stroke-width="3" d="M 559 467 L 559 468 L 558 469 L 557 469 L 557 471 L 559 473 L 561 473 L 563 471 L 563 468 L 562 467 "></path>
        <path fill="none" stroke="#fa00fa" stroke-width="3" d="M 573 422 L 573 423 L 572 424 L 571 424 L 571 425 L 572 426 L 572 427 L 573 428 L 574 427 L 575 428 L 576 427 L 577 427 L 578 426 L 578 424 L 577 424 L 576 423 L 576 422 "></path>
        <path fill="none" stroke="#fa00fa" stroke-width="3" d="M 468 108 L 468 109 L 467 110 L 467 113 L 468 114 L 471 114 L 472 113 L 473 113 L 473 111 L 471 109 L 472 108 L 471 109 L 470 108 "></path>
        <path fill="none" stroke="#fa00fa" stroke-width="3" d="M 288 497 L 287 498 L 287 501 L 288 502 L 289 502 L 290 503 L 291 503 L 292 502 L 293 502 L 293 501 L 292 500 L 293 499 L 291 497 "></path>
        <path fill="none" stroke="#fa00fa" stroke-width="3" d="M 617 707 L 617 709 L 616 710 L 617 711 L 617 712 L 618 713 L 622 713 L 622 708 L 621 708 L 620 707 L 619 707 L 618 708 "></path>
        <path fill="none" stroke="#fa00fa" stroke-width="3" d="M 591 556 L 590 557 L 589 557 L 589 558 L 588 559 L 589 560 L 588 561 L 588 562 L 589 563 L 592 563 L 592 562 L 594 560 L 594 559 "></path>
        <path fill="none" stroke="#fa00fa" stroke-width="3" d="M 381 227 L 380 228 L 377 228 L 376 229 L 377 230 L 377 231 L 376 232 L 377 232 L 378 233 L 379 232 L 380 233 L 381 233 L 382 232 L 383 232 L 383 230 L 382 229 L 382 228 "></path>
        <path fill="none" stroke="#fa00fa" stroke-width="3" d="M 560 363 L 559 364 L 558 364 L 558 366 L 557 367 L 557 369 L 561 369 L 563 367 L 563 364 L 562 364 L 561 363 "></path>
        <path fill="none" stroke="#fa00fa" stroke-width="3" d="M 499 511 L 497 513 L 496 513 L 496 516 L 497 517 L 498 517 L 499 518 L 500 517 L 501 517 L 502 516 L 502 514 "></path>
        <path fill="none" stroke="#fa00fa" stroke-width="3" d="M 483 512 L 482 513 L 482 514 L 481 515 L 482 516 L 482 517 L 485 517 L 486 518 L 486 517 L 487 516 L 488 516 L 488 514 L 486 512 "></path>
        <path fill="none" stroke="#fa00fa" stroke-width="3" d="M 723 571 L 722 572 L 722 574 L 723 575 L 722 576 L 723 576 L 724 577 L 727 577 L 728 576 L 727 575 L 727 572 L 726 571 "></path>
        <path fill="none" stroke="#fa00fa" stroke-width="3" d="M 530 451 L 526 455 L 526 456 L 528 456 L 529 457 L 529 458 L 530 458 L 532 456 L 533 456 L 532 455 L 533 454 L 532 453 L 532 452 L 531 451 "></path>
        <path fill="none" stroke="#fa00fa" stroke-width="3" d="M 589 348 L 589 349 L 588 350 L 587 349 L 587 350 L 586 351 L 586 352 L 587 353 L 588 353 L 590 355 L 591 354 L 592 354 L 593 353 L 592 352 L 592 350 L 593 349 L 592 350 L 591 349 L 591 348 L 590 349 "></path>
        <path fill="none" stroke="#fa00fa" stroke-width="3" d="M 740 361 L 739 362 L 738 362 L 737 363 L 738 364 L 736 366 L 737 366 L 738 367 L 738 368 L 739 367 L 740 368 L 741 367 L 742 367 L 742 366 L 743 365 L 742 364 L 742 362 L 741 362 "></path>
        <path fill="none" stroke="#fa00fa" stroke-width="3" d="M 514 436 L 514 439 L 513 440 L 513 442 L 514 443 L 515 442 L 516 443 L 517 442 L 518 443 L 519 442 L 518 441 L 519 440 L 517 438 L 517 437 L 516 437 L 515 436 "></path>
        <path fill="none" stroke="#fa00fa" stroke-width="3" d="M 559 435 L 558 436 L 558 437 L 557 438 L 557 439 L 558 440 L 557 441 L 559 439 L 560 440 L 560 441 L 558 443 L 557 443 L 558 443 L 559 444 L 558 445 L 559 444 L 560 445 L 561 444 L 562 444 L 562 443 L 561 442 L 561 441 L 562 440 L 561 439 L 562 438 L 562 437 L 561 436 L 560 436 "></path>
        <path fill="none" stroke="#fa00fa" stroke-width="3" d="M 287 123 L 286 124 L 286 127 L 287 128 L 290 128 L 291 129 L 291 128 L 292 127 L 292 125 L 290 123 "></path>
        <path fill="none" stroke="#fa00fa" stroke-width="3" d="M 350 466 L 349 467 L 348 467 L 347 468 L 347 469 L 348 470 L 348 472 L 349 472 L 350 473 L 351 473 L 351 472 L 352 471 L 353 471 L 352 470 L 353 469 L 352 468 L 352 466 "></path>
        <path fill="none" stroke="#fa00fa" stroke-width="3" d="M 619 332 L 616 335 L 617 336 L 617 337 L 619 339 L 620 338 L 621 338 L 623 336 L 622 335 L 622 334 L 621 333 L 620 333 "></path>
        <path fill="none" stroke="#fa00fa" stroke-width="3" d="M 544 632 L 544 633 L 542 635 L 543 636 L 542 637 L 543 638 L 547 638 L 548 637 L 548 634 L 547 633 L 546 633 L 545 632 "></path>
        <path fill="none" stroke="#fa00fa" stroke-width="3" d="M 455 286 L 455 287 L 453 289 L 453 291 L 452 292 L 453 293 L 457 293 L 458 292 L 458 288 L 457 287 L 456 288 L 455 287 "></path>
        <path fill="none" stroke="#fa00fa" stroke-width="3" d="M 636 270 L 635 271 L 633 271 L 633 272 L 632 273 L 631 273 L 632 274 L 632 276 L 637 276 L 637 275 L 638 274 L 638 273 L 637 272 L 637 271 "></path>
        <path fill="none" stroke="#fa00fa" stroke-width="3" d="M 843 422 L 841 424 L 842 425 L 842 426 L 844 428 L 846 428 L 848 426 L 847 425 L 847 424 L 845 422 "></path>
        <path fill="none" stroke="#fa00fa" stroke-width="3" d="M 484 348 L 483 349 L 483 350 L 482 351 L 483 351 L 484 352 L 484 354 L 486 354 L 487 353 L 488 353 L 488 351 L 489 350 L 489 349 L 488 349 L 487 348 "></path>
        <path fill="none" stroke="#fa00fa" stroke-width="3" d="M 514 573 L 513 574 L 513 577 L 514 577 L 515 578 L 516 578 L 517 579 L 519 577 L 519 575 L 518 574 L 518 573 "></path>
        <path fill="none" stroke="#fa00fa" stroke-width="3" d="M 497 347 L 497 348 L 498 349 L 497 350 L 499 352 L 500 352 L 501 353 L 502 352 L 503 352 L 503 349 L 502 348 L 502 347 "></path>
        <path fill="none" stroke="#fa00fa" stroke-width="3" d="M 363 452 L 363 458 L 364 458 L 365 459 L 366 458 L 367 458 L 367 457 L 368 456 L 368 454 L 367 453 L 366 453 L 365 452 "></path>
        <path fill="none" stroke="#fa00fa" stroke-width="3" d="M 258 288 L 258 290 L 257 291 L 258 292 L 258 293 L 259 294 L 260 294 L 261 293 L 262 293 L 262 292 L 263 291 L 263 288 "></path>
        <path fill="none" stroke="#fa00fa" stroke-width="3" d="M 381 482 L 379 484 L 379 487 L 380 488 L 382 488 L 383 487 L 384 487 L 385 486 L 384 485 L 384 483 L 383 482 "></path>
        <path fill="none" stroke="#fa00fa" stroke-width="3" d="M 573 198 L 573 199 L 571 201 L 573 203 L 573 204 L 577 204 L 577 199 L 576 198 L 575 199 L 574 198 "></path>
        <path fill="none" stroke="#fa00fa" stroke-width="3" d="M 394 602 L 393 603 L 392 603 L 391 604 L 392 605 L 392 606 L 393 607 L 393 608 L 396 608 L 396 607 L 397 606 L 397 605 L 398 604 L 398 603 L 396 603 L 395 602 "></path>
        <path fill="none" stroke="#fa00fa" stroke-width="3" d="M 410 332 L 409 333 L 408 333 L 407 334 L 407 337 L 408 337 L 409 338 L 411 338 L 413 336 L 413 335 L 412 334 L 412 333 L 411 332 "></path>
        <path fill="none" stroke="#fa00fa" stroke-width="3" d="M 650 511 L 649 512 L 648 512 L 648 514 L 647 515 L 650 518 L 651 518 L 652 517 L 653 517 L 653 516 L 654 515 L 653 514 L 653 513 L 651 513 L 650 512 "></path>
        <path fill="none" stroke="#fa00fa" stroke-width="3" d="M 830 377 L 829 378 L 828 378 L 828 382 L 830 384 L 831 383 L 832 383 L 833 382 L 833 379 L 831 377 "></path>
        <path fill="none" stroke="#fa00fa" stroke-width="3" d="M 529 738 L 527 740 L 527 743 L 529 745 L 530 744 L 531 744 L 532 743 L 533 743 L 533 742 L 532 741 L 532 740 L 531 739 L 530 739 "></path>
        <path fill="none" stroke="#fa00fa" stroke-width="3" d="M 632 302 L 632 303 L 631 304 L 631 305 L 632 306 L 631 307 L 632 308 L 633 308 L 634 307 L 635 307 L 636 308 L 637 308 L 637 304 L 636 304 L 635 303 L 635 302 L 634 303 L 633 302 "></path>
        <path fill="none" stroke="#fa00fa" stroke-width="3" d="M 438 31 L 438 34 L 437 35 L 438 36 L 438 37 L 442 37 L 442 36 L 443 35 L 443 33 L 442 32 L 441 32 L 440 31 "></path>
        <path fill="none" stroke="#fa00fa" stroke-width="3" d="M 618 272 L 618 273 L 617 274 L 617 275 L 616 276 L 617 276 L 618 277 L 618 278 L 621 278 L 623 276 L 622 275 L 622 273 L 621 272 L 620 272 L 619 273 "></path>
        <path fill="none" stroke="#fa00fa" stroke-width="3" d="M 244 317 L 243 318 L 243 319 L 242 320 L 243 321 L 242 322 L 244 322 L 245 323 L 246 323 L 248 321 L 248 320 L 247 319 L 248 318 L 247 317 "></path>
        <path fill="none" stroke="#fa00fa" stroke-width="3" d="M 304 452 L 303 453 L 303 455 L 302 456 L 303 457 L 303 458 L 304 457 L 305 458 L 306 458 L 308 456 L 308 454 L 307 453 L 307 452 "></path>
        <path fill="none" stroke="#fa00fa" stroke-width="3" d="M 184 467 L 182 469 L 182 471 L 183 472 L 184 472 L 185 473 L 186 472 L 187 472 L 188 471 L 188 469 L 186 467 "></path>
        <path fill="none" stroke="#fa00fa" stroke-width="3" d="M 724 377 L 722 379 L 722 380 L 723 381 L 723 382 L 724 382 L 725 383 L 728 383 L 728 379 L 727 378 L 725 378 "></path>
        <path fill="none" stroke="#fa00fa" stroke-width="3" d="M 560 528 L 559 529 L 558 529 L 558 530 L 557 531 L 557 533 L 558 532 L 559 533 L 560 533 L 561 534 L 562 534 L 562 533 L 564 531 L 564 530 L 563 530 L 562 529 L 562 528 "></path>
        <path fill="none" stroke="#fa00fa" stroke-width="3" d="M 365 631 L 364 632 L 363 632 L 363 635 L 364 636 L 368 636 L 369 635 L 369 633 L 368 632 L 368 631 "></path>
        <path fill="none" stroke="#fa00fa" stroke-width="3" d="M 651 288 L 650 289 L 648 289 L 648 290 L 647 291 L 647 292 L 649 294 L 652 294 L 652 293 L 653 292 L 653 289 L 652 289 "></path>
        <path fill="none" stroke="#fa00fa" stroke-width="3" d="M 1010 286 L 1009 287 L 1008 287 L 1008 288 L 1007 289 L 1007 290 L 1008 291 L 1009 291 L 1010 292 L 1011 292 L 1012 291 L 1013 291 L 1012 290 L 1013 289 L 1013 287 L 1012 286 "></path>
        <path fill="none" stroke="#fa00fa" stroke-width="3" d="M 545 212 L 544 213 L 543 213 L 543 216 L 544 216 L 545 217 L 545 218 L 546 217 L 547 218 L 548 217 L 549 217 L 549 213 L 548 213 L 547 212 L 546 213 "></path>
        <path fill="none" stroke="#fa00fa" stroke-width="3" d="M 559 513 L 559 514 L 557 516 L 557 517 L 559 519 L 561 519 L 563 517 L 563 515 L 561 513 "></path>
        <path fill="none" stroke="#fa00fa" stroke-width="3" d="M 499 331 L 499 332 L 498 333 L 498 336 L 499 337 L 500 337 L 501 336 L 502 336 L 504 334 L 504 332 L 502 332 L 501 331 "></path>
        <path fill="none" stroke="#fa00fa" stroke-width="3" d="M 529 332 L 527 334 L 528 335 L 527 336 L 528 336 L 529 337 L 533 337 L 534 336 L 534 334 L 533 334 L 532 333 L 532 332 L 531 332 L 530 333 "></path>
        <path fill="none" stroke="#fa00fa" stroke-width="3" d="M 485 333 L 484 334 L 483 334 L 483 338 L 484 339 L 485 339 L 486 340 L 488 338 L 488 336 L 487 335 L 487 334 L 486 333 "></path>
        <path fill="none" stroke="#fa00fa" stroke-width="3" d="M 678 482 L 678 483 L 677 484 L 677 487 L 678 488 L 681 488 L 681 486 L 682 485 L 682 482 "></path>
        <path fill="none" stroke="#fa00fa" stroke-width="3" d="M 351 525 L 350 526 L 349 526 L 348 527 L 347 527 L 348 528 L 347 529 L 349 531 L 352 531 L 353 530 L 354 530 L 354 529 L 353 528 L 353 527 L 352 527 L 351 526 "></path>
        <path fill="none" stroke="#fa00fa" stroke-width="3" d="M 499 662 L 498 663 L 497 663 L 496 664 L 496 667 L 497 668 L 498 667 L 499 668 L 500 667 L 501 667 L 501 666 L 502 665 L 502 664 L 500 662 "></path>
        <path fill="none" stroke="#fa00fa" stroke-width="3" d="M 244 496 L 243 497 L 242 497 L 242 498 L 241 499 L 241 500 L 242 501 L 242 502 L 246 502 L 246 500 L 247 499 L 246 498 L 246 497 L 245 496 "></path>
        <path fill="none" stroke="#fa00fa" stroke-width="3" d="M 517 374 L 516 375 L 515 375 L 514 376 L 513 376 L 512 377 L 512 378 L 514 380 L 514 381 L 515 381 L 516 380 L 517 381 L 516 380 L 518 378 L 519 378 L 518 377 L 518 376 L 517 375 "></path>
        <path fill="none" stroke="#fa00fa" stroke-width="3" d="M 678 258 L 677 259 L 676 259 L 675 260 L 675 261 L 678 264 L 679 264 L 681 262 L 681 260 L 680 259 L 680 258 "></path>
        <path fill="none" stroke="#fa00fa" stroke-width="3" d="M 393 573 L 392 574 L 392 577 L 394 579 L 395 579 L 396 578 L 397 578 L 397 576 L 398 575 L 397 575 L 396 574 L 396 573 "></path>
        <path fill="none" stroke="#fa00fa" stroke-width="3" d="M 513 408 L 512 409 L 512 410 L 513 410 L 514 411 L 514 415 L 515 415 L 516 414 L 517 414 L 518 413 L 518 411 L 517 410 L 517 409 L 516 409 L 515 408 "></path>
        <path fill="none" stroke="#fa00fa" stroke-width="3" d="M 591 301 L 590 302 L 588 302 L 587 303 L 587 306 L 588 307 L 589 307 L 590 306 L 591 307 L 591 306 L 592 305 L 593 305 L 593 303 "></path>
        <path fill="none" stroke="#fa00fa" stroke-width="3" d="M 380 453 L 379 454 L 378 454 L 377 455 L 377 456 L 378 457 L 377 458 L 378 458 L 379 459 L 379 460 L 380 459 L 381 459 L 383 457 L 383 456 L 382 455 L 382 454 L 381 454 "></path>
        <path fill="none" stroke="#fa00fa" stroke-width="3" d="M 333 288 L 331 290 L 333 292 L 333 293 L 334 293 L 335 292 L 336 293 L 338 293 L 338 291 L 337 290 L 337 289 L 336 288 "></path>
        <path fill="none" stroke="#fa00fa" stroke-width="3" d="M 680 587 L 678 589 L 677 589 L 677 590 L 678 591 L 677 592 L 678 592 L 679 593 L 681 593 L 683 591 L 683 588 L 681 588 "></path>
        <path fill="none" stroke="#fa00fa" stroke-width="3" d="M 483 556 L 483 559 L 484 560 L 484 561 L 485 562 L 486 561 L 487 561 L 488 562 L 488 560 L 489 559 L 488 558 L 488 557 L 487 556 L 486 557 L 485 556 "></path>
        <path fill="none" stroke="#fa00fa" stroke-width="3" d="M 259 138 L 258 139 L 258 140 L 257 141 L 258 142 L 258 143 L 259 144 L 260 144 L 262 142 L 263 142 L 263 139 L 262 138 L 261 139 L 260 138 "></path>
        <path fill="none" stroke="#fa00fa" stroke-width="3" d="M 470 420 L 469 421 L 468 421 L 468 423 L 469 424 L 468 425 L 470 427 L 471 427 L 472 426 L 472 424 L 473 423 L 473 422 L 471 420 "></path>
        <path fill="none" stroke="#fa00fa" stroke-width="3" d="M 472 166 L 471 167 L 470 167 L 468 169 L 468 171 L 470 173 L 471 172 L 472 173 L 472 172 L 473 171 L 473 167 "></path>
        <path fill="none" stroke="#fa00fa" stroke-width="3" d="M 617 407 L 616 408 L 616 409 L 617 410 L 617 411 L 618 412 L 620 412 L 621 411 L 622 411 L 622 408 L 621 407 "></path>
        <path fill="none" stroke="#fa00fa" stroke-width="3" d="M 587 196 L 586 197 L 586 201 L 587 202 L 588 201 L 591 201 L 592 200 L 592 199 L 591 198 L 591 197 L 588 197 "></path>
        <path fill="none" stroke="#fa00fa" stroke-width="3" d="M 530 513 L 528 515 L 527 514 L 528 515 L 527 516 L 527 517 L 529 519 L 530 518 L 531 519 L 532 518 L 532 517 L 533 516 L 533 515 L 532 514 L 532 513 "></path>
        <path fill="none" stroke="#fa00fa" stroke-width="3" d="M 710 543 L 709 544 L 708 544 L 708 545 L 707 546 L 708 547 L 708 548 L 709 549 L 711 549 L 712 548 L 712 547 L 713 546 L 713 545 L 711 543 "></path>
        <path fill="none" stroke="#fa00fa" stroke-width="3" d="M 845 526 L 844 527 L 843 527 L 842 528 L 842 531 L 843 532 L 846 532 L 847 531 L 847 528 "></path>
        <path fill="none" stroke="#fa00fa" stroke-width="3" d="M 527 317 L 526 318 L 528 320 L 527 321 L 528 321 L 529 322 L 531 322 L 532 321 L 533 321 L 533 319 L 532 319 L 531 318 L 532 317 "></path>
        <path fill="none" stroke="#fa00fa" stroke-width="3" d="M 349 303 L 347 305 L 347 306 L 349 308 L 352 308 L 352 307 L 353 306 L 353 304 L 352 303 "></path>
        <path fill="none" stroke="#fa00fa" stroke-width="3" d="M 439 302 L 438 303 L 437 303 L 437 305 L 438 306 L 438 307 L 441 307 L 442 306 L 443 306 L 442 305 L 443 304 L 443 303 L 442 302 "></path>
        <path fill="none" stroke="#fa00fa" stroke-width="3" d="M 603 497 L 602 498 L 603 499 L 602 500 L 602 501 L 603 502 L 603 503 L 604 504 L 606 502 L 607 502 L 608 501 L 606 499 L 606 497 L 605 498 L 604 497 "></path>
        <path fill="none" stroke="#fa00fa" stroke-width="3" d="M 424 678 L 424 679 L 423 680 L 423 681 L 422 682 L 422 683 L 424 683 L 425 684 L 426 684 L 427 683 L 428 683 L 429 682 L 428 681 L 428 680 L 427 679 L 425 679 "></path>
        <path fill="none" stroke="#fa00fa" stroke-width="3" d="M 290 572 L 289 573 L 288 573 L 287 574 L 287 575 L 286 576 L 286 577 L 287 578 L 291 578 L 291 576 L 292 575 L 291 574 L 291 572 "></path>
        <path fill="none" stroke="#fa00fa" stroke-width="3" d="M 709 242 L 708 243 L 707 243 L 707 245 L 706 246 L 707 247 L 707 248 L 711 248 L 712 247 L 711 246 L 711 243 L 710 242 "></path>
        <path fill="none" stroke="#fa00fa" stroke-width="3" d="M 619 543 L 617 545 L 618 546 L 618 548 L 619 549 L 620 548 L 621 548 L 622 547 L 623 547 L 623 544 L 622 544 L 621 543 "></path>
        <path fill="none" stroke="#fa00fa" stroke-width="3" d="M 738 272 L 737 273 L 737 276 L 738 276 L 739 277 L 740 277 L 741 276 L 742 277 L 743 276 L 743 275 L 742 274 L 742 273 L 741 272 "></path>
        <path fill="none" stroke="#fa00fa" stroke-width="3" d="M 259 333 L 257 335 L 257 337 L 258 338 L 258 339 L 259 338 L 260 339 L 261 339 L 261 338 L 262 337 L 262 334 L 261 333 "></path>
        <path fill="none" stroke="#fa00fa" stroke-width="3" d="M 753 497 L 753 498 L 751 500 L 751 501 L 752 502 L 753 502 L 754 503 L 756 503 L 756 502 L 757 501 L 757 499 L 756 498 L 754 498 "></path>
        <path fill="none" stroke="#fa00fa" stroke-width="3" d="M 260 512 L 259 513 L 259 515 L 258 516 L 259 517 L 259 518 L 262 518 L 263 517 L 263 516 L 264 515 L 263 514 L 263 513 L 262 513 L 261 512 "></path>
        <path fill="none" stroke="#fa00fa" stroke-width="3" d="M 318 408 L 317 409 L 317 412 L 318 412 L 319 413 L 321 413 L 323 411 L 322 410 L 322 408 "></path>
        <path fill="none" stroke="#fa00fa" stroke-width="3" d="M 408 62 L 407 63 L 408 64 L 408 66 L 409 67 L 411 67 L 412 66 L 413 66 L 413 63 L 412 62 "></path>
        <path fill="none" stroke="#fa00fa" stroke-width="3" d="M 213 422 L 212 423 L 212 425 L 213 426 L 213 427 L 216 427 L 216 426 L 217 425 L 218 426 L 218 423 L 217 423 L 216 422 "></path>
        <path fill="none" stroke="#fa00fa" stroke-width="3" d="M 528 17 L 528 19 L 527 20 L 527 21 L 528 22 L 531 22 L 533 20 L 533 18 L 532 18 L 531 17 "></path>
        <path fill="none" stroke="#fa00fa" stroke-width="3" d="M 424 467 L 423 468 L 422 468 L 423 469 L 423 472 L 424 473 L 425 472 L 426 473 L 427 472 L 427 471 L 428 470 L 428 469 L 426 467 "></path>
        <path fill="none" stroke="#fa00fa" stroke-width="3" d="M 768 167 L 767 168 L 767 170 L 768 171 L 767 172 L 769 172 L 770 173 L 771 172 L 772 172 L 772 171 L 773 170 L 772 169 L 772 168 L 771 167 L 770 168 L 769 168 "></path>
        <path fill="none" stroke="#fa00fa" stroke-width="3" d="M 364 256 L 364 257 L 363 258 L 363 260 L 365 262 L 366 261 L 367 261 L 368 260 L 368 257 L 367 256 "></path>
        <path fill="none" stroke="#fa00fa" stroke-width="3" d="M 498 316 L 498 317 L 497 318 L 497 321 L 498 322 L 499 322 L 500 321 L 501 322 L 502 321 L 502 319 L 500 317 L 501 316 "></path>
        <path fill="none" stroke="#fa00fa" stroke-width="3" d="M 247 377 L 246 378 L 245 378 L 244 379 L 243 379 L 243 382 L 244 382 L 245 383 L 247 383 L 247 382 L 248 381 L 249 381 L 249 380 L 248 379 L 248 378 "></path>
        <path fill="none" stroke="#fa00fa" stroke-width="3" d="M 424 543 L 423 544 L 422 544 L 422 546 L 421 547 L 421 548 L 426 548 L 427 547 L 427 544 L 426 544 L 425 543 "></path>
        <path fill="none" stroke="#fa00fa" stroke-width="3" d="M 257 541 L 256 542 L 256 545 L 257 546 L 258 546 L 259 547 L 261 545 L 261 543 L 260 542 L 260 541 "></path>
        <path fill="none" stroke="#fa00fa" stroke-width="3" d="M 602 363 L 603 364 L 601 366 L 602 367 L 602 368 L 604 368 L 605 367 L 606 367 L 607 366 L 607 365 L 608 364 L 607 363 "></path>
        <path fill="none" stroke="#fa00fa" stroke-width="3" d="M 605 316 L 604 317 L 603 317 L 603 322 L 604 321 L 605 322 L 606 322 L 608 320 L 608 317 L 606 317 "></path>
        <path fill="none" stroke="#fa00fa" stroke-width="3" d="M 467 259 L 467 263 L 468 264 L 471 264 L 471 263 L 472 262 L 472 259 "></path>
        <path fill="none" stroke="#fa00fa" stroke-width="3" d="M 831 465 L 830 466 L 829 466 L 828 467 L 828 468 L 827 469 L 827 470 L 828 471 L 828 472 L 829 471 L 831 471 L 833 469 L 832 468 L 832 467 L 831 466 "></path>
        <path fill="none" stroke="#fa00fa" stroke-width="3" d="M 588 167 L 588 168 L 587 169 L 587 172 L 588 172 L 590 174 L 592 172 L 592 169 L 591 169 L 590 168 L 589 168 "></path>
        <path fill="none" stroke="#fa00fa" stroke-width="3" d="M 380 347 L 378 349 L 377 349 L 377 351 L 379 353 L 381 353 L 382 352 L 382 347 L 381 348 "></path>
        <path fill="none" stroke="#fa00fa" stroke-width="3" d="M 860 152 L 859 153 L 858 153 L 858 154 L 859 155 L 859 156 L 860 157 L 860 158 L 862 158 L 863 157 L 863 156 L 864 155 L 863 154 L 863 153 L 862 153 L 861 152 "></path>
        <path fill="none" stroke="#fa00fa" stroke-width="3" d="M 260 617 L 259 618 L 258 618 L 257 619 L 256 619 L 256 620 L 257 621 L 257 622 L 258 623 L 261 623 L 262 622 L 261 621 L 262 620 L 260 618 "></path>
        <path fill="none" stroke="#fa00fa" stroke-width="3" d="M 739 423 L 738 424 L 737 424 L 737 426 L 739 428 L 739 429 L 740 429 L 742 427 L 742 423 "></path>
        <path fill="none" stroke="#fa00fa" stroke-width="3" d="M 515 467 L 513 469 L 513 470 L 514 471 L 513 472 L 513 473 L 518 473 L 518 470 L 517 469 L 518 468 L 517 469 "></path>
        <path fill="none" stroke="#fa00fa" stroke-width="3" d="M 259 16 L 258 17 L 258 18 L 257 19 L 257 20 L 258 21 L 258 22 L 259 22 L 260 21 L 261 22 L 262 21 L 262 18 L 260 16 "></path>
        <path fill="none" stroke="#fa00fa" stroke-width="3" d="M 544 138 L 543 139 L 542 139 L 542 143 L 543 144 L 544 144 L 545 143 L 546 143 L 547 142 L 547 140 L 546 139 L 545 139 "></path>
        <path fill="none" stroke="#fa00fa" stroke-width="3" d="M 515 482 L 515 483 L 514 484 L 513 483 L 514 484 L 514 485 L 515 486 L 515 487 L 518 487 L 519 486 L 519 485 L 520 484 L 518 482 "></path>
        <path fill="none" stroke="#fa00fa" stroke-width="3" d="M 571 362 L 572 363 L 571 364 L 571 366 L 572 366 L 573 367 L 574 367 L 575 368 L 576 367 L 576 366 L 577 365 L 578 366 L 576 364 L 576 363 L 575 362 L 574 363 L 573 362 L 572 363 "></path>
        <path fill="none" stroke="#fa00fa" stroke-width="3" d="M 710 783 L 709 784 L 709 785 L 708 786 L 708 787 L 709 788 L 709 789 L 710 788 L 711 789 L 712 789 L 713 788 L 713 787 L 714 786 L 712 784 L 711 784 "></path>
        <path fill="none" stroke="#fa00fa" stroke-width="3" d="M 679 332 L 679 333 L 678 334 L 678 337 L 679 338 L 680 338 L 681 337 L 682 337 L 683 336 L 683 335 L 682 334 L 682 333 L 681 332 "></path>
        <path fill="none" stroke="#fa00fa" stroke-width="3" d="M 292 436 L 291 437 L 290 437 L 289 438 L 289 441 L 290 442 L 293 442 L 293 441 L 294 440 L 293 439 L 294 438 "></path>
        <path fill="none" stroke="#fa00fa" stroke-width="3" d="M 531 136 L 530 137 L 529 137 L 528 138 L 527 137 L 528 138 L 527 139 L 527 141 L 528 142 L 531 142 L 532 141 L 532 139 L 531 138 L 532 137 "></path>
        <path fill="none" stroke="#fa00fa" stroke-width="3" d="M 126 332 L 125 333 L 124 333 L 123 334 L 123 337 L 124 338 L 125 338 L 126 337 L 127 337 L 128 336 L 128 333 L 127 333 "></path>
        <path fill="none" stroke="#fa00fa" stroke-width="3" d="M 425 498 L 424 499 L 424 500 L 423 501 L 423 503 L 424 504 L 425 504 L 426 505 L 426 504 L 427 503 L 427 502 L 428 501 L 428 500 L 426 498 "></path>
        <path fill="none" stroke="#fa00fa" stroke-width="3" d="M 530 647 L 529 648 L 529 650 L 528 651 L 530 653 L 532 653 L 533 652 L 533 650 L 534 649 L 533 648 L 531 648 "></path>
        <path fill="none" stroke="#fa00fa" stroke-width="3" d="M 273 497 L 272 498 L 272 500 L 273 501 L 274 501 L 275 502 L 277 502 L 278 501 L 277 500 L 277 498 L 276 497 "></path>
        <path fill="none" stroke="#fa00fa" stroke-width="3" d="M 288 647 L 288 648 L 287 649 L 286 649 L 287 650 L 287 651 L 289 653 L 292 653 L 292 652 L 291 651 L 292 650 L 291 649 L 291 648 L 290 648 L 289 647 "></path>
        <path fill="none" stroke="#fa00fa" stroke-width="3" d="M 562 454 L 561 455 L 560 455 L 559 456 L 560 457 L 559 458 L 560 458 L 561 459 L 561 460 L 562 460 L 563 461 L 563 460 L 564 459 L 564 458 L 565 457 L 565 456 L 564 455 L 563 456 L 562 455 "></path>
        <path fill="none" stroke="#fa00fa" stroke-width="3" d="M 544 181 L 542 183 L 542 186 L 543 186 L 544 187 L 545 187 L 546 186 L 547 187 L 547 184 L 546 183 L 546 182 L 545 182 "></path>
        <path fill="none" stroke="#fa00fa" stroke-width="3" d="M 708 169 L 707 170 L 707 173 L 708 174 L 711 174 L 713 172 L 711 170 L 710 170 L 709 169 "></path>
        <path fill="none" stroke="#fa00fa" stroke-width="3" d="M 546 286 L 545 287 L 544 287 L 543 288 L 543 291 L 544 291 L 545 292 L 546 292 L 548 290 L 548 288 "></path>
        <path fill="none" stroke="#fa00fa" stroke-width="3" d="M 436 467 L 434 469 L 435 470 L 435 471 L 436 471 L 437 472 L 439 472 L 439 471 L 440 470 L 440 469 L 439 468 L 439 467 "></path>
        <path fill="none" stroke="#fa00fa" stroke-width="3" d="M 425 347 L 424 348 L 423 348 L 424 349 L 423 350 L 424 351 L 424 352 L 425 353 L 427 353 L 427 352 L 428 351 L 428 349 L 426 347 "></path>
        <path fill="none" stroke="#fa00fa" stroke-width="3" d="M 351 346 L 350 347 L 349 347 L 348 348 L 349 349 L 348 350 L 348 351 L 350 351 L 351 352 L 353 350 L 353 347 L 352 346 "></path>
        <path fill="none" stroke="#fa00fa" stroke-width="3" d="M 543 452 L 543 453 L 542 454 L 543 455 L 543 456 L 544 456 L 545 457 L 546 457 L 548 455 L 548 453 L 547 453 L 546 452 "></path>
        <path fill="none" stroke="#fa00fa" stroke-width="3" d="M 365 288 L 364 289 L 362 289 L 362 290 L 365 293 L 367 293 L 368 292 L 368 289 L 367 288 L 366 289 "></path>
        <path fill="none" stroke="#fa00fa" stroke-width="3" d="M 350 287 L 349 288 L 348 288 L 348 290 L 347 291 L 348 291 L 349 292 L 349 293 L 351 293 L 353 291 L 353 290 "></path>
        <path fill="none" stroke="#fa00fa" stroke-width="3" d="M 364 588 L 363 589 L 362 589 L 362 592 L 363 593 L 364 592 L 365 593 L 367 591 L 368 592 L 368 591 L 367 590 L 367 588 "></path>
        <path fill="none" stroke="#fa00fa" stroke-width="3" d="M 394 243 L 393 244 L 391 244 L 392 245 L 391 246 L 391 247 L 392 247 L 393 248 L 394 248 L 395 247 L 396 247 L 396 246 L 397 245 L 397 244 L 396 243 "></path>
        <path fill="none" stroke="#fa00fa" stroke-width="3" d="M 394 198 L 394 199 L 393 200 L 393 201 L 394 202 L 394 203 L 397 203 L 397 202 L 398 201 L 398 198 "></path>
        <path fill="none" stroke="#fa00fa" stroke-width="3" d="M 472 241 L 471 242 L 470 242 L 469 243 L 469 244 L 468 245 L 469 246 L 470 246 L 471 247 L 472 247 L 474 245 L 474 244 L 472 242 "></path>
        <path fill="none" stroke="#fa00fa" stroke-width="3" d="M 276 258 L 275 259 L 274 259 L 273 260 L 274 261 L 274 262 L 275 263 L 278 263 L 279 262 L 279 260 L 278 259 L 277 259 "></path>
        <path fill="none" stroke="#fa00fa" stroke-width="3" d="M 348 212 L 348 213 L 347 214 L 348 215 L 348 216 L 349 217 L 351 217 L 353 215 L 353 214 L 352 213 L 351 213 L 350 212 "></path>
        <path fill="none" stroke="#fa00fa" stroke-width="3" d="M 664 137 L 663 138 L 663 139 L 662 140 L 662 141 L 663 142 L 666 142 L 667 141 L 667 138 L 666 137 "></path>
        <path fill="none" stroke="#fa00fa" stroke-width="3" d="M 649 272 L 648 273 L 648 274 L 647 275 L 648 276 L 648 277 L 652 277 L 653 276 L 653 275 L 652 274 L 653 273 L 650 273 "></path>
        <path fill="none" stroke="#fa00fa" stroke-width="3" d="M 245 602 L 244 603 L 242 603 L 242 604 L 241 605 L 242 605 L 243 606 L 243 607 L 247 607 L 247 606 L 248 605 L 247 605 L 246 604 L 247 603 L 246 602 "></path>
        <path fill="none" stroke="#fa00fa" stroke-width="3" d="M 665 467 L 664 468 L 664 469 L 663 470 L 664 471 L 664 472 L 665 473 L 668 470 L 669 470 L 669 468 L 668 468 L 667 467 L 666 468 "></path>
        <path fill="none" stroke="#fa00fa" stroke-width="3" d="M 395 32 L 393 34 L 393 35 L 392 36 L 394 38 L 395 38 L 397 36 L 397 33 L 396 32 "></path>
        <path fill="none" stroke="#fa00fa" stroke-width="3" d="M 813 363 L 813 364 L 812 365 L 813 366 L 813 367 L 814 368 L 816 368 L 817 367 L 817 363 "></path>
        <path fill="none" stroke="#fa00fa" stroke-width="3" d="M 619 453 L 618 454 L 618 455 L 617 456 L 616 455 L 616 456 L 617 456 L 618 457 L 618 458 L 619 458 L 620 459 L 621 459 L 621 458 L 623 456 L 621 454 L 620 454 "></path>
        <path fill="none" stroke="#fa00fa" stroke-width="3" d="M 544 647 L 542 649 L 544 651 L 544 652 L 545 652 L 546 651 L 547 652 L 547 651 L 548 650 L 548 649 L 547 648 L 547 647 "></path>
        <path fill="none" stroke="#fa00fa" stroke-width="3" d="M 709 363 L 708 364 L 708 365 L 707 366 L 708 367 L 708 368 L 709 369 L 710 369 L 712 367 L 712 365 L 710 363 "></path>
        <path fill="none" stroke="#fa00fa" stroke-width="3" d="M 273 437 L 272 438 L 272 441 L 273 442 L 275 442 L 276 441 L 277 441 L 277 440 L 276 439 L 277 438 L 276 438 L 275 437 "></path>
        <path fill="none" stroke="#fa00fa" stroke-width="3" d="M 650 377 L 647 380 L 647 381 L 648 382 L 648 383 L 649 383 L 650 382 L 651 382 L 653 380 "></path>
        <path fill="none" stroke="#fa00fa" stroke-width="3" d="M 786 137 L 784 139 L 783 139 L 782 140 L 783 141 L 783 142 L 784 142 L 785 143 L 786 142 L 787 142 L 788 141 L 787 140 L 788 139 "></path>
        <path fill="none" stroke="#fa00fa" stroke-width="3" d="M 500 619 L 499 620 L 499 622 L 500 623 L 500 624 L 501 625 L 504 622 L 503 621 L 503 619 "></path>
        <path fill="none" stroke="#fa00fa" stroke-width="3" d="M 603 331 L 602 332 L 602 333 L 601 334 L 603 336 L 603 337 L 604 336 L 605 337 L 606 336 L 606 333 L 604 331 "></path>
        <path fill="none" stroke="#fa00fa" stroke-width="3" d="M 756 181 L 755 182 L 754 182 L 753 183 L 753 184 L 754 185 L 754 186 L 757 186 L 758 185 L 758 182 L 757 181 "></path>
        <path fill="none" stroke="#fa00fa" stroke-width="3" d="M 859 543 L 858 544 L 858 545 L 857 546 L 857 548 L 858 547 L 859 548 L 859 549 L 860 548 L 861 548 L 863 546 L 862 545 L 862 544 L 860 544 "></path>
        <path fill="none" stroke="#fa00fa" stroke-width="3" d="M 453 256 L 453 257 L 452 258 L 452 261 L 453 262 L 454 261 L 455 261 L 457 259 L 456 258 L 456 257 L 455 256 "></path>
        <path fill="none" stroke="#fa00fa" stroke-width="3" d="M 606 92 L 605 93 L 603 93 L 603 96 L 604 97 L 605 97 L 606 98 L 608 96 L 608 93 L 607 94 L 606 93 "></path>
        <path fill="none" stroke="#fa00fa" stroke-width="3" d="M 694 243 L 693 244 L 692 244 L 692 246 L 693 247 L 693 248 L 695 248 L 697 246 L 697 244 L 696 243 "></path>
        <path fill="none" stroke="#fa00fa" stroke-width="3" d="M 678 347 L 678 352 L 682 352 L 681 351 L 683 349 L 681 347 "></path>
        <path fill="none" stroke="#fa00fa" stroke-width="3" d="M 620 467 L 619 468 L 618 468 L 617 469 L 617 471 L 618 472 L 621 472 L 622 471 L 622 468 L 621 468 "></path>
        <path fill="none" stroke="#fa00fa" stroke-width="3" d="M 544 198 L 543 199 L 543 201 L 544 202 L 544 203 L 548 203 L 547 202 L 548 201 L 547 200 L 547 198 "></path>
        <path fill="none" stroke="#fa00fa" stroke-width="3" d="M 529 767 L 528 768 L 528 769 L 527 770 L 529 772 L 532 772 L 532 770 L 533 769 L 531 767 L 530 768 "></path>
        <path fill="none" stroke="#fa00fa" stroke-width="3" d="M 635 496 L 632 499 L 632 500 L 633 500 L 634 501 L 636 501 L 637 500 L 638 500 L 638 499 L 637 498 L 637 497 L 636 496 "></path>
        <path fill="none" stroke="#fa00fa" stroke-width="3" d="M 575 586 L 575 587 L 573 589 L 572 589 L 572 590 L 573 591 L 573 592 L 574 593 L 575 592 L 576 592 L 577 591 L 577 590 L 576 589 L 577 588 L 577 587 L 576 587 "></path>
        <path fill="none" stroke="#fa00fa" stroke-width="3" d="M 755 212 L 753 214 L 753 216 L 755 218 L 758 215 L 758 214 L 756 212 "></path>
        <path fill="none" stroke="#fa00fa" stroke-width="3" d="M 543 272 L 542 273 L 541 273 L 541 274 L 542 275 L 542 276 L 543 276 L 544 277 L 545 277 L 546 276 L 547 276 L 546 275 L 546 273 L 545 272 "></path>
        <path fill="none" stroke="#fa00fa" stroke-width="3" d="M 739 542 L 739 543 L 738 544 L 738 546 L 739 546 L 740 547 L 741 547 L 742 548 L 742 547 L 743 546 L 743 544 L 742 543 L 741 543 L 740 542 "></path>
        <path fill="none" stroke="#fa00fa" stroke-width="3" d="M 1024 288 L 1023 289 L 1023 290 L 1024 291 L 1024 292 L 1028 292 L 1028 291 L 1029 290 L 1028 289 L 1028 288 "></path>
        <path fill="none" stroke="#fa00fa" stroke-width="3" d="M 392 302 L 392 304 L 393 305 L 392 306 L 393 306 L 394 307 L 395 307 L 397 305 L 397 304 L 396 303 L 396 302 "></path>
        <path fill="none" stroke="#fa00fa" stroke-width="3" d="M 515 302 L 513 304 L 513 306 L 514 306 L 515 307 L 515 308 L 516 307 L 517 307 L 517 306 L 518 305 L 518 304 L 517 303 L 517 302 "></path>
        <path fill="none" stroke="#fa00fa" stroke-width="3" d="M 532 529 L 531 530 L 529 530 L 528 531 L 529 532 L 529 533 L 530 534 L 531 533 L 532 534 L 534 532 L 534 531 L 533 530 L 533 529 "></path>
        <path fill="none" stroke="#fa00fa" stroke-width="3" d="M 589 677 L 588 678 L 588 681 L 589 682 L 590 681 L 591 682 L 592 682 L 593 681 L 593 679 L 592 678 L 590 678 "></path>
        <path fill="none" stroke="#fa00fa" stroke-width="3" d="M 560 345 L 559 346 L 558 346 L 558 348 L 559 349 L 558 350 L 557 350 L 558 351 L 560 351 L 562 349 L 562 346 L 561 346 "></path>
        <path fill="none" stroke="#fa00fa" stroke-width="3" d="M 619 196 L 618 197 L 617 197 L 617 200 L 619 202 L 620 201 L 621 201 L 621 197 L 620 196 "></path>
        <path fill="none" stroke="#fa00fa" stroke-width="3" d="M 274 558 L 273 559 L 273 560 L 272 561 L 273 562 L 274 562 L 275 563 L 276 563 L 277 562 L 278 562 L 278 561 L 277 560 L 277 559 L 276 559 L 275 558 "></path>
        <path fill="none" stroke="#fa00fa" stroke-width="3" d="M 726 408 L 725 409 L 725 411 L 726 412 L 727 412 L 728 413 L 729 412 L 730 412 L 730 409 L 729 409 L 728 408 "></path>
        <path fill="none" stroke="#fa00fa" stroke-width="3" d="M 409 572 L 408 573 L 408 576 L 409 576 L 410 577 L 410 578 L 413 575 L 413 574 L 412 573 L 411 573 L 410 572 "></path>
        <path fill="none" stroke="#fa00fa" stroke-width="3" d="M 306 168 L 305 169 L 303 169 L 303 172 L 307 172 L 308 171 L 308 170 L 309 169 L 308 168 "></path>
        <path fill="none" stroke="#fa00fa" stroke-width="3" d="M 306 213 L 305 214 L 304 214 L 303 215 L 303 216 L 304 217 L 305 217 L 306 218 L 307 218 L 309 216 L 308 215 L 308 214 L 307 214 "></path>
        <path fill="none" stroke="#fa00fa" stroke-width="3" d="M 693 362 L 694 363 L 694 366 L 695 366 L 696 367 L 697 367 L 698 366 L 698 363 L 697 362 "></path>
        <path fill="none" stroke="#fa00fa" stroke-width="3" d="M 634 392 L 632 394 L 632 396 L 633 397 L 634 397 L 635 398 L 635 397 L 637 395 L 636 394 L 636 393 L 635 392 "></path>
        <path fill="none" stroke="#fa00fa" stroke-width="3" d="M 618 77 L 617 78 L 618 79 L 618 82 L 622 82 L 622 79 L 621 78 L 620 78 L 619 77 "></path>
        <path fill="none" stroke="#fa00fa" stroke-width="3" d="M 437 92 L 437 96 L 438 97 L 439 97 L 440 96 L 441 96 L 441 92 "></path>
        <path fill="none" stroke="#fa00fa" stroke-width="3" d="M 393 421 L 392 422 L 393 423 L 392 424 L 393 425 L 394 425 L 395 426 L 395 427 L 396 426 L 396 425 L 397 424 L 397 423 L 396 422 L 396 421 "></path>
        <path fill="none" stroke="#fa00fa" stroke-width="3" d="M 258 528 L 258 529 L 257 530 L 258 531 L 258 532 L 259 533 L 262 533 L 262 532 L 263 531 L 263 530 L 262 530 L 261 529 L 259 529 "></path>
        <path fill="none" stroke="#fa00fa" stroke-width="3" d="M 531 675 L 528 678 L 530 680 L 533 680 L 533 678 L 534 677 L 533 676 L 532 676 "></path>
        <path fill="none" stroke="#fa00fa" stroke-width="3" d="M 589 482 L 588 483 L 588 485 L 590 487 L 590 488 L 591 487 L 592 487 L 592 486 L 593 485 L 592 484 L 592 483 L 591 482 L 590 483 "></path>
        <path fill="none" stroke="#fa00fa" stroke-width="3" d="M 349 512 L 349 513 L 348 514 L 349 515 L 348 516 L 349 516 L 350 517 L 350 518 L 351 517 L 352 517 L 353 516 L 353 514 L 352 514 L 351 513 L 351 512 "></path>
        <path fill="none" stroke="#fa00fa" stroke-width="3" d="M 366 227 L 365 228 L 363 228 L 363 230 L 364 231 L 364 232 L 367 232 L 368 231 L 368 230 L 367 229 L 367 228 "></path>
        <path fill="none" stroke="#fa00fa" stroke-width="3" d="M 334 482 L 333 483 L 332 483 L 332 486 L 333 487 L 336 487 L 336 486 L 337 485 L 336 484 L 336 483 L 335 483 "></path>
        <path fill="none" stroke="#fa00fa" stroke-width="3" d="M 576 393 L 575 394 L 573 394 L 572 395 L 572 397 L 575 397 L 576 398 L 578 396 L 577 395 L 577 394 "></path>
        <path fill="none" stroke="#fa00fa" stroke-width="3" d="M 154 481 L 152 483 L 153 484 L 152 485 L 153 485 L 155 487 L 156 487 L 157 486 L 158 486 L 157 485 L 157 483 L 155 483 L 154 482 "></path>
        <path fill="none" stroke="#fa00fa" stroke-width="3" d="M 527 603 L 527 606 L 528 607 L 528 608 L 530 608 L 531 607 L 531 606 L 532 605 L 532 604 L 531 605 L 530 604 L 530 603 "></path>
        <path fill="none" stroke="#fa00fa" stroke-width="3" d="M 379 423 L 379 425 L 378 426 L 380 428 L 382 428 L 384 426 L 383 425 L 382 425 L 381 424 L 381 423 "></path>
        <path fill="none" stroke="#fa00fa" stroke-width="3" d="M 634 528 L 633 529 L 632 529 L 632 531 L 633 532 L 633 533 L 634 533 L 635 534 L 635 533 L 637 531 L 636 530 L 636 529 L 635 528 "></path>
        <path fill="none" stroke="#fa00fa" stroke-width="3" d="M 199 602 L 198 603 L 197 603 L 197 605 L 199 607 L 201 607 L 201 606 L 202 605 L 201 604 L 201 603 L 200 602 "></path>
        <path fill="none" stroke="#fa00fa" stroke-width="3" d="M 380 783 L 379 784 L 378 784 L 378 787 L 379 788 L 381 788 L 383 786 L 382 785 L 382 784 L 381 784 "></path>
        <path fill="none" stroke="#fa00fa" stroke-width="3" d="M 289 377 L 288 378 L 288 381 L 289 382 L 290 382 L 291 383 L 292 382 L 292 379 L 291 378 L 290 378 "></path>
        <path fill="none" stroke="#fa00fa" stroke-width="3" d="M 680 573 L 678 575 L 677 574 L 677 577 L 678 578 L 680 578 L 680 577 L 682 575 L 682 573 "></path>
        <path fill="none" stroke="#fa00fa" stroke-width="3" d="M 574 526 L 574 529 L 573 530 L 574 531 L 574 532 L 577 532 L 577 531 L 578 530 L 577 529 L 577 528 L 576 527 L 575 527 "></path>
        <path fill="none" stroke="#fa00fa" stroke-width="3" d="M 439 287 L 438 288 L 437 288 L 437 291 L 438 292 L 438 293 L 439 292 L 441 292 L 441 288 L 440 288 "></path>
        <path fill="none" stroke="#fa00fa" stroke-width="3" d="M 275 168 L 275 169 L 274 170 L 274 172 L 275 173 L 276 173 L 279 170 L 279 169 L 278 169 L 277 168 "></path>
        <path fill="none" stroke="#fa00fa" stroke-width="3" d="M 590 408 L 590 409 L 588 411 L 589 412 L 591 412 L 592 413 L 592 414 L 592 413 L 594 411 L 593 410 L 593 409 L 592 408 "></path>
        <path fill="none" stroke="#fa00fa" stroke-width="3" d="M 648 708 L 648 709 L 647 710 L 648 711 L 648 712 L 649 711 L 650 712 L 652 712 L 652 711 L 653 710 L 652 709 L 652 708 "></path>
        <path fill="none" stroke="#fa00fa" stroke-width="3" d="M 799 332 L 799 333 L 798 334 L 797 334 L 797 335 L 799 337 L 800 337 L 803 334 L 801 332 L 800 333 "></path>
        <path fill="none" stroke="#fa00fa" stroke-width="3" d="M 676 557 L 676 561 L 678 561 L 679 562 L 680 561 L 680 558 L 679 557 "></path>
        <path fill="none" stroke="#fa00fa" stroke-width="3" d="M 65 333 L 64 334 L 64 337 L 65 338 L 67 338 L 68 337 L 68 335 L 66 333 "></path>
        <path fill="none" stroke="#fa00fa" stroke-width="3" d="M 620 677 L 619 678 L 618 678 L 618 679 L 619 680 L 618 681 L 620 681 L 621 682 L 623 680 L 623 679 L 622 678 L 622 677 "></path>
        <path fill="none" stroke="#fa00fa" stroke-width="3" d="M 277 363 L 276 364 L 274 364 L 274 367 L 275 367 L 276 368 L 277 367 L 278 368 L 278 367 L 279 366 L 279 365 "></path>
        <path fill="none" stroke="#fa00fa" stroke-width="3" d="M 514 633 L 514 634 L 513 635 L 514 636 L 514 638 L 515 637 L 516 638 L 517 638 L 517 637 L 518 636 L 518 635 L 516 633 "></path>
        <path fill="none" stroke="#fa00fa" stroke-width="3" d="M 665 258 L 664 259 L 663 259 L 663 261 L 665 263 L 666 263 L 667 262 L 668 262 L 667 261 L 667 258 "></path>
        <path fill="none" stroke="#fa00fa" stroke-width="3" d="M 618 346 L 618 347 L 617 348 L 620 351 L 622 351 L 622 349 L 621 348 L 622 347 L 621 346 L 620 346 L 619 347 "></path>
        <path fill="none" stroke="#fa00fa" stroke-width="3" d="M 380 363 L 380 364 L 379 365 L 379 366 L 378 367 L 378 368 L 379 368 L 380 369 L 381 368 L 382 368 L 383 367 L 382 366 L 382 364 L 381 363 "></path>
        <path fill="none" stroke="#fa00fa" stroke-width="3" d="M 620 288 L 619 289 L 619 293 L 620 293 L 621 292 L 623 292 L 623 289 L 622 288 "></path>
        <path fill="none" stroke="#fa00fa" stroke-width="3" d="M 530 421 L 527 424 L 527 425 L 528 426 L 530 426 L 532 424 L 532 423 "></path>
        <path fill="none" stroke="#fa00fa" stroke-width="3" d="M 454 213 L 451 216 L 452 217 L 452 218 L 455 218 L 456 217 L 455 216 L 456 215 L 455 214 L 455 213 "></path>
        <path fill="none" stroke="#fa00fa" stroke-width="3" d="M 378 467 L 377 468 L 377 471 L 378 472 L 379 471 L 381 471 L 382 470 L 381 469 L 382 468 L 381 469 L 380 468 L 380 467 "></path>
        <path fill="none" stroke="#fa00fa" stroke-width="3" d="M 588 527 L 587 528 L 586 528 L 587 529 L 587 532 L 589 532 L 591 530 L 591 529 L 589 527 "></path>
        <path fill="none" stroke="#fa00fa" stroke-width="3" d="M 575 512 L 574 513 L 573 513 L 573 514 L 572 515 L 572 516 L 573 517 L 576 517 L 577 516 L 576 515 L 576 513 "></path>
        <path fill="none" stroke="#fa00fa" stroke-width="3" d="M 573 542 L 572 543 L 573 544 L 572 545 L 573 546 L 574 546 L 575 547 L 576 546 L 577 546 L 576 545 L 576 544 L 577 543 L 576 543 L 575 542 "></path>
        <path fill="none" stroke="#fa00fa" stroke-width="3" d="M 663 543 L 663 544 L 661 546 L 663 548 L 665 548 L 665 547 L 666 546 L 666 543 L 665 544 L 664 544 "></path>
        <path fill="none" stroke="#fa00fa" stroke-width="3" d="M 394 723 L 393 724 L 393 727 L 394 728 L 395 728 L 396 727 L 397 727 L 397 725 L 395 723 "></path>
        <path fill="none" stroke="#fa00fa" stroke-width="3" d="M 545 587 L 543 589 L 543 590 L 545 592 L 546 591 L 548 591 L 548 589 L 547 588 L 546 588 "></path>
        <path fill="none" stroke="#fa00fa" stroke-width="3" d="M 304 602 L 302 604 L 302 606 L 303 606 L 304 607 L 305 607 L 306 606 L 307 606 L 306 605 L 307 604 L 306 604 L 305 603 L 305 602 "></path>
        <path fill="none" stroke="#fa00fa" stroke-width="3" d="M 769 573 L 769 574 L 768 575 L 769 576 L 770 576 L 771 577 L 772 577 L 774 575 L 772 573 "></path>
        <path fill="none" stroke="#fa00fa" stroke-width="3" d="M 769 183 L 768 184 L 768 187 L 769 187 L 770 186 L 771 187 L 772 187 L 773 186 L 772 185 L 772 184 L 771 183 "></path>
        <path fill="none" stroke="#fa00fa" stroke-width="3" d="M 169 362 L 168 363 L 168 364 L 169 365 L 169 366 L 170 366 L 171 367 L 172 366 L 173 366 L 172 365 L 173 364 L 172 363 L 171 363 L 170 362 "></path>
        <path fill="none" stroke="#fa00fa" stroke-width="3" d="M 351 199 L 350 200 L 349 200 L 350 201 L 349 202 L 350 203 L 352 203 L 353 202 L 354 202 L 354 200 L 353 199 "></path>
        <path fill="none" stroke="#fa00fa" stroke-width="3" d="M 424 272 L 423 273 L 423 274 L 425 276 L 426 276 L 427 275 L 428 275 L 428 273 L 427 273 L 426 272 "></path>
        <path fill="none" stroke="#fa00fa" stroke-width="3" d="M 980 497 L 979 498 L 978 498 L 978 500 L 979 501 L 979 502 L 980 501 L 982 501 L 982 497 "></path>
        <path fill="none" stroke="#fa00fa" stroke-width="3" d="M 545 572 L 544 573 L 542 573 L 543 574 L 543 575 L 544 576 L 548 576 L 547 575 L 547 573 L 546 572 "></path>
        <path fill="none" stroke="#fa00fa" stroke-width="3" d="M 320 212 L 318 214 L 318 217 L 319 217 L 320 218 L 320 217 L 322 215 L 322 214 "></path>
        <path fill="none" stroke="#fa00fa" stroke-width="3" d="M 544 228 L 543 229 L 543 231 L 544 232 L 545 232 L 546 233 L 547 232 L 547 229 L 546 229 L 545 228 "></path>
        <path fill="none" stroke="#fa00fa" stroke-width="3" d="M 514 184 L 513 185 L 513 186 L 514 187 L 514 188 L 516 188 L 518 186 L 516 184 "></path>
        <path fill="none" stroke="#fa00fa" stroke-width="3" d="M 559 288 L 559 289 L 558 290 L 558 291 L 559 291 L 560 292 L 562 292 L 562 291 L 563 290 L 562 289 L 562 288 "></path>
        <path fill="none" stroke="#fa00fa" stroke-width="3" d="M 755 438 L 753 440 L 753 441 L 754 442 L 755 442 L 756 443 L 757 442 L 757 439 L 756 438 "></path>
        <path fill="none" stroke="#fa00fa" stroke-width="3" d="M 859 317 L 858 318 L 858 321 L 859 322 L 860 322 L 862 320 L 861 319 L 861 318 L 860 317 "></path>
        <path fill="none" stroke="#fa00fa" stroke-width="3" d="M 319 287 L 319 288 L 317 290 L 319 292 L 320 292 L 322 290 L 322 289 L 321 288 L 320 288 "></path>
        <path fill="none" stroke="#fa00fa" stroke-width="3" d="M 499 152 L 498 153 L 499 154 L 499 156 L 502 156 L 503 155 L 502 154 L 502 152 "></path>
        <path fill="none" stroke="#fa00fa" stroke-width="3" d="M 556 333 L 555 334 L 554 334 L 555 335 L 555 337 L 556 337 L 557 338 L 558 338 L 558 336 L 559 335 L 558 334 L 559 333 L 558 334 L 557 333 "></path>
        <path fill="none" stroke="#fa00fa" stroke-width="3" d="M 393 528 L 393 529 L 392 530 L 392 532 L 393 533 L 394 533 L 395 532 L 396 532 L 396 529 L 394 529 "></path>
        <path fill="none" stroke="#fa00fa" stroke-width="3" d="M 438 573 L 438 574 L 437 575 L 437 576 L 438 577 L 441 577 L 441 574 L 440 573 "></path>
        <path fill="none" stroke="#fa00fa" stroke-width="3" d="M 363 303 L 362 304 L 363 305 L 362 306 L 363 307 L 365 307 L 366 306 L 367 306 L 366 305 L 366 304 L 365 303 "></path>
        <path fill="none" stroke="#fa00fa" stroke-width="3" d="M 724 648 L 723 649 L 723 651 L 725 653 L 726 652 L 727 652 L 727 649 L 725 649 "></path>
        <path fill="none" stroke="#fa00fa" stroke-width="3" d="M 411 318 L 410 319 L 409 319 L 409 321 L 411 323 L 412 323 L 413 322 L 413 321 L 412 320 L 413 319 L 412 319 "></path>
        <path fill="none" stroke="#fa00fa" stroke-width="3" d="M 633 662 L 633 664 L 632 665 L 633 666 L 636 666 L 636 665 L 637 664 L 635 662 "></path>
        <path fill="none" stroke="#fa00fa" stroke-width="3" d="M 828 274 L 828 275 L 827 276 L 827 277 L 828 278 L 829 277 L 830 278 L 830 279 L 831 278 L 831 277 L 832 276 L 830 274 L 829 275 "></path>
        <path fill="none" stroke="#fa00fa" stroke-width="3" d="M 319 363 L 317 365 L 319 367 L 321 367 L 322 366 L 322 364 L 320 364 "></path>
        <path fill="none" stroke="#fa00fa" stroke-width="3" d="M 589 91 L 589 92 L 588 93 L 588 95 L 590 95 L 591 94 L 592 94 L 592 91 "></path>
        <path fill="none" stroke="#fa00fa" stroke-width="3" d="M 514 394 L 514 395 L 515 396 L 514 397 L 515 398 L 516 397 L 517 398 L 518 398 L 518 397 L 519 396 L 517 394 L 516 394 L 515 395 "></path>
        <path fill="none" stroke="#fa00fa" stroke-width="3" d="M 424 333 L 422 335 L 423 336 L 423 337 L 424 336 L 426 338 L 427 337 L 426 336 L 426 333 "></path>
        <path fill="none" stroke="#fa00fa" stroke-width="3" d="M 439 498 L 438 499 L 438 501 L 439 502 L 441 502 L 441 501 L 442 500 L 442 499 L 441 498 "></path>
        <path fill="none" stroke="#fa00fa" stroke-width="3" d="M 394 513 L 393 514 L 393 516 L 394 517 L 396 517 L 397 516 L 396 515 L 397 514 L 396 513 "></path>
        <path fill="none" stroke="#fa00fa" stroke-width="3" d="M 410 618 L 410 619 L 409 620 L 409 621 L 410 622 L 412 622 L 413 621 L 413 619 L 412 618 "></path>
        <path fill="none" stroke="#fa00fa" stroke-width="3" d="M 681 243 L 679 245 L 679 246 L 681 248 L 682 248 L 682 247 L 683 246 L 683 245 L 682 244 L 682 243 "></path>
        <path fill="none" stroke="#fa00fa" stroke-width="3" d="M 408 198 L 407 199 L 408 200 L 407 201 L 408 202 L 411 202 L 411 200 L 410 199 L 410 198 "></path>
        <path fill="none" stroke="#fa00fa" stroke-width="3" d="M 573 677 L 573 680 L 574 680 L 575 681 L 576 681 L 577 680 L 577 679 L 576 678 L 576 677 "></path>
        <path fill="none" stroke="#fa00fa" stroke-width="3" d="M 409 214 L 409 215 L 408 216 L 409 217 L 408 218 L 409 217 L 411 217 L 412 218 L 412 217 L 413 216 L 413 215 L 412 214 "></path>
        <path fill="none" stroke="#fa00fa" stroke-width="3" d="M 694 573 L 692 575 L 692 576 L 693 577 L 695 577 L 696 576 L 696 574 L 695 573 "></path>
        <path fill="none" stroke="#fa00fa" stroke-width="3" d="M 213 273 L 212 274 L 212 275 L 214 277 L 215 277 L 216 276 L 216 274 L 215 273 "></path>
        <path fill="none" stroke="#fa00fa" stroke-width="3" d="M 305 229 L 304 230 L 303 230 L 303 232 L 302 233 L 303 232 L 304 233 L 304 234 L 305 234 L 306 233 L 306 232 L 307 231 L 306 230 L 306 229 "></path>
        <path fill="none" stroke="#fa00fa" stroke-width="3" d="M 455 349 L 453 351 L 454 352 L 454 353 L 457 353 L 457 349 "></path>
        <path fill="none" stroke="#fa00fa" stroke-width="3" d="M 321 482 L 318 485 L 319 486 L 319 487 L 320 487 L 322 485 L 323 486 L 322 485 L 323 484 "></path>
        <path fill="none" stroke="#fa00fa" stroke-width="3" d="M 229 588 L 228 589 L 228 593 L 229 593 L 230 592 L 231 592 L 231 589 L 230 588 "></path>
        <path fill="none" stroke="#fa00fa" stroke-width="3" d="M 393 333 L 393 334 L 392 335 L 392 336 L 394 338 L 395 338 L 395 337 L 396 336 L 396 334 L 394 334 "></path>
        <path fill="none" stroke="#fa00fa" stroke-width="3" d="M 650 362 L 649 363 L 648 363 L 648 364 L 647 365 L 648 366 L 649 366 L 650 367 L 650 366 L 652 364 L 652 363 L 651 363 "></path>
        <path fill="none" stroke="#fa00fa" stroke-width="3" d="M 634 422 L 634 423 L 633 424 L 632 424 L 632 425 L 634 427 L 635 426 L 637 426 L 636 425 L 637 424 L 637 423 L 636 424 "></path>
        <path fill="none" stroke="#fa00fa" stroke-width="3" d="M 184 333 L 184 334 L 183 335 L 183 337 L 184 336 L 185 337 L 187 337 L 187 335 L 186 334 L 187 333 "></path>
        <path fill="none" stroke="#fa00fa" stroke-width="3" d="M 501 17 L 500 18 L 499 18 L 498 19 L 498 20 L 499 21 L 502 21 L 502 18 "></path>
        <path fill="none" stroke="#fa00fa" stroke-width="3" d="M 304 362 L 302 364 L 303 365 L 303 366 L 307 366 L 306 365 L 306 362 L 305 363 "></path>
        <path fill="none" stroke="#fa00fa" stroke-width="3" d="M 693 17 L 693 18 L 692 19 L 694 21 L 695 21 L 696 20 L 696 17 "></path>
        <path fill="none" stroke="#fa00fa" stroke-width="3" d="M 290 348 L 288 350 L 288 351 L 289 352 L 292 352 L 292 349 L 291 349 "></path>
        <path fill="none" stroke="#fa00fa" stroke-width="3" d="M 724 482 L 722 484 L 723 485 L 723 486 L 724 486 L 725 487 L 726 486 L 726 483 L 725 483 "></path>
        <path fill="none" stroke="#fa00fa" stroke-width="3" d="M 696 316 L 697 317 L 696 318 L 694 318 L 695 319 L 694 320 L 695 320 L 696 321 L 698 321 L 698 320 L 699 319 L 698 318 L 698 317 L 697 317 "></path>
        <path fill="none" stroke="#fa00fa" stroke-width="3" d="M 543 409 L 542 410 L 543 411 L 543 412 L 544 413 L 545 413 L 546 412 L 546 411 L 547 410 L 548 411 L 549 411 L 548 411 L 547 410 L 548 409 L 547 410 L 546 410 L 545 409 "></path>
        <path fill="none" stroke="#fa00fa" stroke-width="3" d="M 156 136 L 154 138 L 155 139 L 155 140 L 156 141 L 157 140 L 158 140 L 158 138 L 157 137 L 157 136 "></path>
        <path fill="none" stroke="#fa00fa" stroke-width="3" d="M 321 152 L 319 154 L 321 156 L 323 156 L 323 154 L 324 153 L 323 153 L 322 152 "></path>
        <path fill="none" stroke="#fa00fa" stroke-width="3" d="M 605 153 L 603 155 L 605 157 L 607 157 L 607 154 L 606 153 "></path>
        <path fill="none" stroke="#fa00fa" stroke-width="3" d="M 664 332 L 664 333 L 663 334 L 663 335 L 664 336 L 665 336 L 666 337 L 666 336 L 667 335 L 666 334 L 666 332 "></path>
        <path fill="none" stroke="#fa00fa" stroke-width="3" d="M 456 227 L 455 228 L 454 228 L 453 229 L 452 229 L 455 232 L 456 232 L 457 231 L 456 230 "></path>
        <path fill="none" stroke="#fa00fa" stroke-width="3" d="M 455 453 L 455 454 L 454 455 L 452 455 L 452 456 L 453 457 L 457 457 L 456 456 L 457 455 L 457 454 L 456 454 "></path>
        <path fill="none" stroke="#fa00fa" stroke-width="3" d="M 410 347 L 409 348 L 408 348 L 409 349 L 409 351 L 410 351 L 411 352 L 412 351 L 412 348 L 411 348 "></path>
        <path fill="none" stroke="#fa00fa" stroke-width="3" d="M 395 483 L 393 485 L 393 486 L 394 487 L 396 487 L 397 486 L 397 485 L 396 484 L 396 483 "></path>
        <path fill="none" stroke="#fa00fa" stroke-width="3" d="M 662 301 L 662 304 L 663 304 L 664 305 L 665 304 L 666 304 L 666 303 L 665 302 L 665 301 "></path>
        <path fill="none" stroke="#fa00fa" stroke-width="3" d="M 755 258 L 754 259 L 753 259 L 753 261 L 755 263 L 755 262 L 756 261 L 757 262 L 757 260 "></path>
        <path fill="none" stroke="#fa00fa" stroke-width="3" d="M 619 439 L 618 440 L 618 441 L 619 442 L 620 442 L 621 441 L 623 441 L 623 440 L 622 439 "></path>
        <path fill="none" stroke="#fa00fa" stroke-width="3" d="M 273 94 L 273 97 L 274 97 L 275 98 L 277 96 L 276 95 L 276 94 "></path>
        <path fill="none" stroke="#fa00fa" stroke-width="3" d="M 395 318 L 394 319 L 394 320 L 395 321 L 395 322 L 396 322 L 397 321 L 398 321 L 398 319 L 397 318 L 396 319 "></path>
        <path fill="none" stroke="#fa00fa" stroke-width="3" d="M 499 214 L 499 215 L 498 216 L 499 217 L 499 218 L 500 218 L 501 217 L 502 217 L 502 215 L 501 214 "></path>
        <path fill="none" stroke="#fa00fa" stroke-width="3" d="M 303 752 L 302 753 L 302 755 L 303 756 L 304 756 L 305 755 L 306 755 L 306 753 L 304 753 "></path>
        <path fill="none" stroke="#fa00fa" stroke-width="3" d="M 920 377 L 918 379 L 918 380 L 919 381 L 921 381 L 922 380 L 922 379 "></path>
        <path fill="none" stroke="#fa00fa" stroke-width="3" d="M 409 528 L 409 529 L 408 530 L 408 531 L 409 532 L 410 532 L 411 531 L 412 531 L 412 530 L 411 529 L 411 528 "></path>
        <path fill="none" stroke="#fa00fa" stroke-width="3" d="M 334 573 L 333 574 L 334 575 L 334 576 L 335 576 L 336 577 L 337 576 L 337 573 "></path>
        <path fill="none" stroke="#fa00fa" stroke-width="3" d="M 784 423 L 783 424 L 783 426 L 784 427 L 785 426 L 786 427 L 786 426 L 787 425 L 785 423 "></path>
        <path fill="none" stroke="#fa00fa" stroke-width="3" d="M 543 435 L 543 437 L 542 438 L 542 439 L 543 438 L 544 439 L 544 440 L 545 440 L 545 439 L 546 438 L 545 437 L 546 436 L 545 436 L 544 435 "></path>
        <path fill="none" stroke="#fa00fa" stroke-width="3" d="M 410 438 L 409 439 L 409 441 L 410 442 L 410 443 L 411 443 L 411 442 L 412 441 L 413 441 L 411 439 L 411 438 "></path>
        <path fill="none" stroke="#fa00fa" stroke-width="3" d="M 604 438 L 603 439 L 604 440 L 603 441 L 607 441 L 607 438 "></path>
        <path fill="none" stroke="#fa00fa" stroke-width="3" d="M 335 407 L 334 408 L 334 409 L 333 410 L 334 410 L 335 411 L 338 408 L 337 407 "></path>
        <path fill="none" stroke="#fa00fa" stroke-width="3" d="M 470 229 L 470 230 L 469 231 L 468 230 L 469 231 L 468 232 L 467 232 L 468 232 L 469 233 L 471 233 L 472 232 L 472 230 L 471 229 "></path>
        <path fill="none" stroke="#fa00fa" stroke-width="3" d="M 589 213 L 588 214 L 588 215 L 589 216 L 589 217 L 590 218 L 591 217 L 591 216 L 592 215 L 591 214 L 590 214 "></path>
    </g>
</svg>
