<svg xmlns="http://www.w3.org/2000/svg" xmlns:xlink="http://www.w3.org/1999/xlink" version="1.1" x="0" y="0" width="1056px" height="816px">
    <g id="rootLayer" transform="translate(0.000000, 0.000000)">
        <path fill="none" stroke="#00fafa" stroke-width="3" d="M 824 86 L 825 85 L 831 85 L 832 86 L 835 86 L 836 87 L 837 87 L 839 89 L 840 89 L 843 92 L 843 93 L 845 95 L 845 97 L 846 98 L 846 109 L 845 110 L 845 112 L 844 113 L 844 114 L 836 122 L 835 122 L 834 123 L 832 123 L 831 124 L 823 124 L 822 123 L 820 123 L 819 122 L 818 122 L 816 120 L 815 120 L 814 119 L 814 118 L 811 115 L 811 113 L 810 112 L 810 109 L 809 108 L 809 103 L 810 102 L 810 99 L 811 98 L 811 96 L 812 95 L 812 94 L 819 87 L 820 87 L 821 86 L 824 86 L 825 85 "></path>
        <path fill="none" stroke="#00fafa" stroke-width="3" d="M 619 638 L 620 637 L 624 637 L 625 638 L 628 638 L 629 639 L 631 639 L 638 646 L 638 647 L 639 648 L 639 651 L 640 652 L 640 658 L 639 659 L 639 661 L 638 662 L 638 664 L 636 666 L 636 667 L 632 671 L 631 671 L 630 672 L 629 672 L 628 673 L 627 673 L 626 674 L 615 674 L 614 673 L 613 673 L 612 672 L 611 672 L 610 671 L 609 671 L 604 666 L 604 665 L 603 664 L 603 663 L 602 662 L 602 660 L 601 659 L 601 652 L 602 651 L 602 649 L 603 648 L 603 647 L 605 645 L 605 644 L 607 642 L 608 642 L 610 640 L 611 640 L 612 639 L 614 639 L 615 638 L 619 638 L 620 637 "></path>
        <path fill="none" stroke="#00fafa" stroke-width="3" d="M 727 159 L 728 158 L 729 158 L 730 159 L 734 159 L 735 160 L 736 160 L 738 162 L 739 162 L 743 166 L 743 167 L 744 168 L 744 169 L 745 170 L 745 171 L 746 172 L 746 180 L 745 181 L 745 182 L 742 185 L 741 185 L 740 186 L 739 186 L 738 187 L 737 187 L 735 189 L 734 189 L 733 190 L 733 191 L 727 197 L 726 197 L 725 198 L 719 198 L 718 197 L 717 197 L 716 196 L 715 196 L 713 194 L 712 194 L 710 192 L 710 191 L 708 189 L 708 188 L 707 187 L 707 185 L 706 184 L 706 177 L 707 176 L 707 174 L 709 172 L 709 171 L 718 162 L 719 162 L 721 160 L 722 160 L 723 159 L 727 159 L 728 158 "></path>
        <path fill="none" stroke="#00fafa" stroke-width="3" d="M 269 622 L 270 621 L 271 621 L 272 622 L 276 622 L 277 623 L 278 623 L 279 624 L 280 624 L 285 629 L 285 630 L 287 632 L 287 634 L 288 635 L 288 636 L 289 637 L 289 641 L 290 642 L 290 645 L 289 646 L 289 649 L 288 650 L 288 652 L 281 659 L 280 659 L 279 660 L 278 660 L 277 661 L 272 661 L 271 662 L 270 662 L 269 661 L 265 661 L 264 660 L 263 660 L 262 659 L 261 659 L 257 655 L 257 654 L 256 653 L 256 652 L 255 651 L 255 632 L 256 631 L 256 630 L 257 629 L 257 628 L 261 624 L 262 624 L 263 623 L 264 623 L 265 622 L 269 622 L 270 621 "></path>
        <path fill="none" stroke="#00fafa" stroke-width="3" d="M 528 688 L 529 687 L 538 687 L 539 688 L 541 688 L 542 689 L 543 689 L 544 690 L 545 690 L 549 694 L 549 695 L 550 696 L 550 697 L 551 698 L 551 701 L 552 702 L 552 707 L 551 708 L 551 711 L 550 712 L 550 714 L 549 715 L 549 716 L 542 723 L 541 723 L 540 724 L 538 724 L 537 725 L 528 725 L 527 724 L 525 724 L 523 722 L 522 722 L 517 717 L 517 716 L 516 715 L 516 713 L 515 712 L 515 702 L 516 701 L 516 699 L 517 698 L 517 697 L 518 696 L 518 695 L 523 690 L 524 690 L 526 688 L 528 688 L 529 687 "></path>
        <path fill="none" stroke="#00fafa" stroke-width="3" d="M 40 79 L 41 78 L 47 78 L 48 79 L 50 79 L 51 80 L 52 80 L 53 81 L 55 81 L 56 82 L 57 82 L 58 83 L 59 83 L 60 84 L 61 84 L 65 88 L 65 89 L 67 91 L 67 92 L 68 93 L 68 95 L 69 96 L 69 101 L 68 102 L 68 103 L 67 104 L 67 105 L 65 107 L 65 108 L 61 112 L 60 112 L 58 114 L 57 114 L 56 115 L 55 115 L 54 116 L 52 116 L 51 117 L 46 117 L 45 116 L 43 116 L 42 115 L 41 115 L 37 111 L 37 110 L 36 109 L 36 108 L 35 107 L 35 106 L 34 105 L 34 103 L 33 102 L 33 101 L 32 100 L 32 98 L 31 97 L 31 95 L 30 94 L 30 90 L 31 89 L 31 87 L 32 86 L 32 85 L 38 79 L 40 79 L 41 78 "></path>
        <path fill="none" stroke="#00fafa" stroke-width="3" d="M 796 510 L 797 509 L 807 509 L 808 510 L 809 510 L 810 511 L 811 511 L 816 516 L 816 517 L 817 518 L 817 519 L 818 520 L 818 524 L 819 525 L 819 536 L 818 537 L 818 539 L 817 540 L 817 541 L 816 542 L 816 543 L 814 545 L 813 545 L 811 547 L 809 547 L 808 548 L 798 548 L 797 547 L 796 547 L 795 546 L 794 546 L 787 539 L 787 538 L 786 537 L 786 536 L 785 535 L 785 533 L 784 532 L 784 522 L 785 521 L 785 519 L 787 517 L 787 516 L 791 512 L 792 512 L 793 511 L 794 511 L 795 510 L 796 510 L 797 509 "></path>
        <path fill="none" stroke="#00fafa" stroke-width="3" d="M 261 494 L 262 493 L 263 493 L 264 494 L 268 494 L 269 495 L 270 495 L 271 496 L 272 496 L 273 497 L 274 497 L 275 498 L 276 498 L 283 505 L 283 506 L 284 507 L 284 508 L 285 509 L 285 518 L 284 519 L 284 521 L 282 523 L 282 524 L 278 528 L 277 528 L 276 529 L 275 529 L 274 530 L 271 530 L 270 531 L 267 531 L 266 530 L 263 530 L 262 529 L 260 529 L 259 528 L 258 528 L 257 527 L 256 527 L 253 524 L 252 524 L 251 523 L 251 522 L 248 519 L 248 518 L 247 517 L 247 515 L 246 514 L 246 508 L 247 507 L 247 505 L 248 504 L 248 503 L 249 502 L 249 501 L 255 495 L 257 495 L 258 494 L 261 494 L 262 493 "></path>
        <path fill="none" stroke="#00fafa" stroke-width="3" d="M 392 290 L 393 289 L 394 289 L 395 290 L 399 290 L 400 291 L 402 291 L 405 294 L 406 294 L 407 295 L 407 296 L 409 298 L 409 299 L 410 300 L 410 301 L 411 302 L 411 312 L 410 313 L 410 315 L 408 317 L 408 318 L 404 322 L 403 322 L 401 324 L 399 324 L 398 325 L 395 325 L 394 326 L 389 326 L 388 325 L 385 325 L 384 324 L 382 324 L 380 322 L 379 322 L 376 319 L 376 318 L 374 316 L 374 314 L 373 313 L 373 303 L 374 302 L 374 301 L 375 300 L 375 299 L 381 293 L 382 293 L 383 292 L 384 292 L 385 291 L 386 291 L 387 290 L 392 290 L 393 289 "></path>
        <path fill="none" stroke="#00fafa" stroke-width="3" d="M 902 428 L 903 427 L 912 427 L 913 428 L 915 428 L 916 429 L 917 429 L 923 435 L 923 436 L 924 437 L 924 438 L 925 439 L 925 442 L 926 443 L 926 448 L 925 449 L 925 452 L 924 453 L 924 454 L 922 456 L 922 457 L 918 461 L 917 461 L 915 463 L 913 463 L 912 464 L 905 464 L 904 463 L 901 463 L 900 462 L 899 462 L 898 461 L 897 461 L 896 460 L 895 460 L 891 456 L 891 455 L 890 454 L 890 453 L 889 452 L 889 449 L 888 448 L 888 445 L 889 444 L 889 440 L 890 439 L 890 438 L 891 437 L 891 436 L 898 429 L 899 429 L 900 428 L 902 428 L 903 427 "></path>
        <path fill="none" stroke="#00fafa" stroke-width="3" d="M 618 328 L 619 327 L 625 327 L 626 328 L 629 328 L 630 329 L 631 329 L 632 330 L 633 330 L 639 336 L 639 337 L 640 338 L 640 339 L 641 340 L 641 351 L 640 352 L 640 354 L 638 356 L 638 357 L 635 360 L 634 360 L 632 362 L 631 362 L 630 363 L 627 363 L 626 364 L 620 364 L 619 363 L 616 363 L 615 362 L 614 362 L 613 361 L 612 361 L 606 355 L 606 354 L 605 353 L 605 352 L 604 351 L 604 340 L 605 339 L 605 338 L 606 337 L 606 336 L 613 329 L 615 329 L 616 328 L 618 328 L 619 327 "></path>
        <path fill="none" stroke="#00fafa" stroke-width="3" d="M 237 559 L 238 558 L 248 558 L 249 559 L 250 559 L 251 560 L 252 560 L 254 562 L 255 562 L 258 565 L 258 566 L 260 568 L 260 569 L 261 570 L 261 572 L 262 573 L 262 583 L 261 584 L 261 585 L 260 586 L 260 587 L 258 589 L 258 590 L 257 591 L 256 591 L 253 594 L 251 594 L 250 595 L 248 595 L 247 596 L 242 596 L 241 595 L 238 595 L 237 594 L 236 594 L 234 592 L 233 592 L 230 589 L 230 588 L 228 586 L 228 584 L 227 583 L 227 581 L 226 580 L 226 570 L 227 569 L 227 568 L 228 567 L 228 566 L 230 564 L 230 563 L 231 562 L 232 562 L 235 559 L 237 559 L 238 558 "></path>
        <path fill="none" stroke="#00fafa" stroke-width="3" d="M 67 633 L 68 632 L 80 632 L 81 633 L 83 633 L 85 635 L 86 635 L 90 639 L 90 640 L 91 641 L 91 642 L 92 643 L 92 644 L 93 645 L 93 654 L 92 655 L 92 657 L 90 659 L 90 660 L 85 665 L 84 665 L 83 666 L 82 666 L 81 667 L 78 667 L 77 668 L 72 668 L 71 667 L 68 667 L 67 666 L 65 666 L 63 664 L 62 664 L 59 661 L 59 660 L 57 658 L 57 657 L 56 656 L 56 654 L 55 653 L 55 646 L 56 645 L 56 643 L 57 642 L 57 641 L 59 639 L 59 638 L 61 636 L 62 636 L 64 634 L 65 634 L 66 633 L 67 633 L 68 632 "></path>
        <path fill="none" stroke="#00fafa" stroke-width="3" d="M 99 47 L 100 46 L 109 46 L 110 47 L 112 47 L 113 48 L 114 48 L 121 55 L 121 56 L 122 57 L 122 65 L 121 66 L 121 67 L 118 70 L 118 71 L 116 73 L 116 74 L 115 75 L 115 76 L 114 77 L 114 79 L 113 80 L 113 81 L 109 85 L 108 85 L 107 86 L 103 86 L 102 87 L 101 86 L 97 86 L 96 85 L 95 85 L 90 80 L 90 79 L 88 77 L 88 76 L 87 75 L 87 74 L 86 73 L 86 66 L 87 65 L 87 64 L 88 63 L 88 62 L 90 60 L 90 58 L 91 57 L 91 55 L 92 54 L 92 53 L 93 52 L 93 51 L 97 47 L 99 47 L 100 46 "></path>
        <path fill="none" stroke="#00fafa" stroke-width="3" d="M 241 421 L 242 420 L 253 420 L 254 421 L 255 421 L 256 422 L 257 422 L 263 428 L 263 429 L 264 430 L 264 431 L 265 432 L 265 435 L 266 436 L 266 440 L 265 441 L 265 444 L 264 445 L 264 447 L 262 449 L 262 450 L 259 453 L 258 453 L 256 455 L 255 455 L 254 456 L 251 456 L 250 457 L 244 457 L 243 456 L 241 456 L 240 455 L 239 455 L 238 454 L 237 454 L 234 451 L 234 450 L 232 448 L 232 447 L 231 446 L 231 445 L 230 444 L 230 441 L 229 440 L 229 434 L 230 433 L 230 431 L 231 430 L 231 429 L 233 427 L 233 426 L 236 423 L 237 423 L 239 421 L 241 421 L 242 420 "></path>
        <path fill="none" stroke="#00fafa" stroke-width="3" d="M 365 715 L 366 714 L 367 714 L 368 715 L 372 715 L 373 716 L 375 716 L 377 718 L 378 718 L 382 722 L 382 723 L 383 724 L 383 725 L 384 726 L 384 727 L 385 728 L 385 738 L 384 739 L 384 740 L 383 741 L 383 742 L 382 743 L 382 744 L 378 748 L 377 748 L 376 749 L 375 749 L 374 750 L 372 750 L 371 751 L 363 751 L 362 750 L 360 750 L 359 749 L 358 749 L 357 748 L 356 748 L 351 743 L 351 742 L 350 741 L 350 740 L 349 739 L 349 736 L 348 735 L 348 730 L 349 729 L 349 726 L 350 725 L 350 724 L 352 722 L 352 721 L 355 718 L 356 718 L 358 716 L 360 716 L 361 715 L 365 715 L 366 714 "></path>
        <path fill="none" stroke="#00fafa" stroke-width="3" d="M 797 691 L 798 690 L 805 690 L 806 691 L 809 691 L 810 692 L 811 692 L 818 699 L 818 700 L 819 701 L 819 703 L 820 704 L 820 713 L 819 714 L 819 716 L 818 717 L 818 718 L 811 725 L 810 725 L 809 726 L 806 726 L 805 727 L 798 727 L 797 726 L 795 726 L 794 725 L 793 725 L 791 723 L 790 723 L 787 720 L 787 719 L 785 717 L 785 715 L 784 714 L 784 710 L 783 709 L 783 708 L 784 707 L 784 703 L 785 702 L 785 700 L 787 698 L 787 697 L 790 694 L 791 694 L 793 692 L 794 692 L 795 691 L 797 691 L 798 690 "></path>
        <path fill="none" stroke="#00fafa" stroke-width="3" d="M 64 721 L 65 720 L 75 720 L 76 721 L 77 721 L 78 722 L 79 722 L 80 723 L 81 723 L 84 726 L 84 727 L 86 729 L 86 730 L 87 731 L 87 734 L 88 735 L 88 739 L 87 740 L 87 743 L 86 744 L 86 745 L 85 746 L 85 747 L 83 749 L 83 750 L 80 753 L 79 753 L 77 755 L 76 755 L 75 756 L 73 756 L 72 757 L 66 757 L 65 756 L 64 756 L 63 755 L 62 755 L 61 754 L 60 754 L 52 746 L 52 745 L 51 744 L 51 743 L 50 742 L 50 737 L 51 736 L 51 734 L 52 733 L 52 731 L 54 729 L 54 728 L 59 723 L 60 723 L 61 722 L 62 722 L 63 721 L 64 721 L 65 720 "></path>
        <path fill="none" stroke="#00fafa" stroke-width="3" d="M 562 99 L 563 98 L 571 98 L 572 99 L 574 99 L 575 100 L 576 100 L 577 101 L 578 101 L 582 105 L 582 106 L 584 108 L 584 109 L 585 110 L 585 114 L 586 115 L 586 118 L 585 119 L 585 122 L 584 123 L 584 124 L 583 125 L 583 126 L 577 132 L 576 132 L 575 133 L 574 133 L 573 134 L 562 134 L 561 133 L 559 133 L 558 132 L 557 132 L 551 126 L 551 125 L 550 124 L 550 122 L 549 121 L 549 111 L 550 110 L 550 108 L 552 106 L 552 105 L 556 101 L 557 101 L 558 100 L 559 100 L 560 99 L 562 99 L 563 98 "></path>
        <path fill="none" stroke="#00fafa" stroke-width="3" d="M 804 247 L 805 246 L 811 246 L 812 247 L 813 247 L 817 251 L 817 252 L 820 255 L 820 256 L 822 258 L 823 258 L 828 263 L 828 264 L 829 265 L 829 266 L 830 267 L 830 272 L 829 273 L 829 275 L 828 276 L 828 277 L 821 284 L 820 284 L 819 285 L 816 285 L 815 286 L 811 286 L 810 285 L 807 285 L 806 284 L 805 284 L 804 283 L 803 283 L 798 278 L 798 277 L 797 276 L 797 275 L 796 274 L 796 273 L 795 272 L 795 271 L 794 270 L 794 268 L 793 267 L 793 259 L 794 258 L 794 256 L 796 254 L 796 253 L 800 249 L 801 249 L 803 247 L 804 247 L 805 246 "></path>
        <path fill="none" stroke="#00fafa" stroke-width="3" d="M 78 300 L 79 299 L 87 299 L 88 300 L 90 300 L 91 301 L 92 301 L 98 307 L 98 308 L 99 309 L 99 312 L 100 313 L 100 319 L 99 320 L 99 323 L 98 324 L 98 326 L 97 327 L 97 328 L 92 333 L 91 333 L 89 335 L 87 335 L 86 336 L 78 336 L 77 335 L 75 335 L 74 334 L 73 334 L 72 333 L 71 333 L 67 329 L 67 328 L 66 327 L 66 326 L 65 325 L 65 323 L 64 322 L 64 315 L 65 314 L 65 311 L 66 310 L 66 309 L 68 307 L 68 306 L 71 303 L 72 303 L 74 301 L 75 301 L 76 300 L 78 300 L 79 299 "></path>
        <path fill="none" stroke="#00fafa" stroke-width="3" d="M 138 306 L 139 305 L 150 305 L 151 306 L 152 306 L 153 307 L 154 307 L 156 309 L 157 309 L 159 311 L 159 312 L 161 314 L 161 315 L 162 316 L 162 318 L 163 319 L 163 326 L 162 327 L 162 329 L 161 330 L 161 331 L 160 332 L 160 333 L 154 339 L 153 339 L 152 340 L 150 340 L 149 341 L 139 341 L 138 340 L 137 340 L 136 339 L 135 339 L 129 333 L 129 332 L 128 331 L 128 330 L 127 329 L 127 318 L 128 317 L 128 315 L 129 314 L 129 313 L 130 312 L 130 311 L 133 308 L 134 308 L 136 306 L 138 306 L 139 305 "></path>
        <path fill="none" stroke="#00fafa" stroke-width="3" d="M 1017 654 L 1018 653 L 1030 653 L 1031 654 L 1032 654 L 1033 655 L 1034 655 L 1038 659 L 1038 660 L 1039 661 L 1039 662 L 1040 663 L 1040 677 L 1039 678 L 1039 680 L 1033 686 L 1032 686 L 1031 687 L 1030 687 L 1029 688 L 1017 688 L 1016 687 L 1014 687 L 1013 686 L 1012 686 L 1007 681 L 1007 680 L 1006 679 L 1006 678 L 1005 677 L 1005 675 L 1004 674 L 1004 667 L 1005 666 L 1005 664 L 1006 663 L 1006 662 L 1012 656 L 1013 656 L 1015 654 L 1017 654 L 1018 653 "></path>
        <path fill="none" stroke="#00fafa" stroke-width="3" d="M 22 768 L 23 767 L 33 767 L 34 768 L 35 768 L 37 770 L 38 770 L 42 774 L 43 774 L 44 775 L 44 776 L 47 779 L 47 780 L 48 781 L 48 791 L 47 792 L 47 793 L 41 799 L 40 799 L 39 800 L 38 800 L 37 801 L 36 801 L 34 803 L 33 803 L 31 805 L 26 805 L 24 803 L 23 803 L 20 800 L 19 800 L 15 796 L 15 795 L 13 793 L 13 792 L 12 791 L 12 790 L 11 789 L 11 782 L 12 781 L 12 780 L 13 779 L 13 778 L 14 777 L 14 776 L 15 775 L 15 774 L 21 768 L 22 768 L 23 767 "></path>
        <path fill="none" stroke="#00fafa" stroke-width="3" d="M 391 378 L 392 377 L 402 377 L 403 378 L 405 378 L 406 379 L 407 379 L 413 385 L 413 386 L 414 387 L 414 388 L 415 389 L 415 400 L 414 401 L 414 403 L 412 405 L 412 406 L 408 410 L 407 410 L 406 411 L 405 411 L 404 412 L 403 412 L 402 413 L 393 413 L 392 412 L 390 412 L 389 411 L 388 411 L 381 404 L 381 403 L 380 402 L 380 399 L 379 398 L 379 392 L 380 391 L 380 388 L 381 387 L 381 386 L 383 384 L 383 383 L 385 381 L 386 381 L 388 379 L 389 379 L 390 378 L 391 378 L 392 377 "></path>
        <path fill="none" stroke="#00fafa" stroke-width="3" d="M 526 333 L 527 332 L 535 332 L 536 333 L 538 333 L 539 334 L 540 334 L 541 335 L 542 335 L 546 339 L 546 340 L 548 342 L 548 344 L 549 345 L 549 349 L 550 350 L 550 351 L 549 352 L 549 356 L 548 357 L 548 358 L 547 359 L 547 360 L 546 361 L 546 362 L 543 365 L 542 365 L 540 367 L 539 367 L 538 368 L 536 368 L 535 369 L 528 369 L 527 368 L 526 368 L 525 367 L 524 367 L 516 359 L 516 358 L 514 356 L 514 354 L 513 353 L 513 347 L 514 346 L 514 344 L 515 343 L 515 342 L 516 341 L 516 340 L 521 335 L 522 335 L 523 334 L 524 334 L 525 333 L 526 333 L 527 332 "></path>
        <path fill="none" stroke="#00fafa" stroke-width="3" d="M 482 375 L 483 374 L 491 374 L 492 375 L 493 375 L 495 377 L 496 377 L 502 383 L 502 384 L 504 386 L 504 387 L 505 388 L 505 398 L 504 399 L 504 400 L 503 401 L 503 402 L 497 408 L 496 408 L 495 409 L 494 409 L 493 410 L 490 410 L 489 411 L 485 411 L 484 410 L 481 410 L 480 409 L 479 409 L 478 408 L 477 408 L 471 402 L 471 401 L 470 400 L 470 398 L 469 397 L 469 388 L 470 387 L 470 385 L 471 384 L 471 383 L 478 376 L 479 376 L 480 375 L 482 375 L 483 374 "></path>
        <path fill="none" stroke="#00fafa" stroke-width="3" d="M 920 222 L 921 221 L 925 221 L 926 222 L 929 222 L 930 223 L 931 223 L 932 224 L 933 224 L 938 229 L 938 230 L 939 231 L 939 232 L 940 233 L 940 235 L 941 236 L 941 244 L 940 245 L 940 247 L 939 248 L 939 249 L 933 255 L 932 255 L 931 256 L 930 256 L 929 257 L 926 257 L 925 258 L 921 258 L 920 257 L 917 257 L 916 256 L 915 256 L 914 255 L 913 255 L 907 249 L 907 248 L 906 247 L 906 245 L 905 244 L 905 235 L 906 234 L 906 232 L 907 231 L 907 230 L 913 224 L 914 224 L 915 223 L 916 223 L 917 222 L 920 222 L 921 221 "></path>
        <path fill="none" stroke="#00fafa" stroke-width="3" d="M 995 210 L 996 209 L 999 209 L 1000 210 L 1001 210 L 1007 216 L 1007 217 L 1008 218 L 1008 219 L 1009 220 L 1009 223 L 1010 224 L 1010 229 L 1009 230 L 1009 233 L 1008 234 L 1008 235 L 1007 236 L 1007 237 L 1002 242 L 1001 242 L 1000 243 L 999 243 L 998 244 L 997 244 L 996 245 L 985 245 L 984 244 L 983 244 L 982 243 L 981 243 L 980 242 L 979 242 L 974 237 L 974 236 L 973 235 L 973 234 L 972 233 L 972 231 L 971 230 L 971 224 L 972 223 L 972 222 L 975 219 L 977 219 L 978 218 L 980 218 L 981 217 L 983 217 L 984 216 L 985 216 L 986 215 L 987 215 L 990 212 L 991 212 L 993 210 L 995 210 L 996 209 "></path>
        <path fill="none" stroke="#00fafa" stroke-width="3" d="M 377 618 L 378 617 L 391 617 L 392 618 L 393 618 L 394 619 L 395 619 L 397 621 L 398 621 L 400 623 L 400 624 L 402 626 L 402 627 L 403 628 L 403 630 L 404 631 L 404 638 L 403 639 L 403 641 L 402 642 L 402 643 L 401 644 L 401 645 L 397 649 L 396 649 L 395 650 L 394 650 L 393 651 L 391 651 L 390 652 L 386 652 L 385 653 L 382 653 L 381 652 L 380 652 L 376 648 L 376 647 L 375 646 L 375 644 L 374 643 L 374 641 L 373 640 L 373 639 L 371 637 L 371 636 L 369 634 L 369 633 L 367 631 L 367 630 L 366 629 L 366 626 L 367 625 L 367 624 L 371 620 L 372 620 L 373 619 L 374 619 L 375 618 L 377 618 L 378 617 "></path>
        <path fill="none" stroke="#00fafa" stroke-width="3" d="M 331 640 L 332 639 L 340 639 L 341 640 L 342 640 L 343 641 L 343 642 L 344 643 L 344 644 L 345 645 L 345 647 L 346 648 L 346 650 L 347 651 L 347 652 L 348 653 L 348 654 L 350 656 L 350 657 L 353 660 L 353 661 L 354 662 L 354 664 L 355 665 L 354 666 L 354 668 L 349 673 L 348 673 L 346 675 L 344 675 L 343 676 L 339 676 L 338 677 L 337 677 L 336 676 L 332 676 L 331 675 L 329 675 L 327 673 L 326 673 L 322 669 L 322 668 L 320 666 L 320 664 L 319 663 L 319 652 L 320 651 L 320 650 L 321 649 L 321 648 L 322 647 L 322 646 L 325 643 L 326 643 L 328 641 L 329 641 L 330 640 L 331 640 L 332 639 "></path>
        <path fill="none" stroke="#00fafa" stroke-width="3" d="M 964 162 L 965 161 L 966 161 L 967 162 L 971 162 L 972 163 L 974 163 L 976 165 L 977 165 L 980 168 L 980 169 L 982 171 L 982 172 L 983 173 L 983 174 L 984 175 L 984 178 L 985 179 L 985 181 L 984 182 L 984 184 L 981 187 L 980 187 L 979 188 L 977 188 L 976 189 L 975 189 L 974 190 L 972 190 L 971 191 L 970 191 L 968 193 L 967 193 L 965 195 L 964 195 L 963 196 L 962 196 L 961 197 L 958 197 L 957 196 L 956 196 L 950 190 L 950 189 L 949 188 L 949 186 L 948 185 L 948 181 L 947 180 L 947 179 L 948 178 L 948 174 L 949 173 L 949 172 L 950 171 L 950 170 L 956 164 L 957 164 L 958 163 L 959 163 L 960 162 L 964 162 L 965 161 "></path>
        <path fill="none" stroke="#00fafa" stroke-width="3" d="M 197 338 L 198 337 L 208 337 L 209 338 L 211 338 L 213 340 L 214 340 L 218 344 L 218 345 L 219 346 L 219 347 L 220 348 L 220 350 L 221 351 L 221 357 L 220 358 L 220 361 L 219 362 L 219 363 L 216 366 L 216 367 L 212 371 L 211 371 L 209 373 L 208 373 L 207 374 L 203 374 L 202 373 L 201 373 L 200 372 L 200 371 L 198 369 L 198 368 L 197 367 L 197 366 L 196 365 L 196 364 L 195 363 L 195 362 L 193 360 L 192 360 L 189 357 L 188 357 L 183 352 L 183 349 L 184 348 L 184 347 L 190 341 L 191 341 L 193 339 L 194 339 L 195 338 L 197 338 L 198 337 "></path>
        <path fill="none" stroke="#00fafa" stroke-width="3" d="M 840 344 L 841 343 L 849 343 L 850 344 L 852 344 L 853 345 L 854 345 L 855 346 L 856 346 L 861 351 L 861 352 L 862 353 L 862 354 L 863 355 L 863 356 L 864 357 L 864 369 L 863 370 L 863 371 L 860 374 L 859 374 L 858 375 L 857 375 L 856 374 L 853 374 L 852 373 L 851 373 L 850 372 L 846 372 L 845 371 L 842 371 L 841 372 L 835 372 L 834 373 L 833 372 L 831 372 L 828 369 L 828 368 L 827 367 L 827 356 L 828 355 L 828 354 L 829 353 L 829 352 L 830 351 L 830 350 L 834 346 L 835 346 L 836 345 L 837 345 L 838 344 L 840 344 L 841 343 "></path>
        <path fill="none" stroke="#00fafa" stroke-width="3" d="M 807 175 L 808 174 L 818 174 L 819 175 L 820 175 L 821 176 L 822 176 L 823 177 L 824 177 L 830 183 L 830 184 L 831 185 L 831 186 L 832 187 L 832 189 L 831 190 L 831 191 L 828 194 L 827 194 L 825 196 L 824 196 L 819 201 L 819 202 L 817 204 L 817 205 L 816 206 L 816 207 L 812 211 L 808 211 L 807 210 L 806 210 L 805 209 L 804 209 L 800 205 L 800 204 L 798 202 L 798 201 L 797 200 L 797 199 L 796 198 L 796 196 L 795 195 L 795 188 L 796 187 L 796 185 L 797 184 L 797 183 L 798 182 L 798 181 L 802 177 L 803 177 L 805 175 L 807 175 L 808 174 "></path>
        <path fill="none" stroke="#00fafa" stroke-width="3" d="M 540 628 L 541 627 L 547 627 L 548 628 L 549 628 L 550 629 L 551 629 L 552 630 L 554 630 L 555 631 L 557 631 L 558 632 L 560 632 L 561 633 L 562 633 L 565 636 L 565 637 L 566 638 L 566 644 L 565 645 L 565 647 L 564 648 L 564 650 L 562 652 L 562 653 L 559 656 L 558 656 L 556 658 L 555 658 L 554 659 L 550 659 L 549 660 L 547 660 L 546 659 L 542 659 L 541 658 L 539 658 L 538 657 L 537 657 L 531 651 L 531 650 L 530 649 L 530 647 L 529 646 L 529 639 L 530 638 L 530 637 L 539 628 L 540 628 L 541 627 "></path>
        <path fill="none" stroke="#00fafa" stroke-width="3" d="M 725 397 L 726 396 L 737 396 L 738 397 L 739 397 L 743 401 L 743 402 L 744 403 L 744 425 L 743 426 L 743 427 L 741 429 L 740 429 L 739 430 L 737 430 L 736 431 L 726 431 L 725 430 L 724 430 L 723 429 L 722 429 L 720 427 L 719 427 L 717 425 L 717 424 L 715 422 L 715 421 L 714 420 L 714 417 L 713 416 L 713 411 L 714 410 L 714 407 L 715 406 L 715 405 L 717 403 L 717 402 L 720 399 L 721 399 L 722 398 L 723 398 L 724 397 L 725 397 L 726 396 "></path>
        <path fill="none" stroke="#00fafa" stroke-width="3" d="M 159 369 L 160 368 L 162 368 L 163 369 L 164 369 L 166 371 L 166 372 L 167 373 L 167 374 L 168 375 L 168 376 L 169 377 L 169 378 L 170 379 L 170 380 L 174 384 L 175 384 L 177 386 L 178 386 L 183 391 L 183 395 L 182 396 L 182 397 L 176 403 L 175 403 L 174 404 L 173 404 L 172 405 L 170 405 L 169 406 L 162 406 L 161 405 L 159 405 L 158 404 L 157 404 L 156 403 L 155 403 L 149 397 L 149 396 L 148 395 L 148 393 L 147 392 L 147 381 L 148 380 L 148 379 L 149 378 L 149 377 L 156 370 L 157 370 L 158 369 L 159 369 L 160 368 "></path>
        <path fill="none" stroke="#00fafa" stroke-width="3" d="M 631 719 L 632 718 L 641 718 L 642 719 L 644 719 L 645 720 L 646 720 L 647 721 L 648 721 L 650 723 L 650 724 L 651 725 L 651 727 L 650 728 L 650 729 L 649 730 L 649 731 L 648 732 L 648 733 L 647 734 L 647 735 L 646 736 L 646 737 L 645 738 L 645 740 L 644 741 L 644 743 L 643 744 L 643 745 L 642 746 L 642 747 L 641 748 L 641 749 L 635 755 L 629 755 L 628 754 L 627 754 L 619 746 L 619 744 L 618 743 L 618 741 L 617 740 L 617 733 L 618 732 L 618 730 L 619 729 L 619 728 L 620 727 L 620 726 L 625 721 L 626 721 L 627 720 L 628 720 L 629 719 L 631 719 L 632 718 "></path>
        <path fill="none" stroke="#00fafa" stroke-width="3" d="M 507 581 L 508 580 L 514 580 L 515 581 L 517 581 L 518 582 L 519 582 L 522 585 L 522 586 L 523 587 L 523 593 L 524 594 L 524 599 L 525 600 L 525 603 L 524 604 L 524 606 L 519 611 L 518 611 L 515 614 L 514 614 L 513 615 L 511 615 L 510 616 L 507 616 L 506 615 L 504 615 L 503 614 L 502 614 L 501 613 L 500 613 L 497 610 L 497 609 L 495 607 L 495 606 L 494 605 L 494 603 L 493 602 L 493 594 L 494 593 L 494 591 L 495 590 L 495 589 L 501 583 L 502 583 L 503 582 L 504 582 L 505 581 L 507 581 L 508 580 "></path>
        <path fill="none" stroke="#00fafa" stroke-width="3" d="M 22 466 L 23 465 L 28 465 L 29 466 L 31 466 L 32 467 L 33 467 L 34 468 L 35 468 L 41 474 L 41 475 L 43 477 L 43 478 L 44 479 L 44 483 L 40 487 L 38 487 L 37 488 L 35 488 L 34 489 L 33 489 L 32 490 L 31 490 L 26 495 L 26 496 L 24 498 L 23 498 L 22 499 L 20 499 L 19 498 L 17 498 L 16 497 L 12 497 L 11 496 L 10 496 L 9 495 L 9 493 L 8 492 L 8 487 L 9 486 L 9 481 L 8 480 L 8 474 L 9 473 L 9 471 L 10 470 L 11 470 L 12 469 L 15 469 L 16 468 L 17 468 L 18 467 L 19 467 L 20 466 L 22 466 L 23 465 "></path>
        <path fill="none" stroke="#00fafa" stroke-width="3" d="M 851 208 L 852 207 L 855 207 L 856 208 L 857 208 L 858 209 L 859 209 L 865 215 L 865 216 L 866 217 L 866 218 L 867 219 L 867 221 L 868 222 L 868 230 L 867 231 L 867 233 L 866 234 L 866 235 L 865 236 L 865 237 L 860 242 L 859 242 L 857 244 L 855 244 L 854 245 L 850 245 L 849 244 L 848 244 L 837 233 L 836 233 L 833 230 L 833 226 L 834 225 L 835 225 L 837 223 L 838 223 L 840 221 L 841 221 L 844 218 L 844 217 L 845 216 L 845 215 L 846 214 L 846 213 L 848 211 L 848 210 L 850 208 L 851 208 L 852 207 "></path>
        <path fill="none" stroke="#00fafa" stroke-width="3" d="M 551 448 L 557 448 L 559 450 L 559 452 L 560 453 L 560 458 L 561 459 L 561 462 L 562 463 L 562 464 L 563 465 L 563 466 L 566 469 L 567 469 L 573 475 L 573 479 L 569 483 L 568 483 L 567 484 L 566 484 L 565 485 L 562 485 L 561 486 L 554 486 L 553 485 L 551 485 L 550 484 L 549 484 L 548 483 L 547 483 L 542 478 L 542 477 L 540 475 L 540 473 L 539 472 L 539 462 L 540 461 L 540 459 L 542 457 L 542 456 L 548 450 L 549 450 L 551 448 L 557 448 "></path>
        <path fill="none" stroke="#00fafa" stroke-width="3" d="M 590 428 L 591 427 L 599 427 L 600 428 L 602 428 L 603 429 L 604 429 L 605 430 L 606 430 L 610 434 L 610 435 L 611 436 L 611 437 L 612 438 L 612 439 L 613 440 L 613 450 L 612 451 L 612 453 L 611 454 L 611 455 L 602 464 L 601 464 L 600 465 L 596 465 L 593 462 L 593 461 L 592 460 L 592 454 L 591 453 L 591 450 L 590 449 L 590 448 L 584 442 L 583 442 L 580 439 L 580 438 L 579 437 L 579 434 L 583 430 L 584 430 L 585 429 L 586 429 L 587 428 L 590 428 L 591 427 "></path>
        <path fill="none" stroke="#00fafa" stroke-width="3" d="M 851 522 L 854 522 L 855 523 L 856 523 L 858 525 L 858 526 L 860 528 L 860 529 L 863 532 L 863 533 L 864 534 L 865 534 L 866 535 L 867 535 L 868 536 L 871 536 L 872 537 L 881 537 L 884 540 L 884 545 L 883 546 L 883 547 L 880 550 L 880 551 L 878 553 L 877 553 L 874 556 L 873 556 L 872 557 L 870 557 L 869 558 L 862 558 L 861 557 L 860 557 L 859 556 L 858 556 L 857 555 L 856 555 L 851 550 L 851 549 L 849 547 L 849 546 L 848 545 L 848 543 L 847 542 L 847 528 L 848 527 L 848 526 L 849 525 L 849 524 L 851 522 L 854 522 "></path>
        <path fill="none" stroke="#00fafa" stroke-width="3" d="M 779 394 L 780 393 L 790 393 L 791 394 L 793 394 L 794 395 L 795 395 L 800 400 L 800 401 L 801 402 L 801 405 L 800 406 L 800 407 L 797 410 L 796 410 L 790 416 L 790 417 L 789 418 L 789 420 L 788 421 L 788 424 L 787 425 L 787 427 L 783 431 L 778 431 L 777 430 L 776 430 L 771 425 L 771 405 L 770 404 L 770 402 L 771 401 L 771 399 L 775 395 L 776 395 L 777 394 L 779 394 L 780 393 "></path>
        <path fill="none" stroke="#00fafa" stroke-width="3" d="M 174 601 L 181 601 L 182 602 L 183 602 L 184 603 L 185 603 L 186 604 L 187 604 L 189 606 L 190 606 L 191 607 L 191 608 L 193 610 L 193 611 L 194 612 L 194 613 L 195 614 L 195 624 L 194 625 L 194 627 L 193 628 L 193 629 L 187 635 L 186 635 L 185 636 L 184 636 L 183 637 L 181 637 L 180 638 L 174 638 L 173 639 L 171 639 L 170 638 L 167 638 L 165 636 L 165 635 L 164 634 L 164 633 L 165 632 L 165 631 L 166 630 L 166 629 L 168 627 L 168 626 L 171 623 L 171 622 L 172 621 L 172 618 L 173 617 L 173 616 L 172 615 L 172 610 L 171 609 L 171 604 L 174 601 L 181 601 "></path>
        <path fill="none" stroke="#00fafa" stroke-width="3" d="M 1027 387 L 1031 387 L 1032 388 L 1033 388 L 1035 390 L 1036 390 L 1037 391 L 1040 391 L 1041 390 L 1043 390 L 1044 389 L 1046 391 L 1046 392 L 1047 393 L 1047 397 L 1046 398 L 1046 411 L 1047 412 L 1047 417 L 1046 418 L 1046 419 L 1045 420 L 1043 420 L 1042 419 L 1041 419 L 1040 418 L 1037 418 L 1036 419 L 1035 419 L 1034 420 L 1033 420 L 1031 422 L 1028 422 L 1022 416 L 1022 415 L 1021 414 L 1021 412 L 1020 411 L 1020 409 L 1019 408 L 1019 398 L 1020 397 L 1020 395 L 1021 394 L 1021 393 L 1027 387 L 1031 387 "></path>
        <path fill="none" stroke="#00fafa" stroke-width="3" d="M 722 741 L 723 740 L 728 740 L 729 741 L 731 741 L 733 743 L 734 743 L 736 745 L 736 746 L 738 748 L 738 750 L 739 751 L 739 753 L 740 754 L 740 765 L 739 766 L 739 767 L 735 771 L 730 771 L 729 770 L 728 770 L 727 769 L 723 769 L 721 771 L 720 771 L 720 772 L 719 773 L 719 774 L 716 777 L 713 777 L 711 775 L 711 773 L 710 772 L 710 766 L 711 765 L 711 763 L 712 762 L 712 761 L 713 760 L 713 759 L 714 758 L 714 757 L 715 756 L 715 754 L 716 753 L 716 747 L 717 746 L 717 745 L 718 744 L 718 743 L 719 742 L 720 742 L 721 741 L 722 741 L 723 740 "></path>
        <path fill="none" stroke="#00fafa" stroke-width="3" d="M 456 9 L 457 8 L 462 8 L 463 9 L 476 9 L 477 8 L 481 8 L 482 9 L 483 9 L 484 10 L 484 13 L 483 14 L 483 20 L 484 21 L 484 22 L 485 23 L 485 26 L 484 27 L 484 28 L 480 32 L 479 32 L 477 34 L 475 34 L 474 35 L 471 35 L 470 36 L 466 36 L 465 35 L 462 35 L 461 34 L 460 34 L 459 33 L 458 33 L 457 32 L 456 32 L 452 28 L 452 27 L 451 26 L 451 25 L 452 24 L 452 23 L 453 22 L 453 21 L 454 20 L 454 19 L 455 18 L 455 14 L 454 13 L 454 10 L 455 9 L 456 9 L 457 8 "></path>
        <path fill="none" stroke="#00fafa" stroke-width="3" d="M 899 780 L 900 779 L 907 779 L 908 780 L 910 780 L 911 781 L 913 781 L 915 783 L 916 783 L 920 787 L 920 788 L 921 789 L 921 790 L 920 791 L 920 792 L 917 795 L 917 802 L 918 803 L 918 805 L 917 806 L 916 806 L 915 807 L 911 807 L 910 806 L 896 806 L 895 807 L 891 807 L 890 806 L 889 806 L 888 805 L 888 804 L 889 803 L 889 801 L 890 800 L 890 797 L 889 796 L 889 795 L 888 794 L 888 793 L 887 792 L 887 788 L 888 787 L 888 786 L 891 783 L 892 783 L 893 782 L 894 782 L 895 781 L 896 781 L 897 780 L 899 780 L 900 779 "></path>
        <path fill="none" stroke="#00fafa" stroke-width="3" d="M 879 486 L 880 485 L 883 485 L 884 486 L 887 486 L 888 487 L 890 487 L 891 488 L 892 488 L 893 489 L 894 489 L 899 494 L 899 495 L 900 496 L 900 497 L 901 498 L 901 509 L 900 510 L 900 512 L 899 513 L 899 514 L 896 517 L 893 517 L 892 516 L 891 516 L 888 513 L 888 512 L 882 506 L 881 506 L 880 505 L 876 505 L 875 504 L 870 504 L 869 503 L 867 503 L 865 501 L 865 496 L 867 494 L 867 493 L 871 489 L 872 489 L 874 487 L 875 487 L 876 486 L 879 486 L 880 485 "></path>
        <path fill="none" stroke="#00fafa" stroke-width="3" d="M 533 230 L 534 229 L 546 229 L 547 230 L 548 230 L 549 231 L 549 232 L 550 233 L 550 234 L 549 235 L 549 236 L 541 244 L 541 245 L 540 246 L 540 248 L 539 249 L 539 253 L 540 254 L 540 262 L 539 263 L 539 264 L 537 266 L 535 266 L 534 267 L 533 267 L 532 266 L 531 266 L 530 265 L 529 265 L 526 262 L 526 261 L 523 258 L 523 257 L 521 255 L 521 254 L 520 253 L 520 250 L 519 249 L 519 245 L 520 244 L 520 241 L 521 240 L 521 239 L 522 238 L 522 237 L 527 232 L 528 232 L 529 231 L 530 231 L 531 230 L 533 230 L 534 229 "></path>
        <path fill="none" stroke="#00fafa" stroke-width="3" d="M 238 133 L 239 132 L 240 133 L 241 133 L 242 134 L 242 135 L 243 136 L 243 137 L 244 138 L 244 140 L 245 141 L 245 143 L 246 144 L 246 154 L 245 155 L 245 156 L 244 157 L 244 158 L 243 159 L 243 160 L 237 166 L 236 166 L 234 168 L 232 168 L 231 169 L 220 169 L 219 168 L 216 168 L 215 167 L 214 167 L 212 165 L 212 164 L 211 163 L 211 162 L 212 161 L 212 160 L 215 157 L 216 157 L 217 156 L 218 156 L 219 155 L 221 155 L 222 154 L 223 154 L 228 149 L 228 147 L 229 146 L 229 144 L 230 143 L 230 141 L 231 140 L 231 139 L 237 133 L 238 133 L 239 132 "></path>
        <path fill="none" stroke="#00fafa" stroke-width="3" d="M 152 540 L 159 540 L 160 541 L 163 541 L 164 542 L 165 542 L 166 543 L 168 543 L 169 544 L 170 544 L 177 551 L 177 553 L 178 554 L 178 556 L 179 557 L 179 563 L 178 564 L 178 566 L 177 567 L 177 568 L 176 569 L 176 570 L 174 572 L 173 572 L 171 574 L 170 574 L 169 575 L 168 575 L 167 576 L 166 576 L 165 577 L 159 577 L 156 574 L 156 570 L 157 569 L 157 566 L 158 565 L 158 557 L 157 556 L 157 555 L 154 552 L 154 551 L 152 549 L 152 548 L 151 547 L 151 546 L 150 545 L 150 542 L 152 540 L 159 540 "></path>
        <path fill="none" stroke="#00fafa" stroke-width="3" d="M 1021 505 L 1022 504 L 1024 504 L 1026 506 L 1026 507 L 1027 508 L 1027 514 L 1026 515 L 1026 518 L 1025 519 L 1025 520 L 1018 527 L 1018 528 L 1017 529 L 1017 531 L 1016 532 L 1016 538 L 1017 539 L 1017 543 L 1014 546 L 1012 546 L 1011 545 L 1010 545 L 1007 542 L 1006 542 L 1001 537 L 1001 536 L 999 534 L 999 532 L 998 531 L 998 521 L 999 520 L 999 519 L 1003 515 L 1004 515 L 1005 514 L 1007 514 L 1008 513 L 1009 513 L 1010 512 L 1011 512 L 1013 510 L 1014 510 L 1019 505 L 1021 505 L 1022 504 "></path>
        <path fill="none" stroke="#00fafa" stroke-width="3" d="M 23 182 L 24 181 L 28 181 L 30 183 L 31 183 L 32 184 L 32 185 L 35 188 L 35 189 L 36 190 L 36 191 L 37 192 L 37 203 L 36 204 L 36 205 L 35 206 L 35 207 L 31 211 L 27 211 L 26 210 L 25 210 L 23 208 L 22 208 L 21 207 L 20 207 L 19 206 L 15 206 L 14 207 L 10 207 L 9 206 L 9 205 L 8 204 L 8 202 L 9 201 L 9 190 L 8 189 L 8 185 L 9 184 L 9 183 L 10 182 L 12 182 L 13 183 L 14 183 L 15 184 L 19 184 L 20 183 L 21 183 L 22 182 L 23 182 L 24 181 "></path>
        <path fill="none" stroke="#00fafa" stroke-width="3" d="M 176 114 L 177 113 L 180 113 L 183 116 L 183 118 L 182 119 L 182 121 L 181 122 L 181 123 L 180 124 L 180 125 L 179 126 L 179 127 L 178 128 L 178 130 L 177 131 L 177 136 L 178 137 L 178 139 L 179 140 L 179 141 L 180 142 L 180 143 L 181 144 L 181 145 L 182 146 L 182 147 L 184 149 L 184 152 L 182 154 L 181 154 L 180 155 L 178 155 L 177 154 L 175 154 L 174 153 L 173 153 L 172 152 L 171 152 L 169 150 L 168 150 L 162 144 L 162 143 L 160 141 L 160 139 L 159 138 L 159 129 L 160 128 L 160 126 L 161 125 L 161 124 L 167 118 L 168 118 L 170 116 L 171 116 L 172 115 L 173 115 L 174 114 L 176 114 L 177 113 "></path>
        <path fill="none" stroke="#00fafa" stroke-width="3" d="M 57 505 L 62 505 L 67 510 L 67 511 L 68 512 L 68 513 L 69 514 L 69 515 L 70 516 L 70 518 L 71 519 L 71 529 L 70 530 L 70 532 L 69 533 L 69 534 L 61 542 L 60 542 L 59 543 L 57 543 L 53 539 L 53 529 L 52 528 L 52 526 L 44 518 L 44 516 L 46 514 L 47 514 L 49 512 L 50 512 L 57 505 L 62 505 "></path>
        <path fill="none" stroke="#00fafa" stroke-width="3" d="M 624 554 L 630 554 L 631 555 L 634 555 L 635 556 L 639 556 L 640 557 L 642 557 L 643 558 L 644 558 L 648 562 L 649 562 L 651 564 L 652 564 L 653 565 L 654 565 L 656 567 L 657 567 L 658 568 L 658 569 L 659 570 L 659 573 L 655 577 L 654 577 L 653 578 L 652 578 L 651 579 L 650 579 L 649 580 L 648 580 L 647 581 L 645 581 L 644 582 L 639 582 L 638 581 L 637 581 L 634 578 L 634 577 L 633 576 L 633 575 L 632 574 L 632 573 L 631 572 L 631 571 L 629 569 L 629 568 L 624 563 L 624 562 L 623 561 L 623 560 L 622 559 L 622 556 L 624 554 L 630 554 "></path>
        <path fill="none" stroke="#00fafa" stroke-width="3" d="M 141 599 L 142 598 L 145 598 L 147 600 L 147 602 L 146 603 L 146 604 L 144 606 L 144 607 L 142 609 L 142 610 L 141 611 L 141 613 L 140 614 L 140 616 L 141 617 L 141 621 L 142 622 L 142 627 L 141 628 L 141 629 L 139 631 L 135 631 L 134 630 L 132 630 L 131 629 L 130 629 L 128 627 L 127 627 L 122 622 L 122 621 L 120 619 L 120 617 L 119 616 L 119 614 L 118 613 L 118 607 L 119 606 L 119 605 L 120 604 L 121 604 L 122 603 L 132 603 L 133 602 L 135 602 L 136 601 L 137 601 L 138 600 L 139 600 L 140 599 L 141 599 L 142 598 "></path>
        <path fill="none" stroke="#00fafa" stroke-width="3" d="M 121 545 L 122 544 L 125 544 L 128 547 L 128 552 L 127 553 L 127 555 L 126 556 L 126 559 L 125 560 L 125 563 L 126 564 L 126 566 L 128 568 L 128 569 L 130 571 L 130 574 L 128 576 L 127 576 L 126 577 L 121 577 L 120 578 L 112 578 L 110 576 L 110 575 L 108 573 L 108 571 L 107 570 L 107 566 L 106 565 L 106 563 L 107 562 L 107 558 L 108 557 L 108 556 L 109 555 L 109 554 L 115 548 L 116 548 L 118 546 L 119 546 L 120 545 L 121 545 L 122 544 "></path>
        <path fill="none" stroke="#00fafa" stroke-width="3" d="M 816 430 L 818 430 L 821 433 L 821 434 L 823 436 L 823 437 L 824 438 L 825 438 L 826 439 L 827 439 L 828 440 L 833 440 L 834 441 L 837 441 L 838 442 L 839 442 L 841 444 L 841 447 L 836 452 L 835 452 L 833 454 L 832 454 L 831 455 L 829 455 L 828 456 L 826 456 L 825 457 L 817 457 L 816 456 L 815 456 L 814 455 L 813 455 L 812 454 L 811 454 L 809 452 L 808 452 L 807 451 L 807 450 L 805 448 L 805 445 L 806 444 L 806 443 L 811 438 L 811 437 L 813 435 L 813 433 L 816 430 L 818 430 "></path>
        <path fill="none" stroke="#00fafa" stroke-width="3" d="M 160 461 L 163 461 L 167 465 L 167 466 L 172 471 L 173 471 L 174 472 L 176 472 L 177 473 L 178 473 L 180 475 L 180 476 L 181 477 L 181 479 L 182 480 L 182 481 L 184 483 L 184 484 L 189 489 L 189 490 L 190 491 L 190 492 L 187 495 L 182 495 L 181 494 L 179 494 L 178 493 L 176 493 L 175 492 L 173 492 L 172 491 L 169 491 L 168 490 L 167 490 L 166 489 L 165 489 L 161 485 L 161 483 L 160 482 L 160 479 L 159 478 L 159 474 L 158 473 L 158 463 L 160 461 L 163 461 "></path>
        <path fill="none" stroke="#00fafa" stroke-width="3" d="M 640 503 L 641 502 L 651 502 L 652 503 L 653 503 L 655 505 L 655 508 L 648 515 L 647 515 L 646 516 L 646 517 L 644 519 L 644 521 L 643 522 L 643 525 L 642 526 L 642 527 L 640 529 L 639 529 L 638 530 L 626 530 L 624 528 L 624 521 L 625 520 L 625 518 L 626 517 L 626 515 L 627 514 L 627 512 L 628 511 L 628 510 L 634 504 L 636 504 L 637 503 L 640 503 L 641 502 "></path>
        <path fill="none" stroke="#00fafa" stroke-width="3" d="M 263 754 L 264 753 L 276 753 L 277 754 L 278 754 L 279 755 L 280 755 L 282 757 L 283 757 L 286 760 L 286 761 L 288 763 L 288 764 L 289 765 L 289 768 L 285 772 L 284 772 L 283 773 L 282 773 L 281 774 L 280 774 L 274 780 L 273 780 L 272 781 L 271 781 L 269 779 L 269 778 L 268 777 L 268 774 L 267 773 L 267 772 L 266 771 L 266 770 L 262 766 L 261 766 L 256 761 L 256 758 L 259 755 L 260 755 L 261 754 L 263 754 L 264 753 "></path>
        <path fill="none" stroke="#00fafa" stroke-width="3" d="M 598 214 L 599 213 L 607 213 L 608 214 L 611 214 L 612 215 L 614 215 L 618 219 L 618 222 L 617 223 L 617 225 L 616 226 L 616 227 L 615 228 L 615 230 L 614 231 L 614 232 L 612 234 L 612 235 L 609 238 L 608 238 L 607 239 L 606 239 L 605 240 L 603 240 L 600 237 L 600 236 L 598 234 L 598 233 L 595 230 L 594 230 L 593 229 L 592 229 L 590 227 L 589 227 L 588 226 L 588 225 L 587 224 L 587 221 L 592 216 L 593 216 L 594 215 L 595 215 L 596 214 L 598 214 L 599 213 "></path>
        <path fill="none" stroke="#00fafa" stroke-width="3" d="M 594 571 L 596 571 L 597 572 L 598 572 L 602 576 L 602 577 L 603 578 L 603 579 L 604 580 L 604 581 L 605 582 L 605 583 L 606 584 L 606 585 L 609 588 L 609 589 L 612 592 L 612 593 L 613 594 L 613 596 L 614 597 L 613 598 L 613 600 L 612 601 L 612 602 L 608 606 L 607 606 L 605 608 L 604 608 L 602 610 L 601 610 L 600 611 L 599 611 L 598 612 L 597 612 L 596 613 L 593 613 L 591 611 L 591 607 L 592 606 L 592 604 L 593 603 L 593 602 L 594 601 L 594 599 L 595 598 L 595 596 L 596 595 L 596 589 L 595 588 L 595 585 L 594 584 L 594 582 L 593 581 L 593 580 L 592 579 L 592 573 L 594 571 L 596 571 "></path>
        <path fill="none" stroke="#00fafa" stroke-width="3" d="M 180 443 L 186 443 L 187 444 L 189 444 L 190 445 L 192 445 L 193 446 L 195 446 L 196 447 L 197 447 L 199 449 L 200 449 L 202 451 L 202 452 L 203 453 L 203 454 L 204 455 L 204 457 L 205 458 L 205 459 L 206 460 L 206 462 L 207 463 L 207 464 L 208 465 L 208 467 L 209 468 L 209 474 L 207 476 L 204 476 L 199 471 L 198 471 L 196 469 L 195 469 L 194 468 L 191 468 L 187 464 L 187 462 L 186 461 L 186 458 L 185 457 L 185 456 L 184 455 L 184 454 L 178 448 L 178 445 L 180 443 L 186 443 "></path>
        <path fill="none" stroke="#00fafa" stroke-width="3" d="M 619 262 L 620 261 L 623 261 L 624 262 L 625 262 L 630 267 L 631 267 L 632 268 L 633 268 L 634 269 L 635 269 L 640 274 L 640 275 L 639 276 L 639 277 L 635 281 L 634 281 L 633 282 L 632 282 L 631 283 L 630 283 L 629 284 L 627 284 L 626 285 L 617 285 L 616 284 L 615 284 L 614 283 L 613 283 L 611 281 L 611 280 L 610 279 L 610 278 L 609 277 L 609 269 L 610 268 L 610 267 L 611 266 L 612 266 L 614 264 L 615 264 L 616 263 L 617 263 L 618 262 L 619 262 L 620 261 "></path>
        <path fill="none" stroke="#00fafa" stroke-width="3" d="M 829 398 L 830 397 L 832 397 L 833 398 L 835 398 L 836 399 L 838 399 L 839 400 L 843 400 L 844 401 L 846 401 L 847 400 L 857 400 L 860 403 L 860 405 L 861 406 L 861 411 L 860 412 L 860 418 L 859 419 L 859 421 L 858 422 L 858 423 L 856 425 L 853 425 L 849 421 L 849 420 L 848 419 L 848 418 L 846 416 L 846 415 L 841 410 L 840 410 L 839 409 L 836 409 L 835 408 L 831 408 L 830 407 L 829 407 L 825 403 L 825 402 L 826 401 L 826 400 L 828 398 L 829 398 L 830 397 "></path>
        <path fill="none" stroke="#00fafa" stroke-width="3" d="M 568 275 L 569 274 L 570 274 L 571 275 L 574 275 L 575 276 L 576 276 L 577 277 L 578 277 L 586 285 L 586 289 L 584 291 L 583 291 L 581 293 L 579 293 L 578 294 L 577 294 L 576 295 L 573 295 L 572 296 L 566 296 L 565 295 L 563 295 L 561 293 L 560 293 L 559 292 L 558 292 L 556 290 L 555 290 L 553 288 L 553 287 L 552 286 L 552 283 L 554 281 L 555 281 L 556 280 L 557 280 L 558 279 L 560 279 L 561 278 L 562 278 L 564 276 L 565 276 L 566 275 L 568 275 L 569 274 "></path>
        <path fill="none" stroke="#00fafa" stroke-width="3" d="M 677 516 L 678 517 L 679 517 L 684 522 L 684 523 L 685 524 L 685 525 L 686 526 L 686 527 L 687 528 L 687 531 L 688 532 L 688 539 L 687 540 L 687 542 L 686 543 L 686 544 L 685 545 L 685 546 L 684 547 L 684 548 L 679 553 L 676 553 L 672 549 L 672 548 L 668 544 L 668 543 L 667 542 L 667 537 L 670 534 L 670 533 L 671 532 L 671 531 L 672 530 L 672 527 L 673 526 L 673 521 L 674 520 L 674 519 L 677 516 L 678 517 "></path>
        <path fill="none" stroke="#00fafa" stroke-width="3" d="M 563 572 L 564 571 L 567 571 L 570 574 L 570 575 L 569 576 L 569 578 L 568 579 L 568 581 L 567 582 L 567 583 L 566 584 L 566 586 L 565 587 L 565 594 L 566 595 L 566 598 L 567 599 L 567 601 L 568 602 L 568 605 L 566 607 L 565 607 L 564 606 L 563 606 L 562 605 L 561 605 L 560 604 L 559 604 L 557 602 L 556 602 L 555 601 L 554 601 L 552 599 L 552 598 L 551 597 L 551 594 L 550 593 L 550 589 L 549 588 L 549 580 L 553 576 L 554 576 L 555 575 L 556 575 L 557 574 L 559 574 L 560 573 L 561 573 L 562 572 L 563 572 L 564 571 "></path>
        <path fill="none" stroke="#00fafa" stroke-width="3" d="M 9 526 L 10 525 L 11 525 L 12 526 L 13 526 L 15 528 L 17 528 L 18 529 L 19 529 L 21 531 L 21 532 L 22 533 L 22 534 L 23 535 L 23 536 L 24 537 L 24 539 L 25 540 L 25 541 L 24 542 L 23 541 L 22 541 L 21 540 L 16 540 L 13 543 L 13 544 L 12 545 L 12 546 L 13 547 L 13 549 L 14 550 L 14 560 L 15 561 L 15 566 L 16 567 L 16 568 L 17 569 L 18 569 L 20 571 L 21 571 L 22 572 L 22 574 L 20 576 L 19 576 L 13 582 L 10 582 L 8 580 L 8 529 L 9 528 L 9 526 L 10 525 "></path>
        <path fill="none" stroke="#00fafa" stroke-width="3" d="M 647 211 L 655 211 L 656 212 L 657 212 L 658 213 L 659 213 L 660 214 L 661 214 L 662 215 L 663 215 L 664 216 L 665 216 L 667 218 L 668 218 L 675 225 L 675 226 L 676 227 L 676 228 L 677 229 L 677 233 L 676 234 L 676 235 L 674 237 L 673 237 L 672 238 L 669 238 L 668 237 L 667 237 L 666 236 L 665 236 L 664 235 L 663 235 L 659 231 L 659 230 L 658 229 L 658 228 L 654 224 L 651 224 L 650 223 L 649 223 L 645 219 L 645 218 L 644 217 L 644 214 L 647 211 L 655 211 "></path>
        <path fill="none" stroke="#00fafa" stroke-width="3" d="M 660 766 L 661 765 L 663 765 L 664 766 L 676 766 L 677 767 L 678 767 L 689 778 L 689 781 L 688 782 L 687 782 L 686 783 L 685 783 L 684 782 L 682 782 L 681 781 L 678 781 L 677 780 L 675 780 L 674 781 L 671 781 L 670 782 L 667 782 L 666 783 L 665 782 L 663 782 L 662 781 L 661 781 L 658 778 L 658 777 L 657 776 L 657 775 L 656 774 L 656 769 L 659 766 L 660 766 L 661 765 "></path>
        <path fill="none" stroke="#00fafa" stroke-width="3" d="M 35 244 L 36 243 L 39 243 L 40 244 L 41 244 L 42 245 L 42 246 L 43 247 L 43 253 L 42 254 L 42 256 L 41 257 L 41 258 L 39 260 L 39 261 L 38 262 L 38 263 L 37 264 L 37 265 L 35 267 L 35 268 L 29 274 L 25 274 L 23 272 L 23 264 L 24 263 L 24 256 L 25 255 L 25 254 L 28 251 L 28 250 L 31 247 L 31 246 L 32 245 L 33 245 L 34 244 L 35 244 L 36 243 "></path>
        <path fill="none" stroke="#00fafa" stroke-width="3" d="M 22 586 L 25 586 L 28 589 L 28 594 L 27 595 L 27 604 L 28 605 L 28 609 L 27 610 L 27 611 L 25 613 L 23 613 L 19 609 L 18 609 L 17 608 L 14 608 L 13 609 L 10 609 L 9 608 L 9 607 L 8 606 L 8 595 L 9 594 L 9 593 L 11 591 L 16 591 L 17 590 L 18 590 L 22 586 L 25 586 "></path>
        <path fill="none" stroke="#00fafa" stroke-width="3" d="M 352 789 L 353 788 L 368 788 L 369 789 L 370 789 L 372 791 L 372 794 L 370 796 L 370 797 L 369 798 L 369 802 L 370 803 L 370 804 L 368 806 L 367 806 L 366 807 L 354 807 L 353 806 L 352 806 L 351 805 L 351 802 L 352 801 L 352 799 L 351 798 L 351 796 L 349 794 L 349 793 L 348 792 L 349 791 L 349 790 L 350 789 L 352 789 L 353 788 "></path>
        <path fill="none" stroke="#00fafa" stroke-width="3" d="M 678 734 L 679 733 L 687 733 L 688 734 L 690 734 L 693 737 L 693 740 L 692 741 L 692 742 L 690 744 L 690 745 L 688 747 L 688 748 L 686 750 L 686 751 L 685 752 L 685 753 L 681 757 L 679 757 L 676 754 L 676 753 L 675 752 L 675 750 L 674 749 L 674 747 L 673 746 L 673 745 L 672 744 L 672 739 L 673 738 L 673 737 L 676 734 L 678 734 L 679 733 "></path>
        <path fill="none" stroke="#00fafa" stroke-width="3" d="M 208 115 L 209 114 L 210 115 L 215 115 L 216 116 L 217 116 L 219 118 L 219 121 L 217 123 L 217 124 L 214 127 L 214 133 L 215 134 L 215 135 L 218 138 L 218 139 L 219 140 L 219 142 L 218 143 L 218 144 L 215 147 L 214 147 L 213 148 L 212 148 L 211 149 L 208 149 L 207 148 L 207 147 L 206 146 L 206 141 L 207 140 L 207 128 L 206 127 L 206 123 L 205 122 L 205 117 L 207 115 L 208 115 L 209 114 "></path>
        <path fill="none" stroke="#00fafa" stroke-width="3" d="M 231 773 L 232 772 L 234 772 L 235 773 L 236 773 L 237 774 L 237 775 L 238 776 L 238 777 L 239 778 L 239 780 L 241 782 L 241 783 L 242 784 L 242 785 L 243 786 L 243 787 L 244 788 L 244 789 L 242 791 L 237 791 L 236 790 L 231 790 L 230 791 L 227 791 L 226 792 L 220 792 L 217 789 L 217 787 L 218 786 L 218 785 L 230 773 L 231 773 L 232 772 "></path>
        <path fill="none" stroke="#00fafa" stroke-width="3" d="M 306 787 L 307 786 L 310 786 L 311 787 L 313 787 L 316 790 L 316 792 L 311 797 L 311 800 L 310 801 L 311 802 L 311 803 L 310 804 L 310 805 L 309 806 L 308 806 L 307 807 L 292 807 L 291 806 L 289 806 L 288 805 L 299 794 L 299 793 L 305 787 L 306 787 L 307 786 "></path>
        <path fill="none" stroke="#00fafa" stroke-width="3" d="M 578 574 L 579 573 L 582 573 L 583 574 L 583 575 L 584 576 L 584 584 L 585 585 L 585 597 L 584 598 L 584 603 L 583 604 L 583 608 L 580 611 L 579 611 L 577 609 L 577 608 L 576 607 L 576 593 L 575 592 L 575 590 L 576 589 L 576 584 L 577 583 L 577 577 L 578 576 L 578 574 L 579 573 "></path>
        <path fill="none" stroke="#00fafa" stroke-width="3" d="M 641 232 L 644 232 L 647 235 L 647 236 L 649 238 L 650 238 L 651 239 L 652 239 L 653 240 L 654 240 L 663 249 L 663 255 L 660 258 L 657 258 L 653 254 L 653 253 L 652 252 L 652 251 L 650 249 L 650 248 L 648 246 L 647 246 L 645 244 L 644 244 L 643 243 L 642 243 L 638 239 L 638 235 L 641 232 L 644 232 "></path>
        <path fill="none" stroke="#00fafa" stroke-width="3" d="M 194 114 L 196 116 L 196 117 L 197 118 L 197 134 L 198 135 L 198 144 L 195 147 L 193 147 L 190 144 L 190 142 L 189 141 L 189 138 L 188 137 L 188 130 L 189 129 L 189 126 L 190 125 L 190 121 L 191 120 L 191 117 L 194 114 L 196 116 "></path>
        <path fill="none" stroke="#00fafa" stroke-width="3" d="M 572 245 L 576 249 L 576 250 L 577 251 L 577 252 L 585 260 L 585 262 L 584 263 L 584 264 L 583 265 L 582 265 L 581 266 L 576 266 L 575 265 L 571 265 L 570 264 L 569 264 L 568 263 L 568 261 L 567 260 L 567 259 L 568 258 L 568 253 L 569 252 L 569 248 L 572 245 L 576 249 "></path>
        <path fill="none" stroke="#00fafa" stroke-width="3" d="M 24 542 L 25 541 L 26 542 L 27 542 L 30 545 L 30 546 L 33 549 L 33 550 L 34 551 L 34 553 L 35 554 L 34 555 L 34 557 L 30 561 L 29 561 L 28 562 L 26 562 L 23 559 L 23 548 L 24 547 L 24 542 L 25 541 "></path>
        <path fill="none" stroke="#00fafa" stroke-width="3" d="M 1027 537 L 1028 537 L 1031 540 L 1031 542 L 1032 543 L 1032 545 L 1031 546 L 1031 547 L 1030 548 L 1029 548 L 1028 549 L 1027 548 L 1026 548 L 1024 546 L 1024 541 L 1025 540 L 1025 539 L 1027 537 L 1028 537 "></path>
        <path fill="none" stroke="#00fafa" stroke-width="3" d="M 230 122 L 231 121 L 232 122 L 232 125 L 231 126 L 231 127 L 228 130 L 226 130 L 225 129 L 225 125 L 227 123 L 228 123 L 229 122 L 230 122 L 231 121 "></path>
        <path fill="none" stroke="#00fafa" stroke-width="3" d="M 166 450 L 167 449 L 168 450 L 169 450 L 173 454 L 173 456 L 172 457 L 170 457 L 168 455 L 168 454 L 167 453 L 167 452 L 166 451 L 166 450 L 167 449 "></path>
    </g>
</svg>
