<svg xmlns="http://www.w3.org/2000/svg" xmlns:xlink="http://www.w3.org/1999/xlink" version="1.1" x="0" y="0" width="1056px" height="816px">
    <g id="rootLayer" transform="translate(0.000000, 0.000000)">
        <path fill="none" stroke="#ffffff" stroke-width="3" d="M 443 112 L 442 113 L 439 113 L 438 114 L 437 114 L 435 116 L 434 116 L 433 117 L 432 117 L 432 118 L 431 119 L 429 119 L 428 120 L 425 120 L 424 121 L 423 121 L 421 123 L 420 123 L 418 125 L 417 125 L 417 126 L 416 127 L 416 128 L 415 129 L 415 131 L 416 132 L 413 135 L 410 135 L 409 136 L 408 136 L 407 137 L 407 138 L 406 139 L 406 140 L 405 141 L 405 142 L 402 145 L 402 146 L 400 148 L 400 150 L 399 151 L 399 159 L 398 160 L 398 163 L 396 165 L 396 167 L 394 169 L 394 171 L 393 172 L 393 174 L 392 175 L 392 176 L 391 177 L 391 178 L 390 179 L 390 180 L 389 181 L 389 182 L 388 183 L 388 184 L 387 185 L 387 186 L 386 187 L 386 189 L 387 190 L 386 191 L 386 193 L 387 194 L 387 200 L 388 201 L 388 204 L 389 205 L 389 206 L 390 207 L 390 208 L 392 210 L 392 214 L 391 215 L 389 215 L 388 214 L 387 214 L 385 212 L 383 212 L 382 211 L 379 211 L 378 210 L 367 210 L 366 211 L 365 211 L 364 212 L 364 213 L 363 214 L 362 214 L 361 215 L 360 215 L 360 216 L 359 217 L 358 217 L 357 218 L 356 218 L 355 219 L 354 219 L 354 221 L 355 222 L 354 223 L 354 225 L 352 227 L 344 227 L 343 228 L 342 228 L 341 229 L 340 229 L 339 230 L 338 230 L 336 232 L 336 234 L 334 236 L 334 237 L 331 240 L 331 241 L 329 243 L 329 246 L 328 247 L 328 248 L 327 249 L 327 250 L 326 251 L 326 255 L 325 256 L 326 257 L 326 259 L 325 260 L 325 262 L 324 263 L 324 265 L 325 266 L 324 267 L 324 268 L 325 269 L 325 271 L 326 272 L 326 273 L 327 274 L 327 277 L 328 278 L 327 279 L 327 280 L 330 283 L 331 283 L 332 284 L 333 284 L 334 283 L 335 283 L 336 282 L 345 282 L 346 283 L 360 283 L 361 282 L 363 282 L 364 281 L 365 281 L 366 280 L 370 280 L 371 281 L 373 281 L 374 282 L 406 282 L 407 281 L 408 281 L 410 279 L 410 278 L 412 276 L 412 275 L 413 274 L 413 273 L 414 272 L 414 268 L 415 267 L 415 263 L 414 262 L 414 255 L 418 251 L 418 250 L 419 249 L 419 248 L 420 247 L 420 245 L 422 243 L 422 241 L 423 240 L 423 239 L 425 237 L 425 236 L 426 235 L 426 231 L 427 230 L 427 226 L 428 225 L 428 222 L 429 221 L 429 220 L 430 219 L 449 219 L 452 222 L 452 231 L 453 232 L 453 234 L 456 237 L 456 238 L 457 239 L 458 239 L 460 241 L 461 241 L 462 242 L 464 242 L 465 243 L 472 243 L 473 242 L 476 242 L 477 241 L 478 241 L 479 240 L 480 240 L 481 239 L 482 239 L 482 238 L 483 237 L 484 237 L 487 234 L 488 234 L 489 233 L 490 233 L 491 232 L 492 232 L 493 231 L 494 231 L 496 229 L 497 229 L 498 228 L 501 228 L 504 225 L 504 223 L 506 221 L 505 220 L 505 217 L 504 216 L 504 214 L 505 213 L 504 212 L 505 211 L 512 211 L 513 210 L 515 210 L 516 209 L 515 208 L 515 207 L 519 203 L 521 203 L 522 204 L 524 204 L 525 203 L 526 203 L 526 134 L 523 134 L 521 136 L 503 136 L 502 135 L 502 134 L 500 132 L 499 132 L 498 131 L 497 131 L 496 130 L 495 130 L 494 129 L 493 129 L 492 128 L 491 128 L 490 127 L 483 127 L 482 126 L 481 126 L 478 123 L 469 123 L 468 124 L 463 124 L 462 123 L 462 122 L 461 121 L 461 120 L 460 119 L 460 118 L 459 117 L 459 116 L 458 115 L 457 115 L 454 112 "></path>
        <path fill="none" stroke="#ffffff" stroke-width="3" d="M 276 163 L 275 164 L 255 164 L 254 165 L 253 165 L 252 166 L 252 167 L 250 169 L 249 169 L 247 171 L 246 171 L 245 172 L 235 172 L 234 173 L 233 173 L 233 175 L 234 176 L 234 178 L 236 180 L 232 184 L 226 184 L 224 186 L 224 187 L 225 188 L 225 189 L 224 190 L 225 191 L 225 193 L 224 194 L 224 196 L 220 200 L 217 200 L 216 201 L 215 201 L 214 202 L 214 205 L 213 206 L 214 207 L 214 211 L 215 212 L 215 214 L 216 215 L 216 216 L 217 217 L 217 219 L 219 221 L 219 223 L 221 225 L 221 226 L 222 227 L 223 227 L 225 229 L 225 230 L 226 231 L 227 231 L 228 232 L 229 232 L 230 233 L 231 233 L 232 234 L 234 234 L 235 235 L 240 235 L 241 234 L 242 234 L 242 233 L 243 232 L 244 232 L 245 231 L 246 232 L 247 231 L 253 231 L 254 232 L 255 231 L 256 232 L 262 232 L 264 230 L 262 228 L 262 225 L 263 224 L 264 224 L 265 223 L 269 223 L 270 224 L 271 223 L 272 224 L 274 224 L 275 223 L 277 223 L 278 222 L 279 222 L 280 221 L 281 221 L 282 220 L 284 220 L 285 219 L 286 219 L 286 218 L 287 217 L 287 215 L 289 213 L 292 213 L 294 211 L 295 211 L 295 210 L 296 209 L 296 207 L 295 206 L 296 205 L 295 204 L 295 198 L 296 197 L 296 196 L 297 195 L 299 195 L 300 196 L 300 197 L 301 197 L 303 199 L 307 199 L 308 198 L 309 198 L 310 197 L 310 196 L 312 194 L 312 192 L 313 191 L 313 188 L 314 187 L 314 177 L 313 176 L 313 174 L 309 170 L 307 170 L 306 169 L 305 169 L 304 168 L 301 168 L 300 167 L 299 167 L 298 166 L 297 166 L 296 165 L 295 165 L 294 164 L 289 164 L 288 163 "></path>
        <path fill="none" stroke="#ffffff" stroke-width="3" d="M 391 252 L 392 253 L 394 253 L 395 254 L 395 255 L 396 256 L 393 259 L 392 259 L 391 260 L 389 258 L 389 257 L 388 256 L 388 255 "></path>
    </g>
</svg>
