<svg xmlns="http://www.w3.org/2000/svg" xmlns:xlink="http://www.w3.org/1999/xlink" version="1.1" x="0" y="0" width="1056px" height="816px">
    <g id="rootLayer" transform="translate(0.000000, 0.000000)">
        <path fill="none" stroke="#00fafa" stroke-width="3" d="M 205 610 L 206 609 L 213 609 L 214 610 L 216 610 L 217 611 L 219 611 L 220 612 L 221 612 L 222 613 L 223 613 L 225 615 L 226 615 L 233 622 L 233 623 L 234 624 L 234 626 L 235 627 L 235 640 L 234 641 L 234 643 L 233 644 L 233 645 L 232 646 L 232 647 L 229 650 L 228 650 L 226 652 L 225 652 L 224 653 L 223 653 L 222 654 L 221 654 L 219 656 L 218 656 L 217 657 L 215 657 L 214 658 L 207 658 L 206 657 L 205 657 L 204 656 L 203 656 L 202 655 L 201 655 L 199 653 L 198 653 L 197 652 L 196 652 L 194 650 L 193 650 L 192 649 L 192 648 L 191 647 L 191 645 L 190 644 L 190 643 L 189 642 L 189 641 L 188 640 L 188 639 L 187 638 L 187 637 L 186 636 L 186 631 L 187 630 L 187 626 L 188 625 L 188 624 L 189 623 L 189 622 L 195 616 L 196 616 L 200 612 L 201 612 L 203 610 L 205 610 L 206 609 "></path>
        <path fill="none" stroke="#00fafa" stroke-width="3" d="M 202 312 L 203 311 L 211 311 L 212 312 L 215 312 L 216 313 L 217 313 L 218 314 L 219 314 L 226 321 L 226 322 L 227 323 L 227 324 L 228 325 L 228 328 L 229 329 L 229 341 L 228 342 L 228 344 L 226 346 L 226 347 L 220 353 L 219 353 L 217 355 L 216 355 L 215 356 L 213 356 L 212 357 L 202 357 L 201 356 L 199 356 L 198 355 L 197 355 L 196 354 L 195 354 L 192 351 L 191 351 L 190 350 L 190 349 L 187 346 L 187 345 L 186 344 L 186 343 L 185 342 L 185 339 L 184 338 L 184 330 L 185 329 L 185 327 L 186 326 L 186 324 L 188 322 L 188 321 L 195 314 L 196 314 L 197 313 L 198 313 L 199 312 L 202 312 L 203 311 "></path>
        <path fill="none" stroke="#00fafa" stroke-width="3" d="M 931 475 L 932 474 L 943 474 L 944 475 L 945 475 L 947 477 L 948 477 L 949 478 L 950 478 L 951 479 L 952 479 L 953 480 L 954 480 L 956 482 L 957 482 L 959 484 L 959 485 L 960 486 L 960 487 L 961 488 L 961 489 L 960 490 L 960 491 L 958 493 L 954 493 L 948 487 L 947 487 L 945 485 L 944 485 L 943 484 L 942 484 L 941 483 L 934 483 L 933 484 L 931 484 L 930 485 L 929 485 L 928 486 L 927 486 L 926 487 L 925 487 L 922 490 L 921 490 L 919 492 L 918 492 L 915 495 L 915 499 L 917 501 L 918 501 L 919 502 L 922 502 L 923 501 L 924 501 L 927 498 L 928 498 L 929 497 L 930 497 L 931 496 L 938 496 L 939 497 L 941 497 L 942 498 L 943 498 L 944 499 L 945 499 L 949 503 L 949 506 L 948 507 L 947 507 L 946 508 L 943 508 L 942 507 L 940 507 L 939 506 L 937 506 L 936 505 L 925 505 L 924 506 L 922 506 L 921 507 L 920 507 L 919 508 L 918 508 L 917 509 L 916 508 L 915 508 L 912 505 L 912 504 L 911 503 L 911 497 L 912 496 L 912 494 L 913 493 L 913 492 L 914 491 L 914 489 L 915 488 L 915 487 L 916 486 L 916 485 L 917 484 L 917 483 L 923 477 L 924 477 L 925 476 L 928 476 L 929 475 L 931 475 L 932 474 "></path>
        <path fill="none" stroke="#00fafa" stroke-width="3" d="M 265 709 L 266 708 L 269 708 L 270 709 L 273 709 L 274 710 L 275 710 L 276 711 L 277 711 L 278 712 L 279 712 L 284 717 L 284 718 L 286 720 L 286 721 L 287 722 L 287 723 L 288 724 L 288 725 L 290 727 L 290 728 L 291 729 L 291 730 L 292 731 L 292 736 L 291 737 L 291 738 L 283 746 L 283 747 L 279 751 L 278 751 L 277 752 L 267 752 L 266 751 L 259 751 L 257 749 L 257 748 L 258 747 L 270 747 L 271 746 L 274 746 L 275 745 L 278 745 L 279 744 L 280 744 L 281 743 L 281 742 L 282 741 L 282 728 L 281 727 L 281 726 L 280 725 L 280 724 L 278 722 L 278 721 L 277 720 L 276 720 L 274 718 L 272 718 L 271 717 L 262 717 L 261 718 L 259 718 L 257 720 L 256 720 L 251 725 L 251 726 L 250 727 L 250 729 L 249 730 L 249 731 L 246 734 L 243 734 L 241 732 L 241 730 L 240 729 L 240 728 L 241 727 L 241 726 L 242 725 L 242 724 L 251 715 L 252 715 L 256 711 L 257 711 L 258 710 L 260 710 L 261 709 L 265 709 L 266 708 "></path>
        <path fill="none" stroke="#00fafa" stroke-width="3" d="M 987 490 L 988 489 L 997 489 L 998 490 L 1000 490 L 1002 492 L 1002 496 L 1000 498 L 993 498 L 992 499 L 989 499 L 988 500 L 987 500 L 986 501 L 985 501 L 983 503 L 983 508 L 982 509 L 982 511 L 981 512 L 981 513 L 980 514 L 980 521 L 979 522 L 979 528 L 980 529 L 980 531 L 981 532 L 981 533 L 987 539 L 987 540 L 989 542 L 989 543 L 990 544 L 991 544 L 992 545 L 996 545 L 998 547 L 998 548 L 997 549 L 992 549 L 991 548 L 986 548 L 985 547 L 984 547 L 983 546 L 982 546 L 978 542 L 977 542 L 974 539 L 974 538 L 973 537 L 973 523 L 972 522 L 972 519 L 973 518 L 973 517 L 974 516 L 974 515 L 975 514 L 975 512 L 976 511 L 976 510 L 977 509 L 977 508 L 979 506 L 979 505 L 981 503 L 981 495 L 982 494 L 982 493 L 984 491 L 985 491 L 986 490 L 987 490 L 988 489 "></path>
        <path fill="none" stroke="#00fafa" stroke-width="3" d="M 950 336 L 951 336 L 952 337 L 953 337 L 954 338 L 954 339 L 956 341 L 956 342 L 961 347 L 962 347 L 963 348 L 966 348 L 967 349 L 984 349 L 985 348 L 986 348 L 990 344 L 990 343 L 991 342 L 991 341 L 992 340 L 992 339 L 993 338 L 993 337 L 994 336 L 996 336 L 997 337 L 997 338 L 998 339 L 998 341 L 997 342 L 997 346 L 996 347 L 996 348 L 990 354 L 989 354 L 988 355 L 987 355 L 986 356 L 982 356 L 981 357 L 980 356 L 972 356 L 971 355 L 968 355 L 967 356 L 957 356 L 951 350 L 951 349 L 950 348 L 950 347 L 949 346 L 949 344 L 948 343 L 948 338 L 950 336 L 951 336 "></path>
        <path fill="none" stroke="#00fafa" stroke-width="3" d="M 738 762 L 739 761 L 744 761 L 745 762 L 747 762 L 748 763 L 750 763 L 752 765 L 753 765 L 755 767 L 756 767 L 759 770 L 759 771 L 762 774 L 762 775 L 767 780 L 767 781 L 768 782 L 768 786 L 767 787 L 767 788 L 766 789 L 766 791 L 765 792 L 765 795 L 764 796 L 764 799 L 763 800 L 763 804 L 760 807 L 753 807 L 751 805 L 751 804 L 752 803 L 752 802 L 757 797 L 757 796 L 758 795 L 758 794 L 759 793 L 759 792 L 760 791 L 760 783 L 759 782 L 759 781 L 757 779 L 757 778 L 750 771 L 748 771 L 747 770 L 743 770 L 742 769 L 739 769 L 738 768 L 736 768 L 734 766 L 734 764 L 736 762 L 738 762 L 739 761 "></path>
        <path fill="none" stroke="#00fafa" stroke-width="3" d="M 922 620 L 923 619 L 930 619 L 931 620 L 932 620 L 935 623 L 935 625 L 934 626 L 930 626 L 929 627 L 926 627 L 925 628 L 924 628 L 923 629 L 922 629 L 916 635 L 916 636 L 914 638 L 914 646 L 915 647 L 915 649 L 916 650 L 916 651 L 919 654 L 920 654 L 924 658 L 925 658 L 926 659 L 927 659 L 928 660 L 931 660 L 932 661 L 933 661 L 934 662 L 933 663 L 927 663 L 926 662 L 920 662 L 919 661 L 918 661 L 916 659 L 916 658 L 915 657 L 915 656 L 914 655 L 914 654 L 913 654 L 908 649 L 908 641 L 909 640 L 909 635 L 910 634 L 910 632 L 913 629 L 913 628 L 921 620 L 922 620 L 923 619 "></path>
        <path fill="none" stroke="#00fafa" stroke-width="3" d="M 724 9 L 725 8 L 737 8 L 738 9 L 770 9 L 771 10 L 772 10 L 774 12 L 774 16 L 771 19 L 770 18 L 768 18 L 767 17 L 766 17 L 765 16 L 762 16 L 761 15 L 751 15 L 750 16 L 729 16 L 728 15 L 725 15 L 724 14 L 722 14 L 721 13 L 719 13 L 718 12 L 716 12 L 715 11 L 716 10 L 717 10 L 718 9 L 724 9 L 725 8 "></path>
        <path fill="none" stroke="#00fafa" stroke-width="3" d="M 927 285 L 933 285 L 935 287 L 935 290 L 934 291 L 934 292 L 932 294 L 931 294 L 929 296 L 928 296 L 926 298 L 925 298 L 921 302 L 921 303 L 920 304 L 920 305 L 919 306 L 919 308 L 918 309 L 918 310 L 912 316 L 911 316 L 907 320 L 907 321 L 905 323 L 905 324 L 902 327 L 898 327 L 895 324 L 895 319 L 899 315 L 900 315 L 901 314 L 903 314 L 904 313 L 906 313 L 907 312 L 908 312 L 909 311 L 910 311 L 914 307 L 914 306 L 916 304 L 916 303 L 917 302 L 917 300 L 918 299 L 918 298 L 919 297 L 919 296 L 920 295 L 920 294 L 921 293 L 921 292 L 922 291 L 922 290 L 927 285 L 933 285 "></path>
        <path fill="none" stroke="#00fafa" stroke-width="3" d="M 878 257 L 879 256 L 884 256 L 889 261 L 889 262 L 894 267 L 896 267 L 897 268 L 901 268 L 902 267 L 904 267 L 906 265 L 907 265 L 909 263 L 910 263 L 911 262 L 913 262 L 914 263 L 915 263 L 916 264 L 916 265 L 917 266 L 917 270 L 914 273 L 908 273 L 907 272 L 901 272 L 900 273 L 894 273 L 890 269 L 889 269 L 888 268 L 887 268 L 886 267 L 881 267 L 880 268 L 877 268 L 876 267 L 875 267 L 873 265 L 873 261 L 877 257 L 878 257 L 879 256 "></path>
        <path fill="none" stroke="#00fafa" stroke-width="3" d="M 725 774 L 726 773 L 729 773 L 730 774 L 730 779 L 729 780 L 729 781 L 728 782 L 728 783 L 727 784 L 727 794 L 728 795 L 728 796 L 729 797 L 729 798 L 732 801 L 733 801 L 736 804 L 736 805 L 735 806 L 734 806 L 733 807 L 726 807 L 725 806 L 724 806 L 723 805 L 723 799 L 722 798 L 722 796 L 720 794 L 720 793 L 719 792 L 719 789 L 718 788 L 718 781 L 719 780 L 719 778 L 722 775 L 723 775 L 724 774 L 725 774 L 726 773 "></path>
        <path fill="none" stroke="#00fafa" stroke-width="3" d="M 963 702 L 964 701 L 976 701 L 977 702 L 982 702 L 983 703 L 986 703 L 987 704 L 988 704 L 990 706 L 990 707 L 988 709 L 987 708 L 979 708 L 978 709 L 974 709 L 973 710 L 957 710 L 956 711 L 955 711 L 954 712 L 949 712 L 948 711 L 948 708 L 951 705 L 952 705 L 953 704 L 954 704 L 955 703 L 956 703 L 957 702 L 963 702 L 964 701 "></path>
        <path fill="none" stroke="#00fafa" stroke-width="3" d="M 868 284 L 872 284 L 873 285 L 874 285 L 875 286 L 876 286 L 877 287 L 884 287 L 887 290 L 887 292 L 886 293 L 886 296 L 885 297 L 885 300 L 883 302 L 883 303 L 881 305 L 878 305 L 875 302 L 875 301 L 874 300 L 874 299 L 869 294 L 868 294 L 866 292 L 866 291 L 865 290 L 865 287 L 868 284 L 872 284 "></path>
        <path fill="none" stroke="#00fafa" stroke-width="3" d="M 895 792 L 896 791 L 897 791 L 898 792 L 898 799 L 899 800 L 899 804 L 897 806 L 889 806 L 888 807 L 865 807 L 864 806 L 862 806 L 861 805 L 861 803 L 864 800 L 880 800 L 881 801 L 886 801 L 887 800 L 890 800 L 894 796 L 894 795 L 895 794 L 895 792 L 896 791 "></path>
        <path fill="none" stroke="#00fafa" stroke-width="3" d="M 1043 445 L 1044 445 L 1046 447 L 1046 460 L 1047 461 L 1047 462 L 1046 463 L 1046 472 L 1044 474 L 1043 474 L 1042 475 L 1041 475 L 1040 474 L 1035 474 L 1034 475 L 1033 475 L 1032 476 L 1031 476 L 1030 477 L 1029 477 L 1028 478 L 1026 478 L 1025 479 L 1023 479 L 1022 478 L 1021 478 L 1019 476 L 1019 474 L 1021 472 L 1023 472 L 1024 471 L 1032 471 L 1033 472 L 1035 472 L 1036 471 L 1037 471 L 1040 468 L 1040 467 L 1041 466 L 1041 462 L 1042 461 L 1042 455 L 1041 454 L 1041 453 L 1040 452 L 1040 449 L 1041 448 L 1041 447 L 1043 445 L 1044 445 "></path>
        <path fill="none" stroke="#00fafa" stroke-width="3" d="M 464 443 L 467 443 L 468 444 L 471 444 L 472 445 L 478 445 L 479 446 L 480 446 L 481 447 L 481 451 L 480 452 L 480 453 L 476 457 L 472 457 L 471 458 L 469 458 L 468 459 L 465 459 L 464 458 L 463 458 L 460 455 L 460 448 L 461 447 L 461 446 L 464 443 L 467 443 "></path>
        <path fill="none" stroke="#00fafa" stroke-width="3" d="M 923 515 L 933 515 L 934 516 L 936 516 L 937 517 L 940 517 L 941 518 L 947 518 L 949 520 L 949 523 L 946 526 L 944 526 L 943 527 L 942 527 L 941 526 L 932 526 L 931 525 L 929 525 L 928 524 L 926 524 L 924 522 L 923 522 L 922 521 L 922 520 L 921 519 L 921 517 L 923 515 L 933 515 "></path>
        <path fill="none" stroke="#00fafa" stroke-width="3" d="M 935 304 L 937 304 L 938 305 L 938 308 L 937 309 L 937 310 L 935 312 L 935 313 L 933 315 L 933 316 L 932 317 L 932 319 L 931 320 L 931 321 L 929 323 L 929 324 L 928 325 L 928 326 L 926 328 L 926 329 L 925 330 L 924 330 L 922 332 L 920 332 L 919 333 L 917 333 L 916 332 L 915 332 L 913 330 L 914 329 L 914 328 L 920 322 L 921 322 L 925 318 L 925 317 L 927 315 L 927 314 L 928 313 L 928 312 L 929 311 L 929 310 L 935 304 L 937 304 "></path>
        <path fill="none" stroke="#00fafa" stroke-width="3" d="M 496 345 L 497 344 L 509 344 L 512 347 L 512 353 L 511 354 L 511 355 L 509 357 L 507 357 L 506 358 L 505 357 L 500 357 L 499 356 L 496 356 L 495 355 L 494 355 L 492 353 L 492 349 L 493 348 L 493 347 L 495 345 L 496 345 L 497 344 "></path>
        <path fill="none" stroke="#00fafa" stroke-width="3" d="M 916 719 L 917 718 L 924 718 L 925 719 L 927 719 L 933 725 L 933 727 L 934 728 L 933 729 L 933 730 L 932 731 L 929 731 L 928 730 L 927 730 L 924 727 L 922 727 L 921 726 L 919 726 L 918 727 L 916 727 L 915 728 L 914 728 L 913 729 L 911 729 L 908 726 L 908 724 L 909 723 L 909 722 L 911 720 L 912 720 L 913 719 L 916 719 L 917 718 "></path>
        <path fill="none" stroke="#00fafa" stroke-width="3" d="M 985 174 L 988 174 L 989 175 L 989 176 L 990 177 L 990 183 L 991 184 L 991 186 L 992 187 L 992 189 L 993 190 L 993 192 L 994 193 L 994 198 L 991 201 L 989 201 L 986 198 L 986 197 L 985 196 L 985 195 L 984 194 L 984 189 L 983 188 L 983 183 L 982 182 L 982 178 L 983 177 L 983 176 L 985 174 L 988 174 "></path>
        <path fill="none" stroke="#00fafa" stroke-width="3" d="M 1010 508 L 1011 508 L 1014 511 L 1014 513 L 1015 514 L 1015 517 L 1016 518 L 1016 529 L 1015 530 L 1015 532 L 1014 533 L 1014 534 L 1010 538 L 1009 538 L 1006 535 L 1006 531 L 1007 530 L 1007 529 L 1008 528 L 1008 526 L 1009 525 L 1009 515 L 1008 514 L 1008 510 L 1010 508 L 1011 508 "></path>
        <path fill="none" stroke="#00fafa" stroke-width="3" d="M 918 56 L 919 55 L 920 55 L 922 57 L 922 63 L 921 64 L 921 66 L 920 67 L 920 71 L 921 72 L 921 74 L 922 75 L 922 82 L 921 83 L 919 83 L 918 82 L 917 82 L 916 81 L 915 81 L 911 77 L 911 72 L 912 71 L 912 69 L 915 66 L 915 65 L 917 63 L 917 59 L 918 58 L 918 56 L 919 55 "></path>
        <path fill="none" stroke="#00fafa" stroke-width="3" d="M 870 730 L 871 729 L 873 729 L 874 730 L 887 730 L 890 733 L 890 736 L 888 738 L 887 738 L 886 739 L 884 739 L 883 738 L 872 738 L 871 737 L 868 737 L 867 736 L 866 736 L 864 734 L 864 733 L 867 730 L 870 730 L 871 729 "></path>
        <path fill="none" stroke="#00fafa" stroke-width="3" d="M 564 441 L 576 441 L 577 442 L 578 442 L 579 443 L 579 444 L 580 445 L 580 446 L 581 447 L 580 448 L 580 450 L 576 454 L 574 454 L 573 453 L 572 453 L 570 451 L 568 451 L 567 450 L 565 450 L 564 449 L 563 449 L 562 448 L 562 447 L 561 446 L 561 444 L 564 441 L 576 441 "></path>
        <path fill="none" stroke="#00fafa" stroke-width="3" d="M 904 284 L 905 283 L 909 283 L 911 285 L 911 289 L 908 292 L 908 293 L 907 294 L 907 295 L 906 296 L 906 298 L 904 300 L 904 301 L 903 302 L 902 302 L 901 303 L 898 303 L 896 301 L 896 298 L 897 297 L 897 295 L 898 294 L 898 293 L 899 292 L 899 291 L 900 290 L 900 288 L 902 286 L 902 285 L 903 284 L 904 284 L 905 283 "></path>
        <path fill="none" stroke="#00fafa" stroke-width="3" d="M 955 640 L 956 639 L 957 639 L 961 643 L 961 647 L 962 648 L 962 655 L 961 656 L 961 657 L 960 658 L 960 659 L 958 661 L 957 661 L 956 662 L 954 662 L 953 663 L 950 663 L 949 662 L 945 662 L 944 661 L 944 660 L 946 658 L 947 658 L 948 657 L 949 657 L 950 656 L 951 656 L 952 655 L 953 655 L 956 652 L 956 651 L 957 650 L 957 646 L 956 645 L 956 643 L 955 642 L 955 640 L 956 639 "></path>
        <path fill="none" stroke="#00fafa" stroke-width="3" d="M 965 307 L 972 307 L 973 308 L 974 308 L 976 310 L 977 310 L 980 313 L 980 314 L 981 315 L 981 316 L 979 318 L 977 318 L 976 317 L 962 317 L 961 316 L 961 315 L 960 314 L 961 313 L 961 311 L 965 307 L 972 307 "></path>
        <path fill="none" stroke="#00fafa" stroke-width="3" d="M 970 800 L 971 799 L 973 799 L 974 800 L 977 800 L 980 803 L 980 804 L 978 806 L 977 806 L 976 807 L 973 807 L 972 806 L 952 806 L 950 804 L 952 802 L 953 802 L 954 801 L 960 801 L 961 800 L 970 800 L 971 799 "></path>
        <path fill="none" stroke="#00fafa" stroke-width="3" d="M 967 722 L 968 721 L 982 721 L 983 722 L 985 722 L 986 723 L 991 723 L 992 724 L 994 724 L 995 725 L 995 726 L 993 728 L 980 728 L 979 727 L 977 727 L 976 726 L 973 726 L 972 727 L 966 727 L 965 726 L 965 723 L 966 722 L 967 722 L 968 721 "></path>
        <path fill="none" stroke="#00fafa" stroke-width="3" d="M 1042 205 L 1044 205 L 1045 206 L 1045 207 L 1046 208 L 1046 213 L 1047 214 L 1047 220 L 1046 221 L 1046 231 L 1045 232 L 1043 232 L 1041 230 L 1041 221 L 1040 220 L 1040 217 L 1039 216 L 1039 209 L 1040 208 L 1040 207 L 1042 205 L 1044 205 "></path>
        <path fill="none" stroke="#00fafa" stroke-width="3" d="M 1002 274 L 1005 274 L 1008 277 L 1008 278 L 1007 279 L 1007 280 L 1004 283 L 1003 283 L 1002 284 L 1002 285 L 1001 286 L 1001 288 L 1000 289 L 1000 297 L 999 298 L 997 298 L 995 296 L 995 295 L 994 294 L 994 289 L 995 288 L 995 285 L 996 284 L 996 282 L 997 281 L 997 280 L 999 278 L 999 277 L 1002 274 L 1005 274 "></path>
        <path fill="none" stroke="#00fafa" stroke-width="3" d="M 858 748 L 862 748 L 864 750 L 864 754 L 863 755 L 863 757 L 862 758 L 862 764 L 863 765 L 863 766 L 865 768 L 865 770 L 864 771 L 860 771 L 859 770 L 859 769 L 858 768 L 858 763 L 857 762 L 857 761 L 856 760 L 856 758 L 855 757 L 855 752 L 856 751 L 856 750 L 858 748 L 862 748 "></path>
        <path fill="none" stroke="#00fafa" stroke-width="3" d="M 1023 334 L 1025 336 L 1025 341 L 1026 342 L 1026 344 L 1033 351 L 1033 352 L 1031 354 L 1030 354 L 1029 355 L 1028 354 L 1024 354 L 1023 353 L 1022 353 L 1020 351 L 1020 337 L 1023 334 L 1025 336 "></path>
        <path fill="none" stroke="#00fafa" stroke-width="3" d="M 787 9 L 799 9 L 800 10 L 801 10 L 803 12 L 803 13 L 799 17 L 798 17 L 797 18 L 794 18 L 793 19 L 789 19 L 788 18 L 787 18 L 785 16 L 785 11 L 787 9 L 799 9 "></path>
        <path fill="none" stroke="#00fafa" stroke-width="3" d="M 518 440 L 519 441 L 520 441 L 521 442 L 521 445 L 517 449 L 516 449 L 515 450 L 509 450 L 508 451 L 502 451 L 501 450 L 500 450 L 498 448 L 498 446 L 499 445 L 501 445 L 502 444 L 513 444 L 514 443 L 515 443 L 518 440 L 519 441 "></path>
        <path fill="none" stroke="#00fafa" stroke-width="3" d="M 929 639 L 930 638 L 932 638 L 933 639 L 934 639 L 935 640 L 936 640 L 937 641 L 938 641 L 939 642 L 940 642 L 943 645 L 943 647 L 940 650 L 938 650 L 937 651 L 936 651 L 935 650 L 933 650 L 932 649 L 931 649 L 926 644 L 926 641 L 928 639 L 929 639 L 930 638 "></path>
        <path fill="none" stroke="#00fafa" stroke-width="3" d="M 1039 485 L 1044 485 L 1046 487 L 1046 488 L 1047 489 L 1047 494 L 1046 495 L 1046 496 L 1044 498 L 1039 498 L 1038 497 L 1037 497 L 1034 494 L 1034 491 L 1035 490 L 1035 489 L 1039 485 L 1044 485 "></path>
        <path fill="none" stroke="#00fafa" stroke-width="3" d="M 464 378 L 465 377 L 466 377 L 467 378 L 469 378 L 470 379 L 471 379 L 472 380 L 473 380 L 477 384 L 477 387 L 475 389 L 468 389 L 467 388 L 466 388 L 461 383 L 461 380 L 463 378 L 464 378 L 465 377 "></path>
        <path fill="none" stroke="#00fafa" stroke-width="3" d="M 220 784 L 221 783 L 227 783 L 230 786 L 230 787 L 228 789 L 216 789 L 215 790 L 213 790 L 212 789 L 209 789 L 208 788 L 207 788 L 206 787 L 203 787 L 202 786 L 200 786 L 199 785 L 200 784 L 205 784 L 206 785 L 214 785 L 215 784 L 220 784 L 221 783 "></path>
        <path fill="none" stroke="#00fafa" stroke-width="3" d="M 1040 705 L 1041 704 L 1042 704 L 1043 705 L 1044 705 L 1045 706 L 1045 710 L 1046 711 L 1046 714 L 1043 717 L 1039 717 L 1038 716 L 1035 716 L 1033 714 L 1033 711 L 1034 710 L 1034 709 L 1038 705 L 1040 705 L 1041 704 "></path>
        <path fill="none" stroke="#00fafa" stroke-width="3" d="M 964 328 L 965 327 L 967 327 L 968 328 L 977 328 L 978 329 L 980 329 L 981 330 L 981 331 L 982 332 L 979 335 L 965 335 L 962 332 L 962 329 L 963 328 L 964 328 L 965 327 "></path>
        <path fill="none" stroke="#00fafa" stroke-width="3" d="M 886 10 L 887 9 L 904 9 L 905 10 L 906 10 L 907 11 L 907 12 L 906 13 L 905 13 L 904 14 L 902 14 L 901 15 L 899 15 L 898 16 L 892 16 L 891 15 L 890 15 L 889 14 L 887 14 L 886 13 L 884 13 L 883 12 L 883 11 L 884 10 L 886 10 L 887 9 "></path>
        <path fill="none" stroke="#00fafa" stroke-width="3" d="M 206 329 L 207 328 L 210 328 L 215 333 L 215 336 L 211 340 L 206 340 L 205 339 L 204 339 L 203 338 L 203 337 L 202 336 L 202 332 L 205 329 L 206 329 L 207 328 "></path>
        <path fill="none" stroke="#00fafa" stroke-width="3" d="M 871 784 L 872 783 L 880 783 L 881 784 L 882 784 L 885 787 L 885 789 L 883 791 L 873 791 L 872 790 L 871 790 L 869 788 L 869 785 L 870 784 L 871 784 L 872 783 "></path>
        <path fill="none" stroke="#00fafa" stroke-width="3" d="M 1044 578 L 1046 580 L 1046 593 L 1047 594 L 1047 595 L 1046 596 L 1046 597 L 1045 598 L 1042 598 L 1040 596 L 1040 583 L 1041 582 L 1041 581 L 1044 578 L 1046 580 "></path>
        <path fill="none" stroke="#00fafa" stroke-width="3" d="M 964 743 L 965 742 L 971 742 L 975 746 L 975 750 L 973 752 L 971 752 L 970 751 L 966 751 L 965 750 L 964 750 L 961 747 L 961 745 L 963 743 L 964 743 L 965 742 "></path>
        <path fill="none" stroke="#00fafa" stroke-width="3" d="M 993 514 L 994 514 L 996 516 L 996 517 L 997 518 L 997 519 L 998 520 L 998 523 L 999 524 L 998 525 L 998 527 L 996 529 L 993 529 L 989 525 L 989 520 L 990 519 L 990 517 L 993 514 L 994 514 "></path>
        <path fill="none" stroke="#00fafa" stroke-width="3" d="M 967 764 L 968 763 L 975 763 L 976 764 L 977 764 L 981 768 L 981 770 L 979 772 L 977 772 L 976 773 L 973 773 L 972 772 L 971 772 L 969 770 L 969 769 L 968 768 L 968 767 L 967 766 L 967 764 L 968 763 "></path>
        <path fill="none" stroke="#00fafa" stroke-width="3" d="M 1043 91 L 1045 91 L 1046 92 L 1046 101 L 1045 102 L 1045 105 L 1044 106 L 1045 107 L 1045 109 L 1046 110 L 1046 111 L 1043 114 L 1042 114 L 1041 113 L 1040 113 L 1039 112 L 1039 111 L 1040 110 L 1040 109 L 1042 107 L 1042 103 L 1041 102 L 1041 93 L 1043 91 L 1045 91 "></path>
        <path fill="none" stroke="#00fafa" stroke-width="3" d="M 987 91 L 988 90 L 1000 90 L 1001 91 L 1001 94 L 1000 95 L 1000 96 L 996 100 L 994 100 L 988 94 L 988 93 L 987 92 L 987 91 L 988 90 "></path>
        <path fill="none" stroke="#00fafa" stroke-width="3" d="M 1037 125 L 1038 124 L 1044 124 L 1046 126 L 1046 132 L 1044 134 L 1038 134 L 1035 131 L 1035 126 L 1036 125 L 1037 125 L 1038 124 "></path>
        <path fill="none" stroke="#00fafa" stroke-width="3" d="M 742 781 L 743 780 L 744 781 L 745 781 L 746 782 L 746 783 L 747 784 L 747 785 L 748 786 L 748 790 L 747 791 L 747 792 L 745 794 L 742 794 L 739 791 L 739 784 L 740 783 L 740 782 L 741 781 L 742 781 L 743 780 "></path>
        <path fill="none" stroke="#00fafa" stroke-width="3" d="M 1044 508 L 1046 510 L 1046 519 L 1047 520 L 1047 524 L 1046 525 L 1046 529 L 1044 531 L 1043 530 L 1043 529 L 1042 528 L 1042 526 L 1041 525 L 1041 519 L 1042 518 L 1042 510 L 1044 508 L 1046 510 "></path>
        <path fill="none" stroke="#00fafa" stroke-width="3" d="M 530 439 L 531 438 L 534 438 L 537 441 L 537 442 L 538 443 L 538 445 L 537 446 L 537 447 L 535 449 L 531 449 L 527 445 L 527 441 L 529 439 L 530 439 L 531 438 "></path>
        <path fill="none" stroke="#00fafa" stroke-width="3" d="M 548 438 L 549 438 L 550 439 L 551 439 L 554 442 L 554 447 L 553 448 L 553 449 L 551 451 L 550 451 L 549 452 L 548 452 L 546 450 L 546 440 L 548 438 L 549 438 "></path>
        <path fill="none" stroke="#00fafa" stroke-width="3" d="M 996 71 L 997 70 L 1000 70 L 1002 72 L 1002 76 L 1001 77 L 1001 78 L 1000 79 L 999 79 L 998 80 L 996 80 L 995 81 L 994 81 L 993 80 L 992 80 L 991 79 L 991 76 L 992 75 L 992 74 L 995 71 L 996 71 L 997 70 "></path>
        <path fill="none" stroke="#00fafa" stroke-width="3" d="M 1004 638 L 1008 638 L 1010 640 L 1010 641 L 1011 642 L 1011 649 L 1009 651 L 1008 651 L 1004 647 L 1004 646 L 1002 644 L 1002 640 L 1004 638 L 1008 638 "></path>
        <path fill="none" stroke="#00fafa" stroke-width="3" d="M 927 85 L 928 84 L 937 84 L 938 85 L 939 85 L 941 87 L 941 88 L 940 89 L 939 89 L 938 90 L 934 90 L 933 91 L 932 91 L 931 90 L 927 90 L 924 87 L 924 86 L 925 85 L 927 85 L 928 84 "></path>
        <path fill="none" stroke="#00fafa" stroke-width="3" d="M 1039 334 L 1040 333 L 1042 333 L 1043 334 L 1044 334 L 1045 335 L 1045 336 L 1046 337 L 1046 342 L 1043 345 L 1042 344 L 1040 344 L 1038 342 L 1038 341 L 1037 340 L 1037 339 L 1036 338 L 1036 337 L 1037 336 L 1037 335 L 1038 334 L 1039 334 L 1040 333 "></path>
        <path fill="none" stroke="#00fafa" stroke-width="3" d="M 982 650 L 983 651 L 984 651 L 989 656 L 989 657 L 986 660 L 984 660 L 983 661 L 982 661 L 981 662 L 980 662 L 979 663 L 978 662 L 978 659 L 979 658 L 979 653 L 982 650 L 983 651 "></path>
        <path fill="none" stroke="#00fafa" stroke-width="3" d="M 1042 682 L 1043 681 L 1046 684 L 1046 692 L 1044 694 L 1042 694 L 1041 693 L 1040 693 L 1038 691 L 1038 685 L 1041 682 L 1042 682 L 1043 681 "></path>
        <path fill="none" stroke="#00fafa" stroke-width="3" d="M 1021 174 L 1028 174 L 1031 177 L 1031 179 L 1029 181 L 1028 181 L 1027 182 L 1023 182 L 1022 181 L 1021 181 L 1018 178 L 1018 177 L 1021 174 L 1028 174 "></path>
        <path fill="none" stroke="#00fafa" stroke-width="3" d="M 1015 491 L 1020 491 L 1023 494 L 1023 495 L 1024 496 L 1023 497 L 1023 498 L 1022 499 L 1021 499 L 1020 500 L 1017 500 L 1016 499 L 1015 499 L 1012 496 L 1012 494 L 1015 491 L 1020 491 "></path>
        <path fill="none" stroke="#00fafa" stroke-width="3" d="M 988 740 L 989 739 L 990 739 L 991 740 L 992 740 L 993 741 L 993 742 L 995 744 L 995 747 L 992 750 L 989 750 L 986 747 L 986 746 L 985 745 L 985 743 L 986 742 L 986 741 L 987 740 L 988 740 L 989 739 "></path>
        <path fill="none" stroke="#00fafa" stroke-width="3" d="M 997 209 L 1007 209 L 1008 210 L 1011 210 L 1013 212 L 1011 214 L 1006 214 L 1005 215 L 1004 215 L 1003 214 L 999 214 L 998 213 L 997 213 L 995 211 L 997 209 L 1007 209 "></path>
        <path fill="none" stroke="#00fafa" stroke-width="3" d="M 909 784 L 915 784 L 916 785 L 917 785 L 919 787 L 919 789 L 917 791 L 909 791 L 907 789 L 907 786 L 909 784 L 915 784 "></path>
        <path fill="none" stroke="#00fafa" stroke-width="3" d="M 956 30 L 960 30 L 962 32 L 962 35 L 961 36 L 961 37 L 958 40 L 955 40 L 954 39 L 954 38 L 953 37 L 953 33 L 956 30 L 960 30 "></path>
        <path fill="none" stroke="#00fafa" stroke-width="3" d="M 964 500 L 968 500 L 969 501 L 969 504 L 968 505 L 968 506 L 964 510 L 961 510 L 959 508 L 959 505 L 964 500 L 968 500 "></path>
        <path fill="none" stroke="#00fafa" stroke-width="3" d="M 210 629 L 211 628 L 212 629 L 213 629 L 216 632 L 216 635 L 214 637 L 213 637 L 212 638 L 210 638 L 209 637 L 208 637 L 206 635 L 206 632 L 209 629 L 210 629 L 211 628 "></path>
        <path fill="none" stroke="#00fafa" stroke-width="3" d="M 1006 192 L 1012 192 L 1015 195 L 1015 197 L 1013 199 L 1012 199 L 1011 200 L 1008 200 L 1007 199 L 1006 199 L 1004 197 L 1004 194 L 1006 192 L 1012 192 "></path>
        <path fill="none" stroke="#00fafa" stroke-width="3" d="M 1044 358 L 1046 360 L 1046 362 L 1047 363 L 1047 366 L 1046 367 L 1046 370 L 1045 371 L 1045 376 L 1044 377 L 1043 376 L 1043 372 L 1042 371 L 1042 369 L 1041 368 L 1041 362 L 1042 361 L 1042 360 L 1044 358 L 1046 360 "></path>
        <path fill="none" stroke="#00fafa" stroke-width="3" d="M 264 728 L 268 728 L 271 731 L 271 733 L 270 734 L 270 735 L 269 736 L 268 736 L 267 737 L 265 737 L 264 736 L 263 736 L 261 734 L 261 731 L 264 728 L 268 728 "></path>
        <path fill="none" stroke="#00fafa" stroke-width="3" d="M 101 676 L 104 676 L 107 679 L 107 682 L 106 683 L 106 684 L 105 685 L 104 685 L 103 686 L 102 686 L 101 685 L 100 685 L 98 683 L 98 679 L 101 676 L 104 676 "></path>
        <path fill="none" stroke="#00fafa" stroke-width="3" d="M 1005 705 L 1006 704 L 1010 704 L 1011 705 L 1013 705 L 1015 707 L 1015 709 L 1013 711 L 1006 711 L 1003 708 L 1003 706 L 1004 705 L 1005 705 L 1006 704 "></path>
        <path fill="none" stroke="#00fafa" stroke-width="3" d="M 978 61 L 979 60 L 983 60 L 984 61 L 985 61 L 987 63 L 987 64 L 983 68 L 980 68 L 979 67 L 978 67 L 975 64 L 975 63 L 977 61 L 978 61 L 979 60 "></path>
        <path fill="none" stroke="#00fafa" stroke-width="3" d="M 1009 724 L 1010 723 L 1013 723 L 1014 724 L 1015 724 L 1016 725 L 1017 725 L 1018 726 L 1018 729 L 1016 731 L 1011 731 L 1007 727 L 1007 725 L 1008 724 L 1009 724 L 1010 723 "></path>
        <path fill="none" stroke="#00fafa" stroke-width="3" d="M 170 769 L 171 768 L 172 769 L 173 769 L 174 770 L 174 774 L 173 775 L 173 776 L 171 778 L 167 778 L 165 776 L 165 774 L 166 773 L 166 772 L 167 771 L 167 770 L 168 769 L 170 769 L 171 768 "></path>
        <path fill="none" stroke="#00fafa" stroke-width="3" d="M 175 750 L 179 750 L 180 751 L 181 751 L 182 752 L 182 753 L 183 754 L 182 755 L 182 756 L 181 757 L 180 757 L 179 758 L 176 758 L 175 757 L 174 757 L 172 755 L 172 753 L 175 750 L 179 750 "></path>
        <path fill="none" stroke="#00fafa" stroke-width="3" d="M 934 65 L 935 64 L 937 64 L 940 67 L 940 71 L 938 73 L 933 73 L 932 72 L 932 71 L 931 70 L 931 69 L 932 68 L 932 66 L 933 65 L 934 65 L 935 64 "></path>
        <path fill="none" stroke="#00fafa" stroke-width="3" d="M 1042 144 L 1045 144 L 1046 145 L 1046 147 L 1047 148 L 1047 152 L 1044 155 L 1043 155 L 1040 152 L 1040 150 L 1039 149 L 1039 148 L 1040 147 L 1040 146 L 1042 144 L 1045 144 "></path>
        <path fill="none" stroke="#00fafa" stroke-width="3" d="M 1041 798 L 1045 798 L 1046 799 L 1046 800 L 1047 801 L 1047 802 L 1046 803 L 1046 804 L 1044 806 L 1040 806 L 1039 805 L 1038 805 L 1036 803 L 1036 802 L 1038 800 L 1039 800 L 1041 798 L 1045 798 "></path>
        <path fill="none" stroke="#00fafa" stroke-width="3" d="M 1043 24 L 1045 24 L 1046 25 L 1046 26 L 1047 27 L 1047 33 L 1044 36 L 1043 36 L 1041 34 L 1041 33 L 1040 32 L 1040 31 L 1041 30 L 1041 26 L 1043 24 L 1045 24 "></path>
        <path fill="none" stroke="#00fafa" stroke-width="3" d="M 1007 323 L 1009 323 L 1011 325 L 1011 327 L 1012 328 L 1012 329 L 1011 330 L 1011 332 L 1010 333 L 1010 334 L 1009 335 L 1008 335 L 1006 333 L 1006 332 L 1005 331 L 1005 325 L 1007 323 L 1009 323 "></path>
        <path fill="none" stroke="#00fafa" stroke-width="3" d="M 122 678 L 126 678 L 128 680 L 128 683 L 127 684 L 127 685 L 126 686 L 124 686 L 123 687 L 122 686 L 121 686 L 119 684 L 119 682 L 120 681 L 120 680 L 122 678 L 126 678 "></path>
        <path fill="none" stroke="#00fafa" stroke-width="3" d="M 991 31 L 992 30 L 994 30 L 995 31 L 996 31 L 997 32 L 997 34 L 996 35 L 996 36 L 994 38 L 993 38 L 992 39 L 991 39 L 990 38 L 989 38 L 988 37 L 988 33 L 990 31 L 991 31 L 992 30 "></path>
        <path fill="none" stroke="#00fafa" stroke-width="3" d="M 1010 799 L 1013 799 L 1014 800 L 1015 800 L 1016 801 L 1017 801 L 1018 802 L 1019 802 L 1020 803 L 1019 804 L 1018 804 L 1017 805 L 1015 805 L 1014 806 L 1010 806 L 1007 803 L 1007 802 L 1010 799 L 1013 799 "></path>
        <path fill="none" stroke="#00fafa" stroke-width="3" d="M 1043 172 L 1044 171 L 1047 174 L 1047 179 L 1044 182 L 1043 182 L 1040 179 L 1040 174 L 1042 172 L 1043 172 L 1044 171 "></path>
        <path fill="none" stroke="#00fafa" stroke-width="3" d="M 954 784 L 955 783 L 957 783 L 958 784 L 959 784 L 960 785 L 960 789 L 958 791 L 953 791 L 952 790 L 952 789 L 951 788 L 951 787 L 952 786 L 952 785 L 953 784 L 954 784 L 955 783 "></path>
        <path fill="none" stroke="#00fafa" stroke-width="3" d="M 1027 194 L 1028 193 L 1029 193 L 1030 194 L 1031 194 L 1033 196 L 1033 198 L 1029 202 L 1027 202 L 1024 199 L 1024 196 L 1026 194 L 1027 194 L 1028 193 "></path>
        <path fill="none" stroke="#00fafa" stroke-width="3" d="M 959 98 L 962 98 L 963 99 L 964 99 L 966 101 L 966 102 L 965 103 L 964 103 L 962 105 L 961 105 L 960 106 L 958 106 L 955 103 L 956 102 L 956 101 L 959 98 L 962 98 "></path>
        <path fill="none" stroke="#00fafa" stroke-width="3" d="M 919 743 L 920 742 L 923 742 L 924 743 L 924 744 L 925 745 L 925 746 L 926 747 L 926 749 L 924 751 L 920 751 L 918 749 L 918 746 L 919 745 L 919 743 L 920 742 "></path>
        <path fill="none" stroke="#00fafa" stroke-width="3" d="M 1003 174 L 1004 173 L 1005 174 L 1007 174 L 1009 176 L 1009 179 L 1007 181 L 1006 181 L 1005 182 L 1004 181 L 1003 181 L 1000 178 L 1000 176 L 1002 174 L 1003 174 L 1004 173 "></path>
        <path fill="none" stroke="#00fafa" stroke-width="3" d="M 11 798 L 13 798 L 14 799 L 15 799 L 18 802 L 18 804 L 17 805 L 15 805 L 14 806 L 12 806 L 11 805 L 10 805 L 9 804 L 9 800 L 11 798 L 13 798 "></path>
        <path fill="none" stroke="#00fafa" stroke-width="3" d="M 931 800 L 936 800 L 938 802 L 938 805 L 937 806 L 936 806 L 935 807 L 932 807 L 931 806 L 930 806 L 929 805 L 929 802 L 931 800 L 936 800 "></path>
        <path fill="none" stroke="#00fafa" stroke-width="3" d="M 213 746 L 218 746 L 220 748 L 220 750 L 218 752 L 217 752 L 216 753 L 214 753 L 213 752 L 212 752 L 210 750 L 210 749 L 213 746 L 218 746 "></path>
        <path fill="none" stroke="#00fafa" stroke-width="3" d="M 1027 153 L 1028 153 L 1029 154 L 1030 154 L 1031 155 L 1031 156 L 1032 157 L 1032 160 L 1031 161 L 1030 161 L 1029 162 L 1028 162 L 1027 161 L 1026 161 L 1024 159 L 1024 156 L 1027 153 L 1028 153 "></path>
        <path fill="none" stroke="#00fafa" stroke-width="3" d="M 996 310 L 997 310 L 998 311 L 999 311 L 1001 313 L 1001 317 L 999 319 L 996 319 L 994 317 L 994 315 L 993 314 L 994 313 L 994 312 L 996 310 L 997 310 "></path>
        <path fill="none" stroke="#00fafa" stroke-width="3" d="M 1043 608 L 1045 608 L 1046 609 L 1046 615 L 1044 617 L 1042 617 L 1039 614 L 1039 613 L 1040 612 L 1040 611 L 1043 608 L 1045 608 "></path>
        <path fill="none" stroke="#00fafa" stroke-width="3" d="M 81 677 L 83 677 L 85 679 L 85 683 L 84 684 L 84 685 L 83 686 L 80 686 L 79 685 L 79 679 L 81 677 L 83 677 "></path>
        <path fill="none" stroke="#00fafa" stroke-width="3" d="M 993 797 L 994 797 L 995 798 L 996 798 L 997 799 L 997 804 L 996 805 L 992 805 L 990 803 L 990 800 L 993 797 L 994 797 "></path>
        <path fill="none" stroke="#00fafa" stroke-width="3" d="M 955 762 L 960 762 L 962 764 L 957 769 L 955 769 L 953 767 L 953 764 L 955 762 L 960 762 "></path>
        <path fill="none" stroke="#00fafa" stroke-width="3" d="M 877 749 L 882 749 L 884 751 L 884 752 L 881 755 L 877 755 L 875 753 L 875 751 L 877 749 L 882 749 "></path>
        <path fill="none" stroke="#00fafa" stroke-width="3" d="M 1027 507 L 1030 507 L 1032 509 L 1032 512 L 1029 515 L 1028 515 L 1025 512 L 1025 509 L 1027 507 L 1030 507 "></path>
        <path fill="none" stroke="#00fafa" stroke-width="3" d="M 1040 54 L 1041 53 L 1043 53 L 1046 56 L 1046 57 L 1043 60 L 1041 60 L 1040 59 L 1039 59 L 1037 57 L 1037 56 L 1039 54 L 1040 54 L 1041 53 "></path>
        <path fill="none" stroke="#00fafa" stroke-width="3" d="M 1024 637 L 1026 637 L 1029 640 L 1029 643 L 1028 644 L 1025 644 L 1024 643 L 1023 643 L 1022 642 L 1022 639 L 1024 637 L 1026 637 "></path>
        <path fill="none" stroke="#00fafa" stroke-width="3" d="M 939 747 L 942 747 L 943 748 L 944 748 L 945 749 L 945 751 L 944 752 L 943 752 L 942 753 L 939 753 L 936 750 L 939 747 L 942 747 "></path>
        <path fill="none" stroke="#00fafa" stroke-width="3" d="M 211 767 L 212 766 L 213 766 L 214 767 L 215 767 L 216 768 L 216 770 L 213 773 L 211 773 L 208 770 L 209 769 L 209 768 L 210 767 L 211 767 L 212 766 "></path>
        <path fill="none" stroke="#00fafa" stroke-width="3" d="M 1014 261 L 1019 261 L 1021 263 L 1021 264 L 1019 266 L 1014 266 L 1012 264 L 1012 263 L 1014 261 L 1019 261 "></path>
        <path fill="none" stroke="#00fafa" stroke-width="3" d="M 956 64 L 959 64 L 961 66 L 961 67 L 958 70 L 954 70 L 953 69 L 953 67 L 956 64 L 959 64 "></path>
        <path fill="none" stroke="#00fafa" stroke-width="3" d="M 946 315 L 948 315 L 950 317 L 949 318 L 949 320 L 947 322 L 944 322 L 943 321 L 943 318 L 946 315 L 948 315 "></path>
        <path fill="none" stroke="#00fafa" stroke-width="3" d="M 933 783 L 937 783 L 938 784 L 938 787 L 936 789 L 933 789 L 931 787 L 931 785 L 933 783 L 937 783 "></path>
        <path fill="none" stroke="#00fafa" stroke-width="3" d="M 1010 30 L 1013 30 L 1014 31 L 1015 31 L 1017 33 L 1017 34 L 1016 35 L 1010 35 L 1008 33 L 1008 32 L 1010 30 L 1013 30 "></path>
        <path fill="none" stroke="#00fafa" stroke-width="3" d="M 1004 763 L 1005 762 L 1011 762 L 1012 763 L 1013 763 L 1015 765 L 1014 766 L 1007 766 L 1004 763 L 1005 762 "></path>
        <path fill="none" stroke="#00fafa" stroke-width="3" d="M 971 76 L 972 75 L 973 75 L 976 78 L 976 79 L 973 82 L 972 82 L 969 79 L 969 77 L 970 76 L 971 76 L 972 75 "></path>
        <path fill="none" stroke="#00fafa" stroke-width="3" d="M 1006 741 L 1007 741 L 1008 742 L 1009 742 L 1011 744 L 1011 745 L 1010 746 L 1009 746 L 1008 747 L 1006 747 L 1003 744 L 1006 741 L 1007 741 "></path>
        <path fill="none" stroke="#00fafa" stroke-width="3" d="M 9 217 L 10 216 L 13 216 L 15 218 L 15 220 L 13 222 L 11 222 L 9 220 L 9 217 L 10 216 "></path>
        <path fill="none" stroke="#00fafa" stroke-width="3" d="M 973 784 L 974 783 L 977 783 L 978 784 L 978 786 L 976 788 L 975 788 L 973 786 L 973 784 L 974 783 "></path>
        <path fill="none" stroke="#00fafa" stroke-width="3" d="M 193 11 L 194 10 L 197 10 L 198 11 L 198 13 L 197 14 L 196 14 L 195 15 L 193 13 L 193 11 L 194 10 "></path>
        <path fill="none" stroke="#00fafa" stroke-width="3" d="M 996 781 L 997 780 L 998 781 L 999 781 L 1000 782 L 998 784 L 994 784 L 993 783 L 993 782 L 994 781 L 996 781 L 997 780 "></path>
        <path fill="none" stroke="#00fafa" stroke-width="3" d="M 1027 310 L 1028 310 L 1030 312 L 1030 313 L 1028 315 L 1027 315 L 1025 313 L 1025 312 L 1027 310 L 1028 310 "></path>
        <path fill="none" stroke="#00fafa" stroke-width="3" d="M 1016 289 L 1018 291 L 1018 292 L 1015 295 L 1013 293 L 1013 292 L 1016 289 L 1018 291 "></path>
        <path fill="none" stroke="#00fafa" stroke-width="3" d="M 975 100 L 976 99 L 977 100 L 978 100 L 979 101 L 979 102 L 978 103 L 975 103 L 973 101 L 974 100 L 975 100 L 976 99 "></path>
        <path fill="none" stroke="#00fafa" stroke-width="3" d="M 897 253 L 898 252 L 901 252 L 902 253 L 902 255 L 901 256 L 900 256 L 899 255 L 898 255 L 897 254 L 897 253 L 898 252 "></path>
        <path fill="none" stroke="#00fafa" stroke-width="3" d="M 1042 778 L 1043 777 L 1044 777 L 1046 779 L 1046 780 L 1044 782 L 1043 782 L 1042 781 L 1042 778 L 1043 777 "></path>
        <path fill="none" stroke="#00fafa" stroke-width="3" d="M 1043 630 L 1044 630 L 1045 631 L 1045 634 L 1044 635 L 1043 635 L 1041 633 L 1041 632 L 1043 630 L 1044 630 "></path>
        <path fill="none" stroke="#00fafa" stroke-width="3" d="M 912 804 L 913 803 L 916 803 L 917 804 L 917 805 L 916 806 L 913 806 L 912 805 L 912 804 L 913 803 "></path>
        <path fill="none" stroke="#00fafa" stroke-width="3" d="M 1011 147 L 1012 146 L 1013 146 L 1014 147 L 1014 150 L 1013 151 L 1012 151 L 1011 150 L 1011 147 L 1012 146 "></path>
        <path fill="none" stroke="#00fafa" stroke-width="3" d="M 27 242 L 28 241 L 31 241 L 32 242 L 30 244 L 28 244 L 27 243 L 27 242 L 28 241 "></path>
        <path fill="none" stroke="#00fafa" stroke-width="3" d="M 1007 120 L 1009 120 L 1010 121 L 1008 123 L 1006 123 L 1005 122 L 1007 120 L 1009 120 "></path>
        <path fill="none" stroke="#00fafa" stroke-width="3" d="M 1042 261 L 1043 260 L 1044 260 L 1045 261 L 1045 263 L 1044 264 L 1043 264 L 1042 263 L 1042 261 L 1043 260 "></path>
        <path fill="none" stroke="#00fafa" stroke-width="3" d="M 951 11 L 952 10 L 953 10 L 954 11 L 954 12 L 952 14 L 951 13 L 951 11 L 952 10 "></path>
        <path fill="none" stroke="#00fafa" stroke-width="3" d="M 1043 649 L 1044 648 L 1045 649 L 1045 652 L 1044 653 L 1043 652 L 1043 649 L 1044 648 "></path>
        <path fill="none" stroke="#00fafa" stroke-width="3" d="M 29 803 L 30 802 L 32 802 L 33 803 L 31 805 L 29 803 L 30 802 "></path>
        <path fill="none" stroke="#00fafa" stroke-width="3" d="M 1043 312 L 1044 311 L 1045 312 L 1045 314 L 1044 315 L 1043 314 L 1043 312 L 1044 311 "></path>
        <path fill="none" stroke="#00fafa" stroke-width="3" d="M 1011 682 L 1012 683 L 1012 684 L 1011 685 L 1010 685 L 1009 684 L 1011 682 L 1012 683 "></path>
        <path fill="none" stroke="#00fafa" stroke-width="3" d="M 1013 780 L 1014 779 L 1016 781 L 1015 782 L 1014 782 L 1013 781 L 1013 780 L 1014 779 "></path>
        <path fill="none" stroke="#00fafa" stroke-width="3" d="M 1042 78 L 1043 77 L 1044 77 L 1045 78 L 1044 79 L 1043 79 L 1042 78 L 1043 77 "></path>
    </g>
</svg>
