<svg xmlns="http://www.w3.org/2000/svg" xmlns:xlink="http://www.w3.org/1999/xlink" version="1.1" x="0" y="0" width="1056px" height="816px">
    <g id="rootLayer" transform="translate(0.000000, 0.000000)">
        <path fill="none" stroke="#00fafa" stroke-width="3" d="M 462 427 L 463 428 L 466 428 L 467 429 L 468 428 L 477 428 L 478 429 L 480 429 L 481 430 L 482 430 L 483 431 L 484 431 L 485 432 L 486 432 L 492 438 L 492 440 L 493 441 L 493 443 L 492 444 L 492 445 L 489 448 L 486 448 L 485 449 L 481 449 L 480 450 L 478 450 L 477 451 L 476 451 L 475 452 L 474 452 L 473 453 L 472 453 L 471 454 L 470 454 L 468 456 L 467 456 L 461 462 L 459 462 L 458 461 L 457 461 L 456 460 L 456 459 L 455 458 L 455 456 L 454 455 L 454 452 L 453 451 L 453 449 L 452 448 L 452 447 L 451 446 L 451 444 L 450 443 L 450 440 L 449 439 L 449 437 L 452 434 L 456 434 L 457 433 L 458 433 L 459 432 L 459 431 L 460 430 L 460 429 "></path>
        <path fill="none" stroke="#00fafa" stroke-width="3" d="M 259 284 L 260 283 L 267 283 L 268 284 L 269 284 L 273 288 L 273 289 L 274 290 L 274 292 L 275 293 L 275 304 L 274 305 L 274 306 L 273 307 L 273 308 L 269 312 L 268 312 L 267 313 L 265 313 L 264 314 L 257 314 L 256 313 L 254 313 L 253 312 L 252 312 L 251 311 L 250 311 L 249 310 L 247 310 L 245 308 L 244 308 L 240 304 L 240 303 L 239 302 L 239 296 L 240 295 L 240 294 L 241 293 L 241 292 L 244 289 L 245 289 L 246 288 L 247 288 L 248 287 L 250 287 L 251 286 L 254 286 L 255 285 L 256 285 L 257 284 "></path>
        <path fill="none" stroke="#00fafa" stroke-width="3" d="M 157 725 L 158 724 L 164 724 L 165 725 L 167 725 L 168 726 L 169 726 L 174 731 L 174 732 L 175 733 L 175 734 L 176 735 L 176 740 L 177 741 L 177 743 L 176 744 L 176 749 L 175 750 L 175 751 L 174 752 L 174 753 L 169 758 L 168 758 L 167 759 L 165 759 L 164 760 L 160 760 L 159 759 L 157 759 L 156 758 L 155 758 L 153 756 L 152 756 L 151 755 L 151 754 L 149 752 L 149 751 L 148 750 L 148 749 L 147 748 L 147 745 L 146 744 L 146 738 L 147 737 L 147 734 L 148 733 L 148 732 L 150 730 L 150 729 L 151 728 L 152 728 L 154 726 L 155 726 L 156 725 "></path>
        <path fill="none" stroke="#00fafa" stroke-width="3" d="M 243 582 L 244 581 L 251 581 L 252 582 L 253 582 L 256 585 L 256 586 L 257 587 L 257 596 L 258 597 L 258 608 L 257 609 L 257 611 L 256 612 L 256 613 L 252 617 L 251 617 L 250 618 L 243 618 L 242 617 L 241 617 L 237 613 L 237 612 L 236 611 L 236 610 L 235 609 L 235 608 L 234 607 L 234 605 L 233 604 L 233 603 L 232 602 L 232 600 L 231 599 L 231 596 L 230 595 L 230 594 L 231 593 L 231 590 L 233 588 L 233 587 L 235 585 L 236 585 L 238 583 L 240 583 L 241 582 "></path>
        <path fill="none" stroke="#00fafa" stroke-width="3" d="M 918 120 L 919 119 L 922 119 L 923 120 L 925 120 L 926 121 L 927 121 L 929 123 L 930 123 L 933 126 L 934 126 L 940 132 L 940 133 L 941 134 L 941 141 L 940 142 L 940 143 L 939 144 L 939 145 L 938 146 L 938 147 L 936 149 L 935 149 L 934 150 L 933 150 L 932 151 L 930 151 L 929 152 L 920 152 L 919 151 L 918 151 L 917 150 L 916 150 L 912 146 L 912 145 L 911 144 L 911 141 L 910 140 L 910 131 L 911 130 L 911 127 L 912 126 L 912 125 L 913 124 L 913 123 L 915 121 L 916 121 L 917 120 "></path>
        <path fill="none" stroke="#00fafa" stroke-width="3" d="M 175 250 L 176 249 L 187 249 L 188 250 L 189 250 L 191 252 L 191 253 L 192 254 L 192 255 L 193 256 L 193 258 L 194 259 L 194 262 L 195 263 L 195 264 L 196 265 L 196 267 L 197 268 L 197 269 L 198 270 L 198 271 L 199 272 L 199 277 L 196 280 L 193 280 L 192 281 L 191 280 L 186 280 L 185 279 L 182 279 L 181 278 L 179 278 L 178 277 L 177 277 L 175 275 L 174 275 L 166 267 L 166 266 L 165 265 L 165 258 L 166 257 L 166 256 L 171 251 L 172 251 L 173 250 "></path>
        <path fill="none" stroke="#00fafa" stroke-width="3" d="M 396 429 L 397 428 L 406 428 L 407 429 L 409 429 L 410 430 L 412 430 L 413 431 L 414 431 L 415 432 L 416 432 L 417 433 L 418 433 L 422 437 L 422 439 L 419 442 L 418 442 L 417 443 L 416 443 L 415 444 L 413 444 L 412 445 L 410 445 L 409 446 L 407 446 L 406 447 L 405 447 L 399 453 L 399 454 L 396 457 L 396 458 L 395 459 L 394 459 L 391 462 L 387 462 L 384 459 L 384 457 L 383 456 L 383 442 L 384 441 L 384 439 L 385 438 L 385 437 L 392 430 L 393 430 L 394 429 "></path>
        <path fill="none" stroke="#00fafa" stroke-width="3" d="M 352 505 L 353 505 L 354 506 L 355 506 L 357 508 L 357 509 L 358 510 L 358 512 L 359 513 L 359 515 L 360 516 L 360 520 L 361 521 L 361 525 L 360 526 L 360 529 L 359 530 L 359 532 L 353 538 L 352 538 L 351 539 L 349 539 L 348 540 L 334 540 L 333 539 L 331 539 L 330 538 L 329 538 L 328 537 L 327 537 L 324 534 L 324 533 L 323 532 L 323 531 L 327 527 L 328 527 L 329 526 L 331 526 L 332 525 L 334 525 L 335 524 L 336 524 L 337 523 L 338 523 L 340 521 L 341 521 L 342 520 L 342 519 L 344 517 L 344 516 L 345 515 L 345 514 L 346 513 L 346 512 L 347 511 L 347 510 "></path>
        <path fill="none" stroke="#00fafa" stroke-width="3" d="M 228 522 L 235 522 L 236 523 L 238 523 L 239 524 L 240 524 L 247 531 L 248 531 L 250 533 L 251 533 L 252 534 L 254 534 L 255 535 L 256 535 L 260 539 L 260 542 L 259 543 L 259 544 L 254 549 L 253 549 L 251 551 L 249 551 L 248 552 L 246 552 L 245 553 L 238 553 L 237 552 L 235 552 L 234 551 L 233 551 L 228 546 L 228 544 L 227 543 L 227 541 L 226 540 L 226 534 L 225 533 L 225 526 L 226 525 L 226 524 "></path>
        <path fill="none" stroke="#00fafa" stroke-width="3" d="M 133 661 L 134 660 L 138 660 L 139 661 L 140 661 L 143 664 L 143 666 L 144 667 L 144 673 L 145 674 L 145 679 L 146 680 L 146 682 L 147 683 L 147 684 L 148 685 L 148 687 L 149 688 L 149 692 L 145 696 L 144 696 L 143 697 L 135 697 L 134 696 L 132 696 L 131 695 L 130 695 L 125 690 L 125 689 L 124 688 L 124 687 L 123 686 L 123 682 L 122 681 L 122 678 L 123 677 L 123 673 L 124 672 L 124 670 L 125 669 L 125 668 L 127 666 L 127 665 L 128 664 L 129 664 L 132 661 "></path>
        <path fill="none" stroke="#00fafa" stroke-width="3" d="M 649 252 L 650 251 L 659 251 L 660 252 L 663 252 L 664 253 L 667 253 L 668 254 L 671 254 L 672 255 L 674 255 L 675 256 L 676 256 L 680 260 L 680 261 L 681 262 L 681 271 L 680 272 L 680 274 L 679 275 L 679 276 L 677 278 L 673 278 L 672 277 L 671 277 L 668 274 L 667 274 L 664 271 L 663 271 L 662 270 L 650 270 L 649 271 L 646 271 L 645 270 L 644 270 L 642 268 L 642 262 L 643 261 L 643 259 L 644 258 L 644 257 L 645 256 L 645 255 L 648 252 "></path>
        <path fill="none" stroke="#00fafa" stroke-width="3" d="M 986 755 L 987 754 L 993 754 L 994 755 L 995 755 L 999 759 L 999 761 L 1000 762 L 1000 766 L 999 767 L 999 770 L 993 776 L 992 776 L 991 777 L 989 777 L 988 778 L 985 778 L 984 779 L 973 779 L 972 778 L 971 778 L 970 777 L 969 777 L 966 774 L 966 773 L 965 772 L 965 771 L 964 770 L 964 765 L 965 764 L 965 763 L 966 762 L 966 761 L 967 760 L 968 760 L 969 759 L 970 759 L 971 758 L 974 758 L 975 757 L 978 757 L 979 756 L 982 756 L 983 755 "></path>
        <path fill="none" stroke="#00fafa" stroke-width="3" d="M 376 361 L 377 360 L 380 360 L 381 361 L 382 361 L 383 362 L 384 362 L 385 363 L 396 363 L 397 362 L 400 362 L 401 361 L 402 361 L 403 360 L 405 360 L 406 361 L 406 366 L 404 368 L 404 369 L 403 370 L 403 371 L 402 372 L 402 373 L 401 374 L 401 375 L 400 376 L 400 378 L 399 379 L 399 380 L 394 385 L 393 385 L 392 386 L 390 386 L 389 387 L 383 387 L 382 386 L 380 386 L 374 380 L 374 379 L 373 378 L 373 376 L 372 375 L 372 366 L 373 365 L 373 364 L 374 363 L 374 362 L 375 361 "></path>
        <path fill="none" stroke="#00fafa" stroke-width="3" d="M 38 410 L 39 409 L 47 409 L 51 413 L 51 414 L 52 415 L 52 418 L 53 419 L 53 429 L 54 430 L 54 432 L 55 433 L 55 440 L 54 441 L 54 442 L 53 443 L 53 444 L 50 447 L 49 447 L 48 448 L 47 448 L 46 449 L 41 449 L 40 448 L 38 448 L 36 446 L 36 445 L 35 444 L 35 441 L 36 440 L 36 438 L 37 437 L 37 436 L 38 435 L 38 433 L 39 432 L 39 428 L 38 427 L 38 426 L 37 425 L 37 424 L 35 422 L 35 421 L 34 420 L 34 419 L 33 418 L 33 414 L 37 410 "></path>
        <path fill="none" stroke="#00fafa" stroke-width="3" d="M 609 620 L 614 620 L 618 624 L 618 625 L 619 626 L 619 627 L 620 628 L 620 629 L 622 631 L 622 632 L 623 633 L 624 633 L 625 634 L 626 634 L 627 635 L 629 635 L 630 636 L 634 636 L 635 637 L 637 637 L 638 638 L 639 638 L 642 641 L 642 642 L 641 643 L 641 644 L 639 646 L 638 646 L 637 647 L 636 647 L 635 648 L 634 648 L 633 649 L 632 649 L 631 650 L 628 650 L 627 651 L 621 651 L 620 650 L 618 650 L 617 649 L 616 649 L 615 648 L 614 648 L 609 643 L 609 642 L 608 641 L 608 640 L 607 639 L 607 638 L 606 637 L 606 634 L 605 633 L 605 625 L 606 624 L 606 623 "></path>
        <path fill="none" stroke="#00fafa" stroke-width="3" d="M 686 351 L 689 351 L 690 352 L 691 352 L 692 353 L 692 354 L 693 355 L 693 356 L 694 357 L 694 360 L 695 361 L 695 363 L 696 364 L 696 366 L 697 367 L 697 368 L 698 369 L 698 371 L 699 372 L 699 373 L 700 374 L 700 375 L 701 376 L 701 377 L 703 379 L 703 380 L 705 382 L 705 383 L 709 387 L 709 388 L 713 392 L 713 393 L 714 394 L 714 395 L 715 396 L 715 403 L 713 405 L 713 406 L 711 408 L 710 408 L 709 409 L 706 409 L 703 406 L 703 404 L 702 403 L 702 401 L 701 400 L 701 395 L 700 394 L 700 391 L 699 390 L 699 389 L 698 388 L 698 387 L 697 386 L 697 385 L 696 384 L 696 383 L 695 382 L 695 381 L 694 380 L 694 379 L 693 378 L 693 377 L 692 376 L 692 375 L 691 374 L 691 373 L 690 372 L 690 371 L 689 370 L 689 369 L 680 360 L 680 357 "></path>
        <path fill="none" stroke="#00fafa" stroke-width="3" d="M 188 609 L 189 608 L 195 608 L 196 609 L 199 609 L 200 610 L 201 610 L 203 612 L 204 612 L 209 617 L 209 618 L 211 620 L 211 626 L 208 629 L 207 629 L 206 630 L 189 630 L 188 629 L 184 629 L 183 628 L 182 628 L 181 627 L 179 627 L 175 623 L 175 618 L 178 615 L 178 614 L 179 613 L 180 613 L 182 611 L 183 611 L 184 610 L 185 610 L 186 609 "></path>
        <path fill="none" stroke="#00fafa" stroke-width="3" d="M 438 376 L 443 376 L 444 377 L 445 377 L 450 382 L 450 390 L 449 391 L 449 392 L 450 393 L 450 396 L 451 397 L 451 398 L 453 400 L 453 401 L 454 402 L 454 404 L 455 405 L 454 406 L 454 408 L 452 410 L 442 410 L 441 409 L 439 409 L 437 407 L 436 407 L 433 404 L 433 403 L 431 401 L 431 399 L 430 398 L 430 390 L 431 389 L 431 386 L 432 385 L 432 384 L 433 383 L 433 382 L 434 381 L 434 380 "></path>
        <path fill="none" stroke="#00fafa" stroke-width="3" d="M 250 109 L 251 108 L 252 109 L 255 109 L 256 110 L 258 110 L 259 111 L 263 111 L 264 112 L 267 112 L 272 117 L 272 120 L 273 121 L 273 125 L 272 126 L 272 127 L 270 129 L 268 129 L 267 130 L 266 130 L 265 129 L 254 129 L 253 130 L 251 130 L 250 131 L 243 131 L 240 128 L 240 120 L 241 119 L 241 117 L 242 116 L 242 115 L 244 113 L 244 112 L 246 110 L 247 110 L 248 109 "></path>
        <path fill="none" stroke="#00fafa" stroke-width="3" d="M 640 294 L 644 294 L 645 295 L 646 295 L 648 297 L 649 297 L 651 299 L 652 299 L 653 300 L 654 300 L 655 301 L 668 301 L 671 304 L 671 309 L 670 310 L 670 315 L 669 316 L 669 318 L 667 320 L 666 320 L 665 321 L 663 321 L 662 320 L 660 320 L 659 319 L 658 319 L 657 318 L 654 318 L 653 317 L 645 317 L 642 314 L 642 312 L 641 311 L 641 307 L 640 306 L 640 304 L 639 303 L 639 302 L 638 301 L 638 296 "></path>
        <path fill="none" stroke="#00fafa" stroke-width="3" d="M 806 657 L 811 657 L 816 662 L 816 663 L 818 665 L 818 666 L 819 667 L 819 668 L 820 669 L 820 679 L 819 680 L 819 681 L 818 682 L 818 683 L 811 690 L 810 690 L 809 691 L 805 691 L 800 686 L 800 684 L 799 683 L 799 674 L 800 673 L 800 671 L 801 670 L 801 668 L 802 667 L 802 664 L 803 663 L 803 661 L 804 660 L 804 659 "></path>
        <path fill="none" stroke="#00fafa" stroke-width="3" d="M 570 26 L 571 25 L 586 25 L 587 26 L 588 26 L 592 30 L 592 32 L 593 33 L 593 34 L 594 35 L 594 38 L 595 39 L 595 43 L 592 46 L 589 46 L 588 45 L 586 45 L 585 44 L 582 44 L 581 43 L 573 43 L 572 44 L 571 44 L 570 43 L 567 43 L 563 39 L 563 31 L 565 29 L 565 28 L 566 27 L 567 27 L 568 26 "></path>
        <path fill="none" stroke="#00fafa" stroke-width="3" d="M 593 433 L 594 432 L 597 432 L 598 433 L 600 433 L 602 435 L 602 436 L 603 437 L 603 441 L 602 442 L 602 443 L 593 452 L 593 453 L 592 454 L 592 455 L 591 456 L 591 457 L 590 458 L 590 459 L 589 460 L 589 461 L 588 462 L 588 463 L 583 468 L 581 468 L 579 466 L 579 462 L 578 461 L 578 450 L 579 449 L 579 447 L 580 446 L 580 443 L 581 442 L 581 440 L 582 439 L 582 438 L 586 434 L 588 434 L 589 433 "></path>
        <path fill="none" stroke="#00fafa" stroke-width="3" d="M 328 482 L 329 481 L 333 481 L 334 482 L 335 482 L 337 484 L 337 485 L 338 486 L 338 487 L 337 488 L 337 489 L 335 491 L 334 491 L 333 492 L 332 492 L 331 493 L 329 493 L 328 494 L 327 494 L 326 495 L 325 495 L 324 496 L 323 496 L 319 500 L 319 501 L 317 503 L 317 504 L 315 506 L 315 507 L 314 508 L 314 509 L 313 510 L 313 511 L 311 513 L 310 513 L 308 511 L 308 507 L 307 506 L 307 497 L 306 496 L 306 495 L 307 494 L 307 490 L 308 489 L 308 488 L 309 487 L 309 486 L 312 483 L 323 483 L 324 482 "></path>
        <path fill="none" stroke="#00fafa" stroke-width="3" d="M 610 312 L 611 311 L 614 311 L 618 315 L 618 321 L 616 323 L 615 323 L 614 324 L 612 324 L 611 325 L 607 325 L 606 326 L 604 326 L 603 327 L 602 327 L 601 328 L 600 328 L 599 329 L 598 329 L 597 330 L 595 330 L 594 331 L 593 331 L 592 330 L 590 330 L 589 329 L 588 329 L 581 322 L 581 319 L 584 316 L 585 316 L 586 315 L 587 315 L 588 314 L 590 314 L 591 313 L 605 313 L 606 312 "></path>
        <path fill="none" stroke="#00fafa" stroke-width="3" d="M 664 204 L 665 203 L 669 203 L 670 204 L 673 204 L 678 209 L 678 210 L 679 211 L 679 213 L 680 214 L 680 220 L 677 223 L 676 223 L 675 224 L 672 224 L 671 223 L 667 223 L 666 222 L 664 222 L 663 221 L 661 221 L 660 220 L 659 220 L 658 219 L 657 219 L 653 215 L 652 215 L 648 211 L 648 210 L 647 209 L 647 206 L 649 204 L 650 204 L 651 205 L 659 205 L 660 204 "></path>
        <path fill="none" stroke="#00fafa" stroke-width="3" d="M 826 552 L 827 551 L 829 551 L 830 552 L 831 552 L 833 554 L 833 556 L 834 557 L 834 560 L 835 561 L 835 562 L 836 563 L 836 564 L 837 565 L 837 566 L 839 568 L 839 572 L 838 573 L 831 573 L 830 572 L 822 572 L 821 573 L 818 573 L 817 574 L 813 574 L 811 572 L 811 570 L 810 569 L 810 568 L 811 567 L 811 561 L 812 560 L 812 559 L 813 558 L 813 557 L 814 556 L 815 556 L 816 555 L 817 555 L 818 554 L 820 554 L 821 553 L 823 553 L 824 552 "></path>
        <path fill="none" stroke="#00fafa" stroke-width="3" d="M 892 661 L 893 660 L 895 660 L 896 661 L 898 661 L 899 662 L 900 662 L 901 663 L 902 663 L 903 664 L 904 664 L 905 665 L 906 665 L 907 666 L 908 666 L 909 667 L 910 667 L 913 670 L 913 673 L 911 675 L 910 675 L 909 676 L 908 676 L 907 677 L 906 677 L 905 678 L 904 678 L 902 680 L 901 680 L 897 684 L 897 685 L 894 688 L 893 688 L 892 689 L 891 689 L 890 688 L 889 688 L 888 687 L 888 686 L 887 685 L 887 681 L 886 680 L 886 674 L 887 673 L 887 667 L 888 666 L 888 665 L 889 664 L 889 663 L 891 661 "></path>
        <path fill="none" stroke="#00fafa" stroke-width="3" d="M 820 360 L 824 360 L 826 362 L 826 364 L 827 365 L 827 373 L 826 374 L 826 376 L 825 377 L 825 378 L 824 379 L 824 380 L 823 381 L 823 382 L 818 387 L 812 387 L 811 386 L 810 386 L 808 384 L 807 384 L 802 379 L 802 378 L 801 377 L 801 376 L 802 375 L 802 374 L 804 372 L 805 372 L 806 371 L 807 371 L 808 370 L 810 370 L 812 368 L 813 368 L 816 365 L 816 364 "></path>
        <path fill="none" stroke="#00fafa" stroke-width="3" d="M 978 590 L 979 589 L 985 589 L 986 590 L 987 590 L 988 591 L 988 592 L 989 593 L 989 594 L 990 595 L 990 601 L 989 602 L 989 604 L 985 608 L 984 608 L 983 609 L 982 609 L 981 610 L 976 610 L 975 609 L 972 609 L 971 608 L 970 608 L 969 607 L 968 607 L 967 606 L 966 606 L 965 605 L 964 605 L 962 603 L 962 598 L 964 596 L 965 596 L 966 595 L 967 595 L 968 594 L 969 594 L 970 593 L 971 593 L 972 592 L 973 592 L 974 591 L 975 591 L 976 590 "></path>
        <path fill="none" stroke="#00fafa" stroke-width="3" d="M 263 62 L 266 62 L 267 63 L 268 63 L 270 65 L 271 65 L 273 67 L 274 67 L 280 73 L 280 80 L 279 81 L 279 85 L 278 86 L 278 87 L 276 89 L 272 89 L 271 88 L 269 88 L 268 87 L 265 87 L 264 86 L 262 86 L 260 84 L 260 83 L 259 82 L 259 79 L 260 78 L 260 66 L 261 65 L 261 64 "></path>
        <path fill="none" stroke="#00fafa" stroke-width="3" d="M 773 390 L 774 389 L 775 389 L 776 390 L 778 390 L 780 392 L 780 396 L 779 397 L 779 398 L 776 401 L 776 402 L 775 403 L 775 404 L 774 405 L 774 406 L 773 407 L 773 408 L 770 411 L 769 411 L 768 412 L 765 412 L 764 411 L 761 411 L 760 410 L 759 411 L 757 411 L 755 413 L 755 414 L 752 417 L 751 417 L 750 416 L 749 416 L 748 415 L 747 415 L 743 411 L 743 410 L 742 409 L 742 408 L 744 406 L 747 406 L 748 405 L 753 405 L 754 404 L 757 404 L 758 403 L 759 403 L 760 402 L 761 402 L 762 401 L 763 401 L 766 398 L 766 397 L 768 395 L 768 394 L 772 390 "></path>
        <path fill="none" stroke="#00fafa" stroke-width="3" d="M 703 737 L 704 736 L 711 736 L 713 738 L 713 739 L 714 740 L 714 742 L 715 743 L 715 747 L 714 748 L 714 753 L 713 754 L 713 755 L 710 758 L 707 758 L 705 756 L 703 756 L 702 755 L 700 755 L 699 754 L 697 754 L 696 753 L 692 753 L 691 752 L 689 752 L 688 751 L 688 747 L 689 746 L 689 745 L 691 743 L 692 743 L 695 740 L 696 740 L 697 739 L 698 739 L 699 738 L 700 738 L 701 737 "></path>
        <path fill="none" stroke="#00fafa" stroke-width="3" d="M 593 166 L 594 165 L 597 165 L 601 169 L 601 170 L 602 171 L 603 171 L 611 179 L 611 180 L 612 181 L 612 183 L 611 184 L 611 185 L 608 188 L 607 188 L 606 189 L 604 189 L 603 190 L 600 190 L 599 191 L 591 191 L 590 190 L 590 185 L 591 184 L 591 182 L 592 181 L 592 179 L 593 178 L 593 172 L 592 171 L 592 169 L 593 168 "></path>
        <path fill="none" stroke="#00fafa" stroke-width="3" d="M 622 67 L 623 66 L 624 66 L 625 67 L 628 67 L 629 68 L 630 68 L 634 72 L 634 73 L 635 74 L 635 76 L 636 77 L 636 80 L 637 81 L 637 85 L 635 87 L 630 87 L 629 86 L 626 86 L 625 85 L 622 85 L 621 84 L 620 84 L 619 83 L 618 83 L 617 82 L 616 82 L 614 80 L 614 79 L 613 78 L 613 74 L 614 73 L 614 72 L 619 67 "></path>
        <path fill="none" stroke="#00fafa" stroke-width="3" d="M 441 602 L 444 602 L 446 604 L 446 610 L 447 611 L 447 613 L 448 614 L 448 615 L 449 616 L 449 617 L 451 619 L 451 620 L 453 622 L 453 624 L 451 626 L 449 626 L 448 625 L 445 625 L 444 624 L 440 624 L 439 623 L 435 623 L 434 622 L 433 622 L 428 617 L 428 612 L 430 610 L 431 610 L 433 608 L 434 608 L 437 605 L 438 605 "></path>
        <path fill="none" stroke="#00fafa" stroke-width="3" d="M 370 133 L 375 133 L 376 134 L 378 134 L 379 135 L 381 135 L 382 136 L 384 136 L 385 137 L 386 137 L 390 141 L 390 142 L 391 143 L 391 145 L 390 146 L 390 147 L 388 149 L 386 149 L 385 150 L 368 150 L 365 147 L 365 141 L 366 140 L 366 138 L 367 137 L 367 136 "></path>
        <path fill="none" stroke="#00fafa" stroke-width="3" d="M 363 681 L 372 681 L 373 682 L 376 682 L 377 683 L 380 683 L 381 684 L 383 684 L 384 685 L 385 685 L 388 688 L 388 696 L 386 698 L 378 698 L 377 697 L 373 697 L 372 696 L 370 696 L 367 693 L 366 693 L 365 692 L 365 691 L 362 688 L 362 687 L 361 686 L 361 683 "></path>
        <path fill="none" stroke="#00fafa" stroke-width="3" d="M 902 583 L 905 583 L 906 584 L 906 585 L 907 586 L 907 588 L 908 589 L 908 591 L 909 592 L 909 593 L 910 594 L 910 598 L 909 599 L 909 600 L 908 601 L 907 601 L 906 602 L 904 602 L 903 603 L 902 603 L 901 604 L 899 604 L 898 605 L 893 605 L 892 604 L 891 604 L 886 599 L 886 596 L 890 592 L 891 592 L 892 591 L 893 591 L 894 590 L 895 590 "></path>
        <path fill="none" stroke="#00fafa" stroke-width="3" d="M 108 118 L 113 118 L 115 120 L 115 123 L 114 124 L 114 125 L 113 126 L 113 128 L 112 129 L 112 130 L 111 131 L 111 133 L 110 134 L 110 137 L 109 138 L 109 139 L 103 145 L 101 145 L 100 146 L 93 146 L 91 144 L 91 142 L 92 141 L 92 140 L 99 133 L 99 132 L 100 131 L 100 130 L 101 129 L 101 128 L 102 127 L 102 126 L 103 125 L 103 124 L 104 123 L 104 122 "></path>
        <path fill="none" stroke="#00fafa" stroke-width="3" d="M 491 180 L 495 180 L 496 181 L 497 181 L 504 188 L 504 189 L 505 190 L 505 191 L 506 192 L 506 194 L 505 195 L 505 197 L 502 200 L 494 200 L 493 199 L 490 199 L 489 198 L 488 198 L 485 195 L 485 189 L 486 188 L 486 186 L 487 185 L 487 184 "></path>
        <path fill="none" stroke="#00fafa" stroke-width="3" d="M 139 124 L 144 124 L 148 128 L 148 137 L 147 138 L 147 140 L 142 145 L 135 145 L 133 143 L 133 139 L 134 138 L 134 136 L 135 135 L 135 131 L 136 130 L 136 127 "></path>
        <path fill="none" stroke="#00fafa" stroke-width="3" d="M 594 517 L 596 517 L 598 519 L 598 520 L 599 521 L 599 529 L 598 530 L 598 531 L 599 532 L 599 542 L 598 543 L 598 544 L 597 545 L 593 545 L 590 542 L 590 530 L 591 529 L 591 521 L 592 520 L 592 519 "></path>
    </g>
</svg>
