<svg xmlns="http://www.w3.org/2000/svg" xmlns:xlink="http://www.w3.org/1999/xlink" version="1.1" x="0" y="0" width="1056px" height="816px">
    <g id="rootLayer" transform="translate(0.000000, 0.000000)">
        <path fill="none" stroke="#fa00fa" stroke-width="3" d="M 985 316 L 984 317 L 984 318 L 985 319 L 986 319 L 987 318 L 988 319 L 990 319 L 991 318 L 992 319 L 1014 319 L 1015 318 L 1016 319 L 1018 319 L 1018 316 L 1016 316 L 1015 317 L 1014 316 L 1012 316 L 1011 317 L 1010 316 L 1008 316 L 1007 317 L 1006 316 L 1004 316 L 1003 317 L 1002 316 L 1000 316 L 999 317 L 998 316 L 996 316 L 995 317 L 994 316 L 992 316 L 991 317 L 990 316 L 988 316 L 987 317 L 986 316 "></path>
        <path fill="none" stroke="#fa00fa" stroke-width="3" d="M 985 812 L 984 813 L 980 813 L 980 814 L 1026 814 L 1023 814 L 1022 813 L 1018 813 L 1017 812 L 1016 812 L 1015 813 L 1014 812 L 1012 812 L 1011 813 L 1010 813 L 1009 812 L 1008 812 L 1007 813 L 1006 812 L 1004 812 L 1003 813 L 1002 812 L 1000 812 L 999 813 L 998 812 L 996 812 L 995 813 L 994 812 L 992 812 L 991 813 L 990 812 L 988 812 L 987 813 L 986 812 "></path>
        <path fill="none" stroke="#fa00fa" stroke-width="3" d="M 866 160 L 865 161 L 856 161 L 856 163 L 857 163 L 858 164 L 859 163 L 860 163 L 861 164 L 862 164 L 863 163 L 864 163 L 865 164 L 866 164 L 867 163 L 868 163 L 869 164 L 870 164 L 871 163 L 874 163 L 875 162 L 874 161 L 871 161 L 870 160 L 869 160 L 868 161 L 867 161 "></path>
        <path fill="none" stroke="#fa00fa" stroke-width="3" d="M 1004 491 L 1004 494 L 1006 494 L 1007 493 L 1008 494 L 1010 494 L 1011 493 L 1012 494 L 1014 494 L 1015 493 L 1016 493 L 1017 494 L 1018 494 L 1018 491 L 1016 491 L 1015 492 L 1014 491 L 1012 491 L 1011 492 L 1010 491 L 1008 491 L 1007 492 L 1006 491 "></path>
    </g>
</svg>
