<svg xmlns="http://www.w3.org/2000/svg" xmlns:xlink="http://www.w3.org/1999/xlink" version="1.1" x="0" y="0" width="1056px" height="816px">
    <g id="rootLayer" transform="translate(0.000000, 0.000000)">
        <path fill="none" stroke="#00fafa" stroke-width="3" d="M 522 443 L 523 442 L 524 443 L 525 443 L 527 445 L 528 445 L 529 446 L 529 448 L 528 449 L 528 451 L 527 452 L 526 452 L 524 454 L 524 455 L 523 456 L 522 455 L 522 456 L 521 457 L 520 456 L 520 453 L 517 450 L 517 448 L 516 447 L 517 446 L 518 446 L 518 444 L 519 443 "></path>
        <path fill="none" stroke="#00fafa" stroke-width="3" d="M 553 397 L 554 396 L 555 397 L 557 397 L 559 399 L 559 400 L 558 401 L 558 403 L 557 404 L 557 406 L 556 407 L 555 406 L 554 407 L 553 407 L 552 406 L 549 406 L 548 405 L 549 406 L 548 407 L 547 407 L 546 406 L 546 402 L 548 400 L 548 399 L 549 398 L 550 399 L 552 397 "></path>
        <path fill="none" stroke="#00fafa" stroke-width="3" d="M 522 470 L 523 469 L 525 469 L 526 470 L 526 471 L 527 471 L 528 472 L 528 473 L 527 474 L 528 474 L 529 475 L 528 476 L 529 477 L 529 479 L 527 481 L 525 481 L 524 480 L 523 480 L 521 478 L 521 477 L 521 478 L 520 479 L 518 477 L 519 476 L 518 475 L 517 476 L 516 475 L 516 474 L 517 473 L 517 472 L 518 471 L 519 472 L 520 471 L 521 472 L 520 471 L 521 470 "></path>
        <path fill="none" stroke="#00fafa" stroke-width="3" d="M 535 301 L 536 301 L 537 302 L 537 303 L 536 304 L 537 303 L 540 303 L 541 304 L 541 305 L 542 304 L 541 303 L 542 302 L 544 302 L 546 304 L 546 305 L 545 306 L 543 306 L 542 307 L 543 306 L 544 306 L 545 307 L 546 307 L 548 309 L 547 310 L 546 310 L 545 309 L 544 310 L 541 310 L 540 311 L 539 311 L 539 313 L 540 312 L 542 314 L 541 315 L 539 315 L 539 316 L 538 317 L 537 316 L 539 318 L 537 320 L 536 320 L 535 319 L 536 318 L 534 318 L 533 317 L 534 316 L 533 317 L 532 316 L 532 315 L 534 313 L 535 313 L 534 312 L 534 310 L 535 309 L 534 308 L 534 307 L 534 309 L 533 310 L 531 308 L 532 307 L 531 306 L 532 305 L 533 305 L 533 303 "></path>
        <path fill="none" stroke="#00fafa" stroke-width="3" d="M 544 284 L 545 283 L 546 284 L 547 283 L 548 283 L 549 284 L 549 286 L 548 287 L 547 286 L 546 287 L 545 287 L 544 288 L 544 290 L 543 291 L 542 291 L 543 292 L 542 293 L 541 293 L 542 294 L 540 296 L 539 296 L 538 297 L 537 297 L 536 298 L 536 300 L 535 301 L 534 300 L 532 300 L 531 301 L 530 301 L 529 300 L 530 299 L 529 299 L 528 298 L 529 297 L 529 296 L 530 295 L 531 296 L 531 297 L 532 298 L 532 297 L 534 295 L 535 296 L 534 295 L 533 296 L 531 294 L 533 292 L 534 292 L 531 292 L 530 291 L 531 290 L 532 290 L 533 289 L 534 290 L 535 289 L 536 289 L 537 290 L 536 289 L 536 286 L 537 285 L 538 286 L 538 287 L 539 286 L 540 286 L 541 285 L 542 285 L 543 284 L 544 285 "></path>
        <path fill="none" stroke="#00fafa" stroke-width="3" d="M 510 315 L 511 316 L 511 318 L 510 319 L 511 320 L 511 323 L 511 320 L 512 319 L 513 320 L 513 321 L 514 320 L 515 321 L 515 322 L 516 322 L 517 323 L 516 324 L 515 324 L 516 324 L 517 323 L 518 324 L 520 324 L 521 325 L 518 328 L 517 328 L 516 329 L 517 330 L 516 331 L 515 331 L 515 336 L 514 337 L 513 337 L 512 336 L 513 337 L 513 338 L 512 339 L 511 339 L 510 338 L 510 334 L 511 333 L 510 332 L 511 331 L 513 331 L 512 330 L 511 330 L 510 329 L 510 326 L 511 325 L 510 325 L 508 323 L 509 322 L 508 323 L 507 323 L 506 322 L 508 320 L 508 317 "></path>
        <path fill="none" stroke="#00fafa" stroke-width="3" d="M 541 315 L 542 314 L 544 314 L 545 315 L 544 316 L 543 316 L 543 317 L 544 318 L 545 317 L 547 319 L 546 320 L 545 320 L 546 321 L 545 322 L 544 322 L 543 321 L 542 321 L 544 323 L 545 322 L 546 322 L 547 323 L 545 325 L 544 325 L 543 326 L 543 327 L 542 328 L 541 328 L 540 329 L 539 328 L 539 327 L 540 326 L 541 326 L 540 325 L 540 324 L 541 323 L 540 323 L 539 322 L 540 321 L 538 323 L 537 323 L 536 322 L 537 321 L 537 320 L 539 318 L 540 319 L 542 319 L 540 317 L 541 316 "></path>
        <path fill="none" stroke="#00fafa" stroke-width="3" d="M 522 292 L 524 294 L 524 295 L 525 294 L 527 294 L 528 295 L 527 296 L 526 296 L 527 297 L 526 298 L 525 298 L 525 299 L 524 300 L 522 300 L 520 298 L 519 299 L 519 300 L 521 302 L 520 303 L 514 303 L 513 302 L 518 297 L 518 296 L 519 295 L 520 296 L 519 295 "></path>
        <path fill="none" stroke="#00fafa" stroke-width="3" d="M 552 295 L 554 297 L 555 297 L 555 296 L 556 295 L 557 296 L 558 296 L 559 297 L 558 298 L 559 299 L 558 300 L 561 300 L 562 301 L 561 302 L 561 304 L 560 305 L 559 304 L 558 305 L 557 304 L 555 304 L 554 303 L 555 302 L 556 302 L 552 302 L 551 301 L 552 300 L 552 298 L 552 299 L 551 300 L 550 299 L 550 297 "></path>
        <path fill="none" stroke="#00fafa" stroke-width="3" d="M 529 277 L 530 276 L 532 278 L 533 277 L 534 278 L 534 279 L 532 281 L 531 281 L 530 282 L 529 282 L 528 283 L 527 282 L 525 284 L 523 282 L 523 281 L 524 280 L 525 281 L 525 280 L 523 278 L 524 277 L 525 277 L 527 279 L 527 280 L 528 279 L 527 279 L 526 278 L 527 277 "></path>
        <path fill="none" stroke="#00fafa" stroke-width="3" d="M 508 291 L 509 290 L 510 290 L 512 292 L 512 293 L 511 294 L 512 294 L 513 295 L 514 294 L 515 295 L 515 296 L 514 297 L 512 297 L 512 300 L 510 302 L 509 301 L 509 300 L 508 299 L 509 298 L 510 298 L 508 296 L 508 294 L 509 293 L 509 292 "></path>
        <path fill="none" stroke="#00fafa" stroke-width="3" d="M 527 298 L 528 298 L 529 299 L 529 300 L 528 301 L 528 303 L 526 305 L 525 304 L 524 304 L 522 306 L 521 305 L 521 304 L 520 303 L 521 302 L 519 300 L 520 299 L 521 299 L 522 300 L 525 300 L 526 301 L 525 302 L 523 302 L 526 302 L 526 301 L 525 300 "></path>
        <path fill="none" stroke="#00fafa" stroke-width="3" d="M 534 279 L 535 278 L 536 278 L 538 280 L 539 280 L 540 281 L 538 283 L 537 283 L 537 284 L 536 285 L 534 285 L 533 284 L 534 285 L 533 286 L 532 286 L 531 285 L 531 282 L 532 281 L 533 282 L 534 282 L 535 281 L 535 280 "></path>
        <path fill="none" stroke="#00fafa" stroke-width="3" d="M 510 304 L 511 303 L 513 303 L 514 304 L 514 305 L 516 303 L 518 305 L 517 306 L 518 307 L 518 308 L 516 310 L 515 309 L 514 310 L 513 309 L 513 308 L 512 308 L 511 307 L 512 306 L 512 305 L 511 305 "></path>
        <path fill="none" stroke="#00fafa" stroke-width="3" d="M 520 314 L 521 314 L 522 315 L 521 316 L 522 316 L 523 315 L 525 317 L 524 318 L 523 318 L 524 319 L 524 320 L 523 321 L 524 322 L 523 323 L 522 323 L 521 322 L 521 321 L 520 321 L 519 320 L 520 319 L 520 318 L 518 316 "></path>
        <path fill="none" stroke="#00fafa" stroke-width="3" d="M 560 322 L 561 323 L 561 324 L 559 326 L 561 324 L 562 325 L 562 327 L 561 328 L 559 328 L 558 329 L 557 328 L 557 326 L 557 327 L 556 328 L 554 326 L 557 323 L 558 324 "></path>
        <path fill="none" stroke="#00fafa" stroke-width="3" d="M 517 293 L 518 294 L 518 297 L 514 301 L 512 299 L 512 298 L 513 297 L 514 297 L 515 296 L 515 295 "></path>
        <path fill="none" stroke="#00fafa" stroke-width="3" d="M 521 307 L 522 308 L 522 309 L 521 310 L 521 312 L 520 313 L 519 312 L 519 311 L 518 312 L 517 312 L 516 311 L 517 310 L 517 309 L 518 308 L 519 309 "></path>
        <path fill="none" stroke="#00fafa" stroke-width="3" d="M 519 271 L 520 270 L 521 271 L 522 270 L 523 270 L 524 271 L 524 272 L 523 273 L 523 274 L 521 276 L 520 275 L 520 273 L 519 272 "></path>
        <path fill="none" stroke="#00fafa" stroke-width="3" d="M 549 308 L 550 307 L 551 307 L 552 308 L 552 309 L 553 310 L 553 311 L 552 312 L 551 311 L 549 313 L 548 312 L 548 311 L 549 310 "></path>
        <path fill="none" stroke="#00fafa" stroke-width="3" d="M 534 323 L 535 322 L 536 323 L 536 324 L 537 325 L 536 326 L 537 327 L 536 328 L 533 328 L 532 327 L 533 326 L 533 325 L 534 324 "></path>
        <path fill="none" stroke="#00fafa" stroke-width="3" d="M 557 311 L 558 311 L 559 312 L 560 312 L 561 313 L 561 315 L 560 316 L 559 315 L 559 314 L 558 314 L 557 315 L 555 313 "></path>
        <path fill="none" stroke="#00fafa" stroke-width="3" d="M 554 303 L 555 304 L 557 304 L 558 305 L 557 306 L 556 306 L 556 307 L 555 308 L 554 308 L 553 307 L 553 306 L 552 305 "></path>
        <path fill="none" stroke="#00fafa" stroke-width="3" d="M 545 312 L 546 311 L 548 313 L 547 314 L 548 314 L 549 315 L 548 316 L 546 316 L 545 315 L 545 314 L 544 314 L 543 313 L 544 312 "></path>
        <path fill="none" stroke="#00fafa" stroke-width="3" d="M 550 277 L 551 276 L 552 277 L 552 278 L 551 279 L 552 280 L 551 281 L 550 281 L 549 282 L 548 281 L 548 280 L 549 279 L 548 278 L 549 277 "></path>
        <path fill="none" stroke="#00fafa" stroke-width="3" d="M 520 278 L 521 277 L 522 277 L 524 279 L 524 280 L 521 283 L 520 282 L 520 281 L 521 280 L 521 279 "></path>
        <path fill="none" stroke="#00fafa" stroke-width="3" d="M 525 312 L 526 311 L 527 312 L 527 314 L 528 315 L 526 317 L 525 317 L 524 316 L 525 315 L 524 314 L 525 313 "></path>
        <path fill="none" stroke="#00fafa" stroke-width="3" d="M 523 361 L 524 360 L 526 362 L 527 361 L 528 362 L 528 364 L 527 365 L 526 364 L 525 364 L 523 362 "></path>
        <path fill="none" stroke="#00fafa" stroke-width="3" d="M 551 314 L 552 313 L 554 315 L 553 316 L 551 316 L 549 318 L 548 317 L 548 316 L 550 314 "></path>
        <path fill="none" stroke="#00fafa" stroke-width="3" d="M 507 308 L 508 307 L 509 308 L 509 309 L 510 310 L 508 312 L 507 311 L 507 310 L 506 311 L 505 310 L 505 309 L 506 308 "></path>
        <path fill="none" stroke="#00fafa" stroke-width="3" d="M 518 330 L 519 331 L 520 331 L 522 333 L 521 334 L 520 334 L 519 333 L 517 333 L 516 332 "></path>
        <path fill="none" stroke="#00fafa" stroke-width="3" d="M 525 323 L 526 322 L 528 324 L 527 325 L 526 325 L 525 326 L 524 325 L 523 325 L 522 324 L 523 323 "></path>
        <path fill="none" stroke="#00fafa" stroke-width="3" d="M 556 307 L 557 306 L 558 306 L 560 308 L 560 310 L 559 311 L 558 311 L 557 310 L 558 309 "></path>
        <path fill="none" stroke="#00fafa" stroke-width="3" d="M 542 278 L 543 277 L 544 277 L 545 278 L 545 279 L 546 280 L 546 281 L 545 282 L 544 282 L 543 281 L 543 279 "></path>
        <path fill="none" stroke="#00fafa" stroke-width="3" d="M 506 315 L 507 316 L 507 318 L 508 319 L 507 320 L 506 320 L 504 318 L 504 317 "></path>
        <path fill="none" stroke="#00fafa" stroke-width="3" d="M 512 317 L 513 316 L 514 316 L 517 319 L 516 320 L 514 320 L 513 319 L 513 318 "></path>
        <path fill="none" stroke="#00fafa" stroke-width="3" d="M 543 299 L 544 298 L 547 298 L 548 299 L 547 300 L 547 301 L 546 302 "></path>
        <path fill="none" stroke="#00fafa" stroke-width="3" d="M 575 337 L 576 336 L 578 338 L 578 339 L 577 340 L 576 340 L 575 341 L 574 340 L 574 339 L 575 338 "></path>
        <path fill="none" stroke="#00fafa" stroke-width="3" d="M 504 302 L 505 301 L 506 301 L 507 302 L 506 303 L 506 306 L 505 307 L 504 306 "></path>
        <path fill="none" stroke="#00fafa" stroke-width="3" d="M 525 289 L 526 288 L 527 289 L 527 290 L 528 291 L 527 292 L 524 292 L 523 291 L 524 290 L 525 290 "></path>
        <path fill="none" stroke="#00fafa" stroke-width="3" d="M 538 323 L 539 322 L 540 323 L 540 324 L 539 325 L 539 326 L 538 327 L 537 326 L 537 325 L 536 324 L 537 323 "></path>
        <path fill="none" stroke="#00fafa" stroke-width="3" d="M 533 340 L 534 341 L 534 344 L 533 345 L 532 345 L 531 344 L 532 343 L 531 342 "></path>
        <path fill="none" stroke="#00fafa" stroke-width="3" d="M 521 264 L 522 263 L 523 264 L 524 263 L 525 264 L 525 265 L 524 266 L 523 266 L 522 267 L 521 266 "></path>
        <path fill="none" stroke="#00fafa" stroke-width="3" d="M 570 362 L 571 361 L 572 362 L 572 363 L 571 364 L 570 364 L 569 365 L 568 365 L 567 364 L 569 362 "></path>
        <path fill="none" stroke="#00fafa" stroke-width="3" d="M 523 471 L 524 470 L 525 471 L 525 473 L 526 473 L 527 474 L 527 476 L 528 476 L 529 477 L 527 479 L 529 477 L 531 477 L 531 476 L 532 475 L 534 477 L 533 478 L 534 477 L 535 477 L 536 478 L 536 476 L 537 475 L 538 476 L 538 477 L 540 479 L 539 480 L 538 480 L 539 480 L 540 481 L 539 482 L 539 485 L 538 486 L 537 486 L 537 487 L 538 488 L 536 490 L 534 488 L 535 487 L 534 486 L 534 485 L 535 484 L 537 484 L 537 482 L 535 480 L 535 481 L 536 481 L 537 482 L 537 483 L 536 484 L 535 484 L 534 485 L 533 484 L 533 487 L 532 488 L 531 487 L 531 485 L 530 486 L 527 483 L 526 484 L 524 484 L 524 485 L 523 486 L 522 486 L 520 484 L 520 483 L 522 481 L 521 482 L 520 481 L 520 480 L 519 479 L 520 478 L 522 478 L 523 477 L 523 475 L 520 472 L 521 471 "></path>
        <path fill="none" stroke="#00fafa" stroke-width="3" d="M 521 429 L 522 428 L 525 428 L 526 429 L 526 430 L 525 431 L 525 432 L 525 431 L 526 430 L 527 431 L 527 432 L 528 431 L 530 431 L 531 432 L 529 434 L 527 434 L 529 434 L 531 436 L 530 437 L 529 437 L 528 438 L 527 437 L 526 437 L 524 435 L 523 436 L 522 435 L 522 434 L 521 433 L 522 432 L 521 433 L 522 434 L 522 436 L 521 437 L 521 438 L 520 439 L 521 438 L 522 438 L 523 439 L 522 440 L 524 442 L 523 443 L 524 442 L 525 443 L 525 444 L 525 443 L 524 442 L 525 441 L 526 441 L 527 442 L 527 445 L 525 447 L 524 447 L 522 449 L 520 447 L 518 449 L 516 447 L 516 446 L 517 445 L 517 444 L 516 443 L 516 442 L 517 441 L 519 443 L 520 443 L 521 442 L 520 443 L 518 441 L 518 440 L 517 441 L 516 441 L 515 440 L 516 439 L 515 438 L 516 437 L 518 437 L 519 436 L 518 437 L 517 436 L 517 434 L 518 433 L 519 434 L 518 433 L 518 431 L 519 430 L 520 431 L 519 430 L 520 429 L 521 429 L 522 430 "></path>
        <path fill="none" stroke="#00fafa" stroke-width="3" d="M 583 453 L 584 452 L 585 452 L 586 453 L 587 452 L 588 453 L 589 453 L 590 454 L 588 456 L 589 455 L 590 455 L 591 456 L 588 459 L 588 460 L 589 460 L 590 461 L 590 462 L 589 463 L 590 464 L 590 465 L 588 467 L 587 467 L 585 465 L 586 464 L 586 463 L 586 464 L 585 465 L 584 465 L 583 466 L 582 465 L 579 465 L 577 463 L 577 462 L 578 461 L 579 462 L 580 461 L 583 461 L 584 460 L 585 461 L 583 459 L 583 458 L 584 457 L 585 457 L 584 456 L 584 454 "></path>
        <path fill="none" stroke="#00fafa" stroke-width="3" d="M 522 455 L 523 456 L 523 458 L 524 459 L 523 460 L 523 461 L 522 462 L 521 461 L 522 462 L 522 463 L 520 465 L 519 464 L 520 465 L 520 466 L 519 467 L 517 465 L 516 465 L 515 464 L 515 463 L 513 463 L 512 464 L 511 463 L 511 461 L 512 460 L 513 461 L 514 461 L 515 460 L 518 460 L 519 461 L 519 460 L 518 459 "></path>
        <path fill="none" stroke="#00fafa" stroke-width="3" d="M 552 431 L 553 430 L 554 431 L 554 433 L 553 434 L 555 436 L 554 437 L 554 439 L 553 440 L 552 439 L 552 437 L 551 437 L 552 438 L 551 439 L 551 440 L 553 442 L 551 444 L 550 443 L 550 442 L 547 439 L 549 437 L 548 437 L 547 436 L 548 435 L 547 434 L 548 433 L 549 433 L 550 432 L 551 433 L 552 432 "></path>
        <path fill="none" stroke="#00fafa" stroke-width="3" d="M 564 441 L 565 442 L 565 444 L 564 445 L 563 445 L 562 446 L 562 448 L 561 449 L 560 449 L 560 450 L 559 451 L 558 451 L 557 450 L 557 448 L 556 447 L 556 446 L 555 445 L 555 444 L 556 443 L 558 443 L 559 442 L 560 443 L 560 444 L 561 444 "></path>
        <path fill="none" stroke="#00fafa" stroke-width="3" d="M 518 450 L 520 452 L 520 453 L 521 453 L 522 454 L 522 455 L 519 458 L 518 457 L 519 458 L 518 459 L 517 459 L 516 460 L 515 459 L 515 458 L 514 458 L 513 457 L 513 456 L 516 453 L 517 453 L 516 452 "></path>
        <path fill="none" stroke="#00fafa" stroke-width="3" d="M 537 457 L 538 456 L 539 457 L 540 457 L 541 456 L 542 457 L 542 458 L 543 459 L 544 459 L 545 460 L 543 462 L 542 461 L 541 461 L 541 463 L 540 464 L 539 464 L 536 461 L 536 460 L 535 459 L 536 458 L 537 458 "></path>
        <path fill="none" stroke="#00fafa" stroke-width="3" d="M 530 444 L 531 443 L 532 443 L 534 445 L 532 447 L 533 447 L 534 448 L 534 450 L 533 451 L 532 450 L 531 450 L 532 451 L 532 452 L 531 453 L 530 453 L 529 452 L 529 449 L 528 448 L 528 446 L 529 445 L 530 446 L 530 447 L 530 446 L 531 445 "></path>
        <path fill="none" stroke="#00fafa" stroke-width="3" d="M 525 484 L 526 485 L 527 484 L 528 484 L 529 485 L 529 486 L 525 490 L 523 488 L 524 489 L 523 490 L 522 490 L 521 489 L 521 488 L 520 489 L 519 488 L 519 487 L 520 486 L 523 486 "></path>
        <path fill="none" stroke="#00fafa" stroke-width="3" d="M 508 450 L 509 449 L 510 450 L 510 451 L 512 451 L 513 452 L 512 453 L 513 454 L 512 455 L 512 456 L 511 457 L 511 459 L 510 460 L 509 459 L 509 458 L 508 457 L 509 456 L 508 456 L 507 455 L 508 454 L 509 454 L 508 454 L 507 453 L 508 452 "></path>
        <path fill="none" stroke="#00fafa" stroke-width="3" d="M 580 429 L 581 430 L 581 432 L 582 433 L 580 435 L 579 435 L 578 434 L 579 435 L 578 436 L 578 437 L 579 438 L 578 439 L 577 439 L 576 438 L 576 434 L 575 434 L 574 433 L 576 431 L 577 432 L 579 432 L 578 431 "></path>
        <path fill="none" stroke="#00fafa" stroke-width="3" d="M 514 466 L 515 467 L 518 467 L 519 468 L 517 470 L 518 469 L 519 470 L 519 471 L 518 472 L 515 472 L 514 471 L 513 471 L 512 472 L 511 471 L 511 470 L 512 469 L 512 468 "></path>
        <path fill="none" stroke="#00fafa" stroke-width="3" d="M 503 460 L 504 459 L 509 459 L 511 461 L 511 463 L 510 464 L 509 463 L 508 463 L 508 465 L 507 466 L 506 466 L 505 465 L 506 464 L 506 463 L 505 462 L 505 461 L 504 461 "></path>
        <path fill="none" stroke="#00fafa" stroke-width="3" d="M 527 488 L 528 489 L 528 492 L 527 493 L 526 493 L 525 494 L 526 495 L 525 496 L 524 496 L 523 495 L 523 494 L 522 494 L 521 493 L 523 491 L 523 490 L 524 489 L 526 491 L 525 490 "></path>
        <path fill="none" stroke="#00fafa" stroke-width="3" d="M 551 501 L 552 500 L 554 502 L 556 502 L 557 503 L 557 504 L 558 505 L 557 506 L 554 506 L 553 505 L 554 504 L 551 504 L 550 505 L 549 504 L 549 502 L 550 501 L 551 502 "></path>
        <path fill="none" stroke="#00fafa" stroke-width="3" d="M 531 489 L 532 488 L 533 488 L 534 489 L 535 489 L 536 490 L 536 491 L 537 492 L 536 493 L 535 493 L 534 492 L 534 491 L 533 491 L 533 493 L 532 494 L 531 493 L 530 493 L 529 492 L 530 491 L 531 491 "></path>
        <path fill="none" stroke="#00fafa" stroke-width="3" d="M 527 464 L 528 464 L 529 465 L 528 466 L 528 470 L 527 471 L 526 470 L 525 471 L 524 470 L 524 469 L 523 468 L 525 466 L 526 467 L 526 468 L 526 467 L 525 466 "></path>
        <path fill="none" stroke="#00fafa" stroke-width="3" d="M 599 473 L 600 474 L 601 474 L 602 475 L 602 476 L 601 477 L 600 476 L 598 478 L 599 479 L 598 480 L 597 480 L 595 478 L 595 477 L 596 476 L 597 476 L 597 475 "></path>
        <path fill="none" stroke="#00fafa" stroke-width="3" d="M 522 453 L 523 452 L 524 452 L 526 454 L 525 455 L 526 454 L 528 456 L 527 457 L 525 457 L 525 458 L 524 459 L 523 458 L 523 456 L 522 455 "></path>
        <path fill="none" stroke="#00fafa" stroke-width="3" d="M 561 498 L 562 497 L 563 497 L 565 499 L 564 500 L 565 500 L 566 501 L 565 502 L 564 502 L 563 503 L 561 501 L 562 500 L 561 501 L 559 499 L 560 498 "></path>
        <path fill="none" stroke="#00fafa" stroke-width="3" d="M 575 424 L 576 425 L 576 427 L 577 427 L 579 429 L 579 430 L 578 431 L 577 430 L 576 431 L 573 428 L 574 427 L 573 426 "></path>
        <path fill="none" stroke="#00fafa" stroke-width="3" d="M 560 427 L 562 427 L 563 428 L 562 429 L 561 429 L 561 431 L 562 432 L 560 434 L 559 434 L 558 433 L 559 432 L 558 431 L 558 429 "></path>
        <path fill="none" stroke="#00fafa" stroke-width="3" d="M 550 448 L 551 447 L 552 448 L 552 450 L 551 451 L 551 452 L 549 454 L 548 453 L 548 452 L 547 451 L 548 450 L 548 449 L 549 448 "></path>
        <path fill="none" stroke="#00fafa" stroke-width="3" d="M 596 510 L 597 509 L 599 511 L 599 512 L 598 513 L 597 512 L 596 513 L 596 515 L 595 516 L 594 515 L 594 514 L 593 513 L 594 512 L 594 511 L 595 510 "></path>
        <path fill="none" stroke="#00fafa" stroke-width="3" d="M 510 442 L 511 441 L 512 442 L 513 442 L 514 443 L 512 445 L 512 446 L 511 447 L 510 446 L 508 446 L 507 445 L 509 443 L 510 444 "></path>
        <path fill="none" stroke="#00fafa" stroke-width="3" d="M 445 498 L 446 499 L 446 500 L 447 500 L 449 502 L 448 503 L 447 503 L 447 504 L 446 505 L 444 503 L 445 502 L 443 500 "></path>
        <path fill="none" stroke="#00fafa" stroke-width="3" d="M 568 537 L 569 537 L 571 539 L 571 540 L 570 541 L 569 540 L 570 541 L 569 542 L 568 542 L 567 541 L 566 541 L 565 540 "></path>
        <path fill="none" stroke="#00fafa" stroke-width="3" d="M 564 434 L 565 433 L 566 433 L 567 434 L 567 435 L 566 436 L 567 437 L 567 439 L 566 440 L 563 437 L 563 436 L 564 435 "></path>
        <path fill="none" stroke="#00fafa" stroke-width="3" d="M 550 494 L 551 493 L 553 495 L 552 496 L 553 496 L 554 497 L 554 498 L 553 499 L 552 498 L 550 498 L 549 497 L 549 496 L 550 495 "></path>
        <path fill="none" stroke="#00fafa" stroke-width="3" d="M 543 445 L 544 446 L 544 447 L 545 448 L 542 451 L 541 450 L 540 450 L 539 449 L 540 448 L 542 448 L 541 447 "></path>
        <path fill="none" stroke="#00fafa" stroke-width="3" d="M 514 473 L 515 472 L 519 472 L 520 473 L 519 474 L 518 474 L 519 475 L 517 477 L 516 476 L 516 475 "></path>
        <path fill="none" stroke="#00fafa" stroke-width="3" d="M 521 466 L 522 466 L 523 467 L 523 468 L 524 469 L 522 471 L 521 470 L 519 470 L 518 469 "></path>
        <path fill="none" stroke="#00fafa" stroke-width="3" d="M 553 473 L 554 474 L 555 474 L 556 475 L 556 476 L 555 477 L 554 477 L 553 476 L 551 478 L 550 477 L 550 476 "></path>
        <path fill="none" stroke="#00fafa" stroke-width="3" d="M 580 467 L 581 466 L 583 468 L 583 473 L 582 474 L 581 473 L 581 470 L 580 469 "></path>
        <path fill="none" stroke="#00fafa" stroke-width="3" d="M 563 492 L 564 491 L 567 491 L 569 493 L 568 494 L 567 494 L 567 495 L 566 496 L 565 495 L 565 493 L 564 493 "></path>
        <path fill="none" stroke="#00fafa" stroke-width="3" d="M 512 447 L 513 446 L 515 446 L 518 449 L 517 450 L 517 451 L 516 452 L 515 451 L 515 449 L 514 448 L 513 448 "></path>
        <path fill="none" stroke="#00fafa" stroke-width="3" d="M 543 450 L 544 449 L 545 450 L 545 452 L 546 451 L 548 453 L 547 454 L 546 454 L 545 455 L 543 453 "></path>
        <path fill="none" stroke="#00fafa" stroke-width="3" d="M 550 445 L 551 444 L 552 445 L 553 445 L 554 446 L 555 445 L 556 446 L 556 447 L 555 448 L 552 448 L 550 446 "></path>
        <path fill="none" stroke="#00fafa" stroke-width="3" d="M 561 456 L 562 455 L 563 456 L 563 457 L 564 458 L 563 459 L 562 459 L 561 460 L 559 460 L 558 459 L 560 457 L 561 457 "></path>
        <path fill="none" stroke="#00fafa" stroke-width="3" d="M 597 496 L 598 495 L 600 495 L 601 496 L 600 497 L 600 499 L 599 500 L 597 500 L 596 499 L 597 498 L 598 498 L 598 497 "></path>
        <path fill="none" stroke="#00fafa" stroke-width="3" d="M 554 431 L 555 430 L 556 431 L 557 430 L 558 431 L 558 433 L 559 434 L 558 435 L 557 435 L 554 432 "></path>
        <path fill="none" stroke="#00fafa" stroke-width="3" d="M 586 448 L 587 447 L 588 448 L 588 451 L 587 452 L 585 452 L 584 451 L 585 450 L 586 450 L 585 450 L 584 449 L 585 448 "></path>
        <path fill="none" stroke="#00fafa" stroke-width="3" d="M 586 478 L 587 477 L 589 477 L 590 478 L 590 480 L 591 481 L 590 482 L 589 482 L 587 480 L 588 479 L 587 479 "></path>
        <path fill="none" stroke="#00fafa" stroke-width="3" d="M 600 518 L 601 519 L 601 520 L 602 521 L 602 522 L 601 523 L 600 522 L 599 523 L 597 521 "></path>
        <path fill="none" stroke="#00fafa" stroke-width="3" d="M 537 470 L 538 469 L 540 471 L 539 472 L 539 474 L 538 475 L 537 474 L 537 472 L 536 472 L 535 471 L 536 470 "></path>
        <path fill="none" stroke="#00fafa" stroke-width="3" d="M 581 535 L 582 536 L 584 536 L 585 537 L 585 538 L 584 539 L 583 539 L 582 538 L 580 538 L 579 537 "></path>
        <path fill="none" stroke="#00fafa" stroke-width="3" d="M 574 463 L 575 462 L 576 462 L 578 464 L 578 465 L 576 467 L 574 465 "></path>
        <path fill="none" stroke="#00fafa" stroke-width="3" d="M 591 473 L 592 472 L 593 473 L 593 474 L 594 475 L 591 478 L 590 478 L 589 477 L 591 475 "></path>
        <path fill="none" stroke="#00fafa" stroke-width="3" d="M 505 452 L 506 451 L 507 451 L 508 452 L 507 453 L 507 454 L 506 455 L 504 455 L 503 454 L 503 453 L 504 452 "></path>
        <path fill="none" stroke="#00fafa" stroke-width="3" d="M 595 493 L 596 492 L 597 493 L 597 498 L 596 499 L 595 498 L 595 497 L 594 496 L 595 495 "></path>
        <path fill="none" stroke="#00fafa" stroke-width="3" d="M 575 487 L 576 486 L 578 488 L 577 489 L 578 490 L 578 491 L 577 492 L 574 489 L 575 488 "></path>
        <path fill="none" stroke="#00fafa" stroke-width="3" d="M 552 466 L 553 467 L 553 468 L 552 469 L 553 470 L 553 471 L 552 472 L 549 469 "></path>
        <path fill="none" stroke="#00fafa" stroke-width="3" d="M 549 458 L 550 457 L 551 457 L 554 460 L 552 462 L 551 461 L 551 460 L 550 460 L 549 459 "></path>
        <path fill="none" stroke="#00fafa" stroke-width="3" d="M 570 517 L 571 516 L 573 516 L 574 517 L 574 518 L 573 519 L 573 520 L 572 521 L 571 520 L 571 518 "></path>
        <path fill="none" stroke="#00fafa" stroke-width="3" d="M 571 492 L 572 491 L 573 492 L 573 493 L 572 494 L 573 495 L 572 496 L 571 496 L 570 495 L 570 494 L 569 493 L 570 492 "></path>
        <path fill="none" stroke="#00fafa" stroke-width="3" d="M 489 437 L 491 439 L 492 439 L 493 440 L 492 441 L 490 441 L 489 440 L 488 440 L 487 439 "></path>
        <path fill="none" stroke="#00fafa" stroke-width="3" d="M 530 453 L 531 453 L 532 454 L 531 455 L 531 456 L 532 457 L 531 458 L 530 458 L 529 457 L 529 456 L 528 455 "></path>
        <path fill="none" stroke="#00fafa" stroke-width="3" d="M 533 460 L 534 459 L 535 459 L 536 460 L 536 461 L 537 462 L 537 463 L 536 464 L 535 463 L 534 463 L 533 462 L 534 461 "></path>
        <path fill="none" stroke="#00fafa" stroke-width="3" d="M 531 472 L 532 471 L 535 474 L 535 476 L 534 477 L 533 476 L 533 475 L 531 473 "></path>
        <path fill="none" stroke="#00fafa" stroke-width="3" d="M 565 464 L 566 463 L 567 463 L 568 464 L 568 465 L 569 466 L 568 467 L 567 467 L 566 468 L 565 467 L 565 466 L 566 465 "></path>
        <path fill="none" stroke="#00fafa" stroke-width="3" d="M 535 443 L 536 442 L 537 442 L 538 443 L 539 442 L 540 443 L 540 444 L 538 446 "></path>
        <path fill="none" stroke="#00fafa" stroke-width="3" d="M 506 441 L 507 440 L 509 440 L 510 441 L 509 442 L 508 442 L 509 443 L 508 444 L 507 444 L 506 443 "></path>
        <path fill="none" stroke="#00fafa" stroke-width="3" d="M 559 440 L 560 439 L 563 442 L 561 444 L 559 442 "></path>
        <path fill="none" stroke="#00fafa" stroke-width="3" d="M 502 440 L 503 439 L 504 439 L 505 440 L 504 441 L 504 442 L 505 443 L 504 444 L 503 444 L 502 443 "></path>
        <path fill="none" stroke="#00fafa" stroke-width="3" d="M 575 520 L 576 521 L 576 522 L 577 522 L 578 523 L 577 524 L 575 524 L 573 522 "></path>
        <path fill="none" stroke="#00fafa" stroke-width="3" d="M 580 507 L 581 506 L 582 506 L 583 507 L 582 508 L 582 509 L 580 511 L 579 510 L 579 509 L 580 508 "></path>
        <path fill="none" stroke="#00fafa" stroke-width="3" d="M 574 441 L 575 442 L 575 445 L 574 446 L 573 446 L 572 445 L 573 444 L 572 443 "></path>
        <path fill="none" stroke="#00fafa" stroke-width="3" d="M 568 510 L 569 509 L 570 509 L 571 510 L 570 511 L 571 512 L 571 513 L 570 514 L 568 512 "></path>
        <path fill="none" stroke="#00fafa" stroke-width="3" d="M 519 338 L 521 338 L 523 340 L 523 341 L 524 340 L 523 339 L 524 338 L 526 338 L 527 339 L 528 338 L 530 340 L 530 341 L 533 344 L 532 345 L 534 343 L 537 346 L 536 347 L 536 351 L 536 350 L 537 349 L 537 348 L 538 347 L 539 347 L 540 346 L 541 346 L 542 347 L 541 348 L 542 349 L 541 350 L 542 351 L 543 351 L 545 353 L 544 354 L 542 354 L 541 353 L 541 354 L 544 354 L 545 355 L 546 355 L 547 356 L 547 357 L 548 358 L 548 359 L 550 359 L 551 360 L 550 361 L 550 362 L 551 363 L 550 364 L 549 364 L 549 365 L 550 364 L 551 365 L 551 368 L 550 369 L 549 369 L 548 368 L 548 367 L 548 368 L 549 369 L 548 370 L 550 372 L 548 374 L 547 373 L 546 373 L 545 372 L 545 370 L 545 372 L 546 373 L 546 374 L 547 373 L 548 374 L 548 376 L 549 377 L 548 378 L 548 379 L 549 378 L 550 379 L 550 380 L 551 381 L 551 383 L 550 384 L 549 384 L 549 385 L 550 386 L 549 387 L 546 387 L 546 388 L 547 388 L 548 389 L 547 390 L 545 390 L 544 391 L 543 391 L 542 392 L 541 392 L 542 393 L 541 394 L 541 395 L 538 398 L 537 397 L 536 398 L 536 399 L 535 400 L 534 400 L 534 401 L 533 402 L 532 401 L 531 401 L 532 402 L 532 403 L 531 404 L 529 402 L 529 401 L 528 400 L 526 400 L 527 400 L 528 401 L 528 402 L 527 403 L 527 404 L 526 405 L 525 404 L 522 404 L 521 403 L 522 402 L 521 402 L 520 401 L 518 401 L 519 402 L 518 403 L 517 403 L 515 401 L 515 400 L 516 399 L 521 399 L 522 400 L 523 400 L 522 399 L 521 399 L 520 398 L 520 397 L 521 396 L 521 395 L 518 398 L 517 397 L 517 396 L 516 396 L 515 395 L 515 396 L 514 397 L 514 399 L 513 400 L 512 399 L 508 399 L 508 400 L 507 401 L 506 401 L 505 402 L 504 401 L 504 400 L 504 401 L 503 402 L 502 401 L 502 400 L 501 400 L 500 399 L 500 398 L 496 398 L 495 399 L 494 398 L 494 396 L 493 395 L 495 393 L 494 392 L 494 391 L 492 391 L 491 390 L 493 388 L 491 386 L 491 385 L 492 384 L 493 385 L 492 384 L 493 383 L 492 383 L 491 382 L 490 382 L 488 380 L 488 377 L 489 376 L 489 375 L 490 374 L 491 375 L 491 377 L 492 378 L 492 379 L 493 379 L 493 377 L 491 375 L 492 374 L 491 375 L 490 374 L 489 375 L 488 374 L 488 373 L 487 374 L 486 373 L 485 373 L 484 372 L 485 371 L 486 371 L 486 370 L 488 368 L 489 368 L 488 368 L 487 367 L 487 366 L 486 365 L 487 364 L 486 363 L 487 362 L 487 359 L 489 357 L 490 358 L 489 357 L 492 354 L 493 354 L 494 353 L 496 353 L 495 352 L 495 351 L 496 350 L 497 351 L 498 351 L 499 352 L 500 352 L 499 351 L 500 350 L 498 348 L 499 347 L 500 347 L 500 346 L 501 345 L 502 346 L 503 345 L 501 345 L 500 344 L 501 343 L 502 343 L 502 342 L 503 341 L 504 342 L 505 341 L 506 342 L 507 341 L 508 341 L 509 342 L 510 342 L 511 341 L 513 343 L 514 342 L 515 343 L 516 343 L 517 342 L 518 342 L 517 341 L 517 340 "></path>
        <path fill="none" stroke="#00fafa" stroke-width="3" d="M 486 375 L 487 374 L 488 374 L 489 375 L 488 376 L 488 378 L 487 379 L 486 379 L 485 378 L 486 377 "></path>
    </g>
</svg>
