<svg xmlns="http://www.w3.org/2000/svg" xmlns:xlink="http://www.w3.org/1999/xlink" version="1.1" x="0" y="0" width="1056px" height="816px">
    <g id="rootLayer" transform="translate(0.000000, 0.000000)">
        <path fill="none" stroke="#ffffff" stroke-width="3" d="M 443 112 L 442 113 L 439 113 L 438 114 L 437 114 L 435 116 L 434 116 L 433 117 L 432 117 L 432 118 L 431 119 L 429 119 L 428 120 L 425 120 L 424 121 L 423 121 L 421 123 L 420 123 L 418 125 L 417 125 L 417 126 L 416 127 L 416 128 L 415 129 L 415 131 L 416 132 L 413 135 L 410 135 L 409 136 L 408 136 L 407 137 L 407 138 L 406 139 L 406 140 L 405 141 L 405 142 L 402 145 L 402 146 L 400 148 L 400 150 L 399 151 L 399 159 L 398 160 L 398 163 L 396 165 L 396 167 L 394 169 L 394 171 L 393 172 L 393 174 L 392 175 L 392 176 L 391 177 L 391 178 L 390 179 L 390 180 L 389 181 L 389 182 L 388 183 L 388 184 L 387 185 L 387 186 L 386 187 L 386 189 L 387 190 L 386 191 L 386 193 L 387 194 L 387 200 L 388 201 L 388 204 L 389 205 L 389 206 L 390 207 L 390 208 L 392 210 L 392 214 L 391 215 L 389 215 L 388 214 L 387 214 L 385 212 L 383 212 L 382 211 L 379 211 L 378 210 L 367 210 L 366 211 L 365 211 L 364 212 L 364 213 L 363 214 L 362 214 L 361 215 L 360 215 L 360 216 L 359 217 L 358 217 L 357 218 L 356 218 L 355 219 L 354 219 L 354 221 L 355 222 L 354 223 L 354 225 L 352 227 L 344 227 L 343 228 L 342 228 L 341 229 L 340 229 L 339 230 L 338 230 L 336 232 L 336 234 L 334 236 L 334 237 L 331 240 L 331 241 L 329 243 L 329 246 L 328 247 L 328 248 L 327 249 L 327 250 L 326 251 L 326 255 L 325 256 L 326 257 L 326 259 L 325 260 L 325 262 L 324 263 L 324 265 L 325 266 L 324 267 L 324 268 L 325 269 L 325 271 L 326 272 L 326 273 L 327 274 L 327 277 L 328 278 L 327 279 L 327 280 L 330 283 L 331 283 L 332 284 L 333 284 L 334 283 L 335 283 L 336 282 L 345 282 L 346 283 L 360 283 L 361 282 L 363 282 L 364 281 L 365 281 L 366 280 L 370 280 L 371 281 L 373 281 L 374 282 L 406 282 L 407 281 L 408 281 L 410 279 L 410 278 L 412 276 L 412 275 L 413 274 L 413 273 L 414 272 L 414 268 L 415 267 L 415 263 L 414 262 L 414 255 L 418 251 L 418 250 L 419 249 L 419 248 L 420 247 L 420 245 L 422 243 L 422 241 L 423 240 L 423 239 L 425 237 L 425 236 L 426 235 L 426 231 L 427 230 L 427 226 L 428 225 L 428 222 L 429 221 L 429 220 L 430 219 L 449 219 L 452 222 L 452 231 L 453 232 L 453 234 L 456 237 L 456 238 L 457 239 L 458 239 L 460 241 L 461 241 L 462 242 L 464 242 L 465 243 L 472 243 L 473 242 L 476 242 L 477 241 L 478 241 L 479 240 L 480 240 L 481 239 L 482 239 L 482 238 L 483 237 L 484 237 L 487 234 L 488 234 L 489 233 L 490 233 L 491 232 L 492 232 L 493 231 L 494 231 L 496 229 L 497 229 L 498 228 L 501 228 L 504 225 L 504 223 L 506 221 L 505 220 L 505 217 L 504 216 L 504 214 L 505 213 L 504 212 L 505 211 L 512 211 L 513 210 L 515 210 L 516 209 L 515 208 L 515 207 L 519 203 L 521 203 L 522 204 L 524 204 L 525 203 L 526 203 L 526 134 L 523 134 L 521 136 L 503 136 L 502 135 L 502 134 L 500 132 L 499 132 L 498 131 L 497 131 L 496 130 L 495 130 L 494 129 L 493 129 L 492 128 L 491 128 L 490 127 L 483 127 L 482 126 L 481 126 L 478 123 L 469 123 L 468 124 L 463 124 L 462 123 L 462 122 L 461 121 L 461 120 L 460 119 L 460 118 L 459 117 L 459 116 L 458 115 L 457 115 L 454 112 "></path>
        <path fill="none" stroke="#ffffff" stroke-width="3" d="M 276 163 L 275 164 L 255 164 L 254 165 L 253 165 L 252 166 L 252 167 L 250 169 L 249 169 L 247 171 L 246 171 L 245 172 L 235 172 L 234 173 L 233 173 L 233 175 L 234 176 L 234 178 L 236 180 L 232 184 L 226 184 L 224 186 L 224 187 L 225 188 L 225 189 L 224 190 L 225 191 L 225 193 L 224 194 L 224 196 L 220 200 L 217 200 L 216 201 L 215 201 L 214 202 L 214 205 L 213 206 L 214 207 L 214 211 L 215 212 L 215 214 L 216 215 L 216 216 L 217 217 L 217 219 L 219 221 L 219 223 L 221 225 L 221 226 L 222 227 L 223 227 L 225 229 L 225 230 L 226 231 L 227 231 L 228 232 L 229 232 L 230 233 L 231 233 L 232 234 L 234 234 L 235 235 L 240 235 L 241 234 L 242 234 L 242 233 L 243 232 L 244 232 L 245 231 L 246 232 L 247 231 L 253 231 L 254 232 L 255 231 L 256 232 L 262 232 L 264 230 L 262 228 L 262 225 L 263 224 L 264 224 L 265 223 L 269 223 L 270 224 L 271 223 L 272 224 L 274 224 L 275 223 L 277 223 L 278 222 L 279 222 L 280 221 L 281 221 L 282 220 L 284 220 L 285 219 L 286 219 L 286 218 L 287 217 L 287 215 L 289 213 L 292 213 L 294 211 L 295 211 L 295 210 L 296 209 L 296 207 L 295 206 L 296 205 L 295 204 L 295 198 L 296 197 L 296 196 L 297 195 L 299 195 L 300 196 L 300 197 L 301 197 L 303 199 L 307 199 L 308 198 L 309 198 L 310 197 L 310 196 L 312 194 L 312 192 L 313 191 L 313 188 L 314 187 L 314 177 L 313 176 L 313 174 L 309 170 L 307 170 L 306 169 L 305 169 L 304 168 L 301 168 L 300 167 L 299 167 L 298 166 L 297 166 L 296 165 L 295 165 L 294 164 L 289 164 L 288 163 "></path>
        <path fill="none" stroke="#ffffff" stroke-width="3" d="M 391 252 L 392 253 L 394 253 L 395 254 L 395 255 L 396 256 L 393 259 L 392 259 L 391 260 L 389 258 L 389 257 L 388 256 L 388 255 "></path>
        <path fill="none" stroke="#ffffff" stroke-width="3" d="M 490 67 L 489 68 L 488 68 L 487 69 L 486 69 L 483 72 L 482 72 L 479 75 L 473 75 L 472 76 L 465 76 L 462 73 L 461 73 L 460 72 L 449 72 L 448 73 L 446 73 L 445 74 L 444 74 L 443 75 L 440 75 L 439 76 L 438 76 L 437 77 L 436 77 L 435 78 L 435 79 L 432 82 L 432 83 L 430 85 L 430 91 L 431 92 L 431 93 L 429 95 L 425 95 L 424 94 L 423 95 L 422 95 L 421 96 L 420 96 L 419 97 L 419 98 L 421 100 L 423 100 L 424 101 L 426 101 L 427 100 L 441 100 L 442 101 L 442 104 L 441 105 L 438 105 L 437 106 L 436 106 L 435 107 L 434 107 L 431 110 L 431 111 L 429 113 L 428 112 L 425 112 L 424 111 L 412 111 L 411 112 L 410 111 L 408 111 L 407 112 L 406 111 L 404 111 L 403 112 L 402 111 L 400 111 L 399 112 L 398 111 L 396 111 L 395 112 L 394 111 L 376 111 L 375 112 L 374 111 L 372 111 L 371 112 L 366 112 L 365 113 L 364 113 L 364 114 L 362 116 L 352 116 L 351 117 L 350 117 L 350 120 L 349 121 L 349 122 L 350 123 L 350 124 L 351 125 L 351 126 L 352 127 L 352 130 L 354 132 L 370 132 L 372 134 L 372 145 L 371 146 L 372 147 L 372 149 L 371 150 L 372 151 L 372 153 L 371 154 L 371 159 L 372 160 L 380 160 L 381 161 L 381 162 L 382 163 L 382 164 L 380 166 L 378 166 L 377 167 L 376 167 L 374 169 L 374 171 L 370 175 L 369 175 L 367 177 L 365 177 L 364 178 L 358 178 L 356 180 L 356 182 L 355 183 L 355 185 L 356 186 L 356 189 L 357 189 L 360 192 L 360 193 L 361 194 L 361 198 L 360 199 L 360 200 L 359 201 L 352 201 L 351 202 L 350 202 L 349 203 L 349 204 L 348 205 L 349 206 L 348 207 L 348 208 L 347 209 L 344 209 L 343 210 L 342 210 L 341 211 L 341 213 L 342 214 L 341 215 L 341 216 L 340 217 L 338 217 L 337 218 L 334 218 L 334 219 L 333 220 L 335 222 L 353 222 L 354 223 L 353 224 L 353 226 L 352 227 L 344 227 L 343 228 L 341 228 L 340 229 L 336 229 L 335 230 L 320 230 L 319 231 L 318 231 L 318 232 L 316 234 L 311 234 L 309 236 L 309 238 L 308 239 L 308 240 L 307 241 L 305 241 L 304 242 L 291 242 L 290 243 L 289 243 L 288 244 L 288 245 L 283 250 L 281 250 L 280 251 L 278 251 L 277 252 L 277 253 L 275 255 L 275 258 L 274 259 L 274 263 L 273 264 L 273 270 L 272 271 L 272 273 L 273 274 L 272 275 L 272 276 L 273 277 L 273 281 L 274 282 L 274 285 L 275 286 L 274 287 L 274 288 L 275 289 L 275 296 L 278 299 L 281 299 L 282 300 L 283 299 L 284 300 L 296 300 L 297 299 L 298 299 L 299 298 L 308 298 L 309 297 L 311 297 L 314 294 L 338 294 L 339 295 L 348 295 L 349 294 L 350 294 L 351 293 L 351 292 L 350 291 L 350 290 L 351 289 L 351 288 L 352 287 L 354 287 L 355 286 L 356 287 L 360 287 L 361 286 L 362 286 L 363 285 L 363 282 L 364 281 L 365 281 L 366 280 L 370 280 L 371 281 L 373 281 L 374 282 L 414 282 L 416 280 L 416 278 L 419 275 L 420 275 L 421 274 L 433 274 L 434 273 L 443 273 L 445 275 L 445 282 L 446 283 L 446 289 L 447 290 L 447 291 L 448 292 L 448 294 L 449 294 L 454 299 L 456 299 L 458 301 L 460 301 L 461 302 L 470 302 L 471 301 L 472 301 L 473 300 L 474 300 L 476 298 L 477 298 L 480 295 L 482 295 L 483 294 L 484 294 L 485 293 L 486 293 L 487 292 L 491 292 L 492 291 L 493 291 L 494 290 L 494 288 L 492 286 L 492 284 L 491 283 L 492 282 L 492 281 L 498 275 L 502 275 L 504 277 L 504 278 L 505 278 L 506 279 L 508 279 L 511 282 L 518 282 L 519 281 L 520 281 L 521 280 L 522 280 L 524 278 L 524 277 L 526 275 L 526 237 L 525 236 L 517 236 L 516 237 L 511 237 L 510 236 L 509 236 L 508 235 L 508 234 L 507 233 L 507 231 L 508 230 L 508 229 L 509 228 L 510 228 L 511 227 L 525 227 L 526 226 L 526 212 L 525 211 L 520 211 L 519 212 L 518 212 L 517 213 L 517 216 L 514 219 L 512 219 L 509 216 L 507 216 L 505 214 L 505 213 L 504 212 L 505 211 L 514 211 L 515 210 L 516 210 L 517 209 L 516 208 L 516 206 L 519 203 L 521 203 L 522 204 L 524 204 L 525 203 L 526 203 L 526 75 L 525 74 L 523 74 L 522 75 L 521 75 L 519 77 L 518 77 L 517 78 L 516 78 L 515 79 L 513 79 L 512 80 L 508 80 L 507 79 L 507 78 L 505 76 L 505 75 L 504 74 L 504 73 L 500 69 L 499 69 L 498 68 L 495 68 L 494 67 "></path>
        <path fill="none" stroke="#ffffff" stroke-width="3" d="M 295 148 L 294 149 L 292 149 L 289 152 L 274 152 L 272 154 L 273 155 L 273 157 L 272 158 L 272 159 L 271 160 L 235 160 L 234 161 L 232 161 L 229 164 L 214 164 L 213 165 L 212 165 L 212 170 L 211 171 L 210 171 L 209 172 L 199 172 L 197 174 L 197 175 L 198 176 L 199 176 L 200 177 L 201 177 L 202 178 L 203 177 L 204 178 L 205 177 L 209 177 L 210 176 L 231 176 L 232 177 L 232 178 L 233 179 L 233 181 L 232 182 L 232 183 L 231 184 L 174 184 L 172 186 L 172 187 L 174 189 L 173 190 L 174 191 L 174 192 L 173 193 L 172 193 L 169 196 L 166 196 L 165 197 L 164 197 L 164 200 L 162 202 L 162 204 L 161 205 L 161 209 L 160 210 L 161 211 L 161 212 L 160 213 L 160 221 L 159 222 L 160 223 L 160 227 L 161 228 L 161 230 L 164 233 L 164 235 L 165 236 L 165 237 L 164 238 L 165 239 L 165 241 L 164 242 L 166 244 L 168 244 L 169 245 L 206 245 L 207 244 L 208 244 L 209 245 L 210 244 L 213 244 L 214 245 L 215 244 L 217 244 L 218 245 L 219 244 L 221 244 L 222 245 L 223 244 L 225 244 L 226 245 L 227 244 L 229 244 L 230 245 L 231 244 L 252 244 L 253 243 L 254 243 L 254 238 L 256 236 L 266 236 L 267 235 L 268 235 L 269 234 L 269 232 L 270 231 L 270 229 L 269 229 L 268 228 L 261 228 L 260 227 L 261 226 L 261 225 L 263 223 L 265 223 L 266 224 L 267 223 L 268 224 L 270 224 L 271 223 L 272 224 L 274 224 L 275 223 L 277 223 L 278 222 L 279 222 L 280 221 L 281 221 L 282 220 L 284 220 L 285 219 L 286 219 L 286 218 L 287 217 L 287 215 L 289 213 L 292 213 L 294 211 L 295 211 L 295 210 L 299 206 L 307 206 L 308 205 L 310 205 L 311 204 L 321 204 L 323 202 L 323 194 L 322 193 L 322 192 L 321 191 L 320 191 L 318 189 L 318 188 L 319 187 L 320 187 L 322 185 L 323 185 L 324 184 L 324 182 L 326 180 L 326 179 L 327 178 L 334 178 L 335 177 L 337 177 L 345 169 L 345 168 L 346 167 L 346 166 L 345 165 L 345 163 L 344 162 L 344 161 L 342 159 L 342 158 L 340 156 L 339 156 L 338 155 L 337 155 L 334 152 L 331 152 L 330 151 L 321 151 L 320 150 L 319 151 L 318 150 L 317 150 L 316 149 L 315 149 L 314 148 "></path>
        <path fill="none" stroke="#ffffff" stroke-width="3" d="M 305 5 L 304 6 L 293 6 L 293 7 L 295 9 L 294 10 L 293 10 L 293 11 L 291 13 L 280 13 L 279 14 L 277 14 L 276 13 L 275 14 L 273 14 L 272 13 L 262 13 L 261 12 L 262 11 L 260 9 L 254 9 L 253 10 L 252 9 L 251 10 L 250 9 L 249 10 L 248 9 L 247 10 L 246 9 L 245 10 L 244 9 L 243 10 L 242 9 L 241 10 L 240 9 L 239 10 L 238 9 L 237 10 L 236 9 L 235 10 L 234 9 L 233 10 L 232 9 L 231 10 L 230 9 L 224 9 L 223 10 L 222 10 L 222 11 L 220 13 L 194 13 L 193 14 L 195 16 L 193 18 L 194 19 L 194 20 L 193 21 L 179 21 L 179 22 L 180 23 L 180 24 L 179 25 L 180 26 L 191 26 L 192 27 L 233 27 L 234 28 L 234 30 L 235 31 L 235 32 L 234 33 L 234 34 L 235 35 L 235 36 L 234 37 L 234 40 L 233 41 L 223 41 L 222 40 L 190 40 L 189 41 L 142 41 L 141 42 L 143 44 L 141 46 L 141 47 L 139 49 L 134 49 L 134 51 L 135 52 L 134 53 L 134 54 L 135 55 L 133 57 L 125 57 L 125 58 L 127 60 L 125 62 L 126 63 L 125 64 L 124 64 L 123 65 L 121 65 L 121 66 L 122 67 L 122 68 L 121 69 L 121 70 L 122 71 L 121 72 L 120 72 L 119 73 L 121 75 L 119 77 L 121 79 L 120 80 L 119 80 L 118 81 L 110 81 L 110 82 L 111 82 L 112 83 L 116 83 L 117 82 L 118 83 L 118 84 L 117 85 L 113 85 L 114 86 L 121 86 L 122 87 L 121 88 L 119 88 L 118 89 L 114 89 L 114 91 L 113 92 L 112 92 L 111 93 L 113 95 L 112 96 L 112 98 L 122 98 L 123 99 L 122 100 L 108 100 L 107 101 L 106 100 L 103 100 L 102 101 L 99 101 L 98 102 L 98 106 L 97 107 L 97 109 L 96 110 L 96 113 L 95 114 L 94 114 L 93 115 L 92 115 L 92 116 L 91 117 L 63 117 L 62 118 L 62 119 L 63 120 L 62 121 L 62 122 L 61 123 L 60 123 L 59 124 L 58 123 L 57 124 L 56 123 L 55 124 L 54 123 L 52 123 L 51 124 L 50 123 L 49 124 L 48 123 L 47 123 L 44 120 L 45 119 L 45 118 L 44 117 L 2 117 L 1 118 L 1 119 L 2 120 L 1 121 L 1 123 L 2 124 L 2 125 L 1 126 L 1 127 L 2 128 L 1 129 L 1 131 L 2 132 L 1 133 L 1 135 L 2 136 L 1 137 L 1 166 L 2 167 L 2 168 L 1 169 L 1 191 L 8 191 L 9 190 L 10 191 L 11 190 L 12 191 L 14 191 L 15 190 L 16 191 L 18 191 L 19 190 L 20 191 L 26 191 L 27 190 L 28 191 L 37 191 L 38 190 L 38 189 L 37 188 L 38 187 L 38 186 L 37 185 L 7 185 L 5 183 L 6 182 L 6 181 L 5 180 L 5 179 L 6 178 L 6 177 L 5 176 L 5 175 L 6 174 L 6 168 L 7 167 L 8 167 L 9 166 L 35 166 L 36 167 L 38 167 L 39 166 L 40 167 L 40 168 L 38 170 L 38 173 L 37 174 L 38 175 L 46 175 L 47 174 L 48 175 L 50 175 L 51 174 L 52 175 L 53 174 L 54 175 L 55 174 L 56 175 L 61 175 L 62 174 L 62 173 L 61 172 L 62 171 L 62 170 L 61 169 L 54 169 L 53 170 L 52 169 L 51 170 L 50 169 L 48 169 L 46 167 L 46 166 L 44 164 L 46 162 L 45 161 L 47 159 L 55 159 L 56 160 L 57 160 L 58 161 L 58 162 L 59 162 L 60 163 L 64 163 L 65 162 L 66 163 L 67 162 L 69 162 L 70 163 L 71 162 L 73 162 L 74 163 L 75 162 L 77 162 L 78 163 L 79 162 L 81 162 L 82 163 L 83 162 L 85 162 L 86 163 L 87 162 L 93 162 L 94 163 L 95 162 L 97 162 L 98 163 L 99 162 L 101 162 L 102 163 L 103 162 L 105 162 L 106 163 L 107 162 L 108 163 L 137 163 L 138 164 L 136 166 L 137 166 L 138 167 L 145 167 L 146 168 L 145 169 L 144 169 L 143 170 L 142 169 L 141 170 L 140 169 L 139 170 L 138 169 L 136 169 L 135 170 L 134 169 L 133 170 L 132 169 L 131 170 L 130 169 L 129 170 L 119 170 L 118 169 L 117 170 L 115 170 L 114 169 L 113 170 L 111 170 L 110 169 L 109 170 L 107 170 L 106 169 L 105 170 L 103 170 L 102 169 L 101 170 L 99 170 L 98 169 L 97 170 L 96 169 L 72 169 L 71 170 L 70 170 L 70 171 L 71 172 L 70 173 L 70 174 L 71 175 L 86 175 L 87 174 L 88 175 L 90 175 L 91 174 L 92 175 L 94 175 L 95 174 L 96 175 L 97 174 L 98 175 L 99 174 L 100 175 L 101 174 L 102 175 L 103 174 L 104 175 L 105 174 L 106 175 L 107 174 L 108 175 L 109 174 L 110 175 L 111 174 L 112 175 L 114 175 L 115 174 L 116 175 L 118 175 L 119 174 L 120 175 L 122 175 L 123 174 L 124 175 L 125 174 L 126 175 L 127 174 L 128 175 L 151 175 L 152 176 L 151 177 L 151 179 L 152 180 L 152 181 L 150 183 L 150 184 L 149 185 L 143 185 L 143 186 L 144 187 L 147 187 L 148 186 L 152 186 L 153 187 L 154 187 L 155 188 L 153 190 L 154 191 L 154 192 L 152 194 L 153 194 L 154 195 L 154 196 L 152 198 L 153 198 L 154 199 L 154 200 L 152 202 L 153 203 L 151 205 L 122 205 L 121 206 L 121 210 L 122 211 L 122 213 L 121 214 L 121 218 L 122 219 L 137 219 L 138 220 L 138 221 L 137 222 L 138 223 L 138 226 L 139 226 L 140 227 L 145 227 L 146 228 L 145 229 L 144 229 L 143 230 L 142 230 L 143 230 L 144 231 L 146 231 L 147 232 L 146 233 L 140 233 L 139 234 L 138 233 L 134 233 L 133 234 L 132 233 L 131 234 L 130 233 L 129 234 L 128 233 L 127 234 L 126 233 L 122 233 L 121 234 L 115 234 L 114 233 L 113 234 L 112 233 L 111 234 L 110 234 L 110 235 L 112 237 L 116 237 L 117 236 L 118 237 L 119 236 L 120 237 L 123 237 L 124 238 L 125 238 L 126 239 L 126 240 L 127 240 L 128 241 L 128 243 L 130 245 L 131 245 L 132 246 L 133 245 L 134 246 L 135 245 L 138 245 L 139 244 L 162 244 L 163 243 L 173 243 L 174 244 L 204 244 L 205 243 L 206 244 L 207 243 L 229 243 L 230 244 L 231 243 L 235 243 L 236 242 L 241 242 L 242 243 L 243 242 L 247 242 L 248 243 L 253 243 L 253 237 L 252 236 L 252 235 L 253 234 L 257 234 L 258 235 L 268 235 L 269 234 L 269 233 L 268 232 L 269 231 L 269 230 L 268 229 L 259 229 L 257 227 L 258 226 L 258 223 L 259 222 L 277 222 L 279 220 L 280 220 L 281 219 L 284 219 L 285 218 L 286 218 L 286 216 L 285 215 L 287 213 L 288 213 L 289 212 L 290 212 L 291 211 L 294 211 L 294 210 L 295 209 L 295 208 L 296 207 L 295 206 L 296 205 L 306 205 L 307 204 L 308 205 L 310 203 L 321 203 L 322 202 L 322 197 L 321 196 L 322 195 L 321 194 L 322 193 L 321 193 L 320 192 L 320 191 L 315 191 L 314 190 L 314 186 L 315 185 L 321 185 L 322 186 L 321 187 L 320 187 L 320 189 L 361 189 L 362 190 L 362 200 L 361 201 L 361 202 L 360 203 L 350 203 L 350 208 L 347 211 L 342 211 L 342 212 L 343 213 L 343 214 L 342 215 L 343 216 L 343 217 L 342 218 L 341 218 L 340 219 L 334 219 L 334 221 L 356 221 L 357 222 L 356 223 L 356 225 L 357 226 L 356 227 L 354 227 L 353 228 L 344 228 L 341 231 L 320 231 L 318 233 L 319 234 L 318 235 L 311 235 L 310 236 L 310 241 L 308 243 L 290 243 L 289 244 L 289 246 L 288 247 L 287 247 L 286 248 L 286 249 L 287 250 L 286 251 L 267 251 L 266 252 L 266 253 L 267 254 L 267 256 L 269 258 L 268 259 L 268 261 L 273 261 L 274 262 L 273 263 L 251 263 L 251 265 L 252 266 L 252 269 L 263 269 L 264 270 L 263 271 L 231 271 L 230 272 L 230 277 L 231 277 L 232 278 L 231 279 L 227 279 L 226 278 L 226 274 L 225 274 L 224 273 L 202 273 L 202 279 L 205 279 L 206 280 L 207 279 L 208 280 L 209 280 L 210 281 L 210 287 L 211 287 L 212 288 L 219 288 L 220 289 L 222 289 L 223 290 L 222 291 L 222 293 L 223 294 L 222 295 L 222 301 L 223 302 L 223 303 L 224 304 L 228 304 L 229 305 L 231 305 L 232 306 L 231 307 L 230 307 L 230 308 L 231 309 L 231 310 L 230 311 L 230 313 L 231 314 L 230 315 L 230 318 L 229 319 L 230 320 L 230 321 L 237 321 L 238 322 L 237 323 L 238 324 L 238 325 L 239 326 L 238 327 L 238 330 L 237 331 L 233 331 L 232 330 L 231 331 L 229 331 L 229 332 L 228 333 L 228 336 L 227 337 L 226 337 L 225 338 L 206 338 L 204 340 L 198 340 L 197 341 L 198 342 L 198 343 L 197 344 L 197 346 L 195 348 L 185 348 L 184 347 L 179 347 L 178 348 L 178 354 L 177 355 L 171 355 L 170 356 L 170 357 L 171 357 L 172 358 L 172 361 L 173 361 L 174 362 L 174 363 L 173 364 L 162 364 L 161 365 L 162 366 L 162 369 L 163 370 L 162 371 L 162 374 L 160 376 L 143 376 L 142 375 L 140 375 L 139 376 L 138 376 L 139 377 L 153 377 L 155 379 L 154 380 L 153 380 L 154 381 L 163 381 L 164 382 L 163 383 L 162 383 L 161 384 L 157 384 L 156 383 L 155 384 L 154 384 L 154 385 L 181 385 L 182 386 L 180 388 L 175 388 L 174 387 L 172 387 L 171 388 L 158 388 L 157 387 L 155 387 L 154 388 L 154 389 L 155 390 L 153 392 L 154 393 L 181 393 L 182 394 L 180 396 L 170 396 L 171 397 L 183 397 L 184 398 L 183 399 L 182 399 L 181 400 L 137 400 L 136 399 L 126 399 L 126 402 L 125 403 L 125 404 L 126 405 L 191 405 L 192 406 L 217 406 L 218 405 L 221 405 L 222 404 L 220 402 L 220 401 L 221 400 L 220 399 L 219 399 L 218 398 L 219 397 L 229 397 L 230 396 L 230 395 L 229 394 L 229 393 L 230 392 L 230 391 L 229 390 L 230 389 L 248 389 L 249 388 L 249 387 L 248 386 L 249 385 L 249 384 L 250 383 L 249 382 L 250 381 L 257 381 L 258 380 L 257 379 L 257 376 L 251 376 L 250 375 L 249 375 L 248 374 L 249 373 L 250 373 L 250 372 L 249 371 L 249 370 L 250 369 L 250 367 L 249 366 L 250 365 L 250 364 L 249 363 L 249 361 L 250 360 L 250 359 L 249 358 L 250 357 L 264 357 L 265 356 L 263 354 L 265 352 L 264 352 L 263 351 L 262 351 L 261 352 L 259 352 L 258 351 L 257 351 L 256 350 L 257 349 L 264 349 L 265 348 L 264 347 L 262 347 L 261 348 L 259 348 L 258 347 L 257 347 L 256 346 L 257 345 L 258 345 L 259 344 L 260 345 L 265 345 L 266 344 L 265 344 L 264 343 L 266 341 L 266 339 L 257 339 L 256 338 L 258 336 L 257 336 L 256 335 L 256 334 L 257 333 L 257 332 L 255 330 L 256 329 L 257 329 L 258 328 L 256 326 L 257 325 L 290 325 L 290 323 L 259 323 L 258 322 L 258 321 L 259 320 L 257 318 L 258 317 L 258 315 L 257 314 L 258 313 L 308 313 L 309 312 L 309 310 L 310 309 L 323 309 L 324 310 L 325 309 L 326 309 L 326 308 L 325 307 L 308 307 L 307 308 L 306 307 L 305 308 L 304 307 L 303 308 L 302 307 L 298 307 L 297 308 L 296 307 L 295 308 L 294 307 L 293 308 L 292 307 L 291 308 L 290 307 L 289 308 L 287 308 L 286 307 L 285 308 L 283 308 L 282 307 L 281 308 L 271 308 L 270 307 L 269 308 L 268 307 L 267 307 L 266 306 L 267 305 L 301 305 L 302 304 L 300 302 L 302 300 L 300 298 L 301 297 L 309 297 L 310 296 L 310 294 L 311 293 L 337 293 L 338 294 L 349 294 L 350 293 L 350 292 L 349 291 L 349 290 L 350 289 L 349 288 L 349 287 L 350 286 L 361 286 L 362 285 L 362 284 L 361 283 L 361 282 L 364 279 L 371 279 L 372 280 L 373 280 L 374 281 L 413 281 L 414 280 L 414 278 L 415 277 L 415 275 L 416 274 L 417 274 L 418 273 L 433 273 L 434 272 L 444 272 L 447 275 L 447 276 L 446 277 L 446 278 L 447 279 L 447 280 L 446 281 L 446 282 L 447 283 L 447 284 L 446 285 L 446 286 L 447 287 L 446 288 L 444 288 L 443 289 L 442 288 L 441 289 L 440 288 L 439 289 L 438 288 L 436 288 L 435 289 L 434 288 L 433 289 L 432 288 L 431 289 L 430 288 L 428 288 L 427 289 L 426 288 L 424 288 L 423 289 L 422 288 L 421 288 L 420 289 L 419 289 L 418 288 L 417 289 L 395 289 L 394 288 L 391 288 L 390 289 L 390 294 L 391 294 L 392 295 L 391 296 L 390 296 L 389 297 L 388 297 L 388 298 L 386 300 L 386 305 L 388 307 L 388 309 L 390 311 L 390 312 L 389 313 L 390 314 L 390 315 L 389 316 L 388 316 L 387 317 L 382 317 L 381 316 L 376 316 L 375 317 L 374 316 L 334 316 L 334 321 L 335 322 L 373 322 L 374 321 L 379 321 L 380 322 L 381 321 L 387 321 L 388 322 L 391 322 L 392 323 L 395 323 L 398 326 L 398 333 L 402 333 L 403 332 L 404 332 L 405 331 L 412 331 L 414 333 L 414 339 L 413 340 L 414 341 L 422 341 L 423 340 L 424 341 L 425 340 L 427 340 L 428 341 L 429 340 L 430 341 L 431 341 L 432 342 L 431 343 L 430 343 L 430 345 L 431 346 L 428 349 L 427 349 L 426 348 L 424 348 L 423 349 L 422 349 L 422 355 L 421 356 L 420 356 L 419 357 L 408 357 L 408 358 L 406 360 L 406 361 L 407 362 L 402 367 L 387 367 L 387 369 L 388 370 L 387 371 L 388 372 L 395 372 L 396 371 L 397 372 L 398 372 L 399 371 L 402 374 L 401 375 L 402 376 L 402 377 L 403 378 L 402 379 L 402 382 L 401 383 L 372 383 L 372 384 L 369 387 L 367 387 L 366 386 L 366 385 L 365 385 L 364 384 L 361 384 L 361 389 L 362 390 L 362 391 L 361 392 L 354 392 L 353 393 L 354 394 L 354 397 L 355 398 L 355 399 L 354 400 L 354 402 L 353 403 L 321 403 L 320 404 L 320 405 L 324 405 L 325 406 L 340 406 L 341 405 L 354 405 L 355 406 L 358 406 L 359 405 L 401 405 L 402 406 L 403 405 L 430 405 L 430 402 L 431 401 L 437 401 L 437 395 L 436 394 L 437 393 L 445 393 L 445 390 L 446 389 L 445 388 L 445 386 L 446 385 L 460 385 L 461 384 L 461 383 L 460 382 L 460 379 L 459 378 L 460 377 L 460 375 L 459 374 L 460 373 L 460 371 L 459 370 L 460 369 L 460 366 L 461 365 L 461 364 L 462 363 L 461 363 L 460 362 L 461 361 L 461 359 L 460 358 L 463 355 L 469 355 L 469 353 L 470 352 L 470 351 L 469 350 L 470 349 L 470 348 L 471 347 L 472 347 L 472 346 L 474 344 L 474 342 L 475 341 L 476 341 L 478 339 L 478 333 L 479 332 L 480 332 L 481 331 L 482 332 L 483 331 L 484 332 L 486 332 L 487 331 L 488 331 L 488 330 L 487 329 L 487 327 L 486 326 L 486 325 L 488 323 L 490 323 L 491 322 L 494 322 L 495 321 L 493 319 L 494 318 L 494 317 L 492 315 L 493 314 L 494 314 L 494 312 L 495 311 L 496 311 L 497 310 L 498 311 L 499 310 L 512 310 L 513 309 L 512 308 L 512 303 L 513 302 L 513 296 L 512 295 L 513 294 L 513 289 L 512 288 L 486 288 L 485 287 L 486 286 L 504 286 L 504 285 L 503 285 L 502 284 L 492 284 L 491 285 L 490 284 L 485 284 L 484 283 L 485 282 L 504 282 L 504 280 L 503 280 L 502 279 L 503 278 L 509 278 L 510 279 L 511 279 L 512 280 L 515 280 L 516 281 L 517 281 L 518 282 L 518 284 L 519 285 L 518 286 L 520 288 L 521 288 L 522 289 L 522 294 L 523 294 L 524 295 L 526 293 L 526 238 L 525 237 L 518 237 L 517 238 L 514 238 L 513 239 L 512 238 L 510 238 L 509 237 L 507 237 L 506 236 L 506 234 L 504 232 L 504 231 L 505 230 L 506 230 L 506 228 L 507 227 L 508 227 L 509 226 L 526 226 L 526 213 L 525 212 L 520 212 L 519 213 L 517 213 L 518 214 L 518 215 L 519 216 L 518 217 L 518 219 L 517 220 L 511 220 L 510 219 L 509 219 L 508 218 L 509 217 L 503 217 L 502 216 L 502 213 L 501 212 L 502 211 L 502 210 L 503 209 L 514 209 L 514 208 L 513 207 L 513 206 L 514 205 L 514 203 L 515 202 L 521 202 L 522 203 L 525 203 L 526 202 L 526 184 L 525 183 L 525 182 L 526 181 L 526 180 L 525 179 L 525 178 L 526 177 L 526 171 L 525 170 L 526 169 L 526 77 L 525 76 L 525 71 L 526 70 L 526 69 L 525 68 L 526 67 L 526 37 L 525 36 L 526 35 L 526 29 L 525 28 L 526 27 L 526 25 L 525 24 L 526 23 L 526 16 L 525 16 L 524 15 L 522 17 L 522 19 L 520 21 L 499 21 L 498 20 L 497 20 L 496 19 L 496 17 L 495 17 L 494 16 L 494 13 L 493 12 L 493 10 L 494 9 L 493 8 L 494 7 L 494 5 L 426 5 L 425 6 L 411 6 L 410 5 "></path>
        <path fill="none" stroke="#ffffff" stroke-width="3" d="M 304 123 L 305 122 L 333 122 L 334 123 L 338 123 L 339 122 L 340 123 L 343 123 L 345 125 L 345 129 L 344 130 L 344 132 L 343 133 L 342 132 L 341 133 L 318 133 L 317 134 L 318 135 L 318 137 L 317 138 L 318 139 L 316 141 L 293 141 L 292 142 L 293 143 L 294 143 L 295 144 L 294 145 L 294 146 L 295 147 L 301 147 L 302 148 L 301 149 L 295 149 L 294 150 L 294 152 L 293 153 L 274 153 L 273 154 L 275 156 L 274 157 L 274 158 L 275 159 L 275 160 L 274 161 L 212 161 L 211 162 L 210 161 L 204 161 L 203 162 L 202 161 L 201 162 L 200 161 L 199 162 L 198 161 L 109 161 L 108 160 L 108 158 L 107 158 L 106 157 L 101 157 L 100 156 L 101 155 L 102 155 L 103 154 L 106 154 L 106 153 L 105 154 L 103 152 L 104 151 L 189 151 L 190 150 L 190 149 L 189 148 L 189 147 L 190 146 L 188 144 L 190 142 L 190 141 L 184 141 L 183 142 L 182 141 L 181 142 L 180 141 L 179 142 L 178 141 L 174 141 L 173 140 L 174 139 L 175 139 L 176 138 L 185 138 L 186 139 L 191 139 L 192 140 L 193 139 L 284 139 L 285 138 L 283 136 L 283 135 L 284 134 L 283 133 L 283 132 L 284 131 L 286 131 L 287 130 L 288 131 L 289 130 L 290 131 L 291 130 L 305 130 L 306 129 L 305 129 L 303 127 L 305 125 L 303 125 L 302 124 L 303 123 "></path>
        <path fill="none" stroke="#ffffff" stroke-width="3" d="M 335 74 L 343 74 L 345 76 L 344 77 L 344 78 L 345 78 L 346 79 L 344 81 L 342 81 L 342 82 L 343 82 L 344 83 L 342 85 L 340 85 L 340 87 L 338 89 L 339 90 L 364 90 L 366 92 L 365 93 L 366 94 L 366 96 L 365 97 L 365 98 L 366 99 L 365 100 L 364 100 L 363 101 L 362 101 L 362 102 L 363 103 L 363 104 L 362 105 L 363 106 L 364 106 L 366 108 L 366 110 L 367 111 L 367 112 L 366 113 L 366 116 L 365 117 L 344 117 L 343 116 L 342 116 L 341 115 L 342 114 L 342 113 L 341 112 L 343 110 L 342 109 L 341 109 L 340 108 L 339 109 L 335 109 L 334 108 L 324 108 L 323 109 L 313 109 L 312 108 L 311 108 L 310 107 L 310 105 L 309 105 L 308 104 L 309 103 L 310 103 L 311 102 L 314 102 L 315 101 L 317 101 L 316 100 L 317 99 L 318 99 L 319 98 L 329 98 L 330 97 L 328 95 L 329 94 L 329 93 L 328 93 L 327 92 L 328 91 L 328 89 L 327 88 L 327 87 L 328 86 L 328 85 L 327 85 L 326 84 L 328 82 L 329 82 L 330 81 L 330 80 L 331 79 L 332 79 L 334 77 L 333 76 "></path>
        <path fill="none" stroke="#ffffff" stroke-width="3" d="M 350 132 L 351 131 L 372 131 L 374 133 L 373 134 L 374 135 L 374 137 L 373 138 L 373 141 L 372 142 L 373 143 L 373 145 L 372 146 L 373 147 L 373 149 L 372 150 L 373 151 L 373 153 L 372 154 L 373 155 L 373 157 L 372 158 L 373 158 L 374 159 L 381 159 L 384 162 L 384 164 L 381 167 L 378 167 L 377 168 L 374 168 L 372 166 L 359 166 L 358 165 L 358 162 L 357 161 L 358 160 L 358 158 L 343 158 L 342 157 L 342 156 L 341 155 L 342 154 L 341 153 L 341 152 L 342 151 L 342 146 L 341 145 L 341 144 L 342 143 L 342 140 L 343 139 L 352 139 L 352 137 L 351 136 L 351 135 L 352 134 L 351 134 L 350 133 "></path>
        <path fill="none" stroke="#ffffff" stroke-width="3" d="M 196 70 L 214 70 L 215 71 L 244 71 L 245 70 L 246 71 L 247 70 L 251 70 L 252 71 L 253 70 L 254 71 L 262 71 L 263 72 L 261 74 L 263 76 L 262 77 L 262 79 L 263 80 L 261 82 L 261 83 L 262 84 L 261 85 L 257 85 L 256 86 L 255 86 L 254 85 L 198 85 L 197 84 L 198 83 L 198 82 L 196 80 L 196 79 L 197 78 L 196 77 L 196 74 L 194 72 "></path>
        <path fill="none" stroke="#ffffff" stroke-width="3" d="M 423 46 L 433 46 L 434 47 L 435 46 L 437 46 L 438 47 L 439 46 L 457 46 L 458 47 L 506 47 L 507 48 L 506 49 L 506 51 L 507 51 L 508 52 L 507 53 L 506 53 L 506 54 L 505 55 L 505 56 L 504 57 L 423 57 L 422 56 L 422 53 L 421 52 L 421 51 L 422 50 L 422 49 L 421 48 "></path>
        <path fill="none" stroke="#ffffff" stroke-width="3" d="M 197 88 L 198 87 L 212 87 L 213 88 L 213 90 L 215 90 L 216 91 L 217 90 L 218 91 L 219 90 L 220 91 L 221 90 L 225 90 L 226 91 L 227 90 L 229 90 L 230 91 L 231 90 L 232 91 L 233 90 L 234 91 L 235 90 L 236 91 L 237 90 L 238 91 L 239 90 L 240 91 L 241 90 L 242 91 L 243 90 L 244 91 L 245 90 L 246 91 L 247 90 L 248 91 L 249 90 L 250 91 L 251 90 L 252 91 L 253 90 L 254 91 L 255 90 L 256 91 L 257 90 L 258 91 L 273 91 L 274 92 L 273 93 L 266 93 L 266 95 L 267 95 L 268 96 L 267 97 L 266 97 L 263 100 L 262 100 L 261 101 L 247 101 L 246 100 L 243 100 L 242 99 L 242 98 L 226 98 L 225 97 L 199 97 L 198 96 L 198 94 L 196 92 L 196 91 L 197 90 "></path>
        <path fill="none" stroke="#ffffff" stroke-width="3" d="M 384 63 L 387 63 L 389 65 L 390 65 L 392 67 L 392 68 L 391 69 L 390 69 L 391 70 L 422 70 L 423 71 L 425 71 L 426 72 L 426 75 L 427 76 L 426 77 L 426 79 L 425 80 L 424 80 L 423 81 L 422 80 L 421 81 L 411 81 L 410 80 L 409 81 L 406 81 L 406 86 L 407 87 L 407 88 L 406 89 L 406 91 L 404 93 L 399 93 L 397 91 L 398 90 L 398 89 L 397 89 L 396 88 L 398 86 L 398 85 L 397 84 L 398 83 L 398 81 L 391 81 L 389 79 L 389 77 L 388 76 L 390 74 L 390 73 L 383 73 L 381 71 L 381 69 L 380 68 L 380 67 L 381 66 L 382 66 L 382 65 "></path>
        <path fill="none" stroke="#ffffff" stroke-width="3" d="M 338 170 L 339 169 L 374 169 L 376 171 L 376 172 L 375 173 L 374 173 L 374 174 L 373 175 L 372 175 L 371 176 L 370 176 L 369 177 L 369 178 L 368 179 L 332 179 L 331 180 L 330 179 L 329 180 L 328 179 L 328 181 L 335 181 L 336 182 L 335 183 L 323 183 L 322 182 L 323 181 L 324 181 L 324 179 L 323 179 L 322 178 L 322 177 L 323 176 L 324 177 L 324 176 L 325 175 L 326 176 L 326 177 L 326 176 L 327 175 L 328 176 L 328 177 L 329 176 L 330 177 L 330 176 L 331 175 L 332 176 L 332 177 L 336 177 L 336 175 L 338 173 "></path>
        <path fill="none" stroke="#ffffff" stroke-width="3" d="M 367 388 L 392 388 L 394 390 L 393 391 L 394 392 L 394 398 L 393 399 L 393 401 L 392 402 L 390 402 L 389 403 L 385 403 L 384 402 L 378 402 L 377 403 L 368 403 L 365 400 L 365 399 L 364 398 L 364 394 L 365 393 L 365 392 L 366 391 L 365 390 "></path>
        <path fill="none" stroke="#ffffff" stroke-width="3" d="M 190 99 L 191 98 L 197 98 L 198 99 L 227 99 L 228 100 L 227 101 L 222 101 L 222 102 L 223 102 L 224 103 L 225 102 L 226 103 L 227 102 L 228 103 L 229 103 L 230 104 L 229 105 L 224 105 L 223 106 L 195 106 L 194 105 L 191 105 L 190 104 L 191 103 L 192 103 L 193 102 L 192 101 L 191 101 L 190 100 "></path>
        <path fill="none" stroke="#ffffff" stroke-width="3" d="M 214 175 L 215 174 L 216 175 L 237 175 L 238 176 L 238 179 L 240 179 L 241 180 L 240 181 L 239 181 L 238 182 L 238 183 L 239 183 L 240 184 L 239 185 L 219 185 L 218 184 L 219 183 L 220 183 L 220 182 L 219 181 L 218 181 L 217 180 L 218 179 L 220 179 L 220 177 L 203 177 L 202 176 L 203 175 "></path>
        <path fill="none" stroke="#ffffff" stroke-width="3" d="M 198 167 L 199 166 L 205 166 L 206 167 L 207 166 L 208 167 L 210 167 L 211 166 L 212 167 L 237 167 L 238 168 L 237 169 L 232 169 L 231 170 L 230 169 L 220 169 L 219 170 L 218 169 L 217 170 L 216 169 L 215 170 L 214 169 L 213 170 L 212 169 L 211 170 L 210 169 L 208 169 L 207 170 L 206 169 L 204 169 L 203 170 L 202 169 L 200 169 L 199 170 L 198 169 L 149 169 L 148 168 L 149 167 "></path>
        <path fill="none" stroke="#ffffff" stroke-width="3" d="M 158 91 L 159 90 L 160 91 L 161 90 L 171 90 L 172 91 L 173 90 L 174 91 L 175 91 L 176 92 L 176 95 L 177 96 L 173 100 L 159 100 L 158 99 L 158 97 L 156 95 L 158 93 "></path>
        <path fill="none" stroke="#ffffff" stroke-width="3" d="M 426 99 L 427 98 L 429 98 L 430 99 L 445 99 L 446 100 L 446 101 L 445 102 L 444 102 L 446 104 L 446 105 L 445 106 L 438 106 L 436 108 L 435 108 L 434 109 L 432 109 L 431 110 L 428 110 L 426 108 L 426 105 L 425 104 L 426 103 "></path>
        <path fill="none" stroke="#ffffff" stroke-width="3" d="M 214 171 L 215 170 L 217 170 L 218 171 L 219 170 L 220 171 L 233 171 L 234 172 L 233 173 L 220 173 L 219 174 L 218 173 L 217 174 L 213 174 L 212 173 L 211 174 L 210 173 L 155 173 L 154 172 L 155 171 "></path>
        <path fill="none" stroke="#ffffff" stroke-width="3" d="M 346 56 L 347 55 L 357 55 L 360 58 L 363 58 L 364 59 L 365 59 L 366 60 L 365 61 L 362 61 L 362 62 L 363 62 L 364 63 L 364 64 L 363 65 L 362 64 L 361 65 L 355 65 L 352 62 L 351 62 L 350 61 L 343 61 L 342 60 L 343 59 L 350 59 L 350 58 L 347 58 L 346 57 "></path>
        <path fill="none" stroke="#ffffff" stroke-width="3" d="M 342 64 L 343 63 L 349 63 L 350 64 L 350 66 L 351 66 L 352 67 L 353 67 L 354 68 L 353 69 L 352 69 L 352 70 L 353 70 L 354 71 L 352 73 L 347 73 L 342 68 "></path>
        <path fill="none" stroke="#ffffff" stroke-width="3" d="M 422 295 L 423 294 L 431 294 L 433 296 L 433 297 L 434 298 L 434 300 L 432 302 L 432 303 L 431 304 L 427 304 L 426 303 L 426 302 L 424 300 L 424 297 "></path>
        <path fill="none" stroke="#ffffff" stroke-width="3" d="M 247 130 L 248 131 L 249 130 L 250 131 L 251 130 L 252 131 L 253 130 L 254 131 L 255 130 L 256 131 L 264 131 L 265 132 L 264 133 L 262 133 L 261 134 L 260 134 L 260 135 L 261 134 L 262 135 L 262 136 L 261 137 L 253 137 L 252 136 L 252 135 L 253 134 L 254 135 L 254 134 L 249 134 L 248 133 L 246 133 L 245 132 "></path>
        <path fill="none" stroke="#ffffff" stroke-width="3" d="M 452 218 L 453 217 L 457 217 L 459 219 L 458 220 L 456 220 L 455 221 L 454 220 L 453 221 L 452 220 L 451 221 L 450 220 L 444 220 L 443 221 L 442 220 L 440 220 L 439 221 L 438 220 L 428 220 L 427 221 L 426 220 L 423 220 L 422 219 L 423 218 "></path>
        <path fill="none" stroke="#ffffff" stroke-width="3" d="M 498 135 L 499 134 L 521 134 L 522 135 L 522 136 L 521 137 L 499 137 L 498 136 "></path>
        <path fill="none" stroke="#ffffff" stroke-width="3" d="M 157 176 L 158 175 L 191 175 L 192 176 L 191 177 L 158 177 "></path>
        <path fill="none" stroke="#ffffff" stroke-width="3" d="M 363 49 L 367 49 L 368 50 L 370 50 L 371 51 L 371 52 L 370 53 L 369 53 L 371 55 L 369 57 L 363 57 L 362 56 L 362 53 L 361 52 L 361 51 "></path>
        <path fill="none" stroke="#ffffff" stroke-width="3" d="M 298 193 L 299 192 L 300 193 L 301 193 L 302 194 L 301 195 L 300 195 L 300 197 L 301 197 L 302 198 L 301 199 L 300 199 L 300 200 L 299 201 L 298 201 L 299 201 L 300 202 L 299 203 L 295 203 L 294 202 L 294 194 L 295 193 "></path>
        <path fill="none" stroke="#ffffff" stroke-width="3" d="M 174 119 L 175 118 L 197 118 L 198 119 L 197 120 L 196 120 L 195 121 L 194 120 L 193 121 L 192 120 L 191 121 L 190 120 L 189 121 L 188 120 L 187 121 L 175 121 L 174 120 "></path>
        <path fill="none" stroke="#ffffff" stroke-width="3" d="M 158 180 L 159 179 L 189 179 L 190 180 L 189 181 L 164 181 L 163 182 L 162 181 L 159 181 "></path>
        <path fill="none" stroke="#ffffff" stroke-width="3" d="M 274 309 L 275 308 L 276 309 L 299 309 L 300 310 L 299 311 L 269 311 L 268 310 L 269 309 "></path>
        <path fill="none" stroke="#ffffff" stroke-width="3" d="M 157 390 L 158 389 L 181 389 L 182 390 L 180 392 L 175 392 L 174 391 L 170 391 L 169 392 L 168 391 L 167 392 L 166 391 L 158 391 "></path>
        <path fill="none" stroke="#ffffff" stroke-width="3" d="M 498 131 L 499 130 L 500 131 L 501 130 L 502 131 L 503 130 L 504 131 L 505 130 L 506 131 L 507 130 L 508 131 L 509 130 L 510 131 L 511 130 L 512 131 L 513 130 L 514 131 L 515 130 L 516 131 L 517 130 L 518 131 L 519 131 L 520 132 L 519 133 L 499 133 L 498 132 "></path>
        <path fill="none" stroke="#ffffff" stroke-width="3" d="M 432 92 L 433 91 L 445 91 L 446 92 L 451 92 L 452 93 L 451 94 L 434 94 "></path>
        <path fill="none" stroke="#ffffff" stroke-width="3" d="M 220 192 L 221 191 L 245 191 L 246 192 L 245 193 L 221 193 "></path>
        <path fill="none" stroke="#ffffff" stroke-width="3" d="M 220 200 L 221 199 L 245 199 L 246 200 L 245 201 L 221 201 "></path>
        <path fill="none" stroke="#ffffff" stroke-width="3" d="M 220 196 L 221 195 L 244 195 L 245 196 L 244 197 L 221 197 "></path>
        <path fill="none" stroke="#ffffff" stroke-width="3" d="M 462 67 L 463 66 L 464 67 L 474 67 L 475 66 L 476 67 L 479 67 L 480 68 L 479 69 L 476 69 L 475 70 L 474 69 L 464 69 L 463 70 L 462 69 L 458 69 L 457 68 L 458 67 "></path>
        <path fill="none" stroke="#ffffff" stroke-width="3" d="M 454 64 L 455 63 L 477 63 L 478 64 L 477 65 L 476 65 L 475 66 L 474 65 L 464 65 L 463 66 L 462 65 L 455 65 "></path>
        <path fill="none" stroke="#ffffff" stroke-width="3" d="M 76 153 L 77 152 L 80 152 L 81 153 L 80 154 L 81 154 L 82 155 L 82 157 L 81 158 L 80 158 L 81 158 L 82 159 L 83 159 L 84 160 L 83 161 L 78 161 L 77 160 L 78 159 L 78 158 L 75 158 L 74 157 L 75 156 L 76 156 L 78 154 L 77 154 "></path>
        <path fill="none" stroke="#ffffff" stroke-width="3" d="M 290 100 L 291 99 L 297 99 L 298 100 L 296 102 L 296 103 L 297 103 L 298 104 L 296 106 L 291 106 L 289 104 L 290 103 L 292 103 L 292 102 L 291 102 L 290 101 "></path>
        <path fill="none" stroke="#ffffff" stroke-width="3" d="M 250 63 L 251 62 L 252 63 L 254 63 L 255 64 L 254 65 L 253 65 L 252 66 L 253 67 L 253 68 L 252 69 L 247 69 L 246 68 L 246 67 L 247 66 L 248 66 L 247 66 L 246 65 L 245 65 L 244 64 L 245 63 "></path>
        <path fill="none" stroke="#ffffff" stroke-width="3" d="M 485 275 L 486 274 L 507 274 L 508 275 L 507 276 L 500 276 L 499 277 L 498 276 L 486 276 "></path>
        <path fill="none" stroke="#ffffff" stroke-width="3" d="M 66 141 L 67 140 L 87 140 L 88 141 L 87 142 L 67 142 "></path>
        <path fill="none" stroke="#ffffff" stroke-width="3" d="M 170 184 L 171 183 L 188 183 L 189 184 L 188 185 L 171 185 "></path>
        <path fill="none" stroke="#ffffff" stroke-width="3" d="M 286 186 L 287 185 L 292 185 L 293 186 L 292 187 L 292 190 L 291 191 L 287 191 L 286 190 "></path>
        <path fill="none" stroke="#ffffff" stroke-width="3" d="M 174 123 L 175 122 L 191 122 L 192 123 L 191 124 L 175 124 "></path>
        <path fill="none" stroke="#ffffff" stroke-width="3" d="M 385 226 L 386 225 L 396 225 L 398 227 L 397 228 L 387 228 "></path>
        <path fill="none" stroke="#ffffff" stroke-width="3" d="M 484 279 L 485 278 L 501 278 L 502 279 L 501 280 L 485 280 "></path>
        <path fill="none" stroke="#ffffff" stroke-width="3" d="M 269 16 L 270 15 L 281 15 L 282 16 L 281 17 L 280 17 L 279 18 L 271 18 "></path>
        <path fill="none" stroke="#ffffff" stroke-width="3" d="M 434 96 L 435 95 L 447 95 L 448 96 L 448 97 L 447 98 L 442 98 L 441 97 L 435 97 "></path>
        <path fill="none" stroke="#ffffff" stroke-width="3" d="M 238 277 L 239 276 L 240 277 L 242 277 L 243 276 L 244 277 L 248 277 L 249 278 L 248 279 L 234 279 L 233 278 L 234 277 "></path>
        <path fill="none" stroke="#ffffff" stroke-width="3" d="M 364 67 L 365 66 L 373 66 L 374 67 L 374 68 L 373 69 L 363 69 L 362 68 L 363 67 "></path>
        <path fill="none" stroke="#ffffff" stroke-width="3" d="M 242 231 L 243 230 L 253 230 L 254 231 L 253 232 L 252 232 L 251 233 L 250 232 L 249 233 L 243 233 L 242 232 "></path>
        <path fill="none" stroke="#ffffff" stroke-width="3" d="M 305 5 L 304 6 L 293 6 L 293 7 L 295 9 L 294 10 L 293 10 L 293 11 L 291 13 L 280 13 L 279 14 L 277 14 L 276 13 L 275 14 L 273 14 L 272 13 L 262 13 L 261 12 L 262 11 L 260 9 L 254 9 L 253 10 L 252 9 L 251 10 L 250 9 L 249 10 L 248 9 L 247 10 L 246 9 L 245 10 L 244 9 L 243 10 L 242 9 L 241 10 L 240 9 L 239 10 L 238 9 L 237 10 L 236 9 L 235 10 L 234 9 L 233 10 L 232 9 L 231 10 L 230 9 L 224 9 L 223 10 L 222 10 L 222 11 L 220 13 L 194 13 L 193 14 L 195 16 L 193 18 L 194 19 L 194 20 L 193 21 L 179 21 L 179 22 L 180 23 L 180 24 L 179 25 L 180 26 L 191 26 L 192 27 L 233 27 L 234 28 L 234 30 L 235 31 L 235 32 L 234 33 L 234 34 L 235 35 L 235 36 L 234 37 L 234 40 L 233 41 L 223 41 L 222 40 L 190 40 L 189 41 L 142 41 L 141 42 L 143 44 L 141 46 L 141 47 L 139 49 L 134 49 L 134 51 L 135 52 L 134 53 L 134 54 L 135 55 L 133 57 L 125 57 L 125 58 L 127 60 L 125 62 L 126 63 L 125 64 L 124 64 L 123 65 L 121 65 L 121 66 L 122 67 L 122 68 L 121 69 L 121 70 L 122 71 L 121 72 L 120 72 L 119 73 L 121 75 L 119 77 L 121 79 L 120 80 L 119 80 L 118 81 L 110 81 L 110 82 L 111 82 L 112 83 L 116 83 L 117 82 L 118 83 L 118 84 L 117 85 L 113 85 L 114 86 L 121 86 L 122 87 L 121 88 L 119 88 L 118 89 L 114 89 L 114 91 L 113 92 L 112 92 L 111 93 L 113 95 L 112 96 L 112 98 L 122 98 L 123 99 L 122 100 L 108 100 L 107 101 L 106 100 L 103 100 L 102 101 L 99 101 L 98 102 L 98 106 L 97 107 L 97 109 L 96 110 L 96 113 L 95 114 L 94 114 L 93 115 L 92 115 L 92 116 L 91 117 L 63 117 L 62 118 L 62 119 L 63 120 L 62 121 L 62 122 L 61 123 L 60 123 L 59 124 L 58 123 L 57 124 L 56 123 L 55 124 L 54 123 L 52 123 L 51 124 L 50 123 L 49 124 L 48 123 L 47 123 L 44 120 L 45 119 L 45 118 L 44 117 L 2 117 L 1 118 L 1 119 L 2 120 L 1 121 L 1 123 L 2 124 L 2 125 L 1 126 L 1 127 L 2 128 L 1 129 L 1 131 L 2 132 L 1 133 L 1 135 L 2 136 L 1 137 L 1 166 L 2 167 L 2 168 L 1 169 L 1 191 L 8 191 L 9 190 L 10 191 L 11 190 L 12 191 L 14 191 L 15 190 L 16 191 L 18 191 L 19 190 L 20 191 L 22 191 L 23 190 L 24 191 L 25 190 L 26 191 L 27 190 L 28 191 L 29 190 L 30 191 L 31 190 L 32 191 L 33 190 L 40 190 L 41 191 L 42 191 L 43 192 L 41 194 L 43 196 L 42 197 L 40 197 L 39 198 L 38 197 L 37 198 L 36 197 L 32 197 L 31 198 L 29 198 L 30 199 L 28 201 L 20 201 L 19 202 L 20 203 L 34 203 L 35 202 L 36 203 L 37 202 L 38 203 L 39 202 L 40 203 L 41 202 L 42 203 L 43 202 L 45 202 L 46 203 L 47 202 L 49 202 L 50 203 L 77 203 L 78 202 L 78 201 L 77 200 L 77 199 L 78 198 L 77 197 L 77 196 L 78 195 L 78 194 L 77 193 L 64 193 L 63 194 L 62 193 L 61 194 L 60 193 L 59 194 L 57 192 L 59 190 L 60 191 L 61 190 L 62 191 L 70 191 L 70 189 L 69 188 L 70 187 L 70 185 L 7 185 L 5 183 L 6 182 L 6 181 L 5 180 L 5 179 L 6 178 L 6 177 L 5 176 L 5 175 L 6 174 L 6 168 L 7 167 L 8 167 L 9 166 L 35 166 L 36 167 L 38 167 L 39 166 L 40 167 L 40 168 L 38 170 L 38 173 L 37 174 L 38 175 L 44 175 L 45 174 L 46 175 L 47 174 L 48 175 L 49 174 L 50 175 L 51 174 L 53 174 L 54 175 L 55 174 L 56 175 L 61 175 L 62 174 L 62 173 L 61 172 L 62 171 L 62 170 L 61 169 L 54 169 L 53 170 L 52 169 L 51 170 L 50 169 L 48 169 L 46 167 L 46 166 L 44 164 L 46 162 L 45 161 L 47 159 L 55 159 L 56 160 L 57 160 L 58 161 L 58 162 L 59 162 L 60 163 L 64 163 L 65 162 L 66 163 L 67 162 L 73 162 L 74 163 L 75 162 L 77 162 L 78 163 L 79 162 L 81 162 L 82 163 L 83 162 L 85 162 L 86 163 L 87 162 L 93 162 L 94 163 L 95 162 L 97 162 L 98 163 L 99 162 L 101 162 L 102 163 L 103 162 L 105 162 L 106 163 L 107 162 L 108 163 L 137 163 L 138 164 L 136 166 L 137 166 L 138 167 L 145 167 L 146 168 L 145 169 L 144 169 L 143 170 L 142 169 L 141 170 L 140 169 L 139 170 L 138 169 L 136 169 L 135 170 L 134 169 L 133 170 L 132 169 L 131 170 L 130 169 L 129 170 L 119 170 L 118 169 L 117 170 L 115 170 L 114 169 L 113 170 L 111 170 L 110 169 L 109 170 L 107 170 L 106 169 L 105 170 L 103 170 L 102 169 L 101 170 L 99 170 L 98 169 L 97 170 L 96 169 L 72 169 L 71 170 L 70 170 L 70 171 L 71 172 L 70 173 L 70 174 L 71 175 L 86 175 L 87 174 L 88 175 L 90 175 L 91 174 L 92 175 L 94 175 L 95 174 L 96 175 L 97 174 L 98 175 L 99 174 L 100 175 L 101 174 L 102 175 L 103 174 L 104 175 L 105 174 L 106 175 L 107 174 L 108 175 L 109 174 L 110 175 L 111 174 L 112 175 L 114 175 L 115 174 L 116 175 L 118 175 L 119 174 L 120 175 L 122 175 L 123 174 L 124 175 L 125 174 L 126 175 L 127 174 L 128 175 L 151 175 L 152 176 L 151 177 L 151 179 L 152 180 L 152 181 L 150 183 L 150 184 L 149 185 L 143 185 L 143 186 L 144 187 L 147 187 L 148 186 L 152 186 L 153 187 L 154 187 L 155 188 L 153 190 L 154 191 L 154 192 L 152 194 L 153 194 L 154 195 L 154 196 L 152 198 L 153 198 L 154 199 L 154 200 L 152 202 L 153 203 L 151 205 L 122 205 L 121 206 L 121 210 L 122 211 L 122 213 L 121 214 L 121 218 L 122 219 L 137 219 L 138 220 L 138 221 L 137 222 L 138 223 L 138 226 L 139 226 L 140 227 L 145 227 L 146 228 L 145 229 L 144 229 L 143 230 L 142 230 L 143 230 L 144 231 L 146 231 L 147 232 L 146 233 L 140 233 L 139 234 L 138 233 L 134 233 L 133 234 L 132 233 L 131 234 L 130 233 L 129 234 L 128 233 L 127 234 L 126 233 L 122 233 L 121 234 L 115 234 L 114 233 L 113 234 L 112 233 L 111 234 L 110 234 L 110 235 L 112 237 L 116 237 L 117 236 L 118 237 L 119 236 L 120 237 L 123 237 L 124 238 L 125 238 L 126 239 L 126 240 L 127 240 L 128 241 L 128 243 L 130 245 L 131 245 L 132 246 L 133 245 L 134 246 L 135 245 L 138 245 L 139 244 L 162 244 L 163 243 L 173 243 L 174 244 L 204 244 L 205 243 L 206 244 L 207 243 L 229 243 L 230 244 L 231 243 L 235 243 L 236 242 L 241 242 L 242 243 L 243 242 L 247 242 L 248 243 L 253 243 L 253 237 L 252 236 L 252 235 L 253 234 L 257 234 L 258 235 L 268 235 L 269 234 L 269 233 L 268 232 L 269 231 L 269 230 L 268 229 L 259 229 L 257 227 L 258 226 L 258 223 L 259 222 L 277 222 L 279 220 L 280 220 L 281 219 L 284 219 L 285 218 L 286 218 L 286 216 L 285 215 L 287 213 L 288 213 L 289 212 L 290 212 L 291 211 L 294 211 L 294 210 L 295 209 L 295 208 L 296 207 L 295 206 L 296 205 L 306 205 L 307 204 L 308 205 L 310 203 L 321 203 L 322 202 L 322 197 L 321 196 L 322 195 L 321 194 L 322 193 L 321 193 L 320 192 L 320 191 L 315 191 L 314 190 L 314 186 L 315 185 L 321 185 L 322 186 L 321 187 L 320 187 L 320 189 L 361 189 L 362 190 L 362 200 L 361 201 L 361 202 L 360 203 L 350 203 L 350 208 L 347 211 L 342 211 L 342 212 L 343 213 L 343 214 L 342 215 L 343 216 L 343 217 L 342 218 L 341 218 L 340 219 L 334 219 L 334 221 L 356 221 L 357 222 L 356 223 L 356 225 L 357 226 L 356 227 L 354 227 L 353 228 L 344 228 L 341 231 L 320 231 L 318 233 L 319 234 L 318 235 L 311 235 L 310 236 L 310 241 L 308 243 L 290 243 L 289 244 L 289 246 L 288 247 L 287 247 L 286 248 L 286 249 L 287 250 L 286 251 L 267 251 L 266 252 L 266 253 L 267 254 L 267 256 L 269 258 L 268 259 L 268 261 L 273 261 L 274 262 L 273 263 L 251 263 L 251 265 L 252 266 L 252 269 L 263 269 L 264 270 L 263 271 L 231 271 L 230 272 L 230 277 L 231 277 L 232 278 L 231 279 L 227 279 L 226 278 L 226 274 L 225 274 L 224 273 L 202 273 L 202 279 L 205 279 L 206 280 L 207 279 L 208 280 L 209 280 L 210 281 L 210 287 L 211 287 L 212 288 L 219 288 L 220 289 L 222 289 L 223 290 L 222 291 L 222 293 L 223 294 L 222 295 L 222 301 L 223 302 L 223 303 L 224 304 L 228 304 L 229 305 L 231 305 L 232 306 L 231 307 L 230 307 L 230 308 L 231 309 L 231 310 L 230 311 L 230 313 L 231 314 L 230 315 L 230 318 L 229 319 L 230 320 L 230 321 L 237 321 L 238 322 L 237 323 L 238 324 L 238 325 L 239 326 L 238 327 L 238 330 L 237 331 L 233 331 L 232 330 L 231 331 L 229 331 L 229 332 L 228 333 L 228 336 L 227 337 L 226 337 L 225 338 L 206 338 L 204 340 L 198 340 L 197 341 L 198 342 L 198 343 L 197 344 L 197 346 L 195 348 L 185 348 L 184 347 L 179 347 L 178 348 L 178 354 L 177 355 L 171 355 L 170 356 L 170 357 L 171 357 L 172 358 L 172 361 L 173 361 L 174 362 L 174 363 L 173 364 L 162 364 L 161 365 L 162 366 L 162 369 L 163 370 L 162 371 L 162 374 L 160 376 L 143 376 L 142 375 L 140 375 L 139 376 L 138 376 L 139 377 L 153 377 L 155 379 L 154 380 L 153 380 L 154 381 L 163 381 L 164 382 L 163 383 L 162 383 L 161 384 L 157 384 L 156 383 L 155 384 L 154 384 L 154 385 L 181 385 L 182 386 L 180 388 L 175 388 L 174 387 L 172 387 L 171 388 L 158 388 L 157 387 L 155 387 L 154 388 L 154 389 L 155 390 L 153 392 L 154 393 L 181 393 L 182 394 L 180 396 L 170 396 L 171 397 L 183 397 L 184 398 L 183 399 L 182 399 L 181 400 L 137 400 L 136 399 L 126 399 L 126 402 L 125 403 L 125 404 L 126 405 L 191 405 L 192 406 L 217 406 L 218 405 L 221 405 L 222 404 L 220 402 L 220 401 L 221 400 L 220 399 L 219 399 L 218 398 L 219 397 L 229 397 L 230 396 L 230 395 L 229 394 L 229 393 L 230 392 L 230 391 L 229 390 L 230 389 L 248 389 L 249 388 L 249 387 L 248 386 L 249 385 L 249 384 L 250 383 L 249 382 L 250 381 L 257 381 L 258 380 L 257 379 L 257 376 L 251 376 L 250 375 L 249 375 L 248 374 L 249 373 L 250 373 L 250 372 L 249 371 L 249 370 L 250 369 L 250 367 L 249 366 L 250 365 L 250 364 L 249 363 L 249 361 L 250 360 L 250 359 L 249 358 L 250 357 L 264 357 L 265 356 L 263 354 L 265 352 L 264 352 L 263 351 L 262 351 L 261 352 L 259 352 L 258 351 L 257 351 L 256 350 L 257 349 L 264 349 L 265 348 L 264 347 L 262 347 L 261 348 L 259 348 L 258 347 L 257 347 L 256 346 L 257 345 L 258 345 L 259 344 L 260 345 L 265 345 L 266 344 L 265 344 L 264 343 L 266 341 L 266 339 L 257 339 L 256 338 L 258 336 L 257 336 L 256 335 L 256 334 L 257 333 L 257 332 L 255 330 L 256 329 L 257 329 L 258 328 L 256 326 L 257 325 L 290 325 L 290 323 L 259 323 L 258 322 L 258 321 L 259 320 L 257 318 L 258 317 L 258 315 L 257 314 L 258 313 L 308 313 L 309 312 L 309 310 L 310 309 L 323 309 L 324 310 L 325 309 L 326 309 L 326 308 L 325 307 L 308 307 L 307 308 L 306 307 L 305 308 L 304 307 L 303 308 L 302 307 L 298 307 L 297 308 L 296 307 L 295 308 L 294 307 L 293 308 L 292 307 L 291 308 L 290 307 L 289 308 L 287 308 L 286 307 L 285 308 L 283 308 L 282 307 L 281 308 L 271 308 L 270 307 L 269 308 L 268 307 L 267 307 L 266 306 L 267 305 L 301 305 L 302 304 L 300 302 L 302 300 L 300 298 L 301 297 L 309 297 L 310 296 L 310 294 L 311 293 L 337 293 L 338 294 L 349 294 L 350 293 L 350 292 L 349 291 L 349 290 L 350 289 L 349 288 L 349 287 L 350 286 L 361 286 L 362 285 L 362 284 L 361 283 L 361 282 L 364 279 L 371 279 L 372 280 L 373 280 L 374 281 L 413 281 L 414 280 L 414 278 L 415 277 L 415 275 L 416 274 L 417 274 L 418 273 L 433 273 L 434 272 L 444 272 L 447 275 L 447 276 L 446 277 L 446 278 L 447 279 L 447 280 L 446 281 L 446 282 L 447 283 L 447 284 L 446 285 L 446 286 L 447 287 L 446 288 L 444 288 L 443 289 L 442 288 L 441 289 L 440 288 L 439 289 L 438 288 L 436 288 L 435 289 L 434 288 L 433 289 L 432 288 L 431 289 L 430 288 L 428 288 L 427 289 L 426 288 L 424 288 L 423 289 L 422 288 L 421 288 L 420 289 L 419 289 L 418 288 L 417 289 L 395 289 L 394 288 L 391 288 L 390 289 L 390 294 L 391 294 L 392 295 L 391 296 L 390 296 L 389 297 L 388 297 L 388 298 L 386 300 L 386 305 L 388 307 L 388 309 L 390 311 L 390 312 L 389 313 L 390 314 L 390 315 L 389 316 L 388 316 L 387 317 L 382 317 L 381 316 L 376 316 L 375 317 L 374 316 L 334 316 L 334 321 L 335 322 L 373 322 L 374 321 L 379 321 L 380 322 L 381 321 L 387 321 L 388 322 L 391 322 L 392 323 L 395 323 L 398 326 L 398 333 L 402 333 L 403 332 L 404 332 L 405 331 L 412 331 L 414 333 L 414 339 L 413 340 L 414 341 L 422 341 L 423 340 L 424 341 L 425 340 L 427 340 L 428 341 L 429 340 L 430 341 L 431 341 L 432 342 L 431 343 L 430 343 L 430 345 L 431 346 L 428 349 L 427 349 L 426 348 L 424 348 L 423 349 L 422 349 L 422 355 L 421 356 L 420 356 L 419 357 L 408 357 L 408 358 L 406 360 L 406 361 L 407 362 L 402 367 L 387 367 L 387 369 L 388 370 L 387 371 L 388 372 L 395 372 L 396 371 L 397 372 L 398 372 L 399 371 L 402 374 L 401 375 L 402 376 L 402 377 L 403 378 L 402 379 L 402 382 L 401 383 L 372 383 L 372 384 L 369 387 L 367 387 L 366 386 L 366 385 L 365 385 L 364 384 L 361 384 L 360 385 L 361 386 L 361 389 L 362 390 L 362 391 L 361 392 L 354 392 L 353 393 L 354 394 L 354 397 L 355 398 L 355 399 L 354 400 L 354 402 L 353 403 L 321 403 L 320 404 L 320 405 L 324 405 L 325 406 L 340 406 L 341 405 L 354 405 L 355 406 L 358 406 L 359 405 L 401 405 L 402 406 L 403 405 L 430 405 L 430 402 L 431 401 L 437 401 L 437 395 L 436 394 L 437 393 L 445 393 L 445 390 L 446 389 L 445 388 L 445 386 L 446 385 L 460 385 L 461 384 L 461 383 L 460 382 L 460 379 L 459 378 L 460 377 L 460 375 L 459 374 L 460 373 L 460 371 L 459 370 L 460 369 L 460 366 L 461 365 L 461 364 L 462 363 L 461 363 L 460 362 L 461 361 L 461 359 L 460 358 L 463 355 L 469 355 L 469 353 L 470 352 L 470 351 L 469 350 L 470 349 L 470 348 L 471 347 L 472 347 L 472 346 L 474 344 L 474 342 L 475 341 L 476 341 L 478 339 L 478 333 L 479 332 L 480 332 L 481 331 L 482 332 L 483 331 L 484 332 L 486 332 L 487 331 L 488 331 L 488 330 L 487 329 L 487 327 L 486 326 L 486 325 L 488 323 L 490 323 L 491 322 L 494 322 L 495 321 L 493 319 L 494 318 L 494 317 L 492 315 L 493 314 L 494 314 L 494 312 L 495 311 L 496 311 L 497 310 L 498 311 L 499 310 L 512 310 L 513 309 L 512 308 L 512 303 L 513 302 L 513 296 L 512 295 L 513 294 L 513 289 L 512 288 L 486 288 L 485 287 L 486 286 L 504 286 L 504 285 L 503 285 L 502 284 L 492 284 L 491 285 L 490 284 L 485 284 L 484 283 L 485 282 L 504 282 L 504 280 L 503 280 L 502 279 L 503 278 L 509 278 L 510 279 L 511 279 L 512 280 L 515 280 L 516 281 L 517 281 L 518 282 L 518 284 L 519 285 L 518 286 L 520 288 L 521 288 L 522 289 L 522 294 L 523 294 L 524 295 L 526 293 L 526 238 L 525 237 L 518 237 L 517 238 L 514 238 L 513 239 L 512 238 L 510 238 L 509 237 L 507 237 L 506 236 L 506 234 L 504 232 L 504 231 L 505 230 L 506 230 L 506 228 L 507 227 L 508 227 L 509 226 L 526 226 L 526 213 L 525 212 L 520 212 L 519 213 L 517 213 L 518 214 L 518 215 L 519 216 L 518 217 L 518 219 L 517 220 L 511 220 L 510 219 L 509 219 L 508 218 L 509 217 L 503 217 L 502 216 L 502 213 L 501 212 L 502 211 L 502 210 L 503 209 L 514 209 L 514 208 L 513 207 L 513 206 L 514 205 L 514 203 L 515 202 L 521 202 L 522 203 L 525 203 L 526 202 L 526 184 L 525 183 L 525 182 L 526 181 L 526 180 L 525 179 L 525 178 L 526 177 L 526 171 L 525 170 L 526 169 L 526 77 L 525 76 L 525 71 L 526 70 L 526 69 L 525 68 L 526 67 L 526 37 L 525 36 L 526 35 L 526 29 L 525 28 L 526 27 L 526 25 L 525 24 L 526 23 L 526 16 L 525 16 L 524 15 L 522 17 L 522 19 L 520 21 L 499 21 L 498 20 L 497 20 L 496 19 L 496 17 L 495 17 L 494 16 L 494 13 L 493 12 L 493 10 L 494 9 L 493 8 L 494 7 L 494 5 L 426 5 L 425 6 L 411 6 L 410 5 "></path>
        <path fill="none" stroke="#ffffff" stroke-width="3" d="M 304 123 L 305 122 L 333 122 L 334 123 L 338 123 L 339 122 L 340 123 L 343 123 L 345 125 L 345 129 L 344 130 L 344 132 L 343 133 L 342 132 L 341 133 L 318 133 L 317 134 L 318 135 L 318 137 L 317 138 L 318 139 L 316 141 L 293 141 L 292 142 L 293 143 L 294 143 L 295 144 L 294 145 L 294 146 L 295 147 L 301 147 L 302 148 L 301 149 L 295 149 L 294 150 L 294 152 L 293 153 L 274 153 L 273 154 L 275 156 L 274 157 L 274 158 L 275 159 L 275 160 L 274 161 L 212 161 L 211 162 L 210 161 L 204 161 L 203 162 L 202 161 L 201 162 L 200 161 L 199 162 L 198 161 L 109 161 L 108 160 L 108 158 L 107 158 L 106 157 L 101 157 L 100 156 L 101 155 L 102 155 L 103 154 L 106 154 L 106 153 L 105 154 L 103 152 L 104 151 L 189 151 L 190 150 L 190 149 L 189 148 L 189 147 L 190 146 L 188 144 L 190 142 L 190 141 L 184 141 L 183 142 L 182 141 L 181 142 L 180 141 L 179 142 L 178 141 L 174 141 L 173 140 L 174 139 L 175 139 L 176 138 L 185 138 L 186 139 L 191 139 L 192 140 L 193 139 L 284 139 L 285 138 L 283 136 L 283 135 L 284 134 L 283 133 L 283 132 L 284 131 L 286 131 L 287 130 L 288 131 L 289 130 L 290 131 L 291 130 L 305 130 L 306 129 L 305 129 L 303 127 L 305 125 L 303 125 L 302 124 L 303 123 "></path>
        <path fill="none" stroke="#ffffff" stroke-width="3" d="M 335 74 L 343 74 L 345 76 L 344 77 L 344 78 L 345 78 L 346 79 L 344 81 L 342 81 L 342 82 L 343 82 L 344 83 L 342 85 L 340 85 L 340 87 L 338 89 L 339 90 L 364 90 L 366 92 L 365 93 L 366 94 L 366 96 L 365 97 L 365 98 L 366 99 L 365 100 L 364 100 L 363 101 L 362 101 L 362 102 L 363 103 L 363 104 L 362 105 L 363 106 L 364 106 L 366 108 L 366 110 L 367 111 L 367 112 L 366 113 L 366 116 L 365 117 L 344 117 L 343 116 L 342 116 L 341 115 L 342 114 L 342 113 L 341 112 L 343 110 L 342 109 L 341 109 L 340 108 L 339 109 L 335 109 L 334 108 L 324 108 L 323 109 L 313 109 L 312 108 L 311 108 L 310 107 L 310 105 L 309 105 L 308 104 L 309 103 L 310 103 L 311 102 L 314 102 L 315 101 L 317 101 L 316 100 L 317 99 L 318 99 L 319 98 L 329 98 L 330 97 L 328 95 L 329 94 L 329 93 L 328 93 L 327 92 L 328 91 L 328 89 L 327 88 L 327 87 L 328 86 L 328 85 L 327 85 L 326 84 L 328 82 L 329 82 L 330 81 L 330 80 L 331 79 L 332 79 L 334 77 L 333 76 "></path>
        <path fill="none" stroke="#ffffff" stroke-width="3" d="M 350 132 L 351 131 L 372 131 L 374 133 L 373 134 L 374 135 L 374 137 L 373 138 L 373 141 L 372 142 L 373 143 L 373 145 L 372 146 L 373 147 L 373 149 L 372 150 L 373 151 L 373 153 L 372 154 L 373 155 L 373 157 L 372 158 L 373 158 L 374 159 L 381 159 L 384 162 L 384 164 L 381 167 L 378 167 L 377 168 L 374 168 L 372 166 L 359 166 L 358 165 L 358 162 L 357 161 L 358 160 L 358 158 L 343 158 L 342 157 L 342 156 L 341 155 L 342 154 L 341 153 L 341 152 L 342 151 L 342 146 L 341 145 L 341 144 L 342 143 L 342 140 L 343 139 L 352 139 L 352 137 L 351 136 L 351 135 L 352 134 L 351 134 L 350 133 "></path>
        <path fill="none" stroke="#ffffff" stroke-width="3" d="M 196 70 L 214 70 L 215 71 L 244 71 L 245 70 L 246 71 L 247 70 L 251 70 L 252 71 L 253 70 L 254 71 L 262 71 L 263 72 L 261 74 L 263 76 L 262 77 L 262 79 L 263 80 L 261 82 L 261 83 L 262 84 L 261 85 L 257 85 L 256 86 L 255 86 L 254 85 L 198 85 L 197 84 L 198 83 L 198 82 L 196 80 L 196 79 L 197 78 L 196 77 L 196 74 L 194 72 "></path>
        <path fill="none" stroke="#ffffff" stroke-width="3" d="M 423 46 L 433 46 L 434 47 L 435 46 L 437 46 L 438 47 L 439 46 L 457 46 L 458 47 L 506 47 L 507 48 L 506 49 L 506 51 L 507 51 L 508 52 L 507 53 L 506 53 L 506 54 L 505 55 L 505 56 L 504 57 L 423 57 L 422 56 L 422 53 L 421 52 L 421 51 L 422 50 L 422 49 L 421 48 "></path>
        <path fill="none" stroke="#ffffff" stroke-width="3" d="M 197 88 L 198 87 L 208 87 L 209 88 L 208 89 L 208 90 L 211 90 L 212 91 L 213 90 L 214 91 L 215 90 L 225 90 L 226 91 L 227 90 L 229 90 L 230 91 L 231 90 L 232 91 L 233 90 L 234 91 L 235 90 L 236 91 L 237 90 L 238 91 L 239 90 L 240 91 L 241 90 L 242 91 L 243 90 L 244 91 L 245 90 L 246 91 L 247 90 L 248 91 L 249 90 L 250 91 L 251 90 L 252 91 L 253 90 L 254 91 L 255 90 L 256 91 L 257 90 L 258 91 L 273 91 L 274 92 L 273 93 L 266 93 L 266 95 L 267 95 L 268 96 L 267 97 L 266 97 L 263 100 L 262 100 L 261 101 L 247 101 L 246 100 L 243 100 L 242 99 L 242 98 L 226 98 L 225 97 L 199 97 L 198 96 L 198 94 L 196 92 L 196 91 L 197 90 "></path>
        <path fill="none" stroke="#ffffff" stroke-width="3" d="M 384 63 L 387 63 L 389 65 L 390 65 L 392 67 L 392 68 L 391 69 L 390 69 L 391 70 L 422 70 L 423 71 L 425 71 L 426 72 L 426 75 L 427 76 L 426 77 L 426 79 L 425 80 L 424 80 L 423 81 L 422 80 L 421 81 L 411 81 L 410 80 L 409 81 L 406 81 L 406 86 L 407 87 L 407 88 L 406 89 L 406 91 L 404 93 L 399 93 L 397 91 L 398 90 L 398 89 L 397 89 L 396 88 L 398 86 L 398 85 L 397 84 L 398 83 L 398 81 L 391 81 L 389 79 L 389 77 L 388 76 L 390 74 L 390 73 L 383 73 L 381 71 L 381 69 L 380 68 L 380 67 L 381 66 L 382 66 L 382 65 "></path>
        <path fill="none" stroke="#ffffff" stroke-width="3" d="M 338 170 L 339 169 L 374 169 L 376 171 L 376 172 L 375 173 L 374 173 L 374 174 L 373 175 L 372 175 L 371 176 L 370 176 L 369 177 L 369 178 L 368 179 L 332 179 L 331 180 L 330 179 L 329 180 L 328 179 L 328 181 L 335 181 L 336 182 L 335 183 L 323 183 L 322 182 L 323 181 L 324 181 L 324 179 L 323 179 L 322 178 L 322 177 L 323 176 L 324 177 L 324 176 L 325 175 L 326 176 L 326 177 L 326 176 L 327 175 L 328 176 L 328 177 L 329 176 L 330 177 L 330 176 L 331 175 L 332 176 L 332 177 L 336 177 L 336 175 L 338 173 "></path>
        <path fill="none" stroke="#ffffff" stroke-width="3" d="M 367 388 L 392 388 L 394 390 L 393 391 L 394 392 L 394 398 L 393 399 L 393 401 L 392 402 L 390 402 L 389 403 L 385 403 L 384 402 L 378 402 L 377 403 L 368 403 L 365 400 L 365 399 L 364 398 L 364 394 L 365 393 L 365 392 L 366 391 L 365 390 "></path>
        <path fill="none" stroke="#ffffff" stroke-width="3" d="M 190 99 L 191 98 L 197 98 L 198 99 L 227 99 L 228 100 L 227 101 L 222 101 L 222 102 L 223 102 L 224 103 L 225 102 L 226 103 L 227 102 L 228 103 L 229 103 L 230 104 L 229 105 L 224 105 L 223 106 L 195 106 L 194 105 L 191 105 L 190 104 L 191 103 L 192 103 L 193 102 L 192 101 L 191 101 L 190 100 "></path>
        <path fill="none" stroke="#ffffff" stroke-width="3" d="M 214 175 L 215 174 L 216 175 L 237 175 L 238 176 L 238 179 L 240 179 L 241 180 L 240 181 L 239 181 L 238 182 L 238 183 L 239 183 L 240 184 L 239 185 L 219 185 L 218 184 L 219 183 L 220 183 L 220 182 L 219 181 L 218 181 L 217 180 L 218 179 L 220 179 L 220 177 L 203 177 L 202 176 L 203 175 "></path>
        <path fill="none" stroke="#ffffff" stroke-width="3" d="M 198 167 L 199 166 L 205 166 L 206 167 L 207 166 L 208 167 L 210 167 L 211 166 L 212 167 L 237 167 L 238 168 L 237 169 L 232 169 L 231 170 L 230 169 L 220 169 L 219 170 L 218 169 L 217 170 L 216 169 L 215 170 L 214 169 L 213 170 L 212 169 L 211 170 L 210 169 L 208 169 L 207 170 L 206 169 L 204 169 L 203 170 L 202 169 L 200 169 L 199 170 L 198 169 L 149 169 L 148 168 L 149 167 "></path>
        <path fill="none" stroke="#ffffff" stroke-width="3" d="M 158 91 L 159 90 L 160 91 L 161 90 L 171 90 L 172 91 L 173 90 L 174 91 L 175 91 L 176 92 L 176 95 L 177 96 L 173 100 L 159 100 L 158 99 L 158 97 L 156 95 L 158 93 "></path>
        <path fill="none" stroke="#ffffff" stroke-width="3" d="M 426 99 L 427 98 L 429 98 L 430 99 L 445 99 L 446 100 L 446 101 L 445 102 L 444 102 L 446 104 L 446 105 L 445 106 L 438 106 L 436 108 L 435 108 L 434 109 L 432 109 L 431 110 L 428 110 L 426 108 L 426 105 L 425 104 L 426 103 "></path>
        <path fill="none" stroke="#ffffff" stroke-width="3" d="M 214 171 L 215 170 L 217 170 L 218 171 L 219 170 L 220 171 L 233 171 L 234 172 L 233 173 L 220 173 L 219 174 L 218 173 L 217 174 L 213 174 L 212 173 L 211 174 L 210 173 L 155 173 L 154 172 L 155 171 "></path>
        <path fill="none" stroke="#ffffff" stroke-width="3" d="M 346 56 L 347 55 L 357 55 L 360 58 L 363 58 L 364 59 L 365 59 L 366 60 L 365 61 L 362 61 L 362 62 L 363 62 L 364 63 L 364 64 L 363 65 L 362 64 L 361 65 L 355 65 L 352 62 L 351 62 L 350 61 L 343 61 L 342 60 L 343 59 L 350 59 L 350 58 L 347 58 L 346 57 "></path>
        <path fill="none" stroke="#ffffff" stroke-width="3" d="M 342 64 L 343 63 L 349 63 L 350 64 L 350 66 L 351 66 L 352 67 L 353 67 L 354 68 L 353 69 L 352 69 L 352 70 L 353 70 L 354 71 L 352 73 L 347 73 L 342 68 "></path>
        <path fill="none" stroke="#ffffff" stroke-width="3" d="M 422 295 L 423 294 L 431 294 L 433 296 L 433 297 L 434 298 L 434 300 L 432 302 L 432 303 L 431 304 L 427 304 L 426 303 L 426 302 L 424 300 L 424 297 "></path>
        <path fill="none" stroke="#ffffff" stroke-width="3" d="M 247 130 L 248 131 L 249 130 L 250 131 L 251 130 L 252 131 L 253 130 L 254 131 L 255 130 L 256 131 L 264 131 L 265 132 L 264 133 L 262 133 L 261 134 L 260 134 L 260 135 L 261 134 L 262 135 L 262 136 L 261 137 L 253 137 L 252 136 L 252 135 L 253 134 L 254 135 L 254 134 L 249 134 L 248 133 L 246 133 L 245 132 "></path>
        <path fill="none" stroke="#ffffff" stroke-width="3" d="M 452 218 L 453 217 L 457 217 L 459 219 L 458 220 L 456 220 L 455 221 L 454 220 L 453 221 L 452 220 L 451 221 L 450 220 L 444 220 L 443 221 L 442 220 L 440 220 L 439 221 L 438 220 L 428 220 L 427 221 L 426 220 L 423 220 L 422 219 L 423 218 "></path>
        <path fill="none" stroke="#ffffff" stroke-width="3" d="M 498 135 L 499 134 L 521 134 L 522 135 L 522 136 L 521 137 L 499 137 L 498 136 "></path>
        <path fill="none" stroke="#ffffff" stroke-width="3" d="M 157 176 L 158 175 L 191 175 L 192 176 L 191 177 L 158 177 "></path>
        <path fill="none" stroke="#ffffff" stroke-width="3" d="M 363 49 L 367 49 L 368 50 L 370 50 L 371 51 L 371 52 L 370 53 L 369 53 L 371 55 L 369 57 L 363 57 L 362 56 L 362 53 L 361 52 L 361 51 "></path>
        <path fill="none" stroke="#ffffff" stroke-width="3" d="M 298 193 L 299 192 L 300 193 L 301 193 L 302 194 L 301 195 L 300 195 L 300 197 L 301 197 L 302 198 L 301 199 L 300 199 L 300 200 L 299 201 L 298 201 L 299 201 L 300 202 L 299 203 L 295 203 L 294 202 L 294 194 L 295 193 "></path>
        <path fill="none" stroke="#ffffff" stroke-width="3" d="M 174 119 L 175 118 L 197 118 L 198 119 L 197 120 L 196 120 L 195 121 L 194 120 L 193 121 L 192 120 L 191 121 L 190 120 L 189 121 L 188 120 L 187 121 L 175 121 L 174 120 "></path>
        <path fill="none" stroke="#ffffff" stroke-width="3" d="M 158 180 L 159 179 L 189 179 L 190 180 L 189 181 L 164 181 L 163 182 L 162 181 L 159 181 "></path>
        <path fill="none" stroke="#ffffff" stroke-width="3" d="M 274 309 L 275 308 L 276 309 L 299 309 L 300 310 L 299 311 L 269 311 L 268 310 L 269 309 "></path>
        <path fill="none" stroke="#ffffff" stroke-width="3" d="M 157 390 L 158 389 L 181 389 L 182 390 L 180 392 L 175 392 L 174 391 L 170 391 L 169 392 L 168 391 L 167 392 L 166 391 L 158 391 "></path>
        <path fill="none" stroke="#ffffff" stroke-width="3" d="M 498 131 L 499 130 L 500 131 L 501 130 L 502 131 L 503 130 L 504 131 L 505 130 L 506 131 L 507 130 L 508 131 L 509 130 L 510 131 L 511 130 L 512 131 L 513 130 L 514 131 L 515 130 L 516 131 L 517 130 L 518 131 L 519 131 L 520 132 L 519 133 L 499 133 L 498 132 "></path>
        <path fill="none" stroke="#ffffff" stroke-width="3" d="M 432 92 L 433 91 L 445 91 L 446 92 L 451 92 L 452 93 L 451 94 L 434 94 "></path>
        <path fill="none" stroke="#ffffff" stroke-width="3" d="M 220 192 L 221 191 L 245 191 L 246 192 L 245 193 L 221 193 "></path>
        <path fill="none" stroke="#ffffff" stroke-width="3" d="M 220 200 L 221 199 L 245 199 L 246 200 L 245 201 L 221 201 "></path>
        <path fill="none" stroke="#ffffff" stroke-width="3" d="M 220 196 L 221 195 L 244 195 L 245 196 L 244 197 L 221 197 "></path>
        <path fill="none" stroke="#ffffff" stroke-width="3" d="M 462 67 L 463 66 L 464 67 L 474 67 L 475 66 L 476 67 L 479 67 L 480 68 L 479 69 L 476 69 L 475 70 L 474 69 L 464 69 L 463 70 L 462 69 L 458 69 L 457 68 L 458 67 "></path>
        <path fill="none" stroke="#ffffff" stroke-width="3" d="M 454 64 L 455 63 L 477 63 L 478 64 L 477 65 L 476 65 L 475 66 L 474 65 L 464 65 L 463 66 L 462 65 L 455 65 "></path>
        <path fill="none" stroke="#ffffff" stroke-width="3" d="M 76 153 L 77 152 L 80 152 L 81 153 L 80 154 L 81 154 L 82 155 L 82 157 L 81 158 L 80 158 L 81 158 L 82 159 L 83 159 L 84 160 L 83 161 L 78 161 L 77 160 L 78 159 L 78 158 L 75 158 L 74 157 L 75 156 L 76 156 L 78 154 L 77 154 "></path>
        <path fill="none" stroke="#ffffff" stroke-width="3" d="M 290 100 L 291 99 L 297 99 L 298 100 L 296 102 L 296 103 L 297 103 L 298 104 L 296 106 L 291 106 L 289 104 L 290 103 L 292 103 L 292 102 L 291 102 L 290 101 "></path>
        <path fill="none" stroke="#ffffff" stroke-width="3" d="M 250 63 L 251 62 L 252 63 L 254 63 L 255 64 L 254 65 L 253 65 L 252 66 L 253 67 L 253 68 L 252 69 L 247 69 L 246 68 L 246 67 L 247 66 L 248 66 L 247 66 L 246 65 L 245 65 L 244 64 L 245 63 "></path>
        <path fill="none" stroke="#ffffff" stroke-width="3" d="M 485 275 L 486 274 L 507 274 L 508 275 L 507 276 L 500 276 L 499 277 L 498 276 L 486 276 "></path>
        <path fill="none" stroke="#ffffff" stroke-width="3" d="M 66 141 L 67 140 L 87 140 L 88 141 L 87 142 L 67 142 "></path>
        <path fill="none" stroke="#ffffff" stroke-width="3" d="M 170 184 L 171 183 L 188 183 L 189 184 L 188 185 L 171 185 "></path>
        <path fill="none" stroke="#ffffff" stroke-width="3" d="M 286 186 L 287 185 L 292 185 L 293 186 L 292 187 L 292 190 L 291 191 L 287 191 L 286 190 "></path>
        <path fill="none" stroke="#ffffff" stroke-width="3" d="M 59 194 L 61 194 L 62 195 L 63 194 L 64 195 L 65 194 L 66 195 L 71 195 L 72 196 L 71 197 L 64 197 L 63 198 L 62 197 L 60 197 L 59 198 L 57 196 "></path>
        <path fill="none" stroke="#ffffff" stroke-width="3" d="M 174 123 L 175 122 L 191 122 L 192 123 L 191 124 L 175 124 "></path>
        <path fill="none" stroke="#ffffff" stroke-width="3" d="M 385 226 L 386 225 L 396 225 L 398 227 L 397 228 L 387 228 "></path>
        <path fill="none" stroke="#ffffff" stroke-width="3" d="M 484 279 L 485 278 L 501 278 L 502 279 L 501 280 L 485 280 "></path>
        <path fill="none" stroke="#ffffff" stroke-width="3" d="M 269 16 L 270 15 L 281 15 L 282 16 L 281 17 L 280 17 L 279 18 L 271 18 "></path>
        <path fill="none" stroke="#ffffff" stroke-width="3" d="M 434 96 L 435 95 L 447 95 L 448 96 L 448 97 L 447 98 L 442 98 L 441 97 L 435 97 "></path>
        <path fill="none" stroke="#ffffff" stroke-width="3" d="M 238 277 L 239 276 L 240 277 L 242 277 L 243 276 L 244 277 L 248 277 L 249 278 L 248 279 L 234 279 L 233 278 L 234 277 "></path>
        <path fill="none" stroke="#ffffff" stroke-width="3" d="M 364 67 L 365 66 L 373 66 L 374 67 L 374 68 L 373 69 L 363 69 L 362 68 L 363 67 "></path>
        <path fill="none" stroke="#ffffff" stroke-width="3" d="M 242 231 L 243 230 L 253 230 L 254 231 L 253 232 L 252 232 L 251 233 L 250 232 L 249 233 L 243 233 L 242 232 "></path>
    </g>
</svg>
