<svg xmlns="http://www.w3.org/2000/svg" xmlns:xlink="http://www.w3.org/1999/xlink" version="1.1" x="0" y="0" width="1056px" height="816px">
    <g id="rootLayer" transform="translate(0.000000, 0.000000)">
        <path fill="none" stroke="#fa00fa" stroke-width="3" d="M 515 432 L 514 433 L 512 433 L 509 436 L 509 438 L 508 439 L 508 442 L 509 443 L 509 444 L 511 446 L 512 446 L 513 447 L 517 447 L 518 446 L 519 446 L 521 444 L 521 443 L 522 442 L 522 437 L 521 436 L 521 435 L 519 433 L 518 433 L 517 432 "></path>
        <path fill="none" stroke="#fa00fa" stroke-width="3" d="M 596 471 L 593 474 L 593 475 L 592 476 L 592 479 L 591 480 L 591 482 L 589 484 L 589 485 L 588 486 L 588 489 L 590 491 L 593 491 L 595 489 L 595 484 L 599 480 L 600 480 L 603 477 L 603 474 L 602 473 L 602 472 L 601 472 L 600 471 "></path>
        <path fill="none" stroke="#fa00fa" stroke-width="3" d="M 546 343 L 545 344 L 542 344 L 539 347 L 539 349 L 538 350 L 538 352 L 539 353 L 539 355 L 540 356 L 541 356 L 542 357 L 546 357 L 547 356 L 548 356 L 551 353 L 551 352 L 552 351 L 552 348 L 551 347 L 551 346 L 549 344 L 547 344 "></path>
        <path fill="none" stroke="#fa00fa" stroke-width="3" d="M 572 389 L 568 393 L 568 398 L 569 399 L 569 400 L 571 402 L 577 402 L 578 401 L 579 401 L 580 400 L 580 399 L 581 398 L 581 392 L 578 389 "></path>
        <path fill="none" stroke="#fa00fa" stroke-width="3" d="M 527 328 L 526 329 L 525 329 L 524 330 L 524 332 L 523 333 L 523 335 L 524 336 L 524 338 L 525 339 L 525 340 L 526 341 L 527 341 L 528 342 L 531 342 L 532 341 L 533 341 L 535 339 L 535 338 L 536 337 L 536 332 L 535 331 L 535 330 L 534 330 L 533 329 L 532 329 L 531 328 "></path>
        <path fill="none" stroke="#fa00fa" stroke-width="3" d="M 573 343 L 572 344 L 571 344 L 570 345 L 570 346 L 569 347 L 569 352 L 570 353 L 570 354 L 572 356 L 573 356 L 574 357 L 578 357 L 580 355 L 580 353 L 581 352 L 581 349 L 580 348 L 580 346 L 577 343 "></path>
        <path fill="none" stroke="#fa00fa" stroke-width="3" d="M 559 417 L 558 418 L 557 418 L 556 419 L 555 419 L 553 421 L 553 423 L 552 424 L 552 425 L 553 426 L 553 427 L 554 427 L 555 428 L 558 428 L 559 427 L 565 427 L 567 425 L 567 424 L 568 423 L 568 422 L 567 421 L 567 420 L 564 417 "></path>
        <path fill="none" stroke="#fa00fa" stroke-width="3" d="M 515 361 L 514 362 L 513 362 L 512 363 L 511 363 L 509 365 L 509 370 L 510 371 L 510 372 L 511 372 L 512 373 L 518 373 L 521 370 L 521 369 L 522 368 L 522 365 L 518 361 "></path>
        <path fill="none" stroke="#fa00fa" stroke-width="3" d="M 542 434 L 541 435 L 540 435 L 537 438 L 537 443 L 538 444 L 538 445 L 539 446 L 540 446 L 541 447 L 545 447 L 549 443 L 549 438 L 546 435 L 545 435 L 544 434 "></path>
        <path fill="none" stroke="#fa00fa" stroke-width="3" d="M 557 377 L 556 378 L 555 378 L 554 379 L 554 380 L 553 381 L 553 384 L 554 385 L 554 386 L 556 388 L 562 388 L 565 385 L 565 380 L 563 378 L 561 378 L 560 377 "></path>
        <path fill="none" stroke="#fa00fa" stroke-width="3" d="M 587 404 L 586 405 L 585 405 L 585 406 L 584 407 L 584 408 L 583 409 L 583 412 L 584 413 L 584 414 L 586 416 L 587 416 L 588 417 L 589 417 L 590 416 L 591 416 L 592 415 L 592 413 L 593 412 L 593 407 L 592 406 L 592 405 L 591 404 "></path>
        <path fill="none" stroke="#fa00fa" stroke-width="3" d="M 481 467 L 479 469 L 479 470 L 478 471 L 479 472 L 479 474 L 480 475 L 481 475 L 482 476 L 489 476 L 491 474 L 491 473 L 492 472 L 492 471 L 491 470 L 491 469 L 490 468 L 488 468 L 487 467 "></path>
        <path fill="none" stroke="#fa00fa" stroke-width="3" d="M 436 404 L 435 405 L 435 406 L 434 407 L 434 412 L 437 415 L 438 415 L 439 416 L 440 416 L 441 415 L 442 415 L 444 413 L 444 412 L 445 411 L 445 410 L 444 409 L 444 408 L 443 407 L 443 406 L 442 405 L 441 405 L 440 404 "></path>
        <path fill="none" stroke="#fa00fa" stroke-width="3" d="M 499 449 L 497 451 L 497 457 L 498 458 L 498 459 L 499 460 L 500 460 L 501 461 L 503 461 L 504 460 L 505 460 L 506 459 L 506 458 L 507 457 L 507 454 L 506 453 L 506 452 L 503 449 "></path>
        <path fill="none" stroke="#fa00fa" stroke-width="3" d="M 586 374 L 584 376 L 584 377 L 583 378 L 583 382 L 584 383 L 584 384 L 585 385 L 586 385 L 587 386 L 589 386 L 590 385 L 591 385 L 591 384 L 592 383 L 592 382 L 593 381 L 593 377 L 590 374 "></path>
        <path fill="none" stroke="#fa00fa" stroke-width="3" d="M 438 452 L 437 453 L 436 453 L 435 454 L 435 455 L 434 456 L 434 458 L 435 459 L 435 460 L 436 461 L 437 461 L 438 462 L 442 462 L 443 461 L 444 461 L 445 460 L 445 459 L 446 458 L 446 456 L 445 455 L 445 454 L 444 453 L 443 453 L 442 452 "></path>
        <path fill="none" stroke="#fa00fa" stroke-width="3" d="M 501 493 L 500 494 L 499 494 L 499 495 L 498 496 L 498 498 L 497 499 L 498 500 L 498 503 L 500 505 L 504 505 L 507 502 L 507 497 L 506 496 L 506 495 L 505 494 L 504 494 L 503 493 "></path>
        <path fill="none" stroke="#fa00fa" stroke-width="3" d="M 513 387 L 512 388 L 511 388 L 508 391 L 508 395 L 509 396 L 509 397 L 510 398 L 511 398 L 512 399 L 513 399 L 518 394 L 518 393 L 519 392 L 519 391 L 518 390 L 518 389 L 517 388 L 516 388 L 515 387 "></path>
        <path fill="none" stroke="#fa00fa" stroke-width="3" d="M 500 253 L 497 256 L 497 258 L 496 259 L 496 263 L 498 265 L 499 265 L 500 266 L 501 266 L 502 265 L 503 265 L 504 264 L 504 263 L 505 262 L 505 256 L 504 255 L 504 254 L 503 254 L 502 253 "></path>
        <path fill="none" stroke="#fa00fa" stroke-width="3" d="M 532 406 L 531 407 L 531 408 L 527 412 L 527 414 L 530 417 L 534 417 L 535 416 L 536 416 L 537 415 L 537 414 L 538 413 L 538 408 L 537 407 L 536 407 L 535 406 "></path>
        <path fill="none" stroke="#fa00fa" stroke-width="3" d="M 557 256 L 555 258 L 555 259 L 554 260 L 554 261 L 555 262 L 555 263 L 557 265 L 558 265 L 559 266 L 564 266 L 565 265 L 565 264 L 566 263 L 566 261 L 561 256 "></path>
        <path fill="none" stroke="#fa00fa" stroke-width="3" d="M 557 359 L 556 360 L 555 360 L 554 361 L 554 362 L 553 363 L 553 365 L 554 366 L 554 367 L 555 367 L 556 368 L 559 368 L 560 367 L 565 367 L 565 366 L 566 365 L 566 364 L 565 363 L 565 362 L 563 360 L 562 360 L 561 359 "></path>
        <path fill="none" stroke="#fa00fa" stroke-width="3" d="M 437 525 L 436 526 L 435 526 L 435 527 L 434 528 L 434 529 L 435 530 L 435 531 L 436 532 L 436 533 L 437 534 L 438 534 L 439 535 L 443 535 L 445 533 L 445 532 L 446 531 L 446 530 L 445 529 L 445 528 L 443 526 L 442 526 L 441 525 "></path>
        <path fill="none" stroke="#fa00fa" stroke-width="3" d="M 604 450 L 602 452 L 602 457 L 603 458 L 603 459 L 605 461 L 609 461 L 611 459 L 611 458 L 612 457 L 612 455 L 611 454 L 611 453 L 608 450 "></path>
        <path fill="none" stroke="#fa00fa" stroke-width="3" d="M 572 449 L 569 452 L 569 457 L 570 458 L 570 459 L 571 460 L 572 460 L 573 461 L 576 461 L 578 459 L 578 454 L 577 453 L 577 452 L 576 451 L 576 450 L 575 450 L 574 449 "></path>
        <path fill="none" stroke="#fa00fa" stroke-width="3" d="M 531 387 L 530 388 L 529 388 L 528 389 L 528 390 L 527 391 L 527 392 L 528 393 L 528 394 L 532 398 L 535 398 L 537 396 L 537 395 L 538 394 L 538 393 L 537 392 L 537 390 L 535 388 L 534 388 L 533 387 "></path>
        <path fill="none" stroke="#fa00fa" stroke-width="3" d="M 529 225 L 528 226 L 527 226 L 527 227 L 526 228 L 526 229 L 525 230 L 525 233 L 526 234 L 526 235 L 527 235 L 528 236 L 531 236 L 532 235 L 533 235 L 534 234 L 534 233 L 535 232 L 535 230 L 534 229 L 534 227 L 533 226 L 532 226 L 531 225 "></path>
        <path fill="none" stroke="#fa00fa" stroke-width="3" d="M 511 406 L 509 408 L 509 409 L 508 410 L 508 412 L 509 413 L 509 414 L 511 416 L 512 416 L 513 417 L 515 417 L 516 416 L 517 416 L 518 415 L 518 414 L 519 413 L 518 412 L 518 411 L 516 409 L 516 408 L 514 406 "></path>
        <path fill="none" stroke="#fa00fa" stroke-width="3" d="M 695 464 L 694 465 L 692 465 L 691 466 L 691 467 L 690 468 L 690 471 L 691 472 L 691 473 L 692 474 L 694 474 L 695 475 L 696 475 L 697 474 L 698 474 L 700 472 L 700 468 L 699 467 L 699 466 L 698 465 L 696 465 "></path>
        <path fill="none" stroke="#fa00fa" stroke-width="3" d="M 664 524 L 663 525 L 662 525 L 660 527 L 660 530 L 661 531 L 661 532 L 663 534 L 664 534 L 665 535 L 667 535 L 668 534 L 669 534 L 669 533 L 670 532 L 670 528 L 667 525 L 665 525 "></path>
        <path fill="none" stroke="#fa00fa" stroke-width="3" d="M 726 461 L 725 462 L 724 462 L 723 463 L 723 464 L 722 465 L 722 468 L 725 471 L 730 471 L 731 470 L 731 469 L 732 468 L 732 464 L 730 462 L 729 462 L 728 461 "></path>
        <path fill="none" stroke="#fa00fa" stroke-width="3" d="M 410 467 L 409 468 L 407 468 L 405 470 L 405 473 L 406 474 L 406 475 L 407 475 L 408 476 L 413 476 L 416 473 L 416 470 L 414 468 L 413 468 L 412 467 "></path>
        <path fill="none" stroke="#fa00fa" stroke-width="3" d="M 364 420 L 361 423 L 361 427 L 363 429 L 364 429 L 365 430 L 367 430 L 368 429 L 369 429 L 371 427 L 371 424 L 370 423 L 370 422 L 369 421 L 368 421 L 367 420 "></path>
        <path fill="none" stroke="#fa00fa" stroke-width="3" d="M 498 225 L 496 227 L 496 228 L 495 229 L 495 231 L 496 232 L 496 233 L 497 234 L 498 234 L 499 235 L 502 235 L 505 232 L 505 229 L 504 228 L 504 227 L 502 225 "></path>
        <path fill="none" stroke="#fa00fa" stroke-width="3" d="M 590 332 L 589 333 L 588 333 L 587 334 L 586 334 L 586 335 L 585 336 L 585 338 L 586 339 L 586 340 L 587 341 L 588 341 L 589 342 L 592 342 L 593 341 L 594 341 L 595 340 L 595 338 L 596 337 L 595 336 L 595 335 L 593 333 L 592 333 L 591 332 "></path>
        <path fill="none" stroke="#fa00fa" stroke-width="3" d="M 617 479 L 615 481 L 615 486 L 616 486 L 617 487 L 618 487 L 619 488 L 621 488 L 622 487 L 624 487 L 625 486 L 625 481 L 623 479 "></path>
        <path fill="none" stroke="#fa00fa" stroke-width="3" d="M 486 372 L 485 373 L 484 373 L 482 375 L 482 378 L 483 379 L 483 380 L 484 380 L 486 382 L 487 382 L 488 383 L 489 382 L 490 382 L 492 380 L 492 376 L 489 373 L 488 373 L 487 372 "></path>
        <path fill="none" stroke="#fa00fa" stroke-width="3" d="M 574 240 L 572 242 L 571 242 L 570 243 L 570 244 L 569 245 L 569 246 L 570 247 L 570 248 L 572 248 L 573 249 L 576 249 L 577 248 L 578 248 L 580 246 L 580 242 L 578 240 "></path>
        <path fill="none" stroke="#fa00fa" stroke-width="3" d="M 574 525 L 572 527 L 572 531 L 573 532 L 573 533 L 575 535 L 579 535 L 580 534 L 580 533 L 581 532 L 581 529 L 580 528 L 580 527 L 578 525 "></path>
        <path fill="none" stroke="#fa00fa" stroke-width="3" d="M 451 360 L 449 362 L 449 366 L 450 367 L 451 367 L 452 368 L 454 368 L 455 367 L 458 367 L 459 366 L 460 366 L 460 362 L 458 360 "></path>
        <path fill="none" stroke="#fa00fa" stroke-width="3" d="M 632 450 L 629 453 L 629 459 L 630 460 L 631 460 L 632 461 L 634 461 L 636 459 L 636 458 L 637 457 L 637 453 L 636 452 L 636 451 L 635 450 "></path>
        <path fill="none" stroke="#fa00fa" stroke-width="3" d="M 541 464 L 538 467 L 538 470 L 539 471 L 539 472 L 540 472 L 541 473 L 544 473 L 548 469 L 548 466 L 546 464 "></path>
        <path fill="none" stroke="#fa00fa" stroke-width="3" d="M 486 422 L 485 423 L 485 424 L 483 426 L 483 430 L 484 431 L 485 431 L 486 432 L 488 432 L 489 431 L 490 431 L 491 430 L 491 429 L 492 428 L 492 425 L 491 424 L 491 423 L 490 422 "></path>
        <path fill="none" stroke="#fa00fa" stroke-width="3" d="M 619 362 L 618 363 L 617 363 L 615 365 L 615 368 L 616 369 L 616 370 L 617 370 L 618 371 L 621 371 L 622 370 L 623 370 L 625 368 L 625 365 L 623 363 L 622 363 L 621 362 "></path>
        <path fill="none" stroke="#fa00fa" stroke-width="3" d="M 453 602 L 451 604 L 451 605 L 450 606 L 451 607 L 451 608 L 452 609 L 452 610 L 453 610 L 454 611 L 456 611 L 457 610 L 458 610 L 459 609 L 459 608 L 460 607 L 460 605 L 459 604 L 459 603 L 458 602 "></path>
        <path fill="none" stroke="#fa00fa" stroke-width="3" d="M 586 510 L 584 512 L 584 513 L 583 514 L 583 515 L 584 516 L 584 517 L 586 519 L 590 519 L 592 517 L 592 512 L 590 510 "></path>
        <path fill="none" stroke="#fa00fa" stroke-width="3" d="M 617 438 L 615 440 L 615 444 L 616 445 L 617 445 L 618 446 L 621 446 L 622 445 L 623 445 L 624 444 L 624 443 L 625 442 L 625 441 L 624 440 L 624 439 L 623 439 L 622 438 "></path>
        <path fill="none" stroke="#fa00fa" stroke-width="3" d="M 514 210 L 513 211 L 512 211 L 511 212 L 511 213 L 510 214 L 510 216 L 511 217 L 511 218 L 512 218 L 513 219 L 517 219 L 519 217 L 519 213 L 518 212 L 518 211 L 516 211 L 515 210 "></path>
        <path fill="none" stroke="#fa00fa" stroke-width="3" d="M 421 346 L 419 348 L 419 353 L 420 354 L 421 354 L 422 355 L 425 355 L 427 353 L 427 348 L 425 346 "></path>
        <path fill="none" stroke="#fa00fa" stroke-width="3" d="M 438 270 L 436 272 L 436 276 L 437 277 L 438 277 L 439 278 L 443 278 L 445 276 L 445 272 L 443 270 "></path>
        <path fill="none" stroke="#fa00fa" stroke-width="3" d="M 454 513 L 453 514 L 452 514 L 450 516 L 450 517 L 451 518 L 451 519 L 452 520 L 454 520 L 455 521 L 456 521 L 457 520 L 459 520 L 460 519 L 460 518 L 461 517 L 461 516 L 459 514 L 458 514 L 457 513 "></path>
        <path fill="none" stroke="#fa00fa" stroke-width="3" d="M 618 299 L 617 300 L 616 300 L 616 301 L 615 302 L 615 305 L 617 307 L 621 307 L 622 306 L 623 306 L 624 305 L 624 301 L 622 299 "></path>
        <path fill="none" stroke="#fa00fa" stroke-width="3" d="M 557 302 L 556 303 L 555 303 L 554 304 L 554 309 L 556 311 L 560 311 L 562 309 L 562 305 L 560 303 L 559 303 L 558 302 "></path>
        <path fill="none" stroke="#fa00fa" stroke-width="3" d="M 677 555 L 677 556 L 676 557 L 676 561 L 677 562 L 677 563 L 678 563 L 679 564 L 681 564 L 682 563 L 683 563 L 684 562 L 684 558 L 683 557 L 683 556 L 682 556 L 681 555 "></path>
        <path fill="none" stroke="#fa00fa" stroke-width="3" d="M 692 421 L 690 423 L 690 424 L 689 425 L 690 426 L 690 428 L 692 430 L 695 430 L 697 428 L 697 427 L 698 426 L 698 425 L 697 424 L 697 422 L 696 421 "></path>
        <path fill="none" stroke="#fa00fa" stroke-width="3" d="M 707 301 L 706 302 L 706 307 L 708 309 L 713 309 L 714 308 L 714 303 L 712 301 "></path>
        <path fill="none" stroke="#fa00fa" stroke-width="3" d="M 561 438 L 560 439 L 559 439 L 557 441 L 557 442 L 556 443 L 557 444 L 557 445 L 558 446 L 559 446 L 560 447 L 561 447 L 562 446 L 563 446 L 565 444 L 565 439 L 564 438 "></path>
        <path fill="none" stroke="#fa00fa" stroke-width="3" d="M 481 449 L 479 451 L 479 456 L 480 457 L 485 457 L 487 455 L 487 451 L 485 449 "></path>
        <path fill="none" stroke="#fa00fa" stroke-width="3" d="M 450 378 L 449 379 L 449 384 L 451 386 L 452 386 L 453 387 L 454 387 L 455 386 L 456 386 L 457 385 L 457 382 L 456 381 L 456 380 L 455 379 L 454 379 L 453 378 "></path>
        <path fill="none" stroke="#fa00fa" stroke-width="3" d="M 496 526 L 494 528 L 494 532 L 496 534 L 500 534 L 502 532 L 502 528 L 500 526 "></path>
        <path fill="none" stroke="#fa00fa" stroke-width="3" d="M 377 450 L 375 452 L 375 457 L 376 458 L 376 459 L 377 459 L 378 460 L 380 460 L 381 459 L 381 458 L 382 457 L 382 454 L 381 453 L 381 452 L 379 450 "></path>
        <path fill="none" stroke="#fa00fa" stroke-width="3" d="M 437 330 L 435 332 L 435 335 L 437 337 L 442 337 L 444 335 L 444 332 L 442 330 "></path>
        <path fill="none" stroke="#fa00fa" stroke-width="3" d="M 513 344 L 512 345 L 512 348 L 514 350 L 514 351 L 516 353 L 518 353 L 520 351 L 520 347 L 517 344 "></path>
        <path fill="none" stroke="#fa00fa" stroke-width="3" d="M 424 256 L 423 257 L 422 257 L 421 258 L 421 261 L 422 262 L 422 263 L 423 264 L 428 264 L 429 263 L 429 258 L 428 257 L 427 257 L 426 256 "></path>
        <path fill="none" stroke="#fa00fa" stroke-width="3" d="M 560 464 L 559 465 L 558 465 L 558 466 L 557 467 L 557 468 L 558 469 L 558 470 L 559 470 L 561 472 L 564 472 L 566 470 L 566 467 L 565 466 L 565 465 L 564 465 L 563 464 "></path>
        <path fill="none" stroke="#fa00fa" stroke-width="3" d="M 528 555 L 526 557 L 526 560 L 528 562 L 532 562 L 533 561 L 534 561 L 535 560 L 535 557 L 533 555 "></path>
        <path fill="none" stroke="#fa00fa" stroke-width="3" d="M 604 539 L 603 540 L 602 540 L 601 541 L 601 545 L 602 546 L 603 546 L 604 547 L 606 547 L 607 546 L 608 546 L 609 545 L 609 544 L 610 543 L 609 542 L 609 541 L 607 539 "></path>
        <path fill="none" stroke="#fa00fa" stroke-width="3" d="M 380 541 L 379 542 L 378 542 L 376 544 L 376 547 L 378 549 L 382 549 L 384 547 L 384 546 L 385 545 L 384 544 L 384 543 L 382 541 "></path>
        <path fill="none" stroke="#fa00fa" stroke-width="3" d="M 557 524 L 556 525 L 555 525 L 555 526 L 554 527 L 554 530 L 556 532 L 559 532 L 560 531 L 561 531 L 562 530 L 562 526 L 560 524 "></path>
        <path fill="none" stroke="#fa00fa" stroke-width="3" d="M 601 424 L 599 426 L 599 430 L 601 432 L 605 432 L 607 430 L 607 428 L 606 427 L 606 426 L 604 424 "></path>
        <path fill="none" stroke="#fa00fa" stroke-width="3" d="M 409 333 L 408 334 L 407 334 L 406 335 L 406 338 L 407 339 L 407 340 L 408 340 L 409 341 L 412 341 L 414 339 L 414 335 L 413 334 L 412 334 L 411 333 "></path>
        <path fill="none" stroke="#fa00fa" stroke-width="3" d="M 531 303 L 528 306 L 528 309 L 530 311 L 533 311 L 534 310 L 535 310 L 535 309 L 536 308 L 536 305 L 534 303 "></path>
        <path fill="none" stroke="#fa00fa" stroke-width="3" d="M 472 438 L 471 439 L 470 439 L 468 441 L 468 445 L 469 446 L 473 446 L 476 443 L 476 440 L 474 438 "></path>
        <path fill="none" stroke="#fa00fa" stroke-width="3" d="M 603 616 L 602 617 L 602 618 L 601 619 L 601 621 L 603 623 L 604 623 L 605 624 L 606 623 L 608 623 L 609 622 L 609 617 L 608 616 "></path>
        <path fill="none" stroke="#fa00fa" stroke-width="3" d="M 618 525 L 617 526 L 616 526 L 615 527 L 615 532 L 617 534 L 620 534 L 622 532 L 622 528 L 620 526 L 619 526 "></path>
        <path fill="none" stroke="#fa00fa" stroke-width="3" d="M 483 514 L 482 515 L 481 515 L 481 519 L 482 520 L 483 520 L 484 521 L 486 521 L 487 520 L 488 520 L 489 519 L 489 518 L 490 517 L 490 516 L 488 514 "></path>
        <path fill="none" stroke="#fa00fa" stroke-width="3" d="M 485 271 L 484 272 L 484 273 L 483 274 L 483 277 L 484 278 L 484 279 L 489 279 L 489 278 L 490 277 L 490 272 L 489 272 L 488 271 "></path>
        <path fill="none" stroke="#fa00fa" stroke-width="3" d="M 378 319 L 376 321 L 376 323 L 377 324 L 377 325 L 378 326 L 382 326 L 384 324 L 384 320 L 383 319 "></path>
        <path fill="none" stroke="#fa00fa" stroke-width="3" d="M 542 498 L 540 500 L 540 503 L 541 504 L 541 505 L 542 505 L 543 506 L 546 506 L 548 504 L 548 502 L 544 498 "></path>
        <path fill="none" stroke="#fa00fa" stroke-width="3" d="M 380 346 L 379 347 L 379 352 L 381 354 L 384 354 L 385 353 L 385 352 L 386 351 L 386 349 L 385 348 L 385 347 L 384 346 "></path>
        <path fill="none" stroke="#fa00fa" stroke-width="3" d="M 532 284 L 531 285 L 529 285 L 529 286 L 528 287 L 528 289 L 529 290 L 529 291 L 530 291 L 531 292 L 534 292 L 536 290 L 536 288 L 535 287 L 535 286 L 534 285 L 533 285 "></path>
        <path fill="none" stroke="#fa00fa" stroke-width="3" d="M 709 555 L 707 557 L 707 562 L 709 564 L 711 564 L 713 562 L 713 557 L 711 555 "></path>
        <path fill="none" stroke="#fa00fa" stroke-width="3" d="M 484 541 L 484 542 L 483 543 L 483 546 L 485 548 L 489 548 L 490 547 L 490 546 L 491 545 L 490 544 L 490 542 L 489 541 "></path>
        <path fill="none" stroke="#fa00fa" stroke-width="3" d="M 575 556 L 574 557 L 574 558 L 573 559 L 573 560 L 574 561 L 574 562 L 576 564 L 579 564 L 580 563 L 580 558 L 578 556 "></path>
        <path fill="none" stroke="#fa00fa" stroke-width="3" d="M 694 586 L 693 587 L 692 587 L 692 588 L 691 589 L 691 590 L 692 591 L 692 592 L 693 593 L 697 593 L 699 591 L 699 588 L 697 586 "></path>
        <path fill="none" stroke="#fa00fa" stroke-width="3" d="M 605 511 L 603 513 L 603 516 L 604 517 L 604 518 L 605 519 L 608 519 L 610 517 L 610 514 L 607 511 "></path>
        <path fill="none" stroke="#fa00fa" stroke-width="3" d="M 559 282 L 558 283 L 557 283 L 555 285 L 555 290 L 556 291 L 558 291 L 561 288 L 561 287 L 562 286 L 562 285 L 561 284 L 561 283 L 560 283 "></path>
        <path fill="none" stroke="#fa00fa" stroke-width="3" d="M 453 406 L 451 408 L 451 412 L 453 414 L 456 414 L 457 413 L 457 407 L 456 406 "></path>
        <path fill="none" stroke="#fa00fa" stroke-width="3" d="M 451 495 L 449 497 L 449 499 L 450 500 L 450 501 L 451 501 L 452 502 L 453 502 L 454 501 L 455 501 L 457 499 L 457 497 L 455 495 "></path>
        <path fill="none" stroke="#fa00fa" stroke-width="3" d="M 693 376 L 692 377 L 691 377 L 691 378 L 690 379 L 690 381 L 691 382 L 691 383 L 692 383 L 693 384 L 694 384 L 695 383 L 696 383 L 696 382 L 697 381 L 697 378 L 695 376 "></path>
        <path fill="none" stroke="#fa00fa" stroke-width="3" d="M 589 570 L 588 571 L 587 571 L 587 572 L 586 573 L 586 574 L 587 575 L 587 576 L 588 576 L 589 577 L 591 577 L 592 576 L 593 576 L 594 575 L 594 572 L 593 571 L 592 571 L 591 570 "></path>
        <path fill="none" stroke="#fa00fa" stroke-width="3" d="M 562 499 L 558 503 L 558 504 L 560 506 L 564 506 L 565 505 L 565 504 L 566 503 L 566 501 L 564 499 "></path>
        <path fill="none" stroke="#fa00fa" stroke-width="3" d="M 409 661 L 408 662 L 407 662 L 406 663 L 406 666 L 408 668 L 412 668 L 413 667 L 413 663 L 412 662 L 411 662 L 410 661 "></path>
        <path fill="none" stroke="#fa00fa" stroke-width="3" d="M 662 287 L 660 289 L 660 293 L 662 295 L 663 295 L 664 294 L 665 294 L 666 293 L 666 288 L 665 287 "></path>
        <path fill="none" stroke="#fa00fa" stroke-width="3" d="M 680 390 L 677 393 L 677 396 L 683 396 L 685 394 L 685 392 L 683 390 "></path>
        <path fill="none" stroke="#fa00fa" stroke-width="3" d="M 411 404 L 410 405 L 409 405 L 409 409 L 411 411 L 414 411 L 416 409 L 416 407 L 415 406 L 415 405 L 414 405 L 413 404 "></path>
        <path fill="none" stroke="#fa00fa" stroke-width="3" d="M 485 615 L 484 616 L 483 616 L 482 617 L 482 618 L 481 619 L 482 620 L 482 621 L 483 621 L 484 622 L 487 622 L 489 620 L 489 618 L 488 617 L 488 616 L 487 616 L 486 615 "></path>
        <path fill="none" stroke="#fa00fa" stroke-width="3" d="M 677 334 L 675 336 L 675 337 L 676 338 L 676 339 L 677 340 L 681 340 L 683 338 L 683 336 L 681 334 "></path>
        <path fill="none" stroke="#fa00fa" stroke-width="3" d="M 680 408 L 679 409 L 678 409 L 677 410 L 677 413 L 679 415 L 682 415 L 684 413 L 684 410 L 683 409 L 682 409 L 681 408 "></path>
        <path fill="none" stroke="#fa00fa" stroke-width="3" d="M 621 272 L 619 274 L 619 278 L 620 279 L 624 279 L 625 278 L 625 273 L 624 272 "></path>
        <path fill="none" stroke="#fa00fa" stroke-width="3" d="M 484 241 L 484 242 L 483 243 L 483 246 L 484 247 L 484 248 L 488 248 L 489 247 L 489 242 L 488 241 "></path>
        <path fill="none" stroke="#fa00fa" stroke-width="3" d="M 425 558 L 423 560 L 423 561 L 422 562 L 425 565 L 427 565 L 430 562 L 430 561 L 429 560 L 429 559 L 428 559 L 427 558 "></path>
        <path fill="none" stroke="#fa00fa" stroke-width="3" d="M 395 375 L 394 376 L 394 380 L 396 382 L 399 382 L 400 381 L 400 377 L 398 375 "></path>
        <path fill="none" stroke="#fa00fa" stroke-width="3" d="M 647 274 L 646 275 L 646 278 L 648 280 L 651 280 L 653 278 L 653 275 L 652 274 "></path>
        <path fill="none" stroke="#fa00fa" stroke-width="3" d="M 753 379 L 752 380 L 752 384 L 753 384 L 754 385 L 757 385 L 759 383 L 759 381 L 757 379 "></path>
        <path fill="none" stroke="#fa00fa" stroke-width="3" d="M 711 422 L 709 424 L 709 427 L 711 429 L 713 429 L 715 427 L 715 423 L 714 422 "></path>
        <path fill="none" stroke="#fa00fa" stroke-width="3" d="M 604 375 L 603 376 L 603 378 L 604 379 L 604 380 L 605 380 L 606 381 L 609 381 L 610 380 L 610 377 L 608 375 "></path>
        <path fill="none" stroke="#fa00fa" stroke-width="3" d="M 724 572 L 723 573 L 722 573 L 722 574 L 721 575 L 721 576 L 722 577 L 722 578 L 723 578 L 724 579 L 725 579 L 726 578 L 727 578 L 727 577 L 728 576 L 728 574 L 726 572 "></path>
        <path fill="none" stroke="#fa00fa" stroke-width="3" d="M 798 347 L 796 349 L 796 350 L 797 351 L 797 352 L 798 353 L 802 353 L 803 352 L 803 349 L 801 347 "></path>
        <path fill="none" stroke="#fa00fa" stroke-width="3" d="M 469 603 L 468 604 L 468 605 L 467 606 L 467 607 L 469 609 L 473 609 L 474 608 L 474 605 L 472 603 "></path>
        <path fill="none" stroke="#fa00fa" stroke-width="3" d="M 483 214 L 482 215 L 482 219 L 483 220 L 487 220 L 488 219 L 488 215 L 487 214 "></path>
        <path fill="none" stroke="#fa00fa" stroke-width="3" d="M 468 349 L 467 350 L 466 350 L 466 351 L 465 352 L 465 353 L 466 354 L 466 355 L 467 355 L 468 356 L 470 356 L 472 354 L 472 352 L 470 350 L 469 350 "></path>
        <path fill="none" stroke="#fa00fa" stroke-width="3" d="M 393 289 L 392 290 L 392 293 L 394 295 L 396 295 L 397 294 L 398 294 L 398 293 L 399 292 L 399 291 L 397 289 "></path>
        <path fill="none" stroke="#fa00fa" stroke-width="3" d="M 421 439 L 421 440 L 420 441 L 420 442 L 421 443 L 421 444 L 422 445 L 425 445 L 427 443 L 427 441 L 425 439 "></path>
    </g>
</svg>
