<svg xmlns="http://www.w3.org/2000/svg" xmlns:xlink="http://www.w3.org/1999/xlink" version="1.1" x="0" y="0" width="1056px" height="816px">
    <g id="rootLayer" transform="translate(0.000000, 0.000000)">
        <path fill="none" stroke="#00fafa" stroke-width="3" d="M 513 356 L 516 356 L 519 359 L 519 360 L 520 361 L 521 361 L 523 363 L 525 363 L 526 364 L 528 364 L 529 365 L 532 365 L 533 366 L 537 366 L 539 368 L 539 370 L 537 372 L 536 372 L 535 373 L 534 373 L 532 375 L 531 375 L 525 381 L 525 382 L 523 384 L 523 385 L 522 386 L 522 388 L 521 389 L 521 395 L 520 396 L 520 397 L 519 398 L 517 398 L 516 397 L 516 396 L 515 395 L 515 394 L 514 393 L 514 391 L 513 390 L 513 389 L 511 387 L 511 386 L 504 379 L 503 379 L 501 377 L 500 377 L 498 375 L 497 375 L 495 373 L 495 372 L 496 371 L 497 371 L 498 370 L 499 370 L 500 369 L 501 369 L 503 367 L 504 367 L 508 363 L 508 362 L 511 359 L 511 358 "></path>
        <path fill="none" stroke="#00fafa" stroke-width="3" d="M 568 336 L 569 335 L 574 335 L 575 336 L 587 336 L 588 337 L 590 337 L 591 338 L 592 338 L 593 339 L 594 339 L 595 340 L 598 340 L 599 341 L 609 341 L 610 340 L 613 340 L 614 339 L 616 339 L 617 338 L 618 338 L 619 339 L 619 341 L 618 342 L 618 343 L 617 344 L 617 346 L 616 347 L 616 349 L 615 350 L 615 362 L 616 363 L 616 366 L 617 367 L 615 369 L 601 369 L 600 368 L 577 368 L 576 369 L 571 369 L 570 370 L 569 370 L 568 369 L 567 369 L 566 368 L 566 356 L 565 355 L 565 352 L 564 351 L 564 350 L 563 349 L 563 340 L 564 339 L 564 338 L 565 337 L 566 337 L 567 336 "></path>
        <path fill="none" stroke="#00fafa" stroke-width="3" d="M 588 422 L 591 422 L 592 423 L 594 423 L 595 424 L 596 424 L 597 425 L 598 425 L 599 426 L 600 426 L 601 427 L 603 427 L 604 428 L 609 428 L 610 429 L 612 429 L 614 431 L 614 433 L 611 436 L 611 437 L 608 440 L 608 441 L 607 442 L 607 443 L 606 444 L 606 445 L 605 446 L 605 448 L 603 450 L 590 450 L 589 451 L 586 451 L 585 450 L 584 450 L 582 448 L 582 447 L 581 446 L 581 431 L 582 430 L 582 429 L 583 428 L 583 427 "></path>
    </g>
</svg>
