<svg xmlns="http://www.w3.org/2000/svg" xmlns:xlink="http://www.w3.org/1999/xlink" version="1.1" x="0" y="0" width="1056px" height="816px">
    <g id="rootLayer" transform="translate(0.000000, 0.000000)">
        <path fill="none" stroke="#00fafa" stroke-width="3" d="M 513 356 L 516 356 L 519 359 L 519 360 L 520 361 L 521 361 L 523 363 L 525 363 L 526 364 L 528 364 L 529 365 L 532 365 L 533 366 L 537 366 L 539 368 L 539 370 L 537 372 L 536 372 L 535 373 L 534 373 L 532 375 L 531 375 L 525 381 L 525 382 L 523 384 L 523 385 L 522 386 L 522 388 L 521 389 L 521 395 L 520 396 L 520 397 L 519 398 L 517 398 L 516 397 L 516 396 L 515 395 L 515 394 L 514 393 L 514 391 L 513 390 L 513 389 L 511 387 L 511 386 L 504 379 L 503 379 L 501 377 L 500 377 L 498 375 L 497 375 L 495 373 L 495 372 L 496 371 L 497 371 L 498 370 L 499 370 L 500 369 L 501 369 L 503 367 L 504 367 L 508 363 L 508 362 L 511 359 L 511 358 "></path>
    </g>
</svg>
