<svg xmlns="http://www.w3.org/2000/svg" xmlns:xlink="http://www.w3.org/1999/xlink" version="1.1" x="0" y="0" width="1056px" height="816px">
    <g id="rootLayer" transform="translate(0.000000, 0.000000)">
        <path fill="none" stroke="#ffffff" stroke-width="3" d="M 523 54 L 522 55 L 521 55 L 519 57 L 518 57 L 518 58 L 516 60 L 515 60 L 511 64 L 510 64 L 509 65 L 508 65 L 506 67 L 480 67 L 479 68 L 478 68 L 477 69 L 476 69 L 475 70 L 474 70 L 472 72 L 470 72 L 469 73 L 467 73 L 466 72 L 461 72 L 460 71 L 459 72 L 458 71 L 455 71 L 454 70 L 451 70 L 450 69 L 435 69 L 434 70 L 433 70 L 432 71 L 430 71 L 429 72 L 428 72 L 426 74 L 426 76 L 425 77 L 425 78 L 422 81 L 421 81 L 421 83 L 416 88 L 415 88 L 414 89 L 413 89 L 411 91 L 409 91 L 408 92 L 407 92 L 405 94 L 405 96 L 404 97 L 404 98 L 409 103 L 412 103 L 413 104 L 425 104 L 426 103 L 428 103 L 431 100 L 442 100 L 443 101 L 442 102 L 442 104 L 441 105 L 438 105 L 437 106 L 436 106 L 435 107 L 434 107 L 431 110 L 431 111 L 429 113 L 428 112 L 425 112 L 424 111 L 412 111 L 411 112 L 410 111 L 409 112 L 408 111 L 407 112 L 406 111 L 404 111 L 403 112 L 402 111 L 400 111 L 399 112 L 398 111 L 396 111 L 395 112 L 394 111 L 376 111 L 375 112 L 374 111 L 372 111 L 371 112 L 366 112 L 365 113 L 364 113 L 364 114 L 362 116 L 339 116 L 338 115 L 337 115 L 336 116 L 334 116 L 333 117 L 333 122 L 334 123 L 336 123 L 337 124 L 341 124 L 342 125 L 342 126 L 343 127 L 343 130 L 344 131 L 344 132 L 345 132 L 346 133 L 350 133 L 351 132 L 370 132 L 372 134 L 372 145 L 371 146 L 372 147 L 372 149 L 371 150 L 372 151 L 372 153 L 371 154 L 371 159 L 372 160 L 380 160 L 381 161 L 381 162 L 382 163 L 382 164 L 380 166 L 378 166 L 377 167 L 376 167 L 374 169 L 374 171 L 370 175 L 369 175 L 367 177 L 366 177 L 365 178 L 347 178 L 346 179 L 345 179 L 345 182 L 344 183 L 344 188 L 346 190 L 357 190 L 358 191 L 359 191 L 360 192 L 360 193 L 361 194 L 361 198 L 360 199 L 360 200 L 359 201 L 352 201 L 351 202 L 350 202 L 349 203 L 349 204 L 348 205 L 349 206 L 348 207 L 348 208 L 347 209 L 344 209 L 343 210 L 342 210 L 341 211 L 341 213 L 342 214 L 341 215 L 341 216 L 340 217 L 338 217 L 337 218 L 334 218 L 334 219 L 333 220 L 335 222 L 353 222 L 354 223 L 353 224 L 353 226 L 352 227 L 344 227 L 343 228 L 341 228 L 340 229 L 336 229 L 335 230 L 319 230 L 318 231 L 318 232 L 317 233 L 317 234 L 312 239 L 312 241 L 313 242 L 312 243 L 312 244 L 313 245 L 313 246 L 312 247 L 312 250 L 311 251 L 311 258 L 310 259 L 310 262 L 309 263 L 309 271 L 308 272 L 309 273 L 309 276 L 311 278 L 311 280 L 312 281 L 312 283 L 313 284 L 313 285 L 315 287 L 315 288 L 317 290 L 338 290 L 339 289 L 339 287 L 344 282 L 345 282 L 346 283 L 360 283 L 361 282 L 363 282 L 364 281 L 365 281 L 366 280 L 370 280 L 371 281 L 373 281 L 374 282 L 414 282 L 415 281 L 415 280 L 416 279 L 416 278 L 419 275 L 420 275 L 421 274 L 433 274 L 434 273 L 443 273 L 445 275 L 445 286 L 446 287 L 446 288 L 445 289 L 446 290 L 446 291 L 447 292 L 447 293 L 452 298 L 453 298 L 454 299 L 455 299 L 456 300 L 457 300 L 458 301 L 459 301 L 460 302 L 470 302 L 471 301 L 472 301 L 473 300 L 474 300 L 476 298 L 477 298 L 480 295 L 482 295 L 483 294 L 484 294 L 485 293 L 486 293 L 487 292 L 491 292 L 492 291 L 493 291 L 494 290 L 494 289 L 493 288 L 493 287 L 492 286 L 492 285 L 491 284 L 491 283 L 492 282 L 492 281 L 498 275 L 500 275 L 501 276 L 501 277 L 502 278 L 503 278 L 504 279 L 508 279 L 510 281 L 511 281 L 512 282 L 517 282 L 518 283 L 519 282 L 520 283 L 522 283 L 523 282 L 525 282 L 525 281 L 526 280 L 526 236 L 525 235 L 523 235 L 522 236 L 517 236 L 516 237 L 511 237 L 510 236 L 509 236 L 508 235 L 508 234 L 507 233 L 507 231 L 508 230 L 508 229 L 509 228 L 512 228 L 513 227 L 525 227 L 526 226 L 526 217 L 525 216 L 524 216 L 523 215 L 520 215 L 519 216 L 517 216 L 516 217 L 514 217 L 513 218 L 512 218 L 511 217 L 510 217 L 509 216 L 507 216 L 505 214 L 505 213 L 504 212 L 505 211 L 514 211 L 515 210 L 516 210 L 517 209 L 517 206 L 519 204 L 525 204 L 526 203 L 526 54 "></path>
        <path fill="none" stroke="#ffffff" stroke-width="3" d="M 152 66 L 151 67 L 150 67 L 149 68 L 148 68 L 147 69 L 146 69 L 146 70 L 144 72 L 143 72 L 142 73 L 141 73 L 140 74 L 138 74 L 137 75 L 134 75 L 133 76 L 132 76 L 129 79 L 118 79 L 117 80 L 115 80 L 114 81 L 114 82 L 115 83 L 115 86 L 113 88 L 112 88 L 110 90 L 111 91 L 111 92 L 110 93 L 110 94 L 111 95 L 111 96 L 110 97 L 110 98 L 109 99 L 108 99 L 107 100 L 99 100 L 98 101 L 97 101 L 97 105 L 96 106 L 96 108 L 95 109 L 95 110 L 94 111 L 94 112 L 92 114 L 91 114 L 90 115 L 89 115 L 88 116 L 63 116 L 61 118 L 61 121 L 60 122 L 58 122 L 57 123 L 51 123 L 50 122 L 47 122 L 46 121 L 44 121 L 43 120 L 36 120 L 33 117 L 32 117 L 31 116 L 3 116 L 2 115 L 1 116 L 1 192 L 2 193 L 3 192 L 10 192 L 11 191 L 12 191 L 13 190 L 13 186 L 11 184 L 10 184 L 9 183 L 9 182 L 7 180 L 7 179 L 8 178 L 7 177 L 7 175 L 8 174 L 8 171 L 9 170 L 9 169 L 10 168 L 30 168 L 31 167 L 32 168 L 35 168 L 36 169 L 36 170 L 37 171 L 37 175 L 38 176 L 50 176 L 51 175 L 53 175 L 54 174 L 54 172 L 55 171 L 55 169 L 54 169 L 53 168 L 51 168 L 50 167 L 49 167 L 47 165 L 47 163 L 50 160 L 53 160 L 54 161 L 55 161 L 57 163 L 58 163 L 59 164 L 66 164 L 67 163 L 73 163 L 74 164 L 75 163 L 76 164 L 88 164 L 89 163 L 92 163 L 93 162 L 93 161 L 94 160 L 95 160 L 96 159 L 104 159 L 105 160 L 113 160 L 114 159 L 115 159 L 116 158 L 115 157 L 115 156 L 114 155 L 115 154 L 116 154 L 116 153 L 117 152 L 190 152 L 191 151 L 193 151 L 194 150 L 194 149 L 193 148 L 192 148 L 191 147 L 191 145 L 190 144 L 192 142 L 193 142 L 194 141 L 196 141 L 197 140 L 198 141 L 199 140 L 245 140 L 246 139 L 247 139 L 247 133 L 245 131 L 244 131 L 241 128 L 239 128 L 238 127 L 238 126 L 237 125 L 237 119 L 238 118 L 238 115 L 239 114 L 239 111 L 240 110 L 240 109 L 238 107 L 238 105 L 237 104 L 235 104 L 234 103 L 230 103 L 229 104 L 224 104 L 223 105 L 197 105 L 195 103 L 195 102 L 194 101 L 194 97 L 193 96 L 182 96 L 180 94 L 180 93 L 181 92 L 181 91 L 182 90 L 182 81 L 181 80 L 181 77 L 180 76 L 179 76 L 176 73 L 175 73 L 174 72 L 173 72 L 172 71 L 171 71 L 170 70 L 170 69 L 169 69 L 168 68 L 167 68 L 166 67 L 163 67 L 162 66 "></path>
        <path fill="none" stroke="#ffffff" stroke-width="3" d="M 313 145 L 311 147 L 309 147 L 308 148 L 295 148 L 294 149 L 292 149 L 289 152 L 274 152 L 272 154 L 273 155 L 273 157 L 272 158 L 272 159 L 271 160 L 223 160 L 222 161 L 220 161 L 219 162 L 218 162 L 216 164 L 211 164 L 210 165 L 208 165 L 208 167 L 205 170 L 205 171 L 204 172 L 202 172 L 201 173 L 198 173 L 197 172 L 188 172 L 187 173 L 186 173 L 186 175 L 188 177 L 188 179 L 189 179 L 190 180 L 190 182 L 188 184 L 162 184 L 161 185 L 160 185 L 160 189 L 159 190 L 159 191 L 157 193 L 156 193 L 154 195 L 154 196 L 152 198 L 152 201 L 151 202 L 152 203 L 151 204 L 151 205 L 150 206 L 151 207 L 151 208 L 150 209 L 150 212 L 149 213 L 149 217 L 148 218 L 149 219 L 149 220 L 148 221 L 148 226 L 150 228 L 150 229 L 153 232 L 153 234 L 154 235 L 154 240 L 153 241 L 153 242 L 154 243 L 154 244 L 155 244 L 156 245 L 165 245 L 166 244 L 172 244 L 173 245 L 206 245 L 207 244 L 208 244 L 209 245 L 210 244 L 213 244 L 214 245 L 215 244 L 217 244 L 218 245 L 219 244 L 221 244 L 222 245 L 223 244 L 225 244 L 226 245 L 227 244 L 229 244 L 230 245 L 231 244 L 252 244 L 253 243 L 254 243 L 254 238 L 256 236 L 268 236 L 269 235 L 270 235 L 270 230 L 268 228 L 261 228 L 260 227 L 261 226 L 260 225 L 262 223 L 267 223 L 268 224 L 269 223 L 270 224 L 271 223 L 272 224 L 274 224 L 275 223 L 277 223 L 278 222 L 279 222 L 280 221 L 281 221 L 282 220 L 284 220 L 285 219 L 286 219 L 286 218 L 287 217 L 287 215 L 289 213 L 292 213 L 294 211 L 295 211 L 295 210 L 299 206 L 307 206 L 308 205 L 310 205 L 311 204 L 321 204 L 323 202 L 323 194 L 322 193 L 322 192 L 321 191 L 320 191 L 318 189 L 318 188 L 319 187 L 320 187 L 322 185 L 323 185 L 323 184 L 324 183 L 324 182 L 325 181 L 325 180 L 327 178 L 336 178 L 337 177 L 338 177 L 342 173 L 342 172 L 343 171 L 344 171 L 345 170 L 349 170 L 350 169 L 352 169 L 352 168 L 353 167 L 353 164 L 352 163 L 352 162 L 348 158 L 347 158 L 346 157 L 345 157 L 344 156 L 344 154 L 343 154 L 340 151 L 340 150 L 339 150 L 337 148 L 335 148 L 334 147 L 327 147 L 326 146 L 321 146 L 320 145 "></path>
        <path fill="none" stroke="#ffffff" stroke-width="3" d="M 213 177 L 214 176 L 231 176 L 232 177 L 232 178 L 234 180 L 232 182 L 232 183 L 231 184 L 213 184 L 211 182 L 211 180 L 213 178 "></path>
        <path fill="none" stroke="#ffffff" stroke-width="3" d="M 159 93 L 160 92 L 174 92 L 176 94 L 176 95 L 173 98 L 172 98 L 171 99 L 163 99 L 162 98 L 160 98 L 159 97 L 159 96 L 158 95 L 159 94 "></path>
    </g>
</svg>
