<svg xmlns="http://www.w3.org/2000/svg" xmlns:xlink="http://www.w3.org/1999/xlink" version="1.1" x="0" y="0" width="1056px" height="816px">
    <g id="rootLayer" transform="translate(0.000000, 0.000000)">
        <path fill="none" stroke="#fa00fa" stroke-width="3" d="M 654 17 L 654 56 L 653 57 L 653 61 L 652 62 L 634 62 L 633 61 L 632 62 L 616 62 L 615 63 L 614 62 L 612 62 L 611 63 L 610 62 L 609 62 L 608 63 L 605 63 L 604 64 L 597 64 L 596 63 L 585 63 L 584 64 L 582 64 L 581 63 L 572 63 L 571 64 L 568 64 L 567 65 L 566 64 L 564 64 L 563 65 L 562 64 L 560 64 L 560 65 L 559 66 L 557 66 L 556 67 L 555 67 L 554 66 L 543 66 L 542 65 L 532 65 L 531 66 L 529 66 L 528 65 L 527 65 L 526 64 L 510 64 L 509 63 L 508 64 L 507 64 L 506 63 L 489 63 L 488 64 L 486 64 L 486 66 L 487 66 L 489 68 L 491 68 L 492 69 L 494 69 L 495 70 L 496 70 L 497 71 L 520 71 L 521 72 L 522 72 L 523 71 L 524 72 L 527 72 L 529 74 L 529 75 L 528 76 L 516 76 L 515 77 L 514 76 L 512 76 L 511 77 L 510 76 L 508 76 L 507 77 L 506 76 L 504 76 L 503 77 L 502 76 L 501 76 L 500 77 L 486 77 L 485 78 L 485 80 L 486 81 L 486 83 L 484 85 L 484 87 L 485 88 L 494 88 L 495 87 L 498 87 L 498 83 L 499 82 L 500 82 L 501 83 L 501 84 L 500 85 L 500 86 L 501 87 L 502 87 L 502 83 L 503 82 L 504 82 L 505 83 L 506 83 L 507 82 L 510 82 L 511 81 L 513 81 L 514 80 L 520 80 L 521 81 L 522 81 L 523 80 L 524 81 L 528 81 L 529 82 L 530 81 L 532 81 L 533 82 L 534 82 L 535 81 L 536 81 L 537 82 L 538 82 L 539 81 L 540 82 L 542 82 L 543 81 L 544 82 L 550 82 L 551 81 L 559 81 L 560 80 L 567 80 L 568 81 L 568 83 L 567 84 L 564 84 L 564 86 L 566 86 L 567 85 L 568 86 L 570 86 L 571 85 L 572 86 L 574 86 L 575 85 L 576 86 L 582 86 L 583 85 L 584 85 L 585 86 L 586 85 L 588 85 L 589 86 L 591 84 L 592 85 L 594 85 L 595 84 L 598 84 L 599 83 L 610 83 L 611 82 L 612 83 L 614 83 L 615 82 L 618 82 L 619 81 L 620 82 L 622 82 L 623 81 L 624 82 L 629 82 L 630 83 L 631 82 L 632 82 L 633 83 L 634 83 L 635 82 L 636 83 L 645 83 L 646 84 L 647 83 L 648 83 L 649 84 L 650 84 L 651 83 L 653 85 L 653 89 L 652 90 L 650 90 L 649 89 L 648 90 L 632 90 L 631 91 L 630 90 L 629 90 L 628 91 L 628 92 L 629 93 L 630 93 L 631 92 L 633 94 L 633 97 L 632 98 L 632 99 L 634 99 L 634 94 L 635 93 L 636 93 L 637 94 L 638 93 L 640 93 L 641 94 L 642 93 L 644 93 L 645 94 L 646 93 L 648 93 L 649 94 L 650 93 L 652 93 L 653 94 L 653 97 L 652 98 L 652 99 L 653 100 L 653 230 L 654 231 L 730 231 L 731 232 L 731 248 L 729 250 L 709 250 L 708 251 L 708 334 L 707 335 L 704 335 L 703 336 L 702 335 L 701 335 L 700 336 L 699 336 L 698 335 L 697 335 L 696 336 L 695 336 L 694 335 L 693 335 L 692 336 L 691 336 L 690 335 L 689 335 L 688 336 L 687 336 L 686 335 L 685 335 L 684 336 L 683 336 L 682 335 L 681 335 L 680 336 L 679 336 L 678 335 L 677 335 L 676 336 L 675 336 L 674 335 L 673 335 L 672 336 L 671 336 L 670 335 L 668 335 L 667 336 L 666 335 L 664 335 L 663 336 L 662 335 L 660 335 L 659 336 L 658 335 L 656 335 L 655 336 L 654 335 L 628 335 L 627 336 L 626 335 L 624 335 L 623 336 L 622 335 L 620 335 L 619 336 L 617 336 L 616 337 L 616 344 L 617 345 L 617 349 L 614 352 L 602 352 L 601 351 L 599 351 L 595 347 L 595 342 L 597 340 L 597 337 L 595 335 L 595 333 L 594 332 L 594 330 L 593 330 L 592 329 L 591 330 L 584 330 L 583 331 L 577 331 L 576 332 L 575 332 L 574 333 L 573 333 L 572 334 L 572 336 L 571 337 L 569 337 L 568 338 L 564 338 L 563 339 L 562 338 L 560 338 L 559 339 L 558 338 L 557 338 L 556 339 L 555 339 L 554 338 L 553 338 L 552 339 L 551 339 L 550 338 L 549 338 L 548 339 L 547 339 L 546 338 L 545 338 L 544 339 L 536 339 L 535 340 L 534 339 L 532 339 L 531 340 L 530 339 L 528 339 L 527 340 L 526 339 L 525 339 L 524 340 L 523 340 L 522 339 L 521 339 L 520 340 L 516 340 L 515 341 L 512 341 L 511 342 L 510 341 L 508 341 L 507 342 L 506 341 L 504 341 L 503 342 L 500 342 L 499 343 L 498 342 L 496 342 L 495 343 L 494 342 L 492 342 L 491 343 L 490 342 L 489 342 L 487 344 L 486 343 L 484 343 L 484 345 L 483 346 L 482 345 L 482 343 L 481 343 L 480 344 L 480 346 L 481 347 L 481 348 L 482 348 L 482 347 L 483 346 L 484 347 L 484 348 L 486 348 L 487 347 L 488 348 L 490 348 L 491 347 L 492 348 L 492 351 L 493 352 L 493 353 L 494 354 L 494 355 L 495 356 L 495 359 L 494 360 L 494 361 L 493 362 L 493 365 L 495 367 L 493 369 L 494 370 L 494 373 L 493 374 L 493 375 L 492 376 L 492 378 L 493 379 L 492 380 L 493 380 L 495 382 L 494 383 L 495 384 L 495 385 L 496 386 L 496 388 L 493 391 L 493 392 L 492 393 L 493 394 L 493 397 L 492 398 L 492 402 L 493 403 L 493 404 L 494 405 L 494 406 L 496 408 L 496 409 L 494 411 L 494 412 L 493 413 L 493 414 L 495 416 L 495 417 L 494 418 L 494 419 L 495 419 L 496 420 L 496 426 L 495 427 L 495 430 L 494 431 L 495 432 L 494 433 L 493 433 L 493 434 L 494 435 L 494 437 L 491 440 L 490 439 L 488 439 L 488 441 L 489 442 L 490 442 L 490 441 L 491 440 L 494 443 L 494 446 L 496 448 L 496 449 L 495 450 L 494 450 L 492 452 L 492 453 L 493 454 L 493 455 L 494 455 L 496 457 L 493 460 L 492 460 L 492 462 L 493 463 L 495 463 L 496 464 L 496 470 L 495 471 L 494 471 L 493 472 L 493 475 L 495 475 L 496 476 L 496 478 L 495 479 L 493 479 L 493 480 L 491 482 L 490 481 L 488 481 L 487 482 L 486 481 L 484 481 L 483 482 L 482 481 L 480 481 L 479 482 L 478 481 L 478 480 L 477 479 L 476 479 L 476 480 L 475 481 L 473 479 L 472 479 L 473 480 L 471 482 L 470 481 L 468 481 L 467 482 L 466 481 L 464 481 L 463 482 L 462 481 L 460 481 L 459 482 L 458 481 L 457 481 L 456 482 L 456 483 L 457 484 L 458 484 L 459 483 L 460 484 L 462 484 L 463 483 L 464 484 L 466 484 L 467 483 L 468 484 L 470 484 L 471 483 L 472 484 L 474 484 L 475 483 L 476 484 L 478 484 L 479 483 L 481 485 L 482 485 L 482 484 L 483 483 L 485 485 L 486 485 L 487 484 L 488 484 L 489 485 L 489 486 L 488 487 L 489 487 L 490 486 L 490 485 L 491 484 L 492 485 L 492 487 L 493 488 L 495 488 L 496 489 L 496 490 L 497 491 L 497 493 L 498 494 L 498 495 L 497 496 L 497 497 L 496 498 L 496 500 L 494 502 L 493 502 L 492 503 L 492 504 L 493 505 L 495 505 L 496 506 L 496 507 L 497 508 L 497 514 L 498 515 L 498 517 L 497 518 L 497 519 L 498 520 L 498 522 L 497 523 L 497 528 L 496 529 L 497 530 L 497 531 L 498 532 L 498 534 L 497 535 L 497 541 L 498 542 L 498 545 L 497 546 L 497 547 L 498 548 L 498 551 L 499 552 L 499 553 L 498 554 L 498 555 L 497 556 L 497 557 L 496 558 L 497 559 L 497 560 L 519 560 L 520 561 L 527 561 L 528 562 L 530 562 L 531 561 L 532 562 L 534 562 L 535 561 L 536 562 L 538 562 L 539 561 L 540 562 L 542 562 L 543 561 L 544 562 L 578 562 L 579 561 L 580 562 L 582 562 L 583 561 L 584 562 L 586 562 L 587 561 L 588 562 L 589 562 L 590 561 L 593 561 L 594 562 L 595 561 L 596 561 L 597 562 L 598 562 L 599 561 L 600 561 L 601 562 L 602 562 L 603 561 L 604 562 L 639 562 L 640 563 L 641 563 L 642 562 L 643 562 L 644 563 L 645 563 L 646 562 L 647 562 L 648 563 L 649 563 L 650 562 L 651 562 L 652 563 L 653 563 L 654 562 L 655 562 L 656 563 L 657 563 L 658 562 L 659 562 L 660 563 L 661 563 L 662 562 L 663 562 L 664 563 L 666 563 L 667 562 L 668 563 L 670 563 L 671 562 L 672 563 L 674 563 L 675 562 L 676 563 L 678 563 L 679 562 L 680 563 L 682 563 L 683 562 L 684 563 L 686 563 L 687 562 L 688 563 L 690 563 L 691 562 L 692 563 L 694 563 L 695 562 L 696 563 L 697 563 L 698 562 L 699 562 L 700 563 L 701 563 L 702 562 L 705 562 L 706 561 L 706 553 L 708 551 L 709 551 L 709 550 L 711 548 L 712 548 L 713 549 L 714 549 L 715 548 L 716 548 L 717 549 L 718 549 L 719 548 L 720 548 L 721 549 L 722 549 L 723 548 L 724 548 L 725 549 L 726 549 L 727 548 L 745 548 L 746 549 L 747 548 L 749 548 L 750 549 L 751 548 L 827 548 L 828 547 L 829 547 L 829 546 L 830 545 L 830 539 L 829 538 L 829 537 L 830 536 L 830 533 L 829 532 L 829 526 L 830 525 L 830 499 L 829 498 L 829 496 L 830 495 L 830 493 L 829 492 L 830 491 L 830 486 L 829 485 L 830 484 L 830 466 L 831 465 L 833 465 L 834 464 L 836 464 L 837 465 L 838 464 L 840 464 L 841 465 L 842 464 L 844 464 L 845 465 L 846 464 L 922 464 L 922 349 L 924 347 L 925 347 L 926 346 L 945 346 L 945 345 L 946 344 L 945 343 L 945 341 L 946 340 L 946 338 L 945 337 L 946 336 L 945 335 L 945 332 L 946 331 L 945 330 L 945 328 L 946 327 L 946 326 L 945 325 L 945 324 L 946 323 L 945 322 L 945 320 L 946 319 L 945 318 L 945 316 L 946 315 L 945 314 L 945 313 L 946 312 L 945 311 L 946 310 L 945 309 L 945 307 L 946 306 L 945 305 L 945 303 L 946 302 L 945 301 L 945 298 L 946 297 L 946 294 L 945 293 L 945 290 L 946 289 L 945 288 L 945 286 L 946 285 L 945 284 L 945 278 L 946 277 L 946 275 L 945 274 L 946 273 L 945 272 L 945 271 L 946 270 L 945 269 L 945 261 L 946 260 L 945 259 L 945 257 L 946 256 L 946 254 L 945 253 L 946 252 L 945 251 L 945 250 L 946 249 L 945 248 L 945 247 L 946 246 L 945 245 L 945 236 L 946 235 L 946 233 L 945 232 L 946 231 L 945 230 L 945 229 L 946 228 L 946 225 L 945 224 L 945 223 L 946 222 L 945 221 L 946 220 L 946 217 L 945 216 L 945 215 L 946 214 L 945 213 L 946 212 L 945 211 L 945 208 L 946 207 L 946 201 L 945 200 L 946 199 L 946 196 L 945 195 L 946 194 L 945 193 L 945 192 L 946 191 L 946 188 L 945 187 L 946 186 L 945 185 L 946 184 L 946 180 L 945 179 L 946 178 L 946 175 L 945 174 L 946 173 L 946 171 L 945 170 L 945 169 L 946 168 L 946 167 L 945 166 L 946 165 L 946 158 L 945 157 L 946 156 L 946 154 L 945 153 L 946 152 L 946 150 L 945 149 L 946 148 L 946 146 L 945 145 L 945 143 L 946 142 L 945 141 L 945 140 L 946 139 L 946 137 L 945 136 L 946 135 L 946 134 L 945 133 L 943 133 L 942 132 L 940 132 L 939 133 L 938 132 L 936 132 L 935 133 L 934 132 L 932 132 L 931 133 L 930 132 L 928 132 L 927 133 L 926 132 L 924 132 L 923 133 L 922 132 L 921 132 L 920 133 L 919 133 L 918 132 L 917 132 L 916 133 L 903 133 L 902 132 L 901 132 L 900 133 L 899 133 L 898 132 L 897 132 L 896 133 L 895 133 L 894 132 L 893 132 L 892 133 L 891 133 L 890 132 L 889 132 L 888 133 L 887 133 L 886 132 L 885 132 L 884 133 L 883 133 L 882 132 L 881 132 L 880 133 L 879 133 L 878 132 L 877 132 L 876 133 L 875 133 L 874 132 L 873 132 L 872 133 L 871 133 L 870 132 L 868 132 L 867 131 L 867 17 "></path>
        <path fill="none" stroke="#fa00fa" stroke-width="3" d="M 545 296 L 544 297 L 536 297 L 534 299 L 537 302 L 547 302 L 549 304 L 549 305 L 550 305 L 550 304 L 551 303 L 552 304 L 552 305 L 553 306 L 554 306 L 555 305 L 557 307 L 558 307 L 559 306 L 562 306 L 563 305 L 564 306 L 566 306 L 567 305 L 571 305 L 572 306 L 573 306 L 574 307 L 575 307 L 576 308 L 576 310 L 573 313 L 576 313 L 578 315 L 577 316 L 572 316 L 571 317 L 570 316 L 567 316 L 566 315 L 564 315 L 563 316 L 562 315 L 560 315 L 559 316 L 558 315 L 557 315 L 556 316 L 555 316 L 554 315 L 553 316 L 552 316 L 551 317 L 550 316 L 550 315 L 549 316 L 548 316 L 547 317 L 546 316 L 545 316 L 544 317 L 532 317 L 531 318 L 530 317 L 529 317 L 528 318 L 527 318 L 526 317 L 525 317 L 523 319 L 522 318 L 520 320 L 500 320 L 499 321 L 498 320 L 497 320 L 495 322 L 492 322 L 492 325 L 491 326 L 490 325 L 487 325 L 486 324 L 487 323 L 490 323 L 490 322 L 487 322 L 485 320 L 484 321 L 483 321 L 482 320 L 481 320 L 480 321 L 479 321 L 478 320 L 476 320 L 475 321 L 474 320 L 472 320 L 471 321 L 470 320 L 468 320 L 467 321 L 466 320 L 465 320 L 464 321 L 464 330 L 465 331 L 466 331 L 466 330 L 467 329 L 469 331 L 470 331 L 471 330 L 472 331 L 474 331 L 474 330 L 475 329 L 477 331 L 478 331 L 478 329 L 476 329 L 475 328 L 476 327 L 478 327 L 478 326 L 479 325 L 480 326 L 480 327 L 481 327 L 482 328 L 480 330 L 481 331 L 482 331 L 483 330 L 485 332 L 486 332 L 487 331 L 488 331 L 489 332 L 490 332 L 491 331 L 498 331 L 499 330 L 502 330 L 502 329 L 500 329 L 498 327 L 498 325 L 499 324 L 510 324 L 511 323 L 514 323 L 515 322 L 518 322 L 519 321 L 520 322 L 524 322 L 525 323 L 526 323 L 527 322 L 528 323 L 530 323 L 531 322 L 532 323 L 548 323 L 549 324 L 549 325 L 548 326 L 547 326 L 546 325 L 545 325 L 543 327 L 542 326 L 541 326 L 540 327 L 539 327 L 538 326 L 537 326 L 536 327 L 535 327 L 534 326 L 533 327 L 532 327 L 531 328 L 530 327 L 530 326 L 529 327 L 528 327 L 527 328 L 526 327 L 525 327 L 523 329 L 520 329 L 520 330 L 521 331 L 524 331 L 525 332 L 526 332 L 527 331 L 528 332 L 530 332 L 531 331 L 540 331 L 541 332 L 542 332 L 543 331 L 544 332 L 546 332 L 547 331 L 548 332 L 550 332 L 551 331 L 552 332 L 554 332 L 555 331 L 562 331 L 562 329 L 561 328 L 562 327 L 562 324 L 563 323 L 565 325 L 564 326 L 564 327 L 566 327 L 566 324 L 567 323 L 568 323 L 569 324 L 570 324 L 571 323 L 572 324 L 573 324 L 574 325 L 575 324 L 576 325 L 577 325 L 578 326 L 579 325 L 580 325 L 581 326 L 582 326 L 583 325 L 584 325 L 585 326 L 586 326 L 587 325 L 589 327 L 590 327 L 591 326 L 592 327 L 594 327 L 594 325 L 596 323 L 597 323 L 598 322 L 598 318 L 597 317 L 598 316 L 598 312 L 597 312 L 594 309 L 594 308 L 596 306 L 596 303 L 598 301 L 598 298 L 597 298 L 596 297 L 559 297 L 558 296 L 557 296 L 556 297 L 555 297 L 554 296 L 553 296 L 552 297 L 551 297 L 550 296 L 549 296 L 548 297 L 547 297 L 546 296 "></path>
        <path fill="none" stroke="#fa00fa" stroke-width="3" d="M 485 299 L 484 300 L 480 300 L 479 301 L 478 300 L 477 300 L 476 301 L 476 302 L 479 302 L 480 303 L 480 304 L 479 305 L 478 304 L 477 304 L 476 305 L 472 305 L 471 306 L 470 305 L 469 305 L 468 306 L 467 306 L 466 305 L 465 305 L 464 306 L 463 306 L 462 305 L 461 305 L 460 306 L 459 306 L 458 305 L 457 305 L 456 306 L 455 306 L 454 305 L 453 305 L 452 306 L 450 306 L 449 305 L 448 306 L 447 306 L 446 305 L 444 305 L 443 306 L 442 305 L 441 305 L 440 306 L 439 306 L 438 305 L 437 305 L 436 306 L 428 306 L 428 307 L 429 308 L 430 308 L 431 307 L 432 308 L 440 308 L 441 309 L 442 309 L 443 308 L 444 308 L 445 309 L 446 309 L 447 308 L 448 308 L 449 309 L 450 309 L 451 308 L 452 308 L 453 309 L 454 309 L 455 308 L 456 308 L 457 309 L 460 309 L 461 310 L 462 310 L 463 309 L 464 310 L 466 310 L 467 309 L 468 310 L 470 310 L 471 309 L 472 310 L 474 310 L 475 309 L 476 310 L 478 310 L 479 309 L 480 309 L 481 310 L 482 310 L 483 309 L 484 309 L 485 310 L 486 310 L 487 309 L 488 310 L 490 310 L 491 309 L 492 310 L 494 310 L 495 309 L 496 310 L 498 310 L 499 309 L 500 310 L 502 310 L 503 309 L 504 310 L 512 310 L 513 311 L 514 311 L 515 310 L 516 311 L 518 311 L 520 309 L 522 309 L 520 309 L 518 307 L 508 307 L 507 308 L 506 307 L 505 307 L 504 308 L 503 308 L 502 307 L 499 307 L 498 306 L 498 305 L 497 305 L 495 307 L 494 306 L 494 303 L 495 302 L 506 302 L 507 301 L 508 302 L 510 302 L 510 301 L 511 300 L 514 300 L 514 299 L 488 299 L 487 300 L 486 299 "></path>
        <path fill="none" stroke="#fa00fa" stroke-width="3" d="M 588 119 L 588 120 L 589 121 L 593 121 L 594 122 L 593 123 L 592 123 L 591 124 L 590 123 L 589 124 L 588 124 L 587 125 L 586 124 L 585 124 L 583 126 L 582 125 L 582 124 L 581 124 L 581 125 L 580 126 L 581 127 L 580 128 L 581 129 L 584 129 L 585 130 L 592 130 L 593 131 L 593 132 L 594 132 L 594 131 L 595 130 L 596 131 L 596 132 L 598 132 L 599 131 L 601 133 L 602 133 L 603 132 L 604 133 L 606 133 L 607 132 L 608 133 L 609 133 L 609 131 L 610 130 L 610 129 L 611 128 L 610 127 L 610 124 L 609 123 L 609 120 L 607 120 L 606 119 L 604 119 L 603 120 L 602 119 L 600 119 L 599 120 L 598 119 L 596 119 L 595 120 L 594 119 L 592 119 L 591 120 L 590 119 "></path>
        <path fill="none" stroke="#fa00fa" stroke-width="3" d="M 581 89 L 580 90 L 544 90 L 544 92 L 545 93 L 546 93 L 547 92 L 548 92 L 549 93 L 550 93 L 551 92 L 552 93 L 554 93 L 555 92 L 556 93 L 558 93 L 559 92 L 560 93 L 562 93 L 563 92 L 564 93 L 566 93 L 567 92 L 568 93 L 570 93 L 571 92 L 572 93 L 574 93 L 575 92 L 576 93 L 578 93 L 579 92 L 580 93 L 588 93 L 589 94 L 589 96 L 588 97 L 585 97 L 584 98 L 580 98 L 580 99 L 581 100 L 582 100 L 583 99 L 584 100 L 585 100 L 586 101 L 587 100 L 588 100 L 589 101 L 590 101 L 591 100 L 594 100 L 594 97 L 591 97 L 590 96 L 590 94 L 591 93 L 594 93 L 595 92 L 598 92 L 598 90 L 594 90 L 593 89 L 584 89 L 583 90 L 582 89 "></path>
        <path fill="none" stroke="#fa00fa" stroke-width="3" d="M 544 228 L 544 231 L 546 231 L 546 230 L 547 229 L 548 230 L 548 231 L 550 231 L 551 230 L 552 231 L 554 231 L 555 230 L 556 231 L 558 231 L 559 230 L 560 231 L 562 231 L 563 230 L 564 231 L 566 231 L 567 230 L 568 231 L 569 231 L 570 230 L 570 228 L 568 228 L 567 229 L 566 228 L 564 228 L 563 229 L 562 228 L 560 228 L 559 229 L 558 228 L 556 228 L 555 229 L 554 228 L 552 228 L 551 229 L 550 228 L 548 228 L 547 229 L 546 228 "></path>
        <path fill="none" stroke="#fa00fa" stroke-width="3" d="M 473 132 L 471 134 L 469 134 L 469 135 L 468 136 L 468 137 L 472 137 L 473 138 L 474 138 L 475 137 L 476 138 L 478 138 L 479 137 L 482 137 L 482 134 L 481 133 L 480 134 L 479 134 L 477 132 L 476 133 L 475 133 L 474 132 "></path>
        <path fill="none" stroke="#fa00fa" stroke-width="3" d="M 497 132 L 496 133 L 496 136 L 497 137 L 498 137 L 499 136 L 500 137 L 501 137 L 502 138 L 502 137 L 503 136 L 505 138 L 506 138 L 506 137 L 507 136 L 508 137 L 510 137 L 510 133 L 509 134 L 507 134 L 506 133 L 506 132 L 505 132 L 503 134 L 502 133 L 502 132 L 501 132 L 499 134 L 498 133 L 498 132 "></path>
        <path fill="none" stroke="#fa00fa" stroke-width="3" d="M 477 123 L 476 124 L 464 124 L 463 125 L 462 124 L 461 124 L 460 125 L 461 126 L 461 127 L 463 125 L 465 127 L 466 127 L 467 126 L 468 127 L 470 127 L 471 126 L 472 127 L 478 127 L 479 126 L 480 126 L 481 125 L 482 125 L 482 124 L 478 124 "></path>
        <path fill="none" stroke="#fa00fa" stroke-width="3" d="M 457 164 L 456 165 L 456 166 L 457 166 L 458 167 L 458 166 L 459 165 L 460 166 L 461 166 L 462 167 L 462 166 L 463 165 L 465 167 L 466 167 L 467 166 L 468 166 L 469 167 L 470 167 L 471 166 L 472 166 L 473 167 L 474 167 L 475 166 L 478 166 L 478 164 L 476 164 L 475 165 L 474 164 L 472 164 L 471 165 L 470 164 L 468 164 L 467 165 L 466 164 L 464 164 L 463 165 L 462 164 L 460 164 L 459 165 L 458 164 "></path>
    </g>
</svg>
