<svg xmlns="http://www.w3.org/2000/svg" xmlns:xlink="http://www.w3.org/1999/xlink" version="1.1" x="0" y="0" width="1056px" height="816px">
    <g id="rootLayer" transform="translate(0.000000, 0.000000)">
        <path fill="none" stroke="#fa00fa" stroke-width="3" d="M 1 1 L 1 461 L 2 462 L 1 463 L 1 653 L 2 654 L 1 655 L 1 768 L 2 769 L 1 770 L 1 814 L 36 814 L 37 813 L 38 814 L 130 814 L 131 813 L 132 814 L 141 814 L 142 813 L 143 814 L 162 814 L 163 813 L 164 814 L 179 814 L 180 813 L 181 814 L 255 814 L 256 813 L 257 814 L 549 814 L 550 813 L 551 814 L 587 814 L 588 813 L 589 814 L 1046 814 L 1046 813 L 1045 812 L 1045 811 L 1044 812 L 1043 811 L 1043 810 L 1042 809 L 1041 810 L 1040 809 L 1039 809 L 1038 808 L 1037 809 L 1037 810 L 1036 811 L 1035 811 L 1034 810 L 1033 811 L 1031 809 L 1029 809 L 1028 810 L 1026 810 L 1025 809 L 1024 810 L 1022 808 L 1020 810 L 1019 809 L 1019 810 L 1018 811 L 1016 809 L 1015 810 L 1014 810 L 1013 809 L 1012 810 L 1011 809 L 1010 810 L 1009 810 L 1008 811 L 1007 810 L 1007 809 L 1006 810 L 1004 810 L 1003 809 L 1002 810 L 1001 809 L 997 809 L 996 810 L 995 809 L 994 810 L 992 810 L 991 809 L 990 809 L 989 810 L 988 810 L 987 811 L 986 810 L 985 811 L 983 809 L 982 810 L 981 809 L 979 811 L 978 810 L 977 810 L 976 809 L 974 809 L 973 808 L 971 808 L 972 809 L 971 810 L 970 810 L 969 809 L 968 809 L 967 810 L 962 810 L 961 811 L 960 810 L 956 810 L 955 809 L 954 810 L 953 809 L 952 810 L 951 809 L 950 810 L 948 810 L 947 809 L 946 810 L 945 809 L 944 810 L 943 809 L 942 809 L 940 811 L 939 810 L 939 809 L 936 809 L 936 810 L 935 811 L 934 810 L 934 809 L 929 809 L 929 810 L 928 811 L 927 810 L 924 810 L 923 811 L 922 810 L 921 810 L 920 809 L 920 810 L 919 811 L 918 810 L 918 809 L 916 811 L 915 810 L 915 809 L 914 808 L 915 807 L 914 807 L 913 808 L 912 808 L 910 810 L 909 809 L 909 808 L 907 810 L 906 809 L 905 810 L 903 810 L 902 809 L 902 808 L 901 809 L 899 809 L 898 810 L 896 808 L 896 810 L 895 811 L 894 810 L 894 808 L 893 809 L 892 808 L 891 809 L 890 808 L 889 809 L 888 809 L 887 810 L 886 810 L 885 809 L 884 810 L 883 810 L 881 808 L 880 809 L 877 809 L 876 810 L 875 809 L 873 809 L 872 810 L 871 809 L 869 809 L 868 808 L 867 809 L 867 810 L 866 811 L 865 810 L 864 810 L 863 811 L 861 809 L 860 810 L 859 810 L 858 809 L 857 810 L 856 810 L 855 811 L 853 809 L 853 810 L 852 811 L 851 810 L 851 809 L 850 809 L 848 811 L 847 810 L 847 809 L 846 809 L 846 810 L 845 811 L 844 810 L 844 809 L 843 809 L 842 810 L 841 809 L 840 810 L 838 810 L 837 809 L 836 809 L 835 810 L 834 810 L 833 809 L 832 809 L 831 808 L 831 809 L 829 811 L 828 810 L 828 808 L 828 809 L 827 810 L 824 810 L 822 808 L 820 810 L 818 810 L 817 809 L 816 810 L 815 810 L 814 809 L 813 810 L 811 810 L 810 809 L 809 809 L 808 810 L 807 810 L 806 809 L 804 811 L 803 810 L 803 808 L 802 809 L 801 809 L 800 808 L 800 807 L 799 808 L 800 808 L 801 809 L 800 810 L 796 810 L 795 809 L 795 808 L 793 810 L 792 809 L 791 810 L 789 810 L 788 809 L 787 810 L 786 809 L 785 810 L 783 810 L 782 809 L 781 809 L 780 810 L 777 810 L 776 809 L 776 808 L 774 810 L 773 809 L 772 810 L 771 809 L 770 809 L 769 808 L 767 810 L 766 810 L 765 809 L 764 810 L 763 809 L 762 810 L 760 808 L 760 809 L 759 810 L 758 809 L 757 809 L 756 808 L 754 810 L 753 809 L 752 809 L 750 811 L 749 810 L 749 809 L 748 809 L 747 808 L 746 809 L 743 809 L 742 810 L 741 809 L 741 808 L 741 809 L 739 811 L 738 810 L 736 810 L 735 811 L 733 809 L 732 809 L 731 810 L 730 809 L 729 809 L 728 810 L 726 808 L 724 810 L 722 810 L 721 809 L 722 808 L 721 809 L 720 808 L 719 808 L 718 809 L 717 809 L 716 808 L 715 809 L 713 809 L 712 810 L 711 809 L 710 810 L 708 808 L 707 808 L 706 809 L 705 809 L 704 808 L 702 810 L 701 809 L 700 809 L 699 810 L 697 810 L 696 809 L 693 809 L 692 808 L 691 809 L 690 809 L 690 810 L 689 811 L 688 810 L 688 809 L 687 809 L 687 810 L 686 811 L 685 810 L 685 808 L 684 807 L 683 808 L 682 807 L 683 808 L 682 809 L 680 809 L 679 808 L 679 809 L 678 810 L 677 810 L 676 809 L 676 808 L 675 808 L 674 809 L 673 808 L 672 809 L 671 809 L 670 810 L 669 809 L 667 809 L 666 810 L 665 809 L 662 809 L 661 810 L 660 810 L 659 809 L 658 810 L 657 810 L 656 809 L 655 810 L 654 810 L 653 809 L 653 808 L 653 809 L 652 810 L 651 809 L 650 810 L 646 810 L 645 809 L 643 809 L 642 808 L 641 808 L 640 809 L 639 809 L 638 808 L 635 808 L 633 810 L 631 810 L 630 809 L 631 808 L 630 809 L 629 808 L 627 810 L 626 809 L 625 809 L 624 808 L 620 808 L 619 809 L 618 808 L 617 809 L 616 808 L 616 807 L 616 808 L 617 809 L 616 810 L 614 810 L 613 809 L 612 810 L 611 809 L 610 810 L 609 809 L 607 809 L 605 807 L 603 809 L 602 808 L 602 807 L 601 808 L 600 808 L 599 807 L 601 809 L 600 810 L 599 810 L 598 809 L 597 809 L 596 810 L 595 810 L 594 811 L 593 810 L 593 809 L 592 809 L 591 808 L 589 808 L 589 809 L 588 810 L 583 810 L 582 809 L 580 809 L 579 810 L 578 810 L 577 809 L 574 809 L 573 808 L 574 807 L 574 806 L 573 807 L 573 809 L 572 810 L 571 810 L 568 807 L 567 808 L 566 808 L 564 810 L 563 809 L 563 807 L 562 808 L 562 809 L 561 810 L 560 809 L 559 810 L 558 809 L 558 808 L 556 810 L 554 808 L 553 808 L 554 808 L 555 809 L 554 810 L 550 810 L 549 809 L 546 809 L 546 810 L 545 811 L 543 809 L 542 810 L 540 810 L 539 809 L 539 808 L 538 809 L 537 809 L 536 808 L 536 807 L 535 808 L 533 808 L 532 809 L 531 809 L 530 810 L 529 809 L 528 810 L 527 809 L 525 809 L 524 810 L 522 810 L 521 809 L 520 809 L 519 808 L 518 809 L 518 810 L 517 811 L 516 810 L 516 808 L 516 809 L 515 810 L 514 809 L 514 808 L 513 808 L 511 810 L 510 809 L 510 808 L 508 808 L 508 809 L 507 810 L 506 810 L 505 809 L 504 810 L 502 810 L 501 809 L 502 808 L 500 810 L 499 809 L 499 810 L 498 811 L 497 810 L 497 809 L 497 810 L 496 811 L 495 810 L 494 811 L 493 811 L 492 810 L 493 809 L 491 809 L 490 810 L 489 809 L 489 808 L 489 809 L 488 810 L 487 809 L 486 810 L 485 810 L 484 809 L 483 809 L 482 808 L 481 809 L 480 809 L 480 810 L 479 811 L 478 810 L 477 810 L 476 811 L 475 810 L 475 809 L 474 808 L 473 809 L 472 808 L 469 808 L 467 810 L 464 807 L 464 808 L 463 809 L 453 809 L 452 810 L 451 810 L 449 808 L 448 808 L 449 809 L 447 811 L 446 810 L 446 809 L 445 810 L 444 809 L 441 809 L 440 808 L 439 809 L 438 808 L 437 809 L 436 809 L 435 810 L 434 809 L 432 809 L 432 810 L 431 811 L 429 809 L 425 809 L 424 810 L 423 810 L 422 809 L 421 810 L 420 809 L 419 810 L 418 809 L 417 809 L 416 810 L 414 808 L 415 807 L 414 806 L 414 805 L 414 806 L 413 807 L 412 806 L 412 805 L 411 806 L 410 806 L 409 807 L 410 808 L 409 809 L 408 809 L 408 810 L 406 812 L 405 811 L 405 810 L 404 810 L 403 809 L 402 810 L 401 810 L 400 809 L 399 809 L 398 808 L 398 809 L 397 810 L 395 808 L 394 809 L 393 809 L 392 810 L 391 810 L 390 809 L 390 808 L 389 809 L 388 808 L 389 809 L 388 810 L 387 810 L 386 809 L 385 810 L 383 810 L 382 809 L 380 809 L 379 810 L 378 809 L 373 809 L 372 810 L 370 810 L 369 809 L 366 809 L 365 810 L 363 810 L 362 809 L 361 810 L 358 810 L 357 809 L 357 808 L 357 809 L 356 810 L 354 808 L 353 808 L 351 810 L 350 809 L 350 808 L 350 809 L 349 810 L 345 810 L 344 811 L 343 810 L 342 811 L 341 810 L 339 810 L 338 809 L 339 808 L 338 809 L 337 808 L 336 808 L 336 810 L 335 811 L 334 810 L 334 808 L 334 809 L 333 810 L 332 809 L 331 810 L 330 809 L 330 808 L 329 809 L 328 808 L 326 808 L 325 807 L 326 808 L 325 809 L 324 809 L 323 808 L 322 809 L 321 808 L 322 809 L 321 810 L 320 810 L 319 809 L 318 809 L 317 810 L 316 809 L 316 808 L 314 810 L 313 809 L 312 809 L 311 808 L 310 809 L 309 809 L 308 808 L 307 809 L 306 808 L 303 808 L 302 809 L 301 808 L 300 809 L 294 809 L 293 808 L 292 809 L 291 808 L 290 809 L 289 808 L 287 808 L 286 809 L 284 809 L 283 810 L 282 809 L 281 810 L 279 810 L 278 809 L 277 810 L 276 809 L 276 808 L 276 809 L 275 810 L 273 810 L 272 809 L 271 810 L 270 809 L 270 810 L 269 811 L 268 810 L 268 809 L 267 809 L 265 811 L 263 809 L 260 809 L 259 810 L 258 809 L 256 811 L 255 810 L 255 809 L 254 810 L 253 809 L 252 810 L 251 810 L 250 809 L 249 810 L 247 808 L 247 810 L 246 811 L 245 810 L 245 809 L 242 809 L 241 810 L 240 810 L 239 809 L 238 810 L 234 810 L 233 811 L 232 810 L 231 810 L 230 809 L 229 809 L 228 810 L 227 809 L 227 808 L 227 809 L 226 810 L 225 810 L 224 811 L 222 809 L 221 810 L 220 810 L 219 809 L 219 810 L 218 811 L 217 810 L 216 811 L 215 810 L 215 809 L 214 810 L 213 809 L 210 809 L 210 810 L 209 811 L 208 810 L 208 809 L 207 809 L 206 808 L 205 809 L 203 809 L 202 810 L 201 809 L 198 809 L 197 810 L 196 809 L 196 810 L 195 811 L 193 809 L 191 811 L 189 809 L 188 809 L 187 810 L 186 810 L 185 809 L 185 808 L 184 809 L 183 809 L 182 810 L 181 810 L 180 811 L 179 810 L 179 809 L 178 809 L 177 810 L 175 810 L 174 811 L 173 811 L 172 810 L 173 809 L 172 810 L 171 809 L 170 810 L 168 808 L 167 808 L 168 808 L 169 809 L 167 811 L 165 809 L 165 808 L 164 809 L 163 809 L 162 808 L 162 810 L 161 811 L 160 810 L 160 809 L 158 811 L 157 810 L 157 809 L 157 810 L 156 811 L 154 809 L 152 809 L 151 810 L 150 809 L 147 809 L 146 810 L 145 810 L 144 809 L 143 810 L 142 810 L 141 809 L 140 810 L 139 810 L 138 809 L 139 810 L 138 811 L 137 811 L 136 810 L 135 810 L 134 809 L 133 810 L 132 810 L 131 809 L 130 810 L 128 810 L 127 809 L 126 809 L 125 808 L 125 809 L 124 810 L 123 810 L 122 809 L 121 810 L 120 809 L 119 809 L 118 810 L 117 809 L 117 810 L 116 811 L 115 810 L 114 811 L 113 810 L 112 811 L 110 809 L 109 809 L 108 810 L 107 809 L 105 811 L 104 811 L 103 810 L 104 809 L 103 810 L 102 809 L 102 808 L 99 808 L 97 810 L 96 809 L 95 809 L 94 810 L 91 810 L 89 808 L 90 809 L 89 810 L 88 810 L 87 809 L 86 810 L 84 808 L 82 810 L 77 810 L 76 809 L 76 810 L 75 811 L 74 810 L 74 809 L 72 809 L 70 811 L 69 810 L 64 810 L 63 809 L 62 810 L 61 810 L 60 809 L 59 809 L 58 810 L 56 810 L 55 811 L 54 811 L 53 810 L 53 809 L 50 809 L 49 810 L 48 809 L 48 808 L 48 809 L 47 810 L 46 809 L 46 810 L 45 811 L 43 809 L 42 810 L 41 809 L 41 808 L 41 811 L 40 812 L 39 811 L 39 809 L 35 809 L 33 811 L 32 810 L 31 811 L 28 811 L 27 810 L 26 811 L 23 811 L 22 810 L 21 810 L 20 811 L 19 810 L 17 810 L 16 811 L 15 810 L 14 811 L 13 810 L 13 811 L 12 812 L 11 811 L 11 810 L 10 810 L 9 809 L 8 810 L 5 807 L 6 806 L 6 805 L 7 804 L 6 805 L 5 804 L 5 803 L 6 802 L 6 801 L 5 800 L 6 799 L 5 798 L 6 797 L 6 795 L 5 794 L 5 792 L 6 791 L 7 791 L 7 789 L 6 789 L 5 788 L 6 787 L 6 786 L 5 785 L 5 783 L 6 782 L 5 781 L 5 780 L 4 779 L 4 778 L 6 776 L 6 774 L 5 773 L 7 771 L 6 772 L 5 771 L 5 770 L 6 769 L 5 769 L 4 768 L 5 767 L 5 766 L 6 765 L 5 764 L 6 763 L 5 762 L 6 761 L 5 760 L 6 759 L 5 759 L 4 758 L 5 757 L 5 756 L 6 755 L 4 753 L 5 752 L 5 751 L 6 750 L 4 748 L 4 747 L 5 746 L 6 747 L 5 746 L 6 745 L 5 744 L 5 743 L 6 742 L 7 743 L 6 742 L 6 741 L 5 742 L 4 741 L 4 740 L 5 739 L 6 739 L 6 737 L 5 736 L 6 735 L 5 734 L 5 730 L 7 728 L 6 728 L 5 727 L 6 726 L 6 725 L 5 724 L 5 723 L 6 722 L 5 721 L 6 720 L 5 720 L 4 719 L 5 718 L 4 717 L 5 716 L 7 716 L 5 714 L 6 713 L 7 713 L 8 712 L 7 713 L 6 712 L 5 712 L 4 711 L 5 710 L 5 709 L 6 708 L 6 705 L 5 706 L 4 705 L 4 704 L 5 703 L 5 702 L 6 701 L 5 700 L 6 699 L 6 698 L 5 697 L 5 696 L 4 695 L 5 694 L 5 692 L 6 691 L 6 688 L 4 686 L 5 685 L 6 685 L 6 684 L 7 683 L 6 683 L 5 682 L 6 681 L 6 680 L 5 679 L 6 678 L 5 677 L 7 675 L 7 673 L 7 674 L 6 675 L 5 674 L 5 672 L 6 671 L 5 670 L 6 669 L 6 668 L 7 667 L 8 667 L 5 664 L 5 662 L 6 661 L 5 661 L 4 660 L 6 658 L 6 657 L 7 656 L 6 657 L 5 656 L 5 653 L 6 652 L 7 653 L 7 652 L 6 651 L 6 650 L 7 649 L 5 647 L 6 646 L 6 645 L 5 644 L 6 643 L 6 639 L 5 638 L 6 637 L 4 635 L 4 633 L 6 631 L 4 629 L 5 628 L 5 627 L 6 626 L 5 625 L 5 623 L 4 622 L 5 621 L 5 620 L 6 619 L 6 617 L 5 616 L 5 613 L 3 611 L 5 609 L 6 610 L 5 609 L 5 605 L 6 604 L 5 603 L 5 602 L 6 601 L 5 600 L 5 599 L 6 598 L 5 597 L 5 595 L 6 594 L 6 592 L 5 591 L 5 589 L 4 588 L 5 587 L 5 585 L 6 584 L 6 583 L 5 582 L 6 581 L 5 580 L 6 579 L 5 580 L 4 579 L 4 578 L 5 577 L 5 576 L 4 575 L 5 574 L 6 574 L 6 572 L 5 572 L 4 571 L 5 570 L 6 570 L 5 570 L 4 569 L 4 568 L 5 567 L 5 565 L 6 564 L 5 563 L 6 562 L 5 561 L 6 560 L 5 559 L 5 558 L 6 557 L 5 557 L 4 556 L 5 555 L 5 554 L 4 553 L 4 552 L 5 551 L 6 552 L 5 551 L 5 550 L 4 549 L 6 547 L 7 547 L 5 547 L 4 546 L 4 545 L 6 543 L 5 542 L 6 541 L 6 538 L 5 537 L 5 536 L 6 535 L 6 533 L 5 532 L 6 531 L 7 531 L 7 530 L 8 529 L 7 530 L 5 528 L 5 527 L 6 526 L 6 525 L 5 525 L 4 524 L 5 523 L 7 523 L 5 521 L 6 520 L 6 519 L 5 518 L 6 517 L 6 514 L 5 513 L 5 510 L 6 509 L 7 509 L 7 508 L 6 507 L 7 506 L 6 505 L 7 504 L 6 504 L 5 503 L 5 502 L 4 501 L 4 499 L 5 498 L 6 498 L 5 497 L 5 495 L 6 494 L 6 490 L 5 490 L 4 489 L 6 487 L 7 488 L 8 487 L 8 484 L 7 484 L 6 483 L 7 482 L 6 482 L 5 481 L 6 480 L 5 480 L 4 479 L 5 478 L 6 478 L 5 478 L 4 477 L 5 476 L 5 475 L 6 474 L 5 474 L 4 473 L 6 471 L 6 468 L 5 467 L 6 466 L 5 465 L 6 464 L 6 462 L 7 461 L 5 459 L 6 458 L 6 456 L 7 455 L 7 454 L 6 454 L 5 453 L 6 452 L 5 451 L 5 449 L 6 448 L 5 447 L 7 445 L 6 444 L 6 443 L 5 442 L 6 441 L 5 440 L 6 439 L 5 438 L 5 436 L 4 435 L 4 433 L 5 432 L 6 433 L 5 432 L 5 431 L 4 430 L 5 429 L 5 428 L 6 427 L 5 426 L 5 425 L 4 424 L 5 423 L 4 422 L 5 421 L 7 421 L 5 421 L 4 420 L 5 419 L 5 417 L 6 416 L 7 417 L 6 416 L 5 416 L 4 415 L 5 414 L 7 414 L 6 413 L 6 412 L 5 411 L 6 410 L 7 410 L 6 409 L 7 408 L 6 409 L 4 407 L 5 406 L 4 405 L 5 404 L 4 403 L 6 401 L 5 402 L 4 401 L 4 400 L 5 399 L 5 396 L 6 395 L 6 394 L 5 393 L 5 391 L 6 390 L 7 390 L 6 389 L 7 388 L 6 387 L 6 386 L 4 384 L 6 382 L 7 382 L 6 381 L 6 380 L 5 380 L 4 379 L 4 378 L 5 377 L 6 378 L 7 377 L 6 376 L 6 372 L 5 372 L 4 371 L 5 370 L 6 370 L 5 370 L 4 369 L 5 368 L 6 368 L 5 367 L 7 365 L 6 366 L 5 365 L 5 364 L 6 363 L 5 362 L 6 361 L 5 360 L 5 358 L 6 357 L 6 355 L 7 354 L 7 352 L 5 352 L 4 351 L 5 350 L 5 349 L 4 348 L 5 347 L 6 347 L 5 346 L 6 345 L 5 344 L 6 343 L 7 343 L 5 341 L 5 340 L 4 339 L 4 338 L 5 337 L 4 336 L 5 335 L 7 335 L 6 335 L 5 334 L 5 332 L 6 331 L 7 332 L 8 331 L 7 332 L 6 331 L 6 329 L 5 328 L 6 327 L 7 327 L 5 325 L 5 324 L 6 323 L 5 322 L 6 321 L 6 317 L 5 316 L 5 312 L 6 311 L 6 310 L 5 309 L 6 308 L 6 304 L 5 303 L 5 302 L 6 301 L 4 299 L 5 298 L 5 297 L 4 297 L 3 296 L 4 295 L 5 295 L 6 294 L 6 293 L 5 292 L 6 291 L 6 288 L 4 286 L 5 285 L 5 284 L 6 283 L 6 282 L 7 281 L 6 282 L 5 281 L 5 280 L 6 279 L 6 276 L 5 275 L 7 273 L 6 272 L 6 271 L 7 270 L 7 269 L 5 267 L 6 266 L 5 267 L 4 266 L 4 265 L 5 264 L 6 264 L 6 263 L 5 262 L 6 261 L 5 260 L 6 259 L 6 258 L 5 257 L 5 256 L 6 255 L 6 254 L 5 254 L 4 253 L 5 252 L 7 252 L 6 252 L 5 251 L 6 250 L 5 249 L 5 248 L 6 247 L 4 245 L 5 244 L 5 241 L 6 240 L 7 241 L 6 240 L 6 238 L 5 237 L 5 236 L 6 235 L 7 236 L 5 234 L 5 233 L 6 232 L 7 233 L 6 232 L 6 231 L 5 230 L 6 229 L 5 228 L 6 227 L 5 227 L 4 226 L 5 225 L 6 225 L 5 225 L 4 224 L 4 222 L 5 221 L 6 222 L 7 222 L 6 221 L 6 217 L 7 216 L 6 215 L 7 214 L 6 214 L 4 212 L 5 211 L 6 211 L 5 211 L 4 210 L 5 209 L 5 207 L 4 206 L 6 204 L 5 203 L 6 202 L 5 201 L 5 199 L 4 198 L 6 196 L 5 196 L 4 195 L 4 194 L 6 192 L 6 190 L 4 188 L 5 187 L 4 186 L 6 184 L 4 182 L 5 181 L 6 181 L 5 180 L 5 178 L 6 177 L 5 177 L 4 176 L 6 174 L 5 174 L 4 173 L 5 172 L 6 172 L 5 172 L 4 171 L 5 170 L 6 170 L 5 169 L 5 167 L 6 166 L 6 165 L 5 164 L 7 162 L 6 162 L 5 161 L 6 160 L 5 159 L 7 157 L 6 156 L 6 154 L 5 153 L 5 152 L 6 151 L 6 150 L 5 149 L 5 147 L 6 146 L 6 145 L 5 144 L 5 142 L 6 141 L 5 140 L 6 139 L 5 138 L 5 134 L 6 133 L 7 133 L 5 131 L 5 130 L 6 129 L 7 130 L 6 129 L 6 127 L 7 126 L 5 124 L 6 123 L 5 122 L 6 121 L 7 121 L 5 119 L 6 118 L 7 118 L 6 118 L 5 117 L 5 115 L 4 114 L 5 113 L 5 112 L 4 111 L 4 110 L 5 109 L 6 110 L 6 109 L 5 109 L 4 108 L 5 107 L 6 107 L 7 106 L 6 107 L 5 106 L 5 105 L 6 104 L 5 103 L 5 101 L 4 100 L 5 99 L 6 99 L 6 98 L 5 98 L 4 97 L 5 96 L 5 94 L 4 93 L 5 92 L 6 92 L 6 90 L 7 89 L 6 90 L 5 89 L 5 84 L 6 83 L 6 82 L 5 81 L 5 80 L 6 79 L 5 78 L 5 77 L 6 76 L 5 75 L 5 72 L 6 71 L 5 70 L 6 69 L 6 67 L 7 66 L 6 65 L 6 64 L 5 64 L 4 63 L 5 62 L 6 62 L 5 61 L 5 60 L 6 59 L 5 58 L 5 56 L 6 55 L 5 54 L 5 53 L 6 52 L 5 51 L 5 50 L 6 49 L 5 48 L 6 47 L 5 46 L 5 42 L 6 41 L 6 40 L 5 39 L 5 38 L 6 37 L 6 35 L 5 34 L 6 33 L 5 32 L 7 30 L 6 29 L 6 28 L 7 27 L 7 26 L 7 27 L 6 28 L 5 27 L 5 25 L 6 24 L 6 22 L 7 21 L 6 22 L 4 20 L 5 19 L 6 19 L 5 19 L 4 18 L 6 16 L 7 17 L 7 16 L 6 16 L 5 15 L 5 7 L 6 6 L 8 6 L 9 5 L 10 6 L 11 5 L 12 6 L 13 5 L 14 6 L 15 6 L 16 5 L 18 5 L 19 4 L 20 5 L 24 5 L 25 6 L 26 5 L 28 5 L 29 6 L 30 6 L 31 5 L 32 5 L 34 7 L 35 6 L 35 5 L 36 4 L 37 4 L 38 5 L 37 6 L 38 5 L 40 5 L 41 6 L 42 6 L 43 5 L 44 5 L 45 6 L 46 5 L 47 6 L 47 5 L 48 4 L 50 6 L 51 5 L 53 5 L 54 6 L 57 6 L 58 5 L 59 6 L 60 5 L 61 6 L 62 6 L 64 4 L 65 5 L 65 6 L 66 5 L 67 5 L 68 6 L 71 6 L 72 5 L 73 6 L 74 5 L 78 5 L 78 4 L 79 3 L 80 4 L 80 7 L 81 7 L 82 6 L 83 7 L 85 7 L 86 6 L 88 6 L 89 5 L 90 6 L 91 6 L 92 5 L 93 5 L 94 6 L 93 7 L 94 6 L 95 7 L 96 6 L 100 6 L 101 5 L 102 6 L 103 5 L 104 6 L 105 5 L 110 5 L 112 7 L 114 5 L 116 5 L 117 4 L 118 4 L 119 5 L 118 6 L 119 5 L 120 5 L 122 7 L 123 6 L 124 7 L 125 6 L 129 6 L 130 5 L 131 6 L 132 5 L 135 5 L 136 4 L 138 6 L 139 6 L 140 5 L 141 6 L 141 5 L 142 4 L 143 5 L 143 6 L 144 5 L 145 5 L 146 6 L 148 6 L 149 7 L 151 7 L 153 5 L 155 7 L 156 6 L 157 6 L 158 5 L 159 5 L 160 6 L 161 5 L 162 5 L 163 4 L 164 5 L 165 5 L 166 6 L 166 5 L 167 4 L 168 4 L 169 5 L 170 5 L 170 4 L 171 3 L 174 6 L 175 6 L 176 7 L 177 6 L 179 6 L 180 7 L 182 5 L 184 7 L 184 6 L 185 5 L 190 5 L 191 6 L 192 5 L 193 5 L 194 6 L 195 5 L 196 6 L 197 5 L 198 5 L 199 4 L 200 4 L 201 5 L 200 6 L 202 4 L 203 4 L 204 5 L 205 5 L 206 4 L 207 4 L 208 5 L 209 5 L 210 6 L 209 5 L 210 4 L 211 4 L 212 5 L 212 6 L 213 6 L 214 7 L 214 5 L 215 4 L 216 5 L 217 5 L 218 6 L 217 7 L 218 7 L 219 6 L 219 5 L 220 4 L 222 6 L 223 5 L 227 5 L 228 4 L 230 6 L 231 6 L 232 7 L 234 7 L 234 6 L 235 5 L 236 6 L 237 6 L 238 5 L 241 5 L 242 6 L 243 6 L 244 5 L 245 5 L 246 6 L 247 5 L 248 6 L 249 6 L 250 7 L 250 6 L 251 5 L 252 6 L 253 5 L 254 6 L 255 6 L 255 5 L 256 4 L 257 5 L 257 6 L 258 5 L 259 6 L 260 6 L 262 4 L 263 4 L 265 6 L 266 6 L 267 5 L 268 6 L 269 5 L 270 5 L 271 6 L 272 6 L 273 7 L 274 7 L 275 8 L 276 7 L 278 7 L 280 5 L 281 5 L 282 6 L 283 5 L 284 6 L 289 6 L 290 5 L 291 6 L 297 6 L 298 7 L 300 7 L 302 5 L 303 5 L 304 4 L 305 4 L 307 6 L 308 6 L 308 5 L 309 4 L 310 5 L 310 7 L 311 6 L 312 6 L 313 7 L 314 6 L 315 6 L 316 7 L 314 5 L 315 4 L 316 4 L 318 6 L 318 7 L 319 7 L 320 6 L 321 6 L 322 5 L 323 6 L 324 5 L 325 6 L 325 5 L 326 4 L 327 5 L 327 6 L 329 6 L 330 7 L 329 6 L 329 5 L 330 4 L 331 5 L 332 5 L 333 6 L 336 6 L 337 7 L 339 7 L 340 6 L 341 7 L 342 7 L 342 6 L 344 4 L 345 5 L 346 5 L 347 6 L 347 7 L 348 7 L 349 6 L 350 6 L 351 7 L 353 5 L 354 5 L 355 4 L 356 5 L 357 5 L 358 6 L 359 5 L 360 6 L 361 5 L 362 5 L 363 6 L 365 6 L 366 7 L 366 8 L 367 7 L 366 7 L 365 6 L 367 4 L 368 5 L 369 5 L 370 6 L 371 6 L 372 5 L 375 5 L 376 6 L 377 5 L 378 5 L 379 4 L 380 5 L 381 4 L 382 5 L 383 5 L 384 6 L 385 6 L 386 7 L 386 6 L 388 4 L 389 5 L 389 6 L 389 5 L 390 4 L 392 6 L 394 6 L 395 5 L 396 6 L 397 6 L 398 7 L 399 6 L 400 6 L 401 7 L 403 7 L 404 6 L 405 7 L 407 5 L 408 6 L 409 5 L 410 6 L 411 6 L 412 7 L 413 6 L 414 6 L 415 7 L 417 5 L 418 5 L 419 6 L 420 6 L 421 7 L 421 6 L 422 5 L 423 6 L 423 7 L 424 6 L 425 6 L 426 5 L 430 5 L 431 4 L 432 5 L 433 4 L 435 4 L 436 5 L 436 6 L 437 7 L 440 4 L 441 5 L 442 5 L 443 6 L 444 5 L 446 5 L 447 4 L 448 5 L 448 6 L 449 7 L 450 7 L 451 6 L 452 6 L 453 5 L 454 6 L 455 6 L 456 5 L 457 6 L 461 6 L 462 5 L 463 6 L 463 7 L 464 7 L 465 6 L 466 6 L 467 7 L 469 7 L 470 8 L 471 7 L 472 7 L 473 6 L 474 7 L 473 6 L 473 5 L 474 4 L 475 4 L 476 5 L 476 6 L 477 7 L 476 6 L 477 5 L 479 5 L 480 6 L 479 7 L 480 6 L 484 6 L 485 5 L 486 5 L 487 6 L 489 6 L 490 5 L 491 5 L 492 6 L 491 7 L 493 5 L 494 6 L 495 5 L 497 5 L 499 7 L 498 6 L 500 4 L 503 7 L 504 6 L 505 6 L 506 7 L 506 6 L 507 5 L 508 5 L 509 6 L 510 5 L 511 6 L 512 5 L 513 5 L 514 6 L 515 5 L 516 6 L 517 6 L 518 5 L 520 5 L 521 6 L 521 7 L 521 6 L 522 5 L 523 5 L 524 6 L 526 6 L 527 7 L 526 6 L 527 5 L 528 5 L 529 6 L 530 6 L 531 7 L 531 8 L 531 7 L 532 6 L 533 6 L 534 7 L 535 7 L 536 8 L 537 8 L 538 7 L 537 6 L 539 4 L 540 5 L 544 5 L 545 6 L 547 4 L 548 4 L 549 5 L 551 5 L 552 6 L 554 6 L 555 7 L 556 6 L 557 6 L 558 7 L 559 6 L 561 6 L 562 7 L 563 7 L 564 6 L 571 6 L 572 5 L 574 7 L 575 6 L 576 7 L 578 7 L 580 5 L 581 6 L 582 5 L 583 6 L 584 6 L 585 7 L 587 5 L 588 6 L 589 5 L 591 7 L 589 5 L 590 4 L 591 4 L 593 6 L 595 6 L 596 7 L 597 7 L 598 6 L 599 7 L 601 5 L 602 5 L 603 6 L 604 5 L 606 5 L 607 6 L 607 7 L 607 6 L 608 5 L 609 6 L 610 5 L 611 6 L 614 6 L 615 5 L 616 6 L 617 5 L 618 5 L 619 4 L 621 6 L 622 5 L 623 6 L 623 7 L 625 5 L 626 5 L 627 4 L 629 6 L 630 5 L 631 5 L 633 7 L 633 6 L 634 5 L 636 5 L 637 6 L 636 7 L 638 7 L 639 6 L 640 7 L 642 5 L 643 5 L 644 4 L 646 6 L 647 5 L 648 6 L 648 7 L 649 6 L 650 6 L 649 5 L 650 4 L 651 4 L 653 6 L 655 6 L 656 5 L 657 6 L 657 7 L 658 7 L 659 6 L 660 6 L 661 7 L 662 6 L 663 6 L 664 5 L 666 7 L 667 7 L 669 5 L 670 6 L 672 6 L 673 5 L 674 5 L 675 6 L 677 6 L 678 7 L 680 5 L 681 5 L 682 6 L 683 5 L 684 6 L 685 5 L 686 6 L 688 6 L 688 5 L 689 4 L 691 6 L 692 5 L 693 6 L 694 5 L 695 6 L 696 5 L 697 6 L 698 6 L 699 7 L 700 6 L 702 6 L 703 5 L 704 5 L 704 4 L 705 3 L 706 4 L 706 5 L 707 6 L 706 7 L 707 6 L 708 7 L 709 6 L 710 6 L 712 4 L 713 5 L 714 5 L 715 6 L 716 5 L 718 5 L 720 7 L 721 6 L 723 6 L 725 4 L 726 5 L 728 5 L 729 6 L 735 6 L 736 7 L 738 5 L 739 5 L 740 6 L 741 6 L 742 5 L 743 6 L 743 7 L 744 6 L 745 6 L 746 7 L 747 7 L 748 6 L 749 7 L 749 8 L 750 7 L 751 8 L 750 7 L 752 5 L 753 6 L 753 7 L 754 6 L 757 6 L 759 8 L 758 7 L 760 5 L 762 5 L 763 6 L 764 5 L 765 6 L 766 5 L 767 6 L 768 5 L 769 6 L 770 5 L 771 6 L 772 5 L 773 6 L 774 6 L 775 5 L 776 6 L 777 5 L 778 5 L 779 4 L 780 5 L 780 6 L 779 7 L 779 8 L 779 7 L 780 6 L 782 6 L 783 7 L 784 6 L 785 6 L 786 5 L 787 5 L 788 6 L 789 6 L 788 5 L 789 4 L 790 4 L 791 5 L 791 6 L 793 6 L 794 5 L 798 5 L 799 4 L 800 5 L 800 6 L 804 6 L 805 5 L 806 6 L 807 5 L 811 5 L 812 6 L 812 7 L 814 5 L 815 6 L 816 6 L 817 5 L 818 6 L 821 6 L 822 7 L 822 6 L 823 5 L 824 6 L 825 5 L 827 7 L 828 6 L 829 6 L 830 5 L 831 6 L 832 5 L 833 6 L 834 6 L 835 5 L 837 5 L 838 4 L 839 5 L 840 5 L 841 6 L 842 5 L 846 5 L 847 4 L 848 5 L 848 6 L 849 5 L 852 5 L 853 4 L 856 7 L 857 6 L 858 6 L 859 5 L 862 5 L 863 6 L 865 6 L 866 5 L 867 5 L 868 4 L 869 5 L 869 6 L 870 5 L 871 5 L 871 4 L 872 3 L 873 4 L 873 6 L 873 5 L 874 4 L 876 6 L 877 5 L 878 6 L 879 6 L 880 5 L 881 6 L 882 5 L 883 5 L 884 4 L 885 4 L 887 6 L 888 5 L 890 5 L 891 6 L 891 7 L 893 5 L 894 5 L 895 4 L 896 5 L 896 7 L 896 5 L 897 4 L 898 5 L 898 6 L 899 5 L 900 5 L 901 6 L 903 6 L 904 5 L 905 6 L 906 5 L 908 7 L 907 6 L 908 5 L 909 5 L 910 6 L 911 6 L 912 5 L 913 6 L 915 6 L 916 5 L 917 5 L 918 6 L 921 6 L 921 5 L 922 4 L 923 5 L 923 6 L 924 5 L 926 5 L 927 6 L 930 6 L 931 5 L 936 5 L 937 6 L 938 5 L 939 6 L 942 6 L 943 5 L 944 6 L 945 5 L 950 5 L 950 4 L 951 3 L 952 4 L 952 6 L 952 5 L 953 4 L 954 5 L 954 6 L 955 5 L 956 5 L 957 4 L 958 4 L 959 5 L 960 4 L 961 5 L 962 5 L 963 4 L 964 5 L 965 5 L 966 6 L 967 6 L 968 7 L 969 6 L 970 7 L 971 6 L 971 5 L 972 4 L 973 5 L 977 5 L 978 6 L 982 6 L 983 5 L 984 5 L 985 6 L 986 6 L 987 5 L 988 6 L 993 6 L 994 5 L 995 6 L 995 7 L 996 6 L 1000 6 L 1001 5 L 1002 6 L 1003 5 L 1004 6 L 1006 4 L 1007 5 L 1007 6 L 1008 5 L 1009 6 L 1009 7 L 1009 6 L 1010 5 L 1010 4 L 1011 3 L 1012 4 L 1012 5 L 1013 4 L 1014 5 L 1015 5 L 1016 6 L 1018 6 L 1020 4 L 1022 6 L 1021 7 L 1020 7 L 1021 7 L 1023 5 L 1024 6 L 1025 6 L 1026 5 L 1027 5 L 1029 7 L 1029 6 L 1030 5 L 1031 5 L 1032 6 L 1033 5 L 1035 5 L 1036 6 L 1038 6 L 1039 7 L 1039 6 L 1040 5 L 1041 6 L 1042 5 L 1044 5 L 1044 4 L 1045 3 L 1044 2 L 1044 1 L 848 1 L 847 2 L 846 1 L 457 1 L 456 2 L 455 1 "></path>
        <path fill="none" stroke="#fa00fa" stroke-width="3" d="M 559 412 L 559 413 L 558 414 L 558 416 L 559 417 L 559 419 L 560 420 L 559 421 L 557 421 L 556 420 L 555 421 L 554 420 L 554 419 L 553 418 L 552 418 L 551 417 L 550 418 L 549 418 L 548 417 L 546 419 L 545 418 L 543 420 L 544 419 L 545 420 L 545 421 L 545 420 L 546 419 L 547 420 L 547 422 L 548 423 L 548 425 L 547 426 L 546 425 L 545 425 L 546 426 L 546 427 L 547 428 L 546 429 L 545 429 L 544 430 L 543 430 L 547 430 L 549 432 L 548 433 L 548 435 L 549 434 L 551 434 L 552 433 L 553 433 L 553 432 L 554 431 L 555 432 L 555 433 L 556 433 L 557 434 L 556 435 L 556 436 L 557 437 L 556 436 L 556 435 L 557 434 L 558 434 L 559 435 L 559 436 L 560 436 L 560 435 L 559 434 L 559 433 L 558 433 L 557 432 L 557 431 L 557 432 L 556 433 L 554 431 L 555 430 L 553 428 L 549 428 L 548 427 L 549 426 L 548 425 L 549 424 L 548 423 L 549 422 L 550 422 L 552 420 L 554 420 L 555 421 L 556 420 L 557 421 L 558 421 L 559 422 L 559 423 L 560 424 L 562 424 L 564 426 L 564 428 L 565 427 L 565 426 L 567 424 L 568 425 L 569 424 L 568 425 L 567 424 L 566 425 L 565 424 L 564 424 L 563 423 L 564 422 L 565 422 L 564 421 L 564 422 L 563 423 L 561 423 L 560 424 L 559 423 L 559 422 L 560 421 L 560 420 L 563 417 L 562 416 L 562 415 L 563 414 L 562 413 L 563 414 L 562 415 L 561 415 L 560 414 L 560 413 "></path>
        <path fill="none" stroke="#fa00fa" stroke-width="3" d="M 569 391 L 569 392 L 568 393 L 568 396 L 567 397 L 566 396 L 565 396 L 566 396 L 567 397 L 567 398 L 568 399 L 567 400 L 567 401 L 566 402 L 565 401 L 565 400 L 564 400 L 563 399 L 564 400 L 563 401 L 562 401 L 562 402 L 559 405 L 558 404 L 558 403 L 557 404 L 556 403 L 556 401 L 557 400 L 558 401 L 557 400 L 557 399 L 556 400 L 556 403 L 555 404 L 554 403 L 554 401 L 553 400 L 555 398 L 555 396 L 556 395 L 556 394 L 555 395 L 554 394 L 555 395 L 555 396 L 554 397 L 553 396 L 554 397 L 553 398 L 552 398 L 551 397 L 550 397 L 551 398 L 551 401 L 550 402 L 549 402 L 550 403 L 550 404 L 551 403 L 554 403 L 555 404 L 554 405 L 554 406 L 555 407 L 555 408 L 554 409 L 553 408 L 553 411 L 556 414 L 556 415 L 556 413 L 557 412 L 556 411 L 557 410 L 558 410 L 558 409 L 557 409 L 556 408 L 558 406 L 561 409 L 562 408 L 563 409 L 561 407 L 561 406 L 562 405 L 565 408 L 565 406 L 569 402 L 570 403 L 570 402 L 568 400 L 568 398 L 567 397 L 569 395 L 571 397 L 572 396 L 573 397 L 574 396 L 574 395 L 573 394 L 572 395 L 571 395 L 570 394 L 569 395 L 568 394 L 568 393 L 569 392 "></path>
        <path fill="none" stroke="#fa00fa" stroke-width="3" d="M 512 383 L 511 384 L 510 384 L 510 385 L 509 386 L 507 384 L 506 385 L 505 385 L 504 384 L 506 386 L 507 385 L 508 385 L 510 387 L 509 388 L 505 388 L 504 387 L 503 388 L 502 388 L 502 389 L 504 389 L 505 390 L 504 391 L 502 391 L 502 392 L 500 394 L 500 395 L 500 394 L 503 391 L 504 391 L 505 392 L 503 394 L 503 395 L 504 394 L 505 395 L 506 395 L 507 396 L 508 396 L 509 397 L 512 397 L 513 398 L 512 399 L 513 398 L 515 398 L 516 399 L 515 400 L 514 400 L 515 401 L 514 402 L 513 402 L 512 403 L 511 402 L 508 402 L 507 401 L 506 402 L 507 403 L 508 402 L 509 403 L 509 405 L 511 405 L 512 404 L 513 405 L 513 406 L 513 405 L 514 404 L 515 405 L 515 404 L 516 403 L 517 403 L 517 401 L 519 399 L 519 397 L 518 398 L 517 397 L 516 398 L 513 398 L 512 397 L 512 396 L 511 397 L 510 397 L 509 396 L 510 395 L 509 394 L 509 393 L 508 393 L 506 395 L 505 395 L 504 394 L 504 393 L 505 392 L 506 392 L 507 391 L 509 391 L 509 389 L 511 387 L 511 384 L 512 383 L 514 385 L 514 386 L 513 387 L 514 388 L 513 389 L 512 389 L 511 390 L 513 392 L 511 390 L 512 389 L 513 389 L 514 388 L 515 389 L 516 388 L 515 389 L 514 388 L 514 384 L 513 383 "></path>
        <path fill="none" stroke="#fa00fa" stroke-width="3" d="M 552 343 L 553 344 L 553 345 L 552 346 L 552 347 L 550 349 L 549 348 L 549 349 L 548 350 L 547 350 L 546 351 L 547 352 L 547 353 L 548 354 L 549 354 L 550 355 L 550 356 L 549 357 L 548 357 L 547 356 L 546 357 L 544 355 L 545 356 L 545 357 L 544 358 L 543 357 L 544 358 L 543 359 L 542 359 L 543 359 L 544 358 L 545 359 L 546 358 L 547 359 L 547 360 L 546 361 L 544 361 L 546 361 L 547 362 L 546 363 L 545 363 L 546 364 L 547 364 L 546 363 L 548 361 L 549 361 L 550 362 L 551 361 L 551 360 L 550 359 L 551 358 L 552 358 L 553 357 L 552 358 L 550 356 L 552 354 L 552 353 L 553 352 L 554 353 L 554 355 L 555 355 L 555 354 L 553 352 L 554 351 L 554 350 L 555 349 L 556 350 L 555 349 L 556 348 L 556 346 L 555 347 L 554 347 L 553 346 L 553 344 "></path>
        <path fill="none" stroke="#fa00fa" stroke-width="3" d="M 622 454 L 621 455 L 620 455 L 620 457 L 619 458 L 618 458 L 619 458 L 621 460 L 619 462 L 618 462 L 617 463 L 616 463 L 615 462 L 615 463 L 614 464 L 613 464 L 612 463 L 613 464 L 613 465 L 614 464 L 615 465 L 615 468 L 614 469 L 615 468 L 616 468 L 618 470 L 619 470 L 619 467 L 620 466 L 621 466 L 621 464 L 620 464 L 620 465 L 619 466 L 618 465 L 618 463 L 619 462 L 621 462 L 622 461 L 624 463 L 623 464 L 624 463 L 625 464 L 626 463 L 627 464 L 627 465 L 626 466 L 627 465 L 627 464 L 628 463 L 630 465 L 629 466 L 630 465 L 630 464 L 629 464 L 628 463 L 629 462 L 630 462 L 630 461 L 629 462 L 627 460 L 628 461 L 627 462 L 626 462 L 625 461 L 625 458 L 624 457 L 625 456 L 626 456 L 625 456 L 624 457 L 623 456 L 623 455 "></path>
        <path fill="none" stroke="#fa00fa" stroke-width="3" d="M 541 367 L 542 367 L 543 368 L 543 369 L 544 370 L 544 371 L 543 372 L 540 372 L 538 374 L 537 374 L 539 376 L 539 377 L 539 374 L 540 373 L 541 373 L 542 374 L 541 375 L 541 376 L 543 376 L 544 377 L 543 378 L 542 378 L 542 379 L 543 380 L 543 381 L 542 382 L 541 381 L 540 382 L 539 381 L 539 383 L 538 384 L 537 383 L 539 385 L 538 384 L 540 382 L 541 383 L 545 379 L 546 380 L 545 379 L 547 377 L 546 376 L 548 374 L 546 372 L 547 371 L 546 371 L 545 370 L 547 368 L 546 369 L 545 369 L 543 367 "></path>
        <path fill="none" stroke="#fa00fa" stroke-width="3" d="M 526 414 L 525 415 L 525 416 L 524 417 L 523 417 L 522 416 L 521 417 L 520 417 L 519 418 L 518 417 L 519 418 L 519 419 L 520 420 L 521 420 L 522 419 L 523 419 L 524 418 L 525 418 L 526 419 L 525 420 L 526 419 L 527 420 L 527 423 L 525 425 L 524 425 L 525 426 L 524 427 L 522 427 L 521 426 L 522 425 L 521 426 L 523 428 L 525 428 L 524 427 L 525 426 L 525 425 L 527 423 L 528 423 L 529 424 L 530 423 L 529 422 L 530 421 L 531 421 L 532 422 L 534 420 L 534 419 L 535 418 L 537 420 L 537 421 L 538 422 L 538 420 L 537 420 L 535 418 L 535 417 L 536 416 L 537 416 L 538 417 L 538 416 L 536 416 L 535 415 L 536 416 L 535 417 L 535 418 L 534 419 L 533 418 L 533 419 L 532 420 L 531 419 L 530 420 L 528 420 L 526 418 L 527 417 L 526 417 L 525 416 L 526 415 "></path>
        <path fill="none" stroke="#fa00fa" stroke-width="3" d="M 584 368 L 585 369 L 583 371 L 582 370 L 581 370 L 580 371 L 579 371 L 578 370 L 579 371 L 579 373 L 578 374 L 576 372 L 577 373 L 575 375 L 574 374 L 573 375 L 573 379 L 573 378 L 574 377 L 575 377 L 574 376 L 577 373 L 578 374 L 579 374 L 580 375 L 580 378 L 581 379 L 581 380 L 584 380 L 585 381 L 583 383 L 582 383 L 581 382 L 580 383 L 581 384 L 582 384 L 583 383 L 584 384 L 584 385 L 585 384 L 585 383 L 584 382 L 585 381 L 584 380 L 583 380 L 582 379 L 582 378 L 581 377 L 581 376 L 582 375 L 583 376 L 582 375 L 584 373 L 585 373 L 586 374 L 585 373 L 584 373 L 583 372 L 584 371 L 584 370 L 585 369 L 585 368 "></path>
        <path fill="none" stroke="#fa00fa" stroke-width="3" d="M 659 356 L 656 359 L 656 360 L 655 361 L 656 360 L 657 360 L 660 363 L 658 365 L 657 364 L 655 364 L 654 363 L 655 364 L 655 367 L 654 368 L 656 370 L 658 368 L 658 367 L 660 365 L 660 364 L 661 363 L 661 360 L 660 360 L 659 359 L 660 358 L 659 357 "></path>
        <path fill="none" stroke="#fa00fa" stroke-width="3" d="M 618 472 L 617 473 L 615 473 L 615 474 L 614 475 L 615 474 L 616 475 L 616 476 L 614 478 L 613 477 L 612 478 L 611 478 L 612 479 L 614 479 L 615 480 L 614 481 L 615 480 L 616 481 L 616 482 L 617 483 L 617 484 L 616 485 L 616 488 L 616 487 L 617 486 L 618 487 L 621 487 L 620 486 L 617 486 L 616 485 L 617 484 L 617 483 L 618 482 L 620 484 L 618 482 L 619 481 L 618 480 L 618 479 L 619 478 L 619 477 L 618 476 L 619 475 L 620 475 L 618 475 L 617 474 L 617 473 L 618 472 L 619 473 L 620 473 L 619 473 "></path>
        <path fill="none" stroke="#fa00fa" stroke-width="3" d="M 478 464 L 477 465 L 478 466 L 477 467 L 479 469 L 478 470 L 477 470 L 476 469 L 475 469 L 474 468 L 475 467 L 473 467 L 473 468 L 472 469 L 471 469 L 471 470 L 472 469 L 473 470 L 474 469 L 476 471 L 476 472 L 477 471 L 478 472 L 479 472 L 478 471 L 479 470 L 481 470 L 482 471 L 481 472 L 482 473 L 483 472 L 484 473 L 484 474 L 484 473 L 485 472 L 486 473 L 488 473 L 487 472 L 483 472 L 482 471 L 482 470 L 483 469 L 484 469 L 485 470 L 487 470 L 485 470 L 484 469 L 485 468 L 486 468 L 485 467 L 486 466 L 485 465 L 483 465 L 484 466 L 483 467 L 481 467 L 479 469 L 477 467 L 478 466 L 477 465 "></path>
    </g>
</svg>
