<svg xmlns="http://www.w3.org/2000/svg" xmlns:xlink="http://www.w3.org/1999/xlink" version="1.1" x="0" y="0" width="1056px" height="816px">
    <g id="rootLayer" transform="translate(0.000000, 0.000000)">
        <path fill="none" stroke="#fa00fa" stroke-width="3" d="M 584 198 L 584 200 L 583 201 L 583 204 L 584 204 L 585 205 L 584 206 L 585 207 L 585 208 L 584 209 L 585 210 L 586 209 L 589 212 L 587 214 L 586 213 L 587 214 L 588 214 L 589 215 L 589 216 L 588 217 L 587 216 L 586 217 L 585 217 L 586 218 L 586 220 L 587 221 L 587 222 L 588 222 L 589 223 L 590 223 L 591 224 L 590 225 L 591 225 L 592 224 L 593 224 L 594 225 L 595 224 L 596 224 L 597 223 L 598 224 L 599 224 L 600 223 L 601 224 L 601 226 L 602 226 L 603 227 L 603 231 L 602 232 L 602 233 L 602 232 L 603 231 L 605 233 L 603 235 L 603 237 L 604 238 L 602 240 L 600 240 L 600 243 L 599 244 L 600 245 L 598 247 L 599 248 L 598 249 L 599 250 L 598 251 L 598 253 L 597 254 L 596 253 L 596 254 L 595 255 L 595 257 L 593 259 L 593 261 L 592 262 L 592 263 L 591 264 L 590 264 L 587 267 L 586 267 L 585 266 L 586 265 L 585 266 L 584 266 L 583 267 L 582 267 L 583 268 L 582 269 L 580 269 L 579 270 L 580 271 L 578 273 L 577 272 L 577 271 L 576 272 L 575 271 L 575 272 L 574 273 L 573 272 L 570 272 L 569 273 L 568 272 L 566 272 L 565 273 L 564 272 L 563 272 L 563 273 L 562 274 L 561 273 L 561 272 L 559 274 L 557 272 L 556 273 L 555 273 L 554 272 L 555 271 L 554 272 L 552 270 L 552 269 L 551 268 L 552 267 L 551 267 L 550 266 L 551 265 L 552 265 L 553 264 L 553 263 L 552 262 L 553 261 L 553 257 L 552 256 L 552 253 L 551 252 L 551 251 L 552 250 L 550 248 L 550 247 L 551 246 L 552 246 L 552 245 L 551 244 L 551 243 L 549 241 L 550 240 L 549 241 L 547 239 L 548 238 L 550 238 L 551 237 L 551 236 L 550 235 L 550 233 L 549 232 L 548 233 L 547 233 L 546 232 L 545 232 L 544 233 L 543 233 L 543 236 L 544 237 L 544 240 L 545 240 L 546 241 L 544 243 L 545 242 L 546 242 L 547 243 L 547 242 L 548 241 L 549 241 L 550 242 L 549 243 L 549 244 L 548 245 L 546 245 L 545 246 L 544 245 L 545 246 L 545 248 L 547 250 L 547 254 L 548 255 L 548 256 L 547 257 L 547 262 L 546 263 L 545 263 L 544 264 L 543 263 L 542 263 L 541 264 L 542 264 L 543 265 L 543 266 L 543 265 L 544 264 L 545 265 L 545 268 L 543 270 L 542 269 L 542 268 L 541 267 L 541 266 L 541 267 L 540 268 L 539 267 L 539 266 L 537 264 L 538 263 L 537 263 L 536 262 L 536 261 L 537 260 L 534 257 L 534 255 L 535 254 L 534 254 L 533 253 L 534 252 L 535 252 L 535 250 L 534 250 L 532 248 L 532 246 L 533 245 L 534 246 L 534 245 L 533 244 L 532 244 L 531 243 L 532 242 L 532 241 L 529 241 L 528 240 L 528 239 L 525 239 L 524 240 L 523 240 L 523 242 L 522 243 L 524 245 L 525 245 L 526 246 L 525 247 L 527 249 L 528 249 L 529 250 L 528 251 L 528 255 L 529 254 L 530 255 L 530 256 L 532 258 L 531 259 L 531 261 L 530 262 L 530 263 L 531 264 L 531 266 L 532 267 L 533 267 L 534 266 L 536 266 L 537 267 L 536 268 L 535 268 L 536 268 L 537 269 L 536 270 L 534 270 L 534 271 L 533 272 L 534 273 L 534 274 L 533 275 L 532 275 L 530 277 L 528 275 L 528 274 L 527 273 L 528 272 L 529 272 L 529 271 L 528 270 L 527 271 L 525 271 L 525 272 L 526 273 L 525 274 L 523 274 L 522 275 L 522 277 L 523 278 L 521 280 L 521 282 L 522 283 L 523 282 L 524 283 L 524 285 L 523 286 L 522 285 L 521 286 L 520 285 L 519 285 L 518 284 L 517 285 L 516 285 L 516 286 L 515 287 L 514 286 L 514 285 L 512 285 L 510 283 L 511 284 L 509 286 L 509 287 L 507 289 L 506 289 L 504 287 L 504 286 L 507 283 L 508 283 L 508 282 L 506 280 L 507 279 L 508 279 L 507 278 L 507 279 L 506 280 L 505 279 L 505 278 L 504 277 L 504 276 L 506 274 L 507 275 L 507 273 L 509 271 L 510 271 L 511 270 L 510 269 L 510 268 L 512 266 L 513 266 L 515 264 L 516 265 L 517 265 L 517 263 L 519 261 L 519 256 L 518 256 L 516 254 L 515 254 L 512 251 L 509 254 L 511 256 L 510 257 L 510 260 L 511 261 L 511 263 L 510 264 L 509 263 L 509 264 L 508 265 L 507 264 L 508 265 L 507 266 L 508 267 L 507 268 L 506 268 L 505 267 L 505 269 L 504 270 L 503 269 L 501 271 L 500 271 L 499 270 L 498 271 L 497 270 L 497 272 L 499 274 L 498 275 L 497 275 L 496 274 L 495 274 L 494 273 L 494 271 L 493 270 L 492 271 L 490 269 L 492 267 L 493 268 L 494 267 L 493 266 L 493 262 L 492 261 L 492 260 L 493 259 L 493 257 L 494 256 L 493 255 L 492 256 L 491 255 L 491 253 L 492 252 L 493 253 L 494 252 L 494 251 L 495 250 L 496 251 L 496 249 L 497 248 L 499 248 L 500 247 L 501 247 L 502 246 L 503 246 L 502 246 L 501 245 L 502 244 L 503 244 L 502 243 L 504 241 L 505 241 L 505 238 L 506 237 L 505 236 L 505 233 L 503 231 L 503 230 L 502 229 L 501 229 L 500 228 L 501 227 L 501 225 L 499 223 L 499 222 L 498 221 L 498 219 L 497 219 L 496 218 L 494 218 L 492 220 L 494 222 L 494 223 L 493 224 L 494 224 L 497 227 L 497 231 L 500 234 L 501 234 L 503 236 L 503 237 L 502 238 L 501 238 L 500 237 L 501 238 L 498 241 L 498 242 L 492 248 L 492 249 L 490 251 L 491 251 L 492 252 L 490 254 L 489 254 L 489 255 L 488 256 L 487 255 L 487 254 L 486 255 L 486 257 L 485 258 L 482 258 L 481 259 L 476 259 L 474 261 L 473 261 L 471 263 L 471 264 L 470 265 L 468 265 L 467 266 L 466 266 L 465 265 L 464 265 L 463 264 L 462 265 L 461 265 L 460 264 L 460 263 L 461 262 L 460 262 L 459 261 L 459 260 L 460 259 L 459 258 L 460 257 L 460 256 L 462 254 L 462 253 L 463 252 L 464 252 L 464 251 L 465 250 L 467 250 L 468 249 L 470 251 L 471 250 L 472 250 L 471 249 L 471 247 L 472 246 L 473 247 L 474 246 L 474 244 L 473 244 L 472 243 L 472 242 L 469 242 L 468 241 L 469 242 L 468 243 L 468 244 L 467 245 L 466 244 L 465 245 L 464 245 L 464 246 L 462 248 L 461 247 L 461 248 L 460 249 L 459 248 L 458 248 L 457 249 L 456 249 L 456 250 L 457 251 L 457 252 L 458 253 L 457 254 L 457 255 L 456 256 L 456 257 L 455 258 L 454 257 L 454 258 L 453 259 L 454 259 L 455 260 L 455 261 L 453 263 L 454 263 L 455 264 L 455 266 L 457 268 L 458 268 L 459 269 L 459 270 L 460 270 L 461 271 L 464 271 L 464 270 L 466 268 L 467 269 L 468 268 L 469 269 L 470 268 L 471 268 L 472 269 L 471 270 L 476 265 L 476 264 L 477 263 L 478 264 L 478 265 L 479 265 L 480 264 L 480 263 L 482 261 L 485 264 L 486 263 L 488 265 L 489 265 L 490 266 L 489 267 L 490 267 L 491 268 L 489 270 L 489 271 L 488 272 L 489 271 L 490 272 L 490 273 L 489 274 L 488 274 L 487 275 L 486 275 L 483 278 L 482 277 L 481 277 L 479 279 L 480 280 L 480 281 L 481 282 L 481 283 L 480 284 L 479 284 L 478 283 L 478 281 L 475 284 L 473 284 L 473 285 L 472 286 L 471 285 L 470 286 L 469 286 L 468 287 L 467 286 L 465 286 L 464 287 L 463 286 L 463 285 L 463 286 L 462 287 L 461 286 L 461 284 L 459 284 L 458 283 L 458 282 L 457 282 L 456 281 L 456 280 L 453 277 L 452 278 L 450 276 L 450 275 L 449 275 L 448 276 L 447 275 L 447 276 L 446 277 L 445 276 L 444 277 L 443 276 L 442 277 L 441 276 L 439 276 L 438 277 L 437 276 L 436 277 L 435 277 L 434 278 L 434 279 L 435 280 L 434 281 L 434 282 L 433 283 L 432 283 L 431 284 L 431 285 L 430 286 L 430 287 L 431 288 L 430 289 L 430 290 L 432 290 L 433 291 L 433 292 L 434 293 L 436 293 L 437 292 L 438 292 L 438 290 L 441 287 L 439 285 L 441 283 L 443 283 L 443 282 L 444 281 L 446 281 L 447 282 L 448 282 L 449 283 L 450 282 L 451 283 L 452 283 L 453 284 L 454 284 L 456 286 L 456 287 L 457 287 L 458 288 L 457 289 L 456 289 L 457 290 L 457 291 L 459 291 L 460 292 L 458 290 L 459 289 L 460 289 L 461 288 L 462 289 L 462 290 L 463 291 L 465 291 L 466 292 L 464 294 L 463 293 L 465 295 L 465 296 L 464 297 L 463 297 L 462 296 L 461 296 L 460 295 L 461 294 L 459 294 L 458 295 L 458 296 L 457 297 L 455 297 L 455 298 L 454 299 L 454 300 L 453 301 L 453 302 L 451 304 L 449 304 L 449 305 L 448 306 L 447 306 L 447 308 L 446 309 L 445 308 L 445 311 L 444 312 L 442 312 L 443 313 L 441 315 L 441 316 L 440 317 L 440 318 L 441 319 L 441 320 L 442 321 L 442 325 L 441 326 L 440 325 L 439 326 L 438 325 L 438 326 L 437 327 L 436 326 L 436 328 L 435 329 L 434 328 L 434 326 L 432 326 L 431 325 L 427 325 L 424 328 L 423 327 L 421 327 L 422 327 L 423 328 L 422 329 L 420 329 L 419 328 L 418 329 L 417 328 L 416 328 L 415 327 L 414 327 L 413 326 L 412 326 L 408 322 L 409 321 L 410 321 L 407 318 L 408 317 L 407 316 L 407 315 L 405 313 L 405 311 L 406 310 L 406 309 L 404 307 L 405 306 L 404 305 L 404 304 L 405 303 L 406 303 L 407 304 L 408 303 L 409 304 L 409 303 L 410 302 L 411 303 L 412 303 L 414 305 L 415 305 L 417 307 L 417 308 L 418 309 L 417 310 L 419 310 L 420 311 L 419 312 L 419 313 L 420 312 L 421 312 L 423 314 L 423 315 L 424 316 L 426 316 L 427 317 L 428 317 L 429 316 L 429 315 L 430 314 L 431 314 L 432 313 L 431 312 L 432 311 L 431 310 L 431 309 L 430 308 L 429 308 L 428 307 L 430 305 L 430 304 L 428 304 L 427 305 L 426 304 L 426 302 L 427 301 L 429 301 L 429 300 L 427 298 L 427 297 L 426 297 L 425 296 L 424 296 L 423 297 L 423 298 L 422 299 L 421 298 L 421 297 L 420 298 L 419 298 L 418 299 L 417 298 L 415 298 L 414 297 L 410 297 L 409 298 L 408 297 L 409 298 L 408 299 L 406 299 L 405 300 L 403 300 L 402 299 L 400 299 L 400 300 L 399 301 L 398 301 L 398 304 L 400 306 L 400 308 L 399 309 L 400 310 L 397 313 L 394 313 L 393 314 L 392 314 L 390 316 L 391 317 L 389 319 L 388 318 L 387 319 L 388 320 L 388 321 L 387 322 L 384 322 L 383 321 L 381 321 L 380 322 L 376 318 L 374 318 L 372 316 L 371 316 L 370 315 L 369 315 L 368 316 L 367 315 L 366 316 L 365 315 L 365 314 L 364 314 L 364 316 L 363 317 L 361 317 L 358 314 L 357 314 L 356 313 L 355 313 L 354 312 L 353 313 L 352 312 L 352 313 L 351 314 L 349 314 L 348 313 L 348 312 L 349 311 L 350 312 L 350 311 L 349 310 L 348 310 L 347 309 L 346 309 L 345 308 L 344 308 L 343 307 L 341 307 L 340 306 L 339 306 L 339 307 L 338 308 L 336 306 L 334 308 L 333 307 L 332 308 L 331 308 L 330 309 L 330 310 L 329 311 L 330 311 L 331 312 L 331 313 L 332 313 L 333 314 L 334 313 L 335 313 L 336 312 L 337 312 L 338 313 L 339 312 L 340 313 L 341 313 L 342 312 L 344 314 L 346 314 L 348 316 L 348 315 L 349 314 L 350 315 L 350 316 L 351 315 L 352 315 L 353 316 L 354 316 L 357 319 L 357 320 L 358 319 L 359 320 L 360 320 L 361 319 L 362 320 L 366 320 L 367 319 L 370 322 L 371 321 L 374 321 L 375 322 L 374 323 L 372 323 L 373 323 L 374 324 L 374 325 L 376 327 L 377 327 L 378 326 L 379 326 L 380 327 L 379 328 L 379 333 L 377 335 L 377 336 L 376 337 L 377 338 L 376 339 L 375 339 L 375 341 L 376 342 L 375 343 L 375 344 L 377 346 L 376 347 L 376 348 L 377 349 L 376 350 L 376 351 L 375 352 L 376 353 L 375 354 L 374 354 L 375 354 L 376 355 L 376 356 L 375 357 L 374 356 L 373 356 L 371 354 L 370 354 L 370 355 L 369 356 L 367 356 L 366 357 L 365 357 L 364 358 L 362 358 L 362 359 L 361 360 L 360 359 L 361 360 L 360 361 L 362 363 L 362 364 L 363 364 L 364 363 L 366 363 L 367 362 L 367 360 L 368 359 L 369 360 L 371 360 L 373 358 L 375 358 L 375 357 L 376 356 L 378 356 L 379 355 L 380 356 L 380 358 L 380 357 L 381 356 L 382 357 L 382 360 L 382 358 L 383 357 L 384 358 L 384 361 L 385 360 L 388 360 L 389 361 L 391 361 L 393 363 L 393 362 L 394 361 L 395 362 L 395 361 L 396 360 L 397 360 L 397 359 L 396 360 L 394 358 L 395 357 L 392 357 L 391 356 L 390 357 L 388 357 L 387 356 L 386 356 L 385 355 L 386 354 L 384 352 L 384 351 L 383 351 L 382 350 L 382 349 L 381 349 L 379 347 L 379 344 L 380 343 L 381 343 L 381 342 L 382 341 L 381 342 L 379 342 L 378 341 L 378 340 L 379 339 L 380 340 L 381 339 L 380 338 L 382 336 L 383 336 L 383 334 L 382 333 L 383 332 L 382 331 L 382 330 L 385 327 L 386 327 L 386 326 L 387 325 L 386 324 L 387 323 L 388 323 L 389 324 L 390 323 L 391 323 L 392 322 L 392 321 L 391 320 L 392 319 L 393 319 L 394 320 L 394 321 L 394 319 L 395 318 L 396 318 L 396 317 L 397 316 L 397 315 L 398 314 L 399 314 L 400 315 L 399 316 L 400 317 L 399 318 L 399 319 L 400 320 L 401 320 L 402 321 L 402 322 L 404 322 L 405 323 L 404 324 L 403 324 L 406 324 L 407 325 L 405 327 L 404 327 L 403 328 L 404 329 L 404 330 L 406 332 L 405 333 L 404 333 L 402 335 L 400 335 L 401 336 L 400 337 L 397 337 L 397 338 L 396 339 L 396 340 L 395 341 L 394 341 L 394 342 L 393 343 L 392 343 L 392 344 L 391 345 L 391 346 L 392 345 L 393 346 L 393 347 L 394 347 L 394 346 L 395 345 L 396 346 L 397 345 L 398 345 L 399 344 L 399 343 L 400 342 L 399 341 L 400 340 L 401 340 L 402 339 L 403 340 L 404 339 L 405 339 L 409 335 L 410 335 L 412 333 L 413 334 L 414 333 L 415 333 L 416 334 L 417 333 L 418 334 L 419 334 L 420 335 L 419 336 L 418 336 L 418 338 L 419 339 L 418 340 L 419 341 L 419 342 L 420 343 L 420 342 L 421 341 L 421 340 L 422 339 L 423 340 L 423 341 L 424 340 L 425 340 L 425 339 L 426 338 L 427 338 L 428 339 L 427 340 L 428 341 L 427 342 L 426 342 L 427 342 L 428 343 L 427 344 L 428 345 L 427 346 L 426 346 L 425 345 L 425 344 L 424 345 L 420 345 L 419 346 L 417 344 L 417 345 L 415 347 L 415 348 L 416 349 L 415 350 L 412 350 L 412 351 L 410 353 L 410 354 L 409 355 L 409 356 L 408 357 L 409 357 L 410 358 L 410 359 L 409 360 L 408 359 L 407 360 L 407 361 L 406 362 L 405 362 L 405 363 L 404 364 L 405 365 L 405 368 L 404 369 L 404 371 L 403 372 L 401 372 L 400 373 L 400 374 L 398 376 L 397 375 L 397 374 L 396 373 L 395 374 L 394 373 L 391 373 L 390 372 L 388 374 L 388 376 L 387 377 L 386 376 L 387 377 L 386 378 L 386 380 L 387 379 L 388 380 L 388 381 L 387 382 L 391 386 L 391 387 L 392 388 L 391 387 L 393 385 L 394 386 L 394 389 L 395 388 L 396 389 L 396 390 L 395 391 L 397 393 L 395 395 L 396 396 L 395 397 L 394 397 L 392 399 L 391 398 L 390 399 L 389 398 L 388 398 L 387 399 L 386 399 L 384 397 L 384 396 L 384 397 L 383 398 L 382 397 L 382 396 L 381 396 L 379 394 L 379 395 L 378 396 L 375 393 L 374 394 L 372 392 L 371 392 L 370 391 L 369 392 L 367 392 L 366 393 L 365 392 L 364 393 L 363 392 L 362 393 L 361 392 L 360 393 L 360 394 L 359 395 L 359 398 L 360 399 L 364 399 L 364 398 L 365 397 L 366 398 L 368 396 L 370 398 L 370 399 L 372 401 L 371 402 L 374 405 L 373 406 L 373 409 L 372 410 L 372 411 L 373 412 L 372 413 L 373 414 L 372 415 L 372 418 L 373 418 L 374 419 L 373 420 L 373 422 L 374 422 L 375 423 L 375 424 L 374 425 L 374 426 L 375 427 L 375 429 L 378 429 L 379 430 L 378 431 L 375 431 L 377 433 L 377 434 L 378 434 L 379 435 L 378 436 L 377 436 L 378 437 L 378 438 L 379 437 L 380 438 L 380 439 L 381 440 L 380 441 L 380 442 L 381 442 L 382 443 L 382 444 L 383 444 L 384 445 L 385 445 L 386 446 L 385 447 L 385 448 L 386 448 L 387 449 L 386 450 L 386 451 L 387 452 L 387 454 L 388 455 L 389 455 L 391 457 L 391 462 L 388 465 L 389 466 L 388 467 L 388 470 L 392 474 L 394 474 L 396 472 L 397 472 L 398 471 L 398 470 L 400 468 L 400 467 L 401 466 L 402 466 L 408 460 L 409 461 L 409 462 L 410 461 L 411 462 L 411 463 L 413 465 L 414 464 L 415 464 L 416 465 L 417 464 L 418 465 L 419 465 L 420 464 L 421 464 L 422 463 L 423 464 L 423 466 L 424 465 L 425 466 L 425 467 L 426 468 L 426 469 L 428 471 L 429 471 L 430 472 L 429 473 L 428 473 L 428 475 L 427 476 L 425 476 L 424 475 L 424 474 L 422 476 L 421 475 L 419 477 L 418 476 L 417 477 L 416 477 L 415 476 L 416 475 L 415 476 L 414 475 L 412 477 L 410 475 L 408 477 L 406 477 L 405 478 L 404 478 L 403 477 L 403 478 L 402 479 L 401 479 L 401 480 L 402 481 L 401 482 L 401 483 L 402 483 L 403 484 L 402 485 L 402 490 L 403 490 L 406 493 L 405 494 L 406 495 L 408 495 L 408 494 L 409 493 L 410 494 L 410 495 L 411 496 L 410 497 L 411 498 L 410 499 L 412 501 L 412 502 L 414 504 L 415 504 L 417 506 L 418 505 L 419 506 L 419 507 L 419 506 L 420 505 L 421 505 L 422 506 L 422 507 L 421 508 L 421 509 L 420 510 L 419 509 L 420 510 L 420 511 L 419 512 L 420 513 L 418 515 L 419 516 L 417 518 L 417 521 L 416 522 L 416 526 L 417 527 L 418 526 L 419 526 L 420 527 L 420 528 L 421 528 L 422 529 L 421 530 L 422 531 L 421 532 L 421 533 L 424 536 L 427 536 L 428 537 L 427 538 L 426 538 L 427 538 L 429 540 L 430 540 L 431 541 L 431 542 L 431 541 L 432 540 L 433 541 L 435 539 L 435 538 L 434 538 L 433 537 L 433 535 L 432 534 L 433 533 L 432 533 L 431 532 L 431 534 L 430 535 L 429 535 L 428 534 L 429 533 L 428 532 L 429 531 L 428 532 L 426 530 L 425 530 L 424 529 L 425 528 L 426 528 L 425 528 L 424 527 L 424 524 L 423 523 L 423 522 L 424 521 L 422 519 L 422 518 L 423 517 L 424 518 L 423 517 L 422 517 L 421 516 L 423 514 L 423 513 L 427 509 L 428 509 L 428 508 L 429 507 L 430 508 L 430 509 L 431 508 L 432 508 L 433 509 L 433 510 L 434 509 L 435 509 L 436 510 L 435 511 L 435 512 L 436 512 L 437 511 L 438 512 L 438 514 L 437 515 L 437 517 L 438 518 L 436 520 L 436 522 L 437 523 L 436 524 L 437 525 L 437 526 L 438 525 L 439 526 L 439 528 L 439 526 L 440 525 L 441 526 L 442 526 L 442 525 L 443 524 L 444 525 L 444 527 L 443 528 L 441 528 L 442 529 L 442 530 L 443 531 L 445 531 L 446 530 L 447 530 L 448 529 L 449 529 L 451 531 L 452 531 L 453 530 L 454 531 L 455 530 L 456 531 L 456 532 L 459 532 L 460 533 L 462 533 L 463 534 L 464 534 L 464 533 L 465 532 L 467 532 L 466 532 L 465 531 L 466 530 L 468 530 L 469 529 L 470 530 L 470 531 L 471 530 L 472 531 L 473 530 L 474 530 L 473 530 L 469 526 L 470 525 L 471 525 L 474 528 L 475 528 L 476 529 L 476 530 L 480 530 L 484 526 L 485 526 L 486 525 L 486 524 L 488 522 L 487 521 L 487 520 L 489 518 L 490 518 L 490 516 L 491 515 L 492 516 L 493 515 L 496 515 L 497 514 L 498 514 L 499 515 L 499 516 L 501 514 L 502 515 L 502 516 L 503 517 L 503 519 L 505 521 L 505 523 L 504 524 L 502 522 L 502 523 L 503 523 L 504 524 L 503 525 L 501 525 L 502 526 L 502 527 L 503 527 L 504 528 L 503 529 L 496 529 L 494 531 L 493 530 L 493 531 L 492 532 L 491 532 L 490 533 L 490 536 L 491 537 L 491 538 L 490 539 L 489 538 L 490 539 L 491 539 L 492 540 L 492 543 L 493 544 L 493 543 L 494 542 L 495 543 L 495 544 L 496 545 L 495 546 L 494 546 L 495 547 L 495 550 L 496 549 L 497 550 L 497 551 L 496 552 L 498 554 L 497 553 L 499 551 L 501 553 L 501 554 L 500 555 L 501 556 L 500 557 L 498 557 L 498 558 L 497 559 L 498 560 L 497 561 L 496 561 L 495 562 L 495 563 L 494 564 L 494 565 L 493 566 L 493 567 L 494 568 L 493 569 L 494 568 L 495 568 L 496 569 L 497 569 L 498 570 L 498 569 L 499 568 L 500 568 L 501 567 L 502 567 L 501 566 L 503 564 L 502 563 L 502 562 L 503 561 L 503 560 L 502 559 L 503 558 L 502 557 L 503 556 L 504 556 L 507 553 L 507 552 L 508 551 L 509 551 L 510 550 L 511 551 L 512 550 L 513 551 L 515 549 L 516 550 L 517 549 L 520 549 L 521 550 L 522 549 L 523 550 L 523 551 L 524 552 L 524 553 L 525 553 L 526 552 L 528 554 L 527 555 L 526 555 L 525 556 L 524 556 L 526 558 L 526 560 L 525 561 L 524 561 L 524 564 L 526 566 L 526 567 L 527 567 L 528 566 L 529 567 L 530 567 L 531 568 L 530 567 L 529 567 L 528 566 L 529 565 L 530 565 L 530 564 L 531 563 L 533 565 L 532 566 L 533 566 L 534 567 L 533 568 L 534 567 L 535 568 L 535 569 L 536 570 L 536 571 L 537 572 L 536 573 L 537 572 L 538 573 L 538 574 L 539 575 L 539 577 L 540 578 L 540 579 L 543 582 L 547 582 L 548 583 L 547 584 L 548 584 L 550 586 L 549 587 L 550 588 L 552 588 L 553 589 L 553 588 L 556 585 L 556 584 L 554 582 L 553 582 L 552 581 L 552 580 L 550 578 L 548 578 L 547 579 L 546 578 L 546 577 L 547 576 L 545 576 L 544 575 L 545 574 L 543 572 L 543 571 L 541 569 L 541 568 L 540 568 L 539 567 L 539 566 L 538 566 L 537 565 L 537 564 L 535 562 L 535 561 L 538 558 L 538 557 L 537 556 L 538 555 L 537 554 L 538 553 L 539 553 L 540 552 L 541 553 L 541 554 L 543 554 L 544 553 L 545 553 L 546 552 L 547 553 L 547 554 L 549 554 L 550 555 L 551 554 L 552 555 L 552 556 L 553 557 L 552 558 L 553 559 L 554 558 L 555 559 L 555 560 L 554 561 L 556 563 L 556 565 L 557 566 L 559 566 L 560 567 L 560 568 L 563 568 L 565 566 L 565 563 L 564 563 L 563 562 L 564 561 L 564 559 L 563 558 L 565 556 L 565 554 L 566 553 L 563 553 L 562 552 L 562 551 L 563 550 L 564 551 L 566 551 L 566 550 L 567 549 L 567 546 L 568 545 L 568 544 L 569 543 L 570 544 L 570 543 L 573 540 L 572 539 L 573 538 L 573 536 L 574 535 L 575 536 L 576 535 L 577 536 L 577 537 L 576 538 L 576 541 L 577 540 L 578 540 L 579 541 L 581 541 L 581 539 L 582 538 L 583 539 L 583 540 L 584 539 L 584 537 L 585 536 L 583 534 L 583 533 L 582 533 L 580 531 L 580 530 L 579 530 L 578 529 L 578 528 L 577 527 L 578 526 L 577 526 L 575 524 L 576 523 L 575 522 L 575 519 L 576 518 L 576 513 L 575 512 L 576 511 L 578 511 L 579 512 L 579 513 L 580 513 L 581 512 L 583 512 L 584 513 L 584 514 L 585 515 L 586 514 L 587 514 L 588 515 L 587 516 L 591 520 L 593 520 L 594 521 L 593 522 L 595 520 L 596 521 L 596 522 L 597 523 L 596 524 L 595 524 L 594 525 L 593 525 L 593 526 L 594 527 L 593 528 L 594 528 L 595 529 L 593 531 L 594 532 L 595 532 L 596 533 L 595 534 L 595 535 L 596 536 L 596 540 L 595 541 L 595 542 L 595 541 L 596 540 L 597 541 L 597 545 L 598 546 L 601 546 L 602 545 L 603 545 L 602 544 L 604 542 L 605 543 L 606 543 L 607 542 L 608 543 L 609 543 L 609 542 L 610 541 L 611 541 L 612 542 L 613 542 L 613 541 L 614 540 L 615 541 L 617 539 L 618 540 L 619 540 L 619 537 L 618 536 L 619 535 L 618 534 L 618 533 L 619 532 L 619 531 L 618 530 L 619 529 L 619 528 L 620 527 L 619 526 L 621 524 L 622 524 L 621 524 L 620 523 L 622 521 L 623 522 L 623 521 L 624 520 L 625 521 L 626 520 L 627 520 L 626 519 L 628 517 L 629 518 L 628 517 L 628 516 L 629 515 L 631 515 L 632 514 L 632 513 L 633 512 L 634 513 L 634 512 L 631 509 L 632 508 L 631 507 L 630 507 L 629 506 L 629 505 L 627 503 L 628 502 L 628 501 L 627 500 L 628 499 L 627 498 L 627 496 L 626 495 L 626 494 L 627 493 L 625 491 L 625 488 L 624 487 L 625 486 L 624 485 L 625 484 L 625 483 L 624 483 L 623 482 L 624 481 L 623 482 L 623 485 L 624 485 L 625 486 L 622 489 L 621 488 L 621 487 L 620 487 L 619 486 L 619 485 L 620 484 L 621 485 L 620 484 L 621 483 L 621 482 L 620 482 L 618 484 L 616 482 L 618 480 L 617 479 L 617 478 L 616 477 L 617 476 L 616 475 L 616 474 L 615 473 L 616 472 L 617 472 L 618 473 L 618 474 L 619 474 L 620 475 L 621 475 L 622 476 L 623 476 L 624 477 L 623 478 L 623 479 L 622 480 L 623 479 L 626 479 L 626 478 L 627 477 L 628 478 L 628 477 L 629 476 L 629 475 L 632 472 L 632 470 L 631 469 L 632 468 L 632 467 L 633 466 L 634 466 L 635 467 L 634 468 L 635 467 L 636 467 L 638 465 L 637 464 L 638 463 L 637 463 L 636 462 L 637 461 L 636 461 L 635 460 L 635 459 L 634 458 L 633 458 L 632 459 L 631 459 L 630 458 L 630 457 L 631 456 L 630 455 L 631 454 L 631 453 L 632 452 L 632 451 L 631 450 L 631 448 L 632 447 L 632 445 L 631 444 L 631 440 L 632 439 L 633 440 L 633 438 L 634 437 L 635 437 L 634 437 L 633 436 L 634 435 L 635 435 L 633 433 L 634 432 L 634 431 L 637 428 L 636 427 L 637 426 L 639 426 L 638 425 L 639 424 L 640 424 L 639 423 L 639 421 L 640 420 L 641 421 L 644 418 L 646 418 L 648 420 L 649 420 L 651 422 L 650 423 L 651 424 L 651 425 L 653 425 L 655 427 L 653 429 L 650 429 L 649 430 L 648 430 L 648 431 L 646 433 L 646 435 L 645 436 L 644 435 L 644 436 L 645 436 L 646 437 L 645 438 L 646 439 L 645 440 L 644 440 L 643 441 L 643 442 L 642 443 L 641 443 L 641 444 L 642 444 L 644 446 L 644 447 L 643 448 L 642 447 L 642 451 L 644 453 L 644 455 L 645 456 L 644 457 L 644 458 L 646 460 L 647 459 L 648 460 L 648 461 L 649 462 L 650 462 L 651 463 L 650 464 L 650 467 L 649 468 L 650 469 L 649 470 L 650 471 L 649 472 L 648 472 L 647 471 L 646 471 L 647 472 L 645 474 L 644 473 L 642 475 L 641 475 L 640 476 L 640 477 L 639 478 L 639 479 L 638 480 L 637 479 L 636 480 L 636 481 L 635 482 L 635 485 L 636 486 L 635 487 L 636 488 L 635 489 L 636 490 L 635 491 L 636 492 L 636 493 L 637 493 L 639 495 L 638 496 L 639 496 L 640 495 L 641 496 L 641 497 L 640 498 L 641 499 L 642 499 L 643 500 L 642 501 L 641 501 L 641 502 L 640 503 L 640 504 L 641 505 L 641 506 L 640 507 L 643 510 L 645 508 L 645 507 L 646 506 L 647 506 L 647 504 L 649 502 L 648 501 L 649 500 L 651 500 L 652 499 L 655 499 L 657 501 L 658 500 L 659 501 L 659 502 L 661 502 L 662 503 L 661 504 L 662 504 L 663 505 L 662 504 L 663 503 L 665 503 L 666 504 L 667 504 L 668 503 L 669 504 L 670 504 L 672 502 L 674 504 L 674 503 L 675 502 L 676 503 L 680 503 L 682 505 L 683 505 L 684 506 L 685 505 L 686 506 L 687 506 L 688 505 L 691 508 L 692 507 L 693 508 L 693 510 L 695 510 L 696 511 L 696 512 L 697 511 L 698 512 L 698 513 L 697 514 L 698 514 L 699 515 L 699 518 L 702 521 L 703 520 L 704 520 L 705 519 L 705 518 L 704 517 L 705 516 L 705 515 L 702 515 L 701 514 L 701 513 L 702 512 L 703 512 L 703 510 L 702 509 L 701 510 L 700 509 L 700 508 L 699 508 L 698 507 L 699 506 L 698 506 L 696 504 L 696 503 L 695 503 L 693 501 L 692 501 L 691 502 L 690 501 L 689 501 L 688 502 L 687 501 L 687 500 L 685 500 L 684 499 L 683 499 L 682 498 L 681 498 L 680 499 L 679 498 L 677 498 L 676 497 L 675 498 L 671 498 L 670 499 L 669 498 L 668 499 L 667 499 L 666 500 L 665 499 L 664 499 L 663 498 L 662 499 L 661 498 L 661 496 L 661 498 L 660 499 L 659 498 L 659 497 L 658 497 L 657 496 L 654 496 L 653 495 L 652 495 L 651 496 L 650 495 L 649 495 L 648 494 L 647 495 L 646 494 L 646 493 L 646 494 L 645 495 L 644 494 L 644 493 L 643 493 L 642 492 L 642 491 L 643 490 L 641 488 L 642 487 L 642 486 L 643 485 L 643 484 L 642 483 L 642 481 L 643 480 L 643 478 L 644 477 L 645 478 L 646 478 L 647 477 L 647 476 L 649 474 L 650 474 L 651 475 L 653 475 L 654 474 L 655 475 L 656 475 L 656 474 L 657 473 L 658 474 L 659 473 L 662 476 L 660 478 L 661 479 L 660 480 L 661 481 L 660 482 L 661 482 L 662 483 L 661 484 L 662 485 L 663 484 L 664 485 L 664 486 L 665 486 L 666 487 L 668 485 L 669 486 L 671 486 L 672 485 L 674 485 L 673 484 L 674 483 L 675 483 L 676 484 L 677 484 L 677 483 L 678 482 L 679 482 L 679 481 L 680 480 L 679 481 L 677 479 L 677 475 L 675 473 L 675 471 L 673 469 L 674 468 L 674 466 L 670 462 L 670 461 L 669 461 L 668 462 L 667 461 L 667 460 L 669 458 L 668 459 L 667 458 L 666 459 L 665 458 L 665 456 L 664 455 L 665 454 L 665 453 L 664 453 L 663 452 L 663 451 L 662 450 L 659 450 L 658 451 L 657 451 L 656 450 L 655 450 L 654 449 L 653 449 L 652 448 L 652 447 L 651 447 L 649 445 L 650 444 L 649 443 L 650 442 L 650 440 L 649 440 L 648 439 L 649 438 L 650 438 L 651 437 L 651 436 L 652 435 L 653 435 L 653 434 L 655 432 L 656 433 L 659 433 L 660 432 L 661 433 L 661 432 L 662 431 L 664 433 L 664 436 L 665 437 L 664 438 L 665 437 L 666 438 L 666 439 L 667 439 L 668 438 L 670 440 L 671 439 L 673 439 L 675 437 L 676 438 L 675 437 L 676 436 L 675 437 L 673 435 L 674 434 L 672 432 L 672 431 L 671 431 L 670 432 L 669 431 L 669 430 L 670 429 L 669 428 L 669 426 L 668 426 L 667 425 L 668 424 L 670 424 L 671 425 L 671 423 L 672 422 L 672 420 L 673 419 L 673 417 L 672 416 L 674 414 L 674 412 L 673 411 L 673 410 L 675 408 L 676 408 L 677 407 L 677 406 L 678 405 L 677 404 L 678 403 L 677 403 L 676 404 L 675 403 L 675 402 L 676 401 L 677 401 L 677 400 L 676 399 L 677 398 L 677 395 L 678 394 L 678 392 L 679 391 L 679 390 L 678 389 L 677 389 L 676 388 L 674 388 L 673 387 L 672 387 L 671 388 L 670 387 L 670 386 L 669 387 L 668 386 L 667 386 L 665 384 L 663 384 L 662 383 L 663 382 L 663 381 L 664 380 L 663 381 L 662 380 L 662 379 L 663 378 L 662 377 L 662 376 L 661 375 L 662 374 L 661 373 L 662 372 L 663 372 L 664 371 L 665 372 L 666 371 L 668 371 L 669 372 L 668 373 L 669 372 L 671 372 L 672 371 L 673 372 L 673 373 L 675 373 L 677 375 L 678 375 L 679 376 L 680 375 L 681 376 L 682 375 L 683 376 L 683 377 L 684 377 L 685 378 L 685 379 L 686 380 L 687 380 L 688 381 L 690 381 L 691 382 L 690 383 L 689 383 L 689 384 L 690 385 L 690 388 L 692 390 L 691 391 L 692 391 L 693 392 L 692 393 L 693 394 L 693 395 L 692 396 L 693 397 L 692 398 L 693 397 L 694 398 L 694 399 L 696 401 L 696 402 L 697 403 L 698 402 L 699 403 L 700 403 L 701 404 L 700 405 L 700 406 L 702 406 L 704 404 L 705 405 L 705 406 L 704 407 L 704 408 L 706 410 L 706 411 L 709 414 L 709 415 L 710 416 L 710 417 L 711 417 L 712 418 L 714 418 L 715 417 L 716 417 L 716 413 L 715 412 L 716 411 L 714 413 L 713 412 L 713 410 L 714 409 L 713 409 L 712 408 L 711 408 L 707 404 L 707 402 L 706 402 L 705 401 L 703 401 L 702 400 L 703 399 L 702 399 L 701 398 L 700 398 L 697 395 L 698 394 L 697 393 L 697 392 L 695 390 L 696 389 L 697 389 L 695 387 L 695 384 L 696 383 L 695 382 L 698 379 L 697 378 L 698 377 L 702 377 L 703 378 L 705 378 L 706 377 L 708 379 L 709 379 L 710 378 L 712 380 L 713 380 L 714 381 L 715 380 L 717 380 L 717 379 L 718 378 L 719 379 L 720 379 L 720 378 L 721 377 L 721 376 L 722 375 L 723 376 L 723 377 L 725 375 L 727 375 L 726 374 L 727 373 L 727 372 L 728 371 L 729 371 L 730 370 L 731 371 L 731 372 L 731 371 L 732 370 L 733 371 L 734 370 L 735 371 L 736 371 L 737 370 L 737 369 L 738 368 L 737 367 L 738 366 L 736 366 L 735 365 L 732 365 L 731 366 L 730 365 L 729 366 L 730 367 L 729 368 L 728 368 L 727 369 L 726 368 L 726 367 L 725 368 L 725 369 L 724 370 L 724 372 L 723 373 L 722 372 L 721 372 L 718 375 L 717 375 L 716 376 L 715 376 L 714 375 L 714 374 L 713 373 L 712 373 L 712 374 L 711 375 L 710 374 L 710 373 L 708 373 L 707 372 L 704 372 L 703 373 L 702 372 L 699 375 L 697 375 L 695 373 L 694 374 L 692 374 L 691 375 L 689 375 L 688 374 L 686 374 L 686 375 L 684 377 L 683 376 L 683 375 L 684 374 L 681 371 L 682 370 L 681 371 L 680 370 L 680 369 L 679 370 L 678 369 L 678 368 L 676 366 L 679 363 L 679 362 L 681 360 L 680 359 L 682 357 L 683 358 L 684 358 L 685 357 L 689 357 L 689 356 L 690 355 L 691 356 L 691 357 L 691 355 L 692 354 L 693 355 L 693 356 L 695 354 L 696 354 L 697 353 L 698 353 L 698 351 L 699 350 L 698 350 L 697 349 L 698 348 L 698 346 L 694 346 L 693 347 L 693 348 L 694 349 L 693 350 L 691 350 L 690 351 L 691 352 L 690 353 L 689 353 L 688 352 L 688 351 L 687 352 L 685 352 L 684 353 L 683 353 L 682 354 L 681 354 L 680 355 L 679 354 L 679 355 L 678 356 L 677 356 L 676 357 L 675 357 L 677 359 L 676 360 L 676 361 L 675 362 L 674 362 L 674 363 L 673 364 L 672 363 L 672 364 L 671 365 L 668 365 L 667 364 L 665 366 L 664 366 L 663 365 L 664 364 L 663 365 L 662 365 L 661 364 L 661 363 L 660 364 L 659 363 L 656 363 L 655 364 L 652 364 L 652 365 L 653 366 L 652 367 L 652 369 L 652 368 L 653 367 L 654 368 L 655 368 L 656 369 L 654 371 L 652 371 L 651 372 L 650 371 L 650 370 L 649 369 L 650 368 L 649 368 L 648 367 L 649 366 L 647 364 L 646 365 L 645 364 L 642 364 L 642 367 L 641 368 L 640 367 L 640 366 L 639 366 L 638 365 L 638 364 L 639 363 L 640 364 L 640 363 L 641 362 L 640 361 L 640 360 L 641 359 L 640 360 L 639 359 L 639 358 L 640 357 L 640 356 L 639 355 L 640 354 L 641 354 L 642 353 L 641 353 L 640 352 L 641 351 L 644 351 L 646 349 L 647 349 L 647 348 L 648 347 L 649 348 L 649 350 L 650 349 L 652 351 L 653 351 L 655 353 L 656 352 L 657 353 L 657 354 L 658 354 L 659 353 L 660 353 L 661 354 L 662 354 L 664 352 L 661 349 L 662 348 L 663 348 L 664 349 L 665 349 L 664 348 L 666 346 L 667 346 L 667 345 L 670 342 L 671 343 L 672 343 L 672 342 L 673 341 L 674 341 L 675 340 L 676 341 L 676 340 L 677 339 L 679 341 L 679 342 L 679 341 L 680 340 L 681 341 L 681 339 L 682 338 L 681 338 L 680 337 L 682 335 L 681 335 L 680 334 L 679 334 L 678 333 L 675 333 L 673 335 L 674 336 L 673 337 L 672 337 L 671 336 L 670 337 L 669 336 L 669 335 L 668 334 L 668 335 L 667 336 L 666 335 L 666 334 L 664 332 L 665 331 L 666 331 L 665 330 L 665 326 L 664 325 L 664 324 L 662 322 L 663 321 L 663 320 L 664 319 L 663 318 L 663 316 L 664 315 L 664 312 L 663 313 L 662 312 L 662 310 L 660 308 L 661 307 L 661 305 L 662 304 L 662 303 L 664 301 L 664 300 L 666 298 L 666 294 L 661 294 L 661 295 L 660 296 L 660 297 L 659 298 L 660 299 L 659 300 L 659 301 L 658 302 L 657 301 L 656 302 L 657 302 L 658 303 L 656 305 L 655 304 L 654 304 L 653 305 L 653 306 L 651 308 L 648 308 L 646 310 L 645 310 L 644 309 L 643 310 L 642 309 L 642 310 L 641 311 L 640 310 L 639 310 L 639 311 L 638 312 L 636 312 L 636 314 L 634 316 L 633 316 L 634 316 L 635 317 L 634 318 L 632 318 L 630 320 L 629 319 L 627 319 L 626 318 L 625 319 L 624 318 L 623 319 L 622 319 L 623 320 L 623 322 L 622 323 L 620 323 L 619 322 L 620 321 L 619 321 L 618 320 L 618 319 L 619 318 L 619 317 L 621 315 L 622 316 L 623 316 L 624 315 L 623 316 L 622 315 L 622 314 L 620 314 L 618 312 L 619 311 L 620 311 L 621 312 L 622 312 L 621 311 L 622 310 L 621 309 L 620 309 L 619 308 L 620 307 L 620 306 L 621 305 L 622 306 L 622 307 L 622 306 L 623 305 L 624 305 L 624 304 L 625 303 L 625 302 L 624 301 L 625 300 L 625 299 L 626 298 L 623 295 L 623 294 L 625 292 L 626 293 L 626 294 L 627 294 L 627 292 L 628 291 L 628 290 L 629 289 L 629 288 L 630 287 L 631 288 L 632 287 L 631 286 L 632 285 L 631 284 L 631 283 L 630 282 L 629 282 L 628 281 L 627 282 L 625 282 L 624 283 L 624 284 L 623 285 L 623 287 L 620 290 L 621 291 L 620 292 L 619 292 L 619 293 L 618 294 L 617 294 L 615 296 L 615 298 L 614 299 L 613 299 L 612 300 L 611 299 L 610 300 L 612 302 L 611 303 L 609 303 L 608 302 L 608 300 L 607 300 L 606 301 L 605 301 L 604 300 L 603 301 L 602 301 L 601 300 L 601 299 L 600 298 L 599 299 L 595 295 L 595 294 L 593 292 L 594 291 L 595 291 L 594 290 L 596 288 L 597 288 L 598 289 L 599 288 L 602 288 L 602 287 L 603 286 L 604 287 L 605 287 L 604 286 L 605 285 L 606 285 L 607 286 L 606 285 L 607 284 L 608 284 L 610 282 L 611 282 L 611 280 L 612 279 L 612 278 L 613 277 L 614 278 L 615 278 L 615 275 L 617 273 L 617 272 L 618 271 L 618 268 L 617 267 L 616 267 L 615 266 L 616 265 L 615 265 L 614 264 L 612 264 L 611 263 L 612 262 L 612 261 L 611 260 L 610 261 L 609 260 L 608 260 L 607 259 L 606 259 L 604 257 L 604 256 L 603 256 L 602 255 L 602 252 L 603 251 L 604 251 L 603 250 L 604 249 L 604 248 L 605 247 L 604 246 L 605 245 L 607 245 L 606 244 L 606 243 L 608 241 L 607 240 L 607 238 L 608 237 L 609 238 L 608 237 L 608 229 L 606 227 L 607 226 L 608 226 L 607 225 L 607 224 L 606 223 L 606 222 L 603 222 L 602 221 L 601 222 L 600 221 L 600 220 L 598 220 L 598 221 L 597 222 L 596 221 L 596 219 L 595 220 L 594 220 L 593 219 L 593 218 L 594 217 L 593 218 L 592 217 L 592 216 L 590 214 L 590 213 L 591 212 L 590 211 L 590 209 L 588 209 L 587 208 L 589 206 L 588 206 L 587 205 L 588 204 L 590 204 L 589 203 L 590 202 L 590 199 L 589 199 L 588 198 L 587 198 L 586 199 L 585 198 L 584 198 L 584 200 "></path>
        <path fill="none" stroke="#fa00fa" stroke-width="3" d="M 461 549 L 460 550 L 457 550 L 456 551 L 455 550 L 454 551 L 453 551 L 452 552 L 451 551 L 449 551 L 448 552 L 447 551 L 445 553 L 446 554 L 445 555 L 445 557 L 446 558 L 446 559 L 449 559 L 450 560 L 450 561 L 451 562 L 451 563 L 452 564 L 451 565 L 452 566 L 452 568 L 453 569 L 452 570 L 453 570 L 454 571 L 453 572 L 454 572 L 456 574 L 456 575 L 457 576 L 457 579 L 458 578 L 462 582 L 462 583 L 464 583 L 466 585 L 467 584 L 469 584 L 469 583 L 470 582 L 471 582 L 471 580 L 472 579 L 473 579 L 471 579 L 470 578 L 471 577 L 473 577 L 476 574 L 477 574 L 478 575 L 479 574 L 478 573 L 479 572 L 480 572 L 481 571 L 479 569 L 480 568 L 480 564 L 481 563 L 481 562 L 483 560 L 484 560 L 484 559 L 483 558 L 484 557 L 484 555 L 483 554 L 481 554 L 479 552 L 478 553 L 476 551 L 475 551 L 474 552 L 472 552 L 472 553 L 471 554 L 470 553 L 470 551 L 471 550 L 470 551 L 469 550 L 469 549 L 469 550 L 468 551 L 467 550 L 467 549 L 466 549 L 465 550 L 462 550 L 461 549 L 460 550 "></path>
        <path fill="none" stroke="#fa00fa" stroke-width="3" d="M 362 453 L 360 455 L 359 455 L 360 455 L 361 456 L 360 457 L 358 457 L 357 458 L 358 459 L 356 461 L 355 461 L 355 462 L 352 465 L 351 465 L 351 466 L 350 467 L 351 466 L 352 467 L 352 468 L 353 469 L 354 469 L 355 468 L 356 468 L 355 467 L 356 466 L 357 466 L 356 465 L 357 464 L 359 464 L 363 460 L 364 460 L 365 461 L 366 460 L 367 461 L 367 462 L 368 462 L 370 464 L 370 466 L 372 466 L 373 467 L 371 469 L 370 469 L 370 471 L 368 473 L 368 474 L 367 475 L 367 478 L 365 480 L 364 480 L 364 481 L 363 482 L 363 483 L 362 484 L 361 484 L 360 485 L 360 486 L 361 487 L 360 488 L 360 489 L 361 490 L 362 489 L 363 490 L 363 491 L 362 492 L 363 493 L 364 493 L 365 494 L 366 493 L 367 493 L 369 495 L 372 495 L 373 496 L 375 496 L 375 495 L 376 494 L 377 495 L 376 494 L 377 493 L 380 493 L 381 494 L 381 495 L 382 496 L 382 497 L 382 496 L 383 495 L 384 495 L 385 494 L 386 495 L 386 496 L 385 497 L 385 500 L 387 500 L 388 501 L 388 503 L 389 504 L 391 504 L 393 506 L 392 507 L 393 507 L 397 511 L 396 512 L 397 513 L 396 514 L 398 516 L 397 517 L 397 518 L 398 519 L 397 520 L 398 521 L 398 524 L 399 525 L 399 526 L 400 527 L 399 528 L 399 529 L 398 530 L 399 531 L 398 532 L 402 536 L 403 536 L 403 535 L 404 534 L 404 533 L 405 532 L 405 531 L 404 530 L 404 527 L 404 528 L 403 529 L 402 528 L 402 525 L 403 524 L 403 522 L 402 521 L 403 520 L 403 519 L 404 518 L 404 515 L 403 514 L 403 511 L 401 509 L 401 507 L 399 505 L 398 505 L 397 504 L 397 503 L 396 503 L 395 502 L 395 501 L 394 500 L 394 499 L 392 499 L 391 498 L 391 496 L 390 496 L 389 495 L 389 494 L 388 493 L 387 493 L 383 489 L 383 488 L 381 490 L 381 491 L 380 492 L 379 491 L 379 490 L 378 491 L 377 490 L 375 490 L 374 491 L 373 490 L 371 490 L 369 488 L 370 489 L 370 490 L 369 491 L 367 489 L 367 488 L 366 487 L 369 484 L 368 484 L 367 483 L 369 481 L 369 480 L 370 479 L 371 479 L 371 478 L 372 477 L 372 475 L 373 474 L 374 475 L 374 474 L 376 472 L 376 471 L 375 471 L 374 470 L 374 469 L 375 468 L 376 469 L 377 468 L 377 467 L 378 466 L 377 465 L 378 464 L 378 463 L 376 461 L 374 461 L 372 459 L 373 458 L 372 458 L 371 459 L 370 458 L 370 455 L 369 455 L 368 454 L 368 453 L 367 454 L 366 453 L 365 453 L 364 454 L 363 453 L 362 453 L 360 455 "></path>
        <path fill="none" stroke="#fa00fa" stroke-width="3" d="M 546 213 L 547 214 L 546 215 L 543 215 L 543 217 L 542 218 L 541 217 L 541 216 L 540 217 L 539 217 L 539 218 L 538 219 L 537 218 L 536 219 L 535 219 L 533 221 L 533 222 L 532 223 L 530 223 L 529 224 L 526 224 L 525 223 L 524 223 L 523 224 L 522 223 L 518 223 L 517 222 L 518 221 L 519 221 L 518 221 L 517 220 L 517 219 L 516 219 L 515 220 L 514 219 L 514 218 L 513 219 L 512 219 L 511 218 L 511 221 L 510 222 L 511 223 L 512 223 L 513 224 L 513 225 L 515 225 L 516 226 L 517 225 L 519 227 L 519 228 L 520 228 L 521 229 L 522 229 L 523 230 L 522 229 L 523 228 L 526 228 L 528 230 L 529 230 L 530 229 L 531 229 L 532 228 L 533 228 L 533 227 L 534 226 L 536 226 L 538 224 L 538 223 L 539 222 L 542 222 L 543 221 L 544 221 L 544 219 L 545 218 L 546 218 L 547 219 L 546 220 L 548 218 L 550 220 L 551 220 L 552 219 L 553 220 L 554 220 L 555 219 L 556 219 L 557 220 L 558 219 L 559 219 L 560 220 L 560 221 L 561 222 L 560 223 L 559 223 L 560 224 L 560 226 L 561 226 L 563 228 L 562 229 L 562 230 L 561 231 L 566 236 L 565 237 L 566 238 L 565 239 L 566 238 L 567 239 L 567 240 L 566 241 L 567 242 L 566 243 L 566 244 L 567 245 L 567 246 L 566 247 L 567 247 L 568 248 L 568 249 L 567 250 L 566 250 L 566 251 L 565 252 L 565 254 L 564 255 L 564 260 L 565 261 L 566 260 L 567 261 L 567 262 L 568 261 L 569 262 L 570 261 L 571 261 L 572 260 L 573 260 L 574 259 L 574 258 L 572 256 L 573 255 L 573 254 L 572 253 L 573 252 L 573 251 L 572 252 L 571 251 L 570 251 L 569 250 L 571 248 L 572 249 L 571 248 L 572 247 L 572 245 L 570 243 L 570 242 L 571 241 L 570 241 L 569 240 L 571 238 L 570 237 L 570 236 L 569 236 L 567 234 L 567 233 L 566 232 L 567 231 L 567 226 L 566 226 L 565 225 L 565 222 L 564 223 L 563 222 L 563 221 L 564 220 L 563 219 L 563 216 L 562 215 L 561 216 L 560 216 L 559 215 L 559 214 L 558 214 L 557 213 L 556 213 L 555 214 L 555 215 L 554 216 L 552 216 L 551 215 L 550 216 L 548 214 L 547 214 L 546 213 L 547 214 "></path>
        <path fill="none" stroke="#fa00fa" stroke-width="3" d="M 689 413 L 689 414 L 688 415 L 687 414 L 688 415 L 687 416 L 687 418 L 686 419 L 685 418 L 684 419 L 682 419 L 681 420 L 681 422 L 680 423 L 680 426 L 681 427 L 682 426 L 683 427 L 684 426 L 685 427 L 686 427 L 687 426 L 688 426 L 687 425 L 688 424 L 689 424 L 690 425 L 692 423 L 693 423 L 697 427 L 698 427 L 699 426 L 700 426 L 701 427 L 700 428 L 701 427 L 702 428 L 702 429 L 701 430 L 701 431 L 702 432 L 701 433 L 702 433 L 703 434 L 702 435 L 701 435 L 701 436 L 702 435 L 703 436 L 703 439 L 702 440 L 701 439 L 700 440 L 700 441 L 701 442 L 701 446 L 702 447 L 702 449 L 701 450 L 701 451 L 700 452 L 699 452 L 697 454 L 696 453 L 695 454 L 694 454 L 695 455 L 694 456 L 693 456 L 692 455 L 691 456 L 690 456 L 689 457 L 688 457 L 687 456 L 687 455 L 686 455 L 684 453 L 684 450 L 685 449 L 684 448 L 684 446 L 683 445 L 682 445 L 681 444 L 682 443 L 680 443 L 678 445 L 678 448 L 679 449 L 678 450 L 679 451 L 679 452 L 680 452 L 681 453 L 681 454 L 682 453 L 683 454 L 683 455 L 682 456 L 681 456 L 680 457 L 682 459 L 682 460 L 683 461 L 682 462 L 683 463 L 684 463 L 686 465 L 687 465 L 688 466 L 692 462 L 693 462 L 692 461 L 693 460 L 692 459 L 693 458 L 694 458 L 695 459 L 694 458 L 695 457 L 696 457 L 697 456 L 698 457 L 698 458 L 699 457 L 701 457 L 701 456 L 702 455 L 705 455 L 706 454 L 706 453 L 705 452 L 706 451 L 705 450 L 706 449 L 707 449 L 705 447 L 705 446 L 706 445 L 708 445 L 707 444 L 708 443 L 708 442 L 707 441 L 709 439 L 708 438 L 708 432 L 707 432 L 706 431 L 707 430 L 706 429 L 705 430 L 704 429 L 704 428 L 702 428 L 701 427 L 702 426 L 703 426 L 703 425 L 702 425 L 700 423 L 700 422 L 699 421 L 698 422 L 697 421 L 696 421 L 695 420 L 695 421 L 694 422 L 693 421 L 692 421 L 693 422 L 692 423 L 691 423 L 690 422 L 690 421 L 689 420 L 690 419 L 691 419 L 691 417 L 690 417 L 689 416 L 689 415 L 690 414 L 691 414 L 691 413 L 690 414 L 689 413 L 689 414 "></path>
        <path fill="none" stroke="#fa00fa" stroke-width="3" d="M 357 504 L 355 506 L 356 507 L 354 509 L 354 510 L 355 510 L 356 511 L 356 512 L 357 513 L 359 513 L 360 512 L 360 511 L 361 510 L 363 512 L 363 513 L 366 513 L 368 515 L 369 514 L 370 515 L 371 514 L 372 515 L 372 516 L 373 516 L 374 517 L 373 518 L 374 519 L 373 520 L 374 521 L 373 522 L 375 524 L 375 526 L 376 527 L 376 529 L 377 530 L 378 530 L 379 531 L 379 532 L 378 533 L 378 534 L 379 534 L 382 537 L 382 539 L 383 540 L 383 541 L 384 541 L 385 542 L 385 544 L 387 546 L 388 545 L 389 545 L 390 546 L 389 547 L 390 548 L 390 550 L 391 551 L 391 553 L 392 553 L 393 554 L 392 555 L 391 555 L 392 555 L 393 556 L 394 555 L 395 556 L 395 557 L 396 558 L 396 559 L 397 560 L 397 561 L 398 561 L 400 563 L 400 564 L 401 564 L 402 565 L 402 566 L 403 567 L 403 568 L 405 570 L 406 570 L 407 571 L 409 571 L 410 572 L 412 570 L 413 571 L 413 570 L 412 569 L 413 568 L 412 567 L 412 565 L 411 564 L 409 564 L 408 563 L 407 564 L 406 564 L 403 561 L 403 560 L 402 559 L 402 558 L 401 558 L 400 557 L 400 555 L 398 553 L 396 553 L 395 552 L 395 551 L 394 550 L 394 549 L 393 548 L 393 547 L 392 546 L 393 545 L 394 545 L 391 542 L 390 542 L 389 541 L 389 539 L 388 538 L 387 538 L 386 537 L 386 536 L 385 535 L 385 532 L 383 532 L 382 531 L 383 530 L 382 531 L 381 530 L 381 529 L 380 528 L 380 526 L 379 525 L 380 524 L 380 523 L 379 522 L 379 521 L 380 520 L 378 518 L 379 517 L 379 516 L 378 515 L 377 515 L 376 514 L 377 513 L 376 512 L 375 513 L 374 512 L 374 511 L 370 511 L 369 510 L 369 508 L 366 508 L 365 507 L 364 507 L 363 506 L 362 506 L 361 507 L 359 505 L 358 506 L 357 505 L 357 504 L 355 506 "></path>
        <path fill="none" stroke="#fa00fa" stroke-width="3" d="M 618 245 L 616 247 L 617 248 L 617 250 L 618 250 L 620 252 L 620 253 L 619 254 L 620 255 L 622 255 L 623 256 L 622 257 L 623 258 L 624 257 L 626 259 L 626 258 L 627 257 L 628 258 L 629 258 L 630 259 L 630 260 L 632 260 L 633 261 L 634 261 L 635 260 L 636 260 L 638 262 L 638 263 L 639 263 L 640 264 L 640 265 L 643 268 L 642 269 L 644 271 L 645 271 L 647 273 L 648 273 L 649 272 L 650 272 L 652 274 L 653 274 L 654 275 L 655 275 L 656 274 L 657 275 L 658 275 L 659 276 L 658 277 L 658 278 L 659 278 L 660 279 L 660 280 L 662 280 L 664 282 L 665 282 L 666 283 L 667 282 L 668 283 L 668 284 L 670 286 L 672 286 L 673 287 L 674 286 L 675 286 L 676 287 L 677 287 L 678 288 L 678 290 L 679 289 L 680 289 L 682 291 L 684 291 L 684 290 L 685 289 L 686 289 L 686 287 L 685 287 L 684 286 L 684 285 L 683 284 L 681 284 L 680 283 L 677 283 L 676 282 L 675 283 L 673 281 L 672 281 L 671 282 L 670 281 L 670 280 L 668 278 L 667 278 L 666 277 L 666 276 L 665 277 L 663 275 L 664 274 L 662 274 L 661 273 L 659 273 L 658 272 L 658 269 L 657 268 L 656 269 L 655 268 L 654 269 L 653 269 L 652 268 L 651 269 L 650 269 L 649 268 L 649 266 L 648 267 L 647 267 L 646 266 L 647 265 L 646 265 L 645 264 L 644 264 L 643 263 L 644 262 L 645 262 L 643 260 L 643 259 L 641 257 L 641 256 L 637 256 L 636 255 L 635 256 L 633 256 L 631 254 L 631 253 L 630 253 L 629 252 L 626 252 L 624 250 L 623 250 L 622 249 L 622 248 L 623 247 L 622 248 L 621 247 L 621 245 L 620 246 L 619 245 L 618 245 L 616 247 "></path>
        <path fill="none" stroke="#fa00fa" stroke-width="3" d="M 578 564 L 579 564 L 580 565 L 579 566 L 578 566 L 577 567 L 576 567 L 575 568 L 574 568 L 575 569 L 574 570 L 573 570 L 572 569 L 573 570 L 573 571 L 570 574 L 570 575 L 569 576 L 569 577 L 570 578 L 569 579 L 570 578 L 572 580 L 573 580 L 575 578 L 576 579 L 575 578 L 577 576 L 578 577 L 579 576 L 580 576 L 582 578 L 581 579 L 583 577 L 585 579 L 585 580 L 586 579 L 589 582 L 590 582 L 591 583 L 591 584 L 590 585 L 590 586 L 591 586 L 592 587 L 591 588 L 591 592 L 592 592 L 593 593 L 592 594 L 594 594 L 595 595 L 595 596 L 596 596 L 597 597 L 599 597 L 600 598 L 600 599 L 601 600 L 600 601 L 601 600 L 602 601 L 602 604 L 598 608 L 599 609 L 598 610 L 596 610 L 595 611 L 595 612 L 594 613 L 592 613 L 591 614 L 590 614 L 590 617 L 591 617 L 592 618 L 595 618 L 596 617 L 597 617 L 598 616 L 597 615 L 598 614 L 600 614 L 600 613 L 604 609 L 604 608 L 606 606 L 606 602 L 604 602 L 603 601 L 603 600 L 604 599 L 605 600 L 603 598 L 604 597 L 604 596 L 602 594 L 601 595 L 600 594 L 600 592 L 599 592 L 597 590 L 597 589 L 596 589 L 595 588 L 595 587 L 596 586 L 594 584 L 594 581 L 592 579 L 592 578 L 591 579 L 588 576 L 589 575 L 590 575 L 591 574 L 590 575 L 589 574 L 588 575 L 588 576 L 587 577 L 586 576 L 586 575 L 585 574 L 586 573 L 587 573 L 586 572 L 588 570 L 589 571 L 587 569 L 588 568 L 587 568 L 586 567 L 587 566 L 586 565 L 582 565 L 581 564 L 578 564 L 579 564 "></path>
        <path fill="none" stroke="#fa00fa" stroke-width="3" d="M 676 300 L 674 302 L 674 304 L 675 305 L 675 306 L 676 307 L 680 307 L 681 306 L 684 306 L 687 309 L 688 308 L 689 308 L 690 309 L 690 310 L 691 311 L 690 312 L 698 320 L 697 321 L 698 320 L 699 320 L 700 321 L 700 323 L 699 324 L 699 325 L 700 326 L 700 329 L 701 328 L 703 330 L 703 331 L 703 330 L 704 329 L 706 331 L 705 332 L 705 333 L 706 333 L 707 334 L 708 334 L 709 335 L 709 336 L 710 337 L 710 338 L 711 338 L 713 340 L 714 340 L 716 342 L 717 341 L 718 341 L 719 342 L 720 342 L 721 341 L 722 342 L 723 342 L 723 341 L 724 340 L 725 340 L 726 339 L 727 340 L 728 339 L 729 339 L 730 340 L 729 341 L 730 340 L 732 340 L 733 339 L 734 340 L 734 341 L 738 341 L 739 342 L 739 341 L 742 338 L 743 338 L 741 336 L 739 336 L 738 335 L 737 335 L 736 336 L 734 336 L 733 335 L 732 335 L 731 336 L 730 336 L 729 335 L 728 335 L 728 336 L 727 337 L 726 337 L 725 336 L 724 336 L 723 337 L 721 337 L 720 338 L 719 337 L 718 337 L 716 335 L 715 335 L 714 334 L 713 334 L 711 332 L 711 331 L 710 331 L 709 330 L 709 328 L 707 326 L 707 325 L 706 326 L 704 324 L 704 323 L 701 320 L 701 318 L 699 316 L 699 312 L 698 312 L 697 311 L 697 310 L 696 309 L 696 308 L 695 307 L 693 307 L 692 306 L 690 306 L 689 305 L 690 304 L 689 304 L 688 303 L 686 303 L 685 302 L 685 301 L 685 302 L 684 303 L 683 302 L 683 301 L 682 301 L 681 302 L 680 301 L 680 300 L 676 300 L 674 302 "></path>
        <path fill="none" stroke="#fa00fa" stroke-width="3" d="M 317 419 L 316 420 L 316 422 L 317 423 L 315 425 L 314 425 L 312 427 L 311 427 L 311 430 L 307 434 L 307 436 L 306 437 L 307 437 L 308 438 L 308 439 L 309 439 L 310 438 L 311 438 L 311 437 L 312 436 L 313 437 L 313 439 L 314 440 L 315 439 L 316 440 L 316 441 L 318 443 L 318 445 L 320 443 L 321 444 L 323 444 L 322 443 L 322 442 L 323 441 L 324 441 L 325 440 L 326 440 L 327 441 L 328 441 L 328 440 L 329 439 L 329 438 L 330 437 L 331 438 L 332 438 L 332 437 L 331 436 L 332 435 L 332 432 L 331 431 L 332 430 L 333 430 L 332 429 L 332 428 L 331 429 L 330 428 L 330 427 L 331 426 L 330 427 L 329 426 L 329 425 L 328 424 L 327 424 L 325 422 L 324 422 L 323 423 L 322 422 L 322 421 L 321 420 L 318 420 L 317 419 L 316 420 "></path>
        <path fill="none" stroke="#fa00fa" stroke-width="3" d="M 303 372 L 303 373 L 302 374 L 299 374 L 300 375 L 299 376 L 299 377 L 302 380 L 303 380 L 304 379 L 305 380 L 305 381 L 306 381 L 307 382 L 308 382 L 309 383 L 309 382 L 310 381 L 311 382 L 311 383 L 312 382 L 313 383 L 314 382 L 316 384 L 317 384 L 318 383 L 319 384 L 320 383 L 321 383 L 322 382 L 325 382 L 327 380 L 328 381 L 328 382 L 328 381 L 329 380 L 330 381 L 331 381 L 332 382 L 332 383 L 333 383 L 333 382 L 335 380 L 336 380 L 338 382 L 338 383 L 339 383 L 340 382 L 341 383 L 342 382 L 343 382 L 344 381 L 346 381 L 347 380 L 348 381 L 349 380 L 351 380 L 352 379 L 353 380 L 354 380 L 354 379 L 355 378 L 356 378 L 357 377 L 360 377 L 361 378 L 365 378 L 366 377 L 367 378 L 366 377 L 367 376 L 369 376 L 370 377 L 369 378 L 372 381 L 373 380 L 374 381 L 374 382 L 375 381 L 377 381 L 377 380 L 378 379 L 377 378 L 377 377 L 376 378 L 375 377 L 375 376 L 374 375 L 375 374 L 374 373 L 373 373 L 372 374 L 371 373 L 370 373 L 369 372 L 368 372 L 367 373 L 366 372 L 365 372 L 365 373 L 364 374 L 362 372 L 357 372 L 357 373 L 358 374 L 357 375 L 356 375 L 355 374 L 351 374 L 349 376 L 348 376 L 348 377 L 347 378 L 346 378 L 345 379 L 346 380 L 345 381 L 344 381 L 343 380 L 343 378 L 342 378 L 341 377 L 337 377 L 336 376 L 333 376 L 332 377 L 329 377 L 328 378 L 327 378 L 326 377 L 324 377 L 323 378 L 321 378 L 320 377 L 319 378 L 320 379 L 318 381 L 317 380 L 317 378 L 316 377 L 317 378 L 316 379 L 314 379 L 313 378 L 310 378 L 306 374 L 306 373 L 305 372 L 303 372 L 303 373 "></path>
        <path fill="none" stroke="#fa00fa" stroke-width="3" d="M 645 521 L 645 523 L 644 524 L 644 525 L 643 526 L 642 525 L 642 523 L 640 523 L 640 524 L 639 525 L 639 527 L 638 528 L 637 527 L 636 527 L 637 527 L 638 528 L 638 530 L 637 531 L 636 530 L 636 529 L 636 530 L 635 531 L 635 532 L 636 533 L 635 534 L 635 539 L 636 540 L 635 541 L 635 544 L 636 545 L 636 546 L 637 547 L 638 547 L 639 548 L 640 547 L 641 548 L 641 547 L 642 546 L 642 544 L 643 543 L 644 543 L 643 542 L 644 541 L 643 540 L 645 538 L 646 538 L 647 539 L 646 540 L 647 540 L 647 539 L 648 538 L 650 540 L 650 541 L 651 540 L 652 541 L 652 542 L 653 541 L 655 541 L 657 543 L 658 542 L 658 541 L 659 540 L 661 540 L 660 539 L 660 538 L 659 537 L 660 536 L 659 535 L 657 535 L 656 536 L 655 535 L 655 533 L 654 533 L 653 532 L 654 531 L 652 531 L 651 530 L 652 529 L 653 529 L 653 528 L 651 528 L 650 527 L 652 525 L 653 526 L 651 524 L 650 525 L 648 523 L 648 521 L 647 522 L 646 521 L 645 521 L 645 523 "></path>
        <path fill="none" stroke="#fa00fa" stroke-width="3" d="M 667 561 L 666 562 L 662 562 L 662 564 L 660 566 L 658 566 L 658 567 L 657 568 L 656 568 L 656 569 L 655 570 L 651 570 L 650 569 L 648 571 L 647 571 L 647 573 L 648 574 L 646 576 L 649 579 L 649 581 L 650 582 L 649 583 L 652 586 L 652 587 L 653 588 L 656 588 L 657 589 L 656 590 L 657 591 L 658 590 L 660 592 L 659 593 L 660 592 L 661 592 L 662 593 L 663 592 L 664 592 L 665 593 L 665 592 L 666 591 L 667 591 L 669 593 L 670 593 L 671 594 L 672 594 L 674 592 L 675 592 L 675 591 L 674 590 L 674 588 L 670 588 L 669 589 L 668 588 L 667 589 L 666 588 L 665 589 L 664 588 L 664 587 L 663 588 L 662 588 L 661 589 L 660 588 L 660 587 L 659 588 L 658 587 L 657 588 L 656 587 L 656 583 L 655 583 L 653 581 L 652 581 L 651 580 L 652 579 L 652 578 L 651 577 L 652 576 L 652 575 L 653 574 L 652 573 L 653 572 L 655 572 L 655 571 L 656 570 L 657 571 L 658 571 L 658 569 L 659 568 L 660 569 L 661 569 L 662 570 L 663 569 L 666 569 L 668 567 L 668 566 L 669 565 L 670 566 L 671 565 L 672 566 L 672 568 L 674 568 L 675 569 L 674 570 L 673 570 L 674 570 L 675 569 L 676 569 L 678 571 L 678 572 L 679 573 L 683 573 L 683 572 L 682 572 L 681 571 L 680 571 L 678 569 L 679 568 L 677 570 L 675 568 L 676 567 L 677 567 L 676 567 L 674 565 L 675 564 L 674 564 L 673 563 L 673 562 L 672 561 L 671 562 L 670 561 L 669 561 L 668 562 L 667 561 L 666 562 "></path>
        <path fill="none" stroke="#fa00fa" stroke-width="3" d="M 412 245 L 413 246 L 412 247 L 411 247 L 410 246 L 410 247 L 411 248 L 407 252 L 406 251 L 406 252 L 405 253 L 404 253 L 404 254 L 402 256 L 402 259 L 400 261 L 399 261 L 398 262 L 397 262 L 396 263 L 395 263 L 393 265 L 392 265 L 391 266 L 389 266 L 388 267 L 388 268 L 387 269 L 385 267 L 384 267 L 384 268 L 385 269 L 383 271 L 382 270 L 381 271 L 381 272 L 382 273 L 381 274 L 380 274 L 379 273 L 379 274 L 378 275 L 378 277 L 377 278 L 376 277 L 375 278 L 375 279 L 374 280 L 374 284 L 372 286 L 372 287 L 374 289 L 374 287 L 375 286 L 376 287 L 376 286 L 377 285 L 378 285 L 379 284 L 379 283 L 378 282 L 379 281 L 381 281 L 381 280 L 380 279 L 381 278 L 380 277 L 381 276 L 382 276 L 383 275 L 384 276 L 383 275 L 384 274 L 386 274 L 386 273 L 387 272 L 388 272 L 390 270 L 391 271 L 392 271 L 393 272 L 395 270 L 398 270 L 399 269 L 398 268 L 398 267 L 399 266 L 400 267 L 402 265 L 403 265 L 402 264 L 404 262 L 403 261 L 405 259 L 406 260 L 406 259 L 405 258 L 406 257 L 405 256 L 407 254 L 408 254 L 409 253 L 410 254 L 410 255 L 411 254 L 412 254 L 414 252 L 415 252 L 415 248 L 416 247 L 414 245 L 412 245 L 413 246 "></path>
        <path fill="none" stroke="#fa00fa" stroke-width="3" d="M 414 203 L 414 206 L 413 207 L 415 209 L 416 208 L 417 209 L 418 209 L 419 210 L 420 210 L 421 209 L 423 211 L 423 212 L 425 212 L 426 213 L 428 211 L 429 211 L 430 212 L 430 214 L 431 215 L 430 216 L 431 217 L 431 216 L 432 215 L 433 215 L 434 216 L 435 215 L 436 215 L 437 216 L 438 216 L 439 217 L 439 218 L 440 219 L 440 220 L 443 220 L 445 222 L 446 222 L 448 224 L 450 224 L 450 223 L 451 222 L 452 222 L 454 224 L 455 223 L 457 225 L 458 225 L 459 224 L 460 225 L 461 224 L 462 224 L 463 225 L 464 224 L 465 224 L 466 225 L 467 225 L 469 223 L 468 222 L 469 221 L 470 221 L 470 220 L 469 221 L 466 218 L 464 220 L 463 220 L 462 221 L 461 220 L 461 219 L 460 220 L 459 220 L 458 221 L 456 221 L 455 220 L 454 220 L 453 219 L 452 219 L 451 218 L 450 218 L 449 217 L 448 218 L 447 217 L 446 218 L 445 217 L 445 215 L 442 215 L 440 213 L 441 212 L 439 214 L 438 213 L 438 212 L 437 212 L 436 211 L 435 212 L 434 211 L 434 210 L 433 210 L 431 208 L 429 208 L 431 210 L 430 211 L 429 211 L 426 208 L 427 207 L 423 207 L 422 206 L 421 207 L 420 206 L 419 206 L 418 205 L 419 204 L 418 203 L 416 203 L 415 204 L 414 203 L 414 206 "></path>
        <path fill="none" stroke="#fa00fa" stroke-width="3" d="M 684 251 L 684 253 L 686 253 L 687 254 L 686 255 L 684 255 L 684 256 L 685 257 L 685 259 L 685 258 L 686 257 L 687 258 L 687 260 L 686 261 L 686 263 L 685 264 L 684 263 L 684 261 L 684 263 L 683 264 L 682 264 L 682 265 L 681 266 L 683 268 L 683 269 L 684 269 L 685 270 L 686 269 L 687 270 L 687 271 L 689 273 L 690 273 L 691 274 L 692 274 L 693 275 L 695 275 L 696 276 L 696 278 L 697 278 L 698 279 L 697 280 L 698 280 L 699 279 L 700 279 L 701 278 L 701 275 L 700 274 L 700 273 L 699 272 L 699 271 L 697 269 L 696 269 L 695 268 L 694 269 L 692 267 L 692 266 L 691 265 L 691 263 L 690 263 L 689 262 L 690 261 L 690 260 L 689 260 L 688 259 L 689 258 L 690 258 L 690 253 L 689 254 L 687 252 L 687 251 L 687 252 L 686 253 L 685 252 L 685 251 L 684 251 L 684 253 "></path>
        <path fill="none" stroke="#fa00fa" stroke-width="3" d="M 639 220 L 637 222 L 636 221 L 635 222 L 635 223 L 634 224 L 634 226 L 635 227 L 636 227 L 636 226 L 637 225 L 639 227 L 640 227 L 640 226 L 641 225 L 643 227 L 644 226 L 645 227 L 646 226 L 647 227 L 648 226 L 649 227 L 649 228 L 650 229 L 650 230 L 651 230 L 652 231 L 651 232 L 651 233 L 650 234 L 650 236 L 652 236 L 653 237 L 652 238 L 653 237 L 654 237 L 657 234 L 656 233 L 656 232 L 655 231 L 655 230 L 653 228 L 652 228 L 651 227 L 652 226 L 653 226 L 654 225 L 654 224 L 653 223 L 653 222 L 652 222 L 651 221 L 652 220 L 650 220 L 649 221 L 647 221 L 645 223 L 644 222 L 644 221 L 640 221 L 639 220 L 637 222 "></path>
        <path fill="none" stroke="#fa00fa" stroke-width="3" d="M 372 290 L 373 291 L 372 292 L 372 297 L 373 298 L 373 299 L 374 300 L 373 301 L 374 302 L 374 303 L 375 303 L 376 304 L 376 306 L 377 305 L 378 305 L 379 304 L 379 298 L 377 296 L 377 295 L 378 294 L 378 293 L 377 293 L 376 292 L 374 292 L 372 290 L 373 291 "></path>
        <path fill="none" stroke="#fa00fa" stroke-width="3" d="M 645 187 L 642 190 L 645 193 L 644 194 L 645 195 L 643 197 L 644 198 L 643 199 L 644 200 L 644 201 L 646 201 L 648 199 L 647 198 L 647 197 L 648 196 L 648 194 L 649 193 L 648 192 L 648 190 L 649 189 L 648 190 L 647 189 L 647 188 L 646 189 L 645 188 L 645 187 L 642 190 "></path>
        <path fill="none" stroke="#fa00fa" stroke-width="3" d="M 324 532 L 325 533 L 324 534 L 323 534 L 323 535 L 322 536 L 322 537 L 323 537 L 324 536 L 325 537 L 325 539 L 327 541 L 329 541 L 331 543 L 328 540 L 329 539 L 331 539 L 334 542 L 333 543 L 333 545 L 334 545 L 335 544 L 336 545 L 337 545 L 338 544 L 338 542 L 335 539 L 334 539 L 333 538 L 333 539 L 332 540 L 331 539 L 331 538 L 330 539 L 328 539 L 327 538 L 327 537 L 328 536 L 327 535 L 327 533 L 325 533 L 324 532 L 325 533 "></path>
        <path fill="none" stroke="#fa00fa" stroke-width="3" d="M 303 300 L 302 301 L 301 301 L 298 304 L 298 305 L 299 306 L 299 307 L 303 307 L 303 306 L 304 305 L 305 306 L 306 306 L 307 305 L 308 305 L 308 302 L 307 301 L 307 300 L 303 300 L 302 301 "></path>
        <path fill="none" stroke="#fa00fa" stroke-width="3" d="M 495 162 L 494 163 L 493 163 L 493 164 L 492 165 L 493 166 L 492 167 L 494 169 L 494 170 L 493 171 L 493 172 L 495 174 L 495 177 L 496 176 L 497 176 L 497 175 L 498 174 L 498 173 L 499 172 L 498 171 L 498 170 L 497 169 L 497 168 L 498 167 L 497 167 L 496 166 L 497 165 L 498 165 L 496 165 L 495 164 L 495 162 L 494 163 "></path>
        <path fill="none" stroke="#fa00fa" stroke-width="3" d="M 388 132 L 386 134 L 385 134 L 384 135 L 384 136 L 387 139 L 387 138 L 388 137 L 389 137 L 390 138 L 389 137 L 390 136 L 391 136 L 392 137 L 394 137 L 394 136 L 395 135 L 396 135 L 397 134 L 397 133 L 396 132 L 394 132 L 394 133 L 392 135 L 391 135 L 389 133 L 389 132 L 388 132 L 386 134 "></path>
        <path fill="none" stroke="#fa00fa" stroke-width="3" d="M 275 321 L 276 322 L 274 324 L 275 325 L 275 327 L 278 330 L 279 329 L 280 329 L 280 328 L 281 327 L 281 326 L 282 325 L 281 324 L 281 322 L 276 322 L 275 321 L 276 322 "></path>
        <path fill="none" stroke="#fa00fa" stroke-width="3" d="M 765 534 L 765 535 L 764 536 L 763 536 L 764 537 L 764 539 L 766 541 L 767 541 L 768 542 L 769 541 L 771 541 L 771 540 L 770 539 L 771 538 L 771 536 L 770 535 L 766 535 L 765 534 L 765 535 "></path>
        <path fill="none" stroke="#fa00fa" stroke-width="3" d="M 535 157 L 533 159 L 532 159 L 532 162 L 533 163 L 533 165 L 535 165 L 537 163 L 537 162 L 538 161 L 539 162 L 539 157 L 537 157 L 536 158 L 535 157 L 533 159 "></path>
        <path fill="none" stroke="#fa00fa" stroke-width="3" d="M 754 590 L 753 591 L 752 591 L 750 593 L 750 594 L 751 595 L 751 596 L 750 597 L 751 597 L 752 598 L 754 598 L 757 595 L 756 594 L 756 593 L 757 592 L 757 591 L 756 590 L 755 591 L 754 590 L 753 591 "></path>
        <path fill="none" stroke="#fa00fa" stroke-width="3" d="M 280 377 L 280 379 L 279 380 L 278 380 L 278 381 L 277 382 L 277 384 L 278 384 L 279 385 L 281 385 L 282 384 L 283 384 L 284 383 L 285 384 L 285 382 L 283 380 L 284 379 L 283 378 L 281 378 L 280 377 L 280 379 "></path>
        <path fill="none" stroke="#fa00fa" stroke-width="3" d="M 329 212 L 327 214 L 327 215 L 326 216 L 327 217 L 329 217 L 331 219 L 333 219 L 334 218 L 334 217 L 335 216 L 335 215 L 334 215 L 332 213 L 331 213 L 330 212 L 329 212 L 327 214 "></path>
        <path fill="none" stroke="#fa00fa" stroke-width="3" d="M 759 317 L 760 318 L 758 320 L 757 319 L 757 321 L 756 322 L 758 324 L 759 323 L 763 323 L 764 322 L 764 321 L 765 320 L 764 319 L 765 318 L 764 319 L 763 318 L 763 317 L 759 317 L 760 318 "></path>
        <path fill="none" stroke="#fa00fa" stroke-width="3" d="M 749 379 L 748 380 L 748 381 L 747 382 L 748 383 L 747 384 L 748 384 L 749 385 L 754 385 L 756 383 L 755 382 L 754 382 L 753 381 L 754 380 L 752 380 L 751 379 L 749 379 L 748 380 "></path>
        <path fill="none" stroke="#fa00fa" stroke-width="3" d="M 272 485 L 271 486 L 272 487 L 270 489 L 270 490 L 271 491 L 272 491 L 273 492 L 273 493 L 274 493 L 275 494 L 276 493 L 277 493 L 277 489 L 275 489 L 274 488 L 275 487 L 276 487 L 275 486 L 274 486 L 273 485 L 272 485 L 271 486 "></path>
        <path fill="none" stroke="#fa00fa" stroke-width="3" d="M 491 648 L 491 649 L 490 650 L 489 650 L 490 651 L 489 652 L 489 653 L 490 652 L 491 653 L 491 655 L 492 655 L 493 656 L 494 656 L 495 655 L 495 653 L 496 652 L 496 650 L 495 650 L 494 649 L 494 648 L 491 648 L 491 649 "></path>
        <path fill="none" stroke="#fa00fa" stroke-width="3" d="M 655 101 L 654 102 L 653 102 L 654 103 L 653 104 L 652 104 L 653 105 L 652 106 L 653 107 L 654 106 L 655 107 L 655 109 L 656 108 L 657 108 L 658 109 L 657 108 L 659 106 L 660 107 L 659 106 L 659 105 L 658 105 L 657 104 L 658 103 L 658 102 L 656 102 L 655 101 L 654 102 "></path>
        <path fill="none" stroke="#fa00fa" stroke-width="3" d="M 389 649 L 389 650 L 388 651 L 387 650 L 385 652 L 386 653 L 386 654 L 387 654 L 388 655 L 388 656 L 389 655 L 390 656 L 392 654 L 392 653 L 391 652 L 391 651 L 389 649 L 389 650 "></path>
        <path fill="none" stroke="#fa00fa" stroke-width="3" d="M 709 595 L 709 596 L 708 597 L 708 598 L 709 599 L 708 600 L 709 601 L 710 601 L 711 600 L 713 600 L 714 599 L 715 599 L 714 599 L 713 598 L 714 597 L 714 596 L 713 595 L 712 596 L 711 595 L 709 595 L 709 596 "></path>
        <path fill="none" stroke="#fa00fa" stroke-width="3" d="M 271 157 L 269 159 L 268 158 L 268 161 L 269 162 L 270 162 L 271 163 L 272 162 L 273 162 L 273 160 L 274 159 L 275 160 L 275 159 L 274 159 L 272 157 L 271 157 L 269 159 "></path>
        <path fill="none" stroke="#fa00fa" stroke-width="3" d="M 763 264 L 762 265 L 762 266 L 761 267 L 761 269 L 760 270 L 761 270 L 763 272 L 763 271 L 764 270 L 765 271 L 765 270 L 766 269 L 766 268 L 765 268 L 764 267 L 764 265 L 763 264 L 762 265 "></path>
        <path fill="none" stroke="#fa00fa" stroke-width="3" d="M 554 706 L 553 707 L 552 707 L 551 708 L 551 711 L 552 711 L 553 712 L 553 713 L 554 713 L 555 712 L 555 710 L 556 709 L 555 708 L 555 707 L 554 706 L 553 707 "></path>
        <path fill="none" stroke="#fa00fa" stroke-width="3" d="M 767 212 L 767 213 L 766 214 L 766 216 L 767 216 L 768 217 L 771 217 L 771 214 L 770 213 L 770 212 L 767 212 L 767 213 "></path>
        <path fill="none" stroke="#fa00fa" stroke-width="3" d="M 680 575 L 678 577 L 679 578 L 679 579 L 680 580 L 681 580 L 682 579 L 683 579 L 684 578 L 684 577 L 683 577 L 682 576 L 683 575 L 682 575 L 681 576 L 680 575 L 678 577 "></path>
        <path fill="none" stroke="#fa00fa" stroke-width="3" d="M 716 113 L 715 114 L 715 118 L 716 117 L 717 118 L 717 119 L 718 118 L 719 119 L 719 118 L 718 117 L 719 116 L 718 115 L 718 114 L 717 114 L 716 113 L 715 114 "></path>
    </g>
</svg>
