<svg xmlns="http://www.w3.org/2000/svg" xmlns:xlink="http://www.w3.org/1999/xlink" version="1.1" x="0" y="0" width="1056px" height="816px">
    <g id="rootLayer" transform="translate(0.000000, 0.000000)">
        <path fill="none" stroke="#00fafa" stroke-width="3" d="M 537 364 L 538 363 L 539 364 L 539 365 L 540 366 L 539 367 L 540 368 L 540 369 L 543 372 L 543 373 L 540 376 L 540 377 L 538 379 L 538 381 L 537 382 L 536 382 L 535 381 L 536 380 L 536 379 L 535 378 L 535 376 L 534 376 L 532 374 L 528 374 L 527 375 L 526 375 L 524 377 L 524 378 L 523 379 L 523 380 L 524 381 L 524 382 L 526 384 L 526 385 L 528 387 L 528 388 L 526 390 L 526 391 L 524 393 L 523 393 L 524 393 L 525 394 L 525 396 L 524 397 L 523 396 L 523 395 L 522 395 L 520 393 L 520 391 L 519 390 L 516 390 L 515 389 L 513 389 L 511 391 L 510 390 L 509 391 L 509 392 L 508 393 L 508 394 L 509 395 L 509 397 L 510 398 L 510 399 L 511 400 L 512 400 L 514 402 L 515 402 L 516 403 L 514 405 L 512 405 L 509 408 L 508 407 L 508 408 L 507 409 L 506 409 L 505 408 L 506 407 L 505 407 L 504 408 L 503 407 L 503 406 L 502 405 L 501 405 L 500 404 L 499 404 L 498 405 L 496 405 L 495 406 L 495 408 L 494 409 L 494 410 L 493 411 L 494 411 L 496 413 L 495 414 L 496 415 L 495 416 L 496 415 L 497 415 L 498 416 L 498 417 L 497 418 L 496 418 L 495 419 L 494 419 L 495 420 L 494 421 L 494 422 L 493 423 L 494 424 L 493 425 L 495 427 L 495 428 L 496 429 L 497 429 L 498 430 L 499 430 L 500 431 L 502 431 L 504 429 L 505 429 L 505 428 L 506 427 L 506 424 L 503 421 L 502 421 L 501 420 L 501 419 L 500 418 L 501 417 L 501 416 L 502 415 L 503 416 L 504 415 L 505 415 L 505 414 L 507 412 L 508 413 L 509 412 L 510 413 L 510 414 L 511 414 L 512 415 L 512 416 L 513 416 L 514 417 L 510 421 L 510 422 L 508 424 L 509 424 L 510 425 L 510 429 L 511 429 L 512 430 L 513 429 L 515 431 L 516 430 L 517 431 L 518 430 L 519 430 L 519 429 L 520 428 L 520 426 L 521 425 L 520 424 L 521 423 L 520 422 L 520 421 L 516 417 L 518 415 L 519 415 L 520 414 L 520 413 L 521 412 L 521 411 L 523 409 L 524 410 L 524 412 L 525 413 L 525 414 L 526 414 L 530 418 L 528 420 L 527 420 L 527 421 L 525 423 L 525 424 L 524 425 L 525 426 L 525 428 L 528 431 L 529 430 L 530 431 L 532 431 L 535 428 L 535 426 L 536 425 L 535 424 L 536 423 L 537 423 L 536 422 L 536 421 L 535 420 L 534 421 L 532 419 L 531 419 L 530 418 L 530 416 L 531 415 L 533 415 L 533 414 L 534 413 L 535 413 L 536 412 L 536 411 L 535 410 L 535 406 L 534 406 L 533 405 L 533 404 L 532 403 L 532 401 L 536 397 L 536 395 L 537 394 L 539 396 L 539 398 L 540 398 L 542 400 L 543 400 L 544 401 L 545 401 L 546 400 L 547 400 L 548 401 L 550 399 L 551 399 L 551 398 L 552 397 L 552 394 L 549 391 L 549 390 L 548 390 L 547 391 L 545 389 L 542 389 L 539 392 L 538 391 L 539 392 L 537 394 L 536 393 L 536 391 L 535 392 L 533 390 L 533 389 L 531 387 L 534 384 L 535 385 L 534 384 L 536 382 L 538 382 L 541 385 L 541 386 L 546 386 L 547 385 L 548 385 L 549 384 L 549 383 L 550 382 L 552 382 L 553 381 L 554 382 L 554 383 L 556 385 L 559 385 L 560 386 L 561 386 L 562 385 L 563 385 L 564 384 L 566 384 L 567 383 L 569 383 L 572 386 L 573 386 L 575 388 L 574 389 L 573 389 L 570 392 L 570 393 L 569 394 L 570 395 L 570 396 L 569 397 L 570 397 L 571 398 L 571 399 L 575 403 L 574 404 L 572 404 L 570 406 L 570 407 L 569 408 L 569 412 L 570 413 L 570 414 L 572 416 L 573 416 L 574 415 L 575 415 L 576 416 L 575 417 L 575 418 L 574 419 L 572 419 L 572 420 L 571 421 L 569 421 L 570 422 L 569 423 L 569 424 L 568 425 L 565 422 L 566 421 L 565 420 L 564 420 L 562 418 L 562 417 L 561 416 L 563 414 L 564 414 L 565 413 L 565 412 L 567 410 L 567 408 L 566 409 L 565 408 L 565 407 L 564 407 L 563 406 L 562 406 L 561 405 L 561 404 L 560 403 L 560 402 L 562 400 L 563 400 L 564 399 L 565 399 L 564 398 L 566 396 L 566 394 L 564 392 L 564 391 L 563 390 L 562 390 L 561 389 L 560 390 L 557 390 L 556 391 L 556 392 L 554 394 L 554 395 L 555 396 L 554 397 L 555 398 L 555 399 L 557 401 L 559 401 L 560 402 L 560 403 L 555 408 L 555 409 L 554 410 L 554 411 L 557 414 L 556 415 L 557 415 L 558 416 L 560 416 L 561 417 L 561 418 L 560 419 L 559 418 L 557 420 L 556 420 L 556 421 L 555 422 L 556 423 L 555 424 L 555 426 L 556 427 L 556 430 L 557 431 L 558 431 L 559 432 L 554 437 L 555 438 L 554 439 L 554 443 L 555 444 L 555 445 L 556 446 L 557 446 L 558 447 L 559 447 L 560 448 L 559 449 L 557 449 L 556 450 L 556 453 L 554 455 L 555 456 L 555 458 L 557 460 L 558 460 L 559 461 L 559 463 L 558 464 L 557 463 L 555 465 L 555 467 L 554 468 L 553 467 L 550 467 L 548 465 L 548 464 L 547 464 L 545 462 L 546 461 L 547 461 L 548 460 L 549 460 L 549 459 L 551 457 L 550 456 L 551 455 L 551 452 L 550 451 L 550 450 L 549 450 L 547 448 L 546 449 L 544 449 L 543 448 L 543 447 L 544 446 L 545 447 L 544 446 L 545 445 L 549 445 L 552 442 L 551 441 L 552 440 L 552 439 L 551 440 L 549 438 L 549 436 L 548 435 L 546 435 L 545 434 L 543 434 L 540 437 L 540 438 L 539 439 L 540 440 L 539 441 L 540 442 L 540 443 L 542 445 L 542 446 L 543 447 L 543 449 L 541 451 L 540 451 L 540 452 L 538 454 L 538 455 L 539 456 L 538 457 L 537 457 L 536 456 L 536 454 L 531 449 L 532 448 L 531 449 L 530 449 L 528 451 L 525 451 L 526 452 L 525 453 L 524 453 L 524 454 L 525 455 L 525 457 L 526 458 L 527 458 L 528 459 L 529 459 L 531 461 L 532 460 L 533 461 L 534 460 L 535 460 L 535 459 L 537 457 L 539 457 L 540 458 L 540 459 L 542 459 L 543 460 L 544 460 L 545 461 L 545 462 L 543 464 L 542 463 L 539 466 L 540 467 L 539 468 L 539 471 L 544 476 L 542 478 L 542 479 L 540 481 L 540 483 L 539 484 L 537 484 L 536 483 L 536 482 L 535 481 L 534 481 L 532 479 L 532 477 L 534 475 L 534 474 L 535 473 L 535 469 L 533 467 L 533 465 L 532 464 L 531 464 L 530 463 L 527 466 L 526 465 L 526 466 L 525 467 L 525 468 L 524 469 L 523 469 L 521 467 L 521 466 L 520 466 L 519 465 L 517 465 L 516 464 L 516 463 L 515 462 L 518 459 L 519 460 L 520 459 L 520 457 L 521 456 L 521 453 L 520 452 L 520 451 L 519 450 L 518 450 L 517 451 L 516 450 L 516 449 L 515 450 L 512 450 L 512 451 L 510 453 L 509 452 L 508 453 L 506 451 L 505 452 L 504 451 L 504 450 L 503 449 L 502 449 L 501 450 L 500 449 L 499 450 L 498 449 L 497 450 L 496 450 L 496 451 L 494 453 L 494 457 L 495 457 L 496 458 L 495 459 L 498 462 L 498 463 L 495 466 L 495 468 L 494 469 L 492 469 L 490 467 L 490 466 L 487 463 L 487 460 L 488 459 L 489 459 L 489 458 L 490 457 L 490 454 L 489 453 L 489 451 L 488 451 L 487 450 L 488 449 L 487 450 L 486 449 L 483 449 L 482 450 L 481 450 L 480 451 L 480 452 L 478 454 L 477 453 L 476 454 L 475 453 L 475 452 L 474 451 L 473 451 L 472 450 L 471 451 L 470 450 L 467 450 L 466 451 L 464 451 L 462 453 L 460 451 L 460 450 L 458 450 L 457 449 L 455 449 L 454 448 L 455 447 L 456 447 L 456 446 L 457 445 L 458 446 L 457 445 L 458 444 L 459 444 L 460 443 L 460 442 L 461 441 L 460 440 L 460 438 L 461 437 L 460 436 L 460 435 L 459 434 L 458 434 L 456 432 L 457 431 L 458 431 L 457 430 L 458 429 L 459 429 L 459 427 L 460 426 L 461 426 L 461 424 L 460 423 L 461 422 L 460 422 L 459 421 L 459 420 L 457 420 L 456 419 L 456 418 L 457 417 L 456 416 L 459 413 L 460 413 L 461 412 L 462 412 L 461 411 L 461 410 L 462 409 L 464 411 L 464 413 L 465 413 L 466 414 L 467 414 L 468 415 L 468 416 L 469 416 L 470 415 L 471 415 L 472 414 L 474 416 L 474 415 L 477 412 L 479 412 L 481 414 L 481 415 L 482 416 L 484 416 L 485 417 L 481 421 L 480 421 L 478 423 L 478 424 L 479 425 L 478 426 L 478 427 L 479 427 L 480 428 L 480 429 L 481 430 L 482 430 L 483 431 L 483 432 L 485 434 L 483 436 L 482 435 L 481 436 L 481 437 L 480 438 L 479 438 L 478 439 L 477 439 L 475 437 L 475 436 L 474 435 L 473 435 L 472 434 L 471 435 L 470 435 L 469 434 L 468 435 L 468 436 L 467 437 L 466 436 L 466 437 L 465 438 L 464 438 L 464 440 L 465 441 L 464 442 L 465 443 L 465 444 L 466 444 L 467 445 L 471 445 L 473 443 L 474 444 L 474 443 L 475 442 L 475 441 L 477 439 L 478 439 L 479 440 L 478 441 L 482 445 L 483 445 L 484 446 L 487 446 L 489 444 L 490 444 L 491 443 L 492 443 L 492 442 L 493 441 L 497 445 L 498 445 L 500 447 L 501 446 L 503 446 L 503 444 L 505 442 L 507 442 L 506 441 L 506 440 L 507 439 L 505 437 L 505 436 L 503 436 L 502 435 L 501 435 L 500 434 L 498 434 L 496 436 L 496 437 L 495 438 L 495 439 L 493 441 L 492 441 L 491 440 L 492 439 L 492 438 L 491 438 L 489 436 L 488 436 L 487 435 L 488 434 L 487 434 L 486 433 L 486 432 L 488 430 L 489 430 L 489 429 L 490 428 L 490 427 L 491 426 L 490 425 L 490 422 L 489 422 L 488 421 L 488 420 L 487 420 L 486 419 L 486 418 L 489 415 L 489 414 L 490 413 L 491 413 L 490 412 L 491 411 L 490 410 L 490 408 L 489 407 L 489 406 L 487 404 L 485 404 L 484 403 L 484 402 L 483 403 L 483 404 L 482 405 L 482 406 L 481 407 L 480 407 L 478 409 L 476 407 L 475 407 L 474 406 L 475 405 L 474 406 L 469 401 L 470 400 L 473 400 L 473 399 L 475 397 L 475 395 L 476 394 L 474 392 L 473 392 L 472 391 L 472 390 L 471 389 L 472 388 L 471 387 L 473 385 L 474 386 L 475 385 L 476 385 L 477 384 L 479 386 L 480 386 L 481 387 L 482 387 L 483 388 L 482 389 L 483 390 L 478 395 L 478 396 L 479 396 L 480 397 L 480 398 L 481 399 L 482 399 L 483 400 L 485 400 L 486 399 L 487 400 L 490 397 L 491 397 L 492 396 L 492 393 L 491 393 L 490 392 L 490 391 L 489 390 L 488 390 L 487 389 L 487 388 L 486 389 L 485 388 L 485 387 L 486 386 L 487 386 L 488 385 L 489 385 L 489 384 L 492 381 L 493 381 L 496 384 L 496 385 L 499 385 L 500 386 L 501 385 L 502 385 L 503 386 L 505 384 L 506 384 L 508 382 L 510 382 L 511 383 L 510 384 L 511 385 L 513 385 L 514 386 L 514 387 L 515 386 L 516 387 L 517 386 L 517 385 L 521 381 L 520 380 L 521 379 L 520 378 L 520 377 L 519 376 L 519 375 L 518 375 L 516 373 L 516 372 L 518 370 L 519 370 L 520 369 L 520 368 L 521 367 L 523 367 L 524 368 L 525 368 L 526 369 L 526 370 L 527 371 L 528 370 L 530 372 L 531 371 L 531 370 L 532 369 L 535 369 L 536 368 L 536 366 L 537 365 "></path>
        <path fill="none" stroke="#00fafa" stroke-width="3" d="M 537 484 L 538 485 L 539 484 L 540 485 L 540 486 L 541 487 L 541 489 L 543 491 L 546 491 L 547 490 L 548 490 L 550 488 L 551 488 L 552 487 L 553 487 L 556 490 L 558 490 L 559 491 L 562 491 L 563 492 L 563 491 L 564 490 L 565 490 L 566 489 L 565 488 L 567 486 L 568 487 L 569 487 L 571 489 L 571 490 L 572 489 L 574 491 L 574 493 L 571 496 L 570 496 L 569 497 L 568 497 L 569 497 L 570 498 L 569 499 L 568 499 L 569 500 L 569 502 L 570 502 L 573 505 L 573 506 L 574 505 L 575 505 L 576 506 L 575 507 L 576 506 L 576 505 L 577 504 L 578 505 L 581 502 L 581 501 L 582 500 L 585 503 L 585 504 L 586 505 L 588 505 L 590 507 L 590 508 L 588 510 L 587 510 L 587 511 L 584 514 L 584 515 L 585 516 L 585 517 L 586 518 L 586 519 L 588 521 L 588 524 L 587 525 L 586 525 L 586 526 L 584 528 L 583 527 L 581 527 L 580 526 L 580 525 L 579 524 L 578 524 L 577 523 L 577 522 L 576 521 L 577 520 L 578 520 L 580 518 L 579 517 L 580 516 L 579 515 L 580 514 L 580 513 L 579 513 L 578 512 L 579 511 L 578 511 L 576 509 L 575 510 L 573 510 L 572 511 L 571 511 L 569 513 L 568 513 L 567 514 L 566 513 L 566 512 L 565 512 L 564 511 L 564 510 L 563 510 L 562 511 L 560 509 L 561 508 L 561 507 L 563 505 L 563 504 L 564 503 L 565 503 L 564 502 L 565 501 L 566 501 L 566 500 L 565 500 L 564 499 L 565 498 L 566 498 L 565 498 L 564 497 L 565 496 L 564 496 L 563 495 L 563 494 L 562 495 L 560 493 L 558 493 L 556 495 L 556 496 L 554 498 L 554 500 L 553 501 L 552 500 L 552 499 L 551 498 L 551 497 L 550 496 L 549 496 L 547 494 L 547 493 L 545 495 L 544 494 L 542 496 L 541 496 L 540 497 L 539 497 L 539 498 L 538 499 L 537 499 L 533 495 L 532 495 L 531 494 L 531 493 L 529 491 L 530 490 L 531 490 L 532 489 L 534 489 L 535 488 L 535 486 "></path>
        <path fill="none" stroke="#00fafa" stroke-width="3" d="M 464 456 L 465 457 L 465 458 L 466 459 L 470 459 L 471 460 L 470 461 L 471 460 L 473 460 L 476 457 L 478 457 L 480 459 L 480 460 L 481 459 L 482 460 L 482 461 L 483 462 L 482 463 L 483 464 L 483 465 L 480 468 L 480 469 L 479 470 L 476 470 L 475 469 L 475 468 L 473 466 L 473 465 L 472 465 L 471 464 L 470 464 L 469 465 L 468 464 L 467 465 L 466 465 L 463 468 L 462 468 L 460 466 L 459 466 L 458 465 L 457 465 L 456 464 L 454 464 L 453 463 L 454 462 L 455 462 L 456 461 L 457 461 L 458 460 L 459 460 L 459 459 L 460 458 L 462 458 "></path>
        <path fill="none" stroke="#00fafa" stroke-width="3" d="M 491 352 L 492 351 L 493 351 L 495 353 L 494 354 L 495 354 L 496 355 L 497 355 L 498 356 L 498 357 L 499 358 L 498 359 L 497 359 L 496 360 L 496 362 L 495 363 L 495 369 L 496 369 L 498 371 L 498 373 L 497 374 L 496 374 L 496 375 L 495 376 L 494 376 L 494 377 L 492 379 L 491 378 L 491 377 L 490 377 L 489 376 L 489 375 L 488 375 L 487 374 L 487 373 L 485 371 L 486 370 L 489 370 L 490 369 L 490 368 L 491 367 L 491 365 L 492 364 L 491 364 L 490 363 L 491 362 L 490 361 L 488 361 L 487 360 L 487 357 L 488 356 L 489 356 L 489 355 L 491 353 L 492 353 "></path>
        <path fill="none" stroke="#00fafa" stroke-width="3" d="M 476 366 L 477 365 L 478 365 L 480 367 L 480 368 L 481 369 L 481 370 L 482 369 L 483 370 L 483 371 L 485 371 L 487 373 L 484 376 L 483 376 L 482 377 L 481 377 L 481 378 L 478 381 L 476 379 L 475 379 L 474 378 L 475 377 L 473 375 L 473 374 L 472 375 L 471 374 L 471 371 L 472 370 L 474 370 L 474 369 L 475 368 L 476 368 L 477 367 "></path>
        <path fill="none" stroke="#00fafa" stroke-width="3" d="M 626 456 L 627 455 L 628 455 L 629 456 L 629 457 L 630 458 L 630 459 L 633 459 L 634 460 L 635 460 L 636 461 L 635 462 L 636 463 L 635 464 L 633 464 L 630 467 L 631 468 L 629 470 L 628 470 L 627 471 L 626 470 L 626 467 L 625 466 L 624 466 L 622 464 L 620 464 L 619 463 L 621 461 L 621 460 L 622 459 L 623 460 L 625 458 L 626 458 "></path>
        <path fill="none" stroke="#00fafa" stroke-width="3" d="M 582 453 L 583 453 L 584 454 L 584 455 L 585 456 L 585 458 L 586 459 L 587 459 L 588 460 L 588 463 L 584 467 L 584 468 L 583 469 L 584 470 L 582 472 L 581 472 L 580 471 L 580 469 L 581 468 L 580 467 L 580 466 L 579 466 L 578 465 L 577 465 L 575 463 L 575 462 L 577 460 L 578 460 L 580 458 L 580 457 L 579 456 "></path>
        <path fill="none" stroke="#00fafa" stroke-width="3" d="M 565 441 L 566 440 L 568 442 L 569 442 L 571 444 L 570 445 L 572 447 L 572 449 L 570 451 L 570 452 L 569 453 L 569 455 L 568 456 L 567 456 L 566 455 L 566 454 L 566 455 L 565 456 L 564 455 L 564 452 L 563 453 L 562 452 L 562 450 L 560 450 L 559 449 L 561 447 L 561 446 L 562 445 L 563 445 L 565 443 "></path>
        <path fill="none" stroke="#00fafa" stroke-width="3" d="M 552 502 L 553 501 L 554 502 L 554 503 L 557 506 L 558 506 L 559 507 L 560 507 L 561 508 L 559 510 L 559 511 L 558 512 L 557 511 L 555 513 L 553 513 L 552 514 L 549 511 L 548 511 L 547 510 L 546 510 L 544 508 L 545 507 L 545 506 L 546 505 L 549 505 L 549 504 L 551 502 "></path>
        <path fill="none" stroke="#00fafa" stroke-width="3" d="M 447 380 L 448 379 L 449 380 L 449 381 L 450 382 L 450 383 L 451 384 L 451 385 L 452 385 L 453 386 L 456 386 L 457 387 L 454 390 L 453 390 L 452 391 L 451 391 L 450 392 L 448 392 L 448 393 L 447 394 L 446 393 L 446 392 L 445 392 L 444 391 L 443 391 L 441 389 L 441 388 L 442 387 L 442 386 L 444 384 L 445 384 L 445 383 L 447 381 "></path>
        <path fill="none" stroke="#00fafa" stroke-width="3" d="M 611 441 L 612 440 L 613 441 L 614 441 L 616 443 L 616 444 L 617 445 L 618 445 L 619 446 L 619 448 L 616 451 L 615 451 L 616 452 L 615 453 L 614 453 L 613 454 L 611 454 L 610 453 L 610 452 L 609 451 L 608 451 L 606 449 L 607 448 L 606 447 L 606 446 L 607 445 L 608 445 L 611 442 "></path>
        <path fill="none" stroke="#00fafa" stroke-width="3" d="M 626 307 L 627 306 L 633 312 L 633 313 L 631 315 L 631 316 L 630 317 L 630 318 L 629 319 L 628 319 L 628 320 L 627 321 L 626 320 L 626 319 L 622 315 L 621 315 L 619 313 L 620 312 L 620 311 L 621 310 L 622 310 L 623 309 L 624 309 L 624 308 L 625 307 "></path>
        <path fill="none" stroke="#00fafa" stroke-width="3" d="M 567 470 L 568 470 L 569 471 L 569 472 L 571 474 L 572 474 L 573 475 L 572 476 L 573 475 L 574 476 L 574 477 L 575 478 L 573 480 L 571 480 L 568 483 L 568 484 L 567 485 L 566 484 L 566 483 L 565 483 L 564 482 L 564 481 L 560 477 L 561 476 L 562 476 L 564 474 L 565 474 L 566 473 L 565 472 "></path>
        <path fill="none" stroke="#00fafa" stroke-width="3" d="M 567 426 L 568 425 L 570 427 L 569 428 L 570 429 L 571 429 L 572 430 L 573 430 L 574 431 L 574 432 L 573 433 L 574 434 L 573 435 L 571 435 L 570 436 L 569 436 L 569 437 L 567 439 L 566 438 L 566 437 L 565 437 L 562 434 L 560 434 L 559 433 L 562 430 L 563 430 L 563 429 L 566 426 "></path>
        <path fill="none" stroke="#00fafa" stroke-width="3" d="M 506 367 L 507 366 L 508 366 L 512 370 L 513 370 L 514 371 L 515 370 L 516 370 L 517 371 L 514 374 L 513 374 L 512 375 L 511 375 L 510 376 L 510 377 L 509 378 L 509 379 L 508 380 L 507 380 L 505 378 L 505 376 L 504 375 L 504 374 L 502 372 L 503 371 L 504 371 L 504 370 L 506 368 "></path>
        <path fill="none" stroke="#00fafa" stroke-width="3" d="M 462 381 L 463 380 L 464 381 L 464 383 L 465 384 L 467 384 L 468 385 L 468 386 L 470 386 L 471 387 L 469 389 L 466 389 L 465 390 L 465 391 L 463 393 L 461 393 L 460 392 L 460 391 L 459 390 L 457 390 L 456 389 L 456 388 L 457 387 L 457 386 L 458 385 L 459 385 L 459 384 L 461 382 L 462 382 "></path>
    </g>
</svg>
