<svg xmlns="http://www.w3.org/2000/svg" xmlns:xlink="http://www.w3.org/1999/xlink" version="1.1" x="0" y="0" width="1056px" height="816px">
    <g id="rootLayer" transform="translate(0.000000, 0.000000)">
        <path fill="none" stroke="#fa00fa" stroke-width="3" d="M 604 412 L 603 413 L 600 413 L 598 415 L 597 415 L 594 418 L 590 418 L 589 419 L 587 419 L 586 420 L 585 420 L 582 423 L 582 424 L 581 425 L 581 426 L 580 427 L 580 433 L 581 434 L 581 436 L 586 441 L 588 441 L 589 442 L 591 442 L 592 443 L 587 448 L 587 449 L 586 450 L 586 453 L 585 454 L 585 457 L 586 458 L 586 460 L 587 461 L 587 462 L 590 465 L 591 465 L 592 466 L 593 466 L 595 468 L 595 472 L 594 473 L 594 479 L 595 480 L 595 481 L 596 482 L 596 484 L 598 486 L 599 486 L 600 487 L 601 487 L 602 488 L 610 488 L 611 487 L 613 487 L 617 483 L 617 479 L 618 478 L 618 473 L 617 472 L 617 470 L 615 468 L 615 467 L 614 467 L 613 466 L 612 466 L 611 465 L 610 465 L 609 464 L 608 464 L 607 463 L 607 462 L 608 461 L 608 457 L 609 456 L 609 455 L 610 454 L 619 454 L 620 455 L 620 457 L 621 458 L 621 460 L 622 461 L 622 462 L 625 465 L 627 465 L 628 466 L 636 466 L 637 465 L 639 465 L 643 461 L 643 454 L 644 453 L 644 452 L 647 449 L 648 449 L 651 446 L 651 445 L 652 444 L 652 435 L 651 434 L 651 429 L 652 428 L 652 420 L 651 419 L 651 418 L 650 417 L 650 416 L 649 415 L 648 415 L 646 413 L 637 413 L 636 414 L 634 414 L 632 416 L 632 417 L 630 419 L 630 429 L 631 430 L 631 433 L 630 434 L 630 437 L 629 438 L 629 442 L 628 443 L 627 443 L 626 442 L 626 439 L 625 438 L 625 436 L 623 434 L 623 433 L 622 432 L 621 432 L 618 429 L 618 428 L 617 427 L 617 426 L 618 425 L 618 422 L 617 421 L 617 419 L 616 418 L 616 417 L 613 414 L 612 414 L 611 413 L 609 413 L 608 412 L 604 412 L 603 413 "></path>
        <path fill="none" stroke="#fa00fa" stroke-width="3" d="M 553 517 L 552 518 L 548 518 L 547 519 L 546 519 L 544 521 L 544 522 L 542 524 L 542 525 L 541 526 L 541 530 L 540 531 L 540 532 L 541 533 L 541 535 L 542 536 L 542 537 L 544 539 L 544 540 L 545 540 L 546 541 L 548 541 L 549 542 L 552 542 L 554 544 L 554 545 L 553 546 L 553 548 L 552 549 L 552 557 L 553 558 L 553 560 L 557 564 L 559 564 L 560 565 L 568 565 L 569 564 L 570 565 L 571 564 L 574 564 L 575 563 L 576 563 L 577 562 L 578 562 L 580 560 L 580 559 L 581 558 L 581 557 L 582 556 L 582 549 L 581 548 L 581 546 L 580 545 L 580 544 L 577 541 L 575 541 L 574 540 L 564 540 L 563 539 L 563 538 L 564 537 L 564 535 L 565 534 L 565 527 L 564 526 L 564 524 L 563 523 L 563 522 L 561 520 L 560 520 L 558 518 L 555 518 L 554 517 L 553 517 L 552 518 "></path>
        <path fill="none" stroke="#fa00fa" stroke-width="3" d="M 501 447 L 500 448 L 498 448 L 496 450 L 496 451 L 493 454 L 493 457 L 492 458 L 492 459 L 493 460 L 492 461 L 492 462 L 491 463 L 490 463 L 489 464 L 484 464 L 483 465 L 482 465 L 478 469 L 478 471 L 477 472 L 477 475 L 476 476 L 476 477 L 477 478 L 477 481 L 478 482 L 478 483 L 479 483 L 480 484 L 480 485 L 482 487 L 484 487 L 485 488 L 491 488 L 492 487 L 495 487 L 497 485 L 498 485 L 500 483 L 500 481 L 501 480 L 501 473 L 503 471 L 510 471 L 511 470 L 512 470 L 513 469 L 514 469 L 515 468 L 515 467 L 516 466 L 516 462 L 517 461 L 517 457 L 516 456 L 516 454 L 515 453 L 515 451 L 513 449 L 512 449 L 510 447 L 501 447 L 500 448 "></path>
        <path fill="none" stroke="#fa00fa" stroke-width="3" d="M 417 522 L 416 523 L 414 523 L 408 529 L 408 534 L 407 535 L 408 536 L 408 541 L 410 543 L 410 545 L 411 546 L 411 549 L 412 550 L 412 552 L 414 554 L 415 554 L 416 555 L 416 556 L 418 558 L 420 558 L 421 559 L 427 559 L 428 558 L 430 558 L 433 555 L 434 555 L 434 554 L 435 553 L 435 552 L 436 551 L 436 545 L 437 544 L 437 543 L 436 542 L 436 540 L 433 537 L 433 535 L 432 534 L 432 530 L 431 529 L 431 528 L 426 523 L 424 523 L 423 522 L 417 522 L 416 523 "></path>
        <path fill="none" stroke="#fa00fa" stroke-width="3" d="M 357 527 L 356 528 L 350 528 L 349 529 L 348 529 L 345 532 L 345 533 L 344 534 L 344 535 L 343 536 L 343 543 L 344 544 L 344 547 L 345 548 L 345 551 L 346 552 L 347 552 L 348 553 L 348 554 L 350 556 L 352 556 L 353 557 L 359 557 L 360 556 L 362 556 L 363 555 L 366 555 L 368 553 L 370 553 L 373 550 L 374 550 L 374 549 L 375 548 L 375 542 L 376 541 L 376 539 L 375 538 L 375 534 L 372 531 L 371 531 L 369 529 L 367 529 L 366 528 L 363 528 L 362 527 L 357 527 L 356 528 "></path>
        <path fill="none" stroke="#fa00fa" stroke-width="3" d="M 645 356 L 644 357 L 642 357 L 638 361 L 638 364 L 637 365 L 637 380 L 638 381 L 638 382 L 642 386 L 643 386 L 644 387 L 652 387 L 653 386 L 655 386 L 657 384 L 657 383 L 658 382 L 658 381 L 659 380 L 659 377 L 661 375 L 661 374 L 662 373 L 662 372 L 663 371 L 663 363 L 662 362 L 662 361 L 658 357 L 656 357 L 655 356 L 645 356 L 644 357 "></path>
        <path fill="none" stroke="#fa00fa" stroke-width="3" d="M 454 479 L 453 480 L 450 480 L 449 481 L 448 481 L 447 482 L 446 482 L 442 486 L 442 489 L 441 490 L 441 491 L 442 492 L 442 496 L 443 497 L 443 499 L 444 500 L 444 501 L 446 503 L 447 503 L 448 504 L 451 504 L 452 505 L 454 505 L 455 504 L 456 505 L 457 504 L 460 504 L 462 502 L 463 502 L 464 501 L 464 500 L 465 499 L 465 498 L 466 497 L 466 487 L 464 485 L 464 484 L 460 480 L 458 480 L 457 479 L 454 479 L 453 480 "></path>
        <path fill="none" stroke="#fa00fa" stroke-width="3" d="M 422 478 L 421 479 L 417 479 L 416 480 L 414 480 L 413 481 L 412 481 L 412 482 L 409 485 L 409 487 L 408 488 L 408 493 L 409 494 L 409 496 L 410 497 L 410 498 L 411 498 L 412 499 L 412 500 L 414 502 L 416 502 L 417 503 L 420 503 L 421 504 L 423 504 L 424 503 L 427 503 L 429 501 L 430 501 L 430 500 L 432 498 L 432 497 L 433 496 L 433 486 L 432 485 L 432 484 L 431 483 L 431 482 L 430 481 L 429 481 L 428 480 L 427 480 L 426 479 L 423 479 L 422 478 L 421 479 "></path>
        <path fill="none" stroke="#fa00fa" stroke-width="3" d="M 462 512 L 461 513 L 457 513 L 456 514 L 454 514 L 452 516 L 452 517 L 450 519 L 450 520 L 448 522 L 448 528 L 449 529 L 449 531 L 450 532 L 450 533 L 451 533 L 454 536 L 457 536 L 458 537 L 466 537 L 468 535 L 469 535 L 472 532 L 472 529 L 473 528 L 473 521 L 472 520 L 472 519 L 471 518 L 471 517 L 468 514 L 467 514 L 466 513 L 464 513 L 463 512 L 462 512 L 461 513 "></path>
        <path fill="none" stroke="#fa00fa" stroke-width="3" d="M 526 476 L 525 477 L 523 477 L 522 478 L 521 478 L 517 482 L 517 484 L 516 485 L 516 494 L 517 495 L 517 496 L 521 500 L 525 500 L 526 501 L 532 501 L 533 500 L 534 500 L 535 499 L 536 499 L 539 496 L 539 494 L 540 493 L 540 484 L 539 483 L 539 482 L 534 477 L 531 477 L 530 476 L 529 476 L 528 477 L 527 477 L 526 476 L 525 477 "></path>
        <path fill="none" stroke="#fa00fa" stroke-width="3" d="M 1018 743 L 1017 744 L 1014 744 L 1011 747 L 1011 748 L 1010 749 L 1010 751 L 1011 752 L 1011 754 L 1012 755 L 1012 756 L 1015 759 L 1017 759 L 1018 760 L 1023 760 L 1024 759 L 1025 759 L 1028 756 L 1028 755 L 1029 754 L 1029 753 L 1030 752 L 1030 748 L 1027 745 L 1025 745 L 1024 744 L 1023 744 L 1022 743 L 1021 744 L 1020 743 L 1018 743 L 1017 744 "></path>
        <path fill="none" stroke="#fa00fa" stroke-width="3" d="M 29 351 L 28 352 L 26 352 L 25 353 L 24 353 L 21 356 L 21 364 L 22 365 L 22 366 L 23 366 L 24 367 L 34 367 L 36 365 L 37 365 L 39 363 L 39 356 L 38 355 L 38 354 L 37 354 L 35 352 L 31 352 L 30 351 L 29 351 L 28 352 "></path>
        <path fill="none" stroke="#fa00fa" stroke-width="3" d="M 29 142 L 28 143 L 26 143 L 25 144 L 24 144 L 21 147 L 21 152 L 22 153 L 22 154 L 25 157 L 26 157 L 27 158 L 28 157 L 29 158 L 31 158 L 32 157 L 35 157 L 37 155 L 37 154 L 39 152 L 39 147 L 37 145 L 36 145 L 34 143 L 32 143 L 31 142 L 29 142 L 28 143 "></path>
        <path fill="none" stroke="#fa00fa" stroke-width="3" d="M 1017 473 L 1016 474 L 1015 474 L 1012 477 L 1012 479 L 1011 480 L 1012 481 L 1012 485 L 1015 488 L 1016 488 L 1017 489 L 1022 489 L 1023 488 L 1025 488 L 1027 486 L 1027 485 L 1029 483 L 1029 480 L 1027 478 L 1027 477 L 1023 473 L 1017 473 L 1016 474 "></path>
        <path fill="none" stroke="#fa00fa" stroke-width="3" d="M 209 21 L 208 22 L 205 22 L 202 25 L 202 27 L 201 28 L 201 31 L 202 32 L 202 34 L 203 35 L 204 35 L 206 37 L 211 37 L 212 36 L 215 36 L 218 33 L 218 28 L 217 27 L 217 25 L 214 22 L 212 22 L 211 21 L 209 21 L 208 22 "></path>
        <path fill="none" stroke="#fa00fa" stroke-width="3" d="M 902 21 L 901 22 L 897 22 L 896 23 L 895 23 L 893 25 L 893 26 L 892 27 L 892 33 L 894 35 L 894 36 L 895 36 L 896 37 L 897 37 L 898 38 L 903 38 L 908 33 L 908 26 L 907 25 L 907 24 L 906 23 L 905 23 L 904 22 L 903 22 L 902 21 L 901 22 "></path>
        <path fill="none" stroke="#fa00fa" stroke-width="3" d="M 58 531 L 57 532 L 56 532 L 54 534 L 54 535 L 53 536 L 53 537 L 52 538 L 52 540 L 53 541 L 53 543 L 54 544 L 54 545 L 57 548 L 58 548 L 59 549 L 63 549 L 64 548 L 65 548 L 66 547 L 66 546 L 67 545 L 67 539 L 66 538 L 66 534 L 63 531 L 58 531 L 57 532 "></path>
        <path fill="none" stroke="#fa00fa" stroke-width="3" d="M 116 232 L 113 235 L 113 237 L 112 238 L 112 242 L 113 243 L 113 244 L 117 248 L 123 248 L 125 246 L 126 246 L 126 245 L 128 243 L 128 241 L 129 240 L 129 239 L 128 238 L 128 236 L 126 234 L 125 234 L 124 233 L 123 233 L 122 232 L 116 232 L 113 235 "></path>
        <path fill="none" stroke="#fa00fa" stroke-width="3" d="M 1018 652 L 1017 653 L 1016 653 L 1015 654 L 1014 654 L 1012 656 L 1012 660 L 1013 661 L 1013 662 L 1015 664 L 1015 665 L 1016 666 L 1016 667 L 1017 668 L 1018 668 L 1019 669 L 1022 669 L 1023 668 L 1024 668 L 1026 666 L 1026 665 L 1028 663 L 1028 660 L 1029 659 L 1029 658 L 1028 657 L 1028 656 L 1025 653 L 1023 653 L 1022 652 L 1018 652 L 1017 653 "></path>
        <path fill="none" stroke="#fa00fa" stroke-width="3" d="M 1018 623 L 1017 624 L 1014 624 L 1011 627 L 1011 631 L 1012 632 L 1012 634 L 1014 636 L 1015 636 L 1016 637 L 1023 637 L 1024 636 L 1026 636 L 1027 635 L 1028 635 L 1029 634 L 1029 629 L 1028 628 L 1028 626 L 1026 624 L 1024 624 L 1023 623 L 1021 623 L 1020 624 L 1019 624 L 1018 623 L 1017 624 "></path>
        <path fill="none" stroke="#fa00fa" stroke-width="3" d="M 988 533 L 987 534 L 985 534 L 981 538 L 981 542 L 986 547 L 987 547 L 988 548 L 992 548 L 993 547 L 994 547 L 999 542 L 999 537 L 998 536 L 997 536 L 994 533 L 988 533 L 987 534 "></path>
        <path fill="none" stroke="#fa00fa" stroke-width="3" d="M 990 262 L 989 263 L 986 263 L 983 266 L 983 267 L 982 268 L 982 273 L 983 274 L 983 275 L 984 276 L 984 277 L 985 277 L 986 278 L 994 278 L 996 276 L 996 275 L 997 274 L 997 273 L 998 272 L 998 267 L 994 263 L 992 263 L 991 262 L 990 262 L 989 263 "></path>
        <path fill="none" stroke="#fa00fa" stroke-width="3" d="M 178 712 L 177 713 L 176 713 L 174 715 L 173 715 L 173 716 L 172 717 L 172 718 L 171 719 L 171 723 L 174 726 L 175 726 L 176 727 L 177 727 L 178 728 L 182 728 L 183 727 L 184 727 L 185 726 L 186 726 L 187 725 L 187 724 L 188 723 L 188 719 L 187 718 L 187 717 L 186 716 L 186 715 L 185 715 L 182 712 L 181 712 L 180 713 L 179 712 L 178 712 L 177 713 "></path>
        <path fill="none" stroke="#fa00fa" stroke-width="3" d="M 117 172 L 115 174 L 114 174 L 114 175 L 113 176 L 113 184 L 116 187 L 117 187 L 118 188 L 123 188 L 124 187 L 125 187 L 128 184 L 128 183 L 129 182 L 129 179 L 128 178 L 128 177 L 127 176 L 127 175 L 126 174 L 124 174 L 122 172 L 117 172 L 115 174 "></path>
        <path fill="none" stroke="#fa00fa" stroke-width="3" d="M 28 322 L 27 323 L 25 323 L 22 326 L 22 330 L 23 331 L 23 333 L 24 334 L 24 335 L 25 336 L 27 336 L 28 337 L 34 337 L 36 335 L 36 334 L 38 332 L 38 330 L 39 329 L 39 327 L 38 326 L 38 325 L 36 323 L 35 323 L 34 322 L 28 322 L 27 323 "></path>
        <path fill="none" stroke="#fa00fa" stroke-width="3" d="M 60 682 L 59 683 L 57 683 L 57 684 L 56 685 L 55 685 L 51 689 L 51 692 L 53 694 L 53 695 L 55 697 L 57 697 L 58 698 L 63 698 L 66 695 L 66 694 L 69 691 L 69 689 L 66 686 L 66 685 L 64 683 L 63 683 L 62 682 L 60 682 L 59 683 "></path>
        <path fill="none" stroke="#fa00fa" stroke-width="3" d="M 178 141 L 177 142 L 176 142 L 174 144 L 174 149 L 173 150 L 173 152 L 174 153 L 174 155 L 175 156 L 176 156 L 178 158 L 184 158 L 185 157 L 186 157 L 188 155 L 188 150 L 187 149 L 187 146 L 186 145 L 186 144 L 185 143 L 184 143 L 183 142 L 179 142 L 178 141 L 177 142 "></path>
        <path fill="none" stroke="#fa00fa" stroke-width="3" d="M 986 711 L 983 714 L 983 715 L 982 716 L 982 718 L 983 719 L 983 722 L 984 723 L 984 724 L 986 726 L 992 726 L 993 725 L 995 725 L 998 722 L 998 715 L 995 712 L 994 712 L 993 711 L 986 711 L 983 714 "></path>
        <path fill="none" stroke="#fa00fa" stroke-width="3" d="M 958 81 L 957 82 L 956 82 L 954 84 L 954 89 L 953 90 L 953 91 L 952 92 L 952 94 L 954 96 L 954 97 L 956 97 L 957 98 L 963 98 L 965 96 L 966 96 L 966 95 L 967 94 L 967 91 L 966 90 L 966 84 L 965 83 L 964 83 L 962 81 L 958 81 L 957 82 "></path>
        <path fill="none" stroke="#fa00fa" stroke-width="3" d="M 869 142 L 868 143 L 865 143 L 862 146 L 862 150 L 863 151 L 863 153 L 864 154 L 864 155 L 865 156 L 866 156 L 867 157 L 874 157 L 877 154 L 877 152 L 878 151 L 878 146 L 875 143 L 873 143 L 872 142 L 869 142 L 868 143 "></path>
        <path fill="none" stroke="#fa00fa" stroke-width="3" d="M 207 52 L 203 56 L 203 57 L 202 58 L 202 64 L 204 66 L 205 66 L 206 67 L 214 67 L 217 64 L 217 63 L 218 62 L 218 58 L 217 57 L 217 56 L 214 53 L 212 53 L 211 52 L 210 52 L 209 53 L 208 52 L 207 52 L 203 56 "></path>
        <path fill="none" stroke="#fa00fa" stroke-width="3" d="M 1017 52 L 1016 53 L 1015 53 L 1013 55 L 1013 63 L 1014 64 L 1014 65 L 1016 67 L 1017 67 L 1018 68 L 1023 68 L 1024 67 L 1025 67 L 1027 65 L 1027 64 L 1028 63 L 1028 60 L 1027 59 L 1027 58 L 1026 57 L 1026 56 L 1024 54 L 1024 53 L 1023 53 L 1022 52 L 1017 52 L 1016 53 "></path>
        <path fill="none" stroke="#fa00fa" stroke-width="3" d="M 119 261 L 118 262 L 117 262 L 114 265 L 114 266 L 113 267 L 113 274 L 117 278 L 123 278 L 125 276 L 126 276 L 127 275 L 127 267 L 126 266 L 126 265 L 123 262 L 121 262 L 120 261 L 119 261 L 118 262 "></path>
        <path fill="none" stroke="#fa00fa" stroke-width="3" d="M 897 52 L 896 53 L 895 53 L 893 55 L 893 56 L 892 57 L 892 61 L 893 62 L 893 63 L 897 67 L 902 67 L 903 66 L 904 66 L 905 65 L 906 65 L 906 64 L 908 62 L 908 57 L 907 56 L 907 55 L 906 54 L 905 54 L 903 52 L 897 52 L 896 53 "></path>
        <path fill="none" stroke="#fa00fa" stroke-width="3" d="M 26 204 L 21 209 L 21 213 L 23 215 L 24 215 L 26 217 L 34 217 L 35 216 L 36 216 L 37 215 L 38 215 L 38 214 L 39 213 L 39 208 L 37 206 L 36 206 L 35 205 L 34 205 L 33 204 L 26 204 L 21 209 "></path>
        <path fill="none" stroke="#fa00fa" stroke-width="3" d="M 990 352 L 989 353 L 988 353 L 987 354 L 986 354 L 982 358 L 982 359 L 981 360 L 981 363 L 982 364 L 982 365 L 983 365 L 985 367 L 988 367 L 989 368 L 990 368 L 991 367 L 994 367 L 995 366 L 996 366 L 996 365 L 997 364 L 997 356 L 996 355 L 996 354 L 995 354 L 994 353 L 991 353 L 990 352 L 989 353 "></path>
        <path fill="none" stroke="#fa00fa" stroke-width="3" d="M 57 775 L 56 776 L 54 776 L 51 779 L 51 782 L 52 783 L 52 784 L 55 787 L 56 787 L 57 788 L 64 788 L 65 787 L 66 787 L 69 784 L 69 779 L 66 776 L 64 776 L 63 775 L 57 775 L 56 776 "></path>
        <path fill="none" stroke="#fa00fa" stroke-width="3" d="M 87 383 L 86 384 L 85 384 L 85 385 L 82 388 L 82 393 L 84 395 L 84 396 L 85 397 L 86 397 L 87 398 L 89 398 L 90 399 L 91 398 L 94 398 L 96 396 L 96 395 L 97 394 L 97 392 L 98 391 L 98 390 L 97 389 L 97 387 L 94 384 L 93 384 L 92 383 L 87 383 L 86 384 "></path>
        <path fill="none" stroke="#fa00fa" stroke-width="3" d="M 58 54 L 57 55 L 55 55 L 54 56 L 53 56 L 53 57 L 52 58 L 52 63 L 53 64 L 53 65 L 55 67 L 56 67 L 57 68 L 64 68 L 65 67 L 66 67 L 67 66 L 67 65 L 68 64 L 68 63 L 69 62 L 69 61 L 68 60 L 68 58 L 67 57 L 67 56 L 65 56 L 64 55 L 63 55 L 62 54 L 61 54 L 60 55 L 59 54 L 58 54 L 57 55 "></path>
        <path fill="none" stroke="#fa00fa" stroke-width="3" d="M 748 52 L 747 53 L 746 53 L 743 56 L 743 64 L 744 65 L 744 66 L 745 67 L 746 67 L 747 68 L 751 68 L 752 67 L 753 67 L 754 66 L 755 66 L 755 65 L 756 64 L 756 63 L 757 62 L 757 61 L 758 60 L 758 58 L 757 57 L 757 56 L 756 55 L 756 54 L 755 54 L 754 53 L 752 53 L 751 52 L 748 52 L 747 53 "></path>
        <path fill="none" stroke="#fa00fa" stroke-width="3" d="M 58 712 L 57 713 L 56 713 L 54 715 L 54 716 L 53 717 L 53 724 L 54 725 L 54 726 L 56 728 L 57 728 L 58 729 L 62 729 L 66 725 L 66 716 L 65 715 L 65 714 L 63 712 L 58 712 L 57 713 "></path>
        <path fill="none" stroke="#fa00fa" stroke-width="3" d="M 1017 772 L 1014 775 L 1014 777 L 1013 778 L 1013 782 L 1016 785 L 1016 786 L 1017 787 L 1019 787 L 1020 788 L 1021 787 L 1023 787 L 1027 783 L 1027 782 L 1028 781 L 1028 779 L 1029 778 L 1029 777 L 1028 776 L 1028 775 L 1026 773 L 1024 773 L 1023 772 L 1017 772 L 1014 775 "></path>
        <path fill="none" stroke="#fa00fa" stroke-width="3" d="M 297 772 L 296 773 L 295 773 L 292 776 L 292 777 L 293 778 L 293 780 L 294 781 L 294 783 L 295 784 L 295 785 L 298 788 L 302 788 L 303 787 L 304 787 L 304 786 L 305 785 L 305 784 L 306 783 L 306 782 L 307 781 L 307 780 L 308 779 L 308 776 L 306 774 L 305 774 L 304 773 L 303 773 L 302 772 L 297 772 L 296 773 "></path>
        <path fill="none" stroke="#fa00fa" stroke-width="3" d="M 1019 562 L 1018 563 L 1017 563 L 1015 565 L 1014 565 L 1013 566 L 1013 567 L 1012 568 L 1012 572 L 1013 573 L 1013 574 L 1016 577 L 1017 577 L 1018 578 L 1019 577 L 1023 577 L 1027 573 L 1027 572 L 1028 571 L 1028 567 L 1025 564 L 1024 564 L 1023 563 L 1022 563 L 1021 562 L 1019 562 L 1018 563 "></path>
        <path fill="none" stroke="#fa00fa" stroke-width="3" d="M 178 623 L 176 625 L 175 625 L 172 628 L 172 633 L 173 634 L 173 635 L 174 635 L 175 636 L 177 636 L 178 637 L 179 637 L 180 636 L 181 637 L 182 637 L 183 636 L 184 636 L 185 635 L 187 635 L 188 634 L 188 633 L 189 632 L 189 630 L 188 629 L 188 628 L 187 627 L 187 626 L 186 625 L 186 624 L 185 624 L 184 623 L 178 623 L 176 625 "></path>
        <path fill="none" stroke="#fa00fa" stroke-width="3" d="M 929 112 L 928 113 L 926 113 L 924 115 L 924 116 L 923 117 L 923 120 L 924 121 L 924 124 L 925 125 L 925 126 L 927 128 L 929 128 L 930 129 L 931 128 L 933 128 L 934 127 L 935 127 L 935 126 L 936 125 L 936 123 L 937 122 L 937 116 L 936 115 L 936 114 L 935 113 L 932 113 L 931 112 L 929 112 L 928 113 "></path>
        <path fill="none" stroke="#fa00fa" stroke-width="3" d="M 58 593 L 54 597 L 54 598 L 53 599 L 53 605 L 55 607 L 56 607 L 57 608 L 63 608 L 64 607 L 65 607 L 67 605 L 67 604 L 68 603 L 68 599 L 67 598 L 67 597 L 63 593 L 58 593 L 54 597 "></path>
        <path fill="none" stroke="#fa00fa" stroke-width="3" d="M 809 771 L 808 772 L 806 772 L 803 775 L 803 778 L 804 779 L 804 780 L 803 781 L 803 783 L 804 784 L 804 785 L 807 788 L 813 788 L 815 786 L 815 784 L 816 783 L 816 775 L 814 773 L 813 773 L 812 772 L 811 772 L 810 771 L 809 771 L 808 772 "></path>
        <path fill="none" stroke="#fa00fa" stroke-width="3" d="M 809 712 L 808 713 L 806 713 L 805 714 L 805 715 L 803 717 L 803 719 L 802 720 L 802 721 L 803 722 L 803 723 L 804 723 L 805 724 L 805 725 L 806 726 L 808 726 L 809 727 L 815 727 L 818 724 L 818 719 L 817 718 L 817 717 L 816 716 L 816 715 L 814 713 L 813 713 L 812 712 L 809 712 L 808 713 "></path>
        <path fill="none" stroke="#fa00fa" stroke-width="3" d="M 927 142 L 926 143 L 925 143 L 924 144 L 924 154 L 925 155 L 925 156 L 926 157 L 927 157 L 928 158 L 932 158 L 933 157 L 934 157 L 936 155 L 936 152 L 937 151 L 937 145 L 934 142 L 927 142 L 926 143 "></path>
        <path fill="none" stroke="#fa00fa" stroke-width="3" d="M 838 713 L 836 715 L 835 715 L 835 716 L 833 718 L 833 719 L 832 720 L 832 724 L 833 725 L 833 726 L 834 726 L 835 727 L 836 727 L 837 728 L 843 728 L 844 727 L 845 727 L 847 725 L 847 718 L 846 717 L 846 716 L 845 715 L 844 715 L 842 713 L 838 713 L 836 715 "></path>
        <path fill="none" stroke="#fa00fa" stroke-width="3" d="M 1017 442 L 1016 443 L 1015 443 L 1012 446 L 1012 449 L 1013 450 L 1013 451 L 1014 452 L 1014 454 L 1018 458 L 1022 458 L 1023 457 L 1024 457 L 1025 456 L 1025 455 L 1026 454 L 1026 445 L 1024 443 L 1023 443 L 1022 442 L 1017 442 L 1016 443 "></path>
        <path fill="none" stroke="#fa00fa" stroke-width="3" d="M 954 683 L 952 685 L 952 686 L 951 687 L 951 690 L 952 691 L 952 692 L 953 692 L 954 693 L 955 693 L 957 695 L 962 695 L 964 693 L 966 693 L 967 692 L 968 692 L 970 690 L 970 688 L 969 687 L 969 686 L 966 683 L 954 683 L 952 685 "></path>
        <path fill="none" stroke="#fa00fa" stroke-width="3" d="M 30 502 L 29 503 L 27 503 L 23 507 L 23 510 L 24 511 L 24 515 L 27 518 L 32 518 L 33 517 L 34 517 L 35 516 L 35 515 L 36 514 L 36 513 L 37 512 L 37 511 L 38 510 L 38 508 L 37 507 L 37 506 L 36 505 L 36 504 L 35 503 L 31 503 L 30 502 L 29 503 "></path>
        <path fill="none" stroke="#fa00fa" stroke-width="3" d="M 1048 262 L 1047 263 L 1046 263 L 1042 267 L 1042 269 L 1041 270 L 1041 272 L 1042 273 L 1042 274 L 1046 278 L 1048 278 L 1049 279 L 1054 279 L 1054 262 L 1048 262 L 1047 263 "></path>
        <path fill="none" stroke="#fa00fa" stroke-width="3" d="M 328 622 L 327 623 L 326 623 L 324 625 L 324 628 L 323 629 L 323 632 L 324 633 L 324 634 L 326 636 L 327 636 L 328 637 L 332 637 L 333 636 L 335 636 L 338 633 L 338 628 L 337 627 L 337 626 L 334 623 L 333 623 L 332 622 L 328 622 L 327 623 "></path>
        <path fill="none" stroke="#fa00fa" stroke-width="3" d="M 869 382 L 868 383 L 866 383 L 864 385 L 864 386 L 863 387 L 863 393 L 864 394 L 864 395 L 865 395 L 866 396 L 868 396 L 869 397 L 874 397 L 875 396 L 876 396 L 877 395 L 877 394 L 878 393 L 878 388 L 876 386 L 876 385 L 875 385 L 873 383 L 871 383 L 870 382 L 869 382 L 868 383 "></path>
        <path fill="none" stroke="#fa00fa" stroke-width="3" d="M 58 22 L 57 23 L 56 23 L 55 24 L 54 24 L 54 25 L 53 26 L 53 28 L 52 29 L 53 30 L 53 32 L 58 37 L 63 37 L 65 35 L 66 35 L 68 33 L 68 31 L 69 30 L 69 28 L 66 25 L 65 25 L 64 24 L 63 24 L 62 23 L 59 23 L 58 22 L 57 23 "></path>
        <path fill="none" stroke="#fa00fa" stroke-width="3" d="M 27 22 L 26 23 L 25 23 L 23 25 L 23 26 L 22 27 L 22 31 L 26 35 L 35 35 L 37 33 L 38 33 L 38 32 L 39 31 L 39 30 L 38 29 L 38 27 L 37 26 L 37 25 L 35 23 L 32 23 L 31 22 L 27 22 L 26 23 "></path>
        <path fill="none" stroke="#fa00fa" stroke-width="3" d="M 868 233 L 867 234 L 866 234 L 864 236 L 864 237 L 862 239 L 862 244 L 863 245 L 864 245 L 866 247 L 874 247 L 876 245 L 877 245 L 878 244 L 878 241 L 876 239 L 876 237 L 874 235 L 874 234 L 873 234 L 872 233 L 868 233 L 867 234 "></path>
        <path fill="none" stroke="#fa00fa" stroke-width="3" d="M 778 622 L 775 625 L 775 626 L 774 627 L 774 635 L 776 637 L 777 637 L 778 638 L 782 638 L 784 636 L 785 636 L 786 635 L 786 634 L 787 633 L 787 626 L 784 623 L 783 623 L 782 622 L 778 622 L 775 625 "></path>
        <path fill="none" stroke="#fa00fa" stroke-width="3" d="M 988 744 L 987 745 L 985 745 L 984 746 L 984 747 L 983 748 L 983 749 L 982 750 L 982 753 L 983 754 L 983 755 L 986 758 L 989 758 L 990 759 L 991 758 L 994 758 L 998 754 L 998 752 L 997 751 L 997 750 L 996 749 L 996 748 L 993 745 L 992 745 L 991 744 L 988 744 L 987 745 "></path>
        <path fill="none" stroke="#fa00fa" stroke-width="3" d="M 870 83 L 869 84 L 868 84 L 867 85 L 866 85 L 866 86 L 865 87 L 865 88 L 862 91 L 862 94 L 865 97 L 867 97 L 868 98 L 872 98 L 873 97 L 875 97 L 877 95 L 878 95 L 878 94 L 879 93 L 879 92 L 878 91 L 878 90 L 876 88 L 876 87 L 874 85 L 873 85 L 871 83 L 870 83 L 869 84 "></path>
        <path fill="none" stroke="#fa00fa" stroke-width="3" d="M 898 203 L 897 204 L 896 204 L 893 207 L 893 208 L 892 209 L 892 214 L 894 216 L 896 216 L 897 217 L 903 217 L 904 216 L 905 216 L 907 214 L 907 208 L 906 207 L 906 206 L 905 205 L 904 205 L 902 203 L 898 203 L 897 204 "></path>
        <path fill="none" stroke="#fa00fa" stroke-width="3" d="M 1050 621 L 1049 622 L 1047 622 L 1046 623 L 1045 623 L 1043 625 L 1043 626 L 1042 627 L 1042 633 L 1046 637 L 1047 637 L 1048 638 L 1050 638 L 1051 639 L 1052 638 L 1053 638 L 1054 637 L 1054 622 L 1053 622 L 1052 621 L 1050 621 L 1049 622 "></path>
        <path fill="none" stroke="#fa00fa" stroke-width="3" d="M 147 24 L 146 25 L 145 25 L 142 28 L 142 33 L 143 34 L 143 35 L 144 35 L 146 37 L 154 37 L 156 35 L 157 35 L 158 34 L 158 32 L 159 31 L 159 30 L 158 29 L 158 28 L 156 26 L 155 26 L 154 25 L 153 26 L 152 25 L 151 25 L 150 24 L 149 25 L 148 25 L 147 24 L 146 25 "></path>
        <path fill="none" stroke="#fa00fa" stroke-width="3" d="M 28 231 L 27 232 L 25 232 L 23 234 L 23 235 L 22 236 L 22 238 L 23 239 L 23 240 L 24 241 L 24 242 L 26 244 L 26 245 L 28 245 L 29 246 L 32 246 L 33 245 L 34 245 L 35 244 L 35 243 L 36 242 L 36 241 L 37 240 L 37 235 L 34 232 L 32 232 L 31 231 L 28 231 L 27 232 "></path>
        <path fill="none" stroke="#fa00fa" stroke-width="3" d="M 149 713 L 148 714 L 146 714 L 142 718 L 142 722 L 146 726 L 155 726 L 156 725 L 157 725 L 159 723 L 159 720 L 156 717 L 156 716 L 154 714 L 152 714 L 151 713 L 149 713 L 148 714 "></path>
        <path fill="none" stroke="#fa00fa" stroke-width="3" d="M 960 232 L 959 233 L 957 233 L 953 237 L 953 238 L 952 239 L 952 243 L 953 244 L 953 245 L 954 245 L 955 246 L 956 246 L 957 247 L 963 247 L 965 245 L 965 243 L 966 242 L 966 235 L 964 233 L 963 233 L 962 232 L 960 232 L 959 233 "></path>
        <path fill="none" stroke="#fa00fa" stroke-width="3" d="M 806 84 L 803 87 L 803 90 L 802 91 L 802 92 L 803 93 L 803 94 L 804 95 L 804 96 L 805 96 L 806 97 L 809 97 L 810 98 L 811 97 L 814 97 L 816 95 L 816 94 L 817 93 L 817 87 L 814 84 L 806 84 L 803 87 "></path>
        <path fill="none" stroke="#fa00fa" stroke-width="3" d="M 26 804 L 25 805 L 24 805 L 23 806 L 22 806 L 21 807 L 21 812 L 22 813 L 22 814 L 38 814 L 38 813 L 40 811 L 40 808 L 38 806 L 37 806 L 36 805 L 35 805 L 34 804 L 26 804 L 25 805 "></path>
        <path fill="none" stroke="#fa00fa" stroke-width="3" d="M 238 142 L 237 143 L 235 143 L 234 144 L 234 145 L 233 146 L 233 148 L 232 149 L 232 152 L 235 155 L 236 155 L 238 157 L 239 156 L 240 157 L 243 157 L 246 154 L 246 146 L 243 143 L 240 143 L 239 142 L 238 142 L 237 143 "></path>
        <path fill="none" stroke="#fa00fa" stroke-width="3" d="M 807 202 L 805 204 L 804 204 L 804 205 L 803 206 L 803 209 L 804 210 L 804 214 L 806 216 L 808 216 L 809 217 L 810 217 L 811 216 L 814 216 L 815 215 L 815 214 L 816 213 L 816 209 L 817 208 L 817 206 L 816 205 L 816 204 L 815 203 L 814 203 L 813 202 L 807 202 L 805 204 "></path>
        <path fill="none" stroke="#fa00fa" stroke-width="3" d="M 1050 471 L 1049 472 L 1048 472 L 1047 473 L 1046 473 L 1041 478 L 1041 480 L 1042 481 L 1042 482 L 1043 483 L 1043 484 L 1044 485 L 1045 485 L 1046 486 L 1047 486 L 1048 487 L 1049 487 L 1050 488 L 1053 488 L 1054 487 L 1054 472 L 1053 472 L 1052 471 L 1050 471 L 1049 472 "></path>
        <path fill="none" stroke="#fa00fa" stroke-width="3" d="M 1049 201 L 1048 202 L 1046 202 L 1045 203 L 1044 203 L 1042 205 L 1042 209 L 1043 210 L 1043 213 L 1046 216 L 1049 216 L 1050 217 L 1054 217 L 1054 201 L 1049 201 L 1048 202 "></path>
        <path fill="none" stroke="#fa00fa" stroke-width="3" d="M 122 82 L 121 83 L 117 83 L 114 86 L 114 88 L 113 89 L 113 94 L 114 95 L 116 95 L 117 96 L 122 96 L 123 95 L 125 95 L 126 94 L 126 93 L 128 91 L 128 88 L 127 87 L 127 86 L 124 83 L 123 83 L 122 82 L 121 83 "></path>
        <path fill="none" stroke="#fa00fa" stroke-width="3" d="M 146 744 L 142 748 L 142 752 L 146 756 L 147 756 L 148 757 L 152 757 L 153 756 L 154 756 L 158 752 L 158 749 L 157 748 L 157 747 L 155 745 L 152 745 L 151 744 L 146 744 L 142 748 "></path>
        <path fill="none" stroke="#fa00fa" stroke-width="3" d="M 238 652 L 235 655 L 235 656 L 234 657 L 234 659 L 233 660 L 233 664 L 234 665 L 234 666 L 235 666 L 236 667 L 237 667 L 238 668 L 242 668 L 245 665 L 245 654 L 243 652 L 238 652 L 235 655 "></path>
        <path fill="none" stroke="#fa00fa" stroke-width="3" d="M 118 684 L 115 687 L 114 687 L 114 688 L 112 690 L 112 692 L 113 693 L 113 694 L 114 695 L 115 695 L 117 697 L 123 697 L 124 696 L 126 696 L 127 695 L 127 694 L 128 693 L 128 689 L 127 688 L 127 687 L 126 686 L 125 686 L 124 685 L 123 685 L 122 684 L 118 684 L 115 687 "></path>
        <path fill="none" stroke="#fa00fa" stroke-width="3" d="M 270 592 L 269 593 L 266 593 L 263 596 L 263 602 L 264 603 L 264 604 L 267 607 L 272 607 L 273 606 L 274 606 L 275 605 L 275 604 L 276 603 L 276 596 L 275 595 L 275 594 L 274 593 L 271 593 L 270 592 L 269 593 "></path>
        <path fill="none" stroke="#fa00fa" stroke-width="3" d="M 498 1 L 498 3 L 499 4 L 499 5 L 501 7 L 502 7 L 503 8 L 504 8 L 505 9 L 507 9 L 508 10 L 511 10 L 512 9 L 515 9 L 516 8 L 517 8 L 521 4 L 521 3 L 522 2 L 522 1 L 498 1 L 498 3 "></path>
        <path fill="none" stroke="#fa00fa" stroke-width="3" d="M 417 773 L 415 775 L 414 775 L 412 777 L 412 781 L 418 787 L 422 787 L 424 785 L 424 784 L 427 781 L 427 777 L 424 774 L 423 774 L 422 773 L 417 773 L 415 775 "></path>
        <path fill="none" stroke="#fa00fa" stroke-width="3" d="M 298 22 L 297 23 L 296 23 L 296 24 L 295 25 L 295 26 L 294 27 L 294 30 L 293 31 L 294 32 L 294 34 L 298 38 L 302 38 L 303 37 L 304 37 L 306 35 L 306 28 L 305 27 L 305 26 L 304 25 L 304 24 L 303 23 L 300 23 L 299 22 L 298 22 L 297 23 "></path>
        <path fill="none" stroke="#fa00fa" stroke-width="3" d="M 56 442 L 53 445 L 53 447 L 54 448 L 54 450 L 55 451 L 55 453 L 56 454 L 56 455 L 58 457 L 62 457 L 66 453 L 66 451 L 67 450 L 67 447 L 63 443 L 62 443 L 61 442 L 56 442 L 53 445 "></path>
        <path fill="none" stroke="#fa00fa" stroke-width="3" d="M 899 802 L 898 803 L 897 803 L 893 807 L 893 808 L 891 810 L 891 811 L 890 812 L 890 813 L 891 814 L 908 814 L 908 812 L 907 811 L 907 808 L 906 807 L 906 805 L 904 803 L 903 803 L 902 802 L 901 803 L 900 803 L 899 802 L 898 803 "></path>
        <path fill="none" stroke="#fa00fa" stroke-width="3" d="M 988 803 L 987 804 L 985 804 L 985 805 L 982 808 L 982 810 L 985 813 L 985 814 L 991 814 L 992 813 L 993 814 L 997 814 L 999 812 L 999 807 L 995 803 L 988 803 L 987 804 "></path>
        <path fill="none" stroke="#fa00fa" stroke-width="3" d="M 1049 532 L 1048 533 L 1046 533 L 1043 536 L 1043 541 L 1044 542 L 1044 543 L 1045 544 L 1045 545 L 1046 546 L 1047 546 L 1050 549 L 1054 549 L 1054 533 L 1053 532 L 1049 532 L 1048 533 "></path>
        <path fill="none" stroke="#fa00fa" stroke-width="3" d="M 148 145 L 147 146 L 146 146 L 144 148 L 143 148 L 142 149 L 142 150 L 141 151 L 141 152 L 142 153 L 142 154 L 144 156 L 145 156 L 146 157 L 154 157 L 158 153 L 158 150 L 157 150 L 156 149 L 156 148 L 154 146 L 152 146 L 151 145 L 148 145 L 147 146 "></path>
        <path fill="none" stroke="#fa00fa" stroke-width="3" d="M 26 475 L 25 476 L 24 476 L 22 478 L 22 479 L 21 480 L 22 481 L 22 482 L 26 486 L 28 486 L 29 487 L 31 487 L 32 486 L 35 486 L 37 484 L 37 482 L 38 481 L 38 479 L 34 475 L 26 475 L 25 476 "></path>
        <path fill="none" stroke="#fa00fa" stroke-width="3" d="M 118 323 L 116 325 L 116 326 L 115 327 L 114 327 L 114 328 L 113 329 L 113 330 L 112 331 L 113 332 L 113 334 L 115 336 L 116 336 L 117 337 L 122 337 L 123 336 L 125 336 L 126 335 L 126 327 L 125 326 L 125 325 L 124 324 L 123 324 L 122 323 L 118 323 L 116 325 "></path>
        <path fill="none" stroke="#fa00fa" stroke-width="3" d="M 837 803 L 835 805 L 834 805 L 832 807 L 832 809 L 831 810 L 831 813 L 832 814 L 848 814 L 849 813 L 849 810 L 848 809 L 848 808 L 847 808 L 846 807 L 845 807 L 842 804 L 841 804 L 840 803 L 837 803 L 835 805 "></path>
        <path fill="none" stroke="#fa00fa" stroke-width="3" d="M 989 652 L 988 653 L 985 653 L 984 654 L 984 655 L 983 656 L 983 660 L 984 661 L 984 662 L 985 663 L 985 664 L 986 665 L 987 665 L 988 666 L 992 666 L 995 663 L 995 662 L 996 661 L 996 660 L 997 659 L 997 656 L 996 655 L 996 654 L 995 653 L 992 653 L 991 652 L 989 652 L 988 653 "></path>
        <path fill="none" stroke="#fa00fa" stroke-width="3" d="M 418 742 L 415 745 L 414 745 L 413 746 L 413 750 L 414 751 L 414 752 L 415 752 L 416 753 L 416 754 L 418 756 L 422 756 L 428 750 L 428 747 L 425 744 L 424 744 L 422 742 L 418 742 L 415 745 "></path>
        <path fill="none" stroke="#fa00fa" stroke-width="3" d="M 208 172 L 207 173 L 206 173 L 205 174 L 205 175 L 204 176 L 204 181 L 205 182 L 205 185 L 206 186 L 207 186 L 208 187 L 212 187 L 215 184 L 215 183 L 216 182 L 216 175 L 214 173 L 213 173 L 212 172 L 208 172 L 207 173 "></path>
        <path fill="none" stroke="#fa00fa" stroke-width="3" d="M 1018 505 L 1017 506 L 1015 506 L 1014 507 L 1013 507 L 1012 508 L 1012 513 L 1013 514 L 1013 515 L 1016 518 L 1023 518 L 1026 515 L 1026 513 L 1027 512 L 1027 511 L 1026 510 L 1026 508 L 1025 508 L 1024 507 L 1023 507 L 1022 506 L 1020 506 L 1019 505 L 1018 505 L 1017 506 "></path>
        <path fill="none" stroke="#fa00fa" stroke-width="3" d="M 837 473 L 836 474 L 835 474 L 835 475 L 834 476 L 834 485 L 835 486 L 836 486 L 838 488 L 841 488 L 842 487 L 843 487 L 846 484 L 846 482 L 845 481 L 845 475 L 844 474 L 843 474 L 842 473 L 837 473 L 836 474 "></path>
        <path fill="none" stroke="#fa00fa" stroke-width="3" d="M 537 743 L 536 744 L 535 744 L 533 746 L 533 751 L 534 752 L 534 753 L 536 755 L 537 755 L 538 756 L 542 756 L 544 754 L 545 754 L 546 753 L 546 751 L 547 750 L 547 746 L 545 744 L 544 744 L 543 743 L 537 743 L 536 744 "></path>
        <path fill="none" stroke="#fa00fa" stroke-width="3" d="M 227 1 L 227 3 L 230 6 L 231 6 L 232 7 L 233 7 L 234 8 L 241 8 L 242 9 L 243 8 L 246 8 L 247 7 L 248 7 L 249 6 L 250 6 L 251 5 L 251 4 L 252 3 L 252 2 L 251 1 L 227 1 L 227 3 "></path>
        <path fill="none" stroke="#fa00fa" stroke-width="3" d="M 629 804 L 628 805 L 626 805 L 625 806 L 624 806 L 622 808 L 622 809 L 621 810 L 621 811 L 620 812 L 620 814 L 638 814 L 639 813 L 639 809 L 636 806 L 635 806 L 634 805 L 631 805 L 630 804 L 629 804 L 628 805 "></path>
        <path fill="none" stroke="#fa00fa" stroke-width="3" d="M 1050 173 L 1049 174 L 1047 174 L 1046 175 L 1045 175 L 1045 176 L 1043 178 L 1043 180 L 1044 181 L 1044 185 L 1048 189 L 1049 189 L 1050 190 L 1053 190 L 1054 189 L 1054 174 L 1052 174 L 1051 173 L 1050 173 L 1049 174 "></path>
        <path fill="none" stroke="#fa00fa" stroke-width="3" d="M 809 113 L 805 117 L 805 120 L 804 121 L 804 123 L 803 124 L 804 125 L 804 126 L 805 127 L 806 127 L 807 128 L 813 128 L 814 127 L 815 127 L 815 126 L 816 125 L 816 118 L 814 116 L 814 115 L 813 115 L 811 113 L 809 113 L 805 117 "></path>
        <path fill="none" stroke="#fa00fa" stroke-width="3" d="M 349 1 L 349 3 L 354 8 L 356 8 L 357 9 L 364 9 L 365 8 L 367 8 L 369 6 L 370 6 L 371 5 L 371 4 L 372 3 L 372 1 L 349 1 L 349 3 "></path>
        <path fill="none" stroke="#fa00fa" stroke-width="3" d="M 58 804 L 57 805 L 54 805 L 52 807 L 52 808 L 51 809 L 51 811 L 52 812 L 52 813 L 53 814 L 67 814 L 68 813 L 68 812 L 69 811 L 69 809 L 66 806 L 64 806 L 62 804 L 58 804 L 57 805 "></path>
        <path fill="none" stroke="#fa00fa" stroke-width="3" d="M 898 534 L 894 538 L 894 539 L 893 540 L 893 543 L 896 546 L 896 547 L 897 548 L 902 548 L 903 547 L 904 547 L 905 546 L 905 545 L 906 544 L 906 537 L 904 535 L 903 535 L 902 534 L 898 534 L 894 538 "></path>
        <path fill="none" stroke="#fa00fa" stroke-width="3" d="M 297 84 L 297 85 L 293 89 L 293 90 L 292 91 L 293 92 L 293 93 L 294 94 L 294 95 L 295 95 L 296 96 L 297 96 L 298 97 L 302 97 L 303 96 L 304 96 L 307 93 L 307 92 L 308 91 L 308 90 L 306 88 L 306 87 L 305 87 L 304 86 L 304 85 L 303 84 L 297 84 L 297 85 "></path>
        <path fill="none" stroke="#fa00fa" stroke-width="3" d="M 961 593 L 960 594 L 957 594 L 956 595 L 955 595 L 953 597 L 953 602 L 958 607 L 962 607 L 965 604 L 965 603 L 967 601 L 967 598 L 966 597 L 966 596 L 965 595 L 964 595 L 962 593 L 961 593 L 960 594 "></path>
        <path fill="none" stroke="#fa00fa" stroke-width="3" d="M 1018 174 L 1017 175 L 1017 176 L 1014 179 L 1014 180 L 1013 181 L 1013 184 L 1014 185 L 1014 186 L 1015 186 L 1017 188 L 1023 188 L 1026 185 L 1026 180 L 1025 179 L 1025 178 L 1024 177 L 1024 176 L 1022 174 L 1018 174 L 1017 175 "></path>
        <path fill="none" stroke="#fa00fa" stroke-width="3" d="M 897 622 L 896 623 L 895 623 L 893 625 L 893 626 L 892 627 L 892 629 L 895 632 L 896 632 L 898 634 L 902 634 L 905 631 L 906 631 L 907 630 L 907 625 L 905 623 L 904 623 L 903 622 L 897 622 L 896 623 "></path>
        <path fill="none" stroke="#fa00fa" stroke-width="3" d="M 620 1 L 620 3 L 621 4 L 621 5 L 623 7 L 624 7 L 625 8 L 626 8 L 627 9 L 634 9 L 635 8 L 636 8 L 637 7 L 638 7 L 640 5 L 640 4 L 642 2 L 641 1 L 620 1 L 620 3 "></path>
        <path fill="none" stroke="#fa00fa" stroke-width="3" d="M 237 113 L 236 114 L 236 115 L 235 116 L 235 121 L 236 122 L 236 123 L 235 124 L 236 125 L 236 126 L 237 126 L 238 127 L 243 127 L 246 124 L 246 117 L 244 115 L 244 114 L 243 113 L 237 113 L 236 114 "></path>
        <path fill="none" stroke="#fa00fa" stroke-width="3" d="M 2 770 L 1 771 L 1 791 L 4 791 L 7 788 L 7 786 L 9 784 L 9 783 L 10 782 L 10 780 L 9 779 L 9 778 L 8 777 L 8 775 L 4 771 L 3 771 L 2 770 L 1 771 "></path>
        <path fill="none" stroke="#fa00fa" stroke-width="3" d="M 686 56 L 684 58 L 684 59 L 683 60 L 683 62 L 684 63 L 684 65 L 687 68 L 692 68 L 693 67 L 694 67 L 696 65 L 696 63 L 697 62 L 697 60 L 696 59 L 696 58 L 695 57 L 692 57 L 691 56 L 686 56 L 684 58 "></path>
        <path fill="none" stroke="#fa00fa" stroke-width="3" d="M 147 503 L 146 504 L 145 504 L 144 505 L 144 506 L 143 507 L 143 509 L 144 510 L 144 511 L 149 516 L 151 516 L 153 514 L 154 514 L 154 513 L 157 510 L 157 508 L 156 507 L 156 505 L 155 505 L 154 504 L 153 504 L 152 503 L 147 503 L 146 504 "></path>
        <path fill="none" stroke="#fa00fa" stroke-width="3" d="M 2 290 L 1 291 L 1 308 L 2 309 L 3 309 L 4 308 L 5 308 L 6 307 L 7 307 L 7 306 L 8 305 L 8 304 L 9 303 L 9 302 L 10 301 L 10 299 L 9 298 L 9 296 L 8 295 L 8 294 L 5 291 L 4 291 L 3 290 L 2 290 L 1 291 "></path>
        <path fill="none" stroke="#fa00fa" stroke-width="3" d="M 2 650 L 1 651 L 1 669 L 4 669 L 7 666 L 7 665 L 9 663 L 9 662 L 10 661 L 10 660 L 9 659 L 9 656 L 7 654 L 7 653 L 5 651 L 4 651 L 3 650 L 2 650 L 1 651 "></path>
        <path fill="none" stroke="#fa00fa" stroke-width="3" d="M 90 82 L 89 83 L 86 83 L 85 84 L 85 85 L 84 86 L 84 91 L 85 92 L 85 93 L 86 94 L 87 94 L 89 96 L 90 96 L 92 94 L 93 94 L 95 92 L 95 91 L 96 90 L 96 86 L 93 83 L 91 83 L 90 82 L 89 83 "></path>
        <path fill="none" stroke="#fa00fa" stroke-width="3" d="M 1038 1 L 1038 4 L 1039 4 L 1043 8 L 1044 8 L 1045 9 L 1046 9 L 1047 10 L 1049 10 L 1050 11 L 1052 11 L 1053 10 L 1054 10 L 1054 1 L 1038 1 L 1038 4 "></path>
        <path fill="none" stroke="#fa00fa" stroke-width="3" d="M 717 25 L 716 26 L 716 27 L 714 29 L 714 30 L 713 31 L 713 33 L 716 36 L 722 36 L 724 34 L 725 34 L 727 32 L 727 31 L 726 30 L 726 29 L 724 27 L 724 26 L 723 25 L 717 25 L 716 26 "></path>
        <path fill="none" stroke="#fa00fa" stroke-width="3" d="M 2 231 L 1 232 L 1 249 L 4 249 L 7 246 L 7 244 L 8 243 L 7 242 L 7 241 L 8 240 L 8 234 L 6 232 L 4 232 L 3 231 L 2 231 L 1 232 "></path>
        <path fill="none" stroke="#fa00fa" stroke-width="3" d="M 1050 23 L 1049 24 L 1046 24 L 1044 26 L 1044 27 L 1043 28 L 1043 29 L 1044 30 L 1044 32 L 1046 34 L 1048 34 L 1050 36 L 1051 35 L 1054 35 L 1054 26 L 1052 24 L 1051 24 L 1050 23 L 1049 24 "></path>
        <path fill="none" stroke="#fa00fa" stroke-width="3" d="M 1 381 L 1 398 L 2 399 L 3 399 L 4 398 L 5 398 L 7 396 L 7 395 L 8 394 L 8 388 L 7 387 L 7 385 L 5 383 L 5 382 L 4 382 L 3 381 L 1 381 L 1 398 "></path>
        <path fill="none" stroke="#fa00fa" stroke-width="3" d="M 2 800 L 1 801 L 1 814 L 9 814 L 10 813 L 10 808 L 8 806 L 8 805 L 4 801 L 3 801 L 2 800 L 1 801 "></path>
    </g>
</svg>
