<svg xmlns="http://www.w3.org/2000/svg" xmlns:xlink="http://www.w3.org/1999/xlink" version="1.1" x="0" y="0" width="1056px" height="816px">
    <g id="rootLayer" transform="translate(0.000000, 0.000000)">
        <path fill="none" stroke="#fa00fa" stroke-width="3" d="M 583 241 L 584 242 L 582 244 L 581 243 L 580 243 L 579 244 L 577 242 L 577 243 L 576 244 L 575 243 L 572 243 L 571 244 L 570 244 L 569 245 L 568 245 L 567 244 L 567 243 L 566 244 L 564 242 L 563 242 L 562 243 L 561 243 L 560 244 L 559 244 L 558 243 L 557 243 L 556 242 L 555 242 L 553 244 L 552 243 L 550 243 L 549 244 L 547 244 L 546 243 L 545 244 L 544 243 L 537 243 L 536 242 L 535 242 L 534 243 L 533 243 L 532 242 L 528 242 L 527 243 L 526 243 L 525 244 L 524 243 L 519 243 L 518 244 L 517 243 L 515 243 L 514 242 L 513 243 L 511 243 L 510 242 L 509 242 L 508 243 L 503 243 L 502 244 L 501 243 L 500 243 L 499 244 L 498 243 L 496 243 L 495 242 L 493 244 L 492 243 L 490 243 L 489 244 L 488 243 L 487 244 L 486 244 L 485 245 L 485 246 L 484 247 L 484 248 L 483 249 L 483 250 L 484 251 L 484 252 L 483 253 L 483 254 L 484 255 L 483 256 L 483 259 L 482 260 L 483 259 L 484 260 L 484 261 L 483 262 L 484 263 L 484 266 L 483 267 L 483 274 L 484 274 L 485 275 L 484 276 L 485 277 L 483 279 L 483 283 L 484 284 L 484 285 L 483 286 L 484 287 L 483 288 L 482 288 L 484 290 L 483 291 L 482 291 L 482 292 L 481 293 L 479 293 L 478 294 L 477 293 L 476 293 L 475 292 L 474 292 L 473 293 L 466 293 L 465 294 L 464 293 L 463 293 L 462 294 L 461 293 L 459 293 L 458 292 L 459 293 L 458 294 L 457 294 L 456 293 L 456 292 L 454 294 L 453 294 L 452 293 L 450 293 L 449 294 L 448 293 L 445 293 L 444 292 L 443 292 L 444 292 L 445 293 L 444 294 L 440 294 L 439 293 L 440 292 L 441 292 L 440 292 L 439 293 L 438 293 L 437 294 L 436 294 L 435 293 L 435 294 L 434 295 L 432 293 L 432 294 L 431 295 L 429 293 L 428 293 L 427 292 L 424 292 L 423 293 L 422 292 L 421 293 L 420 293 L 419 292 L 416 295 L 416 298 L 415 299 L 416 300 L 415 301 L 415 305 L 416 306 L 416 308 L 415 309 L 415 317 L 416 318 L 415 319 L 416 320 L 415 321 L 416 322 L 416 325 L 415 326 L 415 335 L 416 336 L 416 337 L 415 338 L 416 339 L 414 341 L 415 342 L 415 344 L 416 345 L 416 346 L 415 347 L 416 348 L 416 349 L 415 350 L 415 351 L 416 352 L 415 353 L 415 356 L 416 357 L 416 360 L 415 361 L 416 362 L 415 363 L 415 366 L 416 367 L 416 368 L 415 369 L 416 370 L 416 372 L 415 373 L 415 374 L 416 375 L 415 376 L 415 377 L 416 378 L 416 382 L 414 384 L 415 385 L 413 387 L 412 386 L 411 387 L 410 386 L 409 387 L 407 387 L 406 388 L 405 387 L 404 388 L 403 387 L 396 387 L 395 386 L 394 387 L 393 386 L 392 387 L 388 387 L 387 388 L 386 387 L 386 386 L 381 386 L 380 387 L 375 387 L 374 388 L 369 388 L 368 387 L 365 387 L 364 388 L 363 387 L 362 388 L 361 388 L 361 389 L 362 390 L 361 391 L 362 392 L 361 393 L 361 395 L 362 396 L 361 397 L 361 404 L 360 405 L 360 407 L 361 408 L 361 411 L 360 412 L 360 413 L 361 414 L 361 418 L 362 419 L 360 421 L 361 422 L 361 423 L 360 424 L 361 425 L 361 427 L 362 428 L 362 429 L 361 430 L 362 431 L 362 435 L 361 436 L 362 436 L 363 437 L 362 438 L 361 438 L 361 443 L 362 444 L 360 446 L 361 447 L 360 448 L 361 449 L 361 454 L 362 455 L 361 456 L 362 457 L 360 459 L 360 460 L 361 461 L 361 462 L 362 463 L 361 464 L 360 464 L 361 465 L 360 466 L 358 466 L 357 467 L 356 467 L 355 466 L 354 467 L 353 466 L 353 465 L 352 465 L 351 464 L 350 465 L 349 464 L 348 465 L 347 464 L 346 464 L 344 466 L 343 465 L 342 466 L 341 465 L 338 465 L 337 466 L 335 464 L 334 465 L 333 464 L 333 465 L 332 466 L 331 465 L 330 466 L 329 465 L 328 466 L 327 466 L 326 465 L 321 465 L 320 464 L 319 464 L 318 465 L 316 465 L 315 464 L 314 465 L 302 465 L 301 464 L 300 464 L 299 465 L 298 465 L 297 466 L 296 466 L 295 465 L 294 466 L 292 466 L 291 465 L 288 465 L 288 466 L 287 467 L 286 466 L 286 465 L 282 465 L 281 466 L 280 465 L 280 464 L 281 463 L 279 463 L 278 462 L 280 460 L 281 460 L 282 461 L 281 460 L 281 458 L 282 457 L 282 456 L 279 453 L 280 452 L 281 452 L 280 452 L 278 450 L 279 449 L 277 447 L 277 446 L 276 446 L 274 444 L 273 444 L 272 443 L 272 441 L 273 440 L 274 440 L 273 440 L 271 442 L 271 443 L 273 445 L 272 446 L 271 446 L 270 445 L 268 445 L 267 446 L 266 446 L 263 443 L 263 442 L 264 441 L 265 441 L 266 440 L 268 442 L 267 441 L 268 440 L 269 440 L 269 438 L 270 437 L 270 436 L 271 435 L 272 436 L 272 438 L 273 437 L 274 438 L 272 436 L 272 434 L 273 433 L 274 434 L 274 435 L 275 435 L 276 436 L 276 438 L 277 439 L 277 440 L 277 439 L 278 438 L 277 437 L 277 436 L 278 435 L 279 436 L 280 436 L 279 435 L 279 434 L 278 433 L 278 432 L 275 432 L 274 431 L 275 430 L 276 430 L 275 430 L 274 431 L 273 431 L 272 430 L 273 429 L 272 430 L 271 429 L 270 429 L 269 428 L 270 427 L 272 427 L 273 426 L 274 427 L 273 426 L 274 425 L 273 426 L 271 424 L 272 423 L 274 423 L 275 422 L 274 421 L 275 420 L 276 420 L 275 420 L 274 419 L 274 418 L 273 418 L 272 417 L 273 416 L 274 416 L 274 414 L 273 413 L 274 412 L 275 412 L 274 411 L 275 410 L 274 410 L 273 409 L 274 408 L 274 404 L 273 403 L 274 402 L 274 400 L 275 399 L 275 398 L 274 397 L 275 396 L 275 394 L 276 393 L 275 393 L 274 392 L 275 391 L 275 388 L 276 387 L 275 386 L 274 386 L 273 385 L 275 383 L 275 378 L 274 379 L 272 377 L 273 376 L 272 375 L 272 374 L 273 373 L 274 374 L 274 372 L 276 370 L 275 370 L 274 371 L 273 370 L 273 368 L 275 366 L 275 365 L 274 364 L 276 362 L 274 360 L 275 359 L 276 359 L 275 358 L 275 356 L 274 355 L 273 355 L 272 354 L 271 355 L 270 354 L 269 355 L 268 355 L 268 356 L 267 357 L 266 356 L 263 356 L 262 355 L 262 354 L 261 354 L 260 355 L 260 356 L 259 357 L 257 357 L 257 358 L 256 359 L 254 359 L 253 358 L 254 357 L 255 357 L 255 356 L 254 356 L 253 357 L 251 355 L 250 356 L 249 355 L 249 354 L 247 354 L 246 355 L 245 354 L 244 354 L 243 353 L 241 355 L 240 354 L 239 355 L 238 355 L 237 354 L 235 354 L 234 353 L 234 354 L 233 355 L 232 355 L 231 354 L 232 353 L 231 353 L 229 355 L 226 355 L 226 356 L 225 357 L 224 356 L 224 357 L 225 358 L 223 360 L 222 359 L 222 358 L 220 358 L 219 357 L 219 356 L 218 355 L 217 355 L 216 354 L 216 356 L 215 357 L 213 355 L 214 354 L 210 354 L 209 355 L 206 355 L 205 356 L 203 356 L 202 355 L 203 354 L 204 354 L 199 354 L 198 355 L 197 354 L 196 354 L 196 355 L 197 355 L 198 356 L 196 358 L 194 356 L 194 355 L 193 354 L 192 354 L 191 353 L 188 353 L 187 352 L 184 352 L 183 353 L 182 352 L 181 353 L 180 352 L 179 353 L 178 352 L 176 352 L 175 353 L 174 352 L 173 353 L 172 353 L 170 355 L 169 355 L 169 356 L 168 357 L 169 358 L 169 362 L 170 363 L 169 364 L 169 368 L 171 370 L 171 371 L 170 372 L 170 377 L 171 378 L 171 379 L 170 380 L 169 379 L 169 380 L 170 381 L 169 382 L 170 383 L 169 384 L 170 384 L 171 385 L 171 386 L 170 387 L 169 386 L 169 388 L 168 389 L 169 390 L 169 392 L 170 393 L 170 394 L 171 395 L 171 397 L 170 398 L 170 400 L 169 401 L 170 402 L 169 403 L 169 408 L 170 409 L 169 410 L 168 410 L 170 412 L 169 413 L 169 414 L 169 413 L 170 412 L 171 412 L 172 413 L 171 414 L 171 415 L 170 416 L 170 419 L 169 420 L 170 421 L 170 422 L 169 423 L 169 424 L 170 425 L 170 428 L 169 429 L 169 430 L 168 431 L 169 432 L 169 439 L 170 440 L 170 441 L 169 442 L 169 443 L 170 444 L 172 444 L 173 445 L 175 445 L 176 446 L 175 447 L 172 447 L 171 446 L 169 448 L 169 450 L 173 454 L 172 455 L 171 455 L 171 456 L 173 456 L 175 458 L 175 459 L 176 459 L 177 458 L 178 459 L 178 461 L 178 457 L 179 456 L 180 456 L 181 457 L 180 458 L 180 459 L 180 458 L 181 457 L 183 457 L 182 457 L 181 456 L 181 455 L 182 454 L 181 455 L 180 454 L 180 453 L 179 452 L 180 451 L 179 452 L 177 450 L 178 449 L 181 449 L 182 450 L 182 452 L 183 451 L 184 452 L 184 454 L 185 453 L 186 454 L 186 455 L 187 456 L 188 456 L 188 455 L 189 454 L 188 453 L 189 452 L 190 452 L 191 453 L 191 454 L 191 453 L 192 452 L 193 453 L 193 455 L 192 456 L 191 456 L 190 457 L 191 456 L 192 456 L 193 457 L 193 458 L 194 457 L 195 458 L 197 456 L 199 458 L 198 459 L 199 458 L 200 458 L 201 457 L 202 457 L 201 456 L 202 455 L 201 456 L 200 455 L 200 454 L 201 453 L 203 453 L 204 454 L 204 456 L 206 458 L 207 457 L 206 456 L 205 456 L 204 455 L 206 453 L 208 455 L 211 455 L 212 456 L 213 456 L 214 457 L 215 457 L 216 456 L 217 457 L 218 456 L 220 458 L 220 457 L 221 456 L 222 457 L 222 456 L 223 455 L 224 456 L 225 456 L 226 455 L 227 455 L 228 456 L 227 457 L 227 458 L 226 459 L 225 458 L 224 459 L 224 460 L 225 459 L 226 460 L 226 459 L 227 458 L 231 458 L 231 457 L 232 456 L 233 457 L 233 459 L 232 460 L 233 459 L 233 457 L 234 456 L 235 456 L 236 455 L 237 456 L 236 455 L 237 454 L 238 454 L 240 456 L 239 455 L 240 454 L 242 454 L 242 453 L 243 452 L 242 451 L 242 449 L 243 448 L 245 450 L 245 452 L 246 453 L 248 453 L 251 456 L 252 455 L 253 456 L 253 457 L 254 458 L 255 458 L 256 457 L 255 456 L 257 454 L 258 454 L 259 455 L 258 456 L 260 458 L 261 458 L 262 457 L 263 458 L 264 458 L 266 456 L 267 456 L 269 458 L 268 459 L 269 458 L 270 459 L 272 457 L 272 455 L 273 454 L 274 454 L 275 455 L 274 456 L 274 457 L 275 458 L 274 457 L 275 456 L 275 455 L 276 454 L 277 454 L 279 456 L 279 457 L 278 458 L 277 457 L 278 458 L 277 459 L 278 460 L 277 461 L 276 461 L 277 462 L 276 463 L 276 464 L 274 466 L 272 464 L 275 467 L 275 468 L 274 469 L 273 468 L 272 468 L 271 467 L 271 469 L 270 470 L 269 470 L 269 473 L 268 474 L 267 473 L 267 475 L 268 474 L 269 475 L 270 475 L 271 476 L 270 477 L 269 477 L 269 478 L 268 479 L 266 477 L 266 479 L 268 481 L 268 484 L 267 485 L 267 486 L 268 486 L 269 487 L 269 488 L 267 490 L 268 491 L 266 493 L 268 495 L 267 496 L 268 497 L 268 499 L 269 499 L 270 500 L 270 501 L 269 502 L 268 501 L 267 501 L 268 502 L 267 503 L 268 502 L 269 503 L 269 505 L 268 506 L 267 506 L 269 506 L 270 507 L 269 508 L 268 508 L 266 510 L 267 511 L 266 512 L 265 512 L 266 512 L 267 513 L 266 514 L 269 514 L 270 515 L 270 516 L 269 517 L 268 517 L 268 518 L 270 516 L 271 517 L 272 517 L 273 518 L 272 519 L 274 521 L 273 522 L 274 523 L 271 526 L 270 525 L 270 523 L 268 523 L 269 524 L 269 525 L 268 526 L 268 527 L 267 528 L 268 529 L 267 530 L 267 531 L 268 532 L 268 535 L 269 536 L 267 538 L 266 538 L 268 540 L 269 539 L 270 540 L 270 541 L 269 542 L 267 542 L 268 543 L 267 544 L 266 544 L 267 544 L 268 545 L 268 547 L 269 547 L 270 546 L 271 546 L 272 547 L 270 549 L 270 552 L 268 554 L 269 555 L 269 556 L 268 557 L 268 560 L 270 562 L 270 563 L 269 564 L 268 564 L 269 565 L 268 566 L 267 566 L 271 566 L 273 568 L 272 569 L 273 568 L 274 568 L 275 567 L 277 567 L 281 571 L 280 572 L 282 572 L 282 571 L 283 570 L 286 570 L 287 571 L 285 573 L 287 575 L 288 575 L 287 574 L 289 572 L 292 572 L 293 571 L 294 572 L 295 571 L 296 571 L 297 572 L 298 572 L 299 571 L 300 571 L 301 572 L 307 572 L 307 571 L 308 570 L 309 570 L 310 571 L 309 572 L 310 571 L 314 571 L 315 572 L 316 571 L 317 572 L 319 572 L 320 571 L 323 571 L 324 572 L 325 572 L 326 571 L 328 571 L 329 572 L 330 571 L 333 571 L 334 572 L 335 571 L 336 572 L 337 571 L 340 571 L 341 570 L 342 571 L 342 572 L 343 572 L 344 571 L 345 571 L 346 570 L 347 570 L 348 571 L 348 570 L 349 569 L 350 569 L 351 568 L 352 569 L 352 570 L 353 569 L 354 569 L 355 570 L 355 571 L 356 570 L 358 570 L 358 569 L 359 568 L 360 569 L 360 570 L 361 571 L 363 571 L 364 570 L 365 570 L 365 569 L 366 568 L 368 570 L 367 569 L 367 568 L 368 567 L 369 568 L 370 568 L 371 567 L 371 566 L 370 565 L 371 564 L 372 564 L 372 563 L 371 563 L 370 564 L 368 562 L 369 561 L 370 561 L 370 560 L 369 559 L 369 557 L 370 556 L 371 556 L 370 556 L 369 555 L 369 554 L 370 553 L 371 553 L 371 552 L 370 552 L 369 551 L 369 550 L 372 547 L 371 546 L 372 545 L 372 544 L 373 543 L 374 543 L 373 543 L 372 542 L 372 541 L 373 540 L 374 541 L 376 539 L 378 541 L 380 541 L 381 540 L 382 541 L 386 541 L 387 540 L 388 541 L 389 540 L 390 540 L 391 541 L 395 541 L 396 542 L 397 541 L 399 541 L 400 540 L 401 541 L 402 541 L 403 542 L 404 542 L 405 541 L 406 541 L 407 540 L 408 541 L 408 542 L 410 542 L 411 541 L 413 543 L 414 542 L 415 543 L 415 545 L 416 546 L 415 547 L 415 548 L 416 549 L 416 550 L 415 551 L 414 550 L 415 551 L 414 552 L 416 554 L 415 555 L 415 556 L 416 557 L 417 556 L 418 556 L 419 557 L 416 560 L 417 561 L 416 562 L 416 564 L 417 565 L 417 568 L 416 569 L 415 569 L 417 571 L 415 573 L 415 576 L 416 577 L 416 578 L 415 579 L 414 578 L 416 580 L 416 581 L 415 582 L 415 583 L 416 584 L 415 585 L 416 586 L 416 587 L 415 588 L 415 589 L 416 589 L 417 590 L 417 591 L 416 592 L 415 592 L 415 593 L 414 594 L 414 595 L 415 596 L 416 596 L 417 597 L 416 598 L 415 598 L 416 599 L 415 600 L 416 600 L 417 601 L 417 602 L 416 603 L 415 602 L 416 603 L 415 604 L 416 605 L 415 606 L 416 606 L 418 608 L 418 609 L 417 610 L 416 609 L 417 610 L 417 611 L 417 610 L 418 609 L 419 609 L 421 611 L 422 610 L 423 610 L 424 611 L 424 612 L 423 613 L 425 611 L 426 612 L 426 613 L 425 614 L 426 614 L 427 613 L 428 613 L 429 614 L 428 613 L 429 612 L 430 612 L 431 613 L 431 614 L 431 613 L 432 612 L 433 613 L 434 612 L 435 613 L 440 613 L 440 612 L 441 611 L 442 611 L 443 612 L 443 613 L 444 613 L 445 614 L 446 613 L 447 614 L 447 613 L 448 612 L 449 612 L 450 611 L 451 612 L 451 614 L 452 614 L 453 613 L 457 613 L 458 614 L 459 614 L 459 613 L 460 612 L 461 613 L 464 613 L 463 613 L 462 612 L 463 611 L 466 611 L 467 612 L 466 613 L 467 612 L 468 613 L 469 613 L 470 612 L 471 612 L 472 611 L 473 611 L 474 612 L 473 613 L 474 614 L 475 613 L 475 612 L 476 611 L 478 613 L 479 613 L 480 612 L 481 613 L 482 612 L 483 613 L 485 613 L 486 614 L 488 614 L 489 613 L 489 612 L 490 611 L 491 612 L 491 613 L 493 615 L 494 614 L 495 615 L 495 616 L 495 615 L 497 613 L 498 613 L 499 612 L 501 614 L 501 612 L 502 611 L 503 611 L 504 612 L 504 614 L 507 617 L 506 618 L 507 617 L 508 618 L 508 619 L 509 620 L 509 619 L 507 617 L 510 614 L 511 614 L 512 615 L 512 616 L 511 617 L 513 615 L 513 613 L 514 612 L 515 612 L 514 611 L 515 610 L 517 610 L 518 611 L 518 612 L 516 614 L 517 615 L 516 614 L 518 612 L 520 614 L 519 613 L 519 612 L 521 610 L 523 610 L 523 606 L 522 606 L 522 607 L 521 608 L 519 608 L 518 607 L 519 606 L 520 606 L 520 605 L 521 604 L 522 604 L 522 597 L 523 596 L 522 596 L 521 595 L 522 594 L 523 594 L 523 593 L 522 592 L 523 591 L 524 591 L 522 589 L 523 588 L 522 589 L 521 588 L 521 587 L 522 586 L 522 585 L 524 583 L 524 582 L 525 581 L 527 581 L 529 579 L 527 579 L 526 578 L 526 577 L 525 576 L 524 576 L 523 575 L 523 574 L 522 573 L 522 565 L 521 564 L 522 563 L 523 563 L 524 564 L 525 563 L 526 563 L 527 562 L 528 563 L 529 562 L 531 564 L 533 564 L 534 563 L 535 564 L 540 564 L 541 563 L 547 563 L 548 564 L 549 564 L 551 562 L 552 563 L 556 563 L 557 562 L 558 563 L 561 563 L 562 564 L 563 564 L 564 565 L 564 568 L 563 569 L 563 571 L 564 572 L 562 574 L 563 575 L 562 576 L 558 576 L 557 577 L 556 576 L 554 576 L 555 577 L 553 579 L 551 579 L 550 578 L 548 580 L 547 580 L 548 581 L 547 582 L 548 581 L 549 582 L 550 582 L 551 583 L 550 584 L 551 583 L 552 583 L 554 585 L 554 586 L 554 585 L 555 584 L 554 585 L 552 583 L 552 582 L 553 581 L 554 581 L 555 582 L 556 582 L 558 584 L 557 585 L 557 586 L 557 585 L 558 584 L 559 585 L 559 584 L 560 583 L 561 584 L 562 583 L 562 582 L 563 581 L 564 582 L 564 584 L 565 585 L 564 586 L 562 586 L 563 587 L 564 587 L 565 588 L 564 589 L 564 591 L 564 590 L 565 589 L 566 590 L 568 588 L 569 589 L 570 588 L 572 588 L 573 587 L 574 588 L 574 590 L 574 589 L 575 588 L 576 588 L 577 587 L 579 589 L 579 587 L 580 586 L 581 587 L 584 587 L 585 586 L 586 587 L 586 589 L 588 587 L 587 588 L 586 587 L 586 586 L 587 585 L 589 585 L 591 587 L 590 588 L 591 588 L 591 587 L 592 586 L 593 587 L 594 586 L 596 588 L 595 589 L 595 590 L 598 587 L 599 588 L 599 589 L 598 590 L 600 590 L 601 589 L 602 590 L 602 592 L 603 591 L 604 592 L 606 592 L 607 591 L 606 590 L 607 589 L 608 589 L 608 588 L 609 587 L 610 587 L 611 586 L 612 587 L 614 587 L 615 588 L 616 588 L 617 587 L 618 588 L 619 588 L 620 587 L 621 588 L 622 588 L 622 587 L 623 586 L 624 586 L 625 587 L 626 586 L 627 586 L 628 587 L 628 588 L 631 588 L 632 589 L 633 588 L 635 588 L 636 589 L 637 588 L 638 588 L 639 587 L 640 588 L 644 588 L 645 587 L 649 587 L 650 588 L 651 587 L 652 587 L 653 588 L 660 588 L 661 587 L 662 588 L 664 588 L 665 589 L 666 588 L 667 588 L 668 587 L 668 586 L 669 585 L 670 585 L 669 584 L 671 582 L 671 580 L 672 579 L 671 578 L 671 577 L 672 576 L 673 576 L 674 575 L 675 575 L 675 574 L 674 573 L 674 572 L 675 571 L 676 572 L 679 572 L 680 571 L 678 569 L 677 569 L 676 568 L 677 567 L 675 565 L 674 566 L 673 565 L 673 564 L 674 563 L 673 562 L 674 561 L 675 561 L 675 560 L 672 563 L 670 563 L 668 561 L 669 560 L 670 560 L 669 560 L 668 559 L 668 558 L 667 557 L 668 556 L 667 555 L 668 554 L 668 553 L 669 552 L 670 553 L 672 553 L 673 554 L 672 553 L 674 551 L 674 548 L 675 547 L 676 548 L 677 548 L 675 546 L 675 544 L 676 543 L 675 543 L 674 544 L 673 543 L 672 544 L 671 543 L 671 541 L 670 541 L 669 540 L 670 539 L 671 539 L 672 538 L 673 539 L 673 540 L 674 540 L 674 538 L 672 536 L 671 536 L 670 535 L 672 533 L 674 533 L 673 532 L 674 531 L 675 531 L 677 529 L 676 528 L 678 526 L 679 526 L 679 525 L 680 524 L 681 525 L 681 526 L 682 525 L 681 525 L 680 524 L 681 523 L 683 523 L 683 522 L 684 521 L 685 522 L 685 524 L 684 525 L 685 525 L 686 526 L 688 524 L 689 524 L 688 523 L 689 522 L 690 522 L 691 523 L 691 525 L 692 526 L 690 528 L 687 528 L 686 529 L 685 528 L 686 529 L 684 531 L 684 532 L 684 531 L 685 530 L 686 530 L 687 531 L 687 532 L 688 531 L 689 532 L 688 531 L 691 528 L 694 531 L 695 531 L 694 531 L 692 529 L 693 528 L 692 529 L 691 528 L 691 527 L 693 525 L 694 526 L 693 525 L 694 524 L 695 524 L 697 522 L 698 523 L 699 523 L 698 522 L 698 521 L 697 520 L 698 519 L 699 519 L 700 518 L 702 520 L 705 520 L 707 522 L 707 521 L 708 520 L 709 521 L 710 521 L 711 522 L 710 521 L 710 520 L 712 518 L 713 518 L 714 519 L 713 520 L 714 520 L 714 519 L 713 518 L 715 516 L 715 512 L 714 511 L 714 510 L 715 509 L 714 508 L 714 507 L 715 506 L 716 506 L 716 505 L 715 504 L 715 503 L 714 502 L 715 501 L 715 498 L 714 497 L 715 496 L 716 496 L 716 495 L 715 496 L 714 495 L 714 494 L 713 493 L 714 492 L 715 492 L 716 491 L 714 489 L 715 488 L 715 485 L 714 484 L 714 483 L 715 482 L 716 483 L 716 482 L 715 481 L 715 475 L 716 474 L 715 474 L 714 473 L 715 472 L 715 470 L 714 469 L 714 465 L 715 464 L 713 462 L 714 461 L 714 459 L 715 458 L 715 455 L 716 454 L 715 453 L 715 452 L 714 451 L 714 450 L 715 449 L 714 448 L 715 447 L 716 447 L 714 445 L 715 444 L 715 442 L 714 442 L 713 441 L 714 440 L 715 440 L 715 435 L 714 434 L 715 433 L 714 432 L 715 431 L 715 429 L 714 428 L 714 424 L 715 423 L 715 422 L 716 421 L 715 420 L 715 419 L 714 418 L 714 417 L 713 416 L 713 415 L 712 414 L 711 415 L 710 414 L 709 414 L 708 413 L 707 414 L 707 415 L 706 416 L 705 415 L 705 414 L 704 415 L 702 415 L 701 414 L 700 415 L 699 414 L 697 414 L 696 413 L 695 414 L 694 414 L 693 413 L 692 414 L 686 414 L 685 413 L 684 414 L 678 414 L 677 415 L 676 415 L 675 414 L 674 414 L 673 415 L 672 414 L 672 413 L 671 414 L 670 413 L 669 414 L 661 414 L 660 413 L 659 413 L 658 414 L 657 413 L 653 413 L 652 414 L 651 414 L 650 413 L 649 414 L 648 413 L 645 413 L 644 414 L 642 414 L 641 413 L 640 414 L 637 414 L 636 413 L 635 413 L 634 414 L 633 414 L 632 413 L 631 414 L 630 413 L 629 413 L 628 414 L 627 413 L 626 413 L 625 412 L 624 412 L 623 411 L 623 410 L 624 409 L 623 409 L 622 408 L 623 407 L 623 406 L 624 405 L 624 404 L 625 403 L 627 403 L 628 402 L 629 403 L 631 403 L 632 402 L 633 402 L 634 403 L 639 403 L 640 402 L 641 403 L 642 402 L 643 403 L 644 402 L 647 402 L 648 403 L 651 403 L 652 402 L 653 403 L 654 403 L 655 402 L 656 403 L 657 402 L 658 402 L 659 403 L 660 403 L 661 402 L 663 402 L 664 403 L 665 402 L 666 402 L 667 403 L 668 402 L 669 403 L 670 403 L 671 402 L 672 403 L 675 403 L 676 402 L 678 402 L 679 401 L 680 401 L 681 402 L 682 402 L 683 401 L 684 402 L 685 402 L 686 403 L 687 402 L 688 403 L 689 402 L 691 402 L 692 401 L 693 402 L 694 401 L 695 401 L 695 400 L 697 398 L 696 397 L 696 396 L 695 395 L 698 392 L 697 391 L 698 390 L 696 388 L 696 387 L 695 386 L 696 385 L 696 384 L 697 383 L 699 385 L 698 384 L 698 382 L 697 382 L 696 383 L 695 383 L 694 382 L 696 380 L 697 380 L 696 379 L 696 378 L 699 375 L 698 374 L 698 372 L 697 372 L 695 370 L 697 368 L 698 368 L 697 367 L 696 368 L 695 367 L 695 366 L 696 365 L 697 365 L 697 363 L 696 362 L 697 361 L 697 360 L 696 360 L 695 359 L 696 358 L 698 358 L 698 357 L 696 357 L 695 356 L 695 354 L 696 353 L 697 354 L 697 355 L 697 354 L 695 352 L 696 351 L 697 351 L 696 350 L 696 349 L 697 348 L 698 348 L 699 349 L 699 351 L 700 350 L 699 349 L 700 348 L 700 345 L 702 343 L 703 343 L 704 344 L 704 345 L 705 346 L 704 347 L 705 348 L 706 347 L 707 348 L 708 348 L 709 347 L 710 348 L 710 347 L 711 346 L 712 347 L 713 346 L 712 346 L 711 345 L 711 346 L 710 347 L 709 346 L 708 347 L 707 346 L 707 344 L 706 343 L 707 342 L 707 341 L 708 340 L 709 340 L 710 339 L 713 339 L 712 338 L 713 337 L 716 337 L 716 336 L 715 337 L 714 337 L 713 336 L 713 335 L 712 335 L 711 334 L 710 334 L 707 331 L 707 330 L 706 331 L 706 332 L 705 333 L 705 334 L 705 333 L 706 332 L 707 333 L 707 334 L 708 333 L 709 334 L 709 335 L 708 336 L 708 338 L 709 339 L 707 341 L 706 341 L 705 340 L 705 339 L 706 338 L 705 338 L 704 337 L 704 336 L 703 335 L 703 334 L 701 334 L 700 333 L 701 332 L 700 331 L 701 330 L 700 329 L 699 330 L 698 329 L 698 327 L 700 325 L 701 325 L 702 324 L 703 325 L 704 325 L 702 323 L 702 321 L 701 320 L 701 319 L 702 318 L 703 319 L 704 318 L 705 319 L 706 319 L 707 318 L 707 317 L 706 316 L 705 317 L 704 316 L 704 313 L 705 312 L 704 313 L 703 313 L 704 314 L 703 315 L 702 315 L 701 314 L 701 315 L 700 316 L 700 317 L 699 318 L 697 316 L 697 314 L 698 313 L 699 313 L 697 313 L 696 312 L 697 311 L 696 310 L 698 308 L 699 309 L 699 310 L 700 310 L 698 308 L 699 307 L 702 307 L 703 308 L 703 310 L 703 305 L 703 306 L 702 307 L 698 307 L 696 305 L 696 304 L 695 304 L 694 303 L 695 302 L 697 302 L 698 303 L 698 304 L 699 304 L 697 302 L 697 300 L 699 298 L 700 299 L 700 300 L 701 301 L 703 299 L 704 300 L 703 299 L 703 298 L 703 299 L 702 300 L 701 300 L 699 298 L 700 297 L 698 297 L 697 296 L 699 294 L 700 294 L 699 294 L 698 293 L 698 289 L 699 288 L 700 289 L 699 288 L 700 287 L 701 287 L 703 289 L 703 288 L 704 287 L 703 288 L 702 288 L 701 287 L 703 285 L 705 285 L 702 285 L 701 284 L 702 283 L 701 282 L 700 282 L 699 281 L 698 281 L 699 281 L 700 282 L 700 283 L 699 284 L 698 283 L 699 284 L 699 285 L 698 286 L 696 284 L 695 285 L 694 285 L 693 284 L 693 283 L 691 281 L 692 280 L 691 281 L 690 280 L 689 280 L 690 280 L 691 281 L 689 283 L 686 283 L 691 283 L 692 284 L 691 285 L 689 285 L 688 286 L 689 285 L 690 286 L 692 286 L 693 287 L 693 288 L 692 289 L 693 288 L 694 289 L 694 290 L 696 288 L 697 289 L 697 290 L 698 291 L 698 293 L 697 294 L 695 294 L 694 293 L 695 292 L 694 293 L 692 293 L 691 294 L 690 294 L 691 294 L 692 295 L 690 297 L 689 296 L 688 297 L 687 297 L 686 296 L 687 295 L 685 293 L 684 293 L 683 292 L 682 292 L 681 291 L 682 290 L 681 289 L 681 288 L 682 287 L 681 286 L 681 285 L 680 284 L 681 283 L 680 283 L 679 284 L 679 286 L 680 286 L 681 287 L 681 288 L 680 289 L 679 289 L 676 286 L 676 285 L 677 284 L 676 284 L 675 285 L 673 283 L 674 282 L 674 281 L 675 280 L 675 279 L 676 278 L 678 278 L 673 278 L 672 277 L 671 277 L 672 278 L 671 279 L 670 279 L 669 280 L 668 280 L 668 281 L 667 282 L 667 286 L 666 287 L 666 288 L 667 289 L 667 291 L 666 292 L 665 292 L 665 294 L 664 295 L 663 294 L 662 294 L 661 295 L 658 295 L 657 296 L 656 295 L 655 295 L 654 296 L 653 296 L 652 295 L 647 295 L 646 296 L 645 295 L 632 295 L 630 297 L 629 296 L 626 296 L 625 295 L 624 296 L 623 295 L 622 296 L 621 295 L 620 296 L 619 295 L 611 295 L 610 294 L 608 296 L 607 295 L 605 295 L 604 296 L 603 295 L 600 295 L 599 294 L 598 294 L 597 295 L 596 294 L 595 294 L 594 295 L 593 294 L 592 294 L 590 292 L 590 286 L 589 285 L 590 284 L 591 284 L 591 283 L 590 282 L 590 279 L 589 278 L 589 275 L 590 274 L 590 273 L 591 272 L 590 271 L 591 270 L 591 269 L 590 268 L 590 264 L 589 264 L 588 263 L 588 262 L 589 261 L 591 261 L 590 260 L 591 259 L 590 258 L 591 257 L 590 256 L 590 255 L 591 254 L 590 253 L 590 250 L 591 249 L 589 251 L 588 250 L 588 248 L 589 247 L 589 244 L 588 243 L 585 243 L 584 242 L 584 241 "></path>
        <path fill="none" stroke="#fa00fa" stroke-width="3" d="M 178 191 L 176 193 L 174 193 L 175 194 L 173 196 L 173 197 L 174 198 L 174 201 L 173 202 L 173 205 L 174 206 L 174 207 L 173 208 L 175 210 L 174 211 L 174 212 L 175 213 L 173 215 L 173 216 L 174 216 L 175 217 L 173 219 L 173 220 L 174 221 L 174 223 L 173 224 L 173 227 L 172 228 L 174 230 L 174 231 L 173 232 L 173 234 L 174 235 L 173 236 L 173 237 L 174 238 L 174 239 L 173 240 L 172 239 L 173 240 L 172 241 L 173 242 L 173 244 L 174 245 L 173 246 L 173 247 L 175 249 L 174 250 L 173 250 L 173 251 L 172 252 L 172 253 L 173 254 L 173 258 L 174 259 L 174 261 L 173 262 L 173 263 L 174 264 L 173 265 L 173 283 L 174 284 L 174 285 L 173 286 L 174 287 L 173 288 L 173 291 L 174 292 L 174 293 L 173 294 L 173 298 L 175 300 L 177 300 L 178 299 L 181 299 L 183 297 L 184 298 L 184 299 L 187 299 L 188 298 L 189 299 L 191 299 L 193 297 L 195 299 L 196 298 L 197 299 L 198 299 L 199 298 L 200 298 L 201 299 L 202 298 L 204 298 L 205 297 L 206 298 L 206 297 L 207 296 L 208 296 L 209 297 L 208 298 L 208 300 L 209 301 L 211 301 L 212 302 L 211 303 L 211 305 L 213 307 L 213 308 L 215 308 L 216 309 L 218 307 L 218 306 L 217 305 L 218 304 L 218 303 L 219 302 L 220 303 L 218 301 L 219 300 L 218 301 L 217 300 L 217 299 L 216 299 L 215 298 L 216 297 L 219 297 L 221 299 L 223 299 L 224 298 L 225 298 L 226 297 L 227 298 L 227 299 L 228 298 L 230 298 L 231 299 L 232 298 L 233 299 L 234 299 L 235 298 L 243 298 L 244 299 L 245 299 L 244 299 L 243 298 L 244 297 L 246 297 L 247 298 L 248 297 L 249 297 L 250 298 L 249 299 L 250 298 L 250 296 L 251 295 L 252 296 L 253 295 L 254 296 L 254 298 L 254 294 L 255 293 L 254 294 L 253 293 L 253 292 L 254 291 L 253 290 L 253 289 L 252 289 L 251 288 L 253 286 L 254 286 L 255 285 L 256 286 L 258 286 L 259 285 L 260 286 L 260 287 L 261 288 L 260 289 L 261 290 L 260 291 L 260 292 L 257 295 L 260 292 L 261 293 L 261 295 L 262 295 L 264 297 L 265 296 L 266 297 L 266 296 L 267 295 L 268 296 L 269 296 L 270 297 L 272 297 L 273 296 L 274 297 L 276 295 L 277 296 L 276 295 L 276 294 L 275 293 L 276 292 L 275 292 L 273 290 L 274 289 L 275 289 L 276 290 L 275 289 L 276 288 L 276 286 L 274 288 L 273 287 L 273 286 L 275 284 L 276 284 L 276 283 L 274 281 L 275 280 L 276 280 L 277 279 L 276 278 L 277 277 L 278 277 L 277 276 L 276 277 L 275 277 L 274 276 L 280 270 L 279 271 L 278 271 L 277 270 L 277 269 L 278 268 L 277 268 L 276 269 L 275 268 L 274 268 L 273 269 L 271 267 L 274 264 L 276 266 L 276 265 L 275 264 L 275 263 L 276 262 L 277 262 L 276 262 L 275 263 L 274 262 L 274 260 L 275 259 L 276 260 L 278 260 L 276 260 L 272 256 L 273 255 L 274 255 L 275 256 L 276 255 L 277 256 L 277 257 L 278 258 L 278 256 L 277 256 L 276 255 L 278 253 L 276 251 L 277 250 L 278 250 L 277 250 L 275 248 L 276 247 L 277 247 L 278 248 L 278 247 L 277 246 L 278 245 L 279 245 L 279 244 L 280 243 L 280 242 L 282 240 L 283 241 L 284 240 L 281 237 L 281 236 L 280 236 L 279 235 L 280 234 L 280 231 L 281 230 L 280 229 L 280 228 L 279 227 L 280 226 L 279 225 L 280 224 L 279 223 L 279 221 L 280 220 L 280 218 L 281 217 L 281 215 L 282 214 L 284 214 L 286 216 L 287 216 L 288 217 L 287 218 L 288 217 L 290 217 L 291 218 L 292 217 L 293 217 L 293 216 L 294 215 L 294 213 L 291 210 L 286 210 L 285 211 L 285 212 L 283 214 L 282 214 L 280 212 L 281 211 L 280 212 L 279 211 L 279 210 L 280 209 L 280 207 L 279 206 L 281 204 L 280 203 L 280 202 L 279 201 L 280 200 L 280 198 L 281 197 L 280 198 L 279 197 L 279 194 L 278 194 L 277 193 L 276 194 L 275 193 L 275 192 L 274 192 L 273 193 L 272 192 L 271 193 L 270 192 L 269 193 L 268 192 L 267 192 L 266 193 L 265 193 L 264 192 L 264 193 L 263 194 L 261 192 L 260 192 L 259 191 L 257 193 L 256 193 L 254 191 L 252 193 L 250 191 L 249 192 L 247 192 L 246 193 L 245 192 L 245 193 L 244 194 L 243 193 L 242 194 L 241 193 L 239 193 L 238 194 L 237 194 L 236 193 L 237 194 L 236 195 L 235 195 L 234 194 L 233 194 L 231 196 L 230 196 L 229 195 L 230 194 L 229 194 L 228 193 L 228 192 L 226 194 L 225 193 L 224 194 L 223 193 L 222 194 L 221 193 L 221 192 L 220 192 L 219 193 L 218 192 L 217 193 L 214 193 L 213 192 L 212 192 L 212 193 L 211 194 L 210 193 L 210 195 L 209 196 L 207 196 L 206 195 L 207 194 L 206 194 L 205 193 L 205 192 L 204 192 L 203 191 L 202 192 L 201 192 L 200 193 L 200 194 L 199 195 L 197 195 L 195 193 L 192 193 L 191 194 L 189 192 L 188 192 L 187 193 L 186 192 L 186 191 L 184 191 L 183 192 L 182 191 L 181 191 L 180 192 L 179 191 "></path>
        <path fill="none" stroke="#fa00fa" stroke-width="3" d="M 341 28 L 341 29 L 340 30 L 339 29 L 339 31 L 338 32 L 337 31 L 337 30 L 336 31 L 335 30 L 334 31 L 333 30 L 329 30 L 327 32 L 325 32 L 324 31 L 324 30 L 323 31 L 322 30 L 321 31 L 320 30 L 315 30 L 314 31 L 313 31 L 312 30 L 313 31 L 312 32 L 310 32 L 310 33 L 309 34 L 309 41 L 310 42 L 310 44 L 309 45 L 311 43 L 312 43 L 313 44 L 311 46 L 311 47 L 312 48 L 311 49 L 310 49 L 311 50 L 311 51 L 310 52 L 310 54 L 312 56 L 310 58 L 309 58 L 308 59 L 309 59 L 310 60 L 308 62 L 310 64 L 310 68 L 309 69 L 309 71 L 313 71 L 314 72 L 314 73 L 313 74 L 312 73 L 311 73 L 310 74 L 309 74 L 310 75 L 310 76 L 309 77 L 308 76 L 308 78 L 309 79 L 309 80 L 310 81 L 310 82 L 309 83 L 310 84 L 310 85 L 309 86 L 310 87 L 310 88 L 309 89 L 309 91 L 310 92 L 309 93 L 310 94 L 309 95 L 309 97 L 310 97 L 312 99 L 311 100 L 311 102 L 310 103 L 310 107 L 309 108 L 308 108 L 308 109 L 309 109 L 310 110 L 310 111 L 309 112 L 310 113 L 310 114 L 309 115 L 310 116 L 309 117 L 310 118 L 310 121 L 311 122 L 311 123 L 310 124 L 309 123 L 310 124 L 309 125 L 310 126 L 309 127 L 311 129 L 310 130 L 309 130 L 310 131 L 310 132 L 311 133 L 310 134 L 311 133 L 312 134 L 312 136 L 314 136 L 315 135 L 316 136 L 317 136 L 317 135 L 318 134 L 319 135 L 319 136 L 319 135 L 321 133 L 322 133 L 324 135 L 323 136 L 324 135 L 325 136 L 326 136 L 327 135 L 328 136 L 331 136 L 332 137 L 333 137 L 333 135 L 334 134 L 335 135 L 335 137 L 335 136 L 336 135 L 338 137 L 339 137 L 340 136 L 341 137 L 342 136 L 343 137 L 344 136 L 346 136 L 347 135 L 348 135 L 349 136 L 350 135 L 351 136 L 352 136 L 353 135 L 356 135 L 357 136 L 358 136 L 357 135 L 358 134 L 359 134 L 363 138 L 363 137 L 362 136 L 363 135 L 364 135 L 365 136 L 368 136 L 369 135 L 370 135 L 371 134 L 373 134 L 374 135 L 373 136 L 372 136 L 374 136 L 374 133 L 373 134 L 371 132 L 372 131 L 372 129 L 373 128 L 374 128 L 375 127 L 376 128 L 377 127 L 376 126 L 376 125 L 375 125 L 374 124 L 374 125 L 373 126 L 372 125 L 372 124 L 372 125 L 373 126 L 372 127 L 369 127 L 368 128 L 368 129 L 367 130 L 367 131 L 366 132 L 363 129 L 361 129 L 359 127 L 360 128 L 359 129 L 360 130 L 358 132 L 356 132 L 355 131 L 356 130 L 357 130 L 357 129 L 356 130 L 355 130 L 354 131 L 352 129 L 350 129 L 349 128 L 348 128 L 347 129 L 346 129 L 345 130 L 343 130 L 342 129 L 340 131 L 339 130 L 339 127 L 340 126 L 340 125 L 342 123 L 342 122 L 343 121 L 343 120 L 342 121 L 341 121 L 339 119 L 339 121 L 338 122 L 337 122 L 336 121 L 338 123 L 338 124 L 340 126 L 339 127 L 338 127 L 337 128 L 336 127 L 336 128 L 337 128 L 338 129 L 337 130 L 336 130 L 335 131 L 334 131 L 333 130 L 332 130 L 331 129 L 330 130 L 330 131 L 329 132 L 328 131 L 328 130 L 326 128 L 325 128 L 324 127 L 323 127 L 325 129 L 325 130 L 324 131 L 323 130 L 320 130 L 319 129 L 320 128 L 321 128 L 320 127 L 320 128 L 319 129 L 318 128 L 317 128 L 316 127 L 319 124 L 321 124 L 321 123 L 320 122 L 320 121 L 321 120 L 323 120 L 324 119 L 325 119 L 326 120 L 325 121 L 326 120 L 329 123 L 328 124 L 328 125 L 327 126 L 328 127 L 330 125 L 331 126 L 331 125 L 332 124 L 333 125 L 333 124 L 332 124 L 331 123 L 331 122 L 332 121 L 333 122 L 331 120 L 333 118 L 334 119 L 333 118 L 334 117 L 333 116 L 332 116 L 330 114 L 330 113 L 329 112 L 330 111 L 329 110 L 330 109 L 329 110 L 328 109 L 328 108 L 329 107 L 328 106 L 328 105 L 330 103 L 331 104 L 331 107 L 332 106 L 332 104 L 333 103 L 335 105 L 334 106 L 335 105 L 336 106 L 336 108 L 338 110 L 337 111 L 339 109 L 338 110 L 337 109 L 337 108 L 336 107 L 338 105 L 339 105 L 340 106 L 339 107 L 340 106 L 337 103 L 341 99 L 343 99 L 344 100 L 344 95 L 345 94 L 346 95 L 346 96 L 347 96 L 347 93 L 348 92 L 349 93 L 349 95 L 350 96 L 350 97 L 350 96 L 351 95 L 353 95 L 354 96 L 354 97 L 355 98 L 354 99 L 353 99 L 354 100 L 354 99 L 355 98 L 356 99 L 357 99 L 356 98 L 355 98 L 354 97 L 355 96 L 355 95 L 354 94 L 353 94 L 352 93 L 356 89 L 357 90 L 358 89 L 359 90 L 360 89 L 361 89 L 360 88 L 357 88 L 354 91 L 353 91 L 352 90 L 352 89 L 354 87 L 353 86 L 351 86 L 350 87 L 347 84 L 349 82 L 350 82 L 351 81 L 352 81 L 353 82 L 352 83 L 353 82 L 351 80 L 351 79 L 353 77 L 356 80 L 356 79 L 355 78 L 356 77 L 356 76 L 355 77 L 354 76 L 354 75 L 354 76 L 353 77 L 352 77 L 351 76 L 352 75 L 352 74 L 351 73 L 352 72 L 354 72 L 352 70 L 352 69 L 353 68 L 353 67 L 352 66 L 352 65 L 351 65 L 351 66 L 350 67 L 349 66 L 349 65 L 348 65 L 347 64 L 348 63 L 347 64 L 346 63 L 346 61 L 347 60 L 346 60 L 346 63 L 345 64 L 344 64 L 345 64 L 346 65 L 347 65 L 348 66 L 349 66 L 350 67 L 351 67 L 352 68 L 352 70 L 353 71 L 352 72 L 351 72 L 350 71 L 349 72 L 347 72 L 345 70 L 347 68 L 345 70 L 345 71 L 344 72 L 345 73 L 344 74 L 343 74 L 342 75 L 341 75 L 343 75 L 345 73 L 347 75 L 346 76 L 347 75 L 348 75 L 349 76 L 349 77 L 348 78 L 350 78 L 351 79 L 351 80 L 349 82 L 348 81 L 345 81 L 346 81 L 347 82 L 346 83 L 345 83 L 346 83 L 347 84 L 344 87 L 342 85 L 343 86 L 343 87 L 342 88 L 343 87 L 344 88 L 344 90 L 343 91 L 342 90 L 341 91 L 339 89 L 338 90 L 337 89 L 337 91 L 335 93 L 334 92 L 335 93 L 336 93 L 337 94 L 336 95 L 335 95 L 336 95 L 337 96 L 338 95 L 336 93 L 338 91 L 341 94 L 341 96 L 338 99 L 337 98 L 336 99 L 335 98 L 335 97 L 335 101 L 333 103 L 331 101 L 331 100 L 329 100 L 328 99 L 329 98 L 333 98 L 332 98 L 330 96 L 332 94 L 332 92 L 332 93 L 331 94 L 330 93 L 330 92 L 330 94 L 331 95 L 329 97 L 327 95 L 326 96 L 324 94 L 325 95 L 325 96 L 324 97 L 323 96 L 323 97 L 324 97 L 325 96 L 326 96 L 327 95 L 329 97 L 328 98 L 328 99 L 329 100 L 329 101 L 328 102 L 327 102 L 326 103 L 327 103 L 328 104 L 328 106 L 329 107 L 328 108 L 326 108 L 326 110 L 329 110 L 330 111 L 329 112 L 327 112 L 328 113 L 329 112 L 330 113 L 330 115 L 331 115 L 332 116 L 332 117 L 331 118 L 329 118 L 328 117 L 328 116 L 327 116 L 327 118 L 328 117 L 329 118 L 331 118 L 332 119 L 330 121 L 327 121 L 325 119 L 325 117 L 324 116 L 324 117 L 323 118 L 323 119 L 322 120 L 321 119 L 321 113 L 324 110 L 323 109 L 324 110 L 321 113 L 319 111 L 318 111 L 317 110 L 317 108 L 318 107 L 321 110 L 318 107 L 319 106 L 318 105 L 317 106 L 315 104 L 315 103 L 316 102 L 317 103 L 316 102 L 317 101 L 316 102 L 315 102 L 314 101 L 316 99 L 315 99 L 314 98 L 315 97 L 315 94 L 316 93 L 315 94 L 314 94 L 313 93 L 315 91 L 315 89 L 314 88 L 314 87 L 315 86 L 316 86 L 317 87 L 317 88 L 318 88 L 318 87 L 317 87 L 316 86 L 319 83 L 320 84 L 319 83 L 320 82 L 319 82 L 319 83 L 317 85 L 316 84 L 315 84 L 314 83 L 314 81 L 315 80 L 314 80 L 313 79 L 313 78 L 314 77 L 315 77 L 316 76 L 317 76 L 316 75 L 316 74 L 317 73 L 318 73 L 321 76 L 320 77 L 320 78 L 321 79 L 321 78 L 320 77 L 321 76 L 322 76 L 323 77 L 322 76 L 323 75 L 322 75 L 321 74 L 321 73 L 323 71 L 327 71 L 328 70 L 329 71 L 330 70 L 331 70 L 332 71 L 331 72 L 333 70 L 335 72 L 336 72 L 337 73 L 336 72 L 335 72 L 334 71 L 334 69 L 333 69 L 332 68 L 333 67 L 332 66 L 332 65 L 333 64 L 334 65 L 335 64 L 336 65 L 337 64 L 336 65 L 335 64 L 331 64 L 330 63 L 331 64 L 330 65 L 330 66 L 329 67 L 329 69 L 327 71 L 325 69 L 326 68 L 326 66 L 325 66 L 323 64 L 324 63 L 325 63 L 325 62 L 323 64 L 322 63 L 322 60 L 321 59 L 322 60 L 322 63 L 325 66 L 324 67 L 325 66 L 326 67 L 326 68 L 325 69 L 323 69 L 323 70 L 322 71 L 321 70 L 319 72 L 316 69 L 317 68 L 314 65 L 315 64 L 317 64 L 318 65 L 317 64 L 318 63 L 318 61 L 319 60 L 318 59 L 318 58 L 316 56 L 317 55 L 317 54 L 318 53 L 319 53 L 321 51 L 322 52 L 322 51 L 321 50 L 322 49 L 321 50 L 320 49 L 320 46 L 319 47 L 318 46 L 318 45 L 319 44 L 318 44 L 318 45 L 317 46 L 316 46 L 315 47 L 313 45 L 315 43 L 316 44 L 315 43 L 315 42 L 316 41 L 317 42 L 318 42 L 319 41 L 318 40 L 319 39 L 318 40 L 316 40 L 315 39 L 316 38 L 317 38 L 320 35 L 322 35 L 323 36 L 326 36 L 327 35 L 329 37 L 328 38 L 327 38 L 326 39 L 324 39 L 325 39 L 327 41 L 328 40 L 329 41 L 331 39 L 333 41 L 332 42 L 331 42 L 332 43 L 331 44 L 332 45 L 332 43 L 334 41 L 336 43 L 337 42 L 338 43 L 337 42 L 338 41 L 336 43 L 334 41 L 333 41 L 332 40 L 332 39 L 333 38 L 336 38 L 337 39 L 337 38 L 338 37 L 339 38 L 339 39 L 340 40 L 340 42 L 340 41 L 341 40 L 342 40 L 345 43 L 344 44 L 346 44 L 347 45 L 348 45 L 349 44 L 348 43 L 347 43 L 346 42 L 346 41 L 343 41 L 342 40 L 341 40 L 340 39 L 340 38 L 341 37 L 342 38 L 341 37 L 340 37 L 339 36 L 340 35 L 341 35 L 341 34 L 342 33 L 345 36 L 344 37 L 346 37 L 347 36 L 348 37 L 348 39 L 349 38 L 350 38 L 351 37 L 352 38 L 352 36 L 354 34 L 355 34 L 356 35 L 356 36 L 355 37 L 357 35 L 358 35 L 359 36 L 358 37 L 359 37 L 360 36 L 361 37 L 361 38 L 360 39 L 359 39 L 359 40 L 358 41 L 357 40 L 357 41 L 356 42 L 357 43 L 357 44 L 358 45 L 359 44 L 360 44 L 360 43 L 359 43 L 358 42 L 359 41 L 360 41 L 361 40 L 362 40 L 363 41 L 362 42 L 363 41 L 364 41 L 364 40 L 365 39 L 366 39 L 365 39 L 364 38 L 365 37 L 363 37 L 362 36 L 364 34 L 365 35 L 366 35 L 367 36 L 367 37 L 369 37 L 370 38 L 370 39 L 368 41 L 367 41 L 368 42 L 368 43 L 369 44 L 368 45 L 369 44 L 372 44 L 373 45 L 373 47 L 373 44 L 372 44 L 371 43 L 374 40 L 375 40 L 376 39 L 377 40 L 379 38 L 382 38 L 379 38 L 378 37 L 379 36 L 378 35 L 380 33 L 381 33 L 382 34 L 381 35 L 381 36 L 383 36 L 383 33 L 384 32 L 387 32 L 388 33 L 388 35 L 388 33 L 389 32 L 391 32 L 394 35 L 394 36 L 395 37 L 396 36 L 397 37 L 398 37 L 401 40 L 403 38 L 404 39 L 404 40 L 405 40 L 406 41 L 405 42 L 405 43 L 407 43 L 406 42 L 407 41 L 408 41 L 410 43 L 408 45 L 407 45 L 408 46 L 409 45 L 411 47 L 410 48 L 409 48 L 410 49 L 410 51 L 411 52 L 411 53 L 410 54 L 408 52 L 408 51 L 408 52 L 409 53 L 408 54 L 409 55 L 408 56 L 407 56 L 407 60 L 406 61 L 404 59 L 403 59 L 402 58 L 403 59 L 402 60 L 403 60 L 404 61 L 405 60 L 406 61 L 408 61 L 409 62 L 408 63 L 405 63 L 405 64 L 406 63 L 408 65 L 409 64 L 409 61 L 410 60 L 412 62 L 411 63 L 411 66 L 409 68 L 408 67 L 407 67 L 406 66 L 407 67 L 407 68 L 406 69 L 404 67 L 404 66 L 403 65 L 402 66 L 401 65 L 400 65 L 399 64 L 400 63 L 399 64 L 399 65 L 398 66 L 397 65 L 397 62 L 398 61 L 400 61 L 400 60 L 399 61 L 398 61 L 397 60 L 397 59 L 399 57 L 398 56 L 398 54 L 397 53 L 398 52 L 399 52 L 398 51 L 398 50 L 397 49 L 399 47 L 400 47 L 401 48 L 401 49 L 402 50 L 401 49 L 401 48 L 402 47 L 399 47 L 398 48 L 397 48 L 396 47 L 396 46 L 395 45 L 396 44 L 394 44 L 393 43 L 394 42 L 393 41 L 394 40 L 393 41 L 392 40 L 392 39 L 393 38 L 392 37 L 392 36 L 391 37 L 390 37 L 392 37 L 393 38 L 392 39 L 391 39 L 391 41 L 390 42 L 388 40 L 389 39 L 388 38 L 387 39 L 387 41 L 388 40 L 389 41 L 389 42 L 388 43 L 385 43 L 386 43 L 387 44 L 387 45 L 387 44 L 388 43 L 389 43 L 390 44 L 391 43 L 393 43 L 394 44 L 393 45 L 394 46 L 394 48 L 395 47 L 397 49 L 395 51 L 394 50 L 393 50 L 393 51 L 392 52 L 391 52 L 389 54 L 388 54 L 388 55 L 389 54 L 390 55 L 390 56 L 391 56 L 392 55 L 393 55 L 395 57 L 394 58 L 393 58 L 393 59 L 391 61 L 391 63 L 392 64 L 390 66 L 391 67 L 390 68 L 390 69 L 388 71 L 386 69 L 386 68 L 385 67 L 386 66 L 384 66 L 383 65 L 383 64 L 382 63 L 383 64 L 382 65 L 381 65 L 380 64 L 380 63 L 380 64 L 378 66 L 378 67 L 378 66 L 379 65 L 380 66 L 380 68 L 378 70 L 376 68 L 375 68 L 375 69 L 376 68 L 378 70 L 377 71 L 377 72 L 378 71 L 380 73 L 381 73 L 380 72 L 380 71 L 379 71 L 378 70 L 380 68 L 381 69 L 380 68 L 380 66 L 381 65 L 382 65 L 383 66 L 384 66 L 385 67 L 384 68 L 385 69 L 385 70 L 386 70 L 387 71 L 386 72 L 387 71 L 388 72 L 390 72 L 391 71 L 392 71 L 393 72 L 392 73 L 393 72 L 393 71 L 392 71 L 390 69 L 392 67 L 393 67 L 394 68 L 394 69 L 395 68 L 396 69 L 396 70 L 396 69 L 395 68 L 396 67 L 398 67 L 399 68 L 398 69 L 398 70 L 399 71 L 399 72 L 398 73 L 397 73 L 398 73 L 399 72 L 400 72 L 401 73 L 400 74 L 400 75 L 399 76 L 398 75 L 397 76 L 398 77 L 395 80 L 393 78 L 394 77 L 394 76 L 393 77 L 392 76 L 390 76 L 389 77 L 388 76 L 388 75 L 387 75 L 387 76 L 388 77 L 386 79 L 385 78 L 384 78 L 383 77 L 382 77 L 381 78 L 380 77 L 379 77 L 377 75 L 377 74 L 376 74 L 375 75 L 374 74 L 374 72 L 374 74 L 373 75 L 372 74 L 372 73 L 371 73 L 369 71 L 369 69 L 368 68 L 369 67 L 370 67 L 371 68 L 371 67 L 372 66 L 371 67 L 369 67 L 368 68 L 364 68 L 363 67 L 364 66 L 363 65 L 364 64 L 364 63 L 365 62 L 366 63 L 366 65 L 366 63 L 365 62 L 363 64 L 363 65 L 362 66 L 361 66 L 359 64 L 362 61 L 362 59 L 361 58 L 361 57 L 360 57 L 359 56 L 360 55 L 360 54 L 359 53 L 356 53 L 355 54 L 357 54 L 358 53 L 359 53 L 360 54 L 360 55 L 359 56 L 359 57 L 360 57 L 362 59 L 360 61 L 359 61 L 358 60 L 358 59 L 357 60 L 355 58 L 354 59 L 355 59 L 356 60 L 357 60 L 358 61 L 360 61 L 361 62 L 360 63 L 359 63 L 359 64 L 358 65 L 359 65 L 360 66 L 360 67 L 361 66 L 362 66 L 363 67 L 363 68 L 362 69 L 360 69 L 359 70 L 360 69 L 362 69 L 363 68 L 364 68 L 365 69 L 365 70 L 364 71 L 364 72 L 363 73 L 362 72 L 362 73 L 363 73 L 364 74 L 362 76 L 363 76 L 364 77 L 362 79 L 361 78 L 360 78 L 359 77 L 360 76 L 358 74 L 359 73 L 360 73 L 359 73 L 358 74 L 360 76 L 359 77 L 360 78 L 359 79 L 358 79 L 360 79 L 361 80 L 361 81 L 360 82 L 359 81 L 359 83 L 358 84 L 356 82 L 355 82 L 357 84 L 357 86 L 358 85 L 359 86 L 360 85 L 361 85 L 362 84 L 364 86 L 363 87 L 364 87 L 366 89 L 366 90 L 364 92 L 363 92 L 362 91 L 361 91 L 361 92 L 362 91 L 363 92 L 364 92 L 365 91 L 366 92 L 365 91 L 366 90 L 367 90 L 368 91 L 369 91 L 370 92 L 370 93 L 369 94 L 367 94 L 366 95 L 367 96 L 369 96 L 370 97 L 369 98 L 368 98 L 367 99 L 368 98 L 369 98 L 370 97 L 371 98 L 372 98 L 374 100 L 374 101 L 376 103 L 375 104 L 374 104 L 373 105 L 372 104 L 372 103 L 371 103 L 370 104 L 369 104 L 367 102 L 366 102 L 365 103 L 364 102 L 364 100 L 363 101 L 362 101 L 361 100 L 360 100 L 361 101 L 361 102 L 360 103 L 358 101 L 356 101 L 358 101 L 360 103 L 358 105 L 357 104 L 356 104 L 354 102 L 353 102 L 351 100 L 349 100 L 348 99 L 349 100 L 348 101 L 347 101 L 346 100 L 346 101 L 348 101 L 349 102 L 349 103 L 348 104 L 347 103 L 348 104 L 348 107 L 347 108 L 348 109 L 348 110 L 347 111 L 345 109 L 345 108 L 345 110 L 344 111 L 343 111 L 344 112 L 344 111 L 345 110 L 346 110 L 348 112 L 348 113 L 350 111 L 353 111 L 353 110 L 354 109 L 353 108 L 352 109 L 351 108 L 351 107 L 352 106 L 354 106 L 355 107 L 356 106 L 355 105 L 356 104 L 357 104 L 358 105 L 359 105 L 360 106 L 359 107 L 358 107 L 357 108 L 358 109 L 358 110 L 357 111 L 356 111 L 356 115 L 355 116 L 354 116 L 353 117 L 351 117 L 350 116 L 349 117 L 350 116 L 352 118 L 352 119 L 351 120 L 350 119 L 348 119 L 347 118 L 346 119 L 345 118 L 344 118 L 343 117 L 344 116 L 345 116 L 345 114 L 345 115 L 343 117 L 343 118 L 345 118 L 346 119 L 345 120 L 345 122 L 348 122 L 349 123 L 350 123 L 351 122 L 351 120 L 352 119 L 353 119 L 354 120 L 354 121 L 353 122 L 354 121 L 355 121 L 356 120 L 358 122 L 357 123 L 359 121 L 360 122 L 361 122 L 361 121 L 362 120 L 363 120 L 363 119 L 364 118 L 364 117 L 365 116 L 366 117 L 365 116 L 366 115 L 367 115 L 368 116 L 368 117 L 369 118 L 370 118 L 371 117 L 372 118 L 372 120 L 371 121 L 370 121 L 370 123 L 370 122 L 371 121 L 372 122 L 373 121 L 374 122 L 373 121 L 375 119 L 375 116 L 376 115 L 377 116 L 377 115 L 376 114 L 377 113 L 378 113 L 378 112 L 377 113 L 376 113 L 375 114 L 372 114 L 371 113 L 370 113 L 369 112 L 370 111 L 370 110 L 371 109 L 372 110 L 372 111 L 372 109 L 373 108 L 374 109 L 375 109 L 376 110 L 375 109 L 375 108 L 376 107 L 377 107 L 376 106 L 377 105 L 376 104 L 376 103 L 377 102 L 378 102 L 380 104 L 381 103 L 382 104 L 382 102 L 381 101 L 379 101 L 377 99 L 377 94 L 377 97 L 376 98 L 375 97 L 375 95 L 374 95 L 373 94 L 373 92 L 374 91 L 373 92 L 372 91 L 371 91 L 370 92 L 368 90 L 367 90 L 366 89 L 366 88 L 367 87 L 368 87 L 368 84 L 369 83 L 368 84 L 365 81 L 365 80 L 364 79 L 364 77 L 367 74 L 368 75 L 367 74 L 368 73 L 368 72 L 369 71 L 374 76 L 375 75 L 377 75 L 378 76 L 378 78 L 379 79 L 377 81 L 376 80 L 376 81 L 375 82 L 374 81 L 374 80 L 371 77 L 371 76 L 371 77 L 370 78 L 371 77 L 372 78 L 372 79 L 371 80 L 373 80 L 375 82 L 374 83 L 374 84 L 373 85 L 373 86 L 372 87 L 373 87 L 374 86 L 374 85 L 376 83 L 377 84 L 376 83 L 377 82 L 377 81 L 378 80 L 380 82 L 379 81 L 381 79 L 382 79 L 381 78 L 382 77 L 383 77 L 384 78 L 384 80 L 385 80 L 386 81 L 386 82 L 385 83 L 386 82 L 386 81 L 387 80 L 388 81 L 387 80 L 388 79 L 389 79 L 390 80 L 390 79 L 391 78 L 392 79 L 393 78 L 395 80 L 395 81 L 395 80 L 396 79 L 397 80 L 397 82 L 397 81 L 399 79 L 400 80 L 400 81 L 402 83 L 403 82 L 404 83 L 403 82 L 404 81 L 406 81 L 407 82 L 406 83 L 407 82 L 408 82 L 409 83 L 408 84 L 409 85 L 409 86 L 408 87 L 406 85 L 405 85 L 406 85 L 407 86 L 404 89 L 403 89 L 403 90 L 404 91 L 406 91 L 407 92 L 406 93 L 405 93 L 404 94 L 406 94 L 407 95 L 405 97 L 404 97 L 403 98 L 404 97 L 405 97 L 408 94 L 410 96 L 409 97 L 408 97 L 406 99 L 407 98 L 408 98 L 409 99 L 409 100 L 408 101 L 406 101 L 406 102 L 407 101 L 408 101 L 409 102 L 409 103 L 408 104 L 407 104 L 406 105 L 405 104 L 407 106 L 407 107 L 405 109 L 404 108 L 404 107 L 402 105 L 399 108 L 397 106 L 398 105 L 397 105 L 396 104 L 397 103 L 398 103 L 397 102 L 400 99 L 401 100 L 400 99 L 399 99 L 398 98 L 398 96 L 398 99 L 399 100 L 398 101 L 397 101 L 397 103 L 396 104 L 396 107 L 395 108 L 393 108 L 395 108 L 397 110 L 397 111 L 398 112 L 398 114 L 397 115 L 397 117 L 395 119 L 393 117 L 394 116 L 394 115 L 395 114 L 394 115 L 393 114 L 393 115 L 394 116 L 393 117 L 392 117 L 391 116 L 390 116 L 389 115 L 388 116 L 388 117 L 389 118 L 388 119 L 388 120 L 387 121 L 386 121 L 385 122 L 384 121 L 384 119 L 382 119 L 381 120 L 380 120 L 381 120 L 382 121 L 381 122 L 381 123 L 380 124 L 379 124 L 380 124 L 381 125 L 380 126 L 379 126 L 379 127 L 380 128 L 379 129 L 378 129 L 380 131 L 380 133 L 379 134 L 378 133 L 378 132 L 377 131 L 376 131 L 377 132 L 376 133 L 376 134 L 378 134 L 380 136 L 380 137 L 380 136 L 382 134 L 384 134 L 385 135 L 384 136 L 383 136 L 384 136 L 386 134 L 387 135 L 387 137 L 388 136 L 391 136 L 392 137 L 392 136 L 393 135 L 394 135 L 395 136 L 397 134 L 400 134 L 401 135 L 402 135 L 403 136 L 404 135 L 405 136 L 411 136 L 413 134 L 414 134 L 414 133 L 415 132 L 415 131 L 416 130 L 415 129 L 415 128 L 416 127 L 417 128 L 416 127 L 416 125 L 415 125 L 414 124 L 415 123 L 416 123 L 415 122 L 416 121 L 416 117 L 415 116 L 416 115 L 416 111 L 415 110 L 416 109 L 415 108 L 416 107 L 415 107 L 414 106 L 416 104 L 414 104 L 413 103 L 414 102 L 415 102 L 415 99 L 416 98 L 416 97 L 414 95 L 414 94 L 413 93 L 413 92 L 414 91 L 415 91 L 416 90 L 415 89 L 415 87 L 417 85 L 417 84 L 416 83 L 417 82 L 417 81 L 416 81 L 415 80 L 416 79 L 416 78 L 415 77 L 416 76 L 416 75 L 415 74 L 416 73 L 416 72 L 417 71 L 416 71 L 415 70 L 416 69 L 416 68 L 414 68 L 413 69 L 412 68 L 412 67 L 413 66 L 416 66 L 416 65 L 415 64 L 415 63 L 413 61 L 414 60 L 415 60 L 415 59 L 416 58 L 416 57 L 414 55 L 415 54 L 414 53 L 415 52 L 415 51 L 416 50 L 415 49 L 415 47 L 414 46 L 416 44 L 416 43 L 415 42 L 415 41 L 417 39 L 416 39 L 415 38 L 417 36 L 416 35 L 416 34 L 415 33 L 415 29 L 414 28 L 413 28 L 412 29 L 411 28 L 410 29 L 409 29 L 408 28 L 408 29 L 407 30 L 406 30 L 405 29 L 402 29 L 401 30 L 400 29 L 399 30 L 395 30 L 394 29 L 393 30 L 392 29 L 392 30 L 391 31 L 389 31 L 388 32 L 387 31 L 386 31 L 385 32 L 384 32 L 383 33 L 381 33 L 380 32 L 380 31 L 379 32 L 377 32 L 376 31 L 376 30 L 373 30 L 372 31 L 371 30 L 368 30 L 366 28 L 367 29 L 366 30 L 365 30 L 364 29 L 361 29 L 359 31 L 357 29 L 358 28 L 357 29 L 356 29 L 355 30 L 354 29 L 353 29 L 352 30 L 351 29 L 349 31 L 347 29 L 346 29 L 345 30 L 343 30 "></path>
        <path fill="none" stroke="#fa00fa" stroke-width="3" d="M 549 1 L 548 2 L 547 2 L 548 3 L 547 4 L 548 5 L 548 6 L 551 9 L 550 10 L 549 10 L 549 11 L 548 12 L 549 13 L 549 16 L 550 17 L 549 18 L 550 19 L 549 20 L 550 21 L 549 22 L 549 24 L 550 25 L 550 27 L 551 27 L 552 28 L 551 29 L 550 29 L 550 30 L 549 31 L 549 33 L 550 34 L 550 37 L 549 38 L 549 39 L 548 40 L 549 41 L 549 42 L 548 43 L 548 45 L 549 46 L 549 48 L 550 49 L 549 50 L 548 50 L 549 50 L 550 51 L 549 52 L 550 53 L 549 54 L 549 58 L 550 59 L 549 60 L 548 60 L 548 63 L 549 64 L 548 65 L 547 65 L 548 66 L 548 67 L 549 68 L 549 69 L 550 70 L 550 71 L 549 72 L 549 73 L 548 74 L 548 75 L 549 76 L 548 77 L 548 78 L 549 79 L 548 80 L 548 82 L 549 81 L 550 82 L 550 83 L 548 85 L 548 86 L 549 87 L 548 88 L 549 89 L 549 90 L 550 91 L 550 92 L 552 92 L 555 95 L 555 97 L 556 98 L 556 99 L 558 101 L 558 102 L 561 102 L 562 101 L 562 100 L 563 99 L 563 95 L 562 95 L 561 94 L 561 93 L 562 92 L 561 91 L 561 90 L 560 89 L 561 88 L 561 87 L 562 86 L 563 87 L 563 90 L 564 90 L 565 91 L 566 91 L 567 92 L 567 93 L 568 92 L 567 92 L 565 90 L 566 89 L 567 89 L 568 90 L 569 90 L 570 91 L 570 92 L 571 91 L 570 90 L 571 89 L 574 89 L 573 88 L 574 87 L 575 87 L 574 86 L 575 85 L 576 85 L 575 85 L 574 84 L 575 83 L 576 83 L 570 83 L 569 82 L 569 81 L 568 80 L 567 81 L 568 82 L 566 84 L 565 83 L 563 83 L 564 84 L 564 85 L 563 86 L 562 86 L 561 87 L 560 87 L 561 88 L 560 89 L 559 89 L 557 87 L 557 86 L 555 86 L 554 85 L 555 84 L 556 84 L 554 84 L 553 83 L 554 82 L 555 82 L 556 81 L 556 78 L 555 78 L 553 76 L 553 75 L 554 74 L 556 76 L 554 74 L 555 73 L 557 73 L 558 74 L 558 75 L 558 74 L 557 73 L 557 70 L 556 69 L 557 68 L 559 68 L 557 68 L 556 67 L 556 68 L 555 69 L 554 68 L 554 65 L 555 64 L 555 59 L 556 58 L 556 57 L 558 55 L 558 53 L 560 51 L 559 52 L 558 51 L 558 49 L 559 48 L 558 47 L 559 46 L 560 46 L 561 47 L 561 48 L 562 47 L 563 48 L 563 47 L 564 46 L 563 47 L 562 46 L 561 47 L 559 45 L 560 44 L 560 43 L 560 44 L 559 45 L 557 43 L 558 42 L 557 41 L 555 43 L 554 42 L 554 41 L 555 40 L 554 41 L 553 40 L 553 38 L 552 37 L 554 35 L 555 36 L 555 37 L 557 39 L 558 39 L 557 38 L 558 37 L 559 37 L 560 38 L 561 38 L 561 37 L 558 37 L 557 36 L 557 37 L 556 38 L 555 37 L 555 35 L 556 34 L 557 34 L 556 33 L 556 31 L 555 30 L 556 29 L 557 29 L 558 30 L 558 31 L 559 32 L 560 32 L 561 33 L 560 32 L 562 30 L 563 31 L 563 32 L 564 33 L 563 32 L 563 30 L 562 30 L 561 29 L 561 30 L 559 32 L 558 31 L 558 30 L 559 29 L 559 28 L 560 27 L 561 27 L 562 26 L 561 25 L 561 24 L 559 22 L 559 21 L 559 22 L 561 24 L 560 25 L 559 25 L 559 28 L 558 29 L 556 27 L 556 24 L 555 25 L 554 24 L 553 24 L 552 23 L 553 22 L 553 21 L 554 20 L 555 21 L 553 19 L 554 18 L 554 16 L 555 15 L 557 15 L 556 15 L 555 14 L 554 15 L 553 15 L 552 14 L 552 12 L 553 11 L 554 12 L 555 12 L 556 11 L 557 12 L 558 11 L 559 11 L 559 10 L 557 8 L 558 7 L 559 7 L 560 8 L 561 7 L 562 8 L 562 7 L 563 6 L 565 6 L 566 7 L 566 8 L 567 9 L 567 11 L 568 12 L 567 13 L 566 13 L 565 14 L 565 15 L 568 12 L 567 11 L 567 10 L 568 9 L 568 8 L 569 7 L 571 7 L 572 8 L 571 9 L 573 7 L 575 7 L 577 9 L 577 10 L 576 11 L 577 10 L 579 10 L 578 10 L 577 9 L 578 8 L 580 8 L 580 7 L 581 6 L 582 7 L 586 7 L 587 8 L 585 10 L 586 9 L 587 9 L 589 7 L 591 7 L 592 8 L 595 5 L 596 6 L 596 7 L 597 6 L 598 6 L 599 5 L 601 7 L 601 8 L 601 7 L 602 6 L 603 7 L 603 11 L 604 11 L 605 12 L 606 12 L 605 12 L 604 11 L 605 10 L 606 10 L 606 8 L 607 7 L 608 8 L 609 8 L 609 7 L 610 6 L 611 7 L 612 7 L 613 6 L 614 7 L 615 6 L 616 7 L 617 6 L 618 7 L 620 7 L 621 8 L 621 7 L 622 6 L 623 7 L 624 6 L 626 6 L 627 7 L 627 8 L 629 8 L 629 7 L 630 6 L 631 7 L 631 9 L 632 8 L 633 8 L 632 8 L 631 7 L 632 6 L 634 6 L 635 7 L 636 6 L 639 6 L 640 5 L 642 7 L 642 8 L 643 8 L 644 7 L 645 8 L 646 7 L 647 7 L 648 8 L 649 7 L 651 9 L 651 10 L 650 11 L 649 10 L 648 11 L 648 12 L 647 13 L 648 12 L 649 13 L 649 14 L 648 15 L 647 15 L 647 17 L 648 17 L 649 18 L 648 19 L 647 19 L 650 22 L 650 23 L 652 25 L 652 27 L 650 29 L 649 28 L 649 27 L 650 26 L 648 24 L 647 25 L 648 24 L 650 26 L 649 27 L 648 27 L 647 28 L 646 27 L 647 28 L 646 29 L 648 29 L 649 30 L 648 31 L 649 32 L 649 33 L 650 34 L 648 36 L 649 37 L 648 38 L 646 38 L 647 39 L 646 40 L 647 41 L 647 42 L 649 44 L 648 45 L 648 46 L 649 46 L 650 47 L 649 48 L 649 49 L 649 48 L 650 47 L 651 47 L 652 48 L 652 49 L 650 51 L 648 51 L 647 52 L 646 51 L 645 52 L 646 53 L 645 54 L 645 57 L 644 58 L 645 58 L 646 57 L 647 58 L 647 59 L 646 60 L 648 58 L 649 59 L 648 58 L 650 56 L 651 57 L 651 60 L 652 61 L 651 62 L 651 63 L 649 65 L 648 65 L 647 64 L 646 65 L 645 64 L 645 67 L 646 67 L 645 66 L 647 64 L 649 66 L 648 67 L 649 68 L 646 71 L 646 72 L 647 71 L 648 72 L 650 70 L 651 71 L 651 72 L 650 73 L 650 74 L 649 75 L 648 74 L 649 75 L 648 76 L 648 77 L 647 78 L 648 77 L 650 77 L 653 80 L 652 81 L 651 81 L 652 82 L 652 83 L 651 84 L 650 84 L 649 85 L 648 84 L 647 85 L 648 84 L 650 86 L 649 85 L 650 84 L 652 84 L 652 83 L 653 82 L 652 81 L 653 80 L 654 80 L 655 79 L 655 77 L 653 75 L 654 74 L 653 73 L 653 72 L 654 71 L 654 70 L 653 69 L 655 67 L 653 67 L 652 66 L 652 65 L 653 64 L 654 65 L 655 65 L 654 64 L 655 63 L 655 61 L 654 60 L 655 59 L 655 57 L 654 56 L 654 55 L 653 54 L 653 52 L 654 51 L 654 50 L 655 49 L 656 49 L 656 48 L 655 47 L 654 47 L 653 46 L 654 45 L 655 45 L 655 44 L 653 42 L 655 40 L 655 38 L 654 37 L 655 36 L 654 35 L 654 34 L 655 33 L 655 32 L 654 31 L 654 29 L 653 29 L 652 28 L 653 27 L 653 26 L 652 25 L 652 24 L 653 23 L 653 21 L 652 20 L 652 19 L 651 18 L 652 17 L 653 17 L 654 16 L 653 16 L 652 15 L 653 14 L 652 13 L 654 11 L 653 11 L 652 10 L 652 8 L 653 7 L 655 7 L 656 6 L 656 5 L 657 4 L 656 3 L 657 2 L 656 1 "></path>
        <path fill="none" stroke="#fa00fa" stroke-width="3" d="M 654 85 L 654 87 L 655 88 L 653 90 L 652 90 L 650 88 L 650 89 L 651 90 L 651 93 L 652 93 L 653 94 L 654 94 L 655 95 L 653 97 L 654 98 L 658 98 L 660 96 L 661 97 L 662 97 L 662 96 L 661 97 L 660 96 L 660 95 L 659 94 L 659 92 L 660 91 L 661 91 L 662 92 L 662 94 L 663 94 L 662 93 L 664 91 L 666 93 L 665 92 L 665 91 L 666 90 L 668 92 L 668 94 L 669 93 L 670 93 L 671 92 L 671 91 L 672 90 L 673 91 L 673 92 L 674 93 L 675 93 L 676 92 L 677 93 L 677 94 L 676 95 L 675 95 L 675 96 L 677 94 L 678 95 L 680 95 L 681 94 L 682 95 L 684 93 L 685 94 L 685 93 L 686 92 L 687 93 L 687 95 L 687 94 L 688 93 L 689 93 L 689 92 L 690 91 L 691 92 L 691 93 L 693 93 L 694 92 L 695 93 L 695 94 L 696 95 L 697 95 L 698 94 L 699 94 L 699 93 L 700 92 L 701 92 L 702 93 L 702 94 L 702 93 L 703 92 L 704 92 L 705 93 L 707 93 L 709 91 L 712 94 L 712 95 L 712 94 L 713 93 L 714 94 L 715 93 L 716 93 L 717 94 L 717 93 L 718 92 L 719 92 L 720 93 L 721 93 L 722 94 L 722 95 L 724 97 L 722 99 L 721 99 L 722 99 L 723 98 L 724 99 L 725 99 L 725 98 L 726 97 L 726 96 L 725 97 L 724 96 L 724 95 L 726 93 L 727 93 L 729 95 L 729 96 L 729 95 L 731 93 L 733 93 L 735 95 L 735 96 L 736 96 L 737 97 L 737 98 L 736 99 L 737 100 L 737 103 L 735 105 L 734 104 L 733 105 L 732 104 L 731 105 L 730 104 L 731 105 L 731 106 L 731 105 L 732 104 L 733 105 L 734 104 L 736 106 L 737 105 L 738 105 L 739 106 L 736 109 L 735 108 L 735 109 L 736 110 L 735 111 L 735 112 L 737 112 L 738 113 L 739 113 L 740 114 L 738 116 L 738 117 L 737 118 L 736 118 L 735 117 L 736 116 L 734 114 L 733 115 L 733 116 L 732 117 L 731 117 L 732 118 L 731 119 L 731 120 L 730 121 L 727 118 L 728 117 L 727 116 L 727 114 L 726 114 L 725 113 L 725 112 L 726 111 L 727 111 L 727 110 L 728 109 L 727 108 L 726 108 L 724 110 L 723 109 L 723 108 L 722 107 L 722 105 L 719 105 L 720 106 L 719 107 L 719 108 L 718 109 L 717 109 L 716 110 L 716 111 L 716 110 L 717 109 L 718 109 L 719 110 L 720 110 L 720 108 L 719 107 L 721 105 L 722 106 L 722 109 L 723 109 L 724 110 L 722 112 L 723 111 L 725 113 L 723 115 L 724 115 L 724 114 L 725 113 L 727 115 L 726 116 L 726 117 L 727 118 L 725 120 L 724 120 L 725 121 L 725 123 L 726 123 L 725 122 L 725 120 L 726 119 L 728 119 L 731 122 L 730 123 L 731 124 L 731 119 L 732 118 L 733 118 L 735 120 L 734 121 L 735 121 L 736 122 L 735 123 L 737 125 L 736 126 L 736 128 L 735 129 L 736 130 L 734 132 L 735 131 L 736 132 L 736 133 L 737 134 L 736 135 L 737 134 L 739 136 L 738 137 L 737 137 L 738 138 L 738 140 L 737 141 L 737 142 L 736 143 L 737 144 L 738 144 L 739 145 L 738 146 L 736 146 L 736 147 L 737 147 L 738 148 L 736 150 L 735 150 L 735 151 L 734 152 L 732 150 L 732 149 L 732 150 L 733 151 L 733 153 L 732 154 L 731 153 L 731 152 L 731 154 L 732 155 L 732 158 L 731 159 L 729 157 L 728 157 L 727 156 L 728 155 L 729 155 L 729 154 L 728 155 L 727 155 L 727 156 L 728 157 L 727 158 L 725 158 L 725 159 L 727 161 L 727 162 L 728 161 L 729 162 L 729 163 L 730 164 L 729 165 L 729 166 L 729 165 L 730 164 L 731 164 L 732 165 L 732 166 L 733 165 L 734 166 L 734 165 L 733 165 L 731 163 L 731 162 L 732 161 L 733 161 L 734 162 L 734 163 L 736 163 L 737 164 L 737 165 L 738 166 L 737 167 L 736 167 L 738 169 L 738 170 L 739 170 L 740 171 L 738 173 L 736 171 L 737 172 L 733 176 L 733 178 L 732 179 L 731 179 L 730 178 L 731 177 L 730 176 L 730 174 L 729 173 L 729 170 L 728 171 L 729 172 L 728 173 L 730 175 L 730 176 L 728 178 L 727 178 L 728 179 L 729 179 L 730 180 L 731 179 L 732 179 L 733 180 L 734 179 L 735 180 L 736 180 L 737 181 L 736 182 L 736 183 L 735 184 L 735 186 L 736 186 L 737 187 L 736 188 L 734 188 L 735 188 L 736 189 L 735 190 L 735 191 L 734 192 L 733 191 L 733 190 L 731 188 L 733 186 L 731 188 L 730 187 L 730 186 L 729 185 L 731 183 L 730 184 L 729 183 L 728 184 L 727 184 L 728 185 L 727 186 L 727 187 L 726 188 L 726 189 L 725 190 L 724 190 L 723 191 L 722 191 L 721 190 L 722 189 L 721 188 L 721 187 L 722 186 L 723 186 L 720 183 L 721 182 L 720 181 L 720 183 L 719 184 L 719 185 L 719 184 L 720 183 L 722 185 L 722 186 L 721 187 L 721 188 L 720 189 L 721 190 L 721 192 L 720 193 L 717 190 L 716 190 L 715 189 L 714 190 L 713 190 L 713 191 L 712 192 L 711 192 L 710 193 L 708 191 L 709 190 L 709 189 L 710 188 L 711 189 L 711 190 L 711 189 L 709 187 L 711 185 L 712 185 L 713 184 L 713 182 L 712 181 L 711 182 L 710 181 L 710 179 L 709 179 L 708 178 L 708 177 L 706 175 L 707 176 L 707 177 L 709 179 L 708 180 L 709 181 L 709 182 L 707 184 L 706 183 L 705 183 L 704 182 L 704 181 L 704 182 L 705 183 L 704 184 L 705 183 L 706 184 L 706 185 L 707 186 L 706 187 L 704 187 L 703 186 L 703 188 L 702 189 L 701 188 L 700 188 L 698 190 L 697 189 L 697 188 L 692 188 L 691 187 L 692 186 L 691 186 L 691 187 L 692 188 L 688 192 L 687 191 L 687 190 L 686 189 L 687 188 L 688 188 L 687 188 L 685 186 L 685 185 L 686 184 L 687 184 L 686 183 L 686 184 L 685 185 L 684 185 L 683 184 L 683 183 L 683 184 L 681 186 L 680 185 L 679 185 L 679 186 L 680 187 L 679 188 L 678 188 L 678 189 L 677 190 L 676 189 L 676 187 L 675 187 L 675 188 L 677 190 L 678 189 L 679 190 L 681 190 L 682 189 L 683 190 L 684 190 L 685 191 L 685 192 L 685 191 L 683 189 L 684 188 L 685 188 L 687 190 L 687 192 L 688 192 L 689 193 L 690 192 L 692 192 L 693 193 L 692 194 L 693 193 L 694 194 L 695 193 L 696 194 L 696 195 L 697 194 L 698 195 L 699 194 L 698 193 L 698 192 L 700 190 L 702 192 L 701 193 L 701 195 L 701 194 L 702 193 L 703 194 L 703 195 L 703 194 L 705 192 L 706 193 L 706 192 L 707 191 L 708 192 L 709 192 L 710 193 L 710 194 L 711 194 L 711 193 L 713 191 L 715 193 L 715 195 L 717 193 L 718 193 L 719 192 L 720 193 L 721 192 L 723 194 L 723 195 L 724 194 L 725 195 L 727 195 L 728 194 L 730 194 L 731 195 L 734 195 L 736 193 L 737 194 L 738 194 L 739 195 L 740 194 L 741 194 L 742 193 L 742 192 L 743 191 L 743 188 L 744 187 L 743 186 L 743 184 L 742 184 L 741 183 L 742 182 L 743 182 L 742 181 L 744 179 L 743 178 L 743 177 L 744 176 L 743 175 L 743 172 L 742 171 L 742 169 L 743 168 L 743 167 L 742 166 L 743 165 L 742 164 L 742 163 L 743 162 L 742 161 L 743 160 L 742 159 L 742 157 L 743 156 L 742 155 L 742 154 L 740 154 L 739 153 L 740 152 L 740 151 L 741 150 L 741 149 L 742 148 L 743 148 L 743 147 L 742 146 L 742 145 L 741 146 L 739 144 L 740 143 L 741 143 L 741 142 L 742 141 L 743 142 L 743 136 L 744 135 L 743 134 L 743 130 L 744 129 L 743 128 L 743 126 L 742 125 L 743 124 L 743 122 L 742 121 L 742 115 L 741 114 L 741 113 L 742 112 L 743 112 L 742 111 L 743 110 L 744 110 L 741 107 L 741 106 L 742 105 L 743 105 L 742 104 L 743 103 L 742 103 L 741 102 L 742 101 L 741 100 L 740 101 L 739 100 L 739 99 L 741 97 L 742 98 L 742 96 L 743 95 L 743 93 L 742 92 L 743 91 L 743 90 L 740 87 L 739 87 L 739 88 L 738 89 L 737 88 L 736 89 L 735 88 L 733 88 L 732 89 L 732 91 L 731 92 L 730 91 L 730 90 L 729 89 L 728 90 L 727 89 L 727 88 L 726 89 L 724 89 L 723 88 L 724 87 L 722 89 L 721 88 L 720 89 L 719 88 L 717 88 L 716 89 L 716 90 L 715 91 L 714 91 L 714 92 L 713 93 L 712 92 L 712 91 L 711 92 L 710 91 L 710 90 L 711 89 L 710 89 L 709 90 L 708 89 L 707 89 L 706 88 L 705 89 L 704 88 L 704 87 L 703 88 L 702 87 L 701 88 L 700 87 L 700 88 L 699 89 L 698 88 L 697 89 L 693 89 L 692 90 L 692 91 L 691 92 L 689 90 L 690 89 L 688 89 L 687 90 L 686 89 L 685 89 L 684 88 L 683 89 L 682 88 L 681 88 L 680 89 L 679 88 L 678 88 L 677 89 L 675 89 L 674 88 L 672 88 L 671 87 L 672 88 L 671 89 L 670 89 L 669 88 L 668 89 L 667 88 L 667 89 L 666 90 L 665 89 L 664 89 L 663 90 L 661 88 L 659 90 L 658 89 L 658 87 L 658 88 L 657 89 L 655 87 L 655 85 "></path>
        <path fill="none" stroke="#fa00fa" stroke-width="3" d="M 623 72 L 621 74 L 620 73 L 619 74 L 620 75 L 621 74 L 622 75 L 623 74 L 624 74 L 625 75 L 623 77 L 622 77 L 623 78 L 623 80 L 624 81 L 624 82 L 625 83 L 626 83 L 627 84 L 626 85 L 623 85 L 622 84 L 623 85 L 623 86 L 622 87 L 620 85 L 619 85 L 618 84 L 617 84 L 618 85 L 617 86 L 616 86 L 615 85 L 615 83 L 615 84 L 614 85 L 613 85 L 612 84 L 613 83 L 612 84 L 611 83 L 613 85 L 614 85 L 615 86 L 615 88 L 614 89 L 613 88 L 613 87 L 613 88 L 612 89 L 611 88 L 610 88 L 609 89 L 606 86 L 607 85 L 605 85 L 604 84 L 604 85 L 605 86 L 603 88 L 601 88 L 600 89 L 599 88 L 598 89 L 597 89 L 596 88 L 596 86 L 595 85 L 596 86 L 595 87 L 594 87 L 593 88 L 591 86 L 591 85 L 590 85 L 589 84 L 589 83 L 588 82 L 587 83 L 586 83 L 585 82 L 584 82 L 585 82 L 586 83 L 587 83 L 588 82 L 589 83 L 589 84 L 588 85 L 586 85 L 586 88 L 585 89 L 584 89 L 583 90 L 582 90 L 581 89 L 581 88 L 582 87 L 582 86 L 581 85 L 581 83 L 582 82 L 582 80 L 581 81 L 582 82 L 580 84 L 582 86 L 582 87 L 581 88 L 578 85 L 579 86 L 578 87 L 578 90 L 577 91 L 576 90 L 577 91 L 577 94 L 578 95 L 577 96 L 577 98 L 576 99 L 576 100 L 577 100 L 578 101 L 578 102 L 579 103 L 580 103 L 581 102 L 582 103 L 583 103 L 583 102 L 584 101 L 584 96 L 582 96 L 580 94 L 580 93 L 581 92 L 582 92 L 581 92 L 580 91 L 580 90 L 581 89 L 582 90 L 585 90 L 586 91 L 585 92 L 584 92 L 585 93 L 585 92 L 586 91 L 587 91 L 588 92 L 590 92 L 591 93 L 590 94 L 593 91 L 595 93 L 595 91 L 596 90 L 597 91 L 597 92 L 598 92 L 599 93 L 602 93 L 603 92 L 604 93 L 607 93 L 609 91 L 612 91 L 613 92 L 617 92 L 618 93 L 619 93 L 620 92 L 622 94 L 625 94 L 626 93 L 629 93 L 630 92 L 632 92 L 636 96 L 636 97 L 636 96 L 635 95 L 635 94 L 636 93 L 638 95 L 639 95 L 640 96 L 637 99 L 637 100 L 636 101 L 637 102 L 636 103 L 636 104 L 635 105 L 635 106 L 636 107 L 636 110 L 637 111 L 636 112 L 637 113 L 636 114 L 637 115 L 637 117 L 638 118 L 637 119 L 636 119 L 637 119 L 638 120 L 637 121 L 636 121 L 636 123 L 637 124 L 637 125 L 638 126 L 637 127 L 636 127 L 636 128 L 637 129 L 636 130 L 635 130 L 636 131 L 635 132 L 635 134 L 637 136 L 637 138 L 638 139 L 637 140 L 636 140 L 636 143 L 637 142 L 638 142 L 639 143 L 639 144 L 638 145 L 636 145 L 636 149 L 637 150 L 636 151 L 637 152 L 636 153 L 636 156 L 637 157 L 637 159 L 639 161 L 639 162 L 638 163 L 638 167 L 639 168 L 638 169 L 637 169 L 638 169 L 639 170 L 637 172 L 639 170 L 640 171 L 640 173 L 640 170 L 639 170 L 638 169 L 639 168 L 641 168 L 642 167 L 644 169 L 645 168 L 646 169 L 647 168 L 647 167 L 648 166 L 649 166 L 648 165 L 648 163 L 647 163 L 645 161 L 645 160 L 646 159 L 647 159 L 646 159 L 644 157 L 645 156 L 644 157 L 643 156 L 643 153 L 642 152 L 644 150 L 642 152 L 641 152 L 640 151 L 641 150 L 641 148 L 642 147 L 643 147 L 644 148 L 645 148 L 646 149 L 646 150 L 646 149 L 645 148 L 646 147 L 646 146 L 647 145 L 648 146 L 648 149 L 649 150 L 650 150 L 651 149 L 650 150 L 649 150 L 648 149 L 649 148 L 649 146 L 648 145 L 646 145 L 645 144 L 645 143 L 644 144 L 643 143 L 640 143 L 639 142 L 640 141 L 642 141 L 643 140 L 644 141 L 645 141 L 647 139 L 647 136 L 646 135 L 647 134 L 646 133 L 645 133 L 644 132 L 646 130 L 647 130 L 647 129 L 648 128 L 647 128 L 647 129 L 646 130 L 645 129 L 645 128 L 644 128 L 644 129 L 643 130 L 642 130 L 641 129 L 642 128 L 641 127 L 642 126 L 644 126 L 644 125 L 643 124 L 643 123 L 643 124 L 644 125 L 643 126 L 642 126 L 641 125 L 641 123 L 640 122 L 641 121 L 642 121 L 641 120 L 642 119 L 643 119 L 642 118 L 643 117 L 643 115 L 644 114 L 643 115 L 641 113 L 641 112 L 642 111 L 643 112 L 644 112 L 643 111 L 642 111 L 641 110 L 641 109 L 640 108 L 642 106 L 643 107 L 642 106 L 644 104 L 645 105 L 644 104 L 643 105 L 642 104 L 642 103 L 641 102 L 643 100 L 644 101 L 645 100 L 644 99 L 644 98 L 643 98 L 642 97 L 641 97 L 640 96 L 641 95 L 640 94 L 640 93 L 639 92 L 639 90 L 640 89 L 640 88 L 642 86 L 642 85 L 641 86 L 640 85 L 639 85 L 640 86 L 638 88 L 637 87 L 636 88 L 635 88 L 634 87 L 633 88 L 632 87 L 632 88 L 631 89 L 630 88 L 629 88 L 628 87 L 629 86 L 630 86 L 632 84 L 631 85 L 630 84 L 630 82 L 629 83 L 628 83 L 627 82 L 627 81 L 628 80 L 629 80 L 628 80 L 627 79 L 627 77 L 627 79 L 626 80 L 625 79 L 625 75 L 626 74 L 627 74 L 626 73 L 626 74 L 625 75 L 624 74 L 623 74 L 622 73 "></path>
        <path fill="none" stroke="#fa00fa" stroke-width="3" d="M 667 164 L 666 165 L 662 165 L 662 166 L 663 167 L 662 166 L 663 165 L 664 165 L 665 166 L 668 166 L 669 167 L 669 168 L 670 169 L 669 170 L 669 171 L 667 173 L 666 172 L 666 171 L 667 170 L 666 170 L 665 169 L 664 170 L 664 172 L 663 173 L 662 172 L 662 171 L 660 169 L 660 168 L 659 169 L 658 168 L 658 167 L 657 168 L 656 168 L 654 166 L 654 165 L 653 166 L 654 167 L 654 168 L 655 169 L 656 168 L 657 169 L 657 170 L 659 172 L 656 175 L 655 174 L 655 173 L 654 173 L 653 172 L 654 171 L 652 169 L 652 168 L 651 169 L 650 169 L 651 170 L 651 171 L 653 173 L 652 174 L 651 174 L 650 175 L 648 173 L 650 175 L 649 176 L 647 176 L 646 177 L 647 178 L 647 179 L 648 180 L 649 180 L 649 179 L 651 177 L 652 178 L 652 179 L 651 180 L 652 181 L 652 182 L 651 183 L 651 184 L 650 185 L 650 186 L 649 187 L 647 185 L 649 183 L 648 184 L 647 184 L 646 185 L 647 185 L 650 188 L 650 189 L 650 188 L 651 187 L 652 187 L 652 185 L 653 184 L 654 185 L 654 186 L 655 185 L 657 187 L 657 188 L 656 189 L 655 188 L 656 189 L 658 187 L 658 186 L 656 186 L 655 185 L 655 184 L 656 183 L 655 182 L 654 183 L 653 182 L 653 181 L 655 179 L 656 179 L 655 178 L 657 176 L 658 177 L 659 176 L 660 177 L 660 176 L 661 175 L 660 175 L 659 174 L 660 173 L 662 173 L 663 174 L 663 176 L 663 174 L 664 173 L 665 174 L 666 174 L 668 172 L 669 173 L 669 174 L 668 175 L 668 176 L 669 177 L 667 179 L 666 178 L 665 179 L 667 179 L 668 180 L 667 181 L 667 182 L 666 183 L 667 182 L 668 183 L 668 182 L 669 181 L 670 181 L 671 182 L 671 180 L 672 179 L 673 180 L 673 181 L 673 179 L 674 178 L 672 176 L 673 175 L 674 175 L 675 176 L 674 175 L 673 175 L 672 174 L 674 172 L 673 171 L 674 172 L 672 174 L 673 175 L 671 177 L 670 176 L 670 175 L 669 174 L 669 173 L 668 172 L 669 171 L 670 171 L 671 172 L 670 171 L 672 169 L 674 169 L 671 166 L 670 167 L 669 166 L 668 166 L 667 165 "></path>
        <path fill="none" stroke="#fa00fa" stroke-width="3" d="M 697 265 L 695 267 L 696 268 L 695 269 L 696 270 L 695 271 L 694 271 L 691 268 L 691 269 L 690 270 L 690 271 L 689 272 L 690 272 L 691 273 L 691 274 L 690 275 L 690 276 L 691 276 L 692 277 L 691 278 L 692 278 L 693 277 L 694 278 L 694 279 L 695 280 L 696 279 L 695 278 L 696 277 L 697 277 L 697 276 L 698 275 L 699 276 L 700 276 L 700 273 L 702 271 L 703 272 L 703 273 L 704 273 L 705 274 L 704 273 L 705 272 L 705 270 L 706 269 L 707 269 L 708 270 L 708 271 L 709 271 L 710 272 L 710 273 L 711 274 L 712 273 L 714 273 L 715 272 L 716 272 L 717 273 L 716 274 L 716 276 L 715 277 L 713 275 L 710 278 L 711 277 L 713 279 L 716 276 L 717 277 L 716 276 L 717 275 L 716 274 L 718 272 L 719 272 L 721 270 L 720 270 L 719 269 L 719 268 L 716 268 L 715 267 L 714 267 L 712 265 L 712 266 L 713 267 L 712 268 L 710 268 L 709 267 L 710 266 L 709 266 L 709 269 L 708 270 L 707 269 L 707 268 L 706 269 L 705 268 L 706 269 L 705 270 L 705 272 L 704 273 L 702 271 L 703 270 L 702 270 L 700 268 L 700 267 L 700 268 L 701 269 L 700 270 L 699 270 L 697 268 L 696 268 L 695 267 "></path>
        <path fill="none" stroke="#fa00fa" stroke-width="3" d="M 736 288 L 737 289 L 736 290 L 736 291 L 737 292 L 737 293 L 736 294 L 735 293 L 734 294 L 735 294 L 737 296 L 738 296 L 739 297 L 738 298 L 737 298 L 736 299 L 737 300 L 738 300 L 739 301 L 739 303 L 738 304 L 737 304 L 737 307 L 738 306 L 740 308 L 738 310 L 738 311 L 737 312 L 736 311 L 734 313 L 735 313 L 736 312 L 737 312 L 738 311 L 739 312 L 740 312 L 740 311 L 739 310 L 741 308 L 742 308 L 743 309 L 744 308 L 745 308 L 744 307 L 747 304 L 748 304 L 747 304 L 746 305 L 745 304 L 744 305 L 743 304 L 742 304 L 741 303 L 741 302 L 742 301 L 741 300 L 741 298 L 740 297 L 740 296 L 741 295 L 743 297 L 743 298 L 744 297 L 744 296 L 745 295 L 746 296 L 746 297 L 748 299 L 747 298 L 749 296 L 750 297 L 751 296 L 752 297 L 752 298 L 752 297 L 754 295 L 755 296 L 755 297 L 756 296 L 755 296 L 754 295 L 755 294 L 754 294 L 753 295 L 752 295 L 750 293 L 751 294 L 748 297 L 746 295 L 748 293 L 747 292 L 747 291 L 746 292 L 742 292 L 741 291 L 740 292 L 737 292 L 736 291 L 736 290 L 738 288 L 737 289 "></path>
        <path fill="none" stroke="#fa00fa" stroke-width="3" d="M 602 137 L 600 139 L 600 143 L 603 146 L 606 146 L 607 145 L 609 145 L 609 142 L 610 141 L 610 139 L 609 138 L 609 137 L 605 137 L 604 138 L 603 137 "></path>
        <path fill="none" stroke="#fa00fa" stroke-width="3" d="M 763 427 L 762 428 L 761 428 L 761 430 L 759 432 L 760 433 L 760 436 L 761 437 L 761 438 L 762 438 L 763 439 L 764 438 L 765 438 L 765 437 L 766 436 L 767 436 L 767 433 L 768 432 L 767 431 L 767 429 L 766 428 L 766 427 "></path>
        <path fill="none" stroke="#fa00fa" stroke-width="3" d="M 704 152 L 703 153 L 702 153 L 702 154 L 701 155 L 700 154 L 701 155 L 700 156 L 701 157 L 700 158 L 702 160 L 701 161 L 700 161 L 701 162 L 702 162 L 701 161 L 703 159 L 704 160 L 704 162 L 706 160 L 707 161 L 707 162 L 708 161 L 712 165 L 712 167 L 711 168 L 710 167 L 709 167 L 708 168 L 707 168 L 708 168 L 709 169 L 709 170 L 710 169 L 711 170 L 711 168 L 712 167 L 713 168 L 713 171 L 713 168 L 712 167 L 713 166 L 712 165 L 713 164 L 712 165 L 710 163 L 711 162 L 709 160 L 711 158 L 711 157 L 710 157 L 708 155 L 709 154 L 708 155 L 707 154 L 707 153 L 707 154 L 706 155 L 704 153 "></path>
        <path fill="none" stroke="#fa00fa" stroke-width="3" d="M 712 542 L 712 543 L 711 544 L 710 543 L 712 545 L 710 547 L 711 547 L 712 548 L 710 550 L 709 549 L 708 549 L 707 550 L 706 550 L 706 551 L 707 550 L 708 551 L 708 552 L 707 553 L 708 552 L 710 554 L 710 555 L 711 555 L 712 556 L 709 559 L 706 559 L 705 560 L 705 561 L 706 560 L 707 561 L 708 561 L 708 560 L 709 559 L 710 560 L 710 562 L 709 563 L 709 564 L 708 565 L 706 563 L 705 563 L 705 564 L 704 565 L 706 563 L 708 565 L 709 565 L 709 564 L 710 563 L 714 563 L 715 562 L 714 562 L 713 561 L 713 560 L 712 560 L 711 559 L 712 558 L 713 558 L 713 557 L 714 556 L 714 555 L 713 556 L 712 556 L 711 555 L 711 554 L 712 553 L 713 553 L 713 552 L 712 551 L 712 550 L 713 549 L 714 549 L 713 548 L 714 547 L 715 547 L 713 545 L 714 544 L 713 543 L 713 542 "></path>
        <path fill="none" stroke="#fa00fa" stroke-width="3" d="M 502 90 L 501 91 L 497 91 L 497 93 L 496 94 L 497 95 L 496 96 L 496 99 L 502 99 L 504 97 L 504 94 L 505 93 L 504 93 L 502 91 "></path>
        <path fill="none" stroke="#fa00fa" stroke-width="3" d="M 516 723 L 515 724 L 514 724 L 514 725 L 513 726 L 513 729 L 516 732 L 519 732 L 520 731 L 520 730 L 522 728 L 521 727 L 521 725 L 520 725 L 519 724 L 517 724 "></path>
        <path fill="none" stroke="#fa00fa" stroke-width="3" d="M 524 73 L 523 74 L 523 75 L 522 76 L 523 77 L 523 78 L 522 79 L 523 80 L 525 80 L 526 81 L 527 81 L 528 80 L 530 80 L 531 79 L 531 75 L 530 75 L 528 73 "></path>
        <path fill="none" stroke="#fa00fa" stroke-width="3" d="M 811 263 L 810 264 L 810 265 L 809 266 L 809 269 L 810 270 L 812 270 L 813 271 L 813 270 L 814 269 L 815 270 L 819 266 L 818 265 L 818 264 L 817 263 L 813 263 L 812 264 "></path>
        <path fill="none" stroke="#fa00fa" stroke-width="3" d="M 816 316 L 814 318 L 813 318 L 813 319 L 812 320 L 814 322 L 814 324 L 816 324 L 817 325 L 817 326 L 819 324 L 820 324 L 820 323 L 821 322 L 822 323 L 822 322 L 821 321 L 821 320 L 820 319 L 820 318 L 819 318 L 817 316 "></path>
        <path fill="none" stroke="#fa00fa" stroke-width="3" d="M 537 91 L 536 92 L 537 93 L 536 94 L 536 95 L 535 96 L 535 97 L 536 97 L 537 98 L 536 99 L 542 99 L 544 97 L 544 95 L 543 94 L 543 93 L 542 93 L 541 92 L 540 92 L 539 91 "></path>
        <path fill="none" stroke="#fa00fa" stroke-width="3" d="M 593 62 L 591 64 L 592 65 L 589 68 L 588 67 L 589 68 L 590 68 L 591 69 L 590 70 L 586 70 L 586 72 L 587 73 L 586 74 L 586 76 L 587 75 L 588 76 L 589 76 L 589 74 L 590 73 L 591 74 L 591 75 L 592 75 L 592 71 L 593 70 L 594 71 L 594 75 L 594 72 L 595 71 L 596 72 L 596 73 L 596 69 L 596 70 L 595 71 L 594 71 L 593 70 L 594 69 L 594 68 L 593 68 L 592 67 L 593 66 L 594 66 L 595 65 L 595 64 "></path>
        <path fill="none" stroke="#fa00fa" stroke-width="3" d="M 447 142 L 446 143 L 444 143 L 443 144 L 444 144 L 445 145 L 446 144 L 447 145 L 447 146 L 446 147 L 445 147 L 445 148 L 444 149 L 447 146 L 448 147 L 448 148 L 449 147 L 450 148 L 450 149 L 451 150 L 452 150 L 453 151 L 452 152 L 453 151 L 453 150 L 454 149 L 455 149 L 455 148 L 456 147 L 454 145 L 455 144 L 454 145 L 453 144 L 453 143 L 452 144 L 451 143 L 451 142 "></path>
        <path fill="none" stroke="#fa00fa" stroke-width="3" d="M 251 685 L 251 686 L 252 686 L 253 687 L 252 688 L 249 688 L 251 688 L 252 689 L 250 691 L 249 691 L 248 690 L 248 692 L 249 693 L 249 695 L 252 695 L 253 696 L 254 695 L 255 695 L 255 694 L 256 693 L 257 694 L 257 693 L 258 692 L 259 693 L 257 691 L 257 689 L 255 689 L 253 687 L 254 686 L 253 686 L 252 685 "></path>
        <path fill="none" stroke="#fa00fa" stroke-width="3" d="M 513 702 L 512 703 L 510 703 L 509 704 L 510 705 L 508 707 L 509 708 L 509 709 L 510 710 L 511 710 L 512 711 L 514 711 L 514 710 L 515 709 L 516 709 L 517 708 L 516 707 L 517 706 L 518 706 L 517 705 L 516 705 "></path>
        <path fill="none" stroke="#fa00fa" stroke-width="3" d="M 811 614 L 808 617 L 807 617 L 809 619 L 809 621 L 810 621 L 811 622 L 814 622 L 815 621 L 815 620 L 816 619 L 816 616 L 814 614 "></path>
        <path fill="none" stroke="#fa00fa" stroke-width="3" d="M 817 289 L 816 290 L 813 290 L 812 291 L 812 294 L 811 295 L 812 295 L 813 296 L 813 297 L 818 297 L 819 296 L 819 295 L 820 294 L 820 293 L 819 292 L 819 291 L 818 290 L 818 289 "></path>
        <path fill="none" stroke="#fa00fa" stroke-width="3" d="M 533 783 L 534 784 L 532 786 L 531 786 L 531 790 L 532 790 L 533 791 L 537 791 L 537 790 L 538 789 L 539 789 L 539 788 L 540 787 L 539 786 L 539 785 L 538 785 L 537 784 L 538 783 L 537 784 L 536 783 "></path>
        <path fill="none" stroke="#fa00fa" stroke-width="3" d="M 438 132 L 437 133 L 436 133 L 437 134 L 436 135 L 435 135 L 435 139 L 436 139 L 437 140 L 438 139 L 439 139 L 440 140 L 441 140 L 441 139 L 443 137 L 444 137 L 443 136 L 443 134 L 441 132 "></path>
        <path fill="none" stroke="#fa00fa" stroke-width="3" d="M 720 334 L 720 336 L 719 337 L 718 337 L 719 337 L 720 336 L 721 336 L 722 337 L 720 339 L 720 342 L 721 342 L 722 343 L 721 344 L 722 345 L 722 346 L 720 348 L 721 349 L 721 350 L 722 349 L 722 346 L 723 345 L 724 346 L 725 346 L 725 344 L 726 343 L 726 342 L 725 341 L 727 339 L 725 337 L 727 335 L 726 335 L 725 336 L 724 336 L 723 337 L 722 337 L 720 335 "></path>
        <path fill="none" stroke="#fa00fa" stroke-width="3" d="M 802 631 L 801 632 L 800 632 L 800 633 L 799 634 L 799 636 L 800 637 L 800 639 L 802 639 L 803 640 L 805 638 L 806 638 L 807 637 L 807 634 L 806 634 L 803 631 "></path>
        <path fill="none" stroke="#fa00fa" stroke-width="3" d="M 738 723 L 735 726 L 735 729 L 736 729 L 737 730 L 737 731 L 738 731 L 739 732 L 740 731 L 742 731 L 742 729 L 743 728 L 743 727 L 741 725 L 741 724 L 740 724 L 739 723 "></path>
        <path fill="none" stroke="#fa00fa" stroke-width="3" d="M 910 317 L 908 319 L 907 319 L 907 323 L 909 325 L 909 326 L 910 326 L 910 325 L 911 324 L 912 325 L 914 323 L 914 322 L 915 321 L 915 320 L 913 318 L 912 318 L 911 317 "></path>
        <path fill="none" stroke="#fa00fa" stroke-width="3" d="M 720 773 L 719 774 L 719 775 L 718 776 L 717 776 L 716 777 L 716 778 L 717 779 L 717 780 L 718 780 L 720 782 L 721 781 L 722 781 L 723 780 L 724 780 L 725 779 L 724 778 L 724 776 L 722 774 L 721 774 "></path>
        <path fill="none" stroke="#fa00fa" stroke-width="3" d="M 765 449 L 763 451 L 761 451 L 761 454 L 760 455 L 762 457 L 763 457 L 764 458 L 767 458 L 767 455 L 768 454 L 768 452 L 767 452 L 765 450 "></path>
        <path fill="none" stroke="#fa00fa" stroke-width="3" d="M 769 32 L 769 33 L 768 34 L 768 38 L 769 39 L 773 39 L 773 38 L 775 36 L 776 36 L 776 35 L 775 34 L 775 33 L 774 32 "></path>
        <path fill="none" stroke="#fa00fa" stroke-width="3" d="M 187 118 L 186 119 L 185 119 L 185 121 L 184 122 L 184 124 L 186 126 L 187 125 L 188 126 L 189 125 L 190 126 L 190 125 L 191 124 L 191 120 L 190 119 L 190 118 "></path>
        <path fill="none" stroke="#fa00fa" stroke-width="3" d="M 289 90 L 288 91 L 286 91 L 286 93 L 285 94 L 286 95 L 286 96 L 287 97 L 291 97 L 293 95 L 294 95 L 293 94 L 293 92 L 291 90 "></path>
        <path fill="none" stroke="#fa00fa" stroke-width="3" d="M 855 633 L 855 634 L 853 636 L 853 639 L 855 641 L 857 641 L 858 640 L 859 640 L 860 639 L 860 638 L 859 637 L 860 636 L 860 635 L 859 634 L 858 634 L 857 633 "></path>
        <path fill="none" stroke="#fa00fa" stroke-width="3" d="M 380 784 L 379 785 L 378 785 L 378 786 L 377 787 L 377 788 L 378 789 L 378 790 L 379 791 L 380 791 L 381 792 L 382 791 L 383 791 L 383 790 L 384 789 L 385 789 L 385 787 L 383 785 L 383 784 "></path>
        <path fill="none" stroke="#fa00fa" stroke-width="3" d="M 559 764 L 559 765 L 557 767 L 557 771 L 559 771 L 561 773 L 563 771 L 563 770 L 565 768 L 564 767 L 564 766 L 563 766 L 562 765 L 560 765 "></path>
        <path fill="none" stroke="#fa00fa" stroke-width="3" d="M 749 311 L 746 314 L 745 314 L 745 315 L 747 315 L 748 316 L 748 317 L 747 318 L 746 317 L 747 318 L 748 317 L 749 318 L 749 320 L 751 322 L 752 321 L 753 322 L 754 321 L 753 322 L 750 319 L 751 318 L 752 318 L 753 317 L 755 319 L 756 318 L 757 319 L 757 320 L 758 321 L 757 322 L 756 322 L 757 322 L 759 320 L 759 319 L 758 320 L 757 319 L 757 318 L 756 317 L 756 316 L 757 315 L 758 316 L 756 314 L 756 317 L 755 318 L 754 317 L 752 317 L 751 316 L 751 313 L 752 312 L 753 312 L 752 311 "></path>
        <path fill="none" stroke="#fa00fa" stroke-width="3" d="M 753 300 L 755 300 L 756 301 L 754 303 L 754 307 L 756 305 L 757 306 L 757 308 L 756 309 L 754 309 L 756 309 L 757 310 L 757 311 L 756 312 L 757 311 L 758 311 L 759 312 L 759 314 L 761 316 L 763 316 L 764 317 L 765 317 L 764 317 L 763 316 L 763 315 L 764 314 L 764 313 L 763 313 L 764 314 L 762 316 L 761 316 L 759 314 L 760 313 L 759 312 L 759 311 L 760 310 L 761 311 L 765 311 L 764 311 L 763 310 L 764 309 L 765 309 L 766 308 L 766 305 L 765 305 L 766 306 L 764 308 L 764 309 L 763 310 L 761 308 L 761 307 L 763 305 L 759 309 L 758 309 L 757 308 L 757 307 L 758 306 L 758 303 L 760 301 L 756 301 L 755 300 "></path>
        <path fill="none" stroke="#fa00fa" stroke-width="3" d="M 602 167 L 600 169 L 599 168 L 597 170 L 598 171 L 599 171 L 600 172 L 601 171 L 602 171 L 603 172 L 604 171 L 605 171 L 606 170 L 607 171 L 608 171 L 609 172 L 611 170 L 612 170 L 613 169 L 615 169 L 616 170 L 615 171 L 616 172 L 615 173 L 617 171 L 618 171 L 617 171 L 616 170 L 617 169 L 615 169 L 614 168 L 613 168 L 612 169 L 611 168 L 610 168 L 610 169 L 609 170 L 608 169 L 608 167 L 607 167 L 606 168 L 606 169 L 604 171 L 603 170 L 603 169 L 602 168 L 603 167 "></path>
        <path fill="none" stroke="#fa00fa" stroke-width="3" d="M 737 271 L 738 271 L 739 272 L 738 273 L 739 274 L 740 273 L 742 275 L 740 277 L 739 277 L 739 278 L 740 279 L 739 280 L 738 280 L 739 281 L 739 282 L 741 282 L 742 281 L 743 282 L 743 278 L 743 280 L 742 281 L 740 279 L 741 278 L 740 277 L 741 276 L 745 276 L 746 277 L 745 278 L 746 278 L 747 277 L 748 277 L 749 278 L 748 279 L 748 282 L 747 283 L 745 281 L 745 282 L 746 283 L 748 283 L 750 285 L 750 286 L 751 286 L 750 285 L 751 284 L 752 284 L 751 283 L 753 281 L 753 280 L 752 281 L 751 280 L 751 279 L 750 280 L 749 279 L 749 278 L 750 277 L 749 278 L 748 277 L 748 276 L 745 276 L 744 275 L 744 274 L 744 275 L 743 276 L 742 275 L 742 274 L 741 274 L 738 271 "></path>
        <path fill="none" stroke="#fa00fa" stroke-width="3" d="M 258 736 L 257 737 L 257 740 L 256 741 L 257 741 L 259 743 L 260 742 L 261 743 L 262 743 L 263 742 L 263 741 L 264 740 L 264 739 L 263 738 L 263 737 L 261 737 L 260 736 "></path>
        <path fill="none" stroke="#fa00fa" stroke-width="3" d="M 528 763 L 528 767 L 530 769 L 533 769 L 534 768 L 535 768 L 535 766 L 536 765 L 535 765 L 534 764 L 534 763 "></path>
        <path fill="none" stroke="#fa00fa" stroke-width="3" d="M 111 169 L 110 170 L 109 170 L 109 172 L 108 173 L 110 175 L 114 175 L 116 173 L 116 171 L 114 169 "></path>
        <path fill="none" stroke="#fa00fa" stroke-width="3" d="M 352 142 L 351 143 L 350 143 L 349 144 L 350 145 L 350 147 L 348 149 L 348 150 L 349 150 L 350 151 L 352 149 L 353 150 L 354 149 L 353 148 L 356 145 L 355 144 L 354 144 L 353 143 L 353 142 "></path>
        <path fill="none" stroke="#fa00fa" stroke-width="3" d="M 80 704 L 77 707 L 77 709 L 79 711 L 80 711 L 81 712 L 82 711 L 83 711 L 83 708 L 84 707 L 83 706 L 83 705 L 82 705 L 81 704 "></path>
        <path fill="none" stroke="#fa00fa" stroke-width="3" d="M 681 157 L 680 158 L 681 159 L 680 160 L 679 160 L 678 161 L 677 160 L 678 161 L 677 162 L 677 164 L 678 163 L 680 165 L 679 166 L 678 166 L 679 167 L 678 168 L 677 168 L 676 169 L 677 168 L 678 168 L 679 167 L 680 168 L 680 167 L 679 166 L 680 165 L 682 165 L 683 166 L 682 167 L 683 167 L 684 166 L 685 166 L 687 164 L 686 163 L 687 162 L 687 161 L 686 162 L 686 163 L 685 164 L 684 163 L 682 163 L 681 162 L 681 161 L 682 160 L 683 160 L 684 161 L 682 159 L 681 159 L 680 158 L 681 157 L 682 157 "></path>
        <path fill="none" stroke="#fa00fa" stroke-width="3" d="M 138 586 L 137 587 L 136 587 L 135 588 L 135 592 L 141 592 L 142 591 L 142 590 L 141 589 L 141 588 L 139 586 "></path>
        <path fill="none" stroke="#fa00fa" stroke-width="3" d="M 483 750 L 482 751 L 481 751 L 481 755 L 483 757 L 486 757 L 486 754 L 487 753 L 487 752 L 485 750 "></path>
        <path fill="none" stroke="#fa00fa" stroke-width="3" d="M 860 194 L 858 196 L 858 198 L 859 199 L 860 199 L 861 200 L 861 201 L 862 200 L 863 201 L 864 200 L 864 194 "></path>
        <path fill="none" stroke="#fa00fa" stroke-width="3" d="M 708 17 L 708 18 L 707 19 L 706 19 L 707 20 L 707 23 L 708 23 L 709 24 L 710 24 L 711 23 L 712 23 L 713 22 L 712 21 L 713 20 L 712 19 L 712 17 L 710 17 L 709 18 "></path>
        <path fill="none" stroke="#fa00fa" stroke-width="3" d="M 814 138 L 814 139 L 813 140 L 812 140 L 811 141 L 811 142 L 813 144 L 812 145 L 814 145 L 815 146 L 815 145 L 816 144 L 817 144 L 817 141 L 818 140 L 816 138 "></path>
        <path fill="none" stroke="#fa00fa" stroke-width="3" d="M 348 335 L 348 336 L 347 337 L 347 338 L 344 341 L 343 340 L 343 342 L 342 343 L 341 342 L 342 343 L 343 342 L 344 342 L 347 345 L 348 345 L 350 343 L 350 342 L 351 341 L 350 341 L 349 340 L 349 338 L 348 339 L 347 338 L 347 337 L 349 335 "></path>
        <path fill="none" stroke="#fa00fa" stroke-width="3" d="M 23 379 L 22 380 L 21 380 L 21 383 L 20 384 L 21 383 L 22 384 L 22 385 L 24 385 L 25 384 L 26 384 L 26 383 L 27 382 L 27 380 L 26 379 "></path>
        <path fill="none" stroke="#fa00fa" stroke-width="3" d="M 714 311 L 714 313 L 716 315 L 716 316 L 715 317 L 714 317 L 714 318 L 713 319 L 712 319 L 711 318 L 712 317 L 712 315 L 711 314 L 711 319 L 710 320 L 711 320 L 712 321 L 712 322 L 711 323 L 710 323 L 710 324 L 709 325 L 708 325 L 707 324 L 708 323 L 707 323 L 706 324 L 706 326 L 707 325 L 708 325 L 709 326 L 708 327 L 709 326 L 710 327 L 709 326 L 710 325 L 711 325 L 711 324 L 712 323 L 713 324 L 713 323 L 712 322 L 712 321 L 711 320 L 712 319 L 713 319 L 714 320 L 714 321 L 716 321 L 715 320 L 715 318 L 716 317 L 717 317 L 716 316 L 718 314 L 719 315 L 720 314 L 721 314 L 722 313 L 723 313 L 723 312 L 722 312 L 721 313 L 720 312 L 720 314 L 719 315 L 718 314 L 717 315 L 716 314 L 716 313 L 715 313 L 714 312 "></path>
        <path fill="none" stroke="#fa00fa" stroke-width="3" d="M 786 636 L 785 637 L 782 637 L 782 638 L 781 639 L 782 639 L 783 640 L 782 641 L 784 641 L 785 642 L 787 642 L 788 641 L 787 640 L 788 639 L 788 638 "></path>
        <path fill="none" stroke="#fa00fa" stroke-width="3" d="M 672 94 L 671 95 L 670 95 L 669 96 L 670 97 L 669 98 L 667 98 L 666 97 L 667 96 L 666 96 L 665 95 L 665 96 L 666 97 L 666 98 L 667 98 L 668 99 L 668 101 L 667 102 L 668 101 L 669 101 L 670 102 L 670 104 L 671 104 L 672 103 L 672 98 L 671 99 L 670 98 L 670 97 L 671 96 L 672 96 L 671 95 "></path>
        <path fill="none" stroke="#fa00fa" stroke-width="3" d="M 382 54 L 381 55 L 380 55 L 380 56 L 379 57 L 379 58 L 378 59 L 377 59 L 377 60 L 376 61 L 374 61 L 374 62 L 375 63 L 375 64 L 374 65 L 375 66 L 375 62 L 376 61 L 377 62 L 378 62 L 379 61 L 380 61 L 379 60 L 381 58 L 382 58 L 383 59 L 383 60 L 383 59 L 382 58 L 383 57 L 382 56 L 383 55 "></path>
        <path fill="none" stroke="#fa00fa" stroke-width="3" d="M 387 94 L 386 95 L 386 97 L 385 98 L 385 99 L 387 99 L 388 100 L 388 101 L 388 100 L 390 98 L 390 97 L 392 95 L 391 96 L 390 95 L 388 95 "></path>
        <path fill="none" stroke="#fa00fa" stroke-width="3" d="M 769 275 L 768 276 L 767 276 L 767 278 L 766 279 L 764 277 L 765 278 L 764 279 L 762 279 L 761 278 L 761 276 L 759 276 L 760 276 L 761 277 L 760 278 L 760 279 L 761 280 L 760 281 L 761 282 L 761 283 L 762 284 L 761 285 L 758 285 L 757 284 L 756 284 L 757 284 L 758 285 L 758 286 L 760 286 L 761 285 L 763 285 L 761 283 L 761 282 L 760 281 L 762 279 L 764 281 L 763 282 L 765 282 L 766 283 L 765 282 L 766 281 L 766 280 L 767 279 L 768 280 L 769 279 L 770 279 L 769 278 L 769 279 L 768 280 L 767 279 L 767 277 L 768 276 L 769 276 "></path>
        <path fill="none" stroke="#fa00fa" stroke-width="3" d="M 570 599 L 569 600 L 569 601 L 568 602 L 571 605 L 570 604 L 571 603 L 571 602 L 572 601 L 573 602 L 574 602 L 575 603 L 575 604 L 573 606 L 574 606 L 575 607 L 574 606 L 576 604 L 577 604 L 578 603 L 583 603 L 583 601 L 582 602 L 581 601 L 581 600 L 581 601 L 580 602 L 579 602 L 578 601 L 578 603 L 577 604 L 576 603 L 576 602 L 573 602 L 572 601 L 571 602 L 569 600 "></path>
        <path fill="none" stroke="#fa00fa" stroke-width="3" d="M 679 247 L 679 248 L 678 249 L 678 250 L 680 252 L 680 253 L 681 253 L 681 252 L 682 251 L 683 252 L 684 252 L 682 250 L 684 248 L 683 249 L 682 248 L 680 248 "></path>
        <path fill="none" stroke="#fa00fa" stroke-width="3" d="M 453 159 L 452 160 L 451 160 L 453 162 L 452 163 L 455 166 L 454 167 L 453 167 L 452 168 L 452 169 L 453 169 L 454 168 L 455 169 L 455 167 L 456 166 L 456 165 L 455 165 L 454 164 L 454 163 L 455 162 L 454 161 L 454 160 "></path>
        <path fill="none" stroke="#fa00fa" stroke-width="3" d="M 674 263 L 672 265 L 671 264 L 671 265 L 672 266 L 673 265 L 674 266 L 675 266 L 676 267 L 675 268 L 675 269 L 674 270 L 670 270 L 669 269 L 668 270 L 669 269 L 670 270 L 670 272 L 672 272 L 673 271 L 674 271 L 675 272 L 675 273 L 674 274 L 675 275 L 674 274 L 675 273 L 675 272 L 674 271 L 675 270 L 677 270 L 678 271 L 678 273 L 679 274 L 680 274 L 679 274 L 678 273 L 679 272 L 680 272 L 679 272 L 677 270 L 678 269 L 680 269 L 678 269 L 677 270 L 675 268 L 676 267 L 677 267 L 677 266 L 676 267 L 674 265 "></path>
        <path fill="none" stroke="#fa00fa" stroke-width="3" d="M 505 670 L 504 671 L 505 672 L 506 671 L 508 673 L 508 675 L 505 678 L 504 677 L 504 678 L 503 679 L 502 678 L 502 679 L 503 680 L 502 681 L 503 680 L 504 680 L 504 679 L 505 678 L 506 679 L 506 681 L 506 679 L 505 678 L 506 677 L 507 677 L 508 678 L 509 678 L 510 679 L 509 680 L 508 680 L 509 681 L 508 682 L 508 683 L 509 682 L 509 681 L 510 680 L 514 680 L 515 679 L 516 680 L 516 679 L 515 678 L 516 677 L 515 678 L 513 676 L 515 678 L 515 679 L 514 680 L 512 678 L 513 679 L 512 680 L 511 680 L 509 678 L 511 676 L 510 676 L 509 677 L 508 677 L 507 676 L 508 675 L 508 673 "></path>
        <path fill="none" stroke="#fa00fa" stroke-width="3" d="M 190 269 L 189 270 L 188 270 L 187 271 L 186 270 L 186 271 L 187 271 L 188 270 L 190 272 L 189 273 L 190 274 L 190 275 L 189 276 L 188 276 L 189 277 L 189 276 L 190 275 L 191 276 L 190 275 L 190 273 L 191 272 L 192 272 L 193 273 L 193 269 "></path>
        <path fill="none" stroke="#fa00fa" stroke-width="3" d="M 686 138 L 687 139 L 687 140 L 686 141 L 686 142 L 687 143 L 686 144 L 687 145 L 686 146 L 685 146 L 686 146 L 687 145 L 687 143 L 688 142 L 689 143 L 691 143 L 692 142 L 693 142 L 694 143 L 694 144 L 694 143 L 693 142 L 691 142 L 690 143 L 689 142 L 689 141 L 690 140 L 692 140 L 693 139 L 692 140 L 691 140 L 690 139 L 689 139 L 688 138 L 687 139 "></path>
        <path fill="none" stroke="#fa00fa" stroke-width="3" d="M 603 22 L 603 23 L 604 24 L 604 26 L 603 27 L 602 27 L 602 29 L 604 27 L 605 28 L 606 27 L 607 27 L 607 23 L 606 24 L 605 24 L 604 23 L 605 22 L 604 23 "></path>
        <path fill="none" stroke="#fa00fa" stroke-width="3" d="M 529 625 L 529 626 L 528 627 L 528 628 L 529 628 L 531 630 L 533 630 L 534 631 L 535 630 L 536 630 L 537 631 L 535 633 L 536 634 L 538 634 L 537 633 L 537 632 L 538 631 L 539 632 L 538 631 L 539 630 L 536 630 L 535 629 L 534 629 L 533 630 L 532 629 L 531 630 L 530 629 L 530 627 L 529 626 "></path>
        <path fill="none" stroke="#fa00fa" stroke-width="3" d="M 615 63 L 614 64 L 614 65 L 613 66 L 614 66 L 615 67 L 614 68 L 613 68 L 614 69 L 616 69 L 617 68 L 617 67 L 618 66 L 619 67 L 619 69 L 620 68 L 618 66 L 619 65 L 618 66 L 617 65 L 615 65 L 614 64 "></path>
        <path fill="none" stroke="#fa00fa" stroke-width="3" d="M 339 79 L 338 80 L 339 81 L 338 82 L 336 82 L 335 81 L 334 82 L 335 83 L 334 84 L 333 84 L 333 85 L 332 86 L 332 87 L 333 87 L 333 85 L 336 82 L 337 82 L 338 83 L 337 84 L 338 84 L 339 83 L 339 82 L 340 81 L 341 82 L 341 83 L 342 83 L 343 82 L 343 81 L 342 80 L 341 80 L 340 81 L 339 81 L 338 80 "></path>
        <path fill="none" stroke="#fa00fa" stroke-width="3" d="M 691 248 L 691 249 L 690 250 L 689 249 L 690 250 L 691 250 L 694 253 L 693 254 L 694 253 L 695 253 L 694 252 L 695 251 L 695 249 L 694 248 L 693 248 L 692 249 "></path>
        <path fill="none" stroke="#fa00fa" stroke-width="3" d="M 723 287 L 723 289 L 722 290 L 723 290 L 724 291 L 723 292 L 723 293 L 724 294 L 723 295 L 721 295 L 720 296 L 721 296 L 722 297 L 722 298 L 723 297 L 724 297 L 724 296 L 723 295 L 724 294 L 724 293 L 725 292 L 726 292 L 727 291 L 728 291 L 727 290 L 727 291 L 726 292 L 725 291 L 725 290 L 724 290 L 723 289 "></path>
        <path fill="none" stroke="#fa00fa" stroke-width="3" d="M 640 66 L 639 67 L 638 67 L 637 68 L 637 69 L 636 70 L 635 70 L 634 69 L 633 70 L 633 71 L 632 72 L 631 71 L 632 72 L 632 73 L 633 74 L 632 75 L 633 75 L 635 73 L 635 71 L 637 69 L 638 69 L 637 68 L 638 67 L 639 67 "></path>
        <path fill="none" stroke="#fa00fa" stroke-width="3" d="M 738 259 L 738 262 L 734 266 L 733 266 L 734 266 L 735 265 L 736 265 L 737 266 L 734 269 L 735 268 L 736 269 L 737 268 L 736 267 L 737 266 L 739 266 L 737 264 L 738 263 L 739 263 L 740 264 L 741 264 L 742 263 L 741 264 L 740 264 L 739 263 L 739 261 L 740 260 L 741 260 L 742 259 L 741 260 L 740 260 L 739 259 "></path>
        <path fill="none" stroke="#fa00fa" stroke-width="3" d="M 602 594 L 602 595 L 601 596 L 602 597 L 601 598 L 602 599 L 603 598 L 604 599 L 605 599 L 606 598 L 604 598 L 603 597 L 605 595 L 605 594 L 604 595 L 603 594 "></path>
        <path fill="none" stroke="#fa00fa" stroke-width="3" d="M 657 149 L 654 152 L 653 152 L 651 154 L 652 153 L 654 155 L 651 158 L 651 159 L 652 160 L 651 159 L 651 158 L 653 156 L 654 156 L 655 155 L 657 157 L 657 158 L 658 158 L 658 156 L 659 155 L 657 157 L 655 155 L 655 154 L 656 153 L 657 153 L 655 151 L 657 149 L 658 149 "></path>
        <path fill="none" stroke="#fa00fa" stroke-width="3" d="M 536 577 L 535 578 L 535 580 L 536 581 L 537 580 L 539 582 L 538 581 L 539 580 L 539 578 L 538 578 L 537 577 "></path>
        <path fill="none" stroke="#fa00fa" stroke-width="3" d="M 690 544 L 690 546 L 689 547 L 688 547 L 688 548 L 691 551 L 692 550 L 692 549 L 691 550 L 690 549 L 690 548 L 691 547 L 691 546 L 692 545 L 692 544 "></path>
        <path fill="none" stroke="#fa00fa" stroke-width="3" d="M 529 634 L 528 635 L 525 635 L 524 636 L 521 636 L 520 637 L 521 636 L 522 636 L 523 637 L 523 639 L 524 639 L 525 640 L 525 638 L 526 637 L 525 637 L 524 636 L 525 635 L 528 635 L 529 636 L 528 637 L 529 637 L 530 636 L 530 635 "></path>
        <path fill="none" stroke="#fa00fa" stroke-width="3" d="M 379 106 L 380 107 L 379 108 L 380 109 L 381 109 L 383 107 L 384 108 L 385 107 L 386 108 L 385 107 L 385 106 L 384 106 L 383 107 L 382 106 "></path>
        <path fill="none" stroke="#fa00fa" stroke-width="3" d="M 705 276 L 703 278 L 705 276 L 706 277 L 706 278 L 705 279 L 705 280 L 704 281 L 703 280 L 703 281 L 704 281 L 706 283 L 708 283 L 709 282 L 709 281 L 709 282 L 708 283 L 707 282 L 707 279 L 706 278 L 706 277 "></path>
        <path fill="none" stroke="#fa00fa" stroke-width="3" d="M 719 255 L 717 257 L 716 257 L 715 256 L 713 256 L 715 258 L 714 259 L 715 259 L 716 260 L 715 261 L 716 261 L 716 260 L 717 259 L 718 260 L 718 258 L 717 257 "></path>
    </g>
</svg>
