<svg xmlns="http://www.w3.org/2000/svg" xmlns:xlink="http://www.w3.org/1999/xlink" version="1.1" x="0" y="0" width="1056px" height="816px">
    <g id="rootLayer" transform="translate(0.000000, 0.000000)">
        <path fill="none" stroke="#fa00fa" stroke-width="3" d="M 894 36 L 893 37 L 892 37 L 891 38 L 890 38 L 888 40 L 888 41 L 886 43 L 886 44 L 884 46 L 884 47 L 883 48 L 883 49 L 882 50 L 882 53 L 883 54 L 883 55 L 888 60 L 888 61 L 887 62 L 887 64 L 886 65 L 886 67 L 887 68 L 887 69 L 890 72 L 891 72 L 892 73 L 897 73 L 899 71 L 900 71 L 901 70 L 901 69 L 902 68 L 902 63 L 899 60 L 898 60 L 897 59 L 896 59 L 894 57 L 894 52 L 895 51 L 895 50 L 897 48 L 898 48 L 899 47 L 900 48 L 901 48 L 902 49 L 903 49 L 904 50 L 904 51 L 907 54 L 907 55 L 910 58 L 910 59 L 909 60 L 909 61 L 907 63 L 907 64 L 906 65 L 906 70 L 907 71 L 907 72 L 910 75 L 916 75 L 918 73 L 918 72 L 919 71 L 919 70 L 920 69 L 920 64 L 919 63 L 919 62 L 916 59 L 916 56 L 918 54 L 918 48 L 917 47 L 917 46 L 916 45 L 915 45 L 913 43 L 912 43 L 910 41 L 909 41 L 905 37 L 904 37 L 903 36 "></path>
        <path fill="none" stroke="#fa00fa" stroke-width="3" d="M 66 316 L 65 317 L 63 317 L 62 318 L 61 318 L 58 321 L 57 321 L 57 322 L 54 325 L 54 326 L 53 327 L 53 328 L 52 329 L 52 340 L 53 341 L 53 342 L 54 343 L 54 344 L 57 347 L 58 347 L 59 348 L 60 348 L 61 349 L 62 349 L 63 350 L 65 350 L 66 351 L 73 351 L 74 350 L 75 350 L 78 347 L 78 346 L 79 345 L 79 344 L 80 343 L 80 341 L 81 340 L 81 338 L 82 337 L 82 326 L 81 325 L 81 324 L 80 323 L 80 322 L 79 321 L 79 320 L 76 317 L 75 317 L 74 316 "></path>
        <path fill="none" stroke="#fa00fa" stroke-width="3" d="M 994 108 L 993 109 L 992 109 L 991 110 L 991 111 L 990 112 L 990 118 L 991 119 L 991 120 L 993 122 L 994 122 L 995 123 L 996 123 L 997 124 L 1005 124 L 1006 123 L 1007 123 L 1009 121 L 1010 121 L 1012 123 L 1012 124 L 1013 125 L 1013 126 L 1016 129 L 1016 132 L 1014 134 L 1014 135 L 1013 136 L 1013 137 L 1012 138 L 1012 139 L 1011 140 L 1011 141 L 1010 142 L 1010 143 L 1005 148 L 1005 154 L 1006 155 L 1006 156 L 1008 158 L 1013 158 L 1014 157 L 1015 157 L 1016 156 L 1016 155 L 1017 154 L 1017 153 L 1018 152 L 1018 150 L 1019 149 L 1019 147 L 1022 144 L 1023 144 L 1027 140 L 1027 134 L 1023 130 L 1023 129 L 1024 128 L 1024 127 L 1026 125 L 1026 119 L 1023 116 L 1022 116 L 1021 115 L 1018 115 L 1017 116 L 1016 116 L 1015 117 L 1014 117 L 1013 118 L 1012 118 L 1010 116 L 1010 115 L 1009 114 L 1009 113 L 1008 112 L 1007 112 L 1006 111 L 1005 111 L 1004 110 L 1002 110 L 1001 109 L 998 109 L 997 108 "></path>
        <path fill="none" stroke="#fa00fa" stroke-width="3" d="M 91 770 L 90 771 L 90 772 L 89 773 L 89 779 L 90 780 L 90 781 L 95 786 L 96 786 L 97 787 L 97 788 L 95 790 L 94 790 L 89 795 L 88 794 L 88 793 L 87 792 L 87 791 L 85 789 L 84 789 L 82 787 L 81 787 L 80 786 L 82 784 L 82 783 L 84 781 L 84 775 L 83 774 L 83 773 L 82 772 L 81 772 L 80 771 L 74 771 L 73 772 L 72 772 L 70 774 L 70 780 L 71 781 L 71 782 L 74 785 L 76 785 L 78 787 L 77 788 L 77 789 L 75 791 L 75 792 L 74 793 L 74 797 L 75 798 L 75 799 L 78 802 L 79 802 L 80 803 L 82 803 L 83 802 L 84 802 L 87 799 L 87 798 L 89 796 L 90 796 L 91 797 L 91 798 L 95 802 L 97 802 L 98 803 L 100 803 L 101 802 L 102 802 L 103 801 L 104 801 L 105 800 L 105 799 L 106 798 L 106 797 L 107 796 L 107 794 L 106 793 L 106 792 L 105 791 L 104 791 L 103 790 L 102 790 L 101 789 L 100 789 L 99 788 L 99 787 L 100 786 L 101 786 L 103 784 L 103 783 L 104 782 L 104 777 L 102 775 L 102 774 L 99 771 L 98 771 L 97 770 "></path>
        <path fill="none" stroke="#fa00fa" stroke-width="3" d="M 950 561 L 949 562 L 948 562 L 945 565 L 945 566 L 943 568 L 943 569 L 942 570 L 942 571 L 941 572 L 941 574 L 940 575 L 940 581 L 941 582 L 941 583 L 945 587 L 946 587 L 947 588 L 948 588 L 949 589 L 950 589 L 951 590 L 953 590 L 954 591 L 958 591 L 959 590 L 961 590 L 962 589 L 963 589 L 964 588 L 965 588 L 966 587 L 966 586 L 967 585 L 967 584 L 968 583 L 968 582 L 969 581 L 969 580 L 970 579 L 970 571 L 969 570 L 969 569 L 964 564 L 963 564 L 962 563 L 961 563 L 960 562 L 958 562 L 957 561 "></path>
        <path fill="none" stroke="#fa00fa" stroke-width="3" d="M 879 696 L 878 697 L 876 697 L 875 698 L 873 698 L 872 699 L 871 699 L 867 703 L 867 704 L 866 705 L 866 712 L 867 713 L 867 714 L 868 715 L 868 716 L 869 717 L 875 717 L 876 716 L 877 716 L 877 715 L 878 714 L 878 712 L 879 711 L 879 709 L 880 708 L 881 708 L 882 707 L 889 707 L 891 709 L 891 716 L 892 717 L 892 718 L 893 719 L 894 719 L 895 720 L 899 720 L 903 716 L 903 713 L 904 712 L 904 711 L 903 710 L 903 705 L 902 704 L 902 702 L 898 698 L 897 698 L 896 697 L 893 697 L 892 696 "></path>
        <path fill="none" stroke="#fa00fa" stroke-width="3" d="M 1038 28 L 1037 29 L 1036 29 L 1032 33 L 1027 33 L 1026 34 L 1024 34 L 1023 35 L 1022 35 L 1019 38 L 1017 36 L 1017 34 L 1014 31 L 1013 31 L 1012 30 L 1006 30 L 1005 31 L 1004 31 L 1002 33 L 1002 35 L 1001 36 L 1001 38 L 1002 39 L 1002 41 L 1004 43 L 1005 43 L 1006 44 L 1007 44 L 1008 45 L 1011 45 L 1012 44 L 1013 44 L 1014 43 L 1015 43 L 1018 40 L 1021 43 L 1021 44 L 1023 46 L 1024 46 L 1025 47 L 1028 47 L 1029 46 L 1030 46 L 1032 44 L 1033 44 L 1034 43 L 1036 43 L 1037 44 L 1038 44 L 1039 45 L 1044 45 L 1047 42 L 1047 41 L 1048 40 L 1048 35 L 1047 34 L 1047 33 L 1046 32 L 1046 31 L 1045 30 L 1044 30 L 1043 29 L 1042 29 L 1041 28 "></path>
        <path fill="none" stroke="#fa00fa" stroke-width="3" d="M 186 31 L 185 32 L 183 32 L 180 35 L 180 40 L 184 44 L 192 44 L 194 46 L 195 46 L 197 48 L 199 48 L 202 51 L 202 53 L 203 54 L 203 55 L 204 56 L 204 57 L 208 61 L 209 61 L 210 62 L 211 62 L 212 63 L 216 63 L 218 61 L 218 60 L 219 59 L 219 53 L 215 49 L 214 49 L 212 47 L 211 47 L 210 46 L 209 46 L 208 45 L 207 45 L 205 43 L 205 38 L 204 37 L 204 36 L 201 33 L 199 33 L 198 32 L 191 32 L 190 31 "></path>
        <path fill="none" stroke="#fa00fa" stroke-width="3" d="M 447 240 L 445 242 L 444 242 L 442 244 L 442 245 L 440 247 L 440 251 L 441 252 L 441 253 L 444 256 L 445 256 L 447 258 L 447 259 L 445 261 L 445 262 L 444 263 L 444 266 L 445 267 L 445 268 L 448 271 L 449 271 L 450 272 L 452 272 L 453 273 L 455 273 L 456 274 L 460 274 L 461 273 L 462 273 L 464 271 L 464 269 L 465 268 L 465 267 L 464 266 L 464 264 L 461 261 L 460 261 L 459 260 L 457 260 L 456 259 L 454 259 L 453 258 L 452 258 L 451 257 L 451 256 L 452 255 L 452 254 L 455 251 L 455 250 L 456 249 L 456 245 L 455 244 L 455 243 L 453 241 L 452 241 L 451 240 "></path>
        <path fill="none" stroke="#fa00fa" stroke-width="3" d="M 182 49 L 181 50 L 180 50 L 179 51 L 178 51 L 177 52 L 177 53 L 176 54 L 176 57 L 177 58 L 177 59 L 180 62 L 181 62 L 182 63 L 187 63 L 188 62 L 190 62 L 191 61 L 192 61 L 193 62 L 192 63 L 192 72 L 194 74 L 195 74 L 196 75 L 201 75 L 202 74 L 203 74 L 204 73 L 204 72 L 205 71 L 205 63 L 202 60 L 196 60 L 195 61 L 194 61 L 193 62 L 192 61 L 192 53 L 189 50 L 188 50 L 187 49 "></path>
        <path fill="none" stroke="#fa00fa" stroke-width="3" d="M 869 523 L 867 525 L 867 526 L 866 527 L 866 528 L 865 529 L 865 531 L 864 532 L 864 533 L 862 535 L 862 536 L 861 537 L 861 542 L 862 543 L 862 544 L 864 546 L 870 546 L 871 545 L 872 545 L 873 544 L 873 543 L 875 541 L 875 539 L 876 538 L 876 537 L 877 536 L 877 535 L 878 534 L 878 527 L 877 526 L 877 525 L 876 525 L 874 523 "></path>
        <path fill="none" stroke="#fa00fa" stroke-width="3" d="M 911 677 L 910 678 L 909 678 L 908 679 L 908 680 L 907 681 L 907 682 L 906 683 L 906 684 L 905 685 L 905 688 L 906 689 L 906 691 L 909 694 L 910 694 L 911 695 L 916 695 L 917 694 L 918 694 L 920 692 L 920 691 L 921 690 L 921 689 L 922 688 L 922 683 L 921 682 L 921 680 L 920 679 L 920 678 L 919 678 L 918 677 "></path>
        <path fill="none" stroke="#fa00fa" stroke-width="3" d="M 24 375 L 20 379 L 19 379 L 18 380 L 18 381 L 16 383 L 16 384 L 15 385 L 15 389 L 19 393 L 24 393 L 33 384 L 33 382 L 34 381 L 34 379 L 33 378 L 33 377 L 31 375 "></path>
        <path fill="none" stroke="#fa00fa" stroke-width="3" d="M 1034 761 L 1033 762 L 1032 762 L 1029 765 L 1029 777 L 1030 778 L 1030 779 L 1033 782 L 1034 782 L 1035 783 L 1037 783 L 1038 782 L 1039 782 L 1040 781 L 1040 780 L 1041 779 L 1041 778 L 1042 777 L 1042 767 L 1041 766 L 1041 765 L 1038 762 L 1037 762 L 1036 761 "></path>
        <path fill="none" stroke="#fa00fa" stroke-width="3" d="M 72 275 L 71 276 L 70 276 L 69 277 L 69 278 L 68 279 L 68 284 L 70 286 L 71 286 L 72 287 L 73 287 L 74 288 L 78 288 L 79 289 L 84 289 L 85 288 L 86 288 L 88 286 L 88 285 L 89 284 L 89 282 L 88 281 L 88 279 L 86 277 L 85 277 L 84 276 L 80 276 L 79 275 "></path>
        <path fill="none" stroke="#fa00fa" stroke-width="3" d="M 912 427 L 911 428 L 910 428 L 909 429 L 908 429 L 906 431 L 905 431 L 903 433 L 903 434 L 902 435 L 902 437 L 903 438 L 903 440 L 905 442 L 906 442 L 907 443 L 908 443 L 909 442 L 912 442 L 913 441 L 915 441 L 916 440 L 917 440 L 918 439 L 919 439 L 920 438 L 920 437 L 921 436 L 921 430 L 919 428 L 918 428 L 917 427 "></path>
        <path fill="none" stroke="#fa00fa" stroke-width="3" d="M 765 789 L 764 790 L 763 790 L 761 792 L 761 798 L 764 801 L 765 801 L 766 802 L 774 802 L 775 801 L 776 801 L 777 800 L 778 800 L 779 799 L 779 798 L 780 797 L 780 793 L 777 790 L 776 790 L 775 789 "></path>
        <path fill="none" stroke="#fa00fa" stroke-width="3" d="M 883 274 L 880 277 L 880 278 L 879 279 L 879 288 L 882 291 L 883 291 L 884 292 L 887 292 L 888 291 L 889 291 L 891 289 L 891 288 L 892 287 L 892 285 L 893 284 L 893 279 L 892 278 L 892 277 L 889 274 "></path>
        <path fill="none" stroke="#fa00fa" stroke-width="3" d="M 815 139 L 813 141 L 813 142 L 812 143 L 812 148 L 813 149 L 813 150 L 816 153 L 817 153 L 819 155 L 824 155 L 825 154 L 826 154 L 828 152 L 828 146 L 827 145 L 827 144 L 824 141 L 823 141 L 822 140 L 821 140 L 820 139 "></path>
        <path fill="none" stroke="#fa00fa" stroke-width="3" d="M 914 78 L 909 83 L 909 87 L 910 88 L 910 89 L 914 93 L 915 93 L 916 94 L 919 94 L 920 93 L 922 93 L 925 90 L 925 83 L 924 82 L 924 81 L 923 80 L 922 80 L 921 79 L 919 79 L 918 78 "></path>
        <path fill="none" stroke="#fa00fa" stroke-width="3" d="M 960 205 L 959 206 L 958 206 L 957 207 L 957 208 L 956 209 L 956 213 L 957 214 L 957 215 L 960 218 L 961 218 L 962 219 L 964 219 L 965 220 L 967 220 L 968 219 L 970 219 L 973 216 L 973 212 L 972 211 L 972 210 L 971 209 L 971 208 L 970 207 L 969 207 L 968 206 L 967 206 L 966 205 "></path>
        <path fill="none" stroke="#fa00fa" stroke-width="3" d="M 391 15 L 390 16 L 388 16 L 385 19 L 385 20 L 384 21 L 384 23 L 385 24 L 385 26 L 387 28 L 388 28 L 389 29 L 396 29 L 397 28 L 398 28 L 401 25 L 401 23 L 402 22 L 402 20 L 400 18 L 400 17 L 399 17 L 398 16 L 397 16 L 396 15 "></path>
        <path fill="none" stroke="#fa00fa" stroke-width="3" d="M 184 357 L 182 359 L 182 360 L 181 361 L 181 366 L 184 369 L 185 369 L 186 370 L 187 370 L 188 371 L 193 371 L 194 370 L 195 370 L 196 369 L 197 369 L 197 368 L 198 367 L 198 363 L 197 362 L 197 361 L 195 359 L 194 359 L 193 358 L 192 358 L 191 357 "></path>
        <path fill="none" stroke="#fa00fa" stroke-width="3" d="M 839 13 L 838 14 L 837 14 L 836 15 L 835 15 L 833 17 L 833 18 L 832 19 L 832 24 L 833 25 L 833 26 L 834 27 L 835 27 L 836 28 L 842 28 L 843 27 L 844 27 L 847 24 L 847 22 L 848 21 L 848 18 L 847 17 L 847 16 L 845 14 L 844 14 L 843 13 "></path>
        <path fill="none" stroke="#fa00fa" stroke-width="3" d="M 571 750 L 570 751 L 569 751 L 568 752 L 567 752 L 566 753 L 566 754 L 565 755 L 565 761 L 566 762 L 566 763 L 568 765 L 569 765 L 570 766 L 576 766 L 579 763 L 579 761 L 580 760 L 580 758 L 579 757 L 579 755 L 575 751 L 574 751 L 573 750 "></path>
        <path fill="none" stroke="#fa00fa" stroke-width="3" d="M 1018 564 L 1015 567 L 1015 568 L 1014 569 L 1014 573 L 1015 574 L 1015 576 L 1018 579 L 1019 579 L 1020 580 L 1024 580 L 1025 579 L 1026 579 L 1028 577 L 1028 575 L 1029 574 L 1029 572 L 1028 571 L 1028 569 L 1027 568 L 1027 567 L 1025 565 L 1024 565 L 1023 564 "></path>
        <path fill="none" stroke="#fa00fa" stroke-width="3" d="M 603 273 L 602 274 L 600 274 L 597 277 L 597 278 L 596 279 L 596 283 L 597 284 L 597 286 L 599 288 L 600 288 L 601 289 L 607 289 L 608 288 L 609 288 L 609 287 L 611 285 L 611 280 L 610 279 L 610 278 L 606 274 L 605 274 L 604 273 "></path>
        <path fill="none" stroke="#fa00fa" stroke-width="3" d="M 881 657 L 877 661 L 877 662 L 876 663 L 876 668 L 879 671 L 880 671 L 881 672 L 885 672 L 886 671 L 887 671 L 888 670 L 889 670 L 890 669 L 890 668 L 891 667 L 891 661 L 890 660 L 890 659 L 889 658 L 888 658 L 887 657 "></path>
        <path fill="none" stroke="#fa00fa" stroke-width="3" d="M 28 198 L 27 199 L 26 199 L 23 202 L 23 207 L 24 208 L 24 209 L 27 212 L 28 212 L 29 213 L 31 213 L 32 214 L 33 214 L 34 213 L 35 213 L 37 211 L 37 210 L 38 209 L 38 204 L 37 203 L 37 202 L 34 199 L 33 199 L 32 198 "></path>
        <path fill="none" stroke="#fa00fa" stroke-width="3" d="M 927 438 L 926 439 L 924 439 L 923 440 L 922 440 L 921 441 L 921 442 L 920 443 L 920 450 L 923 453 L 931 453 L 934 450 L 934 448 L 935 447 L 935 445 L 934 444 L 934 442 L 931 439 L 930 439 L 929 438 "></path>
        <path fill="none" stroke="#fa00fa" stroke-width="3" d="M 798 475 L 797 476 L 796 476 L 795 477 L 795 478 L 794 479 L 794 486 L 795 487 L 795 488 L 796 489 L 797 489 L 798 490 L 802 490 L 803 489 L 805 489 L 807 487 L 807 486 L 808 485 L 808 483 L 809 482 L 808 481 L 808 479 L 805 476 L 804 476 L 803 475 "></path>
        <path fill="none" stroke="#fa00fa" stroke-width="3" d="M 1003 700 L 1002 701 L 1001 701 L 999 703 L 999 704 L 998 705 L 998 706 L 997 707 L 997 711 L 998 712 L 998 713 L 999 714 L 1000 714 L 1001 715 L 1002 715 L 1003 716 L 1005 716 L 1006 715 L 1008 715 L 1010 713 L 1010 712 L 1011 711 L 1011 704 L 1008 701 L 1007 701 L 1006 700 "></path>
        <path fill="none" stroke="#fa00fa" stroke-width="3" d="M 53 740 L 52 741 L 51 741 L 50 742 L 50 743 L 49 744 L 49 750 L 50 751 L 50 752 L 52 754 L 53 754 L 54 755 L 58 755 L 59 754 L 60 754 L 63 751 L 63 745 L 61 743 L 61 742 L 60 741 L 59 741 L 58 740 "></path>
        <path fill="none" stroke="#fa00fa" stroke-width="3" d="M 45 723 L 44 724 L 42 724 L 40 726 L 40 727 L 39 728 L 39 734 L 43 738 L 45 738 L 46 739 L 47 739 L 48 738 L 50 738 L 51 737 L 51 736 L 52 735 L 52 734 L 53 733 L 53 729 L 52 728 L 52 727 L 49 724 L 47 724 L 46 723 "></path>
        <path fill="none" stroke="#fa00fa" stroke-width="3" d="M 19 291 L 18 292 L 17 292 L 13 296 L 13 297 L 12 298 L 12 300 L 13 301 L 13 302 L 16 305 L 17 305 L 18 306 L 21 306 L 22 305 L 23 305 L 24 304 L 25 304 L 27 302 L 27 296 L 25 294 L 25 293 L 24 292 L 23 292 L 22 291 "></path>
        <path fill="none" stroke="#fa00fa" stroke-width="3" d="M 687 15 L 683 19 L 683 26 L 686 29 L 687 29 L 688 30 L 691 30 L 692 29 L 694 29 L 695 28 L 695 27 L 696 26 L 696 20 L 695 19 L 695 18 L 692 15 "></path>
    </g>
</svg>
