<svg xmlns="http://www.w3.org/2000/svg" xmlns:xlink="http://www.w3.org/1999/xlink" version="1.1" x="0" y="0" width="1056px" height="816px">
    <g id="rootLayer" transform="translate(0.000000, 0.000000)">
        <path fill="none" stroke="#00fafa" stroke-width="3" d="M 506 434 L 507 433 L 509 435 L 509 436 L 510 437 L 509 438 L 509 439 L 511 441 L 510 442 L 510 443 L 512 445 L 512 447 L 513 448 L 509 452 L 509 453 L 507 455 L 508 455 L 509 456 L 508 457 L 507 457 L 505 459 L 504 459 L 503 458 L 503 457 L 502 456 L 501 457 L 497 453 L 497 449 L 498 448 L 497 447 L 497 446 L 498 445 L 499 445 L 499 444 L 500 443 L 501 443 L 501 442 L 502 441 L 503 441 L 504 440 L 503 439 L 503 437 L 505 435 L 506 436 L 506 437 "></path>
        <path fill="none" stroke="#00fafa" stroke-width="3" d="M 485 450 L 486 449 L 487 450 L 487 451 L 483 455 L 482 454 L 482 453 L 483 452 L 483 451 L 484 450 "></path>
        <path fill="none" stroke="#00fafa" stroke-width="3" d="M 491 434 L 492 435 L 492 438 L 491 439 L 489 439 L 488 438 L 488 437 "></path>
        <path fill="none" stroke="#00fafa" stroke-width="3" d="M 486 428 L 487 427 L 488 428 L 490 428 L 491 429 L 490 430 L 490 431 L 489 432 L 488 431 L 488 430 L 487 431 L 486 430 "></path>
        <path fill="none" stroke="#00fafa" stroke-width="3" d="M 500 422 L 501 422 L 502 423 L 500 425 L 500 426 L 499 427 L 497 425 "></path>
    </g>
</svg>
