<svg xmlns="http://www.w3.org/2000/svg" xmlns:xlink="http://www.w3.org/1999/xlink" version="1.1" x="0" y="0" width="1056px" height="816px">
    <g id="rootLayer" transform="translate(0.000000, 0.000000)">
        <path fill="none" stroke="#fa00fa" stroke-width="3" d="M 559 418 L 558 419 L 557 419 L 556 420 L 555 420 L 554 421 L 554 422 L 553 423 L 553 428 L 555 430 L 555 431 L 556 431 L 557 432 L 563 432 L 564 431 L 565 431 L 566 430 L 566 429 L 567 428 L 567 427 L 568 426 L 568 423 L 567 422 L 567 421 L 565 419 L 564 419 L 563 418 "></path>
        <path fill="none" stroke="#fa00fa" stroke-width="3" d="M 497 373 L 495 375 L 494 375 L 494 376 L 493 377 L 493 378 L 492 379 L 492 381 L 493 382 L 493 383 L 496 386 L 502 386 L 503 385 L 504 385 L 506 383 L 506 382 L 507 381 L 507 376 L 504 373 "></path>
        <path fill="none" stroke="#fa00fa" stroke-width="3" d="M 544 328 L 543 329 L 542 329 L 539 332 L 539 334 L 538 335 L 538 336 L 539 337 L 539 339 L 541 341 L 542 341 L 543 342 L 547 342 L 548 341 L 549 341 L 550 340 L 550 339 L 551 338 L 551 337 L 552 336 L 552 333 L 551 332 L 551 331 L 549 329 L 548 329 L 547 328 "></path>
        <path fill="none" stroke="#fa00fa" stroke-width="3" d="M 586 419 L 584 421 L 584 422 L 583 423 L 583 428 L 586 431 L 587 431 L 588 432 L 590 432 L 591 431 L 592 431 L 593 430 L 594 430 L 595 429 L 595 428 L 596 427 L 596 424 L 595 423 L 595 422 L 592 419 "></path>
        <path fill="none" stroke="#fa00fa" stroke-width="3" d="M 587 495 L 586 496 L 585 496 L 584 497 L 584 502 L 588 506 L 593 506 L 595 504 L 595 498 L 594 497 L 594 496 L 593 496 L 592 495 "></path>
        <path fill="none" stroke="#fa00fa" stroke-width="3" d="M 573 463 L 570 466 L 570 471 L 572 473 L 573 473 L 574 474 L 578 474 L 581 471 L 581 466 L 578 463 "></path>
        <path fill="none" stroke="#fa00fa" stroke-width="3" d="M 393 389 L 390 392 L 390 398 L 391 399 L 391 400 L 392 400 L 393 401 L 396 401 L 397 400 L 398 400 L 399 399 L 399 398 L 400 397 L 400 392 L 399 391 L 399 390 L 398 390 L 397 389 "></path>
        <path fill="none" stroke="#fa00fa" stroke-width="3" d="M 516 329 L 513 332 L 513 334 L 512 335 L 512 336 L 513 337 L 513 338 L 515 340 L 516 340 L 517 341 L 518 340 L 520 340 L 523 337 L 523 332 L 520 329 "></path>
        <path fill="none" stroke="#fa00fa" stroke-width="3" d="M 410 404 L 409 405 L 408 405 L 406 407 L 406 408 L 405 409 L 405 412 L 407 414 L 409 414 L 410 415 L 412 415 L 413 414 L 414 414 L 416 412 L 416 406 L 415 405 L 414 405 L 413 404 "></path>
        <path fill="none" stroke="#fa00fa" stroke-width="3" d="M 498 328 L 497 329 L 495 329 L 494 330 L 494 331 L 493 332 L 493 335 L 494 336 L 494 338 L 496 340 L 497 340 L 498 341 L 499 341 L 500 340 L 501 340 L 502 339 L 502 338 L 503 337 L 503 333 L 502 332 L 502 331 L 500 329 L 499 329 "></path>
        <path fill="none" stroke="#fa00fa" stroke-width="3" d="M 540 408 L 539 409 L 539 410 L 538 411 L 538 412 L 539 413 L 539 414 L 541 416 L 543 416 L 544 417 L 546 417 L 547 416 L 549 416 L 551 414 L 551 410 L 550 409 L 549 409 L 548 408 "></path>
        <path fill="none" stroke="#fa00fa" stroke-width="3" d="M 677 375 L 675 377 L 675 378 L 674 379 L 674 380 L 675 381 L 675 382 L 676 383 L 676 384 L 677 384 L 678 385 L 682 385 L 683 384 L 684 384 L 685 383 L 685 377 L 683 375 "></path>
        <path fill="none" stroke="#fa00fa" stroke-width="3" d="M 620 389 L 619 390 L 619 391 L 618 392 L 618 398 L 619 399 L 619 400 L 620 400 L 621 401 L 623 401 L 624 400 L 625 400 L 625 399 L 626 398 L 626 396 L 627 395 L 627 394 L 626 393 L 626 391 L 624 389 "></path>
        <path fill="none" stroke="#fa00fa" stroke-width="3" d="M 574 342 L 573 343 L 572 343 L 570 345 L 570 347 L 569 348 L 570 349 L 570 350 L 572 352 L 577 352 L 580 349 L 580 345 L 579 344 L 579 343 L 578 343 L 577 342 "></path>
        <path fill="none" stroke="#fa00fa" stroke-width="3" d="M 680 420 L 679 421 L 678 421 L 677 422 L 676 422 L 676 423 L 674 425 L 674 428 L 676 430 L 681 430 L 682 429 L 683 429 L 684 428 L 684 427 L 685 426 L 685 424 L 684 423 L 684 422 L 683 421 L 682 421 L 681 420 "></path>
        <path fill="none" stroke="#fa00fa" stroke-width="3" d="M 498 539 L 497 540 L 496 540 L 495 541 L 495 542 L 494 543 L 494 545 L 495 546 L 495 547 L 496 548 L 496 549 L 497 549 L 498 550 L 501 550 L 503 548 L 503 547 L 504 546 L 504 544 L 503 543 L 503 542 L 501 540 L 500 540 L 499 539 "></path>
        <path fill="none" stroke="#fa00fa" stroke-width="3" d="M 466 449 L 464 451 L 464 452 L 463 453 L 463 456 L 464 457 L 464 458 L 465 459 L 466 459 L 467 460 L 469 460 L 472 457 L 472 452 L 471 451 L 471 450 L 470 450 L 469 449 "></path>
        <path fill="none" stroke="#fa00fa" stroke-width="3" d="M 456 466 L 454 468 L 454 470 L 453 471 L 453 473 L 454 474 L 454 475 L 455 476 L 456 476 L 457 477 L 459 477 L 462 474 L 462 469 L 459 466 "></path>
        <path fill="none" stroke="#fa00fa" stroke-width="3" d="M 486 347 L 486 348 L 485 349 L 485 350 L 484 351 L 484 352 L 483 353 L 483 358 L 484 359 L 488 359 L 490 357 L 490 356 L 491 355 L 491 350 L 490 349 L 490 348 L 489 347 "></path>
        <path fill="none" stroke="#fa00fa" stroke-width="3" d="M 439 363 L 438 364 L 436 364 L 435 365 L 435 369 L 437 371 L 439 371 L 440 372 L 441 372 L 442 371 L 444 371 L 445 370 L 445 369 L 446 368 L 446 366 L 444 364 L 443 364 L 442 363 "></path>
        <path fill="none" stroke="#fa00fa" stroke-width="3" d="M 454 388 L 453 389 L 452 389 L 450 391 L 450 392 L 449 393 L 450 394 L 450 395 L 451 396 L 459 396 L 461 394 L 461 391 L 459 389 L 458 389 L 457 388 "></path>
        <path fill="none" stroke="#fa00fa" stroke-width="3" d="M 527 372 L 526 373 L 525 373 L 523 375 L 523 380 L 524 381 L 525 381 L 526 382 L 527 382 L 528 381 L 529 381 L 530 380 L 531 380 L 532 379 L 532 378 L 533 377 L 533 375 L 530 372 "></path>
        <path fill="none" stroke="#fa00fa" stroke-width="3" d="M 515 524 L 514 525 L 513 525 L 512 526 L 512 527 L 511 528 L 511 530 L 512 531 L 512 532 L 513 533 L 513 535 L 515 537 L 517 537 L 518 536 L 518 531 L 519 530 L 519 526 L 518 525 L 517 525 L 516 524 "></path>
        <path fill="none" stroke="#fa00fa" stroke-width="3" d="M 529 540 L 528 541 L 528 542 L 527 543 L 527 547 L 528 548 L 528 549 L 529 549 L 530 550 L 532 550 L 533 549 L 534 549 L 535 548 L 535 546 L 536 545 L 536 543 L 535 542 L 535 541 L 534 540 "></path>
        <path fill="none" stroke="#fa00fa" stroke-width="3" d="M 546 373 L 545 374 L 544 374 L 543 375 L 543 378 L 547 382 L 551 382 L 553 380 L 553 376 L 551 374 L 550 374 L 549 373 "></path>
        <path fill="none" stroke="#fa00fa" stroke-width="3" d="M 527 241 L 525 243 L 525 247 L 527 249 L 528 249 L 529 250 L 531 250 L 532 249 L 533 249 L 534 248 L 534 247 L 535 246 L 535 245 L 534 244 L 534 243 L 532 241 "></path>
        <path fill="none" stroke="#fa00fa" stroke-width="3" d="M 577 393 L 573 397 L 573 400 L 574 401 L 574 402 L 575 402 L 576 403 L 579 403 L 582 400 L 582 396 L 581 395 L 581 394 L 580 394 L 579 393 "></path>
        <path fill="none" stroke="#fa00fa" stroke-width="3" d="M 679 315 L 678 316 L 677 316 L 677 317 L 676 318 L 676 322 L 678 324 L 683 324 L 684 323 L 684 322 L 685 321 L 685 318 L 684 317 L 684 316 L 683 315 "></path>
        <path fill="none" stroke="#fa00fa" stroke-width="3" d="M 562 493 L 561 494 L 560 494 L 560 495 L 559 496 L 559 503 L 560 504 L 563 504 L 566 501 L 566 499 L 567 498 L 567 496 L 564 493 "></path>
        <path fill="none" stroke="#fa00fa" stroke-width="3" d="M 560 448 L 559 449 L 558 449 L 558 450 L 557 451 L 557 452 L 558 453 L 558 454 L 561 457 L 565 457 L 566 456 L 566 455 L 567 454 L 567 452 L 566 451 L 566 450 L 564 448 "></path>
        <path fill="none" stroke="#fa00fa" stroke-width="3" d="M 513 391 L 512 392 L 504 392 L 503 393 L 502 393 L 501 394 L 501 398 L 502 399 L 507 399 L 510 396 L 511 396 L 514 393 L 514 392 "></path>
        <path fill="none" stroke="#fa00fa" stroke-width="3" d="M 573 303 L 572 304 L 571 304 L 569 306 L 569 308 L 572 311 L 576 311 L 577 310 L 578 310 L 580 308 L 580 306 L 578 304 L 577 304 L 576 303 "></path>
        <path fill="none" stroke="#fa00fa" stroke-width="3" d="M 647 423 L 646 424 L 645 424 L 644 425 L 644 429 L 645 430 L 646 430 L 647 431 L 652 431 L 654 429 L 654 425 L 653 425 L 652 424 L 651 424 L 650 423 "></path>
        <path fill="none" stroke="#fa00fa" stroke-width="3" d="M 603 409 L 602 410 L 601 410 L 601 411 L 600 412 L 600 413 L 601 414 L 601 415 L 603 417 L 608 417 L 610 415 L 610 411 L 609 410 L 608 410 L 607 409 "></path>
        <path fill="none" stroke="#fa00fa" stroke-width="3" d="M 368 602 L 367 603 L 367 604 L 366 605 L 366 606 L 367 607 L 367 609 L 368 609 L 369 610 L 374 610 L 375 609 L 375 608 L 376 607 L 376 605 L 375 604 L 375 603 L 374 603 L 373 602 "></path>
        <path fill="none" stroke="#fa00fa" stroke-width="3" d="M 394 286 L 392 288 L 392 289 L 391 290 L 391 292 L 392 293 L 392 294 L 393 294 L 394 295 L 397 295 L 400 292 L 400 288 L 398 286 "></path>
        <path fill="none" stroke="#fa00fa" stroke-width="3" d="M 602 480 L 600 482 L 600 483 L 599 484 L 599 487 L 600 488 L 600 489 L 601 489 L 602 490 L 604 490 L 605 489 L 606 489 L 606 488 L 607 487 L 607 482 L 605 480 "></path>
        <path fill="none" stroke="#fa00fa" stroke-width="3" d="M 380 450 L 379 451 L 378 451 L 376 453 L 376 454 L 375 455 L 375 456 L 376 457 L 376 458 L 378 460 L 381 460 L 384 457 L 384 453 L 382 451 L 381 451 "></path>
        <path fill="none" stroke="#fa00fa" stroke-width="3" d="M 574 211 L 573 212 L 572 212 L 570 214 L 570 217 L 572 219 L 573 219 L 574 220 L 576 220 L 577 219 L 578 219 L 579 218 L 579 213 L 578 212 L 577 212 L 576 211 "></path>
        <path fill="none" stroke="#fa00fa" stroke-width="3" d="M 555 525 L 554 526 L 554 527 L 553 528 L 553 530 L 554 531 L 554 532 L 556 534 L 560 534 L 561 533 L 561 527 L 559 525 "></path>
        <path fill="none" stroke="#fa00fa" stroke-width="3" d="M 545 301 L 544 302 L 544 303 L 543 304 L 543 309 L 544 310 L 548 310 L 550 308 L 550 307 L 551 306 L 551 304 L 550 303 L 550 302 L 549 301 "></path>
        <path fill="none" stroke="#fa00fa" stroke-width="3" d="M 456 423 L 453 426 L 453 427 L 452 428 L 453 429 L 453 430 L 454 431 L 455 431 L 456 432 L 457 432 L 458 431 L 459 431 L 461 429 L 461 425 L 459 423 "></path>
        <path fill="none" stroke="#fa00fa" stroke-width="3" d="M 514 269 L 513 270 L 512 270 L 511 271 L 511 275 L 512 276 L 513 276 L 514 277 L 517 277 L 518 276 L 519 276 L 519 275 L 520 274 L 520 272 L 517 269 "></path>
        <path fill="none" stroke="#fa00fa" stroke-width="3" d="M 469 304 L 467 306 L 467 308 L 468 309 L 468 310 L 469 311 L 470 311 L 471 312 L 474 312 L 476 310 L 476 307 L 475 306 L 475 305 L 474 305 L 473 304 "></path>
        <path fill="none" stroke="#fa00fa" stroke-width="3" d="M 423 226 L 421 228 L 421 232 L 423 234 L 428 234 L 429 233 L 429 228 L 427 226 "></path>
        <path fill="none" stroke="#fa00fa" stroke-width="3" d="M 543 226 L 541 228 L 541 232 L 543 234 L 547 234 L 549 232 L 549 228 L 548 227 L 548 226 "></path>
        <path fill="none" stroke="#fa00fa" stroke-width="3" d="M 664 389 L 663 390 L 661 390 L 660 391 L 660 395 L 661 396 L 662 396 L 663 397 L 667 397 L 669 395 L 669 392 L 667 390 L 665 390 "></path>
        <path fill="none" stroke="#fa00fa" stroke-width="3" d="M 619 210 L 618 211 L 617 211 L 616 212 L 616 216 L 618 218 L 619 218 L 620 219 L 621 219 L 622 218 L 623 218 L 623 217 L 624 216 L 624 213 L 623 212 L 623 211 L 622 211 L 621 210 "></path>
        <path fill="none" stroke="#fa00fa" stroke-width="3" d="M 333 421 L 331 423 L 331 427 L 332 428 L 332 429 L 333 429 L 334 430 L 335 430 L 336 429 L 337 429 L 338 428 L 338 426 L 339 425 L 339 424 L 338 423 L 338 422 L 337 421 "></path>
        <path fill="none" stroke="#fa00fa" stroke-width="3" d="M 470 328 L 469 329 L 468 329 L 466 331 L 466 335 L 467 335 L 468 336 L 472 336 L 473 335 L 474 335 L 474 334 L 475 333 L 475 331 L 473 329 L 472 329 L 471 328 "></path>
        <path fill="none" stroke="#fa00fa" stroke-width="3" d="M 379 378 L 378 379 L 376 379 L 375 380 L 375 384 L 376 385 L 377 385 L 378 386 L 381 386 L 384 383 L 384 381 L 382 379 L 381 379 L 380 378 "></path>
        <path fill="none" stroke="#fa00fa" stroke-width="3" d="M 541 556 L 539 558 L 539 561 L 540 562 L 540 563 L 541 564 L 545 564 L 547 562 L 547 558 L 545 556 "></path>
        <path fill="none" stroke="#fa00fa" stroke-width="3" d="M 378 271 L 377 272 L 377 273 L 376 274 L 376 277 L 378 279 L 382 279 L 384 277 L 384 273 L 382 271 "></path>
        <path fill="none" stroke="#fa00fa" stroke-width="3" d="M 530 419 L 529 420 L 529 425 L 531 427 L 532 427 L 533 428 L 534 427 L 535 427 L 536 426 L 536 425 L 537 424 L 536 423 L 536 421 L 534 419 "></path>
        <path fill="none" stroke="#fa00fa" stroke-width="3" d="M 600 333 L 599 334 L 599 335 L 598 336 L 598 337 L 599 338 L 599 339 L 600 340 L 601 340 L 602 341 L 604 341 L 607 338 L 607 337 L 606 336 L 606 335 L 604 333 "></path>
        <path fill="none" stroke="#fa00fa" stroke-width="3" d="M 635 482 L 634 483 L 634 488 L 636 490 L 640 490 L 641 489 L 641 484 L 639 482 "></path>
        <path fill="none" stroke="#fa00fa" stroke-width="3" d="M 394 314 L 393 315 L 392 315 L 392 316 L 391 317 L 391 319 L 393 321 L 398 321 L 400 319 L 400 317 L 399 316 L 399 315 L 398 315 L 397 314 "></path>
        <path fill="none" stroke="#fa00fa" stroke-width="3" d="M 528 514 L 527 515 L 527 516 L 526 517 L 527 518 L 527 519 L 529 521 L 533 521 L 535 519 L 535 516 L 533 514 "></path>
        <path fill="none" stroke="#fa00fa" stroke-width="3" d="M 603 300 L 601 302 L 601 306 L 602 306 L 603 307 L 607 307 L 609 305 L 609 301 L 608 300 "></path>
        <path fill="none" stroke="#fa00fa" stroke-width="3" d="M 556 285 L 555 286 L 555 287 L 554 288 L 554 289 L 555 290 L 555 292 L 556 293 L 557 293 L 558 294 L 559 293 L 560 293 L 561 292 L 561 286 L 560 285 "></path>
        <path fill="none" stroke="#fa00fa" stroke-width="3" d="M 543 257 L 542 258 L 541 258 L 541 259 L 540 260 L 540 264 L 542 266 L 545 266 L 547 264 L 547 262 L 546 261 L 546 259 L 544 257 "></path>
        <path fill="none" stroke="#fa00fa" stroke-width="3" d="M 708 408 L 706 410 L 706 414 L 707 415 L 709 415 L 710 416 L 711 415 L 712 415 L 714 413 L 714 411 L 711 408 "></path>
        <path fill="none" stroke="#fa00fa" stroke-width="3" d="M 600 454 L 598 456 L 598 460 L 600 462 L 603 462 L 604 461 L 605 461 L 605 456 L 604 455 L 603 455 L 602 454 "></path>
        <path fill="none" stroke="#fa00fa" stroke-width="3" d="M 406 511 L 405 512 L 405 513 L 404 514 L 404 515 L 405 516 L 405 517 L 406 518 L 407 518 L 408 519 L 409 519 L 412 516 L 412 514 L 411 513 L 411 512 L 410 511 "></path>
        <path fill="none" stroke="#fa00fa" stroke-width="3" d="M 422 334 L 420 336 L 420 339 L 421 340 L 422 340 L 423 341 L 426 341 L 428 339 L 428 336 L 426 334 "></path>
        <path fill="none" stroke="#fa00fa" stroke-width="3" d="M 619 434 L 618 435 L 618 438 L 621 441 L 624 441 L 626 439 L 626 436 L 624 434 "></path>
        <path fill="none" stroke="#fa00fa" stroke-width="3" d="M 318 466 L 317 467 L 317 471 L 319 473 L 322 473 L 323 472 L 324 472 L 324 471 L 325 470 L 325 469 L 324 468 L 324 467 L 323 466 "></path>
        <path fill="none" stroke="#fa00fa" stroke-width="3" d="M 542 585 L 541 586 L 541 590 L 542 591 L 543 591 L 544 592 L 546 592 L 547 591 L 548 591 L 548 590 L 549 589 L 549 587 L 547 585 "></path>
        <path fill="none" stroke="#fa00fa" stroke-width="3" d="M 394 419 L 393 420 L 392 420 L 391 421 L 391 422 L 390 423 L 391 424 L 391 425 L 392 426 L 397 426 L 398 425 L 398 424 L 399 423 L 399 422 L 398 421 L 398 420 L 397 420 L 396 419 "></path>
        <path fill="none" stroke="#fa00fa" stroke-width="3" d="M 456 316 L 454 318 L 454 322 L 455 323 L 456 323 L 457 324 L 458 324 L 459 323 L 460 323 L 460 322 L 461 321 L 461 318 L 460 317 L 460 316 "></path>
        <path fill="none" stroke="#fa00fa" stroke-width="3" d="M 647 510 L 646 511 L 646 512 L 645 513 L 645 514 L 646 515 L 646 516 L 647 516 L 648 517 L 650 517 L 651 516 L 652 516 L 653 515 L 653 511 L 652 510 "></path>
        <path fill="none" stroke="#fa00fa" stroke-width="3" d="M 695 434 L 692 437 L 692 439 L 694 441 L 698 441 L 700 439 L 700 436 L 699 435 L 698 435 L 697 434 "></path>
        <path fill="none" stroke="#fa00fa" stroke-width="3" d="M 378 510 L 377 511 L 376 511 L 376 515 L 377 516 L 378 516 L 379 517 L 380 517 L 381 516 L 383 516 L 383 515 L 384 514 L 384 512 L 382 510 "></path>
        <path fill="none" stroke="#fa00fa" stroke-width="3" d="M 710 466 L 709 467 L 708 467 L 707 468 L 707 469 L 706 470 L 706 472 L 708 474 L 711 474 L 713 472 L 713 468 L 711 466 "></path>
        <path fill="none" stroke="#fa00fa" stroke-width="3" d="M 725 481 L 724 482 L 722 482 L 722 483 L 721 484 L 721 487 L 722 488 L 723 488 L 724 489 L 726 489 L 728 487 L 728 483 L 727 482 L 726 482 "></path>
        <path fill="none" stroke="#fa00fa" stroke-width="3" d="M 510 304 L 508 306 L 508 309 L 509 310 L 510 310 L 511 311 L 513 311 L 514 310 L 515 310 L 515 309 L 516 308 L 516 307 L 515 306 L 515 305 L 514 305 L 513 304 "></path>
        <path fill="none" stroke="#fa00fa" stroke-width="3" d="M 680 347 L 680 348 L 679 349 L 679 352 L 681 354 L 684 354 L 686 352 L 686 349 L 684 347 "></path>
        <path fill="none" stroke="#fa00fa" stroke-width="3" d="M 605 359 L 604 360 L 604 361 L 603 362 L 604 363 L 604 364 L 606 366 L 609 366 L 611 364 L 611 362 L 610 361 L 610 360 L 609 360 L 608 359 "></path>
        <path fill="none" stroke="#fa00fa" stroke-width="3" d="M 364 329 L 362 331 L 362 334 L 364 336 L 367 336 L 369 334 L 369 330 L 368 330 L 367 329 "></path>
        <path fill="none" stroke="#fa00fa" stroke-width="3" d="M 592 285 L 589 288 L 589 290 L 590 291 L 590 292 L 591 293 L 594 293 L 595 292 L 595 291 L 596 290 L 596 288 L 595 287 L 595 286 L 594 286 L 593 285 "></path>
        <path fill="none" stroke="#fa00fa" stroke-width="3" d="M 572 510 L 571 511 L 571 512 L 570 513 L 571 514 L 571 515 L 572 516 L 577 516 L 578 515 L 578 511 L 577 510 "></path>
        <path fill="none" stroke="#fa00fa" stroke-width="3" d="M 365 467 L 364 468 L 364 473 L 365 474 L 369 474 L 370 473 L 370 468 L 369 467 "></path>
        <path fill="none" stroke="#fa00fa" stroke-width="3" d="M 440 449 L 439 450 L 439 453 L 442 456 L 443 456 L 444 455 L 445 455 L 446 454 L 446 451 L 444 449 "></path>
        <path fill="none" stroke="#fa00fa" stroke-width="3" d="M 365 348 L 364 349 L 362 349 L 362 350 L 361 351 L 361 352 L 364 355 L 366 355 L 367 354 L 368 354 L 369 353 L 369 351 L 368 350 L 368 349 L 366 349 "></path>
        <path fill="none" stroke="#fa00fa" stroke-width="3" d="M 635 616 L 634 617 L 633 617 L 632 618 L 632 619 L 631 620 L 632 621 L 632 622 L 633 623 L 637 623 L 638 622 L 638 621 L 639 620 L 639 619 L 637 617 L 636 617 "></path>
        <path fill="none" stroke="#fa00fa" stroke-width="3" d="M 408 256 L 407 257 L 406 257 L 406 258 L 405 259 L 405 262 L 407 264 L 409 264 L 411 262 L 411 258 L 409 256 "></path>
        <path fill="none" stroke="#fa00fa" stroke-width="3" d="M 303 482 L 301 484 L 301 486 L 303 488 L 307 488 L 308 487 L 308 483 L 307 482 "></path>
        <path fill="none" stroke="#fa00fa" stroke-width="3" d="M 724 348 L 722 350 L 722 353 L 724 355 L 726 355 L 727 354 L 728 354 L 728 353 L 729 352 L 729 351 L 728 350 L 728 349 L 727 349 L 726 348 "></path>
        <path fill="none" stroke="#fa00fa" stroke-width="3" d="M 723 542 L 722 543 L 722 544 L 721 545 L 722 546 L 722 547 L 724 549 L 725 549 L 726 548 L 727 548 L 728 547 L 728 543 L 727 542 "></path>
        <path fill="none" stroke="#fa00fa" stroke-width="3" d="M 602 435 L 600 437 L 600 438 L 599 439 L 599 440 L 601 442 L 603 442 L 606 439 L 606 436 L 605 435 "></path>
        <path fill="none" stroke="#fa00fa" stroke-width="3" d="M 532 439 L 530 441 L 530 444 L 531 445 L 535 445 L 537 443 L 537 441 L 535 439 "></path>
        <path fill="none" stroke="#fa00fa" stroke-width="3" d="M 425 569 L 424 570 L 423 570 L 422 571 L 422 574 L 423 575 L 424 575 L 425 576 L 426 576 L 427 575 L 428 575 L 428 574 L 429 573 L 429 572 L 428 571 L 428 570 L 427 570 L 426 569 "></path>
        <path fill="none" stroke="#fa00fa" stroke-width="3" d="M 303 287 L 302 288 L 302 289 L 301 290 L 301 291 L 303 293 L 306 293 L 308 291 L 308 288 L 307 287 "></path>
        <path fill="none" stroke="#fa00fa" stroke-width="3" d="M 423 314 L 422 315 L 421 315 L 420 316 L 420 320 L 421 321 L 424 321 L 426 319 L 426 316 L 424 314 "></path>
        <path fill="none" stroke="#fa00fa" stroke-width="3" d="M 452 557 L 450 559 L 450 562 L 452 564 L 454 564 L 456 562 L 456 559 L 454 557 "></path>
        <path fill="none" stroke="#fa00fa" stroke-width="3" d="M 436 405 L 435 406 L 435 407 L 434 408 L 434 409 L 435 410 L 435 411 L 439 411 L 441 409 L 441 407 L 440 406 L 440 405 "></path>
        <path fill="none" stroke="#fa00fa" stroke-width="3" d="M 333 318 L 331 320 L 331 323 L 332 323 L 333 324 L 335 324 L 338 321 L 338 319 L 337 318 "></path>
        <path fill="none" stroke="#fa00fa" stroke-width="3" d="M 437 425 L 435 427 L 435 428 L 436 429 L 436 430 L 437 431 L 441 431 L 441 430 L 442 429 L 442 427 L 440 425 "></path>
    </g>
</svg>
