<svg xmlns="http://www.w3.org/2000/svg" xmlns:xlink="http://www.w3.org/1999/xlink" version="1.1" x="0" y="0" width="1056px" height="816px">
    <g id="rootLayer" transform="translate(0.000000, 0.000000)">
        <path fill="none" stroke="#00fafa" stroke-width="3" d="M 542 491 L 544 493 L 544 494 L 546 494 L 547 495 L 546 496 L 547 496 L 548 497 L 548 498 L 547 499 L 547 500 L 546 501 L 545 500 L 544 501 L 544 503 L 545 504 L 544 505 L 543 505 L 544 505 L 546 507 L 546 508 L 547 509 L 547 511 L 549 511 L 550 512 L 548 514 L 546 514 L 545 513 L 543 515 L 541 515 L 540 514 L 539 515 L 538 514 L 536 514 L 535 515 L 533 515 L 532 516 L 532 517 L 530 519 L 529 519 L 529 523 L 530 524 L 531 524 L 533 526 L 533 529 L 532 530 L 531 530 L 531 532 L 530 533 L 530 534 L 529 535 L 527 535 L 526 534 L 526 533 L 525 532 L 525 531 L 524 531 L 522 529 L 521 529 L 520 528 L 520 529 L 519 530 L 518 529 L 518 530 L 517 531 L 516 531 L 516 532 L 515 533 L 514 533 L 513 534 L 512 533 L 510 533 L 509 532 L 509 531 L 508 530 L 507 531 L 506 530 L 506 529 L 505 530 L 504 529 L 503 530 L 502 530 L 501 531 L 501 532 L 500 533 L 499 532 L 500 533 L 499 534 L 499 537 L 503 541 L 505 541 L 506 542 L 505 543 L 506 544 L 505 545 L 502 545 L 499 548 L 499 550 L 498 551 L 499 550 L 500 551 L 500 552 L 499 553 L 500 553 L 502 555 L 503 555 L 504 556 L 504 557 L 505 557 L 507 555 L 509 555 L 508 554 L 509 553 L 510 553 L 510 551 L 511 550 L 510 549 L 511 548 L 510 548 L 509 547 L 508 547 L 507 546 L 507 543 L 508 542 L 507 541 L 508 540 L 509 540 L 510 539 L 510 538 L 513 535 L 514 536 L 514 537 L 515 538 L 515 539 L 517 539 L 518 540 L 521 540 L 522 541 L 521 542 L 521 543 L 520 544 L 519 543 L 519 545 L 518 546 L 517 545 L 517 546 L 516 547 L 515 547 L 515 548 L 513 550 L 513 552 L 515 552 L 516 553 L 515 554 L 516 553 L 519 556 L 520 556 L 521 555 L 523 555 L 525 553 L 525 552 L 526 551 L 526 550 L 527 549 L 528 549 L 529 550 L 529 551 L 530 552 L 529 553 L 530 553 L 531 554 L 531 555 L 532 555 L 533 554 L 534 555 L 534 556 L 535 557 L 535 558 L 534 559 L 533 559 L 530 562 L 527 562 L 526 563 L 525 563 L 524 562 L 524 561 L 523 560 L 522 560 L 521 559 L 520 560 L 519 560 L 518 559 L 516 561 L 516 562 L 515 563 L 514 562 L 512 564 L 511 564 L 510 563 L 510 561 L 509 560 L 508 560 L 507 559 L 506 560 L 501 560 L 499 562 L 498 562 L 496 560 L 496 559 L 495 558 L 494 558 L 493 557 L 493 556 L 494 555 L 494 553 L 495 552 L 495 551 L 496 550 L 496 549 L 495 548 L 494 548 L 492 546 L 492 544 L 491 543 L 491 542 L 494 539 L 494 537 L 496 535 L 496 534 L 495 533 L 495 531 L 492 528 L 492 527 L 493 526 L 493 525 L 495 523 L 496 523 L 498 521 L 499 521 L 500 522 L 501 522 L 502 523 L 502 524 L 504 526 L 506 526 L 507 525 L 508 525 L 510 523 L 511 523 L 512 522 L 514 524 L 516 524 L 517 525 L 520 525 L 521 526 L 521 525 L 522 524 L 523 525 L 525 523 L 526 523 L 526 518 L 525 518 L 524 517 L 525 516 L 524 516 L 521 513 L 521 511 L 522 510 L 523 510 L 524 509 L 525 509 L 526 508 L 526 507 L 528 505 L 530 507 L 530 508 L 532 510 L 536 510 L 537 511 L 539 509 L 539 508 L 541 506 L 540 505 L 541 504 L 539 502 L 538 502 L 537 501 L 537 500 L 535 498 "></path>
        <path fill="none" stroke="#00fafa" stroke-width="3" d="M 542 280 L 543 281 L 543 282 L 544 283 L 544 284 L 545 285 L 546 284 L 548 286 L 549 286 L 550 287 L 549 288 L 549 289 L 548 290 L 547 290 L 546 291 L 545 291 L 545 293 L 546 294 L 546 299 L 547 298 L 549 300 L 548 301 L 549 300 L 552 300 L 553 299 L 554 299 L 556 297 L 557 297 L 558 296 L 561 299 L 560 300 L 561 299 L 562 299 L 564 301 L 565 300 L 566 300 L 567 299 L 569 299 L 570 298 L 570 297 L 571 296 L 573 296 L 576 299 L 576 300 L 577 300 L 578 301 L 579 301 L 580 302 L 580 303 L 579 304 L 578 303 L 579 304 L 578 305 L 576 305 L 576 307 L 573 310 L 572 309 L 571 309 L 570 308 L 570 307 L 568 305 L 564 305 L 563 304 L 561 306 L 560 306 L 560 309 L 559 310 L 559 312 L 560 313 L 560 314 L 563 317 L 564 317 L 565 318 L 563 320 L 562 320 L 562 322 L 561 323 L 559 323 L 558 324 L 557 324 L 556 323 L 555 323 L 554 322 L 554 320 L 553 320 L 551 318 L 551 316 L 552 315 L 553 315 L 553 314 L 554 313 L 555 313 L 556 312 L 555 311 L 556 310 L 556 309 L 555 308 L 555 307 L 554 306 L 553 306 L 552 305 L 550 305 L 549 306 L 546 306 L 544 308 L 544 311 L 545 312 L 545 313 L 547 315 L 550 315 L 551 316 L 550 317 L 549 317 L 550 318 L 549 319 L 548 319 L 547 320 L 546 320 L 546 321 L 545 322 L 545 323 L 544 324 L 543 324 L 543 325 L 544 326 L 544 327 L 545 328 L 546 328 L 547 329 L 547 330 L 549 332 L 548 333 L 548 334 L 547 335 L 546 335 L 546 336 L 545 337 L 545 338 L 544 339 L 545 340 L 544 341 L 545 342 L 545 343 L 546 342 L 547 343 L 547 345 L 548 345 L 549 346 L 548 347 L 548 349 L 547 350 L 545 350 L 544 351 L 545 352 L 544 353 L 543 353 L 542 354 L 540 352 L 540 351 L 539 351 L 537 349 L 537 346 L 540 343 L 540 337 L 537 334 L 536 334 L 535 335 L 534 334 L 534 333 L 532 335 L 529 335 L 527 337 L 526 336 L 525 337 L 522 334 L 522 333 L 522 334 L 521 335 L 519 333 L 520 332 L 520 331 L 521 330 L 522 330 L 523 329 L 524 329 L 523 328 L 524 327 L 525 327 L 525 326 L 526 325 L 526 324 L 527 323 L 528 324 L 528 326 L 529 326 L 530 327 L 530 328 L 531 328 L 532 329 L 531 330 L 532 331 L 538 331 L 541 328 L 540 327 L 541 326 L 541 325 L 540 324 L 540 323 L 539 322 L 538 322 L 537 321 L 537 320 L 536 319 L 535 319 L 534 320 L 533 319 L 532 320 L 531 320 L 531 321 L 528 324 L 527 323 L 526 324 L 525 323 L 525 322 L 522 319 L 522 317 L 528 311 L 529 311 L 530 312 L 530 313 L 531 314 L 531 315 L 532 314 L 533 315 L 533 316 L 535 316 L 536 315 L 537 316 L 539 314 L 540 314 L 541 313 L 541 312 L 540 311 L 541 310 L 541 309 L 540 308 L 540 307 L 539 306 L 539 305 L 538 305 L 536 303 L 536 302 L 537 301 L 536 300 L 538 298 L 540 298 L 541 297 L 541 295 L 542 294 L 541 294 L 540 293 L 540 292 L 538 290 L 537 290 L 534 287 L 535 286 L 537 286 L 538 285 L 539 285 L 539 284 L 540 283 L 540 282 "></path>
        <path fill="none" stroke="#00fafa" stroke-width="3" d="M 600 357 L 601 356 L 603 356 L 604 357 L 604 358 L 605 358 L 607 360 L 610 360 L 612 358 L 615 358 L 616 357 L 617 358 L 618 358 L 619 359 L 620 358 L 621 359 L 622 359 L 623 360 L 624 360 L 625 361 L 625 363 L 624 364 L 623 364 L 619 368 L 618 368 L 619 369 L 618 370 L 617 370 L 616 369 L 616 368 L 615 367 L 615 366 L 614 365 L 613 365 L 612 364 L 610 364 L 608 366 L 606 366 L 606 367 L 604 369 L 604 370 L 605 371 L 605 372 L 606 372 L 607 373 L 607 375 L 608 375 L 610 377 L 611 376 L 612 377 L 612 376 L 613 375 L 614 375 L 614 374 L 618 370 L 619 371 L 619 372 L 620 373 L 620 374 L 623 374 L 624 375 L 624 376 L 623 377 L 623 378 L 620 381 L 620 382 L 617 385 L 616 384 L 616 383 L 615 382 L 614 382 L 611 379 L 609 379 L 609 380 L 608 381 L 606 381 L 605 382 L 605 383 L 604 384 L 604 388 L 605 389 L 606 389 L 608 391 L 608 392 L 607 393 L 607 394 L 606 395 L 606 396 L 605 397 L 604 396 L 604 397 L 603 398 L 602 398 L 600 396 L 599 396 L 598 397 L 596 395 L 595 395 L 594 394 L 595 393 L 590 398 L 590 399 L 589 400 L 587 398 L 586 398 L 585 397 L 585 396 L 584 396 L 583 395 L 582 395 L 581 394 L 581 392 L 582 391 L 584 391 L 584 390 L 585 389 L 586 389 L 586 384 L 585 383 L 585 381 L 584 381 L 582 379 L 582 378 L 583 377 L 582 376 L 583 375 L 584 375 L 584 373 L 585 372 L 586 373 L 585 372 L 586 371 L 588 371 L 590 373 L 590 375 L 591 376 L 593 376 L 594 375 L 595 376 L 596 375 L 597 375 L 598 374 L 599 374 L 601 372 L 601 369 L 600 368 L 600 366 L 599 366 L 598 365 L 597 365 L 596 364 L 597 363 L 597 361 L 600 358 "></path>
        <path fill="none" stroke="#00fafa" stroke-width="3" d="M 524 269 L 525 268 L 529 268 L 530 269 L 530 270 L 531 270 L 532 271 L 532 272 L 533 273 L 531 275 L 530 275 L 529 276 L 530 277 L 530 279 L 529 280 L 529 281 L 531 283 L 531 286 L 532 287 L 534 287 L 535 288 L 534 289 L 534 290 L 533 291 L 532 290 L 532 291 L 531 292 L 529 292 L 529 294 L 528 295 L 527 294 L 526 294 L 524 292 L 525 291 L 524 290 L 523 290 L 522 289 L 521 290 L 520 289 L 518 289 L 516 291 L 516 292 L 515 293 L 514 293 L 514 294 L 513 295 L 514 296 L 513 297 L 514 297 L 518 301 L 520 301 L 521 300 L 522 301 L 522 302 L 522 300 L 525 297 L 526 298 L 526 297 L 527 296 L 528 297 L 529 297 L 530 298 L 530 299 L 532 301 L 535 301 L 536 302 L 534 304 L 534 305 L 533 306 L 532 305 L 532 306 L 529 309 L 528 308 L 526 308 L 525 307 L 526 306 L 525 306 L 524 305 L 523 306 L 522 305 L 522 304 L 521 305 L 517 305 L 517 306 L 516 307 L 515 307 L 514 308 L 514 309 L 515 310 L 515 311 L 516 312 L 516 314 L 517 315 L 519 315 L 520 316 L 519 317 L 520 317 L 521 318 L 520 319 L 520 320 L 519 321 L 518 320 L 518 319 L 516 321 L 515 321 L 515 322 L 513 324 L 511 322 L 511 321 L 508 318 L 508 316 L 510 314 L 510 313 L 511 312 L 511 311 L 512 310 L 512 309 L 509 306 L 509 305 L 507 305 L 506 304 L 507 303 L 506 302 L 508 300 L 509 300 L 508 299 L 509 298 L 510 298 L 511 297 L 511 295 L 510 294 L 510 293 L 509 292 L 509 291 L 508 291 L 507 290 L 506 290 L 505 289 L 505 288 L 502 291 L 502 292 L 499 295 L 498 294 L 497 294 L 496 293 L 496 292 L 495 292 L 493 290 L 491 290 L 490 289 L 490 288 L 492 286 L 493 286 L 495 284 L 495 283 L 496 282 L 498 282 L 499 283 L 500 283 L 502 285 L 508 285 L 509 284 L 509 283 L 511 281 L 513 281 L 517 285 L 517 286 L 519 286 L 520 287 L 523 284 L 524 284 L 525 283 L 525 281 L 526 280 L 527 281 L 526 280 L 528 278 L 527 277 L 527 276 L 526 277 L 525 276 L 524 276 L 522 274 L 522 273 L 524 271 "></path>
        <path fill="none" stroke="#00fafa" stroke-width="3" d="M 616 280 L 617 279 L 620 282 L 620 283 L 622 283 L 625 286 L 626 285 L 627 286 L 628 286 L 629 285 L 629 284 L 632 281 L 634 283 L 635 282 L 636 283 L 636 284 L 637 284 L 638 285 L 641 285 L 642 286 L 643 285 L 644 285 L 645 284 L 646 284 L 646 283 L 647 282 L 648 282 L 649 283 L 650 283 L 651 284 L 651 286 L 652 286 L 654 288 L 653 289 L 654 290 L 654 291 L 653 292 L 652 291 L 651 291 L 651 292 L 650 293 L 649 293 L 650 294 L 649 295 L 646 295 L 645 294 L 646 293 L 643 290 L 642 290 L 641 289 L 639 289 L 638 288 L 638 289 L 639 290 L 638 291 L 636 291 L 635 292 L 633 292 L 632 293 L 631 292 L 630 292 L 629 291 L 628 292 L 627 291 L 627 289 L 625 289 L 624 290 L 621 290 L 619 292 L 620 293 L 618 295 L 619 296 L 619 298 L 621 300 L 621 301 L 623 303 L 621 305 L 621 306 L 620 307 L 620 308 L 619 309 L 618 308 L 619 309 L 618 310 L 617 310 L 615 308 L 615 307 L 612 304 L 612 303 L 613 302 L 613 300 L 614 299 L 615 299 L 616 298 L 616 296 L 615 295 L 616 294 L 611 289 L 610 290 L 609 289 L 608 290 L 606 290 L 604 292 L 603 292 L 602 293 L 601 292 L 600 293 L 599 292 L 599 291 L 598 290 L 596 290 L 595 289 L 594 290 L 593 290 L 592 291 L 591 291 L 591 292 L 590 293 L 589 293 L 588 294 L 586 294 L 585 293 L 585 292 L 583 290 L 581 290 L 579 288 L 578 289 L 577 288 L 577 287 L 576 286 L 577 285 L 579 285 L 580 286 L 581 285 L 582 285 L 583 284 L 584 284 L 584 283 L 587 280 L 588 280 L 589 281 L 589 282 L 590 283 L 590 284 L 591 284 L 592 285 L 594 285 L 595 284 L 596 285 L 597 285 L 599 283 L 599 281 L 600 280 L 602 282 L 603 282 L 604 281 L 605 282 L 605 284 L 606 284 L 607 285 L 607 286 L 608 286 L 609 285 L 610 285 L 611 284 L 612 285 L 616 281 "></path>
        <path fill="none" stroke="#00fafa" stroke-width="3" d="M 452 490 L 453 490 L 454 491 L 454 493 L 456 495 L 458 495 L 459 496 L 460 496 L 461 497 L 462 496 L 463 496 L 464 495 L 465 495 L 466 494 L 467 494 L 467 491 L 468 490 L 469 491 L 469 493 L 470 492 L 471 493 L 472 493 L 474 495 L 474 496 L 476 496 L 477 495 L 478 495 L 479 494 L 479 493 L 482 490 L 484 492 L 484 494 L 485 494 L 488 497 L 488 499 L 487 500 L 486 500 L 486 502 L 485 503 L 484 503 L 482 505 L 481 504 L 481 503 L 480 502 L 480 501 L 479 501 L 478 500 L 477 500 L 476 499 L 477 498 L 475 498 L 472 501 L 471 501 L 469 503 L 469 504 L 468 505 L 468 506 L 467 507 L 465 505 L 466 504 L 465 504 L 464 503 L 465 502 L 464 501 L 463 502 L 461 500 L 460 500 L 459 501 L 457 501 L 455 503 L 455 504 L 454 505 L 454 506 L 456 508 L 456 509 L 457 510 L 457 512 L 458 513 L 457 514 L 456 514 L 457 515 L 456 516 L 455 516 L 456 517 L 454 519 L 453 519 L 452 520 L 451 519 L 451 517 L 449 515 L 448 516 L 447 515 L 444 515 L 443 516 L 442 515 L 441 516 L 440 516 L 441 517 L 440 518 L 440 521 L 441 522 L 440 523 L 441 523 L 442 524 L 441 525 L 442 525 L 443 526 L 443 527 L 441 529 L 441 530 L 440 531 L 441 532 L 440 533 L 439 533 L 438 534 L 437 534 L 436 533 L 436 532 L 435 531 L 435 530 L 434 530 L 432 528 L 432 527 L 433 526 L 433 525 L 434 524 L 434 523 L 435 522 L 436 522 L 435 521 L 436 520 L 435 519 L 436 518 L 435 517 L 435 515 L 431 515 L 430 514 L 431 513 L 431 512 L 433 510 L 435 510 L 435 509 L 436 508 L 436 506 L 437 505 L 436 504 L 437 503 L 436 502 L 436 501 L 435 500 L 436 499 L 439 499 L 440 500 L 440 503 L 439 504 L 441 506 L 441 508 L 442 509 L 442 510 L 443 509 L 444 510 L 444 511 L 445 510 L 448 510 L 449 509 L 450 509 L 449 508 L 451 506 L 452 506 L 452 505 L 451 504 L 451 501 L 449 499 L 448 500 L 446 498 L 447 497 L 447 496 L 450 493 L 450 492 "></path>
        <path fill="none" stroke="#00fafa" stroke-width="3" d="M 556 459 L 557 458 L 559 460 L 559 461 L 560 462 L 560 463 L 561 464 L 562 464 L 563 465 L 563 466 L 568 466 L 571 463 L 571 462 L 572 461 L 574 463 L 575 463 L 576 464 L 576 465 L 577 465 L 578 466 L 579 465 L 580 465 L 581 466 L 582 465 L 583 466 L 582 465 L 583 464 L 584 464 L 585 463 L 585 462 L 586 461 L 585 460 L 586 459 L 588 459 L 590 461 L 590 463 L 591 463 L 593 465 L 594 465 L 596 467 L 595 468 L 594 468 L 595 468 L 596 469 L 595 470 L 593 470 L 592 469 L 592 470 L 591 471 L 590 471 L 586 475 L 585 474 L 585 472 L 584 473 L 582 471 L 583 470 L 583 469 L 582 470 L 581 469 L 580 470 L 577 470 L 577 472 L 576 473 L 575 472 L 575 473 L 574 474 L 574 475 L 575 476 L 575 477 L 576 478 L 576 480 L 577 479 L 578 480 L 578 481 L 579 481 L 580 482 L 580 483 L 579 484 L 577 484 L 577 485 L 576 486 L 575 486 L 574 487 L 575 488 L 574 489 L 573 489 L 569 485 L 568 486 L 567 485 L 567 484 L 566 485 L 565 485 L 564 484 L 562 486 L 560 486 L 558 488 L 556 486 L 555 486 L 553 484 L 552 484 L 551 483 L 552 482 L 553 482 L 552 481 L 555 478 L 556 478 L 555 477 L 556 476 L 555 475 L 555 473 L 554 472 L 554 471 L 551 468 L 551 467 L 556 462 "></path>
        <path fill="none" stroke="#00fafa" stroke-width="3" d="M 437 385 L 438 384 L 439 385 L 439 387 L 440 388 L 440 389 L 441 388 L 442 389 L 442 390 L 443 390 L 446 393 L 444 395 L 442 395 L 440 397 L 440 398 L 439 399 L 440 400 L 439 401 L 441 403 L 440 404 L 441 405 L 442 405 L 443 406 L 444 405 L 445 406 L 446 406 L 447 405 L 449 405 L 449 404 L 450 403 L 450 402 L 449 401 L 450 400 L 450 399 L 451 398 L 452 398 L 449 395 L 448 395 L 445 392 L 445 391 L 446 390 L 447 391 L 448 391 L 448 390 L 450 388 L 453 388 L 454 389 L 455 389 L 456 390 L 456 391 L 459 394 L 457 396 L 456 396 L 455 397 L 454 397 L 455 398 L 454 399 L 455 400 L 455 402 L 457 404 L 457 405 L 459 407 L 459 408 L 458 409 L 457 409 L 455 411 L 455 412 L 456 413 L 455 414 L 454 414 L 454 416 L 453 417 L 452 416 L 452 414 L 451 413 L 451 412 L 450 412 L 449 411 L 450 410 L 449 410 L 448 409 L 442 409 L 442 411 L 441 412 L 439 412 L 440 413 L 438 415 L 437 414 L 441 418 L 441 419 L 443 421 L 444 421 L 445 420 L 446 421 L 447 420 L 448 420 L 448 418 L 449 417 L 450 418 L 450 417 L 451 416 L 453 418 L 453 419 L 454 418 L 455 419 L 455 420 L 457 420 L 458 421 L 458 422 L 457 423 L 457 424 L 456 425 L 456 426 L 455 427 L 454 427 L 453 428 L 453 430 L 452 431 L 451 430 L 451 428 L 448 425 L 447 426 L 446 426 L 445 425 L 442 425 L 441 426 L 440 425 L 440 426 L 438 428 L 435 425 L 434 425 L 432 423 L 432 420 L 434 418 L 435 418 L 435 413 L 434 412 L 434 411 L 433 411 L 431 409 L 430 410 L 429 409 L 429 406 L 430 405 L 433 405 L 433 404 L 434 403 L 435 403 L 435 401 L 436 400 L 437 401 L 436 400 L 437 399 L 436 399 L 435 398 L 435 396 L 434 395 L 433 395 L 432 394 L 432 392 L 433 391 L 434 391 L 434 390 L 435 389 L 436 389 L 435 389 L 434 388 L 435 387 L 437 387 "></path>
        <path fill="none" stroke="#00fafa" stroke-width="3" d="M 482 343 L 483 342 L 484 342 L 485 343 L 485 344 L 486 344 L 487 345 L 487 346 L 488 345 L 489 346 L 489 348 L 488 349 L 487 349 L 486 350 L 486 351 L 485 352 L 484 352 L 484 353 L 483 354 L 482 354 L 482 355 L 483 354 L 484 354 L 485 355 L 484 356 L 484 357 L 485 357 L 486 358 L 486 359 L 487 360 L 488 360 L 489 359 L 490 360 L 490 361 L 491 360 L 493 360 L 494 359 L 495 359 L 496 358 L 496 357 L 497 356 L 498 356 L 500 358 L 501 358 L 503 360 L 503 361 L 505 361 L 506 362 L 507 361 L 508 361 L 512 357 L 514 357 L 515 358 L 515 359 L 516 359 L 517 360 L 518 360 L 519 361 L 520 361 L 521 362 L 521 363 L 520 364 L 519 364 L 518 363 L 517 363 L 517 364 L 514 367 L 513 366 L 513 367 L 512 368 L 511 368 L 509 366 L 509 365 L 508 364 L 507 364 L 506 365 L 504 363 L 502 365 L 501 365 L 500 366 L 500 367 L 499 368 L 499 371 L 498 372 L 499 373 L 500 373 L 501 374 L 501 375 L 502 376 L 502 377 L 503 377 L 504 378 L 503 379 L 501 379 L 501 380 L 500 381 L 500 382 L 499 383 L 497 383 L 496 384 L 492 380 L 492 379 L 491 378 L 489 380 L 488 379 L 488 378 L 489 377 L 489 376 L 490 375 L 491 376 L 493 374 L 494 374 L 494 373 L 497 370 L 497 368 L 495 368 L 494 367 L 495 366 L 494 366 L 493 365 L 492 366 L 490 364 L 488 364 L 487 365 L 486 365 L 486 366 L 485 367 L 485 369 L 484 370 L 485 371 L 485 373 L 487 375 L 488 375 L 489 376 L 489 377 L 488 378 L 488 379 L 487 380 L 486 380 L 485 381 L 485 382 L 484 383 L 483 382 L 482 383 L 481 382 L 480 382 L 479 381 L 480 380 L 479 379 L 478 379 L 477 378 L 477 377 L 479 375 L 479 374 L 481 372 L 480 371 L 480 370 L 481 369 L 480 369 L 479 368 L 479 366 L 478 366 L 477 365 L 477 364 L 476 363 L 477 362 L 476 361 L 478 359 L 479 359 L 478 358 L 479 357 L 480 357 L 480 352 L 479 351 L 478 351 L 477 350 L 478 349 L 476 349 L 475 348 L 476 347 L 477 347 L 478 346 L 479 347 L 479 345 L 480 344 L 483 344 "></path>
        <path fill="none" stroke="#00fafa" stroke-width="3" d="M 572 416 L 576 420 L 576 421 L 577 422 L 577 423 L 578 424 L 576 426 L 575 426 L 576 427 L 574 429 L 574 430 L 576 432 L 576 433 L 578 435 L 579 435 L 580 436 L 583 436 L 582 435 L 584 433 L 585 434 L 586 433 L 586 429 L 585 428 L 585 427 L 586 426 L 584 424 L 584 423 L 583 423 L 582 422 L 583 421 L 584 421 L 583 420 L 584 419 L 585 419 L 585 418 L 586 417 L 587 417 L 588 416 L 589 417 L 590 417 L 591 418 L 591 420 L 592 421 L 593 420 L 594 421 L 595 421 L 596 422 L 594 424 L 593 424 L 592 425 L 591 425 L 590 426 L 591 427 L 588 430 L 590 432 L 591 432 L 592 433 L 592 434 L 593 434 L 596 437 L 598 435 L 599 435 L 600 434 L 600 433 L 601 432 L 601 430 L 602 429 L 603 429 L 604 430 L 603 431 L 603 432 L 607 436 L 608 436 L 609 437 L 609 439 L 608 440 L 607 440 L 607 441 L 606 442 L 605 441 L 605 442 L 604 443 L 605 444 L 605 445 L 604 446 L 603 445 L 602 445 L 601 444 L 602 443 L 598 439 L 597 440 L 596 439 L 595 439 L 594 438 L 589 443 L 588 443 L 587 444 L 586 443 L 585 443 L 584 442 L 584 440 L 583 439 L 582 440 L 580 440 L 579 441 L 578 440 L 577 440 L 575 442 L 575 443 L 572 446 L 571 445 L 571 443 L 569 441 L 569 440 L 567 438 L 567 437 L 571 433 L 571 432 L 572 431 L 572 428 L 569 425 L 568 425 L 567 424 L 567 422 L 570 419 L 570 418 "></path>
        <path fill="none" stroke="#00fafa" stroke-width="3" d="M 525 477 L 526 476 L 527 476 L 528 477 L 527 478 L 528 478 L 529 477 L 531 479 L 531 480 L 533 480 L 534 481 L 534 482 L 535 483 L 534 484 L 532 484 L 531 485 L 532 486 L 532 487 L 531 488 L 530 487 L 531 488 L 531 489 L 530 490 L 530 491 L 531 492 L 531 494 L 534 497 L 534 498 L 533 499 L 532 499 L 530 501 L 529 501 L 529 502 L 528 503 L 527 502 L 526 502 L 525 503 L 524 502 L 524 501 L 523 501 L 522 500 L 521 501 L 520 500 L 518 500 L 516 502 L 515 502 L 515 504 L 514 505 L 515 506 L 515 509 L 517 509 L 518 510 L 518 511 L 519 511 L 521 513 L 520 514 L 518 514 L 517 513 L 516 514 L 516 515 L 514 517 L 513 517 L 512 518 L 511 517 L 510 517 L 509 516 L 508 517 L 507 516 L 507 515 L 505 513 L 506 512 L 507 512 L 509 510 L 509 509 L 510 508 L 510 507 L 511 506 L 511 503 L 508 500 L 508 499 L 507 500 L 506 500 L 505 499 L 502 499 L 500 501 L 499 501 L 499 502 L 498 503 L 497 502 L 496 503 L 495 502 L 495 501 L 493 501 L 492 500 L 494 498 L 493 497 L 494 496 L 494 495 L 495 494 L 495 493 L 496 492 L 497 493 L 500 493 L 501 494 L 501 495 L 502 495 L 503 496 L 502 497 L 503 496 L 504 497 L 507 497 L 507 496 L 508 495 L 509 496 L 510 495 L 510 494 L 511 493 L 511 492 L 512 491 L 513 491 L 515 493 L 514 494 L 515 493 L 517 495 L 518 495 L 519 496 L 520 496 L 522 498 L 523 497 L 523 496 L 526 493 L 526 489 L 522 485 L 522 484 L 521 483 L 522 482 L 523 482 L 524 481 L 524 480 L 525 479 "></path>
        <path fill="none" stroke="#00fafa" stroke-width="3" d="M 677 461 L 679 463 L 679 464 L 680 465 L 680 466 L 683 466 L 684 467 L 683 468 L 681 468 L 681 470 L 680 471 L 681 472 L 680 473 L 680 475 L 681 476 L 680 477 L 681 478 L 681 479 L 683 481 L 684 480 L 686 480 L 687 481 L 689 479 L 690 479 L 691 478 L 693 478 L 692 478 L 691 477 L 692 476 L 693 476 L 694 475 L 695 476 L 695 478 L 697 480 L 697 481 L 698 481 L 699 482 L 700 481 L 701 482 L 701 481 L 702 480 L 703 480 L 704 479 L 706 479 L 706 478 L 707 477 L 708 477 L 709 476 L 710 477 L 710 478 L 713 481 L 714 480 L 716 482 L 716 483 L 715 484 L 714 484 L 713 485 L 712 485 L 711 486 L 710 486 L 710 488 L 709 489 L 708 489 L 708 490 L 707 491 L 706 491 L 705 490 L 705 488 L 706 487 L 705 486 L 704 486 L 702 484 L 701 485 L 700 484 L 699 484 L 698 485 L 697 485 L 694 488 L 694 489 L 692 491 L 690 489 L 690 488 L 689 487 L 688 487 L 686 485 L 685 485 L 683 483 L 682 484 L 682 486 L 681 487 L 680 487 L 679 488 L 678 487 L 677 488 L 676 487 L 675 487 L 674 486 L 675 485 L 673 485 L 671 483 L 672 482 L 671 482 L 670 481 L 672 479 L 673 480 L 672 479 L 673 478 L 674 478 L 675 477 L 676 477 L 676 475 L 675 474 L 676 473 L 675 473 L 673 471 L 673 470 L 672 469 L 671 469 L 670 470 L 669 469 L 669 468 L 671 466 L 672 467 L 675 464 L 675 463 "></path>
        <path fill="none" stroke="#00fafa" stroke-width="3" d="M 511 447 L 512 448 L 513 447 L 515 449 L 515 450 L 516 451 L 517 450 L 518 451 L 518 452 L 519 451 L 520 451 L 521 452 L 520 451 L 521 450 L 525 450 L 528 447 L 532 451 L 532 453 L 531 454 L 531 455 L 530 456 L 530 460 L 529 461 L 530 461 L 531 462 L 530 463 L 532 465 L 532 466 L 533 465 L 535 467 L 536 466 L 538 466 L 538 465 L 539 464 L 540 464 L 540 463 L 541 462 L 542 462 L 543 461 L 544 461 L 545 462 L 545 464 L 546 464 L 548 466 L 547 467 L 547 468 L 548 469 L 547 470 L 546 470 L 545 471 L 544 471 L 543 472 L 542 471 L 540 471 L 539 470 L 537 470 L 536 469 L 534 469 L 533 470 L 533 471 L 532 472 L 531 471 L 531 473 L 530 474 L 529 474 L 527 476 L 526 476 L 525 475 L 526 474 L 524 472 L 524 471 L 523 470 L 522 470 L 521 469 L 525 465 L 525 464 L 526 463 L 525 462 L 526 461 L 525 460 L 525 459 L 524 458 L 524 456 L 522 456 L 521 455 L 521 454 L 519 454 L 518 455 L 517 455 L 516 456 L 515 456 L 515 457 L 516 458 L 514 460 L 514 461 L 513 462 L 512 461 L 512 459 L 511 459 L 510 458 L 510 457 L 509 456 L 509 455 L 508 455 L 507 454 L 505 454 L 504 453 L 505 452 L 507 452 L 508 451 L 508 450 "></path>
        <path fill="none" stroke="#00fafa" stroke-width="3" d="M 601 401 L 602 400 L 603 401 L 603 402 L 604 402 L 605 403 L 606 403 L 608 405 L 609 405 L 610 406 L 610 407 L 609 408 L 608 408 L 608 409 L 605 412 L 606 413 L 605 414 L 605 416 L 606 417 L 606 419 L 607 420 L 608 420 L 609 421 L 609 422 L 610 423 L 608 425 L 607 425 L 605 427 L 605 429 L 604 430 L 603 429 L 603 427 L 602 428 L 601 427 L 601 426 L 600 426 L 599 425 L 599 424 L 598 425 L 597 425 L 595 423 L 596 422 L 596 421 L 598 419 L 599 420 L 599 419 L 600 418 L 600 417 L 601 416 L 602 416 L 600 414 L 600 411 L 599 410 L 593 410 L 590 413 L 589 413 L 588 414 L 586 412 L 586 411 L 585 411 L 584 410 L 583 410 L 582 409 L 582 408 L 581 408 L 580 407 L 580 406 L 581 405 L 584 405 L 584 404 L 585 403 L 586 403 L 586 402 L 587 401 L 588 401 L 589 402 L 589 403 L 590 404 L 591 404 L 593 406 L 594 405 L 595 406 L 596 406 L 597 405 L 598 405 L 601 402 "></path>
        <path fill="none" stroke="#00fafa" stroke-width="3" d="M 465 508 L 466 507 L 467 507 L 468 508 L 469 508 L 470 509 L 470 510 L 471 511 L 472 511 L 473 512 L 473 514 L 470 517 L 470 519 L 469 520 L 468 520 L 468 522 L 469 523 L 470 523 L 472 525 L 472 526 L 474 528 L 474 529 L 473 530 L 472 530 L 471 531 L 471 532 L 470 533 L 470 538 L 471 539 L 473 539 L 474 540 L 475 540 L 476 541 L 472 545 L 471 545 L 469 547 L 469 549 L 468 550 L 466 550 L 464 548 L 464 546 L 463 547 L 462 546 L 462 545 L 461 544 L 460 544 L 459 543 L 459 542 L 458 541 L 459 540 L 460 540 L 461 541 L 462 540 L 464 540 L 465 539 L 465 538 L 466 537 L 467 537 L 466 536 L 466 534 L 465 533 L 465 532 L 464 531 L 464 530 L 463 529 L 462 529 L 461 528 L 462 527 L 461 526 L 462 525 L 463 525 L 464 524 L 464 523 L 465 522 L 466 523 L 465 522 L 466 521 L 466 519 L 464 517 L 464 516 L 462 514 L 461 514 L 460 513 L 462 511 L 463 511 L 463 510 L 464 509 L 465 509 "></path>
        <path fill="none" stroke="#00fafa" stroke-width="3" d="M 468 385 L 469 386 L 469 387 L 470 388 L 470 390 L 471 391 L 473 391 L 474 392 L 473 393 L 473 394 L 472 395 L 471 395 L 470 396 L 471 397 L 468 400 L 468 401 L 472 405 L 474 405 L 475 406 L 476 406 L 477 405 L 478 405 L 478 404 L 479 403 L 480 404 L 480 403 L 482 401 L 483 401 L 485 403 L 484 404 L 486 404 L 490 408 L 489 409 L 487 409 L 485 411 L 486 412 L 484 414 L 484 415 L 482 417 L 481 416 L 481 415 L 482 414 L 482 413 L 480 411 L 478 411 L 477 410 L 476 411 L 475 410 L 474 410 L 472 412 L 470 412 L 468 414 L 466 414 L 465 413 L 465 412 L 463 412 L 462 411 L 463 410 L 463 409 L 461 407 L 462 406 L 462 405 L 463 404 L 464 405 L 465 404 L 465 403 L 466 402 L 466 399 L 464 397 L 464 396 L 463 395 L 462 395 L 461 394 L 461 392 L 462 391 L 463 391 L 463 390 L 464 389 L 464 388 L 465 387 L 466 387 "></path>
        <path fill="none" stroke="#00fafa" stroke-width="3" d="M 481 509 L 482 508 L 483 509 L 483 510 L 487 510 L 490 513 L 489 514 L 487 514 L 487 515 L 486 516 L 485 516 L 484 517 L 484 519 L 485 520 L 485 522 L 486 523 L 485 524 L 487 524 L 488 525 L 488 528 L 487 529 L 486 529 L 486 530 L 483 533 L 484 534 L 484 535 L 485 536 L 484 537 L 485 538 L 485 539 L 486 539 L 487 540 L 487 542 L 488 543 L 487 544 L 486 544 L 486 546 L 485 547 L 485 548 L 484 549 L 482 549 L 479 546 L 479 545 L 478 545 L 475 542 L 476 541 L 477 541 L 478 540 L 478 539 L 480 537 L 480 536 L 481 535 L 481 534 L 479 532 L 479 531 L 478 530 L 476 530 L 474 528 L 475 527 L 476 527 L 477 526 L 478 526 L 478 525 L 479 524 L 480 524 L 480 522 L 482 520 L 482 519 L 481 518 L 481 517 L 480 518 L 478 516 L 478 515 L 476 513 L 476 512 L 478 510 L 479 510 L 480 509 "></path>
        <path fill="none" stroke="#00fafa" stroke-width="3" d="M 496 327 L 497 326 L 499 326 L 501 328 L 501 329 L 503 329 L 504 330 L 507 330 L 508 329 L 509 329 L 510 328 L 510 327 L 511 326 L 513 328 L 515 328 L 517 330 L 517 331 L 518 332 L 517 333 L 517 334 L 515 336 L 514 335 L 514 336 L 513 337 L 515 339 L 514 340 L 514 342 L 515 343 L 514 344 L 515 344 L 516 345 L 516 346 L 517 346 L 518 347 L 517 348 L 518 348 L 519 349 L 518 350 L 516 350 L 516 351 L 515 352 L 514 352 L 512 354 L 507 349 L 507 348 L 508 347 L 508 346 L 509 345 L 509 344 L 510 343 L 511 343 L 512 342 L 512 341 L 511 340 L 511 338 L 507 334 L 506 334 L 505 333 L 503 335 L 501 335 L 501 337 L 500 338 L 496 338 L 494 336 L 493 336 L 492 335 L 492 334 L 491 333 L 493 331 L 492 330 L 493 329 L 495 329 L 496 328 "></path>
        <path fill="none" stroke="#00fafa" stroke-width="3" d="M 542 402 L 543 401 L 546 404 L 546 405 L 549 408 L 548 409 L 547 409 L 547 410 L 546 411 L 545 411 L 545 412 L 544 413 L 544 417 L 545 417 L 546 418 L 545 419 L 546 418 L 547 419 L 547 420 L 548 420 L 549 421 L 550 420 L 551 420 L 552 421 L 553 420 L 554 420 L 554 419 L 555 418 L 555 417 L 556 416 L 557 416 L 558 417 L 559 417 L 560 418 L 560 419 L 562 421 L 562 422 L 563 422 L 564 423 L 563 424 L 563 425 L 562 426 L 560 426 L 559 427 L 557 427 L 555 425 L 554 425 L 553 424 L 549 424 L 548 425 L 547 425 L 545 427 L 544 426 L 543 427 L 541 427 L 540 426 L 538 426 L 537 425 L 537 424 L 536 423 L 537 422 L 538 422 L 538 420 L 539 419 L 540 419 L 540 417 L 542 415 L 541 416 L 540 415 L 540 413 L 536 409 L 537 408 L 536 407 L 538 405 L 539 405 L 540 404 L 541 404 L 542 403 "></path>
        <path fill="none" stroke="#00fafa" stroke-width="3" d="M 346 605 L 348 607 L 348 608 L 349 609 L 348 610 L 349 609 L 350 610 L 350 612 L 353 615 L 352 616 L 353 617 L 353 618 L 352 619 L 352 620 L 350 622 L 350 623 L 348 625 L 347 624 L 349 626 L 349 628 L 350 628 L 351 629 L 352 629 L 353 630 L 352 631 L 353 630 L 354 631 L 354 633 L 353 634 L 353 635 L 352 636 L 351 636 L 351 638 L 350 639 L 349 639 L 349 641 L 348 642 L 347 642 L 346 641 L 347 640 L 346 640 L 344 638 L 344 637 L 341 634 L 341 633 L 340 633 L 339 634 L 338 633 L 338 632 L 340 630 L 341 631 L 342 630 L 343 630 L 343 629 L 345 627 L 345 623 L 343 621 L 343 620 L 342 620 L 340 618 L 340 617 L 341 616 L 342 616 L 342 615 L 346 611 L 345 610 L 345 608 L 344 607 "></path>
        <path fill="none" stroke="#00fafa" stroke-width="3" d="M 645 460 L 646 459 L 647 459 L 648 460 L 649 460 L 650 461 L 649 462 L 651 464 L 652 464 L 653 465 L 653 466 L 654 467 L 654 469 L 652 471 L 651 470 L 651 472 L 650 473 L 650 474 L 651 475 L 651 477 L 650 478 L 650 479 L 652 481 L 652 482 L 653 483 L 651 485 L 651 486 L 649 488 L 649 489 L 648 490 L 646 488 L 645 488 L 644 487 L 644 486 L 643 485 L 642 485 L 641 484 L 639 484 L 638 483 L 641 480 L 642 480 L 642 479 L 643 478 L 644 478 L 644 477 L 645 476 L 645 475 L 646 474 L 645 474 L 644 473 L 644 472 L 642 470 L 642 469 L 641 468 L 641 466 L 642 465 L 643 465 L 643 464 L 645 462 "></path>
        <path fill="none" stroke="#00fafa" stroke-width="3" d="M 482 461 L 483 462 L 484 462 L 485 463 L 485 464 L 486 464 L 489 467 L 489 468 L 488 469 L 487 469 L 487 470 L 485 472 L 485 476 L 486 477 L 486 478 L 488 480 L 489 480 L 490 481 L 490 480 L 491 479 L 492 479 L 493 480 L 492 481 L 492 482 L 491 483 L 490 483 L 489 484 L 488 484 L 489 485 L 483 491 L 481 489 L 481 488 L 480 487 L 480 486 L 479 485 L 477 485 L 476 484 L 477 483 L 478 483 L 477 482 L 479 480 L 479 477 L 480 476 L 481 477 L 481 476 L 480 475 L 480 474 L 481 473 L 482 474 L 480 472 L 480 471 L 479 472 L 478 471 L 478 470 L 477 469 L 477 468 L 476 468 L 475 467 L 476 466 L 478 466 L 479 465 L 480 465 L 481 464 L 480 463 "></path>
        <path fill="none" stroke="#00fafa" stroke-width="3" d="M 390 523 L 391 522 L 393 522 L 394 523 L 395 523 L 398 526 L 399 526 L 400 527 L 399 528 L 398 528 L 398 530 L 396 532 L 395 532 L 394 533 L 395 534 L 395 537 L 396 537 L 397 538 L 396 539 L 398 541 L 398 542 L 399 543 L 398 544 L 397 544 L 396 545 L 395 545 L 395 548 L 394 549 L 393 549 L 393 550 L 392 551 L 390 549 L 390 547 L 389 546 L 389 545 L 387 545 L 386 544 L 386 542 L 389 539 L 388 538 L 389 537 L 390 537 L 391 536 L 392 536 L 391 535 L 391 534 L 390 534 L 389 533 L 390 532 L 389 531 L 389 530 L 387 530 L 386 529 L 386 525 L 387 524 L 388 525 L 388 524 L 389 523 "></path>
        <path fill="none" stroke="#00fafa" stroke-width="3" d="M 466 445 L 467 444 L 468 445 L 468 446 L 469 445 L 470 446 L 470 447 L 471 448 L 471 449 L 473 451 L 475 451 L 476 450 L 478 450 L 480 448 L 480 447 L 481 446 L 483 448 L 484 448 L 485 449 L 485 450 L 487 450 L 488 451 L 490 451 L 491 452 L 490 453 L 491 454 L 490 455 L 487 455 L 485 457 L 484 457 L 484 460 L 483 461 L 482 460 L 482 458 L 481 457 L 481 456 L 479 456 L 477 454 L 476 454 L 475 453 L 476 454 L 475 455 L 472 455 L 472 456 L 471 457 L 470 456 L 470 457 L 469 458 L 468 458 L 467 457 L 466 457 L 465 456 L 465 455 L 464 456 L 463 455 L 462 455 L 461 454 L 461 452 L 462 451 L 462 450 L 463 449 L 464 449 L 463 448 L 465 446 L 466 446 "></path>
        <path fill="none" stroke="#00fafa" stroke-width="3" d="M 451 521 L 452 520 L 453 521 L 454 521 L 455 522 L 455 524 L 456 524 L 457 525 L 458 525 L 459 526 L 459 527 L 458 528 L 458 529 L 456 531 L 456 532 L 455 533 L 456 534 L 454 536 L 455 537 L 455 538 L 459 542 L 459 543 L 453 549 L 452 548 L 451 548 L 448 545 L 447 545 L 446 544 L 446 543 L 445 544 L 443 542 L 444 541 L 445 541 L 446 540 L 447 540 L 448 539 L 448 538 L 449 537 L 450 537 L 450 534 L 451 533 L 449 531 L 449 529 L 448 529 L 447 528 L 448 527 L 449 527 L 449 526 L 450 525 L 450 523 L 451 522 "></path>
        <path fill="none" stroke="#00fafa" stroke-width="3" d="M 512 417 L 513 416 L 514 416 L 515 417 L 515 418 L 517 418 L 518 419 L 518 420 L 519 421 L 521 421 L 522 420 L 523 421 L 523 420 L 524 419 L 525 419 L 525 417 L 526 416 L 527 417 L 528 416 L 530 418 L 529 419 L 531 419 L 532 420 L 533 420 L 534 421 L 536 421 L 537 422 L 536 423 L 534 423 L 534 424 L 533 425 L 532 425 L 531 426 L 529 426 L 530 427 L 529 428 L 527 428 L 526 427 L 525 427 L 523 425 L 522 425 L 521 424 L 519 424 L 518 423 L 518 424 L 517 425 L 516 424 L 516 425 L 514 427 L 514 428 L 513 429 L 512 428 L 511 428 L 510 427 L 510 426 L 509 425 L 508 425 L 507 424 L 506 425 L 504 423 L 504 422 L 505 421 L 506 421 L 508 419 L 509 419 L 511 417 "></path>
        <path fill="none" stroke="#00fafa" stroke-width="3" d="M 543 535 L 544 536 L 544 537 L 547 540 L 548 540 L 549 541 L 549 543 L 548 544 L 547 544 L 547 547 L 546 548 L 545 548 L 545 549 L 544 550 L 545 551 L 544 552 L 547 555 L 547 557 L 548 558 L 548 560 L 547 561 L 546 561 L 546 562 L 545 563 L 544 562 L 543 562 L 544 563 L 543 564 L 542 564 L 539 561 L 539 560 L 538 560 L 537 559 L 536 559 L 535 558 L 535 557 L 537 555 L 538 556 L 538 554 L 540 552 L 541 553 L 542 552 L 541 551 L 542 550 L 541 549 L 541 548 L 540 548 L 539 547 L 539 545 L 537 545 L 535 543 L 537 541 L 539 541 L 540 540 L 540 539 L 541 538 L 541 537 "></path>
        <path fill="none" stroke="#00fafa" stroke-width="3" d="M 647 371 L 648 372 L 649 372 L 651 374 L 651 375 L 652 374 L 653 375 L 653 376 L 652 377 L 653 378 L 650 381 L 650 385 L 649 386 L 649 388 L 650 388 L 652 390 L 653 390 L 654 391 L 654 392 L 655 393 L 654 394 L 653 394 L 651 396 L 650 396 L 649 397 L 648 396 L 648 397 L 647 398 L 646 397 L 646 396 L 645 396 L 644 395 L 643 395 L 640 392 L 642 390 L 643 391 L 644 390 L 644 389 L 645 388 L 645 387 L 646 386 L 647 386 L 646 386 L 645 385 L 646 384 L 647 384 L 646 383 L 646 382 L 645 383 L 644 382 L 644 381 L 643 382 L 641 380 L 641 379 L 640 379 L 639 378 L 639 377 L 640 376 L 641 376 L 642 375 L 643 375 L 644 376 L 643 375 L 644 374 L 645 374 L 645 373 "></path>
        <path fill="none" stroke="#00fafa" stroke-width="3" d="M 573 446 L 574 446 L 575 447 L 575 449 L 576 449 L 578 451 L 579 450 L 580 450 L 581 451 L 582 450 L 583 450 L 584 449 L 585 449 L 585 448 L 586 447 L 587 448 L 589 448 L 590 449 L 590 450 L 591 449 L 594 452 L 592 454 L 592 455 L 591 456 L 590 455 L 591 456 L 590 457 L 590 458 L 589 459 L 587 459 L 586 458 L 586 457 L 585 456 L 583 456 L 581 454 L 578 454 L 575 457 L 575 461 L 574 462 L 573 462 L 571 460 L 572 459 L 571 459 L 570 458 L 570 457 L 569 456 L 569 455 L 568 455 L 567 454 L 566 454 L 565 453 L 567 451 L 569 451 L 569 450 "></path>
        <path fill="none" stroke="#00fafa" stroke-width="3" d="M 389 416 L 390 415 L 391 415 L 394 418 L 394 419 L 395 419 L 398 422 L 397 423 L 397 425 L 393 429 L 392 429 L 390 427 L 389 427 L 388 426 L 387 426 L 385 424 L 384 425 L 383 425 L 382 426 L 381 425 L 378 428 L 378 429 L 377 430 L 375 428 L 375 427 L 374 426 L 372 426 L 371 425 L 372 424 L 371 423 L 371 422 L 372 421 L 373 421 L 375 419 L 376 420 L 378 418 L 380 418 L 383 421 L 384 421 L 385 422 L 384 421 L 385 420 L 386 420 L 387 419 L 388 419 L 388 418 L 389 417 "></path>
        <path fill="none" stroke="#00fafa" stroke-width="3" d="M 423 429 L 424 430 L 424 432 L 426 434 L 427 433 L 429 435 L 430 435 L 431 434 L 432 435 L 434 435 L 434 434 L 435 433 L 436 433 L 437 432 L 439 434 L 440 434 L 441 435 L 442 435 L 443 436 L 443 439 L 442 440 L 441 440 L 441 441 L 438 444 L 437 444 L 436 443 L 436 442 L 435 441 L 434 441 L 433 440 L 432 441 L 431 440 L 431 439 L 430 440 L 427 440 L 426 441 L 425 441 L 425 443 L 424 444 L 423 444 L 421 442 L 420 442 L 419 441 L 419 440 L 418 440 L 417 439 L 417 437 L 416 436 L 417 435 L 420 435 L 420 434 L 421 433 L 422 433 L 422 432 L 421 431 "></path>
        <path fill="none" stroke="#00fafa" stroke-width="3" d="M 437 445 L 438 445 L 440 447 L 439 448 L 441 448 L 443 450 L 443 451 L 444 450 L 445 451 L 446 450 L 447 451 L 446 450 L 448 448 L 449 449 L 449 448 L 450 447 L 451 448 L 452 448 L 452 447 L 453 446 L 455 448 L 455 449 L 456 449 L 457 450 L 457 451 L 458 452 L 457 453 L 457 454 L 456 455 L 455 455 L 455 456 L 452 459 L 451 459 L 450 458 L 451 457 L 449 457 L 448 456 L 449 455 L 447 455 L 445 453 L 444 454 L 444 455 L 443 456 L 442 456 L 441 457 L 440 457 L 440 458 L 439 459 L 438 458 L 437 458 L 436 457 L 435 457 L 434 456 L 434 455 L 432 453 L 432 452 L 435 449 L 435 447 "></path>
        <path fill="none" stroke="#00fafa" stroke-width="3" d="M 720 491 L 721 490 L 722 491 L 723 491 L 724 492 L 724 493 L 725 494 L 726 494 L 727 495 L 727 496 L 728 497 L 728 500 L 727 501 L 725 501 L 724 502 L 724 504 L 723 505 L 721 505 L 720 504 L 720 502 L 719 501 L 719 500 L 717 500 L 716 499 L 715 500 L 713 500 L 710 503 L 710 504 L 709 505 L 708 505 L 707 504 L 706 505 L 705 504 L 705 503 L 706 502 L 704 500 L 705 499 L 705 495 L 706 494 L 706 492 L 707 491 L 709 493 L 710 493 L 711 494 L 713 494 L 715 496 L 716 495 L 719 495 L 720 494 "></path>
        <path fill="none" stroke="#00fafa" stroke-width="3" d="M 453 370 L 455 372 L 455 374 L 457 374 L 458 375 L 461 375 L 462 374 L 463 375 L 463 374 L 464 373 L 465 373 L 465 372 L 466 371 L 467 372 L 468 372 L 469 373 L 469 374 L 470 375 L 472 375 L 474 377 L 474 378 L 475 379 L 474 380 L 473 380 L 472 381 L 470 381 L 470 382 L 468 384 L 467 383 L 467 382 L 466 381 L 464 381 L 461 378 L 460 378 L 459 379 L 458 379 L 456 381 L 456 382 L 455 383 L 454 382 L 453 383 L 452 383 L 451 382 L 451 381 L 450 381 L 449 380 L 447 380 L 446 379 L 446 377 L 448 375 L 449 375 L 450 374 L 450 373 "></path>
        <path fill="none" stroke="#00fafa" stroke-width="3" d="M 557 387 L 558 386 L 563 391 L 564 391 L 565 390 L 566 390 L 567 389 L 568 390 L 570 388 L 575 388 L 576 389 L 576 390 L 577 389 L 578 390 L 578 391 L 579 391 L 580 392 L 579 393 L 578 393 L 574 397 L 573 397 L 572 398 L 570 396 L 569 396 L 568 395 L 566 395 L 565 394 L 564 395 L 563 394 L 558 399 L 557 398 L 555 398 L 554 397 L 554 395 L 553 396 L 550 393 L 552 391 L 553 391 L 555 389 L 555 388 L 556 387 "></path>
        <path fill="none" stroke="#00fafa" stroke-width="3" d="M 497 295 L 498 294 L 499 295 L 499 297 L 500 298 L 500 299 L 501 299 L 502 300 L 503 300 L 505 302 L 506 302 L 507 303 L 505 305 L 504 304 L 503 305 L 502 305 L 501 306 L 501 307 L 498 310 L 500 312 L 500 319 L 501 320 L 498 323 L 497 323 L 496 322 L 497 321 L 496 321 L 495 320 L 495 317 L 494 317 L 493 316 L 493 315 L 494 314 L 494 313 L 495 312 L 494 311 L 495 310 L 495 307 L 494 306 L 494 305 L 493 305 L 491 303 L 491 302 L 490 302 L 489 301 L 490 300 L 492 300 L 493 299 L 493 298 L 494 297 L 495 298 L 496 297 L 495 296 L 496 295 "></path>
        <path fill="none" stroke="#00fafa" stroke-width="3" d="M 392 325 L 394 325 L 395 326 L 394 327 L 399 332 L 399 333 L 398 334 L 397 333 L 398 334 L 397 335 L 396 335 L 395 336 L 394 336 L 393 337 L 390 334 L 389 334 L 388 333 L 387 333 L 387 334 L 386 335 L 385 334 L 384 334 L 383 335 L 381 335 L 379 337 L 379 339 L 378 340 L 377 339 L 377 338 L 376 339 L 375 338 L 375 336 L 374 336 L 371 333 L 371 332 L 372 331 L 373 331 L 373 330 L 374 329 L 375 329 L 376 328 L 379 328 L 380 329 L 381 329 L 382 330 L 386 330 L 387 329 L 389 329 L 390 328 L 390 327 "></path>
        <path fill="none" stroke="#00fafa" stroke-width="3" d="M 496 385 L 497 384 L 498 385 L 498 386 L 499 387 L 499 389 L 502 392 L 502 393 L 503 394 L 500 397 L 499 396 L 498 397 L 495 397 L 493 395 L 492 395 L 491 394 L 488 394 L 486 396 L 486 397 L 485 398 L 485 399 L 483 401 L 482 400 L 482 399 L 480 397 L 480 396 L 479 395 L 478 395 L 476 393 L 479 390 L 479 389 L 480 388 L 481 388 L 482 387 L 483 387 L 484 388 L 484 389 L 485 389 L 486 390 L 487 389 L 489 391 L 492 391 L 493 390 L 494 390 L 494 389 L 495 388 L 496 388 "></path>
        <path fill="none" stroke="#00fafa" stroke-width="3" d="M 512 461 L 513 462 L 514 461 L 515 462 L 515 463 L 517 465 L 517 466 L 518 466 L 519 467 L 518 468 L 517 468 L 517 469 L 516 470 L 515 470 L 516 471 L 515 472 L 515 473 L 513 475 L 514 475 L 515 476 L 515 477 L 514 478 L 515 478 L 516 479 L 516 481 L 518 483 L 517 484 L 517 485 L 516 486 L 515 486 L 514 487 L 510 487 L 509 486 L 509 485 L 508 485 L 506 483 L 507 482 L 508 482 L 508 481 L 510 479 L 510 471 L 508 469 L 506 469 L 505 468 L 505 467 L 506 466 L 507 467 L 508 467 L 508 466 L 509 465 L 509 464 "></path>
        <path fill="none" stroke="#00fafa" stroke-width="3" d="M 512 400 L 513 400 L 515 402 L 515 403 L 516 404 L 516 405 L 517 405 L 518 406 L 518 407 L 519 408 L 518 409 L 517 409 L 515 411 L 514 411 L 514 412 L 513 413 L 513 414 L 512 415 L 511 414 L 511 413 L 510 412 L 511 411 L 510 412 L 506 408 L 505 409 L 503 409 L 499 413 L 497 413 L 496 412 L 495 412 L 492 409 L 492 408 L 493 407 L 492 406 L 493 405 L 495 405 L 497 403 L 498 404 L 499 403 L 500 403 L 501 404 L 501 405 L 503 407 L 504 407 L 505 406 L 507 406 L 510 403 L 510 402 "></path>
        <path fill="none" stroke="#00fafa" stroke-width="3" d="M 541 431 L 542 430 L 544 432 L 544 433 L 545 433 L 547 435 L 547 436 L 548 437 L 548 438 L 549 437 L 550 437 L 551 436 L 552 436 L 552 435 L 553 434 L 554 435 L 557 432 L 558 433 L 560 433 L 561 434 L 561 436 L 562 436 L 563 437 L 563 438 L 562 439 L 562 441 L 561 442 L 559 442 L 558 441 L 557 442 L 555 440 L 554 441 L 553 440 L 552 440 L 551 439 L 552 438 L 550 440 L 547 440 L 546 441 L 545 441 L 544 442 L 543 442 L 542 443 L 538 439 L 538 437 L 537 436 L 538 435 L 539 435 L 539 434 L 541 432 "></path>
        <path fill="none" stroke="#00fafa" stroke-width="3" d="M 541 447 L 544 447 L 548 451 L 552 451 L 553 450 L 554 450 L 555 451 L 555 450 L 556 449 L 557 450 L 558 450 L 559 449 L 561 451 L 560 452 L 562 452 L 563 453 L 562 454 L 562 455 L 560 457 L 559 457 L 560 458 L 560 459 L 559 460 L 557 458 L 556 459 L 555 458 L 555 456 L 554 455 L 553 455 L 552 454 L 553 453 L 552 453 L 551 454 L 549 454 L 548 453 L 546 455 L 545 455 L 546 456 L 545 457 L 544 457 L 544 460 L 543 461 L 542 461 L 541 460 L 541 457 L 540 457 L 539 456 L 540 455 L 539 455 L 538 454 L 538 453 L 537 452 L 538 451 L 539 451 L 538 450 "></path>
        <path fill="none" stroke="#00fafa" stroke-width="3" d="M 586 341 L 587 342 L 588 341 L 589 342 L 589 343 L 591 345 L 591 346 L 592 345 L 593 346 L 593 347 L 591 349 L 590 349 L 590 351 L 589 352 L 588 351 L 588 352 L 587 353 L 585 351 L 584 351 L 582 349 L 581 350 L 579 350 L 578 349 L 575 352 L 574 352 L 572 354 L 571 353 L 571 352 L 570 351 L 570 350 L 569 350 L 567 348 L 568 347 L 568 346 L 569 345 L 570 345 L 571 344 L 573 344 L 574 343 L 575 344 L 576 344 L 577 345 L 578 345 L 580 347 L 581 346 L 582 347 L 582 346 L 583 345 L 583 344 "></path>
        <path fill="none" stroke="#00fafa" stroke-width="3" d="M 482 417 L 483 416 L 484 416 L 485 417 L 484 418 L 485 419 L 485 420 L 487 420 L 488 421 L 488 422 L 489 421 L 492 421 L 494 419 L 495 419 L 497 417 L 499 419 L 498 420 L 499 420 L 500 421 L 500 422 L 502 422 L 503 423 L 502 424 L 502 425 L 501 426 L 500 426 L 498 428 L 496 428 L 495 427 L 495 426 L 491 426 L 489 424 L 490 423 L 491 423 L 490 423 L 489 424 L 489 425 L 488 426 L 485 426 L 485 427 L 484 428 L 483 428 L 482 429 L 481 428 L 481 425 L 480 425 L 479 424 L 479 420 L 480 419 L 481 419 L 480 418 L 481 417 "></path>
        <path fill="none" stroke="#00fafa" stroke-width="3" d="M 345 415 L 346 414 L 348 414 L 349 415 L 348 416 L 347 416 L 348 416 L 349 415 L 350 416 L 350 418 L 351 419 L 351 420 L 352 419 L 353 420 L 354 420 L 355 421 L 354 422 L 354 424 L 353 425 L 352 424 L 350 426 L 350 428 L 351 429 L 349 431 L 348 430 L 347 430 L 346 429 L 346 427 L 345 428 L 343 426 L 343 425 L 340 422 L 343 419 L 344 420 L 345 419 "></path>
        <path fill="none" stroke="#00fafa" stroke-width="3" d="M 661 296 L 662 295 L 664 297 L 665 297 L 667 299 L 667 300 L 669 300 L 670 301 L 670 303 L 669 304 L 667 304 L 667 305 L 665 307 L 666 308 L 665 309 L 665 310 L 664 311 L 663 310 L 662 310 L 659 307 L 659 306 L 657 304 L 657 303 L 656 304 L 655 303 L 655 302 L 656 301 L 657 301 L 659 299 L 659 297 L 660 296 L 661 297 "></path>
        <path fill="none" stroke="#00fafa" stroke-width="3" d="M 615 595 L 616 594 L 618 594 L 619 595 L 618 596 L 618 597 L 620 599 L 621 599 L 622 600 L 623 600 L 624 601 L 623 602 L 622 602 L 623 603 L 623 604 L 619 608 L 619 609 L 617 611 L 616 610 L 616 609 L 614 607 L 614 606 L 613 605 L 610 605 L 609 604 L 609 602 L 611 600 L 613 600 L 614 599 L 614 597 L 615 596 L 616 597 L 616 596 "></path>
        <path fill="none" stroke="#00fafa" stroke-width="3" d="M 602 460 L 603 459 L 605 461 L 605 462 L 606 463 L 606 464 L 608 466 L 608 467 L 610 469 L 609 470 L 608 470 L 607 471 L 606 471 L 606 472 L 604 474 L 603 474 L 602 475 L 601 474 L 601 472 L 600 472 L 599 471 L 599 470 L 598 471 L 595 468 L 596 467 L 596 465 L 597 464 L 598 464 L 601 461 L 602 461 "></path>
        <path fill="none" stroke="#00fafa" stroke-width="3" d="M 647 236 L 648 236 L 649 237 L 649 238 L 650 238 L 651 239 L 651 240 L 654 243 L 654 244 L 653 245 L 653 246 L 652 247 L 651 247 L 649 249 L 646 249 L 644 247 L 644 246 L 643 247 L 642 246 L 642 245 L 641 244 L 640 244 L 638 242 L 638 241 L 639 240 L 640 240 L 641 241 L 641 240 L 642 239 L 643 240 "></path>
        <path fill="none" stroke="#00fafa" stroke-width="3" d="M 676 535 L 677 534 L 679 534 L 680 535 L 679 536 L 680 537 L 679 538 L 680 537 L 681 538 L 681 539 L 682 540 L 682 541 L 683 542 L 684 542 L 685 543 L 681 547 L 681 549 L 680 550 L 679 549 L 678 550 L 675 547 L 675 546 L 674 546 L 673 545 L 673 544 L 671 544 L 670 543 L 674 539 L 675 539 L 675 537 L 676 536 L 677 536 "></path>
        <path fill="none" stroke="#00fafa" stroke-width="3" d="M 469 473 L 470 474 L 470 477 L 469 478 L 470 479 L 471 479 L 475 483 L 474 484 L 472 484 L 472 485 L 471 486 L 470 486 L 467 489 L 466 489 L 464 487 L 464 486 L 463 487 L 462 486 L 462 484 L 460 484 L 459 483 L 460 482 L 460 481 L 461 480 L 462 481 L 463 481 L 465 479 L 465 478 L 466 477 L 465 476 L 465 475 L 466 474 L 467 475 "></path>
        <path fill="none" stroke="#00fafa" stroke-width="3" d="M 452 176 L 453 176 L 456 179 L 456 180 L 457 181 L 458 181 L 459 182 L 459 183 L 458 184 L 457 184 L 457 185 L 456 186 L 456 187 L 454 189 L 454 190 L 455 191 L 454 192 L 453 192 L 451 190 L 451 189 L 449 187 L 448 187 L 445 184 L 445 183 L 446 182 L 447 182 L 448 181 L 448 180 L 449 179 L 451 179 L 450 178 "></path>
        <path fill="none" stroke="#00fafa" stroke-width="3" d="M 480 311 L 481 310 L 482 310 L 486 314 L 485 315 L 486 315 L 487 316 L 487 318 L 488 319 L 486 321 L 486 323 L 485 324 L 484 323 L 484 324 L 483 325 L 482 325 L 481 324 L 482 323 L 481 323 L 479 321 L 478 321 L 477 320 L 477 318 L 476 319 L 475 318 L 474 319 L 473 319 L 472 318 L 472 317 L 473 316 L 477 316 L 478 315 L 479 315 L 479 314 L 480 313 L 481 313 L 481 312 "></path>
        <path fill="none" stroke="#00fafa" stroke-width="3" d="M 346 520 L 347 519 L 350 522 L 349 523 L 350 523 L 351 524 L 351 525 L 352 525 L 355 528 L 354 529 L 353 529 L 351 531 L 351 532 L 350 533 L 349 533 L 348 534 L 347 533 L 346 534 L 345 533 L 344 533 L 343 532 L 344 531 L 343 531 L 342 530 L 342 527 L 343 526 L 343 525 L 345 523 L 346 523 L 345 522 L 346 521 "></path>
        <path fill="none" stroke="#00fafa" stroke-width="3" d="M 721 475 L 722 474 L 724 476 L 724 478 L 725 477 L 726 478 L 726 479 L 727 480 L 728 480 L 730 482 L 727 485 L 726 485 L 724 487 L 725 488 L 725 489 L 724 490 L 722 488 L 720 488 L 719 487 L 720 486 L 719 485 L 716 485 L 715 484 L 716 483 L 716 482 L 719 479 L 720 479 L 720 478 L 721 477 L 722 477 L 721 476 "></path>
        <path fill="none" stroke="#00fafa" stroke-width="3" d="M 422 445 L 423 444 L 424 444 L 425 445 L 424 446 L 425 447 L 425 448 L 426 448 L 427 449 L 427 451 L 429 451 L 430 452 L 429 453 L 428 453 L 429 454 L 427 456 L 426 455 L 426 456 L 424 458 L 422 458 L 421 457 L 420 458 L 419 457 L 419 455 L 416 455 L 415 454 L 416 453 L 417 453 L 417 451 L 420 448 L 421 448 L 421 447 L 422 446 "></path>
        <path fill="none" stroke="#00fafa" stroke-width="3" d="M 496 503 L 497 502 L 498 503 L 499 503 L 500 504 L 499 505 L 498 505 L 501 508 L 501 509 L 502 510 L 502 511 L 503 511 L 505 513 L 504 514 L 503 514 L 501 516 L 499 516 L 497 518 L 496 517 L 495 517 L 494 516 L 494 515 L 493 516 L 491 514 L 491 512 L 492 511 L 493 511 L 495 509 L 495 507 L 496 506 L 497 507 L 496 506 "></path>
        <path fill="none" stroke="#00fafa" stroke-width="3" d="M 690 491 L 691 490 L 692 491 L 693 491 L 695 493 L 694 494 L 695 494 L 698 497 L 698 498 L 699 499 L 698 500 L 697 500 L 695 502 L 696 503 L 695 504 L 694 504 L 693 505 L 691 505 L 690 504 L 690 503 L 689 502 L 689 501 L 687 499 L 687 496 L 688 495 L 688 494 L 689 493 L 690 493 "></path>
        <path fill="none" stroke="#00fafa" stroke-width="3" d="M 540 373 L 541 372 L 542 373 L 543 372 L 544 373 L 545 373 L 546 374 L 548 374 L 549 375 L 548 376 L 549 375 L 551 377 L 550 378 L 548 378 L 548 380 L 543 385 L 539 381 L 539 380 L 538 379 L 537 379 L 535 377 L 536 376 L 538 376 L 538 375 L 539 374 L 540 374 "></path>
        <path fill="none" stroke="#00fafa" stroke-width="3" d="M 737 446 L 738 445 L 739 446 L 739 449 L 740 449 L 742 451 L 742 452 L 743 453 L 743 454 L 744 455 L 742 457 L 741 457 L 741 458 L 739 460 L 738 459 L 738 461 L 737 462 L 736 461 L 736 457 L 735 457 L 734 456 L 733 456 L 732 455 L 732 454 L 731 453 L 732 452 L 732 450 L 733 449 L 736 449 L 737 448 "></path>
        <path fill="none" stroke="#00fafa" stroke-width="3" d="M 528 400 L 529 400 L 530 401 L 529 402 L 530 402 L 531 403 L 531 404 L 533 406 L 533 408 L 534 409 L 533 410 L 532 410 L 531 411 L 531 412 L 530 413 L 526 413 L 525 412 L 525 411 L 524 411 L 523 410 L 522 410 L 521 409 L 520 409 L 519 408 L 522 405 L 523 406 L 526 403 L 526 402 "></path>
        <path fill="none" stroke="#00fafa" stroke-width="3" d="M 557 401 L 558 401 L 559 402 L 559 403 L 560 403 L 562 405 L 563 405 L 564 404 L 566 406 L 566 407 L 564 409 L 563 409 L 563 410 L 562 411 L 561 411 L 560 412 L 559 412 L 558 413 L 557 413 L 556 414 L 555 413 L 555 411 L 554 410 L 553 410 L 551 408 L 551 407 L 553 405 L 554 405 L 555 404 L 555 403 "></path>
        <path fill="none" stroke="#00fafa" stroke-width="3" d="M 347 431 L 348 430 L 350 432 L 350 433 L 351 433 L 352 434 L 352 435 L 353 435 L 354 436 L 353 437 L 354 436 L 356 438 L 355 439 L 353 439 L 350 442 L 350 443 L 349 444 L 348 443 L 348 444 L 347 445 L 346 444 L 346 442 L 345 442 L 344 441 L 344 440 L 343 440 L 341 438 L 344 435 L 345 435 L 345 434 L 347 432 "></path>
        <path fill="none" stroke="#00fafa" stroke-width="3" d="M 572 400 L 573 400 L 575 402 L 575 404 L 577 406 L 578 406 L 579 407 L 578 408 L 578 409 L 577 410 L 577 411 L 576 412 L 575 412 L 574 413 L 573 413 L 572 414 L 571 413 L 571 411 L 570 411 L 568 409 L 567 409 L 566 408 L 566 405 L 567 404 L 569 404 L 569 403 "></path>
        <path fill="none" stroke="#00fafa" stroke-width="3" d="M 630 373 L 631 372 L 632 373 L 633 372 L 635 372 L 636 373 L 636 374 L 637 374 L 639 376 L 639 378 L 637 380 L 636 380 L 636 382 L 635 383 L 634 383 L 632 385 L 631 384 L 631 383 L 630 383 L 629 382 L 630 381 L 629 381 L 628 380 L 628 379 L 627 380 L 626 379 L 626 377 L 627 376 L 628 376 L 630 374 "></path>
        <path fill="none" stroke="#00fafa" stroke-width="3" d="M 603 295 L 604 296 L 604 297 L 606 299 L 608 299 L 609 300 L 609 301 L 608 302 L 608 304 L 606 306 L 606 307 L 605 308 L 605 309 L 603 311 L 602 310 L 601 310 L 600 309 L 600 306 L 597 303 L 599 301 L 599 300 L 601 298 L 601 297 "></path>
        <path fill="none" stroke="#00fafa" stroke-width="3" d="M 468 565 L 469 564 L 470 565 L 470 568 L 472 570 L 473 570 L 474 571 L 474 572 L 473 573 L 473 574 L 471 576 L 471 577 L 470 578 L 469 578 L 468 579 L 467 579 L 466 578 L 467 577 L 466 577 L 464 575 L 464 574 L 463 574 L 461 572 L 462 571 L 462 570 L 463 569 L 465 569 L 465 568 L 467 566 L 468 566 "></path>
        <path fill="none" stroke="#00fafa" stroke-width="3" d="M 466 551 L 467 550 L 468 551 L 469 551 L 470 552 L 470 554 L 472 556 L 473 555 L 474 556 L 474 557 L 475 558 L 473 560 L 471 560 L 471 561 L 470 562 L 469 562 L 470 563 L 469 564 L 468 564 L 466 562 L 465 562 L 464 561 L 464 559 L 463 558 L 461 558 L 460 557 L 460 556 L 461 555 L 462 556 L 466 552 "></path>
        <path fill="none" stroke="#00fafa" stroke-width="3" d="M 482 432 L 483 431 L 486 434 L 486 435 L 489 435 L 491 437 L 489 439 L 487 439 L 488 440 L 487 441 L 486 441 L 485 442 L 485 443 L 484 444 L 483 443 L 482 444 L 481 443 L 481 442 L 480 441 L 479 441 L 478 440 L 478 438 L 477 437 L 478 436 L 477 435 L 478 434 L 479 434 L 481 432 "></path>
        <path fill="none" stroke="#00fafa" stroke-width="3" d="M 465 311 L 466 310 L 468 310 L 469 311 L 469 314 L 472 317 L 472 318 L 473 319 L 472 320 L 471 320 L 471 321 L 470 322 L 470 324 L 468 326 L 466 324 L 466 323 L 465 322 L 465 321 L 464 322 L 463 321 L 463 319 L 462 319 L 461 318 L 461 317 L 462 316 L 463 317 L 463 314 L 465 312 L 466 312 "></path>
        <path fill="none" stroke="#00fafa" stroke-width="3" d="M 513 385 L 516 388 L 516 389 L 517 389 L 518 390 L 517 391 L 518 390 L 519 391 L 519 393 L 518 394 L 516 394 L 516 395 L 514 397 L 514 399 L 513 400 L 512 399 L 512 398 L 511 397 L 510 398 L 509 397 L 509 396 L 508 396 L 507 395 L 508 394 L 507 393 L 508 392 L 507 391 "></path>
        <path fill="none" stroke="#00fafa" stroke-width="3" d="M 438 551 L 439 551 L 440 552 L 440 553 L 441 554 L 442 554 L 443 555 L 443 557 L 444 558 L 443 559 L 442 559 L 442 560 L 440 562 L 440 563 L 439 564 L 438 564 L 437 565 L 435 563 L 435 561 L 434 561 L 431 558 L 434 555 L 434 554 L 435 553 L 436 553 "></path>
        <path fill="none" stroke="#00fafa" stroke-width="3" d="M 496 463 L 497 462 L 498 462 L 499 463 L 500 463 L 502 465 L 501 466 L 502 465 L 503 466 L 503 467 L 502 468 L 502 469 L 501 470 L 501 471 L 499 473 L 499 475 L 498 476 L 497 476 L 495 474 L 496 473 L 496 472 L 494 472 L 493 471 L 492 471 L 491 470 L 491 467 L 493 465 L 494 465 L 495 464 L 496 464 "></path>
        <path fill="none" stroke="#00fafa" stroke-width="3" d="M 556 325 L 557 324 L 558 324 L 559 325 L 559 328 L 560 329 L 560 330 L 562 330 L 564 332 L 564 333 L 561 336 L 560 336 L 559 337 L 557 337 L 555 335 L 554 336 L 553 335 L 552 335 L 551 334 L 551 333 L 550 333 L 549 332 L 550 331 L 552 331 L 552 330 L 555 327 L 557 327 L 557 326 "></path>
        <path fill="none" stroke="#00fafa" stroke-width="3" d="M 541 520 L 542 519 L 543 520 L 543 521 L 544 521 L 545 522 L 544 523 L 545 523 L 546 524 L 546 525 L 547 525 L 549 527 L 549 529 L 548 530 L 546 530 L 545 531 L 546 532 L 545 533 L 544 533 L 545 534 L 544 535 L 543 535 L 542 536 L 541 536 L 539 534 L 540 533 L 539 532 L 540 531 L 538 529 L 539 528 L 540 528 L 540 524 L 541 523 L 542 523 L 541 522 "></path>
        <path fill="none" stroke="#00fafa" stroke-width="3" d="M 527 536 L 528 535 L 529 535 L 531 537 L 530 538 L 531 539 L 530 540 L 531 540 L 532 539 L 533 540 L 533 541 L 534 542 L 534 543 L 533 544 L 532 543 L 530 545 L 530 546 L 529 547 L 530 548 L 529 549 L 528 549 L 526 547 L 525 547 L 524 546 L 523 546 L 521 544 L 521 542 L 524 539 L 525 539 L 527 537 L 528 538 L 527 537 "></path>
        <path fill="none" stroke="#00fafa" stroke-width="3" d="M 527 354 L 529 356 L 528 357 L 529 358 L 530 358 L 532 360 L 532 361 L 534 361 L 535 362 L 535 363 L 534 364 L 533 364 L 530 367 L 529 367 L 529 368 L 528 369 L 527 368 L 527 367 L 526 367 L 525 366 L 525 365 L 522 362 L 522 360 L 525 357 L 526 358 L 525 357 L 525 356 "></path>
        <path fill="none" stroke="#00fafa" stroke-width="3" d="M 392 356 L 393 357 L 394 357 L 396 359 L 397 359 L 398 360 L 398 361 L 399 362 L 397 364 L 397 365 L 394 368 L 394 369 L 393 370 L 392 370 L 391 369 L 390 369 L 389 368 L 390 367 L 391 367 L 390 367 L 389 366 L 389 365 L 387 363 L 387 362 L 388 361 L 388 360 L 389 359 L 390 359 L 390 358 "></path>
        <path fill="none" stroke="#00fafa" stroke-width="3" d="M 467 356 L 468 355 L 469 356 L 469 357 L 470 358 L 470 359 L 471 360 L 471 361 L 472 362 L 472 365 L 469 368 L 469 369 L 468 370 L 467 369 L 466 369 L 465 368 L 465 366 L 464 366 L 461 363 L 461 362 L 462 361 L 462 360 L 464 358 L 466 358 L 465 357 L 466 356 "></path>
        <path fill="none" stroke="#00fafa" stroke-width="3" d="M 526 431 L 527 430 L 528 431 L 528 432 L 529 432 L 530 433 L 530 434 L 532 434 L 534 436 L 534 437 L 532 439 L 532 440 L 531 441 L 530 441 L 530 443 L 529 444 L 528 443 L 527 443 L 526 442 L 525 442 L 523 440 L 522 440 L 521 439 L 521 438 L 522 437 L 522 436 L 523 435 L 525 435 L 525 433 L 526 432 "></path>
    </g>
</svg>
