<?xml version="1.0" encoding="UTF-8" standalone="no"?>
<!-- Created with Inkscape (http://www.inkscape.org/) -->

<svg
   version="1.1"
   id="svg1"
   width="816"
   height="1056"
   viewBox="0 0 816 1056"
   xmlns="http://www.w3.org/2000/svg"
   xmlns:svg="http://www.w3.org/2000/svg">
  <defs
     id="defs1" />
  <g
     id="g1">
    <path
       id="path1"
       d="m 2777.96,7710.25 h 28.34 l 56.7,-56.7 v -85.03 l -56.7,-56.7 h -28.34 l -28.35,-28.34 v -85.04 l -28.34,-28.35 h -28.35 l -28.35,-28.35 v -113.38 l 28.35,-28.35 v -28.35 l 28.35,28.35 h 28.34 v 170.08 l 28.35,28.35 h 56.69 l 28.35,-28.35 h 56.69 l 56.69,-56.69 v -113.39 l 28.35,-28.35 v -28.34 l 56.69,-56.69 v -28.35 l -85.04,-85.04 -28.34,28.35 h -28.35 l -28.35,28.34 h -56.69 l -28.35,-28.34 v -56.7 l 28.35,-28.34 H 2863 l 56.69,56.69 h 56.69 l 28.35,-28.35 v -56.69 l 28.34,-28.35 h 56.7 l 28.34,-28.34 -56.69,-56.7 h -56.69 l -28.35,-28.34 h -28.34 l -28.35,28.34 v 28.35 l -56.69,56.69 -28.35,-28.34 28.35,-28.35 v -28.35 l 28.34,-28.34 v -28.35 L 2863,6689.77 v -28.34 l 85.04,-85.04 v -28.35 h 56.69 l 28.34,-28.34 v -28.35 L 3004.73,6463 v -28.34 l -28.35,-28.35 h -28.34 l -56.7,56.69 H 2863 l -28.35,-28.34 h -28.35 l -28.34,-28.35 h -85.04 v -28.35 l -28.35,-28.34 v -28.35 l -28.34,-28.35 v -56.69 l -56.7,-56.69 h -28.35 l -56.69,56.69 v 28.35 l -56.69,56.69 -56.69,-56.69 h -85.04 l -28.35,28.34 V 6463 l 85.04,85.04 h 28.35 v 28.35 l -56.7,56.69 v 28.35 l 28.35,28.34 h 28.35 l 28.34,-28.34 h 56.69 l 56.7,-56.7 v -28.34 l -28.35,-28.35 v -28.34 l -28.35,-28.35 56.7,-56.69 h 28.34 l 28.35,28.34 h 28.35 l 28.35,28.35 v 28.35 l 28.34,28.34 h 113.39 l 28.34,28.35 v 28.34 l -28.34,28.35 h -28.35 l -28.34,28.35 -56.7,-56.7 v -28.34 l -28.34,-28.35 -56.7,56.69 28.35,28.35 v 28.35 l 28.35,28.34 v 85.04 h -56.7 l -28.35,28.35 h -28.34 l -28.35,28.35 v 85.04 l -28.35,28.34 v 56.7 l 28.35,28.34 h 56.69 l 56.7,-56.69 h 85.04 v 85.04 l -28.35,28.35 h -141.73 l -85.04,85.03 v 28.35 l 56.69,56.69 v 85.04 l 56.69,56.7 v 56.69 l 56.7,56.69 v 28.35 l 28.35,28.35 h 28.34 l 28.35,28.34 v 28.35"
       style="fill:none;stroke:#0088ee;stroke-width:28.3465;stroke-linecap:butt;stroke-linejoin:miter;stroke-miterlimit:10;stroke-dasharray:none;stroke-opacity:1"
       transform="matrix(0.13333333,0,0,-0.13333333,0,1056)" />
    <path
       id="path2"
       d="m 1955.91,2692.92 28.34,28.35 h 85.04 l 85.05,-85.04 -56.7,-56.7 v -28.35 l -56.69,-56.69 h -28.35 l -28.35,28.35 h -85.04 v -56.7 h 141.74 l 28.34,-28.34 h 28.35 l 28.35,28.34 h 28.35 l 113.38,113.39 h 85.04 l 28.35,-28.35 h 56.69 l 28.34,-28.34 h 28.35 v 28.34 l 28.35,28.35 v 28.35 l 28.34,28.35 h 28.35 l 28.35,-28.35 v -28.35 h 28.35 l 56.69,-56.69 v -28.35 l -28.35,-28.35 h -28.34 l -28.35,-28.34 v -28.35 l -85.04,-85.04 v -28.34 l -28.35,-28.35 h -56.69 l -28.35,28.35 v 56.69 l 28.35,28.35 v 28.34 l -28.35,28.35 v 28.34 h -56.69 v -28.34 l -28.35,-28.35 v -28.34 l -85.03,-85.04 -28.35,28.34 h -28.35 v -141.73 l -28.34,-28.34 h -255.13 l -28.34,28.34 v 198.43 h -113.39 l -28.34,28.34 v 28.35 l -56.69,56.69 v 28.35 l 28.34,28.34 v 28.35 l 28.35,28.35 h 56.69 l 28.35,28.35 h 113.38 l 28.35,28.34"
       style="fill:none;stroke:#0088ee;stroke-width:28.3465;stroke-linecap:butt;stroke-linejoin:miter;stroke-miterlimit:10;stroke-dasharray:none;stroke-opacity:1"
       transform="matrix(0.13333333,0,0,-0.13333333,0,1056)" />
    <path
       id="path3"
       d="m 2040.95,4166.94 h 28.34 l 28.35,-28.35 -28.35,-28.35 v -28.35 l 28.35,-28.34 h 28.35 l 28.35,28.34 h 28.34 l 28.35,28.35 28.35,-28.35 h 28.34 l 28.35,-28.34 v -85.04 l -28.35,-28.35 h -141.73 v -56.69 h 85.04 l 28.35,28.35 h 56.69 l 56.69,-56.69 v -28.35 h 141.73 l 56.69,-56.69 -28.34,-28.35 v -28.35 l -56.7,-56.69 -56.69,56.69 h -28.34 l -28.35,-28.34 v -28.35 l -28.35,-28.35 h -28.34 L 2267.72,3600 h -28.34 l -28.35,28.35 h -56.69 l -56.7,56.7 v 113.38 l -28.35,28.35 h -28.34 l -28.35,28.35 v 28.34 h -28.35 l -56.69,56.69 h -56.69 l -28.35,28.35 v 85.04 l 28.35,28.34 h 28.34 l 28.35,28.35 h 56.69"
       style="fill:none;stroke:#0088ee;stroke-width:28.3465;stroke-linecap:butt;stroke-linejoin:miter;stroke-miterlimit:10;stroke-dasharray:none;stroke-opacity:1"
       transform="matrix(0.13333333,0,0,-0.13333333,0,1056)" />
    <path
       id="path4"
       d="m 1644.1,3713.39 28.35,28.35 h 56.69 l 56.69,-56.69 28.35,28.34 28.34,-28.34 v -28.35 l -28.34,-28.35 V 3600 l 28.34,-28.34 28.35,28.34 v 28.35 l 28.34,28.35 h 141.74 l 56.69,-56.7 v -56.69 l -85.04,-85.04 h -28.35 l -28.34,-28.34 v -28.35 l -28.35,-28.35 v -56.69 l 28.35,-28.34 v -28.35 l 28.34,-28.35 h 28.35 l 28.35,-28.34 v -28.35 l -28.35,-28.35 h -28.35 l -28.34,-28.34 h -141.73 l -56.7,56.69 v 28.35 h -56.69 l -28.34,28.34 v 56.7 l 28.34,28.34 h 85.04 l 28.35,28.35 h 28.34 l 28.35,28.34 -28.35,28.35 h -170.07 l -28.35,28.35 v 28.34 l 28.35,28.35 v 56.69 l -28.35,28.35 V 3600 l -28.35,28.35 v 28.35 l 28.35,28.35"
       style="fill:none;stroke:#0088ee;stroke-width:28.3465;stroke-linecap:butt;stroke-linejoin:miter;stroke-miterlimit:10;stroke-dasharray:none;stroke-opacity:1"
       transform="matrix(0.13333333,0,0,-0.13333333,0,1056)" />
    <path
       id="path5"
       d="m 3004.73,6009.46 h 28.34 l 28.35,-28.35 h 28.35 l 28.34,28.35 h 198.43 l 28.35,-28.35 v -56.69 l -28.35,-28.35 56.69,-56.69 v -28.35 l -28.34,-28.34 v -28.35 l -28.35,-28.35 h -85.04 l -85.04,85.04 28.35,28.35 -28.35,28.35 h -56.69 v -56.7 l -28.35,-28.34 h -28.35 l -28.34,-28.35 h -28.35 l -28.34,-28.35 -85.04,85.04 -28.35,-28.34 h -56.69 l -28.35,28.34 v 28.35 l -28.34,28.35 v 28.34 l -28.35,28.35 28.35,28.35 h 85.03 l 28.35,28.34 h 56.69 l 28.35,-28.34 h 28.35"
       style="fill:none;stroke:#0088ee;stroke-width:28.3465;stroke-linecap:butt;stroke-linejoin:miter;stroke-miterlimit:10;stroke-dasharray:none;stroke-opacity:1"
       transform="matrix(0.13333333,0,0,-0.13333333,0,1056)" />
    <path
       id="path6"
       d="m 793.703,1077.17 v -85.041 l 28.344,-28.348 V 935.434 L 793.703,907.09 h -56.695 l -28.344,-28.348 28.344,-28.347 h 28.347 l 56.692,-56.692 h 28.348 L 907.09,737.008 V 680.316 L 850.395,623.625 H 737.008 V 566.93 H 907.09 l 28.344,28.347 v 56.692 l 85.036,85.039 v 141.734 l -28.341,28.348 v 56.691 l 28.341,28.348 h 85.04 l 56.7,-56.695 -56.7,-56.692 v -28.347 h 56.7 l 56.69,-56.692 v -28.348 l 28.35,-28.347 h 56.69 l 28.35,28.347 h 28.34 V 907.09 h -56.69 l -28.35,-28.348 -56.69,56.692 v 56.695 l -56.69,56.691 h -28.35 l -28.35,28.35 h -56.69 l -56.691,-56.7 V 963.781 L 963.781,935.434 H 907.09 l -28.348,28.347 v 28.348 l -28.347,28.341 v 28.35 l -28.348,28.35"
       style="fill:none;stroke:#0088ee;stroke-width:28.3465;stroke-linecap:butt;stroke-linejoin:miter;stroke-miterlimit:10;stroke-dasharray:none;stroke-opacity:1"
       transform="matrix(0.13333333,0,0,-0.13333333,0,1056)" />
    <path
       id="path7"
       d="m 1218.9,1899.21 -28.35,-28.34 28.35,-28.35 -28.35,-28.34 v -28.35 l -28.34,-28.35 h -56.7 l -28.34,28.35 v 85.04 l -28.35,-28.35 h -28.35 v -28.34 l -141.728,-141.73 -56.695,56.69 v 28.34 l -56.692,56.7 -28.347,-28.35 56.695,-56.69 v -56.69 l -28.348,-28.35 v -85.04 h 28.348 l 28.344,-28.35 h 56.695 l 28.348,28.35 h 28.344 l 56.695,56.69 h 113.381 l 85.04,-85.04 h 28.35 l 85.04,-85.04 v -28.35 113.39 l -28.35,28.35 h -28.34 l -56.7,56.69 28.35,28.35 v 28.35 l 56.69,56.69 v 170.07"
       style="fill:none;stroke:#0088ee;stroke-width:28.3465;stroke-linecap:butt;stroke-linejoin:miter;stroke-miterlimit:10;stroke-dasharray:none;stroke-opacity:1"
       transform="matrix(0.13333333,0,0,-0.13333333,0,1056)" />
    <path
       id="path8"
       d="m 2721.27,5527.57 28.34,28.34 h 28.35 l 85.04,-85.03 -28.35,-28.35 v -28.35 l -28.35,-28.34 v -56.7 l 56.7,-56.69 h 28.34 l 56.7,-56.69 -28.35,-28.35 h -85.04 l -56.69,56.69 h -85.04 l -28.35,28.35 v 56.69 l -28.34,-28.34 h -56.7 l -56.69,56.69 v 56.69 l 28.34,28.35 h 28.35 l 85.04,85.04"
       style="fill:none;stroke:#0088ee;stroke-width:28.3465;stroke-linecap:butt;stroke-linejoin:miter;stroke-miterlimit:10;stroke-dasharray:none;stroke-opacity:1"
       transform="matrix(0.13333333,0,0,-0.13333333,0,1056)" />
    <path
       id="path9"
       d="m 793.703,2692.92 v -28.35 l -85.039,-85.04 h -28.348 l -28.347,28.35 H 566.93 l -28.348,28.35 h -28.344 l -28.347,-28.35 v -28.35 h 28.347 l 28.344,-28.35 h 85.039 l 28.348,-28.34 h 28.347 l 28.348,-28.35 v -28.35 l 28.344,-28.34 v -28.35 l 28.347,-28.34 h 28.348 l 28.344,-28.35 v -28.35 l 28.348,-28.34 h 28.347 v 56.69 l -28.347,28.35 v 85.03 l 28.347,28.35 h 28.348 l 56.691,-56.69 h 28.348 v 56.69 l -28.348,28.35 v 56.69 l 28.348,28.35 v 28.35 l -56.695,56.69 v -28.35 l -28.344,-28.34 h -28.348 l -56.695,56.69"
       style="fill:none;stroke:#0088ee;stroke-width:28.3465;stroke-linecap:butt;stroke-linejoin:miter;stroke-miterlimit:10;stroke-dasharray:none;stroke-opacity:1"
       transform="matrix(0.13333333,0,0,-0.13333333,0,1056)" />
    <path
       id="path10"
       d="m 2381.11,6179.54 h 56.69 l 56.69,-56.7 v -28.34 l 28.35,-28.35 v -85.04 l 28.34,-28.34 v -198.43 l -56.69,-56.69 -85.04,85.04 v 113.38 h -28.34 l -28.35,28.35 v 85.04 l -56.69,56.69 v 28.35"
       style="fill:none;stroke:#0088ee;stroke-width:28.3465;stroke-linecap:butt;stroke-linejoin:miter;stroke-miterlimit:10;stroke-dasharray:none;stroke-opacity:1"
       transform="matrix(0.13333333,0,0,-0.13333333,0,1056)" />
    <path
       id="path11"
       d="m 1502.36,566.93 28.35,28.347 56.69,-56.695 h 113.39 l 56.69,-56.691 v -85.039 l -28.34,-28.348 h -28.35 l -28.34,28.348 h -28.35 l -28.35,-28.348 h -198.43 l -28.34,28.348 v 56.691 l 28.34,28.348 v 28.347 l 56.7,56.692"
       style="fill:none;stroke:#0088ee;stroke-width:28.3465;stroke-linecap:butt;stroke-linejoin:miter;stroke-miterlimit:10;stroke-dasharray:none;stroke-opacity:1"
       transform="matrix(0.13333333,0,0,-0.13333333,0,1056)" />
    <path
       id="path12"
       d="m 1984.25,538.582 h 28.35 l 56.69,-56.691 v -56.692 l -28.34,-28.347 56.69,56.691 h 85.04 l 28.35,-28.344 v -28.347 l -28.35,-28.348 v -85.039 l -28.34,-28.348 h -28.35 l -28.35,-28.344 -28.35,28.344 h -56.69 l -28.35,28.348 h -28.34 l -56.7,56.695 28.35,28.344 v 113.387"
       style="fill:none;stroke:#0088ee;stroke-width:28.3465;stroke-linecap:butt;stroke-linejoin:miter;stroke-miterlimit:10;stroke-dasharray:none;stroke-opacity:1"
       transform="matrix(0.13333333,0,0,-0.13333333,0,1056)" />
    <path
       id="path13"
       d="m 2267.72,7029.93 28.35,28.35 h 56.69 l 28.35,-28.35 -56.7,-56.69 28.35,-28.35 v -28.34 h 56.69 l 28.35,-28.35 v -56.69 l -56.69,-56.7 h -56.7 l -28.34,-28.34 h -28.35 l -28.34,28.34 h -28.35 l -28.35,28.35 v 113.39 h -28.34 l -28.35,28.34 v 28.35 l 28.35,28.35 h 113.38"
       style="fill:none;stroke:#0088ee;stroke-width:28.3465;stroke-linecap:butt;stroke-linejoin:miter;stroke-miterlimit:10;stroke-dasharray:none;stroke-opacity:1"
       transform="matrix(0.13333333,0,0,-0.13333333,0,1056)" />
    <path
       id="path14"
       d="m 793.703,3855.13 -28.348,-28.35 v -28.35 l -28.347,-28.34 28.347,-28.35 v -56.69 l -56.691,-56.7 v -56.69 h 28.344 l 28.347,-28.35 v -28.35 l 56.692,-56.69 v -28.34 h 28.348 l 56.695,-56.7 v -85.03 h 226.77 l 28.35,-28.35 v 56.69 h -28.35 l -28.35,28.35 h -28.34 l -28.35,28.34 h -85.039 l -56.691,56.7 v 28.34 l 28.344,28.35 v 56.69 l -28.344,28.35 H 822.047 L 793.703,3600 v 56.7 l -28.348,28.35 v 28.34 l 56.692,56.7 v 85.04"
       style="fill:none;stroke:#0088ee;stroke-width:28.3465;stroke-linecap:butt;stroke-linejoin:miter;stroke-miterlimit:10;stroke-dasharray:none;stroke-opacity:1"
       transform="matrix(0.13333333,0,0,-0.13333333,0,1056)" />
    <path
       id="path15"
       d="m 3118.11,3203.16 h 56.7 l 28.35,-28.35 v -56.69 l 56.69,-56.7 v -56.69 l -28.35,-28.35 -28.34,28.35 h -85.05 v -56.69 l -28.34,-28.35 h -56.7 l -56.69,56.69 v 85.04"
       style="fill:none;stroke:#0088ee;stroke-width:28.3465;stroke-linecap:butt;stroke-linejoin:miter;stroke-miterlimit:10;stroke-dasharray:none;stroke-opacity:1"
       transform="matrix(0.13333333,0,0,-0.13333333,0,1056)" />
    <path
       id="path16"
       d="m 1190.55,3174.81 v -56.69 l -28.34,-28.35 h -56.7 l -28.34,-28.35 v -141.73 l 28.34,-28.35 -28.34,-28.34 v -28.35 l -28.35,-28.35 28.35,-28.34 h 85.04 l 28.34,28.34 -28.34,28.35 V 2863 l -28.35,28.34 h -28.35 l -28.34,28.35 56.69,56.69 28.35,-28.34 h 85.04 l 28.34,28.34 h 28.35 v 113.39 l 28.35,28.35 -28.35,28.34 h -28.35 l -28.34,28.35"
       style="fill:none;stroke:#0088ee;stroke-width:28.3465;stroke-linecap:butt;stroke-linejoin:miter;stroke-miterlimit:10;stroke-dasharray:none;stroke-opacity:1"
       transform="matrix(0.13333333,0,0,-0.13333333,0,1056)" />
    <path
       id="path17"
       d="m 2522.84,7823.63 28.34,28.35 h 28.35 l 28.35,-28.35 -28.35,-28.34 v -56.7 l 56.7,-56.69 -85.05,-85.04 h -28.34 v -56.69 l -56.7,-56.69 h -28.34 l -28.35,28.34 v 56.7 l 28.35,28.34 v 113.39 l -28.35,28.34 v 28.35 l 56.69,56.69"
       style="fill:none;stroke:#0088ee;stroke-width:28.3465;stroke-linecap:butt;stroke-linejoin:miter;stroke-miterlimit:10;stroke-dasharray:none;stroke-opacity:1"
       transform="matrix(0.13333333,0,0,-0.13333333,0,1056)" />
  </g>
</svg>
