<svg xmlns="http://www.w3.org/2000/svg" xmlns:xlink="http://www.w3.org/1999/xlink" version="1.1" x="0" y="0" width="1056px" height="816px">
    <g id="rootLayer" transform="translate(0.000000, 0.000000)">
        <path fill="none" stroke="#000000" stroke-width="3" d="M 792 408 L 787.324 441.088 L 773.461 473.654 L 750.903 505.185 L 720.448 535.183 L 683.175 563.175 L 640.406 588.72 L 593.654 611.415 L 544.577 630.903 L 494.912 646.874 L 446.419 659.079 L 400.817 667.324 L 359.72 671.479 L 324.585 671.479 L 296.655 667.324 L 276.921 659.079 L 266.082 646.874 L 264.521 630.903 L 272.294 611.415 L 289.126 588.72 L 314.42 563.175 L 347.28 535.183 L 386.542 505.185 L 430.815 473.654 L 478.531 441.088 L 528 408 L 577.469 374.912 L 625.185 342.346 L 669.458 310.815 L 708.721 280.817 L 741.581 252.825 L 766.874 227.28 L 783.706 204.584 L 791.479 185.097 L 789.918 169.126 L 779.079 156.921 L 759.345 148.676 L 731.415 144.521 L 696.28 144.521 L 655.183 148.676 L 609.58 156.921 L 561.088 169.126 L 511.423 185.097 L 462.346 204.585 L 415.594 227.28 L 372.825 252.825 L 335.552 280.817 L 305.097 310.815 L 282.539 342.346 L 268.676 374.912 L 264 408 L 268.676 441.088 L 282.539 473.654 L 305.097 505.185 L 335.552 535.183 L 372.825 563.175 L 415.594 588.72 L 462.346 611.416 L 511.423 630.903 L 561.088 646.874 L 609.581 659.079 L 655.183 667.324 L 696.28 671.479 L 731.416 671.479 L 759.345 667.324 L 779.079 659.079 L 789.918 646.874 L 791.479 630.902 L 783.706 611.415 L 766.874 588.72 L 741.581 563.175 L 708.72 535.183 L 669.458 505.185 L 625.184 473.654 L 577.469 441.088 L 528 408 L 478.531 374.912 L 430.815 342.346 L 386.542 310.815 L 347.28 280.817 L 314.419 252.825 L 289.126 227.279 L 272.294 204.584 L 264.521 185.097 L 266.082 169.126 L 276.921 156.921 L 296.655 148.676 L 324.585 144.521 L 359.72 144.521 L 400.817 148.676 L 446.419 156.921 L 494.912 169.126 L 544.577 185.098 L 593.654 204.585 L 640.406 227.28 L 683.175 252.825 L 720.448 280.817 L 750.903 310.815 L 773.461 342.346 L 787.324 374.912 L 792 408 "></path>
    </g>
</svg>
