<svg xmlns="http://www.w3.org/2000/svg" xmlns:xlink="http://www.w3.org/1999/xlink" version="1.1" x="0" y="0" width="1056px" height="816px">
    <g id="rootLayer" transform="translate(0.000000, 0.000000)">
        <path fill="none" stroke="#00ffff" stroke-width="3" d="M 50 770.972 L 541.232 771.486 "></path>
        <path fill="none" stroke="#00ffff" stroke-width="3" d="M 541.232 770.972 L 1006 769.945 "></path>
        <path fill="none" stroke="#00ffff" stroke-width="3" d="M 50 761.028 L 541.241 761.542 "></path>
        <path fill="none" stroke="#00ffff" stroke-width="3" d="M 541.241 761.028 L 1006 760 "></path>
        <path fill="none" stroke="#00ffff" stroke-width="3" d="M 50 751.083 L 470.404 751.523 "></path>
        <path fill="none" stroke="#00ffff" stroke-width="3" d="M 470.404 751.083 L 1006 750.204 "></path>
        <path fill="none" stroke="#00ffff" stroke-width="3" d="M 50 741.139 L 495.91 741.605 "></path>
        <path fill="none" stroke="#00ffff" stroke-width="3" d="M 495.91 741.139 L 1006 740.206 "></path>
        <path fill="none" stroke="#00ffff" stroke-width="3" d="M 50 731.194 L 359.885 731.519 "></path>
        <path fill="none" stroke="#00ffff" stroke-width="3" d="M 359.885 731.194 L 1006 730.546 "></path>
        <path fill="none" stroke="#00ffff" stroke-width="3" d="M 50 721.25 L 613.744 721.84 "></path>
        <path fill="none" stroke="#00ffff" stroke-width="3" d="M 613.744 721.25 L 1006 720.071 "></path>
        <path fill="none" stroke="#00ffff" stroke-width="3" d="M 50 711.306 L 619.079 711.901 "></path>
        <path fill="none" stroke="#00ffff" stroke-width="3" d="M 619.079 711.306 L 1006 710.115 "></path>
        <path fill="none" stroke="#00ffff" stroke-width="3" d="M 50 701.361 L 469.28 701.8 "></path>
        <path fill="none" stroke="#00ffff" stroke-width="3" d="M 469.28 701.361 L 1006 700.484 "></path>
        <path fill="none" stroke="#00ffff" stroke-width="3" d="M 50 691.417 L 335.85 691.716 "></path>
        <path fill="none" stroke="#00ffff" stroke-width="3" d="M 335.85 691.417 L 1006 690.819 "></path>
        <path fill="none" stroke="#00ffff" stroke-width="3" d="M 50 681.472 L 384.343 681.822 "></path>
        <path fill="none" stroke="#00ffff" stroke-width="3" d="M 384.343 681.472 L 1006 680.773 "></path>
        <path fill="none" stroke="#00ffff" stroke-width="3" d="M 50 671.528 L 465.971 671.963 "></path>
        <path fill="none" stroke="#00ffff" stroke-width="3" d="M 465.971 671.528 L 1006 670.658 "></path>
        <path fill="none" stroke="#00ffff" stroke-width="3" d="M 50 661.583 L 610.869 662.17 "></path>
        <path fill="none" stroke="#00ffff" stroke-width="3" d="M 610.869 661.583 L 1006 660.41 "></path>
        <path fill="none" stroke="#00ffff" stroke-width="3" d="M 50 651.639 L 659.866 652.277 "></path>
        <path fill="none" stroke="#00ffff" stroke-width="3" d="M 659.866 651.639 L 1006 650.363 "></path>
        <path fill="none" stroke="#00ffff" stroke-width="3" d="M 50 641.694 L 442.062 642.105 "></path>
        <path fill="none" stroke="#00ffff" stroke-width="3" d="M 442.062 641.694 L 1006 640.874 "></path>
        <path fill="none" stroke="#00ffff" stroke-width="3" d="M 50 631.75 L 435.596 632.153 "></path>
        <path fill="none" stroke="#00ffff" stroke-width="3" d="M 435.596 631.75 L 1006 630.943 "></path>
        <path fill="none" stroke="#00ffff" stroke-width="3" d="M 50 621.806 L 465.323 622.24 "></path>
        <path fill="none" stroke="#00ffff" stroke-width="3" d="M 465.323 621.806 L 1006 620.937 "></path>
        <path fill="none" stroke="#00ffff" stroke-width="3" d="M 50 611.861 L 498.218 612.33 "></path>
        <path fill="none" stroke="#00ffff" stroke-width="3" d="M 498.218 611.861 L 1006 610.923 "></path>
        <path fill="none" stroke="#00ffff" stroke-width="3" d="M 50 601.917 L 469.407 602.355 "></path>
        <path fill="none" stroke="#00ffff" stroke-width="3" d="M 469.407 601.917 L 1006 601.039 "></path>
        <path fill="none" stroke="#00ffff" stroke-width="3" d="M 50 591.972 L 544.539 592.49 "></path>
        <path fill="none" stroke="#00ffff" stroke-width="3" d="M 544.539 591.972 L 1006 590.938 "></path>
        <path fill="none" stroke="#00ffff" stroke-width="3" d="M 50 582.028 L 514.759 582.514 "></path>
        <path fill="none" stroke="#00ffff" stroke-width="3" d="M 514.759 582.028 L 1006 581.055 "></path>
        <path fill="none" stroke="#00ffff" stroke-width="3" d="M 50 572.083 L 489.342 572.543 "></path>
        <path fill="none" stroke="#00ffff" stroke-width="3" d="M 489.342 572.083 L 1006 571.164 "></path>
        <path fill="none" stroke="#00ffff" stroke-width="3" d="M 50 562.139 L 559.171 562.672 "></path>
        <path fill="none" stroke="#00ffff" stroke-width="3" d="M 559.171 562.139 L 1006 561.074 "></path>
        <path fill="none" stroke="#00ffff" stroke-width="3" d="M 50 552.194 L 395.893 552.556 "></path>
        <path fill="none" stroke="#00ffff" stroke-width="3" d="M 395.893 552.194 L 1006 551.471 "></path>
        <path fill="none" stroke="#00ffff" stroke-width="3" d="M 50 542.25 L 673.126 542.902 "></path>
        <path fill="none" stroke="#00ffff" stroke-width="3" d="M 673.126 542.25 L 1006 540.946 "></path>
        <path fill="none" stroke="#00ffff" stroke-width="3" d="M 50 532.306 L 717.763 533.004 "></path>
        <path fill="none" stroke="#00ffff" stroke-width="3" d="M 717.763 532.306 L 1006 530.909 "></path>
        <path fill="none" stroke="#00ffff" stroke-width="3" d="M 50 522.361 L 496.467 522.828 "></path>
        <path fill="none" stroke="#00ffff" stroke-width="3" d="M 496.467 522.361 L 1006 521.427 "></path>
        <path fill="none" stroke="#00ffff" stroke-width="3" d="M 50 512.417 L 700.561 513.097 "></path>
        <path fill="none" stroke="#00ffff" stroke-width="3" d="M 700.561 512.417 L 1006 511.056 "></path>
        <path fill="none" stroke="#00ffff" stroke-width="3" d="M 50 502.472 L 712.794 503.166 "></path>
        <path fill="none" stroke="#00ffff" stroke-width="3" d="M 712.794 502.472 L 1006 501.086 "></path>
        <path fill="none" stroke="#00ffff" stroke-width="3" d="M 50 492.528 L 579.583 493.082 "></path>
        <path fill="none" stroke="#00ffff" stroke-width="3" d="M 579.583 492.528 L 1006 491.42 "></path>
        <path fill="none" stroke="#00ffff" stroke-width="3" d="M 50 482.583 L 438.758 482.99 "></path>
        <path fill="none" stroke="#00ffff" stroke-width="3" d="M 438.758 482.583 L 1006 481.77 "></path>
        <path fill="none" stroke="#00ffff" stroke-width="3" d="M 50 472.639 L 522.052 473.133 "></path>
        <path fill="none" stroke="#00ffff" stroke-width="3" d="M 522.052 472.639 L 1006 471.651 "></path>
        <path fill="none" stroke="#00ffff" stroke-width="3" d="M 50 462.694 L 496.545 463.162 "></path>
        <path fill="none" stroke="#00ffff" stroke-width="3" d="M 496.545 462.694 L 1006 461.76 "></path>
        <path fill="none" stroke="#00ffff" stroke-width="3" d="M 50 452.75 L 445.633 453.164 "></path>
        <path fill="none" stroke="#00ffff" stroke-width="3" d="M 445.633 452.75 L 1006 451.922 "></path>
        <path fill="none" stroke="#00ffff" stroke-width="3" d="M 50 442.806 L 549.38 443.328 "></path>
        <path fill="none" stroke="#00ffff" stroke-width="3" d="M 549.38 442.806 L 1006 441.761 "></path>
        <path fill="none" stroke="#00ffff" stroke-width="3" d="M 50 432.861 L 421.449 433.25 "></path>
        <path fill="none" stroke="#00ffff" stroke-width="3" d="M 421.449 432.861 L 1006 432.084 "></path>
        <path fill="none" stroke="#00ffff" stroke-width="3" d="M 50 422.917 L 460.508 423.346 "></path>
        <path fill="none" stroke="#00ffff" stroke-width="3" d="M 460.508 422.917 L 1006 422.058 "></path>
        <path fill="none" stroke="#00ffff" stroke-width="3" d="M 50 412.972 L 501.524 413.445 "></path>
        <path fill="none" stroke="#00ffff" stroke-width="3" d="M 501.524 412.972 L 1006 412.028 "></path>
        <path fill="none" stroke="#00ffff" stroke-width="3" d="M 50 403.028 L 541.242 403.542 "></path>
        <path fill="none" stroke="#00ffff" stroke-width="3" d="M 541.242 403.028 L 1006 402 "></path>
        <path fill="none" stroke="#00ffff" stroke-width="3" d="M 50 393.083 L 566.243 393.623 "></path>
        <path fill="none" stroke="#00ffff" stroke-width="3" d="M 566.243 393.083 L 1006 392.003 "></path>
        <path fill="none" stroke="#00ffff" stroke-width="3" d="M 50 383.139 L 541.056 383.653 "></path>
        <path fill="none" stroke="#00ffff" stroke-width="3" d="M 541.056 383.139 L 1006 382.112 "></path>
        <path fill="none" stroke="#00ffff" stroke-width="3" d="M 50 373.194 L 440.121 373.603 "></path>
        <path fill="none" stroke="#00ffff" stroke-width="3" d="M 440.121 373.194 L 1006 372.378 "></path>
        <path fill="none" stroke="#00ffff" stroke-width="3" d="M 50 363.25 L 432.399 363.65 "></path>
        <path fill="none" stroke="#00ffff" stroke-width="3" d="M 432.399 363.25 L 1006 362.45 "></path>
        <path fill="none" stroke="#00ffff" stroke-width="3" d="M 50 353.306 L 526.37 353.804 "></path>
        <path fill="none" stroke="#00ffff" stroke-width="3" d="M 526.37 353.306 L 1006 352.309 "></path>
        <path fill="none" stroke="#00ffff" stroke-width="3" d="M 50 343.361 L 403.717 343.731 "></path>
        <path fill="none" stroke="#00ffff" stroke-width="3" d="M 403.717 343.361 L 1006 342.621 "></path>
        <path fill="none" stroke="#00ffff" stroke-width="3" d="M 50 333.417 L 262.995 333.639 "></path>
        <path fill="none" stroke="#00ffff" stroke-width="3" d="M 262.995 333.417 L 1006 332.971 "></path>
        <path fill="none" stroke="#00ffff" stroke-width="3" d="M 50 323.472 L 740.327 324.194 "></path>
        <path fill="none" stroke="#00ffff" stroke-width="3" d="M 740.327 323.472 L 1006 322.028 "></path>
        <path fill="none" stroke="#00ffff" stroke-width="3" d="M 50 313.528 L 736.845 314.246 "></path>
        <path fill="none" stroke="#00ffff" stroke-width="3" d="M 736.845 313.528 L 1006 312.091 "></path>
        <path fill="none" stroke="#00ffff" stroke-width="3" d="M 50 303.583 L 587.648 304.146 "></path>
        <path fill="none" stroke="#00ffff" stroke-width="3" d="M 587.648 303.583 L 1006 302.459 "></path>
        <path fill="none" stroke="#00ffff" stroke-width="3" d="M 50 293.639 L 351.842 293.955 "></path>
        <path fill="none" stroke="#00ffff" stroke-width="3" d="M 351.842 293.639 L 1006 293.007 "></path>
        <path fill="none" stroke="#00ffff" stroke-width="3" d="M 50 283.694 L 312.737 283.969 "></path>
        <path fill="none" stroke="#00ffff" stroke-width="3" d="M 312.737 283.694 L 1006 283.145 "></path>
        <path fill="none" stroke="#00ffff" stroke-width="3" d="M 50 273.75 L 359.8 274.074 "></path>
        <path fill="none" stroke="#00ffff" stroke-width="3" d="M 359.8 273.75 L 1006 273.102 "></path>
        <path fill="none" stroke="#00ffff" stroke-width="3" d="M 50 263.806 L 559.058 264.338 "></path>
        <path fill="none" stroke="#00ffff" stroke-width="3" d="M 559.058 263.806 L 1006 262.741 "></path>
        <path fill="none" stroke="#00ffff" stroke-width="3" d="M 50 253.861 L 602.002 254.439 "></path>
        <path fill="none" stroke="#00ffff" stroke-width="3" d="M 602.002 253.861 L 1006 252.706 "></path>
        <path fill="none" stroke="#00ffff" stroke-width="3" d="M 50 243.917 L 537.256 244.426 "></path>
        <path fill="none" stroke="#00ffff" stroke-width="3" d="M 537.256 243.917 L 1006 242.897 "></path>
        <path fill="none" stroke="#00ffff" stroke-width="3" d="M 50 233.972 L 504.846 234.448 "></path>
        <path fill="none" stroke="#00ffff" stroke-width="3" d="M 504.846 233.972 L 1006 233.021 "></path>
        <path fill="none" stroke="#00ffff" stroke-width="3" d="M 50 224.028 L 524.685 224.524 "></path>
        <path fill="none" stroke="#00ffff" stroke-width="3" d="M 524.685 224.028 L 1006 223.035 "></path>
        <path fill="none" stroke="#00ffff" stroke-width="3" d="M 50 214.083 L 450.813 214.503 "></path>
        <path fill="none" stroke="#00ffff" stroke-width="3" d="M 450.813 214.083 L 1006 213.245 "></path>
        <path fill="none" stroke="#00ffff" stroke-width="3" d="M 50 204.139 L 403.34 204.508 "></path>
        <path fill="none" stroke="#00ffff" stroke-width="3" d="M 403.34 204.139 L 1006 203.4 "></path>
        <path fill="none" stroke="#00ffff" stroke-width="3" d="M 50 194.194 L 560.52 194.728 "></path>
        <path fill="none" stroke="#00ffff" stroke-width="3" d="M 560.52 194.194 L 1006 193.126 "></path>
        <path fill="none" stroke="#00ffff" stroke-width="3" d="M 50 184.25 L 336.798 184.55 "></path>
        <path fill="none" stroke="#00ffff" stroke-width="3" d="M 336.798 184.25 L 1006 183.65 "></path>
        <path fill="none" stroke="#00ffff" stroke-width="3" d="M 50 174.306 L 416.571 174.689 "></path>
        <path fill="none" stroke="#00ffff" stroke-width="3" d="M 416.571 174.306 L 1006 173.539 "></path>
        <path fill="none" stroke="#00ffff" stroke-width="3" d="M 50 164.361 L 432.72 164.761 "></path>
        <path fill="none" stroke="#00ffff" stroke-width="3" d="M 432.72 164.361 L 1006 163.56 "></path>
        <path fill="none" stroke="#00ffff" stroke-width="3" d="M 50 154.417 L 451.514 154.837 "></path>
        <path fill="none" stroke="#00ffff" stroke-width="3" d="M 451.514 154.417 L 1006 153.577 "></path>
        <path fill="none" stroke="#00ffff" stroke-width="3" d="M 50 144.472 L 483.058 144.925 "></path>
        <path fill="none" stroke="#00ffff" stroke-width="3" d="M 483.058 144.472 L 1006 143.566 "></path>
        <path fill="none" stroke="#00ffff" stroke-width="3" d="M 50 134.528 L 692.226 135.2 "></path>
        <path fill="none" stroke="#00ffff" stroke-width="3" d="M 692.226 134.528 L 1006 133.184 "></path>
        <path fill="none" stroke="#00ffff" stroke-width="3" d="M 50 124.583 L 518.43 125.073 "></path>
        <path fill="none" stroke="#00ffff" stroke-width="3" d="M 518.43 124.583 L 1006 123.603 "></path>
        <path fill="none" stroke="#00ffff" stroke-width="3" d="M 50 114.639 L 528.905 115.14 "></path>
        <path fill="none" stroke="#00ffff" stroke-width="3" d="M 528.905 114.639 L 1006 113.637 "></path>
        <path fill="none" stroke="#00ffff" stroke-width="3" d="M 50 104.694 L 663.287 105.336 "></path>
        <path fill="none" stroke="#00ffff" stroke-width="3" d="M 663.287 104.694 L 1006 103.411 "></path>
        <path fill="none" stroke="#00ffff" stroke-width="3" d="M 50 94.75 L 340.202 95.0536 "></path>
        <path fill="none" stroke="#00ffff" stroke-width="3" d="M 340.202 94.75 L 1006 94.1429 "></path>
        <path fill="none" stroke="#00ffff" stroke-width="3" d="M 50 84.8056 L 560.52 85.3396 "></path>
        <path fill="none" stroke="#00ffff" stroke-width="3" d="M 560.52 84.8056 L 1006 83.7375 "></path>
        <path fill="none" stroke="#00ffff" stroke-width="3" d="M 50 74.8611 L 401.968 75.2293 "></path>
        <path fill="none" stroke="#00ffff" stroke-width="3" d="M 401.968 74.8611 L 1006 74.1248 "></path>
        <path fill="none" stroke="#00ffff" stroke-width="3" d="M 50 64.9167 L 469.682 65.3557 "></path>
        <path fill="none" stroke="#00ffff" stroke-width="3" d="M 469.682 64.9167 L 1006 64.0387 "></path>
    </g>
</svg>
