<svg xmlns="http://www.w3.org/2000/svg" xmlns:xlink="http://www.w3.org/1999/xlink" version="1.1" x="0" y="0" width="1056px" height="816px">
    <g id="rootLayer" transform="translate(0.000000, 0.000000)">
        <path fill="none" stroke="#ff00ff" stroke-width="3" d="M 51.6676 50 L 51.6676 766 "></path>
        <path fill="none" stroke="#ff00ff" stroke-width="3" d="M 55.0028 50 L 55.0028 766 "></path>
        <path fill="none" stroke="#ff00ff" stroke-width="3" d="M 58.338 50 L 58.338 766 "></path>
        <path fill="none" stroke="#ff00ff" stroke-width="3" d="M 61.6732 50 L 61.6732 766 "></path>
        <path fill="none" stroke="#ff00ff" stroke-width="3" d="M 65.0085 50 L 65.0085 766 "></path>
        <path fill="none" stroke="#ff00ff" stroke-width="3" d="M 68.3437 50 L 68.3437 766 "></path>
        <path fill="none" stroke="#ff00ff" stroke-width="3" d="M 71.6789 50 L 71.6789 766 "></path>
        <path fill="none" stroke="#ff00ff" stroke-width="3" d="M 75.0141 50 L 75.0141 766 "></path>
        <path fill="none" stroke="#ff00ff" stroke-width="3" d="M 78.3493 50 L 78.3493 766 "></path>
        <path fill="none" stroke="#ff00ff" stroke-width="3" d="M 81.6845 50 L 81.6845 766 "></path>
        <path fill="none" stroke="#ff00ff" stroke-width="3" d="M 85.0197 50 L 85.0197 766 "></path>
        <path fill="none" stroke="#ff00ff" stroke-width="3" d="M 88.3549 50 L 88.3549 766 "></path>
        <path fill="none" stroke="#ff00ff" stroke-width="3" d="M 91.6901 50 L 91.6901 766 "></path>
        <path fill="none" stroke="#ff00ff" stroke-width="3" d="M 95.0254 50 L 95.0254 766 "></path>
        <path fill="none" stroke="#ff00ff" stroke-width="3" d="M 98.3606 50 L 98.3606 766 "></path>
        <path fill="none" stroke="#ff00ff" stroke-width="3" d="M 101.696 50 L 101.696 766 "></path>
        <path fill="none" stroke="#ff00ff" stroke-width="3" d="M 105.031 50 L 105.031 766 "></path>
        <path fill="none" stroke="#ff00ff" stroke-width="3" d="M 108.366 50 L 108.366 766 "></path>
        <path fill="none" stroke="#ff00ff" stroke-width="3" d="M 111.701 50 L 111.701 766 "></path>
        <path fill="none" stroke="#ff00ff" stroke-width="3" d="M 115.037 50 L 115.037 766 "></path>
        <path fill="none" stroke="#ff00ff" stroke-width="3" d="M 118.372 50 L 118.372 766 "></path>
        <path fill="none" stroke="#ff00ff" stroke-width="3" d="M 121.707 50 L 121.707 766 "></path>
        <path fill="none" stroke="#ff00ff" stroke-width="3" d="M 125.042 50 L 125.042 766 "></path>
        <path fill="none" stroke="#ff00ff" stroke-width="3" d="M 128.377 50 L 128.377 766 "></path>
        <path fill="none" stroke="#ff00ff" stroke-width="3" d="M 131.713 50 L 131.713 766 "></path>
        <path fill="none" stroke="#ff00ff" stroke-width="3" d="M 135.048 50 L 135.048 766 "></path>
        <path fill="none" stroke="#ff00ff" stroke-width="3" d="M 138.383 50 L 138.383 766 "></path>
        <path fill="none" stroke="#ff00ff" stroke-width="3" d="M 141.718 50 L 141.718 766 "></path>
        <path fill="none" stroke="#ff00ff" stroke-width="3" d="M 145.054 50 L 145.054 766 "></path>
        <path fill="none" stroke="#ff00ff" stroke-width="3" d="M 148.389 50 L 148.389 766 "></path>
        <path fill="none" stroke="#ff00ff" stroke-width="3" d="M 151.724 50 L 151.724 766 "></path>
        <path fill="none" stroke="#ff00ff" stroke-width="3" d="M 155.059 50 L 155.059 766 "></path>
        <path fill="none" stroke="#ff00ff" stroke-width="3" d="M 158.394 50 L 158.394 766 "></path>
        <path fill="none" stroke="#ff00ff" stroke-width="3" d="M 161.73 50 L 161.73 766 "></path>
        <path fill="none" stroke="#ff00ff" stroke-width="3" d="M 165.065 50 L 165.065 766 "></path>
        <path fill="none" stroke="#ff00ff" stroke-width="3" d="M 168.4 50 L 168.4 766 "></path>
        <path fill="none" stroke="#ff00ff" stroke-width="3" d="M 171.735 50 L 171.735 766 "></path>
        <path fill="none" stroke="#ff00ff" stroke-width="3" d="M 175.07 50 L 175.07 766 "></path>
        <path fill="none" stroke="#ff00ff" stroke-width="3" d="M 178.406 50 L 178.406 766 "></path>
        <path fill="none" stroke="#ff00ff" stroke-width="3" d="M 181.741 50 L 181.741 766 "></path>
        <path fill="none" stroke="#ff00ff" stroke-width="3" d="M 185.076 50 L 185.076 766 "></path>
        <path fill="none" stroke="#ff00ff" stroke-width="3" d="M 188.411 50 L 188.411 766 "></path>
        <path fill="none" stroke="#ff00ff" stroke-width="3" d="M 191.746 50 L 191.746 766 "></path>
        <path fill="none" stroke="#ff00ff" stroke-width="3" d="M 195.082 50 L 195.082 766 "></path>
        <path fill="none" stroke="#ff00ff" stroke-width="3" d="M 198.417 50 L 198.417 766 "></path>
        <path fill="none" stroke="#ff00ff" stroke-width="3" d="M 201.752 50 L 201.752 766 "></path>
        <path fill="none" stroke="#ff00ff" stroke-width="3" d="M 205.087 50 L 205.087 766 "></path>
        <path fill="none" stroke="#ff00ff" stroke-width="3" d="M 208.423 50 L 208.423 766 "></path>
        <path fill="none" stroke="#ff00ff" stroke-width="3" d="M 211.758 50 L 211.758 766 "></path>
        <path fill="none" stroke="#ff00ff" stroke-width="3" d="M 215.093 50 L 215.093 766 "></path>
        <path fill="none" stroke="#ff00ff" stroke-width="3" d="M 218.428 50 L 218.428 766 "></path>
        <path fill="none" stroke="#ff00ff" stroke-width="3" d="M 221.763 50 L 221.763 766 "></path>
        <path fill="none" stroke="#ff00ff" stroke-width="3" d="M 225.099 50 L 225.099 766 "></path>
        <path fill="none" stroke="#ff00ff" stroke-width="3" d="M 228.434 50 L 228.434 766 "></path>
        <path fill="none" stroke="#ff00ff" stroke-width="3" d="M 231.769 50 L 231.769 766 "></path>
        <path fill="none" stroke="#ff00ff" stroke-width="3" d="M 235.104 50 L 235.104 766 "></path>
        <path fill="none" stroke="#ff00ff" stroke-width="3" d="M 238.439 50 L 238.439 766 "></path>
        <path fill="none" stroke="#ff00ff" stroke-width="3" d="M 241.775 50 L 241.775 766 "></path>
        <path fill="none" stroke="#ff00ff" stroke-width="3" d="M 245.11 50 L 245.11 766 "></path>
        <path fill="none" stroke="#ff00ff" stroke-width="3" d="M 248.445 50 L 248.445 766 "></path>
        <path fill="none" stroke="#ff00ff" stroke-width="3" d="M 251.78 50 L 251.78 766 "></path>
        <path fill="none" stroke="#ff00ff" stroke-width="3" d="M 255.115 50 L 255.115 766 "></path>
        <path fill="none" stroke="#ff00ff" stroke-width="3" d="M 258.451 50 L 258.451 766 "></path>
        <path fill="none" stroke="#ff00ff" stroke-width="3" d="M 261.786 50 L 261.786 766 "></path>
        <path fill="none" stroke="#ff00ff" stroke-width="3" d="M 265.121 50 L 265.121 766 "></path>
        <path fill="none" stroke="#ff00ff" stroke-width="3" d="M 268.456 50 L 268.456 766 "></path>
        <path fill="none" stroke="#ff00ff" stroke-width="3" d="M 271.792 50 L 271.792 766 "></path>
        <path fill="none" stroke="#ff00ff" stroke-width="3" d="M 275.127 50 L 275.127 766 "></path>
        <path fill="none" stroke="#ff00ff" stroke-width="3" d="M 278.462 50 L 278.462 766 "></path>
        <path fill="none" stroke="#ff00ff" stroke-width="3" d="M 281.797 50 L 281.797 766 "></path>
        <path fill="none" stroke="#ff00ff" stroke-width="3" d="M 285.132 50 L 285.132 766 "></path>
        <path fill="none" stroke="#ff00ff" stroke-width="3" d="M 288.468 50 L 288.468 766 "></path>
        <path fill="none" stroke="#ff00ff" stroke-width="3" d="M 291.803 50 L 291.803 766 "></path>
        <path fill="none" stroke="#ff00ff" stroke-width="3" d="M 295.138 50 L 295.138 766 "></path>
        <path fill="none" stroke="#ff00ff" stroke-width="3" d="M 298.473 50 L 298.473 766 "></path>
        <path fill="none" stroke="#ff00ff" stroke-width="3" d="M 301.808 50 L 301.808 766 "></path>
        <path fill="none" stroke="#ff00ff" stroke-width="3" d="M 305.144 50 L 305.144 766 "></path>
        <path fill="none" stroke="#ff00ff" stroke-width="3" d="M 308.479 50 L 308.479 766 "></path>
        <path fill="none" stroke="#ff00ff" stroke-width="3" d="M 311.814 50 L 311.814 766 "></path>
        <path fill="none" stroke="#ff00ff" stroke-width="3" d="M 315.149 50 L 315.149 766 "></path>
        <path fill="none" stroke="#ff00ff" stroke-width="3" d="M 318.484 50 L 318.484 766 "></path>
        <path fill="none" stroke="#ff00ff" stroke-width="3" d="M 321.82 50 L 321.82 766 "></path>
        <path fill="none" stroke="#ff00ff" stroke-width="3" d="M 325.155 50 L 325.155 766 "></path>
        <path fill="none" stroke="#ff00ff" stroke-width="3" d="M 328.49 50 L 328.49 766 "></path>
        <path fill="none" stroke="#ff00ff" stroke-width="3" d="M 331.825 50 L 331.825 766 "></path>
        <path fill="none" stroke="#ff00ff" stroke-width="3" d="M 335.161 50 L 335.161 766 "></path>
        <path fill="none" stroke="#ff00ff" stroke-width="3" d="M 338.496 50 L 338.496 766 "></path>
        <path fill="none" stroke="#ff00ff" stroke-width="3" d="M 341.831 50 L 341.831 766 "></path>
        <path fill="none" stroke="#ff00ff" stroke-width="3" d="M 345.166 50 L 345.166 766 "></path>
        <path fill="none" stroke="#ff00ff" stroke-width="3" d="M 348.501 50 L 348.501 766 "></path>
        <path fill="none" stroke="#ff00ff" stroke-width="3" d="M 351.837 50 L 351.837 766 "></path>
        <path fill="none" stroke="#ff00ff" stroke-width="3" d="M 355.172 50 L 355.172 766 "></path>
        <path fill="none" stroke="#ff00ff" stroke-width="3" d="M 358.507 50 L 358.507 766 "></path>
        <path fill="none" stroke="#ff00ff" stroke-width="3" d="M 361.842 50 L 361.842 766 "></path>
        <path fill="none" stroke="#ff00ff" stroke-width="3" d="M 365.177 50 L 365.177 766 "></path>
        <path fill="none" stroke="#ff00ff" stroke-width="3" d="M 368.513 50 L 368.513 766 "></path>
        <path fill="none" stroke="#ff00ff" stroke-width="3" d="M 371.848 50 L 371.848 766 "></path>
        <path fill="none" stroke="#ff00ff" stroke-width="3" d="M 375.183 50 L 375.183 766 "></path>
        <path fill="none" stroke="#ff00ff" stroke-width="3" d="M 378.518 50 L 378.518 766 "></path>
        <path fill="none" stroke="#ff00ff" stroke-width="3" d="M 381.854 50 L 381.854 766 "></path>
        <path fill="none" stroke="#ff00ff" stroke-width="3" d="M 385.189 50 L 385.189 766 "></path>
        <path fill="none" stroke="#ff00ff" stroke-width="3" d="M 388.524 50 L 388.524 766 "></path>
        <path fill="none" stroke="#ff00ff" stroke-width="3" d="M 391.859 50 L 391.859 766 "></path>
        <path fill="none" stroke="#ff00ff" stroke-width="3" d="M 395.194 50 L 395.194 766 "></path>
        <path fill="none" stroke="#ff00ff" stroke-width="3" d="M 398.53 50 L 398.53 766 "></path>
        <path fill="none" stroke="#ff00ff" stroke-width="3" d="M 401.865 50 L 401.865 766 "></path>
        <path fill="none" stroke="#ff00ff" stroke-width="3" d="M 405.2 50 L 405.2 766 "></path>
        <path fill="none" stroke="#ff00ff" stroke-width="3" d="M 408.535 50 L 408.535 766 "></path>
        <path fill="none" stroke="#ff00ff" stroke-width="3" d="M 411.87 50 L 411.87 766 "></path>
        <path fill="none" stroke="#ff00ff" stroke-width="3" d="M 415.206 50 L 415.206 766 "></path>
        <path fill="none" stroke="#ff00ff" stroke-width="3" d="M 418.541 50 L 418.541 766 "></path>
        <path fill="none" stroke="#ff00ff" stroke-width="3" d="M 421.876 50 L 421.876 766 "></path>
        <path fill="none" stroke="#ff00ff" stroke-width="3" d="M 425.211 50 L 425.211 766 "></path>
        <path fill="none" stroke="#ff00ff" stroke-width="3" d="M 428.546 50 L 428.546 766 "></path>
        <path fill="none" stroke="#ff00ff" stroke-width="3" d="M 431.882 50 L 431.882 766 "></path>
        <path fill="none" stroke="#ff00ff" stroke-width="3" d="M 435.217 50 L 435.217 766 "></path>
        <path fill="none" stroke="#ff00ff" stroke-width="3" d="M 438.552 50 L 438.552 766 "></path>
        <path fill="none" stroke="#ff00ff" stroke-width="3" d="M 441.887 50 L 441.887 766 "></path>
        <path fill="none" stroke="#ff00ff" stroke-width="3" d="M 445.223 50 L 445.223 766 "></path>
        <path fill="none" stroke="#ff00ff" stroke-width="3" d="M 448.558 50 L 448.558 766 "></path>
        <path fill="none" stroke="#ff00ff" stroke-width="3" d="M 451.893 50 L 451.893 766 "></path>
        <path fill="none" stroke="#ff00ff" stroke-width="3" d="M 455.228 50 L 455.228 766 "></path>
        <path fill="none" stroke="#ff00ff" stroke-width="3" d="M 458.563 50 L 458.563 766 "></path>
        <path fill="none" stroke="#ff00ff" stroke-width="3" d="M 461.899 50 L 461.899 766 "></path>
        <path fill="none" stroke="#ff00ff" stroke-width="3" d="M 465.234 50 L 465.234 766 "></path>
        <path fill="none" stroke="#ff00ff" stroke-width="3" d="M 468.569 50 L 468.569 766 "></path>
        <path fill="none" stroke="#ff00ff" stroke-width="3" d="M 471.904 50 L 471.904 766 "></path>
        <path fill="none" stroke="#ff00ff" stroke-width="3" d="M 475.239 50 L 475.239 766 "></path>
        <path fill="none" stroke="#ff00ff" stroke-width="3" d="M 478.575 50 L 478.575 766 "></path>
        <path fill="none" stroke="#ff00ff" stroke-width="3" d="M 481.91 50 L 481.91 766 "></path>
        <path fill="none" stroke="#ff00ff" stroke-width="3" d="M 485.245 50 L 485.245 766 "></path>
        <path fill="none" stroke="#ff00ff" stroke-width="3" d="M 488.58 50 L 488.58 766 "></path>
        <path fill="none" stroke="#ff00ff" stroke-width="3" d="M 491.915 50 L 491.915 766 "></path>
        <path fill="none" stroke="#ff00ff" stroke-width="3" d="M 495.251 50 L 495.251 766 "></path>
        <path fill="none" stroke="#ff00ff" stroke-width="3" d="M 498.586 50 L 498.586 766 "></path>
        <path fill="none" stroke="#ff00ff" stroke-width="3" d="M 501.921 50 L 501.921 766 "></path>
        <path fill="none" stroke="#ff00ff" stroke-width="3" d="M 505.256 50 L 505.256 766 "></path>
        <path fill="none" stroke="#ff00ff" stroke-width="3" d="M 508.592 50 L 508.592 766 "></path>
        <path fill="none" stroke="#ff00ff" stroke-width="3" d="M 511.927 50 L 511.927 766 "></path>
        <path fill="none" stroke="#ff00ff" stroke-width="3" d="M 515.262 50 L 515.262 766 "></path>
        <path fill="none" stroke="#ff00ff" stroke-width="3" d="M 518.597 50 L 518.597 766 "></path>
        <path fill="none" stroke="#ff00ff" stroke-width="3" d="M 521.932 50 L 521.932 766 "></path>
        <path fill="none" stroke="#ff00ff" stroke-width="3" d="M 525.268 50 L 525.268 766 "></path>
        <path fill="none" stroke="#ff00ff" stroke-width="3" d="M 528.603 50 L 528.603 766 "></path>
        <path fill="none" stroke="#ff00ff" stroke-width="3" d="M 531.938 50 L 531.938 766 "></path>
        <path fill="none" stroke="#ff00ff" stroke-width="3" d="M 535.273 50 L 535.273 766 "></path>
        <path fill="none" stroke="#ff00ff" stroke-width="3" d="M 538.608 50 L 538.608 766 "></path>
        <path fill="none" stroke="#ff00ff" stroke-width="3" d="M 541.944 50 L 541.944 766 "></path>
        <path fill="none" stroke="#ff00ff" stroke-width="3" d="M 545.279 50 L 545.279 766 "></path>
        <path fill="none" stroke="#ff00ff" stroke-width="3" d="M 548.614 50 L 548.614 766 "></path>
        <path fill="none" stroke="#ff00ff" stroke-width="3" d="M 551.949 50 L 551.949 766 "></path>
        <path fill="none" stroke="#ff00ff" stroke-width="3" d="M 555.285 50 L 555.285 766 "></path>
        <path fill="none" stroke="#ff00ff" stroke-width="3" d="M 558.62 50 L 558.62 766 "></path>
        <path fill="none" stroke="#ff00ff" stroke-width="3" d="M 561.955 50 L 561.955 766 "></path>
        <path fill="none" stroke="#ff00ff" stroke-width="3" d="M 565.29 50 L 565.29 766 "></path>
        <path fill="none" stroke="#ff00ff" stroke-width="3" d="M 568.625 50 L 568.625 766 "></path>
        <path fill="none" stroke="#ff00ff" stroke-width="3" d="M 571.961 50 L 571.961 766 "></path>
        <path fill="none" stroke="#ff00ff" stroke-width="3" d="M 575.296 50 L 575.296 766 "></path>
        <path fill="none" stroke="#ff00ff" stroke-width="3" d="M 578.631 50 L 578.631 766 "></path>
        <path fill="none" stroke="#ff00ff" stroke-width="3" d="M 581.966 50 L 581.966 766 "></path>
        <path fill="none" stroke="#ff00ff" stroke-width="3" d="M 585.301 50 L 585.301 766 "></path>
        <path fill="none" stroke="#ff00ff" stroke-width="3" d="M 588.637 50 L 588.637 766 "></path>
        <path fill="none" stroke="#ff00ff" stroke-width="3" d="M 591.972 50 L 591.972 766 "></path>
        <path fill="none" stroke="#ff00ff" stroke-width="3" d="M 595.307 50 L 595.307 766 "></path>
        <path fill="none" stroke="#ff00ff" stroke-width="3" d="M 598.642 50 L 598.642 766 "></path>
        <path fill="none" stroke="#ff00ff" stroke-width="3" d="M 601.977 50 L 601.977 766 "></path>
        <path fill="none" stroke="#ff00ff" stroke-width="3" d="M 605.313 50 L 605.313 766 "></path>
        <path fill="none" stroke="#ff00ff" stroke-width="3" d="M 608.648 50 L 608.648 766 "></path>
        <path fill="none" stroke="#ff00ff" stroke-width="3" d="M 611.983 50 L 611.983 766 "></path>
        <path fill="none" stroke="#ff00ff" stroke-width="3" d="M 615.318 50 L 615.318 766 "></path>
        <path fill="none" stroke="#ff00ff" stroke-width="3" d="M 618.654 50 L 618.654 766 "></path>
        <path fill="none" stroke="#ff00ff" stroke-width="3" d="M 621.989 50 L 621.989 766 "></path>
        <path fill="none" stroke="#ff00ff" stroke-width="3" d="M 625.324 50 L 625.324 766 "></path>
        <path fill="none" stroke="#ff00ff" stroke-width="3" d="M 628.659 50 L 628.659 766 "></path>
        <path fill="none" stroke="#ff00ff" stroke-width="3" d="M 631.994 50 L 631.994 766 "></path>
        <path fill="none" stroke="#ff00ff" stroke-width="3" d="M 635.33 50 L 635.33 766 "></path>
        <path fill="none" stroke="#ff00ff" stroke-width="3" d="M 638.665 50 L 638.665 766 "></path>
        <path fill="none" stroke="#ff00ff" stroke-width="3" d="M 642 50 L 642 766 "></path>
        <path fill="none" stroke="#ff00ff" stroke-width="3" d="M 645.335 50 L 645.335 766 "></path>
        <path fill="none" stroke="#ff00ff" stroke-width="3" d="M 648.67 50 L 648.67 766 "></path>
        <path fill="none" stroke="#ff00ff" stroke-width="3" d="M 652.006 50 L 652.006 766 "></path>
        <path fill="none" stroke="#ff00ff" stroke-width="3" d="M 655.341 50 L 655.341 766 "></path>
        <path fill="none" stroke="#ff00ff" stroke-width="3" d="M 658.676 50 L 658.676 766 "></path>
        <path fill="none" stroke="#ff00ff" stroke-width="3" d="M 662.011 50 L 662.011 766 "></path>
        <path fill="none" stroke="#ff00ff" stroke-width="3" d="M 665.346 50 L 665.346 766 "></path>
        <path fill="none" stroke="#ff00ff" stroke-width="3" d="M 668.682 50 L 668.682 766 "></path>
        <path fill="none" stroke="#ff00ff" stroke-width="3" d="M 672.017 50 L 672.017 766 "></path>
        <path fill="none" stroke="#ff00ff" stroke-width="3" d="M 675.352 50 L 675.352 766 "></path>
        <path fill="none" stroke="#ff00ff" stroke-width="3" d="M 678.687 50 L 678.687 766 "></path>
        <path fill="none" stroke="#ff00ff" stroke-width="3" d="M 682.023 50 L 682.023 766 "></path>
        <path fill="none" stroke="#ff00ff" stroke-width="3" d="M 685.358 50 L 685.358 766 "></path>
        <path fill="none" stroke="#ff00ff" stroke-width="3" d="M 688.693 50 L 688.693 766 "></path>
        <path fill="none" stroke="#ff00ff" stroke-width="3" d="M 692.028 50 L 692.028 766 "></path>
        <path fill="none" stroke="#ff00ff" stroke-width="3" d="M 695.363 50 L 695.363 766 "></path>
        <path fill="none" stroke="#ff00ff" stroke-width="3" d="M 698.699 50 L 698.699 766 "></path>
        <path fill="none" stroke="#ff00ff" stroke-width="3" d="M 702.034 50 L 702.034 766 "></path>
        <path fill="none" stroke="#ff00ff" stroke-width="3" d="M 705.369 50 L 705.369 766 "></path>
        <path fill="none" stroke="#ff00ff" stroke-width="3" d="M 708.704 50 L 708.704 766 "></path>
        <path fill="none" stroke="#ff00ff" stroke-width="3" d="M 712.039 50 L 712.039 766 "></path>
        <path fill="none" stroke="#ff00ff" stroke-width="3" d="M 715.375 50 L 715.375 766 "></path>
        <path fill="none" stroke="#ff00ff" stroke-width="3" d="M 718.71 50 L 718.71 766 "></path>
        <path fill="none" stroke="#ff00ff" stroke-width="3" d="M 722.045 50 L 722.045 766 "></path>
        <path fill="none" stroke="#ff00ff" stroke-width="3" d="M 725.38 50 L 725.38 766 "></path>
        <path fill="none" stroke="#ff00ff" stroke-width="3" d="M 728.716 50 L 728.716 766 "></path>
        <path fill="none" stroke="#ff00ff" stroke-width="3" d="M 732.051 50 L 732.051 766 "></path>
        <path fill="none" stroke="#ff00ff" stroke-width="3" d="M 735.386 50 L 735.386 766 "></path>
        <path fill="none" stroke="#ff00ff" stroke-width="3" d="M 738.721 50 L 738.721 766 "></path>
        <path fill="none" stroke="#ff00ff" stroke-width="3" d="M 742.056 50 L 742.056 766 "></path>
        <path fill="none" stroke="#ff00ff" stroke-width="3" d="M 745.392 50 L 745.392 766 "></path>
        <path fill="none" stroke="#ff00ff" stroke-width="3" d="M 748.727 50 L 748.727 766 "></path>
        <path fill="none" stroke="#ff00ff" stroke-width="3" d="M 752.062 50 L 752.062 766 "></path>
        <path fill="none" stroke="#ff00ff" stroke-width="3" d="M 755.397 50 L 755.397 766 "></path>
        <path fill="none" stroke="#ff00ff" stroke-width="3" d="M 758.732 50 L 758.732 766 "></path>
        <path fill="none" stroke="#ff00ff" stroke-width="3" d="M 762.068 50 L 762.068 766 "></path>
        <path fill="none" stroke="#ff00ff" stroke-width="3" d="M 765.403 50 L 765.403 766 "></path>
        <path fill="none" stroke="#ff00ff" stroke-width="3" d="M 768.738 50 L 768.738 766 "></path>
        <path fill="none" stroke="#ff00ff" stroke-width="3" d="M 772.073 50 L 772.073 766 "></path>
        <path fill="none" stroke="#ff00ff" stroke-width="3" d="M 775.408 50 L 775.408 766 "></path>
        <path fill="none" stroke="#ff00ff" stroke-width="3" d="M 778.744 50 L 778.744 766 "></path>
        <path fill="none" stroke="#ff00ff" stroke-width="3" d="M 782.079 50 L 782.079 766 "></path>
        <path fill="none" stroke="#ff00ff" stroke-width="3" d="M 785.414 50 L 785.414 766 "></path>
        <path fill="none" stroke="#ff00ff" stroke-width="3" d="M 788.749 50 L 788.749 766 "></path>
        <path fill="none" stroke="#ff00ff" stroke-width="3" d="M 792.084 50 L 792.084 766 "></path>
        <path fill="none" stroke="#ff00ff" stroke-width="3" d="M 795.42 50 L 795.42 766 "></path>
        <path fill="none" stroke="#ff00ff" stroke-width="3" d="M 798.755 50 L 798.755 766 "></path>
        <path fill="none" stroke="#ff00ff" stroke-width="3" d="M 802.09 50 L 802.09 766 "></path>
        <path fill="none" stroke="#ff00ff" stroke-width="3" d="M 805.425 50 L 805.425 766 "></path>
        <path fill="none" stroke="#ff00ff" stroke-width="3" d="M 808.761 50 L 808.761 766 "></path>
        <path fill="none" stroke="#ff00ff" stroke-width="3" d="M 812.096 50 L 812.096 766 "></path>
        <path fill="none" stroke="#ff00ff" stroke-width="3" d="M 815.431 50 L 815.431 766 "></path>
        <path fill="none" stroke="#ff00ff" stroke-width="3" d="M 818.766 50 L 818.766 766 "></path>
        <path fill="none" stroke="#ff00ff" stroke-width="3" d="M 822.101 50 L 822.101 766 "></path>
        <path fill="none" stroke="#ff00ff" stroke-width="3" d="M 825.437 50 L 825.437 766 "></path>
        <path fill="none" stroke="#ff00ff" stroke-width="3" d="M 828.772 50 L 828.772 766 "></path>
        <path fill="none" stroke="#ff00ff" stroke-width="3" d="M 832.107 50 L 832.107 766 "></path>
        <path fill="none" stroke="#ff00ff" stroke-width="3" d="M 835.442 50 L 835.442 766 "></path>
        <path fill="none" stroke="#ff00ff" stroke-width="3" d="M 838.777 50 L 838.777 766 "></path>
        <path fill="none" stroke="#ff00ff" stroke-width="3" d="M 842.113 50 L 842.113 766 "></path>
        <path fill="none" stroke="#ff00ff" stroke-width="3" d="M 845.448 50 L 845.448 766 "></path>
        <path fill="none" stroke="#ff00ff" stroke-width="3" d="M 848.783 50 L 848.783 766 "></path>
        <path fill="none" stroke="#ff00ff" stroke-width="3" d="M 852.118 50 L 852.118 766 "></path>
        <path fill="none" stroke="#ff00ff" stroke-width="3" d="M 855.453 50 L 855.453 766 "></path>
        <path fill="none" stroke="#ff00ff" stroke-width="3" d="M 858.789 50 L 858.789 766 "></path>
        <path fill="none" stroke="#ff00ff" stroke-width="3" d="M 862.124 50 L 862.124 766 "></path>
        <path fill="none" stroke="#ff00ff" stroke-width="3" d="M 865.459 50 L 865.459 766 "></path>
        <path fill="none" stroke="#ff00ff" stroke-width="3" d="M 868.794 50 L 868.794 766 "></path>
        <path fill="none" stroke="#ff00ff" stroke-width="3" d="M 872.13 50 L 872.13 766 "></path>
        <path fill="none" stroke="#ff00ff" stroke-width="3" d="M 875.465 50 L 875.465 766 "></path>
        <path fill="none" stroke="#ff00ff" stroke-width="3" d="M 878.8 50 L 878.8 766 "></path>
        <path fill="none" stroke="#ff00ff" stroke-width="3" d="M 882.135 50 L 882.135 766 "></path>
        <path fill="none" stroke="#ff00ff" stroke-width="3" d="M 885.47 50 L 885.47 766 "></path>
        <path fill="none" stroke="#ff00ff" stroke-width="3" d="M 888.806 50 L 888.806 766 "></path>
        <path fill="none" stroke="#ff00ff" stroke-width="3" d="M 892.141 50 L 892.141 766 "></path>
        <path fill="none" stroke="#ff00ff" stroke-width="3" d="M 895.476 50 L 895.476 766 "></path>
        <path fill="none" stroke="#ff00ff" stroke-width="3" d="M 898.811 50 L 898.811 766 "></path>
        <path fill="none" stroke="#ff00ff" stroke-width="3" d="M 902.146 50 L 902.146 766 "></path>
        <path fill="none" stroke="#ff00ff" stroke-width="3" d="M 905.482 50 L 905.482 766 "></path>
        <path fill="none" stroke="#ff00ff" stroke-width="3" d="M 908.817 50 L 908.817 766 "></path>
        <path fill="none" stroke="#ff00ff" stroke-width="3" d="M 912.152 50 L 912.152 766 "></path>
        <path fill="none" stroke="#ff00ff" stroke-width="3" d="M 915.487 50 L 915.487 766 "></path>
        <path fill="none" stroke="#ff00ff" stroke-width="3" d="M 918.823 50 L 918.823 766 "></path>
        <path fill="none" stroke="#ff00ff" stroke-width="3" d="M 922.158 50 L 922.158 766 "></path>
        <path fill="none" stroke="#ff00ff" stroke-width="3" d="M 925.493 50 L 925.493 766 "></path>
        <path fill="none" stroke="#ff00ff" stroke-width="3" d="M 928.828 50 L 928.828 766 "></path>
        <path fill="none" stroke="#ff00ff" stroke-width="3" d="M 932.163 50 L 932.163 766 "></path>
        <path fill="none" stroke="#ff00ff" stroke-width="3" d="M 935.499 50 L 935.499 766 "></path>
        <path fill="none" stroke="#ff00ff" stroke-width="3" d="M 938.834 50 L 938.834 766 "></path>
        <path fill="none" stroke="#ff00ff" stroke-width="3" d="M 942.169 50 L 942.169 766 "></path>
        <path fill="none" stroke="#ff00ff" stroke-width="3" d="M 945.504 50 L 945.504 766 "></path>
        <path fill="none" stroke="#ff00ff" stroke-width="3" d="M 948.839 50 L 948.839 766 "></path>
        <path fill="none" stroke="#ff00ff" stroke-width="3" d="M 952.175 50 L 952.175 766 "></path>
        <path fill="none" stroke="#ff00ff" stroke-width="3" d="M 955.51 50 L 955.51 766 "></path>
        <path fill="none" stroke="#ff00ff" stroke-width="3" d="M 958.845 50 L 958.845 766 "></path>
        <path fill="none" stroke="#ff00ff" stroke-width="3" d="M 962.18 50 L 962.18 766 "></path>
        <path fill="none" stroke="#ff00ff" stroke-width="3" d="M 965.516 50 L 965.516 766 "></path>
        <path fill="none" stroke="#ff00ff" stroke-width="3" d="M 968.851 50 L 968.851 766 "></path>
        <path fill="none" stroke="#ff00ff" stroke-width="3" d="M 972.186 50 L 972.186 766 "></path>
        <path fill="none" stroke="#ff00ff" stroke-width="3" d="M 975.521 50 L 975.521 766 "></path>
        <path fill="none" stroke="#ff00ff" stroke-width="3" d="M 978.856 50 L 978.856 766 "></path>
        <path fill="none" stroke="#ff00ff" stroke-width="3" d="M 982.192 50 L 982.192 766 "></path>
        <path fill="none" stroke="#ff00ff" stroke-width="3" d="M 985.527 50 L 985.527 766 "></path>
        <path fill="none" stroke="#ff00ff" stroke-width="3" d="M 988.862 50 L 988.862 766 "></path>
        <path fill="none" stroke="#ff00ff" stroke-width="3" d="M 992.197 50 L 992.197 766 "></path>
        <path fill="none" stroke="#ff00ff" stroke-width="3" d="M 995.532 50 L 995.532 766 "></path>
        <path fill="none" stroke="#ff00ff" stroke-width="3" d="M 998.868 50 L 998.868 766 "></path>
        <path fill="none" stroke="#ff00ff" stroke-width="3" d="M 1002.2 50 L 1002.2 766 "></path>
        <path fill="none" stroke="#ff00ff" stroke-width="3" d="M 1005.54 50 L 1005.54 766 "></path>
        <path fill="none" stroke="#ff00ff" stroke-width="3" d="M 1008.87 50 L 1008.87 766 "></path>
        <path fill="none" stroke="#ff00ff" stroke-width="3" d="M 1012.21 50 L 1012.21 766 "></path>
        <path fill="none" stroke="#ff00ff" stroke-width="3" d="M 1015.54 50 L 1015.54 766 "></path>
        <path fill="none" stroke="#ff00ff" stroke-width="3" d="M 1018.88 50 L 1018.88 766 "></path>
        <path fill="none" stroke="#ff00ff" stroke-width="3" d="M 1022.21 50 L 1022.21 766 "></path>
        <path fill="none" stroke="#ff00ff" stroke-width="3" d="M 1025.55 50 L 1025.55 766 "></path>
        <path fill="none" stroke="#ff00ff" stroke-width="3" d="M 1028.88 50 L 1028.88 766 "></path>
        <path fill="none" stroke="#ff00ff" stroke-width="3" d="M 1032.22 50 L 1032.22 766 "></path>
        <path fill="none" stroke="#ff00ff" stroke-width="3" d="M 1035.55 50 L 1035.55 766 "></path>
        <path fill="none" stroke="#ff00ff" stroke-width="3" d="M 1038.89 50 L 1038.89 766 "></path>
        <path fill="none" stroke="#ff00ff" stroke-width="3" d="M 1042.23 50 L 1042.23 766 "></path>
        <path fill="none" stroke="#ff00ff" stroke-width="3" d="M 1045.56 50 L 1045.56 766 "></path>
        <path fill="none" stroke="#ff00ff" stroke-width="3" d="M 1048.9 50 L 1048.9 766 "></path>
        <path fill="none" stroke="#ff00ff" stroke-width="3" d="M 1052.23 50 L 1052.23 766 "></path>
        <path fill="none" stroke="#ff00ff" stroke-width="3" d="M 1055.57 50 L 1055.57 766 "></path>
        <path fill="none" stroke="#ff00ff" stroke-width="3" d="M 1058.9 50 L 1058.9 766 "></path>
        <path fill="none" stroke="#ff00ff" stroke-width="3" d="M 1062.24 50 L 1062.24 766 "></path>
        <path fill="none" stroke="#ff00ff" stroke-width="3" d="M 1065.57 50 L 1065.57 766 "></path>
        <path fill="none" stroke="#ff00ff" stroke-width="3" d="M 1068.91 50 L 1068.91 766 "></path>
        <path fill="none" stroke="#ff00ff" stroke-width="3" d="M 1072.24 50 L 1072.24 766 "></path>
        <path fill="none" stroke="#ff00ff" stroke-width="3" d="M 1075.58 50 L 1075.58 766 "></path>
        <path fill="none" stroke="#ff00ff" stroke-width="3" d="M 1078.91 50 L 1078.91 766 "></path>
        <path fill="none" stroke="#ff00ff" stroke-width="3" d="M 1082.25 50 L 1082.25 766 "></path>
        <path fill="none" stroke="#ff00ff" stroke-width="3" d="M 1085.58 50 L 1085.58 766 "></path>
        <path fill="none" stroke="#ff00ff" stroke-width="3" d="M 1088.92 50 L 1088.92 766 "></path>
        <path fill="none" stroke="#ff00ff" stroke-width="3" d="M 1092.25 50 L 1092.25 766 "></path>
        <path fill="none" stroke="#ff00ff" stroke-width="3" d="M 1095.59 50 L 1095.59 766 "></path>
        <path fill="none" stroke="#ff00ff" stroke-width="3" d="M 1098.92 50 L 1098.92 766 "></path>
        <path fill="none" stroke="#ff00ff" stroke-width="3" d="M 1102.26 50 L 1102.26 766 "></path>
        <path fill="none" stroke="#ff00ff" stroke-width="3" d="M 1105.59 50 L 1105.59 766 "></path>
        <path fill="none" stroke="#ff00ff" stroke-width="3" d="M 1108.93 50 L 1108.93 766 "></path>
        <path fill="none" stroke="#ff00ff" stroke-width="3" d="M 1112.26 50 L 1112.26 766 "></path>
        <path fill="none" stroke="#ff00ff" stroke-width="3" d="M 1115.6 50 L 1115.6 766 "></path>
        <path fill="none" stroke="#ff00ff" stroke-width="3" d="M 1118.94 50 L 1118.94 766 "></path>
        <path fill="none" stroke="#ff00ff" stroke-width="3" d="M 1122.27 50 L 1122.27 766 "></path>
        <path fill="none" stroke="#ff00ff" stroke-width="3" d="M 1125.61 50 L 1125.61 766 "></path>
        <path fill="none" stroke="#ff00ff" stroke-width="3" d="M 1128.94 50 L 1128.94 766 "></path>
        <path fill="none" stroke="#ff00ff" stroke-width="3" d="M 1132.28 50 L 1132.28 766 "></path>
        <path fill="none" stroke="#ff00ff" stroke-width="3" d="M 1135.61 50 L 1135.61 766 "></path>
        <path fill="none" stroke="#ff00ff" stroke-width="3" d="M 1138.95 50 L 1138.95 766 "></path>
        <path fill="none" stroke="#ff00ff" stroke-width="3" d="M 1142.28 50 L 1142.28 766 "></path>
        <path fill="none" stroke="#ff00ff" stroke-width="3" d="M 1145.62 50 L 1145.62 766 "></path>
        <path fill="none" stroke="#ff00ff" stroke-width="3" d="M 1148.95 50 L 1148.95 766 "></path>
        <path fill="none" stroke="#ff00ff" stroke-width="3" d="M 1152.29 50 L 1152.29 766 "></path>
        <path fill="none" stroke="#ff00ff" stroke-width="3" d="M 1155.62 50 L 1155.62 766 "></path>
        <path fill="none" stroke="#ff00ff" stroke-width="3" d="M 1158.96 50 L 1158.96 766 "></path>
        <path fill="none" stroke="#ff00ff" stroke-width="3" d="M 1162.29 50 L 1162.29 766 "></path>
        <path fill="none" stroke="#ff00ff" stroke-width="3" d="M 1165.63 50 L 1165.63 766 "></path>
        <path fill="none" stroke="#ff00ff" stroke-width="3" d="M 1168.96 50 L 1168.96 766 "></path>
        <path fill="none" stroke="#ff00ff" stroke-width="3" d="M 1172.3 50 L 1172.3 766 "></path>
        <path fill="none" stroke="#ff00ff" stroke-width="3" d="M 1175.63 50 L 1175.63 766 "></path>
        <path fill="none" stroke="#ff00ff" stroke-width="3" d="M 1178.97 50 L 1178.97 766 "></path>
        <path fill="none" stroke="#ff00ff" stroke-width="3" d="M 1182.3 50 L 1182.3 766 "></path>
        <path fill="none" stroke="#ff00ff" stroke-width="3" d="M 1185.64 50 L 1185.64 766 "></path>
        <path fill="none" stroke="#ff00ff" stroke-width="3" d="M 1188.97 50 L 1188.97 766 "></path>
        <path fill="none" stroke="#ff00ff" stroke-width="3" d="M 1192.31 50 L 1192.31 766 "></path>
        <path fill="none" stroke="#ff00ff" stroke-width="3" d="M 1195.65 50 L 1195.65 766 "></path>
        <path fill="none" stroke="#ff00ff" stroke-width="3" d="M 1198.98 50 L 1198.98 766 "></path>
        <path fill="none" stroke="#ff00ff" stroke-width="3" d="M 1202.32 50 L 1202.32 766 "></path>
        <path fill="none" stroke="#ff00ff" stroke-width="3" d="M 1205.65 50 L 1205.65 766 "></path>
        <path fill="none" stroke="#ff00ff" stroke-width="3" d="M 1208.99 50 L 1208.99 766 "></path>
        <path fill="none" stroke="#ff00ff" stroke-width="3" d="M 1212.32 50 L 1212.32 766 "></path>
        <path fill="none" stroke="#ff00ff" stroke-width="3" d="M 1215.66 50 L 1215.66 766 "></path>
        <path fill="none" stroke="#ff00ff" stroke-width="3" d="M 1218.99 50 L 1218.99 766 "></path>
        <path fill="none" stroke="#ff00ff" stroke-width="3" d="M 1222.33 50 L 1222.33 766 "></path>
        <path fill="none" stroke="#ff00ff" stroke-width="3" d="M 1225.66 50 L 1225.66 766 "></path>
        <path fill="none" stroke="#ff00ff" stroke-width="3" d="M 1229 50 L 1229 766 "></path>
        <path fill="none" stroke="#ff00ff" stroke-width="3" d="M 1232.33 50 L 1232.33 766 "></path>
    </g>
</svg>
