<svg xmlns="http://www.w3.org/2000/svg" xmlns:xlink="http://www.w3.org/1999/xlink" version="1.1" x="0" y="0" width="1056px" height="816px">
    <g id="rootLayer" transform="translate(0.000000, 0.000000)">
        <path fill="none" stroke="#ff00ff" stroke-width="3" d="M 51.6655 50 L 51.6655 766 "></path>
        <path fill="none" stroke="#ff00ff" stroke-width="3" d="M 54.9965 50 L 54.9965 766 "></path>
        <path fill="none" stroke="#ff00ff" stroke-width="3" d="M 58.3275 50 L 58.3275 766 "></path>
        <path fill="none" stroke="#ff00ff" stroke-width="3" d="M 61.6585 50 L 61.6585 766 "></path>
        <path fill="none" stroke="#ff00ff" stroke-width="3" d="M 64.9895 50 L 64.9895 766 "></path>
        <path fill="none" stroke="#ff00ff" stroke-width="3" d="M 68.3206 50 L 68.3206 766 "></path>
        <path fill="none" stroke="#ff00ff" stroke-width="3" d="M 71.6516 50 L 71.6516 766 "></path>
        <path fill="none" stroke="#ff00ff" stroke-width="3" d="M 74.9826 50 L 74.9826 766 "></path>
        <path fill="none" stroke="#ff00ff" stroke-width="3" d="M 78.3136 50 L 78.3136 766 "></path>
        <path fill="none" stroke="#ff00ff" stroke-width="3" d="M 81.6446 50 L 81.6446 766 "></path>
        <path fill="none" stroke="#ff00ff" stroke-width="3" d="M 84.9756 50 L 84.9756 766 "></path>
        <path fill="none" stroke="#ff00ff" stroke-width="3" d="M 88.3066 50 L 88.3066 766 "></path>
        <path fill="none" stroke="#ff00ff" stroke-width="3" d="M 91.6376 50 L 91.6376 766 "></path>
        <path fill="none" stroke="#ff00ff" stroke-width="3" d="M 94.9686 50 L 94.9686 766 "></path>
        <path fill="none" stroke="#ff00ff" stroke-width="3" d="M 98.2997 50 L 98.2997 766 "></path>
        <path fill="none" stroke="#ff00ff" stroke-width="3" d="M 101.631 50 L 101.631 766 "></path>
        <path fill="none" stroke="#ff00ff" stroke-width="3" d="M 104.962 50 L 104.962 766 "></path>
        <path fill="none" stroke="#ff00ff" stroke-width="3" d="M 108.293 50 L 108.293 766 "></path>
        <path fill="none" stroke="#ff00ff" stroke-width="3" d="M 111.624 50 L 111.624 766 "></path>
        <path fill="none" stroke="#ff00ff" stroke-width="3" d="M 114.955 50 L 114.955 766 "></path>
        <path fill="none" stroke="#ff00ff" stroke-width="3" d="M 118.286 50 L 118.286 766 "></path>
        <path fill="none" stroke="#ff00ff" stroke-width="3" d="M 121.617 50 L 121.617 766 "></path>
        <path fill="none" stroke="#ff00ff" stroke-width="3" d="M 124.948 50 L 124.948 766 "></path>
        <path fill="none" stroke="#ff00ff" stroke-width="3" d="M 128.279 50 L 128.279 766 "></path>
        <path fill="none" stroke="#ff00ff" stroke-width="3" d="M 131.61 50 L 131.61 766 "></path>
        <path fill="none" stroke="#ff00ff" stroke-width="3" d="M 134.941 50 L 134.941 766 "></path>
        <path fill="none" stroke="#ff00ff" stroke-width="3" d="M 138.272 50 L 138.272 766 "></path>
        <path fill="none" stroke="#ff00ff" stroke-width="3" d="M 141.603 50 L 141.603 766 "></path>
        <path fill="none" stroke="#ff00ff" stroke-width="3" d="M 144.934 50 L 144.934 766 "></path>
        <path fill="none" stroke="#ff00ff" stroke-width="3" d="M 148.265 50 L 148.265 766 "></path>
        <path fill="none" stroke="#ff00ff" stroke-width="3" d="M 151.596 50 L 151.596 766 "></path>
        <path fill="none" stroke="#ff00ff" stroke-width="3" d="M 154.927 50 L 154.927 766 "></path>
        <path fill="none" stroke="#ff00ff" stroke-width="3" d="M 158.258 50 L 158.258 766 "></path>
        <path fill="none" stroke="#ff00ff" stroke-width="3" d="M 161.589 50 L 161.589 766 "></path>
        <path fill="none" stroke="#ff00ff" stroke-width="3" d="M 164.92 50 L 164.92 766 "></path>
        <path fill="none" stroke="#ff00ff" stroke-width="3" d="M 168.251 50 L 168.251 766 "></path>
        <path fill="none" stroke="#ff00ff" stroke-width="3" d="M 171.582 50 L 171.582 766 "></path>
        <path fill="none" stroke="#ff00ff" stroke-width="3" d="M 174.913 50 L 174.913 766 "></path>
        <path fill="none" stroke="#ff00ff" stroke-width="3" d="M 178.244 50 L 178.244 766 "></path>
        <path fill="none" stroke="#ff00ff" stroke-width="3" d="M 181.575 50 L 181.575 766 "></path>
        <path fill="none" stroke="#ff00ff" stroke-width="3" d="M 184.906 50 L 184.906 766 "></path>
        <path fill="none" stroke="#ff00ff" stroke-width="3" d="M 188.237 50 L 188.237 766 "></path>
        <path fill="none" stroke="#ff00ff" stroke-width="3" d="M 191.568 50 L 191.568 766 "></path>
        <path fill="none" stroke="#ff00ff" stroke-width="3" d="M 194.899 50 L 194.899 766 "></path>
        <path fill="none" stroke="#ff00ff" stroke-width="3" d="M 198.23 50 L 198.23 766 "></path>
        <path fill="none" stroke="#ff00ff" stroke-width="3" d="M 201.561 50 L 201.561 766 "></path>
        <path fill="none" stroke="#ff00ff" stroke-width="3" d="M 204.892 50 L 204.892 766 "></path>
        <path fill="none" stroke="#ff00ff" stroke-width="3" d="M 208.223 50 L 208.223 766 "></path>
        <path fill="none" stroke="#ff00ff" stroke-width="3" d="M 211.554 50 L 211.554 766 "></path>
        <path fill="none" stroke="#ff00ff" stroke-width="3" d="M 214.885 50 L 214.885 766 "></path>
        <path fill="none" stroke="#ff00ff" stroke-width="3" d="M 218.216 50 L 218.216 766 "></path>
        <path fill="none" stroke="#ff00ff" stroke-width="3" d="M 221.547 50 L 221.547 766 "></path>
        <path fill="none" stroke="#ff00ff" stroke-width="3" d="M 224.878 50 L 224.878 766 "></path>
        <path fill="none" stroke="#ff00ff" stroke-width="3" d="M 228.209 50 L 228.209 766 "></path>
        <path fill="none" stroke="#ff00ff" stroke-width="3" d="M 231.54 50 L 231.54 766 "></path>
        <path fill="none" stroke="#ff00ff" stroke-width="3" d="M 234.871 50 L 234.871 766 "></path>
        <path fill="none" stroke="#ff00ff" stroke-width="3" d="M 238.202 50 L 238.202 766 "></path>
        <path fill="none" stroke="#ff00ff" stroke-width="3" d="M 241.533 50 L 241.533 766 "></path>
        <path fill="none" stroke="#ff00ff" stroke-width="3" d="M 244.864 50 L 244.864 766 "></path>
        <path fill="none" stroke="#ff00ff" stroke-width="3" d="M 248.195 50 L 248.195 766 "></path>
        <path fill="none" stroke="#ff00ff" stroke-width="3" d="M 251.526 50 L 251.526 766 "></path>
        <path fill="none" stroke="#ff00ff" stroke-width="3" d="M 254.857 50 L 254.857 766 "></path>
        <path fill="none" stroke="#ff00ff" stroke-width="3" d="M 258.188 50 L 258.188 766 "></path>
        <path fill="none" stroke="#ff00ff" stroke-width="3" d="M 261.519 50 L 261.519 766 "></path>
        <path fill="none" stroke="#ff00ff" stroke-width="3" d="M 264.85 50 L 264.85 766 "></path>
        <path fill="none" stroke="#ff00ff" stroke-width="3" d="M 268.181 50 L 268.181 766 "></path>
        <path fill="none" stroke="#ff00ff" stroke-width="3" d="M 271.512 50 L 271.512 766 "></path>
        <path fill="none" stroke="#ff00ff" stroke-width="3" d="M 274.843 50 L 274.843 766 "></path>
        <path fill="none" stroke="#ff00ff" stroke-width="3" d="M 278.174 50 L 278.174 766 "></path>
        <path fill="none" stroke="#ff00ff" stroke-width="3" d="M 281.505 50 L 281.505 766 "></path>
        <path fill="none" stroke="#ff00ff" stroke-width="3" d="M 284.836 50 L 284.836 766 "></path>
        <path fill="none" stroke="#ff00ff" stroke-width="3" d="M 288.167 50 L 288.167 766 "></path>
        <path fill="none" stroke="#ff00ff" stroke-width="3" d="M 291.498 50 L 291.498 766 "></path>
        <path fill="none" stroke="#ff00ff" stroke-width="3" d="M 294.829 50 L 294.829 766 "></path>
        <path fill="none" stroke="#ff00ff" stroke-width="3" d="M 298.16 50 L 298.16 766 "></path>
        <path fill="none" stroke="#ff00ff" stroke-width="3" d="M 301.491 50 L 301.491 766 "></path>
        <path fill="none" stroke="#ff00ff" stroke-width="3" d="M 304.822 50 L 304.822 766 "></path>
        <path fill="none" stroke="#ff00ff" stroke-width="3" d="M 308.153 50 L 308.153 766 "></path>
        <path fill="none" stroke="#ff00ff" stroke-width="3" d="M 311.484 50 L 311.484 766 "></path>
        <path fill="none" stroke="#ff00ff" stroke-width="3" d="M 314.815 50 L 314.815 766 "></path>
        <path fill="none" stroke="#ff00ff" stroke-width="3" d="M 318.146 50 L 318.146 766 "></path>
        <path fill="none" stroke="#ff00ff" stroke-width="3" d="M 321.477 50 L 321.477 766 "></path>
        <path fill="none" stroke="#ff00ff" stroke-width="3" d="M 324.808 50 L 324.808 766 "></path>
        <path fill="none" stroke="#ff00ff" stroke-width="3" d="M 328.139 50 L 328.139 766 "></path>
        <path fill="none" stroke="#ff00ff" stroke-width="3" d="M 331.47 50 L 331.47 766 "></path>
        <path fill="none" stroke="#ff00ff" stroke-width="3" d="M 334.801 50 L 334.801 766 "></path>
        <path fill="none" stroke="#ff00ff" stroke-width="3" d="M 338.132 50 L 338.132 766 "></path>
        <path fill="none" stroke="#ff00ff" stroke-width="3" d="M 341.463 50 L 341.463 766 "></path>
        <path fill="none" stroke="#ff00ff" stroke-width="3" d="M 344.794 50 L 344.794 766 "></path>
        <path fill="none" stroke="#ff00ff" stroke-width="3" d="M 348.125 50 L 348.125 766 "></path>
        <path fill="none" stroke="#ff00ff" stroke-width="3" d="M 351.456 50 L 351.456 766 "></path>
        <path fill="none" stroke="#ff00ff" stroke-width="3" d="M 354.787 50 L 354.787 766 "></path>
        <path fill="none" stroke="#ff00ff" stroke-width="3" d="M 358.118 50 L 358.118 766 "></path>
        <path fill="none" stroke="#ff00ff" stroke-width="3" d="M 361.449 50 L 361.449 766 "></path>
        <path fill="none" stroke="#ff00ff" stroke-width="3" d="M 364.78 50 L 364.78 766 "></path>
        <path fill="none" stroke="#ff00ff" stroke-width="3" d="M 368.112 50 L 368.112 766 "></path>
        <path fill="none" stroke="#ff00ff" stroke-width="3" d="M 371.443 50 L 371.443 766 "></path>
        <path fill="none" stroke="#ff00ff" stroke-width="3" d="M 374.774 50 L 374.774 766 "></path>
        <path fill="none" stroke="#ff00ff" stroke-width="3" d="M 378.105 50 L 378.105 766 "></path>
        <path fill="none" stroke="#ff00ff" stroke-width="3" d="M 381.436 50 L 381.436 766 "></path>
        <path fill="none" stroke="#ff00ff" stroke-width="3" d="M 384.767 50 L 384.767 766 "></path>
        <path fill="none" stroke="#ff00ff" stroke-width="3" d="M 388.098 50 L 388.098 766 "></path>
        <path fill="none" stroke="#ff00ff" stroke-width="3" d="M 391.429 50 L 391.429 766 "></path>
        <path fill="none" stroke="#ff00ff" stroke-width="3" d="M 394.76 50 L 394.76 766 "></path>
        <path fill="none" stroke="#ff00ff" stroke-width="3" d="M 398.091 50 L 398.091 766 "></path>
        <path fill="none" stroke="#ff00ff" stroke-width="3" d="M 401.422 50 L 401.422 766 "></path>
        <path fill="none" stroke="#ff00ff" stroke-width="3" d="M 404.753 50 L 404.753 766 "></path>
        <path fill="none" stroke="#ff00ff" stroke-width="3" d="M 408.084 50 L 408.084 766 "></path>
        <path fill="none" stroke="#ff00ff" stroke-width="3" d="M 411.415 50 L 411.415 766 "></path>
        <path fill="none" stroke="#ff00ff" stroke-width="3" d="M 414.746 50 L 414.746 766 "></path>
        <path fill="none" stroke="#ff00ff" stroke-width="3" d="M 418.077 50 L 418.077 766 "></path>
        <path fill="none" stroke="#ff00ff" stroke-width="3" d="M 421.408 50 L 421.408 766 "></path>
        <path fill="none" stroke="#ff00ff" stroke-width="3" d="M 424.739 50 L 424.739 766 "></path>
        <path fill="none" stroke="#ff00ff" stroke-width="3" d="M 428.07 50 L 428.07 766 "></path>
        <path fill="none" stroke="#ff00ff" stroke-width="3" d="M 431.401 50 L 431.401 766 "></path>
        <path fill="none" stroke="#ff00ff" stroke-width="3" d="M 434.732 50 L 434.732 766 "></path>
        <path fill="none" stroke="#ff00ff" stroke-width="3" d="M 438.063 50 L 438.063 766 "></path>
        <path fill="none" stroke="#ff00ff" stroke-width="3" d="M 441.394 50 L 441.394 766 "></path>
        <path fill="none" stroke="#ff00ff" stroke-width="3" d="M 444.725 50 L 444.725 766 "></path>
        <path fill="none" stroke="#ff00ff" stroke-width="3" d="M 448.056 50 L 448.056 766 "></path>
        <path fill="none" stroke="#ff00ff" stroke-width="3" d="M 451.387 50 L 451.387 766 "></path>
        <path fill="none" stroke="#ff00ff" stroke-width="3" d="M 454.718 50 L 454.718 766 "></path>
        <path fill="none" stroke="#ff00ff" stroke-width="3" d="M 458.049 50 L 458.049 766 "></path>
        <path fill="none" stroke="#ff00ff" stroke-width="3" d="M 461.38 50 L 461.38 766 "></path>
        <path fill="none" stroke="#ff00ff" stroke-width="3" d="M 464.711 50 L 464.711 766 "></path>
        <path fill="none" stroke="#ff00ff" stroke-width="3" d="M 468.042 50 L 468.042 766 "></path>
        <path fill="none" stroke="#ff00ff" stroke-width="3" d="M 471.373 50 L 471.373 766 "></path>
        <path fill="none" stroke="#ff00ff" stroke-width="3" d="M 474.704 50 L 474.704 766 "></path>
        <path fill="none" stroke="#ff00ff" stroke-width="3" d="M 478.035 50 L 478.035 766 "></path>
        <path fill="none" stroke="#ff00ff" stroke-width="3" d="M 481.366 50 L 481.366 766 "></path>
        <path fill="none" stroke="#ff00ff" stroke-width="3" d="M 484.697 50 L 484.697 766 "></path>
        <path fill="none" stroke="#ff00ff" stroke-width="3" d="M 488.028 50 L 488.028 766 "></path>
        <path fill="none" stroke="#ff00ff" stroke-width="3" d="M 491.359 50 L 491.359 766 "></path>
        <path fill="none" stroke="#ff00ff" stroke-width="3" d="M 494.69 50 L 494.69 766 "></path>
        <path fill="none" stroke="#ff00ff" stroke-width="3" d="M 498.021 50 L 498.021 766 "></path>
        <path fill="none" stroke="#ff00ff" stroke-width="3" d="M 501.352 50 L 501.352 766 "></path>
        <path fill="none" stroke="#ff00ff" stroke-width="3" d="M 504.683 50 L 504.683 766 "></path>
        <path fill="none" stroke="#ff00ff" stroke-width="3" d="M 508.014 50 L 508.014 766 "></path>
        <path fill="none" stroke="#ff00ff" stroke-width="3" d="M 511.345 50 L 511.345 766 "></path>
        <path fill="none" stroke="#ff00ff" stroke-width="3" d="M 514.676 50 L 514.676 766 "></path>
        <path fill="none" stroke="#ff00ff" stroke-width="3" d="M 518.007 50 L 518.007 766 "></path>
        <path fill="none" stroke="#ff00ff" stroke-width="3" d="M 521.338 50 L 521.338 766 "></path>
        <path fill="none" stroke="#ff00ff" stroke-width="3" d="M 524.669 50 L 524.669 766 "></path>
        <path fill="none" stroke="#ff00ff" stroke-width="3" d="M 528 50 L 528 766 "></path>
        <path fill="none" stroke="#ff00ff" stroke-width="3" d="M 531.331 50 L 531.331 766 "></path>
        <path fill="none" stroke="#ff00ff" stroke-width="3" d="M 534.662 50 L 534.662 766 "></path>
        <path fill="none" stroke="#ff00ff" stroke-width="3" d="M 537.993 50 L 537.993 766 "></path>
        <path fill="none" stroke="#ff00ff" stroke-width="3" d="M 541.324 50 L 541.324 766 "></path>
        <path fill="none" stroke="#ff00ff" stroke-width="3" d="M 544.655 50 L 544.655 766 "></path>
        <path fill="none" stroke="#ff00ff" stroke-width="3" d="M 547.986 50 L 547.986 766 "></path>
        <path fill="none" stroke="#ff00ff" stroke-width="3" d="M 551.317 50 L 551.317 766 "></path>
        <path fill="none" stroke="#ff00ff" stroke-width="3" d="M 554.648 50 L 554.648 766 "></path>
        <path fill="none" stroke="#ff00ff" stroke-width="3" d="M 557.979 50 L 557.979 766 "></path>
        <path fill="none" stroke="#ff00ff" stroke-width="3" d="M 561.31 50 L 561.31 766 "></path>
        <path fill="none" stroke="#ff00ff" stroke-width="3" d="M 564.641 50 L 564.641 766 "></path>
        <path fill="none" stroke="#ff00ff" stroke-width="3" d="M 567.972 50 L 567.972 766 "></path>
        <path fill="none" stroke="#ff00ff" stroke-width="3" d="M 571.303 50 L 571.303 766 "></path>
        <path fill="none" stroke="#ff00ff" stroke-width="3" d="M 574.634 50 L 574.634 766 "></path>
        <path fill="none" stroke="#ff00ff" stroke-width="3" d="M 577.965 50 L 577.965 766 "></path>
        <path fill="none" stroke="#ff00ff" stroke-width="3" d="M 581.296 50 L 581.296 766 "></path>
        <path fill="none" stroke="#ff00ff" stroke-width="3" d="M 584.627 50 L 584.627 766 "></path>
        <path fill="none" stroke="#ff00ff" stroke-width="3" d="M 587.958 50 L 587.958 766 "></path>
        <path fill="none" stroke="#ff00ff" stroke-width="3" d="M 591.289 50 L 591.289 766 "></path>
        <path fill="none" stroke="#ff00ff" stroke-width="3" d="M 594.62 50 L 594.62 766 "></path>
        <path fill="none" stroke="#ff00ff" stroke-width="3" d="M 597.951 50 L 597.951 766 "></path>
        <path fill="none" stroke="#ff00ff" stroke-width="3" d="M 601.282 50 L 601.282 766 "></path>
        <path fill="none" stroke="#ff00ff" stroke-width="3" d="M 604.613 50 L 604.613 766 "></path>
        <path fill="none" stroke="#ff00ff" stroke-width="3" d="M 607.944 50 L 607.944 766 "></path>
        <path fill="none" stroke="#ff00ff" stroke-width="3" d="M 611.275 50 L 611.275 766 "></path>
        <path fill="none" stroke="#ff00ff" stroke-width="3" d="M 614.606 50 L 614.606 766 "></path>
        <path fill="none" stroke="#ff00ff" stroke-width="3" d="M 617.937 50 L 617.937 766 "></path>
        <path fill="none" stroke="#ff00ff" stroke-width="3" d="M 621.268 50 L 621.268 766 "></path>
        <path fill="none" stroke="#ff00ff" stroke-width="3" d="M 624.599 50 L 624.599 766 "></path>
        <path fill="none" stroke="#ff00ff" stroke-width="3" d="M 627.93 50 L 627.93 766 "></path>
        <path fill="none" stroke="#ff00ff" stroke-width="3" d="M 631.261 50 L 631.261 766 "></path>
        <path fill="none" stroke="#ff00ff" stroke-width="3" d="M 634.592 50 L 634.592 766 "></path>
        <path fill="none" stroke="#ff00ff" stroke-width="3" d="M 637.923 50 L 637.923 766 "></path>
        <path fill="none" stroke="#ff00ff" stroke-width="3" d="M 641.254 50 L 641.254 766 "></path>
        <path fill="none" stroke="#ff00ff" stroke-width="3" d="M 644.585 50 L 644.585 766 "></path>
        <path fill="none" stroke="#ff00ff" stroke-width="3" d="M 647.916 50 L 647.916 766 "></path>
        <path fill="none" stroke="#ff00ff" stroke-width="3" d="M 651.247 50 L 651.247 766 "></path>
        <path fill="none" stroke="#ff00ff" stroke-width="3" d="M 654.578 50 L 654.578 766 "></path>
        <path fill="none" stroke="#ff00ff" stroke-width="3" d="M 657.909 50 L 657.909 766 "></path>
        <path fill="none" stroke="#ff00ff" stroke-width="3" d="M 661.24 50 L 661.24 766 "></path>
        <path fill="none" stroke="#ff00ff" stroke-width="3" d="M 664.571 50 L 664.571 766 "></path>
        <path fill="none" stroke="#ff00ff" stroke-width="3" d="M 667.902 50 L 667.902 766 "></path>
        <path fill="none" stroke="#ff00ff" stroke-width="3" d="M 671.233 50 L 671.233 766 "></path>
        <path fill="none" stroke="#ff00ff" stroke-width="3" d="M 674.564 50 L 674.564 766 "></path>
        <path fill="none" stroke="#ff00ff" stroke-width="3" d="M 677.895 50 L 677.895 766 "></path>
        <path fill="none" stroke="#ff00ff" stroke-width="3" d="M 681.227 50 L 681.227 766 "></path>
        <path fill="none" stroke="#ff00ff" stroke-width="3" d="M 684.558 50 L 684.558 766 "></path>
        <path fill="none" stroke="#ff00ff" stroke-width="3" d="M 687.889 50 L 687.889 766 "></path>
        <path fill="none" stroke="#ff00ff" stroke-width="3" d="M 691.22 50 L 691.22 766 "></path>
        <path fill="none" stroke="#ff00ff" stroke-width="3" d="M 694.551 50 L 694.551 766 "></path>
        <path fill="none" stroke="#ff00ff" stroke-width="3" d="M 697.882 50 L 697.882 766 "></path>
        <path fill="none" stroke="#ff00ff" stroke-width="3" d="M 701.213 50 L 701.213 766 "></path>
        <path fill="none" stroke="#ff00ff" stroke-width="3" d="M 704.544 50 L 704.544 766 "></path>
        <path fill="none" stroke="#ff00ff" stroke-width="3" d="M 707.875 50 L 707.875 766 "></path>
        <path fill="none" stroke="#ff00ff" stroke-width="3" d="M 711.206 50 L 711.206 766 "></path>
        <path fill="none" stroke="#ff00ff" stroke-width="3" d="M 714.537 50 L 714.537 766 "></path>
        <path fill="none" stroke="#ff00ff" stroke-width="3" d="M 717.868 50 L 717.868 766 "></path>
        <path fill="none" stroke="#ff00ff" stroke-width="3" d="M 721.199 50 L 721.199 766 "></path>
        <path fill="none" stroke="#ff00ff" stroke-width="3" d="M 724.53 50 L 724.53 766 "></path>
        <path fill="none" stroke="#ff00ff" stroke-width="3" d="M 727.861 50 L 727.861 766 "></path>
        <path fill="none" stroke="#ff00ff" stroke-width="3" d="M 731.192 50 L 731.192 766 "></path>
        <path fill="none" stroke="#ff00ff" stroke-width="3" d="M 734.523 50 L 734.523 766 "></path>
        <path fill="none" stroke="#ff00ff" stroke-width="3" d="M 737.854 50 L 737.854 766 "></path>
        <path fill="none" stroke="#ff00ff" stroke-width="3" d="M 741.185 50 L 741.185 766 "></path>
        <path fill="none" stroke="#ff00ff" stroke-width="3" d="M 744.516 50 L 744.516 766 "></path>
        <path fill="none" stroke="#ff00ff" stroke-width="3" d="M 747.847 50 L 747.847 766 "></path>
        <path fill="none" stroke="#ff00ff" stroke-width="3" d="M 751.178 50 L 751.178 766 "></path>
        <path fill="none" stroke="#ff00ff" stroke-width="3" d="M 754.509 50 L 754.509 766 "></path>
        <path fill="none" stroke="#ff00ff" stroke-width="3" d="M 757.84 50 L 757.84 766 "></path>
        <path fill="none" stroke="#ff00ff" stroke-width="3" d="M 761.171 50 L 761.171 766 "></path>
        <path fill="none" stroke="#ff00ff" stroke-width="3" d="M 764.502 50 L 764.502 766 "></path>
        <path fill="none" stroke="#ff00ff" stroke-width="3" d="M 767.833 50 L 767.833 766 "></path>
        <path fill="none" stroke="#ff00ff" stroke-width="3" d="M 771.164 50 L 771.164 766 "></path>
        <path fill="none" stroke="#ff00ff" stroke-width="3" d="M 774.495 50 L 774.495 766 "></path>
        <path fill="none" stroke="#ff00ff" stroke-width="3" d="M 777.826 50 L 777.826 766 "></path>
        <path fill="none" stroke="#ff00ff" stroke-width="3" d="M 781.157 50 L 781.157 766 "></path>
        <path fill="none" stroke="#ff00ff" stroke-width="3" d="M 784.488 50 L 784.488 766 "></path>
        <path fill="none" stroke="#ff00ff" stroke-width="3" d="M 787.819 50 L 787.819 766 "></path>
        <path fill="none" stroke="#ff00ff" stroke-width="3" d="M 791.15 50 L 791.15 766 "></path>
        <path fill="none" stroke="#ff00ff" stroke-width="3" d="M 794.481 50 L 794.481 766 "></path>
        <path fill="none" stroke="#ff00ff" stroke-width="3" d="M 797.812 50 L 797.812 766 "></path>
        <path fill="none" stroke="#ff00ff" stroke-width="3" d="M 801.143 50 L 801.143 766 "></path>
        <path fill="none" stroke="#ff00ff" stroke-width="3" d="M 804.474 50 L 804.474 766 "></path>
        <path fill="none" stroke="#ff00ff" stroke-width="3" d="M 807.805 50 L 807.805 766 "></path>
        <path fill="none" stroke="#ff00ff" stroke-width="3" d="M 811.136 50 L 811.136 766 "></path>
        <path fill="none" stroke="#ff00ff" stroke-width="3" d="M 814.467 50 L 814.467 766 "></path>
        <path fill="none" stroke="#ff00ff" stroke-width="3" d="M 817.798 50 L 817.798 766 "></path>
        <path fill="none" stroke="#ff00ff" stroke-width="3" d="M 821.129 50 L 821.129 766 "></path>
        <path fill="none" stroke="#ff00ff" stroke-width="3" d="M 824.46 50 L 824.46 766 "></path>
        <path fill="none" stroke="#ff00ff" stroke-width="3" d="M 827.791 50 L 827.791 766 "></path>
        <path fill="none" stroke="#ff00ff" stroke-width="3" d="M 831.122 50 L 831.122 766 "></path>
        <path fill="none" stroke="#ff00ff" stroke-width="3" d="M 834.453 50 L 834.453 766 "></path>
        <path fill="none" stroke="#ff00ff" stroke-width="3" d="M 837.784 50 L 837.784 766 "></path>
        <path fill="none" stroke="#ff00ff" stroke-width="3" d="M 841.115 50 L 841.115 766 "></path>
        <path fill="none" stroke="#ff00ff" stroke-width="3" d="M 844.446 50 L 844.446 766 "></path>
        <path fill="none" stroke="#ff00ff" stroke-width="3" d="M 847.777 50 L 847.777 766 "></path>
        <path fill="none" stroke="#ff00ff" stroke-width="3" d="M 851.108 50 L 851.108 766 "></path>
        <path fill="none" stroke="#ff00ff" stroke-width="3" d="M 854.439 50 L 854.439 766 "></path>
        <path fill="none" stroke="#ff00ff" stroke-width="3" d="M 857.77 50 L 857.77 766 "></path>
        <path fill="none" stroke="#ff00ff" stroke-width="3" d="M 861.101 50 L 861.101 766 "></path>
        <path fill="none" stroke="#ff00ff" stroke-width="3" d="M 864.432 50 L 864.432 766 "></path>
        <path fill="none" stroke="#ff00ff" stroke-width="3" d="M 867.763 50 L 867.763 766 "></path>
        <path fill="none" stroke="#ff00ff" stroke-width="3" d="M 871.094 50 L 871.094 766 "></path>
        <path fill="none" stroke="#ff00ff" stroke-width="3" d="M 874.425 50 L 874.425 766 "></path>
        <path fill="none" stroke="#ff00ff" stroke-width="3" d="M 877.756 50 L 877.756 766 "></path>
        <path fill="none" stroke="#ff00ff" stroke-width="3" d="M 881.087 50 L 881.087 766 "></path>
        <path fill="none" stroke="#ff00ff" stroke-width="3" d="M 884.418 50 L 884.418 766 "></path>
        <path fill="none" stroke="#ff00ff" stroke-width="3" d="M 887.749 50 L 887.749 766 "></path>
        <path fill="none" stroke="#ff00ff" stroke-width="3" d="M 891.08 50 L 891.08 766 "></path>
        <path fill="none" stroke="#ff00ff" stroke-width="3" d="M 894.411 50 L 894.411 766 "></path>
        <path fill="none" stroke="#ff00ff" stroke-width="3" d="M 897.742 50 L 897.742 766 "></path>
        <path fill="none" stroke="#ff00ff" stroke-width="3" d="M 901.073 50 L 901.073 766 "></path>
        <path fill="none" stroke="#ff00ff" stroke-width="3" d="M 904.404 50 L 904.404 766 "></path>
        <path fill="none" stroke="#ff00ff" stroke-width="3" d="M 907.735 50 L 907.735 766 "></path>
        <path fill="none" stroke="#ff00ff" stroke-width="3" d="M 911.066 50 L 911.066 766 "></path>
        <path fill="none" stroke="#ff00ff" stroke-width="3" d="M 914.397 50 L 914.397 766 "></path>
        <path fill="none" stroke="#ff00ff" stroke-width="3" d="M 917.728 50 L 917.728 766 "></path>
        <path fill="none" stroke="#ff00ff" stroke-width="3" d="M 921.059 50 L 921.059 766 "></path>
        <path fill="none" stroke="#ff00ff" stroke-width="3" d="M 924.39 50 L 924.39 766 "></path>
        <path fill="none" stroke="#ff00ff" stroke-width="3" d="M 927.721 50 L 927.721 766 "></path>
        <path fill="none" stroke="#ff00ff" stroke-width="3" d="M 931.052 50 L 931.052 766 "></path>
        <path fill="none" stroke="#ff00ff" stroke-width="3" d="M 934.383 50 L 934.383 766 "></path>
        <path fill="none" stroke="#ff00ff" stroke-width="3" d="M 937.714 50 L 937.714 766 "></path>
        <path fill="none" stroke="#ff00ff" stroke-width="3" d="M 941.045 50 L 941.045 766 "></path>
        <path fill="none" stroke="#ff00ff" stroke-width="3" d="M 944.376 50 L 944.376 766 "></path>
        <path fill="none" stroke="#ff00ff" stroke-width="3" d="M 947.707 50 L 947.707 766 "></path>
        <path fill="none" stroke="#ff00ff" stroke-width="3" d="M 951.038 50 L 951.038 766 "></path>
        <path fill="none" stroke="#ff00ff" stroke-width="3" d="M 954.369 50 L 954.369 766 "></path>
        <path fill="none" stroke="#ff00ff" stroke-width="3" d="M 957.7 50 L 957.7 766 "></path>
        <path fill="none" stroke="#ff00ff" stroke-width="3" d="M 961.031 50 L 961.031 766 "></path>
        <path fill="none" stroke="#ff00ff" stroke-width="3" d="M 964.362 50 L 964.362 766 "></path>
        <path fill="none" stroke="#ff00ff" stroke-width="3" d="M 967.693 50 L 967.693 766 "></path>
        <path fill="none" stroke="#ff00ff" stroke-width="3" d="M 971.024 50 L 971.024 766 "></path>
        <path fill="none" stroke="#ff00ff" stroke-width="3" d="M 974.355 50 L 974.355 766 "></path>
        <path fill="none" stroke="#ff00ff" stroke-width="3" d="M 977.686 50 L 977.686 766 "></path>
        <path fill="none" stroke="#ff00ff" stroke-width="3" d="M 981.017 50 L 981.017 766 "></path>
        <path fill="none" stroke="#ff00ff" stroke-width="3" d="M 984.348 50 L 984.348 766 "></path>
        <path fill="none" stroke="#ff00ff" stroke-width="3" d="M 987.68 50 L 987.68 766 "></path>
        <path fill="none" stroke="#ff00ff" stroke-width="3" d="M 991.01 50 L 991.01 766 "></path>
        <path fill="none" stroke="#ff00ff" stroke-width="3" d="M 994.341 50 L 994.341 766 "></path>
        <path fill="none" stroke="#ff00ff" stroke-width="3" d="M 997.672 50 L 997.672 766 "></path>
        <path fill="none" stroke="#ff00ff" stroke-width="3" d="M 1001 50 L 1001 766 "></path>
        <path fill="none" stroke="#ff00ff" stroke-width="3" d="M 1004.33 50 L 1004.33 766 "></path>
    </g>
</svg>
