<svg xmlns="http://www.w3.org/2000/svg" xmlns:xlink="http://www.w3.org/1999/xlink" version="1.1" x="0" y="0" width="1056px" height="816px">
    <g id="rootLayer" transform="translate(0.000000, 0.000000)">
        <path fill="none" stroke="#00ffff" stroke-width="3" d="M 541.232 770.972 L 1006 769.945 "></path>
        <path fill="none" stroke="#00ffff" stroke-width="3" d="M 541.241 761.028 L 1006 760 "></path>
        <path fill="none" stroke="#00ffff" stroke-width="3" d="M 470.404 751.083 L 1006 750.204 "></path>
        <path fill="none" stroke="#00ffff" stroke-width="3" d="M 495.91 741.139 L 1006 740.206 "></path>
        <path fill="none" stroke="#00ffff" stroke-width="3" d="M 359.885 731.194 L 1006 730.546 "></path>
        <path fill="none" stroke="#00ffff" stroke-width="3" d="M 613.744 721.25 L 1006 720.071 "></path>
        <path fill="none" stroke="#00ffff" stroke-width="3" d="M 619.079 711.306 L 1006 710.115 "></path>
        <path fill="none" stroke="#00ffff" stroke-width="3" d="M 469.28 701.361 L 1006 700.484 "></path>
        <path fill="none" stroke="#00ffff" stroke-width="3" d="M 335.85 691.417 L 1006 690.819 "></path>
        <path fill="none" stroke="#00ffff" stroke-width="3" d="M 384.343 681.472 L 1006 680.773 "></path>
        <path fill="none" stroke="#00ffff" stroke-width="3" d="M 465.971 671.528 L 1006 670.658 "></path>
        <path fill="none" stroke="#00ffff" stroke-width="3" d="M 610.869 661.583 L 1006 660.41 "></path>
        <path fill="none" stroke="#00ffff" stroke-width="3" d="M 659.866 651.639 L 1006 650.363 "></path>
        <path fill="none" stroke="#00ffff" stroke-width="3" d="M 442.062 641.694 L 1006 640.874 "></path>
        <path fill="none" stroke="#00ffff" stroke-width="3" d="M 435.596 631.75 L 1006 630.943 "></path>
        <path fill="none" stroke="#00ffff" stroke-width="3" d="M 465.323 621.806 L 1006 620.937 "></path>
        <path fill="none" stroke="#00ffff" stroke-width="3" d="M 498.218 611.861 L 1006 610.923 "></path>
        <path fill="none" stroke="#00ffff" stroke-width="3" d="M 469.407 601.917 L 1006 601.039 "></path>
        <path fill="none" stroke="#00ffff" stroke-width="3" d="M 544.539 591.972 L 1006 590.938 "></path>
        <path fill="none" stroke="#00ffff" stroke-width="3" d="M 514.759 582.028 L 1006 581.055 "></path>
        <path fill="none" stroke="#00ffff" stroke-width="3" d="M 489.342 572.083 L 1006 571.164 "></path>
        <path fill="none" stroke="#00ffff" stroke-width="3" d="M 559.171 562.139 L 1006 561.074 "></path>
        <path fill="none" stroke="#00ffff" stroke-width="3" d="M 395.893 552.194 L 1006 551.471 "></path>
        <path fill="none" stroke="#00ffff" stroke-width="3" d="M 673.126 542.25 L 1006 540.946 "></path>
        <path fill="none" stroke="#00ffff" stroke-width="3" d="M 717.763 532.306 L 1006 530.909 "></path>
        <path fill="none" stroke="#00ffff" stroke-width="3" d="M 496.467 522.361 L 1006 521.427 "></path>
        <path fill="none" stroke="#00ffff" stroke-width="3" d="M 700.561 512.417 L 1006 511.056 "></path>
        <path fill="none" stroke="#00ffff" stroke-width="3" d="M 712.794 502.472 L 1006 501.086 "></path>
        <path fill="none" stroke="#00ffff" stroke-width="3" d="M 579.583 492.528 L 1006 491.42 "></path>
        <path fill="none" stroke="#00ffff" stroke-width="3" d="M 438.758 482.583 L 1006 481.77 "></path>
        <path fill="none" stroke="#00ffff" stroke-width="3" d="M 522.052 472.639 L 1006 471.651 "></path>
        <path fill="none" stroke="#00ffff" stroke-width="3" d="M 496.545 462.694 L 1006 461.76 "></path>
        <path fill="none" stroke="#00ffff" stroke-width="3" d="M 445.633 452.75 L 1006 451.922 "></path>
        <path fill="none" stroke="#00ffff" stroke-width="3" d="M 549.38 442.806 L 1006 441.761 "></path>
        <path fill="none" stroke="#00ffff" stroke-width="3" d="M 421.449 432.861 L 1006 432.084 "></path>
        <path fill="none" stroke="#00ffff" stroke-width="3" d="M 460.508 422.917 L 1006 422.058 "></path>
        <path fill="none" stroke="#00ffff" stroke-width="3" d="M 501.524 412.972 L 1006 412.028 "></path>
        <path fill="none" stroke="#00ffff" stroke-width="3" d="M 541.242 403.028 L 1006 402 "></path>
        <path fill="none" stroke="#00ffff" stroke-width="3" d="M 566.243 393.083 L 1006 392.003 "></path>
        <path fill="none" stroke="#00ffff" stroke-width="3" d="M 541.056 383.139 L 1006 382.112 "></path>
        <path fill="none" stroke="#00ffff" stroke-width="3" d="M 440.121 373.194 L 1006 372.378 "></path>
        <path fill="none" stroke="#00ffff" stroke-width="3" d="M 432.399 363.25 L 1006 362.45 "></path>
        <path fill="none" stroke="#00ffff" stroke-width="3" d="M 526.37 353.306 L 1006 352.309 "></path>
        <path fill="none" stroke="#00ffff" stroke-width="3" d="M 403.717 343.361 L 1006 342.621 "></path>
        <path fill="none" stroke="#00ffff" stroke-width="3" d="M 262.995 333.417 L 1006 332.971 "></path>
        <path fill="none" stroke="#00ffff" stroke-width="3" d="M 740.327 323.472 L 1006 322.028 "></path>
        <path fill="none" stroke="#00ffff" stroke-width="3" d="M 736.845 313.528 L 1006 312.091 "></path>
        <path fill="none" stroke="#00ffff" stroke-width="3" d="M 587.648 303.583 L 1006 302.459 "></path>
        <path fill="none" stroke="#00ffff" stroke-width="3" d="M 351.842 293.639 L 1006 293.007 "></path>
        <path fill="none" stroke="#00ffff" stroke-width="3" d="M 312.737 283.694 L 1006 283.145 "></path>
        <path fill="none" stroke="#00ffff" stroke-width="3" d="M 359.8 273.75 L 1006 273.102 "></path>
        <path fill="none" stroke="#00ffff" stroke-width="3" d="M 559.058 263.806 L 1006 262.741 "></path>
        <path fill="none" stroke="#00ffff" stroke-width="3" d="M 602.002 253.861 L 1006 252.706 "></path>
        <path fill="none" stroke="#00ffff" stroke-width="3" d="M 537.256 243.917 L 1006 242.897 "></path>
        <path fill="none" stroke="#00ffff" stroke-width="3" d="M 504.846 233.972 L 1006 233.021 "></path>
        <path fill="none" stroke="#00ffff" stroke-width="3" d="M 524.685 224.028 L 1006 223.035 "></path>
        <path fill="none" stroke="#00ffff" stroke-width="3" d="M 450.813 214.083 L 1006 213.245 "></path>
        <path fill="none" stroke="#00ffff" stroke-width="3" d="M 403.34 204.139 L 1006 203.4 "></path>
        <path fill="none" stroke="#00ffff" stroke-width="3" d="M 560.52 194.194 L 1006 193.126 "></path>
        <path fill="none" stroke="#00ffff" stroke-width="3" d="M 336.798 184.25 L 1006 183.65 "></path>
        <path fill="none" stroke="#00ffff" stroke-width="3" d="M 416.571 174.306 L 1006 173.539 "></path>
        <path fill="none" stroke="#00ffff" stroke-width="3" d="M 432.72 164.361 L 1006 163.56 "></path>
        <path fill="none" stroke="#00ffff" stroke-width="3" d="M 451.514 154.417 L 1006 153.577 "></path>
        <path fill="none" stroke="#00ffff" stroke-width="3" d="M 483.058 144.472 L 1006 143.566 "></path>
        <path fill="none" stroke="#00ffff" stroke-width="3" d="M 692.226 134.528 L 1006 133.184 "></path>
        <path fill="none" stroke="#00ffff" stroke-width="3" d="M 518.43 124.583 L 1006 123.603 "></path>
        <path fill="none" stroke="#00ffff" stroke-width="3" d="M 528.905 114.639 L 1006 113.637 "></path>
        <path fill="none" stroke="#00ffff" stroke-width="3" d="M 663.287 104.694 L 1006 103.411 "></path>
        <path fill="none" stroke="#00ffff" stroke-width="3" d="M 340.202 94.75 L 1006 94.1429 "></path>
        <path fill="none" stroke="#00ffff" stroke-width="3" d="M 560.52 84.8056 L 1006 83.7375 "></path>
        <path fill="none" stroke="#00ffff" stroke-width="3" d="M 401.968 74.8611 L 1006 74.1248 "></path>
        <path fill="none" stroke="#00ffff" stroke-width="3" d="M 469.682 64.9167 L 1006 64.0387 "></path>
    </g>
</svg>
