<svg xmlns="http://www.w3.org/2000/svg" xmlns:xlink="http://www.w3.org/1999/xlink" version="1.1" x="0" y="0" width="1056px" height="816px">
    <g id="rootLayer" transform="translate(0.000000, 0.000000)">
        <path fill="none" stroke="#ff00ff" stroke-width="3" d="M 50 770.972 L 1006 770.972 "></path>
        <path fill="none" stroke="#ff00ff" stroke-width="3" d="M 50 761.028 L 1006 761.028 "></path>
        <path fill="none" stroke="#ff00ff" stroke-width="3" d="M 50 751.083 L 1006 751.083 "></path>
        <path fill="none" stroke="#ff00ff" stroke-width="3" d="M 50 741.139 L 1006 741.139 "></path>
        <path fill="none" stroke="#ff00ff" stroke-width="3" d="M 50 731.194 L 1006 731.194 "></path>
        <path fill="none" stroke="#ff00ff" stroke-width="3" d="M 50 721.25 L 1006 721.25 "></path>
        <path fill="none" stroke="#ff00ff" stroke-width="3" d="M 50 711.306 L 1006 711.306 "></path>
        <path fill="none" stroke="#ff00ff" stroke-width="3" d="M 50 701.361 L 1006 701.361 "></path>
        <path fill="none" stroke="#ff00ff" stroke-width="3" d="M 50 691.417 L 1006 691.417 "></path>
        <path fill="none" stroke="#ff00ff" stroke-width="3" d="M 50 681.472 L 1006 681.472 "></path>
        <path fill="none" stroke="#ff00ff" stroke-width="3" d="M 50 671.528 L 1006 671.528 "></path>
        <path fill="none" stroke="#ff00ff" stroke-width="3" d="M 50 661.583 L 1006 661.583 "></path>
        <path fill="none" stroke="#ff00ff" stroke-width="3" d="M 50 651.639 L 1006 651.639 "></path>
        <path fill="none" stroke="#ff00ff" stroke-width="3" d="M 50 641.694 L 1006 641.694 "></path>
        <path fill="none" stroke="#ff00ff" stroke-width="3" d="M 50 631.75 L 1006 631.75 "></path>
        <path fill="none" stroke="#ff00ff" stroke-width="3" d="M 50 621.806 L 1006 621.806 "></path>
        <path fill="none" stroke="#ff00ff" stroke-width="3" d="M 50 611.861 L 1006 611.861 "></path>
        <path fill="none" stroke="#ff00ff" stroke-width="3" d="M 50 601.917 L 1006 601.917 "></path>
        <path fill="none" stroke="#ff00ff" stroke-width="3" d="M 50 591.972 L 1006 591.972 "></path>
        <path fill="none" stroke="#ff00ff" stroke-width="3" d="M 50 582.028 L 1006 582.028 "></path>
        <path fill="none" stroke="#ff00ff" stroke-width="3" d="M 50 572.083 L 1006 572.083 "></path>
        <path fill="none" stroke="#ff00ff" stroke-width="3" d="M 50 562.139 L 1006 562.139 "></path>
        <path fill="none" stroke="#ff00ff" stroke-width="3" d="M 50 552.194 L 1006 552.194 "></path>
        <path fill="none" stroke="#ff00ff" stroke-width="3" d="M 50 542.25 L 1006 542.25 "></path>
        <path fill="none" stroke="#ff00ff" stroke-width="3" d="M 50 532.306 L 1006 532.306 "></path>
        <path fill="none" stroke="#ff00ff" stroke-width="3" d="M 50 522.361 L 1006 522.361 "></path>
        <path fill="none" stroke="#ff00ff" stroke-width="3" d="M 50 512.417 L 1006 512.417 "></path>
        <path fill="none" stroke="#ff00ff" stroke-width="3" d="M 50 502.472 L 1006 502.472 "></path>
        <path fill="none" stroke="#ff00ff" stroke-width="3" d="M 50 492.528 L 1006 492.528 "></path>
        <path fill="none" stroke="#ff00ff" stroke-width="3" d="M 50 482.583 L 1006 482.583 "></path>
        <path fill="none" stroke="#ff00ff" stroke-width="3" d="M 50 472.639 L 1006 472.639 "></path>
        <path fill="none" stroke="#ff00ff" stroke-width="3" d="M 50 462.694 L 1006 462.694 "></path>
        <path fill="none" stroke="#ff00ff" stroke-width="3" d="M 50 452.75 L 1006 452.75 "></path>
        <path fill="none" stroke="#ff00ff" stroke-width="3" d="M 50 442.806 L 1006 442.806 "></path>
        <path fill="none" stroke="#ff00ff" stroke-width="3" d="M 50 432.861 L 1006 432.861 "></path>
        <path fill="none" stroke="#ff00ff" stroke-width="3" d="M 50 422.917 L 1006 422.917 "></path>
        <path fill="none" stroke="#ff00ff" stroke-width="3" d="M 50 412.972 L 1006 412.972 "></path>
        <path fill="none" stroke="#ff00ff" stroke-width="3" d="M 50 403.028 L 1006 403.028 "></path>
        <path fill="none" stroke="#ff00ff" stroke-width="3" d="M 50 393.083 L 1006 393.083 "></path>
        <path fill="none" stroke="#ff00ff" stroke-width="3" d="M 50 383.139 L 1006 383.139 "></path>
        <path fill="none" stroke="#ff00ff" stroke-width="3" d="M 50 373.194 L 1006 373.194 "></path>
        <path fill="none" stroke="#ff00ff" stroke-width="3" d="M 50 363.25 L 1006 363.25 "></path>
        <path fill="none" stroke="#ff00ff" stroke-width="3" d="M 50 353.306 L 1006 353.306 "></path>
        <path fill="none" stroke="#ff00ff" stroke-width="3" d="M 50 343.361 L 1006 343.361 "></path>
        <path fill="none" stroke="#ff00ff" stroke-width="3" d="M 50 333.417 L 1006 333.417 "></path>
        <path fill="none" stroke="#ff00ff" stroke-width="3" d="M 50 323.472 L 1006 323.472 "></path>
        <path fill="none" stroke="#ff00ff" stroke-width="3" d="M 50 313.528 L 1006 313.528 "></path>
        <path fill="none" stroke="#ff00ff" stroke-width="3" d="M 50 303.583 L 1006 303.583 "></path>
        <path fill="none" stroke="#ff00ff" stroke-width="3" d="M 50 293.639 L 1006 293.639 "></path>
        <path fill="none" stroke="#ff00ff" stroke-width="3" d="M 50 283.694 L 1006 283.694 "></path>
        <path fill="none" stroke="#ff00ff" stroke-width="3" d="M 50 273.75 L 1006 273.75 "></path>
        <path fill="none" stroke="#ff00ff" stroke-width="3" d="M 50 263.806 L 1006 263.806 "></path>
        <path fill="none" stroke="#ff00ff" stroke-width="3" d="M 50 253.861 L 1006 253.861 "></path>
        <path fill="none" stroke="#ff00ff" stroke-width="3" d="M 50 243.917 L 1006 243.917 "></path>
        <path fill="none" stroke="#ff00ff" stroke-width="3" d="M 50 233.972 L 1006 233.972 "></path>
        <path fill="none" stroke="#ff00ff" stroke-width="3" d="M 50 224.028 L 1006 224.028 "></path>
        <path fill="none" stroke="#ff00ff" stroke-width="3" d="M 50 214.083 L 1006 214.083 "></path>
        <path fill="none" stroke="#ff00ff" stroke-width="3" d="M 50 204.139 L 1006 204.139 "></path>
        <path fill="none" stroke="#ff00ff" stroke-width="3" d="M 50 194.194 L 1006 194.194 "></path>
        <path fill="none" stroke="#ff00ff" stroke-width="3" d="M 50 184.25 L 1006 184.25 "></path>
        <path fill="none" stroke="#ff00ff" stroke-width="3" d="M 50 174.306 L 1006 174.306 "></path>
        <path fill="none" stroke="#ff00ff" stroke-width="3" d="M 50 164.361 L 1006 164.361 "></path>
        <path fill="none" stroke="#ff00ff" stroke-width="3" d="M 50 154.417 L 1006 154.417 "></path>
        <path fill="none" stroke="#ff00ff" stroke-width="3" d="M 50 144.472 L 1006 144.472 "></path>
        <path fill="none" stroke="#ff00ff" stroke-width="3" d="M 50 134.528 L 1006 134.528 "></path>
        <path fill="none" stroke="#ff00ff" stroke-width="3" d="M 50 124.583 L 1006 124.583 "></path>
        <path fill="none" stroke="#ff00ff" stroke-width="3" d="M 50 114.639 L 1006 114.639 "></path>
        <path fill="none" stroke="#ff00ff" stroke-width="3" d="M 50 104.694 L 1006 104.694 "></path>
        <path fill="none" stroke="#ff00ff" stroke-width="3" d="M 50 94.75 L 1006 94.75 "></path>
        <path fill="none" stroke="#ff00ff" stroke-width="3" d="M 50 84.8056 L 1006 84.8056 "></path>
        <path fill="none" stroke="#ff00ff" stroke-width="3" d="M 50 74.8611 L 1006 74.8611 "></path>
        <path fill="none" stroke="#ff00ff" stroke-width="3" d="M 50 64.9167 L 1006 64.9167 "></path>
    </g>
</svg>
